<?xml version="1.0" encoding="UTF-8" standalone="no"?>
<!-- Created with Inkscape (http://www.inkscape.org/) -->

<svg
   xmlns:dc="http://purl.org/dc/elements/1.1/"
   xmlns:cc="http://creativecommons.org/ns#"
   xmlns:rdf="http://www.w3.org/1999/02/22-rdf-syntax-ns#"
   xmlns:svg="http://www.w3.org/2000/svg"
   xmlns="http://www.w3.org/2000/svg"
   xmlns:xlink="http://www.w3.org/1999/xlink"
   xmlns:sodipodi="http://sodipodi.sourceforge.net/DTD/sodipodi-0.dtd"
   xmlns:inkscape="http://www.inkscape.org/namespaces/inkscape"
   width="256"
   height="256"
   id="svg2"
   sodipodi:version="0.32"
   inkscape:version="0.48.3.1 r9886"
   version="1.0"
   sodipodi:docname="about.svg"
   inkscape:output_extension="org.inkscape.output.svg.inkscape">
  <sodipodi:namedview
     id="base"
     pagecolor="#ffffff"
     bordercolor="#666666"
     borderopacity="1.0"
     inkscape:pageopacity="0"
     inkscape:pageshadow="2"
     inkscape:zoom="1.4960938"
     inkscape:cx="116.30287"
     inkscape:cy="128"
     inkscape:document-units="px"
     inkscape:current-layer="layer1"
     width="256px"
     height="256px"
     inkscape:window-width="1024"
     inkscape:window-height="553"
     inkscape:window-x="-4"
     inkscape:window-y="24"
     showgrid="false"
     inkscape:window-maximized="1"
     showguides="true"
     inkscape:guide-bbox="true"
     inkscape:snap-global="false"
     inkscape:snap-bbox="true"
     inkscape:bbox-paths="true"
     inkscape:bbox-nodes="true"
     inkscape:snap-bbox-edge-midpoints="true"
     inkscape:snap-bbox-midpoints="true"
     inkscape:object-paths="true"
     inkscape:snap-intersection-paths="true"
     inkscape:object-nodes="true"
     inkscape:snap-smooth-nodes="true"
     inkscape:snap-midpoints="true"
     inkscape:snap-object-midpoints="true" />
  <defs
     id="defs4">
    <linearGradient
       inkscape:collect="always"
       xlink:href="#linearGradient3637"
       id="linearGradient3755"
       gradientUnits="userSpaceOnUse"
       gradientTransform="matrix(14.394769,0.75857788,-0.75830815,14.397528,16.685491,10.180764)"
       x1="10.118166"
       y1="4.9088984"
       x2="10.453191"
       y2="15.235071" />
    <linearGradient
       inkscape:collect="always"
       xlink:href="#linearGradient3637"
       id="linearGradient3013"
       gradientUnits="userSpaceOnUse"
       gradientTransform="matrix(14.394769,0.75857788,-0.75830815,14.397528,16.685491,10.180764)"
       x1="9.9171076"
       y1="5.0587668"
       x2="10.456849"
       y2="15.304517" />
    <linearGradient
       id="linearGradient3637">
      <stop
         id="stop3639"
         style="stop-color:#5a5a5a;stop-opacity:1;"
         offset="0" />
      <stop
         id="stop3641"
         style="stop-color:#000000;stop-opacity:1;"
         offset="1" />
    </linearGradient>
    <linearGradient
       inkscape:collect="always"
       xlink:href="#linearGradient3637"
       id="linearGradient3891"
       gradientUnits="userSpaceOnUse"
       gradientTransform="matrix(14.394769,0.75857788,-0.75830815,14.397528,16.685491,10.180764)"
       x1="10.121824"
       y1="4.978343"
       x2="10.38739"
       y2="15.308176" />
  </defs>
  <metadata
     id="metadata7">
    <rdf:RDF>
      <cc:Work
         rdf:about="">
        <dc:format>image/svg+xml</dc:format>
        <dc:type
           rdf:resource="http://purl.org/dc/dcmitype/StillImage" />
        <dc:title></dc:title>
      </cc:Work>
    </rdf:RDF>
  </metadata>
  <g
     id="layer1"
     inkscape:groupmode="layer"
     inkscape:label="1. réteg">
    <g
       id="g3893">
      <g
         transform="matrix(0.6666667,0,0,0.6666667,-40.978749,72.640683)"
         id="g3765">
        <path
           inkscape:connector-curvature="0"
           d="m 160.60802,81.362873 a 4.6305435,4.6305435 0 0 0 -1.74215,0.40182 c -4.01193,1.521809 -5.72088,4.569539 -6.56653,5.494454 a 4.6305435,4.6305435 0 0 0 -0.80407,1.072094 c -6.63923,13.846569 -14.10971,27.547139 -21.17374,41.543419 -0.009,0.0171 -0.1248,-0.0171 -0.1338,0 -0.81191,0.0879 -2.49801,0.23457 -4.42236,0.80406 l 0,-0.1338 c -14.45454,2.60219 -29.264232,5.15174 -43.553589,7.77264 a 4.6305435,4.6305435 0 0 0 -1.474125,0.53606 c -2.208674,1.2531 -4.863809,3.54358 -6.030493,6.96856 l -0.1338,-0.1338 c -0.0879,0.1831 -0.05745,0.35292 -0.1338,0.53604 -0.0588,0.20884 -0.221715,0.31776 -0.268035,0.53604 l 0.268035,0 c -0.66711,1.85119 -1.097865,3.76497 -0.938085,5.49445 0.1209,1.30632 0.85707,2.49681 1.474125,3.75231 l -0.1338,0 c 0.105,0.41469 0.38895,0.4435 0.536039,0.80407 0.29418,0.44654 0.09735,0.89754 0.536055,1.3401 l 0.1338,-0.1338 c 0.749745,1.17164 1.43481,2.56749 2.14419,3.21627 1.139445,1.04211 2.009775,1.86947 2.412194,2.4122 a 4.6305435,4.6305435 0 0 0 0.40182,0.40182 l 28.812369,29.48243 c -2.24194,15.90022 -4.93779,31.95951 -6.83457,48.10996 a 4.6305435,4.6305435 0 0 0 0,1.47412 c 0.26246,1.31619 0.60141,2.86398 1.47413,4.55639 0.56847,1.10235 1.79793,1.91971 2.94825,2.81422 l -0.1338,0.1338 c 0.23886,0.29289 0.55731,0.16338 0.80406,0.40182 0.40354,0.25644 0.49629,0.74982 0.93808,0.93807 l 0.1338,-0.26802 c 1.21682,0.825 2.40666,1.72718 3.75231,2.01017 2.0286,0.42669 4.3699,0.5607 6.70054,-0.26802 3.10782,-1.10837 5.95271,-2.98625 8.04066,-3.88632 a 4.6305435,4.6305435 0 0 0 0.1338,-0.1338 l 35.1109,-17.28743 41.94545,20.77172 a 4.6305435,4.6305435 0 0 0 0.80406,0.26802 c 1.23372,0.33706 2.91484,0.70543 4.8244,0.80407 1.77143,0.0913 4.01694,0.12045 6.29852,-1.74214 0.17797,-0.14535 0.35808,-0.0974 0.53604,-0.26804 2.06871,-0.99948 3.68644,-2.51442 4.69039,-4.55637 l 0.1338,0.1338 c 0.12735,-0.18183 0.0257,-0.3525 0.1338,-0.53604 0.1287,-0.2989 0.43871,-0.49287 0.53606,-0.80407 l -0.26802,-0.1338 c 0.79497,-1.8078 1.40296,-3.71582 1.3401,-5.22642 -0.0805,-1.93839 -0.47249,-3.60755 -0.67005,-4.95842 l -6.16451,-42.61551 c 10.8123,-11.07132 21.59404,-22.1026 32.43067,-33.10072 0.1329,-0.13515 0.26888,-0.26717 0.40182,-0.40182 l -0.1338,-0.1338 c 1.56809,-1.48269 2.63489,-3.16532 3.21627,-5.09241 0.59076,-1.95828 0.75139,-4.25833 0.1338,-6.56655 l 0.1338,0 c -0.0214,-0.11145 -0.1077,-0.15867 -0.1338,-0.26802 -0.03,-0.0948 0.03,-0.17325 0,-0.26802 l -0.1338,0 c -0.8461,-3.10939 -2.71218,-5.60668 -4.69039,-7.23659 a 4.6305435,4.6305435 0 0 0 -1.07208,-0.53604 c -2.96931,-1.37013 -5.86202,-1.71942 -8.84474,-2.14418 l -0.1338,0 -41.14139,-6.83457 C 189.47619,116.15931 181.62078,101.4786 174.27714,87.125782 a 4.6305435,4.6305435 0 0 0 -1.60812,-1.742145 c -0.49132,-0.322485 -1.37965,-1.169565 -2.94825,-2.144175 -1.41237,-0.877574 -3.69,-1.421459 -6.03049,-1.340114 l 0,-0.26802 c -0.55946,-0.02145 -1.51658,-0.22557 -3.08226,-0.26802 z"
           id="path3998"
           style="opacity:0.05;fill:#000000;fill-opacity:1;stroke:none;display:inline" />
        <path
           d="m 160.41705,86.109877 c -2.6562,1.00755 -3.29212,2.683694 -4.73532,4.262189 -6.77834,14.136734 -14.34587,28.060444 -21.42782,42.115234 -1.14178,2.80415 -5.24805,1.59684 -7.69644,2.633 -14.4782,2.60643 -29.307547,5.20315 -43.562554,7.81775 -2.07822,1.17908 -3.824954,2.44265 -4.309184,4.7358 -1.176855,2.45646 -0.73524,5.97891 0.520515,7.24616 0.56838,2.24735 3.484034,3.60788 5.213564,5.9404 10.091533,10.3737 20.183009,20.74744 30.274499,31.12114 -2.3159,16.72487 -5.18411,33.39478 -7.15247,50.1543 0.49823,2.49716 0.97749,4.59287 3.31434,5.58872 1.12805,1.38217 4.58391,2.19156 7.15002,1.27912 2.17539,-0.7758 5.11321,-2.61499 7.71831,-3.73798 12.39847,-6.08616 24.79696,-12.17228 37.19544,-18.2584 14.6549,7.23908 29.30979,14.47813 43.96468,21.7172 2.01286,0.55029 5.77701,1.31666 7.22107,-0.0708 2.11394,-0.36664 3.63708,-1.83892 4.2618,-3.83593 1.45265,-2.0741 0.67392,-5.22792 0.23886,-8.20383 -2.15428,-14.97043 -4.30858,-29.94081 -6.46288,-44.91124 11.45355,-11.71882 22.82951,-23.51836 34.33139,-35.18687 1.77422,-1.48164 3.05996,-4.93504 2.2022,-7.55385 -0.44538,-2.08479 -1.78391,-3.85836 -3.33801,-5.13881 -1.9877,-0.91721 -4.72028,-1.3508 -7.75167,-1.78611 -14.54926,-2.41296 -29.09854,-4.82594 -43.6478,-7.23896 -7.88619,-15.14281 -16.05444,-30.39109 -23.7682,-45.467344 -1.97118,-1.294395 -3.4514,-3.428669 -6.60534,-3.055109 -1.05057,-0.03855 -2.10002,-0.1377 -3.14886,-0.16596 z"
           inkscape:connector-curvature="0"
           id="path3992"
           style="opacity:0.07999998;fill:#000000;fill-opacity:1;stroke:none;display:inline" />
        <path
           inkscape:connector-curvature="0"
           d="m 162.00311,90.254001 a 4.1124062,4.1116154 88.716084 0 0 -1.39689,0.828735 4.1124062,4.1116154 88.716084 0 0 -0.9708,1.30233 l -23.58312,45.227884 -50.54796,9.06669 a 4.1124062,4.1116154 88.716084 0 0 -3.385829,4.3333 4.1124062,4.1116154 88.716084 0 0 0.781215,2.29701 4.1124062,4.1116154 88.716084 0 0 0.426255,0.47361 l 35.511729,36.61163 -7.15242,50.15426 a 4.1124062,4.1116154 88.716084 0 0 0.33148,2.27336 4.1124062,4.1116154 88.716084 0 0 0.82856,1.39717 4.1124062,4.1116154 88.716084 0 0 2.20182,1.01837 4.1124062,4.1116154 88.716084 0 0 2.27286,-0.33149 l 46.28699,-22.37518 45.29049,22.23825 a 4.1124062,4.1116154 88.716084 0 0 3.5987,0.18954 4.1124062,4.1116154 88.716084 0 0 1.39689,-0.82872 4.1124062,4.1116154 88.716084 0 0 0.99447,-1.7523 4.1124062,4.1116154 88.716084 0 0 0.0948,-1.7997 l -7.26602,-50.46293 35.752,-36.4655 a 4.1124062,4.1116154 88.716084 0 0 1.08926,-3.552 4.1124062,4.1116154 88.716084 0 0 -0.80489,-1.84709 4.1124062,4.1116154 88.716084 0 0 -1.30212,-0.97096 4.1124062,4.1116154 88.716084 0 0 -1.32579,-0.52104 l -50.07363,-8.50401 -24.19434,-45.940999 a 4.1124062,4.1116154 88.716084 0 0 -4.40358,-2.03676 4.1124062,4.1116154 88.716084 0 0 -0.44985,-0.0258 z"
           id="path3988"
           style="opacity:0.15;fill:#000000;fill-opacity:1;stroke:none;display:inline" />
        <path
           inkscape:connector-curvature="0"
           d="m 86.09789,150.57698 52.38554,-9.05069 24.82,-47.0206 24.79453,47.03449 52.38063,9.07994 -37.06171,38.1196 7.55304,52.63233 -47.6999,-23.47526 -47.71265,23.44859 7.58156,-52.62809 z"
           id="path3982"
           style="opacity:0.3;fill:#000000;fill-opacity:1;stroke:none;display:inline" />
        <path
           inkscape:connector-curvature="0"
           d="m 86.09789,146.28863 52.38554,-9.05069 24.82,-47.020599 24.79453,47.034489 52.38063,9.07994 -37.06171,38.1196 7.55304,52.63233 -47.6999,-23.47526 -47.71265,23.44858 7.58156,-52.62808 z"
           id="path3748"
           style="fill:url(#linearGradient3755);fill-opacity:1;stroke:none;display:inline" />
        <path
           d="m 163.28825,209.34341 -47.03788,23.18391 -0.67006,4.55638 47.70794,-23.45194 47.70792,23.45194 -0.67006,-4.55638 z"
           inkscape:connector-curvature="0"
           id="path4094"
           style="opacity:0.4;fill:#333333;fill-opacity:1;stroke:none;display:inline" />
        <path
           style="opacity:0.4;fill:#ffffff;fill-opacity:1;stroke:none;display:inline"
           id="path3761"
           inkscape:connector-curvature="0"
           d="m 186.89056,141.19277 51.84271,7.8987 3.1565,-3.35352 -52.54562,-8.06226 -25.70936,-46.53029 -2.05739,4.120278 z" />
        <path
           d="m 139.97819,140.52086 -51.842718,7.8987 -3.1565,-3.35352 52.545628,-8.06226 25.70936,-46.530296 2.05739,4.120278 z"
           inkscape:connector-curvature="0"
           id="path3763"
           style="opacity:0.4;fill:#ffffff;fill-opacity:1;stroke:none;display:inline" />
      </g>
      <g
         id="g2995"
         transform="matrix(0.6666667,0,0,0.6666667,79.021251,72.640683)">
        <path
           style="opacity:0.05;fill:#000000;fill-opacity:1;stroke:none;display:inline"
           id="path2997"
           d="m 160.60802,81.362873 a 4.6305435,4.6305435 0 0 0 -1.74215,0.40182 c -4.01193,1.521809 -5.72088,4.569539 -6.56653,5.494454 a 4.6305435,4.6305435 0 0 0 -0.80407,1.072094 c -6.63923,13.846569 -14.10971,27.547139 -21.17374,41.543419 -0.009,0.0171 -0.1248,-0.0171 -0.1338,0 -0.81191,0.0879 -2.49801,0.23457 -4.42236,0.80406 l 0,-0.1338 c -14.45454,2.60219 -29.264232,5.15174 -43.553589,7.77264 a 4.6305435,4.6305435 0 0 0 -1.474125,0.53606 c -2.208674,1.2531 -4.863809,3.54358 -6.030493,6.96856 l -0.1338,-0.1338 c -0.0879,0.1831 -0.05745,0.35292 -0.1338,0.53604 -0.0588,0.20884 -0.221715,0.31776 -0.268035,0.53604 l 0.268035,0 c -0.66711,1.85119 -1.097865,3.76497 -0.938085,5.49445 0.1209,1.30632 0.85707,2.49681 1.474125,3.75231 l -0.1338,0 c 0.105,0.41469 0.38895,0.4435 0.536039,0.80407 0.29418,0.44654 0.09735,0.89754 0.536055,1.3401 l 0.1338,-0.1338 c 0.749745,1.17164 1.43481,2.56749 2.14419,3.21627 1.139445,1.04211 2.009775,1.86947 2.412194,2.4122 a 4.6305435,4.6305435 0 0 0 0.40182,0.40182 l 28.812369,29.48243 c -2.24194,15.90022 -4.93779,31.95951 -6.83457,48.10996 a 4.6305435,4.6305435 0 0 0 0,1.47412 c 0.26246,1.31619 0.60141,2.86398 1.47413,4.55639 0.56847,1.10235 1.79793,1.91971 2.94825,2.81422 l -0.1338,0.1338 c 0.23886,0.29289 0.55731,0.16338 0.80406,0.40182 0.40354,0.25644 0.49629,0.74982 0.93808,0.93807 l 0.1338,-0.26802 c 1.21682,0.825 2.40666,1.72718 3.75231,2.01017 2.0286,0.42669 4.3699,0.5607 6.70054,-0.26802 3.10782,-1.10837 5.95271,-2.98625 8.04066,-3.88632 a 4.6305435,4.6305435 0 0 0 0.1338,-0.1338 l 35.1109,-17.28743 41.94545,20.77172 a 4.6305435,4.6305435 0 0 0 0.80406,0.26802 c 1.23372,0.33706 2.91484,0.70543 4.8244,0.80407 1.77143,0.0913 4.01694,0.12045 6.29852,-1.74214 0.17797,-0.14535 0.35808,-0.0974 0.53604,-0.26804 2.06871,-0.99948 3.68644,-2.51442 4.69039,-4.55637 l 0.1338,0.1338 c 0.12735,-0.18183 0.0257,-0.3525 0.1338,-0.53604 0.1287,-0.2989 0.43871,-0.49287 0.53606,-0.80407 l -0.26802,-0.1338 c 0.79497,-1.8078 1.40296,-3.71582 1.3401,-5.22642 -0.0805,-1.93839 -0.47249,-3.60755 -0.67005,-4.95842 l -6.16451,-42.61551 c 10.8123,-11.07132 21.59404,-22.1026 32.43067,-33.10072 0.1329,-0.13515 0.26888,-0.26717 0.40182,-0.40182 l -0.1338,-0.1338 c 1.56809,-1.48269 2.63489,-3.16532 3.21627,-5.09241 0.59076,-1.95828 0.75139,-4.25833 0.1338,-6.56655 l 0.1338,0 c -0.0214,-0.11145 -0.1077,-0.15867 -0.1338,-0.26802 -0.03,-0.0948 0.03,-0.17325 0,-0.26802 l -0.1338,0 c -0.8461,-3.10939 -2.71218,-5.60668 -4.69039,-7.23659 a 4.6305435,4.6305435 0 0 0 -1.07208,-0.53604 c -2.96931,-1.37013 -5.86202,-1.71942 -8.84474,-2.14418 l -0.1338,0 -41.14139,-6.83457 C 189.47619,116.15931 181.62078,101.4786 174.27714,87.125782 a 4.6305435,4.6305435 0 0 0 -1.60812,-1.742145 c -0.49132,-0.322485 -1.37965,-1.169565 -2.94825,-2.144175 -1.41237,-0.877574 -3.69,-1.421459 -6.03049,-1.340114 l 0,-0.26802 c -0.55946,-0.02145 -1.51658,-0.22557 -3.08226,-0.26802 z"
           inkscape:connector-curvature="0" />
        <path
           style="opacity:0.07999998;fill:#000000;fill-opacity:1;stroke:none;display:inline"
           id="path2999"
           inkscape:connector-curvature="0"
           d="m 160.41705,86.109877 c -2.6562,1.00755 -3.29212,2.683694 -4.73532,4.262189 -6.77834,14.136734 -14.34587,28.060444 -21.42782,42.115234 -1.14178,2.80415 -5.24805,1.59684 -7.69644,2.633 -14.4782,2.60643 -29.307547,5.20315 -43.562554,7.81775 -2.07822,1.17908 -3.824954,2.44265 -4.309184,4.7358 -1.176855,2.45646 -0.73524,5.97891 0.520515,7.24616 0.56838,2.24735 3.484034,3.60788 5.213564,5.9404 10.091533,10.3737 20.183009,20.74744 30.274499,31.12114 -2.3159,16.72487 -5.18411,33.39478 -7.15247,50.1543 0.49823,2.49716 0.97749,4.59287 3.31434,5.58872 1.12805,1.38217 4.58391,2.19156 7.15002,1.27912 2.17539,-0.7758 5.11321,-2.61499 7.71831,-3.73798 12.39847,-6.08616 24.79696,-12.17228 37.19544,-18.2584 14.6549,7.23908 29.30979,14.47813 43.96468,21.7172 2.01286,0.55029 5.77701,1.31666 7.22107,-0.0708 2.11394,-0.36664 3.63708,-1.83892 4.2618,-3.83593 1.45265,-2.0741 0.67392,-5.22792 0.23886,-8.20383 -2.15428,-14.97043 -4.30858,-29.94081 -6.46288,-44.91124 11.45355,-11.71882 22.82951,-23.51836 34.33139,-35.18687 1.77422,-1.48164 3.05996,-4.93504 2.2022,-7.55385 -0.44538,-2.08479 -1.78391,-3.85836 -3.33801,-5.13881 -1.9877,-0.91721 -4.72028,-1.3508 -7.75167,-1.78611 -14.54926,-2.41296 -29.09854,-4.82594 -43.6478,-7.23896 -7.88619,-15.14281 -16.05444,-30.39109 -23.7682,-45.467344 -1.97118,-1.294395 -3.4514,-3.428669 -6.60534,-3.055109 -1.05057,-0.03855 -2.10002,-0.1377 -3.14886,-0.16596 z" />
        <path
           style="opacity:0.15;fill:#000000;fill-opacity:1;stroke:none;display:inline"
           id="path3001"
           d="m 162.00311,90.254001 a 4.1124062,4.1116154 88.716084 0 0 -1.39689,0.828735 4.1124062,4.1116154 88.716084 0 0 -0.9708,1.30233 l -23.58312,45.227884 -50.54796,9.06669 a 4.1124062,4.1116154 88.716084 0 0 -3.385829,4.3333 4.1124062,4.1116154 88.716084 0 0 0.781215,2.29701 4.1124062,4.1116154 88.716084 0 0 0.426255,0.47361 l 35.511729,36.61163 -7.15242,50.15426 a 4.1124062,4.1116154 88.716084 0 0 0.33148,2.27336 4.1124062,4.1116154 88.716084 0 0 0.82856,1.39717 4.1124062,4.1116154 88.716084 0 0 2.20182,1.01837 4.1124062,4.1116154 88.716084 0 0 2.27286,-0.33149 l 46.28699,-22.37518 45.29049,22.23825 a 4.1124062,4.1116154 88.716084 0 0 3.5987,0.18954 4.1124062,4.1116154 88.716084 0 0 1.39689,-0.82872 4.1124062,4.1116154 88.716084 0 0 0.99447,-1.7523 4.1124062,4.1116154 88.716084 0 0 0.0948,-1.7997 l -7.26602,-50.46293 35.752,-36.4655 a 4.1124062,4.1116154 88.716084 0 0 1.08926,-3.552 4.1124062,4.1116154 88.716084 0 0 -0.80489,-1.84709 4.1124062,4.1116154 88.716084 0 0 -1.30212,-0.97096 4.1124062,4.1116154 88.716084 0 0 -1.32579,-0.52104 l -50.07363,-8.50401 -24.19434,-45.940999 a 4.1124062,4.1116154 88.716084 0 0 -4.40358,-2.03676 4.1124062,4.1116154 88.716084 0 0 -0.44985,-0.0258 z"
           inkscape:connector-curvature="0" />
        <path
           style="opacity:0.3;fill:#000000;fill-opacity:1;stroke:none;display:inline"
           id="path3003"
           d="m 86.09789,150.57698 52.38554,-9.05069 24.82,-47.0206 24.79453,47.03449 52.38063,9.07994 -37.06171,38.1196 7.55304,52.63233 -47.6999,-23.47526 -47.71265,23.44859 7.58156,-52.62809 z"
           inkscape:connector-curvature="0" />
        <path
           style="fill:url(#linearGradient3013);fill-opacity:1;stroke:none;display:inline"
           id="path3005"
           d="m 86.09789,146.28863 52.38554,-9.05069 24.82,-47.020599 24.79453,47.034489 52.38063,9.07994 -37.06171,38.1196 7.55304,52.63233 -47.6999,-23.47526 -47.71265,23.44858 7.58156,-52.62808 z"
           inkscape:connector-curvature="0" />
        <path
           style="opacity:0.4;fill:#333333;fill-opacity:1;stroke:none;display:inline"
           id="path3007"
           inkscape:connector-curvature="0"
           d="m 163.28825,209.34341 -47.03788,23.18391 -0.67006,4.55638 47.70794,-23.45194 47.70792,23.45194 -0.67006,-4.55638 z" />
        <path
           d="m 186.89056,141.19277 51.84271,7.8987 3.1565,-3.35352 -52.54562,-8.06226 -25.70936,-46.53029 -2.05739,4.120278 z"
           inkscape:connector-curvature="0"
           id="path3009"
           style="opacity:0.4;fill:#ffffff;fill-opacity:1;stroke:none;display:inline" />
        <path
           style="opacity:0.4;fill:#ffffff;fill-opacity:1;stroke:none;display:inline"
           id="path3011"
           inkscape:connector-curvature="0"
           d="m 139.97819,140.52086 -51.842718,7.8987 -3.1565,-3.35352 52.545628,-8.06226 25.70936,-46.530296 2.05739,4.120278 z" />
      </g>
      <g
         transform="matrix(0.6666667,0,0,0.6666667,20.721262,-20.057443)"
         id="g3035">
        <g
           transform="translate(0.44998393,-31.952809)"
           id="g3881">
          <path
             style="opacity:0.05;fill:#000000;fill-opacity:1;stroke:none;display:inline"
             id="path3037"
             d="m 160.60802,81.362873 a 4.6305435,4.6305435 0 0 0 -1.74215,0.40182 c -4.01193,1.521809 -5.72088,4.569539 -6.56653,5.494454 a 4.6305435,4.6305435 0 0 0 -0.80407,1.072094 c -6.63923,13.846569 -14.10971,27.547139 -21.17374,41.543419 -0.009,0.0171 -0.1248,-0.0171 -0.1338,0 -0.81191,0.0879 -2.49801,0.23457 -4.42236,0.80406 l 0,-0.1338 c -14.45454,2.60219 -29.264232,5.15174 -43.553589,7.77264 a 4.6305435,4.6305435 0 0 0 -1.474125,0.53606 c -2.208674,1.2531 -4.863809,3.54358 -6.030493,6.96856 l -0.1338,-0.1338 c -0.0879,0.1831 -0.05745,0.35292 -0.1338,0.53604 -0.0588,0.20884 -0.221715,0.31776 -0.268035,0.53604 l 0.268035,0 c -0.66711,1.85119 -1.097865,3.76497 -0.938085,5.49445 0.1209,1.30632 0.85707,2.49681 1.474125,3.75231 l -0.1338,0 c 0.105,0.41469 0.38895,0.4435 0.536039,0.80407 0.29418,0.44654 0.09735,0.89754 0.536055,1.3401 l 0.1338,-0.1338 c 0.749745,1.17164 1.43481,2.56749 2.14419,3.21627 1.139445,1.04211 2.009775,1.86947 2.412194,2.4122 a 4.6305435,4.6305435 0 0 0 0.40182,0.40182 l 28.812369,29.48243 c -2.24194,15.90022 -4.93779,31.95951 -6.83457,48.10996 a 4.6305435,4.6305435 0 0 0 0,1.47412 c 0.26246,1.31619 0.60141,2.86398 1.47413,4.55639 0.56847,1.10235 1.79793,1.91971 2.94825,2.81422 l -0.1338,0.1338 c 0.23886,0.29289 0.55731,0.16338 0.80406,0.40182 0.40354,0.25644 0.49629,0.74982 0.93808,0.93807 l 0.1338,-0.26802 c 1.21682,0.825 2.40666,1.72718 3.75231,2.01017 2.0286,0.42669 4.3699,0.5607 6.70054,-0.26802 3.10782,-1.10837 5.95271,-2.98625 8.04066,-3.88632 a 4.6305435,4.6305435 0 0 0 0.1338,-0.1338 l 35.1109,-17.28743 41.94545,20.77172 a 4.6305435,4.6305435 0 0 0 0.80406,0.26802 c 1.23372,0.33706 2.91484,0.70543 4.8244,0.80407 1.77143,0.0913 4.01694,0.12045 6.29852,-1.74214 0.17797,-0.14535 0.35808,-0.0974 0.53604,-0.26804 2.06871,-0.99948 3.68644,-2.51442 4.69039,-4.55637 l 0.1338,0.1338 c 0.12735,-0.18183 0.0257,-0.3525 0.1338,-0.53604 0.1287,-0.2989 0.43871,-0.49287 0.53606,-0.80407 l -0.26802,-0.1338 c 0.79497,-1.8078 1.40296,-3.71582 1.3401,-5.22642 -0.0805,-1.93839 -0.47249,-3.60755 -0.67005,-4.95842 l -6.16451,-42.61551 c 10.8123,-11.07132 21.59404,-22.1026 32.43067,-33.10072 0.1329,-0.13515 0.26888,-0.26717 0.40182,-0.40182 l -0.1338,-0.1338 c 1.56809,-1.48269 2.63489,-3.16532 3.21627,-5.09241 0.59076,-1.95828 0.75139,-4.25833 0.1338,-6.56655 l 0.1338,0 c -0.0214,-0.11145 -0.1077,-0.15867 -0.1338,-0.26802 -0.03,-0.0948 0.03,-0.17325 0,-0.26802 l -0.1338,0 c -0.8461,-3.10939 -2.71218,-5.60668 -4.69039,-7.23659 a 4.6305435,4.6305435 0 0 0 -1.07208,-0.53604 c -2.96931,-1.37013 -5.86202,-1.71942 -8.84474,-2.14418 l -0.1338,0 -41.14139,-6.83457 C 189.47619,116.15931 181.62078,101.4786 174.27714,87.125782 a 4.6305435,4.6305435 0 0 0 -1.60812,-1.742145 c -0.49132,-0.322485 -1.37965,-1.169565 -2.94825,-2.144175 -1.41237,-0.877574 -3.69,-1.421459 -6.03049,-1.340114 l 0,-0.26802 c -0.55946,-0.02145 -1.51658,-0.22557 -3.08226,-0.26802 z"
             inkscape:connector-curvature="0" />
          <path
             style="opacity:0.07999998;fill:#000000;fill-opacity:1;stroke:none;display:inline"
             id="path3039"
             inkscape:connector-curvature="0"
             d="m 160.41705,86.109877 c -2.6562,1.00755 -3.29212,2.683694 -4.73532,4.262189 -6.77834,14.136734 -14.34587,28.060444 -21.42782,42.115234 -1.14178,2.80415 -5.24805,1.59684 -7.69644,2.633 -14.4782,2.60643 -29.307547,5.20315 -43.562554,7.81775 -2.07822,1.17908 -3.824954,2.44265 -4.309184,4.7358 -1.176855,2.45646 -0.73524,5.97891 0.520515,7.24616 0.56838,2.24735 3.484034,3.60788 5.213564,5.9404 10.091533,10.3737 20.183009,20.74744 30.274499,31.12114 -2.3159,16.72487 -5.18411,33.39478 -7.15247,50.1543 0.49823,2.49716 0.97749,4.59287 3.31434,5.58872 1.12805,1.38217 4.58391,2.19156 7.15002,1.27912 2.17539,-0.7758 5.11321,-2.61499 7.71831,-3.73798 12.39847,-6.08616 24.79696,-12.17228 37.19544,-18.2584 14.6549,7.23908 29.30979,14.47813 43.96468,21.7172 2.01286,0.55029 5.77701,1.31666 7.22107,-0.0708 2.11394,-0.36664 3.63708,-1.83892 4.2618,-3.83593 1.45265,-2.0741 0.67392,-5.22792 0.23886,-8.20383 -2.15428,-14.97043 -4.30858,-29.94081 -6.46288,-44.91124 11.45355,-11.71882 22.82951,-23.51836 34.33139,-35.18687 1.77422,-1.48164 3.05996,-4.93504 2.2022,-7.55385 -0.44538,-2.08479 -1.78391,-3.85836 -3.33801,-5.13881 -1.9877,-0.91721 -4.72028,-1.3508 -7.75167,-1.78611 -14.54926,-2.41296 -29.09854,-4.82594 -43.6478,-7.23896 -7.88619,-15.14281 -16.05444,-30.39109 -23.7682,-45.467344 -1.97118,-1.294395 -3.4514,-3.428669 -6.60534,-3.055109 -1.05057,-0.03855 -2.10002,-0.1377 -3.14886,-0.16596 z" />
          <path
             style="opacity:0.15;fill:#000000;fill-opacity:1;stroke:none;display:inline"
             id="path3041"
             d="m 162.00311,90.254001 a 4.1124062,4.1116154 88.716084 0 0 -1.39689,0.828735 4.1124062,4.1116154 88.716084 0 0 -0.9708,1.30233 l -23.58312,45.227884 -50.54796,9.06669 a 4.1124062,4.1116154 88.716084 0 0 -3.385829,4.3333 4.1124062,4.1116154 88.716084 0 0 0.781215,2.29701 4.1124062,4.1116154 88.716084 0 0 0.426255,0.47361 l 35.511729,36.61163 -7.15242,50.15426 a 4.1124062,4.1116154 88.716084 0 0 0.33148,2.27336 4.1124062,4.1116154 88.716084 0 0 0.82856,1.39717 4.1124062,4.1116154 88.716084 0 0 2.20182,1.01837 4.1124062,4.1116154 88.716084 0 0 2.27286,-0.33149 l 46.28699,-22.37518 45.29049,22.23825 a 4.1124062,4.1116154 88.716084 0 0 3.5987,0.18954 4.1124062,4.1116154 88.716084 0 0 1.39689,-0.82872 4.1124062,4.1116154 88.716084 0 0 0.99447,-1.7523 4.1124062,4.1116154 88.716084 0 0 0.0948,-1.7997 l -7.26602,-50.46293 35.752,-36.4655 a 4.1124062,4.1116154 88.716084 0 0 1.08926,-3.552 4.1124062,4.1116154 88.716084 0 0 -0.80489,-1.84709 4.1124062,4.1116154 88.716084 0 0 -1.30212,-0.97096 4.1124062,4.1116154 88.716084 0 0 -1.32579,-0.52104 l -50.07363,-8.50401 -24.19434,-45.940999 a 4.1124062,4.1116154 88.716084 0 0 -4.40358,-2.03676 4.1124062,4.1116154 88.716084 0 0 -0.44985,-0.0258 z"
             inkscape:connector-curvature="0" />
          <path
             style="opacity:0.3;fill:#000000;fill-opacity:1;stroke:none;display:inline"
             id="path3043"
             d="m 86.09789,150.57698 52.38554,-9.05069 24.82,-47.0206 24.79453,47.03449 52.38063,9.07994 -37.06171,38.1196 7.55304,52.63233 -47.6999,-23.47526 -47.71265,23.44859 7.58156,-52.62809 z"
             inkscape:connector-curvature="0" />
          <path
             style="fill:url(#linearGradient3891);fill-opacity:1;stroke:none;display:inline"
             id="path3045"
             d="m 86.09789,146.28863 52.38554,-9.05069 24.82,-47.020599 24.79453,47.034489 52.38063,9.07994 -37.06171,38.1196 7.55304,52.63233 -47.6999,-23.47526 -47.71265,23.44858 7.58156,-52.62808 z"
             inkscape:connector-curvature="0" />
          <path
             style="opacity:0.4;fill:#333333;fill-opacity:1;stroke:none;display:inline"
             id="path3047"
             inkscape:connector-curvature="0"
             d="m 163.28825,209.34341 -47.03788,23.18391 -0.67006,4.55638 47.70794,-23.45194 47.70792,23.45194 -0.67006,-4.55638 z" />
          <path
             d="m 186.89056,141.19277 51.84271,7.8987 3.1565,-3.35352 -52.54562,-8.06226 -25.70936,-46.53029 -2.05739,4.120278 z"
             inkscape:connector-curvature="0"
             id="path3049"
             style="opacity:0.4;fill:#ffffff;fill-opacity:1;stroke:none;display:inline" />
          <path
             style="opacity:0.4;fill:#ffffff;fill-opacity:1;stroke:none;display:inline"
             id="path3051"
             inkscape:connector-curvature="0"
             d="m 139.97819,140.52086 -51.842718,7.8987 -3.1565,-3.35352 52.545628,-8.06226 25.70936,-46.530296 2.05739,4.120278 z" />
        </g>
      </g>
    </g>
  </g>
</svg>
