<?xml version="1.0" encoding="UTF-8" standalone="no"?>
<!-- Created with Inkscape (http://www.inkscape.org/) -->

<svg
   xmlns:dc="http://purl.org/dc/elements/1.1/"
   xmlns:cc="http://creativecommons.org/ns#"
   xmlns:rdf="http://www.w3.org/1999/02/22-rdf-syntax-ns#"
   xmlns:svg="http://www.w3.org/2000/svg"
   xmlns="http://www.w3.org/2000/svg"
   xmlns:xlink="http://www.w3.org/1999/xlink"
   xmlns:sodipodi="http://sodipodi.sourceforge.net/DTD/sodipodi-0.dtd"
   xmlns:inkscape="http://www.inkscape.org/namespaces/inkscape"
   version="1.0"
   width="256"
   height="256"
   id="svg2408"
   inkscape:version="0.48.2 r9819"
   sodipodi:docname="add-files-to-archive.svg">
  <sodipodi:namedview
     pagecolor="#ffffff"
     bordercolor="#666666"
     borderopacity="1"
     objecttolerance="10"
     gridtolerance="10"
     guidetolerance="10"
     inkscape:pageopacity="0"
     inkscape:pageshadow="2"
     inkscape:window-width="1024"
     inkscape:window-height="572"
     id="namedview93"
     showgrid="false"
     inkscape:zoom="1.6289062"
     inkscape:cx="128"
     inkscape:cy="128"
     inkscape:window-x="0"
     inkscape:window-y="28"
     inkscape:window-maximized="1"
     inkscape:current-layer="svg2408" />
  <defs
     id="defs2410">
    <linearGradient
       id="linearGradient3637">
      <stop
         id="stop3639"
         style="stop-color:#5a5a5a;stop-opacity:1;"
         offset="0" />
      <stop
         id="stop3641"
         style="stop-color:#000000;stop-opacity:1;"
         offset="1" />
    </linearGradient>
    <linearGradient
       x1="45.447727"
       y1="92.539597"
       x2="45.447727"
       y2="7.0165396"
       id="ButtonShadow"
       gradientUnits="userSpaceOnUse"
       gradientTransform="scale(1.0058652,0.994169)">
      <stop
         id="stop3750"
         style="stop-color:#000000;stop-opacity:1"
         offset="0" />
      <stop
         id="stop3752"
         style="stop-color:#000000;stop-opacity:0.58823532"
         offset="1" />
    </linearGradient>
    <linearGradient
       id="linearGradient3737">
      <stop
         id="stop3739"
         style="stop-color:#ffffff;stop-opacity:1"
         offset="0" />
      <stop
         id="stop3741"
         style="stop-color:#ffffff;stop-opacity:0"
         offset="1" />
    </linearGradient>
    <linearGradient
       id="linearGradient3700">
      <stop
         id="stop3702"
         style="stop-color:#2276c5;stop-opacity:1"
         offset="0" />
      <stop
         id="stop3704"
         style="stop-color:#68baf4;stop-opacity:1"
         offset="1" />
    </linearGradient>
    <filter
       color-interpolation-filters="sRGB"
       id="filter3174">
      <feGaussianBlur
         id="feGaussianBlur3176"
         stdDeviation="1.71" />
    </filter>
    <linearGradient
       x1="36.357143"
       y1="6"
       x2="36.357143"
       y2="63.893143"
       id="linearGradient3188"
       xlink:href="#linearGradient3737"
       gradientUnits="userSpaceOnUse" />
    <filter
       x="-0.192"
       y="-0.192"
       width="1.3839999"
       height="1.3839999"
       color-interpolation-filters="sRGB"
       id="filter3794">
      <feGaussianBlur
         id="feGaussianBlur3796"
         stdDeviation="5.28" />
    </filter>
    <linearGradient
       x1="48"
       y1="20.220806"
       x2="48"
       y2="138.66119"
       id="linearGradient3613"
       xlink:href="#linearGradient3737"
       gradientUnits="userSpaceOnUse" />
    <radialGradient
       cx="48"
       cy="90.171875"
       r="42"
       fx="48"
       fy="90.171875"
       id="radialGradient3619"
       xlink:href="#linearGradient3737"
       gradientUnits="userSpaceOnUse"
       gradientTransform="matrix(1.1573129,0,0,0.99590774,-7.5510206,0.19713193)" />
    <clipPath
       id="clipPath3613">
      <rect
         width="84"
         height="84"
         rx="6"
         ry="6"
         x="6"
         y="6"
         id="rect3615"
         style="fill:#ffffff;fill-opacity:1;fill-rule:nonzero;stroke:none" />
    </clipPath>
    <linearGradient
       x1="48"
       y1="90"
       x2="48"
       y2="5.9877172"
       id="linearGradient2843"
       xlink:href="#linearGradient3700"
       gradientUnits="userSpaceOnUse"
       gradientTransform="translate(0,100)" />
    <clipPath
       id="clipPath3625">
      <path
         d="M 0,0 0,96 96,96 96,0 0,0 z m 12,6 72,0 c 3.324,0 6,2.676 6,6 l 0,72 c 0,3.324 -2.676,6 -6,6 L 12,90 C 8.676,90 6,87.324 6,84 L 6,12 C 6,8.676 8.676,6 12,6 z"
         inkscape:connector-curvature="0"
         id="path3627"
         style="fill:#ffffff;fill-opacity:1;stroke:none" />
    </clipPath>
    <linearGradient
       x1="44.512066"
       y1="6"
       x2="44.512066"
       y2="90.015434"
       id="linearGradient3643"
       xlink:href="#linearGradient3637"
       gradientUnits="userSpaceOnUse" />
    <clipPath
       id="clipPath3649">
      <rect
         width="76"
         height="76"
         rx="4"
         ry="4"
         x="10"
         y="10"
         id="rect3651"
         style="fill:#ffffff;fill-opacity:1;fill-rule:nonzero;stroke:none" />
    </clipPath>
    <filter
       color-interpolation-filters="sRGB"
       id="filter3657">
      <feGaussianBlur
         id="feGaussianBlur3659"
         stdDeviation="1.14" />
    </filter>
    <linearGradient
       inkscape:collect="always"
       xlink:href="#linearGradient3637"
       id="linearGradient3831"
       gradientUnits="userSpaceOnUse"
       gradientTransform="matrix(10.477333,0,0,12.318348,-35.032894,-8.374725)"
       x1="11.998966"
       y1="1.8417114"
       x2="11.998966"
       y2="20.237488" />
  </defs>
  <metadata
     id="metadata2413">
    <rdf:RDF>
      <cc:Work
         rdf:about="">
        <dc:format>image/svg+xml</dc:format>
        <dc:type
           rdf:resource="http://purl.org/dc/dcmitype/StillImage" />
        <dc:title></dc:title>
      </cc:Work>
    </rdf:RDF>
  </metadata>
  <g
     id="layer2"
     style="display:none"
     transform="translate(0,160)">
    <rect
       width="86"
       height="85"
       rx="6"
       ry="6"
       x="5"
       y="7"
       clip-path="url(#clipPath3625)"
       id="rect3745"
       style="opacity:0.9;fill:url(#ButtonShadow);fill-opacity:1;fill-rule:nonzero;stroke:none;filter:url(#filter3174)" />
  </g>
  <g
     id="layer1"
     style="display:none"
     transform="translate(0,160)">
    <rect
       width="84"
       height="84"
       rx="6"
       ry="6"
       x="6"
       y="6"
       id="rect2419"
       style="opacity:0.8;fill:#000000;fill-opacity:1;fill-rule:nonzero;stroke:none" />
    <path
       d="m 14,10 c -2.216,0 -4,1.784 -4,4 l 0,68 c 0,2.216 1.784,4 4,4 l 68,0 c 2.216,0 4,-1.784 4,-4 l 0,-68 c 0,-2.216 -1.784,-4 -4,-4 l -68,0 z m 0,3.0625 68,0 c 0.578769,0 0.9375,0.358731 0.9375,0.9375 l 0,68 c 0,0.578769 -0.358731,0.9375 -0.9375,0.9375 l -68,0 c -0.578769,0 -0.9375,-0.358731 -0.9375,-0.9375 l 0,-68 c 0,-0.578769 0.358731,-0.9375 0.9375,-0.9375 z"
       inkscape:connector-curvature="0"
       id="rect3726"
       style="opacity:0.07999998;fill:#000000;fill-opacity:1;fill-rule:nonzero;stroke:none" />
    <path
       d="M 12,6 C 8.676,6 6,8.676 6,12 l 0,72 c 0,3.324 2.676,6 6,6 l 72,0 c 3.324,0 6,-2.676 6,-6 L 90,12 C 90,8.676 87.324,6 84,6 L 12,6 z m 2,4 68,0 c 2.216,0 4,1.784 4,4 l 0,68 c 0,2.216 -1.784,4 -4,4 l -68,0 c -2.216,0 -4,-1.784 -4,-4 l 0,-68 c 0,-2.216 1.784,-4 4,-4 z"
       inkscape:connector-curvature="0"
       id="rect3629"
       style="fill:url(#linearGradient3643);fill-opacity:1;fill-rule:nonzero;stroke:none" />
    <path
       d="M 12,6 C 8.676,6 6,8.676 6,12 l 0,2 0,68 0,2 c 0,0.334721 0.04135,0.6507 0.09375,0.96875 0.0487,0.295596 0.09704,0.596915 0.1875,0.875 0.00988,0.03038 0.020892,0.0636 0.03125,0.09375 0.098865,0.287771 0.2348802,0.547452 0.375,0.8125 0.1445918,0.273507 0.3156161,0.535615 0.5,0.78125 0.1843839,0.245635 0.3737765,0.473472 0.59375,0.6875 0.439947,0.428056 0.94291,0.814526 1.5,1.09375 0.278545,0.139612 0.5734731,0.246947 0.875,0.34375 -0.2562018,-0.100222 -0.4867109,-0.236272 -0.71875,-0.375 -0.00741,-0.0044 -0.023866,0.0045 -0.03125,0 -0.031933,-0.0193 -0.062293,-0.04251 -0.09375,-0.0625 -0.120395,-0.0767 -0.2310226,-0.163513 -0.34375,-0.25 -0.1061728,-0.0808 -0.2132809,-0.161112 -0.3125,-0.25 C 8.4783201,88.557317 8.3087904,88.373362 8.15625,88.1875 8.0486711,88.057245 7.9378561,87.922215 7.84375,87.78125 7.818661,87.74287 7.805304,87.69538 7.78125,87.65625 7.716487,87.553218 7.6510225,87.451733 7.59375,87.34375 7.4927417,87.149044 7.3880752,86.928049 7.3125,86.71875 7.30454,86.69694 7.288911,86.6782 7.28125,86.65625 7.2494249,86.5643 7.2454455,86.469419 7.21875,86.375 7.1884177,86.268382 7.1483606,86.171969 7.125,86.0625 7.0521214,85.720988 7,85.364295 7,85 L 7,83 7,15 7,13 C 7,10.218152 9.2181517,8 12,8 l 2,0 68,0 2,0 c 2.781848,0 5,2.218152 5,5 l 0,2 0,68 0,2 c 0,0.364295 -0.05212,0.720988 -0.125,1.0625 -0.04415,0.206893 -0.08838,0.397658 -0.15625,0.59375 -0.0077,0.02195 -0.0233,0.04069 -0.03125,0.0625 -0.06274,0.173739 -0.138383,0.367449 -0.21875,0.53125 -0.04158,0.0828 -0.07904,0.169954 -0.125,0.25 -0.0546,0.09721 -0.126774,0.18835 -0.1875,0.28125 -0.09411,0.140965 -0.204921,0.275995 -0.3125,0.40625 -0.143174,0.17445 -0.303141,0.346998 -0.46875,0.5 -0.01117,0.0102 -0.01998,0.02115 -0.03125,0.03125 -0.138386,0.125556 -0.285091,0.234436 -0.4375,0.34375 -0.102571,0.07315 -0.204318,0.153364 -0.3125,0.21875 -0.0074,0.0045 -0.02384,-0.0044 -0.03125,0 -0.232039,0.138728 -0.462548,0.274778 -0.71875,0.375 0.301527,-0.0968 0.596455,-0.204138 0.875,-0.34375 0.55709,-0.279224 1.060053,-0.665694 1.5,-1.09375 0.219973,-0.214028 0.409366,-0.441865 0.59375,-0.6875 0.184384,-0.245635 0.355408,-0.507743 0.5,-0.78125 0.14012,-0.265048 0.276135,-0.524729 0.375,-0.8125 0.01041,-0.03078 0.02133,-0.06274 0.03125,-0.09375 0.09046,-0.278085 0.1388,-0.579404 0.1875,-0.875 C 89.95865,84.6507 90,84.334721 90,84 l 0,-2 0,-68 0,-2 C 90,8.676 87.324,6 84,6 L 12,6 z"
       inkscape:connector-curvature="0"
       id="rect3728"
       style="fill:url(#linearGradient3188);fill-opacity:1;fill-rule:nonzero;stroke:none" />
    <path
       d="M 12,90 C 8.676,90 6,87.324 6,84 L 6,82 6,14 6,12 c 0,-0.334721 0.04135,-0.6507 0.09375,-0.96875 0.0487,-0.295596 0.09704,-0.596915 0.1875,-0.875 C 6.29113,10.12587 6.302142,10.09265 6.3125,10.0625 6.411365,9.774729 6.5473802,9.515048 6.6875,9.25 6.8320918,8.976493 7.0031161,8.714385 7.1875,8.46875 7.3718839,8.223115 7.5612765,7.995278 7.78125,7.78125 8.221197,7.353194 8.72416,6.966724 9.28125,6.6875 9.559795,6.547888 9.8547231,6.440553 10.15625,6.34375 9.9000482,6.443972 9.6695391,6.580022 9.4375,6.71875 c -0.00741,0.0044 -0.023866,-0.0045 -0.03125,0 -0.031933,0.0193 -0.062293,0.04251 -0.09375,0.0625 -0.120395,0.0767 -0.2310226,0.163513 -0.34375,0.25 -0.1061728,0.0808 -0.2132809,0.161112 -0.3125,0.25 C 8.4783201,7.442683 8.3087904,7.626638 8.15625,7.8125 8.0486711,7.942755 7.9378561,8.077785 7.84375,8.21875 7.818661,8.25713 7.805304,8.30462 7.78125,8.34375 7.716487,8.446782 7.6510225,8.548267 7.59375,8.65625 7.4927417,8.850956 7.3880752,9.071951 7.3125,9.28125 7.30454,9.30306 7.288911,9.3218 7.28125,9.34375 7.2494249,9.4357 7.2454455,9.530581 7.21875,9.625 7.1884177,9.731618 7.1483606,9.828031 7.125,9.9375 7.0521214,10.279012 7,10.635705 7,11 l 0,2 0,68 0,2 c 0,2.781848 2.2181517,5 5,5 l 2,0 68,0 2,0 c 2.781848,0 5,-2.218152 5,-5 l 0,-2 0,-68 0,-2 C 89,10.635705 88.94788,10.279012 88.875,9.9375 88.83085,9.730607 88.78662,9.539842 88.71875,9.34375 88.71105,9.3218 88.69545,9.30306 88.6875,9.28125 88.62476,9.107511 88.549117,8.913801 88.46875,8.75 88.42717,8.6672 88.38971,8.580046 88.34375,8.5 88.28915,8.40279 88.216976,8.31165 88.15625,8.21875 88.06214,8.077785 87.951329,7.942755 87.84375,7.8125 87.700576,7.63805 87.540609,7.465502 87.375,7.3125 87.36383,7.3023 87.35502,7.29135 87.34375,7.28125 87.205364,7.155694 87.058659,7.046814 86.90625,6.9375 86.803679,6.86435 86.701932,6.784136 86.59375,6.71875 c -0.0074,-0.0045 -0.02384,0.0044 -0.03125,0 -0.232039,-0.138728 -0.462548,-0.274778 -0.71875,-0.375 0.301527,0.0968 0.596455,0.204138 0.875,0.34375 0.55709,0.279224 1.060053,0.665694 1.5,1.09375 0.219973,0.214028 0.409366,0.441865 0.59375,0.6875 0.184384,0.245635 0.355408,0.507743 0.5,0.78125 0.14012,0.265048 0.276135,0.524729 0.375,0.8125 0.01041,0.03078 0.02133,0.06274 0.03125,0.09375 0.09046,0.278085 0.1388,0.579404 0.1875,0.875 C 89.95865,11.3493 90,11.665279 90,12 l 0,2 0,68 0,2 c 0,3.324 -2.676,6 -6,6 l -72,0 z"
       inkscape:connector-curvature="0"
       id="path3615"
       style="opacity:0.6;fill:url(#radialGradient3619);fill-opacity:1;fill-rule:nonzero;stroke:none" />
    <rect
       width="84"
       height="84"
       rx="6"
       ry="6"
       x="6"
       y="106"
       id="rect2841"
       style="fill:url(#linearGradient2843);fill-opacity:1;fill-rule:nonzero;stroke:none" />
    <rect
       width="76"
       height="76"
       rx="4"
       ry="4"
       x="10"
       y="110"
       id="rect3634"
       style="fill:#ff0000;fill-opacity:1;fill-rule:nonzero;stroke:none" />
    <path
       d="m 14,9 c -2.752703,0 -5,2.247297 -5,5 l 0,68 c 0,2.752703 2.247297,5 5,5 l 68,0 c 2.752703,0 5,-2.247297 5,-5 L 87,14 C 87,11.247297 84.752703,9 82,9 L 14,9 z m 0,2 68,0 c 1.679297,0 3,1.320703 3,3 l 0,68 c 0,1.679297 -1.320703,3 -3,3 l -68,0 c -1.679297,0 -3,-1.320703 -3,-3 l 0,-68 c 0,-1.679297 1.320703,-3 3,-3 z"
       inkscape:connector-curvature="0"
       transform="translate(-110,0)"
       clip-path="url(#clipPath3649)"
       id="rect3647"
       style="font-size:medium;font-style:normal;font-variant:normal;font-weight:normal;font-stretch:normal;text-indent:0;text-align:start;text-decoration:none;line-height:normal;letter-spacing:normal;word-spacing:normal;text-transform:none;direction:ltr;block-progression:tb;writing-mode:lr-tb;text-anchor:start;color:#000000;fill:#000000;fill-opacity:1;stroke:none;stroke-width:2;marker:none;visibility:visible;display:inline;overflow:visible;filter:url(#filter3657);enable-background:accumulate;font-family:Abandoned Bitplane;-inkscape-font-specification:Abandoned Bitplane" />
    <path
       d="m 14.089286,10 c -2.216,0 -4,1.784 -4,4 l 0,68 c 0,2.216 1.784,4 4,4 l 68,0 c 2.216,0 4,-1.784 4,-4 l 0,-68 c 0,-2.216 -1.784,-4 -4,-4 l -68,0 z m 0,2 68,0 c 1.140301,0 2,0.859699 2,2 l 0,68 c 0,1.140301 -0.859699,2 -2,2 l -68,0 c -1.140301,0 -2,-0.859699 -2,-2 l 0,-68 c 0,-1.140301 0.859699,-2 2,-2 z"
       inkscape:connector-curvature="0"
       id="path3709"
       style="opacity:0.16000001;fill:#000000;fill-opacity:1;fill-rule:nonzero;stroke:none" />
    <path
       d="m 14,10 c -2.216,0 -4,1.784 -4,4 l 0,68 c 0,2.216 1.784,4 4,4 l 68,0 c 2.216,0 4,-1.784 4,-4 l 0,-68 c 0,-2.216 -1.784,-4 -4,-4 l -68,0 z m 0,1 68,0 c 1.673848,0 3,1.326152 3,3 l 0,68 c 0,1.673848 -1.326152,3 -3,3 l -68,0 c -1.673848,0 -3,-1.326152 -3,-3 l 0,-68 c 0,-1.673848 1.326152,-3 3,-3 z"
       inkscape:connector-curvature="0"
       id="path3707"
       style="opacity:0.36000001;fill:#000000;fill-opacity:1;fill-rule:nonzero;stroke:none" />
  </g>
  <g
     id="layer5"
     style="display:none"
     transform="translate(0,160)">
    <rect
       width="66"
       height="66"
       rx="12"
       ry="12"
       x="15"
       y="15"
       clip-path="url(#clipPath3613)"
       id="rect3171"
       style="opacity:0.1;fill:url(#linearGradient3613);fill-opacity:1;fill-rule:nonzero;stroke:#ffffff;stroke-width:0.5;stroke-linecap:round;stroke-linejoin:miter;stroke-miterlimit:4;stroke-opacity:1;stroke-dasharray:none;stroke-dashoffset:0;filter:url(#filter3794)" />
  </g>
  <g
     id="g3823"
     transform="translate(0.10759444,0.8898033)">
    <path
       d="M 112.94069,10.299664 C 96.609763,9.8998199 81.965034,24.658365 82.490667,40.985733 c -6.326471,1.964701 -8.41923,3.01475 -12.982568,-0.472094 -10.762067,0.535505 -21.901642,-1.458126 -32.274576,1.95881 -11.433606,4.416339 -16.348321,17.030032 -15.170807,28.517688 0.08449,27.897167 -0.169916,55.802983 0.128825,83.694673 1.071523,14.25284 15.40878,24.04258 29.082877,22.26381 6.641682,-0.33084 13.513439,0.65315 20.019312,-0.4736 1.938408,-4.87839 10.213495,-0.83546 11.236763,1.79803 0.427588,17.24266 17.302444,30.90603 34.204597,28.88955 5.0492,0.0808 12.0833,-0.16051 15.91549,0.11783 -4.99209,1.38426 -3.20806,9.09565 -9.26576,6.96338 -8.22366,0.34293 -16.6102,-0.71796 -24.724959,0.59012 -6.546738,2.90873 -4.86422,11.22014 -4.484887,16.99536 2.314383,7.33142 11.005616,5.29141 16.921476,5.54709 5.57173,0 11.14345,0 16.71518,0 0.15903,6.29456 6.91494,8.40565 12.21634,7.5535 14.37011,-0.22887 28.81284,0.46216 43.1366,-0.35388 5.54946,-0.5249 3.5987,-9.09286 9.3415,-7.19943 8.43426,-0.34557 17.03209,0.72136 25.35737,-0.59011 6.54673,-2.90874 4.86422,-11.22015 4.48488,-16.99537 -2.31438,-7.33142 -11.00561,-5.29141 -16.92148,-5.54709 -5.57172,0 -11.14344,0 -16.71517,0 1.3241,-4.59634 -9.27981,-8.14856 -1.39862,-7.0814 12.1185,-0.26211 25.78553,1.94355 35.60802,-6.97709 9.57902,-7.28821 11.94071,-19.72168 11.11156,-31.06174 -0.10386,-43.82348 0.20871,-87.660186 -0.15802,-131.475284 -1.29231,-16.623692 -17.74012,-29.2489033 -34.0864,-27.348822 -28.94918,0 -57.89835,0 -86.84752,0 z m 53.5826,38.239563 c 9.05839,0.159378 18.17098,-0.32329 27.1945,0.249265 3.79779,3.115854 1.39752,8.997533 2.07528,13.409944 0,34.394646 0,68.789324 0,103.183974 -1.18983,5.85705 -8.69761,2.75933 -13.02671,3.5407 -5.41436,0 -10.82871,0 -16.24307,0 9.92205,-9.4379 6.43281,-23.58356 7.0814,-35.73131 -0.0844,-23.44189 0.16999,-46.892771 -0.12924,-70.328996 -0.55381,-5.401088 -3.15951,-10.47866 -6.95216,-14.323502 z M 98.069748,78.753202 c 12.431792,0 24.863582,0 37.295372,0 0,19.985298 0,39.970558 0,59.955858 -12.43179,0 -24.86358,0 -37.295372,0 0,-19.9853 0,-39.97056 0,-59.955858 z"
       inkscape:connector-curvature="0"
       id="path4003"
       style="opacity:0.1;fill:#000000;fill-opacity:1;stroke:none;display:inline" />
    <path
       d="m 112.94069,14.076411 c -14.723532,0 -26.673276,11.949741 -26.673276,26.673275 a 4.0429071,4.0429071 0 0 0 1.888373,3.5407 l -3.5407,0 c -5.944962,0 -11.274228,2.502095 -15.106988,6.491284 l 0,-6.491284 -22.660481,0 c -11.585054,0 -21.008155,9.423097 -21.008155,21.008155 l 0,86.865179 c 0,11.58506 9.423101,21.00816 21.008155,21.00816 l 22.660481,0 0,-6.49129 c 3.83276,3.98919 9.162026,6.49129 15.106988,6.49129 l 3.776747,0 a 4.0429071,4.0429071 0 0 0 -2.12442,3.5407 c 0,14.72353 11.949744,26.67327 26.673276,26.67327 l 29.97793,0 0,7.0814 -7.31745,0 a 4.0429071,4.0429071 0 0 0 -4.01279,4.01279 l 0,3.5407 -29.97793,0 a 4.0429071,4.0429071 0 0 0 -4.012796,4.0128 l 0,7.55349 a 4.0429071,4.0429071 0 0 0 4.012796,4.0128 l 29.97793,0 0,3.5407 a 4.0429071,4.0429071 0 0 0 4.01279,4.01279 l 45.32096,0 a 4.0429071,4.0429071 0 0 0 4.0128,-4.01279 l 0,-3.5407 29.97793,0 a 4.0429071,4.0429071 0 0 0 4.01279,-4.0128 l 0,-7.55349 a 4.0429071,4.0429071 0 0 0 -4.01279,-4.0128 l -29.97793,0 0,-3.5407 a 4.0429071,4.0429071 0 0 0 -4.0128,-4.01279 l -7.31744,0 0,-7.0814 29.97792,0 c 14.72354,0 26.67328,-11.94974 26.67328,-26.67327 l 0,-135.962894 c 0,-14.723534 -11.94974,-26.673275 -26.67328,-26.673275 l -90.64192,0 z m 38.23956,30.686069 41.07212,0 c 4.10733,0 7.31745,3.210121 7.31745,7.317447 l 0,113.302403 c 0,4.10733 -3.21012,7.31745 -7.31745,7.31745 l -41.07212,0 c 10.42394,-1.23443 18.64769,-9.79004 18.64769,-20.53606 l 0,-86.865179 c 0,-10.746016 -8.22375,-19.301632 -18.64769,-20.536061 z m -82.852384,7.78954 c -2.805236,3.575447 -4.720934,7.868588 -4.720934,12.746521 l 0,86.865179 c 0,4.87793 1.915698,9.17107 4.720934,12.74652 -6.643876,-0.6107 -11.802334,-5.92118 -11.802334,-12.74652 l 0,-11.33024 0,-64.204698 0,-11.330241 c 0,-6.825337 5.158458,-12.135821 11.802334,-12.746521 z m 27.617462,22.424435 41.544212,0 c 0.96886,0 1.65233,0.683478 1.65233,1.652327 l 0,64.204698 c 0,0.96885 -0.68347,1.65233 -1.65233,1.65233 l -41.544212,0 c -0.968853,0 -1.652327,-0.68348 -1.652327,-1.65233 l 0,-64.204698 c 0,-0.968849 0.683474,-1.652327 1.652327,-1.652327 z"
       id="path3999"
       style="opacity:0.15;fill:#000000;fill-opacity:1;stroke:none;display:inline"
       inkscape:connector-curvature="0" />
    <path
       d="m 112.94069,18.089205 c -12.55391,0 -22.660483,10.106574 -22.660483,22.660481 l 101.972163,0 c 6.27696,0 11.33024,5.053288 11.33024,11.330241 l 0,113.302403 c 0,6.27696 -5.05328,11.33025 -11.33024,11.33025 l -101.972163,0 c 0,12.5539 10.106573,22.66048 22.660483,22.66048 l 33.99072,0 0,15.10698 -11.33024,0 0,7.5535 -33.99072,0 0,7.55349 33.99072,0 0,7.5535 45.32096,0 0,-7.5535 33.99073,0 0,-7.55349 -33.99073,0 0,-7.5535 -11.33024,0 0,-15.10698 33.99072,0 c 12.55391,0 22.66049,-10.10658 22.66049,-22.66048 l 0,-135.962894 c 0,-12.553907 -10.10658,-22.660481 -22.66049,-22.660481 l -90.64192,0 z M 46.847618,48.30318 c -9.41543,0 -16.995361,7.579931 -16.995361,16.995361 l 0,86.865179 c 0,9.41543 7.579931,16.99536 16.995361,16.99536 l 22.660481,0 c -9.41543,0 -16.995361,-7.57993 -16.995361,-16.99536 l 0,-11.33024 0,-64.204698 0,-11.330241 c 0,-9.41543 7.579931,-16.995361 16.995361,-16.995361 l -22.660481,0 z m 37.767469,0 c -9.41543,0 -16.995361,7.579931 -16.995361,16.995361 l 0,86.865179 c 0,9.41543 7.579931,16.99536 16.995361,16.99536 l 64.204693,0 c 9.41543,0 16.99537,-7.57993 16.99537,-16.99536 l 0,-86.865179 c 0,-9.41543 -7.57994,-16.995361 -16.99537,-16.995361 l -64.204693,0 z m 11.330241,22.660482 41.544212,0 c 3.13848,0 5.66512,2.526643 5.66512,5.66512 l 0,64.204698 c 0,3.13848 -2.52664,5.66512 -5.66512,5.66512 l -41.544212,0 c -3.138477,0 -5.665121,-2.52664 -5.665121,-5.66512 l 0,-64.204698 c 0,-3.138477 2.526644,-5.66512 5.665121,-5.66512 z"
       inkscape:connector-curvature="0"
       id="path3887"
       style="opacity:0.3;fill:#000000;fill-opacity:1;stroke:none;display:inline" />
    <path
       d="m 112.94069,14.312458 c -12.55391,0 -22.660483,10.106574 -22.660483,22.660481 l 101.972163,0 c 6.27696,0 11.33024,5.053288 11.33024,11.330241 l 0,113.30241 c 0,6.27695 -5.05328,11.33024 -11.33024,11.33024 l -101.972163,0 c 0,12.55391 10.106573,22.66048 22.660483,22.66048 l 33.99072,0 0,15.10699 -11.33024,0 0,7.55349 -33.99072,0 0,7.5535 33.99072,0 0,7.55349 45.32096,0 0,-7.55349 33.99073,0 0,-7.5535 -33.99073,0 0,-7.55349 -11.33024,0 0,-15.10699 33.99072,0 c 12.55391,0 22.66049,-10.10657 22.66049,-22.66048 l 0,-135.962891 c 0,-12.553907 -10.10658,-22.660481 -22.66049,-22.660481 l -90.64192,0 z M 46.847618,44.526433 c -9.41543,0 -16.995361,7.579931 -16.995361,16.995361 l 0,86.865176 c 0,9.41543 7.579931,16.99536 16.995361,16.99536 l 22.660481,0 c -9.41543,0 -16.995361,-7.57993 -16.995361,-16.99536 l 0,-11.33024 0,-64.204695 0,-11.330241 c 0,-9.41543 7.579931,-16.995361 16.995361,-16.995361 l -22.660481,0 z m 37.767469,0 c -9.41543,0 -16.995361,7.579931 -16.995361,16.995361 l 0,86.865176 c 0,9.41543 7.579931,16.99536 16.995361,16.99536 l 64.204693,0 c 9.41543,0 16.99537,-7.57993 16.99537,-16.99536 l 0,-86.865176 c 0,-9.41543 -7.57994,-16.995361 -16.99537,-16.995361 l -64.204693,0 z m 11.330241,22.660482 41.544212,0 c 3.13848,0 5.66512,2.526643 5.66512,5.66512 l 0,64.204695 c 0,3.13848 -2.52664,5.66512 -5.66512,5.66512 l -41.544212,0 c -3.138477,0 -5.665121,-2.52664 -5.665121,-5.66512 l 0,-64.204695 c 0,-3.138477 2.526644,-5.66512 5.665121,-5.66512 z"
       inkscape:connector-curvature="0"
       id="path3087"
       style="fill:url(#linearGradient3831);fill-opacity:1;stroke:none;display:inline" />
    <path
       d="m 112.94069,14.312458 c -12.55391,0 -22.660483,10.106574 -22.660483,22.660481 l 0.35407,0 C 92.41456,26.219899 101.66762,18.089205 112.94069,18.089205 l 90.64192,0 c 12.55391,0 22.66049,10.106574 22.66049,22.660481 l 0,-3.776747 c 0,-12.553907 -10.10658,-22.660481 -22.66049,-22.660481 l -90.64192,0 z M 46.847618,44.526433 c -9.41543,0 -16.995361,7.579931 -16.995361,16.995361 l 0,3.776747 c 0,-9.41543 7.579931,-16.995361 16.995361,-16.995361 l 12.03838,0 c 2.906147,-2.324097 6.594748,-3.776747 10.622101,-3.776747 l -22.660481,0 z m 37.767469,0 c -9.41543,0 -16.995361,7.579931 -16.995361,16.995361 l 0,3.776747 c 0,-9.41543 7.579931,-16.995361 16.995361,-16.995361 l 64.204693,0 c 9.41543,0 16.99537,7.579931 16.99537,16.995361 l 0,-3.776747 c 0,-9.41543 -7.57994,-16.995361 -16.99537,-16.995361 l -64.204693,0 z m 5.66512,92.530297 0,3.77675 c 0,3.13848 2.526644,5.66512 5.665121,5.66512 l 41.544212,0 c 3.13848,0 5.66512,-2.52664 5.66512,-5.66512 l 0,-3.77675 c 0,3.13848 -2.52664,5.66512 -5.66512,5.66512 l -41.544212,0 c -3.138477,0 -5.665121,-2.52664 -5.665121,-5.66512 z m -37.767469,11.33024 0,3.77675 c 0,5.38806 2.485217,10.10926 6.37326,13.21861 l 10.622101,0 c -9.41543,0 -16.995361,-7.57993 -16.995361,-16.99536 z m 151.069872,13.21862 c 0,6.27695 -5.05328,11.33024 -11.33024,11.33024 l -101.972163,0 c 0,1.28084 0.151788,2.55501 0.35407,3.77675 l 101.618093,0 c 6.27696,0 11.33024,-5.05329 11.33024,-11.33025 l 0,-3.77674 z m -67.98144,49.09771 0,3.77674 11.33024,0 0,-3.77674 -11.33024,0 z m 33.99072,0 0,3.77674 11.33024,0 0,-3.77674 -11.33024,0 z m -67.98144,7.55349 0,3.77675 33.99072,0 0,-3.77675 -33.99072,0 z m 79.31168,0 0,3.77675 33.99073,0 0,-3.77675 -33.99073,0 z"
       inkscape:connector-curvature="0"
       id="path3869"
       style="opacity:0.75;fill:#ffffff;fill-opacity:1;stroke:none;display:inline" />
    <path
       d="m 90.634277,33.196192 c -0.202275,1.22174 -0.35407,2.495901 -0.35407,3.776747 l 101.972163,0 c 6.27696,0 11.33024,5.053288 11.33024,11.330241 l 0,-3.776747 c 0,-6.276953 -5.05328,-11.330241 -11.33024,-11.330241 l -101.618093,0 z M 58.885998,44.526433 c -3.888043,3.109358 -6.37326,7.830518 -6.37326,13.218614 l 0,3.776747 c 0,-9.41543 7.579931,-16.995361 16.995361,-16.995361 l -10.622101,0 z m 37.05933,18.883735 c -3.138477,0 -5.665121,2.526643 -5.665121,5.66512 l 0,3.776747 c 0,-3.138477 2.526644,-5.66512 5.665121,-5.66512 l 41.544212,0 c 3.13848,0 5.66512,2.526643 5.66512,5.66512 l 0,-3.776747 c 0,-3.138477 -2.52664,-5.66512 -5.66512,-5.66512 l -41.544212,0 z m -66.093071,81.200062 0,3.77674 c 0,9.41543 7.579931,16.99536 16.995361,16.99536 l 22.660481,0 c -4.027353,0 -7.715954,-1.45265 -10.622101,-3.77674 l -12.03838,0 c -9.41543,0 -16.995361,-7.57993 -16.995361,-16.99536 z m 37.767469,0 0,3.77674 c 0,9.41543 7.579931,16.99536 16.995361,16.99536 l 64.204693,0 c 9.41543,0 16.99537,-7.57993 16.99537,-16.99536 l 0,-3.77674 c 0,9.41543 -7.57994,16.99536 -16.99537,16.99536 l -64.204693,0 c -9.41543,0 -16.995361,-7.57993 -16.995361,-16.99536 z M 226.2431,169.15908 c 0,12.55391 -10.10658,22.66048 -22.66049,22.66048 l -33.99072,0 0,3.77675 33.99072,0 c 12.55391,0 22.66049,-10.10657 22.66049,-22.66048 l 0,-3.77675 z m -135.962893,3.77675 c 0,12.55391 10.106573,22.66048 22.660483,22.66048 l 33.99072,0 0,-3.77675 -33.99072,0 c -11.27307,0 -20.52613,-8.13069 -22.306413,-18.88373 l -0.35407,0 z m 11.330243,49.09771 0,3.77675 33.99072,0 0,-3.77675 -33.99072,0 z m 79.31168,0 0,3.77675 33.99073,0 0,-3.77675 -33.99073,0 z m -45.32096,7.55349 0,3.77675 45.32096,0 0,-3.77675 -45.32096,0 z"
       inkscape:connector-curvature="0"
       id="path3878"
       style="opacity:0.15;fill:#000000;fill-opacity:1;stroke:none;display:inline" />
  </g>
</svg>
