<?xml version="1.0" encoding="UTF-8" standalone="no"?>
<!-- Created with Inkscape (http://www.inkscape.org/) -->

<svg
   xmlns:dc="http://purl.org/dc/elements/1.1/"
   xmlns:cc="http://creativecommons.org/ns#"
   xmlns:rdf="http://www.w3.org/1999/02/22-rdf-syntax-ns#"
   xmlns:svg="http://www.w3.org/2000/svg"
   xmlns="http://www.w3.org/2000/svg"
   xmlns:xlink="http://www.w3.org/1999/xlink"
   xmlns:sodipodi="http://sodipodi.sourceforge.net/DTD/sodipodi-0.dtd"
   xmlns:inkscape="http://www.inkscape.org/namespaces/inkscape"
   version="1.0"
   width="256"
   height="256"
   id="svg2408"
   inkscape:version="0.48.2 r9819"
   sodipodi:docname="add-folder-to-archive.svg">
  <sodipodi:namedview
     pagecolor="#ffffff"
     bordercolor="#666666"
     borderopacity="1"
     objecttolerance="10"
     gridtolerance="10"
     guidetolerance="10"
     inkscape:pageopacity="0"
     inkscape:pageshadow="2"
     inkscape:window-width="1024"
     inkscape:window-height="572"
     id="namedview93"
     showgrid="false"
     inkscape:zoom="1.4882812"
     inkscape:cx="116.24147"
     inkscape:cy="128"
     inkscape:window-x="0"
     inkscape:window-y="28"
     inkscape:window-maximized="1"
     inkscape:current-layer="svg2408" />
  <defs
     id="defs2410">
    <linearGradient
       id="linearGradient3637">
      <stop
         id="stop3639"
         style="stop-color:#5a5a5a;stop-opacity:1;"
         offset="0" />
      <stop
         id="stop3641"
         style="stop-color:#000000;stop-opacity:1;"
         offset="1" />
    </linearGradient>
    <linearGradient
       x1="45.447727"
       y1="92.539597"
       x2="45.447727"
       y2="7.0165396"
       id="ButtonShadow"
       gradientUnits="userSpaceOnUse"
       gradientTransform="scale(1.0058652,0.994169)">
      <stop
         id="stop3750"
         style="stop-color:#000000;stop-opacity:1"
         offset="0" />
      <stop
         id="stop3752"
         style="stop-color:#000000;stop-opacity:0.58823532"
         offset="1" />
    </linearGradient>
    <linearGradient
       id="linearGradient3737">
      <stop
         id="stop3739"
         style="stop-color:#ffffff;stop-opacity:1"
         offset="0" />
      <stop
         id="stop3741"
         style="stop-color:#ffffff;stop-opacity:0"
         offset="1" />
    </linearGradient>
    <linearGradient
       id="linearGradient3700">
      <stop
         id="stop3702"
         style="stop-color:#2276c5;stop-opacity:1"
         offset="0" />
      <stop
         id="stop3704"
         style="stop-color:#68baf4;stop-opacity:1"
         offset="1" />
    </linearGradient>
    <filter
       color-interpolation-filters="sRGB"
       id="filter3174">
      <feGaussianBlur
         id="feGaussianBlur3176"
         stdDeviation="1.71" />
    </filter>
    <linearGradient
       x1="36.357143"
       y1="6"
       x2="36.357143"
       y2="63.893143"
       id="linearGradient3188"
       xlink:href="#linearGradient3737"
       gradientUnits="userSpaceOnUse" />
    <filter
       x="-0.192"
       y="-0.192"
       width="1.3839999"
       height="1.3839999"
       color-interpolation-filters="sRGB"
       id="filter3794">
      <feGaussianBlur
         id="feGaussianBlur3796"
         stdDeviation="5.28" />
    </filter>
    <linearGradient
       x1="48"
       y1="20.220806"
       x2="48"
       y2="138.66119"
       id="linearGradient3613"
       xlink:href="#linearGradient3737"
       gradientUnits="userSpaceOnUse" />
    <radialGradient
       cx="48"
       cy="90.171875"
       r="42"
       fx="48"
       fy="90.171875"
       id="radialGradient3619"
       xlink:href="#linearGradient3737"
       gradientUnits="userSpaceOnUse"
       gradientTransform="matrix(1.1573129,0,0,0.99590774,-7.5510206,0.19713193)" />
    <clipPath
       id="clipPath3613">
      <rect
         width="84"
         height="84"
         rx="6"
         ry="6"
         x="6"
         y="6"
         id="rect3615"
         style="fill:#ffffff;fill-opacity:1;fill-rule:nonzero;stroke:none" />
    </clipPath>
    <linearGradient
       x1="48"
       y1="90"
       x2="48"
       y2="5.9877172"
       id="linearGradient2843"
       xlink:href="#linearGradient3700"
       gradientUnits="userSpaceOnUse"
       gradientTransform="translate(0,100)" />
    <clipPath
       id="clipPath3625">
      <path
         d="M 0,0 0,96 96,96 96,0 0,0 z m 12,6 72,0 c 3.324,0 6,2.676 6,6 l 0,72 c 0,3.324 -2.676,6 -6,6 L 12,90 C 8.676,90 6,87.324 6,84 L 6,12 C 6,8.676 8.676,6 12,6 z"
         inkscape:connector-curvature="0"
         id="path3627"
         style="fill:#ffffff;fill-opacity:1;stroke:none" />
    </clipPath>
    <linearGradient
       x1="44.512066"
       y1="6"
       x2="44.512066"
       y2="90.015434"
       id="linearGradient3643"
       xlink:href="#linearGradient3637"
       gradientUnits="userSpaceOnUse" />
    <clipPath
       id="clipPath3649">
      <rect
         width="76"
         height="76"
         rx="4"
         ry="4"
         x="10"
         y="10"
         id="rect3651"
         style="fill:#ffffff;fill-opacity:1;fill-rule:nonzero;stroke:none" />
    </clipPath>
    <filter
       color-interpolation-filters="sRGB"
       id="filter3657">
      <feGaussianBlur
         id="feGaussianBlur3659"
         stdDeviation="1.14" />
    </filter>
    <linearGradient
       inkscape:collect="always"
       xlink:href="#linearGradient3637"
       id="linearGradient3829"
       gradientUnits="userSpaceOnUse"
       gradientTransform="matrix(10.456143,0,0,12.293434,-33.281699,-8.0064659)"
       x1="11.998966"
       y1="1.8417114"
       x2="11.998966"
       y2="20.237488" />
  </defs>
  <metadata
     id="metadata2413">
    <rdf:RDF>
      <cc:Work
         rdf:about="">
        <dc:format>image/svg+xml</dc:format>
        <dc:type
           rdf:resource="http://purl.org/dc/dcmitype/StillImage" />
        <dc:title></dc:title>
      </cc:Work>
    </rdf:RDF>
  </metadata>
  <g
     id="layer2"
     style="display:none"
     transform="translate(0,160)">
    <rect
       width="86"
       height="85"
       rx="6"
       ry="6"
       x="5"
       y="7"
       clip-path="url(#clipPath3625)"
       id="rect3745"
       style="opacity:0.9;fill:url(#ButtonShadow);fill-opacity:1;fill-rule:nonzero;stroke:none;filter:url(#filter3174)" />
  </g>
  <g
     id="layer1"
     style="display:none"
     transform="translate(0,160)">
    <rect
       width="84"
       height="84"
       rx="6"
       ry="6"
       x="6"
       y="6"
       id="rect2419"
       style="opacity:0.8;fill:#000000;fill-opacity:1;fill-rule:nonzero;stroke:none" />
    <path
       d="m 14,10 c -2.216,0 -4,1.784 -4,4 l 0,68 c 0,2.216 1.784,4 4,4 l 68,0 c 2.216,0 4,-1.784 4,-4 l 0,-68 c 0,-2.216 -1.784,-4 -4,-4 l -68,0 z m 0,3.0625 68,0 c 0.578769,0 0.9375,0.358731 0.9375,0.9375 l 0,68 c 0,0.578769 -0.358731,0.9375 -0.9375,0.9375 l -68,0 c -0.578769,0 -0.9375,-0.358731 -0.9375,-0.9375 l 0,-68 c 0,-0.578769 0.358731,-0.9375 0.9375,-0.9375 z"
       inkscape:connector-curvature="0"
       id="rect3726"
       style="opacity:0.07999998;fill:#000000;fill-opacity:1;fill-rule:nonzero;stroke:none" />
    <path
       d="M 12,6 C 8.676,6 6,8.676 6,12 l 0,72 c 0,3.324 2.676,6 6,6 l 72,0 c 3.324,0 6,-2.676 6,-6 L 90,12 C 90,8.676 87.324,6 84,6 L 12,6 z m 2,4 68,0 c 2.216,0 4,1.784 4,4 l 0,68 c 0,2.216 -1.784,4 -4,4 l -68,0 c -2.216,0 -4,-1.784 -4,-4 l 0,-68 c 0,-2.216 1.784,-4 4,-4 z"
       inkscape:connector-curvature="0"
       id="rect3629"
       style="fill:url(#linearGradient3643);fill-opacity:1;fill-rule:nonzero;stroke:none" />
    <path
       d="M 12,6 C 8.676,6 6,8.676 6,12 l 0,2 0,68 0,2 c 0,0.334721 0.04135,0.6507 0.09375,0.96875 0.0487,0.295596 0.09704,0.596915 0.1875,0.875 0.00988,0.03038 0.020892,0.0636 0.03125,0.09375 0.098865,0.287771 0.2348802,0.547452 0.375,0.8125 0.1445918,0.273507 0.3156161,0.535615 0.5,0.78125 0.1843839,0.245635 0.3737765,0.473472 0.59375,0.6875 0.439947,0.428056 0.94291,0.814526 1.5,1.09375 0.278545,0.139612 0.5734731,0.246947 0.875,0.34375 -0.2562018,-0.100222 -0.4867109,-0.236272 -0.71875,-0.375 -0.00741,-0.0044 -0.023866,0.0045 -0.03125,0 -0.031933,-0.0193 -0.062293,-0.04251 -0.09375,-0.0625 -0.120395,-0.0767 -0.2310226,-0.163513 -0.34375,-0.25 -0.1061728,-0.0808 -0.2132809,-0.161112 -0.3125,-0.25 C 8.4783201,88.557317 8.3087904,88.373362 8.15625,88.1875 8.0486711,88.057245 7.9378561,87.922215 7.84375,87.78125 7.818661,87.74287 7.805304,87.69538 7.78125,87.65625 7.716487,87.553218 7.6510225,87.451733 7.59375,87.34375 7.4927417,87.149044 7.3880752,86.928049 7.3125,86.71875 7.30454,86.69694 7.288911,86.6782 7.28125,86.65625 7.2494249,86.5643 7.2454455,86.469419 7.21875,86.375 7.1884177,86.268382 7.1483606,86.171969 7.125,86.0625 7.0521214,85.720988 7,85.364295 7,85 L 7,83 7,15 7,13 C 7,10.218152 9.2181517,8 12,8 l 2,0 68,0 2,0 c 2.781848,0 5,2.218152 5,5 l 0,2 0,68 0,2 c 0,0.364295 -0.05212,0.720988 -0.125,1.0625 -0.04415,0.206893 -0.08838,0.397658 -0.15625,0.59375 -0.0077,0.02195 -0.0233,0.04069 -0.03125,0.0625 -0.06274,0.173739 -0.138383,0.367449 -0.21875,0.53125 -0.04158,0.0828 -0.07904,0.169954 -0.125,0.25 -0.0546,0.09721 -0.126774,0.18835 -0.1875,0.28125 -0.09411,0.140965 -0.204921,0.275995 -0.3125,0.40625 -0.143174,0.17445 -0.303141,0.346998 -0.46875,0.5 -0.01117,0.0102 -0.01998,0.02115 -0.03125,0.03125 -0.138386,0.125556 -0.285091,0.234436 -0.4375,0.34375 -0.102571,0.07315 -0.204318,0.153364 -0.3125,0.21875 -0.0074,0.0045 -0.02384,-0.0044 -0.03125,0 -0.232039,0.138728 -0.462548,0.274778 -0.71875,0.375 0.301527,-0.0968 0.596455,-0.204138 0.875,-0.34375 0.55709,-0.279224 1.060053,-0.665694 1.5,-1.09375 0.219973,-0.214028 0.409366,-0.441865 0.59375,-0.6875 0.184384,-0.245635 0.355408,-0.507743 0.5,-0.78125 0.14012,-0.265048 0.276135,-0.524729 0.375,-0.8125 0.01041,-0.03078 0.02133,-0.06274 0.03125,-0.09375 0.09046,-0.278085 0.1388,-0.579404 0.1875,-0.875 C 89.95865,84.6507 90,84.334721 90,84 l 0,-2 0,-68 0,-2 C 90,8.676 87.324,6 84,6 L 12,6 z"
       inkscape:connector-curvature="0"
       id="rect3728"
       style="fill:url(#linearGradient3188);fill-opacity:1;fill-rule:nonzero;stroke:none" />
    <path
       d="M 12,90 C 8.676,90 6,87.324 6,84 L 6,82 6,14 6,12 c 0,-0.334721 0.04135,-0.6507 0.09375,-0.96875 0.0487,-0.295596 0.09704,-0.596915 0.1875,-0.875 C 6.29113,10.12587 6.302142,10.09265 6.3125,10.0625 6.411365,9.774729 6.5473802,9.515048 6.6875,9.25 6.8320918,8.976493 7.0031161,8.714385 7.1875,8.46875 7.3718839,8.223115 7.5612765,7.995278 7.78125,7.78125 8.221197,7.353194 8.72416,6.966724 9.28125,6.6875 9.559795,6.547888 9.8547231,6.440553 10.15625,6.34375 9.9000482,6.443972 9.6695391,6.580022 9.4375,6.71875 c -0.00741,0.0044 -0.023866,-0.0045 -0.03125,0 -0.031933,0.0193 -0.062293,0.04251 -0.09375,0.0625 -0.120395,0.0767 -0.2310226,0.163513 -0.34375,0.25 -0.1061728,0.0808 -0.2132809,0.161112 -0.3125,0.25 C 8.4783201,7.442683 8.3087904,7.626638 8.15625,7.8125 8.0486711,7.942755 7.9378561,8.077785 7.84375,8.21875 7.818661,8.25713 7.805304,8.30462 7.78125,8.34375 7.716487,8.446782 7.6510225,8.548267 7.59375,8.65625 7.4927417,8.850956 7.3880752,9.071951 7.3125,9.28125 7.30454,9.30306 7.288911,9.3218 7.28125,9.34375 7.2494249,9.4357 7.2454455,9.530581 7.21875,9.625 7.1884177,9.731618 7.1483606,9.828031 7.125,9.9375 7.0521214,10.279012 7,10.635705 7,11 l 0,2 0,68 0,2 c 0,2.781848 2.2181517,5 5,5 l 2,0 68,0 2,0 c 2.781848,0 5,-2.218152 5,-5 l 0,-2 0,-68 0,-2 C 89,10.635705 88.94788,10.279012 88.875,9.9375 88.83085,9.730607 88.78662,9.539842 88.71875,9.34375 88.71105,9.3218 88.69545,9.30306 88.6875,9.28125 88.62476,9.107511 88.549117,8.913801 88.46875,8.75 88.42717,8.6672 88.38971,8.580046 88.34375,8.5 88.28915,8.40279 88.216976,8.31165 88.15625,8.21875 88.06214,8.077785 87.951329,7.942755 87.84375,7.8125 87.700576,7.63805 87.540609,7.465502 87.375,7.3125 87.36383,7.3023 87.35502,7.29135 87.34375,7.28125 87.205364,7.155694 87.058659,7.046814 86.90625,6.9375 86.803679,6.86435 86.701932,6.784136 86.59375,6.71875 c -0.0074,-0.0045 -0.02384,0.0044 -0.03125,0 -0.232039,-0.138728 -0.462548,-0.274778 -0.71875,-0.375 0.301527,0.0968 0.596455,0.204138 0.875,0.34375 0.55709,0.279224 1.060053,0.665694 1.5,1.09375 0.219973,0.214028 0.409366,0.441865 0.59375,0.6875 0.184384,0.245635 0.355408,0.507743 0.5,0.78125 0.14012,0.265048 0.276135,0.524729 0.375,0.8125 0.01041,0.03078 0.02133,0.06274 0.03125,0.09375 0.09046,0.278085 0.1388,0.579404 0.1875,0.875 C 89.95865,11.3493 90,11.665279 90,12 l 0,2 0,68 0,2 c 0,3.324 -2.676,6 -6,6 l -72,0 z"
       inkscape:connector-curvature="0"
       id="path3615"
       style="opacity:0.6;fill:url(#radialGradient3619);fill-opacity:1;fill-rule:nonzero;stroke:none" />
    <rect
       width="84"
       height="84"
       rx="6"
       ry="6"
       x="6"
       y="106"
       id="rect2841"
       style="fill:url(#linearGradient2843);fill-opacity:1;fill-rule:nonzero;stroke:none" />
    <rect
       width="76"
       height="76"
       rx="4"
       ry="4"
       x="10"
       y="110"
       id="rect3634"
       style="fill:#ff0000;fill-opacity:1;fill-rule:nonzero;stroke:none" />
    <path
       d="m 14,9 c -2.752703,0 -5,2.247297 -5,5 l 0,68 c 0,2.752703 2.247297,5 5,5 l 68,0 c 2.752703,0 5,-2.247297 5,-5 L 87,14 C 87,11.247297 84.752703,9 82,9 L 14,9 z m 0,2 68,0 c 1.679297,0 3,1.320703 3,3 l 0,68 c 0,1.679297 -1.320703,3 -3,3 l -68,0 c -1.679297,0 -3,-1.320703 -3,-3 l 0,-68 c 0,-1.679297 1.320703,-3 3,-3 z"
       inkscape:connector-curvature="0"
       transform="translate(-110,0)"
       clip-path="url(#clipPath3649)"
       id="rect3647"
       style="font-size:medium;font-style:normal;font-variant:normal;font-weight:normal;font-stretch:normal;text-indent:0;text-align:start;text-decoration:none;line-height:normal;letter-spacing:normal;word-spacing:normal;text-transform:none;direction:ltr;block-progression:tb;writing-mode:lr-tb;text-anchor:start;color:#000000;fill:#000000;fill-opacity:1;stroke:none;stroke-width:2;marker:none;visibility:visible;display:inline;overflow:visible;filter:url(#filter3657);enable-background:accumulate;font-family:Abandoned Bitplane;-inkscape-font-specification:Abandoned Bitplane" />
    <path
       d="m 14.089286,10 c -2.216,0 -4,1.784 -4,4 l 0,68 c 0,2.216 1.784,4 4,4 l 68,0 c 2.216,0 4,-1.784 4,-4 l 0,-68 c 0,-2.216 -1.784,-4 -4,-4 l -68,0 z m 0,2 68,0 c 1.140301,0 2,0.859699 2,2 l 0,68 c 0,1.140301 -0.859699,2 -2,2 l -68,0 c -1.140301,0 -2,-0.859699 -2,-2 l 0,-68 c 0,-1.140301 0.859699,-2 2,-2 z"
       inkscape:connector-curvature="0"
       id="path3709"
       style="opacity:0.16000001;fill:#000000;fill-opacity:1;fill-rule:nonzero;stroke:none" />
    <path
       d="m 14,10 c -2.216,0 -4,1.784 -4,4 l 0,68 c 0,2.216 1.784,4 4,4 l 68,0 c 2.216,0 4,-1.784 4,-4 l 0,-68 c 0,-2.216 -1.784,-4 -4,-4 l -68,0 z m 0,1 68,0 c 1.673848,0 3,1.326152 3,3 l 0,68 c 0,1.673848 -1.326152,3 -3,3 l -68,0 c -1.673848,0 -3,-1.326152 -3,-3 l 0,-68 c 0,-1.673848 1.326152,-3 3,-3 z"
       inkscape:connector-curvature="0"
       id="path3707"
       style="opacity:0.36000001;fill:#000000;fill-opacity:1;fill-rule:nonzero;stroke:none" />
  </g>
  <g
     id="layer5"
     style="display:none"
     transform="translate(0,160)">
    <rect
       width="66"
       height="66"
       rx="12"
       ry="12"
       x="15"
       y="15"
       clip-path="url(#clipPath3613)"
       id="rect3171"
       style="opacity:0.1;fill:url(#linearGradient3613);fill-opacity:1;fill-rule:nonzero;stroke:#ffffff;stroke-width:0.5;stroke-linecap:round;stroke-linejoin:miter;stroke-miterlimit:4;stroke-opacity:1;stroke-dasharray:none;stroke-dashoffset:0;filter:url(#filter3794)" />
  </g>
  <g
     id="g3821"
     transform="translate(-1.1735754,0.7947755)">
    <path
       d="M 114.39261,10.394585 C 98.851629,10.02672 84.998712,23.504976 84.239738,38.898467 75.128495,35.707728 65.213068,37.680254 55.707587,37.131698 43.429755,35.81903 32.923855,47.619996 34.652406,59.611414 c 0.313929,5.096739 -0.698642,10.483775 1.060061,15.329152 -9.579679,5.227113 -13.430588,16.404894 -12.367386,26.776954 0.08428,17.79359 -0.169987,35.59802 0.129695,53.38475 1.065123,14.37576 15.513201,24.17514 29.268932,22.42872 10.380897,0 20.76179,0 31.142687,0 0.0045,17.28065 16.599505,31.67042 33.669275,29.79951 5.2275,0 10.45499,0 15.68249,0 -4.40669,2.16732 -3.10111,8.82013 -9.30113,6.59594 -7.95086,0.34148 -16.09364,-0.71436 -23.91414,0.58893 -6.669927,2.71828 -4.780589,10.81971 -4.829169,16.48984 1.088273,6.51246 8.322389,6.97911 13.585069,6.47816 6.66034,0.15793 13.95168,-0.3151 20.21912,0.23557 0.39233,6.28012 7.20307,8.12345 12.43763,7.30265 14.10791,-0.0791 28.2383,0.15792 42.33223,-0.1176 6.03178,0.30869 4.40409,-8.85597 9.64121,-7.42043 8.5828,-0.34714 17.35979,0.7225 25.81197,-0.58893 6.66992,-2.71828 4.78059,-10.81971 4.82917,-16.48984 -1.08828,-6.51246 -8.32239,-6.97911 -13.58507,-6.47816 -6.66035,-0.15793 -13.95168,0.3151 -20.21913,-0.23557 -1.18407,-5.36103 -6.74496,-7.32209 1.45325,-6.36037 11.65133,0.11232 24.769,1.07386 33.71568,-7.97962 9.08887,-7.56788 10.75116,-19.76938 10.06038,-30.86832 -0.10482,-43.52626 0.21035,-87.065913 -0.15887,-130.583775 -1.29611,-16.711887 -17.82679,-29.4098627 -34.26081,-27.504202 -28.88764,0 -57.77529,0 -86.66294,0 z m 33.09748,38.633361 c 15.81089,0.145864 31.66791,-0.29286 47.44968,0.221624 3.55838,3.119804 1.23195,8.869692 1.90208,13.197947 0,34.317167 0,68.634333 0,102.951503 -1.20964,5.60082 -8.57883,2.48577 -12.78713,3.29797 -5.12113,0 -10.24226,0 -15.3634,0 9.12375,-9.92357 5.69137,-23.7242 6.36038,-35.86521 -0.28408,-13.89241 0.60458,-27.86596 -0.51458,-41.701273 0.78729,-9.314635 -13.23012,-12.242214 -10.67497,-19.9592 0.77384,-10.008754 -5.8402,-20.598403 -16.37206,-22.143512 z"
       inkscape:connector-curvature="0"
       id="path4096"
       style="opacity:0.1;fill:#000000;fill-opacity:1;stroke:none;display:inline" />
    <path
       d="m 114.39261,14.752617 c -14.463412,0 -26.265979,11.802548 -26.265979,26.265974 a 3.6055037,3.6055037 0 0 0 3.651324,3.651323 l 101.765925,0 c 4.32937,0 7.656,3.326615 7.656,7.656002 l 0,113.073254 c 0,4.32935 -3.32663,7.656 -7.656,7.656 l -42.75582,0 c 11.25396,-0.35165 19.66518,-9.95666 19.9056,-20.37674 a 3.6055037,3.6055037 0 0 0 0,-0.1176 l 0,-56.536625 c 0,-11.331259 -9.28103,-20.612312 -20.61231,-20.612312 l -11.30732,0 -56.536631,0 -33.921975,0 C 36.984146,75.411705 27.703112,84.692757 27.703112,96.024016 l 0,56.536634 c 0,11.33126 9.281034,20.61231 20.612312,20.61231 l 16.960987,0 25.794836,0 a 3.6055037,3.6055037 0 0 0 -2.944616,3.53354 c 0,14.46338 11.802567,26.26597 26.265979,26.26597 l 30.27065,0 0,7.77379 -7.656,0 a 3.6055037,3.6055037 0 0 0 -3.65133,3.65132 l 0,3.88689 -30.27065,0 a 3.6055037,3.6055037 0 0 0 -3.651324,3.65133 l 0,7.53821 a 3.6055037,3.6055037 0 0 0 3.651324,3.65133 l 30.27065,0 0,3.88689 a 3.6055037,3.6055037 0 0 0 3.65133,3.65132 l 45.2293,0 a 3.6055037,3.6055037 0 0 0 3.65132,-3.65132 l 0,-3.88689 30.27065,0 a 3.6055037,3.6055037 0 0 0 3.65133,-3.65133 l 0,-7.53821 a 3.6055037,3.6055037 0 0 0 -3.65133,-3.65133 l -30.27065,0 0,-3.88689 a 3.6055037,3.6055037 0 0 0 -3.65132,-3.65132 l -7.656,0 0,-7.77379 30.27065,0 c 14.46341,0 26.26597,-11.80259 26.26597,-26.26597 l 0,-135.687909 c 0,-14.463426 -11.80256,-26.265974 -26.26597,-26.265974 l -90.4586,0 z M 53.969086,41.489729 c -8.199149,0 -14.958649,6.759481 -14.958649,14.958649 l 0,11.307325 a 3.6055037,3.6055037 0 0 0 0.117785,0.353166 3.6055037,3.6055037 0 0 0 0,0.353165 l 0,2.709047 a 3.6055037,3.6055037 0 0 0 3.651324,3.651701 l 113.073254,0 a 3.6055037,3.6055037 0 0 0 3.65132,-3.651324 l 0,-3.769109 a 3.6055037,3.6055037 0 0 0 -0.11778,-0.117596 c -0.002,-0.07915 0.004,-0.156795 0,-0.235569 a 3.6055037,3.6055037 0 0 0 -0.23557,-1.060062 3.6055037,3.6055037 0 0 0 -0.11779,-0.353165 c -1.06674,-7.179963 -7.1461,-12.838526 -14.60529,-12.838526 l -53.592012,0 C 89.160626,46.397071 83.488758,41.490106 76.583737,41.490106 l -22.614651,0 z"
       id="path4092"
       style="opacity:0.15;fill:#000000;fill-opacity:1;stroke:none;display:inline"
       inkscape:connector-curvature="0" />
    <path
       d="m 114.39261,18.40394 c -12.52852,0 -22.614655,10.086134 -22.614655,22.614651 l 101.765925,0 c 6.26426,0 11.30733,5.043067 11.30733,11.307325 l 0,113.073254 c 0,6.26426 -5.04307,11.30733 -11.30733,11.30733 l -101.765925,0 c 0,12.52851 10.086135,22.61465 22.614655,22.61465 l 33.92197,0 0,15.07643 -11.30732,0 0,7.53822 -33.92198,0 0,7.53821 33.92198,0 0,7.53822 45.2293,0 0,-7.53822 33.92197,0 0,-7.53821 -33.92197,0 0,-7.53822 -11.30733,0 0,-15.07643 33.92198,0 c 12.52851,0 22.61465,-10.08614 22.61465,-22.61465 l 0,-135.687909 c 0,-12.528517 -10.08614,-22.614651 -22.61465,-22.614651 l -90.4586,0 z M 53.969086,45.141053 c -6.264258,0 -11.307325,5.043067 -11.307325,11.307325 l 0,11.307325 0.117785,0 0,3.415755 113.073254,0 0,-3.769109 -0.11779,0 C 155.54339,61.30853 150.56967,56.448378 144.42769,56.448378 l -56.536628,0 c 0,-6.264258 -5.043067,-11.307325 -11.307325,-11.307325 l -22.614651,0 z m -5.653662,33.921975 c -9.396388,0 -16.960988,7.564601 -16.960988,16.960988 l 0,56.536634 c 0,9.39638 7.5646,16.96098 16.960988,16.96098 l 16.960987,0 84.922729,0 c 9.47375,0 16.64281,-8.2762 16.8432,-16.96098 l 0,-56.536634 c 0,-9.396387 -7.5646,-16.960988 -16.96099,-16.960988 l -11.30732,0 -56.536631,0 -33.921975,0 z"
       inkscape:connector-curvature="0"
       id="path4086"
       style="opacity:0.3;fill:#000000;fill-opacity:1;stroke:none;display:inline" />
    <path
       d="m 114.39261,14.634832 c -12.52852,0 -22.614655,10.086134 -22.614655,22.61465 l 101.765925,0 c 6.26426,0 11.30733,5.043067 11.30733,11.307325 l 0,113.073253 c 0,6.26426 -5.04307,11.30733 -11.30733,11.30733 l -101.765925,0 c 0,12.52851 10.086135,22.61465 22.614655,22.61465 l 33.92197,0 0,15.07643 -11.30732,0 0,7.53822 -33.92198,0 0,7.53822 33.92198,0 0,7.53821 45.2293,0 0,-7.53821 33.92197,0 0,-7.53822 -33.92197,0 0,-7.53822 -11.30733,0 0,-15.07643 33.92198,0 c 12.52851,0 22.61465,-10.08614 22.61465,-22.61465 l 0,-135.687908 c 0,-12.528516 -10.08614,-22.61465 -22.61465,-22.61465 l -90.4586,0 z M 53.969086,41.371945 c -6.264258,0 -11.307325,5.043067 -11.307325,11.307325 l 0,11.307325 0.117785,0 0,3.415754 113.073254,0 0,-3.769108 -0.11779,0 C 155.54339,57.539422 150.56967,52.67927 144.42769,52.67927 l -56.536628,0 c 0,-6.264258 -5.043067,-11.307325 -11.307325,-11.307325 l -22.614651,0 z M 48.315424,75.29392 c -9.396388,0 -16.960988,7.564601 -16.960988,16.960988 l 0,56.536632 c 0,9.39638 7.5646,16.96099 16.960988,16.96099 l 16.960987,0 84.922729,0 c 9.47375,0 16.64281,-8.27621 16.8432,-16.96099 l 0,-56.536632 c 0,-9.396387 -7.5646,-16.960988 -16.96099,-16.960988 l -11.30732,0 -56.536631,0 -33.921975,0 z"
       inkscape:connector-curvature="0"
       id="path4053"
       style="fill:url(#linearGradient3829);fill-opacity:1;stroke:none;display:inline" />
    <path
       d="m 114.39261,14.634832 c -12.52852,0 -22.614655,10.086134 -22.614655,22.61465 l 0.353354,0 C 93.907991,26.51819 103.14234,18.40394 114.39261,18.40394 l 90.4586,0 c 12.52851,0 22.61465,10.086134 22.61465,22.614651 l 0,-3.769109 c 0,-12.528516 -10.08614,-22.61465 -22.61465,-22.61465 l -90.4586,0 z M 53.969086,41.371945 c -6.264258,0 -11.307325,5.043067 -11.307325,11.307325 l 0,3.769108 c 0,-6.264258 5.043067,-11.307325 11.307325,-11.307325 l 22.614651,0 c 6.264258,0 11.307325,5.043067 11.307325,11.307325 l 56.536628,0 c 6.14198,0 11.1157,4.860152 11.30732,10.953971 l 0.11779,0 0,-3.769108 -0.11779,0 C 155.54339,57.539422 150.56967,52.67927 144.42769,52.67927 l -56.536628,0 c 0,-6.264258 -5.043067,-11.307325 -11.307325,-11.307325 l -22.614651,0 z M 48.315424,75.29392 c -9.396388,0 -16.960988,7.564601 -16.960988,16.960988 l 0,3.769108 c 0,-9.396387 7.5646,-16.960988 16.960988,-16.960988 l 33.921975,0 56.536631,0 11.30732,0 c 9.39639,0 16.96099,7.564601 16.96099,16.960988 l 0,-3.769108 c 0,-9.396387 -7.5646,-16.960988 -16.96099,-16.960988 l -11.30732,0 -56.536631,0 -33.921975,0 z m 156.535786,86.33614 c 0,6.26426 -5.04307,11.30733 -11.30733,11.30733 l -101.765925,0 c 0,1.27825 0.15148,2.54984 0.353354,3.76911 l 101.412571,0 c 6.26426,0 11.30733,-5.04307 11.30733,-11.30733 l 0,-3.76911 z m -67.84395,48.99841 0,3.76911 11.30732,0 0,-3.76911 -11.30732,0 z m 33.92197,0 0,3.76911 11.30733,0 0,-3.76911 -11.30733,0 z m -67.84395,7.53822 0,3.76911 33.92198,0 0,-3.76911 -33.92198,0 z m 79.15128,0 0,3.76911 33.92197,0 0,-3.76911 -33.92197,0 z"
       inkscape:connector-curvature="0"
       id="path4068"
       style="opacity:0.75;fill:#ffffff;fill-opacity:1;stroke:none;display:inline" />
    <path
       d="m 92.131309,33.480374 c -0.201866,1.219269 -0.353354,2.490853 -0.353354,3.769108 l 101.765925,0 c 6.26426,0 11.30733,5.043067 11.30733,11.307325 l 0,-3.769108 c 0,-6.264258 -5.04307,-11.307325 -11.30733,-11.307325 l -101.412571,0 z m -49.469548,26.737113 0,3.769108 0.117785,0 0,3.415754 113.073254,0 0,-3.769108 -0.11779,0 -112.955464,0 0,-3.415754 -0.117785,0 z m -11.307325,84.804943 0,3.76911 c 0,9.39638 7.5646,16.96099 16.960988,16.96099 l 16.960987,0 84.922729,0 c 9.47375,0 16.64281,-8.27621 16.8432,-16.96099 l 0,-3.76911 c -0.2004,8.68478 -7.36945,16.96099 -16.8432,16.96099 l -84.922729,0 -16.960987,0 c -9.396388,0 -16.960988,-7.5646 -16.960988,-16.96099 z m 196.111424,24.14585 c 0,12.52852 -10.08614,22.61465 -22.61465,22.61465 l -33.92198,0 0,3.76911 33.92198,0 c 12.52851,0 22.61465,-10.08614 22.61465,-22.61465 l 0,-3.76911 z m -135.687905,3.76911 c 0,12.52851 10.086135,22.61465 22.614655,22.61465 l 33.92197,0 0,-3.76911 -33.92197,0 c -11.25027,0 -20.484619,-8.11425 -22.261301,-18.84554 l -0.353354,0 z m 11.307325,48.99841 0,3.76911 33.92198,0 0,-3.76911 -33.92198,0 z m 79.15128,0 0,3.76911 33.92197,0 0,-3.76911 -33.92197,0 z m -45.2293,7.53821 0,3.76911 45.2293,0 0,-3.76911 -45.2293,0 z"
       inkscape:connector-curvature="0"
       id="path4077"
       style="opacity:0.15;fill:#000000;fill-opacity:1;stroke:none;display:inline" />
  </g>
</svg>
