<?xml version="1.0" encoding="UTF-8" standalone="no"?>
<!-- Created with Inkscape (http://www.inkscape.org/) -->

<svg
   xmlns:dc="http://purl.org/dc/elements/1.1/"
   xmlns:cc="http://creativecommons.org/ns#"
   xmlns:rdf="http://www.w3.org/1999/02/22-rdf-syntax-ns#"
   xmlns:svg="http://www.w3.org/2000/svg"
   xmlns="http://www.w3.org/2000/svg"
   xmlns:xlink="http://www.w3.org/1999/xlink"
   xmlns:sodipodi="http://sodipodi.sourceforge.net/DTD/sodipodi-0.dtd"
   xmlns:inkscape="http://www.inkscape.org/namespaces/inkscape"
   version="1.0"
   width="256"
   height="256"
   id="svg2"
   inkscape:version="0.48.3.1 r9886"
   sodipodi:docname="application-exit.svg">
  <metadata
     id="metadata25">
    <rdf:RDF>
      <cc:Work
         rdf:about="">
        <dc:format>image/svg+xml</dc:format>
        <dc:type
           rdf:resource="http://purl.org/dc/dcmitype/StillImage" />
        <dc:title></dc:title>
      </cc:Work>
    </rdf:RDF>
  </metadata>
  <sodipodi:namedview
     pagecolor="#ffffff"
     bordercolor="#666666"
     borderopacity="1"
     objecttolerance="10"
     gridtolerance="10"
     guidetolerance="10"
     inkscape:pageopacity="0"
     inkscape:pageshadow="2"
     inkscape:window-width="1024"
     inkscape:window-height="572"
     id="namedview23"
     showgrid="false"
     inkscape:zoom="1.6367188"
     inkscape:cx="128"
     inkscape:cy="128"
     inkscape:window-x="0"
     inkscape:window-y="28"
     inkscape:window-maximized="1"
     inkscape:current-layer="svg2"
     inkscape:snap-bbox="true"
     inkscape:bbox-paths="true"
     inkscape:bbox-nodes="true"
     inkscape:snap-bbox-edge-midpoints="true"
     inkscape:snap-bbox-midpoints="true"
     inkscape:object-paths="true"
     inkscape:snap-intersection-paths="true"
     inkscape:object-nodes="true"
     inkscape:snap-smooth-nodes="true"
     inkscape:snap-midpoints="true"
     inkscape:snap-object-midpoints="true"
     inkscape:snap-center="true"
     fit-margin-top="0"
     fit-margin-left="0"
     fit-margin-right="0"
     fit-margin-bottom="0" />
  <defs
     id="defs4">
    <linearGradient
       id="linearGradient3637">
      <stop
         offset="0"
         style="stop-color:#5a5a5a;stop-opacity:1;"
         id="stop3639" />
      <stop
         offset="1"
         style="stop-color:#000000;stop-opacity:1;"
         id="stop3641" />
    </linearGradient>
    <linearGradient
       inkscape:collect="always"
       xlink:href="#linearGradient3637"
       id="linearGradient3977"
       gradientUnits="userSpaceOnUse"
       gradientTransform="matrix(0,-3.9103857,3.913042,0,-58.113419,314.16812)"
       x1="68.58252"
       y1="47.141441"
       x2="27.417484"
       y2="48.171715" />
  </defs>
  <g
     id="g3967"
     transform="translate(-1.7125994,-2.318898)">
    <path
       d="m 174.5903,40.318922 a 3.8669693,3.8643443 0 0 0 0,0.122199 c -0.001,1.25e-4 -0.73253,-2.31e-4 -0.7337,0 -10e-4,2.31e-4 -0.61027,0.244047 -0.61141,0.244399 -0.001,3.37e-4 -0.73259,0.243969 -0.73369,0.244399 -0.001,4.34e-4 -0.61035,0.243852 -0.61142,0.2444 -0.001,5.31e-4 -0.6104,0.365973 -0.61141,0.366598 -0.001,6.26e-4 -0.61046,0.365895 -0.61141,0.366599 -9.6e-4,7.12e-4 -0.48825,0.365816 -0.48913,0.366598 -7.8e-4,6.97e-4 -0.27176,0.395423 -0.36685,0.488799 -0.0137,0.01329 -0.12217,-1.1e-4 -0.12228,0 L 129.7126,82.844366 89.603918,42.762913 c -5.43e-4,-5.44e-4 -0.243978,-0.366091 -0.244565,-0.366599 -5.75e-4,-5.08e-4 -0.36626,-0.24393 -0.366847,-0.244399 -6.03e-4,-4.77e-4 -0.366222,-0.243969 -0.366848,-0.244399 -6.3e-4,-4.42e-4 -0.366182,-0.244008 -0.366848,-0.244399 -6.53e-4,-4.03e-4 -0.366182,-0.244047 -0.366847,-0.244399 -6.77e-4,-3.64e-4 -0.488434,-0.244087 -0.489131,-0.244399 -6.96e-4,-3.25e-4 -0.366143,-0.121926 -0.366847,-0.1222 -7.16e-4,-2.85e-4 -0.366105,-0.244165 -0.366848,-0.244399 -7.28e-4,-2.43e-4 -0.488387,-0.122004 -0.48913,-0.1222 -7.44e-4,-1.99e-4 -0.488379,-0.122043 -0.48913,-0.122199 -7.52e-4,-1.57e-4 -0.366105,1.13e-4 -0.366848,0 -7.59e-4,-1.14e-4 -0.488363,-0.122122 -0.48913,-0.1222 -7.67e-4,-7e-5 -0.366066,2.8e-5 -0.366848,0 -7.67e-4,-2.7e-5 -0.488363,-1.9e-5 -0.48913,0 -7.67e-4,2e-5 -0.488364,-6.2e-5 -0.489131,0 -5.36e-4,4.3e-5 -0.113673,0.107614 -0.244565,0.1222 -0.05611,0.0063 -0.122048,-3.2e-5 -0.122282,0 -0.149283,0.02229 -0.610497,-1.76e-4 -0.611413,0 -0.0011,2.11e-4 -0.610337,0.244086 -0.611413,0.244399 -0.0011,3.01e-4 -0.610368,0.121808 -0.611413,0.122199 -10e-4,3.91e-4 -0.610403,0.24393 -0.611413,0.2444 -10e-4,4.77e-4 -0.610446,0.366051 -0.611412,0.366598 -9.67e-4,5.59e-4 -0.488215,0.365973 -0.489131,0.366599 -9.15e-4,6.41e-4 -0.488273,0.365895 -0.48913,0.366598 -8.57e-4,7.16e-4 -0.488336,0.365817 -0.48913,0.366599 a 3.8669693,3.8643443 0 0 0 0,0.1222 l -36.562486,36.415467 0,0.122199 c -0.07486,0.07582 -0.244213,0.244008 -0.244565,0.244399 -4.58e-4,4.89e-4 -0.244135,0.243891 -0.244566,0.244399 -4.34e-4,5.09e-4 -0.244173,0.243852 -0.244565,0.244399 -4.07e-4,5.32e-4 -0.244174,0.366052 -0.244565,0.366599 -3.79e-4,5.51e-4 -0.244213,0.366012 -0.244565,0.366599 -3.52e-4,5.71e-4 -0.244252,0.243812 -0.244565,0.244399 -3.21e-4,5.86e-4 -0.122009,0.366012 -0.122283,0.366598 -2.93e-4,6.03e-4 -0.122008,0.365973 -0.122282,0.366599 -2.62e-4,6.14e-4 -0.244331,0.365973 -0.244565,0.366599 -2.31e-4,6.29e-4 -0.122087,0.365973 -0.122283,0.366598 -1.99e-4,6.38e-4 1.68e-4,0.365934 0,0.366599 -1.68e-4,6.49e-4 -0.122165,0.365934 -0.122282,0.366599 -1.33e-4,6.57e-4 -0.122166,0.365934 -0.122283,0.366598 -1.02e-4,6.61e-4 6.7e-5,0.488134 0,0.488799 -6.7e-5,6.64e-4 3.5e-5,0.365934 0,0.366598 -3.5e-5,6.69e-4 0,0.365934 0,0.366599 0,6.69e-4 -3.5e-5,0.365934 0,0.366599 3.5e-5,6.68e-4 -6.7e-5,0.365934 0,0.366598 6.7e-5,6.65e-4 -1.02e-4,0.488138 0,0.488799 1.02e-4,6.6e-4 0.122165,0.365933 0.122283,0.366598 1.33e-4,6.57e-4 0.122126,0.365934 0.122282,0.366599 1.68e-4,6.49e-4 -1.99e-4,0.365973 0,0.366598 2e-4,6.38e-4 0.122048,0.365973 0.122283,0.366599 2.31e-4,6.3e-4 0.244291,0.365973 0.244565,0.366599 2.62e-4,6.14e-4 0.122008,0.366012 0.122282,0.366598 2.94e-4,6.03e-4 0.12197,0.366013 0.122283,0.366599 3.21e-4,5.87e-4 0.244213,0.243813 0.244565,0.244399 3.52e-4,5.71e-4 0.244174,0.366051 0.244565,0.366599 3.8e-4,5.51e-4 0.244174,0.366051 0.244565,0.366599 4.07e-4,5.31e-4 0.244135,0.24389 0.244565,0.244399 4.35e-4,5.08e-4 0.244096,0.24393 0.244566,0.244399 3.52e-4,3.75e-4 0.169708,0.168576 0.244565,0.244399 0.0223,0.02268 -1.1e-4,0.122082 0,0.122199 l 40.10868,39.959252 -40.10868,39.95926 0,0.1222 c -0.07486,0.0758 -0.244213,0.244 -0.244565,0.24439 -4.58e-4,4.9e-4 -0.244135,0.2439 -0.244566,0.2444 -4.34e-4,5.1e-4 -0.244173,0.24386 -0.244565,0.2444 -4.07e-4,5.3e-4 -0.244174,0.36605 -0.244565,0.3666 -3.79e-4,5.5e-4 -0.244213,0.36601 -0.244565,0.3666 -3.52e-4,5.7e-4 -0.244252,0.24381 -0.244565,0.2444 -3.21e-4,5.9e-4 -0.122009,0.36601 -0.122283,0.3666 -2.93e-4,6e-4 -0.122008,0.36597 -0.122282,0.3666 -2.62e-4,6.1e-4 -0.244331,0.36597 -0.244565,0.3666 -2.31e-4,6.3e-4 -0.122087,0.36597 -0.122283,0.36659 -1.99e-4,6.4e-4 1.68e-4,0.36594 0,0.3666 -1.68e-4,6.5e-4 -0.122165,0.36594 -0.122282,0.3666 -1.33e-4,6.6e-4 -0.122166,0.36594 -0.122283,0.3666 -1.02e-4,6.6e-4 6.7e-5,0.48813 0,0.4888 -6.7e-5,6.6e-4 3.5e-5,0.36593 0,0.3666 -3.5e-5,6.7e-4 0,0.36593 0,0.3666 0,6.6e-4 -3.5e-5,0.36593 0,0.36659 3.5e-5,6.7e-4 -6.7e-5,0.36594 0,0.3666 6.7e-5,6.7e-4 -1.02e-4,0.48814 0,0.4888 1.02e-4,6.6e-4 0.122165,0.36594 0.122283,0.3666 1.33e-4,6.6e-4 0.122126,0.36593 0.122282,0.3666 1.68e-4,6.5e-4 -1.99e-4,0.36597 0,0.3666 2e-4,6.3e-4 0.122048,0.36597 0.122283,0.3666 2.31e-4,6.3e-4 0.244291,0.36597 0.244565,0.36659 2.62e-4,6.2e-4 0.122008,0.36602 0.122282,0.3666 2.94e-4,6.1e-4 0.12197,0.36602 0.122283,0.3666 3.21e-4,5.9e-4 0.244213,0.24381 0.244565,0.2444 3.52e-4,5.7e-4 0.244174,0.36605 0.244565,0.3666 3.8e-4,5.5e-4 0.244174,0.36605 0.244565,0.3666 4.07e-4,5.3e-4 0.244135,0.24389 0.244565,0.2444 4.35e-4,5.1e-4 0.244096,0.24393 0.244566,0.2444 3.52e-4,3.7e-4 0.169708,0.16857 0.244565,0.2444 0.0223,0.0227 -1.1e-4,0.12208 0,0.1222 l 36.562486,36.41546 c 0.07587,0.0748 0.244174,0.24405 0.244565,0.2444 4.89e-4,4.6e-4 0.244056,0.24397 0.244565,0.2444 5.09e-4,4.3e-4 0.244017,0.24401 0.244565,0.2444 5.32e-4,4.1e-4 0.3663,0.24401 0.366848,0.2444 5.52e-4,3.8e-4 0.366261,0.24405 0.366848,0.2444 5.71e-4,3.5e-4 0.243978,0.24408 0.244565,0.2444 5.87e-4,3.2e-4 0.36626,0.12192 0.366847,0.1222 6.03e-4,2.9e-4 0.366222,0.12192 0.366848,0.1222 6.14e-4,2.6e-4 0.366222,0.24416 0.366848,0.24439 6.3e-4,2.4e-4 0.366221,0.12201 0.366847,0.1222 6.38e-4,2e-4 0.366183,-1.6e-4 0.366848,0 6.5e-4,1.7e-4 0.366183,0.12209 0.366848,0.1222 6.57e-4,1.4e-4 0.366182,0.12209 0.366848,0.1222 6.61e-4,1.1e-4 0.488465,-6e-5 0.48913,0 6.65e-4,7e-5 0.366182,-3e-5 0.366847,0 6.7e-4,4e-5 0.366183,0 0.366848,0 6.69e-4,0 0.366183,4e-5 0.366848,0 6.69e-4,-3e-5 0.366182,7e-5 0.366848,0 6.65e-4,-6e-5 0.488469,1.1e-4 0.48913,0 6.61e-4,-1e-4 0.366182,-0.12208 0.366848,-0.1222 6.57e-4,-1.3e-4 0.366182,-0.12204 0.366847,-0.1222 6.5e-4,-1.6e-4 0.366222,2e-4 0.366848,0 6.38e-4,-2e-4 0.366221,-0.12196 0.366848,-0.1222 6.3e-4,-2.3e-4 0.366221,-0.24412 0.366847,-0.24439 6.15e-4,-2.7e-4 0.366261,-0.12193 0.366848,-0.1222 6.03e-4,-3e-4 0.366261,-0.12189 0.366848,-0.1222 5.87e-4,-3.2e-4 0.243978,-0.24405 0.244565,-0.2444 5.71e-4,-3.5e-4 0.3663,-0.24401 0.366847,-0.2444 5.52e-4,-3.8e-4 0.3663,-0.24401 0.366848,-0.2444 5.32e-4,-4.1e-4 0.244057,-0.24397 0.244565,-0.2444 5.09e-4,-4.3e-4 0.244096,-0.24393 0.244565,-0.2444 3.76e-4,-3.5e-4 0.168692,-0.16959 0.244565,-0.2444 l 0.122283,0 39.986399,-40.08145 40.10868,40.08145 c 0.0759,0.0748 0.24417,0.24405 0.24456,0.2444 4.9e-4,4.6e-4 0.24406,0.24397 0.24457,0.2444 5.1e-4,4.3e-4 0.24402,0.24401 0.24456,0.2444 5.4e-4,4.1e-4 0.3663,0.24401 0.36685,0.2444 5.5e-4,3.8e-4 0.36626,0.24405 0.36685,0.2444 5.7e-4,3.5e-4 0.24398,0.24408 0.24457,0.2444 5.8e-4,3.2e-4 0.36626,0.12192 0.36684,0.1222 6.1e-4,2.9e-4 0.36622,0.12192 0.36685,0.1222 6.2e-4,2.6e-4 0.36622,0.24416 0.36685,0.24439 6.3e-4,2.4e-4 0.36622,0.12201 0.36685,0.1222 6.3e-4,2e-4 0.36618,-1.6e-4 0.36684,0 6.5e-4,1.7e-4 0.36619,0.12209 0.36685,0.1222 6.6e-4,1.4e-4 0.36618,0.12209 0.36685,0.1222 6.6e-4,1.1e-4 0.48846,-6e-5 0.48913,0 6.6e-4,7e-5 0.36618,-3e-5 0.36685,0 6.7e-4,4e-5 0.36618,0 0.36684,0 6.7e-4,0 0.36619,4e-5 0.36685,0 6.7e-4,-3e-5 0.36618,7e-5 0.36685,0 6.7e-4,-6e-5 0.48847,1.1e-4 0.48913,0 6.6e-4,-1e-4 0.36618,-0.12208 0.36685,-0.1222 6.6e-4,-1.3e-4 0.36618,-0.12204 0.36685,-0.1222 6.5e-4,-1.6e-4 0.36622,2e-4 0.36684,0 6.4e-4,-2e-4 0.36623,-0.12196 0.36685,-0.1222 6.3e-4,-2.3e-4 0.36622,-0.24412 0.36685,-0.24439 6.1e-4,-2.7e-4 0.36626,-0.12193 0.36685,-0.1222 6e-4,-3e-4 0.36626,-0.12189 0.36684,-0.1222 5.9e-4,-3.2e-4 0.24398,-0.24405 0.24457,-0.2444 5.7e-4,-3.5e-4 0.3663,-0.24401 0.36685,-0.2444 5.5e-4,-3.8e-4 0.3663,-0.24401 0.36684,-0.2444 5.4e-4,-4.1e-4 0.24406,-0.24397 0.24457,-0.2444 5.1e-4,-4.3e-4 0.2441,-0.24393 0.24456,-0.2444 3.8e-4,-3.5e-4 0.1687,-0.16959 0.24457,-0.2444 l 0.12228,0 36.44021,-36.41546 0,-0.1222 c 0.0748,-0.0758 0.24421,-0.24401 0.24456,-0.2444 4.6e-4,-4.9e-4 0.24414,-0.24389 0.24457,-0.2444 4.3e-4,-5.1e-4 0.24417,-0.24385 0.24456,-0.2444 4.1e-4,-5.3e-4 0.24418,-0.36605 0.24457,-0.3666 3.8e-4,-5.5e-4 0.24421,-0.36601 0.24456,-0.3666 3.5e-4,-5.7e-4 0.24425,-0.24381 0.24457,-0.2444 3.2e-4,-5.8e-4 0.12201,-0.36601 0.12228,-0.3666 2.9e-4,-6e-4 0.12201,-0.36597 0.12228,-0.3666 2.6e-4,-6.1e-4 0.24433,-0.36597 0.24457,-0.36659 2.3e-4,-6.3e-4 0.12208,-0.36598 0.12228,-0.3666 2e-4,-6.4e-4 -1.7e-4,-0.36594 0,-0.3666 1.7e-4,-6.5e-4 0.12217,-0.36594 0.12228,-0.3666 1.4e-4,-6.6e-4 0.12217,-0.36593 0.12228,-0.3666 1.1e-4,-6.6e-4 -6e-5,-0.48813 0,-0.4888 7e-5,-6.6e-4 -3e-5,-0.36593 0,-0.3666 4e-5,-6.6e-4 0,-0.36593 0,-0.36659 0,-6.7e-4 4e-5,-0.36594 0,-0.3666 -3e-5,-6.7e-4 7e-5,-0.36594 0,-0.3666 -6e-5,-6.7e-4 1.1e-4,-0.48814 0,-0.4888 -1e-4,-6.6e-4 -0.12216,-0.36593 -0.12228,-0.3666 -1.3e-4,-6.6e-4 -0.12212,-0.36593 -0.12228,-0.3666 -1.7e-4,-6.5e-4 2e-4,-0.36597 0,-0.3666 -2e-4,-6.3e-4 -0.12205,-0.36597 -0.12228,-0.36659 -2.3e-4,-6.3e-4 -0.24429,-0.36598 -0.24457,-0.3666 -2.6e-4,-6.2e-4 -0.12201,-0.36602 -0.12228,-0.3666 -2.9e-4,-6e-4 -0.12197,-0.36601 -0.12228,-0.3666 -3.2e-4,-5.9e-4 -0.24422,-0.24381 -0.24457,-0.2444 -3.5e-4,-5.7e-4 -0.24417,-0.36605 -0.24456,-0.3666 -3.8e-4,-5.5e-4 -0.24418,-0.36605 -0.24457,-0.3666 -4.1e-4,-5.3e-4 -0.24413,-0.24389 -0.24456,-0.2444 -4.4e-4,-5e-4 -0.2441,-0.24393 -0.24457,-0.2444 -3.5e-4,-3.7e-4 -0.16971,-0.16857 -0.24456,-0.24439 L 177.28052,130.37999 217.3892,90.298539 c 0.0748,-0.07582 0.24421,-0.244008 0.24456,-0.244399 4.6e-4,-4.89e-4 0.24414,-0.243891 0.24457,-0.244399 4.3e-4,-5.09e-4 0.24417,-0.243852 0.24456,-0.244399 4.1e-4,-5.32e-4 0.24418,-0.366052 0.24457,-0.366599 3.8e-4,-5.51e-4 0.24421,-0.366012 0.24456,-0.366599 3.5e-4,-5.71e-4 0.24425,-0.243812 0.24457,-0.244399 3.2e-4,-5.86e-4 0.12201,-0.366012 0.12228,-0.366599 2.9e-4,-6.02e-4 0.12201,-0.365973 0.12228,-0.366598 2.6e-4,-6.14e-4 0.24433,-0.365973 0.24457,-0.366599 2.3e-4,-6.29e-4 0.12208,-0.365973 0.12228,-0.366599 2e-4,-6.37e-4 -1.7e-4,-0.365933 0,-0.366598 1.7e-4,-6.49e-4 0.12217,-0.365934 0.12228,-0.366599 1.4e-4,-6.57e-4 0.12217,-0.365934 0.12228,-0.366598 1.1e-4,-6.61e-4 -6e-5,-0.488134 0,-0.488799 7e-5,-6.64e-4 -3e-5,-0.365934 0,-0.366598 4e-5,-6.69e-4 0,-0.365934 0,-0.366599 0,-6.69e-4 4e-5,-0.365934 0,-0.366599 -3e-5,-6.68e-4 7e-5,-0.365934 0,-0.366598 -6e-5,-6.65e-4 1.1e-4,-0.488138 0,-0.488799 -1e-4,-6.6e-4 -0.12216,-0.365933 -0.12228,-0.366598 -1.3e-4,-6.57e-4 -0.12212,-0.365934 -0.12228,-0.366599 -1.7e-4,-6.49e-4 2e-4,-0.365973 0,-0.366599 -2e-4,-6.37e-4 -0.12205,-0.365973 -0.12228,-0.366598 -2.3e-4,-6.3e-4 -0.24429,-0.365973 -0.24457,-0.366599 -2.6e-4,-6.14e-4 -0.12201,-0.366012 -0.12228,-0.366599 -2.9e-4,-6.02e-4 -0.12197,-0.366012 -0.12228,-0.366598 -3.2e-4,-5.87e-4 -0.24422,-0.243813 -0.24457,-0.244399 -3.5e-4,-5.71e-4 -0.24417,-0.366051 -0.24456,-0.366599 -3.8e-4,-5.51e-4 -0.24418,-0.366051 -0.24457,-0.366599 -4.1e-4,-5.31e-4 -0.24413,-0.24389 -0.24456,-0.244399 -4.4e-4,-5.08e-4 -0.2441,-0.24393 -0.24457,-0.244399 -3.5e-4,-3.75e-4 -0.16971,-0.168577 -0.24456,-0.244399 L 180.94899,42.762913 c -1.3e-4,-1.37e-4 -0.0934,0.02933 -0.12228,0 -0.0867,-0.08748 -0.12189,-0.244008 -0.12228,-0.244399 -5.5e-4,-5.2e-4 -0.36626,-0.366091 -0.36685,-0.366599 -5.7e-4,-4.89e-4 -0.36626,-0.24393 -0.36685,-0.244399 -6e-4,-4.54e-4 -0.36622,-0.243969 -0.36685,-0.244399 -6.2e-4,-4.19e-4 -0.36618,-0.244008 -0.36684,-0.244399 -6.5e-4,-3.84e-4 -0.36619,-0.244048 -0.36685,-0.244399 -6.7e-4,-3.49e-4 -0.36618,-0.121887 -0.36685,-0.1222 -6.8e-4,-3.09e-4 -0.48843,-0.121926 -0.48913,-0.1222 -7e-4,-2.69e-4 -0.36614,-0.244164 -0.36685,-0.244399 -7.1e-4,-2.3e-4 -0.3661,-0.122004 -0.36684,-0.122199 -7.3e-4,-1.88e-4 -0.4884,1.48e-4 -0.48913,0 -7.4e-4,-1.49e-4 -0.36611,-0.122082 -0.36685,-0.1222 -7.5e-4,-1.05e-4 -0.48838,-0.122121 -0.48913,-0.122199 -7.5e-4,-6.3e-5 -0.36611,2.3e-5 -0.36685,0 -7.5e-4,-2.4e-5 -0.48838,-2e-5 -0.48913,0 -7.5e-4,1.9e-5 -0.48838,-6.3e-5 -0.48913,0 z"
       id="path3734"
       style="opacity:0.1;fill:#000000;fill-opacity:1;stroke:none;display:inline"
       inkscape:connector-curvature="0" />
    <path
       d="m 83.612073,44.351507 a 3.9065638,3.9039119 0 0 0 -2.323369,1.099796 L 44.726218,81.988969 a 3.9065638,3.9039119 0 0 0 0,5.62118 l 42.798897,42.769841 -42.798897,42.76985 a 3.9065638,3.9039119 0 0 0 0,5.62118 l 36.562486,36.53766 a 3.9065638,3.9039119 0 0 0 5.624998,0 l 42.798898,-42.76984 42.7989,42.76984 a 3.9065638,3.9039119 0 0 0 5.62499,0 l 36.56249,-36.53766 a 3.9065638,3.9039119 0 0 0 0,-5.62118 l -42.7989,-42.76985 42.7989,-42.769841 a 3.9065638,3.9039119 0 0 0 0,-5.62118 L 178.13649,45.451303 a 3.9065638,3.9039119 0 0 0 -5.62499,0 L 129.7126,88.221146 86.913702,45.451303 a 3.9065638,3.9039119 0 0 0 -3.301629,-1.099796 z"
       id="path3730"
       style="opacity:0.15;fill:#000000;fill-opacity:1;stroke:none;display:inline"
       inkscape:connector-curvature="0" />
    <path
       d="m 47.538713,176.00116 36.521728,36.49693 45.652159,-45.62117 45.65216,45.62117 36.52172,-36.49693 L 166.23432,130.37999 211.88648,84.758824 175.36476,48.261893 129.7126,93.88306 84.060441,48.261893 47.538713,84.758824 93.190875,130.37999 47.538713,176.00116 z"
       inkscape:connector-curvature="0"
       id="path3724"
       style="opacity:0.3;fill:#000000;fill-opacity:1;stroke:none;display:inline" />
    <path
       d="m 47.538713,172.09077 36.521728,36.49694 45.652159,-45.62117 45.65216,45.62117 36.52172,-36.49694 L 166.23432,126.46961 211.88648,80.848439 175.36476,44.351507 129.7126,89.972675 84.060441,44.351507 47.538713,80.848439 93.190875,126.46961 47.538713,172.09077 z"
       inkscape:connector-curvature="0"
       id="path2929"
       style="fill:url(#linearGradient3977);fill-opacity:1;stroke:none;display:inline" />
    <path
       d="m 84.101203,44.351507 -36.56249,36.537666 1.956521,1.955193 34.605969,-34.582473 45.611397,45.580433 45.61139,-45.580433 34.60597,34.582473 1.95652,-1.955193 L 175.32399,44.351507 129.7126,89.93194 84.101203,44.351507 z m 7.092389,84.073293 -43.654879,43.62524 1.956521,1.95519 43.654879,-43.62524 -1.956521,-1.95519 z m 77.038018,0 -1.95652,1.95519 43.65487,43.62524 1.95652,-1.95519 -43.65487,-43.62524 z"
       inkscape:connector-curvature="0"
       id="path3704"
       style="opacity:0.75;fill:#ffffff;fill-opacity:1;stroke:none;display:inline" />
    <path
       d="m 47.495234,80.93398 -1.956521,1.955193 43.654879,43.625237 1.956521,-1.95519 -43.654879,-43.62524 z m 160.434726,0 -43.65487,43.62524 1.95652,1.95519 43.65487,-43.625237 -1.95652,-1.955193 z m -80.21736,80.16291 -45.611397,45.58043 -34.605969,-34.58247 -1.956521,1.95519 36.56249,36.53767 45.611397,-45.58044 45.61139,45.58044 36.56249,-36.53767 -1.95652,-1.95519 -34.60597,34.58247 -45.61139,-45.58043 z"
       inkscape:connector-curvature="0"
       id="path3714"
       style="opacity:0.15;fill:#000000;fill-opacity:1;stroke:none;display:inline" />
  </g>
</svg>
