<?xml version="1.0" encoding="UTF-8" standalone="no"?>
<!-- Created with Inkscape (http://www.inkscape.org/) -->

<svg
   xmlns:dc="http://purl.org/dc/elements/1.1/"
   xmlns:cc="http://creativecommons.org/ns#"
   xmlns:rdf="http://www.w3.org/1999/02/22-rdf-syntax-ns#"
   xmlns:svg="http://www.w3.org/2000/svg"
   xmlns="http://www.w3.org/2000/svg"
   xmlns:xlink="http://www.w3.org/1999/xlink"
   xmlns:sodipodi="http://sodipodi.sourceforge.net/DTD/sodipodi-0.dtd"
   xmlns:inkscape="http://www.inkscape.org/namespaces/inkscape"
   width="256"
   height="256"
   id="svg6225"
   version="1.1"
   inkscape:version="0.48.3.1 r9886"
   sodipodi:docname="appointment.svg">
  <defs
     id="defs6227">
    <linearGradient
       id="linearGradient4081">
      <stop
         id="stop4083"
         style="stop-color:#000000;stop-opacity:1;"
         offset="0" />
      <stop
         id="stop4085"
         style="stop-color:#5a5a5a;stop-opacity:1;"
         offset="1" />
    </linearGradient>
    <linearGradient
       inkscape:collect="always"
       xlink:href="#linearGradient4081"
       id="linearGradient3009"
       gradientUnits="userSpaceOnUse"
       gradientTransform="matrix(0,-2.5239042,2.5239042,0,6.8440826,1045.5188)"
       x1="8"
       y1="48"
       x2="88"
       y2="48" />
  </defs>
  <sodipodi:namedview
     id="base"
     pagecolor="#ffffff"
     bordercolor="#666666"
     borderopacity="1.0"
     inkscape:pageopacity="0.0"
     inkscape:pageshadow="2"
     inkscape:zoom="1.4960938"
     inkscape:cx="128"
     inkscape:cy="128"
     inkscape:document-units="px"
     inkscape:current-layer="layer1"
     showgrid="false"
     inkscape:window-width="1024"
     inkscape:window-height="553"
     inkscape:window-x="-4"
     inkscape:window-y="24"
     inkscape:window-maximized="1" />
  <metadata
     id="metadata6230">
    <rdf:RDF>
      <cc:Work
         rdf:about="">
        <dc:format>image/svg+xml</dc:format>
        <dc:type
           rdf:resource="http://purl.org/dc/dcmitype/StillImage" />
        <dc:title></dc:title>
      </cc:Work>
    </rdf:RDF>
  </metadata>
  <g
     inkscape:label="Layer 1"
     inkscape:groupmode="layer"
     id="layer1"
     transform="translate(0,-796.36218)">
    <g
       id="g3805">
      <path
         style="fill:none;fill-opacity:1;stroke:#000000;stroke-opacity:1;stroke-width:18;stroke-miterlimit:4;stroke-dasharray:none;stroke-linejoin:round;opacity:0.05"
         d="M 127.97216,818.36216 C 69.427789,818.36216 22,865.84562 22,924.39 22,982.93438 69.427789,1030.3622 127.97216,1030.3622 186.51654,1030.3622 234,982.93438 234,924.39 234,865.84562 186.51654,818.36216 127.97216,818.36216 z m 0,25.24737 c 44.60523,0 80.78047,36.17522 80.78047,80.78047 0,44.60523 -36.17524,80.7526 -80.78047,80.7526 -44.605233,0 -80.752622,-36.14737 -80.752622,-80.7526 0,-1.39392 0.01338,-2.82669 0.08351,-4.20326 2.163138,-42.67377 37.457793,-76.57721 80.669112,-76.57721 z m 0,10.10452 c -5.59297,0 -10.07668,4.51155 -10.07668,10.10452 l 0,27.75262 0,17.64811 0,4.03624 c -3.13022,2.75943 -5.12185,6.71925 -5.12185,11.19013 0,8.3173 6.81842,15.05935 15.19853,15.05935 4.49199,0 8.53124,-1.95837 11.30147,-5.03834 l 3.86923,0 17.64811,0 17.67594,0 c 5.59297,0 10.07668,-4.48371 10.07668,-10.07668 0,-5.59298 -4.48371,-10.10452 -10.07668,-10.10452 l -17.67594,0 -17.64811,0 -4.03624,0 c -0.32821,-0.35434 -0.66918,-0.70827 -1.02994,-1.02994 l 0,-4.03624 0,-17.64811 0,-27.75262 c 0,-5.59297 -4.51154,-10.10452 -10.10452,-10.10452 z m 0,65.60977 c 2.78783,0 5.06618,2.27836 5.06618,5.06618 0,2.78781 -2.27835,5.0105 -5.06618,5.0105 -2.78781,0 -5.0105,-2.22269 -5.0105,-5.0105 0,-2.78782 2.22269,-5.06618 5.0105,-5.06618 z"
         id="path3803"
         inkscape:connector-curvature="0" />
      <path
         inkscape:connector-curvature="0"
         id="path3801"
         d="M 127.97216,818.36216 C 69.427789,818.36216 22,865.84562 22,924.39 22,982.93438 69.427789,1030.3622 127.97216,1030.3622 186.51654,1030.3622 234,982.93438 234,924.39 234,865.84562 186.51654,818.36216 127.97216,818.36216 z m 0,25.24737 c 44.60523,0 80.78047,36.17522 80.78047,80.78047 0,44.60523 -36.17524,80.7526 -80.78047,80.7526 -44.605233,0 -80.752622,-36.14737 -80.752622,-80.7526 0,-1.39392 0.01338,-2.82669 0.08351,-4.20326 2.163138,-42.67377 37.457793,-76.57721 80.669112,-76.57721 z m 0,10.10452 c -5.59297,0 -10.07668,4.51155 -10.07668,10.10452 l 0,27.75262 0,17.64811 0,4.03624 c -3.13022,2.75943 -5.12185,6.71925 -5.12185,11.19013 0,8.3173 6.81842,15.05935 15.19853,15.05935 4.49199,0 8.53124,-1.95837 11.30147,-5.03834 l 3.86923,0 17.64811,0 17.67594,0 c 5.59297,0 10.07668,-4.48371 10.07668,-10.07668 0,-5.59298 -4.48371,-10.10452 -10.07668,-10.10452 l -17.67594,0 -17.64811,0 -4.03624,0 c -0.32821,-0.35434 -0.66918,-0.70827 -1.02994,-1.02994 l 0,-4.03624 0,-17.64811 0,-27.75262 c 0,-5.59297 -4.51154,-10.10452 -10.10452,-10.10452 z m 0,65.60977 c 2.78783,0 5.06618,2.27836 5.06618,5.06618 0,2.78781 -2.27835,5.0105 -5.06618,5.0105 -2.78781,0 -5.0105,-2.22269 -5.0105,-5.0105 0,-2.78782 2.22269,-5.06618 5.0105,-5.06618 z"
         style="fill:none;fill-opacity:1;stroke:#000000;stroke-opacity:1;stroke-width:12;stroke-miterlimit:4;stroke-dasharray:none;stroke-linejoin:round;opacity:0.1" />
      <path
         style="fill:none;fill-opacity:1;stroke:#000000;stroke-opacity:1;stroke-width:6;stroke-miterlimit:4;stroke-dasharray:none;stroke-linejoin:round;opacity:0.15"
         d="M 127.97216,818.36216 C 69.427789,818.36216 22,865.84562 22,924.39 22,982.93438 69.427789,1030.3622 127.97216,1030.3622 186.51654,1030.3622 234,982.93438 234,924.39 234,865.84562 186.51654,818.36216 127.97216,818.36216 z m 0,25.24737 c 44.60523,0 80.78047,36.17522 80.78047,80.78047 0,44.60523 -36.17524,80.7526 -80.78047,80.7526 -44.605233,0 -80.752622,-36.14737 -80.752622,-80.7526 0,-1.39392 0.01338,-2.82669 0.08351,-4.20326 2.163138,-42.67377 37.457793,-76.57721 80.669112,-76.57721 z m 0,10.10452 c -5.59297,0 -10.07668,4.51155 -10.07668,10.10452 l 0,27.75262 0,17.64811 0,4.03624 c -3.13022,2.75943 -5.12185,6.71925 -5.12185,11.19013 0,8.3173 6.81842,15.05935 15.19853,15.05935 4.49199,0 8.53124,-1.95837 11.30147,-5.03834 l 3.86923,0 17.64811,0 17.67594,0 c 5.59297,0 10.07668,-4.48371 10.07668,-10.07668 0,-5.59298 -4.48371,-10.10452 -10.07668,-10.10452 l -17.67594,0 -17.64811,0 -4.03624,0 c -0.32821,-0.35434 -0.66918,-0.70827 -1.02994,-1.02994 l 0,-4.03624 0,-17.64811 0,-27.75262 c 0,-5.59297 -4.51154,-10.10452 -10.10452,-10.10452 z m 0,65.60977 c 2.78783,0 5.06618,2.27836 5.06618,5.06618 0,2.78781 -2.27835,5.0105 -5.06618,5.0105 -2.78781,0 -5.0105,-2.22269 -5.0105,-5.0105 0,-2.78782 2.22269,-5.06618 5.0105,-5.06618 z"
         id="path3799"
         inkscape:connector-curvature="0" />
      <path
         inkscape:connector-curvature="0"
         id="path6285"
         d="M 127.97216,818.36216 C 69.427789,818.36216 22,865.84562 22,924.39 22,982.93438 69.427789,1030.3622 127.97216,1030.3622 186.51654,1030.3622 234,982.93438 234,924.39 234,865.84562 186.51654,818.36216 127.97216,818.36216 z m 0,25.24737 c 44.60523,0 80.78047,36.17522 80.78047,80.78047 0,44.60523 -36.17524,80.7526 -80.78047,80.7526 -44.605233,0 -80.752622,-36.14737 -80.752622,-80.7526 0,-1.39392 0.01338,-2.82669 0.08351,-4.20326 2.163138,-42.67377 37.457793,-76.57721 80.669112,-76.57721 z m 0,10.10452 c -5.59297,0 -10.07668,4.51155 -10.07668,10.10452 l 0,27.75262 0,17.64811 0,4.03624 c -3.13022,2.75943 -5.12185,6.71925 -5.12185,11.19013 0,8.3173 6.81842,15.05935 15.19853,15.05935 4.49199,0 8.53124,-1.95837 11.30147,-5.03834 l 3.86923,0 17.64811,0 17.67594,0 c 5.59297,0 10.07668,-4.48371 10.07668,-10.07668 0,-5.59298 -4.48371,-10.10452 -10.07668,-10.10452 l -17.67594,0 -17.64811,0 -4.03624,0 c -0.32821,-0.35434 -0.66918,-0.70827 -1.02994,-1.02994 l 0,-4.03624 0,-17.64811 0,-27.75262 c 0,-5.59297 -4.51154,-10.10452 -10.10452,-10.10452 z m 0,65.60977 c 2.78783,0 5.06618,2.27836 5.06618,5.06618 0,2.78781 -2.27835,5.0105 -5.06618,5.0105 -2.78781,0 -5.0105,-2.22269 -5.0105,-5.0105 0,-2.78782 2.22269,-5.06618 5.0105,-5.06618 z"
         style="fill:url(#linearGradient3009);fill-opacity:1;stroke:none" />
      <path
         id="path3011"
         transform="translate(0,796.36218)"
         d="M 127.96875 22 C 69.424379 22 22 69.48687 22 128.03125 C 22 128.36767 21.996875 128.69557 22 129.03125 C 22.534656 70.945596 69.756975 24 127.96875 24 C 186.18053 24 233.46472 70.945596 234 129.03125 C 234.00313 128.69557 234 128.36767 234 128.03125 C 234 69.48687 186.51313 22 127.96875 22 z M 127.96875 57.34375 C 122.37578 57.34375 117.90625 61.87578 117.90625 67.46875 L 117.90625 69.46875 C 117.90625 63.87578 122.37578 59.34375 127.96875 59.34375 C 133.56173 59.34375 138.0625 63.87578 138.0625 69.46875 L 138.0625 67.46875 C 138.0625 61.87578 133.56173 57.34375 127.96875 57.34375 z M 117.90625 116.90625 C 114.77603 119.66568 112.78125 123.62287 112.78125 128.09375 C 112.78125 128.48649 112.8139 128.86483 112.84375 129.25 C 113.07822 125.12772 114.97556 121.48979 117.90625 118.90625 L 117.90625 116.90625 z M 138.0625 116.90625 L 138.0625 118.90625 C 138.42326 119.22792 138.76554 119.58316 139.09375 119.9375 L 143.15625 119.9375 L 160.78125 119.9375 L 178.46875 119.9375 C 183.71216 119.9375 187.98692 123.89587 188.5 129 C 188.53023 128.67994 188.53125 128.35964 188.53125 128.03125 C 188.53125 122.43827 184.06172 117.9375 178.46875 117.9375 L 160.78125 117.9375 L 143.15625 117.9375 L 139.09375 117.9375 C 138.76554 117.58316 138.42326 117.22792 138.0625 116.90625 z M 47.21875 129.03125 C 47.216705 129.36222 47.21875 129.70334 47.21875 130.03125 C 47.21875 174.63648 83.363517 210.78125 127.96875 210.78125 C 172.57398 210.78125 208.75 174.63648 208.75 130.03125 C 208.75 129.69845 208.75402 129.3631 208.75 129.03125 C 208.21575 173.17688 172.24118 208.78125 127.96875 208.78125 C 83.696318 208.78125 47.752589 173.17688 47.21875 129.03125 z M 123.0625 129.03125 C 123.0002 129.3509 122.96875 129.69349 122.96875 130.03125 C 122.96875 132.81906 125.18094 135.03125 127.96875 135.03125 C 130.75658 135.03125 133.03125 132.81906 133.03125 130.03125 C 133.03125 129.69349 133.00124 129.3509 132.9375 129.03125 C 132.46329 131.3243 130.4081 133.03125 127.96875 133.03125 C 125.52942 133.03125 123.52605 131.3243 123.0625 129.03125 z "
         style="fill:#ffffff;fill-opacity:1;stroke:none;opacity:0.5" />
      <path
         id="path3788"
         transform="translate(0,796.36218)"
         d="M 127.96875 45.25 C 84.757431 45.25 49.475638 79.13873 47.3125 121.8125 C 47.24237 123.18907 47.21875 124.63733 47.21875 126.03125 C 47.21875 126.36405 47.214737 126.6994 47.21875 127.03125 C 47.2254 125.95528 47.258868 124.86524 47.3125 123.8125 C 49.475638 81.13873 84.757431 47.25 127.96875 47.25 C 172.24118 47.25 208.21575 82.885189 208.75 127.03125 C 208.75402 126.6994 208.75 126.36405 208.75 126.03125 C 208.75 81.426 172.57398 45.25 127.96875 45.25 z M 127.96875 120.96875 C 125.18094 120.96875 122.96875 123.24343 122.96875 126.03125 C 122.96875 126.369 123.0002 126.68178 123.0625 127 C 123.52605 124.69629 125.52942 122.96875 127.96875 122.96875 C 130.4081 122.96875 132.46329 124.69629 132.9375 127 C 133.00124 126.68178 133.03125 126.369 133.03125 126.03125 C 133.03125 123.24343 130.75658 120.96875 127.96875 120.96875 z M 22 127.03125 C 21.996945 127.36312 22 127.69865 22 128.03125 C 22 186.57563 69.424379 234 127.96875 234 C 186.51313 234 234 186.57563 234 128.03125 C 234 127.69865 234.00306 127.36312 234 127.03125 C 233.45862 185.11099 186.17671 232 127.96875 232 C 69.760796 232 22.540751 185.11099 22 127.03125 z M 188.5 127.0625 C 187.98692 132.16356 183.71216 136.09375 178.46875 136.09375 L 160.78125 136.09375 L 143.15625 136.09375 L 139.28125 136.09375 C 136.51102 139.17372 132.46074 141.15625 127.96875 141.15625 C 119.98434 141.15625 113.4461 135.02185 112.84375 127.25 C 112.82779 127.53065 112.78125 127.80877 112.78125 128.09375 C 112.78125 136.41105 119.58864 143.15625 127.96875 143.15625 C 132.46074 143.15625 136.51102 141.17372 139.28125 138.09375 L 143.15625 138.09375 L 160.78125 138.09375 L 178.46875 138.09375 C 184.06172 138.09375 188.53125 133.62422 188.53125 128.03125 C 188.53125 127.70285 188.53023 127.38274 188.5 127.0625 z "
         style="fill:#000000;fill-opacity:1;stroke:none;opacity:0.5" />
      <path
         inkscape:connector-curvature="0"
         style="opacity:0.2;fill:#000000;fill-opacity:1;stroke:none"
         d="m 127.96875,843.61218 c -43.211319,0 -78.493112,33.88873 -80.65625,76.5625 -0.07013,1.37657 -0.09375,2.82483 -0.09375,4.21875 0,0.3328 -0.004,0.66815 0,1 0.0067,-1.07597 0.04012,-2.16601 0.09375,-3.21875 2.163138,-42.67377 37.444931,-76.5625 80.65625,-76.5625 44.27243,0 80.247,35.63519 80.78125,79.78125 0.004,-0.33185 0,-0.6672 0,-1 0,-44.60525 -36.17602,-80.78125 -80.78125,-80.78125 z m 0,75.71875 c -2.78781,0 -5,2.27468 -5,5.0625 0,0.33775 0.0315,0.65053 0.0937,0.96875 0.46355,-2.30371 2.46692,-4.03125 4.90625,-4.03125 2.43935,0 4.49454,1.72754 4.96875,4.03125 0.0637,-0.31822 0.0937,-0.631 0.0937,-0.96875 0,-2.78782 -2.27467,-5.0625 -5.0625,-5.0625 z M 22,925.39343 c -0.0031,0.33187 0,0.6674 0,1 0,58.54438 47.424379,105.96877 105.96875,105.96877 58.54438,0 106.03125,-47.42439 106.03125,-105.96877 0,-0.3326 0.003,-0.66813 0,-1 -0.54138,58.07974 -47.82329,104.96877 -106.03125,104.96877 C 69.760796,1030.3622 22.540751,983.47317 22,925.39343 z m 166.5,0.0313 c -0.51308,5.10106 -4.78784,9.03125 -10.03125,9.03125 l -17.6875,0 -17.625,0 -3.875,0 c -2.77023,3.07997 -6.82051,5.0625 -11.3125,5.0625 -7.98441,0 -14.52265,-6.1344 -15.125,-13.90625 -0.016,0.28065 -0.0625,0.55877 -0.0625,0.84375 0,8.3173 6.80739,15.0625 15.1875,15.0625 4.49199,0 8.54227,-1.98253 11.3125,-5.0625 l 3.875,0 17.625,0 17.6875,0 c 5.59297,0 10.0625,-4.46953 10.0625,-10.0625 0,-0.3284 -0.001,-0.64851 -0.0313,-0.96875 z"
         id="path3797" />
    </g>
  </g>
</svg>
