<?xml version="1.0" encoding="UTF-8" standalone="no"?>
<!-- Created with Inkscape (http://www.inkscape.org/) -->

<svg
   xmlns:dc="http://purl.org/dc/elements/1.1/"
   xmlns:cc="http://creativecommons.org/ns#"
   xmlns:rdf="http://www.w3.org/1999/02/22-rdf-syntax-ns#"
   xmlns:svg="http://www.w3.org/2000/svg"
   xmlns="http://www.w3.org/2000/svg"
   xmlns:xlink="http://www.w3.org/1999/xlink"
   xmlns:sodipodi="http://sodipodi.sourceforge.net/DTD/sodipodi-0.dtd"
   xmlns:inkscape="http://www.inkscape.org/namespaces/inkscape"
   width="256"
   height="256"
   id="svg3931"
   version="1.1"
   inkscape:version="0.48.3.1 r9886"
   sodipodi:docname="appointment-new.svg">
  <defs
     id="defs3933">
    <linearGradient
       id="linearGradient4081">
      <stop
         id="stop4083"
         style="stop-color:#000000;stop-opacity:1;"
         offset="0" />
      <stop
         id="stop4085"
         style="stop-color:#5a5a5a;stop-opacity:0.94117647;"
         offset="1" />
    </linearGradient>
    <linearGradient
       inkscape:collect="always"
       xlink:href="#linearGradient4081"
       id="linearGradient3877"
       gradientUnits="userSpaceOnUse"
       gradientTransform="matrix(1.357582,0,0,1.5927741,273.28413,769.32819)"
       x1="-109.23383"
       y1="162.3284"
       x2="-107.39958"
       y2="31.044127" />
  </defs>
  <sodipodi:namedview
     id="base"
     pagecolor="#ffffff"
     bordercolor="#666666"
     borderopacity="1.0"
     inkscape:pageopacity="0.0"
     inkscape:pageshadow="2"
     inkscape:zoom="1.4960938"
     inkscape:cx="128"
     inkscape:cy="128"
     inkscape:document-units="px"
     inkscape:current-layer="layer1"
     showgrid="false"
     inkscape:window-width="1024"
     inkscape:window-height="553"
     inkscape:window-x="-4"
     inkscape:window-y="24"
     inkscape:window-maximized="1" />
  <metadata
     id="metadata3936">
    <rdf:RDF>
      <cc:Work
         rdf:about="">
        <dc:format>image/svg+xml</dc:format>
        <dc:type
           rdf:resource="http://purl.org/dc/dcmitype/StillImage" />
        <dc:title></dc:title>
      </cc:Work>
    </rdf:RDF>
  </metadata>
  <g
     inkscape:label="Layer 1"
     inkscape:groupmode="layer"
     id="layer1"
     transform="translate(0,-796.36218)">
    <g
       id="g3905">
      <path
         style="fill:none;fill-opacity:1;stroke:#000000;stroke-opacity:1;stroke-width:18;stroke-miterlimit:4;stroke-dasharray:none;stroke-linejoin:round;opacity:0.05"
         d="m 128,818.36213 c -58.54351,0 -106,47.44819 -106,106 0,58.55184 47.45649,106.00007 106,106.00007 58.54352,0 106,-47.44823 106,-106.00007 0,-12.2984 -2.08607,-24.11192 -5.9375,-35.09375 l -20.78125,0 0,19.71875 c 0.95999,4.97861 1.46875,10.11566 1.46875,15.375 0,44.61091 -36.14543,80.78127 -80.75,80.78127 -44.604582,0 -80.78125,-36.17036 -80.78125,-80.78127 0,-1.39409 0.0236,-2.7795 0.0937,-4.15625 2.1631,-42.67918 37.476798,-76.59375 80.6875,-76.59375 6.59436,0 12.98899,0.79073 19.125,2.28125 l 16.8125,0 0,-21.28125 c -11.2219,-4.04192 -23.32351,-6.25 -35.9375,-6.25 z m 45.5625,1.03125 0,36.125 -36.15625,0 0,24.09375 36.15625,0 0,36.15625 24.09375,0 0,-36.15625 36.125,0 0,-24.09375 -36.125,0 0,-36.125 -24.09375,0 z m -45.78125,34.3125 c -5.49589,0.11032 -9.90625,4.56977 -9.90625,10.09375 l 0,27.75 0,17.65625 0,4.03125 c -3.13017,2.75977 -5.09375,6.68481 -5.09375,11.15625 0,8.31837 6.83876,15.09375 15.21875,15.09375 4.49192,0 8.4798,-1.95089 11.25,-5.03125 l 3.90625,0 17.625,0 17.6875,0 c 5.24334,0 9.54722,-3.95856 10.0625,-9.0625 l -24.59375,0 0,-11.09375 -3.15625,0 -17.625,0 -4.03125,0 c -0.32822,-0.35439 -0.67051,-0.7408 -1.03125,-1.0625 l 0,-4.03125 0,-17.65625 0,-2.28125 -10.3125,0 0,-35.5625 z m -0.28125,65.625 c 0.16947,-0.0173 0.32576,0 0.5,0 2.78778,0 5.03125,2.24308 5.03125,5.03125 0,2.78816 -2.24347,5.03125 -5.03125,5.03125 -2.78778,0 -5.03125,-2.24309 -5.03125,-5.03125 0,-2.61391 1.98925,-4.77266 4.53125,-5.03125 z"
         id="path3903"
         inkscape:connector-curvature="0" />
      <path
         inkscape:connector-curvature="0"
         id="path3901"
         d="m 128,818.36213 c -58.54351,0 -106,47.44819 -106,106 0,58.55184 47.45649,106.00007 106,106.00007 58.54352,0 106,-47.44823 106,-106.00007 0,-12.2984 -2.08607,-24.11192 -5.9375,-35.09375 l -20.78125,0 0,19.71875 c 0.95999,4.97861 1.46875,10.11566 1.46875,15.375 0,44.61091 -36.14543,80.78127 -80.75,80.78127 -44.604582,0 -80.78125,-36.17036 -80.78125,-80.78127 0,-1.39409 0.0236,-2.7795 0.0937,-4.15625 2.1631,-42.67918 37.476798,-76.59375 80.6875,-76.59375 6.59436,0 12.98899,0.79073 19.125,2.28125 l 16.8125,0 0,-21.28125 c -11.2219,-4.04192 -23.32351,-6.25 -35.9375,-6.25 z m 45.5625,1.03125 0,36.125 -36.15625,0 0,24.09375 36.15625,0 0,36.15625 24.09375,0 0,-36.15625 36.125,0 0,-24.09375 -36.125,0 0,-36.125 -24.09375,0 z m -45.78125,34.3125 c -5.49589,0.11032 -9.90625,4.56977 -9.90625,10.09375 l 0,27.75 0,17.65625 0,4.03125 c -3.13017,2.75977 -5.09375,6.68481 -5.09375,11.15625 0,8.31837 6.83876,15.09375 15.21875,15.09375 4.49192,0 8.4798,-1.95089 11.25,-5.03125 l 3.90625,0 17.625,0 17.6875,0 c 5.24334,0 9.54722,-3.95856 10.0625,-9.0625 l -24.59375,0 0,-11.09375 -3.15625,0 -17.625,0 -4.03125,0 c -0.32822,-0.35439 -0.67051,-0.7408 -1.03125,-1.0625 l 0,-4.03125 0,-17.65625 0,-2.28125 -10.3125,0 0,-35.5625 z m -0.28125,65.625 c 0.16947,-0.0173 0.32576,0 0.5,0 2.78778,0 5.03125,2.24308 5.03125,5.03125 0,2.78816 -2.24347,5.03125 -5.03125,5.03125 -2.78778,0 -5.03125,-2.24309 -5.03125,-5.03125 0,-2.61391 1.98925,-4.77266 4.53125,-5.03125 z"
         style="fill:none;fill-opacity:1;stroke:#000000;stroke-opacity:1;stroke-width:12;stroke-miterlimit:4;stroke-dasharray:none;stroke-linejoin:round;opacity:0.1" />
      <path
         style="fill:none;fill-opacity:1;stroke:#000000;stroke-opacity:1;stroke-width:6;stroke-miterlimit:4;stroke-dasharray:none;stroke-linejoin:round;opacity:0.15"
         d="m 128,818.36213 c -58.54351,0 -106,47.44819 -106,106 0,58.55184 47.45649,106.00007 106,106.00007 58.54352,0 106,-47.44823 106,-106.00007 0,-12.2984 -2.08607,-24.11192 -5.9375,-35.09375 l -20.78125,0 0,19.71875 c 0.95999,4.97861 1.46875,10.11566 1.46875,15.375 0,44.61091 -36.14543,80.78127 -80.75,80.78127 -44.604582,0 -80.78125,-36.17036 -80.78125,-80.78127 0,-1.39409 0.0236,-2.7795 0.0937,-4.15625 2.1631,-42.67918 37.476798,-76.59375 80.6875,-76.59375 6.59436,0 12.98899,0.79073 19.125,2.28125 l 16.8125,0 0,-21.28125 c -11.2219,-4.04192 -23.32351,-6.25 -35.9375,-6.25 z m 45.5625,1.03125 0,36.125 -36.15625,0 0,24.09375 36.15625,0 0,36.15625 24.09375,0 0,-36.15625 36.125,0 0,-24.09375 -36.125,0 0,-36.125 -24.09375,0 z m -45.78125,34.3125 c -5.49589,0.11032 -9.90625,4.56977 -9.90625,10.09375 l 0,27.75 0,17.65625 0,4.03125 c -3.13017,2.75977 -5.09375,6.68481 -5.09375,11.15625 0,8.31837 6.83876,15.09375 15.21875,15.09375 4.49192,0 8.4798,-1.95089 11.25,-5.03125 l 3.90625,0 17.625,0 17.6875,0 c 5.24334,0 9.54722,-3.95856 10.0625,-9.0625 l -24.59375,0 0,-11.09375 -3.15625,0 -17.625,0 -4.03125,0 c -0.32822,-0.35439 -0.67051,-0.7408 -1.03125,-1.0625 l 0,-4.03125 0,-17.65625 0,-2.28125 -10.3125,0 0,-35.5625 z m -0.28125,65.625 c 0.16947,-0.0173 0.32576,0 0.5,0 2.78778,0 5.03125,2.24308 5.03125,5.03125 0,2.78816 -2.24347,5.03125 -5.03125,5.03125 -2.78778,0 -5.03125,-2.24309 -5.03125,-5.03125 0,-2.61391 1.98925,-4.77266 4.53125,-5.03125 z"
         id="path3899"
         inkscape:connector-curvature="0" />
      <path
         inkscape:connector-curvature="0"
         id="path3870"
         d="m 128,818.36213 c -58.54351,0 -106,47.44819 -106,106 0,58.55184 47.45649,106.00007 106,106.00007 58.54352,0 106,-47.44823 106,-106.00007 0,-12.2984 -2.08607,-24.11192 -5.9375,-35.09375 l -20.78125,0 0,19.71875 c 0.95999,4.97861 1.46875,10.11566 1.46875,15.375 0,44.61091 -36.14543,80.78127 -80.75,80.78127 -44.604582,0 -80.78125,-36.17036 -80.78125,-80.78127 0,-1.39409 0.0236,-2.7795 0.0937,-4.15625 2.1631,-42.67918 37.476798,-76.59375 80.6875,-76.59375 6.59436,0 12.98899,0.79073 19.125,2.28125 l 16.8125,0 0,-21.28125 c -11.2219,-4.04192 -23.32351,-6.25 -35.9375,-6.25 z m 45.5625,1.03125 0,36.125 -36.15625,0 0,24.09375 36.15625,0 0,36.15625 24.09375,0 0,-36.15625 36.125,0 0,-24.09375 -36.125,0 0,-36.125 -24.09375,0 z m -45.78125,34.3125 c -5.49589,0.11032 -9.90625,4.56977 -9.90625,10.09375 l 0,27.75 0,17.65625 0,4.03125 c -3.13017,2.75977 -5.09375,6.68481 -5.09375,11.15625 0,8.31837 6.83876,15.09375 15.21875,15.09375 4.49192,0 8.4798,-1.95089 11.25,-5.03125 l 3.90625,0 17.625,0 17.6875,0 c 5.24334,0 9.54722,-3.95856 10.0625,-9.0625 l -24.59375,0 0,-11.09375 -3.15625,0 -17.625,0 -4.03125,0 c -0.32822,-0.35439 -0.67051,-0.7408 -1.03125,-1.0625 l 0,-4.03125 0,-17.65625 0,-2.28125 -10.3125,0 0,-35.5625 z m -0.28125,65.625 c 0.16947,-0.0173 0.32576,0 0.5,0 2.78778,0 5.03125,2.24308 5.03125,5.03125 0,2.78816 -2.24347,5.03125 -5.03125,5.03125 -2.78778,0 -5.03125,-2.24309 -5.03125,-5.03125 0,-2.61391 1.98925,-4.77266 4.53125,-5.03125 z"
         style="fill:url(#linearGradient3877);fill-opacity:1;stroke:none" />
      <path
         id="path3879"
         transform="translate(0,796.36218)"
         d="M 128 22 C 69.45649 22 22 69.44819 22 128 C 22 128.33264 21.996943 128.66809 22 129 C 22.534978 70.907439 69.789081 24 128 24 C 140.61399 24 152.7156 26.20808 163.9375 30.25 L 163.9375 28.25 C 152.7156 24.20808 140.61399 22 128 22 z M 173.5625 23.03125 L 173.5625 25.03125 L 197.65625 25.03125 L 197.65625 23.03125 L 173.5625 23.03125 z M 127.78125 57.34375 C 122.28536 57.45407 117.875 61.91352 117.875 67.4375 L 117.875 69.4375 C 117.875 63.91352 122.28536 59.45407 127.78125 59.34375 L 127.78125 57.34375 z M 137.40625 59.15625 L 137.40625 61.15625 L 173.5625 61.15625 L 173.5625 59.15625 L 137.40625 59.15625 z M 197.65625 59.15625 L 197.65625 61.15625 L 233.78125 61.15625 L 233.78125 59.15625 L 197.65625 59.15625 z M 127.78125 92.90625 L 127.78125 94.90625 L 138.09375 94.90625 L 138.09375 92.90625 L 127.78125 92.90625 z M 207.28125 92.90625 L 207.28125 94.90625 L 228.0625 94.90625 C 231.83864 105.67339 233.92015 117.242 234 129.28125 C 234.00501 128.85625 234 128.42619 234 128 C 234 115.7016 231.91393 103.88808 228.0625 92.90625 L 207.28125 92.90625 z M 117.875 116.875 C 114.74483 119.63477 112.78125 123.55981 112.78125 128.03125 C 112.78125 128.36023 112.82268 128.67617 112.84375 129 C 113.12122 124.95856 114.98851 121.41993 117.875 118.875 L 117.875 116.875 z M 138.09375 116.875 L 138.09375 118.875 C 138.45449 119.1967 138.79678 119.58311 139.125 119.9375 L 143.15625 119.9375 L 160.78125 119.9375 L 163.9375 119.9375 L 163.9375 117.9375 L 160.78125 117.9375 L 143.15625 117.9375 L 139.125 117.9375 C 138.79678 117.58311 138.45449 117.1967 138.09375 116.875 z M 47.21875 129 C 47.215748 129.33185 47.21875 129.66716 47.21875 130 C 47.21875 174.61091 83.395418 210.78125 128 210.78125 C 172.60457 210.78125 208.75 174.61091 208.75 130 C 208.75 129.73693 208.72129 129.4812 208.71875 129.21875 C 208.0694 173.26941 172.19882 208.78125 128 208.78125 C 83.728214 208.78125 47.753019 173.15152 47.21875 129 z M 123.0625 129.03125 C 123.00314 129.34094 122.96875 129.67326 122.96875 130 C 122.96875 132.78816 125.21222 135.03125 128 135.03125 C 130.78778 135.03125 133.03125 132.78816 133.03125 130 C 133.03125 129.67293 132.9965 129.34058 132.9375 129.03125 C 132.46997 131.32844 130.43931 133.03125 128 133.03125 C 125.56069 133.03125 123.53003 131.32844 123.0625 129.03125 z M 163.9375 129.03125 L 163.9375 131.03125 L 188.09375 131.03125 C 188.29782 130.38476 188.46096 129.72751 188.53125 129.03125 L 163.9375 129.03125 z "
         style="fill:#ffffff;fill-opacity:1;stroke:none;opacity:0.5" />
      <path
         id="path3888"
         transform="translate(0,796.36218)"
         d="M 128 45.25 C 84.789298 45.25 49.4756 79.16457 47.3125 121.84375 C 47.2424 123.2205 47.21875 124.60591 47.21875 126 C 47.21875 126.33284 47.214734 126.66811 47.21875 127 C 47.228322 125.94191 47.259137 124.8918 47.3125 123.84375 C 49.4756 81.16457 84.789298 47.25 128 47.25 C 134.59436 47.25 140.98899 48.04073 147.125 49.53125 L 163.9375 49.53125 L 163.9375 47.53125 L 147.125 47.53125 C 140.98899 46.04073 134.59436 45.25 128 45.25 z M 137.40625 81.25 L 137.40625 83.25 L 173.5625 83.25 L 173.5625 81.25 L 137.40625 81.25 z M 197.65625 81.25 L 197.65625 83.25 L 233.78125 83.25 L 233.78125 81.25 L 197.65625 81.25 z M 207.28125 110.625 L 207.28125 112.625 C 208.19322 117.35458 208.67054 122.23419 208.71875 127.21875 C 208.72471 126.81436 208.75 126.40581 208.75 126 C 208.75 120.74066 208.24124 115.60361 207.28125 110.625 z M 173.5625 117.40625 L 173.5625 119.40625 L 197.65625 119.40625 L 197.65625 117.40625 L 173.5625 117.40625 z M 127.5 120.96875 C 124.958 121.22734 122.96875 123.38609 122.96875 126 C 122.96875 126.34852 122.99571 126.70308 123.0625 127.03125 C 123.47801 124.8634 125.27575 123.19502 127.5 122.96875 C 127.66947 122.95145 127.82576 122.96875 128 122.96875 C 130.43931 122.96875 132.46997 124.67155 132.9375 126.96875 C 132.9965 126.65942 133.03125 126.32707 133.03125 126 C 133.03125 123.21183 130.78778 120.96875 128 120.96875 C 127.82576 120.96875 127.66947 120.95145 127.5 120.96875 z M 22 127 C 21.996943 127.33191 22 127.66736 22 128 C 22 186.55184 69.45649 234 128 234 C 186.54352 234 234 186.55184 234 128 C 234 127.75957 234.00159 127.52131 234 127.28125 C 233.31608 185.24452 186.11739 232 128 232 C 69.789081 232 22.534978 185.09259 22 127 z M 112.84375 127 C 112.82033 127.34118 112.78125 127.68316 112.78125 128.03125 C 112.78125 136.34962 119.62001 143.125 128 143.125 C 132.49192 143.125 136.4798 141.17411 139.25 138.09375 L 143.15625 138.09375 L 160.78125 138.09375 L 178.46875 138.09375 C 183.71209 138.09375 188.01597 134.13519 188.53125 129.03125 L 188.09375 129.03125 C 186.8019 133.12385 182.99681 136.09375 178.46875 136.09375 L 160.78125 136.09375 L 143.15625 136.09375 L 139.25 136.09375 C 136.4798 139.17411 132.49192 141.125 128 141.125 C 119.95143 141.125 113.35533 134.86431 112.84375 127 z "
         style="fill:#000000;fill-opacity:1;stroke:none;opacity:0.5" />
      <path
         inkscape:connector-curvature="0"
         style="opacity:0.2;fill:#000000;fill-opacity:1;stroke:none"
         d="m 128,843.61218 c -43.210702,0 -78.5244,33.91457 -80.6875,76.59375 -0.0701,1.37675 -0.09375,2.76216 -0.09375,4.15625 0,0.33284 -0.004,0.66811 0,1 0.0096,-1.05809 0.04039,-2.1082 0.09375,-3.15625 2.1631,-42.67918 37.476798,-76.59375 80.6875,-76.59375 6.59436,0 12.98899,0.79073 19.125,2.28125 l 16.8125,0 0,-2 -16.8125,0 c -6.13601,-1.49052 -12.53064,-2.28125 -19.125,-2.28125 z m 9.40625,36 0,2 36.15625,0 0,-2 -36.15625,0 z m 60.25,0 0,2 36.125,0 0,-2 -36.125,0 z m 9.625,29.375 0,2 c 0.91197,4.72958 1.38929,9.60919 1.4375,14.59375 0.006,-0.40439 0.0313,-0.81294 0.0313,-1.21875 0,-5.25934 -0.50876,-10.39639 -1.46875,-15.375 z m -33.71875,6.78125 0,2 24.09375,0 0,-2 -24.09375,0 z m -46.0625,3.5625 c -2.542,0.25859 -4.53125,2.41734 -4.53125,5.03125 0,0.34852 0.027,0.70308 0.0937,1.03125 0.41551,-2.16785 2.21325,-3.83623 4.4375,-4.0625 0.16947,-0.0173 0.32576,0 0.5,0 2.43931,0 4.46997,1.7028 4.9375,4 0.059,-0.30933 0.0937,-0.64168 0.0937,-0.96875 0,-2.78817 -2.24347,-5.03125 -5.03125,-5.03125 -0.17424,0 -0.33053,-0.0173 -0.5,0 z M 22,925.36218 c -0.0031,0.33191 0,0.66736 0,1 0,58.55184 47.45649,106.00002 106,106.00002 58.54352,0 106,-47.44818 106,-106.00002 0,-0.24043 0.002,-0.47869 0,-0.71875 -0.68392,57.96327 -47.88261,104.71877 -106,104.71877 -58.210919,0 -105.465022,-46.90743 -106,-105.00002 z m 90.84375,0 c -0.0234,0.34118 -0.0625,0.68316 -0.0625,1.03125 0,8.31837 6.83876,15.09375 15.21875,15.09375 4.49192,0 8.4798,-1.95089 11.25,-5.03125 l 3.90625,0 17.625,0 17.6875,0 c 5.24334,0 9.54722,-3.95856 10.0625,-9.0625 l -0.4375,0 c -1.29185,4.0926 -5.09694,7.0625 -9.625,7.0625 l -17.6875,0 -17.625,0 -3.90625,0 c -2.7702,3.08036 -6.75808,5.03125 -11.25,5.03125 -8.04857,0 -14.64467,-6.26069 -15.15625,-14.125 z"
         id="path3897" />
    </g>
  </g>
</svg>
