<?xml version="1.0" encoding="UTF-8" standalone="no"?>
<!-- Created with Inkscape (http://www.inkscape.org/) -->

<svg
   xmlns:dc="http://purl.org/dc/elements/1.1/"
   xmlns:cc="http://creativecommons.org/ns#"
   xmlns:rdf="http://www.w3.org/1999/02/22-rdf-syntax-ns#"
   xmlns:svg="http://www.w3.org/2000/svg"
   xmlns="http://www.w3.org/2000/svg"
   xmlns:xlink="http://www.w3.org/1999/xlink"
   xmlns:sodipodi="http://sodipodi.sourceforge.net/DTD/sodipodi-0.dtd"
   xmlns:inkscape="http://www.inkscape.org/namespaces/inkscape"
   id="svg2"
   height="256"
   width="256"
   version="1.1"
   inkscape:version="0.48.3.1 r9886"
   sodipodi:docname="audio.svg">
  <sodipodi:namedview
     pagecolor="#ffffff"
     bordercolor="#666666"
     borderopacity="1"
     objecttolerance="10"
     gridtolerance="10"
     guidetolerance="10"
     inkscape:pageopacity="0"
     inkscape:pageshadow="2"
     inkscape:window-width="1024"
     inkscape:window-height="553"
     id="namedview13"
     showgrid="false"
     inkscape:zoom="1.4960938"
     inkscape:cx="116.30287"
     inkscape:cy="128"
     inkscape:window-x="-4"
     inkscape:window-y="24"
     inkscape:window-maximized="1"
     inkscape:current-layer="svg2" />
  <defs
     id="defs4">
    <linearGradient
       id="linearGradient3770">
      <stop
         style="stop-color:#000000;stop-opacity:1;"
         offset="0"
         id="stop3772" />
      <stop
         style="stop-color:#323232;stop-opacity:1;"
         offset="1"
         id="stop3774" />
    </linearGradient>
    <linearGradient
       inkscape:collect="always"
       xlink:href="#linearGradient3770"
       id="linearGradient3816"
       gradientUnits="userSpaceOnUse"
       gradientTransform="matrix(1.0923197,0,0,1.0923197,-12.51693,-14.877202)"
       x1="120.37216"
       y1="223.7858"
       x2="121.63295"
       y2="39.34943" />
  </defs>
  <metadata
     id="metadata7">
    <rdf:RDF>
      <cc:Work
         rdf:about="">
        <dc:format>image/svg+xml</dc:format>
        <dc:type
           rdf:resource="http://purl.org/dc/dcmitype/StillImage" />
        <dc:title></dc:title>
      </cc:Work>
    </rdf:RDF>
  </metadata>
  <g
     id="g3806">
    <path
       inkscape:connector-curvature="0"
       id="path3804"
       d="m 119.38873,28.319695 c -55.694494,0 -100.834753,45.024244 -100.834753,100.561685 0,55.53743 45.140259,100.56167 100.834753,100.56167 20.65842,0 39.85369,-6.50813 55.84485,-17.13576 0,0 19.10841,17.68192 63.3204,17.68192 -41.2545,-29.7109 -35.8076,-44.54616 -35.8076,-44.54616 11.09196,-16.15176 17.47711,-35.50716 17.47711,-56.56167 0,-55.537441 -45.14026,-100.561685 -100.83476,-100.561685 z m -13.51745,63.968967 40.99612,40.961988 -41.40574,41.20094 -2.15051,0 c -2.32861,0 -2.28703,-2.25292 -2.28703,-2.25292 l 0,-77.315752 c 0,0 -0.1016,-2.550945 2.59425,-2.560121 l 2.25291,-0.03413 z"
       style="opacity:0.05;color:#000000;fill:none;stroke:#000000;stroke-width:24;stroke-linejoin:round;stroke-miterlimit:4;stroke-opacity:1;stroke-dasharray:none" />
    <path
       style="opacity:0.1;color:#000000;fill:none;stroke:#000000;stroke-width:18;stroke-linejoin:round;stroke-miterlimit:4;stroke-opacity:1;stroke-dasharray:none"
       d="m 119.38873,28.319695 c -55.694494,0 -100.834753,45.024244 -100.834753,100.561685 0,55.53743 45.140259,100.56167 100.834753,100.56167 20.65842,0 39.85369,-6.50813 55.84485,-17.13576 0,0 19.10841,17.68192 63.3204,17.68192 -41.2545,-29.7109 -35.8076,-44.54616 -35.8076,-44.54616 11.09196,-16.15176 17.47711,-35.50716 17.47711,-56.56167 0,-55.537441 -45.14026,-100.561685 -100.83476,-100.561685 z m -13.51745,63.968967 40.99612,40.961988 -41.40574,41.20094 -2.15051,0 c -2.32861,0 -2.28703,-2.25292 -2.28703,-2.25292 l 0,-77.315752 c 0,0 -0.1016,-2.550945 2.59425,-2.560121 l 2.25291,-0.03413 z"
       id="path3802"
       inkscape:connector-curvature="0" />
    <path
       inkscape:connector-curvature="0"
       id="path3800"
       d="m 119.38873,28.319695 c -55.694494,0 -100.834753,45.024244 -100.834753,100.561685 0,55.53743 45.140259,100.56167 100.834753,100.56167 20.65842,0 39.85369,-6.50813 55.84485,-17.13576 0,0 19.10841,17.68192 63.3204,17.68192 -41.2545,-29.7109 -35.8076,-44.54616 -35.8076,-44.54616 11.09196,-16.15176 17.47711,-35.50716 17.47711,-56.56167 0,-55.537441 -45.14026,-100.561685 -100.83476,-100.561685 z m -13.51745,63.968967 40.99612,40.961988 -41.40574,41.20094 -2.15051,0 c -2.32861,0 -2.28703,-2.25292 -2.28703,-2.25292 l 0,-77.315752 c 0,0 -0.1016,-2.550945 2.59425,-2.560121 l 2.25291,-0.03413 z"
       style="opacity:0.15;color:#000000;fill:none;stroke:#000000;stroke-width:12;stroke-linejoin:round;stroke-miterlimit:4;stroke-opacity:1;stroke-dasharray:none" />
    <path
       style="opacity:0.2;color:#000000;fill:none;stroke:#000000;stroke-width:6;stroke-linejoin:round;stroke-miterlimit:4;stroke-opacity:1;stroke-dasharray:none"
       d="m 119.38873,28.319695 c -55.694494,0 -100.834753,45.024244 -100.834753,100.561685 0,55.53743 45.140259,100.56167 100.834753,100.56167 20.65842,0 39.85369,-6.50813 55.84485,-17.13576 0,0 19.10841,17.68192 63.3204,17.68192 -41.2545,-29.7109 -35.8076,-44.54616 -35.8076,-44.54616 11.09196,-16.15176 17.47711,-35.50716 17.47711,-56.56167 0,-55.537441 -45.14026,-100.561685 -100.83476,-100.561685 z m -13.51745,63.968967 40.99612,40.961988 -41.40574,41.20094 -2.15051,0 c -2.32861,0 -2.28703,-2.25292 -2.28703,-2.25292 l 0,-77.315752 c 0,0 -0.1016,-2.550945 2.59425,-2.560121 l 2.25291,-0.03413 z"
       id="path3798"
       inkscape:connector-curvature="0" />
    <path
       style="opacity:0.3;color:#000000;fill:#000000;fill-opacity:1"
       d="m 119.38873,32.319695 c -55.694494,0 -100.834753,45.024244 -100.834753,100.561685 0,55.53743 45.140259,100.56167 100.834753,100.56167 20.65842,0 39.85369,-6.50813 55.84485,-17.13576 0,0 19.10841,17.68192 63.3204,17.68192 -41.2545,-29.7109 -35.8076,-44.54616 -35.8076,-44.54616 11.09196,-16.15176 17.47711,-35.50716 17.47711,-56.56167 0,-55.537441 -45.14026,-100.561685 -100.83476,-100.561685 z m -13.51745,63.968967 40.99612,40.961988 -41.40574,41.20094 -2.15051,0 c -2.32861,0 -2.28703,-2.25292 -2.28703,-2.25292 l 0,-77.315752 c 0,0 -0.1016,-2.550945 2.59425,-2.560121 l 2.25291,-0.03413 z"
       id="path3796"
       inkscape:connector-curvature="0" />
    <path
       inkscape:connector-curvature="0"
       id="path3867"
       d="m 119.38873,28.319695 c -55.694494,0 -100.834753,45.024244 -100.834753,100.561685 0,55.53743 45.140259,100.56167 100.834753,100.56167 20.65842,0 39.85369,-6.50813 55.84485,-17.13576 0,0 19.10841,17.68192 63.3204,17.68192 -41.2545,-29.7109 -35.8076,-44.54616 -35.8076,-44.54616 11.09196,-16.15176 17.47711,-35.50716 17.47711,-56.56167 0,-55.537441 -45.14026,-100.561685 -100.83476,-100.561685 z m -13.51745,63.968967 40.99612,40.961988 -41.40574,41.20094 -2.15051,0 c -2.32861,0 -2.28703,-2.25292 -2.28703,-2.25292 l 0,-77.315752 c 0,0 -0.1016,-2.550945 2.59425,-2.560121 l 2.25291,-0.03413 z"
       style="color:#000000;fill:url(#linearGradient3816);fill-opacity:1" />
    <path
       inkscape:connector-curvature="0"
       id="path3778"
       d="m 119.375,28.3125 c -55.69449,0 -100.8125,45.025059 -100.8125,100.5625 0,0.47054 0.0248,0.93724 0.0312,1.40625 1.38028,-54.337971 45.95699,-97.96875 100.78125,-97.96875 54.82427,0 99.43222,43.630779 100.8125,97.96875 0.006,-0.4683 0.0312,-0.93624 0.0312,-1.40625 0,-55.537441 -45.14925,-100.5625 -100.84375,-100.5625 z m 25.5,106.9375 -39.40625,39.1875 -2.15625,0 c -2.32861,0 -2.28125,-2.25 -2.28125,-2.25 l 0,4 c 0,0 -0.0474,2.25 2.28125,2.25 l 2.15625,0 41.40625,-41.1875 -2,-2 z m 57.84375,54.3125 c -0.20605,0.6301 -4.04349,13.99646 30.3125,40.3125 1.79884,0.0619 3.64112,0.125 5.53125,0.125 -28.72359,-20.68632 -34.79773,-34.16005 -35.84375,-40.4375 z"
       style="opacity:0.7;color:#000000;fill:#ffffff;fill-opacity:1" />
    <path
       inkscape:connector-curvature="0"
       id="path3787"
       d="m 105.875,88.28125 -2.25,0.03125 c -2.69585,0.0092 -2.59375,2.5625 -2.59375,2.5625 l 0,4 c 0,0 -0.1021,-2.553324 2.59375,-2.5625 l 2.25,-0.03125 39,38.96875 2,-2 -41,-40.96875 z m 114.3125,38.3125 c -0.33769,20.38881 -6.64816,39.13265 -17.4375,54.84375 0,0 -0.48758,1.38641 -0.0312,4.125 0.005,-0.0155 0.0312,-0.125 0.0312,-0.125 11.09196,-16.15176 17.46875,-35.50799 17.46875,-56.5625 0,-0.76324 -0.0143,-1.52207 -0.0312,-2.28125 z m -201.59375,0.875 c -0.006,0.46901 -0.0312,0.93571 -0.0312,1.40625 0,55.53743 45.11801,100.5625 100.8125,100.5625 20.65842,0 39.85259,-6.49737 55.84375,-17.125 0,0 19.13176,17.6875 63.34375,17.6875 -1.9532,-1.40666 -3.78189,-2.78502 -5.53125,-4.125 -40.27767,-1.38535 -57.8125,-17.5625 -57.8125,-17.5625 -15.99116,10.62763 -35.18533,17.125 -55.84375,17.125 -54.82426,0 -99.40097,-43.63079 -100.78125,-97.96875 z"
       style="opacity:0.7;color:#000000;fill:#000000;fill-opacity:1" />
  </g>
</svg>
