<?xml version="1.0" encoding="UTF-8" standalone="no"?>
<!-- Created with Inkscape (http://www.inkscape.org/) -->

<svg
   xmlns:dc="http://purl.org/dc/elements/1.1/"
   xmlns:cc="http://creativecommons.org/ns#"
   xmlns:rdf="http://www.w3.org/1999/02/22-rdf-syntax-ns#"
   xmlns:svg="http://www.w3.org/2000/svg"
   xmlns="http://www.w3.org/2000/svg"
   xmlns:xlink="http://www.w3.org/1999/xlink"
   xmlns:sodipodi="http://sodipodi.sourceforge.net/DTD/sodipodi-0.dtd"
   xmlns:inkscape="http://www.inkscape.org/namespaces/inkscape"
   version="1.0"
   width="256"
   height="256"
   id="svg2408"
   inkscape:version="0.48.1 r9760"
   sodipodi:docname="call-start.svg">
  <sodipodi:namedview
     pagecolor="#ffffff"
     bordercolor="#666666"
     borderopacity="1"
     objecttolerance="10"
     gridtolerance="10"
     guidetolerance="10"
     inkscape:pageopacity="0"
     inkscape:pageshadow="2"
     inkscape:window-width="983"
     inkscape:window-height="534"
     id="namedview93"
     showgrid="false"
     inkscape:zoom="1.4882812"
     inkscape:cx="38.635172"
     inkscape:cy="128"
     inkscape:window-x="41"
     inkscape:window-y="24"
     inkscape:window-maximized="1"
     inkscape:current-layer="svg2408" />
  <defs
     id="defs2410">
    <linearGradient
       id="linearGradient3637">
      <stop
         id="stop3639"
         style="stop-color:#f0f0f0;stop-opacity:1"
         offset="0" />
      <stop
         id="stop3641"
         style="stop-color:#aaaaaa;stop-opacity:1"
         offset="1" />
    </linearGradient>
    <linearGradient
       x1="45.447727"
       y1="92.539597"
       x2="45.447727"
       y2="7.0165396"
       id="ButtonShadow"
       gradientUnits="userSpaceOnUse"
       gradientTransform="scale(1.0058652,0.994169)">
      <stop
         id="stop3750"
         style="stop-color:#000000;stop-opacity:1"
         offset="0" />
      <stop
         id="stop3752"
         style="stop-color:#000000;stop-opacity:0.58823532"
         offset="1" />
    </linearGradient>
    <linearGradient
       id="linearGradient3737">
      <stop
         id="stop3739"
         style="stop-color:#ffffff;stop-opacity:1"
         offset="0" />
      <stop
         id="stop3741"
         style="stop-color:#ffffff;stop-opacity:0"
         offset="1" />
    </linearGradient>
    <linearGradient
       id="linearGradient3700">
      <stop
         id="stop3702"
         style="stop-color:#2276c5;stop-opacity:1"
         offset="0" />
      <stop
         id="stop3704"
         style="stop-color:#68baf4;stop-opacity:1"
         offset="1" />
    </linearGradient>
    <filter
       color-interpolation-filters="sRGB"
       id="filter3174">
      <feGaussianBlur
         id="feGaussianBlur3176"
         stdDeviation="1.71" />
    </filter>
    <linearGradient
       x1="36.357143"
       y1="6"
       x2="36.357143"
       y2="63.893143"
       id="linearGradient3188"
       xlink:href="#linearGradient3737"
       gradientUnits="userSpaceOnUse" />
    <filter
       x="-0.192"
       y="-0.192"
       width="1.3839999"
       height="1.3839999"
       color-interpolation-filters="sRGB"
       id="filter3794">
      <feGaussianBlur
         id="feGaussianBlur3796"
         stdDeviation="5.28" />
    </filter>
    <linearGradient
       x1="48"
       y1="20.220806"
       x2="48"
       y2="138.66119"
       id="linearGradient3613"
       xlink:href="#linearGradient3737"
       gradientUnits="userSpaceOnUse" />
    <radialGradient
       cx="48"
       cy="90.171875"
       r="42"
       fx="48"
       fy="90.171875"
       id="radialGradient3619"
       xlink:href="#linearGradient3737"
       gradientUnits="userSpaceOnUse"
       gradientTransform="matrix(1.1573129,0,0,0.99590774,-7.5510206,0.19713193)" />
    <clipPath
       id="clipPath3613">
      <rect
         width="84"
         height="84"
         rx="6"
         ry="6"
         x="6"
         y="6"
         id="rect3615"
         style="fill:#ffffff;fill-opacity:1;fill-rule:nonzero;stroke:none" />
    </clipPath>
    <linearGradient
       x1="48"
       y1="90"
       x2="48"
       y2="5.9877172"
       id="linearGradient2843"
       xlink:href="#linearGradient3700"
       gradientUnits="userSpaceOnUse"
       gradientTransform="translate(0,100)" />
    <clipPath
       id="clipPath3625">
      <path
         d="M 0,0 0,96 96,96 96,0 0,0 z m 12,6 72,0 c 3.324,0 6,2.676 6,6 l 0,72 c 0,3.324 -2.676,6 -6,6 L 12,90 C 8.676,90 6,87.324 6,84 L 6,12 C 6,8.676 8.676,6 12,6 z"
         inkscape:connector-curvature="0"
         id="path3627"
         style="fill:#ffffff;fill-opacity:1;stroke:none" />
    </clipPath>
    <linearGradient
       x1="44.512066"
       y1="6"
       x2="44.512066"
       y2="90.015434"
       id="linearGradient3643"
       xlink:href="#linearGradient3637"
       gradientUnits="userSpaceOnUse" />
    <clipPath
       id="clipPath3649">
      <rect
         width="76"
         height="76"
         rx="4"
         ry="4"
         x="10"
         y="10"
         id="rect3651"
         style="fill:#ffffff;fill-opacity:1;fill-rule:nonzero;stroke:none" />
    </clipPath>
    <filter
       color-interpolation-filters="sRGB"
       id="filter3657">
      <feGaussianBlur
         id="feGaussianBlur3659"
         stdDeviation="1.14" />
    </filter>
    <linearGradient
       id="linearGradient3183-0">
      <stop
         id="stop3185-9"
         style="stop-color:#47b100;stop-opacity:1;"
         offset="0" />
      <stop
         id="stop3187-6"
         style="stop-color:#66ff00;stop-opacity:1;"
         offset="1" />
    </linearGradient>
    <linearGradient
       inkscape:collect="always"
       xlink:href="#linearGradient3183-0"
       id="linearGradient4474"
       gradientUnits="userSpaceOnUse"
       gradientTransform="matrix(-7.1434871,0.49137197,0.34666787,7.1330306,4582.3865,-2661.2043)"
       x1="647.27832"
       y1="349.10172"
       x2="639.46515"
       y2="357.89178" />
    <linearGradient
       inkscape:collect="always"
       xlink:href="#linearGradient3183-0"
       id="linearGradient4574"
       gradientUnits="userSpaceOnUse"
       gradientTransform="matrix(-7.1434871,0.49137197,0.34666787,7.1330306,4578.3865,-2659.2043)"
       x1="647.27832"
       y1="349.10172"
       x2="639.46515"
       y2="357.89178" />
  </defs>
  <metadata
     id="metadata2413">
    <rdf:RDF>
      <cc:Work
         rdf:about="">
        <dc:format>image/svg+xml</dc:format>
        <dc:type
           rdf:resource="http://purl.org/dc/dcmitype/StillImage" />
        <dc:title></dc:title>
      </cc:Work>
    </rdf:RDF>
  </metadata>
  <g
     id="layer2"
     style="display:none"
     transform="translate(0,160)">
    <rect
       width="86"
       height="85"
       rx="6"
       ry="6"
       x="5"
       y="7"
       clip-path="url(#clipPath3625)"
       id="rect3745"
       style="opacity:0.9;fill:url(#ButtonShadow);fill-opacity:1;fill-rule:nonzero;stroke:none;filter:url(#filter3174)" />
  </g>
  <g
     id="layer1"
     style="display:none"
     transform="translate(0,160)">
    <rect
       width="84"
       height="84"
       rx="6"
       ry="6"
       x="6"
       y="6"
       id="rect2419"
       style="opacity:0.8;fill:#000000;fill-opacity:1;fill-rule:nonzero;stroke:none" />
    <path
       d="m 14,10 c -2.216,0 -4,1.784 -4,4 l 0,68 c 0,2.216 1.784,4 4,4 l 68,0 c 2.216,0 4,-1.784 4,-4 l 0,-68 c 0,-2.216 -1.784,-4 -4,-4 l -68,0 z m 0,3.0625 68,0 c 0.578769,0 0.9375,0.358731 0.9375,0.9375 l 0,68 c 0,0.578769 -0.358731,0.9375 -0.9375,0.9375 l -68,0 c -0.578769,0 -0.9375,-0.358731 -0.9375,-0.9375 l 0,-68 c 0,-0.578769 0.358731,-0.9375 0.9375,-0.9375 z"
       inkscape:connector-curvature="0"
       id="rect3726"
       style="opacity:0.07999998;fill:#000000;fill-opacity:1;fill-rule:nonzero;stroke:none" />
    <path
       d="M 12,6 C 8.676,6 6,8.676 6,12 l 0,72 c 0,3.324 2.676,6 6,6 l 72,0 c 3.324,0 6,-2.676 6,-6 L 90,12 C 90,8.676 87.324,6 84,6 L 12,6 z m 2,4 68,0 c 2.216,0 4,1.784 4,4 l 0,68 c 0,2.216 -1.784,4 -4,4 l -68,0 c -2.216,0 -4,-1.784 -4,-4 l 0,-68 c 0,-2.216 1.784,-4 4,-4 z"
       inkscape:connector-curvature="0"
       id="rect3629"
       style="fill:url(#linearGradient3643);fill-opacity:1;fill-rule:nonzero;stroke:none" />
    <path
       d="M 12,6 C 8.676,6 6,8.676 6,12 l 0,2 0,68 0,2 c 0,0.334721 0.04135,0.6507 0.09375,0.96875 0.0487,0.295596 0.09704,0.596915 0.1875,0.875 0.00988,0.03038 0.020892,0.0636 0.03125,0.09375 0.098865,0.287771 0.2348802,0.547452 0.375,0.8125 0.1445918,0.273507 0.3156161,0.535615 0.5,0.78125 0.1843839,0.245635 0.3737765,0.473472 0.59375,0.6875 0.439947,0.428056 0.94291,0.814526 1.5,1.09375 0.278545,0.139612 0.5734731,0.246947 0.875,0.34375 -0.2562018,-0.100222 -0.4867109,-0.236272 -0.71875,-0.375 -0.00741,-0.0044 -0.023866,0.0045 -0.03125,0 -0.031933,-0.0193 -0.062293,-0.04251 -0.09375,-0.0625 -0.120395,-0.0767 -0.2310226,-0.163513 -0.34375,-0.25 -0.1061728,-0.0808 -0.2132809,-0.161112 -0.3125,-0.25 C 8.4783201,88.557317 8.3087904,88.373362 8.15625,88.1875 8.0486711,88.057245 7.9378561,87.922215 7.84375,87.78125 7.818661,87.74287 7.805304,87.69538 7.78125,87.65625 7.716487,87.553218 7.6510225,87.451733 7.59375,87.34375 7.4927417,87.149044 7.3880752,86.928049 7.3125,86.71875 7.30454,86.69694 7.288911,86.6782 7.28125,86.65625 7.2494249,86.5643 7.2454455,86.469419 7.21875,86.375 7.1884177,86.268382 7.1483606,86.171969 7.125,86.0625 7.0521214,85.720988 7,85.364295 7,85 L 7,83 7,15 7,13 C 7,10.218152 9.2181517,8 12,8 l 2,0 68,0 2,0 c 2.781848,0 5,2.218152 5,5 l 0,2 0,68 0,2 c 0,0.364295 -0.05212,0.720988 -0.125,1.0625 -0.04415,0.206893 -0.08838,0.397658 -0.15625,0.59375 -0.0077,0.02195 -0.0233,0.04069 -0.03125,0.0625 -0.06274,0.173739 -0.138383,0.367449 -0.21875,0.53125 -0.04158,0.0828 -0.07904,0.169954 -0.125,0.25 -0.0546,0.09721 -0.126774,0.18835 -0.1875,0.28125 -0.09411,0.140965 -0.204921,0.275995 -0.3125,0.40625 -0.143174,0.17445 -0.303141,0.346998 -0.46875,0.5 -0.01117,0.0102 -0.01998,0.02115 -0.03125,0.03125 -0.138386,0.125556 -0.285091,0.234436 -0.4375,0.34375 -0.102571,0.07315 -0.204318,0.153364 -0.3125,0.21875 -0.0074,0.0045 -0.02384,-0.0044 -0.03125,0 -0.232039,0.138728 -0.462548,0.274778 -0.71875,0.375 0.301527,-0.0968 0.596455,-0.204138 0.875,-0.34375 0.55709,-0.279224 1.060053,-0.665694 1.5,-1.09375 0.219973,-0.214028 0.409366,-0.441865 0.59375,-0.6875 0.184384,-0.245635 0.355408,-0.507743 0.5,-0.78125 0.14012,-0.265048 0.276135,-0.524729 0.375,-0.8125 0.01041,-0.03078 0.02133,-0.06274 0.03125,-0.09375 0.09046,-0.278085 0.1388,-0.579404 0.1875,-0.875 C 89.95865,84.6507 90,84.334721 90,84 l 0,-2 0,-68 0,-2 C 90,8.676 87.324,6 84,6 L 12,6 z"
       inkscape:connector-curvature="0"
       id="rect3728"
       style="fill:url(#linearGradient3188);fill-opacity:1;fill-rule:nonzero;stroke:none" />
    <path
       d="M 12,90 C 8.676,90 6,87.324 6,84 L 6,82 6,14 6,12 c 0,-0.334721 0.04135,-0.6507 0.09375,-0.96875 0.0487,-0.295596 0.09704,-0.596915 0.1875,-0.875 C 6.29113,10.12587 6.302142,10.09265 6.3125,10.0625 6.411365,9.774729 6.5473802,9.515048 6.6875,9.25 6.8320918,8.976493 7.0031161,8.714385 7.1875,8.46875 7.3718839,8.223115 7.5612765,7.995278 7.78125,7.78125 8.221197,7.353194 8.72416,6.966724 9.28125,6.6875 9.559795,6.547888 9.8547231,6.440553 10.15625,6.34375 9.9000482,6.443972 9.6695391,6.580022 9.4375,6.71875 c -0.00741,0.0044 -0.023866,-0.0045 -0.03125,0 -0.031933,0.0193 -0.062293,0.04251 -0.09375,0.0625 -0.120395,0.0767 -0.2310226,0.163513 -0.34375,0.25 -0.1061728,0.0808 -0.2132809,0.161112 -0.3125,0.25 C 8.4783201,7.442683 8.3087904,7.626638 8.15625,7.8125 8.0486711,7.942755 7.9378561,8.077785 7.84375,8.21875 7.818661,8.25713 7.805304,8.30462 7.78125,8.34375 7.716487,8.446782 7.6510225,8.548267 7.59375,8.65625 7.4927417,8.850956 7.3880752,9.071951 7.3125,9.28125 7.30454,9.30306 7.288911,9.3218 7.28125,9.34375 7.2494249,9.4357 7.2454455,9.530581 7.21875,9.625 7.1884177,9.731618 7.1483606,9.828031 7.125,9.9375 7.0521214,10.279012 7,10.635705 7,11 l 0,2 0,68 0,2 c 0,2.781848 2.2181517,5 5,5 l 2,0 68,0 2,0 c 2.781848,0 5,-2.218152 5,-5 l 0,-2 0,-68 0,-2 C 89,10.635705 88.94788,10.279012 88.875,9.9375 88.83085,9.730607 88.78662,9.539842 88.71875,9.34375 88.71105,9.3218 88.69545,9.30306 88.6875,9.28125 88.62476,9.107511 88.549117,8.913801 88.46875,8.75 88.42717,8.6672 88.38971,8.580046 88.34375,8.5 88.28915,8.40279 88.216976,8.31165 88.15625,8.21875 88.06214,8.077785 87.951329,7.942755 87.84375,7.8125 87.700576,7.63805 87.540609,7.465502 87.375,7.3125 87.36383,7.3023 87.35502,7.29135 87.34375,7.28125 87.205364,7.155694 87.058659,7.046814 86.90625,6.9375 86.803679,6.86435 86.701932,6.784136 86.59375,6.71875 c -0.0074,-0.0045 -0.02384,0.0044 -0.03125,0 -0.232039,-0.138728 -0.462548,-0.274778 -0.71875,-0.375 0.301527,0.0968 0.596455,0.204138 0.875,0.34375 0.55709,0.279224 1.060053,0.665694 1.5,1.09375 0.219973,0.214028 0.409366,0.441865 0.59375,0.6875 0.184384,0.245635 0.355408,0.507743 0.5,0.78125 0.14012,0.265048 0.276135,0.524729 0.375,0.8125 0.01041,0.03078 0.02133,0.06274 0.03125,0.09375 0.09046,0.278085 0.1388,0.579404 0.1875,0.875 C 89.95865,11.3493 90,11.665279 90,12 l 0,2 0,68 0,2 c 0,3.324 -2.676,6 -6,6 l -72,0 z"
       inkscape:connector-curvature="0"
       id="path3615"
       style="opacity:0.6;fill:url(#radialGradient3619);fill-opacity:1;fill-rule:nonzero;stroke:none" />
    <rect
       width="84"
       height="84"
       rx="6"
       ry="6"
       x="6"
       y="106"
       id="rect2841"
       style="fill:url(#linearGradient2843);fill-opacity:1;fill-rule:nonzero;stroke:none" />
    <rect
       width="76"
       height="76"
       rx="4"
       ry="4"
       x="10"
       y="110"
       id="rect3634"
       style="fill:#ff0000;fill-opacity:1;fill-rule:nonzero;stroke:none" />
    <path
       d="m 14,9 c -2.752703,0 -5,2.247297 -5,5 l 0,68 c 0,2.752703 2.247297,5 5,5 l 68,0 c 2.752703,0 5,-2.247297 5,-5 L 87,14 C 87,11.247297 84.752703,9 82,9 L 14,9 z m 0,2 68,0 c 1.679297,0 3,1.320703 3,3 l 0,68 c 0,1.679297 -1.320703,3 -3,3 l -68,0 c -1.679297,0 -3,-1.320703 -3,-3 l 0,-68 c 0,-1.679297 1.320703,-3 3,-3 z"
       inkscape:connector-curvature="0"
       transform="translate(-110,0)"
       clip-path="url(#clipPath3649)"
       id="rect3647"
       style="font-size:medium;font-style:normal;font-variant:normal;font-weight:normal;font-stretch:normal;text-indent:0;text-align:start;text-decoration:none;line-height:normal;letter-spacing:normal;word-spacing:normal;text-transform:none;direction:ltr;block-progression:tb;writing-mode:lr-tb;text-anchor:start;color:#000000;fill:#000000;fill-opacity:1;stroke:none;stroke-width:2;marker:none;visibility:visible;display:inline;overflow:visible;filter:url(#filter3657);enable-background:accumulate;font-family:Abandoned Bitplane;-inkscape-font-specification:Abandoned Bitplane" />
    <path
       d="m 14.089286,10 c -2.216,0 -4,1.784 -4,4 l 0,68 c 0,2.216 1.784,4 4,4 l 68,0 c 2.216,0 4,-1.784 4,-4 l 0,-68 c 0,-2.216 -1.784,-4 -4,-4 l -68,0 z m 0,2 68,0 c 1.140301,0 2,0.859699 2,2 l 0,68 c 0,1.140301 -0.859699,2 -2,2 l -68,0 c -1.140301,0 -2,-0.859699 -2,-2 l 0,-68 c 0,-1.140301 0.859699,-2 2,-2 z"
       inkscape:connector-curvature="0"
       id="path3709"
       style="opacity:0.16000001;fill:#000000;fill-opacity:1;fill-rule:nonzero;stroke:none" />
    <path
       d="m 14,10 c -2.216,0 -4,1.784 -4,4 l 0,68 c 0,2.216 1.784,4 4,4 l 68,0 c 2.216,0 4,-1.784 4,-4 l 0,-68 c 0,-2.216 -1.784,-4 -4,-4 l -68,0 z m 0,1 68,0 c 1.673848,0 3,1.326152 3,3 l 0,68 c 0,1.673848 -1.326152,3 -3,3 l -68,0 c -1.673848,0 -3,-1.326152 -3,-3 l 0,-68 c 0,-1.673848 1.326152,-3 3,-3 z"
       inkscape:connector-curvature="0"
       id="path3707"
       style="opacity:0.36000001;fill:#000000;fill-opacity:1;fill-rule:nonzero;stroke:none" />
  </g>
  <g
     id="layer5"
     style="display:none"
     transform="translate(0,160)">
    <rect
       width="66"
       height="66"
       rx="12"
       ry="12"
       x="15"
       y="15"
       clip-path="url(#clipPath3613)"
       id="rect3171"
       style="opacity:0.1;fill:url(#linearGradient3613);fill-opacity:1;fill-rule:nonzero;stroke:#ffffff;stroke-width:0.5;stroke-linecap:round;stroke-linejoin:miter;stroke-miterlimit:4;stroke-opacity:1;stroke-dasharray:none;stroke-dashoffset:0;filter:url(#filter3794)" />
  </g>
  <path
     style="opacity:0.1;fill:#000000;fill-opacity:1;display:inline"
     id="path3896"
     inkscape:connector-curvature="0"
     d="m 166.03718,181.24447 c -21.21648,21.00487 -48.9974,34.23773 -77.62035,41.72663 -19.588267,2.6546 -41.741237,-4.1862 -53.071867,-21.12746 -3.90303,-9.48949 -9.03699,-23.51781 -0.77895,-31.93737 12.51384,-7.97652 25.76962,-14.79245 38.64865,-22.17453 8.74221,-5.70718 17.358507,2.08494 22.772647,8.50856 5.24932,4.99352 9.49293,15.56332 17.0507,7.18611 21.61024,-11.52637 39.1349,-30.08017 50.05643,-51.94216 -6.40188,-7.26738 -15.42348,-14.489032 -15.82299,-24.909 3.52301,-14.679374 9.10745,-28.886584 14.61127,-42.947078 3.29264,-10.151762 14.97172,-10.817991 23.90865,-10.487892 15.89385,-0.625938 27.53155,13.805447 32.68193,27.400847 6.18604,15.314328 4.25617,32.520229 -2.10635,47.427693 -10.56495,28.06134 -29.40135,52.16653 -50.32977,73.27565 z" />
  <path
     inkscape:connector-curvature="0"
     style="opacity:0.15;fill:#000000;fill-opacity:1;display:inline"
     id="path3892"
     d="m 163.26754,178.47483 c -4.4683,4.3758 -8.79359,8.01216 -13.67508,11.77095 -8.43843,6.49758 -22.98206,14.94292 -32.62978,18.9547 -3.4602,1.43887 -9.29919,3.54887 -14.80025,5.45272 -5.50105,1.90386 -10.28417,3.58199 -12.80956,4.15446 -8.081117,1.82988 -20.999637,0.37659 -29.600487,-2.76964 -4.16749,-1.52411 -8.33624,-4.06347 -12.11715,-6.92408 -3.78093,-2.86062 -7.00802,-5.91124 -8.91477,-9.26098 -1.9625,-3.44694 -3.14991,-8.19967 -3.89481,-12.89612 -0.37244,-2.34822 -0.57892,-4.67729 -0.60585,-6.66443 -0.0135,-0.99358 0.0378,-1.85358 0.1731,-2.76964 0.1353,-0.91606 0.20767,-1.78974 1.12516,-3.02929 0.60861,-0.82242 0.99778,-1.09635 1.47137,-1.47137 0.4736,-0.37502 0.96841,-0.8133 1.55793,-1.21171 1.17903,-0.79683 2.68023,-1.60296 4.15445,-2.42344 2.71246,-1.51005 11.07412,-6.19557 18.60849,-10.47268 8.03937,-4.56382 12.02575,-6.98562 14.80025,-8.22236 1.38726,-0.61835 2.54048,-1.02017 3.98135,-1.03861 1.44087,-0.0184 2.74104,0.49018 3.37549,0.77896 1.40875,0.64139 2.25736,1.39728 3.46205,2.42343 1.204677,1.02615 2.527757,2.36873 3.981347,3.80825 2.90723,2.87897 6.14175,6.42819 9.00132,9.86683 2.29303,2.75722 3.67617,4.08014 4.32756,4.50066 0.65139,0.42051 0.6115,0.35454 1.99067,0.25965 -0.85039,0.0585 0.59628,-0.13984 1.99068,-0.77896 1.39437,-0.63915 3.16179,-1.6436 5.19307,-2.76964 4.06253,-2.25208 8.99188,-5.21432 13.06922,-8.04925 15.77205,-10.96585 28.14372,-24.67571 37.90939,-42.23696 2.4145,-4.34244 2.99177,-6.32463 2.94274,-6.75099 -0.049,-0.4263 -0.85044,-1.66272 -4.0679,-4.76031 -3.15436,-3.03684 -6.06417,-6.487984 -8.22236,-9.607173 -2.15819,-3.119189 -3.7262,-5.445726 -3.8948,-8.914764 -0.0589,-1.211401 0.0735,-1.294847 0.1731,-1.731026 0.0995,-0.43627 0.18909,-0.828043 0.34621,-1.384819 0.31426,-1.113523 0.76502,-2.571047 1.29826,-4.241007 1.06648,-3.339913 2.50984,-7.703455 4.06791,-12.203701 3.11613,-9.000508 6.65507,-18.519311 8.48201,-22.676406 1.13781,-2.588491 2.75326,-5.230143 5.62582,-6.491332 2.87256,-1.261188 5.96607,-1.39428 10.90545,-1.557919 3.84392,-0.12735 6.13078,-0.150083 8.22235,0.08655 2.09159,0.236633 3.85865,0.887179 5.53928,1.731026 12.7039,6.378994 21.72639,23.298801 22.50329,39.81352 0.37065,7.825133 -0.34481,12.50495 -3.46205,21.983981 -6.84817,20.8231 -18.95998,41.14245 -36.69767,61.62441 -5.73295,6.61995 -10.40565,11.71015 -14.8868,16.09851 z" />
  <path
     style="opacity:0.3;fill:#000000;fill-opacity:1;display:inline"
     id="path3886"
     inkscape:connector-curvature="0"
     d="m 88.52805,214.96243 c 3.80224,-0.86188 20.43562,-6.62172 26.99636,-9.34996 9.11392,-3.78979 23.72565,-12.28333 31.71548,-18.43546 9.54805,-7.35206 16.55834,-14.21721 27.94847,-27.36966 17.48492,-20.19008 29.32822,-40.02434 35.98431,-60.26333 3.06754,-9.327969 3.65447,-12.98842 3.29598,-20.557143 -0.71109,-15.115538 -9.66019,-31.136485 -20.39052,-36.524504 -3.04403,-1.528419 -4.27156,-1.675009 -11.90838,-1.421978 -9.7155,0.321882 -11.14102,0.933296 -13.21977,5.662426 -3.31982,7.55393 -14.11486,38.783789 -14.02752,40.581071 0.14415,2.966199 5.14985,10.122028 11.06262,15.814428 6.56414,6.3196 6.67813,7.36366 1.76902,16.19256 -10.02577,18.02903 -22.83818,32.33072 -39.08137,43.6242 -8.42603,5.85851 -19.75727,12.15545 -22.17221,12.32155 -3.43071,0.23599 -4.78539,-0.6677 -9.49386,-6.3293 -5.53319,-6.65365 -12.872077,-13.87192 -15.164807,-14.91576 -2.33757,-1.06399 -2.55121,-0.97039 -18.63516,8.16023 -7.53964,4.28006 -15.96296,9.0367 -18.71834,10.57067 -2.75558,1.53363 -5.41869,3.34054 -5.91824,4.0154 -1.6293,2.20116 0.66881,16.39308 3.44511,21.26935 2.81676,4.94842 11.8447,11.74838 19.14387,14.41781 7.60197,2.78083 20.86475,4.01029 27.369357,2.53739 z" />
  <path
     style="fill:url(#linearGradient4574);fill-opacity:1;display:inline"
     id="path4609"
     inkscape:connector-curvature="0"
     d="m 91.29769,217.73206 c 3.80223,-0.86187 20.43561,-6.62172 26.99636,-9.34995 9.11392,-3.78979 23.72565,-12.28333 31.71548,-18.43546 9.54804,-7.35206 16.55833,-14.21722 27.94846,-27.36967 17.48492,-20.19007 29.32823,-40.02434 35.98431,-60.26332 3.06754,-9.327978 3.65447,-12.988422 3.29599,-20.557144 -0.7111,-15.115546 -9.66019,-31.136486 -20.39052,-36.524505 -3.04403,-1.528418 -4.27157,-1.675016 -11.90839,-1.421985 -9.71549,0.321889 -11.14101,0.933303 -13.21976,5.662434 -3.31983,7.553922 -14.11487,38.783781 -14.02752,40.58107 0.14415,2.9662 5.14985,10.12203 11.06262,15.81443 6.56414,6.3196 6.67813,7.36365 1.76902,16.19256 -10.02578,18.02902 -22.83818,32.33072 -39.08138,43.62419 -8.42602,5.85851 -19.75726,12.15545 -22.17221,12.32156 -3.43071,0.23598 -4.78538,-0.6677 -9.49386,-6.3293 -5.53319,-6.65365 -12.872067,-13.87192 -15.164807,-14.91576 -2.33756,-1.06399 -2.5512,-0.97039 -18.63515,8.16023 -7.53965,4.28005 -15.96296,9.0367 -18.71834,10.57067 -2.75558,1.53362 -5.4187,3.34053 -5.91825,4.01539 -1.62929,2.20117 0.66882,16.39309 3.44512,21.26936 2.81675,4.94841 11.8447,11.74838 19.14386,14.4178 7.60198,2.78083 20.86476,4.0103 27.369367,2.53739 z" />
  <path
     style="opacity:0.3;fill:#ffffff;fill-opacity:1;display:inline"
     id="path3868"
     inkscape:connector-curvature="0"
     d="m 163.26754,178.47483 c -4.36972,4.27949 -8.46831,7.83527 -13.24233,11.5113 -7.9898,6.15215 -22.65037,14.64557 -31.76426,18.4354 -6.56078,2.7282 -23.20175,8.48561 -27.00396,9.34751 -6.504607,1.47291 -19.748177,0.1843 -27.350147,-2.59652 -6.09706,-2.2298 -13.34179,-7.35017 -17.22368,-11.85751 4.04791,3.66885 9.60057,7.31288 14.45404,9.08787 7.60198,2.78083 20.84555,4.06943 27.350157,2.59653 3.8022,-0.8619 20.44317,-6.61932 27.00395,-9.34752 9.1139,-3.78982 23.77446,-12.28324 31.76427,-18.43539 9.54805,-7.35207 16.56588,-14.28426 27.95588,-27.43685 17.48492,-20.19008 29.34921,-40.00057 36.00527,-60.23959 3.06754,-9.327976 3.64744,-13.030422 3.28894,-20.599166 -0.52083,-11.071213 -5.55418,-22.524335 -12.37681,-30.03325 8.22332,7.205673 14.55747,20.282997 15.14644,32.802881 0.35851,7.568751 -0.22139,11.271198 -3.28894,20.599165 -6.65606,20.23903 -18.52035,40.04952 -36.00527,60.23959 -5.69491,6.57638 -10.3437,11.64621 -14.71355,15.92555 z m -62.05716,-5.10651 c -1.12908,-0.97569 -2.42659,-2.23244 -4.24101,-4.41411 -2.15497,-2.59136 -4.453,-5.25197 -6.75099,-7.6165 3.00699,2.8859 6.45829,6.70368 9.52063,10.38614 0.5727,0.68863 0.98812,1.09009 1.47137,1.64447 z" />
  <path
     style="opacity:0.1;fill:#000000;fill-opacity:1;display:inline"
     id="path3877"
     inkscape:connector-curvature="0"
     d="m 151.06383,154.50017 c -5.15902,5.12027 -10.78627,9.69969 -16.87747,13.93473 -8.42602,5.85852 -19.74216,12.12416 -22.15709,12.29026 -3.01343,0.20729 -4.55953,-0.58385 -8.04926,-4.58721 1.80093,1.55631 3.17093,1.96264 5.27962,1.81758 2.41493,-0.16611 13.73107,-6.43175 22.15709,-12.29027 16.24323,-11.29344 29.09531,-25.59277 39.12112,-43.62177 4.08123,-7.33998 4.63432,-9.33206 0.95206,-13.41542 6.56414,6.31959 6.72668,7.35615 1.81757,16.18505 -6.26611,11.26814 -13.64322,21.15532 -22.24364,29.68705 z m 19.8202,-46.47796 c -0.62173,-0.65058 -1.34325,-1.3738 -2.16377,-2.16378 -5.91276,-5.6924 -10.84784,-12.872649 -10.992,-15.838855 -0.0873,-1.797289 10.70148,-32.952004 14.02129,-40.505934 2.07876,-4.72913 3.44025,-5.390515 13.15578,-5.712369 7.63682,-0.253031 8.90002,-0.143606 11.94405,1.384812 2.87099,1.441607 5.55696,3.748352 8.04926,6.491332 -1.70488,-1.493876 -3.437,-2.796451 -5.27962,-3.721693 -3.04403,-1.528419 -4.30724,-1.637851 -11.94406,-1.38482 -9.71552,0.321861 -11.07701,0.983247 -13.15577,5.712377 -3.31982,7.553922 -14.10863,38.708644 -14.02129,40.505933 0.13913,2.862552 4.74583,9.647467 10.38613,15.232997 z m -77.89601,56.08514 c -2.42616,-2.32849 -4.602,-4.12109 -5.625827,-4.58722 -2.33756,-1.06398 -2.52454,-0.90825 -18.60849,8.22236 -7.53962,4.28009 -15.93966,9.02527 -18.69505,10.55924 -2.75558,1.53361 -5.38593,3.30649 -5.88547,3.98135 -1.62929,2.20117 0.59923,16.32879 3.3755,21.20503 0.46388,0.81496 1.13876,1.70786 1.90412,2.59653 -2.03976,-1.84875 -3.72984,-3.70823 -4.67376,-5.36617 -2.77627,-4.87624 -5.00479,-19.00386 -3.37549,-21.20502 0.4994,-0.67501 3.12989,-2.44774 5.88547,-3.98135 2.75538,-1.53398 11.15542,-6.27916 18.69504,-10.55924 16.08395,-9.13062 16.27093,-9.28635 18.6085,-8.22236 1.3998,0.63731 4.793047,3.65013 8.395457,7.35685 z" />
</svg>
