<?xml version="1.0" encoding="UTF-8" standalone="no"?>
<!-- Created with Inkscape (http://www.inkscape.org/) -->

<svg
   xmlns:dc="http://purl.org/dc/elements/1.1/"
   xmlns:cc="http://creativecommons.org/ns#"
   xmlns:rdf="http://www.w3.org/1999/02/22-rdf-syntax-ns#"
   xmlns:svg="http://www.w3.org/2000/svg"
   xmlns="http://www.w3.org/2000/svg"
   xmlns:xlink="http://www.w3.org/1999/xlink"
   xmlns:sodipodi="http://sodipodi.sourceforge.net/DTD/sodipodi-0.dtd"
   xmlns:inkscape="http://www.inkscape.org/namespaces/inkscape"
   version="1.0"
   width="256"
   height="256"
   id="svg2408"
   inkscape:version="0.48.1 r9760"
   sodipodi:docname="call-stop.svg">
  <sodipodi:namedview
     pagecolor="#ffffff"
     bordercolor="#666666"
     borderopacity="1"
     objecttolerance="10"
     gridtolerance="10"
     guidetolerance="10"
     inkscape:pageopacity="0"
     inkscape:pageshadow="2"
     inkscape:window-width="983"
     inkscape:window-height="534"
     id="namedview93"
     showgrid="false"
     inkscape:zoom="1.4882812"
     inkscape:cx="128"
     inkscape:cy="128"
     inkscape:window-x="41"
     inkscape:window-y="24"
     inkscape:window-maximized="1"
     inkscape:current-layer="svg2408" />
  <defs
     id="defs2410">
    <linearGradient
       id="linearGradient3637">
      <stop
         id="stop3639"
         style="stop-color:#f0f0f0;stop-opacity:1"
         offset="0" />
      <stop
         id="stop3641"
         style="stop-color:#aaaaaa;stop-opacity:1"
         offset="1" />
    </linearGradient>
    <linearGradient
       x1="45.447727"
       y1="92.539597"
       x2="45.447727"
       y2="7.0165396"
       id="ButtonShadow"
       gradientUnits="userSpaceOnUse"
       gradientTransform="scale(1.0058652,0.994169)">
      <stop
         id="stop3750"
         style="stop-color:#000000;stop-opacity:1"
         offset="0" />
      <stop
         id="stop3752"
         style="stop-color:#000000;stop-opacity:0.58823532"
         offset="1" />
    </linearGradient>
    <linearGradient
       id="linearGradient3737">
      <stop
         id="stop3739"
         style="stop-color:#ffffff;stop-opacity:1"
         offset="0" />
      <stop
         id="stop3741"
         style="stop-color:#ffffff;stop-opacity:0"
         offset="1" />
    </linearGradient>
    <linearGradient
       id="linearGradient3700">
      <stop
         id="stop3702"
         style="stop-color:#2276c5;stop-opacity:1"
         offset="0" />
      <stop
         id="stop3704"
         style="stop-color:#68baf4;stop-opacity:1"
         offset="1" />
    </linearGradient>
    <filter
       color-interpolation-filters="sRGB"
       id="filter3174">
      <feGaussianBlur
         id="feGaussianBlur3176"
         stdDeviation="1.71" />
    </filter>
    <linearGradient
       x1="36.357143"
       y1="6"
       x2="36.357143"
       y2="63.893143"
       id="linearGradient3188"
       xlink:href="#linearGradient3737"
       gradientUnits="userSpaceOnUse" />
    <filter
       x="-0.192"
       y="-0.192"
       width="1.3839999"
       height="1.3839999"
       color-interpolation-filters="sRGB"
       id="filter3794">
      <feGaussianBlur
         id="feGaussianBlur3796"
         stdDeviation="5.28" />
    </filter>
    <linearGradient
       x1="48"
       y1="20.220806"
       x2="48"
       y2="138.66119"
       id="linearGradient3613"
       xlink:href="#linearGradient3737"
       gradientUnits="userSpaceOnUse" />
    <radialGradient
       cx="48"
       cy="90.171875"
       r="42"
       fx="48"
       fy="90.171875"
       id="radialGradient3619"
       xlink:href="#linearGradient3737"
       gradientUnits="userSpaceOnUse"
       gradientTransform="matrix(1.1573129,0,0,0.99590774,-7.5510206,0.19713193)" />
    <clipPath
       id="clipPath3613">
      <rect
         width="84"
         height="84"
         rx="6"
         ry="6"
         x="6"
         y="6"
         id="rect3615"
         style="fill:#ffffff;fill-opacity:1;fill-rule:nonzero;stroke:none" />
    </clipPath>
    <linearGradient
       x1="48"
       y1="90"
       x2="48"
       y2="5.9877172"
       id="linearGradient2843"
       xlink:href="#linearGradient3700"
       gradientUnits="userSpaceOnUse"
       gradientTransform="translate(0,100)" />
    <clipPath
       id="clipPath3625">
      <path
         d="M 0,0 0,96 96,96 96,0 0,0 z m 12,6 72,0 c 3.324,0 6,2.676 6,6 l 0,72 c 0,3.324 -2.676,6 -6,6 L 12,90 C 8.676,90 6,87.324 6,84 L 6,12 C 6,8.676 8.676,6 12,6 z"
         inkscape:connector-curvature="0"
         id="path3627"
         style="fill:#ffffff;fill-opacity:1;stroke:none" />
    </clipPath>
    <linearGradient
       x1="44.512066"
       y1="6"
       x2="44.512066"
       y2="90.015434"
       id="linearGradient3643"
       xlink:href="#linearGradient3637"
       gradientUnits="userSpaceOnUse" />
    <clipPath
       id="clipPath3649">
      <rect
         width="76"
         height="76"
         rx="4"
         ry="4"
         x="10"
         y="10"
         id="rect3651"
         style="fill:#ffffff;fill-opacity:1;fill-rule:nonzero;stroke:none" />
    </clipPath>
    <filter
       color-interpolation-filters="sRGB"
       id="filter3657">
      <feGaussianBlur
         id="feGaussianBlur3659"
         stdDeviation="1.14" />
    </filter>
    <linearGradient
       id="linearGradient3183-0">
      <stop
         id="stop3185-9"
         style="stop-color:#c80000;stop-opacity:1"
         offset="0" />
      <stop
         id="stop3187-6"
         style="stop-color:#ff0000;stop-opacity:1;"
         offset="1" />
    </linearGradient>
    <linearGradient
       inkscape:collect="always"
       xlink:href="#linearGradient3183-0"
       id="linearGradient3736"
       gradientUnits="userSpaceOnUse"
       gradientTransform="matrix(-5.3986606,4.7037557,-4.7986831,-5.2889455,5246.2822,-1033.9726)"
       x1="647.27832"
       y1="349.10172"
       x2="639.46515"
       y2="357.89178" />
  </defs>
  <metadata
     id="metadata2413">
    <rdf:RDF>
      <cc:Work
         rdf:about="">
        <dc:format>image/svg+xml</dc:format>
        <dc:type
           rdf:resource="http://purl.org/dc/dcmitype/StillImage" />
        <dc:title />
      </cc:Work>
    </rdf:RDF>
  </metadata>
  <g
     id="layer2"
     style="display:none"
     transform="translate(0,160)">
    <rect
       width="86"
       height="85"
       rx="6"
       ry="6"
       x="5"
       y="7"
       clip-path="url(#clipPath3625)"
       id="rect3745"
       style="opacity:0.9;fill:url(#ButtonShadow);fill-opacity:1;fill-rule:nonzero;stroke:none;filter:url(#filter3174)" />
  </g>
  <g
     id="layer1"
     style="display:none"
     transform="translate(0,160)">
    <rect
       width="84"
       height="84"
       rx="6"
       ry="6"
       x="6"
       y="6"
       id="rect2419"
       style="opacity:0.8;fill:#000000;fill-opacity:1;fill-rule:nonzero;stroke:none" />
    <path
       d="m 14,10 c -2.216,0 -4,1.784 -4,4 l 0,68 c 0,2.216 1.784,4 4,4 l 68,0 c 2.216,0 4,-1.784 4,-4 l 0,-68 c 0,-2.216 -1.784,-4 -4,-4 l -68,0 z m 0,3.0625 68,0 c 0.578769,0 0.9375,0.358731 0.9375,0.9375 l 0,68 c 0,0.578769 -0.358731,0.9375 -0.9375,0.9375 l -68,0 c -0.578769,0 -0.9375,-0.358731 -0.9375,-0.9375 l 0,-68 c 0,-0.578769 0.358731,-0.9375 0.9375,-0.9375 z"
       inkscape:connector-curvature="0"
       id="rect3726"
       style="opacity:0.07999998;fill:#000000;fill-opacity:1;fill-rule:nonzero;stroke:none" />
    <path
       d="M 12,6 C 8.676,6 6,8.676 6,12 l 0,72 c 0,3.324 2.676,6 6,6 l 72,0 c 3.324,0 6,-2.676 6,-6 L 90,12 C 90,8.676 87.324,6 84,6 L 12,6 z m 2,4 68,0 c 2.216,0 4,1.784 4,4 l 0,68 c 0,2.216 -1.784,4 -4,4 l -68,0 c -2.216,0 -4,-1.784 -4,-4 l 0,-68 c 0,-2.216 1.784,-4 4,-4 z"
       inkscape:connector-curvature="0"
       id="rect3629"
       style="fill:url(#linearGradient3643);fill-opacity:1;fill-rule:nonzero;stroke:none" />
    <path
       d="M 12,6 C 8.676,6 6,8.676 6,12 l 0,2 0,68 0,2 c 0,0.334721 0.04135,0.6507 0.09375,0.96875 0.0487,0.295596 0.09704,0.596915 0.1875,0.875 0.00988,0.03038 0.020892,0.0636 0.03125,0.09375 0.098865,0.287771 0.2348802,0.547452 0.375,0.8125 0.1445918,0.273507 0.3156161,0.535615 0.5,0.78125 0.1843839,0.245635 0.3737765,0.473472 0.59375,0.6875 0.439947,0.428056 0.94291,0.814526 1.5,1.09375 0.278545,0.139612 0.5734731,0.246947 0.875,0.34375 -0.2562018,-0.100222 -0.4867109,-0.236272 -0.71875,-0.375 -0.00741,-0.0044 -0.023866,0.0045 -0.03125,0 -0.031933,-0.0193 -0.062293,-0.04251 -0.09375,-0.0625 -0.120395,-0.0767 -0.2310226,-0.163513 -0.34375,-0.25 -0.1061728,-0.0808 -0.2132809,-0.161112 -0.3125,-0.25 C 8.4783201,88.557317 8.3087904,88.373362 8.15625,88.1875 8.0486711,88.057245 7.9378561,87.922215 7.84375,87.78125 7.818661,87.74287 7.805304,87.69538 7.78125,87.65625 7.716487,87.553218 7.6510225,87.451733 7.59375,87.34375 7.4927417,87.149044 7.3880752,86.928049 7.3125,86.71875 7.30454,86.69694 7.288911,86.6782 7.28125,86.65625 7.2494249,86.5643 7.2454455,86.469419 7.21875,86.375 7.1884177,86.268382 7.1483606,86.171969 7.125,86.0625 7.0521214,85.720988 7,85.364295 7,85 L 7,83 7,15 7,13 C 7,10.218152 9.2181517,8 12,8 l 2,0 68,0 2,0 c 2.781848,0 5,2.218152 5,5 l 0,2 0,68 0,2 c 0,0.364295 -0.05212,0.720988 -0.125,1.0625 -0.04415,0.206893 -0.08838,0.397658 -0.15625,0.59375 -0.0077,0.02195 -0.0233,0.04069 -0.03125,0.0625 -0.06274,0.173739 -0.138383,0.367449 -0.21875,0.53125 -0.04158,0.0828 -0.07904,0.169954 -0.125,0.25 -0.0546,0.09721 -0.126774,0.18835 -0.1875,0.28125 -0.09411,0.140965 -0.204921,0.275995 -0.3125,0.40625 -0.143174,0.17445 -0.303141,0.346998 -0.46875,0.5 -0.01117,0.0102 -0.01998,0.02115 -0.03125,0.03125 -0.138386,0.125556 -0.285091,0.234436 -0.4375,0.34375 -0.102571,0.07315 -0.204318,0.153364 -0.3125,0.21875 -0.0074,0.0045 -0.02384,-0.0044 -0.03125,0 -0.232039,0.138728 -0.462548,0.274778 -0.71875,0.375 0.301527,-0.0968 0.596455,-0.204138 0.875,-0.34375 0.55709,-0.279224 1.060053,-0.665694 1.5,-1.09375 0.219973,-0.214028 0.409366,-0.441865 0.59375,-0.6875 0.184384,-0.245635 0.355408,-0.507743 0.5,-0.78125 0.14012,-0.265048 0.276135,-0.524729 0.375,-0.8125 0.01041,-0.03078 0.02133,-0.06274 0.03125,-0.09375 0.09046,-0.278085 0.1388,-0.579404 0.1875,-0.875 C 89.95865,84.6507 90,84.334721 90,84 l 0,-2 0,-68 0,-2 C 90,8.676 87.324,6 84,6 L 12,6 z"
       inkscape:connector-curvature="0"
       id="rect3728"
       style="fill:url(#linearGradient3188);fill-opacity:1;fill-rule:nonzero;stroke:none" />
    <path
       d="M 12,90 C 8.676,90 6,87.324 6,84 L 6,82 6,14 6,12 c 0,-0.334721 0.04135,-0.6507 0.09375,-0.96875 0.0487,-0.295596 0.09704,-0.596915 0.1875,-0.875 C 6.29113,10.12587 6.302142,10.09265 6.3125,10.0625 6.411365,9.774729 6.5473802,9.515048 6.6875,9.25 6.8320918,8.976493 7.0031161,8.714385 7.1875,8.46875 7.3718839,8.223115 7.5612765,7.995278 7.78125,7.78125 8.221197,7.353194 8.72416,6.966724 9.28125,6.6875 9.559795,6.547888 9.8547231,6.440553 10.15625,6.34375 9.9000482,6.443972 9.6695391,6.580022 9.4375,6.71875 c -0.00741,0.0044 -0.023866,-0.0045 -0.03125,0 -0.031933,0.0193 -0.062293,0.04251 -0.09375,0.0625 -0.120395,0.0767 -0.2310226,0.163513 -0.34375,0.25 -0.1061728,0.0808 -0.2132809,0.161112 -0.3125,0.25 C 8.4783201,7.442683 8.3087904,7.626638 8.15625,7.8125 8.0486711,7.942755 7.9378561,8.077785 7.84375,8.21875 7.818661,8.25713 7.805304,8.30462 7.78125,8.34375 7.716487,8.446782 7.6510225,8.548267 7.59375,8.65625 7.4927417,8.850956 7.3880752,9.071951 7.3125,9.28125 7.30454,9.30306 7.288911,9.3218 7.28125,9.34375 7.2494249,9.4357 7.2454455,9.530581 7.21875,9.625 7.1884177,9.731618 7.1483606,9.828031 7.125,9.9375 7.0521214,10.279012 7,10.635705 7,11 l 0,2 0,68 0,2 c 0,2.781848 2.2181517,5 5,5 l 2,0 68,0 2,0 c 2.781848,0 5,-2.218152 5,-5 l 0,-2 0,-68 0,-2 C 89,10.635705 88.94788,10.279012 88.875,9.9375 88.83085,9.730607 88.78662,9.539842 88.71875,9.34375 88.71105,9.3218 88.69545,9.30306 88.6875,9.28125 88.62476,9.107511 88.549117,8.913801 88.46875,8.75 88.42717,8.6672 88.38971,8.580046 88.34375,8.5 88.28915,8.40279 88.216976,8.31165 88.15625,8.21875 88.06214,8.077785 87.951329,7.942755 87.84375,7.8125 87.700576,7.63805 87.540609,7.465502 87.375,7.3125 87.36383,7.3023 87.35502,7.29135 87.34375,7.28125 87.205364,7.155694 87.058659,7.046814 86.90625,6.9375 86.803679,6.86435 86.701932,6.784136 86.59375,6.71875 c -0.0074,-0.0045 -0.02384,0.0044 -0.03125,0 -0.232039,-0.138728 -0.462548,-0.274778 -0.71875,-0.375 0.301527,0.0968 0.596455,0.204138 0.875,0.34375 0.55709,0.279224 1.060053,0.665694 1.5,1.09375 0.219973,0.214028 0.409366,0.441865 0.59375,0.6875 0.184384,0.245635 0.355408,0.507743 0.5,0.78125 0.14012,0.265048 0.276135,0.524729 0.375,0.8125 0.01041,0.03078 0.02133,0.06274 0.03125,0.09375 0.09046,0.278085 0.1388,0.579404 0.1875,0.875 C 89.95865,11.3493 90,11.665279 90,12 l 0,2 0,68 0,2 c 0,3.324 -2.676,6 -6,6 l -72,0 z"
       inkscape:connector-curvature="0"
       id="path3615"
       style="opacity:0.6;fill:url(#radialGradient3619);fill-opacity:1;fill-rule:nonzero;stroke:none" />
    <rect
       width="84"
       height="84"
       rx="6"
       ry="6"
       x="6"
       y="106"
       id="rect2841"
       style="fill:url(#linearGradient2843);fill-opacity:1;fill-rule:nonzero;stroke:none" />
    <rect
       width="76"
       height="76"
       rx="4"
       ry="4"
       x="10"
       y="110"
       id="rect3634"
       style="fill:#ff0000;fill-opacity:1;fill-rule:nonzero;stroke:none" />
    <path
       d="m 14,9 c -2.752703,0 -5,2.247297 -5,5 l 0,68 c 0,2.752703 2.247297,5 5,5 l 68,0 c 2.752703,0 5,-2.247297 5,-5 L 87,14 C 87,11.247297 84.752703,9 82,9 L 14,9 z m 0,2 68,0 c 1.679297,0 3,1.320703 3,3 l 0,68 c 0,1.679297 -1.320703,3 -3,3 l -68,0 c -1.679297,0 -3,-1.320703 -3,-3 l 0,-68 c 0,-1.679297 1.320703,-3 3,-3 z"
       inkscape:connector-curvature="0"
       transform="translate(-110,0)"
       clip-path="url(#clipPath3649)"
       id="rect3647"
       style="font-size:medium;font-style:normal;font-variant:normal;font-weight:normal;font-stretch:normal;text-indent:0;text-align:start;text-decoration:none;line-height:normal;letter-spacing:normal;word-spacing:normal;text-transform:none;direction:ltr;block-progression:tb;writing-mode:lr-tb;text-anchor:start;color:#000000;fill:#000000;fill-opacity:1;stroke:none;stroke-width:2;marker:none;visibility:visible;display:inline;overflow:visible;filter:url(#filter3657);enable-background:accumulate;font-family:Abandoned Bitplane;-inkscape-font-specification:Abandoned Bitplane" />
    <path
       d="m 14.089286,10 c -2.216,0 -4,1.784 -4,4 l 0,68 c 0,2.216 1.784,4 4,4 l 68,0 c 2.216,0 4,-1.784 4,-4 l 0,-68 c 0,-2.216 -1.784,-4 -4,-4 l -68,0 z m 0,2 68,0 c 1.140301,0 2,0.859699 2,2 l 0,68 c 0,1.140301 -0.859699,2 -2,2 l -68,0 c -1.140301,0 -2,-0.859699 -2,-2 l 0,-68 c 0,-1.140301 0.859699,-2 2,-2 z"
       inkscape:connector-curvature="0"
       id="path3709"
       style="opacity:0.16000001;fill:#000000;fill-opacity:1;fill-rule:nonzero;stroke:none" />
    <path
       d="m 14,10 c -2.216,0 -4,1.784 -4,4 l 0,68 c 0,2.216 1.784,4 4,4 l 68,0 c 2.216,0 4,-1.784 4,-4 l 0,-68 c 0,-2.216 -1.784,-4 -4,-4 l -68,0 z m 0,1 68,0 c 1.673848,0 3,1.326152 3,3 l 0,68 c 0,1.673848 -1.326152,3 -3,3 l -68,0 c -1.673848,0 -3,-1.326152 -3,-3 l 0,-68 c 0,-1.673848 1.326152,-3 3,-3 z"
       inkscape:connector-curvature="0"
       id="path3707"
       style="opacity:0.36000001;fill:#000000;fill-opacity:1;fill-rule:nonzero;stroke:none" />
  </g>
  <g
     id="layer5"
     style="display:none"
     transform="translate(0,160)">
    <rect
       width="66"
       height="66"
       rx="12"
       ry="12"
       x="15"
       y="15"
       clip-path="url(#clipPath3613)"
       id="rect3171"
       style="opacity:0.1;fill:url(#linearGradient3613);fill-opacity:1;fill-rule:nonzero;stroke:#ffffff;stroke-width:0.5;stroke-linecap:round;stroke-linejoin:miter;stroke-miterlimit:4;stroke-opacity:1;stroke-dasharray:none;stroke-dashoffset:0;filter:url(#filter3794)" />
  </g>
  <path
     style="opacity:0.1;fill:#000000;fill-opacity:1;display:inline"
     id="path3896"
     inkscape:connector-curvature="0"
     d="m 117.77944,77.528961 c -29.855002,0.14963 -58.856121,10.43666 -84.391056,25.380689 -15.728085,11.97391 -26.5554301,32.4756 -22.588108,52.46685 3.950225,9.46994 10.239487,23.01972 22.032321,23.13393 14.488874,-3.20837 28.681719,-7.76203 43.00849,-11.64896 10.217263,-2.14609 10.800048,-13.7486 10.086228,-22.11916 0.180881,-7.24278 -4.292409,-17.71744 6.975323,-17.13801 23.431122,-7.13037 48.942442,-6.40266 72.123892,1.33341 0.61201,9.66563 -0.66075,21.15134 6.42478,28.80187 12.87103,7.88874 26.86584,13.98596 40.6999,20.03644 9.50663,4.85013 18.23608,-2.93713 24.32203,-9.48991 11.68125,-10.79604 9.70582,-29.22967 3.73429,-42.48494 -6.45468,-15.20305 -19.98571,-26.004839 -35.02586,-32.047019 -27.31291,-12.37182 -57.6772,-16.09742 -87.40223,-16.22519 z" />
  <path
     inkscape:connector-curvature="0"
     style="opacity:0.15;fill:#000000;fill-opacity:1;display:inline"
     id="path3892"
     d="m 117.77944,81.445821 c -6.25372,0.0654 -11.88346,0.55255 -17.993062,1.34642 -10.561351,1.37239 -26.817009,5.68453 -36.475736,9.66974 -3.464163,1.4293 -9.084951,4.06609 -14.321009,6.6097 -5.236059,2.543599 -9.804857,4.739159 -11.995375,6.120079 -7.008135,4.4203 -15.115277,14.5827 -18.972277,22.88914 -1.869151,4.02457 -3.021299,8.76792 -3.672053,13.46419 -0.650755,4.69628 -0.775538,9.13529 0.244803,12.85219 1.049659,3.82505 3.570721,8.02537 6.364893,11.87298 1.397084,1.9238 2.897981,3.7167 4.284063,5.14087 0.69304,0.71209 1.337403,1.28395 2.08083,1.83603 0.743427,0.55208 1.412387,1.11869 2.937643,1.34642 1.011885,0.15119 1.480768,0.0697 2.08083,0 0.600063,-0.0697 1.259857,-0.10968 1.958429,-0.24481 1.397146,-0.27026 3.028674,-0.76175 4.651267,-1.22401 2.98577,-0.85024 12.211519,-3.44966 20.5635,-5.75289 8.911798,-2.45759 13.443061,-3.56391 16.279438,-4.65127 1.418188,-0.5437 2.517767,-1.07502 3.549652,-2.08083 1.031884,-1.00581 1.591599,-2.28482 1.836026,-2.93764 0.542607,-1.44967 0.608167,-2.58422 0.734411,-4.16166 0.12624,-1.57744 0.112453,-3.46235 0.122402,-5.50808 0.01998,-4.09147 -0.202541,-8.88829 -0.612009,-13.3418 -0.328233,-3.57107 -0.285656,-5.48454 -0.122402,-6.24249 0.163255,-0.75795 0.181703,-0.6831 1.224018,-1.59122 -0.64269,0.55995 0.520515,-0.32275 1.958429,-0.85681 1.437913,-0.53403 3.397928,-1.07353 5.630482,-1.71363 4.465105,-1.28018 10.045307,-2.67114 14.933017,-3.54965 18.90655,-3.3985 37.34898,-2.45226 56.67203,3.06005 4.77788,1.36326 6.58769,2.35669 6.8545,2.69284 0.26682,0.33606 0.57437,1.77707 0.48961,6.24249 -0.0831,4.37783 0.29968,8.87571 0.97921,12.60738 0.67953,3.73167 1.21589,6.48553 3.54965,9.05773 0.81496,0.89822 0.9676,0.86359 1.34642,1.10162 0.37884,0.23814 0.71922,0.45181 1.22402,0.73441 1.0096,0.56516 2.35896,1.27705 3.91686,2.08083 3.11579,1.60756 7.22189,3.67244 11.50576,5.75288 8.56776,4.16088 17.80098,8.38928 22.03233,10.03695 2.63489,1.02579 5.64512,1.75142 8.56812,0.61201 2.923,-1.13941 5.20455,-3.23274 8.81293,-6.6097 2.80811,-2.62801 4.44124,-4.22899 5.75288,-5.87528 1.31165,-1.6463 2.10115,-3.35581 2.69284,-5.14088 4.47239,-13.49365 -1.11186,-31.83762 -12.24018,-44.06464 -5.27111,-5.7953 -9.08615,-8.59852 -17.99306,-13.096989 -19.56654,-9.88176 -42.49883,-15.68537 -69.52421,-17.62586 -8.73482,-0.62721 -15.63823,-0.92242 -21.90992,-0.85681 z" />
  <path
     style="opacity:0.3;fill:#000000;fill-opacity:1;display:inline"
     id="path3886"
     inkscape:connector-curvature="0"
     d="m 39.130014,108.49399 c 3.298021,-2.07915 19.132426,-9.767899 25.700725,-12.477889 9.124303,-3.76473 25.462195,-8.09094 35.462071,-9.39039 11.95018,-1.5528 21.7616,-1.65543 39.11582,-0.40928 26.64025,1.91284 49.03967,7.5633 68.05736,17.167859 8.76495,4.42679 11.7683,6.6001 16.86671,12.20548 10.18548,11.19112 15.18603,28.84761 11.40845,40.245 -1.0717,3.23321 -1.83604,4.20486 -7.41501,9.42599 -7.0975,6.64229 -8.53783,7.21795 -13.35173,5.34385 -7.6889,-2.99397 -37.40499,-17.44357 -38.6141,-18.7762 -1.99549,-2.19935 -3.51586,-10.79885 -3.36004,-19.00494 0.17292,-9.11018 -0.48474,-9.92904 -10.19898,-12.70076 -19.83774,-5.65916 -39.0103,-6.71224 -58.48167,-3.21226 -10.100692,1.81551 -22.5657,5.3753 -24.390772,6.96547 -2.592748,2.25901 -2.911643,3.85591 -2.237685,11.18866 0.792287,8.6174 0.706997,18.91086 -0.176102,21.27018 -0.900555,2.40526 -1.117812,2.49014 -18.947201,7.40689 -8.357793,2.30487 -17.67743,4.8976 -20.71046,5.76127 -3.03292,0.86405 -6.193707,1.46948 -7.024139,1.34551 -2.708546,-0.40437 -11.118739,-12.06458 -12.603647,-17.47576 -1.507305,-5.49081 0.06811,-16.68283 3.341835,-23.73169 3.409064,-7.34175 11.917903,-17.58931 17.558855,-21.14727 z" />
  <path
     style="fill:url(#linearGradient3736);fill-opacity:1;display:inline"
     id="path4609"
     inkscape:connector-curvature="0"
     d="m 39.130014,104.57713 c 3.298021,-2.07914 19.132426,-9.767899 25.700725,-12.477889 9.124303,-3.76473 25.462195,-8.09094 35.462071,-9.39039 11.95018,-1.5528 21.7616,-1.65542 39.11582,-0.40927 26.64025,1.91283 49.03967,7.56329 68.05736,17.16785 8.76495,4.426799 11.7683,6.600099 16.86671,12.205479 10.18548,11.19113 15.18603,28.84761 11.40845,40.245 -1.0717,3.23321 -1.83604,4.20487 -7.41501,9.426 -7.0975,6.64228 -8.53783,7.21794 -13.35173,5.34384 -7.6889,-2.99396 -37.40499,-17.44356 -38.6141,-18.7762 -1.99549,-2.19935 -3.51586,-10.79885 -3.36004,-19.00494 0.17292,-9.11018 -0.48474,-9.92904 -10.19898,-12.70076 -19.83774,-5.65915 -39.0103,-6.71224 -58.48167,-3.21225 -10.100692,1.8155 -22.5657,5.37529 -24.390772,6.96546 -2.592748,2.25901 -2.911643,3.85591 -2.237685,11.18866 0.792287,8.6174 0.706997,18.91086 -0.176102,21.27018 -0.900555,2.40526 -1.117812,2.49014 -18.947201,7.40689 -8.357793,2.30488 -17.67743,4.8976 -20.71046,5.76127 -3.03292,0.86406 -6.193707,1.46949 -7.024139,1.34552 -2.708546,-0.40438 -11.118739,-12.06459 -12.603647,-17.47577 -1.507305,-5.4908 0.06811,-16.68283 3.341835,-23.73168 3.409064,-7.34176 11.917903,-17.58932 17.558855,-21.14727 z" />
  <path
     style="opacity:0.3;fill:#ffffff;fill-opacity:1;display:inline"
     id="path3868"
     inkscape:connector-curvature="0"
     d="m 117.77944,81.445821 c -6.11591,0.0638 -11.52837,0.44762 -17.50346,1.22402 -9.999869,1.29941 -26.372214,5.66025 -35.496517,9.42493 -6.568299,2.71004 -22.406354,10.405879 -25.704375,12.484989 -5.640952,3.55795 -14.094391,13.83375 -17.503455,21.1755 -2.73457,5.88798 -4.236719,14.63142 -3.794455,20.5635 0.26803,-5.45657 1.617638,-11.95961 3.794455,-16.64664 3.409064,-7.34176 11.862503,-17.61755 17.503455,-21.17551 3.298021,-2.0791 19.136076,-9.774939 25.704375,-12.484979 9.124303,-3.76469 25.496648,-8.12552 35.496517,-9.42494 11.95019,-1.5528 21.81435,-1.61335 39.16857,-0.36701 26.64025,1.91284 49.0377,7.53165 68.0554,17.136249 8.76495,4.4268 11.79303,6.63477 16.89144,12.24018 7.46025,8.19681 11.99971,19.85451 12.48499,29.98844 0.71958,-10.90994 -4.04856,-24.63593 -12.48499,-33.90529 -5.09841,-5.60542 -8.12649,-7.81339 -16.89144,-12.240179 -19.0177,-9.60461 -41.41515,-15.22342 -68.0554,-17.13625 -8.67711,-0.62329 -15.54921,-0.92101 -21.66511,-0.85701 z M 77.509249,128.93771 c -0.108458,1.48829 -0.137286,3.29443 0.122402,6.12009 0.30857,3.35616 0.564955,6.86245 0.612009,10.15935 0.08562,-4.16691 -0.173517,-9.30692 -0.612009,-14.07621 -0.08198,-0.8919 -0.07211,-1.46952 -0.122402,-2.20323 z" />
  <path
     style="opacity:0.1;fill:#000000;fill-opacity:1;display:inline"
     id="path3877"
     inkscape:connector-curvature="0"
     d="m 126.10276,107.02779 c -7.26856,0.0274 -14.48576,0.76833 -21.78752,2.08083 -10.100692,1.8155 -22.532884,5.38674 -24.357955,6.9769 -2.27739,1.98424 -2.811227,3.63692 -2.448036,8.93533 0.172968,-2.37392 0.854388,-3.62998 2.448036,-5.01847 1.825071,-1.59016 14.257263,-5.1614 24.357955,-6.9769 19.47137,-3.50003 38.67032,-2.47667 58.50806,3.18245 8.07602,2.30428 9.87572,3.3218 10.15934,8.81292 0.17293,-9.11017 -0.4451,-9.95806 -10.15934,-12.72978 -12.39859,-3.53696 -24.60628,-5.31185 -36.72054,-5.26328 z m 46.87988,18.84988 c 0.0204,0.89966 0.0216,1.92125 0,3.06004 -0.15581,8.20609 1.43176,16.77292 3.42725,18.97228 1.20912,1.33263 30.86767,15.7335 38.55657,18.72747 4.8139,1.8741 6.24429,1.37905 13.34179,-5.26328 5.57897,-5.22113 6.39481,-6.19172 7.46651,-9.42493 1.01073,-3.04947 1.27888,-6.57985 1.10162,-10.28175 -0.1492,2.26186 -0.45293,4.40771 -1.10162,6.36489 -1.0717,3.23321 -1.88754,4.20381 -7.46651,9.42494 -7.0975,6.64232 -8.52789,7.13737 -13.34179,5.26327 -7.6889,-2.99396 -37.34745,-17.39484 -38.55657,-18.72747 -1.92575,-2.12251 -3.46598,-10.1776 -3.42725,-18.11546 z m -94.73898,15.42262 c -0.06906,3.36204 -0.340062,6.16815 -0.734411,7.22171 -0.900556,2.40526 -1.142888,2.42735 -18.972277,7.3441 -8.357794,2.30484 -17.652872,4.88922 -20.685902,5.75289 -3.03292,0.86406 -6.146469,1.47039 -6.976901,1.34642 -2.708546,-0.40438 -11.122476,-11.96992 -12.607384,-17.38106 -0.248251,-0.90428 -0.40241,-2.01287 -0.489607,-3.18244 -0.135054,2.74959 -0.01528,5.25951 0.489607,7.0993 1.484908,5.41114 9.898838,16.97668 12.607384,17.38105 0.830432,0.12417 3.943981,-0.48236 6.976901,-1.34642 3.03303,-0.86366 12.328108,-3.44804 20.685902,-5.75288 17.829389,-4.91675 18.071721,-4.93884 18.972277,-7.34411 0.539163,-1.44046 0.808173,-5.97023 0.734411,-11.13856 z" />
</svg>
