<?xml version="1.0" encoding="UTF-8" standalone="no"?>
<!-- Created with Inkscape (http://www.inkscape.org/) -->

<svg
   xmlns:dc="http://purl.org/dc/elements/1.1/"
   xmlns:cc="http://creativecommons.org/ns#"
   xmlns:rdf="http://www.w3.org/1999/02/22-rdf-syntax-ns#"
   xmlns:svg="http://www.w3.org/2000/svg"
   xmlns="http://www.w3.org/2000/svg"
   xmlns:xlink="http://www.w3.org/1999/xlink"
   xmlns:sodipodi="http://sodipodi.sourceforge.net/DTD/sodipodi-0.dtd"
   xmlns:inkscape="http://www.inkscape.org/namespaces/inkscape"
   version="1.0"
   width="256"
   height="256"
   id="svg2"
   inkscape:version="0.48.2 r9819"
   sodipodi:docname="dialog-cancel.svg">
  <metadata
     id="metadata25">
    <rdf:RDF>
      <cc:Work
         rdf:about="">
        <dc:format>image/svg+xml</dc:format>
        <dc:type
           rdf:resource="http://purl.org/dc/dcmitype/StillImage" />
        <dc:title></dc:title>
      </cc:Work>
    </rdf:RDF>
  </metadata>
  <sodipodi:namedview
     pagecolor="#ffffff"
     bordercolor="#666666"
     borderopacity="1"
     objecttolerance="10"
     gridtolerance="10"
     guidetolerance="10"
     inkscape:pageopacity="0"
     inkscape:pageshadow="2"
     inkscape:window-width="1024"
     inkscape:window-height="572"
     id="namedview23"
     showgrid="false"
     inkscape:zoom="1.6289062"
     inkscape:cx="128"
     inkscape:cy="128"
     inkscape:window-x="0"
     inkscape:window-y="28"
     inkscape:window-maximized="0"
     inkscape:current-layer="svg2"
     inkscape:snap-bbox="true"
     inkscape:bbox-paths="true"
     inkscape:bbox-nodes="true"
     inkscape:snap-bbox-edge-midpoints="true"
     inkscape:snap-bbox-midpoints="true"
     inkscape:object-paths="true"
     inkscape:snap-intersection-paths="true"
     inkscape:object-nodes="true"
     inkscape:snap-smooth-nodes="true"
     inkscape:snap-midpoints="true"
     inkscape:snap-object-midpoints="true"
     inkscape:snap-center="true"
     fit-margin-top="0"
     fit-margin-left="0"
     fit-margin-right="0"
     fit-margin-bottom="0" />
  <defs
     id="defs4">
    <linearGradient
       id="linearGradient4814">
      <stop
         style="stop-color:#ff0000;stop-opacity:1;"
         offset="0"
         id="stop4816" />
      <stop
         style="stop-color:#aa0000;stop-opacity:1;"
         offset="1"
         id="stop4818" />
    </linearGradient>
    <style
       id="style2464"
       type="text/css" />
    <style
       id="style2464-3"
       type="text/css" />
    <linearGradient
       inkscape:collect="always"
       xlink:href="#linearGradient4814"
       id="linearGradient4820"
       x1="132"
       y1="40"
       x2="132"
       y2="208"
       gradientUnits="userSpaceOnUse"
       gradientTransform="translate(-2,2)" />
  </defs>
  <style
     type="text/css"
     id="style4186">

	.st0{fill-rule:evenodd;clip-rule:evenodd;}
	.st1{fill-rule:evenodd;clip-rule:evenodd;fill:#5A9A98;}

</style>
  <style
     type="text/css"
     id="style4186-8">

	.st0{fill-rule:evenodd;clip-rule:evenodd;}
	.st1{fill-rule:evenodd;clip-rule:evenodd;fill:#5A9A98;}

</style>
  <style
     type="text/css"
     id="style4186-9">

	.st0{fill-rule:evenodd;clip-rule:evenodd;}
	.st1{fill-rule:evenodd;clip-rule:evenodd;fill:#5A9A98;}

</style>
  <style
     type="text/css"
     id="style4186-8-2">

	.st0{fill-rule:evenodd;clip-rule:evenodd;}
	.st1{fill-rule:evenodd;clip-rule:evenodd;fill:#5A9A98;}

</style>
  <g
     id="g4848">
    <path
       inkscape:connector-curvature="0"
       id="path4844"
       d="m 189.39697,66.60303 c 32.80404,32.804041 32.80404,85.9899 0,118.79394 -32.80404,32.80404 -85.9899,32.80404 -118.79394,0 -32.80404,-32.80404 -32.80404,-85.989898 0,-118.79394 32.80404,-32.80404 85.9899,-32.804041 118.79394,0 z M 171.7193,84.2807 C 152.3425,64.903902 122.83221,61.808091 100.23522,75.02202 l 80.74276,80.74276 C 194.19191,133.16779 191.0961,103.6575 171.7193,84.2807 z M 159.76478,176.97798 79.02202,96.235224 C 65.80809,118.83221 68.9039,148.3425 88.2807,167.7193 c 19.3768,19.3768 48.88709,22.47261 71.48408,9.25868 z"
       style="opacity:0.1;fill:none;stroke:#000000;stroke-width:12;stroke-linejoin:round;stroke-miterlimit:4;stroke-opacity:1;stroke-dasharray:none" />
    <path
       style="opacity:0.1;fill:none;stroke:#000000;stroke-width:6;stroke-linejoin:round;stroke-miterlimit:4;stroke-opacity:1;stroke-dasharray:none"
       d="m 189.39697,66.60303 c 32.80404,32.804041 32.80404,85.9899 0,118.79394 -32.80404,32.80404 -85.9899,32.80404 -118.79394,0 -32.80404,-32.80404 -32.80404,-85.989898 0,-118.79394 32.80404,-32.80404 85.9899,-32.804041 118.79394,0 z M 171.7193,84.2807 C 152.3425,64.903902 122.83221,61.808091 100.23522,75.02202 l 80.74276,80.74276 C 194.19191,133.16779 191.0961,103.6575 171.7193,84.2807 z M 159.76478,176.97798 79.02202,96.235224 C 65.80809,118.83221 68.9039,148.3425 88.2807,167.7193 c 19.3768,19.3768 48.88709,22.47261 71.48408,9.25868 z"
       id="path4842"
       inkscape:connector-curvature="0" />
    <path
       inkscape:connector-curvature="0"
       id="path4038"
       d="m 189.39697,66.60303 c 32.80404,32.804041 32.80404,85.9899 0,118.79394 -32.80404,32.80404 -85.9899,32.80404 -118.79394,0 -32.80404,-32.80404 -32.80404,-85.989898 0,-118.79394 32.80404,-32.80404 85.9899,-32.804041 118.79394,0 z M 171.7193,84.2807 C 152.3425,64.903902 122.83221,61.808091 100.23522,75.02202 l 80.74276,80.74276 C 194.19191,133.16779 191.0961,103.6575 171.7193,84.2807 z M 159.76478,176.97798 79.02202,96.235224 C 65.80809,118.83221 68.9039,148.3425 88.2807,167.7193 c 19.3768,19.3768 48.88709,22.47261 71.48408,9.25868 z"
       style="fill:url(#linearGradient4820);fill-opacity:1;stroke:none" />
    <path
       inkscape:connector-curvature="0"
       id="path4822"
       d="M 130,42 C 108.50252,42 86.99577,50.19173 70.59375,66.59375 53.937388,83.250113 45.772964,105.17041 46.03125,127 c 0.250398,-21.16291 8.414822,-42.258571 24.5625,-58.40625 32.80404,-32.80404 86.00846,-32.804041 118.8125,0 16.14768,16.147678 24.3121,37.24334 24.5625,58.40625 0.25829,-21.82959 -7.90614,-43.749887 -24.5625,-60.40625 C 173.00423,50.19173 151.49748,42 130,42 z m -28.46875,34.3125 c -0.43096,0.237602 -0.85509,0.469546 -1.28125,0.71875 L 180.96875,157.75 c 5.542,-9.4773 8.22493,-20.16069 8.03125,-30.8125 -0.1556,9.98382 -2.83693,19.92975 -8.03125,28.8125 L 101.53125,76.3125 z M 71,127.0625 c -0.240236,15.4142 5.521361,30.89636 17.28125,42.65625 19.3768,19.3768 48.87176,22.46393 71.46875,9.25 l -1.28125,-1.28125 c -22.42072,12.36116 -51.17613,9.04262 -70.1875,-9.96875 C 77.031189,156.46869 71.268122,141.80808 71,127.0625 z"
       style="opacity:0.7;fill:#ffffff;fill-opacity:1;stroke:none" />
    <path
       inkscape:connector-curvature="0"
       id="path4831"
       d="m 130.0625,65 c -10.31902,-0.0134 -20.63247,2.663091 -29.8125,8.03125 l 1.28125,1.28125 c 22.42072,-12.36116 51.17613,-9.042617 70.1875,9.96875 C 182.96881,95.531311 188.73188,110.19192 189,124.9375 189.24024,109.5233 183.47864,94.041139 171.71875,82.28125 160.21377,70.776276 145.14414,65.019587 130.0625,65 z M 79.03125,94.25 C 73.489254,103.7273 70.806316,114.41069 71,125.0625 71.155602,115.07868 73.836928,105.13275 79.03125,96.25 l 79.4375,79.4375 c 0.43096,-0.2376 0.85509,-0.46955 1.28125,-0.71875 L 79.03125,94.25 z m -33,30.75 c -0.258286,21.82959 7.906138,43.74989 24.5625,60.40625 32.80404,32.80404 86.00846,32.80404 118.8125,0 16.65636,-16.65636 24.82079,-38.57666 24.5625,-60.40625 -0.2504,21.16291 -8.41482,42.25857 -24.5625,58.40625 -32.80404,32.80404 -86.00846,32.80404 -118.8125,0 C 54.446072,167.25857 46.281648,146.16291 46.03125,125 z"
       style="opacity:0.7;fill:#000000;fill-opacity:1;stroke:none" />
    <path
       inkscape:connector-curvature="0"
       style="opacity:0.3;fill:#000000;fill-opacity:1;stroke:none"
       d="m 130.0625,67 c -10.31902,-0.0134 -20.63247,2.663091 -29.8125,8.03125 l 1.28125,1.28125 c 22.42072,-12.36116 51.17613,-9.042617 70.1875,9.96875 C 182.96881,97.531311 188.73188,112.19192 189,126.9375 189.24024,111.5233 183.47864,96.041139 171.71875,84.28125 160.21377,72.776276 145.14414,67.019587 130.0625,67 z M 79.03125,96.25 C 73.489254,105.7273 70.806316,116.41069 71,127.0625 71.155602,117.07868 73.836928,107.13275 79.03125,98.25 l 79.4375,79.4375 c 0.43096,-0.2376 0.85509,-0.46955 1.28125,-0.71875 L 79.03125,96.25 z m -33,30.75 c -0.258286,21.82959 7.906138,43.74989 24.5625,60.40625 32.80404,32.80404 86.00846,32.80404 118.8125,0 16.65636,-16.65636 24.82079,-38.57666 24.5625,-60.40625 -0.2504,21.16291 -8.41482,42.25857 -24.5625,58.40625 -32.80404,32.80404 -86.00846,32.80404 -118.8125,0 C 54.446072,169.25857 46.281648,148.16291 46.03125,127 z"
       id="path4840" />
  </g>
</svg>
