<?xml version="1.0" encoding="UTF-8" standalone="no"?>
<!-- Created with Inkscape (http://www.inkscape.org/) -->

<svg
   xmlns:dc="http://purl.org/dc/elements/1.1/"
   xmlns:cc="http://creativecommons.org/ns#"
   xmlns:rdf="http://www.w3.org/1999/02/22-rdf-syntax-ns#"
   xmlns:svg="http://www.w3.org/2000/svg"
   xmlns="http://www.w3.org/2000/svg"
   xmlns:xlink="http://www.w3.org/1999/xlink"
   xmlns:sodipodi="http://sodipodi.sourceforge.net/DTD/sodipodi-0.dtd"
   xmlns:inkscape="http://www.inkscape.org/namespaces/inkscape"
   width="256"
   height="256"
   id="svg7992"
   version="1.1"
   inkscape:version="0.48.1 r9760"
   sodipodi:docname="key_bindings.svg">
  <defs
     id="defs7994">
    <linearGradient
       id="linearGradient3737-4">
      <stop
         offset="0"
         style="stop-color:#ffffff;stop-opacity:1"
         id="stop3739-4" />
      <stop
         offset="1"
         style="stop-color:#ffffff;stop-opacity:0"
         id="stop3741-9" />
    </linearGradient>
    <linearGradient
       id="linearGradient3622">
      <stop
         offset="0"
         style="stop-color:#d6d6d6;stop-opacity:1"
         id="stop3624" />
      <stop
         offset="1"
         style="stop-color:#eaeaea;stop-opacity:1"
         id="stop3626" />
    </linearGradient>
    <linearGradient
       id="linearGradient3672">
      <stop
         offset="0"
         style="stop-color:#ffffff;stop-opacity:0"
         id="stop3674" />
      <stop
         offset="0.30000001"
         style="stop-color:#ffffff;stop-opacity:0"
         id="stop3676" />
      <stop
         offset="0.5"
         style="stop-color:#ffffff;stop-opacity:0.61240309"
         id="stop3678" />
      <stop
         offset="0.75264549"
         style="stop-color:#ffffff;stop-opacity:0"
         id="stop3680" />
      <stop
         offset="1"
         style="stop-color:#ffffff;stop-opacity:0"
         id="stop3682" />
    </linearGradient>
    <linearGradient
       id="linearGradient3650-2">
      <stop
         offset="0"
         style="stop-color:#000000;stop-opacity:0"
         id="stop3652" />
      <stop
         offset="0.30000001"
         style="stop-color:#000000;stop-opacity:0"
         id="stop3660" />
      <stop
         offset="0.5"
         style="stop-color:#000000;stop-opacity:0.11764706"
         id="stop3658" />
      <stop
         offset="0.69999999"
         style="stop-color:#000000;stop-opacity:0"
         id="stop3662" />
      <stop
         offset="1"
         style="stop-color:#000000;stop-opacity:0"
         id="stop3654-5" />
    </linearGradient>
    <linearGradient
       gradientUnits="userSpaceOnUse"
       xlink:href="#linearGradient3737"
       id="linearGradient3613"
       y2="138.66119"
       x2="48"
       y1="20.220806"
       x1="48" />
    <filter
       id="filter3794"
       color-interpolation-filters="sRGB"
       height="1.3839999"
       width="1.3839999"
       y="-0.192"
       x="-0.192">
      <feGaussianBlur
         stdDeviation="5.28"
         id="feGaussianBlur3796" />
    </filter>
    <linearGradient
       id="linearGradient3737">
      <stop
         offset="0"
         style="stop-color:#ffffff;stop-opacity:1"
         id="stop3739" />
      <stop
         offset="1"
         style="stop-color:#ffffff;stop-opacity:0"
         id="stop3741" />
    </linearGradient>
    <linearGradient
       id="linearGradient3825">
      <stop
         offset="0"
         style="stop-color:#b3b3b3;stop-opacity:1"
         id="stop3827" />
      <stop
         offset="1"
         style="stop-color:#d2d2d2;stop-opacity:1"
         id="stop3829" />
    </linearGradient>
    <linearGradient
       inkscape:collect="always"
       xlink:href="#linearGradient3825"
       id="linearGradient9502"
       gradientUnits="userSpaceOnUse"
       gradientTransform="matrix(0.35714285,0,0,0.35714285,668.34151,604.43361)"
       x1="63.535717"
       y1="90"
       x2="32.07143"
       y2="6" />
    <linearGradient
       inkscape:collect="always"
       xlink:href="#linearGradient3672"
       id="linearGradient9504"
       gradientUnits="userSpaceOnUse"
       gradientTransform="matrix(-0.35714285,0,0,-0.35714285,702.62723,638.71933)"
       x1="13.321428"
       y1="48"
       x2="48"
       y2="84.285713" />
    <linearGradient
       inkscape:collect="always"
       xlink:href="#linearGradient3672"
       id="linearGradient9506"
       gradientUnits="userSpaceOnUse"
       gradientTransform="matrix(0.35714285,0,0,-0.35714285,668.34151,638.71933)"
       x1="13.321428"
       y1="48"
       x2="48"
       y2="84.285713" />
    <linearGradient
       inkscape:collect="always"
       xlink:href="#linearGradient3650-2"
       id="linearGradient9508"
       gradientUnits="userSpaceOnUse"
       gradientTransform="matrix(0.35714285,0,0,0.35714285,668.34151,604.43361)"
       x1="6"
       y1="48"
       x2="48"
       y2="81.071426" />
    <linearGradient
       inkscape:collect="always"
       xlink:href="#linearGradient3650-2"
       id="linearGradient9510"
       gradientUnits="userSpaceOnUse"
       gradientTransform="matrix(-0.35714285,0,0,0.35714285,702.62723,604.43361)"
       x1="6"
       y1="48"
       x2="48"
       y2="81.071426" />
    <linearGradient
       inkscape:collect="always"
       xlink:href="#linearGradient3622"
       id="linearGradient9512"
       gradientUnits="userSpaceOnUse"
       gradientTransform="matrix(0.36458332,0,0,0.36458332,604.74314,-701.58853)"
       x1="16"
       y1="46"
       x2="80"
       y2="46" />
    <linearGradient
       inkscape:collect="always"
       xlink:href="#linearGradient3737-4"
       id="linearGradient9514"
       gradientUnits="userSpaceOnUse"
       gradientTransform="matrix(0,-1,1,0,652.48437,654.57647)"
       x1="22"
       y1="33"
       x2="44"
       y2="33" />
    <linearGradient
       inkscape:collect="always"
       xlink:href="#linearGradient3825"
       id="linearGradient9516"
       gradientUnits="userSpaceOnUse"
       gradientTransform="matrix(0.35714285,0,0,0.35714285,700.34151,604.43361)"
       x1="63.535717"
       y1="90"
       x2="32.07143"
       y2="6" />
    <linearGradient
       inkscape:collect="always"
       xlink:href="#linearGradient3672"
       id="linearGradient9518"
       gradientUnits="userSpaceOnUse"
       gradientTransform="matrix(-0.35714285,0,0,-0.35714285,734.62723,638.71933)"
       x1="13.321428"
       y1="48"
       x2="48"
       y2="84.285713" />
    <linearGradient
       inkscape:collect="always"
       xlink:href="#linearGradient3672"
       id="linearGradient9520"
       gradientUnits="userSpaceOnUse"
       gradientTransform="matrix(0.35714285,0,0,-0.35714285,700.34151,638.71933)"
       x1="13.321428"
       y1="48"
       x2="48"
       y2="84.285713" />
    <linearGradient
       inkscape:collect="always"
       xlink:href="#linearGradient3650-2"
       id="linearGradient9522"
       gradientUnits="userSpaceOnUse"
       gradientTransform="matrix(0.35714285,0,0,0.35714285,700.34151,604.43361)"
       x1="6"
       y1="48"
       x2="48"
       y2="81.071426" />
    <linearGradient
       inkscape:collect="always"
       xlink:href="#linearGradient3650-2"
       id="linearGradient9524"
       gradientUnits="userSpaceOnUse"
       gradientTransform="matrix(-0.35714285,0,0,0.35714285,734.62723,604.43361)"
       x1="6"
       y1="48"
       x2="48"
       y2="81.071426" />
    <linearGradient
       inkscape:collect="always"
       xlink:href="#linearGradient3622"
       id="linearGradient9526"
       gradientUnits="userSpaceOnUse"
       gradientTransform="matrix(0.36458332,0,0,0.36458332,604.74314,-733.58853)"
       x1="16"
       y1="46"
       x2="80"
       y2="46" />
    <linearGradient
       inkscape:collect="always"
       xlink:href="#linearGradient3737-4"
       id="linearGradient9528"
       gradientUnits="userSpaceOnUse"
       gradientTransform="matrix(0,-1,1,0,684.48437,654.57647)"
       x1="22"
       y1="33"
       x2="44"
       y2="33" />
    <linearGradient
       inkscape:collect="always"
       xlink:href="#linearGradient3825"
       id="linearGradient9530"
       gradientUnits="userSpaceOnUse"
       gradientTransform="matrix(0.35714285,0,0,0.35714285,668.34151,636.43361)"
       x1="63.535717"
       y1="90"
       x2="32.07143"
       y2="6" />
    <linearGradient
       inkscape:collect="always"
       xlink:href="#linearGradient3672"
       id="linearGradient9532"
       gradientUnits="userSpaceOnUse"
       gradientTransform="matrix(-0.35714285,0,0,-0.35714285,724.62723,670.71933)"
       x1="13.321428"
       y1="48"
       x2="48"
       y2="84.285713" />
    <linearGradient
       inkscape:collect="always"
       xlink:href="#linearGradient3672"
       id="linearGradient9534"
       gradientUnits="userSpaceOnUse"
       gradientTransform="matrix(0.35714285,0,0,-0.35714285,668.34151,670.71933)"
       x1="13.321428"
       y1="48"
       x2="48"
       y2="84.285713" />
    <linearGradient
       inkscape:collect="always"
       xlink:href="#linearGradient3650-2"
       id="linearGradient9536"
       gradientUnits="userSpaceOnUse"
       gradientTransform="matrix(0.35714285,0,0,0.35714285,668.34151,636.43361)"
       x1="6"
       y1="48"
       x2="48"
       y2="81.071426" />
    <linearGradient
       inkscape:collect="always"
       xlink:href="#linearGradient3650-2"
       id="linearGradient9538"
       gradientUnits="userSpaceOnUse"
       gradientTransform="matrix(-0.35714285,0,0,0.35714285,724.62723,636.43361)"
       x1="6"
       y1="48"
       x2="48"
       y2="81.071426" />
    <linearGradient
       inkscape:collect="always"
       xlink:href="#linearGradient3622"
       id="linearGradient9540"
       gradientUnits="userSpaceOnUse"
       gradientTransform="matrix(0,0.36458332,-0.36458332,0,701.58853,636.74314)"
       x1="16"
       y1="46"
       x2="80"
       y2="46" />
    <linearGradient
       inkscape:collect="always"
       xlink:href="#linearGradient3737-4"
       id="linearGradient9542"
       gradientUnits="userSpaceOnUse"
       gradientTransform="matrix(0,-1,1,0,652.48437,686.57647)"
       x1="22"
       y1="33"
       x2="44"
       y2="33" />
  </defs>
  <sodipodi:namedview
     id="base"
     pagecolor="#ffffff"
     bordercolor="#666666"
     borderopacity="1.0"
     inkscape:pageopacity="0.0"
     inkscape:pageshadow="2"
     inkscape:zoom="1.7070312"
     inkscape:cx="128"
     inkscape:cy="128"
     inkscape:document-units="px"
     inkscape:current-layer="layer1"
     showgrid="false"
     fit-margin-top="0"
     fit-margin-left="0"
     fit-margin-right="0"
     fit-margin-bottom="0"
     inkscape:window-width="1024"
     inkscape:window-height="576"
     inkscape:window-x="0"
     inkscape:window-y="24"
     inkscape:window-maximized="1" />
  <metadata
     id="metadata7997">
    <rdf:RDF>
      <cc:Work
         rdf:about="">
        <dc:format>image/svg+xml</dc:format>
        <dc:type
           rdf:resource="http://purl.org/dc/dcmitype/StillImage" />
        <dc:title></dc:title>
      </cc:Work>
    </rdf:RDF>
  </metadata>
  <g
     inkscape:label="Layer 1"
     inkscape:groupmode="layer"
     id="layer1"
     transform="translate(-657.46875,-425.5625)">
    <g
       id="g9455">
      <path
         style="opacity:0.05;fill:none;stroke:#000000;stroke-width:24;stroke-linejoin:round;stroke-miterlimit:4;stroke-opacity:1;stroke-dasharray:none"
         d="m 680.9375,437.5625 c -6.25838,0 -11.46875,5.21033 -11.46875,11.46875 l 0,93.09375 c 0,6.25838 5.21037,11.4375 11.46875,11.4375 -6.25838,0 -11.46875,5.21033 -11.46875,11.46875 l 0,93.09375 c 0,6.25838 5.21037,11.4375 11.46875,11.4375 l 172.84375,0 c 6.25839,0 11.4375,-5.17912 11.4375,-11.4375 l 0,-93.09375 c 0,-6.25842 -5.17911,-11.46875 -11.4375,-11.46875 l 36.25,0 c 6.25839,0 11.4375,-5.17912 11.4375,-11.4375 l 0,-93.09375 c 0,-6.25842 -5.17911,-11.46875 -11.4375,-11.46875 l -93.09375,0 c -6.25838,0 -11.46875,5.21033 -11.46875,11.46875 0,-6.25842 -5.17911,-11.46875 -11.4375,-11.46875 l -93.09375,0 z M 785.46875,542.125 c 0,6.25838 5.21037,11.4375 11.46875,11.4375 l -22.90625,0 c 6.25839,0 11.4375,-5.17912 11.4375,-11.4375 z"
         id="path9453"
         inkscape:connector-curvature="0" />
      <path
         id="path9451"
         d="m 680.9375,437.5625 c -6.25838,0 -11.46875,5.21033 -11.46875,11.46875 l 0,93.09375 c 0,6.25838 5.21037,11.4375 11.46875,11.4375 -6.25838,0 -11.46875,5.21033 -11.46875,11.46875 l 0,93.09375 c 0,6.25838 5.21037,11.4375 11.46875,11.4375 l 172.84375,0 c 6.25839,0 11.4375,-5.17912 11.4375,-11.4375 l 0,-93.09375 c 0,-6.25842 -5.17911,-11.46875 -11.4375,-11.46875 l 36.25,0 c 6.25839,0 11.4375,-5.17912 11.4375,-11.4375 l 0,-93.09375 c 0,-6.25842 -5.17911,-11.46875 -11.4375,-11.46875 l -93.09375,0 c -6.25838,0 -11.46875,5.21033 -11.46875,11.46875 0,-6.25842 -5.17911,-11.46875 -11.4375,-11.46875 l -93.09375,0 z M 785.46875,542.125 c 0,6.25838 5.21037,11.4375 11.46875,11.4375 l -22.90625,0 c 6.25839,0 11.4375,-5.17912 11.4375,-11.4375 z"
         style="opacity:0.1;fill:none;stroke:#000000;stroke-width:18;stroke-linejoin:round;stroke-miterlimit:4;stroke-opacity:1;stroke-dasharray:none"
         inkscape:connector-curvature="0" />
      <path
         style="opacity:0.15;fill:none;stroke:#000000;stroke-width:12;stroke-linejoin:round;stroke-miterlimit:4;stroke-opacity:1;stroke-dasharray:none"
         d="m 680.9375,437.5625 c -6.25838,0 -11.46875,5.21033 -11.46875,11.46875 l 0,93.09375 c 0,6.25838 5.21037,11.4375 11.46875,11.4375 -6.25838,0 -11.46875,5.21033 -11.46875,11.46875 l 0,93.09375 c 0,6.25838 5.21037,11.4375 11.46875,11.4375 l 172.84375,0 c 6.25839,0 11.4375,-5.17912 11.4375,-11.4375 l 0,-93.09375 c 0,-6.25842 -5.17911,-11.46875 -11.4375,-11.46875 l 36.25,0 c 6.25839,0 11.4375,-5.17912 11.4375,-11.4375 l 0,-93.09375 c 0,-6.25842 -5.17911,-11.46875 -11.4375,-11.46875 l -93.09375,0 c -6.25838,0 -11.46875,5.21033 -11.46875,11.46875 0,-6.25842 -5.17911,-11.46875 -11.4375,-11.46875 l -93.09375,0 z M 785.46875,542.125 c 0,6.25838 5.21037,11.4375 11.46875,11.4375 l -22.90625,0 c 6.25839,0 11.4375,-5.17912 11.4375,-11.4375 z"
         id="path9449"
         inkscape:connector-curvature="0" />
      <path
         id="rect8711"
         d="m 680.9375,437.5625 c -6.25838,0 -11.46875,5.21033 -11.46875,11.46875 l 0,93.09375 c 0,6.25838 5.21037,11.4375 11.46875,11.4375 -6.25838,0 -11.46875,5.21033 -11.46875,11.46875 l 0,93.09375 c 0,6.25838 5.21037,11.4375 11.46875,11.4375 l 172.84375,0 c 6.25839,0 11.4375,-5.17912 11.4375,-11.4375 l 0,-93.09375 c 0,-6.25842 -5.17911,-11.46875 -11.4375,-11.46875 l 36.25,0 c 6.25839,0 11.4375,-5.17912 11.4375,-11.4375 l 0,-93.09375 c 0,-6.25842 -5.17911,-11.46875 -11.4375,-11.46875 l -93.09375,0 c -6.25838,0 -11.46875,5.21033 -11.46875,11.46875 0,-6.25842 -5.17911,-11.46875 -11.4375,-11.46875 l -93.09375,0 z M 785.46875,542.125 c 0,6.25838 5.21037,11.4375 11.46875,11.4375 l -22.90625,0 c 6.25839,0 11.4375,-5.17912 11.4375,-11.4375 z"
         style="opacity:0.2;fill:none;stroke:#000000;stroke-width:6;stroke-linejoin:round;stroke-miterlimit:4;stroke-opacity:1;stroke-dasharray:none"
         inkscape:connector-curvature="0" />
      <g
         transform="matrix(3.625,0,0,3.625,-1757.3965,-1757.6382)"
         id="g8628">
        <rect
           style="fill:url(#linearGradient9502);fill-opacity:1;fill-rule:nonzero;stroke:none"
           id="rect2419-0"
           y="606.57648"
           x="670.48438"
           ry="2.1428571"
           rx="2.1428571"
           height="30"
           width="30" />
        <path
           style="fill:url(#linearGradient9504);fill-opacity:1;fill-rule:nonzero;stroke:none"
           id="path3684"
           inkscape:connector-curvature="0"
           d="m 700.48437,621.57647 0,-12.85714 c 0,-1.18714 -0.95571,-2.14286 -2.14286,-2.14286 l -12.85714,0 0,15 15,0 z" />
        <path
           style="fill:url(#linearGradient9506);fill-opacity:1;fill-rule:nonzero;stroke:none"
           id="path3668"
           inkscape:connector-curvature="0"
           d="m 670.48437,621.57647 0,-12.85714 c 0,-1.18714 0.95572,-2.14286 2.14286,-2.14286 l 12.85714,0 0,15 -15,0 z" />
        <path
           style="fill:url(#linearGradient9508);fill-opacity:1;fill-rule:nonzero;stroke:none"
           id="rect3643"
           inkscape:connector-curvature="0"
           d="m 670.48437,621.57647 0,12.85714 c 0,1.18714 0.95572,2.14286 2.14286,2.14286 l 12.85714,0 0,-15 -15,0 z" />
        <path
           style="fill:url(#linearGradient9510);fill-opacity:1;fill-rule:nonzero;stroke:none"
           id="path3664"
           inkscape:connector-curvature="0"
           d="m 700.48437,621.57647 0,12.85714 c 0,1.18714 -0.95571,2.14286 -2.14286,2.14286 l -12.85714,0 0,-15 15,0 z" />
        <rect
           style="fill:url(#linearGradient9512);fill-opacity:1;fill-rule:nonzero;stroke:none"
           id="rect3877"
           transform="matrix(0,1,-1,0,0,0)"
           y="-696.48438"
           x="610.57648"
           ry="2.121212"
           rx="2.1210001"
           height="22"
           width="22" />
        <g
           style="font-size:10px;font-style:normal;font-variant:normal;font-weight:normal;font-stretch:normal;text-align:center;line-height:125%;writing-mode:lr-tb;text-anchor:middle;fill:#333333;fill-opacity:1;stroke:none;font-family:Liberation Sans;-inkscape-font-specification:Liberation Sans"
           id="text4232"
           transform="matrix(1.6666667,0,0,1.6666667,643.8177,573.24314)">
          <path
             id="path4316"
             inkscape:connector-curvature="0"
             d="m 27.363281,32.439941 -0.786133,-2.011718 -3.134765,0 -0.791016,2.011718 -0.966797,0 2.807617,-6.879882 1.059571,0 2.763672,6.879882 -0.952149,0 m -1.948242,-5.009765 c -0.05209,-0.130203 -0.102543,-0.262039 -0.151367,-0.395508 -0.04558,-0.133458 -0.08627,-0.253901 -0.12207,-0.361328 -0.03581,-0.110671 -0.06674,-0.201817 -0.09277,-0.273438 -0.02279,-0.07486 -0.03581,-0.120436 -0.03906,-0.136718 -0.0065,0.01628 -0.02116,0.06186 -0.04395,0.136718 -0.02279,0.07488 -0.05371,0.167649 -0.09277,0.278321 -0.03581,0.110682 -0.07813,0.232753 -0.126953,0.366211 -0.04558,0.133468 -0.09278,0.265304 -0.141602,0.395507 l -0.878906,2.260743 2.573242,0 -0.883789,-2.270508" />
        </g>
        <path
           style="opacity:0.8;fill:url(#linearGradient9514);fill-opacity:1;fill-rule:nonzero;stroke:none"
           id="rect3938"
           inkscape:connector-curvature="0"
           d="m 674.48437,630.45147 c 0,1.17515 0.94997,2.125 2.125,2.125 l 17.75,0 c 1.17503,0 2.125,-0.94985 2.125,-2.125 l 0,-17.75 c 0,-1.17515 -0.94997,-2.125 -2.125,-2.125 l -17.75,0 c -1.17503,0 -2.125,0.94985 -2.125,2.125 l 0,17.75 z m 2.03125,0.0937 c -0.0128,-0.0128 0,-0.0512 0,-0.0937 l 0,-17.75 c 0,-0.0851 0.009,-0.0937 0.0937,-0.0937 l 17.75,0 c 0.085,0 0.0937,0.009 0.0937,0.0937 l 0,17.75 c 0,0.0851 -0.009,0.0937 -0.0937,0.0937 l -17.75,0 c -0.0425,0 -0.0809,0.0128 -0.0937,0 z" />
        <path
           style="opacity:0.2;fill:#ffffff;fill-opacity:1;fill-rule:nonzero;stroke:none"
           id="path4758"
           inkscape:connector-curvature="0"
           d="m 672.64062,605.57647 c -1.72645,0 -3.15625,1.42979 -3.15625,3.15625 l 0,25.6875 c 0,1.72645 1.4298,3.15625 3.15625,3.15625 l 25.6875,0 c 1.72645,0 3.15625,-1.4298 3.15625,-3.15625 l 0,-25.6875 c 0,-1.72646 -1.4298,-3.15625 -3.15625,-3.15625 l -25.6875,0 z m 0,1 25.6875,0 c 1.18714,0 2.15625,0.96911 2.15625,2.15625 l 0,25.6875 c 0,1.18714 -0.96911,2.15625 -2.15625,2.15625 l -25.6875,0 c -1.18714,0 -2.15625,-0.96911 -2.15625,-2.15625 l 0,-25.6875 c 0,-1.18714 0.96911,-2.15625 2.15625,-2.15625 z" />
        <rect
           style="fill:url(#linearGradient9516);fill-opacity:1;fill-rule:nonzero;stroke:none"
           id="rect4761"
           y="606.57648"
           x="702.48438"
           ry="2.1428571"
           rx="2.1428571"
           height="30"
           width="30" />
        <path
           style="fill:url(#linearGradient9518);fill-opacity:1;fill-rule:nonzero;stroke:none"
           id="path4763"
           inkscape:connector-curvature="0"
           d="m 732.48437,621.57647 0,-12.85714 c 0,-1.18714 -0.95571,-2.14286 -2.14286,-2.14286 l -12.85714,0 0,15 15,0 z" />
        <path
           style="fill:url(#linearGradient9520);fill-opacity:1;fill-rule:nonzero;stroke:none"
           id="path4765"
           inkscape:connector-curvature="0"
           d="m 702.48437,621.57647 0,-12.85714 c 0,-1.18714 0.95571,-2.14286 2.14286,-2.14286 l 12.85714,0 0,15 -15,0 z" />
        <path
           style="fill:url(#linearGradient9522);fill-opacity:1;fill-rule:nonzero;stroke:none"
           id="path4767"
           inkscape:connector-curvature="0"
           d="m 702.48437,621.57647 0,12.85714 c 0,1.18714 0.95571,2.14286 2.14286,2.14286 l 12.85714,0 0,-15 -15,0 z" />
        <path
           style="fill:url(#linearGradient9524);fill-opacity:1;fill-rule:nonzero;stroke:none"
           id="path4769"
           inkscape:connector-curvature="0"
           d="m 732.48437,621.57647 0,12.85714 c 0,1.18714 -0.95571,2.14286 -2.14286,2.14286 l -12.85714,0 0,-15 15,0 z" />
        <rect
           style="fill:url(#linearGradient9526);fill-opacity:1;fill-rule:nonzero;stroke:none"
           id="rect4771"
           transform="matrix(0,1,-1,0,0,0)"
           y="-728.48438"
           x="610.57648"
           ry="2.121212"
           rx="2.1210001"
           height="22"
           width="22" />
        <path
           style="opacity:0.8;fill:url(#linearGradient9528);fill-opacity:1;fill-rule:nonzero;stroke:none"
           id="path4777"
           inkscape:connector-curvature="0"
           d="m 706.48437,630.45147 c 0,1.17515 0.94997,2.125 2.125,2.125 l 17.75,0 c 1.17503,0 2.125,-0.94985 2.125,-2.125 l 0,-17.75 c 0,-1.17515 -0.94997,-2.125 -2.125,-2.125 l -17.75,0 c -1.17503,0 -2.125,0.94985 -2.125,2.125 l 0,17.75 z m 2.03125,0.0937 c -0.0128,-0.0128 0,-0.0512 0,-0.0937 l 0,-17.75 c 0,-0.0851 0.009,-0.0937 0.0937,-0.0937 l 17.75,0 c 0.085,0 0.0937,0.009 0.0937,0.0937 l 0,17.75 c 0,0.0851 -0.009,0.0937 -0.0937,0.0937 l -17.75,0 c -0.0425,0 -0.0809,0.0128 -0.0937,0 z" />
        <path
           style="opacity:0.2;fill:#ff0000;fill-opacity:1;fill-rule:nonzero;stroke:none"
           id="path4779"
           inkscape:connector-curvature="0"
           d="m 704.64062,605.57647 c -1.72645,0 -3.15625,1.42979 -3.15625,3.15625 l 0,25.6875 c 0,1.72645 1.4298,3.15625 3.15625,3.15625 l 25.6875,0 c 1.72645,0 3.15625,-1.4298 3.15625,-3.15625 l 0,-25.6875 c 0,-1.72646 -1.4298,-3.15625 -3.15625,-3.15625 l -25.6875,0 z m 0,1 25.6875,0 c 1.18714,0 2.15625,0.96911 2.15625,2.15625 l 0,25.6875 c 0,1.18714 -0.96911,2.15625 -2.15625,2.15625 l -25.6875,0 c -1.18714,0 -2.15625,-0.96911 -2.15625,-2.15625 l 0,-25.6875 c 0,-1.18714 0.96911,-2.15625 2.15625,-2.15625 z" />
        <path
           style="fill:url(#linearGradient9530);fill-opacity:1;fill-rule:nonzero;stroke:none"
           id="rect4795"
           inkscape:connector-curvature="0"
           d="m 672.62723,638.57647 47.71428,0 c 1.18715,0 2.14286,0.95571 2.14286,2.14286 l 0,25.71428 c 0,1.18715 -0.95571,2.14286 -2.14286,2.14286 l -47.71428,0 c -1.18715,0 -2.14286,-0.95571 -2.14286,-2.14286 l 0,-25.71428 c 0,-1.18715 0.95571,-2.14286 2.14286,-2.14286 z" />
        <path
           style="fill:url(#linearGradient9532);fill-opacity:1;fill-rule:nonzero;stroke:none"
           id="path4797"
           inkscape:connector-curvature="0"
           d="m 722.48437,653.57647 0,-12.85714 c 0,-1.18714 -0.95571,-2.14286 -2.14286,-2.14286 l -12.85714,0 0,15 15,0 z" />
        <path
           style="fill:url(#linearGradient9534);fill-opacity:1;fill-rule:nonzero;stroke:none"
           id="path4799"
           inkscape:connector-curvature="0"
           d="m 670.48437,653.57647 0,-12.85714 c 0,-1.18714 0.95572,-2.14286 2.14286,-2.14286 l 12.85714,0 0,15 -15,0 z" />
        <path
           style="fill:url(#linearGradient9536);fill-opacity:1;fill-rule:nonzero;stroke:none"
           id="path4801"
           inkscape:connector-curvature="0"
           d="m 670.48437,653.57647 0,12.85714 c 0,1.18714 0.95572,2.14286 2.14286,2.14286 l 12.85714,0 0,-15 -15,0 z" />
        <path
           style="fill:url(#linearGradient9538);fill-opacity:1;fill-rule:nonzero;stroke:none"
           id="path4803"
           inkscape:connector-curvature="0"
           d="m 722.48437,653.57647 0,12.85714 c 0,1.18714 -0.95571,2.14286 -2.14286,2.14286 l -12.85714,0 0,-15 15,0 z" />
        <path
           style="fill:url(#linearGradient9540);fill-opacity:1;fill-rule:nonzero;stroke:none"
           id="rect4805"
           inkscape:connector-curvature="0"
           d="m 718.48437,644.69747 0,17.758 c 0,1.17503 -0.94606,2.121 -2.12121,2.121 l -39.75758,0 c -1.17515,0 -2.12121,-0.94597 -2.12121,-2.121 l 0,-17.758 c 0,-1.17503 0.94606,-2.121 2.12121,-2.121 l 39.75758,0 c 1.17515,0 2.12121,0.94597 2.12121,2.121 z" />
        <path
           style="opacity:0.8;fill:url(#linearGradient9542);fill-opacity:1;fill-rule:nonzero;stroke:none"
           id="path4811"
           inkscape:connector-curvature="0"
           d="m 674.48437,662.45147 c 0,1.17515 0.94997,2.125 2.125,2.125 l 39.75,0 c 1.17503,0 2.125,-0.94985 2.125,-2.125 l 0,-17.75 c 0,-1.17515 -0.94997,-2.125 -2.125,-2.125 l -39.75,0 c -1.17503,0 -2.125,0.94985 -2.125,2.125 l 0,17.75 z m 2.03125,0.0937 c -0.0128,-0.0128 0,-0.0512 0,-0.0937 l 0,-17.75 c 0,-0.0851 0.009,-0.0937 0.0937,-0.0937 l 39.75,0 c 0.085,0 0.0937,0.009 0.0937,0.0937 l 0,17.75 c 0,0.0851 -0.009,0.0937 -0.0937,0.0937 l -39.75,0 c -0.0425,0 -0.0809,0.0128 -0.0937,0 z" />
        <path
           style="opacity:0.2;fill:#ff0000;fill-opacity:1;fill-rule:nonzero;stroke:none"
           id="path4813"
           inkscape:connector-curvature="0"
           d="m 672.64062,637.57647 c -1.72645,0 -3.15625,1.42979 -3.15625,3.15625 l 0,25.6875 c 0,1.72645 1.4298,3.15625 3.15625,3.15625 l 47.6875,0 c 1.72645,0 3.15625,-1.4298 3.15625,-3.15625 l 0,-25.6875 c 0,-1.72646 -1.4298,-3.15625 -3.15625,-3.15625 l -47.6875,0 z m 0,1 47.6875,0 c 1.18714,0 2.15625,0.96911 2.15625,2.15625 l 0,25.6875 c 0,1.18714 -0.96911,2.15625 -2.15625,2.15625 l -47.6875,0 c -1.18714,0 -2.15625,-0.96911 -2.15625,-2.15625 l 0,-25.6875 c 0,-1.18714 0.96911,-2.15625 2.15625,-2.15625 z" />
        <g
           style="font-size:10px;font-style:normal;font-variant:normal;font-weight:normal;font-stretch:normal;text-align:center;line-height:125%;writing-mode:lr-tb;text-anchor:middle;fill:#333333;fill-opacity:1;stroke:none;font-family:Liberation Sans;-inkscape-font-specification:Liberation Sans"
           id="text4254"
           transform="matrix(1.6657262,0,0,1.6657262,642.51856,573.27041)">
          <path
             id="path4313"
             inkscape:connector-curvature="0"
             d="m 47.744141,32.439941 -5.478516,0 0,-0.698242 4.189453,-5.419922 -3.833008,0 0,-0.761718 4.892578,0 0,0.678711 -4.189453,5.439453 4.418946,0 0,0.761718" />
        </g>
        <g
           style="font-size:10px;font-style:normal;font-variant:normal;font-weight:normal;font-stretch:normal;text-align:start;line-height:125%;writing-mode:lr-tb;text-anchor:start;fill:#333333;fill-opacity:1;stroke:none;font-family:Liberation Sans;-inkscape-font-specification:Liberation Sans"
           id="text4236"
           transform="matrix(1.5605106,0,0,1.5605106,643.10854,545.90124)">
          <path
             id="path4292"
             inkscape:connector-curvature="0"
             d="m 27.166992,66.353516 c -0.390628,6e-6 -0.737308,0.06511 -1.040039,0.195312 -0.299482,0.130214 -0.55176,0.315761 -0.756836,0.556641 -0.201825,0.24089 -0.354819,0.530604 -0.458984,0.86914 -0.104168,0.338546 -0.156252,0.714522 -0.15625,1.12793 -2e-6,0.413415 0.05534,0.792646 0.166015,1.137695 0.113931,0.341799 0.275064,0.636395 0.483399,0.883789 0.211586,0.247397 0.468747,0.439455 0.771484,0.576172 0.305987,0.13672 0.649411,0.205079 1.030274,0.205078 0.266923,1e-6 0.509435,-0.03418 0.727539,-0.102539 0.221349,-0.07161 0.419917,-0.170897 0.595703,-0.297851 0.179031,-0.126952 0.338536,-0.276692 0.478515,-0.449219 0.139969,-0.175779 0.263666,-0.369464 0.371094,-0.581055 l 0.761719,0.38086 c -0.123705,0.257163 -0.276699,0.49642 -0.458984,0.717773 -0.182298,0.221355 -0.397142,0.413412 -0.644532,0.576172 -0.244146,0.162761 -0.522466,0.291341 -0.834961,0.385742 -0.309249,0.09115 -0.655928,0.136719 -1.040039,0.136719 -0.556644,0 -1.044924,-0.08789 -1.464843,-0.263672 -0.416669,-0.179036 -0.766604,-0.426432 -1.049805,-0.742187 -0.279949,-0.31901 -0.48991,-0.696613 -0.629883,-1.132813 -0.139974,-0.436195 -0.209961,-0.913083 -0.209961,-1.430664 0,-0.537105 0.07324,-1.022131 0.219727,-1.455078 0.149738,-0.432937 0.36621,-0.800776 0.649414,-1.103516 0.286456,-0.305983 0.638019,-0.540358 1.054687,-0.703125 0.416664,-0.166008 0.891924,-0.249016 1.425782,-0.249023 0.732417,7e-6 1.344395,0.143236 1.835937,0.429687 0.49153,0.286465 0.852858,0.711269 1.083984,1.274414 l -0.883789,0.292969 c -0.06511,-0.162755 -0.153,-0.317377 -0.263672,-0.463867 -0.110682,-0.149734 -0.249028,-0.28157 -0.415039,-0.395508 -0.16602,-0.113926 -0.361333,-0.205072 -0.585937,-0.273437 -0.221359,-0.06835 -0.475265,-0.102533 -0.761719,-0.102539" />
          <path
             id="path4294"
             inkscape:connector-curvature="0"
             d="m 33.231445,72.535156 c -0.133466,0.03581 -0.270184,0.06348 -0.410156,0.08301 -0.136721,0.02279 -0.296226,0.03418 -0.478516,0.03418 -0.703126,0 -1.054688,-0.398763 -1.054687,-1.196289 l 0,-3.525391 -0.610352,0 0,-0.639648 0.644532,0 0.258789,-1.181641 0.585937,0 0,1.181641 0.976563,0 0,0.639648 -0.976563,0 0,3.334961 c -10e-7,0.253907 0.04069,0.432944 0.12207,0.537109 0.08463,0.100913 0.229491,0.151368 0.434571,0.151368 0.08463,0 0.166013,-0.0065 0.24414,-0.01953 0.08138,-0.01302 0.169269,-0.0293 0.263672,-0.04883 l 0,0.649414" />
          <path
             id="path4296"
             inkscape:connector-curvature="0"
             d="m 33.993164,72.574219 0,-4.052735 c -10e-7,-0.110673 -0.0016,-0.222977 -0.0049,-0.336914 0,-0.117183 -0.0016,-0.229487 -0.0049,-0.336914 -0.0033,-0.107417 -0.0065,-0.208328 -0.0098,-0.302734 -0.0033,-0.0944 -0.0065,-0.179031 -0.0098,-0.253906 l 0.830078,0 c 0.0033,0.07488 0.0065,0.161138 0.0098,0.258789 0.0065,0.09441 0.01139,0.192062 0.01465,0.292968 0.0065,0.100917 0.0098,0.198573 0.0098,0.292969 0.0033,0.09115 0.0049,0.169275 0.0049,0.234375 l 0.01953,0 c 0.06185,-0.201818 0.126952,-0.375972 0.195313,-0.522461 0.07161,-0.149734 0.15462,-0.271805 0.249023,-0.366211 0.0944,-0.09765 0.206704,-0.169265 0.336914,-0.214843 0.130206,-0.04882 0.288083,-0.07324 0.473633,-0.07324 0.07161,6e-6 0.139971,0.0065 0.205078,0.01953 0.0651,0.0098 0.115557,0.01954 0.151367,0.0293 l 0,0.805665 c -0.0586,-0.01627 -0.126956,-0.02766 -0.205078,-0.03418 -0.07813,-0.0098 -0.166018,-0.01464 -0.263672,-0.01465 -0.201825,5e-6 -0.374351,0.04558 -0.517578,0.136719 -0.139976,0.09115 -0.255536,0.218103 -0.34668,0.38086 -0.08789,0.159509 -0.152996,0.351566 -0.195312,0.576171 -0.04232,0.221358 -0.06348,0.463871 -0.06348,0.727539 l 0,2.753907 -0.878906,0" />
          <path
             id="path4298"
             inkscape:connector-curvature="0"
             d="m 37.313477,72.574219 0,-7.246094 0.878906,0 0,7.246094 -0.878906,0" />
        </g>
        <path
           style="opacity:0.3;fill:#ff0000;fill-opacity:1;fill-rule:nonzero;stroke:none"
           id="rect4885"
           inkscape:connector-curvature="0"
           d="m 704.64062,606.57647 c -1.18714,0 -2.15625,0.96911 -2.15625,2.15625 l 0,25.6875 c 0,1.18714 0.96911,2.15625 2.15625,2.15625 l 25.6875,0 c 1.18714,0 2.15625,-0.96911 2.15625,-2.15625 l 0,-25.6875 c 0,-1.18714 -0.96911,-2.15625 -2.15625,-2.15625 l -25.6875,0 z m 0,1.96875 25.6875,0 c 0.10851,0 0.1875,0.079 0.1875,0.1875 l 0,25.6875 c 0,0.10852 -0.079,0.1875 -0.1875,0.1875 l -25.6875,0 c -0.10851,0 -0.1875,-0.079 -0.1875,-0.1875 l 0,-25.6875 c 0,-0.10852 0.079,-0.1875 0.1875,-0.1875 z" />
        <path
           style="opacity:0.8;fill:#ff0000;fill-opacity:1;fill-rule:nonzero;stroke:none"
           id="rect4879"
           inkscape:connector-curvature="0"
           d="m 704.64062,606.57647 c -1.18714,0 -2.15625,0.96911 -2.15625,2.15625 l 0,25.6875 c 0,1.18714 0.96911,2.15625 2.15625,2.15625 l 25.6875,0 c 1.18714,0 2.15625,-0.96911 2.15625,-2.15625 l 0,-25.6875 c 0,-1.18714 -0.96911,-2.15625 -2.15625,-2.15625 l -25.6875,0 z m 0,0.9375 25.6875,0 c 0.67346,0 1.21875,0.54529 1.21875,1.21875 l 0,25.6875 c 0,0.67346 -0.54529,1.21875 -1.21875,1.21875 l -25.6875,0 c -0.67346,0 -1.21875,-0.54529 -1.21875,-1.21875 l 0,-25.6875 c 0,-0.67346 0.54529,-1.21875 1.21875,-1.21875 z" />
        <path
           style="opacity:0.3;fill:#ff0000;fill-opacity:1;fill-rule:nonzero;stroke:none"
           id="path4895"
           inkscape:connector-curvature="0"
           d="m 672.64062,638.57647 c -1.18714,0 -2.15625,0.96911 -2.15625,2.15625 l 0,25.6875 c 0,1.18714 0.96911,2.15625 2.15625,2.15625 l 47.6875,0 c 1.18714,0 2.15625,-0.96911 2.15625,-2.15625 l 0,-25.6875 c 0,-1.18714 -0.96911,-2.15625 -2.15625,-2.15625 l -47.6875,0 z m 0,1.96875 47.6875,0 c 0.10851,0 0.1875,0.079 0.1875,0.1875 l 0,25.6875 c 0,0.10852 -0.079,0.1875 -0.1875,0.1875 l -47.6875,0 c -0.10851,0 -0.1875,-0.079 -0.1875,-0.1875 l 0,-25.6875 c 0,-0.10852 0.079,-0.1875 0.1875,-0.1875 z" />
        <path
           style="opacity:0.8;fill:#ff0000;fill-opacity:1;fill-rule:nonzero;stroke:none"
           id="path4897"
           inkscape:connector-curvature="0"
           d="m 672.64062,638.57647 c -1.18714,0 -2.15625,0.96911 -2.15625,2.15625 l 0,25.6875 c 0,1.18714 0.96911,2.15625 2.15625,2.15625 l 47.6875,0 c 1.18714,0 2.15625,-0.96911 2.15625,-2.15625 l 0,-25.6875 c 0,-1.18714 -0.96911,-2.15625 -2.15625,-2.15625 l -47.6875,0 z m 0,0.9375 47.6875,0 c 0.67346,0 1.21875,0.54529 1.21875,1.21875 l 0,25.6875 c 0,0.67346 -0.54529,1.21875 -1.21875,1.21875 l -47.6875,0 c -0.67346,0 -1.21875,-0.54529 -1.21875,-1.21875 l 0,-25.6875 c 0,-0.67346 0.54529,-1.21875 1.21875,-1.21875 z" />
      </g>
      <path
         id="path8913"
         d="m 680.9375,437.5625 c -6.25838,0 -11.46875,5.21033 -11.46875,11.46875 l 0,2 c 0,-6.25842 5.21037,-11.46875 11.46875,-11.46875 l 93.09375,0 c 6.25839,0 11.4375,5.21033 11.4375,11.46875 0,-6.25842 5.21037,-11.46875 11.46875,-11.46875 l 93.09375,0 c 6.25839,0 11.4375,5.21033 11.4375,11.46875 l 0,-2 c 0,-6.25842 -5.17911,-11.46875 -11.4375,-11.46875 l -93.09375,0 c -6.25838,0 -11.46875,5.21033 -11.46875,11.46875 0,-6.25842 -5.17911,-11.46875 -11.4375,-11.46875 l -93.09375,0 z m 99.5,116 c -1.83438,1.25556 -4.04371,2 -6.40625,2 l 22.90625,0 c -2.36254,0 -4.56633,-0.74444 -6.40625,-2 l -10.09375,0 z m -104.125,1 c -4.00496,1.80302 -6.84375,5.84828 -6.84375,10.46875 l 0,2 c 0,-6.25842 5.21037,-11.46875 11.46875,-11.46875 -1.63794,0 -3.20525,-0.36399 -4.625,-1 z m 177.46875,1 c 6.25839,0 11.4375,5.21033 11.4375,11.46875 l 0,-2 c 0,-3.89609 -2.00606,-7.38924 -5.03125,-9.46875 l -6.40625,0 z"
         style="opacity:0.7;fill:#ffffff;fill-opacity:1;fill-rule:nonzero;stroke:none"
         inkscape:connector-curvature="0" />
      <path
         id="path8922"
         d="m 669.46875,540.125 0,2 c 0,4.62044 2.83879,8.64339 6.84375,10.4375 1.41975,-0.63916 2.98706,-1 4.625,-1 -6.25838,0 -11.46875,-5.17912 -11.46875,-11.4375 z m 116,0 c 0,6.25838 -5.17911,11.4375 -11.4375,11.4375 l 6.40625,0 c 3.0249,-2.07042 5.03125,-5.54166 5.03125,-9.4375 0,3.89584 2.02845,7.36708 5.0625,9.4375 l 6.40625,0 c -6.25838,0 -11.46875,-5.17912 -11.46875,-11.4375 z m 116,0 c 0,6.25838 -5.17911,11.4375 -11.4375,11.4375 l -36.25,0 c 2.36232,0 4.57197,0.73912 6.40625,2 l 29.84375,0 c 6.25839,0 11.4375,-5.17912 11.4375,-11.4375 l 0,-2 z m -232,116 0,2 c 0,6.25838 5.21037,11.4375 11.46875,11.4375 l 172.84375,0 c 6.25839,0 11.4375,-5.17912 11.4375,-11.4375 l 0,-2 c 0,6.25838 -5.17911,11.4375 -11.4375,11.4375 l -172.84375,0 c -6.25838,0 -11.46875,-5.17912 -11.46875,-11.4375 z"
         style="opacity:0.7;fill:#000000;fill-opacity:1;fill-rule:nonzero;stroke:none"
         inkscape:connector-curvature="0" />
      <path
         inkscape:connector-curvature="0"
         style="opacity:0.3;fill:#000000;fill-opacity:1;fill-rule:nonzero;stroke:none"
         d="m 669.46875,542.125 0,2 c 0,4.62044 2.83879,8.64339 6.84375,10.4375 1.41975,-0.63916 2.98706,-1 4.625,-1 -6.25838,0 -11.46875,-5.17912 -11.46875,-11.4375 z m 116,0 c 0,6.25838 -5.17911,11.4375 -11.4375,11.4375 l 6.40625,0 c 3.0249,-2.07042 5.03125,-5.54166 5.03125,-9.4375 0,3.89584 2.02845,7.36708 5.0625,9.4375 l 6.40625,0 c -6.25838,0 -11.46875,-5.17912 -11.46875,-11.4375 z m 116,0 c 0,6.25838 -5.17911,11.4375 -11.4375,11.4375 l -36.25,0 c 2.36232,0 4.57197,0.73912 6.40625,2 l 29.84375,0 c 6.25839,0 11.4375,-5.17912 11.4375,-11.4375 l 0,-2 z m -232,116 0,2 c 0,6.25838 5.21037,11.4375 11.46875,11.4375 l 172.84375,0 c 6.25839,0 11.4375,-5.17912 11.4375,-11.4375 l 0,-2 c 0,6.25838 -5.17911,11.4375 -11.4375,11.4375 l -172.84375,0 c -6.25838,0 -11.46875,-5.17912 -11.46875,-11.4375 z"
         id="path8931" />
    </g>
  </g>
</svg>
