<?xml version="1.0" encoding="UTF-8" standalone="no"?>
<!-- Created with Inkscape (http://www.inkscape.org/) -->

<svg
   xmlns:dc="http://purl.org/dc/elements/1.1/"
   xmlns:cc="http://creativecommons.org/ns#"
   xmlns:rdf="http://www.w3.org/1999/02/22-rdf-syntax-ns#"
   xmlns:svg="http://www.w3.org/2000/svg"
   xmlns="http://www.w3.org/2000/svg"
   xmlns:xlink="http://www.w3.org/1999/xlink"
   xmlns:sodipodi="http://sodipodi.sourceforge.net/DTD/sodipodi-0.dtd"
   xmlns:inkscape="http://www.inkscape.org/namespaces/inkscape"
   id="svg2"
   sodipodi:version="0.32"
   inkscape:version="0.48.3.1 r9886"
   width="256.22818"
   height="256.01642"
   version="1.0"
   sodipodi:docname="configure-toolbars.svg"
   inkscape:output_extension="org.inkscape.output.svg.inkscape"
   inkscape:export-filename="/home/oleg/.icons/AppleArt/actions/edit-find.png"
   inkscape:export-xdpi="45"
   inkscape:export-ydpi="45">
  <metadata
     id="metadata7">
    <rdf:RDF>
      <cc:Work
         rdf:about="">
        <dc:format>image/svg+xml</dc:format>
        <dc:type
           rdf:resource="http://purl.org/dc/dcmitype/StillImage" />
        <dc:title></dc:title>
      </cc:Work>
    </rdf:RDF>
  </metadata>
  <defs
     id="defs5">
    <linearGradient
       id="linearGradient3876">
      <stop
         style="stop-color:#c1c1c1;stop-opacity:1;"
         offset="0"
         id="stop3878" />
      <stop
         id="stop3884"
         offset="0.5"
         style="stop-color:#ffffff;stop-opacity:1;" />
      <stop
         style="stop-color:#c1c1c1;stop-opacity:1;"
         offset="1"
         id="stop3880" />
    </linearGradient>
    <linearGradient
       id="linearGradient3876-1">
      <stop
         style="stop-color:#c1c1c1;stop-opacity:1;"
         offset="0"
         id="stop3878-8" />
      <stop
         id="stop3884-2"
         offset="0.5"
         style="stop-color:#ffffff;stop-opacity:1;" />
      <stop
         style="stop-color:#c1c1c1;stop-opacity:1;"
         offset="1"
         id="stop3880-5" />
    </linearGradient>
    <linearGradient
       id="linearGradient3784-1">
      <stop
         id="stop3786-8"
         offset="0"
         style="stop-color:#000000;stop-opacity:1;" />
      <stop
         id="stop3790"
         offset="1"
         style="stop-color:#5a5a5a;stop-opacity:1;" />
    </linearGradient>
    <linearGradient
       inkscape:collect="always"
       xlink:href="#linearGradient3876-1"
       id="linearGradient8334"
       gradientUnits="userSpaceOnUse"
       gradientTransform="matrix(0.99445605,0.0222962,-0.02246872,0.98517447,261.17042,3.7339148)"
       x1="96.60994"
       y1="186.54852"
       x2="177.52275"
       y2="82.215309" />
    <linearGradient
       inkscape:collect="always"
       xlink:href="#linearGradient3784-1"
       id="linearGradient8336"
       gradientUnits="userSpaceOnUse"
       gradientTransform="matrix(2.6800517,-2.6459958,4.5475572,4.4899646,258.95722,-35.797197)"
       x1="-6.3077531"
       y1="44.228992"
       x2="-9.7747231"
       y2="44.140411" />
    <linearGradient
       inkscape:collect="always"
       id="linearGradient3342">
      <stop
         style="stop-color:#6d8caf;stop-opacity:1"
         offset="0"
         id="stop3344" />
      <stop
         style="stop-color:#000915;stop-opacity:1"
         offset="1"
         id="stop3346" />
    </linearGradient>
    <linearGradient
       inkscape:collect="always"
       id="linearGradient3332">
      <stop
         style="stop-color:#ffffff;stop-opacity:1"
         offset="0"
         id="stop3334" />
      <stop
         style="stop-color:#000000;stop-opacity:0;"
         offset="1"
         id="stop3336" />
    </linearGradient>
    <linearGradient
       inkscape:collect="always"
       id="linearGradient3312">
      <stop
         style="stop-color:#ffffff;stop-opacity:1"
         offset="0"
         id="stop3314" />
      <stop
         style="stop-color:#3e307b;stop-opacity:1"
         offset="1"
         id="stop3316" />
    </linearGradient>
    <linearGradient
       inkscape:collect="always"
       id="linearGradient3294">
      <stop
         style="stop-color:#b5c9da;stop-opacity:1;"
         offset="0"
         id="stop3296" />
      <stop
         style="stop-color:#014c8b;stop-opacity:1"
         offset="1"
         id="stop3298" />
    </linearGradient>
    <linearGradient
       inkscape:collect="always"
       id="linearGradient3282">
      <stop
         style="stop-color:#b5c9da;stop-opacity:1;"
         offset="0"
         id="stop3284" />
      <stop
         style="stop-color:#304a5f;stop-opacity:1"
         offset="1"
         id="stop3286" />
    </linearGradient>
    <linearGradient
       id="linearGradient3266"
       inkscape:collect="always">
      <stop
         id="stop3268"
         offset="0"
         style="stop-color:#0c5590;stop-opacity:1" />
      <stop
         id="stop3270"
         offset="1"
         style="stop-color:#265379;stop-opacity:0.13043478" />
    </linearGradient>
    <linearGradient
       inkscape:collect="always"
       id="linearGradient3248">
      <stop
         style="stop-color:#6a8eb9;stop-opacity:1"
         offset="0"
         id="stop3250" />
      <stop
         style="stop-color:#265379;stop-opacity:0.13043478"
         offset="1"
         id="stop3252" />
    </linearGradient>
    <linearGradient
       y2="66.042542"
       x2="172.93617"
       y1="153.19148"
       x1="95.319145"
       spreadMethod="reflect"
       gradientUnits="userSpaceOnUse"
       id="linearGradient3514"
       xlink:href="#linearGradient3270"
       inkscape:collect="always" />
    <linearGradient
       y2="66.042542"
       x2="172.93617"
       y1="153.19148"
       x1="95.319145"
       spreadMethod="reflect"
       gradientUnits="userSpaceOnUse"
       id="linearGradient3496"
       xlink:href="#linearGradient3270"
       inkscape:collect="always" />
    <linearGradient
       id="linearGradient3578">
      <stop
         style="stop-color:#000000;stop-opacity:1;"
         offset="0"
         id="stop3580" />
      <stop
         style="stop-color:#fffcfc;stop-opacity:1;"
         offset="1"
         id="stop3582" />
    </linearGradient>
    <linearGradient
       inkscape:collect="always"
       xlink:href="#linearGradient3578"
       id="linearGradient3584"
       x1="13.514812"
       y1="-7.4748664"
       x2="16.093008"
       y2="-7.4748664"
       gradientUnits="userSpaceOnUse"
       spreadMethod="reflect" />
    <linearGradient
       id="linearGradient3270">
      <stop
         id="stop3272"
         offset="0"
         style="stop-color:#6d7ac8;stop-opacity:1;" />
      <stop
         id="stop3274"
         offset="1"
         style="stop-color:#ffffff;stop-opacity:1;" />
    </linearGradient>
    <linearGradient
       inkscape:collect="always"
       xlink:href="#linearGradient3270"
       id="linearGradient25886"
       gradientUnits="userSpaceOnUse"
       spreadMethod="reflect"
       x1="95.319145"
       y1="153.19148"
       x2="172.93617"
       y2="66.042542" />
    <linearGradient
       inkscape:collect="always"
       xlink:href="#linearGradient3270"
       id="linearGradient25890"
       gradientUnits="userSpaceOnUse"
       spreadMethod="reflect"
       x1="95.319145"
       y1="153.19148"
       x2="172.93617"
       y2="66.042542" />
    <linearGradient
       inkscape:collect="always"
       xlink:href="#linearGradient3876"
       id="linearGradient26869"
       gradientUnits="userSpaceOnUse"
       gradientTransform="matrix(0.3141751,-0.9493651,0.9493651,0.3141751,116.6289,1510)"
       spreadMethod="reflect"
       x1="1099.7136"
       y1="684.4978"
       x2="1114.3724"
       y2="684.4978" />
    <linearGradient
       inkscape:collect="always"
       xlink:href="#linearGradient3876-1"
       id="linearGradient26871"
       gradientUnits="userSpaceOnUse"
       gradientTransform="translate(2038.173,-163.18477)"
       x1="-607.43646"
       y1="952.95087"
       x2="-604.04626"
       y2="942.04626" />
    <linearGradient
       inkscape:collect="always"
       xlink:href="#linearGradient3876-1"
       id="linearGradient26873"
       gradientUnits="userSpaceOnUse"
       gradientTransform="matrix(0.8438312,0.5366087,0.5366087,-0.8438312,-193.92252,664.65004)"
       x1="1421.642"
       y1="785.44641"
       x2="1420.3027"
       y2="792.27509" />
    <linearGradient
       inkscape:collect="always"
       xlink:href="#linearGradient3248"
       id="linearGradient26883"
       gradientUnits="userSpaceOnUse"
       x1="594.85852"
       y1="472.82172"
       x2="665.42059"
       y2="506.57288" />
    <linearGradient
       inkscape:collect="always"
       xlink:href="#linearGradient3266"
       id="linearGradient26885"
       gradientUnits="userSpaceOnUse"
       x1="592.66547"
       y1="542.13666"
       x2="648.34174"
       y2="557.60431" />
    <linearGradient
       inkscape:collect="always"
       xlink:href="#linearGradient3282"
       id="linearGradient26887"
       gradientUnits="userSpaceOnUse"
       spreadMethod="reflect"
       x1="731.50568"
       y1="518.13263"
       x2="712.37048"
       y2="564.0791" />
    <linearGradient
       inkscape:collect="always"
       xlink:href="#linearGradient3294"
       id="linearGradient26889"
       gradientUnits="userSpaceOnUse"
       spreadMethod="reflect"
       x1="753.57886"
       y1="539.43884"
       x2="746.90283"
       y2="578.28778" />
    <linearGradient
       inkscape:collect="always"
       xlink:href="#linearGradient3312"
       id="linearGradient26891"
       gradientUnits="userSpaceOnUse"
       x1="1050.2472"
       y1="631.68439"
       x2="1037.1112"
       y2="669.56982" />
    <linearGradient
       inkscape:collect="always"
       xlink:href="#linearGradient3332"
       id="linearGradient26893"
       gradientUnits="userSpaceOnUse"
       gradientTransform="translate(2038.173,-163.18477)"
       x1="-618.44989"
       y1="949.61743"
       x2="-611.63873"
       y2="937.4787" />
    <linearGradient
       inkscape:collect="always"
       xlink:href="#linearGradient3342"
       id="linearGradient26895"
       gradientUnits="userSpaceOnUse"
       x1="1421.2461"
       y1="794.89758"
       x2="1424.7098"
       y2="784.51599" />
  </defs>
  <sodipodi:namedview
     inkscape:window-height="572"
     inkscape:window-width="1024"
     inkscape:pageshadow="2"
     inkscape:pageopacity="0"
     guidetolerance="10.0"
     gridtolerance="10.0"
     objecttolerance="10.0"
     borderopacity="1.0"
     bordercolor="#666666"
     pagecolor="#ffffff"
     id="base"
     inkscape:zoom="1.6366138"
     inkscape:cx="128.11409"
     inkscape:cy="128.00821"
     inkscape:window-x="0"
     inkscape:window-y="28"
     inkscape:current-layer="svg2"
     width="256px"
     height="256px"
     showgrid="false"
     inkscape:window-maximized="1"
     inkscape:object-paths="true"
     inkscape:snap-global="false"
     fit-margin-top="0"
     fit-margin-left="0"
     fit-margin-right="0"
     fit-margin-bottom="0" />
  <g
     id="g4198"
     transform="translate(-259.56998,-4.5372613)">
    <path
       inkscape:connector-curvature="0"
       id="path4196"
       d="m 318.35407,16.565648 c -3.18149,0.24328 -0.8286,5.642803 0.69994,7.693439 4.9532,9.382078 10.16407,18.615467 14.94874,28.076054 1.23065,6.732802 -4.82151,11.973997 -9.79917,15.486793 -7.30131,4.55282 -16.7225,6.181176 -25.44786,3.347145 -8.75024,-9.537051 -13.80369,-19.831999 -20.04831,-31.323285 -5.09372,-7.7159 -6.0557,4.441123 -6.44946,7.893268 -2.15742,15.458255 0.42424,33.189837 12.54895,44.212292 9.31817,8.576686 22.77982,12.095106 35.24703,10.141346 10.97319,3.68625 21.37287,9.40712 29.44752,17.73488 l 117.14014,123.59459 c 7.68458,7.59397 20.86162,6.63403 29.6475,-2.04825 8.78592,-8.68226 9.7844,-21.68108 2.09983,-29.27504 L 373.29945,96.297647 l -0.14999,0.149872 c -7.218,-7.369698 -10.95978,-16.010025 -14.54878,-25.6781 4.04133,-13.446484 -0.7412,-28.457697 -10.84908,-38.067533 -7.1111,-7.060059 -18.02004,-12.941346 -27.64768,-15.936408 -0.69915,-0.201093 -1.29534,-0.234584 -1.74985,-0.19983 z M 481.54033,215.69582 c 2.87528,-1e-5 5.71548,1.08913 7.89934,3.24723 4.3677,4.31619 4.3677,11.37048 0,15.68662 -4.36773,4.31622 -12.33088,5.1654 -16.69859,0.84927 -4.3677,-4.31615 -3.51777,-12.21974 0.84992,-16.53589 2.18387,-2.1581 5.07406,-3.24721 7.94933,-3.24723 z"
       style="opacity:0.05;fill:none;stroke:#000000;stroke-width:24;stroke-linecap:round;stroke-linejoin:round;stroke-miterlimit:4;stroke-opacity:1;stroke-dasharray:none;display:inline;enable-background:new" />
    <path
       style="opacity:0.1;fill:none;stroke:#000000;stroke-width:18;stroke-linecap:round;stroke-linejoin:round;stroke-miterlimit:4;stroke-opacity:1;stroke-dasharray:none;display:inline;enable-background:new"
       d="m 318.35407,16.565648 c -3.18149,0.24328 -0.8286,5.642803 0.69994,7.693439 4.9532,9.382078 10.16407,18.615467 14.94874,28.076054 1.23065,6.732802 -4.82151,11.973997 -9.79917,15.486793 -7.30131,4.55282 -16.7225,6.181176 -25.44786,3.347145 -8.75024,-9.537051 -13.80369,-19.831999 -20.04831,-31.323285 -5.09372,-7.7159 -6.0557,4.441123 -6.44946,7.893268 -2.15742,15.458255 0.42424,33.189837 12.54895,44.212292 9.31817,8.576686 22.77982,12.095106 35.24703,10.141346 10.97319,3.68625 21.37287,9.40712 29.44752,17.73488 l 117.14014,123.59459 c 7.68458,7.59397 20.86162,6.63403 29.6475,-2.04825 8.78592,-8.68226 9.7844,-21.68108 2.09983,-29.27504 L 373.29945,96.297647 l -0.14999,0.149872 c -7.218,-7.369698 -10.95978,-16.010025 -14.54878,-25.6781 4.04133,-13.446484 -0.7412,-28.457697 -10.84908,-38.067533 -7.1111,-7.060059 -18.02004,-12.941346 -27.64768,-15.936408 -0.69915,-0.201093 -1.29534,-0.234584 -1.74985,-0.19983 z M 481.54033,215.69582 c 2.87528,-1e-5 5.71548,1.08913 7.89934,3.24723 4.3677,4.31619 4.3677,11.37048 0,15.68662 -4.36773,4.31622 -12.33088,5.1654 -16.69859,0.84927 -4.3677,-4.31615 -3.51777,-12.21974 0.84992,-16.53589 2.18387,-2.1581 5.07406,-3.24721 7.94933,-3.24723 z"
       id="path4194"
       inkscape:connector-curvature="0" />
    <path
       inkscape:connector-curvature="0"
       id="path4192"
       d="m 318.35407,16.565648 c -3.18149,0.24328 -0.8286,5.642803 0.69994,7.693439 4.9532,9.382078 10.16407,18.615467 14.94874,28.076054 1.23065,6.732802 -4.82151,11.973997 -9.79917,15.486793 -7.30131,4.55282 -16.7225,6.181176 -25.44786,3.347145 -8.75024,-9.537051 -13.80369,-19.831999 -20.04831,-31.323285 -5.09372,-7.7159 -6.0557,4.441123 -6.44946,7.893268 -2.15742,15.458255 0.42424,33.189837 12.54895,44.212292 9.31817,8.576686 22.77982,12.095106 35.24703,10.141346 10.97319,3.68625 21.37287,9.40712 29.44752,17.73488 l 117.14014,123.59459 c 7.68458,7.59397 20.86162,6.63403 29.6475,-2.04825 8.78592,-8.68226 9.7844,-21.68108 2.09983,-29.27504 L 373.29945,96.297647 l -0.14999,0.149872 c -7.218,-7.369698 -10.95978,-16.010025 -14.54878,-25.6781 4.04133,-13.446484 -0.7412,-28.457697 -10.84908,-38.067533 -7.1111,-7.060059 -18.02004,-12.941346 -27.64768,-15.936408 -0.69915,-0.201093 -1.29534,-0.234584 -1.74985,-0.19983 z M 481.54033,215.69582 c 2.87528,-1e-5 5.71548,1.08913 7.89934,3.24723 4.3677,4.31619 4.3677,11.37048 0,15.68662 -4.36773,4.31622 -12.33088,5.1654 -16.69859,0.84927 -4.3677,-4.31615 -3.51777,-12.21974 0.84992,-16.53589 2.18387,-2.1581 5.07406,-3.24721 7.94933,-3.24723 z"
       style="opacity:0.15;fill:none;stroke:#000000;stroke-width:12;stroke-linecap:round;stroke-linejoin:round;stroke-miterlimit:4;stroke-opacity:1;stroke-dasharray:none;display:inline;enable-background:new" />
    <path
       style="opacity:0.2;fill:none;stroke:#000000;stroke-width:6;stroke-linecap:round;stroke-linejoin:round;stroke-miterlimit:4;stroke-opacity:1;stroke-dasharray:none;display:inline;enable-background:new"
       d="m 318.35407,16.565648 c -3.18149,0.24328 -0.8286,5.642803 0.69994,7.693439 4.9532,9.382078 10.16407,18.615467 14.94874,28.076054 1.23065,6.732802 -4.82151,11.973997 -9.79917,15.486793 -7.30131,4.55282 -16.7225,6.181176 -25.44786,3.347145 -8.75024,-9.537051 -13.80369,-19.831999 -20.04831,-31.323285 -5.09372,-7.7159 -6.0557,4.441123 -6.44946,7.893268 -2.15742,15.458255 0.42424,33.189837 12.54895,44.212292 9.31817,8.576686 22.77982,12.095106 35.24703,10.141346 10.97319,3.68625 21.37287,9.40712 29.44752,17.73488 l 117.14014,123.59459 c 7.68458,7.59397 20.86162,6.63403 29.6475,-2.04825 8.78592,-8.68226 9.7844,-21.68108 2.09983,-29.27504 L 373.29945,96.297647 l -0.14999,0.149872 c -7.218,-7.369698 -10.95978,-16.010025 -14.54878,-25.6781 4.04133,-13.446484 -0.7412,-28.457697 -10.84908,-38.067533 -7.1111,-7.060059 -18.02004,-12.941346 -27.64768,-15.936408 -0.69915,-0.201093 -1.29534,-0.234584 -1.74985,-0.19983 z M 481.54033,215.69582 c 2.87528,-1e-5 5.71548,1.08913 7.89934,3.24723 4.3677,4.31619 4.3677,11.37048 0,15.68662 -4.36773,4.31622 -12.33088,5.1654 -16.69859,0.84927 -4.3677,-4.31615 -3.51777,-12.21974 0.84992,-16.53589 2.18387,-2.1581 5.07406,-3.24721 7.94933,-3.24723 z"
       id="path4190"
       inkscape:connector-curvature="0" />
    <path
       inkscape:connector-curvature="0"
       id="path6912"
       d="m 318.35407,16.565648 c -3.18149,0.24328 -0.8286,5.642803 0.69994,7.693439 4.9532,9.382078 10.16407,18.615467 14.94874,28.076054 1.23065,6.732802 -4.82151,11.973997 -9.79917,15.486793 -7.30131,4.55282 -16.7225,6.181176 -25.44786,3.347145 -8.75024,-9.537051 -13.80369,-19.831999 -20.04831,-31.323285 -5.09372,-7.7159 -6.0557,4.441123 -6.44946,7.893268 -2.15742,15.458255 0.42424,33.189837 12.54895,44.212292 9.31817,8.576686 22.77982,12.095106 35.24703,10.141346 10.97319,3.68625 21.37287,9.40712 29.44752,17.73488 l 117.14014,123.59459 c 7.68458,7.59397 20.86162,6.63403 29.6475,-2.04825 8.78592,-8.68226 9.7844,-21.68108 2.09983,-29.27504 L 373.29945,96.297647 l -0.14999,0.149872 c -7.218,-7.369698 -10.95978,-16.010025 -14.54878,-25.6781 4.04133,-13.446484 -0.7412,-28.457697 -10.84908,-38.067533 -7.1111,-7.060059 -18.02004,-12.941346 -27.64768,-15.936408 -0.69915,-0.201093 -1.29534,-0.234584 -1.74985,-0.19983 z M 481.54033,215.69582 c 2.87528,-1e-5 5.71548,1.08913 7.89934,3.24723 4.3677,4.31619 4.3677,11.37048 0,15.68662 -4.36773,4.31622 -12.33088,5.1654 -16.69859,0.84927 -4.3677,-4.31615 -3.51777,-12.21974 0.84992,-16.53589 2.18387,-2.1581 5.07406,-3.24721 7.94933,-3.24723 z"
       style="fill:url(#linearGradient8334);fill-opacity:1;fill-rule:evenodd;stroke:none;display:inline;enable-background:new" />
    <path
       inkscape:connector-curvature="0"
       style="fill:url(#linearGradient8336);fill-opacity:1;stroke:none;display:inline"
       id="rect6533"
       d="m 374.50754,120.6265 c 2.96947,-2.93176 8.40506,-2.28555 12.18747,1.44889 l 78.67806,70.61407 c 3.78237,3.73444 0.85966,12.6369 -2.10988,15.56863 -2.96948,2.9318 -11.98423,5.82333 -15.7666,2.08887 L 375.97476,132.6594 c -3.78234,-3.73447 -4.43675,-9.10112 -1.46722,-12.0329 z" />
    <path
       id="path4170"
       d="m 318.34375,16.5625 c -1.54103,0.117839 -1.77078,1.460459 -1.4375,3.03125 0.20293,-0.572458 0.64213,-0.97043 1.4375,-1.03125 0.45451,-0.03475 1.05085,-0.01359 1.75,0.1875 9.62764,2.995062 20.54515,8.877441 27.65625,15.9375 7.42108,7.055418 11.95451,17.034647 12.25,27.15625 0.28674,-10.794961 -4.34181,-21.637717 -12.25,-29.15625 -7.1111,-7.060059 -18.02861,-12.942438 -27.65625,-15.9375 -0.69915,-0.201093 -1.29549,-0.222254 -1.75,-0.1875 z m -42.75,20.78125 c -2.43793,0.325837 -3.04843,7.817141 -3.34375,10.40625 -0.47616,3.411734 -0.69343,6.932112 -0.65625,10.46875 0.0549,-2.86158 0.27002,-5.701351 0.65625,-8.46875 0.39376,-3.452145 1.37503,-15.62215 6.46875,-7.90625 6.24462,11.491286 11.28101,21.775449 20.03125,31.3125 8.72536,2.834031 18.16744,1.20907 25.46875,-3.34375 4.79866,-3.38647 10.56685,-8.363038 9.875,-14.75 -0.55214,5.429153 -5.59303,9.728164 -9.875,12.75 -7.30131,4.55282 -16.74339,6.177781 -25.46875,3.34375 -8.75024,-9.537051 -13.78663,-19.821214 -20.03125,-31.3125 -1.27343,-1.928975 -2.31236,-2.608612 -3.125,-2.5 z m 83.34375,34.3125 c -0.098,0.372466 -0.23248,0.754761 -0.34375,1.125 3.589,9.668075 7.3445,18.286552 14.5625,25.65625 l 0.15625,-0.125 125.0625,115.78125 c 3.22284,3.18484 4.92185,7.31846 5.15625,11.6875 0.23376,-5.08763 -1.44915,-10.02411 -5.15625,-13.6875 L 373.3125,96.3125 l -0.15625,0.125 C 366.16037,89.294589 362.42822,80.965281 358.9375,71.65625 z m 133.71875,156.1875 c -0.23886,2.47793 -1.30788,4.89294 -3.21875,6.78125 -4.36773,4.31622 -12.31979,5.15988 -16.6875,0.84375 -1.76334,-1.74253 -2.66942,-4.06015 -2.84375,-6.5 -0.27859,3.13672 0.60096,6.28368 2.84375,8.5 4.36771,4.31613 12.31977,3.47247 16.6875,-0.84375 2.42483,-2.3962 3.48632,-5.63422 3.21875,-8.78125 z"
       style="opacity:0.7;fill:#ffffff;fill-opacity:1;fill-rule:evenodd;stroke:none;display:inline;enable-background:new"
       inkscape:connector-curvature="0" />
    <path
       id="path4179"
       d="m 316.90625,17.59375 c -0.60879,1.717373 1.00984,5.118273 2.15625,6.65625 4.9532,9.382078 10.15283,18.633163 14.9375,28.09375 0.0443,0.242122 0.0679,0.480497 0.0937,0.71875 0.0897,-0.88208 0.0783,-1.77775 -0.0937,-2.71875 -4.78467,-9.460587 -9.9843,-18.711672 -14.9375,-28.09375 -0.78815,-1.057359 -1.80147,-2.984117 -2.15625,-4.65625 z m -45.3125,38.625 c -0.25174,13.122752 3.26465,26.669579 13.21875,35.71875 9.31817,8.57669 22.78279,12.11001 35.25,10.15625 10.97319,3.68625 21.36285,9.39099 29.4375,17.71875 l 117.15625,123.625 c 7.68458,7.59397 20.83912,6.61978 29.625,-2.0625 5.10118,-5.041 7.57451,-11.54522 7.25,-17.59375 -0.2508,5.45868 -2.70248,11.09989 -7.25,15.59375 -8.78588,8.68228 -21.94042,9.65647 -29.625,2.0625 L 349.5,117.8125 c -8.07465,-8.32776 -18.46431,-14.0325 -29.4375,-17.71875 -12.46721,1.95376 -25.93183,-1.579564 -35.25,-10.15625 -9.44871,-8.58973 -13.08746,-21.231205 -13.21875,-33.71875 z M 360,59.84375 c -0.0798,3.002652 -0.52677,6.011261 -1.40625,8.9375 0.11044,0.297514 0.23292,0.579439 0.34375,0.875 0.84781,-3.223282 1.1584,-6.52756 1.0625,-9.8125 z M 481.53125,213.6875 c -2.87527,2e-5 -5.75363,1.0919 -7.9375,3.25 -2.60435,2.57362 -3.94498,6.42773 -3.6875,10.03125 0.26395,-2.97184 1.5626,-5.93142 3.6875,-8.03125 2.18387,-2.1581 5.06223,-3.24998 7.9375,-3.25 2.87528,-1e-5 5.72239,1.0919 7.90625,3.25 1.91087,1.88833 2.97989,4.30332 3.21875,6.78125 0.26757,-3.14703 -0.79392,-6.38502 -3.21875,-8.78125 -2.18386,-2.1581 -5.03097,-3.25001 -7.90625,-3.25 z"
       style="opacity:0.7;fill:#000000;fill-opacity:1;fill-rule:evenodd;stroke:none;display:inline;enable-background:new"
       inkscape:connector-curvature="0" />
    <path
       inkscape:connector-curvature="0"
       style="opacity:0.3;fill:#000000;fill-opacity:1;fill-rule:evenodd;stroke:none;display:inline;enable-background:new"
       d="m 316.90625,19.59375 c -0.60879,1.717373 1.00984,5.118273 2.15625,6.65625 4.9532,9.382078 10.15283,18.633163 14.9375,28.09375 0.0443,0.242122 0.0679,0.480497 0.0937,0.71875 0.0897,-0.88208 0.0783,-1.77775 -0.0937,-2.71875 -4.78467,-9.460587 -9.9843,-18.711672 -14.9375,-28.09375 -0.78815,-1.057359 -1.80147,-2.984117 -2.15625,-4.65625 z m -45.3125,38.625 c -0.25174,13.122752 3.26465,26.669579 13.21875,35.71875 9.31817,8.57669 22.78279,12.11001 35.25,10.15625 10.97319,3.68625 21.36285,9.39099 29.4375,17.71875 l 117.15625,123.625 c 7.68458,7.59397 20.83912,6.61978 29.625,-2.0625 5.10118,-5.041 7.57451,-11.54522 7.25,-17.59375 -0.2508,5.45868 -2.70248,11.09989 -7.25,15.59375 -8.78588,8.68228 -21.94042,9.65647 -29.625,2.0625 L 349.5,119.8125 c -8.07465,-8.32776 -18.46431,-14.0325 -29.4375,-17.71875 -12.46721,1.95376 -25.93183,-1.57956 -35.25,-10.15625 -9.44871,-8.58973 -13.08746,-21.231205 -13.21875,-33.71875 z M 360,61.84375 c -0.0798,3.002652 -0.52677,6.011261 -1.40625,8.9375 0.11044,0.297514 0.23292,0.579439 0.34375,0.875 0.84781,-3.223282 1.1584,-6.52756 1.0625,-9.8125 z M 481.53125,215.6875 c -2.87527,2e-5 -5.75363,1.0919 -7.9375,3.25 -2.60435,2.57362 -3.94498,6.42773 -3.6875,10.03125 0.26395,-2.97184 1.5626,-5.93142 3.6875,-8.03125 2.18387,-2.1581 5.06223,-3.24998 7.9375,-3.25 2.87528,-1e-5 5.72239,1.0919 7.90625,3.25 1.91087,1.88833 2.97989,4.30332 3.21875,6.78125 0.26757,-3.14703 -0.79392,-6.38502 -3.21875,-8.78125 -2.18386,-2.1581 -5.03097,-3.25001 -7.90625,-3.25 z"
       id="path4188" />
  </g>
  <g
     id="g26842"
     transform="matrix(0.99913701,0,0,1.0473197,-0.74256431,-8.0904554)">
    <path
       inkscape:connector-curvature="0"
       id="path26840"
       d="m 246.40625,16.531252 -6.59375,2.59375 -7.9375,8.9375 -0.46875,-0.46875 -98,96.999998 c -1.1583,-0.80204 -2.38113,-1.49325 -3.625,-2.03125 -0.0507,-0.0219 -0.10546,-0.041 -0.15625,-0.0625 -0.27724,-0.17317 -0.52964,-0.36037 -0.8125,-0.53125 l -0.1875,0.15625 c -0.0301,-0.0108 -0.0636,-0.0206 -0.0937,-0.0313 0.007,0.0222 0.0237,0.0404 0.0313,0.0625 l -0.0937,0.0625 c -0.0234,-0.0616 -0.0393,-0.12574 -0.0625,-0.1875 l -1.375,1.3125 -2.78125,2.09375 -5.1875,-1.75 -2.4375,1.09375 -1.09375,-0.5625 -9.84375,8.6875 c 0.29194,6.44822 -4.32009,10.386 -9.625,13.71875 L 36.5,188.46875 c -1.34905,1.26082 -2.691151,2.47313 -4.53125,4.6875 l -19.1875,24.15625 c -1.650164,2.49353 -3.8926407,4.68576 -2.25,8.875 1.930022,6.48657 6.210789,10.68989 10.59375,14.78125 5.979656,3.36066 10.994826,2.89089 15.5625,0.5625 L 63.25,223.9375 c 1.675127,-1.34023 3.250497,-2.94725 4.6875,-5.03125 l 46.9375,-54.4375 c 4.49128,-6.01202 10.0207,-6.49215 15.65625,-6.40625 l 7.34375,-9.28125 -0.875,-4.1875 1.125,-1.28125 -1.0625,-3.8125 3.65625,-4.40625 c -0.0114,-0.051 -0.0192,-0.10547 -0.0313,-0.15625 l 0.0313,-0.0313 c -0.0226,-0.007 -0.0399,-0.0238 -0.0625,-0.0313 -0.10244,-0.42222 -0.23182,-0.84436 -0.375,-1.25 -0.35799,-1.37598 -0.98347,-2.69623 -1.8125,-3.9375 l 98.59375,-95.093748 -0.21875,-1.46875 8.1875,-9.21875 0.0625,-0.125 0.0937,-0.21875 2.5625,-5.53125 -1.34375,-1.5 z"
       style="opacity:0.05;fill:none;stroke:#000000;stroke-width:18;stroke-linecap:butt;stroke-linejoin:round;stroke-miterlimit:4;stroke-opacity:1;stroke-dasharray:none" />
    <path
       style="opacity:0.1;fill:none;stroke:#000000;stroke-width:12;stroke-linecap:butt;stroke-linejoin:round;stroke-miterlimit:4;stroke-opacity:1;stroke-dasharray:none"
       d="m 246.40625,16.531252 -6.59375,2.59375 -7.9375,8.9375 -0.46875,-0.46875 -98,96.999998 c -1.1583,-0.80204 -2.38113,-1.49325 -3.625,-2.03125 -0.0507,-0.0219 -0.10546,-0.041 -0.15625,-0.0625 -0.27724,-0.17317 -0.52964,-0.36037 -0.8125,-0.53125 l -0.1875,0.15625 c -0.0301,-0.0108 -0.0636,-0.0206 -0.0937,-0.0313 0.007,0.0222 0.0237,0.0404 0.0313,0.0625 l -0.0937,0.0625 c -0.0234,-0.0616 -0.0393,-0.12574 -0.0625,-0.1875 l -1.375,1.3125 -2.78125,2.09375 -5.1875,-1.75 -2.4375,1.09375 -1.09375,-0.5625 -9.84375,8.6875 c 0.29194,6.44822 -4.32009,10.386 -9.625,13.71875 L 36.5,188.46875 c -1.34905,1.26082 -2.691151,2.47313 -4.53125,4.6875 l -19.1875,24.15625 c -1.650164,2.49353 -3.8926407,4.68576 -2.25,8.875 1.930022,6.48657 6.210789,10.68989 10.59375,14.78125 5.979656,3.36066 10.994826,2.89089 15.5625,0.5625 L 63.25,223.9375 c 1.675127,-1.34023 3.250497,-2.94725 4.6875,-5.03125 l 46.9375,-54.4375 c 4.49128,-6.01202 10.0207,-6.49215 15.65625,-6.40625 l 7.34375,-9.28125 -0.875,-4.1875 1.125,-1.28125 -1.0625,-3.8125 3.65625,-4.40625 c -0.0114,-0.051 -0.0192,-0.10547 -0.0313,-0.15625 l 0.0313,-0.0313 c -0.0226,-0.007 -0.0399,-0.0238 -0.0625,-0.0313 -0.10244,-0.42222 -0.23182,-0.84436 -0.375,-1.25 -0.35799,-1.37598 -0.98347,-2.69623 -1.8125,-3.9375 l 98.59375,-95.093748 -0.21875,-1.46875 8.1875,-9.21875 0.0625,-0.125 0.0937,-0.21875 2.5625,-5.53125 -1.34375,-1.5 z"
       id="path26838"
       inkscape:connector-curvature="0" />
    <path
       inkscape:connector-curvature="0"
       id="path25963"
       d="m 246.40625,16.531252 -6.59375,2.59375 -7.9375,8.9375 -0.46875,-0.46875 -98,96.999998 c -1.1583,-0.80204 -2.38113,-1.49325 -3.625,-2.03125 -0.0507,-0.0219 -0.10546,-0.041 -0.15625,-0.0625 -0.27724,-0.17317 -0.52964,-0.36037 -0.8125,-0.53125 l -0.1875,0.15625 c -0.0301,-0.0108 -0.0636,-0.0206 -0.0937,-0.0313 0.007,0.0222 0.0237,0.0404 0.0313,0.0625 l -0.0937,0.0625 c -0.0234,-0.0616 -0.0393,-0.12574 -0.0625,-0.1875 l -1.375,1.3125 -2.78125,2.09375 -5.1875,-1.75 -2.4375,1.09375 -1.09375,-0.5625 -9.84375,8.6875 c 0.29194,6.44822 -4.32009,10.386 -9.625,13.71875 L 36.5,188.46875 c -1.34905,1.26082 -2.691151,2.47313 -4.53125,4.6875 l -19.1875,24.15625 c -1.650164,2.49353 -3.8926407,4.68576 -2.25,8.875 1.930022,6.48657 6.210789,10.68989 10.59375,14.78125 5.979656,3.36066 10.994826,2.89089 15.5625,0.5625 L 63.25,223.9375 c 1.675127,-1.34023 3.250497,-2.94725 4.6875,-5.03125 l 46.9375,-54.4375 c 4.49128,-6.01202 10.0207,-6.49215 15.65625,-6.40625 l 7.34375,-9.28125 -0.875,-4.1875 1.125,-1.28125 -1.0625,-3.8125 3.65625,-4.40625 c -0.0114,-0.051 -0.0192,-0.10547 -0.0313,-0.15625 l 0.0313,-0.0313 c -0.0226,-0.007 -0.0399,-0.0238 -0.0625,-0.0313 -0.10244,-0.42222 -0.23182,-0.84436 -0.375,-1.25 -0.35799,-1.37598 -0.98347,-2.69623 -1.8125,-3.9375 l 98.59375,-95.093748 -0.21875,-1.46875 8.1875,-9.21875 0.0625,-0.125 0.0937,-0.21875 2.5625,-5.53125 -1.34375,-1.5 z"
       style="opacity:0.15;fill:none;stroke:#000000;stroke-width:6;stroke-linecap:butt;stroke-linejoin:round;stroke-miterlimit:4;stroke-opacity:1;stroke-dasharray:none" />
    <g
       transform="matrix(0.09972068,-0.19364311,0.19364311,0.09972068,-51.223704,221.90839)"
       id="g2523">
      <path
         inkscape:connector-curvature="0"
         sodipodi:nodetypes="ccccccccccccccccccccccc"
         id="path2525"
         d="m 153.28399,251.5543 139.00288,27.61016 c 12.90617,2.85622 20.58031,5.71245 28.56223,8.56867 l 296.09516,155.18814 c 24.75394,14.64772 50.45995,25.21828 76.16596,10.47282 l 56.1724,21.89771 0,5.71245 9.52074,7.61659 3.8083,24.75394 23.80186,11.4249 c -2.15563,31.70161 -8.73915,59.60787 -28.56223,76.16595 l -25.70601,-5.71244 -13.32905,12.37697 -7.61659,-1.90415 -15.23319,12.37696 -53.31618,-10.47281 c -11.49495,-23.18318 -25.04893,-44.7649 -59.02861,-50.45995 l -320.8491,-77.11804 c -11.52676,-1.48493 -21.47495,-4.54842 -30.46639,-8.56867 L 104.72819,400.07792 C 85.62336,386.32826 73.113585,366.80793 74.26181,335.33685 c 7.486884,-26.48975 15.66359,-52.74956 38.08298,-74.26181 13.6464,-15.51033 27.2928,-11.01491 40.9392,-9.52074 z"
         style="fill:#2c5aa0;fill-opacity:1;fill-rule:evenodd;stroke:none;stroke-width:1px;stroke-linecap:butt;stroke-linejoin:miter;stroke-opacity:1" />
      <path
         inkscape:connector-curvature="0"
         sodipodi:nodetypes="ccccccccc"
         id="path2527"
         d="m 143.60465,259.51163 c -23.69223,-1.87424 -36.87263,27.92601 -25,40.11628 l 145.34884,58.72093 14.53488,7.55814 327.90698,128.48837 35.46512,-30.23256 L 325,300.2093 305.81395,294.97674 143.60465,259.51163 z"
         style="fill:#9fc4e3;fill-opacity:0.23671498;fill-rule:evenodd;stroke:none" />
      <path
         inkscape:connector-curvature="0"
         sodipodi:nodetypes="ccccccccc"
         id="path2529"
         d="m 104.65116,325.2093 134.30233,61.04651 16.27907,5.23256 345.93023,126.74419 -3.48837,35.46511 L 256.97674,469.97674 228.48837,458.93023 95.930233,387.4186 C 74.599452,359.818 77.920735,323.54665 104.65116,325.2093 z"
         style="fill:#2b6da5;fill-opacity:0.23671498;fill-rule:evenodd;stroke:none" />
      <path
         inkscape:connector-curvature="0"
         sodipodi:nodetypes="ccccc"
         id="path2531"
         d="m 642.27455,463.94111 c 15.46763,4.05645 29.06456,2.96692 47.84173,-5.59227 -16.64701,12.82088 -23.11677,22.95884 -28.48837,36.6279 -20.15065,5.68925 -38.05884,4.6511 -54.37511,-1.16279 l 35.02175,-29.87284 z"
         style="fill:url(#linearGradient26883);fill-opacity:1;fill-rule:evenodd;stroke:none" />
      <path
         inkscape:connector-curvature="0"
         sodipodi:nodetypes="ccccc"
         id="path2533"
         d="m 600.71942,518.21583 c 20.65271,2.57886 36.05998,11.45225 47.12231,25.53957 l -1.07914,53.23741 c -10.7389,-21.05298 -25.74079,-37.18712 -48.92086,-43.8849 l 2.87769,-34.89208 z"
         style="fill:url(#linearGradient26885);fill-opacity:1;fill-rule:evenodd;stroke:none" />
      <path
         inkscape:connector-curvature="0"
         sodipodi:nodetypes="ccccc"
         id="path2535"
         d="m 691.0072,458.50359 c -23.16538,17.78823 -30.50903,34.96793 -28.77698,51.79857 l 42.08633,16.54676 c 11.0154,-12.73468 22.20269,-30.2628 25.58393,-47.76883 l -38.89328,-20.5765 z"
         style="fill:#b5c9da;fill-opacity:0.13043476;fill-rule:evenodd;stroke:none" />
      <path
         inkscape:connector-curvature="0"
         id="path2537"
         d="m 660.07194,513.89928 c -3.23741,5.03597 -11.51079,25.53957 -11.51079,25.53957 l 42.80576,17.26619 10.07194,-24.82015 -41.36691,-17.98561 z"
         style="fill:#b5c9da;fill-opacity:0.13043476;fill-rule:evenodd;stroke:none" />
      <path
         inkscape:connector-curvature="0"
         id="path2539"
         d="m 651.43885,544.11511 42.44604,17.6259 -5.39568,45.32374 -40.28777,-7.55396 3.23741,-55.39568 z"
         style="fill:none;stroke:none" />
      <path
         inkscape:connector-curvature="0"
         sodipodi:nodetypes="ccccc"
         id="path2541"
         d="m 755.39568,492.31655 -13.30935,-3.23741 c -34.28489,33.98229 -41.99838,70.83717 -41.00719,108.63309 l 15.82733,1.07914 c -7.40825,-42.60225 10.56545,-76.28652 38.48921,-106.47482 z"
         style="fill:url(#linearGradient26887);fill-opacity:1;fill-rule:evenodd;stroke:#000000;stroke-width:1px;stroke-linecap:butt;stroke-linejoin:miter;stroke-opacity:1" />
      <path
         inkscape:connector-curvature="0"
         sodipodi:nodetypes="ccc"
         id="path2543"
         d="m 756.47482,492.31655 c -24.89291,6.03304 -56.31442,96.43174 -38.48921,106.1151 17.72359,0.91021 52.98303,-103.77769 38.48921,-106.1151 z"
         style="fill:#20547d;fill-opacity:1;fill-rule:evenodd;stroke:#000000;stroke-width:1px;stroke-linecap:butt;stroke-linejoin:miter;stroke-opacity:1" />
      <path
         inkscape:connector-curvature="0"
         sodipodi:nodetypes="ccccc"
         id="path2545"
         d="M 785.2518,523.2518 747.84173,509.94245 C 731.3267,532.9799 721.21777,559.2204 721.94245,590.8777 l 36.69064,9.71223 c -5.67878,-35.09246 8.58258,-57.42322 26.61871,-77.33813 z"
         style="fill:url(#linearGradient26889);fill-opacity:1;fill-rule:evenodd;stroke:#000000;stroke-width:1px;stroke-linecap:butt;stroke-linejoin:miter;stroke-opacity:1" />
      <path
         inkscape:connector-curvature="0"
         id="path2547"
         d="m 651.98238,549.01322 -2.64317,51.54185 39.20705,8.81057 0.88105,-46.69604 -37.44493,-13.65638 z"
         style="fill:#254b6a;fill-opacity:1;fill-rule:evenodd;stroke:none" />
      <path
         inkscape:connector-curvature="0"
         sodipodi:nodetypes="ccc"
         id="path2549"
         d="m 785.2518,523.97122 c -19.3327,19.8986 -30.74666,44.273 -28.05756,76.61871 22.56341,-14.71714 31.83257,-49.15472 28.05756,-76.61871 z"
         style="fill:#6694bc;fill-opacity:1;fill-rule:evenodd;stroke:#000000;stroke-width:1px;stroke-linecap:butt;stroke-linejoin:miter;stroke-opacity:1" />
      <path
         inkscape:connector-curvature="0"
         sodipodi:nodetypes="ccccccccccc"
         id="path2551"
         d="m 776.2674,546.10921 610.9017,199.08662 -0.8399,2.89123 53.1147,13.58227 24.48,21.49805 -3.2971,8.55036 -29.6656,1.3127 -54.8587,-14.05419 -5.5594,4.02837 -605.45379,-205.96903 c -2.51215,-12.18157 2.02676,-23.07041 11.17809,-30.92638 z"
         style="fill:url(#linearGradient26869);fill-opacity:1;fill-rule:evenodd;stroke:url(#linearGradient26891);stroke-width:1px;stroke-linecap:butt;stroke-linejoin:miter;stroke-opacity:1" />
      <path
         inkscape:connector-curvature="0"
         sodipodi:nodetypes="cc"
         id="path2553"
         d="M 748.01762,482.05286 C 704.17668,507.58918 682.03102,590.6514 703.0837,610.2467"
         style="fill:#000000;fill-opacity:0;fill-rule:evenodd;stroke:#1a2b40;stroke-width:1px;stroke-linecap:butt;stroke-linejoin:miter;stroke-opacity:1" />
      <path
         inkscape:connector-curvature="0"
         sodipodi:nodetypes="cccccc"
         id="path2555"
         d="m 1414.4736,760.36436 c -12.2978,0.71015 -20.0716,8.7031 -8.0925,17.91908 l 31.7919,10.98266 23.6994,-2.31214 -22.5433,-17.34104 -24.8555,-9.24856 z"
         style="fill:url(#linearGradient26871);fill-opacity:1;fill-rule:evenodd;stroke:url(#linearGradient26893);stroke-width:1px;stroke-linecap:butt;stroke-linejoin:miter;stroke-opacity:1" />
      <path
         inkscape:connector-curvature="0"
         id="path2557"
         d="m 1403.3256,781.18335 31.1799,9.85836 14.6729,0.91706 -17.6533,1.14632 -35.536,-9.85836 7.3365,-2.06338 z"
         style="fill:url(#linearGradient26895);fill-opacity:1;fill-rule:evenodd;stroke:#253240;stroke-width:0.60000002;stroke-linecap:butt;stroke-linejoin:miter;stroke-miterlimit:4;stroke-opacity:1;stroke-dasharray:none" />
      <path
         inkscape:connector-curvature="0"
         sodipodi:nodetypes="cccccc"
         style="fill:url(#linearGradient26873);fill-opacity:1;fill-rule:evenodd;stroke:#253240;stroke-width:0.60000002;stroke-linecap:butt;stroke-linejoin:miter;stroke-miterlimit:4;stroke-opacity:1;stroke-dasharray:none"
         d="m 1410.7513,757.84284 29.1039,10.38385 12.8735,7.62541 -13.8871,-12.67423 -34.3565,-9.56744 c 0.5236,1.92117 1.2648,3.00015 6.2662,4.23241 z"
         id="path2559" />
    </g>
    <path
       id="path26058"
       d="m 246.40625,16.53125 -6.59375,2.59375 -7.9375,8.9375 -0.46875,-0.46875 -98,97 c -1.1583,-0.80204 -2.38113,-1.49325 -3.625,-2.03125 -0.0507,-0.0219 -0.10546,-0.041 -0.15625,-0.0625 -0.27724,-0.17317 -0.52964,-0.36037 -0.8125,-0.53125 l -0.1875,0.15625 c -0.0301,-0.0108 -0.0636,-0.0206 -0.0937,-0.0313 0.007,0.0222 0.0237,0.0404 0.0313,0.0625 l -0.0937,0.0625 c -0.0234,-0.0616 -0.0393,-0.12574 -0.0625,-0.1875 l -1.375,1.3125 -2.78125,2.09375 -5.1875,-1.75 -2.4375,1.09375 -1.09375,-0.5625 -9.84375,8.6875 c 0.29194,6.44822 -4.32009,10.386 -9.625,13.71875 L 36.5,188.46875 c -1.34905,1.26082 -2.691151,2.47313 -4.53125,4.6875 l -19.1875,24.15625 c -1.401844,2.1183 -3.2070128,4.03253 -2.71875,7.125 0.340548,-2.00284 1.644192,-3.50126 2.71875,-5.125 l 19.1875,-24.15625 c 1.840099,-2.21437 3.1822,-3.42668 4.53125,-4.6875 L 96.0625,148.625 c 5.30491,-3.33275 9.91694,-7.27053 9.625,-13.71875 l 9.84375,-8.6875 1.09375,0.5625 2.4375,-1.09375 5.1875,1.75 2.78125,-2.09375 1.375,-1.3125 c 0.0232,0.0618 0.0391,0.1259 0.0625,0.1875 l 0.0937,-0.0625 c -0.008,-0.0221 -0.0242,-0.0403 -0.0313,-0.0625 0.0301,0.0107 0.0636,0.0204 0.0937,0.0313 l 0.1875,-0.15625 c 0.28286,0.17088 0.53526,0.35808 0.8125,0.53125 0.0508,0.0215 0.10555,0.0405 0.15625,0.0625 1.24387,0.538 2.4667,1.22921 3.625,2.03125 l 98,-97 0.46875,0.46875 7.9375,-8.9375 6.59375,-2.59375 0.71875,0.8125 0.625,-1.3125 -1.34375,-1.5 z m -107.1875,114.40625 -0.75,0.75 c 0.82903,1.24127 1.45451,2.56152 1.8125,3.9375 l 0.4375,-0.53125 c -0.0114,-0.051 -0.0191,-0.10547 -0.0313,-0.15625 l 0.0313,-0.0313 c -0.0226,-0.007 -0.0399,-0.0238 -0.0625,-0.0313 -0.10244,-0.42222 -0.23182,-0.84436 -0.375,-1.25 -0.23981,-0.92175 -0.60184,-1.82276 -1.0625,-2.6875 z m -1.75,10.0625 -0.40625,0.5 0.625,2.28125 0.4375,-0.46875 L 137.46875,141 z m -0.125,5.21875 -0.34375,0.375 0.53125,2.59375 0.34375,-0.40625 -0.53125,-2.5625 z"
       style="opacity:0.7;fill:#ffffff;fill-opacity:1;fill-rule:evenodd;stroke:none"
       inkscape:connector-curvature="0" />
    <path
       id="path26831"
       d="m 247.125,17.34375 -1.9375,4.21875 -0.0937,0.21875 -0.0625,0.125 -8.1875,9.21875 0.21875,1.46875 -98.59375,95.09375 c 0.27368,0.40976 0.52299,0.82386 0.75,1.25 l 97.84375,-94.34375 -0.21875,-1.46875 8.1875,-9.21875 0.0625,-0.125 0.0937,-0.21875 2.5625,-5.53125 -0.625,-0.6875 z M 140.28125,133.625 l -3.21875,3.875 0.40625,1.5 3.25,-3.90625 c -0.0114,-0.051 -0.0191,-0.10547 -0.0313,-0.15625 l 0.0313,-0.0313 c -0.0226,-0.007 -0.0399,-0.0238 -0.0625,-0.0313 -0.10244,-0.42222 -0.23182,-0.84436 -0.375,-1.25 z m -2.59375,8.15625 -0.6875,0.8125 0.34375,1.625 0.78125,-0.90625 -0.4375,-1.53125 z m -0.15625,5.40625 -7,8.875 c -5.63555,-0.0859 -11.16497,0.39423 -15.65625,6.40625 l -46.9375,54.4375 c -1.437003,2.084 -3.012373,3.69102 -4.6875,5.03125 l -26.5625,17.59375 c -4.567674,2.32839 -9.582844,2.79816 -15.5625,-0.5625 -4.382961,-4.09136 -8.663728,-8.29468 -10.59375,-14.78125 -0.247187,-0.6304 -0.38226,-1.20221 -0.46875,-1.75 -0.1824205,1.07286 -0.1042319,2.28872 0.46875,3.75 1.930022,6.48657 6.210789,10.68989 10.59375,14.78125 5.979656,3.36066 10.994826,2.89089 15.5625,0.5625 L 63.25,223.9375 c 1.675127,-1.34023 3.250497,-2.94725 4.6875,-5.03125 l 46.9375,-54.4375 c 4.49128,-6.01202 10.0207,-6.49215 15.65625,-6.40625 l 7.34375,-9.28125 -0.34375,-1.59375 z"
       style="opacity:0.7;fill:#000000;fill-opacity:1;fill-rule:evenodd;stroke:none"
       inkscape:connector-curvature="0" />
    <path
       inkscape:connector-curvature="0"
       style="opacity:0.3;fill:#000000;fill-opacity:1;fill-rule:evenodd;stroke:none"
       d="m 247.125,19.34375 -1.9375,4.21875 -0.0937,0.21875 -0.0625,0.125 -8.1875,9.21875 0.21875,1.46875 -98.59375,95.09375 c 0.27368,0.40976 0.52299,0.82386 0.75,1.25 l 97.84375,-94.34375 -0.21875,-1.46875 8.1875,-9.21875 0.0625,-0.125 0.0937,-0.21875 2.5625,-5.53125 -0.625,-0.6875 z M 140.28125,135.625 l -3.21875,3.875 0.40625,1.5 3.25,-3.90625 c -0.0114,-0.051 -0.0191,-0.10547 -0.0313,-0.15625 l 0.0313,-0.0313 c -0.0226,-0.007 -0.0399,-0.0238 -0.0625,-0.0313 -0.10244,-0.42222 -0.23182,-0.84436 -0.375,-1.25 z m -2.59375,8.15625 -0.6875,0.8125 0.34375,1.625 0.78125,-0.90625 -0.4375,-1.53125 z m -0.15625,5.40625 -7,8.875 c -5.63555,-0.0859 -11.16497,0.39423 -15.65625,6.40625 l -46.9375,54.4375 c -1.437003,2.084 -3.012373,3.69102 -4.6875,5.03125 l -26.5625,17.59375 c -4.567674,2.32839 -9.582844,2.79816 -15.5625,-0.5625 -4.382961,-4.09136 -8.663728,-8.29468 -10.59375,-14.78125 -0.247187,-0.6304 -0.38226,-1.20221 -0.46875,-1.75 -0.1824205,1.07286 -0.1042319,2.28872 0.46875,3.75 1.930022,6.48657 6.210789,10.68989 10.59375,14.78125 5.979656,3.36066 10.994826,2.89089 15.5625,0.5625 L 63.25,225.9375 c 1.675127,-1.34023 3.250497,-2.94725 4.6875,-5.03125 l 46.9375,-54.4375 c 4.49128,-6.01202 10.0207,-6.49215 15.65625,-6.40625 l 7.34375,-9.28125 -0.34375,-1.59375 z"
       id="path26836" />
  </g>
</svg>
