<?xml version="1.0" encoding="UTF-8" standalone="no"?>
<!-- Created with Inkscape (http://www.inkscape.org/) -->

<svg
   xmlns:dc="http://purl.org/dc/elements/1.1/"
   xmlns:cc="http://creativecommons.org/ns#"
   xmlns:rdf="http://www.w3.org/1999/02/22-rdf-syntax-ns#"
   xmlns:svg="http://www.w3.org/2000/svg"
   xmlns="http://www.w3.org/2000/svg"
   xmlns:xlink="http://www.w3.org/1999/xlink"
   xmlns:sodipodi="http://sodipodi.sourceforge.net/DTD/sodipodi-0.dtd"
   xmlns:inkscape="http://www.inkscape.org/namespaces/inkscape"
   width="256"
   height="256"
   id="svg3992"
   version="1.1"
   inkscape:version="0.48.3.1 r9886"
   sodipodi:docname="deja-dup-backup.svg">
  <defs
     id="defs3994">
    <clipPath
       id="clipPath4407">
      <path
         inkscape:connector-curvature="0"
         d="M 14.155172,5 C 9.083207,5 5,9.0832069 5,14.155172 L 5,113.84483 C 5,118.91679 9.083207,123 14.155172,123 l 99.689658,0 C 118.91679,123 123,118.91679 123,113.84483 l 0,-99.689658 C 123,9.0832069 118.91679,5 113.84483,5 L 14.155172,5 z"
         id="path4409"
         style="fill:#ffffff;fill-opacity:1;stroke:none;display:inline" />
    </clipPath>
    <linearGradient
       inkscape:collect="always"
       xlink:href="#linearGradient3173"
       id="linearGradient3963"
       gradientUnits="userSpaceOnUse"
       gradientTransform="matrix(2.6897097,0,0,-3.6476563,-240.22294,365.2491)"
       x1="65.262688"
       y1="64.205269"
       x2="65.262688"
       y2="43.780487" />
    <linearGradient
       id="linearGradient3173">
      <stop
         id="stop3191"
         style="stop-color:#5a5a5a;stop-opacity:1;"
         offset="0" />
      <stop
         id="stop3177"
         style="stop-color:#000000;stop-opacity:1;"
         offset="1" />
    </linearGradient>
  </defs>
  <sodipodi:namedview
     id="base"
     pagecolor="#ffffff"
     bordercolor="#666666"
     borderopacity="1.0"
     inkscape:pageopacity="0.0"
     inkscape:pageshadow="2"
     inkscape:zoom="1.6367188"
     inkscape:cx="117.30788"
     inkscape:cy="128"
     inkscape:document-units="px"
     inkscape:current-layer="layer1"
     showgrid="false"
     inkscape:window-width="1024"
     inkscape:window-height="572"
     inkscape:window-x="0"
     inkscape:window-y="28"
     inkscape:window-maximized="1" />
  <metadata
     id="metadata3997">
    <rdf:RDF>
      <cc:Work
         rdf:about="">
        <dc:format>image/svg+xml</dc:format>
        <dc:type
           rdf:resource="http://purl.org/dc/dcmitype/StillImage" />
        <dc:title></dc:title>
      </cc:Work>
    </rdf:RDF>
  </metadata>
  <g
     inkscape:label="Layer 1"
     inkscape:groupmode="layer"
     id="layer1"
     transform="translate(0,-796.36218)">
    <path
       style="opacity:0.5;fill:#ff6600;fill-opacity:1;fill-rule:evenodd;stroke:none;display:inline"
       id="path4361"
       clip-path="url(#clipPath4407)"
       transform="matrix(2.0649657,0,0,1.7325926,-0.3248285,814.54196)"
       d="M 64.594529,26.576239 C 63.841229,19.281367 62.648633,9.4628979 64.26279,8.5142629 65.608008,10.04068 65.10367,20.179487 64.594529,26.576239 z m 23.571879,58.606527 c 4.697845,3.271042 11.117036,7.574908 10.806577,8.94656 -1.622107,-0.02807 -7.316586,-5.43175 -10.806577,-8.94656 z M 82.11962,72.02074 c 4.033966,1.70313 9.495734,3.931628 9.710981,4.764497 -1.058654,0.06771 -6.384997,-2.853356 -9.710981,-4.764497 z M 38.561179,71.489799 c -4.158228,1.372107 -9.737276,3.28818 -10.447417,2.802689 0.752586,-0.747629 6.685405,-2.053094 10.447417,-2.802689 z m 3.053714,-21.468862 c -4.856285,-2.763399 -11.431231,-6.422612 -11.692235,-7.358342 1.273157,0.178431 7.686969,4.541392 11.692235,7.358342 z m -9.039938,31.19488 c -4.616929,3.147037 -10.79401,7.443946 -11.749212,7.267019 0.719958,-1.065094 7.458302,-4.907898 11.749212,-7.267019 z m -5.08871,18.977693 C 22.360065,105.43802 15.574812,112.63419 13.813219,112 c 0.313108,-2.01035 8.429888,-8.10688 13.673026,-11.80649 z M 57.050897,75.987298 c -1.978277,3.9064 -4.579493,9.200809 -5.425263,9.357889 0.0057,-1.060802 3.288481,-6.172172 5.425263,-9.357889 z M 78.183926,43.645994 C 80.969471,38.644975 84.610778,31.82807 86.006577,32 c 0.134059,1.616805 -4.673935,7.822447 -7.822651,11.645994 z m -54.517644,3.784338 c -4.225156,-1.149608 -9.935449,-2.62936 -10.259909,-3.426058 1.040151,-0.208375 6.708648,1.975826 10.259909,3.426058 z m 77.181448,13.301145 c 7.19517,-1.418534 16.86306,-3.505744 17.95561,-1.985297 -1.39674,1.479419 -11.53911,1.906185 -17.95561,1.985297 z M 44.647544,89.574105 c -2.826836,4.977797 -6.52443,11.764335 -7.918758,11.580865 -0.120675,-1.617861 4.738509,-7.783505 7.918758,-11.580865 z m 12.552614,-7.227341 c -1.326348,4.173049 -3.04503,9.816031 -3.854673,10.106685 -0.16443,-1.047996 2.256319,-6.619581 3.854673,-10.106685 z M 53.737762,38.922906 c -1.747338,-4.015015 -4.166539,-9.395032 -3.748158,-10.146669 0.813441,0.680917 2.657017,6.469164 3.748158,10.146669 z m 21.658353,1.073754 c 2.306811,-5.089058 5.348193,-11.971626 6.256072,-12.31727 -0.06103,1.284151 -3.817959,8.070745 -6.256072,12.31727 z M 43.504161,33.853023 C 39.94733,29.543867 35.102512,23.786481 35.191173,22.819085 c 1.126581,0.619339 5.57063,6.977236 8.312988,11.033938 z M 24.140039,30.524577 C 18.447896,25.900496 10.660289,19.803144 11.130403,17.990853 c 2.030582,0.12759 8.845178,7.651623 13.009636,12.533724 z m 26.81329,27.222358 c -4.07123,-1.612025 -9.581708,-3.717192 -9.815622,-4.545011 1.056864,-0.09149 6.44752,2.709114 9.815622,4.545011 z M 85.094931,75.82775 c 5.235211,2.315602 12.35708,5.316983 12.313766,6.722664 -1.597721,0.281637 -8.217798,-3.937531 -12.313766,-6.722664 z M 76.331256,21.886182 c 0.757637,-4.312717 1.70795,-10.134573 2.471568,-10.530667 0.302804,1.016683 -1.352825,6.861465 -2.471568,10.530667 z m 21.451655,56.614506 c 6.304239,3.746901 14.714329,8.952186 16.253089,7.885585 -0.82044,-1.861836 -10.23383,-5.661564 -16.253089,-7.885585 z M 54.491999,32.497915 c -0.995978,-5.637152 -2.206487,-13.270237 -3.581713,-13.564456 -0.655674,1.483957 1.857304,8.921145 3.581713,13.564456 z M 63.898226,43.5127 c 0.148228,-4.376251 0.419208,-10.268931 -0.246288,-10.814016 -0.506,0.932361 -0.09156,6.992957 0.246288,10.814016 z M 46.089211,83.267682 c -2.991379,3.197684 -7.073066,7.456434 -6.930652,8.304796 0.994543,-0.369077 4.670619,-5.205299 6.930652,-8.304796 z m 20.766649,6.243676 c 0.468728,5.567781 1.028772,13.071522 1.768405,13.701322 0.372682,-1.23039 -0.893719,-8.883409 -1.768405,-13.701322 z M 34.748526,84.616449 c -4.794855,2.868665 -11.288425,6.670411 -11.528956,7.611614 1.26896,-0.206155 7.586084,-4.707975 11.528956,-7.611614 z M 15.388242,81.265741 C 8.4759543,83.715824 -0.90425632,86.852086 -1.0684127,88.717148 0.88757912,89.277153 9.8289358,84.4707 15.388242,81.265741 z m 34.38333,-16.667215 c -4.376014,0.155052 -10.273316,0.292614 -10.771028,0.994243 0.96515,0.440249 6.982521,-0.392712 10.771028,-0.994243 z m 38.225866,-5.598932 c 5.708434,-0.428051 13.424242,-0.87024 13.854332,-2.209212 -1.41106,-0.800589 -9.062028,0.957121 -13.854332,2.209212 z M 61.670092,106.88869 c -0.730867,4.31733 -1.785743,10.12116 -1.198934,10.75017 0.625891,-0.85651 1.023882,-6.9182 1.198934,-10.75017 z"
       inkscape:connector-curvature="0" />
    <g
       id="g3953"
       transform="translate(182.66156,798.1509)">
      <path
         inkscape:connector-curvature="0"
         style="opacity:0.05;fill:none;stroke:#000000;stroke-width:24;stroke-linejoin:round;stroke-miterlimit:4;stroke-opacity:1;stroke-dasharray:none;display:inline"
         id="path3951"
         d="m -83.14388,206.21128 0,-78.78936 -21.51768,0 47.33889,-78.789376 47.33889,78.789376 -21.51768,0 0,78.78936 -51.64242,0 z" />
      <path
         d="m -83.14388,206.21128 0,-78.78936 -21.51768,0 47.33889,-78.789376 47.33889,78.789376 -21.51768,0 0,78.78936 -51.64242,0 z"
         id="path3949"
         style="opacity:0.1;fill:none;stroke:#000000;stroke-width:18;stroke-linejoin:round;stroke-miterlimit:4;stroke-opacity:1;stroke-dasharray:none;display:inline"
         inkscape:connector-curvature="0" />
      <path
         inkscape:connector-curvature="0"
         style="opacity:0.15;fill:none;stroke:#000000;stroke-width:12;stroke-linejoin:round;stroke-miterlimit:4;stroke-opacity:1;stroke-dasharray:none;display:inline"
         id="path3947"
         d="m -83.14388,206.21128 0,-78.78936 -21.51768,0 47.33889,-78.789376 47.33889,78.789376 -21.51768,0 0,78.78936 -51.64242,0 z" />
      <path
         d="m -83.14388,206.21128 0,-78.78936 -21.51768,0 47.33889,-78.789376 47.33889,78.789376 -21.51768,0 0,78.78936 -51.64242,0 z"
         id="path3945"
         style="opacity:0.2;fill:none;stroke:#000000;stroke-width:6;stroke-linejoin:round;stroke-miterlimit:4;stroke-opacity:1;stroke-dasharray:none;display:inline"
         inkscape:connector-curvature="0" />
      <path
         d="m -83.14388,208.21128 0,-78.78936 -21.51768,0 47.33889,-78.789376 47.33889,78.789376 -21.51768,0 0,78.78936 -51.64242,0 z"
         id="path3943"
         style="opacity:0.3;fill:#000000;fill-opacity:1;fill-rule:nonzero;stroke:none;display:inline"
         inkscape:connector-curvature="0" />
      <path
         inkscape:connector-curvature="0"
         style="fill:url(#linearGradient3963);fill-opacity:1;fill-rule:nonzero;stroke:none;display:inline"
         id="path3867"
         d="m -83.14388,206.21128 0,-78.78936 -21.51768,0 47.33889,-78.789376 47.33889,78.789376 -21.51768,0 0,78.78936 -51.64242,0 z" />
      <path
         inkscape:connector-curvature="0"
         id="path3915"
         d="m -57.3125,48.625 -47.34375,78.8125 2.40625,0 44.9375,-74.8125 44.9375,74.8125 2.40625,0 L -57.3125,48.625 z"
         style="opacity:0.7;fill:#ffffff;fill-opacity:1;fill-rule:nonzero;stroke:none;display:inline" />
      <path
         inkscape:connector-curvature="0"
         id="path3934"
         d="m -103.46875,125.4375 -1.1875,2 21.5,0 0,-2 -20.3125,0 z m 71.96875,0 0,2 21.53125,0 -1.1875,-2 -20.34375,0 z m -51.65625,78.78125 0,2 51.65625,0 0,-2 -51.65625,0 z"
         style="opacity:0.7;fill:#000000;fill-opacity:1;fill-rule:nonzero;stroke:none;display:inline" />
    </g>
  </g>
</svg>
