<?xml version="1.0" encoding="UTF-8" standalone="no"?>
<!-- Created with Inkscape (http://www.inkscape.org/) -->

<svg
   xmlns:dc="http://purl.org/dc/elements/1.1/"
   xmlns:cc="http://creativecommons.org/ns#"
   xmlns:rdf="http://www.w3.org/1999/02/22-rdf-syntax-ns#"
   xmlns:svg="http://www.w3.org/2000/svg"
   xmlns="http://www.w3.org/2000/svg"
   xmlns:xlink="http://www.w3.org/1999/xlink"
   xmlns:sodipodi="http://sodipodi.sourceforge.net/DTD/sodipodi-0.dtd"
   xmlns:inkscape="http://www.inkscape.org/namespaces/inkscape"
   version="1.0"
   width="256"
   height="256"
   id="svg2408"
   style="display:inline"
   inkscape:version="0.48.3.1 r9886"
   sodipodi:docname="document-page-setup.svg">
  <sodipodi:namedview
     pagecolor="#ffffff"
     bordercolor="#666666"
     borderopacity="1"
     objecttolerance="10"
     gridtolerance="10"
     guidetolerance="10"
     inkscape:pageopacity="0"
     inkscape:pageshadow="2"
     inkscape:window-width="1024"
     inkscape:window-height="572"
     id="namedview83"
     showgrid="false"
     showguides="true"
     inkscape:guide-bbox="true"
     inkscape:zoom="1.6367188"
     inkscape:cx="117.30788"
     inkscape:cy="128"
     inkscape:window-x="0"
     inkscape:window-y="28"
     inkscape:window-maximized="1"
     inkscape:current-layer="svg2408" />
  <defs
     id="defs2410">
    <linearGradient
       id="linearGradient3637">
      <stop
         id="stop3639"
         style="stop-color:#f0f0f0;stop-opacity:1"
         offset="0" />
      <stop
         id="stop3641"
         style="stop-color:#dcdcdc;stop-opacity:1"
         offset="1" />
    </linearGradient>
    <linearGradient
       x1="45.447727"
       y1="92.539597"
       x2="45.447727"
       y2="7.0165396"
       id="ButtonShadow"
       gradientUnits="userSpaceOnUse"
       gradientTransform="scale(1.0058652,0.994169)">
      <stop
         id="stop3750"
         style="stop-color:#000000;stop-opacity:1"
         offset="0" />
      <stop
         id="stop3752"
         style="stop-color:#000000;stop-opacity:0.58823532"
         offset="1" />
    </linearGradient>
    <linearGradient
       id="linearGradient3737">
      <stop
         id="stop3739"
         style="stop-color:#ffffff;stop-opacity:1"
         offset="0" />
      <stop
         id="stop3741"
         style="stop-color:#ffffff;stop-opacity:0"
         offset="1" />
    </linearGradient>
    <linearGradient
       id="linearGradient3700">
      <stop
         id="stop3702"
         style="stop-color:#2276c5;stop-opacity:1"
         offset="0" />
      <stop
         id="stop3704"
         style="stop-color:#68baf4;stop-opacity:1"
         offset="1" />
    </linearGradient>
    <filter
       color-interpolation-filters="sRGB"
       id="filter3174">
      <feGaussianBlur
         id="feGaussianBlur3176"
         stdDeviation="1.71" />
    </filter>
    <linearGradient
       x1="36.357143"
       y1="6"
       x2="36.357143"
       y2="63.893143"
       id="linearGradient3188"
       xlink:href="#linearGradient3737"
       gradientUnits="userSpaceOnUse" />
    <radialGradient
       cx="48"
       cy="90.171875"
       r="42"
       fx="48"
       fy="90.171875"
       id="radialGradient3619"
       xlink:href="#linearGradient3737"
       gradientUnits="userSpaceOnUse"
       gradientTransform="matrix(1.1573129,0,0,0.99590774,-7.5510206,0.19713193)" />
    <linearGradient
       x1="48"
       y1="90"
       x2="48"
       y2="5.9877172"
       id="linearGradient2843"
       xlink:href="#linearGradient3700"
       gradientUnits="userSpaceOnUse"
       gradientTransform="translate(0,100)" />
    <clipPath
       id="clipPath3625">
      <path
         d="M 0,0 0,96 96,96 96,0 0,0 z m 12,6 72,0 c 3.324,0 6,2.676 6,6 l 0,72 c 0,3.324 -2.676,6 -6,6 L 12,90 C 8.676,90 6,87.324 6,84 L 6,12 C 6,8.676 8.676,6 12,6 z"
         inkscape:connector-curvature="0"
         id="path3627"
         style="fill:#ffffff;fill-opacity:1;stroke:none" />
    </clipPath>
    <linearGradient
       x1="44.512066"
       y1="6"
       x2="44.512066"
       y2="90.015434"
       id="linearGradient3643"
       xlink:href="#linearGradient3637"
       gradientUnits="userSpaceOnUse" />
    <clipPath
       id="clipPath3649">
      <rect
         width="76"
         height="76"
         rx="4"
         ry="4"
         x="10"
         y="10"
         id="rect3651"
         style="fill:#ffffff;fill-opacity:1;fill-rule:nonzero;stroke:none" />
    </clipPath>
    <filter
       color-interpolation-filters="sRGB"
       id="filter3657">
      <feGaussianBlur
         id="feGaussianBlur3659"
         stdDeviation="1.14" />
    </filter>
    <linearGradient
       id="linearGradient4081">
      <stop
         id="stop4083"
         style="stop-color:#000000;stop-opacity:1;"
         offset="0" />
      <stop
         id="stop4085"
         style="stop-color:#5a5a5a;stop-opacity:1;"
         offset="1" />
    </linearGradient>
    <linearGradient
       inkscape:collect="always"
       xlink:href="#linearGradient4081"
       id="linearGradient3909"
       gradientUnits="userSpaceOnUse"
       x1="48"
       y1="74"
       x2="48"
       y2="21.913534" />
  </defs>
  <metadata
     id="metadata2413">
    <rdf:RDF>
      <cc:Work
         rdf:about="">
        <dc:format>image/svg+xml</dc:format>
        <dc:type
           rdf:resource="http://purl.org/dc/dcmitype/StillImage" />
        <dc:title></dc:title>
      </cc:Work>
    </rdf:RDF>
  </metadata>
  <g
     id="layer2"
     style="display:none"
     transform="translate(0,160)">
    <rect
       width="86"
       height="85"
       rx="6"
       ry="6"
       x="5"
       y="7"
       clip-path="url(#clipPath3625)"
       id="rect3745"
       style="opacity:0.9;fill:url(#ButtonShadow);fill-opacity:1;fill-rule:nonzero;stroke:none;filter:url(#filter3174)" />
  </g>
  <g
     id="layer1"
     style="display:none"
     transform="translate(0,160)">
    <rect
       width="84"
       height="84"
       rx="6"
       ry="6"
       x="6"
       y="6"
       id="rect2419"
       style="opacity:0.7;fill:#000000;fill-opacity:1;fill-rule:nonzero;stroke:none" />
    <path
       d="m 14,10 c -2.216,0 -4,1.784 -4,4 l 0,68 c 0,2.216 1.784,4 4,4 l 68,0 c 2.216,0 4,-1.784 4,-4 l 0,-68 c 0,-2.216 -1.784,-4 -4,-4 l -68,0 z m 0,3.0625 68,0 c 0.578769,0 0.9375,0.358731 0.9375,0.9375 l 0,68 c 0,0.578769 -0.358731,0.9375 -0.9375,0.9375 l -68,0 c -0.578769,0 -0.9375,-0.358731 -0.9375,-0.9375 l 0,-68 c 0,-0.578769 0.358731,-0.9375 0.9375,-0.9375 z"
       inkscape:connector-curvature="0"
       id="rect3726"
       style="opacity:0.07999998;fill:#000000;fill-opacity:1;fill-rule:nonzero;stroke:none" />
    <path
       d="M 12,6 C 8.676,6 6,8.676 6,12 l 0,72 c 0,3.324 2.676,6 6,6 l 72,0 c 3.324,0 6,-2.676 6,-6 L 90,12 C 90,8.676 87.324,6 84,6 L 12,6 z m 2,4 68,0 c 2.216,0 4,1.784 4,4 l 0,68 c 0,2.216 -1.784,4 -4,4 l -68,0 c -2.216,0 -4,-1.784 -4,-4 l 0,-68 c 0,-2.216 1.784,-4 4,-4 z"
       inkscape:connector-curvature="0"
       id="rect3629"
       style="fill:url(#linearGradient3643);fill-opacity:1;fill-rule:nonzero;stroke:none" />
    <path
       d="M 12,6 C 8.676,6 6,8.676 6,12 l 0,2 0,68 0,2 c 0,0.334721 0.04135,0.6507 0.09375,0.96875 0.0487,0.295596 0.09704,0.596915 0.1875,0.875 0.00988,0.03038 0.020892,0.0636 0.03125,0.09375 0.098865,0.287771 0.2348802,0.547452 0.375,0.8125 0.1445918,0.273507 0.3156161,0.535615 0.5,0.78125 0.1843839,0.245635 0.3737765,0.473472 0.59375,0.6875 0.439947,0.428056 0.94291,0.814526 1.5,1.09375 0.278545,0.139612 0.5734731,0.246947 0.875,0.34375 -0.2562018,-0.100222 -0.4867109,-0.236272 -0.71875,-0.375 -0.00741,-0.0044 -0.023866,0.0045 -0.03125,0 -0.031933,-0.0193 -0.062293,-0.04251 -0.09375,-0.0625 -0.120395,-0.0767 -0.2310226,-0.163513 -0.34375,-0.25 -0.1061728,-0.0808 -0.2132809,-0.161112 -0.3125,-0.25 C 8.4783201,88.557317 8.3087904,88.373362 8.15625,88.1875 8.0486711,88.057245 7.9378561,87.922215 7.84375,87.78125 7.818661,87.74287 7.805304,87.69538 7.78125,87.65625 7.716487,87.553218 7.6510225,87.451733 7.59375,87.34375 7.4927417,87.149044 7.3880752,86.928049 7.3125,86.71875 7.30454,86.69694 7.288911,86.6782 7.28125,86.65625 7.2494249,86.5643 7.2454455,86.469419 7.21875,86.375 7.1884177,86.268382 7.1483606,86.171969 7.125,86.0625 7.0521214,85.720988 7,85.364295 7,85 L 7,83 7,15 7,13 C 7,10.218152 9.2181517,8 12,8 l 2,0 68,0 2,0 c 2.781848,0 5,2.218152 5,5 l 0,2 0,68 0,2 c 0,0.364295 -0.05212,0.720988 -0.125,1.0625 -0.04415,0.206893 -0.08838,0.397658 -0.15625,0.59375 -0.0077,0.02195 -0.0233,0.04069 -0.03125,0.0625 -0.06274,0.173739 -0.138383,0.367449 -0.21875,0.53125 -0.04158,0.0828 -0.07904,0.169954 -0.125,0.25 -0.0546,0.09721 -0.126774,0.18835 -0.1875,0.28125 -0.09411,0.140965 -0.204921,0.275995 -0.3125,0.40625 -0.143174,0.17445 -0.303141,0.346998 -0.46875,0.5 -0.01117,0.0102 -0.01998,0.02115 -0.03125,0.03125 -0.138386,0.125556 -0.285091,0.234436 -0.4375,0.34375 -0.102571,0.07315 -0.204318,0.153364 -0.3125,0.21875 -0.0074,0.0045 -0.02384,-0.0044 -0.03125,0 -0.232039,0.138728 -0.462548,0.274778 -0.71875,0.375 0.301527,-0.0968 0.596455,-0.204138 0.875,-0.34375 0.55709,-0.279224 1.060053,-0.665694 1.5,-1.09375 0.219973,-0.214028 0.409366,-0.441865 0.59375,-0.6875 0.184384,-0.245635 0.355408,-0.507743 0.5,-0.78125 0.14012,-0.265048 0.276135,-0.524729 0.375,-0.8125 0.01041,-0.03078 0.02133,-0.06274 0.03125,-0.09375 0.09046,-0.278085 0.1388,-0.579404 0.1875,-0.875 C 89.95865,84.6507 90,84.334721 90,84 l 0,-2 0,-68 0,-2 C 90,8.676 87.324,6 84,6 L 12,6 z"
       inkscape:connector-curvature="0"
       id="rect3728"
       style="fill:url(#linearGradient3188);fill-opacity:1;fill-rule:nonzero;stroke:none" />
    <path
       d="M 12,90 C 8.676,90 6,87.324 6,84 L 6,82 6,14 6,12 c 0,-0.334721 0.04135,-0.6507 0.09375,-0.96875 0.0487,-0.295596 0.09704,-0.596915 0.1875,-0.875 C 6.29113,10.12587 6.302142,10.09265 6.3125,10.0625 6.411365,9.774729 6.5473802,9.515048 6.6875,9.25 6.8320918,8.976493 7.0031161,8.714385 7.1875,8.46875 7.3718839,8.223115 7.5612765,7.995278 7.78125,7.78125 8.221197,7.353194 8.72416,6.966724 9.28125,6.6875 9.559795,6.547888 9.8547231,6.440553 10.15625,6.34375 9.9000482,6.443972 9.6695391,6.580022 9.4375,6.71875 c -0.00741,0.0044 -0.023866,-0.0045 -0.03125,0 -0.031933,0.0193 -0.062293,0.04251 -0.09375,0.0625 -0.120395,0.0767 -0.2310226,0.163513 -0.34375,0.25 -0.1061728,0.0808 -0.2132809,0.161112 -0.3125,0.25 C 8.4783201,7.442683 8.3087904,7.626638 8.15625,7.8125 8.0486711,7.942755 7.9378561,8.077785 7.84375,8.21875 7.818661,8.25713 7.805304,8.30462 7.78125,8.34375 7.716487,8.446782 7.6510225,8.548267 7.59375,8.65625 7.4927417,8.850956 7.3880752,9.071951 7.3125,9.28125 7.30454,9.30306 7.288911,9.3218 7.28125,9.34375 7.2494249,9.4357 7.2454455,9.530581 7.21875,9.625 7.1884177,9.731618 7.1483606,9.828031 7.125,9.9375 7.0521214,10.279012 7,10.635705 7,11 l 0,2 0,68 0,2 c 0,2.781848 2.2181517,5 5,5 l 2,0 68,0 2,0 c 2.781848,0 5,-2.218152 5,-5 l 0,-2 0,-68 0,-2 C 89,10.635705 88.94788,10.279012 88.875,9.9375 88.83085,9.730607 88.78662,9.539842 88.71875,9.34375 88.71105,9.3218 88.69545,9.30306 88.6875,9.28125 88.62476,9.107511 88.549117,8.913801 88.46875,8.75 88.42717,8.6672 88.38971,8.580046 88.34375,8.5 88.28915,8.40279 88.216976,8.31165 88.15625,8.21875 88.06214,8.077785 87.951329,7.942755 87.84375,7.8125 87.700576,7.63805 87.540609,7.465502 87.375,7.3125 87.36383,7.3023 87.35502,7.29135 87.34375,7.28125 87.205364,7.155694 87.058659,7.046814 86.90625,6.9375 86.803679,6.86435 86.701932,6.784136 86.59375,6.71875 c -0.0074,-0.0045 -0.02384,0.0044 -0.03125,0 -0.232039,-0.138728 -0.462548,-0.274778 -0.71875,-0.375 0.301527,0.0968 0.596455,0.204138 0.875,0.34375 0.55709,0.279224 1.060053,0.665694 1.5,1.09375 0.219973,0.214028 0.409366,0.441865 0.59375,0.6875 0.184384,0.245635 0.355408,0.507743 0.5,0.78125 0.14012,0.265048 0.276135,0.524729 0.375,0.8125 0.01041,0.03078 0.02133,0.06274 0.03125,0.09375 0.09046,0.278085 0.1388,0.579404 0.1875,0.875 C 89.95865,11.3493 90,11.665279 90,12 l 0,2 0,68 0,2 c 0,3.324 -2.676,6 -6,6 l -72,0 z"
       inkscape:connector-curvature="0"
       id="path3615"
       style="opacity:0.6;fill:url(#radialGradient3619);fill-opacity:1;fill-rule:nonzero;stroke:none" />
    <rect
       width="84"
       height="84"
       rx="6"
       ry="6"
       x="6"
       y="106"
       id="rect2841"
       style="fill:url(#linearGradient2843);fill-opacity:1;fill-rule:nonzero;stroke:none" />
    <rect
       width="76"
       height="76"
       rx="4"
       ry="4"
       x="10"
       y="110"
       id="rect3634"
       style="fill:#ff0000;fill-opacity:1;fill-rule:nonzero;stroke:none" />
    <path
       d="m 14,9 c -2.752703,0 -5,2.247297 -5,5 l 0,68 c 0,2.752703 2.247297,5 5,5 l 68,0 c 2.752703,0 5,-2.247297 5,-5 L 87,14 C 87,11.247297 84.752703,9 82,9 L 14,9 z m 0,2 68,0 c 1.679297,0 3,1.320703 3,3 l 0,68 c 0,1.679297 -1.320703,3 -3,3 l -68,0 c -1.679297,0 -3,-1.320703 -3,-3 l 0,-68 c 0,-1.679297 1.320703,-3 3,-3 z"
       inkscape:connector-curvature="0"
       transform="translate(-110,0)"
       clip-path="url(#clipPath3649)"
       id="rect3647"
       style="font-size:medium;font-style:normal;font-variant:normal;font-weight:normal;font-stretch:normal;text-indent:0;text-align:start;text-decoration:none;line-height:normal;letter-spacing:normal;word-spacing:normal;text-transform:none;direction:ltr;block-progression:tb;writing-mode:lr-tb;text-anchor:start;color:#000000;fill:#000000;fill-opacity:1;stroke:none;stroke-width:2;marker:none;visibility:visible;display:inline;overflow:visible;filter:url(#filter3657);enable-background:accumulate;font-family:Abandoned Bitplane;-inkscape-font-specification:Abandoned Bitplane" />
    <path
       d="m 14.089286,10 c -2.216,0 -4,1.784 -4,4 l 0,68 c 0,2.216 1.784,4 4,4 l 68,0 c 2.216,0 4,-1.784 4,-4 l 0,-68 c 0,-2.216 -1.784,-4 -4,-4 l -68,0 z m 0,2 68,0 c 1.140301,0 2,0.859699 2,2 l 0,68 c 0,1.140301 -0.859699,2 -2,2 l -68,0 c -1.140301,0 -2,-0.859699 -2,-2 l 0,-68 c 0,-1.140301 0.859699,-2 2,-2 z"
       inkscape:connector-curvature="0"
       id="path3709"
       style="opacity:0.16000001;fill:#000000;fill-opacity:1;fill-rule:nonzero;stroke:none" />
    <path
       d="m 14,10 c -2.216,0 -4,1.784 -4,4 l 0,68 c 0,2.216 1.784,4 4,4 l 68,0 c 2.216,0 4,-1.784 4,-4 l 0,-68 c 0,-2.216 -1.784,-4 -4,-4 l -68,0 z m 0,1 68,0 c 1.673848,0 3,1.326152 3,3 l 0,68 c 0,1.673848 -1.326152,3 -3,3 l -68,0 c -1.673848,0 -3,-1.326152 -3,-3 l 0,-68 c 0,-1.673848 1.326152,-3 3,-3 z"
       inkscape:connector-curvature="0"
       id="path3707"
       style="opacity:0.36000001;fill:#000000;fill-opacity:1;fill-rule:nonzero;stroke:none" />
  </g>
  <g
     id="g3901"
     transform="matrix(4.1803245,0,0,4.1803245,-71.902711,-76.335908)">
    <path
       d="m 30.59375,20.9375 c -3.87864,-0.104067 -7.088905,3.65889 -6.65625,7.458076 0.02281,14.209578 -0.0457,28.422037 0.03439,42.629807 0.275894,3.669385 3.895109,6.4765 7.509048,6.037117 11.534782,-0.02322 23.072561,0.04653 34.605463,-0.03504 3.680475,-0.294819 6.404576,-3.972922 5.976096,-7.570898 -0.02281,-14.160289 0.0457,-28.32346 -0.03439,-42.481942 -0.275894,-3.669385 -3.895109,-6.4765 -7.509048,-6.037117 -11.308437,0 -22.616873,0 -33.925309,0 z m 3.46875,10.125 c 0.941743,-8.58e-4 1.459665,-0.129729 0.46875,0.46875 -0.614745,1.000904 -0.458868,0.570095 -0.46875,-0.418441 l 0,-0.05031 z m 2.6875,0 c 8.395833,0 16.791667,0 25.1875,0 0,11.083333 0,22.166667 0,33.25 C 60.238641,61.70581 58.214223,59.300325 56.390571,56.770761 50.035599,48.33678 43.746249,39.833205 37.350458,31.442531 37.180278,31.279501 36.963164,31.166087 36.75,31.0625 z m 5.3125,20.125 c 1.9375,2.583333 3.875,5.166667 5.8125,7.75 -1.9375,0 -3.875,0 -5.8125,0 0,-2.583333 0,-5.166667 0,-7.75 z m 19.875,14.46875 c 0.221095,1.054429 -0.122478,1.544189 -1.21875,1.28125 0.558417,-0.236107 1.052072,-0.686386 1.21875,-1.28125 z m -27.875,0.03125 c 0.01477,0.609501 1.120698,1.187601 1.102135,1.25 -1.281847,0.18027 -1.146514,-0.111902 -1.102135,-1.25 z"
       inkscape:connector-curvature="0"
       id="path3975"
       style="opacity:0.1;color:#000000;fill:#000000;fill-opacity:1;fill-rule:nonzero;stroke:none;stroke-width:1;marker:none;visibility:visible;display:inline;overflow:visible;enable-background:accumulate" />
    <path
       d="m 30.59375,21.96875 c -3.104529,0 -5.625,2.56515 -5.625,5.6875 l 0,42.6875 c 0,3.12235 2.520471,5.6875 5.625,5.6875 l 34.8125,0 c 3.104529,0 5.625,-2.56515 5.625,-5.6875 l 0,-42.6875 c 0,-3.12235 -2.520471,-5.6875 -5.625,-5.6875 l -34.8125,0 z M 34,30.03125 l 1,0 26,0 1,0 c 0.553473,0 0.96875,0.415277 0.96875,0.96875 l 0,1 0,34 0,1 c 0,0.553473 -0.415277,0.96875 -0.96875,0.96875 l -1,0 -26,0 -1,0 c -0.553473,0 -0.96875,-0.415277 -0.96875,-0.96875 l 0,-1 0,-34 0,-1 c 0,-0.553473 0.415277,-0.96875 0.96875,-0.96875 z m 1.8125,1.9375 A 1.0333146,1.0333146 0 0 0 34.96875,33 l 0,32 A 1.0333146,1.0333146 0 0 0 36,66.03125 l 24,0 A 1.0333146,1.0333146 0 0 0 60.8125,64.375 l -24,-32 a 1.0333146,1.0333146 0 0 0 -1,-0.40625 z m 5.21875,16.125 8.90625,11.875 -8.90625,0 0,-11.875 z"
       id="path3971"
       style="opacity:0.15;color:#000000;fill:#000000;fill-opacity:1;fill-rule:nonzero;stroke:none;stroke-width:1;marker:none;visibility:visible;display:inline;overflow:visible;enable-background:accumulate"
       inkscape:connector-curvature="0" />
    <path
       d="M 30.59375,23 C 28.054583,23 26,25.084107 26,27.65625 l 0,42.6875 C 26,72.915893 28.054583,75 30.59375,75 l 34.8125,0 C 67.945417,75 70,72.915893 70,70.34375 l 0,-42.6875 C 70,25.084107 67.945417,23 65.40625,23 l -34.8125,0 z M 34,29 l 1,0 26,0 1,0 c 1.108,0 2,0.892 2,2 l 0,1 0,34 0,1 c 0,1.108 -0.892,2 -2,2 l -1,0 -26,0 -1,0 c -1.108,0 -2,-0.892 -2,-2 l 0,-1 0,-34 0,-1 c 0,-1.108 0.892,-2 2,-2 z m 2,4 0,32 24,0 -24,-32 z m 4,12 12,16 -12,0 0,-16 z"
       inkscape:connector-curvature="0"
       id="path3965"
       style="opacity:0.3;color:#000000;fill:#000000;fill-opacity:1;fill-rule:nonzero;stroke:none;stroke-width:1;marker:none;visibility:visible;display:inline;overflow:visible;enable-background:accumulate" />
    <path
       d="M 30.59375,22 C 28.054583,22 26,24.084107 26,26.65625 l 0,42.6875 C 26,71.915893 28.054583,74 30.59375,74 l 34.8125,0 C 67.945417,74 70,71.915893 70,69.34375 l 0,-42.6875 C 70,24.084107 67.945417,22 65.40625,22 l -34.8125,0 z M 34,28 l 1,0 26,0 1,0 c 1.108,0 2,0.892 2,2 l 0,1 0,34 0,1 c 0,1.108 -0.892,2 -2,2 l -1,0 -26,0 -1,0 c -1.108,0 -2,-0.892 -2,-2 l 0,-1 0,-34 0,-1 c 0,-1.108 0.892,-2 2,-2 z m 2,4 0,32 24,0 -24,-32 z m 4,12 12,16 -12,0 0,-16 z"
       inkscape:connector-curvature="0"
       id="rect2957"
       style="color:#000000;fill:url(#linearGradient3909);fill-opacity:1;fill-rule:nonzero;stroke:none;stroke-width:1;marker:none;visibility:visible;display:inline;overflow:visible;enable-background:accumulate" />
    <path
       d="M 30.59375,22 C 28.054583,22 26,24.084107 26,26.65625 l 0,1 C 26,25.084107 28.054583,23 30.59375,23 l 34.8125,0 C 67.945417,23 70,25.084107 70,27.65625 l 0,-1 C 70,24.084107 67.945417,22 65.40625,22 l -34.8125,0 z M 36,32 36,33 59.25,64 60,64 36,32 z m 4,28 0,1 12,0 L 51.25,60 40,60 z m -8,6 0,1 c 0,1.108 0.892,2 2,2 l 1,0 26,0 1,0 c 1.108,0 2,-0.892 2,-2 l 0,-1 c 0,1.108 -0.892,2 -2,2 l -1,0 -26,0 -1,0 c -1.108,0 -2,-0.892 -2,-2 z"
       inkscape:connector-curvature="0"
       id="path3947"
       style="opacity:0.75;color:#000000;fill:#ffffff;fill-opacity:1;fill-rule:nonzero;stroke:none;stroke-width:1;marker:none;visibility:visible;display:inline;overflow:visible;enable-background:accumulate" />
    <path
       d="m 34,27 c -1.108,0 -2,0.892 -2,2 l 0,1 c 0,-1.108 0.892,-2 2,-2 l 1,0 26,0 1,0 c 1.108,0 2,0.892 2,2 l 0,-1 c 0,-1.108 -0.892,-2 -2,-2 l -1,0 -26,0 -1,0 z m 6,16 0,1 L 51.25,59 52,59 40,43 z m -4,20 0,1 24,0 L 59.25,63 36,63 z m -10,5.34375 0,1 C 26,71.915893 28.054583,74 30.59375,74 l 34.8125,0 C 67.945417,74 70,71.915893 70,69.34375 l 0,-1 C 70,70.915893 67.945417,73 65.40625,73 l -34.8125,0 C 28.054583,73 26,70.915893 26,68.34375 z"
       inkscape:connector-curvature="0"
       id="path3956"
       style="opacity:0.15;color:#000000;fill:#000000;fill-opacity:1;fill-rule:nonzero;stroke:none;stroke-width:1;marker:none;visibility:visible;display:inline;overflow:visible;enable-background:accumulate" />
  </g>
</svg>
