<?xml version="1.0" encoding="UTF-8" standalone="no"?>
<!-- Created with Inkscape (http://www.inkscape.org/) -->

<svg
   xmlns:dc="http://purl.org/dc/elements/1.1/"
   xmlns:cc="http://creativecommons.org/ns#"
   xmlns:rdf="http://www.w3.org/1999/02/22-rdf-syntax-ns#"
   xmlns:svg="http://www.w3.org/2000/svg"
   xmlns="http://www.w3.org/2000/svg"
   xmlns:xlink="http://www.w3.org/1999/xlink"
   xmlns:sodipodi="http://sodipodi.sourceforge.net/DTD/sodipodi-0.dtd"
   xmlns:inkscape="http://www.inkscape.org/namespaces/inkscape"
   id="svg2"
   sodipodi:version="0.32"
   inkscape:version="0.48.3.1 r9886"
   width="256"
   height="256"
   version="1.0"
   sodipodi:docname="document-encrypt.svg"
   inkscape:output_extension="org.inkscape.output.svg.inkscape">
  <metadata
     id="metadata7">
    <rdf:RDF>
      <cc:Work
         rdf:about="">
        <dc:format>image/svg+xml</dc:format>
        <dc:type
           rdf:resource="http://purl.org/dc/dcmitype/StillImage" />
        <dc:title></dc:title>
      </cc:Work>
    </rdf:RDF>
  </metadata>
  <defs
     id="defs5">
    <linearGradient
       id="linearGradient3571">
      <stop
         id="stop3573"
         offset="0"
         style="stop-color:#000000;stop-opacity:1;" />
      <stop
         id="stop3575"
         offset="1"
         style="stop-color:#696969;stop-opacity:1;" />
    </linearGradient>
    <linearGradient
       inkscape:collect="always"
       id="linearGradient2824">
      <stop
         style="stop-color:black;stop-opacity:1;"
         offset="0"
         id="stop2826" />
      <stop
         style="stop-color:#a6a6a6;stop-opacity:1"
         offset="1"
         id="stop2829" />
    </linearGradient>
    <linearGradient
       inkscape:collect="always"
       id="linearGradient2883">
      <stop
         style="stop-color:#936d16;stop-opacity:1;"
         offset="0"
         id="stop2885" />
      <stop
         style="stop-color:#ded4bc;stop-opacity:1"
         offset="1"
         id="stop2887" />
    </linearGradient>
    <linearGradient
       inkscape:collect="always"
       id="linearGradient2875">
      <stop
         style="stop-color:#d2be31;stop-opacity:1"
         offset="0"
         id="stop2877" />
      <stop
         style="stop-color:#eccc1c;stop-opacity:1"
         offset="1"
         id="stop2879" />
    </linearGradient>
    <linearGradient
       inkscape:collect="always"
       id="linearGradient2816">
      <stop
         style="stop-color:white;stop-opacity:0.78431374"
         offset="0"
         id="stop2818" />
      <stop
         style="stop-color:white;stop-opacity:0;"
         offset="1"
         id="stop2820" />
    </linearGradient>
    <linearGradient
       id="linearGradient2802">
      <stop
         id="stop2804"
         offset="0"
         style="stop-color:#000003;stop-opacity:0.47089946" />
      <stop
         style="stop-color:#0a104d;stop-opacity:1;"
         offset="0"
         id="stop2806" />
      <stop
         style="stop-color:#142197;stop-opacity:1;"
         offset="0.5"
         id="stop2808" />
      <stop
         id="stop2810"
         offset="0.75"
         style="stop-color:white;stop-opacity:1;" />
      <stop
         id="stop2812"
         offset="1"
         style="stop-color:#161a3b;stop-opacity:0" />
    </linearGradient>
    <linearGradient
       id="linearGradient2768">
      <stop
         style="stop-color:#000003;stop-opacity:1;"
         offset="0"
         id="stop2770" />
      <stop
         id="stop2782"
         offset="0"
         style="stop-color:#505050;stop-opacity:1;" />
      <stop
         id="stop2776"
         offset="0.5"
         style="stop-color:#5e5e5e;stop-opacity:1;" />
      <stop
         style="stop-color:white;stop-opacity:1;"
         offset="0.75"
         id="stop2788" />
      <stop
         style="stop-color:#393939;stop-opacity:1;"
         offset="1"
         id="stop2772" />
    </linearGradient>
    <linearGradient
       inkscape:collect="always"
       xlink:href="#linearGradient3571"
       id="linearGradient4335"
       gradientUnits="userSpaceOnUse"
       gradientTransform="matrix(-0.30531441,0,0,0.31699916,245.69567,-26.411146)"
       spreadMethod="reflect"
       x1="92.905365"
       y1="600.96838"
       x2="384.06619"
       y2="593.62213" />
    <linearGradient
       inkscape:collect="always"
       xlink:href="#linearGradient3571"
       id="linearGradient4337"
       gradientUnits="userSpaceOnUse"
       gradientTransform="matrix(-0.30531441,0,0,0.30651098,246.10497,-22.250808)"
       spreadMethod="reflect"
       x1="198.80705"
       y1="826.86768"
       x2="360.9079"
       y2="826.86768" />
    <radialGradient
       inkscape:collect="always"
       xlink:href="#linearGradient2768"
       id="radialGradient4339"
       gradientUnits="userSpaceOnUse"
       gradientTransform="matrix(-0.28789239,-0.0092824,-0.00887764,0.27750163,242.38536,-9.7994553)"
       cx="374.09015"
       cy="282.22714"
       fx="374.09015"
       fy="282.22714"
       r="212.85594" />
    <radialGradient
       inkscape:collect="always"
       xlink:href="#linearGradient2802"
       id="radialGradient4341"
       gradientUnits="userSpaceOnUse"
       gradientTransform="matrix(-0.55058809,0.11028045,0.08908955,0.44827661,298.14242,-210.17756)"
       spreadMethod="reflect"
       cx="385.03891"
       cy="475.95383"
       fx="385.03891"
       fy="475.95383"
       r="92.525383" />
    <linearGradient
       inkscape:collect="always"
       xlink:href="#linearGradient2883"
       id="linearGradient4343"
       gradientUnits="userSpaceOnUse"
       gradientTransform="matrix(-0.3053144,0,0,0.30651098,393.85593,-23.894354)"
       spreadMethod="reflect"
       x1="914.92804"
       y1="636.56635"
       x2="918.92407"
       y2="529.3241" />
    <linearGradient
       inkscape:collect="always"
       xlink:href="#linearGradient2875"
       id="linearGradient4345"
       gradientUnits="userSpaceOnUse"
       gradientTransform="matrix(-0.3053144,0,0,0.30651098,393.85593,-23.894354)"
       x1="906.20386"
       y1="615.11786"
       x2="912.90247"
       y2="481.06509" />
    <linearGradient
       inkscape:collect="always"
       xlink:href="#linearGradient3571"
       id="linearGradient4347"
       gradientUnits="userSpaceOnUse"
       gradientTransform="matrix(-0.30531441,0,0,0.30651098,246.10497,-22.250808)"
       spreadMethod="reflect"
       x1="149.1916"
       y1="825.00897"
       x2="93.405342"
       y2="820.31189" />
    <linearGradient
       inkscape:collect="always"
       xlink:href="#linearGradient3571"
       id="linearGradient4349"
       gradientUnits="userSpaceOnUse"
       gradientTransform="matrix(-0.30531441,0,0,0.30651098,246.10497,-22.250808)"
       spreadMethod="reflect"
       x1="683.4751"
       y1="829.48328"
       x2="642.18793"
       y2="835.32648" />
    <linearGradient
       inkscape:collect="always"
       xlink:href="#linearGradient2824"
       id="linearGradient4351"
       gradientUnits="userSpaceOnUse"
       x1="526.3573"
       y1="1059.448"
       x2="714.92816"
       y2="863.45557" />
    <linearGradient
       inkscape:collect="always"
       xlink:href="#linearGradient2816"
       id="linearGradient4353"
       gradientUnits="userSpaceOnUse"
       gradientTransform="matrix(-0.3053144,0,0,0.30651098,246.10497,-22.250809)"
       x1="386.81573"
       y1="69.791351"
       x2="371.84756"
       y2="407.7522" />
  </defs>
  <sodipodi:namedview
     inkscape:window-height="553"
     inkscape:window-width="1024"
     inkscape:pageshadow="2"
     inkscape:pageopacity="0.0"
     guidetolerance="10.0"
     gridtolerance="10.0"
     objecttolerance="10.0"
     borderopacity="1.0"
     bordercolor="#666666"
     pagecolor="#ffffff"
     id="base"
     inkscape:zoom="1.4960938"
     inkscape:cx="128"
     inkscape:cy="128"
     inkscape:window-x="-4"
     inkscape:window-y="24"
     inkscape:current-layer="svg2"
     width="256px"
     height="256px"
     showgrid="false"
     inkscape:snap-bbox="true"
     inkscape:bbox-paths="true"
     inkscape:bbox-nodes="true"
     inkscape:snap-bbox-edge-midpoints="true"
     inkscape:snap-bbox-midpoints="true"
     inkscape:object-paths="true"
     inkscape:snap-intersection-paths="true"
     inkscape:object-nodes="true"
     inkscape:snap-smooth-nodes="true"
     inkscape:snap-midpoints="true"
     inkscape:snap-object-midpoints="true"
     inkscape:snap-center="true"
     inkscape:window-maximized="1" />
  <g
     id="g4315"
     transform="matrix(1.0106727,0,0,0.99964947,-0.61533816,1.9863231)">
    <path
       id="path4313"
       d="M 130,7.0625 C 100.3392,7.0031603 71.0409,23.497645 69.1875,57 l -5.9375,46.75 15.90625,-1.90625 4.40625,-40.1875 c -0.565596,-54.3406608 93.97701,-57.6006832 93.53125,3.25 l 0.65625,36.65625 15.28125,1.59375 0.28125,-40.09375 C 193.57316,25.967851 161.57441,7.1256681 130,7.0625 z m -1.03125,92.28125 c -23.57922,-0.0015 -47.064877,1.66851 -70.375,5.25 -5.505707,0 -9.9375,3.34722 -9.9375,7.5 L 37.84375,217.3125 c -0.0033,0.0204 0.0033,0.0421 0,0.0625 -0.05304,0.33162 -0.08368,0.66695 -0.125,1 -0.06401,-0.32549 -0.09375,-0.66116 -0.09375,-1 -0.955052,5.88627 0.23994,11.95661 0.65625,17.59375 0.320296,2.47325 3.525191,5.17418 8.84375,5.34375 53.07328,6.51899 109.94022,5.88331 163.0625,0.71875 1.54805,-0.19662 2.99806,-0.60668 4.15625,-1.5625 1.19091,-0.88625 2.07024,-2.17091 2.21875,-3.875 0.26737,-3.20515 0.21573,-5.47895 0.21875,-8.09375 1e-5,-0.01 -1e-5,-0.0213 0,-0.0313 8.2e-4,-0.64708 0.0206,-1.32519 0.0313,-2.03125 1.5e-4,-0.01 -1.5e-4,-0.0214 0,-0.0313 0.0109,-0.70831 0.0313,-1.44438 0.0625,-2.25 3.8e-4,-0.01 -3.8e-4,-0.0217 0,-0.0313 0.1807,-0.56715 0.3125,-1.13986 0.3125,-1.75 l -0.125,-1.71875 c 0.0299,-0.40664 0.0882,-0.84533 0.125,-1.28125 -0.0255,0.13912 -0.0896,0.26985 -0.125,0.40625 -0.005,0.0195 0.005,0.0431 0,0.0625 -0.0109,0.0403 -0.0195,0.085 -0.0313,0.125 l -7.1875,-107.3436 c 0,-4.15278 -4.43179,-7.5 -9.9375,-7.5 -23.66681,-3.12686 -47.35828,-4.779752 -70.9375,-4.78125 z M 217.25,217.5 c -0.0235,0.25625 -0.0414,0.47243 -0.0625,0.71875 0.005,-0.032 0.0268,-0.0616 0.0313,-0.0937 0.003,-0.0203 -0.002,-0.0422 0,-0.0625 0.0235,-0.18329 0.0253,-0.37534 0.0313,-0.5625 z"
       style="opacity:0.05;fill:none;stroke:#000000;stroke-width:18;stroke-linejoin:round;stroke-miterlimit:4;stroke-opacity:1;stroke-dasharray:none"
       inkscape:connector-curvature="0" />
    <path
       style="opacity:0.1;fill:none;stroke:#000000;stroke-width:12;stroke-linejoin:round;stroke-miterlimit:4;stroke-opacity:1;stroke-dasharray:none"
       d="M 130,7.0625 C 100.3392,7.0031603 71.0409,23.497645 69.1875,57 l -5.9375,46.75 15.90625,-1.90625 4.40625,-40.1875 c -0.565596,-54.3406608 93.97701,-57.6006832 93.53125,3.25 l 0.65625,36.65625 15.28125,1.59375 0.28125,-40.09375 C 193.57316,25.967851 161.57441,7.1256681 130,7.0625 z m -1.03125,92.28125 c -23.57922,-0.0015 -47.064877,1.66851 -70.375,5.25 -5.505707,0 -9.9375,3.34722 -9.9375,7.5 L 37.84375,217.3125 c -0.0033,0.0204 0.0033,0.0421 0,0.0625 -0.05304,0.33162 -0.08368,0.66695 -0.125,1 -0.06401,-0.32549 -0.09375,-0.66116 -0.09375,-1 -0.955052,5.88627 0.23994,11.95661 0.65625,17.59375 0.320296,2.47325 3.525191,5.17418 8.84375,5.34375 53.07328,6.51899 109.94022,5.88331 163.0625,0.71875 1.54805,-0.19662 2.99806,-0.60668 4.15625,-1.5625 1.19091,-0.88625 2.07024,-2.17091 2.21875,-3.875 0.26737,-3.20515 0.21573,-5.47895 0.21875,-8.09375 1e-5,-0.01 -1e-5,-0.0213 0,-0.0313 8.2e-4,-0.64708 0.0206,-1.32519 0.0313,-2.03125 1.5e-4,-0.01 -1.5e-4,-0.0214 0,-0.0313 0.0109,-0.70831 0.0313,-1.44438 0.0625,-2.25 3.8e-4,-0.01 -3.8e-4,-0.0217 0,-0.0313 0.1807,-0.56715 0.3125,-1.13986 0.3125,-1.75 l -0.125,-1.71875 c 0.0299,-0.40664 0.0882,-0.84533 0.125,-1.28125 -0.0255,0.13912 -0.0896,0.26985 -0.125,0.40625 -0.005,0.0195 0.005,0.0431 0,0.0625 -0.0109,0.0403 -0.0195,0.085 -0.0313,0.125 l -7.1875,-107.3436 c 0,-4.15278 -4.43179,-7.5 -9.9375,-7.5 -23.66681,-3.12686 -47.35828,-4.779752 -70.9375,-4.78125 z M 217.25,217.5 c -0.0235,0.25625 -0.0414,0.47243 -0.0625,0.71875 0.005,-0.032 0.0268,-0.0616 0.0313,-0.0937 0.003,-0.0203 -0.002,-0.0422 0,-0.0625 0.0235,-0.18329 0.0253,-0.37534 0.0313,-0.5625 z"
       id="path4311"
       inkscape:connector-curvature="0" />
    <path
       id="path4227"
       d="M 130,7.0625 C 100.3392,7.0031603 71.0409,23.497645 69.1875,57 l -5.9375,46.75 15.90625,-1.90625 4.40625,-40.1875 c -0.565596,-54.3406608 93.97701,-57.6006832 93.53125,3.25 l 0.65625,36.65625 15.28125,1.59375 0.28125,-40.09375 C 193.57316,25.967851 161.57441,7.1256681 130,7.0625 z m -1.03125,92.28125 c -23.57922,-0.0015 -47.064877,1.66851 -70.375,5.25 -5.505707,0 -9.9375,3.34722 -9.9375,7.5 L 37.84375,217.3125 c -0.0033,0.0204 0.0033,0.0421 0,0.0625 -0.05304,0.33162 -0.08368,0.66695 -0.125,1 -0.06401,-0.32549 -0.09375,-0.66116 -0.09375,-1 -0.955052,5.88627 0.23994,11.95661 0.65625,17.59375 0.320296,2.47325 3.525191,5.17418 8.84375,5.34375 53.07328,6.51899 109.94022,5.88331 163.0625,0.71875 1.54805,-0.19662 2.99806,-0.60668 4.15625,-1.5625 1.19091,-0.88625 2.07024,-2.17091 2.21875,-3.875 0.26737,-3.20515 0.21573,-5.47895 0.21875,-8.09375 1e-5,-0.01 -1e-5,-0.0213 0,-0.0313 8.2e-4,-0.64708 0.0206,-1.32519 0.0313,-2.03125 1.5e-4,-0.01 -1.5e-4,-0.0214 0,-0.0313 0.0109,-0.70831 0.0313,-1.44438 0.0625,-2.25 3.8e-4,-0.01 -3.8e-4,-0.0217 0,-0.0313 0.1807,-0.56715 0.3125,-1.13986 0.3125,-1.75 l -0.125,-1.71875 c 0.0299,-0.40664 0.0882,-0.84533 0.125,-1.28125 -0.0255,0.13912 -0.0896,0.26985 -0.125,0.40625 -0.005,0.0195 0.005,0.0431 0,0.0625 -0.0109,0.0403 -0.0195,0.085 -0.0313,0.125 l -7.1875,-107.3436 c 0,-4.15278 -4.43179,-7.5 -9.9375,-7.5 -23.66681,-3.12686 -47.35828,-4.779752 -70.9375,-4.78125 z M 217.25,217.5 c -0.0235,0.25625 -0.0414,0.47243 -0.0625,0.71875 0.005,-0.032 0.0268,-0.0616 0.0313,-0.0937 0.003,-0.0203 -0.002,-0.0422 0,-0.0625 0.0235,-0.18329 0.0253,-0.37534 0.0313,-0.5625 z"
       style="opacity:0.15;fill:none;stroke:#000000;stroke-width:6;stroke-linejoin:round;stroke-miterlimit:4;stroke-opacity:1;stroke-dasharray:none"
       inkscape:connector-curvature="0" />
    <g
       id="g4212">
      <path
         inkscape:connector-curvature="0"
         sodipodi:nodetypes="ccccccccc"
         id="path2843"
         d="m 199.89403,104.13953 c -47.33362,-6.253729 -94.67356,-6.71435 -141.293807,0.44864 -5.505707,0 -9.938093,3.34321 -9.938093,7.49599 l -11.234386,109.2779 c 0,4.15279 4.432405,7.49599 9.938103,7.49599 53.291243,-6.0878 104.422043,-8.16994 159.873743,0 5.50571,0 9.9381,-3.3432 9.9381,-7.49599 l -7.34554,-109.72653 c 0,-4.15278 -4.43241,-7.496 -9.93812,-7.496 z"
         style="fill:url(#linearGradient4335);fill-opacity:1;stroke:none" />
      <path
         inkscape:connector-curvature="0"
         sodipodi:nodetypes="ccccccccc"
         id="path1876"
         d="m 216.54771,235.60187 c -0.29702,3.40817 -3.45538,5.05711 -6.36894,5.44107 -53.12228,5.16456 -109.99548,5.79387 -163.068758,-0.72512 -5.318559,-0.16957 -8.520585,-2.86113 -8.840881,-5.33438 -0.41631,-5.63714 -1.387148,-11.77255 -0.432095,-17.65883 0,4.01539 4.432394,7.24798 9.938095,7.24798 53.291229,-5.88638 104.422049,-7.89963 159.873749,0 5.50569,0 9.6044,-3.17675 9.6044,-7.19214 -0.84749,9.09287 -0.16865,11.78495 -0.70557,18.22142 z"
         style="fill:url(#linearGradient4337);fill-opacity:1;stroke:none" />
      <path
         inkscape:connector-curvature="0"
         sodipodi:nodetypes="ccccccccc"
         id="path2766"
         d="M 193.04545,103.14488 177.73652,101.56556 177.1025,64.916284 C 177.54826,4.0656008 82.98992,7.3211912 83.555516,61.661852 L 79.170509,101.8356 63.262198,103.74653 69.199302,57.012663 C 73.025676,-12.15349 193.81664,-8.8845263 193.31111,63.056611 z"
         style="fill:url(#radialGradient4339);fill-opacity:1;fill-rule:evenodd;stroke:none" />
      <path
         inkscape:connector-curvature="0"
         style="opacity:0.53571424;fill:url(#radialGradient4341);fill-opacity:1;fill-rule:evenodd;stroke:none"
         d="m 147.92697,13.775216 c -20.41569,-4.9023067 -40.8979,0.256611 -56.49869,12.552807 16.28995,-8.651877 35.26987,-12.577828 56.49869,-12.552807 z"
         id="path2790"
         sodipodi:nodetypes="ccc" />
      <path
         inkscape:connector-curvature="0"
         style="fill:url(#linearGradient4343);fill-opacity:1;stroke:url(#linearGradient4345);stroke-width:1.22364855;stroke-linecap:round;stroke-linejoin:round;stroke-miterlimit:4;stroke-opacity:1;stroke-dasharray:none"
         d="m 167.93528,127.05204 0.40927,5.76988 c 9.80344,0.34082 17.59374,5.53904 17.59374,11.89647 0,6.35739 -7.7903,11.55564 -17.59374,11.89644 l -0.40927,4.53655 c -27.37156,-6.33569 -53.93507,-4.55927 -80.22138,0 l 0,-5.40227 c -9.418029,-0.59112 -16.782762,-5.66782 -16.782732,-11.84856 0,-6.1807 7.364703,-11.26701 16.782732,-11.85814 l 0,-4.99037 c 26.23267,-3.56841 52.89834,-4.09395 80.22138,0 z"
         id="rect2867"
         sodipodi:nodetypes="ccsccccsccc" />
      <path
         inkscape:connector-curvature="0"
         style="fill:url(#linearGradient4347);fill-opacity:1;stroke:none"
         d="m 216.54771,235.60187 c -0.92617,3.92316 -3.48422,5.07468 -6.36894,5.44107 -3.80056,-6.72108 -3.40982,-9.03155 -2.52989,-16.47035 5.50569,0 9.6044,-3.23259 9.6044,-7.24798 -0.84749,9.09288 -0.16865,11.84079 -0.70557,18.27726 z"
         id="path2891"
         sodipodi:nodetypes="ccccc" />
      <path
         inkscape:connector-curvature="0"
         style="fill:url(#linearGradient4349);fill-opacity:1;stroke:none"
         d="m 47.110012,240.31782 c -5.318559,-0.16957 -8.520585,-2.86113 -8.840881,-5.33438 -0.41631,-5.63714 -1.609606,-11.71672 -0.654554,-17.60299 0,4.01539 4.654853,7.19214 10.160554,7.19214 0.282304,6.5559 -0.721127,11.08328 -0.665119,15.74523 z"
         id="path2901"
         sodipodi:nodetypes="ccccc" />
      <path
         sodipodi:type="arc"
         style="fill:#808080;fill-opacity:1;stroke:url(#linearGradient4351);stroke-width:10;stroke-linecap:round;stroke-linejoin:round;stroke-miterlimit:4;stroke-opacity:1;stroke-dasharray:none"
         id="path1935"
         sodipodi:cx="582.53308"
         sodipodi:cy="996.29492"
         sodipodi:rx="75.13044"
         sodipodi:ry="38.109638"
         d="m 657.66352,996.29492 c 0,21.04738 -33.63704,38.10968 -75.13044,38.10968 -41.4934,0 -75.13044,-17.0623 -75.13044,-38.10968 0,-21.04737 33.63704,-38.10964 75.13044,-38.10964 41.4934,0 75.13044,17.06227 75.13044,38.10964 z"
         transform="matrix(-0.24853831,0,0,0.24951237,273.62046,-16.123405)" />
      <path
         inkscape:connector-curvature="0"
         style="fill:none;stroke:#000000;stroke-width:1.99219882;stroke-linecap:butt;stroke-linejoin:miter;stroke-miterlimit:4;stroke-opacity:1;stroke-dasharray:none"
         d="m 143.94548,230.6791 c 0,0 -1.48693,2.47075 -4.30694,2.26484 -2.82002,-0.20589 -3.38565,-3.16231 -6.97312,-3.08843 -3.12324,0.0644 -6.05253,1.3577 -8.40877,2.67664 -2.8569,1.59924 -8.15093,1.03278 -10.66476,-1.85305"
         id="path2833"
         sodipodi:nodetypes="csssc" />
      <path
         inkscape:connector-curvature="0"
         sodipodi:nodetypes="csssc"
         id="path2835"
         d="m 143.94548,231.91446 c 0,0 -1.48693,2.47076 -4.30694,2.26486 -2.82002,-0.2059 -3.38565,-3.16232 -6.97312,-3.08843 -3.12324,0.0644 -6.05253,1.35768 -8.40877,2.67663 -2.8569,1.59925 -8.15093,1.03278 -10.66476,-1.85306"
         style="fill:none;stroke:#bfb3b3;stroke-width:1.99219882;stroke-linecap:butt;stroke-linejoin:miter;stroke-miterlimit:4;stroke-opacity:1;stroke-dasharray:none" />
      <path
         inkscape:connector-curvature="0"
         style="fill:none;stroke:url(#linearGradient4353);stroke-width:1.04010141;stroke-linecap:butt;stroke-linejoin:miter;stroke-miterlimit:4;stroke-opacity:1;stroke-dasharray:none"
         d="M 181.52703,95.485006 179.77218,56.022639 C 171.89912,6.4996347 88.566985,2.7173167 80.448508,54.965611 l -5.966445,45.099839"
         id="path2814"
         sodipodi:nodetypes="cccc" />
    </g>
    <path
       id="path4299"
       d="M 130,7.0625 C 100.3392,7.0031603 71.0409,23.497645 69.1875,57 L 63.25,103.75 63.5,103.71875 69.1875,59 C 71.0409,25.497645 100.3392,9.0031603 130,9.0625 161.413,9.1253452 193.24455,27.780648 193.3125,64.5 l 0,-1.4375 C 193.57316,25.967851 161.57441,7.1256681 130,7.0625 z m -1.03125,92.28125 c -16.5829,-0.0011 -33.131921,0.82659 -49.59375,2.5625 l -0.21875,1.9375 L 63.25,105.75 63.5,103.90625 c -1.634861,0.23224 -3.273085,0.43657 -4.90625,0.6875 -5.505707,0 -9.9375,3.34722 -9.9375,7.5 L 37.84375,217.3125 c -0.0033,0.0204 0.0033,0.0421 0,0.0625 -0.05304,0.33162 -0.08368,0.66695 -0.125,1 -0.06401,-0.32549 -0.09375,-0.66116 -0.09375,-1 -0.319479,1.96905 -0.364573,3.95036 -0.3125,5.9375 0.03224,-1.31699 0.100663,-2.63188 0.3125,-3.9375 0,0.33884 0.02974,0.67451 0.09375,1 0.04132,-0.33305 0.07196,-0.66838 0.125,-1 0.0033,-0.0204 -0.0033,-0.0421 0,-0.0625 l 10.8125,-105.21875 c 0,-4.15278 4.431793,-7.5 9.9375,-7.5 23.310123,-3.58149 46.79578,-5.251 70.375,-5.25 23.57922,0.001 47.27069,1.65439 70.9375,4.78125 5.50571,0 9.9375,3.34722 9.9375,7.5 l 7.1875,107.34375 c 0.0118,-0.04 0.0204,-0.0847 0.0313,-0.125 0.005,-0.0194 -0.005,-0.043 0,-0.0625 0.0189,-0.073 0.0374,-0.14685 0.0625,-0.21875 l -0.0625,-0.90625 c 0.0299,-0.40664 0.0882,-0.84533 0.125,-1.28125 -0.0255,0.13912 -0.0896,0.26985 -0.125,0.40625 -0.005,0.0195 0.005,0.0431 0,0.0625 -0.0109,0.0403 -0.0195,0.085 -0.0313,0.125 L 209.84375,111.625 c 0,-4.15278 -4.43179,-7.5 -9.9375,-7.5 -2.29154,-0.30276 -4.58312,-0.56879 -6.875,-0.84375 l 0,1.875 -15.28125,-1.59375 -0.0313,-1.90625 c -16.27234,-1.50446 -32.53929,-2.31147 -48.75,-2.3125 z M 217.25,217.5 c -0.0235,0.25625 -0.0414,0.47243 -0.0625,0.71875 0.005,-0.032 0.0268,-0.0616 0.0313,-0.0937 0.003,-0.0203 -0.002,-0.0422 0,-0.0625 0.0235,-0.18329 0.0253,-0.37534 0.0313,-0.5625 z m -0.0937,3.3125 c -0.0301,0.28603 -0.074,0.57561 -0.0937,0.84375 l 0.0313,0.53125 c 0.0456,-0.26165 0.0937,-0.53865 0.0937,-0.8125 l -0.0313,-0.5625 z"
       style="opacity:0.7;fill:#ffffff;fill-opacity:1;stroke:none"
       inkscape:connector-curvature="0" />
    <path
       id="path4304"
       d="m 130.28125,18.09375 c -23.50923,0.0013 -47.001548,14.39217 -46.71875,41.5625 l -4.40625,40.1875 -15.65625,1.875 0,0.1875 c 5.288796,-0.75131 10.569714,-1.44056 15.875,-2 l 4.1875,-38.25 c -0.565596,-54.3406608 93.97701,-57.6006832 93.53125,3.25 l 0.625,34.75 c 5.10478,0.47196 10.20741,1.01253 15.3125,1.625 l 0,-0.125 L 177.75,99.5625 177.09375,62.90625 c 0.22288,-30.425342 -23.30327,-44.813753 -46.8125,-44.8125 z M 217.25,217.5 c -0.0235,0.25625 -0.0414,0.47243 -0.0625,0.71875 0.005,-0.032 0.0268,-0.0616 0.0313,-0.0937 0.003,-0.0203 -0.002,-0.0422 0,-0.0625 0.0235,-0.18329 0.0253,-0.37534 0.0313,-0.5625 z m -0.0625,0.875 c -0.0119,0.0647 -0.0407,0.12504 -0.0625,0.1875 l 0.0313,0.25 c 0.0155,-0.14774 0.0187,-0.28903 0.0313,-0.4375 z m -0.0937,1.90625 c -0.0555,0.29034 -0.1284,0.56018 -0.21875,0.84375 -3.8e-4,0.01 3.8e-4,0.0213 0,0.0313 -0.0312,0.80562 -0.0516,1.54169 -0.0625,2.25 -1.5e-4,0.01 1.5e-4,0.0213 0,0.0313 -0.0107,0.70606 -0.0304,1.38417 -0.0313,2.03125 -1e-5,0.01 1e-5,0.0213 0,0.0313 -7.8e-4,0.67513 -8e-5,1.31718 0,1.96875 8.2e-4,-0.64708 0.0206,-1.32519 0.0313,-2.03125 1.5e-4,-0.01 -1.5e-4,-0.0214 0,-0.0313 0.0109,-0.70831 0.0313,-1.44438 0.0625,-2.25 3.8e-4,-0.01 -3.8e-4,-0.0217 0,-0.0313 0.1807,-0.56715 0.3125,-1.13986 0.3125,-1.75 l -0.0937,-1.09375 z M 37.3125,221.3125 c -0.113111,4.62057 0.64478,9.26947 0.96875,13.65625 0.320296,2.47325 3.525191,5.17418 8.84375,5.34375 53.07328,6.51899 109.94022,5.88331 163.0625,0.71875 1.54805,-0.19662 2.99806,-0.60668 4.15625,-1.5625 1.19091,-0.88625 2.07024,-2.17091 2.21875,-3.875 0.20381,-2.44327 0.22016,-4.35678 0.21875,-6.28125 -0.0209,1.29594 -0.0851,2.67867 -0.21875,4.28125 -0.14851,1.70409 -1.02784,2.98875 -2.21875,3.875 -1.15819,0.95582 -2.6082,1.36588 -4.15625,1.5625 -53.12228,5.16456 -109.98922,5.80024 -163.0625,-0.71875 -5.318559,-0.16957 -8.523454,-2.8705 -8.84375,-5.34375 -0.277048,-3.75143 -0.865156,-7.70304 -0.96875,-11.65625 z"
       style="opacity:0.7;fill:#000000;fill-opacity:1;stroke:none"
       inkscape:connector-curvature="0" />
    <path
       inkscape:connector-curvature="0"
       style="opacity:0.3;fill:#000000;fill-opacity:1;stroke:none"
       d="m 130.28125,20.09375 c -23.50923,0.0013 -47.001548,14.39217 -46.71875,41.5625 l -4.40625,40.1875 -15.65625,1.875 0,0.1875 c 5.288796,-0.75131 10.569714,-1.44056 15.875,-2 l 4.1875,-38.25 c -0.565596,-54.3406608 93.97701,-57.6006832 93.53125,3.25 l 0.625,34.75 c 5.10478,0.47196 10.20741,1.01253 15.3125,1.625 l 0,-0.125 L 177.75,101.5625 177.09375,64.90625 c 0.22288,-30.425342 -23.30327,-44.813753 -46.8125,-44.8125 z M 217.25,219.5 c -0.0235,0.25625 -0.0414,0.47243 -0.0625,0.71875 0.005,-0.032 0.0268,-0.0616 0.0313,-0.0937 0.003,-0.0203 -0.002,-0.0422 0,-0.0625 0.0235,-0.18329 0.0253,-0.37534 0.0313,-0.5625 z m -0.0625,0.875 c -0.0119,0.0647 -0.0407,0.12504 -0.0625,0.1875 l 0.0313,0.25 c 0.0155,-0.14774 0.0187,-0.28903 0.0313,-0.4375 z m -0.0937,1.90625 c -0.0555,0.29034 -0.1284,0.56018 -0.21875,0.84375 -3.8e-4,0.01 3.8e-4,0.0213 0,0.0313 -0.0312,0.80562 -0.0516,1.54169 -0.0625,2.25 -1.5e-4,0.01 1.5e-4,0.0213 0,0.0313 -0.0107,0.70606 -0.0304,1.38417 -0.0313,2.03125 -1e-5,0.01 1e-5,0.0213 0,0.0313 -7.8e-4,0.67513 -8e-5,1.31718 0,1.96875 8.2e-4,-0.64708 0.0206,-1.32519 0.0313,-2.03125 1.5e-4,-0.01 -1.5e-4,-0.0214 0,-0.0313 0.0109,-0.70831 0.0313,-1.44438 0.0625,-2.25 3.8e-4,-0.01 -3.8e-4,-0.0217 0,-0.0313 0.1807,-0.56715 0.3125,-1.13986 0.3125,-1.75 l -0.0937,-1.09375 z M 37.3125,223.3125 c -0.113111,4.62057 0.64478,9.26947 0.96875,13.65625 0.320296,2.47325 3.525191,5.17418 8.84375,5.34375 53.07328,6.51899 109.94022,5.88331 163.0625,0.71875 1.54805,-0.19662 2.99806,-0.60668 4.15625,-1.5625 1.19091,-0.88625 2.07024,-2.17091 2.21875,-3.875 0.20381,-2.44327 0.22016,-4.35678 0.21875,-6.28125 -0.0209,1.29594 -0.0851,2.67867 -0.21875,4.28125 -0.14851,1.70409 -1.02784,2.98875 -2.21875,3.875 -1.15819,0.95582 -2.6082,1.36588 -4.15625,1.5625 -53.12228,5.16456 -109.98922,5.80024 -163.0625,-0.71875 -5.318559,-0.16957 -8.523454,-2.8705 -8.84375,-5.34375 -0.277048,-3.75143 -0.865156,-7.70304 -0.96875,-11.65625 z"
       id="path4309" />
  </g>
</svg>
