<?xml version="1.0" encoding="UTF-8" standalone="no"?>
<!-- Created with Inkscape (http://www.inkscape.org/) -->

<svg
   xmlns:dc="http://purl.org/dc/elements/1.1/"
   xmlns:cc="http://creativecommons.org/ns#"
   xmlns:rdf="http://www.w3.org/1999/02/22-rdf-syntax-ns#"
   xmlns:svg="http://www.w3.org/2000/svg"
   xmlns="http://www.w3.org/2000/svg"
   xmlns:xlink="http://www.w3.org/1999/xlink"
   xmlns:sodipodi="http://sodipodi.sourceforge.net/DTD/sodipodi-0.dtd"
   xmlns:inkscape="http://www.inkscape.org/namespaces/inkscape"
   version="1.0"
   width="256"
   height="256"
   id="svg2408"
   inkscape:version="0.48.2 r9819"
   sodipodi:docname="document-new.svg">
  <sodipodi:namedview
     pagecolor="#ffffff"
     bordercolor="#666666"
     borderopacity="1"
     objecttolerance="10"
     gridtolerance="10"
     guidetolerance="10"
     inkscape:pageopacity="0"
     inkscape:pageshadow="2"
     inkscape:window-width="1024"
     inkscape:window-height="572"
     id="namedview93"
     showgrid="false"
     inkscape:zoom="1.6289062"
     inkscape:cx="128"
     inkscape:cy="128"
     inkscape:window-x="0"
     inkscape:window-y="28"
     inkscape:window-maximized="1"
     inkscape:current-layer="svg2408" />
  <defs
     id="defs2410">
    <linearGradient
       id="linearGradient3637">
      <stop
         id="stop3639"
         style="stop-color:#5a5a5a;stop-opacity:1;"
         offset="0" />
      <stop
         id="stop3641"
         style="stop-color:#000000;stop-opacity:1;"
         offset="1" />
    </linearGradient>
    <linearGradient
       x1="45.447727"
       y1="92.539597"
       x2="45.447727"
       y2="7.0165396"
       id="ButtonShadow"
       gradientUnits="userSpaceOnUse"
       gradientTransform="scale(1.0058652,0.994169)">
      <stop
         id="stop3750"
         style="stop-color:#000000;stop-opacity:1"
         offset="0" />
      <stop
         id="stop3752"
         style="stop-color:#000000;stop-opacity:0.58823532"
         offset="1" />
    </linearGradient>
    <linearGradient
       id="linearGradient3737">
      <stop
         id="stop3739"
         style="stop-color:#ffffff;stop-opacity:1"
         offset="0" />
      <stop
         id="stop3741"
         style="stop-color:#ffffff;stop-opacity:0"
         offset="1" />
    </linearGradient>
    <linearGradient
       id="linearGradient3700">
      <stop
         id="stop3702"
         style="stop-color:#2276c5;stop-opacity:1"
         offset="0" />
      <stop
         id="stop3704"
         style="stop-color:#68baf4;stop-opacity:1"
         offset="1" />
    </linearGradient>
    <filter
       color-interpolation-filters="sRGB"
       id="filter3174">
      <feGaussianBlur
         id="feGaussianBlur3176"
         stdDeviation="1.71" />
    </filter>
    <linearGradient
       x1="36.357143"
       y1="6"
       x2="36.357143"
       y2="63.893143"
       id="linearGradient3188"
       xlink:href="#linearGradient3737"
       gradientUnits="userSpaceOnUse" />
    <filter
       x="-0.192"
       y="-0.192"
       width="1.3839999"
       height="1.3839999"
       color-interpolation-filters="sRGB"
       id="filter3794">
      <feGaussianBlur
         id="feGaussianBlur3796"
         stdDeviation="5.28" />
    </filter>
    <linearGradient
       x1="48"
       y1="20.220806"
       x2="48"
       y2="138.66119"
       id="linearGradient3613"
       xlink:href="#linearGradient3737"
       gradientUnits="userSpaceOnUse" />
    <radialGradient
       cx="48"
       cy="90.171875"
       r="42"
       fx="48"
       fy="90.171875"
       id="radialGradient3619"
       xlink:href="#linearGradient3737"
       gradientUnits="userSpaceOnUse"
       gradientTransform="matrix(1.1573129,0,0,0.99590774,-7.5510206,0.19713193)" />
    <clipPath
       id="clipPath3613">
      <rect
         width="84"
         height="84"
         rx="6"
         ry="6"
         x="6"
         y="6"
         id="rect3615"
         style="fill:#ffffff;fill-opacity:1;fill-rule:nonzero;stroke:none" />
    </clipPath>
    <linearGradient
       x1="48"
       y1="90"
       x2="48"
       y2="5.9877172"
       id="linearGradient2843"
       xlink:href="#linearGradient3700"
       gradientUnits="userSpaceOnUse"
       gradientTransform="translate(0,100)" />
    <clipPath
       id="clipPath3625">
      <path
         d="M 0,0 0,96 96,96 96,0 0,0 z m 12,6 72,0 c 3.324,0 6,2.676 6,6 l 0,72 c 0,3.324 -2.676,6 -6,6 L 12,90 C 8.676,90 6,87.324 6,84 L 6,12 C 6,8.676 8.676,6 12,6 z"
         inkscape:connector-curvature="0"
         id="path3627"
         style="fill:#ffffff;fill-opacity:1;stroke:none" />
    </clipPath>
    <linearGradient
       x1="44.512066"
       y1="6"
       x2="44.512066"
       y2="90.015434"
       id="linearGradient3643"
       xlink:href="#linearGradient3637"
       gradientUnits="userSpaceOnUse" />
    <clipPath
       id="clipPath3649">
      <rect
         width="76"
         height="76"
         rx="4"
         ry="4"
         x="10"
         y="10"
         id="rect3651"
         style="fill:#ffffff;fill-opacity:1;fill-rule:nonzero;stroke:none" />
    </clipPath>
    <filter
       color-interpolation-filters="sRGB"
       id="filter3657">
      <feGaussianBlur
         id="feGaussianBlur3659"
         stdDeviation="1.14" />
    </filter>
    <linearGradient
       inkscape:collect="always"
       xlink:href="#linearGradient3637"
       id="linearGradient3736"
       gradientUnits="userSpaceOnUse"
       x1="45"
       y1="24"
       x2="45"
       y2="76"
       gradientTransform="matrix(4.1871399,0,0,4.1871399,-71.543193,-75.975055)" />
  </defs>
  <metadata
     id="metadata2413">
    <rdf:RDF>
      <cc:Work
         rdf:about="">
        <dc:format>image/svg+xml</dc:format>
        <dc:type
           rdf:resource="http://purl.org/dc/dcmitype/StillImage" />
        <dc:title></dc:title>
      </cc:Work>
    </rdf:RDF>
  </metadata>
  <g
     id="layer2"
     style="display:none"
     transform="translate(0,160)">
    <rect
       width="86"
       height="85"
       rx="6"
       ry="6"
       x="5"
       y="7"
       clip-path="url(#clipPath3625)"
       id="rect3745"
       style="opacity:0.9;fill:url(#ButtonShadow);fill-opacity:1;fill-rule:nonzero;stroke:none;filter:url(#filter3174)" />
  </g>
  <g
     id="layer1"
     style="display:none"
     transform="translate(0,160)">
    <rect
       width="84"
       height="84"
       rx="6"
       ry="6"
       x="6"
       y="6"
       id="rect2419"
       style="opacity:0.8;fill:#000000;fill-opacity:1;fill-rule:nonzero;stroke:none" />
    <path
       d="m 14,10 c -2.216,0 -4,1.784 -4,4 l 0,68 c 0,2.216 1.784,4 4,4 l 68,0 c 2.216,0 4,-1.784 4,-4 l 0,-68 c 0,-2.216 -1.784,-4 -4,-4 l -68,0 z m 0,3.0625 68,0 c 0.578769,0 0.9375,0.358731 0.9375,0.9375 l 0,68 c 0,0.578769 -0.358731,0.9375 -0.9375,0.9375 l -68,0 c -0.578769,0 -0.9375,-0.358731 -0.9375,-0.9375 l 0,-68 c 0,-0.578769 0.358731,-0.9375 0.9375,-0.9375 z"
       inkscape:connector-curvature="0"
       id="rect3726"
       style="opacity:0.07999998;fill:#000000;fill-opacity:1;fill-rule:nonzero;stroke:none" />
    <path
       d="M 12,6 C 8.676,6 6,8.676 6,12 l 0,72 c 0,3.324 2.676,6 6,6 l 72,0 c 3.324,0 6,-2.676 6,-6 L 90,12 C 90,8.676 87.324,6 84,6 L 12,6 z m 2,4 68,0 c 2.216,0 4,1.784 4,4 l 0,68 c 0,2.216 -1.784,4 -4,4 l -68,0 c -2.216,0 -4,-1.784 -4,-4 l 0,-68 c 0,-2.216 1.784,-4 4,-4 z"
       inkscape:connector-curvature="0"
       id="rect3629"
       style="fill:url(#linearGradient3643);fill-opacity:1;fill-rule:nonzero;stroke:none" />
    <path
       d="M 12,6 C 8.676,6 6,8.676 6,12 l 0,2 0,68 0,2 c 0,0.334721 0.04135,0.6507 0.09375,0.96875 0.0487,0.295596 0.09704,0.596915 0.1875,0.875 0.00988,0.03038 0.020892,0.0636 0.03125,0.09375 0.098865,0.287771 0.2348802,0.547452 0.375,0.8125 0.1445918,0.273507 0.3156161,0.535615 0.5,0.78125 0.1843839,0.245635 0.3737765,0.473472 0.59375,0.6875 0.439947,0.428056 0.94291,0.814526 1.5,1.09375 0.278545,0.139612 0.5734731,0.246947 0.875,0.34375 -0.2562018,-0.100222 -0.4867109,-0.236272 -0.71875,-0.375 -0.00741,-0.0044 -0.023866,0.0045 -0.03125,0 -0.031933,-0.0193 -0.062293,-0.04251 -0.09375,-0.0625 -0.120395,-0.0767 -0.2310226,-0.163513 -0.34375,-0.25 -0.1061728,-0.0808 -0.2132809,-0.161112 -0.3125,-0.25 C 8.4783201,88.557317 8.3087904,88.373362 8.15625,88.1875 8.0486711,88.057245 7.9378561,87.922215 7.84375,87.78125 7.818661,87.74287 7.805304,87.69538 7.78125,87.65625 7.716487,87.553218 7.6510225,87.451733 7.59375,87.34375 7.4927417,87.149044 7.3880752,86.928049 7.3125,86.71875 7.30454,86.69694 7.288911,86.6782 7.28125,86.65625 7.2494249,86.5643 7.2454455,86.469419 7.21875,86.375 7.1884177,86.268382 7.1483606,86.171969 7.125,86.0625 7.0521214,85.720988 7,85.364295 7,85 L 7,83 7,15 7,13 C 7,10.218152 9.2181517,8 12,8 l 2,0 68,0 2,0 c 2.781848,0 5,2.218152 5,5 l 0,2 0,68 0,2 c 0,0.364295 -0.05212,0.720988 -0.125,1.0625 -0.04415,0.206893 -0.08838,0.397658 -0.15625,0.59375 -0.0077,0.02195 -0.0233,0.04069 -0.03125,0.0625 -0.06274,0.173739 -0.138383,0.367449 -0.21875,0.53125 -0.04158,0.0828 -0.07904,0.169954 -0.125,0.25 -0.0546,0.09721 -0.126774,0.18835 -0.1875,0.28125 -0.09411,0.140965 -0.204921,0.275995 -0.3125,0.40625 -0.143174,0.17445 -0.303141,0.346998 -0.46875,0.5 -0.01117,0.0102 -0.01998,0.02115 -0.03125,0.03125 -0.138386,0.125556 -0.285091,0.234436 -0.4375,0.34375 -0.102571,0.07315 -0.204318,0.153364 -0.3125,0.21875 -0.0074,0.0045 -0.02384,-0.0044 -0.03125,0 -0.232039,0.138728 -0.462548,0.274778 -0.71875,0.375 0.301527,-0.0968 0.596455,-0.204138 0.875,-0.34375 0.55709,-0.279224 1.060053,-0.665694 1.5,-1.09375 0.219973,-0.214028 0.409366,-0.441865 0.59375,-0.6875 0.184384,-0.245635 0.355408,-0.507743 0.5,-0.78125 0.14012,-0.265048 0.276135,-0.524729 0.375,-0.8125 0.01041,-0.03078 0.02133,-0.06274 0.03125,-0.09375 0.09046,-0.278085 0.1388,-0.579404 0.1875,-0.875 C 89.95865,84.6507 90,84.334721 90,84 l 0,-2 0,-68 0,-2 C 90,8.676 87.324,6 84,6 L 12,6 z"
       inkscape:connector-curvature="0"
       id="rect3728"
       style="fill:url(#linearGradient3188);fill-opacity:1;fill-rule:nonzero;stroke:none" />
    <path
       d="M 12,90 C 8.676,90 6,87.324 6,84 L 6,82 6,14 6,12 c 0,-0.334721 0.04135,-0.6507 0.09375,-0.96875 0.0487,-0.295596 0.09704,-0.596915 0.1875,-0.875 C 6.29113,10.12587 6.302142,10.09265 6.3125,10.0625 6.411365,9.774729 6.5473802,9.515048 6.6875,9.25 6.8320918,8.976493 7.0031161,8.714385 7.1875,8.46875 7.3718839,8.223115 7.5612765,7.995278 7.78125,7.78125 8.221197,7.353194 8.72416,6.966724 9.28125,6.6875 9.559795,6.547888 9.8547231,6.440553 10.15625,6.34375 9.9000482,6.443972 9.6695391,6.580022 9.4375,6.71875 c -0.00741,0.0044 -0.023866,-0.0045 -0.03125,0 -0.031933,0.0193 -0.062293,0.04251 -0.09375,0.0625 -0.120395,0.0767 -0.2310226,0.163513 -0.34375,0.25 -0.1061728,0.0808 -0.2132809,0.161112 -0.3125,0.25 C 8.4783201,7.442683 8.3087904,7.626638 8.15625,7.8125 8.0486711,7.942755 7.9378561,8.077785 7.84375,8.21875 7.818661,8.25713 7.805304,8.30462 7.78125,8.34375 7.716487,8.446782 7.6510225,8.548267 7.59375,8.65625 7.4927417,8.850956 7.3880752,9.071951 7.3125,9.28125 7.30454,9.30306 7.288911,9.3218 7.28125,9.34375 7.2494249,9.4357 7.2454455,9.530581 7.21875,9.625 7.1884177,9.731618 7.1483606,9.828031 7.125,9.9375 7.0521214,10.279012 7,10.635705 7,11 l 0,2 0,68 0,2 c 0,2.781848 2.2181517,5 5,5 l 2,0 68,0 2,0 c 2.781848,0 5,-2.218152 5,-5 l 0,-2 0,-68 0,-2 C 89,10.635705 88.94788,10.279012 88.875,9.9375 88.83085,9.730607 88.78662,9.539842 88.71875,9.34375 88.71105,9.3218 88.69545,9.30306 88.6875,9.28125 88.62476,9.107511 88.549117,8.913801 88.46875,8.75 88.42717,8.6672 88.38971,8.580046 88.34375,8.5 88.28915,8.40279 88.216976,8.31165 88.15625,8.21875 88.06214,8.077785 87.951329,7.942755 87.84375,7.8125 87.700576,7.63805 87.540609,7.465502 87.375,7.3125 87.36383,7.3023 87.35502,7.29135 87.34375,7.28125 87.205364,7.155694 87.058659,7.046814 86.90625,6.9375 86.803679,6.86435 86.701932,6.784136 86.59375,6.71875 c -0.0074,-0.0045 -0.02384,0.0044 -0.03125,0 -0.232039,-0.138728 -0.462548,-0.274778 -0.71875,-0.375 0.301527,0.0968 0.596455,0.204138 0.875,0.34375 0.55709,0.279224 1.060053,0.665694 1.5,1.09375 0.219973,0.214028 0.409366,0.441865 0.59375,0.6875 0.184384,0.245635 0.355408,0.507743 0.5,0.78125 0.14012,0.265048 0.276135,0.524729 0.375,0.8125 0.01041,0.03078 0.02133,0.06274 0.03125,0.09375 0.09046,0.278085 0.1388,0.579404 0.1875,0.875 C 89.95865,11.3493 90,11.665279 90,12 l 0,2 0,68 0,2 c 0,3.324 -2.676,6 -6,6 l -72,0 z"
       inkscape:connector-curvature="0"
       id="path3615"
       style="opacity:0.6;fill:url(#radialGradient3619);fill-opacity:1;fill-rule:nonzero;stroke:none" />
    <rect
       width="84"
       height="84"
       rx="6"
       ry="6"
       x="6"
       y="106"
       id="rect2841"
       style="fill:url(#linearGradient2843);fill-opacity:1;fill-rule:nonzero;stroke:none" />
    <rect
       width="76"
       height="76"
       rx="4"
       ry="4"
       x="10"
       y="110"
       id="rect3634"
       style="fill:#ff0000;fill-opacity:1;fill-rule:nonzero;stroke:none" />
    <path
       d="m 14,9 c -2.752703,0 -5,2.247297 -5,5 l 0,68 c 0,2.752703 2.247297,5 5,5 l 68,0 c 2.752703,0 5,-2.247297 5,-5 L 87,14 C 87,11.247297 84.752703,9 82,9 L 14,9 z m 0,2 68,0 c 1.679297,0 3,1.320703 3,3 l 0,68 c 0,1.679297 -1.320703,3 -3,3 l -68,0 c -1.679297,0 -3,-1.320703 -3,-3 l 0,-68 c 0,-1.679297 1.320703,-3 3,-3 z"
       inkscape:connector-curvature="0"
       transform="translate(-110,0)"
       clip-path="url(#clipPath3649)"
       id="rect3647"
       style="font-size:medium;font-style:normal;font-variant:normal;font-weight:normal;font-stretch:normal;text-indent:0;text-align:start;text-decoration:none;line-height:normal;letter-spacing:normal;word-spacing:normal;text-transform:none;direction:ltr;block-progression:tb;writing-mode:lr-tb;text-anchor:start;color:#000000;fill:#000000;fill-opacity:1;stroke:none;stroke-width:2;marker:none;visibility:visible;display:inline;overflow:visible;filter:url(#filter3657);enable-background:accumulate;font-family:Abandoned Bitplane;-inkscape-font-specification:Abandoned Bitplane" />
    <path
       d="m 14.089286,10 c -2.216,0 -4,1.784 -4,4 l 0,68 c 0,2.216 1.784,4 4,4 l 68,0 c 2.216,0 4,-1.784 4,-4 l 0,-68 c 0,-2.216 -1.784,-4 -4,-4 l -68,0 z m 0,2 68,0 c 1.140301,0 2,0.859699 2,2 l 0,68 c 0,1.140301 -0.859699,2 -2,2 l -68,0 c -1.140301,0 -2,-0.859699 -2,-2 l 0,-68 c 0,-1.140301 0.859699,-2 2,-2 z"
       inkscape:connector-curvature="0"
       id="path3709"
       style="opacity:0.16000001;fill:#000000;fill-opacity:1;fill-rule:nonzero;stroke:none" />
    <path
       d="m 14,10 c -2.216,0 -4,1.784 -4,4 l 0,68 c 0,2.216 1.784,4 4,4 l 68,0 c 2.216,0 4,-1.784 4,-4 l 0,-68 c 0,-2.216 -1.784,-4 -4,-4 l -68,0 z m 0,1 68,0 c 1.673848,0 3,1.326152 3,3 l 0,68 c 0,1.673848 -1.326152,3 -3,3 l -68,0 c -1.673848,0 -3,-1.326152 -3,-3 l 0,-68 c 0,-1.673848 1.326152,-3 3,-3 z"
       inkscape:connector-curvature="0"
       id="path3707"
       style="opacity:0.36000001;fill:#000000;fill-opacity:1;fill-rule:nonzero;stroke:none" />
  </g>
  <g
     id="layer5"
     style="display:none"
     transform="translate(0,160)">
    <rect
       width="66"
       height="66"
       rx="12"
       ry="12"
       x="15"
       y="15"
       clip-path="url(#clipPath3613)"
       id="rect3171"
       style="opacity:0.1;fill:url(#linearGradient3613);fill-opacity:1;fill-rule:nonzero;stroke:#ffffff;stroke-width:0.5;stroke-linecap:round;stroke-linejoin:miter;stroke-miterlimit:4;stroke-opacity:1;stroke-dasharray:none;stroke-dashoffset:0;filter:url(#filter3794)" />
  </g>
  <g
     id="g3716"
     transform="translate(2.0626254,0.9399058)">
    <path
       d="m 68.725994,20.067466 c -12.791327,0 -23.290966,10.49963 -23.290966,23.290966 l 0,94.210648 c -2.22e-4,0.0168 -8.88e-4,0.50723 0,0.52339 8.88e-4,0.0167 -0.002,0.63816 0,0.65424 0.002,0.0168 0.12775,0.50748 0.130848,0.5234 0.0031,0.0167 0.126661,0.50773 0.130848,0.52339 0.0042,0.0168 0.125614,0.63891 0.130848,0.65424 0.0054,0.0168 0.255416,0.50848 0.261697,0.52339 0.0063,0.0168 0.25441,0.50895 0.261696,0.52339 0.0036,0.008 0.06168,0.13567 0.130848,0.2617 -0.06917,0.12603 -0.127205,0.25458 -0.130848,0.2617 -0.0071,0.0167 -0.255416,0.50848 -0.261696,0.52339 -0.0063,0.0168 -0.256463,0.50807 -0.261697,0.52339 -0.0054,0.0168 -0.126661,0.63858 -0.130848,0.65424 -0.0042,0.0168 -0.127749,0.50748 -0.130848,0.52339 -0.0031,0.0168 -0.128838,0.50732 -0.130848,0.5234 -0.002,0.0167 8.88e-4,0.63807 0,0.65424 -8.88e-4,0.0168 -2.22e-4,0.50719 0,0.52339 l 0,24.86114 -24.861143,0 c -0.01172,-1.2e-4 -0.38082,-4.6e-4 -0.392544,0 -0.01172,4.6e-4 -0.380863,-10e-4 -0.392545,0 -0.01172,0.001 -0.380946,-0.002 -0.392544,0 -0.01172,0.002 -0.511878,0.12855 -0.523393,0.13064 -0.0113,0.002 -0.381155,0.12813 -0.392544,0.13064 -0.01131,0.003 -0.381323,-0.003 -0.392544,0 -0.01131,0.003 -0.381491,0.12687 -0.392545,0.13064 -0.01089,0.004 -0.381699,0.25709 -0.392544,0.26169 -0.01089,0.004 -0.381909,0.12604 -0.392545,0.13064 -0.01047,0.004 -0.382202,0.1252 -0.392544,0.13064 -0.01047,0.004 -0.382453,0.25584 -0.392544,0.2617 -0.01005,0.004 -0.382789,0.255 -0.392545,0.2617 -0.0096,0.004 -0.252275,0.25457 -0.261696,0.26169 -0.0096,0.008 -0.383458,0.25416 -0.392544,0.2617 -0.0092,0.008 -0.383835,0.25374 -0.392545,0.26169 -0.0088,0.008 -0.253405,0.25333 -0.261696,0.2617 -0.0084,0.008 -0.253824,0.2529 -0.261696,0.2617 -0.008,0.008 -0.254285,0.38354 -0.261696,0.39233 -0.0075,0.008 -0.254746,0.38312 -0.261697,0.39234 -0.0071,0.008 -0.255206,0.25206 -0.261696,0.26169 -0.0063,0.008 -0.255708,0.38229 -0.261696,0.39234 -0.0059,0.008 -0.256211,0.38228 -0.261696,0.39233 -0.0054,0.008 -0.125908,0.38187 -0.130848,0.39234 -0.005,0.008 -0.12641,0.38186 -0.130849,0.39233 -0.0046,0.0126 -0.257802,0.38145 -0.261696,0.39234 -0.0039,0.0126 -0.127498,0.38145 -0.130848,0.39233 -0.0033,0.0126 0.0028,0.38103 0,0.39234 -0.0028,0.0126 -0.128671,0.38103 -0.130848,0.39233 -0.0022,0.0126 -0.129215,0.5118 -0.130848,0.5234 -0.0016,0.0126 0.001,0.38102 0,0.39233 -10e-4,0.0126 4.6e-4,0.38061 0,0.39234 -4.61e-4,0.0126 -1.26e-4,0.38061 0,0.39233 l 0,33.49712 c -1.26e-4,0.0126 -4.61e-4,0.38061 0,0.39233 4.6e-4,0.0126 -10e-4,0.38103 0,0.39234 0.001,0.0126 -0.0016,0.38103 0,0.39233 0.0016,0.0126 0.128671,0.51188 0.130848,0.5234 0.0022,0.0126 0.128085,0.38103 0.130848,0.39233 0.0028,0.0126 -0.0033,0.38145 0,0.39234 0.0033,0.0126 0.126954,0.38145 0.130848,0.39233 0.0039,0.0126 0.257258,0.38187 0.261696,0.39234 0.0046,0.0126 0.125908,0.38186 0.130849,0.39233 0.005,0.008 0.125363,0.38229 0.130848,0.39234 0.0054,0.008 0.255708,0.38228 0.261696,0.39233 0.0059,0.008 0.255206,0.38271 0.261696,0.39234 0.0063,0.008 0.254746,0.25206 0.261696,0.26169 0.0071,0.008 0.254285,0.38355 0.261697,0.39234 0.0075,0.008 0.253824,0.38396 0.261696,0.39233 0.008,0.008 0.253406,0.25333 0.261696,0.2617 0.0084,0.008 0.252987,0.25374 0.261696,0.2617 0.0088,0.008 0.383459,0.25415 0.392545,0.26169 0.0092,0.008 0.383123,0.25458 0.392544,0.2617 0.0096,0.008 0.25194,0.25499 0.261696,0.26169 0.0096,0.004 0.382454,0.25584 0.392545,0.2617 0.01005,0.004 0.382202,0.25625 0.392544,0.2617 0.01047,0.004 0.381909,0.12603 0.392544,0.13064 0.01047,0.004 0.3817,0.12645 0.392545,0.13063 0.01089,0.004 0.38149,0.25793 0.392544,0.2617 0.01089,0.004 0.381323,0.12771 0.392545,0.13064 0.01131,0.003 0.381155,-0.003 0.392544,0 0.01131,0.003 0.38103,0.12854 0.392544,0.13064 0.01131,0.002 0.511782,0.12938 0.523393,0.13064 0.01172,0.002 0.380862,-10e-4 0.392544,0 0.01172,0.001 0.380821,-4.6e-4 0.392545,0 0.01172,4.6e-4 0.38082,1.2e-4 0.392544,0 l 24.861143,0 0,24.86114 c -1.26e-4,0.0126 -4.61e-4,0.38061 0,0.39233 4.61e-4,0.0126 -0.001,0.38103 0,0.39234 10e-4,0.0126 -0.0016,0.38103 0,0.39233 0.0016,0.0126 0.128671,0.51188 0.130848,0.5234 0.0022,0.0126 0.128085,0.38103 0.130848,0.39233 0.0028,0.0126 -0.0033,0.38145 0,0.39234 0.0033,0.0126 0.126954,0.38145 0.130848,0.39233 0.0039,0.0126 0.257258,0.38187 0.261697,0.39234 0.0046,0.0126 0.125907,0.38186 0.130848,0.39233 0.005,0.008 0.125363,0.38229 0.130848,0.39234 0.0054,0.008 0.255709,0.38228 0.261696,0.39233 0.0059,0.008 0.255206,0.38271 0.261696,0.39234 0.0063,0.008 0.254746,0.25206 0.261697,0.26169 0.0071,0.008 0.254285,0.38355 0.261696,0.39234 0.0075,0.008 0.253824,0.38396 0.261696,0.39233 0.008,0.008 0.253406,0.25333 0.261696,0.2617 0.0084,0.008 0.252987,0.25374 0.261697,0.2617 0.0088,0.008 0.383458,0.25416 0.392544,0.26169 0.0092,0.008 0.383123,0.25458 0.392544,0.2617 0.0096,0.008 0.251941,0.255 0.261697,0.2617 0.0096,0.004 0.382453,0.25583 0.392544,0.26169 0.01005,0.004 0.382202,0.25625 0.392544,0.2617 0.01047,0.004 0.381909,0.12603 0.392545,0.13064 0.01047,0.004 0.381699,0.12645 0.392544,0.13064 0.01089,0.004 0.38149,0.25792 0.392544,0.26169 0.01089,0.004 0.381323,0.12771 0.392545,0.13064 0.01131,0.003 0.381155,-0.003 0.392544,0 0.01131,0.003 0.38103,0.12855 0.392544,0.13064 0.01131,0.002 0.511782,0.12938 0.523393,0.13064 0.01172,0.002 0.380862,-0.001 0.392544,0 0.01172,0.001 0.380821,-4.6e-4 0.392545,0 0.01172,4.6e-4 0.38082,1.2e-4 0.392544,0 l 33.497119,0 c 0.01172,1.2e-4 0.380821,4.6e-4 0.392545,0 0.01172,-4.6e-4 0.380862,0.001 0.392544,0 0.01172,-0.001 0.380946,0.002 0.392544,0 0.01172,-0.002 0.511878,-0.12855 0.523393,-0.13064 0.01131,-0.002 0.381155,-0.12813 0.392544,-0.13064 0.01131,-0.003 0.381323,0.003 0.392545,0 0.01131,-0.003 0.38149,-0.12687 0.392544,-0.13064 0.01089,-0.004 0.3817,-0.25709 0.392544,-0.26169 0.01089,-0.004 0.381909,-0.12604 0.392545,-0.13064 0.01047,-0.004 0.382202,-0.1252 0.392544,-0.13064 0.01047,-0.004 0.382455,-0.25584 0.392545,-0.2617 0.0101,-0.004 0.38279,-0.255 0.39254,-0.26169 0.01,-0.004 0.25228,-0.25458 0.2617,-0.2617 0.01,-0.008 0.38346,-0.25416 0.39254,-0.2617 0.009,-0.008 0.38384,-0.25374 0.39255,-0.26169 0.009,-0.008 0.2534,-0.25333 0.26169,-0.2617 0.008,-0.008 0.25383,-0.2529 0.2617,-0.2617 0.008,-0.008 0.25429,-0.38354 0.2617,-0.39233 0.008,-0.008 0.25474,-0.38312 0.26169,-0.39234 0.007,-0.008 0.25521,-0.25206 0.2617,-0.26169 0.006,-0.008 0.25571,-0.38229 0.2617,-0.39234 0.006,-0.008 0.25621,-0.38228 0.26169,-0.39233 0.005,-0.008 0.12591,-0.38187 0.13085,-0.39234 0.005,-0.008 0.12641,-0.38186 0.13085,-0.39233 0.005,-0.0126 0.2578,-0.38145 0.26169,-0.39234 0.004,-0.0126 0.12755,-0.38145 0.13085,-0.39233 0.003,-0.0126 -0.003,-0.38103 0,-0.39234 0.003,-0.0126 0.12867,-0.38103 0.13085,-0.39233 0.002,-0.0126 0.12922,-0.5118 0.13085,-0.5234 0.002,-0.0126 -10e-4,-0.38102 0,-0.39233 0.001,-0.0126 -4.6e-4,-0.38061 0,-0.39234 4.6e-4,-0.0126 1.2e-4,-0.38061 0,-0.39233 l 0,-24.86114 24.86114,0 c 0.0163,2.1e-4 0.50723,8.8e-4 0.52339,0 0.0163,-8.8e-4 0.63818,0.002 0.65425,0 0.0159,-0.002 0.5075,-0.12771 0.52339,-0.13064 0.0159,-0.003 0.50775,-0.12645 0.52339,-0.13064 0.0155,-0.004 0.63892,-0.12561 0.65424,-0.13064 0.0155,-0.004 0.50847,-0.25542 0.52339,-0.2617 0.0151,-0.004 0.50894,-0.25457 0.5234,-0.26169 0.007,-0.004 0.13549,-0.0616 0.26169,-0.13064 0.1262,0.0691 0.25445,0.12729 0.2617,0.13064 0.0146,0.008 0.50847,0.25541 0.52339,0.26169 0.0151,0.004 0.50808,0.25668 0.52339,0.2617 0.0155,0.004 0.63861,0.12645 0.65424,0.13064 0.0155,0.004 0.50751,0.12771 0.5234,0.13064 0.0159,0.003 0.50733,0.12896 0.52339,0.13064 0.0159,0.002 0.63808,-8.8e-4 0.65424,0 0.0163,8.8e-4 0.50721,2.1e-4 0.52339,0 l 60.71353,0 c 12.79133,0 23.29097,-10.49963 23.29097,-23.29097 l 0,-154.924175 c 0,-12.791335 -10.49964,-23.290966 -23.29097,-23.290966 l -121.427056,0 z m 19.103825,42.394792 83.219401,0 0,116.716522 -41.348,0 c -9.2e-4,-0.062 1.5e-4,-0.12687 0,-0.13064 -4.6e-4,-0.0126 0.001,-0.38103 0,-0.39233 -0.001,-0.0126 0.002,-0.38103 0,-0.39234 -0.002,-0.0126 -0.12867,-0.51187 -0.13085,-0.52339 -0.002,-0.0126 -0.12808,-0.38103 -0.13085,-0.39233 -0.003,-0.0126 0.003,-0.38145 0,-0.39234 -0.003,-0.0126 -0.12695,-0.38145 -0.13085,-0.39233 -0.004,-0.0126 -0.25725,-0.38187 -0.26169,-0.39234 -0.005,-0.0126 -0.12591,-0.38187 -0.13085,-0.39233 -0.005,-0.008 -0.12536,-0.38229 -0.13085,-0.39234 -0.005,-0.008 -0.25571,-0.38228 -0.26169,-0.39233 -0.006,-0.008 -0.25521,-0.38271 -0.2617,-0.39234 -0.006,-0.008 -0.25475,-0.25206 -0.2617,-0.2617 -0.007,-0.008 -0.25428,-0.38354 -0.26169,-0.39233 -0.008,-0.008 -0.25383,-0.38396 -0.2617,-0.39234 -0.008,-0.008 -0.25341,-0.25332 -0.2617,-0.26169 -0.008,-0.008 -0.25298,-0.25374 -0.26169,-0.2617 -0.009,-0.008 -0.38346,-0.25416 -0.39255,-0.26169 -0.009,-0.008 -0.38312,-0.25458 -0.39254,-0.2617 -0.01,-0.008 -0.25194,-0.255 -0.2617,-0.2617 -0.01,-0.004 -0.38245,-0.25583 -0.39254,-0.26169 -0.0101,-0.004 -0.3822,-0.25626 -0.39255,-0.2617 -0.0105,-0.004 -0.3819,-0.12603 -0.39254,-0.13064 -0.0105,-0.004 -0.3817,-0.12645 -0.39254,-0.13064 -0.0109,-0.004 -0.38149,-0.25792 -0.39255,-0.26169 -0.0109,-0.004 -0.38132,-0.12771 -0.39254,-0.13064 -0.0113,-0.003 -0.38116,0.003 -0.39255,0 -0.0113,-0.003 -0.38103,-0.12855 -0.39254,-0.13064 -0.0113,-0.002 -0.51178,-0.12938 -0.52339,-0.13064 -0.0117,-0.002 -0.38087,0.001 -0.39255,0 -0.0117,-0.001 -0.38082,4.6e-4 -0.39254,0 -0.0117,-4.6e-4 -0.38082,-1.2e-4 -0.39255,0 l -24.86114,0 0,-24.86114 c 1.2e-4,-0.0126 4.6e-4,-0.38061 0,-0.39234 -4.6e-4,-0.0126 0.001,-0.38103 0,-0.39233 -10e-4,-0.0126 0.002,-0.38103 0,-0.39234 -0.002,-0.0126 -0.12867,-0.51188 -0.13085,-0.52339 -0.002,-0.0126 -0.12808,-0.38103 -0.13085,-0.39233 -0.003,-0.0126 0.003,-0.38145 0,-0.39234 -0.003,-0.0126 -0.12695,-0.38145 -0.13085,-0.39233 -0.004,-0.0126 -0.25725,-0.38187 -0.26169,-0.39234 -0.005,-0.0126 -0.12591,-0.38187 -0.13085,-0.39233 -0.005,-0.008 -0.12536,-0.38229 -0.13085,-0.39234 -0.005,-0.008 -0.25571,-0.38229 -0.26169,-0.39233 -0.006,-0.008 -0.25521,-0.38271 -0.2617,-0.39234 -0.006,-0.008 -0.25475,-0.25207 -0.2617,-0.2617 -0.007,-0.008 -0.25428,-0.38354 -0.26169,-0.39233 -0.008,-0.008 -0.25383,-0.38396 -0.2617,-0.39234 -0.008,-0.008 -0.2534,-0.25332 -0.2617,-0.26169 -0.008,-0.008 -0.25298,-0.25374 -0.26169,-0.2617 -0.009,-0.008 -0.38346,-0.25416 -0.39255,-0.26169 -0.009,-0.008 -0.38312,-0.25458 -0.39254,-0.2617 -0.01,-0.008 -0.25194,-0.255 -0.2617,-0.2617 -0.01,-0.004 -0.38245,-0.25583 -0.39254,-0.26169 -0.01,-0.004 -0.382203,-0.25626 -0.392545,-0.2617 -0.01047,-0.004 -0.381909,-0.12603 -0.392544,-0.13064 -0.01047,-0.004 -0.3817,-0.12645 -0.392545,-0.13064 -0.01089,-0.004 -0.38149,-0.25793 -0.392544,-0.26169 -0.01089,-0.004 -0.381323,-0.12771 -0.392544,-0.13064 -0.01131,-0.003 -0.381156,0.003 -0.392545,0 -0.0113,-0.003 -0.38103,-0.12855 -0.392544,-0.13064 -0.0113,-0.002 -0.511782,-0.12938 -0.523393,-0.13064 -0.01172,-0.002 -0.380862,0.001 -0.392544,0 -0.01172,-0.001 -0.38082,4.6e-4 -0.392544,0 -0.0039,-1.7e-4 -0.06867,9.2e-4 -0.130849,0 l 0,-74.845125 z"
       id="path3914"
       style="opacity:0.1;color:#000000;fill:#000000;fill-opacity:1;fill-rule:nonzero;stroke:none;stroke-width:2;marker:none;visibility:visible;display:inline;overflow:visible;enable-background:accumulate"
       inkscape:connector-curvature="0" />
    <path
       d="m 68.725994,23.99291 c -10.620459,0 -19.365522,8.745051 -19.365522,19.365522 l 0,94.210648 a 4.6615106,4.6615106 0 0 0 2.616962,4.18714 4.6615106,4.6615106 0 0 0 -2.616962,4.18714 l 0,28.78659 -28.786587,0 a 4.6615106,4.6615106 0 0 0 -4.710532,4.71053 l 0,33.49712 a 4.6615106,4.6615106 0 0 0 4.710532,4.71053 l 28.786587,0 0,28.78659 a 4.6615106,4.6615106 0 0 0 4.710532,4.71053 l 33.497119,0 a 4.6615106,4.6615106 0 0 0 4.710537,-4.71053 l 0,-28.78659 28.78658,0 a 4.6615106,4.6615106 0 0 0 4.18714,-2.61696 4.6615106,4.6615106 0 0 0 4.18714,2.61696 l 60.71353,0 c 10.62046,0 19.36552,-8.74505 19.36552,-19.36552 l 0,-154.924178 c 0,-10.620471 -8.74506,-19.365522 -19.36552,-19.365522 l -121.427056,0 z m 18.842129,34.543904 83.742797,0 c 2.13776,0 3.66375,1.526003 3.66375,3.663747 l 0,117.239919 c 0,2.13774 -1.52599,3.66375 -3.66375,3.66375 l -41.8714,0 a 4.6615106,4.6615106 0 0 0 -3.66375,1.83187 l 0,-5.49562 a 4.6615106,4.6615106 0 0 0 -4.71053,-4.71053 l -28.78658,0 0,-28.78659 a 4.6615106,4.6615106 0 0 0 -4.710537,-4.71053 l -5.495621,0 a 4.6615106,4.6615106 0 0 0 1.831874,-3.66375 l 0,-75.368519 c 0,-2.137744 1.52599,-3.663747 3.663747,-3.663747 z"
       id="path3903"
       style="opacity:0.15;color:#000000;fill:#000000;fill-opacity:1;fill-rule:nonzero;stroke:none;stroke-width:2;marker:none;visibility:visible;display:inline;overflow:visible;enable-background:accumulate"
       inkscape:connector-curvature="0" />
    <path
       d="m 68.725994,28.703442 c -8.118865,0 -14.65499,6.536126 -14.65499,14.65499 l 0,94.210648 25.122839,0 0,-75.368519 c 0,-4.639351 3.734929,-8.374279 8.37428,-8.374279 l 83.742797,0 c 4.63935,0 8.37428,3.734928 8.37428,8.374279 l 0,117.239919 c 0,4.63935 -3.73493,8.37428 -8.37428,8.37428 l -41.8714,0 0,25.12284 60.71353,0 c 8.11886,0 14.65499,-6.53613 14.65499,-14.65499 l 0,-154.924178 c 0,-8.118864 -6.53613,-14.65499 -14.65499,-14.65499 l -121.427056,0 z m -14.65499,117.239918 0,33.49712 -33.497119,0 0,33.49712 33.497119,0 0,33.49712 33.497119,0 0,-33.49712 33.497117,0 0,-33.49712 -33.497117,0 0,-33.49712 -33.497119,0 z"
       inkscape:connector-curvature="0"
       id="path3908"
       style="opacity:0.3;color:#000000;fill:#000000;fill-opacity:1;fill-rule:nonzero;stroke:none;stroke-width:2;marker:none;visibility:visible;display:inline;overflow:visible;enable-background:accumulate" />
    <path
       d="m 68.725994,24.516302 c -4.059433,0 -7.72318,1.634031 -10.372069,4.282921 -2.64889,2.648889 -4.282921,6.312637 -4.282921,10.372069 l 0,47.105324 0,47.105324 12.56142,0 12.561419,0 0,-37.684259 0,-37.684259 c 0,-2.319675 0.933732,-4.413245 2.447383,-5.926897 1.513651,-1.513651 3.607221,-2.447383 5.926897,-2.447383 l 41.871397,0 41.8714,0 c 2.31968,0 4.41325,0.933732 5.9269,2.447383 1.51365,1.513652 2.44738,3.607222 2.44738,5.926897 l 0,58.619958 0,58.61996 c 0,2.31968 -0.93373,4.41325 -2.44738,5.9269 -1.51365,1.51365 -3.60722,2.44738 -5.9269,2.44738 l -20.9357,0 -20.9357,0 0,12.56142 0,12.56142 30.35676,0 30.35677,0 c 4.05943,0 7.72318,-1.63403 10.37207,-4.28292 2.64889,-2.64889 4.28292,-6.31264 4.28292,-10.37207 l 0,-77.46209 0,-77.462088 c 0,-4.059432 -1.63403,-7.723179 -4.28292,-10.372069 -2.64889,-2.648889 -6.31264,-4.282921 -10.37207,-4.282921 l -60.71353,0 z m -14.65499,117.239918 0,16.74856 0,16.74856 -16.748559,0 -16.74856,0 0,16.74856 0,16.74856 16.74856,0 16.748559,0 0,16.74856 0,16.74856 16.748559,0 16.74856,0 0,-16.74856 0,-16.74856 16.748557,0 16.74856,0 0,-16.74856 0,-16.74856 -16.74856,0 -16.748557,0 0,-16.74856 0,-16.74856 -16.74856,0 z"
       inkscape:connector-curvature="0"
       id="rect3083"
       style="color:#000000;fill:url(#linearGradient3736);fill-opacity:1;fill-rule:nonzero;stroke:none;stroke-width:2;marker:none;visibility:visible;display:inline;overflow:visible;enable-background:accumulate"
       sodipodi:nodetypes="ssscccccssscssscssscccccssscssscsccccccccccccccccccccccccc" />
    <path
       d="m 68.725994,24.516302 c -8.118865,0 -14.65499,6.536126 -14.65499,14.65499 l 0,4.18714 c 0,-8.118864 6.536125,-14.65499 14.65499,-14.65499 l 121.427056,0 c 8.11886,0 14.65499,6.536126 14.65499,14.65499 l 0,-4.18714 c 0,-8.118864 -6.53613,-14.65499 -14.65499,-14.65499 l -121.427056,0 z m -14.65499,117.239918 0,4.18714 33.497119,0 0,-4.18714 -33.497119,0 z m -33.497119,33.49712 0,4.18714 33.497119,0 0,-4.18714 -33.497119,0 z m 66.994238,0 0,4.18714 33.497117,0 0,-4.18714 -33.497117,0 z m 92.117077,0 c 0,4.63935 -3.73493,8.37428 -8.37428,8.37428 l -41.8714,0 0,4.18714 41.8714,0 c 4.63935,0 8.37428,-3.73493 8.37428,-8.37428 l 0,-4.18714 z"
       inkscape:connector-curvature="0"
       id="path3881"
       style="opacity:0.75;color:#000000;fill:#ffffff;fill-opacity:1;fill-rule:nonzero;stroke:none;stroke-width:2;marker:none;visibility:visible;display:inline;overflow:visible;enable-background:accumulate" />
    <path
       d="m 87.568123,45.452002 c -4.639351,0 -8.37428,3.734929 -8.37428,8.37428 l 0,4.18714 c 0,-4.639351 3.734929,-8.37428 8.37428,-8.37428 l 83.742797,0 c 4.63935,0 8.37428,3.734929 8.37428,8.37428 l 0,-4.18714 c 0,-4.639351 -3.73493,-8.37428 -8.37428,-8.37428 l -83.742797,0 z m -33.497119,83.742798 0,4.18714 25.122839,0 0,-4.18714 -25.122839,0 z m 150.737036,60.71353 c 0,8.11886 -6.53613,14.65499 -14.65499,14.65499 l -60.71353,0 0,4.18714 60.71353,0 c 8.11886,0 14.65499,-6.53613 14.65499,-14.65499 l 0,-4.18714 z m -184.234155,14.65499 0,4.18714 33.497119,0 0,-4.18714 -33.497119,0 z m 66.994238,0 0,4.18714 33.497117,0 0,-4.18714 -33.497117,0 z m -33.497119,33.49712 0,4.18714 33.497119,0 0,-4.18714 -33.497119,0 z"
       inkscape:connector-curvature="0"
       id="path3890"
       style="opacity:0.15;color:#000000;fill:#000000;fill-opacity:1;fill-rule:nonzero;stroke:none;stroke-width:2;marker:none;visibility:visible;display:inline;overflow:visible;enable-background:accumulate" />
  </g>
</svg>
