<?xml version="1.0" encoding="UTF-8" standalone="no"?>
<!-- Created with Inkscape (http://www.inkscape.org/) -->

<svg
   xmlns:dc="http://purl.org/dc/elements/1.1/"
   xmlns:cc="http://creativecommons.org/ns#"
   xmlns:rdf="http://www.w3.org/1999/02/22-rdf-syntax-ns#"
   xmlns:svg="http://www.w3.org/2000/svg"
   xmlns="http://www.w3.org/2000/svg"
   xmlns:xlink="http://www.w3.org/1999/xlink"
   xmlns:sodipodi="http://sodipodi.sourceforge.net/DTD/sodipodi-0.dtd"
   xmlns:inkscape="http://www.inkscape.org/namespaces/inkscape"
   version="1.0"
   width="256"
   height="256"
   id="svg2408"
   inkscape:version="0.48.3.1 r9886"
   sodipodi:docname="document-revert.svg">
  <sodipodi:namedview
     pagecolor="#ffffff"
     bordercolor="#666666"
     borderopacity="1"
     objecttolerance="10"
     gridtolerance="10"
     guidetolerance="10"
     inkscape:pageopacity="0"
     inkscape:pageshadow="2"
     inkscape:window-width="1024"
     inkscape:window-height="572"
     id="namedview93"
     showgrid="false"
     inkscape:zoom="1.6367188"
     inkscape:cx="117.30788"
     inkscape:cy="128"
     inkscape:window-x="0"
     inkscape:window-y="28"
     inkscape:window-maximized="1"
     inkscape:current-layer="svg2408" />
  <defs
     id="defs2410">
    <linearGradient
       id="linearGradient3637">
      <stop
         id="stop3639"
         style="stop-color:#5a5a5a;stop-opacity:1;"
         offset="0" />
      <stop
         id="stop3641"
         style="stop-color:#000000;stop-opacity:1;"
         offset="1" />
    </linearGradient>
    <linearGradient
       x1="45.447727"
       y1="92.539597"
       x2="45.447727"
       y2="7.0165396"
       id="ButtonShadow"
       gradientUnits="userSpaceOnUse"
       gradientTransform="scale(1.0058652,0.994169)">
      <stop
         id="stop3750"
         style="stop-color:#000000;stop-opacity:1"
         offset="0" />
      <stop
         id="stop3752"
         style="stop-color:#000000;stop-opacity:0.58823532"
         offset="1" />
    </linearGradient>
    <linearGradient
       id="linearGradient3737">
      <stop
         id="stop3739"
         style="stop-color:#ffffff;stop-opacity:1"
         offset="0" />
      <stop
         id="stop3741"
         style="stop-color:#ffffff;stop-opacity:0"
         offset="1" />
    </linearGradient>
    <linearGradient
       id="linearGradient3700">
      <stop
         id="stop3702"
         style="stop-color:#2276c5;stop-opacity:1"
         offset="0" />
      <stop
         id="stop3704"
         style="stop-color:#68baf4;stop-opacity:1"
         offset="1" />
    </linearGradient>
    <filter
       color-interpolation-filters="sRGB"
       id="filter3174">
      <feGaussianBlur
         id="feGaussianBlur3176"
         stdDeviation="1.71" />
    </filter>
    <linearGradient
       x1="36.357143"
       y1="6"
       x2="36.357143"
       y2="63.893143"
       id="linearGradient3188"
       xlink:href="#linearGradient3737"
       gradientUnits="userSpaceOnUse" />
    <filter
       x="-0.192"
       y="-0.192"
       width="1.3839999"
       height="1.3839999"
       color-interpolation-filters="sRGB"
       id="filter3794">
      <feGaussianBlur
         id="feGaussianBlur3796"
         stdDeviation="5.28" />
    </filter>
    <linearGradient
       x1="48"
       y1="20.220806"
       x2="48"
       y2="138.66119"
       id="linearGradient3613"
       xlink:href="#linearGradient3737"
       gradientUnits="userSpaceOnUse" />
    <radialGradient
       cx="48"
       cy="90.171875"
       r="42"
       fx="48"
       fy="90.171875"
       id="radialGradient3619"
       xlink:href="#linearGradient3737"
       gradientUnits="userSpaceOnUse"
       gradientTransform="matrix(1.1573129,0,0,0.99590774,-7.5510206,0.19713193)" />
    <clipPath
       id="clipPath3613">
      <rect
         width="84"
         height="84"
         rx="6"
         ry="6"
         x="6"
         y="6"
         id="rect3615"
         style="fill:#ffffff;fill-opacity:1;fill-rule:nonzero;stroke:none" />
    </clipPath>
    <linearGradient
       x1="48"
       y1="90"
       x2="48"
       y2="5.9877172"
       id="linearGradient2843"
       xlink:href="#linearGradient3700"
       gradientUnits="userSpaceOnUse"
       gradientTransform="translate(0,100)" />
    <clipPath
       id="clipPath3625">
      <path
         d="M 0,0 0,96 96,96 96,0 0,0 z m 12,6 72,0 c 3.324,0 6,2.676 6,6 l 0,72 c 0,3.324 -2.676,6 -6,6 L 12,90 C 8.676,90 6,87.324 6,84 L 6,12 C 6,8.676 8.676,6 12,6 z"
         inkscape:connector-curvature="0"
         id="path3627"
         style="fill:#ffffff;fill-opacity:1;stroke:none" />
    </clipPath>
    <linearGradient
       x1="44.512066"
       y1="6"
       x2="44.512066"
       y2="90.015434"
       id="linearGradient3643"
       xlink:href="#linearGradient3637"
       gradientUnits="userSpaceOnUse" />
    <clipPath
       id="clipPath3649">
      <rect
         width="76"
         height="76"
         rx="4"
         ry="4"
         x="10"
         y="10"
         id="rect3651"
         style="fill:#ffffff;fill-opacity:1;fill-rule:nonzero;stroke:none" />
    </clipPath>
    <filter
       color-interpolation-filters="sRGB"
       id="filter3657">
      <feGaussianBlur
         id="feGaussianBlur3659"
         stdDeviation="1.14" />
    </filter>
    <linearGradient
       inkscape:collect="always"
       xlink:href="#linearGradient3637"
       id="linearGradient3829"
       gradientUnits="userSpaceOnUse"
       gradientTransform="matrix(4.4819333,0,0,4.4819333,-104.71866,-82.680478)"
       x1="45"
       y1="20"
       x2="45"
       y2="68" />
  </defs>
  <metadata
     id="metadata2413">
    <rdf:RDF>
      <cc:Work
         rdf:about="">
        <dc:format>image/svg+xml</dc:format>
        <dc:type
           rdf:resource="http://purl.org/dc/dcmitype/StillImage" />
        <dc:title></dc:title>
      </cc:Work>
    </rdf:RDF>
  </metadata>
  <g
     id="layer2"
     style="display:none"
     transform="translate(0,160)">
    <rect
       width="86"
       height="85"
       rx="6"
       ry="6"
       x="5"
       y="7"
       clip-path="url(#clipPath3625)"
       id="rect3745"
       style="opacity:0.9;fill:url(#ButtonShadow);fill-opacity:1;fill-rule:nonzero;stroke:none;filter:url(#filter3174)" />
  </g>
  <g
     id="layer1"
     style="display:none"
     transform="translate(0,160)">
    <rect
       width="84"
       height="84"
       rx="6"
       ry="6"
       x="6"
       y="6"
       id="rect2419"
       style="opacity:0.8;fill:#000000;fill-opacity:1;fill-rule:nonzero;stroke:none" />
    <path
       d="m 14,10 c -2.216,0 -4,1.784 -4,4 l 0,68 c 0,2.216 1.784,4 4,4 l 68,0 c 2.216,0 4,-1.784 4,-4 l 0,-68 c 0,-2.216 -1.784,-4 -4,-4 l -68,0 z m 0,3.0625 68,0 c 0.578769,0 0.9375,0.358731 0.9375,0.9375 l 0,68 c 0,0.578769 -0.358731,0.9375 -0.9375,0.9375 l -68,0 c -0.578769,0 -0.9375,-0.358731 -0.9375,-0.9375 l 0,-68 c 0,-0.578769 0.358731,-0.9375 0.9375,-0.9375 z"
       inkscape:connector-curvature="0"
       id="rect3726"
       style="opacity:0.07999998;fill:#000000;fill-opacity:1;fill-rule:nonzero;stroke:none" />
    <path
       d="M 12,6 C 8.676,6 6,8.676 6,12 l 0,72 c 0,3.324 2.676,6 6,6 l 72,0 c 3.324,0 6,-2.676 6,-6 L 90,12 C 90,8.676 87.324,6 84,6 L 12,6 z m 2,4 68,0 c 2.216,0 4,1.784 4,4 l 0,68 c 0,2.216 -1.784,4 -4,4 l -68,0 c -2.216,0 -4,-1.784 -4,-4 l 0,-68 c 0,-2.216 1.784,-4 4,-4 z"
       inkscape:connector-curvature="0"
       id="rect3629"
       style="fill:url(#linearGradient3643);fill-opacity:1;fill-rule:nonzero;stroke:none" />
    <path
       d="M 12,6 C 8.676,6 6,8.676 6,12 l 0,2 0,68 0,2 c 0,0.334721 0.04135,0.6507 0.09375,0.96875 0.0487,0.295596 0.09704,0.596915 0.1875,0.875 0.00988,0.03038 0.020892,0.0636 0.03125,0.09375 0.098865,0.287771 0.2348802,0.547452 0.375,0.8125 0.1445918,0.273507 0.3156161,0.535615 0.5,0.78125 0.1843839,0.245635 0.3737765,0.473472 0.59375,0.6875 0.439947,0.428056 0.94291,0.814526 1.5,1.09375 0.278545,0.139612 0.5734731,0.246947 0.875,0.34375 -0.2562018,-0.100222 -0.4867109,-0.236272 -0.71875,-0.375 -0.00741,-0.0044 -0.023866,0.0045 -0.03125,0 -0.031933,-0.0193 -0.062293,-0.04251 -0.09375,-0.0625 -0.120395,-0.0767 -0.2310226,-0.163513 -0.34375,-0.25 -0.1061728,-0.0808 -0.2132809,-0.161112 -0.3125,-0.25 C 8.4783201,88.557317 8.3087904,88.373362 8.15625,88.1875 8.0486711,88.057245 7.9378561,87.922215 7.84375,87.78125 7.818661,87.74287 7.805304,87.69538 7.78125,87.65625 7.716487,87.553218 7.6510225,87.451733 7.59375,87.34375 7.4927417,87.149044 7.3880752,86.928049 7.3125,86.71875 7.30454,86.69694 7.288911,86.6782 7.28125,86.65625 7.2494249,86.5643 7.2454455,86.469419 7.21875,86.375 7.1884177,86.268382 7.1483606,86.171969 7.125,86.0625 7.0521214,85.720988 7,85.364295 7,85 L 7,83 7,15 7,13 C 7,10.218152 9.2181517,8 12,8 l 2,0 68,0 2,0 c 2.781848,0 5,2.218152 5,5 l 0,2 0,68 0,2 c 0,0.364295 -0.05212,0.720988 -0.125,1.0625 -0.04415,0.206893 -0.08838,0.397658 -0.15625,0.59375 -0.0077,0.02195 -0.0233,0.04069 -0.03125,0.0625 -0.06274,0.173739 -0.138383,0.367449 -0.21875,0.53125 -0.04158,0.0828 -0.07904,0.169954 -0.125,0.25 -0.0546,0.09721 -0.126774,0.18835 -0.1875,0.28125 -0.09411,0.140965 -0.204921,0.275995 -0.3125,0.40625 -0.143174,0.17445 -0.303141,0.346998 -0.46875,0.5 -0.01117,0.0102 -0.01998,0.02115 -0.03125,0.03125 -0.138386,0.125556 -0.285091,0.234436 -0.4375,0.34375 -0.102571,0.07315 -0.204318,0.153364 -0.3125,0.21875 -0.0074,0.0045 -0.02384,-0.0044 -0.03125,0 -0.232039,0.138728 -0.462548,0.274778 -0.71875,0.375 0.301527,-0.0968 0.596455,-0.204138 0.875,-0.34375 0.55709,-0.279224 1.060053,-0.665694 1.5,-1.09375 0.219973,-0.214028 0.409366,-0.441865 0.59375,-0.6875 0.184384,-0.245635 0.355408,-0.507743 0.5,-0.78125 0.14012,-0.265048 0.276135,-0.524729 0.375,-0.8125 0.01041,-0.03078 0.02133,-0.06274 0.03125,-0.09375 0.09046,-0.278085 0.1388,-0.579404 0.1875,-0.875 C 89.95865,84.6507 90,84.334721 90,84 l 0,-2 0,-68 0,-2 C 90,8.676 87.324,6 84,6 L 12,6 z"
       inkscape:connector-curvature="0"
       id="rect3728"
       style="fill:url(#linearGradient3188);fill-opacity:1;fill-rule:nonzero;stroke:none" />
    <path
       d="M 12,90 C 8.676,90 6,87.324 6,84 L 6,82 6,14 6,12 c 0,-0.334721 0.04135,-0.6507 0.09375,-0.96875 0.0487,-0.295596 0.09704,-0.596915 0.1875,-0.875 C 6.29113,10.12587 6.302142,10.09265 6.3125,10.0625 6.411365,9.774729 6.5473802,9.515048 6.6875,9.25 6.8320918,8.976493 7.0031161,8.714385 7.1875,8.46875 7.3718839,8.223115 7.5612765,7.995278 7.78125,7.78125 8.221197,7.353194 8.72416,6.966724 9.28125,6.6875 9.559795,6.547888 9.8547231,6.440553 10.15625,6.34375 9.9000482,6.443972 9.6695391,6.580022 9.4375,6.71875 c -0.00741,0.0044 -0.023866,-0.0045 -0.03125,0 -0.031933,0.0193 -0.062293,0.04251 -0.09375,0.0625 -0.120395,0.0767 -0.2310226,0.163513 -0.34375,0.25 -0.1061728,0.0808 -0.2132809,0.161112 -0.3125,0.25 C 8.4783201,7.442683 8.3087904,7.626638 8.15625,7.8125 8.0486711,7.942755 7.9378561,8.077785 7.84375,8.21875 7.818661,8.25713 7.805304,8.30462 7.78125,8.34375 7.716487,8.446782 7.6510225,8.548267 7.59375,8.65625 7.4927417,8.850956 7.3880752,9.071951 7.3125,9.28125 7.30454,9.30306 7.288911,9.3218 7.28125,9.34375 7.2494249,9.4357 7.2454455,9.530581 7.21875,9.625 7.1884177,9.731618 7.1483606,9.828031 7.125,9.9375 7.0521214,10.279012 7,10.635705 7,11 l 0,2 0,68 0,2 c 0,2.781848 2.2181517,5 5,5 l 2,0 68,0 2,0 c 2.781848,0 5,-2.218152 5,-5 l 0,-2 0,-68 0,-2 C 89,10.635705 88.94788,10.279012 88.875,9.9375 88.83085,9.730607 88.78662,9.539842 88.71875,9.34375 88.71105,9.3218 88.69545,9.30306 88.6875,9.28125 88.62476,9.107511 88.549117,8.913801 88.46875,8.75 88.42717,8.6672 88.38971,8.580046 88.34375,8.5 88.28915,8.40279 88.216976,8.31165 88.15625,8.21875 88.06214,8.077785 87.951329,7.942755 87.84375,7.8125 87.700576,7.63805 87.540609,7.465502 87.375,7.3125 87.36383,7.3023 87.35502,7.29135 87.34375,7.28125 87.205364,7.155694 87.058659,7.046814 86.90625,6.9375 86.803679,6.86435 86.701932,6.784136 86.59375,6.71875 c -0.0074,-0.0045 -0.02384,0.0044 -0.03125,0 -0.232039,-0.138728 -0.462548,-0.274778 -0.71875,-0.375 0.301527,0.0968 0.596455,0.204138 0.875,0.34375 0.55709,0.279224 1.060053,0.665694 1.5,1.09375 0.219973,0.214028 0.409366,0.441865 0.59375,0.6875 0.184384,0.245635 0.355408,0.507743 0.5,0.78125 0.14012,0.265048 0.276135,0.524729 0.375,0.8125 0.01041,0.03078 0.02133,0.06274 0.03125,0.09375 0.09046,0.278085 0.1388,0.579404 0.1875,0.875 C 89.95865,11.3493 90,11.665279 90,12 l 0,2 0,68 0,2 c 0,3.324 -2.676,6 -6,6 l -72,0 z"
       inkscape:connector-curvature="0"
       id="path3615"
       style="opacity:0.6;fill:url(#radialGradient3619);fill-opacity:1;fill-rule:nonzero;stroke:none" />
    <rect
       width="84"
       height="84"
       rx="6"
       ry="6"
       x="6"
       y="106"
       id="rect2841"
       style="fill:url(#linearGradient2843);fill-opacity:1;fill-rule:nonzero;stroke:none" />
    <rect
       width="76"
       height="76"
       rx="4"
       ry="4"
       x="10"
       y="110"
       id="rect3634"
       style="fill:#ff0000;fill-opacity:1;fill-rule:nonzero;stroke:none" />
    <path
       d="m 14,9 c -2.752703,0 -5,2.247297 -5,5 l 0,68 c 0,2.752703 2.247297,5 5,5 l 68,0 c 2.752703,0 5,-2.247297 5,-5 L 87,14 C 87,11.247297 84.752703,9 82,9 L 14,9 z m 0,2 68,0 c 1.679297,0 3,1.320703 3,3 l 0,68 c 0,1.679297 -1.320703,3 -3,3 l -68,0 c -1.679297,0 -3,-1.320703 -3,-3 l 0,-68 c 0,-1.679297 1.320703,-3 3,-3 z"
       inkscape:connector-curvature="0"
       transform="translate(-110,0)"
       clip-path="url(#clipPath3649)"
       id="rect3647"
       style="font-size:medium;font-style:normal;font-variant:normal;font-weight:normal;font-stretch:normal;text-indent:0;text-align:start;text-decoration:none;line-height:normal;letter-spacing:normal;word-spacing:normal;text-transform:none;direction:ltr;block-progression:tb;writing-mode:lr-tb;text-anchor:start;color:#000000;fill:#000000;fill-opacity:1;stroke:none;stroke-width:2;marker:none;visibility:visible;display:inline;overflow:visible;filter:url(#filter3657);enable-background:accumulate;font-family:Abandoned Bitplane;-inkscape-font-specification:Abandoned Bitplane" />
    <path
       d="m 14.089286,10 c -2.216,0 -4,1.784 -4,4 l 0,68 c 0,2.216 1.784,4 4,4 l 68,0 c 2.216,0 4,-1.784 4,-4 l 0,-68 c 0,-2.216 -1.784,-4 -4,-4 l -68,0 z m 0,2 68,0 c 1.140301,0 2,0.859699 2,2 l 0,68 c 0,1.140301 -0.859699,2 -2,2 l -68,0 c -1.140301,0 -2,-0.859699 -2,-2 l 0,-68 c 0,-1.140301 0.859699,-2 2,-2 z"
       inkscape:connector-curvature="0"
       id="path3709"
       style="opacity:0.16000001;fill:#000000;fill-opacity:1;fill-rule:nonzero;stroke:none" />
    <path
       d="m 14,10 c -2.216,0 -4,1.784 -4,4 l 0,68 c 0,2.216 1.784,4 4,4 l 68,0 c 2.216,0 4,-1.784 4,-4 l 0,-68 c 0,-2.216 -1.784,-4 -4,-4 l -68,0 z m 0,1 68,0 c 1.673848,0 3,1.326152 3,3 l 0,68 c 0,1.673848 -1.326152,3 -3,3 l -68,0 c -1.673848,0 -3,-1.326152 -3,-3 l 0,-68 c 0,-1.673848 1.326152,-3 3,-3 z"
       inkscape:connector-curvature="0"
       id="path3707"
       style="opacity:0.36000001;fill:#000000;fill-opacity:1;fill-rule:nonzero;stroke:none" />
  </g>
  <g
     id="layer5"
     style="display:none"
     transform="translate(0,160)">
    <rect
       width="66"
       height="66"
       rx="12"
       ry="12"
       x="15"
       y="15"
       clip-path="url(#clipPath3613)"
       id="rect3171"
       style="opacity:0.1;fill:url(#linearGradient3613);fill-opacity:1;fill-rule:nonzero;stroke:#ffffff;stroke-width:0.5;stroke-linecap:round;stroke-linejoin:miter;stroke-miterlimit:4;stroke-opacity:1;stroke-dasharray:none;stroke-dashoffset:0;filter:url(#filter3794)" />
  </g>
  <g
     id="g3821"
     transform="translate(1.2835231,-1.5958862)">
    <path
       d="m 216.2998,2.4762533 c -6.95751,0.8962074 -9.36819,8.3688007 -8.40362,14.4436127 -0.16874,27.167866 0.35197,54.3559 -0.28787,81.510007 2.10517,9.461447 -9.69712,12.854317 -6.71516,2.361487 -0.0861,-19.442045 0.17363,-38.892874 -0.13253,-58.329315 -1.10494,-14.702175 -15.90999,-24.744978 -29.99785,-22.898421 -42.64197,0.08785 -85.292918,-0.17614 -127.929244,0.132665 -14.702175,1.104931 -24.745,15.909967 -22.898444,29.997848 0.08803,54.593753 -0.176229,109.196563 0.132531,163.784723 1.104936,14.70217 15.909989,24.74498 29.997848,22.89842 42.641965,-0.0879 85.292919,0.17614 127.929239,-0.13267 14.70218,-1.10493 24.745,-15.90996 22.89845,-29.99784 0,-16.80147 0,-33.6029 0,-50.40436 26.04562,2.26024 51.45541,-18.53414 53.52384,-44.76224 0.58948,-32.917196 0.098,-65.868862 0.25937,-98.799688 0.0866,-7.1885724 -7.42391,-10.9052155 -13.78084,-9.8042287 -8.19857,0 -16.39714,0 -24.59572,0 z M 66.435158,66.063681 c 29.319315,0 58.638632,0 87.957942,0 0,14.332864 0,28.665683 0,42.998549 -4.62565,0.6173 -8.39804,0.38141 -6.7229,-5.30217 -0.33189,-7.974976 0.69156,-16.092071 -0.56024,-23.970458 -2.41268,-7.255399 -12.55716,-8.489454 -17.35822,-2.853064 -20.7994,16.291917 -41.80302,32.367352 -62.47622,48.792882 -1.901836,1.68897 -0.324536,-7.00688 -0.840362,-9.48382 0,-16.72729 0,-33.454627 0,-50.181919 z m 0,71.991049 c 7.500322,7.24532 16.503912,13.05982 24.585972,19.75148 13.75487,10.68004 27.45126,21.44117 41.24243,32.07088 -21.9428,0 -43.885605,0 -65.828402,0 0,-17.27414 0,-34.54822 0,-51.82236 z m 81.235042,17.78768 c 4.62566,-0.6173 8.39804,-0.38142 6.7229,5.30212 0,9.57754 0,19.15502 0,28.73256 -2.6581,-0.49902 -11.42509,1.03828 -9.94429,-0.84037 5.41617,-5.35927 2.46139,-13.73349 3.22139,-20.5385 0,-4.21862 0,-8.43719 0,-12.65581 z"
       inkscape:connector-curvature="0"
       id="path3929"
       style="opacity:0.1;color:#000000;fill:#000000;fill-opacity:1;fill-rule:nonzero;stroke:none;stroke-width:2;marker:none;visibility:visible;display:inline;overflow:visible;enable-background:accumulate" />
    <path
       d="m 216.71999,7.098247 a 5.2438072,5.2438072 0 0 0 -4.20182,5.182235 l 0,79.414255 c 0,10.838033 -1.3364,16.124383 -3.50151,18.347913 -1.79222,1.8406 -6.4958,2.97851 -13.86598,3.36145 a 5.2438072,5.2438072 0 0 0 1.12049,-3.36145 l 0,-64.988031 c 0,-11.50454 -9.36445,-20.869002 -20.86901,-20.869002 l -129.976064,0 c -11.504554,0 -20.869002,9.364462 -20.869002,20.869002 l 0,165.831531 c 0,11.50454 9.364448,20.869 20.869002,20.869 l 129.976064,0 c 11.50456,0 20.86901,-9.36446 20.86901,-20.869 l 0,-56.02417 a 5.2438072,5.2438072 0 0 0 -1.40061,-3.64157 l 9.80423,0 c 25.0404,0 45.37957,-20.17712 45.37957,-45.23951 l 0,-93.700418 a 5.2438072,5.2438072 0 0 0 -5.18223,-5.182235 l -27.17172,0 a 5.2438072,5.2438072 0 0 0 -0.98042,0 z m -151.125195,54.343441 89.638665,0 c 2.1519,0 3.78164,1.62972 3.78164,3.781631 l 0,44.819331 a 5.2438072,5.2438072 0 0 0 1.4006,3.64157 l -17.36749,0 0,-30.533168 a 5.2438072,5.2438072 0 0 0 -8.40363,-4.201813 L 71.337272,128.25051 a 5.2438072,5.2438072 0 0 0 0,8.40362 l 63.307308,49.30127 a 5.2438072,5.2438072 0 0 0 8.40363,-4.20182 l 0,-30.53317 17.36749,0 a 5.2438072,5.2438072 0 0 0 -1.4006,3.64157 l 0,35.85547 c 0,2.15191 -1.62974,3.78163 -3.78164,3.78163 l -89.638665,0 c -2.151897,0 -3.781631,-1.62972 -3.781631,-3.78163 l 0,-125.494131 c 0,-2.151911 1.629734,-3.781631 3.781631,-3.781631 z"
       id="path3925"
       style="opacity:0.15;color:#000000;fill:#000000;fill-opacity:1;fill-rule:nonzero;stroke:none;stroke-width:2;marker:none;visibility:visible;display:inline;overflow:visible;enable-background:accumulate"
       inkscape:connector-curvature="0" />
    <path
       d="m 217.70041,12.280482 0,79.414255 c 0,22.362153 -4.38942,27.171723 -26.75154,27.171723 l -53.0829,0 0,-35.715408 -63.307308,49.301268 63.307308,49.30126 0,-35.7154 66.80882,0 c 22.24001,0 40.19734,-17.8173 40.19734,-40.05728 l 0,-93.700418 -27.17172,0 z M 45.426096,29.367853 c -8.690469,0 -15.686767,6.996298 -15.686767,15.686766 l 0,165.831531 c 0,8.69047 6.996298,15.68677 15.686767,15.68677 l 129.976064,0 c 8.69047,0 15.68677,-6.9963 15.68677,-15.68677 l 0,-56.02417 -26.8916,0 0,35.85547 c 0,4.96598 -3.99788,8.96387 -8.96387,8.96387 l -89.638665,0 c -4.965982,0 -8.963866,-3.99789 -8.963866,-8.96387 l 0,-125.494131 c 0,-4.965982 3.997884,-8.963867 8.963866,-8.963867 l 89.638665,0 c 4.96599,0 8.96387,3.997885 8.96387,8.963867 l 0,44.819331 26.8916,0 0,-64.988031 c 0,-8.690468 -6.9963,-15.686766 -15.68677,-15.686766 l -129.976064,0 z"
       inkscape:connector-curvature="0"
       id="path3919"
       style="opacity:0.3;color:#000000;fill:#000000;fill-opacity:1;fill-rule:nonzero;stroke:none;stroke-width:2;marker:none;visibility:visible;display:inline;overflow:visible;enable-background:accumulate" />
    <path
       d="m 217.70041,7.7985491 0,79.4142549 c 0,22.362156 -4.38942,27.171716 -26.75154,27.171716 l -53.0829,0 0,-35.715401 -63.307308,49.301261 63.307308,49.30127 0,-35.71541 66.80882,0 c 22.24001,0 40.19734,-17.81729 40.19734,-40.05727 l 0,-93.7004209 -27.17172,0 z M 45.426096,24.88592 c -8.690469,0 -15.686767,6.996297 -15.686767,15.686766 l 0,165.831534 c 0,8.69046 6.996298,15.68676 15.686767,15.68676 l 129.976064,0 c 8.69047,0 15.68677,-6.9963 15.68677,-15.68676 l 0,-56.02417 -26.8916,0 0,35.85547 c 0,4.96598 -3.99788,8.96386 -8.96387,8.96386 l -89.638665,0 c -4.965982,0 -8.963866,-3.99788 -8.963866,-8.96386 l 0,-125.494134 c 0,-4.965982 3.997884,-8.963867 8.963866,-8.963867 l 89.638665,0 c 4.96599,0 8.96387,3.997885 8.96387,8.963867 l 0,44.819334 26.8916,0 0,-64.988034 c 0,-8.690469 -6.9963,-15.686766 -15.68677,-15.686766 l -129.976064,0 z"
       inkscape:connector-curvature="0"
       id="rect3083"
       style="color:#000000;fill:url(#linearGradient3829);fill-opacity:1;fill-rule:nonzero;stroke:none;stroke-width:2;marker:none;visibility:visible;display:inline;overflow:visible;enable-background:accumulate" />
    <path
       d="m 217.70041,7.7985491 0,4.4819329 27.17172,0 0,-4.4819329 -27.17172,0 z M 45.426096,24.88592 c -8.690469,0 -15.686767,6.996297 -15.686767,15.686766 l 0,4.481933 c 0,-8.690468 6.996298,-15.686766 15.686767,-15.686766 l 129.976064,0 c 8.69047,0 15.68677,6.996298 15.68677,15.686766 l 0,-4.481933 c 0,-8.690469 -6.9963,-15.686766 -15.68677,-15.686766 l -129.976064,0 z m 92.439874,53.783199 -63.307308,49.301261 2.941269,2.24097 60.366039,-47.060298 0,-4.481933 z m 79.83444,8.543685 c 0,22.362156 -4.38942,27.171716 -26.75154,27.171716 l -53.0829,0 0,4.48194 53.0829,0 c 22.36212,0 26.75154,-4.80957 26.75154,-27.171723 l 0,-4.481933 z m -53.50308,63.167246 0,4.48193 26.8916,0 0,-4.48193 -26.8916,0 z m -107.566401,35.85547 0,4.48193 c 0,4.96598 3.997884,8.96387 8.963866,8.96387 l 89.638665,0 c 4.96599,0 8.96387,-3.99789 8.96387,-8.96387 l 0,-4.48193 c 0,4.96598 -3.99788,8.96386 -8.96387,8.96386 l -89.638665,0 c -4.965982,0 -8.963866,-3.99788 -8.963866,-8.96386 z"
       inkscape:connector-curvature="0"
       id="path3133"
       style="opacity:0.75;color:#000000;fill:#ffffff;fill-opacity:1;fill-rule:nonzero;stroke:none;stroke-width:2;marker:none;visibility:visible;display:inline;overflow:visible;enable-background:accumulate" />
    <path
       d="m 65.594795,47.295586 c -4.965982,0 -8.963866,3.997884 -8.963866,8.963866 l 0,4.481934 c 0,-4.965982 3.997884,-8.963867 8.963866,-8.963867 l 89.638665,0 c 4.96599,0 8.96387,3.997885 8.96387,8.963867 l 0,-4.481934 c 0,-4.965982 -3.99788,-8.963866 -8.96387,-8.963866 l -89.638665,0 z M 244.87213,97.017033 c 0,22.239977 -17.95733,40.057277 -40.19734,40.057277 l -66.80882,0 0,4.48193 66.80882,0 c 22.24001,0 40.19734,-17.81729 40.19734,-40.05727 l 0,-4.481937 z m -80.6748,4.061757 0,4.48193 26.8916,0 0,-4.48193 -26.8916,0 z m -86.697399,24.65063 -2.941269,2.24096 63.307308,49.30127 0,-4.48193 -60.366039,-47.0603 z m -47.760602,76.19286 0,4.48194 c 0,8.69046 6.996298,15.68676 15.686767,15.68676 l 129.976064,0 c 8.69047,0 15.68677,-6.9963 15.68677,-15.68676 l 0,-4.48194 c 0,8.69047 -6.9963,15.68677 -15.68677,15.68677 l -129.976064,0 c -8.690469,0 -15.686767,-6.9963 -15.686767,-15.68677 z"
       inkscape:connector-curvature="0"
       id="path3910"
       style="opacity:0.15;color:#000000;fill:#000000;fill-opacity:1;fill-rule:nonzero;stroke:none;stroke-width:2;marker:none;visibility:visible;display:inline;overflow:visible;enable-background:accumulate" />
  </g>
</svg>
