<?xml version="1.0" encoding="UTF-8" standalone="no"?>
<!-- Created with Inkscape (http://www.inkscape.org/) -->

<svg
   xmlns:dc="http://purl.org/dc/elements/1.1/"
   xmlns:cc="http://creativecommons.org/ns#"
   xmlns:rdf="http://www.w3.org/1999/02/22-rdf-syntax-ns#"
   xmlns:svg="http://www.w3.org/2000/svg"
   xmlns="http://www.w3.org/2000/svg"
   xmlns:xlink="http://www.w3.org/1999/xlink"
   xmlns:sodipodi="http://sodipodi.sourceforge.net/DTD/sodipodi-0.dtd"
   xmlns:inkscape="http://www.inkscape.org/namespaces/inkscape"
   version="1.0"
   width="256"
   height="256"
   id="svg2408"
   inkscape:version="0.48.3.1 r9886"
   sodipodi:docname="document-open-recent.svg">
  <metadata
     id="metadata97">
    <rdf:RDF>
      <cc:Work
         rdf:about="">
        <dc:format>image/svg+xml</dc:format>
        <dc:type
           rdf:resource="http://purl.org/dc/dcmitype/StillImage" />
        <dc:title></dc:title>
      </cc:Work>
    </rdf:RDF>
  </metadata>
  <sodipodi:namedview
     pagecolor="#ffffff"
     bordercolor="#666666"
     borderopacity="1"
     objecttolerance="10"
     gridtolerance="10"
     guidetolerance="10"
     inkscape:pageopacity="0"
     inkscape:pageshadow="2"
     inkscape:window-width="1024"
     inkscape:window-height="553"
     id="namedview95"
     showgrid="false"
     inkscape:zoom="1.4960938"
     inkscape:cx="128"
     inkscape:cy="128"
     inkscape:window-x="-4"
     inkscape:window-y="24"
     inkscape:window-maximized="1"
     inkscape:current-layer="svg2408" />
  <defs
     id="defs2410">
    <linearGradient
       id="linearGradient4513">
      <stop
         style="stop-color:#5a5a5a;stop-opacity:1;"
         offset="0"
         id="stop4515" />
      <stop
         style="stop-color:#000000;stop-opacity:1;"
         offset="1"
         id="stop4517" />
    </linearGradient>
    <linearGradient
       x1="45.447727"
       y1="92.539597"
       x2="45.447727"
       y2="7.0165396"
       id="ButtonShadow"
       gradientUnits="userSpaceOnUse"
       gradientTransform="scale(1.0058652,0.994169)">
      <stop
         id="stop3750"
         style="stop-color:#000000;stop-opacity:1"
         offset="0" />
      <stop
         id="stop3752"
         style="stop-color:#000000;stop-opacity:0.58823532"
         offset="1" />
    </linearGradient>
    <filter
       color-interpolation-filters="sRGB"
       id="filter3174">
      <feGaussianBlur
         id="feGaussianBlur3176"
         stdDeviation="1.71" />
    </filter>
    <linearGradient
       inkscape:collect="always"
       xlink:href="#linearGradient4513"
       id="linearGradient3774"
       gradientUnits="userSpaceOnUse"
       gradientTransform="matrix(4.3181702,0,0,4.3181702,-67.989318,-775.12598)"
       x1="47.786373"
       y1="184.03729"
       x2="47.944187"
       y2="232.11832" />
  </defs>
  <g
     id="layer2"
     style="display:none"
     transform="translate(0,160)">
    <rect
       width="86"
       height="85"
       rx="6"
       ry="6"
       x="5"
       y="7"
       id="rect3745"
       style="opacity:0.9;fill:url(#ButtonShadow);fill-opacity:1;fill-rule:nonzero;stroke:none;filter:url(#filter3174)" />
  </g>
  <g
     id="g3766"
     transform="matrix(1.0039216,0,0,1.0039216,-1.2578536,0.928827)">
    <path
       d="M 139.55274,10.646062 C 91.444718,10.000927 46.01723,42.63973 30.383998,87.968298 c -0.112013,0.324725 -0.29588,0.618491 -0.404829,0.944599 -2.854155,5.194111 -3.375194,10.984783 -4.048284,16.058193 -0.622283,4.69049 -1.579155,7.74849 -2.42897,9.31106 -2.237582,-0.0303 -4.624351,-0.24917 -7.826684,-0.13472 -4.195936,0.14983 -9.5676022,1.52418 -12.6846262,6.3423 a 4.6848624,4.6848624 0 0 0 -0.269885,0.40461 c -2.660783,5.01379 -1.254567,10.38313 0.674714,14.03406 1.929281,3.65093 4.256761,6.61094 5.127827,8.63633 a 4.6848624,4.6848624 0 0 0 0.269886,0.53978 c 10.5367232,17.8901 20.6214222,36.25553 31.7115622,54.11208 a 4.6848624,4.6848624 0 0 0 0.539772,0.80964 c 3.560806,3.6081 8.800479,4.39345 12.95451,3.10369 3.854106,-1.19661 7.001071,-4.08927 8.636342,-8.09656 l 0.134941,0 c 0.14846,-0.26082 0.256197,-0.54894 0.404829,-0.80967 11.672917,-20.47361 23.968575,-40.70847 35.355015,-61.53392 a 4.6848624,4.6848624 0 0 0 0.40483,-0.9446 c 1.476292,-4.91666 -0.4411,-9.8253 -3.64346,-12.81956 -2.68951,-2.51477 -6.38051,-3.65958 -10.255646,-3.50851 -0.738914,0.0303 -1.408602,-0.2902 -2.159088,-0.13473 l 0,0.13473 c -1.744052,-0.11185 -3.366211,-0.17792 -4.588055,0 4.179264,-21.15749 20.466419,-38.705929 40.752731,-45.880569 -1.62398,5.052389 -1.78457,10.319865 -1.48437,14.978652 9.9e-4,0.08852 -9.9e-4,0.181364 0,0.269887 0.19821,15.49364 -0.38963,31.34585 0.40483,47.22998 a 4.6848624,4.6848624 0 0 0 0.13495,0.53978 c 1.12676,6.3199 5.08171,11.24534 9.98576,14.169 4.74842,2.83085 10.41067,3.87956 15.92325,3.23862 l 0,0.13474 c 13.79231,-0.2034 27.86614,0.39078 42.10216,-0.40463 a 4.6848624,4.6848624 0 0 0 0.40484,-0.13472 c 8.03227,-1.27105 13.34188,-7.23506 15.78831,-14.16899 -2.8544,27.36549 -25.53664,52.00139 -53.03254,55.59643 a 4.6848624,4.6848624 0 0 0 -0.26988,0 c -1.93345,0.41282 -5.91185,0.2293 -10.12072,0.80966 -2.10443,0.29019 -4.30335,0.79994 -6.47724,2.15908 -2.17389,1.35915 -4.16493,3.67702 -5.12784,6.47726 a 4.6848624,4.6848624 0 0 0 -0.13494,0.9446 c -1.33208,10.58112 -0.34355,20.93013 -0.67471,30.49708 a 4.6848624,4.6848624 0 0 0 0,0.13472 c -0.0433,4.92833 3.00174,8.97744 6.6122,11.06532 3.3302,1.92577 7.14775,2.43414 10.93036,1.75425 l 0,0.13473 c 0.32075,-0.009 0.62418,-0.12393 0.9446,-0.13473 47.06641,-1.60247 90.44748,-34.25919 105.12047,-78.94154 0.0129,-0.0388 -0.0129,-0.0955 0,-0.13473 14.89649,-42.46247 2.22374,-92.387773 -31.03686,-122.663026 -0.0462,-0.04318 -0.0886,-0.09154 -0.13494,-0.134727 -21.27358,-19.894674 -50.03989,-31.409333 -79.21143,-31.306733 -0.0451,1.72e-4 -0.0898,-2.16e-4 -0.13495,0 z m 19.70165,57.755526 c 21.88816,7.144716 38.49691,26.798046 41.96722,49.524022 -1.30228,-2.63719 -2.52103,-5.34565 -5.12783,-7.28692 -0.0341,-0.0259 -0.10091,0.0259 -0.13494,0 -5.07814,-3.92759 -10.94005,-5.02121 -16.19314,-5.12782 -5.28833,-0.10754 -10.1328,0.46087 -14.169,0.13472 l 0,0.13473 c -1.47917,-0.24312 -2.73255,-0.22023 -3.77838,-0.13473 -0.35134,0.0303 -0.49323,-0.0259 -0.80967,0 -0.25663,-11.224953 0.59002,-23.100439 -0.9446,-35.220075 l 0.13495,0 c -0.003,-0.123501 -0.12718,-0.148978 -0.13495,-0.269885 -0.0121,-0.09284 0.0125,-0.177046 0,-0.269887 l -0.13494,0 c -0.0639,-0.640297 -0.50816,-0.916531 -0.67472,-1.48437 z"
       id="path3807"
       style="opacity:0.07999998;fill:#000000;fill-opacity:1;fill-rule:evenodd;stroke:none;display:inline"
       inkscape:connector-curvature="0" />
    <path
       d="M 139.55274,15.36906 C 93.241968,14.6883 49.106703,46.515417 34.459173,90.357454 c -5.008552,8.138196 -2.789574,23.006996 -7.95943,28.512736 -6.522557,0.74447 -15.318752,-2.42796 -19.5957952,4.18324 -3.620994,6.82314 3.4429152,12.70962 5.9773322,18.60264 10.593109,17.98582 20.544264,36.43223 31.536771,54.13154 4.55364,4.61409 12.401073,1.77092 14.286524,-4.05679 11.846904,-20.81116 24.31208,-41.36565 35.777263,-62.33508 1.87822,-6.2553 -4.58323,-11.77543 -10.621697,-10.52555 -3.25103,-0.90045 -10.690896,1.85506 -11.174614,-1.46066 3.821499,-29.850251 29.840063,-54.860876 59.850193,-57.374397 -9.70214,3.713411 -10.86161,14.549816 -10.25565,23.498619 0.21054,15.738308 -0.43544,31.531968 0.34989,47.233268 1.75066,9.81918 12.07361,14.88011 21.30803,13.60738 13.96814,-0.20598 27.99071,0.42879 41.92198,-0.34978 13.53411,-2.14164 18.49785,-21.55609 7.37475,-29.73794 -8.02278,-6.28263 -18.67423,-3.15973 -28.06062,-3.91775 -3.26792,-0.80326 -10.51136,2.36899 -8.88846,-3.32507 -0.38111,-12.138422 0.83864,-24.432037 -0.7618,-36.453693 -0.19173,-6.677575 -15.76489,-12.761316 -3.10025,-9.646707 31.16468,5.261907 55.86068,34.754836 55.14033,66.42828 0.7509,32.61189 -25.26709,63.00118 -57.6187,67.23113 -6.06155,1.29446 -15.6189,-1.24912 -18.21916,6.3127 -1.24112,9.85855 -0.1935,20.08848 -0.53977,30.09224 -0.0566,6.44535 6.95741,9.65746 12.68511,8.28406 45.36578,-1.13351 87.69827,-32.99932 101.78303,-76.06046 C 259.97739,122.56314 247.70967,74.38722 215.78619,45.433069 195.35589,26.262206 167.5881,15.236146 139.55274,15.36906 z"
       id="path3796"
       style="opacity:0.1;fill:#000000;fill-opacity:1;fill-rule:evenodd;stroke:none;display:inline"
       inkscape:connector-curvature="0" />
    <path
       d="m 139.55274,19.282402 c -58.050648,0 -105.250089,46.042144 -107.684371,103.501148 l -17.812452,0 a 4.4016737,4.4016737 0 0 0 -3.778399,6.61219 l 36.164676,62.74841 a 4.4016737,4.4016737 0 0 0 7.556797,0 l 36.299617,-62.74841 a 4.4016737,4.4016737 0 0 0 -3.7784,-6.61219 l -18.487163,0 c 2.385841,-37.617271 33.287345,-67.336473 71.519695,-67.336473 39.78704,0 71.92452,32.137507 71.92452,71.924533 0,39.787 -32.13748,71.92451 -71.92452,71.92451 a 4.4016737,4.4016737 0 0 0 -4.45311,4.45312 l 0,27.25844 a 4.4016737,4.4016737 0 0 0 4.45311,4.45312 c 59.60678,0 108.0892,-48.48243 108.0892,-108.08919 0,-59.606779 -48.48243,-108.089208 -108.0892,-108.089208 z m -0.26988,43.181701 c -7.14669,0 -13.08946,5.942754 -13.08946,13.089454 l 0,51.818053 c 0,7.14669 5.94277,13.08945 13.08946,13.08945 l 43.1817,0 c 7.14669,0 13.08945,-5.94276 13.08945,-13.08945 0,-7.14671 -5.94276,-13.08946 -13.08945,-13.08946 l -30.09225,0 0,-38.728593 c 0,-7.1467 -5.94277,-13.089454 -13.08945,-13.089454 z"
       id="path3792"
       style="opacity:0.15;fill:#000000;fill-opacity:1;fill-rule:evenodd;stroke:none;display:inline"
       inkscape:connector-curvature="0" />
    <path
       d="m 139.55274,23.735514 c -57.19895,0 -103.590085,46.312895 -103.636087,103.501146 l -21.860736,0 36.164676,62.7484 36.299615,-62.7484 -23.345105,0 c 0.04642,-42.128071 34.238775,-76.242695 76.377637,-76.242695 42.16749,0 76.37763,34.210143 76.37763,76.377645 0,42.16749 -34.21014,76.37763 -76.37763,76.37763 l 0,27.25844 c 57.22731,0 103.63609,-46.40879 103.63609,-103.63607 0,-57.227338 -46.40879,-103.636096 -103.63609,-103.636096 z m -0.26988,43.181704 c -4.78453,0 -8.63634,3.851807 -8.63634,8.636339 l 0,51.818053 c 0,4.78452 3.85181,8.63634 8.63634,8.63634 l 43.1817,0 c 4.78453,0 8.63634,-3.85182 8.63634,-8.63634 0,-4.78455 -3.85181,-8.63635 -8.63634,-8.63635 l -34.54537,0 0,-43.181703 c 0,-4.784532 -3.8518,-8.636339 -8.63633,-8.636339 z"
       id="path3788"
       style="opacity:0.3;fill:#000000;fill-opacity:1;fill-rule:evenodd;stroke:none;display:inline"
       inkscape:connector-curvature="0" />
    <path
       d="m 139.55274,19.417344 c -57.19895,0 -103.590085,46.312895 -103.636087,103.501146 l -21.860736,0 36.164676,62.74841 36.299615,-62.74841 -23.345105,0 c 0.04642,-42.128071 34.238775,-76.242696 76.377637,-76.242696 42.16749,0 76.37763,34.210142 76.37763,76.377636 0,42.1675 -34.21014,76.37763 -76.37763,76.37763 l 0,27.25846 c 57.22731,0 103.63609,-46.4088 103.63609,-103.63609 0,-57.227329 -46.40879,-103.636086 -103.63609,-103.636086 z m -0.26988,43.181703 c -4.78453,0 -8.63634,3.851808 -8.63634,8.636341 l 0,51.818042 c 0,4.78453 3.85181,8.63634 8.63634,8.63634 l 43.1817,0 c 4.78453,0 8.63634,-3.85181 8.63634,-8.63634 0,-4.78453 -3.85181,-8.63633 -8.63634,-8.63633 l -34.54537,0 0,-43.181712 c 0,-4.784533 -3.8518,-8.636341 -8.63633,-8.636341 z"
       id="path3772"
       style="fill:url(#linearGradient3774);fill-opacity:1;fill-rule:evenodd;stroke:none;display:inline"
       inkscape:connector-curvature="0" />
    <path
       inkscape:connector-curvature="0"
       id="path3035"
       d="m 139.22221,19.42249 c -57.198959,0 -103.610249,46.311749 -103.656259,103.5 l -21.84375,0 2.3125,4 19.53125,0 c 0.04601,-57.188251 46.4573,-103.5 103.656259,-103.5 56.33312,0 102.17468,44.976949 103.59375,100.96875 0.006,-0.44581 0.0312,-0.8966 0.0312,-1.34375 0,-57.227329 -46.3977,-103.625 -103.625,-103.625 z m -0.28125,43.1875 c -4.78453,0 -8.625,3.840467 -8.625,8.625 l 0,4 c 0,-4.784533 3.84047,-8.625 8.625,-8.625 4.78453,0 8.65625,3.840467 8.65625,8.625 l 0,-4 c 0,-4.784533 -3.87172,-8.625 -8.65625,-8.625 z m 8.65625,51.8125 0,4 34.53125,0 c 4.09489,0 7.50781,2.81213 8.40625,6.625 0.14996,-0.63945 0.21875,-1.31353 0.21875,-2 0,-4.78453 -3.84047,-8.625 -8.625,-8.625 l -34.53125,0 z m -84.656259,8.5 c -0.06948,1.32061 -0.09228,2.6624 -0.09375,4 l 21.03125,0 2.3125,-4 -23.25,0 z m 152.625009,2.15625 c -1.07848,41.22861 -34.85603,74.34375 -76.34375,74.34375 l 0,4 c 42.16749,0 76.375,-34.2075 76.375,-76.375 0,-0.65887 -0.0146,-1.31387 -0.0312,-1.96875 z"
       style="fill:#ffffff;fill-opacity:1;fill-rule:evenodd;stroke:none;display:inline;opacity:0.5" />
  </g>
</svg>
