<?xml version="1.0" encoding="UTF-8" standalone="no"?>
<!-- Created with Inkscape (http://www.inkscape.org/) -->

<svg
   xmlns:dc="http://purl.org/dc/elements/1.1/"
   xmlns:cc="http://creativecommons.org/ns#"
   xmlns:rdf="http://www.w3.org/1999/02/22-rdf-syntax-ns#"
   xmlns:svg="http://www.w3.org/2000/svg"
   xmlns="http://www.w3.org/2000/svg"
   xmlns:xlink="http://www.w3.org/1999/xlink"
   xmlns:sodipodi="http://sodipodi.sourceforge.net/DTD/sodipodi-0.dtd"
   xmlns:inkscape="http://www.inkscape.org/namespaces/inkscape"
   version="1.0"
   width="256"
   height="256"
   id="svg2408"
   style="display:inline"
   inkscape:version="0.48.3.1 r9886"
   sodipodi:docname="download.svg">
  <sodipodi:namedview
     pagecolor="#ffffff"
     bordercolor="#666666"
     borderopacity="1"
     objecttolerance="10"
     gridtolerance="10"
     guidetolerance="10"
     inkscape:pageopacity="0"
     inkscape:pageshadow="2"
     inkscape:window-width="1024"
     inkscape:window-height="572"
     id="namedview214"
     showgrid="false"
     fit-margin-top="0"
     fit-margin-left="0"
     fit-margin-right="0"
     fit-margin-bottom="0"
     inkscape:zoom="1.6367188"
     inkscape:cx="117.30788"
     inkscape:cy="128"
     inkscape:window-x="0"
     inkscape:window-y="28"
     inkscape:window-maximized="0"
     inkscape:current-layer="svg2408" />
  <defs
     id="defs2410">
    <linearGradient
       id="linearGradient3778">
      <stop
         id="stop3780"
         style="stop-color:#499119;stop-opacity:1"
         offset="0" />
      <stop
         id="stop3782"
         style="stop-color:#8fd625;stop-opacity:1"
         offset="1" />
    </linearGradient>
    <linearGradient
       id="linearGradient5092">
      <stop
         id="stop5094"
         style="stop-color:#00aa44;stop-opacity:1;"
         offset="0" />
      <stop
         id="stop5096"
         style="stop-color:#00ff66;stop-opacity:1;"
         offset="1" />
    </linearGradient>
    <linearGradient
       id="linearGradient5010">
      <stop
         id="stop5012"
         style="stop-color:#000000;stop-opacity:1"
         offset="0" />
      <stop
         id="stop5014"
         style="stop-color:#000000;stop-opacity:0"
         offset="1" />
    </linearGradient>
    <linearGradient
       x1="45.447727"
       y1="92.539597"
       x2="45.447727"
       y2="7.0165396"
       id="ButtonShadow"
       gradientUnits="userSpaceOnUse"
       gradientTransform="scale(1.0058652,0.994169)">
      <stop
         id="stop3750"
         style="stop-color:#000000;stop-opacity:1"
         offset="0" />
      <stop
         id="stop3752"
         style="stop-color:#000000;stop-opacity:0.58823532"
         offset="1" />
    </linearGradient>
    <linearGradient
       id="linearGradient3737">
      <stop
         id="stop3739"
         style="stop-color:#ffffff;stop-opacity:1"
         offset="0" />
      <stop
         id="stop3741"
         style="stop-color:#ffffff;stop-opacity:0"
         offset="1" />
    </linearGradient>
    <filter
       color-interpolation-filters="sRGB"
       id="filter3174">
      <feGaussianBlur
         id="feGaussianBlur3176"
         stdDeviation="1.71" />
    </filter>
    <linearGradient
       x1="65.262688"
       y1="64.205269"
       x2="65.262688"
       y2="50.068527"
       id="linearGradient3832"
       xlink:href="#linearGradient3737"
       gradientUnits="userSpaceOnUse"
       gradientTransform="matrix(0.625,0,0,0.625,28.5,31.25)" />
    <linearGradient
       x1="56"
       y1="72"
       x2="88"
       y2="72"
       id="linearGradient3773"
       xlink:href="#linearGradient3778"
       gradientUnits="userSpaceOnUse"
       gradientTransform="matrix(0.9375,0,0,0.9375,-140.5,3.5)" />
    <linearGradient
       x1="70"
       y1="54"
       x2="70"
       y2="75.095024"
       id="linearGradient3788"
       xlink:href="#linearGradient3737"
       gradientUnits="userSpaceOnUse"
       gradientTransform="translate(0,4)" />
    <filter
       color-interpolation-filters="sRGB"
       id="filter3806">
      <feGaussianBlur
         id="feGaussianBlur3808"
         stdDeviation="1.2" />
    </filter>
    <linearGradient
       x1="65.262688"
       y1="64.205269"
       x2="65.262688"
       y2="50.068527"
       id="linearGradient3812"
       xlink:href="#linearGradient5010"
       gradientUnits="userSpaceOnUse"
       gradientTransform="matrix(0.625,0,0,0.625,78.5,32.25)" />
    <clipPath
       id="clipPath3823">
      <path
         d="M 108.8125,58 C 107.25437,58 106,59.254375 106,60.8125 l 0,24.375 C 106,86.745625 107.25437,88 108.8125,88 l 24.375,0 C 134.74562,88 136,86.745625 136,85.1875 l 0,-24.375 C 136,59.254375 134.74562,58 133.1875,58 l -24.375,0 z m 7.1875,4.5 10,0 0,8.75 5,0 -10,13.75 -10,-13.75 5,0 0,-8.75 z"
         inkscape:connector-curvature="0"
         id="path3825"
         style="fill:#ffffff;fill-opacity:1;stroke:none" />
    </clipPath>
    <filter
       color-interpolation-filters="sRGB"
       id="filter3831">
      <feGaussianBlur
         id="feGaussianBlur3833"
         stdDeviation="0.6375" />
    </filter>
    <linearGradient
       x1="123.07514"
       y1="75.788338"
       x2="123.07514"
       y2="59.878803"
       id="linearGradient3908"
       xlink:href="#linearGradient5010"
       gradientUnits="userSpaceOnUse" />
    <linearGradient
       inkscape:collect="always"
       xlink:href="#linearGradient5092"
       id="linearGradient3987"
       x1="128.75179"
       y1="245.91885"
       x2="122.97136"
       y2="9.4701672"
       gradientUnits="userSpaceOnUse" />
  </defs>
  <metadata
     id="metadata2413">
    <rdf:RDF>
      <cc:Work
         rdf:about="">
        <dc:format>image/svg+xml</dc:format>
        <dc:type
           rdf:resource="http://purl.org/dc/dcmitype/StillImage" />
        <dc:title></dc:title>
      </cc:Work>
    </rdf:RDF>
  </metadata>
  <g
     id="layer2"
     style="display:none"
     transform="translate(-48,161)">
    <path
       d="M 11,7 48,5 85,7 c 3.324,0 6,2.676 6,6 l 0,73 c 0,3.324 -2.676,6 -6,6 L 11,92 C 7.676,92 5,89.324 5,86 L 5,13 C 5,9.676 7.676,7 11,7 z"
       inkscape:connector-curvature="0"
       id="rect3745"
       style="opacity:0.9;fill:url(#ButtonShadow);fill-opacity:1;fill-rule:nonzero;stroke:none;filter:url(#filter3174)" />
  </g>
  <g
     id="layer4"
     style="display:none"
     transform="translate(-48,161)">
    <rect
       width="30"
       height="30"
       rx="2.8125"
       ry="2.8125"
       x="-86"
       y="56"
       transform="matrix(0,-1,1,0,0,4)"
       id="rect3790"
       style="opacity:0.6;fill:#000000;fill-opacity:1;stroke:none;filter:url(#filter3806)" />
    <rect
       width="30"
       height="30"
       rx="2.8125"
       ry="2.8125"
       x="-88"
       y="56"
       transform="matrix(0,-1,1,0,0,0)"
       id="rect2993"
       style="fill:url(#linearGradient3773);fill-opacity:1;stroke:none" />
    <path
       d="M 58.8125,58 C 57.254375,58 56,59.254375 56,60.8125 l 0,24.375 c 0,0.873066 0.410816,1.641163 1.03125,2.15625 C 57.02841,87.289908 57,87.242129 57,87.1875 l 0,-24.375 C 57,61.254375 58.17075,60 59.625,60 l 22.75,0 C 83.82925,60 85,61.254375 85,62.8125 l 0,24.375 c 0,0.05463 -0.02841,0.102408 -0.03125,0.15625 C 85.589184,86.828663 86,86.060566 86,85.1875 l 0,-24.375 C 86,59.254375 84.745625,58 83.1875,58 l -24.375,0 z"
       inkscape:connector-curvature="0"
       id="rect3775"
       style="opacity:0.5;fill:url(#linearGradient3788);fill-opacity:1;stroke:none" />
    <path
       d="m 116,63.5 0,8.75 -5,0 10,13.75 10,-13.75 -5,0 0,-8.75 -10,0 z"
       inkscape:connector-curvature="0"
       transform="translate(-50,0)"
       clip-path="url(#clipPath3823)"
       id="path3810"
       style="opacity:0.6;fill:url(#linearGradient3812);fill-opacity:1;fill-rule:nonzero;stroke:none;display:inline;filter:url(#filter3831)" />
    <path
       d="m 66,62.5 0,8.75 -5,0 10,13.75 10,-13.75 -5,0 0,-8.75 -10,0 z"
       inkscape:connector-curvature="0"
       id="path4278"
       style="fill:url(#linearGradient3832);fill-opacity:1;fill-rule:nonzero;stroke:none;display:inline" />
  </g>
  <g
     id="g4021">
    <path
       style="fill:none;fill-opacity:1;stroke:#000000;stroke-opacity:1;stroke-width:18;stroke-miterlimit:4;stroke-dasharray:none;stroke-linejoin:round;opacity:0.10000000000000001"
       d="m 128,9 a 119,119 0 1 0 0,238 119,119 0 0 0 0,-238 z m -39.672042,29.729825 79.344092,0 0,90.900315 33.05466,0 L 128,220.53045 55.273299,129.63014 l 33.054659,0 0,-90.900315 z"
       id="path4019"
       inkscape:connector-curvature="0" />
    <path
       inkscape:connector-curvature="0"
       id="path4017"
       d="m 128,9 a 119,119 0 1 0 0,238 119,119 0 0 0 0,-238 z m -39.672042,29.729825 79.344092,0 0,90.900315 33.05466,0 L 128,220.53045 55.273299,129.63014 l 33.054659,0 0,-90.900315 z"
       style="fill:none;fill-opacity:1;stroke:#000000;stroke-opacity:1;stroke-width:12;stroke-miterlimit:4;stroke-dasharray:none;stroke-linejoin:round;opacity:0.10000000000000001" />
    <path
       style="fill:none;fill-opacity:1;stroke:#000000;stroke-opacity:1;stroke-width:6;stroke-miterlimit:4;stroke-dasharray:none;stroke-linejoin:round;opacity:0.1"
       d="m 128,9 a 119,119 0 1 0 0,238 119,119 0 0 0 0,-238 z m -39.672042,29.729825 79.344092,0 0,90.900315 33.05466,0 L 128,220.53045 55.273299,129.63014 l 33.054659,0 0,-90.900315 z"
       id="path4015"
       inkscape:connector-curvature="0" />
    <path
       inkscape:connector-curvature="0"
       id="path3836"
       d="m 128,9 a 119,119 0 1 0 0,238 119,119 0 0 0 0,-238 z m -39.672042,29.729825 79.344092,0 0,90.900315 33.05466,0 L 128,220.53045 55.273299,129.63014 l 33.054659,0 0,-90.900315 z"
       style="fill:url(#linearGradient3987);fill-opacity:1;stroke:none" />
    <path
       id="path3995"
       d="M 128 9 A 119 119 0 0 0 9.09375 131.875 A 119 119 0 0 1 128 11 A 119 119 0 0 1 246.90625 126.125 A 119 119 0 0 0 128 9 z M 55.28125 131.625 L 128 222.53125 L 200.71875 131.625 L 199.125 131.625 L 128 220.53125 L 56.875 131.625 L 55.28125 131.625 z "
       style="fill:#ffffff;fill-opacity:1;stroke:none;opacity:0.7" />
    <path
       id="path4004"
       d="M 88.3125 36.71875 L 88.3125 38.71875 L 167.6875 38.71875 L 167.6875 36.71875 L 88.3125 36.71875 z M 246.90625 124.125 A 119 119 0 0 1 128 245 A 119 119 0 0 1 9.09375 129.875 A 119 119 0 0 0 128 247 A 119 119 0 0 0 246.90625 124.125 z M 55.28125 127.625 L 56.875 129.625 L 88.3125 129.625 L 88.3125 127.625 L 55.28125 127.625 z M 167.6875 127.625 L 167.6875 129.625 L 199.125 129.625 L 200.71875 127.625 L 167.6875 127.625 z "
       style="fill:#000000;fill-opacity:1;stroke:none;opacity:0.7" />
    <path
       inkscape:connector-curvature="0"
       style="opacity:0.3;fill:#000000;fill-opacity:1;stroke:none"
       d="m 88.3125,38.71875 0,2 79.375,0 0,-2 -79.375,0 z M 246.90625,126.125 A 119,119 0 0 1 128,247 119,119 0 0 1 9.09375,131.875 119,119 0 0 0 128,249 119,119 0 0 0 246.90625,126.125 z m -191.625,3.5 1.59375,2 31.4375,0 0,-2 -33.03125,0 z m 112.40625,0 0,2 31.4375,0 1.59375,-2 -33.03125,0 z"
       id="path4013" />
  </g>
</svg>
