<?xml version="1.0" encoding="UTF-8" standalone="no"?>
<!-- Created with Inkscape (http://www.inkscape.org/) -->

<svg
   xmlns:dc="http://purl.org/dc/elements/1.1/"
   xmlns:cc="http://creativecommons.org/ns#"
   xmlns:rdf="http://www.w3.org/1999/02/22-rdf-syntax-ns#"
   xmlns:svg="http://www.w3.org/2000/svg"
   xmlns="http://www.w3.org/2000/svg"
   xmlns:xlink="http://www.w3.org/1999/xlink"
   xmlns:sodipodi="http://sodipodi.sourceforge.net/DTD/sodipodi-0.dtd"
   xmlns:inkscape="http://www.inkscape.org/namespaces/inkscape"
   version="1.0"
   width="256"
   height="256"
   id="svg2408"
   inkscape:version="0.48.2 r9819"
   sodipodi:docname="edit-find-replace.svg">
  <sodipodi:namedview
     pagecolor="#ffffff"
     bordercolor="#666666"
     borderopacity="1"
     objecttolerance="10"
     gridtolerance="10"
     guidetolerance="10"
     inkscape:pageopacity="0"
     inkscape:pageshadow="2"
     inkscape:window-width="1024"
     inkscape:window-height="572"
     id="namedview93"
     showgrid="false"
     inkscape:zoom="1.6289062"
     inkscape:cx="117.25659"
     inkscape:cy="128"
     inkscape:window-x="0"
     inkscape:window-y="28"
     inkscape:window-maximized="1"
     inkscape:current-layer="svg2408" />
  <defs
     id="defs2410">
    <linearGradient
       id="linearGradient3637">
      <stop
         id="stop3639"
         style="stop-color:#5a5a5a;stop-opacity:1;"
         offset="0" />
      <stop
         id="stop3641"
         style="stop-color:#000000;stop-opacity:1;"
         offset="1" />
    </linearGradient>
    <linearGradient
       x1="45.447727"
       y1="92.539597"
       x2="45.447727"
       y2="7.0165396"
       id="ButtonShadow"
       gradientUnits="userSpaceOnUse"
       gradientTransform="scale(1.0058652,0.994169)">
      <stop
         id="stop3750"
         style="stop-color:#000000;stop-opacity:1"
         offset="0" />
      <stop
         id="stop3752"
         style="stop-color:#000000;stop-opacity:0.58823532"
         offset="1" />
    </linearGradient>
    <linearGradient
       id="linearGradient3737">
      <stop
         id="stop3739"
         style="stop-color:#ffffff;stop-opacity:1"
         offset="0" />
      <stop
         id="stop3741"
         style="stop-color:#ffffff;stop-opacity:0"
         offset="1" />
    </linearGradient>
    <linearGradient
       id="linearGradient3700">
      <stop
         id="stop3702"
         style="stop-color:#2276c5;stop-opacity:1"
         offset="0" />
      <stop
         id="stop3704"
         style="stop-color:#68baf4;stop-opacity:1"
         offset="1" />
    </linearGradient>
    <filter
       color-interpolation-filters="sRGB"
       id="filter3174">
      <feGaussianBlur
         id="feGaussianBlur3176"
         stdDeviation="1.71" />
    </filter>
    <linearGradient
       x1="36.357143"
       y1="6"
       x2="36.357143"
       y2="63.893143"
       id="linearGradient3188"
       xlink:href="#linearGradient3737"
       gradientUnits="userSpaceOnUse" />
    <filter
       x="-0.192"
       y="-0.192"
       width="1.3839999"
       height="1.3839999"
       color-interpolation-filters="sRGB"
       id="filter3794">
      <feGaussianBlur
         id="feGaussianBlur3796"
         stdDeviation="5.28" />
    </filter>
    <linearGradient
       x1="48"
       y1="20.220806"
       x2="48"
       y2="138.66119"
       id="linearGradient3613"
       xlink:href="#linearGradient3737"
       gradientUnits="userSpaceOnUse" />
    <radialGradient
       cx="48"
       cy="90.171875"
       r="42"
       fx="48"
       fy="90.171875"
       id="radialGradient3619"
       xlink:href="#linearGradient3737"
       gradientUnits="userSpaceOnUse"
       gradientTransform="matrix(1.1573129,0,0,0.99590774,-7.5510206,0.19713193)" />
    <clipPath
       id="clipPath3613">
      <rect
         width="84"
         height="84"
         rx="6"
         ry="6"
         x="6"
         y="6"
         id="rect3615"
         style="fill:#ffffff;fill-opacity:1;fill-rule:nonzero;stroke:none" />
    </clipPath>
    <linearGradient
       x1="48"
       y1="90"
       x2="48"
       y2="5.9877172"
       id="linearGradient2843"
       xlink:href="#linearGradient3700"
       gradientUnits="userSpaceOnUse"
       gradientTransform="translate(0,100)" />
    <clipPath
       id="clipPath3625">
      <path
         d="M 0,0 0,96 96,96 96,0 0,0 z m 12,6 72,0 c 3.324,0 6,2.676 6,6 l 0,72 c 0,3.324 -2.676,6 -6,6 L 12,90 C 8.676,90 6,87.324 6,84 L 6,12 C 6,8.676 8.676,6 12,6 z"
         inkscape:connector-curvature="0"
         id="path3627"
         style="fill:#ffffff;fill-opacity:1;stroke:none" />
    </clipPath>
    <linearGradient
       x1="44.512066"
       y1="6"
       x2="44.512066"
       y2="90.015434"
       id="linearGradient3643"
       xlink:href="#linearGradient3637"
       gradientUnits="userSpaceOnUse" />
    <clipPath
       id="clipPath3649">
      <rect
         width="76"
         height="76"
         rx="4"
         ry="4"
         x="10"
         y="10"
         id="rect3651"
         style="fill:#ffffff;fill-opacity:1;fill-rule:nonzero;stroke:none" />
    </clipPath>
    <filter
       color-interpolation-filters="sRGB"
       id="filter3657">
      <feGaussianBlur
         id="feGaussianBlur3659"
         stdDeviation="1.14" />
    </filter>
    <linearGradient
       inkscape:collect="always"
       xlink:href="#linearGradient3637"
       id="linearGradient3829"
       gradientUnits="userSpaceOnUse"
       gradientTransform="matrix(12.731969,0,0,12.734465,-17.187039,-10.824383)"
       x1="10.710332"
       y1="1.9963325"
       x2="10.710332"
       y2="18.974037" />
  </defs>
  <metadata
     id="metadata2413">
    <rdf:RDF>
      <cc:Work
         rdf:about="">
        <dc:format>image/svg+xml</dc:format>
        <dc:type
           rdf:resource="http://purl.org/dc/dcmitype/StillImage" />
        <dc:title></dc:title>
      </cc:Work>
    </rdf:RDF>
  </metadata>
  <g
     id="layer2"
     style="display:none"
     transform="translate(0,160)">
    <rect
       width="86"
       height="85"
       rx="6"
       ry="6"
       x="5"
       y="7"
       clip-path="url(#clipPath3625)"
       id="rect3745"
       style="opacity:0.9;fill:url(#ButtonShadow);fill-opacity:1;fill-rule:nonzero;stroke:none;filter:url(#filter3174)" />
  </g>
  <g
     id="layer1"
     style="display:none"
     transform="translate(0,160)">
    <rect
       width="84"
       height="84"
       rx="6"
       ry="6"
       x="6"
       y="6"
       id="rect2419"
       style="opacity:0.8;fill:#000000;fill-opacity:1;fill-rule:nonzero;stroke:none" />
    <path
       d="m 14,10 c -2.216,0 -4,1.784 -4,4 l 0,68 c 0,2.216 1.784,4 4,4 l 68,0 c 2.216,0 4,-1.784 4,-4 l 0,-68 c 0,-2.216 -1.784,-4 -4,-4 l -68,0 z m 0,3.0625 68,0 c 0.578769,0 0.9375,0.358731 0.9375,0.9375 l 0,68 c 0,0.578769 -0.358731,0.9375 -0.9375,0.9375 l -68,0 c -0.578769,0 -0.9375,-0.358731 -0.9375,-0.9375 l 0,-68 c 0,-0.578769 0.358731,-0.9375 0.9375,-0.9375 z"
       inkscape:connector-curvature="0"
       id="rect3726"
       style="opacity:0.07999998;fill:#000000;fill-opacity:1;fill-rule:nonzero;stroke:none" />
    <path
       d="M 12,6 C 8.676,6 6,8.676 6,12 l 0,72 c 0,3.324 2.676,6 6,6 l 72,0 c 3.324,0 6,-2.676 6,-6 L 90,12 C 90,8.676 87.324,6 84,6 L 12,6 z m 2,4 68,0 c 2.216,0 4,1.784 4,4 l 0,68 c 0,2.216 -1.784,4 -4,4 l -68,0 c -2.216,0 -4,-1.784 -4,-4 l 0,-68 c 0,-2.216 1.784,-4 4,-4 z"
       inkscape:connector-curvature="0"
       id="rect3629"
       style="fill:url(#linearGradient3643);fill-opacity:1;fill-rule:nonzero;stroke:none" />
    <path
       d="M 12,6 C 8.676,6 6,8.676 6,12 l 0,2 0,68 0,2 c 0,0.334721 0.04135,0.6507 0.09375,0.96875 0.0487,0.295596 0.09704,0.596915 0.1875,0.875 0.00988,0.03038 0.020892,0.0636 0.03125,0.09375 0.098865,0.287771 0.2348802,0.547452 0.375,0.8125 0.1445918,0.273507 0.3156161,0.535615 0.5,0.78125 0.1843839,0.245635 0.3737765,0.473472 0.59375,0.6875 0.439947,0.428056 0.94291,0.814526 1.5,1.09375 0.278545,0.139612 0.5734731,0.246947 0.875,0.34375 -0.2562018,-0.100222 -0.4867109,-0.236272 -0.71875,-0.375 -0.00741,-0.0044 -0.023866,0.0045 -0.03125,0 -0.031933,-0.0193 -0.062293,-0.04251 -0.09375,-0.0625 -0.120395,-0.0767 -0.2310226,-0.163513 -0.34375,-0.25 -0.1061728,-0.0808 -0.2132809,-0.161112 -0.3125,-0.25 C 8.4783201,88.557317 8.3087904,88.373362 8.15625,88.1875 8.0486711,88.057245 7.9378561,87.922215 7.84375,87.78125 7.818661,87.74287 7.805304,87.69538 7.78125,87.65625 7.716487,87.553218 7.6510225,87.451733 7.59375,87.34375 7.4927417,87.149044 7.3880752,86.928049 7.3125,86.71875 7.30454,86.69694 7.288911,86.6782 7.28125,86.65625 7.2494249,86.5643 7.2454455,86.469419 7.21875,86.375 7.1884177,86.268382 7.1483606,86.171969 7.125,86.0625 7.0521214,85.720988 7,85.364295 7,85 L 7,83 7,15 7,13 C 7,10.218152 9.2181517,8 12,8 l 2,0 68,0 2,0 c 2.781848,0 5,2.218152 5,5 l 0,2 0,68 0,2 c 0,0.364295 -0.05212,0.720988 -0.125,1.0625 -0.04415,0.206893 -0.08838,0.397658 -0.15625,0.59375 -0.0077,0.02195 -0.0233,0.04069 -0.03125,0.0625 -0.06274,0.173739 -0.138383,0.367449 -0.21875,0.53125 -0.04158,0.0828 -0.07904,0.169954 -0.125,0.25 -0.0546,0.09721 -0.126774,0.18835 -0.1875,0.28125 -0.09411,0.140965 -0.204921,0.275995 -0.3125,0.40625 -0.143174,0.17445 -0.303141,0.346998 -0.46875,0.5 -0.01117,0.0102 -0.01998,0.02115 -0.03125,0.03125 -0.138386,0.125556 -0.285091,0.234436 -0.4375,0.34375 -0.102571,0.07315 -0.204318,0.153364 -0.3125,0.21875 -0.0074,0.0045 -0.02384,-0.0044 -0.03125,0 -0.232039,0.138728 -0.462548,0.274778 -0.71875,0.375 0.301527,-0.0968 0.596455,-0.204138 0.875,-0.34375 0.55709,-0.279224 1.060053,-0.665694 1.5,-1.09375 0.219973,-0.214028 0.409366,-0.441865 0.59375,-0.6875 0.184384,-0.245635 0.355408,-0.507743 0.5,-0.78125 0.14012,-0.265048 0.276135,-0.524729 0.375,-0.8125 0.01041,-0.03078 0.02133,-0.06274 0.03125,-0.09375 0.09046,-0.278085 0.1388,-0.579404 0.1875,-0.875 C 89.95865,84.6507 90,84.334721 90,84 l 0,-2 0,-68 0,-2 C 90,8.676 87.324,6 84,6 L 12,6 z"
       inkscape:connector-curvature="0"
       id="rect3728"
       style="fill:url(#linearGradient3188);fill-opacity:1;fill-rule:nonzero;stroke:none" />
    <path
       d="M 12,90 C 8.676,90 6,87.324 6,84 L 6,82 6,14 6,12 c 0,-0.334721 0.04135,-0.6507 0.09375,-0.96875 0.0487,-0.295596 0.09704,-0.596915 0.1875,-0.875 C 6.29113,10.12587 6.302142,10.09265 6.3125,10.0625 6.411365,9.774729 6.5473802,9.515048 6.6875,9.25 6.8320918,8.976493 7.0031161,8.714385 7.1875,8.46875 7.3718839,8.223115 7.5612765,7.995278 7.78125,7.78125 8.221197,7.353194 8.72416,6.966724 9.28125,6.6875 9.559795,6.547888 9.8547231,6.440553 10.15625,6.34375 9.9000482,6.443972 9.6695391,6.580022 9.4375,6.71875 c -0.00741,0.0044 -0.023866,-0.0045 -0.03125,0 -0.031933,0.0193 -0.062293,0.04251 -0.09375,0.0625 -0.120395,0.0767 -0.2310226,0.163513 -0.34375,0.25 -0.1061728,0.0808 -0.2132809,0.161112 -0.3125,0.25 C 8.4783201,7.442683 8.3087904,7.626638 8.15625,7.8125 8.0486711,7.942755 7.9378561,8.077785 7.84375,8.21875 7.818661,8.25713 7.805304,8.30462 7.78125,8.34375 7.716487,8.446782 7.6510225,8.548267 7.59375,8.65625 7.4927417,8.850956 7.3880752,9.071951 7.3125,9.28125 7.30454,9.30306 7.288911,9.3218 7.28125,9.34375 7.2494249,9.4357 7.2454455,9.530581 7.21875,9.625 7.1884177,9.731618 7.1483606,9.828031 7.125,9.9375 7.0521214,10.279012 7,10.635705 7,11 l 0,2 0,68 0,2 c 0,2.781848 2.2181517,5 5,5 l 2,0 68,0 2,0 c 2.781848,0 5,-2.218152 5,-5 l 0,-2 0,-68 0,-2 C 89,10.635705 88.94788,10.279012 88.875,9.9375 88.83085,9.730607 88.78662,9.539842 88.71875,9.34375 88.71105,9.3218 88.69545,9.30306 88.6875,9.28125 88.62476,9.107511 88.549117,8.913801 88.46875,8.75 88.42717,8.6672 88.38971,8.580046 88.34375,8.5 88.28915,8.40279 88.216976,8.31165 88.15625,8.21875 88.06214,8.077785 87.951329,7.942755 87.84375,7.8125 87.700576,7.63805 87.540609,7.465502 87.375,7.3125 87.36383,7.3023 87.35502,7.29135 87.34375,7.28125 87.205364,7.155694 87.058659,7.046814 86.90625,6.9375 86.803679,6.86435 86.701932,6.784136 86.59375,6.71875 c -0.0074,-0.0045 -0.02384,0.0044 -0.03125,0 -0.232039,-0.138728 -0.462548,-0.274778 -0.71875,-0.375 0.301527,0.0968 0.596455,0.204138 0.875,0.34375 0.55709,0.279224 1.060053,0.665694 1.5,1.09375 0.219973,0.214028 0.409366,0.441865 0.59375,0.6875 0.184384,0.245635 0.355408,0.507743 0.5,0.78125 0.14012,0.265048 0.276135,0.524729 0.375,0.8125 0.01041,0.03078 0.02133,0.06274 0.03125,0.09375 0.09046,0.278085 0.1388,0.579404 0.1875,0.875 C 89.95865,11.3493 90,11.665279 90,12 l 0,2 0,68 0,2 c 0,3.324 -2.676,6 -6,6 l -72,0 z"
       inkscape:connector-curvature="0"
       id="path3615"
       style="opacity:0.6;fill:url(#radialGradient3619);fill-opacity:1;fill-rule:nonzero;stroke:none" />
    <rect
       width="84"
       height="84"
       rx="6"
       ry="6"
       x="6"
       y="106"
       id="rect2841"
       style="fill:url(#linearGradient2843);fill-opacity:1;fill-rule:nonzero;stroke:none" />
    <rect
       width="76"
       height="76"
       rx="4"
       ry="4"
       x="10"
       y="110"
       id="rect3634"
       style="fill:#ff0000;fill-opacity:1;fill-rule:nonzero;stroke:none" />
    <path
       d="m 14,9 c -2.752703,0 -5,2.247297 -5,5 l 0,68 c 0,2.752703 2.247297,5 5,5 l 68,0 c 2.752703,0 5,-2.247297 5,-5 L 87,14 C 87,11.247297 84.752703,9 82,9 L 14,9 z m 0,2 68,0 c 1.679297,0 3,1.320703 3,3 l 0,68 c 0,1.679297 -1.320703,3 -3,3 l -68,0 c -1.679297,0 -3,-1.320703 -3,-3 l 0,-68 c 0,-1.679297 1.320703,-3 3,-3 z"
       inkscape:connector-curvature="0"
       transform="translate(-110,0)"
       clip-path="url(#clipPath3649)"
       id="rect3647"
       style="font-size:medium;font-style:normal;font-variant:normal;font-weight:normal;font-stretch:normal;text-indent:0;text-align:start;text-decoration:none;line-height:normal;letter-spacing:normal;word-spacing:normal;text-transform:none;direction:ltr;block-progression:tb;writing-mode:lr-tb;text-anchor:start;color:#000000;fill:#000000;fill-opacity:1;stroke:none;stroke-width:2;marker:none;visibility:visible;display:inline;overflow:visible;filter:url(#filter3657);enable-background:accumulate;font-family:Abandoned Bitplane;-inkscape-font-specification:Abandoned Bitplane" />
    <path
       d="m 14.089286,10 c -2.216,0 -4,1.784 -4,4 l 0,68 c 0,2.216 1.784,4 4,4 l 68,0 c 2.216,0 4,-1.784 4,-4 l 0,-68 c 0,-2.216 -1.784,-4 -4,-4 l -68,0 z m 0,2 68,0 c 1.140301,0 2,0.859699 2,2 l 0,68 c 0,1.140301 -0.859699,2 -2,2 l -68,0 c -1.140301,0 -2,-0.859699 -2,-2 l 0,-68 c 0,-1.140301 0.859699,-2 2,-2 z"
       inkscape:connector-curvature="0"
       id="path3709"
       style="opacity:0.16000001;fill:#000000;fill-opacity:1;fill-rule:nonzero;stroke:none" />
    <path
       d="m 14,10 c -2.216,0 -4,1.784 -4,4 l 0,68 c 0,2.216 1.784,4 4,4 l 68,0 c 2.216,0 4,-1.784 4,-4 l 0,-68 c 0,-2.216 -1.784,-4 -4,-4 l -68,0 z m 0,1 68,0 c 1.673848,0 3,1.326152 3,3 l 0,68 c 0,1.673848 -1.326152,3 -3,3 l -68,0 c -1.673848,0 -3,-1.326152 -3,-3 l 0,-68 c 0,-1.673848 1.326152,-3 3,-3 z"
       inkscape:connector-curvature="0"
       id="path3707"
       style="opacity:0.36000001;fill:#000000;fill-opacity:1;fill-rule:nonzero;stroke:none" />
  </g>
  <g
     id="layer5"
     style="display:none"
     transform="translate(0,160)">
    <rect
       width="66"
       height="66"
       rx="12"
       ry="12"
       x="15"
       y="15"
       clip-path="url(#clipPath3613)"
       id="rect3171"
       style="opacity:0.1;fill:url(#linearGradient3613);fill-opacity:1;fill-rule:nonzero;stroke:#ffffff;stroke-width:0.5;stroke-linecap:round;stroke-linejoin:miter;stroke-miterlimit:4;stroke-opacity:1;stroke-dasharray:none;stroke-dashoffset:0;filter:url(#filter3794)" />
  </g>
  <g
     id="g3821"
     transform="translate(-2.5850177,1.5687318)">
    <path
       d="m 98.147806,9.4312735 c -21.876359,0 -43.867942,8.2242965 -60.545594,24.8440875 -33.3562611,33.240532 -33.3562571,87.592029 0,120.832609 28.162214,28.06456 71.284218,32.39398 104.155368,12.98668 1.85777,0.11925 3.81416,0.13596 5.22188,0.42325 0.6005,0.12242 1.04782,0.38351 1.55245,0.56464 8.5e-4,0.87998 -0.0221,2.0416 0,3.95247 0.0491,4.20281 1.53594,10.15929 5.64527,15.3864 0.0262,0.0316 -0.0266,0.10795 0,0.14093 a 4.5366931,4.5375825 0 0 0 0.14114,0.28232 4.5366931,4.5375825 0 0 0 1.12905,2.25855 l 46.8558,47.42962 a 4.5366931,4.5375825 0 0 0 0.4234,0.28232 4.5366931,4.5375825 0 0 0 0.70566,0.42326 c 0.5175,0.46006 1.08742,1.0967 1.97584,1.69391 1.85215,1.24505 4.61755,2.68976 8.04452,3.24667 7.017,1.1403 15.86028,-1.49543 24.13356,-9.74001 8.28434,-8.2556 10.89767,-17.1225 9.7381,-24.13829 -1.08554,-6.56792 -5.02791,-10.27439 -5.64527,-10.86929 -0.009,-0.009 0.007,-0.13416 0,-0.14093 l 0,-0.14094 -46.57354,-47.1473 c -0.29748,-0.32884 -0.32535,-0.33969 -0.14113,-0.14093 -5.76785,-6.21084 -13.59216,-6.99655 -18.34715,-7.05798 -1.8584,-0.0226 -2.90342,-0.003 -3.81056,0 -0.15044,-0.45795 -0.31691,-0.86245 -0.4234,-1.4116 -0.27856,-1.43635 -0.4443,-3.37848 -0.56453,-5.2229 C 191.30544,105.39034 187.00506,62.348142 158.83454,34.275361 142.13776,17.636508 120.0227,9.4312735 98.147806,9.4312735 z m 0.28226,43.4771535 c 23.287294,0 42.057324,18.653213 42.057324,41.783239 0,23.130024 -18.77001,41.783234 -42.057324,41.783234 -23.289048,0 -41.916176,-18.61983 -41.916176,-41.783234 0,-11.547758 4.847798,-22.097958 12.419609,-29.643514 C 76.522806,57.48516 86.704338,52.908427 98.430066,52.908427 z M 35.202969,199.14976 c -12.409411,0 -22.581107,10.1737 -22.581107,22.58553 0,12.41184 10.171696,22.58554 22.581107,22.58554 12.409412,0 22.581108,-10.1737 22.581108,-22.58554 0,-12.41183 -10.171696,-22.58553 -22.581108,-22.58553 z m 22.581108,22.58553 c 0,12.41184 10.171696,22.58554 22.581108,22.58554 12.409411,0 22.581115,-10.1737 22.581115,-22.58554 0,-12.41183 -10.171704,-22.58553 -22.581115,-22.58553 -12.409412,0 -22.581108,10.1737 -22.581108,22.58553 z m 45.162223,0 c 0,12.41184 10.17169,22.58554 22.5811,22.58554 12.40942,0 22.58111,-10.1737 22.58111,-22.58554 0,-12.41183 -10.17169,-22.58553 -22.58111,-22.58553 -12.40941,0 -22.5811,10.1737 -22.5811,22.58553 z"
       id="path3931"
       style="opacity:0.1;fill:#000000;fill-opacity:1;stroke:none;display:inline"
       inkscape:connector-curvature="0" />
    <path
       d="m 98.147806,13.94838 c -20.735219,0 -41.496894,7.825798 -57.29956,23.573652 -31.6105881,31.500948 -31.6105831,82.838318 0,114.339268 27.108864,27.01483 68.775534,30.94385 100.062534,11.57508 2.20849,0.13823 4.6978,0.25296 6.91547,0.7058 2.62537,0.53605 4.64796,1.66492 4.79848,1.83508 0.0532,0.0601 0.31311,0.44629 0.4234,1.69391 0.11028,1.24781 -0.0253,3.19658 0,5.36407 0.0498,4.2594 0.98071,10.17749 5.78641,14.68059 l -0.14113,0.14094 46.85579,47.42962 0.14114,0 c 0.12099,0.12512 3.21653,3.52257 8.46791,4.37595 5.35213,0.86972 12.68881,-1.00253 20.18187,-8.46958 7.49131,-7.46533 9.35063,-14.84506 8.46791,-20.18582 -0.8538,-5.16585 -4.01998,-8.26427 -4.23396,-8.46958 l -0.14113,-0.14093 -46.71466,-47.28846 c -0.0494,-0.0547 -0.0914,-0.0876 -0.14114,-0.14094 -4.53271,-4.88082 -10.64715,-5.59068 -14.95998,-5.64638 -2.1801,-0.0271 -4.09796,0.11202 -5.36301,0 -1.26506,-0.11202 -1.63404,-0.37131 -1.69359,-0.42325 -0.16195,-0.14229 -1.19143,-2.06924 -1.69358,-4.65827 -0.42416,-2.18696 -0.57446,-4.69314 -0.70566,-6.91682 C 186.60379,106.13278 182.70169,64.541604 155.5885,37.522484 139.77572,21.764105 118.88303,13.94838 98.147806,13.94838 z m 0.28226,34.442941 c 25.721254,0 46.573544,20.705559 46.573544,46.300345 0,25.594824 -20.85227,46.300344 -46.573544,46.300344 -25.721227,0 -46.432398,-20.69034 -46.432398,-46.300344 0,-12.79877 5.292479,-24.522018 13.689797,-32.890184 C 74.090089,53.427985 85.52434,48.391321 98.430066,48.391321 z M 35.202969,203.66687 c -9.934368,0 -18.064886,8.1321 -18.064886,18.06842 0,9.93633 8.130518,18.06843 18.064886,18.06843 9.934369,0 18.064887,-8.1321 18.064887,-18.06843 0,-9.93632 -8.130518,-18.06842 -18.064887,-18.06842 z m 45.162216,0 c -9.934369,0 -18.064886,8.1321 -18.064886,18.06842 0,9.93633 8.130517,18.06843 18.064886,18.06843 9.934368,0 18.064881,-8.1321 18.064881,-18.06843 0,-9.93632 -8.130513,-18.06842 -18.064881,-18.06842 z m 45.162215,0 c -9.93436,0 -18.06488,8.1321 -18.06488,18.06842 0,9.93633 8.13052,18.06843 18.06488,18.06843 9.93437,0 18.06489,-8.1321 18.06489,-18.06843 0,-9.93632 -8.13052,-18.06842 -18.06489,-18.06842 z"
       id="path3927"
       style="opacity:0.15;fill:#000000;fill-opacity:1;stroke:none;display:inline"
       inkscape:connector-curvature="0" />
    <path
       d="m 98.147806,18.465487 c -19.59014,0 -39.117396,7.418897 -54.053525,22.303216 -29.872254,29.768638 -29.87225,78.077287 0,107.845927 26.041928,25.95159 66.158399,29.45984 95.828579,10.16349 5.04328,0.25205 13.19914,0.9677 16.08904,4.23478 3.93487,4.44841 -1.61886,14.81765 5.92754,21.59742 l 46.8558,47.57078 c 0,0 8.73853,9.2785 22.29884,-4.23478 13.56032,-13.51329 4.23396,-22.16206 4.23396,-22.16206 l -46.99693,-47.57078 c -6.80338,-7.52022 -17.27042,-2.00749 -21.73432,-5.9287 -3.27845,-2.87989 -3.83986,-10.92526 -4.09282,-15.95104 19.36354,-29.56726 15.88044,-69.613445 -10.1615,-95.565037 C 137.40634,25.884384 117.73795,18.465487 98.147806,18.465487 z m 0.28226,25.408727 c 28.163844,0 51.089764,22.751312 51.089764,50.817452 0,28.066134 -22.92591,50.817454 -51.089764,50.817454 -28.163808,0 -50.948619,-22.75132 -50.948619,-50.817454 0,-14.03307 5.725101,-26.934017 14.959983,-36.136855 9.234883,-9.202837 21.906728,-14.680597 35.988636,-14.680597 z M 35.202969,208.18397 c -7.482719,0 -13.548664,6.06716 -13.548664,13.55132 0,7.48417 6.065945,13.55133 13.548664,13.55133 7.48272,0 13.548665,-6.06716 13.548665,-13.55133 0,-7.48416 -6.065945,-13.55132 -13.548665,-13.55132 z m 45.162216,0 c -7.48272,0 -13.548665,6.06716 -13.548665,13.55132 0,7.48417 6.065945,13.55133 13.548665,13.55133 7.482719,0 13.548661,-6.06716 13.548661,-13.55133 0,-7.48416 -6.065942,-13.55132 -13.548661,-13.55132 z m 45.162215,0 c -7.48272,0 -13.54866,6.06716 -13.54866,13.55132 0,7.48417 6.06594,13.55133 13.54866,13.55133 7.48272,0 13.54867,-6.06716 13.54867,-13.55133 0,-7.48416 -6.06595,-13.55132 -13.54867,-13.55132 z"
       inkscape:connector-curvature="0"
       id="path3921"
       style="opacity:0.3;fill:#000000;fill-opacity:1;stroke:none;display:inline" />
    <path
       d="m 98.147806,13.94838 c -19.59014,0 -39.117396,7.418897 -54.053525,22.303216 -29.872254,29.768638 -29.87225,78.077284 0,107.845924 26.041928,25.95159 66.158399,29.45985 95.828579,10.16349 5.04328,0.25205 13.19914,0.9677 16.08904,4.23479 3.93487,4.4484 -1.61886,14.81764 5.92754,21.59742 l 46.8558,47.57078 c 0,0 8.73853,9.2785 22.29884,-4.23479 13.56032,-13.51329 4.23396,-22.16206 4.23396,-22.16206 l -46.99693,-47.57078 c -6.80338,-7.52021 -17.27042,-2.00749 -21.73432,-5.9287 -3.27845,-2.87988 -3.83986,-10.92526 -4.09282,-15.95104 19.36354,-29.56726 15.88044,-69.613442 -10.1615,-95.565034 C 137.40634,21.367277 117.73795,13.94838 98.147806,13.94838 z m 0.28226,25.408727 c 28.163844,0 51.089764,22.751312 51.089764,50.817452 0,28.066141 -22.92591,50.817451 -51.089764,50.817451 -28.163808,0 -50.948619,-22.75131 -50.948619,-50.817451 0,-14.03307 5.725101,-26.934017 14.959983,-36.136855 9.234883,-9.202837 21.906728,-14.680597 35.988636,-14.680597 z M 35.202969,203.66687 c -7.482719,0 -13.548664,6.06715 -13.548664,13.55132 0,7.48417 6.065945,13.55132 13.548664,13.55132 7.48272,0 13.548665,-6.06715 13.548665,-13.55132 0,-7.48417 -6.065945,-13.55132 -13.548665,-13.55132 z m 45.162216,0 c -7.48272,0 -13.548665,6.06715 -13.548665,13.55132 0,7.48417 6.065945,13.55132 13.548665,13.55132 7.482719,0 13.548661,-6.06715 13.548661,-13.55132 0,-7.48417 -6.065942,-13.55132 -13.548661,-13.55132 z m 45.162215,0 c -7.48272,0 -13.54866,6.06715 -13.54866,13.55132 0,7.48417 6.06594,13.55132 13.54866,13.55132 7.48272,0 13.54867,-6.06715 13.54867,-13.55132 0,-7.48417 -6.06595,-13.55132 -13.54867,-13.55132 z"
       inkscape:connector-curvature="0"
       id="Symbol"
       style="fill:url(#linearGradient3829);fill-opacity:1;stroke:none;display:inline" />
    <path
       d="m 98.147806,13.94838 c -19.59014,0 -39.117396,7.418897 -54.053525,22.303216 C 28.58353,51.708548 21.198704,72.169959 21.795437,92.433113 22.347956,73.671355 29.732777,55.080388 44.094281,40.768703 59.03041,25.884384 78.557666,18.465487 98.147806,18.465487 c 19.590144,0 39.258534,7.418897 54.194664,22.303216 14.25151,14.202055 21.74771,32.624082 22.43997,51.240931 C 175.22783,71.877024 167.75025,51.60592 152.34247,36.251596 137.40634,21.367277 117.73795,13.94838 98.147806,13.94838 z M 47.622579,92.433113 c -0.03297,0.751872 -0.141132,1.499679 -0.141132,2.258553 0,28.066134 22.784811,50.817454 50.948619,50.817454 28.163854,0 51.089764,-22.75132 51.089764,-50.817454 0,-0.758874 -0.10794,-1.507765 -0.14113,-2.258553 -1.1937,27.015227 -23.54631,48.558897 -50.948634,48.558897 -27.402278,0 -49.621013,-21.54367 -50.807487,-48.558897 z M 162.78623,136.05142 c -0.0706,0.10886 -0.21109,0.17346 -0.28226,0.28232 0.25295,5.02578 0.81437,13.07115 4.09282,15.95104 4.4639,3.92121 14.93094,-1.59152 21.73432,5.9287 l 46.99693,47.57078 c 0,0 2.29445,2.16586 2.96377,5.9287 1.27854,-6.59041 -2.96377,-10.44581 -2.96377,-10.44581 l -46.99693,-47.57078 c -6.80338,-7.52021 -17.27042,-2.00749 -21.73432,-5.9287 -2.45884,-2.1599 -3.39227,-7.19824 -3.81056,-11.71625 z M 35.202969,203.66687 c -7.482719,0 -13.548664,6.06715 -13.548664,13.55132 0,0.78941 0.152738,1.50609 0.282264,2.25855 1.098417,-6.38109 6.572954,-11.29277 13.2664,-11.29277 6.693447,0 12.167984,4.91168 13.266401,11.29277 0.129521,-0.75246 0.282264,-1.46914 0.282264,-2.25855 0,-7.48417 -6.065945,-13.55132 -13.548665,-13.55132 z m 45.162216,0 c -7.48272,0 -13.548665,6.06715 -13.548665,13.55132 0,0.78941 0.152739,1.50609 0.282264,2.25855 1.098417,-6.38109 6.572954,-11.29277 13.266401,-11.29277 6.693446,0 12.167981,4.91168 13.266401,11.29277 0.12952,-0.75246 0.28226,-1.46914 0.28226,-2.25855 0,-7.48417 -6.065942,-13.55132 -13.548661,-13.55132 z m 45.162215,0 c -7.48272,0 -13.54866,6.06715 -13.54866,13.55132 0,0.78941 0.15274,1.50609 0.28226,2.25855 1.09842,-6.38109 6.57296,-11.29277 13.2664,-11.29277 6.69345,0 12.16799,4.91168 13.2664,11.29277 0.12953,-0.75246 0.28227,-1.46914 0.28227,-2.25855 0,-7.48417 -6.06595,-13.55132 -13.54867,-13.55132 z"
       inkscape:connector-curvature="0"
       id="path3903"
       style="opacity:0.75;fill:#ffffff;fill-opacity:1;stroke:none;display:inline" />
    <path
       d="m 98.430066,34.84 c -14.081908,0 -26.753753,5.47776 -35.988636,14.680597 -9.234882,9.202838 -14.959983,22.103785 -14.959983,36.136856 0,0.758874 0.108163,1.507765 0.141132,2.258553 0.579598,-13.151241 6.083377,-25.173159 14.818851,-33.878302 9.234883,-9.202837 21.906728,-14.680597 35.988636,-14.680597 27.402314,0 49.754934,21.543709 50.948634,48.558899 0.033,-0.750788 0.14113,-1.499679 0.14113,-2.258553 C 149.51983,57.591312 126.59391,34.84 98.430066,34.84 z m 76.352374,52.652527 c -0.30737,13.895163 -4.37141,27.733273 -12.27847,39.807003 0.0611,1.21474 0.15107,2.64165 0.28226,4.09363 8.57461,-13.28888 12.56283,-28.66285 11.99621,-43.900633 z M 21.795437,87.91578 c -0.596733,20.26316 6.788093,40.72456 22.298844,56.18151 26.041928,25.9516 66.158399,29.45985 95.828579,10.16349 5.04328,0.25206 13.19914,0.9677 16.08904,4.23479 0.98372,1.11211 1.40186,2.53116 1.55245,4.23479 0.014,-3.5331 0.21822,-6.75009 -1.55245,-8.7519 -2.8899,-3.26708 -11.04576,-3.98264 -16.08904,-4.23478 -29.67018,19.29636 -69.786651,15.7881 -95.828579,-10.16349 C 29.732782,125.2685 22.347956,106.67754 21.795437,87.91578 z m 135.768913,75.94386 c 0.1923,5.00147 -0.90739,11.4875 4.37509,16.23335 l 46.8558,47.57078 c 0,0 8.73853,9.2785 22.29884,-4.23479 6.78016,-6.75664 7.83428,-12.24081 7.19773,-16.09219 -0.66419,3.24807 -2.75927,7.15203 -7.19773,11.57509 -13.56031,13.51328 -22.29884,4.23478 -22.29884,4.23478 l -46.8558,-47.57078 c -3.7732,-3.38991 -4.32836,-7.72041 -4.37509,-11.71624 z M 21.936569,214.95963 c -0.129521,0.75242 -0.282264,1.46915 -0.282264,2.25856 0,7.48417 6.065945,13.55132 13.548664,13.55132 7.48272,0 13.548665,-6.06715 13.548665,-13.55132 0,-0.78941 -0.152739,-1.50614 -0.282264,-2.25856 -1.098417,6.3811 -6.572954,11.29277 -13.266401,11.29277 -6.693446,0 -12.167983,-4.91167 -13.2664,-11.29277 z m 45.162215,0 c -0.129521,0.75242 -0.282264,1.46915 -0.282264,2.25856 0,7.48417 6.065945,13.55132 13.548665,13.55132 7.482719,0 13.548661,-6.06715 13.548661,-13.55132 0,-0.78941 -0.15274,-1.50614 -0.28226,-2.25856 -1.09842,6.3811 -6.572955,11.29277 -13.266401,11.29277 -6.693447,0 -12.167984,-4.91167 -13.266401,-11.29277 z m 45.162216,0 c -0.12952,0.75242 -0.28226,1.46915 -0.28226,2.25856 0,7.48417 6.06594,13.55132 13.54866,13.55132 7.48272,0 13.54867,-6.06715 13.54867,-13.55132 0,-0.78941 -0.15274,-1.50614 -0.28227,-2.25856 -1.09841,6.3811 -6.57295,11.29277 -13.2664,11.29277 -6.69344,0 -12.16798,-4.91167 -13.2664,-11.29277 z"
       inkscape:connector-curvature="0"
       id="path3912"
       style="opacity:0.15;fill:#000000;fill-opacity:1;stroke:none;display:inline" />
  </g>
</svg>
