<?xml version="1.0" encoding="UTF-8" standalone="no"?>
<!-- Created with Inkscape (http://www.inkscape.org/) -->

<svg
   xmlns:dc="http://purl.org/dc/elements/1.1/"
   xmlns:cc="http://creativecommons.org/ns#"
   xmlns:rdf="http://www.w3.org/1999/02/22-rdf-syntax-ns#"
   xmlns:svg="http://www.w3.org/2000/svg"
   xmlns="http://www.w3.org/2000/svg"
   xmlns:xlink="http://www.w3.org/1999/xlink"
   xmlns:sodipodi="http://sodipodi.sourceforge.net/DTD/sodipodi-0.dtd"
   xmlns:inkscape="http://www.inkscape.org/namespaces/inkscape"
   version="1.0"
   width="256"
   height="256"
   id="svg2408"
   inkscape:version="0.48.2 r9819"
   sodipodi:docname="edit-cut.svg">
  <sodipodi:namedview
     pagecolor="#ffffff"
     bordercolor="#666666"
     borderopacity="1"
     objecttolerance="10"
     gridtolerance="10"
     guidetolerance="10"
     inkscape:pageopacity="0"
     inkscape:pageshadow="2"
     inkscape:window-width="1024"
     inkscape:window-height="572"
     id="namedview93"
     showgrid="false"
     inkscape:zoom="1.6289062"
     inkscape:cx="117.25659"
     inkscape:cy="128"
     inkscape:window-x="0"
     inkscape:window-y="28"
     inkscape:window-maximized="1"
     inkscape:current-layer="svg2408" />
  <defs
     id="defs2410">
    <linearGradient
       id="linearGradient3637">
      <stop
         id="stop3639"
         style="stop-color:#5a5a5a;stop-opacity:1;"
         offset="0" />
      <stop
         id="stop3641"
         style="stop-color:#000000;stop-opacity:1;"
         offset="1" />
    </linearGradient>
    <linearGradient
       x1="45.447727"
       y1="92.539597"
       x2="45.447727"
       y2="7.0165396"
       id="ButtonShadow"
       gradientUnits="userSpaceOnUse"
       gradientTransform="scale(1.0058652,0.994169)">
      <stop
         id="stop3750"
         style="stop-color:#000000;stop-opacity:1"
         offset="0" />
      <stop
         id="stop3752"
         style="stop-color:#000000;stop-opacity:0.58823532"
         offset="1" />
    </linearGradient>
    <linearGradient
       id="linearGradient3737">
      <stop
         id="stop3739"
         style="stop-color:#ffffff;stop-opacity:1"
         offset="0" />
      <stop
         id="stop3741"
         style="stop-color:#ffffff;stop-opacity:0"
         offset="1" />
    </linearGradient>
    <linearGradient
       id="linearGradient3700">
      <stop
         id="stop3702"
         style="stop-color:#2276c5;stop-opacity:1"
         offset="0" />
      <stop
         id="stop3704"
         style="stop-color:#68baf4;stop-opacity:1"
         offset="1" />
    </linearGradient>
    <filter
       color-interpolation-filters="sRGB"
       id="filter3174">
      <feGaussianBlur
         id="feGaussianBlur3176"
         stdDeviation="1.71" />
    </filter>
    <linearGradient
       x1="36.357143"
       y1="6"
       x2="36.357143"
       y2="63.893143"
       id="linearGradient3188"
       xlink:href="#linearGradient3737"
       gradientUnits="userSpaceOnUse" />
    <filter
       x="-0.192"
       y="-0.192"
       width="1.3839999"
       height="1.3839999"
       color-interpolation-filters="sRGB"
       id="filter3794">
      <feGaussianBlur
         id="feGaussianBlur3796"
         stdDeviation="5.28" />
    </filter>
    <linearGradient
       x1="48"
       y1="20.220806"
       x2="48"
       y2="138.66119"
       id="linearGradient3613"
       xlink:href="#linearGradient3737"
       gradientUnits="userSpaceOnUse" />
    <radialGradient
       cx="48"
       cy="90.171875"
       r="42"
       fx="48"
       fy="90.171875"
       id="radialGradient3619"
       xlink:href="#linearGradient3737"
       gradientUnits="userSpaceOnUse"
       gradientTransform="matrix(1.1573129,0,0,0.99590774,-7.5510206,0.19713193)" />
    <clipPath
       id="clipPath3613">
      <rect
         width="84"
         height="84"
         rx="6"
         ry="6"
         x="6"
         y="6"
         id="rect3615"
         style="fill:#ffffff;fill-opacity:1;fill-rule:nonzero;stroke:none" />
    </clipPath>
    <linearGradient
       x1="48"
       y1="90"
       x2="48"
       y2="5.9877172"
       id="linearGradient2843"
       xlink:href="#linearGradient3700"
       gradientUnits="userSpaceOnUse"
       gradientTransform="translate(0,100)" />
    <clipPath
       id="clipPath3625">
      <path
         d="M 0,0 0,96 96,96 96,0 0,0 z m 12,6 72,0 c 3.324,0 6,2.676 6,6 l 0,72 c 0,3.324 -2.676,6 -6,6 L 12,90 C 8.676,90 6,87.324 6,84 L 6,12 C 6,8.676 8.676,6 12,6 z"
         inkscape:connector-curvature="0"
         id="path3627"
         style="fill:#ffffff;fill-opacity:1;stroke:none" />
    </clipPath>
    <linearGradient
       x1="44.512066"
       y1="6"
       x2="44.512066"
       y2="90.015434"
       id="linearGradient3643"
       xlink:href="#linearGradient3637"
       gradientUnits="userSpaceOnUse" />
    <clipPath
       id="clipPath3649">
      <rect
         width="76"
         height="76"
         rx="4"
         ry="4"
         x="10"
         y="10"
         id="rect3651"
         style="fill:#ffffff;fill-opacity:1;fill-rule:nonzero;stroke:none" />
    </clipPath>
    <filter
       color-interpolation-filters="sRGB"
       id="filter3657">
      <feGaussianBlur
         id="feGaussianBlur3659"
         stdDeviation="1.14" />
    </filter>
    <linearGradient
       inkscape:collect="always"
       xlink:href="#linearGradient3637"
       id="linearGradient3761"
       gradientUnits="userSpaceOnUse"
       gradientTransform="matrix(-10.814767,0,0,12.841002,628.86217,7.7407219)"
       x1="46.069901"
       y1="0.92127591"
       x2="46.069901"
       y2="17.478098" />
  </defs>
  <metadata
     id="metadata2413">
    <rdf:RDF>
      <cc:Work
         rdf:about="">
        <dc:format>image/svg+xml</dc:format>
        <dc:type
           rdf:resource="http://purl.org/dc/dcmitype/StillImage" />
        <dc:title></dc:title>
      </cc:Work>
    </rdf:RDF>
  </metadata>
  <g
     id="layer2"
     style="display:none"
     transform="translate(0,160)">
    <rect
       width="86"
       height="85"
       rx="6"
       ry="6"
       x="5"
       y="7"
       clip-path="url(#clipPath3625)"
       id="rect3745"
       style="opacity:0.9;fill:url(#ButtonShadow);fill-opacity:1;fill-rule:nonzero;stroke:none;filter:url(#filter3174)" />
  </g>
  <g
     id="layer1"
     style="display:none"
     transform="translate(0,160)">
    <rect
       width="84"
       height="84"
       rx="6"
       ry="6"
       x="6"
       y="6"
       id="rect2419"
       style="opacity:0.8;fill:#000000;fill-opacity:1;fill-rule:nonzero;stroke:none" />
    <path
       d="m 14,10 c -2.216,0 -4,1.784 -4,4 l 0,68 c 0,2.216 1.784,4 4,4 l 68,0 c 2.216,0 4,-1.784 4,-4 l 0,-68 c 0,-2.216 -1.784,-4 -4,-4 l -68,0 z m 0,3.0625 68,0 c 0.578769,0 0.9375,0.358731 0.9375,0.9375 l 0,68 c 0,0.578769 -0.358731,0.9375 -0.9375,0.9375 l -68,0 c -0.578769,0 -0.9375,-0.358731 -0.9375,-0.9375 l 0,-68 c 0,-0.578769 0.358731,-0.9375 0.9375,-0.9375 z"
       inkscape:connector-curvature="0"
       id="rect3726"
       style="opacity:0.07999998;fill:#000000;fill-opacity:1;fill-rule:nonzero;stroke:none" />
    <path
       d="M 12,6 C 8.676,6 6,8.676 6,12 l 0,72 c 0,3.324 2.676,6 6,6 l 72,0 c 3.324,0 6,-2.676 6,-6 L 90,12 C 90,8.676 87.324,6 84,6 L 12,6 z m 2,4 68,0 c 2.216,0 4,1.784 4,4 l 0,68 c 0,2.216 -1.784,4 -4,4 l -68,0 c -2.216,0 -4,-1.784 -4,-4 l 0,-68 c 0,-2.216 1.784,-4 4,-4 z"
       inkscape:connector-curvature="0"
       id="rect3629"
       style="fill:url(#linearGradient3643);fill-opacity:1;fill-rule:nonzero;stroke:none" />
    <path
       d="M 12,6 C 8.676,6 6,8.676 6,12 l 0,2 0,68 0,2 c 0,0.334721 0.04135,0.6507 0.09375,0.96875 0.0487,0.295596 0.09704,0.596915 0.1875,0.875 0.00988,0.03038 0.020892,0.0636 0.03125,0.09375 0.098865,0.287771 0.2348802,0.547452 0.375,0.8125 0.1445918,0.273507 0.3156161,0.535615 0.5,0.78125 0.1843839,0.245635 0.3737765,0.473472 0.59375,0.6875 0.439947,0.428056 0.94291,0.814526 1.5,1.09375 0.278545,0.139612 0.5734731,0.246947 0.875,0.34375 -0.2562018,-0.100222 -0.4867109,-0.236272 -0.71875,-0.375 -0.00741,-0.0044 -0.023866,0.0045 -0.03125,0 -0.031933,-0.0193 -0.062293,-0.04251 -0.09375,-0.0625 -0.120395,-0.0767 -0.2310226,-0.163513 -0.34375,-0.25 -0.1061728,-0.0808 -0.2132809,-0.161112 -0.3125,-0.25 C 8.4783201,88.557317 8.3087904,88.373362 8.15625,88.1875 8.0486711,88.057245 7.9378561,87.922215 7.84375,87.78125 7.818661,87.74287 7.805304,87.69538 7.78125,87.65625 7.716487,87.553218 7.6510225,87.451733 7.59375,87.34375 7.4927417,87.149044 7.3880752,86.928049 7.3125,86.71875 7.30454,86.69694 7.288911,86.6782 7.28125,86.65625 7.2494249,86.5643 7.2454455,86.469419 7.21875,86.375 7.1884177,86.268382 7.1483606,86.171969 7.125,86.0625 7.0521214,85.720988 7,85.364295 7,85 L 7,83 7,15 7,13 C 7,10.218152 9.2181517,8 12,8 l 2,0 68,0 2,0 c 2.781848,0 5,2.218152 5,5 l 0,2 0,68 0,2 c 0,0.364295 -0.05212,0.720988 -0.125,1.0625 -0.04415,0.206893 -0.08838,0.397658 -0.15625,0.59375 -0.0077,0.02195 -0.0233,0.04069 -0.03125,0.0625 -0.06274,0.173739 -0.138383,0.367449 -0.21875,0.53125 -0.04158,0.0828 -0.07904,0.169954 -0.125,0.25 -0.0546,0.09721 -0.126774,0.18835 -0.1875,0.28125 -0.09411,0.140965 -0.204921,0.275995 -0.3125,0.40625 -0.143174,0.17445 -0.303141,0.346998 -0.46875,0.5 -0.01117,0.0102 -0.01998,0.02115 -0.03125,0.03125 -0.138386,0.125556 -0.285091,0.234436 -0.4375,0.34375 -0.102571,0.07315 -0.204318,0.153364 -0.3125,0.21875 -0.0074,0.0045 -0.02384,-0.0044 -0.03125,0 -0.232039,0.138728 -0.462548,0.274778 -0.71875,0.375 0.301527,-0.0968 0.596455,-0.204138 0.875,-0.34375 0.55709,-0.279224 1.060053,-0.665694 1.5,-1.09375 0.219973,-0.214028 0.409366,-0.441865 0.59375,-0.6875 0.184384,-0.245635 0.355408,-0.507743 0.5,-0.78125 0.14012,-0.265048 0.276135,-0.524729 0.375,-0.8125 0.01041,-0.03078 0.02133,-0.06274 0.03125,-0.09375 0.09046,-0.278085 0.1388,-0.579404 0.1875,-0.875 C 89.95865,84.6507 90,84.334721 90,84 l 0,-2 0,-68 0,-2 C 90,8.676 87.324,6 84,6 L 12,6 z"
       inkscape:connector-curvature="0"
       id="rect3728"
       style="fill:url(#linearGradient3188);fill-opacity:1;fill-rule:nonzero;stroke:none" />
    <path
       d="M 12,90 C 8.676,90 6,87.324 6,84 L 6,82 6,14 6,12 c 0,-0.334721 0.04135,-0.6507 0.09375,-0.96875 0.0487,-0.295596 0.09704,-0.596915 0.1875,-0.875 C 6.29113,10.12587 6.302142,10.09265 6.3125,10.0625 6.411365,9.774729 6.5473802,9.515048 6.6875,9.25 6.8320918,8.976493 7.0031161,8.714385 7.1875,8.46875 7.3718839,8.223115 7.5612765,7.995278 7.78125,7.78125 8.221197,7.353194 8.72416,6.966724 9.28125,6.6875 9.559795,6.547888 9.8547231,6.440553 10.15625,6.34375 9.9000482,6.443972 9.6695391,6.580022 9.4375,6.71875 c -0.00741,0.0044 -0.023866,-0.0045 -0.03125,0 -0.031933,0.0193 -0.062293,0.04251 -0.09375,0.0625 -0.120395,0.0767 -0.2310226,0.163513 -0.34375,0.25 -0.1061728,0.0808 -0.2132809,0.161112 -0.3125,0.25 C 8.4783201,7.442683 8.3087904,7.626638 8.15625,7.8125 8.0486711,7.942755 7.9378561,8.077785 7.84375,8.21875 7.818661,8.25713 7.805304,8.30462 7.78125,8.34375 7.716487,8.446782 7.6510225,8.548267 7.59375,8.65625 7.4927417,8.850956 7.3880752,9.071951 7.3125,9.28125 7.30454,9.30306 7.288911,9.3218 7.28125,9.34375 7.2494249,9.4357 7.2454455,9.530581 7.21875,9.625 7.1884177,9.731618 7.1483606,9.828031 7.125,9.9375 7.0521214,10.279012 7,10.635705 7,11 l 0,2 0,68 0,2 c 0,2.781848 2.2181517,5 5,5 l 2,0 68,0 2,0 c 2.781848,0 5,-2.218152 5,-5 l 0,-2 0,-68 0,-2 C 89,10.635705 88.94788,10.279012 88.875,9.9375 88.83085,9.730607 88.78662,9.539842 88.71875,9.34375 88.71105,9.3218 88.69545,9.30306 88.6875,9.28125 88.62476,9.107511 88.549117,8.913801 88.46875,8.75 88.42717,8.6672 88.38971,8.580046 88.34375,8.5 88.28915,8.40279 88.216976,8.31165 88.15625,8.21875 88.06214,8.077785 87.951329,7.942755 87.84375,7.8125 87.700576,7.63805 87.540609,7.465502 87.375,7.3125 87.36383,7.3023 87.35502,7.29135 87.34375,7.28125 87.205364,7.155694 87.058659,7.046814 86.90625,6.9375 86.803679,6.86435 86.701932,6.784136 86.59375,6.71875 c -0.0074,-0.0045 -0.02384,0.0044 -0.03125,0 -0.232039,-0.138728 -0.462548,-0.274778 -0.71875,-0.375 0.301527,0.0968 0.596455,0.204138 0.875,0.34375 0.55709,0.279224 1.060053,0.665694 1.5,1.09375 0.219973,0.214028 0.409366,0.441865 0.59375,0.6875 0.184384,0.245635 0.355408,0.507743 0.5,0.78125 0.14012,0.265048 0.276135,0.524729 0.375,0.8125 0.01041,0.03078 0.02133,0.06274 0.03125,0.09375 0.09046,0.278085 0.1388,0.579404 0.1875,0.875 C 89.95865,11.3493 90,11.665279 90,12 l 0,2 0,68 0,2 c 0,3.324 -2.676,6 -6,6 l -72,0 z"
       inkscape:connector-curvature="0"
       id="path3615"
       style="opacity:0.6;fill:url(#radialGradient3619);fill-opacity:1;fill-rule:nonzero;stroke:none" />
    <rect
       width="84"
       height="84"
       rx="6"
       ry="6"
       x="6"
       y="106"
       id="rect2841"
       style="fill:url(#linearGradient2843);fill-opacity:1;fill-rule:nonzero;stroke:none" />
    <rect
       width="76"
       height="76"
       rx="4"
       ry="4"
       x="10"
       y="110"
       id="rect3634"
       style="fill:#ff0000;fill-opacity:1;fill-rule:nonzero;stroke:none" />
    <path
       d="m 14,9 c -2.752703,0 -5,2.247297 -5,5 l 0,68 c 0,2.752703 2.247297,5 5,5 l 68,0 c 2.752703,0 5,-2.247297 5,-5 L 87,14 C 87,11.247297 84.752703,9 82,9 L 14,9 z m 0,2 68,0 c 1.679297,0 3,1.320703 3,3 l 0,68 c 0,1.679297 -1.320703,3 -3,3 l -68,0 c -1.679297,0 -3,-1.320703 -3,-3 l 0,-68 c 0,-1.679297 1.320703,-3 3,-3 z"
       inkscape:connector-curvature="0"
       transform="translate(-110,0)"
       clip-path="url(#clipPath3649)"
       id="rect3647"
       style="font-size:medium;font-style:normal;font-variant:normal;font-weight:normal;font-stretch:normal;text-indent:0;text-align:start;text-decoration:none;line-height:normal;letter-spacing:normal;word-spacing:normal;text-transform:none;direction:ltr;block-progression:tb;writing-mode:lr-tb;text-anchor:start;color:#000000;fill:#000000;fill-opacity:1;stroke:none;stroke-width:2;marker:none;visibility:visible;display:inline;overflow:visible;filter:url(#filter3657);enable-background:accumulate;font-family:Abandoned Bitplane;-inkscape-font-specification:Abandoned Bitplane" />
    <path
       d="m 14.089286,10 c -2.216,0 -4,1.784 -4,4 l 0,68 c 0,2.216 1.784,4 4,4 l 68,0 c 2.216,0 4,-1.784 4,-4 l 0,-68 c 0,-2.216 -1.784,-4 -4,-4 l -68,0 z m 0,2 68,0 c 1.140301,0 2,0.859699 2,2 l 0,68 c 0,1.140301 -0.859699,2 -2,2 l -68,0 c -1.140301,0 -2,-0.859699 -2,-2 l 0,-68 c 0,-1.140301 0.859699,-2 2,-2 z"
       inkscape:connector-curvature="0"
       id="path3709"
       style="opacity:0.16000001;fill:#000000;fill-opacity:1;fill-rule:nonzero;stroke:none" />
    <path
       d="m 14,10 c -2.216,0 -4,1.784 -4,4 l 0,68 c 0,2.216 1.784,4 4,4 l 68,0 c 2.216,0 4,-1.784 4,-4 l 0,-68 c 0,-2.216 -1.784,-4 -4,-4 l -68,0 z m 0,1 68,0 c 1.673848,0 3,1.326152 3,3 l 0,68 c 0,1.673848 -1.326152,3 -3,3 l -68,0 c -1.673848,0 -3,-1.326152 -3,-3 l 0,-68 c 0,-1.673848 1.326152,-3 3,-3 z"
       inkscape:connector-curvature="0"
       id="path3707"
       style="opacity:0.36000001;fill:#000000;fill-opacity:1;fill-rule:nonzero;stroke:none" />
  </g>
  <g
     id="layer5"
     style="display:none"
     transform="translate(0,160)">
    <rect
       width="66"
       height="66"
       rx="12"
       ry="12"
       x="15"
       y="15"
       clip-path="url(#clipPath3613)"
       id="rect3171"
       style="opacity:0.1;fill:url(#linearGradient3613);fill-opacity:1;fill-rule:nonzero;stroke:#ffffff;stroke-width:0.5;stroke-linecap:round;stroke-linejoin:miter;stroke-miterlimit:4;stroke-opacity:1;stroke-dasharray:none;stroke-dashoffset:0;filter:url(#filter3794)" />
  </g>
  <g
     id="g3753"
     transform="translate(1.4837083,1.6115187)">
    <path
       d="m 68.967184,9.3901598 c -2.033713,-0.044165 -4.012079,0.7972472 -3.925255,0.7597272 -2.529125,1.092386 -4.044401,3.016014 -4.558361,3.672013 -0.651822,0.831972 -1.087119,1.503773 -1.392833,1.899317 -0.0231,0.02836 -0.105511,0.100081 -0.126621,0.126419 -0.126662,0.159238 -0.248299,0.373177 -0.253242,0.37966 -0.0069,0.0081 -0.373826,0.623057 -0.379864,0.633106 -0.0061,0.0081 -0.374717,0.622571 -0.379863,0.633106 -0.0053,0.01215 -0.249069,0.622165 -0.253242,0.633105 a 3.8458891,3.8458891 0 0 0 -0.126621,0.127027 c 0,0 -0.88568,2.754182 -1.899318,6.457678 -0.99873,3.648998 -2.225606,8.331428 -2.152559,13.168599 0.143517,9.505621 2.716135,23.213282 7.344026,35.833783 9.286468,25.324715 22.170941,52.79677 33.681224,73.18702 0.0049,0.008 0.247772,0.49851 0.253243,0.50649 0.0057,0.008 0.373826,0.49891 0.379863,0.50648 0.0061,0.008 0.373299,0.37278 0.379863,0.37966 0.0065,0.008 0.372773,0.49984 0.379864,0.50649 0.0069,0.008 0.498948,0.37358 0.506484,0.37966 0.0077,0.004 0.371922,0.37439 0.379864,0.37966 0.0081,0.004 0.49815,0.24838 0.506484,0.25324 0.0085,0.004 0.497814,0.24879 0.506485,0.25325 0.0085,0.004 0.624147,0.24959 0.633106,0.25324 0.0089,0.004 0.497282,0.25 0.506484,0.25324 0.0093,0.003 0.497089,0.12439 0.506485,0.12642 0.0093,0.002 0.62356,0.1248 0.63311,0.12642 0.01,0.002 0.49684,0.12561 0.50648,0.12642 0.004,4e-4 0.14299,-0.008 0.25324,0 -0.44032,1.50466 -0.929409,3.29814 -1.39283,4.68498 -1.631938,4.88381 -3.897889,9.42819 -4.684982,10.63617 -13.601238,0.25527 -26.546595,8.9916 -34.440951,22.53857 -5.41223,9.28755 -7.584805,19.5093 -6.457679,28.86962 1.130883,9.39152 5.806493,18.18198 14.30819,23.04505 8.462919,4.84089 18.504608,4.618 27.223545,0.88634 8.666707,-3.70929 16.383967,-10.74837 21.778837,-20.00614 4.13539,-7.09645 5.76907,-14.60507 6.07782,-21.77883 10e-4,-0.003 0.0944,-0.0588 0.12662,-0.12642 0.0751,-0.15802 0.12386,-0.37358 0.12662,-0.37966 0.004,-0.008 0.25,-0.62367 0.25324,-0.63311 0.003,-0.008 0.12407,-0.49684 0.12662,-0.50648 0.003,-0.008 0.1248,-0.6233 0.12662,-0.63311 0.002,-0.008 0.12553,-0.62318 0.12662,-0.6331 10e-4,-0.008 -3.4e-4,-0.49652 0,-0.50649 3.5e-4,-0.008 4e-4,-0.62314 0,-0.6331 -0.10997,-4.49204 0.38562,-10.10855 2.15256,-14.56144 0.0412,-0.10372 0.0856,-0.15154 0.12662,-0.25324 0.0223,0.049 0.1109,0.21354 0.12662,0.25324 1.76694,4.45285 2.26255,10.0694 2.15256,14.56144 a 3.8458891,3.8458891 0 0 0 0,0.12641 c -1e-4,0.008 -5.6e-4,0.49705 0,0.50649 5.7e-4,0.008 -0.001,0.6237 0,0.6331 0.001,0.008 0.12476,0.49721 0.12662,0.50649 0.002,0.008 0.12411,0.49737 0.12663,0.50648 0.003,0.008 0.12346,0.6242 0.12662,0.63311 0.003,0.008 0.24947,0.49781 0.25324,0.50648 0.003,0.004 0.0547,0.23015 0.12662,0.37966 0.002,0.0462 0.1248,0.0806 0.12662,0.12642 0.28667,7.21911 1.91522,14.76233 6.07782,21.90546 5.39486,9.25777 13.11213,16.29685 21.77883,20.00614 8.71894,3.73166 18.76063,3.95455 27.22355,-0.88635 8.50169,-4.86306 13.17731,-13.65352 14.30819,-23.04504 1.12712,-9.36033 -1.04545,-19.58208 -6.45768,-28.86963 -7.91868,-13.58869 -20.92049,-22.33661 -34.56757,-22.53856 -0.46722,-0.71576 -1.11212,-1.9233 -1.89932,-3.67201 -0.004,-0.008 -0.24895,-0.49826 -0.25324,-0.50649 -0.004,-0.008 -0.24838,-0.49858 -0.25324,-0.50648 -0.005,-0.008 -0.37448,-0.49895 -0.37987,-0.50649 -0.005,-0.008 -0.24732,-0.37277 -0.25324,-0.37966 -0.006,-0.008 -0.37346,-0.49975 -0.37986,-0.50648 -0.006,-0.008 -0.49965,-0.37358 -0.50649,-0.37966 -0.007,-0.004 -0.37261,-0.24757 -0.37986,-0.25324 -0.007,-0.004 -0.37225,-0.3748 -0.37986,-0.37966 -0.008,-0.004 -0.49851,-0.24838 -0.50649,-0.25325 -0.008,-0.004 -0.4982,-0.37561 -0.50648,-0.37966 -0.008,-0.004 -0.49793,-0.12317 -0.50649,-0.12642 -0.009,-0.004 -0.4977,-0.2504 -0.50648,-0.25324 13.31418,-20.70825 29.40572,-53.45981 40.77201,-84.456305 4.62789,-12.620501 7.2005,-26.328121 7.34402,-35.833783 0.0731,-4.837171 -1.15383,-9.519601 -2.15256,-13.168599 -1.01364,-3.703091 -1.89932,-6.457273 -1.89932,-6.457273 a 3.8458891,3.8458891 0 0 0 -0.12662,-0.126419 c -0.004,-0.01215 -0.24809,-0.622571 -0.25324,-0.633106 -0.005,-0.01215 -0.37382,-0.623056 -0.37986,-0.633105 -0.006,-0.0081 -0.37298,-0.623624 -0.37987,-0.633106 -0.005,-0.0081 -0.12658,-0.220827 -0.25324,-0.379661 -0.0154,-0.02026 -0.10976,-0.104133 -0.12662,-0.126418 -0.35053,-0.466371 -0.98289,-1.546399 -2.27918,-2.912286 -0.83638,-0.881284 -2.04984,-1.83469 -3.67201,-2.532423 -2.06095,-0.88647 -4.21402,-1.0935209 -6.5843,-0.3796612 -3.9602,1.1929942 -6.14394,4.3153292 -7.85051,7.2174052 -0.0122,0.02026 -0.11451,-0.02026 -0.12662,0 l 0,0.126419 -46.84983,77.871394 -46.84982,-77.872002 c -0.02836,-0.04862 -0.09789,-0.0778 -0.126621,-0.126419 -1.385292,-2.35572 -3.343564,-4.593167 -6.077815,-6.077815 -7.25e-4,-8.51e-4 -0.08898,-0.08955 -0.126621,-0.126418 -0.192504,-0.100487 -0.304336,-0.289304 -0.506484,-0.379661 -0.13432,-0.102107 -0.159077,-0.194895 -0.253243,-0.253242 C 72.192438,10.078574 71.909066,10.004424 71.626228,9.8974548 71.576309,9.8771954 71.551714,9.7892697 71.499607,9.7710362 70.804905,9.5230614 69.973083,9.4132555 68.967184,9.3913754 z M 93.531686,195.77649 c 0.402311,-0.0162 0.590525,0.0284 0.759727,0.12641 0.300001,0.1714 0.86228,0.55596 1.012969,2.78567 0.142261,2.10519 -0.520354,5.50135 -2.405802,8.73686 -1.905788,3.27039 -4.51219,5.6189 -6.457678,6.5843 -2.104605,1.04433 -2.834693,0.74992 -3.038907,0.6331 -0.306687,-0.17544 -0.861243,-0.52313 -1.012969,-2.78566 -0.144126,-2.14895 0.537829,-5.65796 2.405801,-8.86348 2.81699,-4.83405 7.760616,-7.17758 8.736859,-7.21741 z m 65.842994,0 c 0.97623,0.0405 5.91987,2.38335 8.73686,7.2174 1.86797,3.20552 2.54991,6.71453 2.4058,8.86348 -0.15174,2.26253 -0.70629,2.61026 -1.01297,2.78567 -0.20421,0.11669 -0.9343,0.41122 -3.03891,-0.63311 -1.94548,-0.9654 -4.55189,-3.31391 -6.45767,-6.5843 -1.88546,-3.2355 -2.54808,-6.63166 -2.40581,-8.73686 0.15069,-2.2297 0.71298,-2.61407 1.01297,-2.78566 0.16921,-0.0968 0.35742,-0.14303 0.75973,-0.12642 z"
       id="path3946"
       style="opacity:0.1;fill:#000000;fill-opacity:1;stroke:none;display:inline"
       inkscape:connector-curvature="0" />
    <path
       d="m 68.840563,13.188794 c -1.25553,-0.02836 -1.893977,0.339953 -2.27918,0.506485 -1.700476,0.734443 -2.435612,1.762404 -3.038908,2.532423 -0.603296,0.770018 -1.066762,1.459485 -1.519453,2.025938 a 4.248053,4.248053 0 0 0 -0.759727,1.266211 c 0,0 -0.921117,2.630438 -1.899317,6.204436 -0.9782,3.573998 -2.087876,8.054118 -2.025939,12.15563 0.132983,8.80651 2.740021,22.357525 7.217405,34.567572 9.202529,25.095784 21.918631,52.389591 33.301361,72.553921 a 4.248053,4.248053 0 0 0 7.723895,-0.88635 c 2.14158,-7.9027 4.491,-16.23461 8.35699,-23.17167 a 4.248053,4.248053 0 0 0 0.12662,-0.12642 4.248053,4.248053 0 0 0 0.12662,-0.12642 l 10.25631,-17.09426 a 4.248053,4.248053 0 0 0 0,-4.305119 L 76.311211,19.139988 c -1.628328,-2.794296 -3.005427,-4.722057 -5.824573,-5.57133 0.0953,0.02836 -0.390317,-0.352514 -1.646075,-0.379661 z m 113.579167,0.379661 c -2.81916,0.849273 -4.19625,2.777035 -5.82457,5.57133 L 115.1839,121.44967 a 4.248053,4.248053 0 0 0 0,0.12642 c -5.7982,10.32601 -8.38396,24.41904 -12.02901,35.3273 -1.81734,5.43867 -4.154897,10.4363 -5.571327,12.28225 a 4.248053,4.248053 0 0 0 -0.253243,0.37966 c -0.307091,0.52553 -0.229417,0.29619 -0.126621,0.25324 0.08813,-0.0365 -0.216005,-0.0162 -0.759727,0 -0.0906,0.003 -0.01378,0 -0.126621,0 -12.42595,-0.42556 -25.025763,7.7777 -32.668255,20.89249 -5.016798,8.60898 -6.967963,18.01999 -5.951193,26.46382 1.016769,8.44383 5.127419,16.0943 12.408872,20.25938 7.270728,4.15893 15.991014,3.97737 23.804775,0.63311 7.81376,-3.34426 14.99713,-9.76446 20.00614,-18.36007 4.06175,-6.97007 5.73087,-14.34765 5.82457,-21.39897 a 4.248053,4.248053 0 0 0 0.63311,-2.40519 c -0.11779,-4.8114 0.33404,-10.8598 2.4058,-16.08089 2.46249,-6.20516 5.45747,-10.81814 16.58737,-14.05494 2.01971,-0.54899 3.79142,-1.44774 5.19147,-3.5454 13.43949,-19.33879 31.5957,-56.46282 43.81091,-89.774391 4.47739,-12.210047 7.08444,-25.761062 7.21741,-34.567572 0.0619,-4.101512 -1.04774,-8.581632 -2.02594,-12.15563 -0.9782,-3.573998 -1.89932,-6.204436 -1.89932,-6.204436 a 4.248053,4.248053 0 0 0 -0.75973,-1.266211 c -0.63084,-0.789387 -1.10867,-1.685743 -2.15255,-2.785665 -0.52195,-0.549961 -1.29502,-1.168318 -2.40581,-1.646075 -1.11078,-0.477757 -2.6889,-0.625488 -3.92525,-0.253242 z m -33.5546,148.020325 a 4.248053,4.248053 0 0 0 -3.67202,1.77269 c -1.66709,2.24705 -2.85961,2.84803 -5.31809,3.5454 a 4.248053,4.248053 0 0 0 -1.51945,0.75972 4.248053,4.248053 0 0 0 -0.37986,0.25324 c -3.25308,1.08481 -6.26224,2.1334 -8.23038,3.67202 a 4.248053,4.248053 0 0 0 -1.13959,5.31809 c 0.57546,1.0767 1.16287,2.0137 1.51946,2.91228 2.07177,5.22109 2.5236,11.26949 2.4058,16.08089 a 4.248053,4.248053 0 0 0 0.6331,2.27918 c 0.0711,7.08807 1.739,14.51463 5.82458,21.52559 5.00901,8.59561 12.19238,15.01581 20.00614,18.36007 7.81376,3.34425 16.53404,3.52582 23.80477,-0.63311 7.28145,-4.16508 11.3921,-11.81555 12.40887,-20.25938 1.01677,-8.44383 -0.93439,-17.85484 -5.95119,-26.46382 -7.64249,-13.11479 -20.2423,-21.31806 -32.66825,-20.89249 -0.11269,0 -0.0361,0.003 -0.12663,0 -0.5437,-0.0162 -0.84784,-0.0365 -0.75972,0 0.10279,0.043 0.18047,0.27229 -0.12662,-0.25324 a 4.248053,4.248053 0 0 0 -0.25325,-0.37966 c -0.75696,-0.98651 -1.78238,-2.83611 -2.78566,-5.06485 a 4.248053,4.248053 0 0 0 -3.67201,-2.53242 z m -55.460065,30.38907 c 0.953516,-0.0405 1.902546,0.12804 2.785665,0.63311 1.588708,0.90875 2.70577,2.76881 2.912286,5.82457 0.206525,3.05576 -0.665431,7.03373 -2.912286,10.88942 -2.249444,3.8601 -5.283598,6.70431 -8.103753,8.10375 -2.820155,1.39944 -5.025,1.39843 -6.584299,0.50649 -1.569491,-0.89778 -2.704709,-2.72919 -2.912287,-5.82458 -0.207577,-3.09539 0.669775,-7.16781 2.912287,-11.01604 3.378774,-5.79807 8.614978,-8.98264 11.902387,-9.11672 z m 66.096235,0 c 3.2874,0.13412 8.52361,3.31865 11.90239,9.11672 2.24251,3.84823 3.11986,7.92065 2.91229,11.01604 -0.20758,3.09539 -1.3428,4.9268 -2.91229,5.82458 -1.55931,0.89194 -3.76415,0.89295 -6.5843,-0.50649 -2.82016,-1.39944 -5.85431,-4.24365 -8.10375,-8.10375 -2.24686,-3.85569 -3.11881,-7.83366 -2.91229,-10.88942 0.20652,-3.05576 1.32358,-4.91582 2.91229,-5.82457 0.88313,-0.50515 1.83215,-0.67201 2.78566,-0.63311 z"
       id="path3942"
       style="opacity:0.15;fill:#000000;fill-opacity:1;stroke:none;display:inline"
       inkscape:connector-curvature="0" />
    <path
       d="m 68.713942,17.493913 c -0.166735,-0.0036 -0.34449,0.05673 -0.506484,0.126418 -0.971924,0.419775 -1.744657,1.831084 -2.912287,3.29215 0,0 -3.770028,10.349992 -3.672013,16.840612 0.121151,8.023242 2.544133,21.466396 6.837542,33.17474 9.109461,24.841974 21.809011,52.137527 33.04812,72.047437 2.16547,-7.99083 4.61835,-16.62449 8.86348,-24.18464 a 9.7714427,9.7714427 0 0 1 0.12662,-0.25324 L 120.75523,101.44353 72.639198,21.292345 c -1.381164,-2.370146 -2.535089,-3.405805 -3.418771,-3.672014 -0.184118,-0.05551 -0.33975,-0.122771 -0.506485,-0.126418 z m 114.971998,0.126418 c -0.88369,0.266209 -2.0376,1.301868 -3.41877,3.672014 L 118.85592,123.60223 c -5.20035,9.2613 -7.85824,23.34943 -11.64915,34.6942 -1.89546,5.67242 -4.1307,10.71923 -6.20444,13.42184 -1.291613,2.21017 -2.811679,2.4058 -4.684979,2.4058 -10.414433,-0.40531 -21.984789,6.70804 -28.996241,18.73993 -9.159669,15.71828 -6.960533,34.09241 4.938224,40.89863 11.898757,6.80622 28.826676,-0.48923 37.986346,-16.20751 4.21617,-7.23507 6.01148,-14.95831 5.57133,-21.90546 l 0.25324,0.37966 c -0.12703,-5.18814 0.40381,-11.72439 2.78567,-17.72696 2.73201,-6.88434 7.23833,-13.05834 19.37303,-16.58737 1.04495,-0.28403 2.18081,-0.99307 2.78566,-1.89931 13.00169,-18.70881 31.33818,-55.91011 43.43106,-88.88805 4.29341,-11.708343 6.7164,-25.151497 6.83754,-33.174739 0.098,-6.490621 -3.67201,-16.840612 -3.67201,-16.840612 -1.55685,-1.948062 -2.45246,-3.735587 -3.92526,-3.29215 z M 148.61188,165.8939 c -2.22228,2.99539 -4.66963,4.23437 -7.59727,5.06484 l 0,0.12642 c -4.27319,1.24271 -6.83568,2.41135 -8.61023,3.79863 0.59494,1.11314 1.18396,2.25431 1.64607,3.41878 2.38189,6.00257 2.91269,12.53881 2.78567,17.72696 l 0.25324,-0.37967 c -0.44016,6.94715 1.35516,14.67039 5.57133,21.90546 9.15967,15.71829 26.08759,23.01373 37.98634,16.20751 11.89876,-6.80622 14.09789,-25.18035 4.93823,-40.89863 -7.01146,-12.03189 -18.58181,-19.14524 -28.99624,-18.73993 -1.8733,0 -3.39337,-0.19571 -4.68499,-2.4058 -1.07262,-1.3979 -2.19861,-3.39535 -3.29215,-5.82457 z m -55.333436,21.77883 c 1.798636,-0.0733 3.539667,0.39385 5.064846,1.26621 6.10072,3.48968 6.78156,13.5086 1.519453,22.53857 -5.262111,9.02993 -14.411905,13.61937 -20.512625,10.12969 -6.10072,-3.48968 -6.781565,-13.63521 -1.519454,-22.66519 3.946585,-6.77246 10.051876,-11.04922 15.44778,-11.26928 z m 66.349476,0 c 5.3959,0.22002 11.5012,4.49682 15.44778,11.26928 5.26211,9.02998 4.58127,19.17551 -1.51945,22.66519 -6.10073,3.48968 -15.25052,-1.09976 -20.51263,-10.12969 -5.26211,-9.02997 -4.58126,-19.04889 1.51946,-22.53857 1.52518,-0.87241 3.26621,-1.33955 5.06484,-1.26621 z"
       inkscape:connector-curvature="0"
       id="path3936"
       style="opacity:0.3;fill:#000000;fill-opacity:1;stroke:none;display:inline" />
    <path
       d="m 68.713942,13.442036 c -0.166735,-0.0037 -0.34449,0.05673 -0.506484,0.126419 -0.971924,0.419774 -1.744657,1.831084 -2.912287,3.29215 0,0 -3.770028,10.349991 -3.672013,16.840612 0.121151,8.023242 2.544133,21.466396 6.837542,33.174739 9.109461,24.841974 21.809011,52.137524 33.04812,72.047434 2.16547,-7.99083 4.61835,-16.62448 8.86348,-24.18464 a 9.7714427,9.7714427 0 0 1 0.12662,-0.25324 L 120.75523,97.391651 72.639198,17.240468 c -1.381164,-2.370145 -2.535089,-3.405805 -3.418771,-3.672013 -0.184118,-0.05551 -0.33975,-0.122772 -0.506485,-0.126419 z m 114.971998,0.126419 c -0.88369,0.266208 -2.0376,1.301868 -3.41877,3.672013 L 118.85592,119.55036 c -5.20035,9.26129 -7.85824,23.34942 -11.64915,34.69419 -1.89546,5.67242 -4.1307,10.71924 -6.20444,13.42184 -1.291613,2.21018 -2.811679,2.4058 -4.684979,2.4058 -10.414433,-0.40531 -21.984789,6.70805 -28.996241,18.73993 -9.159669,15.71828 -6.960533,34.09241 4.938224,40.89863 11.898757,6.80622 28.826676,-0.48922 37.986346,-16.20751 4.21617,-7.23507 6.01148,-14.95831 5.57133,-21.90545 l 0.25324,0.37966 c -0.12703,-5.18815 0.40381,-11.72439 2.78567,-17.72696 2.73201,-6.88434 7.23833,-13.05835 19.37303,-16.58737 1.04495,-0.28404 2.18081,-0.99308 2.78566,-1.89932 13.00169,-18.70881 31.33818,-55.910107 43.43106,-88.888047 4.29341,-11.708343 6.7164,-25.151497 6.83754,-33.174739 0.098,-6.49062 -3.67201,-16.840612 -3.67201,-16.840612 -1.55685,-1.948061 -2.45246,-3.735587 -3.92526,-3.29215 z M 148.61188,161.84202 c -2.22228,2.99539 -4.66963,4.23437 -7.59727,5.06485 l 0,0.12641 c -4.27319,1.24271 -6.83568,2.41136 -8.61023,3.79864 0.59494,1.11313 1.18396,2.2543 1.64607,3.41877 2.38189,6.00257 2.91269,12.53881 2.78567,17.72696 l 0.25324,-0.37966 c -0.44016,6.94714 1.35516,14.67038 5.57133,21.90546 9.15967,15.71828 26.08759,23.01372 37.98634,16.2075 11.89876,-6.80622 14.09789,-25.18034 4.93823,-40.89863 -7.01146,-12.03188 -18.58181,-19.14524 -28.99624,-18.73993 -1.8733,0 -3.39337,-0.1957 -4.68499,-2.4058 -1.07262,-1.3979 -2.19861,-3.39535 -3.29215,-5.82457 z m -55.333436,21.77884 c 1.798636,-0.0733 3.539667,0.39384 5.064846,1.26621 6.10072,3.48968 6.78156,13.50859 1.519453,22.53856 -5.262111,9.02993 -14.411905,13.61937 -20.512625,10.12969 -6.10072,-3.48968 -6.781565,-13.63521 -1.519454,-22.66518 3.946585,-6.77247 10.051876,-11.04923 15.44778,-11.26928 z m 66.349476,0 c 5.3959,0.22001 11.5012,4.49681 15.44778,11.26928 5.26211,9.02997 4.58127,19.1755 -1.51945,22.66518 -6.10073,3.48968 -15.25052,-1.09976 -20.51263,-10.12969 -5.26211,-9.02997 -4.58126,-19.04888 1.51946,-22.53856 1.52518,-0.87241 3.26621,-1.33955 5.06484,-1.26621 z"
       inkscape:connector-curvature="0"
       id="path3113"
       style="fill:url(#linearGradient3761);fill-opacity:1;stroke:none;display:inline" />
    <path
       d="m 68.713942,13.442036 c -0.166735,-0.0037 -0.34449,0.05673 -0.506484,0.126419 -0.971924,0.419774 -1.744657,1.831084 -2.912287,3.29215 0,0 -3.770028,10.349991 -3.672013,16.840612 0.0065,0.437967 0.106362,1.050368 0.126621,1.519453 0.655946,-6.329274 3.545392,-14.308189 3.545392,-14.308189 1.16763,-1.461066 1.940363,-2.872375 2.912287,-3.29215 0.161994,-0.0701 0.339749,-0.13047 0.506484,-0.126418 0.166735,0.0036 0.322367,0.07131 0.506485,0.126418 0.883682,0.266209 2.037607,1.301868 3.418771,3.672014 L 119.48902,99.41759 120.75523,97.391651 72.639198,17.240468 c -1.381164,-2.370145 -2.535089,-3.405805 -3.418771,-3.672013 -0.184118,-0.05551 -0.33975,-0.122772 -0.506485,-0.126419 z m 114.971998,0.126419 c -0.88369,0.266208 -2.0376,1.301868 -3.41877,3.672013 L 118.85592,119.55036 c -5.20035,9.26129 -7.85824,23.34942 -11.64915,34.69419 -1.89546,5.67242 -4.1307,10.71924 -6.20444,13.42184 -1.291613,2.21018 -2.811679,2.4058 -4.684979,2.4058 -10.414433,-0.40531 -21.984789,6.70805 -28.996241,18.73993 -4.241979,7.27936 -6.036916,15.15288 -5.571331,22.1587 0.327716,-5.89123 2.136453,-12.21248 5.571331,-18.10682 7.011452,-12.03189 18.581808,-19.14524 28.996241,-18.73993 1.8733,0 3.393366,-0.19571 4.684979,-2.4058 2.07374,-2.70261 4.30898,-7.74942 6.20444,-13.42184 3.79091,-11.34477 6.4488,-25.4329 11.64915,-34.6942 L 180.26717,21.292345 c 1.38117,-2.370146 2.53508,-3.405805 3.41877,-3.672014 1.4728,-0.443437 2.36841,1.344089 3.92526,3.29215 0,0 2.88944,7.978915 3.54539,14.308189 0.0203,-0.469085 0.12001,-1.081486 0.12662,-1.519453 0.098,-6.490621 -3.67201,-16.840612 -3.67201,-16.840612 -1.55685,-1.948062 -2.45246,-3.735587 -3.92526,-3.29215 z M 148.61188,161.84202 c -2.22228,2.99539 -4.66963,4.23437 -7.59727,5.06485 l 0,0.12641 c -4.27319,1.24271 -6.83568,2.41136 -8.61023,3.79864 0.53266,0.99664 1.08311,2.00073 1.51945,3.03891 1.66965,-0.97221 3.88589,-1.85362 7.09078,-2.78567 l 0,-0.12642 c 2.92764,-0.83047 5.37499,-2.06945 7.59727,-5.06484 1.09354,2.42922 2.21953,4.42667 3.29215,5.82457 1.29162,2.21018 2.81169,2.4058 4.68499,2.4058 10.41443,-0.40531 21.98478,6.70804 28.99624,18.73993 3.43487,5.89435 5.24362,12.2156 5.57133,18.10682 0.46558,-7.00581 -1.32936,-14.87934 -5.57133,-22.1587 -7.01146,-12.03188 -18.58181,-19.14524 -28.99624,-18.73993 -1.8733,0 -3.39337,-0.1957 -4.68499,-2.4058 -1.07262,-1.3979 -2.19861,-3.39535 -3.29215,-5.82457 z m -45.33037,35.58054 c -0.34509,3.23372 -1.46987,6.65869 -3.418767,10.00307 -5.262111,9.02993 -14.411905,13.61937 -20.512625,10.12969 -2.819486,-1.61277 -4.485618,-4.66812 -4.938224,-8.35699 -0.549034,5.4836 1.125275,10.22782 4.938224,12.40887 6.10072,3.48968 15.250514,-1.09976 20.512625,-10.12969 2.802437,-4.80909 3.908517,-9.82054 3.418767,-14.05495 z m 46.34334,0 c -0.48974,4.23441 0.61634,9.24586 3.41877,14.05495 5.26211,9.02993 14.4119,13.61937 20.51263,10.12969 3.81295,-2.18105 5.48726,-6.92527 4.93822,-12.40887 -0.4526,3.68887 -2.11874,6.74422 -4.93822,8.35699 -6.10073,3.48968 -15.25052,-1.09976 -20.51263,-10.12969 -1.94889,-3.34438 -3.07368,-6.76935 -3.41877,-10.00307 z"
       inkscape:connector-curvature="0"
       id="path3918"
       style="opacity:0.75;fill:#ffffff;fill-opacity:1;stroke:none;display:inline" />
    <path
       d="m 61.749779,31.295617 c -0.08468,0.855919 -0.138262,1.634933 -0.126621,2.405802 0.121151,8.023242 2.544133,21.466396 6.837542,33.17474 9.109461,24.841974 21.809011,52.137521 33.04812,72.047431 2.16547,-7.99082 4.61835,-16.62448 8.86348,-24.18464 a 9.7714427,9.7714427 0 0 1 0.12662,-0.25324 l 10.25631,-17.093856 -1.26621,-2.025938 -8.9901,15.067924 a 9.7714427,9.7714427 0 0 0 -0.12662,0.25324 c -4.24513,7.56015 -6.69801,16.19381 -8.86348,24.18464 C 90.269711,114.96181 77.570161,87.666256 68.4607,62.824282 64.421068,51.807999 62.118383,39.423965 61.749779,31.295617 z m 129.406811,0 c -0.3686,8.128348 -2.67129,20.512382 -6.71092,31.528665 -12.09288,32.97794 -30.42937,70.179238 -43.43106,88.888048 -0.60485,0.90624 -1.74071,1.61528 -2.78566,1.89932 -12.1347,3.52902 -16.64102,9.70302 -19.37303,16.58737 -2.38186,6.00257 -2.9127,12.53881 -2.78567,17.72696 0.20738,-4.30845 0.99927,-9.17317 2.78567,-13.67509 2.73201,-6.88434 7.23833,-13.05835 19.37303,-16.58737 1.04495,-0.28403 2.18081,-0.99307 2.78566,-1.89932 13.00169,-18.70881 31.33818,-55.910102 43.43106,-88.888041 4.29341,-11.708344 6.7164,-25.151498 6.83754,-33.17474 0.0117,-0.770869 -0.0419,-1.549883 -0.12662,-2.405802 z m -75.08634,156.630363 -0.25324,-0.37987 c 0.0838,1.32225 0.0795,2.68214 0,4.05188 l 0.25324,0.37966 c -0.0316,-1.29705 -0.0691,-2.61573 0,-4.05188 z m -0.25324,3.67201 c -0.33805,5.827 -2.15762,11.99554 -5.57133,17.85358 -9.15967,15.71828 -26.087589,23.01373 -37.986346,16.20751 -6.35474,-3.63498 -9.940773,-10.54607 -10.509555,-18.61331 -0.507574,9.76701 3.105103,18.42976 10.509555,22.66518 11.898757,6.80622 28.826676,-0.48922 37.986346,-16.2075 4.21617,-7.23508 6.01148,-14.95832 5.57133,-21.90546 z m 18.10682,-21.77884 c -0.55655,0.32415 -1.07581,0.66613 -1.51945,1.01297 0.59494,1.11313 1.18396,2.2543 1.64607,3.41877 1.78641,4.50192 2.57832,9.36664 2.78567,13.67509 0.12702,-5.18815 -0.40377,-11.72439 -2.78567,-17.72696 -0.0484,-0.12197 -0.0756,-0.25851 -0.12662,-0.37967 z m 2.91229,18.10683 c 0.0691,1.43614 0.0316,2.75483 0,4.05187 l 0.25324,-0.37966 c -0.0795,-1.36974 -0.0837,-2.72963 0,-4.05188 l -0.25324,0.37967 z m 0.25324,3.67201 c -0.44016,6.94714 1.35516,14.67038 5.57133,21.90546 9.15967,15.71828 26.08759,23.01372 37.98634,16.2075 7.40445,-4.23542 11.01713,-12.89817 10.50956,-22.66518 -0.56878,8.06724 -4.15482,14.97833 -10.50956,18.61331 -11.89875,6.80622 -28.82667,-0.48923 -37.98634,-16.20751 -3.41371,-5.85804 -5.23329,-12.02658 -5.57133,-17.85358 z M 93.278444,179.56898 c -5.395904,0.22002 -11.501195,4.49681 -15.44778,11.26928 -2.802435,4.80909 -3.908517,9.91357 -3.41877,14.18157 0.344571,-3.25682 1.469032,-6.78386 3.41877,-10.12969 3.946585,-6.77247 10.051876,-11.04923 15.44778,-11.26928 1.798636,-0.0733 3.539667,0.39384 5.064846,1.26621 2.81949,1.61277 4.48562,4.69722 4.93822,8.35699 0.54904,-5.44653 -1.12527,-10.22782 -4.93822,-12.40887 -1.525179,-0.87241 -3.26621,-1.33955 -5.064846,-1.26621 z m 66.349476,0 c -1.79863,-0.0733 -3.53966,0.39384 -5.06484,1.26621 -3.81295,2.18105 -5.48726,6.96234 -4.93823,12.40887 0.45261,-3.65977 2.11874,-6.74422 4.93823,-8.35699 1.52518,-0.87241 3.26621,-1.33955 5.06484,-1.26621 5.3959,0.22001 11.5012,4.49681 15.44778,11.26928 1.94974,3.34583 3.07422,6.87287 3.41877,10.12969 0.48975,-4.268 -0.61633,-9.37248 -3.41877,-14.18157 -3.94658,-6.77247 -10.05188,-11.04922 -15.44778,-11.26928 z"
       inkscape:connector-curvature="0"
       id="path3927"
       style="opacity:0.15;fill:#000000;fill-opacity:1;stroke:none;display:inline" />
  </g>
</svg>
