<?xml version="1.0" encoding="UTF-8" standalone="no"?>
<!-- Created with Inkscape (http://www.inkscape.org/) -->

<svg
   xmlns:dc="http://purl.org/dc/elements/1.1/"
   xmlns:cc="http://creativecommons.org/ns#"
   xmlns:rdf="http://www.w3.org/1999/02/22-rdf-syntax-ns#"
   xmlns:svg="http://www.w3.org/2000/svg"
   xmlns="http://www.w3.org/2000/svg"
   xmlns:xlink="http://www.w3.org/1999/xlink"
   xmlns:sodipodi="http://sodipodi.sourceforge.net/DTD/sodipodi-0.dtd"
   xmlns:inkscape="http://www.inkscape.org/namespaces/inkscape"
   width="256"
   height="256"
   id="svg3792"
   version="1.1"
   inkscape:version="0.48.1 r9760"
   sodipodi:docname="eog-plugin.svg">
  <defs
     id="defs3794">
    <linearGradient
       inkscape:collect="always"
       xlink:href="#linearGradient4326"
       id="linearGradient4369"
       gradientUnits="userSpaceOnUse"
       x1="139.87816"
       y1="1031.844"
       x2="138.41675"
       y2="820.06219" />
    <linearGradient
       id="linearGradient4326">
      <stop
         style="stop-color:#00d400;stop-opacity:1;"
         offset="0"
         id="stop4328" />
      <stop
         style="stop-color:#00ff00;stop-opacity:1;"
         offset="1"
         id="stop4330" />
    </linearGradient>
  </defs>
  <sodipodi:namedview
     id="base"
     pagecolor="#ffffff"
     bordercolor="#666666"
     borderopacity="1.0"
     inkscape:pageopacity="0.0"
     inkscape:pageshadow="2"
     inkscape:zoom="1.71875"
     inkscape:cx="128"
     inkscape:cy="128"
     inkscape:document-units="px"
     inkscape:current-layer="layer1"
     showgrid="false"
     inkscape:window-width="1024"
     inkscape:window-height="576"
     inkscape:window-x="0"
     inkscape:window-y="24"
     inkscape:window-maximized="1" />
  <metadata
     id="metadata3797">
    <rdf:RDF>
      <cc:Work
         rdf:about="">
        <dc:format>image/svg+xml</dc:format>
        <dc:type
           rdf:resource="http://purl.org/dc/dcmitype/StillImage" />
        <dc:title></dc:title>
      </cc:Work>
    </rdf:RDF>
  </metadata>
  <g
     inkscape:label="Layer 1"
     inkscape:groupmode="layer"
     id="layer1"
     transform="translate(0,-796.36218)">
    <g
       id="g4360"
       transform="matrix(1.0222492,0,0,1.0222492,-3.5376337,-21.597869)">
      <path
         inkscape:connector-curvature="0"
         id="path4358"
         style="opacity:0.05;color:#000000;fill:none;stroke:#000000;stroke-width:18;stroke-linejoin:round;stroke-miterlimit:4;stroke-opacity:1;stroke-dasharray:none;marker-start:none;marker-mid:none;marker-end:none"
         d="m 153.12301,819.42866 c -7.1063,0 -24.44829,5.37645 -24.44829,19.01534 0,7.17584 5.59051,15.84195 5.43296,29.88124 H 85.211099 v 65.19544 c -14.429925,0.22275 -25.270839,-16.5216 -32.59772,-16.29886 -13.719295,0.42378 -16.298861,15.15795 -16.298861,22.21535 0,21.17765 8.006,26.62691 21.731814,26.68124 9.9912,0 9.627193,-5.65571 27.164767,-5.43296 v 70.62845 h 54.329531 c 0,-17.6462 -16.29886,-21.1886 -16.29886,-35.31425 0,-10.58883 5.6394,-13.58238 16.29886,-13.58238 17.32569,0 32.59772,2.17318 32.59772,16.2989 0,8.68183 -5.43296,18.47743 -5.43296,32.59773 h 54.32954 v -86.92731 c -21.72638,0 -24.4483,10.86591 -35.31419,10.86591 -13.72365,0 -24.4483,-8.70359 -24.4483,-29.88124 0,-10.86591 8.00818,-19.01534 21.73181,-19.01534 14.20718,0 12.74572,10.8659 38.03068,10.8659 v -48.89658 h -59.76249 c -0.25535,-17.31537 16.39666,-24.7069 16.29886,-35.3142 -0.23361,-13.63671 -13.78883,-13.58238 -24.44829,-13.58238 z"
         stroke-miterlimit="4" />
      <path
         stroke-miterlimit="4"
         d="m 153.12301,819.42866 c -7.1063,0 -24.44829,5.37645 -24.44829,19.01534 0,7.17584 5.59051,15.84195 5.43296,29.88124 H 85.211099 v 65.19544 c -14.429925,0.22275 -25.270839,-16.5216 -32.59772,-16.29886 -13.719295,0.42378 -16.298861,15.15795 -16.298861,22.21535 0,21.17765 8.006,26.62691 21.731814,26.68124 9.9912,0 9.627193,-5.65571 27.164767,-5.43296 v 70.62845 h 54.329531 c 0,-17.6462 -16.29886,-21.1886 -16.29886,-35.31425 0,-10.58883 5.6394,-13.58238 16.29886,-13.58238 17.32569,0 32.59772,2.17318 32.59772,16.2989 0,8.68183 -5.43296,18.47743 -5.43296,32.59773 h 54.32954 v -86.92731 c -21.72638,0 -24.4483,10.86591 -35.31419,10.86591 -13.72365,0 -24.4483,-8.70359 -24.4483,-29.88124 0,-10.86591 8.00818,-19.01534 21.73181,-19.01534 14.20718,0 12.74572,10.8659 38.03068,10.8659 v -48.89658 h -59.76249 c -0.25535,-17.31537 16.39666,-24.7069 16.29886,-35.3142 -0.23361,-13.63671 -13.78883,-13.58238 -24.44829,-13.58238 z"
         style="opacity:0.1;color:#000000;fill:none;stroke:#000000;stroke-width:12;stroke-linejoin:round;stroke-miterlimit:4;stroke-opacity:1;stroke-dasharray:none;marker-start:none;marker-mid:none;marker-end:none"
         id="path4356"
         inkscape:connector-curvature="0" />
      <path
         inkscape:connector-curvature="0"
         id="path4354"
         style="opacity:0.15;color:#000000;fill:none;stroke:#000000;stroke-width:6;stroke-linejoin:round;stroke-miterlimit:4;stroke-opacity:1;stroke-dasharray:none;marker-start:none;marker-mid:none;marker-end:none"
         d="m 153.12301,819.42866 c -7.1063,0 -24.44829,5.37645 -24.44829,19.01534 0,7.17584 5.59051,15.84195 5.43296,29.88124 H 85.211099 v 65.19544 c -14.429925,0.22275 -25.270839,-16.5216 -32.59772,-16.29886 -13.719295,0.42378 -16.298861,15.15795 -16.298861,22.21535 0,21.17765 8.006,26.62691 21.731814,26.68124 9.9912,0 9.627193,-5.65571 27.164767,-5.43296 v 70.62845 h 54.329531 c 0,-17.6462 -16.29886,-21.1886 -16.29886,-35.31425 0,-10.58883 5.6394,-13.58238 16.29886,-13.58238 17.32569,0 32.59772,2.17318 32.59772,16.2989 0,8.68183 -5.43296,18.47743 -5.43296,32.59773 h 54.32954 v -86.92731 c -21.72638,0 -24.4483,10.86591 -35.31419,10.86591 -13.72365,0 -24.4483,-8.70359 -24.4483,-29.88124 0,-10.86591 8.00818,-19.01534 21.73181,-19.01534 14.20718,0 12.74572,10.8659 38.03068,10.8659 v -48.89658 h -59.76249 c -0.25535,-17.31537 16.39666,-24.7069 16.29886,-35.3142 -0.23361,-13.63671 -13.78883,-13.58238 -24.44829,-13.58238 z"
         stroke-miterlimit="4" />
      <path
         inkscape:connector-curvature="0"
         id="path4352"
         style="opacity:0.3;color:#000000;fill:#000000;fill-opacity:1;fill-rule:nonzero;stroke:none;stroke-width:5.5;marker-start:none;marker-mid:none;marker-end:none"
         d="m 153.12301,821.42866 c -7.1063,0 -24.44829,5.37645 -24.44829,19.01534 0,7.17584 5.59051,15.84195 5.43296,29.88124 H 85.211099 v 65.19544 c -14.429925,0.22275 -25.270839,-16.5216 -32.59772,-16.29886 -13.719295,0.42378 -16.298861,15.15795 -16.298861,22.21535 0,21.17765 8.006,26.62691 21.731814,26.68124 9.9912,0 9.627193,-5.65571 27.164767,-5.43296 v 70.62845 h 54.329531 c 0,-17.6462 -16.29886,-21.1886 -16.29886,-35.31425 0,-10.58883 5.6394,-13.58238 16.29886,-13.58238 17.32569,0 32.59772,2.17318 32.59772,16.29893 0,8.6818 -5.43296,18.4774 -5.43296,32.5977 h 54.32954 v -86.92731 c -21.72638,0 -24.4483,10.86591 -35.31419,10.86591 -13.72365,0 -24.4483,-8.70359 -24.4483,-29.88124 0,-10.86591 8.00818,-19.01534 21.73181,-19.01534 14.20718,0 12.74572,10.8659 38.03068,10.8659 v -48.89658 h -59.76249 c -0.25535,-17.31537 16.39666,-24.7069 16.29886,-35.3142 -0.23361,-13.63671 -13.78883,-13.58238 -24.44829,-13.58238 z"
         stroke-miterlimit="4" />
      <path
         stroke-miterlimit="4"
         d="m 153.12301,819.42866 c -7.1063,0 -24.44829,5.37645 -24.44829,19.01534 0,7.17584 5.59051,15.84195 5.43296,29.88124 H 85.211099 v 65.19544 c -14.429925,0.22275 -25.270839,-16.5216 -32.59772,-16.29886 -13.719295,0.42378 -16.298861,15.15795 -16.298861,22.21535 0,21.17765 8.006,26.62691 21.731814,26.68124 9.9912,0 9.627193,-5.65571 27.164767,-5.43296 v 70.62845 h 54.329531 c 0,-17.6462 -16.29886,-21.1886 -16.29886,-35.31425 0,-10.58883 5.6394,-13.58238 16.29886,-13.58238 17.32569,0 32.59772,2.17318 32.59772,16.2989 0,8.68183 -5.43296,18.47743 -5.43296,32.59773 h 54.32954 v -86.92731 c -21.72638,0 -24.4483,10.86591 -35.31419,10.86591 -13.72365,0 -24.4483,-8.70359 -24.4483,-29.88124 0,-10.86591 8.00818,-19.01534 21.73181,-19.01534 14.20718,0 12.74572,10.8659 38.03068,10.8659 v -48.89658 h -59.76249 c -0.25535,-17.31537 16.39666,-24.7069 16.29886,-35.3142 -0.23361,-13.63671 -13.78883,-13.58238 -24.44829,-13.58238 z"
         style="color:#000000;fill:url(#linearGradient4369);fill-opacity:1;fill-rule:nonzero;stroke:none;stroke-width:5.5;marker-start:none;marker-mid:none;marker-end:none"
         id="path2848"
         inkscape:connector-curvature="0" />
      <path
         id="path4334"
         transform="translate(0,796.36218)"
         d="m 153.125,23.0625 c -7.1063,0 -24.4375,5.39236 -24.4375,19.03125 0,0.647576 0.0423,1.294047 0.125,1.96875 1.60974,-12.151487 17.56841,-17 24.3125,-17 10.08319,0 22.7426,-0.03721 24.28125,11.5 0.11289,-0.631164 0.16227,-1.253811 0.15625,-1.90625 C 177.32889,23.01954 163.78446,23.0625 153.125,23.0625 z m -67.90625,48.90625 0,4 48.875,0 c 0.0156,-1.388441 -0.0391,-2.712909 -0.125,-4 l -48.75,0 z m 76.3125,0 c -0.18202,1.275306 -0.27061,2.602279 -0.25,4 l 59.75,0 0,-4 -59.5,0 z M 52.625,120.875 c -13.719295,0.42378 -16.3125,15.1301 -16.3125,22.1875 0,0.77036 0.04142,1.48952 0.0625,2.21875 0.418083,-7.48725 3.598433,-20.01545 16.25,-20.40625 7.326881,-0.22274 18.163825,16.504 32.59375,16.28125 l 0,-4 C 70.788825,137.379 59.951881,120.65226 52.625,120.875 z m 108.71875,10.75 c -0.0294,0.4564 -0.0625,0.90814 -0.0625,1.375 0,21.17765 10.71385,29.875 24.4375,29.875 10.86589,0 13.58612,-10.84375 35.3125,-10.84375 l 0,-4 c -21.72638,0 -24.44661,10.84375 -35.3125,10.84375 -13.1447,0 -23.52148,-7.96739 -24.375,-27.25 z m -38,69.8125 c -0.0609,0.69933 -0.0937,1.40761 -0.0937,2.1875 0,12.98005 13.73648,17.05033 15.96875,31.3125 l 0.3125,0 c 0,-16.86861 -14.87487,-20.84259 -16.1875,-33.5 z m 48.6875,2.96875 c -0.71899,8.18409 -5.3125,17.50958 -5.3125,30.53125 l 0.15625,0 c 0.86406,-12.00663 5.25,-20.75986 5.25,-28.59375 0,-0.67895 -0.0247,-1.31269 -0.0937,-1.9375 z"
         style="opacity:0.7;color:#000000;fill:#ffffff;fill-opacity:1;fill-rule:nonzero;stroke:none;stroke-width:5.5;marker-start:none;marker-mid:none;marker-end:none"
         inkscape:connector-curvature="0" />
      <path
         id="path4343"
         transform="translate(0,796.36218)"
         d="m 177.40625,34.59375 c -1.74792,9.615614 -16.36439,17.141841 -16.125,33.375 l 0.25,0 c 2.07289,-14.523548 16.12116,-21.561436 16.03125,-31.3125 -0.0124,-0.725835 -0.0708,-1.412168 -0.15625,-2.0625 z M 128.8125,40.0625 c -0.0865,0.652626 -0.125,1.336075 -0.125,2.03125 0,6.466172 4.49866,14.147605 5.28125,25.875 l 0.125,0 C 134.23708,55.19642 129.64645,46.864235 128.8125,40.0625 z M 183,106 c -13.72363,0 -21.71875,8.13409 -21.71875,19 0,0.8934 0.0249,1.77571 0.0625,2.625 C 161.99829,117.45895 169.86602,110 183,110 c 14.20718,0 12.74629,10.875 38.03125,10.875 l 0,-4 C 195.74629,116.875 197.20718,106 183,106 z M 36.375,141.28125 c -0.03528,0.63189 -0.0625,1.232 -0.0625,1.78125 0,21.17765 7.992936,26.63317 21.71875,26.6875 9.9912,0 9.649926,-5.66025 27.1875,-5.4375 l 0,-4 C 67.681176,160.08975 68.02245,165.75 58.03125,165.75 44.804728,165.69765 36.933352,160.59906 36.375,141.28125 z m 103.15625,40.78125 c -10.65946,0 -16.28125,2.97367 -16.28125,13.5625 0,0.62245 0.0332,1.22904 0.0937,1.8125 0.76641,-8.79565 6.31313,-11.375 16.1875,-11.375 16.49294,0 31.13155,1.96923 32.5,14.34375 0.0607,-0.69049 0.0937,-1.38701 0.0937,-2.0625 0,-14.12572 -15.26806,-16.28125 -32.59375,-16.28125 z m -54.3125,48.875 0,4 54.3125,0 c 0,-1.43112 -0.11548,-2.74124 -0.3125,-4 l -54,0 z m 81.65625,0 c -0.0935,1.29955 -0.15625,2.62094 -0.15625,4 l 54.3125,0 0,-4 -54.15625,0 z"
         style="opacity:0.7;color:#000000;fill:#000000;fill-opacity:1;fill-rule:nonzero;stroke:none;stroke-width:5.5;marker-start:none;marker-mid:none;marker-end:none"
         inkscape:connector-curvature="0" />
    </g>
  </g>
</svg>
