<?xml version="1.0" encoding="UTF-8" standalone="no"?>
<!-- Created with Inkscape (http://www.inkscape.org/) -->

<svg
   xmlns:dc="http://purl.org/dc/elements/1.1/"
   xmlns:cc="http://creativecommons.org/ns#"
   xmlns:rdf="http://www.w3.org/1999/02/22-rdf-syntax-ns#"
   xmlns:svg="http://www.w3.org/2000/svg"
   xmlns="http://www.w3.org/2000/svg"
   xmlns:xlink="http://www.w3.org/1999/xlink"
   xmlns:sodipodi="http://sodipodi.sourceforge.net/DTD/sodipodi-0.dtd"
   xmlns:inkscape="http://www.inkscape.org/namespaces/inkscape"
   version="1.0"
   width="256"
   height="256"
   id="svg2408"
   inkscape:version="0.48.2 r9819"
   sodipodi:docname="cab_extract.svg">
  <sodipodi:namedview
     pagecolor="#ffffff"
     bordercolor="#666666"
     borderopacity="1"
     objecttolerance="10"
     gridtolerance="10"
     guidetolerance="10"
     inkscape:pageopacity="0"
     inkscape:pageshadow="2"
     inkscape:window-width="1024"
     inkscape:window-height="572"
     id="namedview93"
     showgrid="false"
     inkscape:zoom="1.6289062"
     inkscape:cx="117.25659"
     inkscape:cy="128"
     inkscape:window-x="0"
     inkscape:window-y="28"
     inkscape:window-maximized="1"
     inkscape:current-layer="svg2408" />
  <defs
     id="defs2410">
    <linearGradient
       id="linearGradient3637">
      <stop
         id="stop3639"
         style="stop-color:#5a5a5a;stop-opacity:1;"
         offset="0" />
      <stop
         id="stop3641"
         style="stop-color:#000000;stop-opacity:1;"
         offset="1" />
    </linearGradient>
    <linearGradient
       x1="45.447727"
       y1="92.539597"
       x2="45.447727"
       y2="7.0165396"
       id="ButtonShadow"
       gradientUnits="userSpaceOnUse"
       gradientTransform="scale(1.0058652,0.994169)">
      <stop
         id="stop3750"
         style="stop-color:#000000;stop-opacity:1"
         offset="0" />
      <stop
         id="stop3752"
         style="stop-color:#000000;stop-opacity:0.58823532"
         offset="1" />
    </linearGradient>
    <linearGradient
       id="linearGradient3737">
      <stop
         id="stop3739"
         style="stop-color:#ffffff;stop-opacity:1"
         offset="0" />
      <stop
         id="stop3741"
         style="stop-color:#ffffff;stop-opacity:0"
         offset="1" />
    </linearGradient>
    <linearGradient
       id="linearGradient3700">
      <stop
         id="stop3702"
         style="stop-color:#2276c5;stop-opacity:1"
         offset="0" />
      <stop
         id="stop3704"
         style="stop-color:#68baf4;stop-opacity:1"
         offset="1" />
    </linearGradient>
    <filter
       color-interpolation-filters="sRGB"
       id="filter3174">
      <feGaussianBlur
         id="feGaussianBlur3176"
         stdDeviation="1.71" />
    </filter>
    <linearGradient
       x1="36.357143"
       y1="6"
       x2="36.357143"
       y2="63.893143"
       id="linearGradient3188"
       xlink:href="#linearGradient3737"
       gradientUnits="userSpaceOnUse" />
    <filter
       x="-0.192"
       y="-0.192"
       width="1.3839999"
       height="1.3839999"
       color-interpolation-filters="sRGB"
       id="filter3794">
      <feGaussianBlur
         id="feGaussianBlur3796"
         stdDeviation="5.28" />
    </filter>
    <linearGradient
       x1="48"
       y1="20.220806"
       x2="48"
       y2="138.66119"
       id="linearGradient3613"
       xlink:href="#linearGradient3737"
       gradientUnits="userSpaceOnUse" />
    <radialGradient
       cx="48"
       cy="90.171875"
       r="42"
       fx="48"
       fy="90.171875"
       id="radialGradient3619"
       xlink:href="#linearGradient3737"
       gradientUnits="userSpaceOnUse"
       gradientTransform="matrix(1.1573129,0,0,0.99590774,-7.5510206,0.19713193)" />
    <clipPath
       id="clipPath3613">
      <rect
         width="84"
         height="84"
         rx="6"
         ry="6"
         x="6"
         y="6"
         id="rect3615"
         style="fill:#ffffff;fill-opacity:1;fill-rule:nonzero;stroke:none" />
    </clipPath>
    <linearGradient
       x1="48"
       y1="90"
       x2="48"
       y2="5.9877172"
       id="linearGradient2843"
       xlink:href="#linearGradient3700"
       gradientUnits="userSpaceOnUse"
       gradientTransform="translate(0,100)" />
    <clipPath
       id="clipPath3625">
      <path
         d="M 0,0 0,96 96,96 96,0 0,0 z m 12,6 72,0 c 3.324,0 6,2.676 6,6 l 0,72 c 0,3.324 -2.676,6 -6,6 L 12,90 C 8.676,90 6,87.324 6,84 L 6,12 C 6,8.676 8.676,6 12,6 z"
         inkscape:connector-curvature="0"
         id="path3627"
         style="fill:#ffffff;fill-opacity:1;stroke:none" />
    </clipPath>
    <linearGradient
       x1="44.512066"
       y1="6"
       x2="44.512066"
       y2="90.015434"
       id="linearGradient3643"
       xlink:href="#linearGradient3637"
       gradientUnits="userSpaceOnUse" />
    <clipPath
       id="clipPath3649">
      <rect
         width="76"
         height="76"
         rx="4"
         ry="4"
         x="10"
         y="10"
         id="rect3651"
         style="fill:#ffffff;fill-opacity:1;fill-rule:nonzero;stroke:none" />
    </clipPath>
    <filter
       color-interpolation-filters="sRGB"
       id="filter3657">
      <feGaussianBlur
         id="feGaussianBlur3659"
         stdDeviation="1.14" />
    </filter>
    <linearGradient
       inkscape:collect="always"
       xlink:href="#linearGradient3637"
       id="linearGradient3829"
       gradientUnits="userSpaceOnUse"
       gradientTransform="matrix(0,-3.9873865,3.9873865,0,-55.153418,344.75775)"
       x1="85"
       y1="43"
       x2="30"
       y2="43" />
  </defs>
  <metadata
     id="metadata2413">
    <rdf:RDF>
      <cc:Work
         rdf:about="">
        <dc:format>image/svg+xml</dc:format>
        <dc:type
           rdf:resource="http://purl.org/dc/dcmitype/StillImage" />
        <dc:title></dc:title>
      </cc:Work>
    </rdf:RDF>
  </metadata>
  <g
     id="layer2"
     style="display:none"
     transform="translate(0,160)">
    <rect
       width="86"
       height="85"
       rx="6"
       ry="6"
       x="5"
       y="7"
       clip-path="url(#clipPath3625)"
       id="rect3745"
       style="opacity:0.9;fill:url(#ButtonShadow);fill-opacity:1;fill-rule:nonzero;stroke:none;filter:url(#filter3174)" />
  </g>
  <g
     id="layer1"
     style="display:none"
     transform="translate(0,160)">
    <rect
       width="84"
       height="84"
       rx="6"
       ry="6"
       x="6"
       y="6"
       id="rect2419"
       style="opacity:0.8;fill:#000000;fill-opacity:1;fill-rule:nonzero;stroke:none" />
    <path
       d="m 14,10 c -2.216,0 -4,1.784 -4,4 l 0,68 c 0,2.216 1.784,4 4,4 l 68,0 c 2.216,0 4,-1.784 4,-4 l 0,-68 c 0,-2.216 -1.784,-4 -4,-4 l -68,0 z m 0,3.0625 68,0 c 0.578769,0 0.9375,0.358731 0.9375,0.9375 l 0,68 c 0,0.578769 -0.358731,0.9375 -0.9375,0.9375 l -68,0 c -0.578769,0 -0.9375,-0.358731 -0.9375,-0.9375 l 0,-68 c 0,-0.578769 0.358731,-0.9375 0.9375,-0.9375 z"
       inkscape:connector-curvature="0"
       id="rect3726"
       style="opacity:0.07999998;fill:#000000;fill-opacity:1;fill-rule:nonzero;stroke:none" />
    <path
       d="M 12,6 C 8.676,6 6,8.676 6,12 l 0,72 c 0,3.324 2.676,6 6,6 l 72,0 c 3.324,0 6,-2.676 6,-6 L 90,12 C 90,8.676 87.324,6 84,6 L 12,6 z m 2,4 68,0 c 2.216,0 4,1.784 4,4 l 0,68 c 0,2.216 -1.784,4 -4,4 l -68,0 c -2.216,0 -4,-1.784 -4,-4 l 0,-68 c 0,-2.216 1.784,-4 4,-4 z"
       inkscape:connector-curvature="0"
       id="rect3629"
       style="fill:url(#linearGradient3643);fill-opacity:1;fill-rule:nonzero;stroke:none" />
    <path
       d="M 12,6 C 8.676,6 6,8.676 6,12 l 0,2 0,68 0,2 c 0,0.334721 0.04135,0.6507 0.09375,0.96875 0.0487,0.295596 0.09704,0.596915 0.1875,0.875 0.00988,0.03038 0.020892,0.0636 0.03125,0.09375 0.098865,0.287771 0.2348802,0.547452 0.375,0.8125 0.1445918,0.273507 0.3156161,0.535615 0.5,0.78125 0.1843839,0.245635 0.3737765,0.473472 0.59375,0.6875 0.439947,0.428056 0.94291,0.814526 1.5,1.09375 0.278545,0.139612 0.5734731,0.246947 0.875,0.34375 -0.2562018,-0.100222 -0.4867109,-0.236272 -0.71875,-0.375 -0.00741,-0.0044 -0.023866,0.0045 -0.03125,0 -0.031933,-0.0193 -0.062293,-0.04251 -0.09375,-0.0625 -0.120395,-0.0767 -0.2310226,-0.163513 -0.34375,-0.25 -0.1061728,-0.0808 -0.2132809,-0.161112 -0.3125,-0.25 C 8.4783201,88.557317 8.3087904,88.373362 8.15625,88.1875 8.0486711,88.057245 7.9378561,87.922215 7.84375,87.78125 7.818661,87.74287 7.805304,87.69538 7.78125,87.65625 7.716487,87.553218 7.6510225,87.451733 7.59375,87.34375 7.4927417,87.149044 7.3880752,86.928049 7.3125,86.71875 7.30454,86.69694 7.288911,86.6782 7.28125,86.65625 7.2494249,86.5643 7.2454455,86.469419 7.21875,86.375 7.1884177,86.268382 7.1483606,86.171969 7.125,86.0625 7.0521214,85.720988 7,85.364295 7,85 L 7,83 7,15 7,13 C 7,10.218152 9.2181517,8 12,8 l 2,0 68,0 2,0 c 2.781848,0 5,2.218152 5,5 l 0,2 0,68 0,2 c 0,0.364295 -0.05212,0.720988 -0.125,1.0625 -0.04415,0.206893 -0.08838,0.397658 -0.15625,0.59375 -0.0077,0.02195 -0.0233,0.04069 -0.03125,0.0625 -0.06274,0.173739 -0.138383,0.367449 -0.21875,0.53125 -0.04158,0.0828 -0.07904,0.169954 -0.125,0.25 -0.0546,0.09721 -0.126774,0.18835 -0.1875,0.28125 -0.09411,0.140965 -0.204921,0.275995 -0.3125,0.40625 -0.143174,0.17445 -0.303141,0.346998 -0.46875,0.5 -0.01117,0.0102 -0.01998,0.02115 -0.03125,0.03125 -0.138386,0.125556 -0.285091,0.234436 -0.4375,0.34375 -0.102571,0.07315 -0.204318,0.153364 -0.3125,0.21875 -0.0074,0.0045 -0.02384,-0.0044 -0.03125,0 -0.232039,0.138728 -0.462548,0.274778 -0.71875,0.375 0.301527,-0.0968 0.596455,-0.204138 0.875,-0.34375 0.55709,-0.279224 1.060053,-0.665694 1.5,-1.09375 0.219973,-0.214028 0.409366,-0.441865 0.59375,-0.6875 0.184384,-0.245635 0.355408,-0.507743 0.5,-0.78125 0.14012,-0.265048 0.276135,-0.524729 0.375,-0.8125 0.01041,-0.03078 0.02133,-0.06274 0.03125,-0.09375 0.09046,-0.278085 0.1388,-0.579404 0.1875,-0.875 C 89.95865,84.6507 90,84.334721 90,84 l 0,-2 0,-68 0,-2 C 90,8.676 87.324,6 84,6 L 12,6 z"
       inkscape:connector-curvature="0"
       id="rect3728"
       style="fill:url(#linearGradient3188);fill-opacity:1;fill-rule:nonzero;stroke:none" />
    <path
       d="M 12,90 C 8.676,90 6,87.324 6,84 L 6,82 6,14 6,12 c 0,-0.334721 0.04135,-0.6507 0.09375,-0.96875 0.0487,-0.295596 0.09704,-0.596915 0.1875,-0.875 C 6.29113,10.12587 6.302142,10.09265 6.3125,10.0625 6.411365,9.774729 6.5473802,9.515048 6.6875,9.25 6.8320918,8.976493 7.0031161,8.714385 7.1875,8.46875 7.3718839,8.223115 7.5612765,7.995278 7.78125,7.78125 8.221197,7.353194 8.72416,6.966724 9.28125,6.6875 9.559795,6.547888 9.8547231,6.440553 10.15625,6.34375 9.9000482,6.443972 9.6695391,6.580022 9.4375,6.71875 c -0.00741,0.0044 -0.023866,-0.0045 -0.03125,0 -0.031933,0.0193 -0.062293,0.04251 -0.09375,0.0625 -0.120395,0.0767 -0.2310226,0.163513 -0.34375,0.25 -0.1061728,0.0808 -0.2132809,0.161112 -0.3125,0.25 C 8.4783201,7.442683 8.3087904,7.626638 8.15625,7.8125 8.0486711,7.942755 7.9378561,8.077785 7.84375,8.21875 7.818661,8.25713 7.805304,8.30462 7.78125,8.34375 7.716487,8.446782 7.6510225,8.548267 7.59375,8.65625 7.4927417,8.850956 7.3880752,9.071951 7.3125,9.28125 7.30454,9.30306 7.288911,9.3218 7.28125,9.34375 7.2494249,9.4357 7.2454455,9.530581 7.21875,9.625 7.1884177,9.731618 7.1483606,9.828031 7.125,9.9375 7.0521214,10.279012 7,10.635705 7,11 l 0,2 0,68 0,2 c 0,2.781848 2.2181517,5 5,5 l 2,0 68,0 2,0 c 2.781848,0 5,-2.218152 5,-5 l 0,-2 0,-68 0,-2 C 89,10.635705 88.94788,10.279012 88.875,9.9375 88.83085,9.730607 88.78662,9.539842 88.71875,9.34375 88.71105,9.3218 88.69545,9.30306 88.6875,9.28125 88.62476,9.107511 88.549117,8.913801 88.46875,8.75 88.42717,8.6672 88.38971,8.580046 88.34375,8.5 88.28915,8.40279 88.216976,8.31165 88.15625,8.21875 88.06214,8.077785 87.951329,7.942755 87.84375,7.8125 87.700576,7.63805 87.540609,7.465502 87.375,7.3125 87.36383,7.3023 87.35502,7.29135 87.34375,7.28125 87.205364,7.155694 87.058659,7.046814 86.90625,6.9375 86.803679,6.86435 86.701932,6.784136 86.59375,6.71875 c -0.0074,-0.0045 -0.02384,0.0044 -0.03125,0 -0.232039,-0.138728 -0.462548,-0.274778 -0.71875,-0.375 0.301527,0.0968 0.596455,0.204138 0.875,0.34375 0.55709,0.279224 1.060053,0.665694 1.5,1.09375 0.219973,0.214028 0.409366,0.441865 0.59375,0.6875 0.184384,0.245635 0.355408,0.507743 0.5,0.78125 0.14012,0.265048 0.276135,0.524729 0.375,0.8125 0.01041,0.03078 0.02133,0.06274 0.03125,0.09375 0.09046,0.278085 0.1388,0.579404 0.1875,0.875 C 89.95865,11.3493 90,11.665279 90,12 l 0,2 0,68 0,2 c 0,3.324 -2.676,6 -6,6 l -72,0 z"
       inkscape:connector-curvature="0"
       id="path3615"
       style="opacity:0.6;fill:url(#radialGradient3619);fill-opacity:1;fill-rule:nonzero;stroke:none" />
    <rect
       width="84"
       height="84"
       rx="6"
       ry="6"
       x="6"
       y="106"
       id="rect2841"
       style="fill:url(#linearGradient2843);fill-opacity:1;fill-rule:nonzero;stroke:none" />
    <rect
       width="76"
       height="76"
       rx="4"
       ry="4"
       x="10"
       y="110"
       id="rect3634"
       style="fill:#ff0000;fill-opacity:1;fill-rule:nonzero;stroke:none" />
    <path
       d="m 14,9 c -2.752703,0 -5,2.247297 -5,5 l 0,68 c 0,2.752703 2.247297,5 5,5 l 68,0 c 2.752703,0 5,-2.247297 5,-5 L 87,14 C 87,11.247297 84.752703,9 82,9 L 14,9 z m 0,2 68,0 c 1.679297,0 3,1.320703 3,3 l 0,68 c 0,1.679297 -1.320703,3 -3,3 l -68,0 c -1.679297,0 -3,-1.320703 -3,-3 l 0,-68 c 0,-1.679297 1.320703,-3 3,-3 z"
       inkscape:connector-curvature="0"
       transform="translate(-110,0)"
       clip-path="url(#clipPath3649)"
       id="rect3647"
       style="font-size:medium;font-style:normal;font-variant:normal;font-weight:normal;font-stretch:normal;text-indent:0;text-align:start;text-decoration:none;line-height:normal;letter-spacing:normal;word-spacing:normal;text-transform:none;direction:ltr;block-progression:tb;writing-mode:lr-tb;text-anchor:start;color:#000000;fill:#000000;fill-opacity:1;stroke:none;stroke-width:2;marker:none;visibility:visible;display:inline;overflow:visible;filter:url(#filter3657);enable-background:accumulate;font-family:Abandoned Bitplane;-inkscape-font-specification:Abandoned Bitplane" />
    <path
       d="m 14.089286,10 c -2.216,0 -4,1.784 -4,4 l 0,68 c 0,2.216 1.784,4 4,4 l 68,0 c 2.216,0 4,-1.784 4,-4 l 0,-68 c 0,-2.216 -1.784,-4 -4,-4 l -68,0 z m 0,2 68,0 c 1.140301,0 2,0.859699 2,2 l 0,68 c 0,1.140301 -0.859699,2 -2,2 l -68,0 c -1.140301,0 -2,-0.859699 -2,-2 l 0,-68 c 0,-1.140301 0.859699,-2 2,-2 z"
       inkscape:connector-curvature="0"
       id="path3709"
       style="opacity:0.16000001;fill:#000000;fill-opacity:1;fill-rule:nonzero;stroke:none" />
    <path
       d="m 14,10 c -2.216,0 -4,1.784 -4,4 l 0,68 c 0,2.216 1.784,4 4,4 l 68,0 c 2.216,0 4,-1.784 4,-4 l 0,-68 c 0,-2.216 -1.784,-4 -4,-4 l -68,0 z m 0,1 68,0 c 1.673848,0 3,1.326152 3,3 l 0,68 c 0,1.673848 -1.326152,3 -3,3 l -68,0 c -1.673848,0 -3,-1.326152 -3,-3 l 0,-68 c 0,-1.673848 1.326152,-3 3,-3 z"
       inkscape:connector-curvature="0"
       id="path3707"
       style="opacity:0.36000001;fill:#000000;fill-opacity:1;fill-rule:nonzero;stroke:none" />
  </g>
  <g
     id="layer5"
     style="display:none"
     transform="translate(0,160)">
    <rect
       width="66"
       height="66"
       rx="12"
       ry="12"
       x="15"
       y="15"
       clip-path="url(#clipPath3613)"
       id="rect3171"
       style="opacity:0.1;fill:url(#linearGradient3613);fill-opacity:1;fill-rule:nonzero;stroke:#ffffff;stroke-width:0.5;stroke-linecap:round;stroke-linejoin:miter;stroke-miterlimit:4;stroke-opacity:1;stroke-dasharray:none;stroke-dashoffset:0;filter:url(#filter3794)" />
  </g>
  <g
     id="g3821"
     transform="translate(0.281087,-1.96709)">
    <path
       d="m 155.18121,1.96709 c -0.0176,0.00228 -0.60568,0.1204295 -0.62302,0.1240304 -0.0176,0.00376 -0.60607,0.2440598 -0.62303,0.2492611 -0.0172,0.00392 -0.60656,0.1180289 -0.62303,0.1240304 -0.0164,0.008 -0.60716,0.2412591 -0.62303,0.2492611 -0.016,0.008 -0.48328,0.3640892 -0.49843,0.3732915 -0.0152,0.008 -0.6087,0.3628889 -0.62303,0.3732915 -0.0144,0.012003 -0.48502,0.3620887 -0.49842,0.3732915 -0.0116,0.012003 -0.27891,0.40818 -0.37381,0.4984021 -0.0136,0.012003 -0.12307,-0.00156 -0.12463,0 L 90.884603,64.14357 a 3.6049014,3.6049014 0 0 0 -0.124631,0 c -0.0108,0.012 -0.363649,0.362089 -0.373812,0.373291 -0.01,0.012 -0.364569,0.485919 -0.373811,0.498403 -0.0092,0.012 -0.240939,0.360888 -0.249181,0.373291 -0.0084,0.012 -0.24194,0.484719 -0.249181,0.498442 -0.0072,0.012 -0.24298,0.608789 -0.249181,0.623033 -0.0064,0.016 -0.24402,0.483758 -0.249181,0.498442 -0.0052,0.016 -0.245141,0.483399 -0.249182,0.498402 -0.004,0.016 -0.121629,0.607789 -0.12463,0.623033 -0.003,0.016 0.0019,0.482998 0,0.498442 -0.0019,0.016 -0.12387,0.607469 -0.124631,0.622993 -7.44e-4,0.016 -4e-4,0.607469 0,0.623073 3.96e-4,0.016 0.123071,0.482918 0.124631,0.498362 0.0015,0.016 -0.0027,0.607749 0,0.623072 0.0027,0.016 0.12083,0.483319 0.12463,0.498443 0.0038,0.016 0.11975,0.608269 0.124631,0.622992 0.0048,0.016 0.2433,0.484079 0.249181,0.498442 0.006,0.016 0.242259,0.484479 0.249181,0.498403 0.0072,0.016 0.241259,0.485078 0.249181,0.498442 0.008,0.012 0.36489,0.485679 0.373812,0.498442 0.0088,0.012 0.239379,0.486359 0.249181,0.498402 0.01,0.012 0.363129,0.362089 0.373812,0.373292 0.0108,0.012 0.486919,0.487959 0.498426,0.498402 0.0116,0.012 0.361568,0.363689 0.373811,0.373291 0.0124,0.008 0.485515,0.240459 0.498423,0.249261 0.0128,0.008 0.48491,0.36569 0.498422,0.373292 0.0136,0.008 0.484386,0.242459 0.498426,0.249261 0.014,0.008 0.48393,0.24366 0.498422,0.249261 0.0144,0.0039 0.608161,0.119629 0.623033,0.12403 0.0148,0.004 0.483258,0.12083 0.498422,0.124031 0.0152,0.0035 0.607653,0.12283 0.623029,0.12403 0.0156,0.0024 0.482914,0.12323 0.498426,0.124031 0.0156,0.0012 0.607469,-8e-5 0.623028,0 l 24.04892,0 0,0.249261 c -0.0492,-0.0016 -0.12103,0 -0.12463,0 l -73.766646,0 c -11.972763,0 -21.806021,9.83325 -21.806021,21.806025 l 0,115.634187 c 0,11.97277 9.833258,21.80602 21.806021,21.80602 l 163.482836,0 c 11.97276,0 21.80602,-9.83325 21.80602,-21.80602 l 0,-115.634187 c 0,-11.972775 -9.83326,-21.806025 -21.80602,-21.806025 l -17.94324,0 c -0.003,4e-5 -0.0901,-0.0017 -0.12463,0 l 0,-0.249261 24.04893,0 c 0.0156,-8e-5 0.60752,0.0012 0.62303,0 0.0156,-0.0012 0.48305,-0.12203 0.49842,-0.124031 0.0156,-0.0024 0.60787,-0.120829 0.62303,-0.12403 0.0152,-0.0035 0.48355,-0.119629 0.49842,-0.124031 0.0148,-0.004 0.60854,-0.119229 0.62303,-0.12403 0.0144,-0.004 0.48438,-0.242459 0.49842,-0.249261 0.014,-0.008 0.48491,-0.241659 0.49843,-0.249261 0.0136,-0.008 0.48551,-0.36529 0.49842,-0.373292 0.0128,-0.008 0.48618,-0.239658 0.49842,-0.249261 0.0124,-0.008 0.36233,-0.362889 0.37381,-0.373291 0.0116,-0.012 0.48772,-0.48712 0.49842,-0.498402 0.0108,-0.012 0.36401,-0.361689 0.37382,-0.373292 0.01,-0.012 0.24029,-0.485719 0.24918,-0.498402 0.009,-0.012 0.36581,-0.485079 0.37381,-0.498442 0.008,-0.012 0.24226,-0.484559 0.24918,-0.498442 0.007,-0.016 0.2433,-0.484079 0.24918,-0.498403 0.006,-0.016 0.24438,-0.483678 0.24918,-0.498442 0.005,-0.016 0.12083,-0.607949 0.12463,-0.622992 0.004,-0.016 0.12195,-0.483159 0.12463,-0.498443 0.003,-0.016 -0.002,-0.607549 0,-0.623072 0.002,-0.016 0.12423,-0.482839 0.12463,-0.498362 4e-4,-0.016 7.4e-4,-0.607469 0,-0.623073 -7.4e-4,-0.016 -0.12275,-0.607589 -0.12463,-0.622993 -0.002,-0.016 0.003,-0.483158 0,-0.498442 -0.003,-0.016 -0.12051,-0.608029 -0.12463,-0.623033 -0.004,-0.016 -0.24402,-0.483758 -0.24918,-0.498402 -0.005,-0.016 -0.24298,-0.484199 -0.24918,-0.498442 -0.006,-0.016 -0.24194,-0.609309 -0.24918,-0.623033 -0.007,-0.012 -0.24094,-0.485239 -0.24918,-0.498442 -0.008,-0.012 -0.24002,-0.360888 -0.24918,-0.373291 -0.009,-0.012 -0.36369,-0.4866 -0.37382,-0.498403 -0.01,-0.012 -0.36284,-0.362489 -0.37381,-0.373291 a 3.6049014,3.6049014 0 0 0 -0.12463,0 L 161.78532,4.3336301 c -0.001,-0.0014 -0.10958,0.016004 -0.12463,0 -0.075,-0.072818 -0.24185,-0.36689 -0.24918,-0.3732915 -0.009,-0.008 -0.36449,-0.2416593 -0.37381,-0.2492611 -0.009,-0.008 -0.2395,-0.2420594 -0.24918,-0.2492611 -0.01,-0.008 -0.36377,-0.2428596 -0.37381,-0.2492611 -0.01,-0.008 -0.36341,-0.2432596 -0.37381,-0.2492611 -0.0104,-0.004 -0.48767,-0.2440598 -0.49842,-0.2492611 -0.0108,-0.004 -0.36277,-0.1204295 -0.37382,-0.1240304 -0.0112,-0.004 -0.36257,-0.1208296 -0.37381,-0.1248306 -0.0112,-0.004 -0.48693,-0.2456602 -0.49842,-0.2492611 -0.0116,-0.0034 -0.36213,0.00272 -0.37381,0 -0.0116,-0.00276 -0.36205,-0.12243 -0.37381,-0.1240304 -0.012,-0.00208 -0.48653,-0.1232302 -0.49843,-0.1240304 -0.012,-0.00132 -0.36188,7.202e-4 -0.37381,0 -0.012,-6.802e-4 -0.48644,4e-5 -0.49842,0 -0.012,-4e-5 -0.48645,-6.002e-4 -0.49842,0 -0.012,6.401e-4 -0.36193,-0.00124 -0.37381,0 a 3.6049014,3.6049014 0 0 0 -0.12463,0 z m -90.837641,115.38504 55.948011,0 c 0.003,-4e-5 0.0901,0.002 0.12463,0 l 0,24.0489 c 10e-6,0.012 -5.2e-4,0.36289 0,0.37329 5.2e-4,0.012 -0.001,0.36369 0,0.37329 10e-4,0.012 0.12307,0.36329 0.12463,0.37329 0.002,0.012 -0.002,0.36329 0,0.37329 0.002,0.012 0.12207,0.36329 0.12463,0.37329 0.003,0.008 0.12159,0.36369 0.12463,0.3733 0.003,0.008 0.12111,0.36368 0.12464,0.37329 0.004,0.008 0.12062,0.36369 0.12463,0.37329 0.004,0.008 0.12015,0.36409 0.12463,0.37329 0.004,0.008 0.2443,0.36489 0.24918,0.37329 0.005,0.008 0.11927,0.24046 0.12463,0.24926 0.005,0.008 0.24346,0.36529 0.24918,0.37329 0.006,0.008 0.11843,0.24086 0.12463,0.24926 0.006,0.008 0.24266,0.36569 0.24918,0.3733 0.007,0.008 0.24226,0.24166 0.24918,0.24926 0.007,0.008 0.36645,0.24206 0.37381,0.24926 0.007,0.008 0.24154,0.36649 0.24918,0.37329 0.008,0.008 0.24118,0.24246 0.24919,0.24926 0.008,0.008 0.36545,0.24286 0.37381,0.24926 0.008,0.008 0.24058,0.11883 0.24918,0.12403 0.009,0.004 0.36489,0.24406 0.37381,0.24926 0.009,0.004 0.24006,0.11963 0.24918,0.12443 0.009,0.004 0.36441,0.24486 0.37381,0.24927 0.01,0.004 0.36421,0.12042 0.37381,0.12403 0.01,0.004 0.36409,0.12083 0.37382,0.12403 0.01,0.003 0.36392,0.12163 0.37381,0.12443 0.01,0.003 0.36377,0.12203 0.37381,0.12403 0.01,0.003 0.36361,0.12283 0.37381,0.12403 0.0104,0.002 0.36353,-0.002 0.37381,0 0.0104,0.002 0.36349,0.12363 0.37381,0.12443 0.0104,10e-4 0.36345,-5.2e-4 0.37382,0 0.0104,5.2e-4 0.3634,0 0.37381,0 l 55.82341,0 c 0.0104,0 0.36341,5.2e-4 0.37381,0 0.0104,-5.2e-4 0.36353,10e-4 0.37381,0 0.0104,-0.001 0.36349,-0.12323 0.37381,-0.12443 0.0104,-0.002 0.36365,0.002 0.37381,0 0.0104,-0.002 0.36373,-0.12243 0.37382,-0.12403 0.01,-0.003 0.36385,-0.12163 0.37381,-0.12403 0.01,-0.003 0.36405,-0.12083 0.37381,-0.12443 0.01,-0.004 0.36421,-0.12003 0.37381,-0.12403 0.01,-0.004 0.36437,-0.11963 0.37381,-0.12403 0.01,-0.004 0.36465,-0.24446 0.37381,-0.24927 0.009,-0.004 0.2403,-0.11963 0.24919,-0.12443 0.009,-0.004 0.36516,-0.24326 0.37381,-0.24926 0.009,-0.004 0.2409,-0.11883 0.24918,-0.12403 0.008,-0.008 0.36573,-0.24246 0.37381,-0.24926 0.008,-0.008 0.24154,-0.24246 0.24918,-0.24926 0.008,-0.008 0.2419,-0.36609 0.24918,-0.37329 0.007,-0.008 0.36681,-0.24166 0.37381,-0.24926 0.007,-0.008 0.24266,-0.24126 0.24918,-0.24926 0.007,-0.008 0.24306,-0.36529 0.24923,-0.3733 0.006,-0.008 0.11882,-0.24045 0.12463,-0.24926 0.006,-0.008 0.2439,-0.36489 0.24918,-0.37329 0.005,-0.008 0.11971,-0.24006 0.12463,-0.24926 0.005,-0.008 0.24478,-0.36409 0.24918,-0.37329 0.004,-0.008 0.12063,-0.36369 0.12463,-0.37329 0.004,-0.008 0.12111,-0.36369 0.12463,-0.37329 0.004,-0.008 0.12159,-0.36409 0.12463,-0.37329 0.003,-0.008 0.12207,-0.36329 0.12463,-0.3733 0.003,-0.008 0.12259,-0.36329 0.12463,-0.37329 0.002,-0.012 -0.002,-0.36369 0,-0.37329 0.002,-0.012 0.12359,-0.36329 0.12463,-0.37329 0.001,-0.012 -5.2e-4,-0.36329 0,-0.37329 5.1e-4,-0.012 -1e-5,-0.36289 0,-0.37329 l 0,-24.0489 c 0.0492,0.002 0.12103,0 0.12463,0 l 0.12463,0 0,79.99693 -127.845569,0 0,-79.99693 z"
       id="path3947"
       style="opacity:0.1;color:#000000;fill:#000000;fill-opacity:1;fill-rule:nonzero;stroke:none;stroke-width:2;marker:none;visibility:visible;display:inline;overflow:visible;enable-background:accumulate"
       inkscape:connector-curvature="0" />
    <path
       d="m 155.67964,5.5806957 a 4.240607,4.240607 0 0 0 -2.49212,1.2460654 L 93.376725,66.637541 a 4.240607,4.240607 0 0 0 2.990545,7.227132 l 27.66248,0 0,9.719302 a 4.240607,4.240607 0 0 0 -3.73817,-2.24295 l -73.766642,0 c -10.007261,0 -18.192455,8.185206 -18.192455,18.192459 l 0,115.634226 c 0,10.00725 8.185194,18.19246 18.192455,18.19246 l 163.482842,0 c 10.00726,0 18.19245,-8.18521 18.19245,-18.19246 l 0,-115.634226 c 0,-10.007253 -8.18519,-18.192459 -18.19245,-18.192459 l -17.94324,0 a 4.240607,4.240607 0 0 0 -3.73818,2.3675 l 0,-9.843852 27.6625,0 a 4.240607,4.240607 0 0 0 2.99054,-7.227132 L 159.1686,6.8267611 a 4.240607,4.240607 0 0 0 -3.48896,-1.2460654 z m -31.64989,105.7903343 0,30.03 a 4.240607,4.240607 0 0 0 4.23661,4.23663 l 55.82341,0 a 4.240607,4.240607 0 0 0 4.23659,-4.23663 l 0,-29.90537 a 4.240607,4.240607 0 0 0 3.73818,2.24287 l 0.99685,0 c 1.59005,0 2.74132,1.15128 2.74132,2.74135 l 0,81.74143 c 0,1.59003 -1.15127,2.74132 -2.74132,2.74132 l -129.590059,0 c -1.590053,0 -2.741331,-1.15129 -2.741331,-2.74132 l 0,-81.74143 c 0,-1.59007 1.151278,-2.74135 2.741331,-2.74135 l 56.820249,0 a 4.240607,4.240607 0 0 0 3.73817,-2.3675 z"
       id="path3943"
       style="opacity:0.15;color:#000000;fill:#000000;fill-opacity:1;fill-rule:nonzero;stroke:none;stroke-width:2;marker:none;visibility:visible;display:inline;overflow:visible;enable-background:accumulate"
       inkscape:connector-curvature="0" />
    <path
       d="m 156.17806,9.8172941 -59.81079,59.8107799 31.89909,0 0,71.772956 55.82341,0 0,-71.772956 31.89909,0 -59.8108,-59.8107799 z M 46.524938,85.577623 c -7.731543,0 -13.955853,6.224326 -13.955853,13.955861 l 0,115.634226 c 0,7.73153 6.22431,13.95586 13.955853,13.95586 l 163.482842,0 c 7.73154,0 13.95585,-6.22433 13.95585,-13.95586 l 0,-115.634226 c 0,-7.731535 -6.22431,-13.955861 -13.95585,-13.955861 l -17.94324,0 0,23.924347 0.99685,0 c 3.86577,0 6.97792,3.11212 6.97792,6.97791 l 0,81.74143 c 0,3.86575 -3.11215,6.97791 -6.97792,6.97791 l -129.590059,0 c -3.865771,0 -6.97793,-3.11216 -6.97793,-6.97791 l 0,-81.74143 c 0,-3.86579 3.112159,-6.97791 6.97793,-6.97791 l 56.820249,0 0,-23.924347 -73.766642,0 z"
       inkscape:connector-curvature="0"
       id="path3937"
       style="opacity:0.3;color:#000000;fill:#000000;fill-opacity:1;fill-rule:nonzero;stroke:none;stroke-width:2;marker:none;visibility:visible;display:inline;overflow:visible;enable-background:accumulate" />
    <path
       d="m 156.17806,5.8299168 -59.81079,59.8107802 31.89909,0 0,71.772993 55.82341,0 0,-71.772993 31.89909,0 -59.8108,-59.8107802 z M 46.524938,81.590286 c -7.731543,0 -13.955853,6.224286 -13.955853,13.955821 l 0,115.634223 c 0,7.73153 6.22431,13.95582 13.955853,13.95582 l 163.482842,0 c 7.73154,0 13.95585,-6.22429 13.95585,-13.95582 l 0,-115.634223 c 0,-7.731535 -6.22431,-13.955821 -13.95585,-13.955821 l -17.94324,0 0,23.924264 0.99685,0 c 3.86577,0 6.97792,3.1122 6.97792,6.97791 l 0,81.74144 c 0,3.86578 -3.11215,6.97795 -6.97792,6.97795 l -129.590059,0 c -3.865771,0 -6.97793,-3.11217 -6.97793,-6.97795 l 0,-81.74144 c 0,-3.86571 3.112159,-6.97791 6.97793,-6.97791 l 56.820249,0 0,-23.924264 -73.766642,0 z"
       inkscape:connector-curvature="0"
       id="path3113"
       style="color:#000000;fill:url(#linearGradient3829);fill-opacity:1;fill-rule:nonzero;stroke:none;stroke-width:2;marker:none;visibility:visible;display:inline;overflow:visible;enable-background:accumulate" />
    <path
       d="m 156.17806,5.8299168 -59.81079,59.8107802 3.98738,0 55.82341,-55.8234029 55.82341,55.8234029 3.98739,0 -59.8108,-59.8107802 z M 46.524938,81.590286 c -7.731543,0 -13.955853,6.224286 -13.955853,13.955821 l 0,3.987377 c 0,-7.731535 6.22431,-13.955861 13.955853,-13.955861 l 73.766642,0 0,-3.987337 -73.766642,0 z m 145.539602,0 0,3.987337 17.94324,0 c 7.73154,0 13.95585,6.224326 13.95585,13.955861 l 0,-3.987377 c 0,-7.731535 -6.22431,-13.955821 -13.95585,-13.955821 l -17.94324,0 z M 56.493401,194.2339 l 0,3.98741 c 0,3.86575 3.112159,6.97791 6.97793,6.97791 l 129.590059,0 c 3.86577,0 6.97792,-3.11216 6.97792,-6.97791 l 0,-3.98741 c 0,3.86578 -3.11215,6.97795 -6.97792,6.97795 l -129.590059,0 c -3.865771,0 -6.97793,-3.11217 -6.97793,-6.97795 z"
       inkscape:connector-curvature="0"
       id="path3151"
       style="opacity:0.75;color:#000000;fill:#ffffff;fill-opacity:1;fill-rule:nonzero;stroke:none;stroke-width:2;marker:none;visibility:visible;display:inline;overflow:visible;enable-background:accumulate" />
    <path
       d="m 100.35465,61.653319 -3.98738,3.987378 31.89909,0 0,-3.987378 -27.91171,0 z m 83.73512,0 0,3.987378 31.89909,0 -3.98739,-3.987378 -27.9117,0 z M 63.471331,101.52721 c -3.865771,0 -6.97793,3.11213 -6.97793,6.97791 l 0,3.98734 c 0,-3.86571 3.112159,-6.97791 6.97793,-6.97791 l 56.820249,0 0,-3.98734 -56.820249,0 z m 128.593209,0 0,3.98734 0.99685,0 c 3.86577,0 6.97792,3.1122 6.97792,6.97791 l 0,-3.98734 c 0,-3.86578 -3.11215,-6.97791 -6.97792,-6.97791 l -0.99685,0 z m -63.79818,31.89906 0,3.98742 55.82341,0 0,-3.98742 -55.82341,0 z m -95.697275,73.76664 0,3.98742 c 0,7.73153 6.22431,13.95582 13.955853,13.95582 l 163.482842,0 c 7.73154,0 13.95585,-6.22429 13.95585,-13.95582 l 0,-3.98742 c 0,7.73158 -6.22431,13.95586 -13.95585,13.95586 l -163.482842,0 c -7.731543,0 -13.955853,-6.22428 -13.955853,-13.95586 z"
       inkscape:connector-curvature="0"
       id="path3928"
       style="opacity:0.15;color:#000000;fill:#000000;fill-opacity:1;fill-rule:nonzero;stroke:none;stroke-width:2;marker:none;visibility:visible;display:inline;overflow:visible;enable-background:accumulate" />
  </g>
</svg>
