<?xml version="1.0" encoding="UTF-8" standalone="no"?>
<!-- Created with Inkscape (http://www.inkscape.org/) -->

<svg
   xmlns:dc="http://purl.org/dc/elements/1.1/"
   xmlns:cc="http://creativecommons.org/ns#"
   xmlns:rdf="http://www.w3.org/1999/02/22-rdf-syntax-ns#"
   xmlns:svg="http://www.w3.org/2000/svg"
   xmlns="http://www.w3.org/2000/svg"
   xmlns:xlink="http://www.w3.org/1999/xlink"
   xmlns:sodipodi="http://sodipodi.sourceforge.net/DTD/sodipodi-0.dtd"
   xmlns:inkscape="http://www.inkscape.org/namespaces/inkscape"
   width="256"
   height="256"
   id="svg4023"
   version="1.1"
   inkscape:version="0.48.3.1 r9886"
   sodipodi:docname="applications-graphics.svg">
  <defs
     id="defs4025">
    <linearGradient
       id="linearGradient3896">
      <stop
         style="stop-color:#f9f9f9;stop-opacity:1;"
         offset="0"
         id="stop3898" />
      <stop
         style="stop-color:#d7d7d7;stop-opacity:1;"
         offset="1"
         id="stop3900" />
    </linearGradient>
    <linearGradient
       inkscape:collect="always"
       xlink:href="#linearGradient3896"
       id="linearGradient4879"
       gradientUnits="userSpaceOnUse"
       x1="608.71936"
       y1="221.57932"
       x2="610.25037"
       y2="453.47342" />
  </defs>
  <sodipodi:namedview
     id="base"
     pagecolor="#ffffff"
     bordercolor="#666666"
     borderopacity="1.0"
     inkscape:pageopacity="0.0"
     inkscape:pageshadow="2"
     inkscape:zoom="1.6367188"
     inkscape:cx="128"
     inkscape:cy="128"
     inkscape:document-units="px"
     inkscape:current-layer="layer1"
     showgrid="false"
     inkscape:snap-center="true"
     inkscape:object-paths="true"
     inkscape:snap-intersection-paths="true"
     inkscape:object-nodes="true"
     inkscape:snap-smooth-nodes="true"
     inkscape:snap-midpoints="true"
     inkscape:snap-object-midpoints="true"
     inkscape:snap-bbox="true"
     inkscape:bbox-paths="true"
     inkscape:bbox-nodes="true"
     inkscape:snap-bbox-edge-midpoints="true"
     inkscape:snap-bbox-midpoints="true"
     fit-margin-top="0"
     fit-margin-left="0"
     fit-margin-right="0"
     fit-margin-bottom="0"
     inkscape:window-width="1024"
     inkscape:window-height="572"
     inkscape:window-x="0"
     inkscape:window-y="28"
     inkscape:window-maximized="1" />
  <metadata
     id="metadata4028">
    <rdf:RDF>
      <cc:Work
         rdf:about="">
        <dc:format>image/svg+xml</dc:format>
        <dc:type
           rdf:resource="http://purl.org/dc/dcmitype/StillImage" />
        <dc:title></dc:title>
      </cc:Work>
    </rdf:RDF>
  </metadata>
  <g
     inkscape:label="Layer 1"
     inkscape:groupmode="layer"
     id="layer1"
     style="display:inline"
     transform="translate(-482.25,-209.46875)">
    <g
       id="g4904">
      <path
         inkscape:connector-curvature="0"
         id="path4821"
         d="m 609.71921,221.48562 a 9.8849298,9.8942472 0 0 0 -0.99985,0.0937 l 0,0.0625 a 9.8849298,9.8942472 0 0 0 -6.49902,3.99964 c 0,0 -14.70155,21.10351 -17.80984,49.37045 -22.18109,-17.79885 -47.52414,-22.40419 -47.52414,-22.40419 a 9.8849298,9.8942472 0 0 0 -11.46703,11.34276 c 0,0 4.59605,25.52121 22.40289,47.71435 -28.27965,3.1096 -49.46135,17.81086 -49.46135,17.81086 a 9.8849298,9.8942472 0 0 0 0,16.06102 c 0,0 21.20202,14.60252 49.46135,17.68587 -17.80684,22.19448 -22.40289,47.68311 -22.40289,47.68311 a 9.8849298,9.8942472 0 0 0 11.46703,11.34271 c 0,0 25.34305,-4.60534 47.52414,-22.40419 3.10596,28.28684 17.80984,49.52669 17.80984,49.52669 a 9.8849298,9.8942472 0 0 0 16.02885,0 c 0,0 14.63977,-21.31572 17.68485,-49.65168 22.2169,17.90415 47.64912,22.52918 47.64912,22.52918 a 9.8849298,9.8942472 0 0 0 11.46704,-11.4677 c 0,0 -4.67697,-25.38001 -22.49664,-47.55812 28.27612,-3.08078 49.58633,-17.68587 49.58633,-17.68587 a 9.8849298,9.8942472 0 0 0 0,-16.06102 c 0,0 -21.28677,-14.70405 -49.58633,-17.81086 17.81922,-22.17811 22.49664,-47.58936 22.49664,-47.58936 A 9.8849298,9.8942472 0 0 0 683.61441,252.5765 c 0,0 -25.43312,4.62459 -47.64912,22.52918 -3.06167,-28.28774 -17.68486,-49.49544 -17.68486,-49.49544 a 9.8849298,9.8942472 0 0 0 -8.52997,-4.12462 9.8849298,9.8942472 0 0 0 -0.0312,0 z"
         style="opacity:0.05;fill:none;stroke:#000000;stroke-width:24;stroke-linejoin:round;stroke-miterlimit:4;stroke-opacity:1;stroke-dasharray:none" />
      <path
         style="opacity:0.1;fill:none;stroke:#000000;stroke-width:18;stroke-linejoin:round;stroke-miterlimit:4;stroke-opacity:1;stroke-dasharray:none"
         d="m 609.71921,221.48562 a 9.8849298,9.8942472 0 0 0 -0.99985,0.0937 l 0,0.0625 a 9.8849298,9.8942472 0 0 0 -6.49902,3.99964 c 0,0 -14.70155,21.10351 -17.80984,49.37045 -22.18109,-17.79885 -47.52414,-22.40419 -47.52414,-22.40419 a 9.8849298,9.8942472 0 0 0 -11.46703,11.34276 c 0,0 4.59605,25.52121 22.40289,47.71435 -28.27965,3.1096 -49.46135,17.81086 -49.46135,17.81086 a 9.8849298,9.8942472 0 0 0 0,16.06102 c 0,0 21.20202,14.60252 49.46135,17.68587 -17.80684,22.19448 -22.40289,47.68311 -22.40289,47.68311 a 9.8849298,9.8942472 0 0 0 11.46703,11.34271 c 0,0 25.34305,-4.60534 47.52414,-22.40419 3.10596,28.28684 17.80984,49.52669 17.80984,49.52669 a 9.8849298,9.8942472 0 0 0 16.02885,0 c 0,0 14.63977,-21.31572 17.68485,-49.65168 22.2169,17.90415 47.64912,22.52918 47.64912,22.52918 a 9.8849298,9.8942472 0 0 0 11.46704,-11.4677 c 0,0 -4.67697,-25.38001 -22.49664,-47.55812 28.27612,-3.08078 49.58633,-17.68587 49.58633,-17.68587 a 9.8849298,9.8942472 0 0 0 0,-16.06102 c 0,0 -21.28677,-14.70405 -49.58633,-17.81086 17.81922,-22.17811 22.49664,-47.58936 22.49664,-47.58936 A 9.8849298,9.8942472 0 0 0 683.61441,252.5765 c 0,0 -25.43312,4.62459 -47.64912,22.52918 -3.06167,-28.28774 -17.68486,-49.49544 -17.68486,-49.49544 a 9.8849298,9.8942472 0 0 0 -8.52997,-4.12462 9.8849298,9.8942472 0 0 0 -0.0312,0 z"
         id="path4819"
         inkscape:connector-curvature="0" />
      <path
         inkscape:connector-curvature="0"
         id="path4817"
         d="m 609.71921,221.48562 a 9.8849298,9.8942472 0 0 0 -0.99985,0.0937 l 0,0.0625 a 9.8849298,9.8942472 0 0 0 -6.49902,3.99964 c 0,0 -14.70155,21.10351 -17.80984,49.37045 -22.18109,-17.79885 -47.52414,-22.40419 -47.52414,-22.40419 a 9.8849298,9.8942472 0 0 0 -11.46703,11.34276 c 0,0 4.59605,25.52121 22.40289,47.71435 -28.27965,3.1096 -49.46135,17.81086 -49.46135,17.81086 a 9.8849298,9.8942472 0 0 0 0,16.06102 c 0,0 21.20202,14.60252 49.46135,17.68587 -17.80684,22.19448 -22.40289,47.68311 -22.40289,47.68311 a 9.8849298,9.8942472 0 0 0 11.46703,11.34271 c 0,0 25.34305,-4.60534 47.52414,-22.40419 3.10596,28.28684 17.80984,49.52669 17.80984,49.52669 a 9.8849298,9.8942472 0 0 0 16.02885,0 c 0,0 14.63977,-21.31572 17.68485,-49.65168 22.2169,17.90415 47.64912,22.52918 47.64912,22.52918 a 9.8849298,9.8942472 0 0 0 11.46704,-11.4677 c 0,0 -4.67697,-25.38001 -22.49664,-47.55812 28.27612,-3.08078 49.58633,-17.68587 49.58633,-17.68587 a 9.8849298,9.8942472 0 0 0 0,-16.06102 c 0,0 -21.28677,-14.70405 -49.58633,-17.81086 17.81922,-22.17811 22.49664,-47.58936 22.49664,-47.58936 A 9.8849298,9.8942472 0 0 0 683.61441,252.5765 c 0,0 -25.43312,4.62459 -47.64912,22.52918 -3.06167,-28.28774 -17.68486,-49.49544 -17.68486,-49.49544 a 9.8849298,9.8942472 0 0 0 -8.52997,-4.12462 9.8849298,9.8942472 0 0 0 -0.0312,0 z"
         style="opacity:0.15;fill:none;stroke:#000000;stroke-width:12;stroke-linejoin:round;stroke-miterlimit:4;stroke-opacity:1;stroke-dasharray:none" />
      <path
         style="opacity:0.2;fill:none;stroke:#000000;stroke-width:6;stroke-linejoin:round;stroke-miterlimit:4;stroke-opacity:1;stroke-dasharray:none"
         d="m 609.71921,221.48562 a 9.8849298,9.8942472 0 0 0 -0.99985,0.0937 l 0,0.0625 a 9.8849298,9.8942472 0 0 0 -6.49902,3.99964 c 0,0 -14.70155,21.10351 -17.80984,49.37045 -22.18109,-17.79885 -47.52414,-22.40419 -47.52414,-22.40419 a 9.8849298,9.8942472 0 0 0 -11.46703,11.34276 c 0,0 4.59605,25.52121 22.40289,47.71435 -28.27965,3.1096 -49.46135,17.81086 -49.46135,17.81086 a 9.8849298,9.8942472 0 0 0 0,16.06102 c 0,0 21.20202,14.60252 49.46135,17.68587 -17.80684,22.19448 -22.40289,47.68311 -22.40289,47.68311 a 9.8849298,9.8942472 0 0 0 11.46703,11.34271 c 0,0 25.34305,-4.60534 47.52414,-22.40419 3.10596,28.28684 17.80984,49.52669 17.80984,49.52669 a 9.8849298,9.8942472 0 0 0 16.02885,0 c 0,0 14.63977,-21.31572 17.68485,-49.65168 22.2169,17.90415 47.64912,22.52918 47.64912,22.52918 a 9.8849298,9.8942472 0 0 0 11.46704,-11.4677 c 0,0 -4.67697,-25.38001 -22.49664,-47.55812 28.27612,-3.08078 49.58633,-17.68587 49.58633,-17.68587 a 9.8849298,9.8942472 0 0 0 0,-16.06102 c 0,0 -21.28677,-14.70405 -49.58633,-17.81086 17.81922,-22.17811 22.49664,-47.58936 22.49664,-47.58936 A 9.8849298,9.8942472 0 0 0 683.61441,252.5765 c 0,0 -25.43312,4.62459 -47.64912,22.52918 -3.06167,-28.28774 -17.68486,-49.49544 -17.68486,-49.49544 a 9.8849298,9.8942472 0 0 0 -8.52997,-4.12462 9.8849298,9.8942472 0 0 0 -0.0312,0 z"
         id="path4815"
         inkscape:connector-curvature="0" />
      <path
         inkscape:connector-curvature="0"
         style="opacity:0.3;fill:#000000;fill-opacity:1;stroke:none"
         d="m 695.15625,263.375 a 9.8849298,9.8942472 0 0 1 -0.0937,0.6875 c 0,0 -4.68078,25.41564 -22.5,47.59375 0.47391,0.052 0.93634,0.12909 1.40625,0.1875 16.65154,-21.728 21.09375,-45.78125 21.09375,-45.78125 a 9.8849298,9.8942472 0 0 0 0.0937,-2.6875 z M 525.375,263.4062 a 9.8849298,9.8942472 0 0 0 0.0312,2.53125 c 0,0 4.36403,24.15877 21,45.90625 0.46953,-0.0584 0.93267,-0.13543 1.40625,-0.1875 -17.80684,-22.19314 -22.40625,-47.71875 -22.40625,-47.71875 a 9.8849298,9.8942472 0 0 1 -0.0312,-0.53125 z m -31.0625,75.0625 a 9.8849298,9.8942472 0 0 0 4.0625,9.0625 c 0,0 20.48059,14.12777 48.03125,17.53125 0.46726,-0.61113 0.91941,-1.23695 1.40625,-1.84375 -28.25933,-3.08335 -49.4375,-17.6875 -49.4375,-17.6875 a 9.8849298,9.8942472 0 0 1 -4.0625,-7.0625 z m 231.875,0.0937 a 9.8849298,9.8942472 0 0 1 -4.0625,6.96875 c 0,0 -21.28638,14.60672 -49.5625,17.6875 0.48719,0.60635 0.93854,1.2332 1.40625,1.84375 27.57012,-3.40112 48.15625,-17.53125 48.15625,-17.53125 a 9.8849298,9.8942472 0 0 0 4.0625,-8.96875 z m -90.25,61.15625 C 632.89242,428.05471 618.25,449.375 618.25,449.375 a 9.8849298,9.8942472 0 0 1 -16.03125,0 c 0,0 -14.70654,-21.24441 -17.8125,-49.53125 C 562.22516,417.6426 536.875,422.25 536.875,422.25 A 9.8849298,9.8942472 0 0 1 525.34375,413.5625 9.8849298,9.8942472 0 0 0 536.875,424.25 c 0,0 25.35016,-4.6074 47.53125,-22.40625 3.10596,28.28684 17.8125,49.53125 17.8125,49.53125 a 9.8849298,9.8942472 0 0 0 16.03125,0 c 0,0 14.64242,-21.32029 17.6875,-49.65625 22.2169,17.90415 47.65625,22.53125 47.65625,22.53125 a 9.8849298,9.8942472 0 0 0 11.53125,-10.75 9.8849298,9.8942472 0 0 1 -11.53125,8.75 c 0,0 -25.43935,-4.6271 -47.65625,-22.53125 z"
         id="path4811" />
    </g>
    <path
       style="fill:url(#linearGradient4879);fill-opacity:1;stroke:none"
       d="m 609.71921,221.48562 a 9.8849298,9.8942472 0 0 0 -0.99985,0.0937 l 0,0.0625 a 9.8849298,9.8942472 0 0 0 -6.49902,3.99964 c 0,0 -14.70155,21.10351 -17.80984,49.37045 -22.18109,-17.79885 -47.52414,-22.40419 -47.52414,-22.40419 a 9.8849298,9.8942472 0 0 0 -11.46703,11.34276 c 0,0 4.59605,25.52121 22.40289,47.71435 -28.27965,3.1096 -49.46135,17.81086 -49.46135,17.81086 a 9.8849298,9.8942472 0 0 0 0,16.06102 c 0,0 21.20202,14.60252 49.46135,17.68587 -17.80684,22.19448 -22.40289,47.68311 -22.40289,47.68311 a 9.8849298,9.8942472 0 0 0 11.46703,11.34271 c 0,0 25.34305,-4.60534 47.52414,-22.40419 3.10596,28.28684 17.80984,49.52669 17.80984,49.52669 a 9.8849298,9.8942472 0 0 0 16.02885,0 c 0,0 14.63977,-21.31572 17.68485,-49.65168 22.2169,17.90415 47.64912,22.52918 47.64912,22.52918 a 9.8849298,9.8942472 0 0 0 11.46704,-11.4677 c 0,0 -4.67697,-25.38001 -22.49664,-47.55812 28.27612,-3.08078 49.58633,-17.68587 49.58633,-17.68587 a 9.8849298,9.8942472 0 0 0 0,-16.06102 c 0,0 -21.28677,-14.70405 -49.58633,-17.81086 17.81922,-22.17811 22.49664,-47.58936 22.49664,-47.58936 A 9.8849298,9.8942472 0 0 0 683.61441,252.5765 c 0,0 -25.43312,4.62459 -47.64912,22.52918 -3.06167,-28.28774 -17.68486,-49.49544 -17.68486,-49.49544 a 9.8849298,9.8942472 0 0 0 -8.52997,-4.12462 9.8849298,9.8942472 0 0 0 -0.0312,0 z"
       id="rect4772"
       inkscape:connector-curvature="0" />
    <path
       inkscape:connector-curvature="0"
       style="opacity:0.7;fill:#000000;fill-opacity:1;stroke:none"
       d="m 695.15625,261.375 a 9.8849298,9.8942472 0 0 1 -0.0937,0.6875 c 0,0 -4.68078,25.41564 -22.5,47.59375 0.47391,0.052 0.93634,0.12909 1.40625,0.1875 16.65154,-21.728 21.09375,-45.78125 21.09375,-45.78125 a 9.8849298,9.8942472 0 0 0 0.0937,-2.6875 z M 525.375,261.4062 a 9.8849298,9.8942472 0 0 0 0.0312,2.53125 c 0,0 4.36403,24.15877 21,45.90625 0.46953,-0.0584 0.93267,-0.13543 1.40625,-0.1875 -17.80684,-22.19314 -22.40625,-47.71875 -22.40625,-47.71875 a 9.8849298,9.8942472 0 0 1 -0.0312,-0.53125 z m -31.0625,75.0625 a 9.8849298,9.8942472 0 0 0 4.0625,9.0625 c 0,0 20.48059,14.12777 48.03125,17.53125 0.46726,-0.61113 0.91941,-1.23695 1.40625,-1.84375 -28.25933,-3.08335 -49.4375,-17.6875 -49.4375,-17.6875 a 9.8849298,9.8942472 0 0 1 -4.0625,-7.0625 z m 231.875,0.0937 a 9.8849298,9.8942472 0 0 1 -4.0625,6.96875 c 0,0 -21.28638,14.60672 -49.5625,17.6875 0.48719,0.60635 0.93854,1.2332 1.40625,1.84375 27.57012,-3.40112 48.15625,-17.53125 48.15625,-17.53125 a 9.8849298,9.8942472 0 0 0 4.0625,-8.96875 z m -90.25,61.15625 C 632.89242,426.05471 618.25,447.375 618.25,447.375 a 9.8849298,9.8942472 0 0 1 -16.03125,0 c 0,0 -14.70654,-21.24441 -17.8125,-49.53125 C 562.22516,415.6426 536.875,420.25 536.875,420.25 A 9.8849298,9.8942472 0 0 1 525.34375,411.5625 9.8849298,9.8942472 0 0 0 536.875,422.25 c 0,0 25.35016,-4.6074 47.53125,-22.40625 3.10596,28.28684 17.8125,49.53125 17.8125,49.53125 a 9.8849298,9.8942472 0 0 0 16.03125,0 c 0,0 14.64242,-21.32029 17.6875,-49.65625 22.2169,17.90415 47.65625,22.53125 47.65625,22.53125 a 9.8849298,9.8942472 0 0 0 11.53125,-10.75 9.8849298,9.8942472 0 0 1 -11.53125,8.75 c 0,0 -25.43935,-4.6271 -47.65625,-22.53125 z"
       id="path4802" />
    <g
       id="g5087"
       transform="translate(214.09926,141.22187)">
      <g
         id="g5071">
        <path
           style="opacity:0.05;fill:none;stroke:#000000;stroke-width:12;stroke-linejoin:round;stroke-miterlimit:4;stroke-opacity:1;stroke-dasharray:none"
           d="m -86.09375,-119.40625 c 0,0 -17.0625,23.7781 -17.0625,53.09375 0,5.439182 0.57447,10.683576 1.53125,15.625 -2.8198,-4.172843 -6.12028,-8.309047 -9.96875,-12.15625 -20.73488,-20.72885 -49.59375,-25.46875 -49.59375,-25.46875 0,0 4.73254,28.89563 25.46875,49.625 3.83127,3.830158 7.93931,7.128152 12.09375,9.9375 -4.93493,-0.953317 -10.164,-1.53125 -15.59375,-1.53125 -29.32468,0 -53.09375,17.0625 -53.09375,17.0625 0,0 23.76907,17.0625 53.09375,17.0625 5.45197,0 10.70363,-0.571005 15.65625,-1.53125 -4.17345,2.8176655 -8.30768,6.0901489 -12.15625,9.9375 -20.73594,20.72937 -25.46875,49.59375 -25.46875,49.59375 0,0 28.85754,-4.73938 49.59375,-25.46875 3.84882,-3.847603 7.14877,-7.984716 9.96875,-12.15625 -0.9622,4.950756 -1.5625,10.205333 -1.5625,15.65625 0,29.31565 17.09375,53.0625 17.09375,53.0625 0,0 17.0625,-23.74685 17.0625,-53.0625 0,-5.429047 -0.577629,-10.660392 -1.53125,-15.59375 2.809842,4.152328 6.105982,8.263496 9.9375,12.09375 C -39.89012,57.10385 -11,61.84375 -11,61.84375 c 0,0 -4.73254,-28.86437 -25.46875,-49.59375 -3.847961,-3.8468396 -7.98333,-7.1200697 -12.15625,-9.9375 4.944333,0.9569948 10.214698,1.53125 15.65625,1.53125 29.32468,0 53.09375,-17.0625 53.09375,-17.0625 0,0 -23.76907,-17.0625 -53.09375,-17.0625 -5.419581,0 -10.666913,0.581094 -15.59375,1.53125 4.153907,-2.809112 8.262791,-6.107805 12.09375,-9.9375 C -15.73281,-59.41687 -11,-88.3125 -11,-88.3125 c 0,0 -28.88906,4.73937 -49.625,25.46875 -3.830909,3.829695 -7.127947,7.940302 -9.9375,12.09375 0.951666,-4.923901 1.5625,-10.145329 1.5625,-15.5625 0,-29.31565 -17.09375,-53.09375 -17.09375,-53.09375 z"
           transform="translate(482.25,209.46875)"
           id="path5069"
           inkscape:connector-curvature="0" />
        <path
           id="path5067"
           transform="translate(482.25,209.46875)"
           d="m -86.09375,-119.40625 c 0,0 -17.0625,23.7781 -17.0625,53.09375 0,5.439182 0.57447,10.683576 1.53125,15.625 -2.8198,-4.172843 -6.12028,-8.309047 -9.96875,-12.15625 -20.73488,-20.72885 -49.59375,-25.46875 -49.59375,-25.46875 0,0 4.73254,28.89563 25.46875,49.625 3.83127,3.830158 7.93931,7.128152 12.09375,9.9375 -4.93493,-0.953317 -10.164,-1.53125 -15.59375,-1.53125 -29.32468,0 -53.09375,17.0625 -53.09375,17.0625 0,0 23.76907,17.0625 53.09375,17.0625 5.45197,0 10.70363,-0.571005 15.65625,-1.53125 -4.17345,2.8176655 -8.30768,6.0901489 -12.15625,9.9375 -20.73594,20.72937 -25.46875,49.59375 -25.46875,49.59375 0,0 28.85754,-4.73938 49.59375,-25.46875 3.84882,-3.847603 7.14877,-7.984716 9.96875,-12.15625 -0.9622,4.950756 -1.5625,10.205333 -1.5625,15.65625 0,29.31565 17.09375,53.0625 17.09375,53.0625 0,0 17.0625,-23.74685 17.0625,-53.0625 0,-5.429047 -0.577629,-10.660392 -1.53125,-15.59375 2.809842,4.152328 6.105982,8.263496 9.9375,12.09375 C -39.89012,57.10385 -11,61.84375 -11,61.84375 c 0,0 -4.73254,-28.86437 -25.46875,-49.59375 -3.847961,-3.8468396 -7.98333,-7.1200697 -12.15625,-9.9375 4.944333,0.9569948 10.214698,1.53125 15.65625,1.53125 29.32468,0 53.09375,-17.0625 53.09375,-17.0625 0,0 -23.76907,-17.0625 -53.09375,-17.0625 -5.419581,0 -10.666913,0.581094 -15.59375,1.53125 4.153907,-2.809112 8.262791,-6.107805 12.09375,-9.9375 C -15.73281,-59.41687 -11,-88.3125 -11,-88.3125 c 0,0 -28.88906,4.73937 -49.625,25.46875 -3.830909,3.829695 -7.127947,7.940302 -9.9375,12.09375 0.951666,-4.923901 1.5625,-10.145329 1.5625,-15.5625 0,-29.31565 -17.09375,-53.09375 -17.09375,-53.09375 z"
           style="opacity:0.1;fill:none;stroke:#000000;stroke-width:8;stroke-linejoin:round;stroke-miterlimit:4;stroke-opacity:1;stroke-dasharray:none"
           inkscape:connector-curvature="0" />
        <path
           style="opacity:0.15;fill:none;stroke:#000000;stroke-width:4;stroke-linejoin:round;stroke-miterlimit:4;stroke-opacity:1;stroke-dasharray:none"
           d="m -86.09375,-119.40625 c 0,0 -17.0625,23.7781 -17.0625,53.09375 0,5.439182 0.57447,10.683576 1.53125,15.625 -2.8198,-4.172843 -6.12028,-8.309047 -9.96875,-12.15625 -20.73488,-20.72885 -49.59375,-25.46875 -49.59375,-25.46875 0,0 4.73254,28.89563 25.46875,49.625 3.83127,3.830158 7.93931,7.128152 12.09375,9.9375 -4.93493,-0.953317 -10.164,-1.53125 -15.59375,-1.53125 -29.32468,0 -53.09375,17.0625 -53.09375,17.0625 0,0 23.76907,17.0625 53.09375,17.0625 5.45197,0 10.70363,-0.571005 15.65625,-1.53125 -4.17345,2.8176655 -8.30768,6.0901489 -12.15625,9.9375 -20.73594,20.72937 -25.46875,49.59375 -25.46875,49.59375 0,0 28.85754,-4.73938 49.59375,-25.46875 3.84882,-3.847603 7.14877,-7.984716 9.96875,-12.15625 -0.9622,4.950756 -1.5625,10.205333 -1.5625,15.65625 0,29.31565 17.09375,53.0625 17.09375,53.0625 0,0 17.0625,-23.74685 17.0625,-53.0625 0,-5.429047 -0.577629,-10.660392 -1.53125,-15.59375 2.809842,4.152328 6.105982,8.263496 9.9375,12.09375 C -39.89012,57.10385 -11,61.84375 -11,61.84375 c 0,0 -4.73254,-28.86437 -25.46875,-49.59375 -3.847961,-3.8468396 -7.98333,-7.1200697 -12.15625,-9.9375 4.944333,0.9569948 10.214698,1.53125 15.65625,1.53125 29.32468,0 53.09375,-17.0625 53.09375,-17.0625 0,0 -23.76907,-17.0625 -53.09375,-17.0625 -5.419581,0 -10.666913,0.581094 -15.59375,1.53125 4.153907,-2.809112 8.262791,-6.107805 12.09375,-9.9375 C -15.73281,-59.41687 -11,-88.3125 -11,-88.3125 c 0,0 -28.88906,4.73937 -49.625,25.46875 -3.830909,3.829695 -7.127947,7.940302 -9.9375,12.09375 0.951666,-4.923901 1.5625,-10.145329 1.5625,-15.5625 0,-29.31565 -17.09375,-53.09375 -17.09375,-53.09375 z"
           transform="translate(482.25,209.46875)"
           id="path5038"
           inkscape:connector-curvature="0" />
        <path
           style="fill:#edd400;fill-opacity:1;stroke:none"
           d="m 396.15112,90.06405 c 0,0 -17.0625,23.7781 -17.0625,53.09375 0,29.31564 17.0625,53.09375 17.0625,53.09375 0,0 17.09375,-23.77811 17.09375,-53.09375 0,-29.31565 -17.09375,-53.09375 -17.09375,-53.09375 z"
           id="rect4944"
           inkscape:connector-curvature="0" />
        <path
           style="fill:#d90000;fill-opacity:1;stroke:none"
           d="m 343.02612,179.18905 c -29.32468,0 -53.09375,17.0625 -53.09375,17.0625 0,0 23.76907,17.0625 53.09375,17.0625 29.32468,0 53.125,-17.0625 53.125,-17.0625 0,0 -23.80032,-17.0625 -53.125,-17.0625 z"
           id="rect4993"
           inkscape:connector-curvature="0" />
        <path
           style="fill:#15ab2b;fill-opacity:1;stroke:none"
           d="m 449.27612,179.18905 c -29.32468,0 -53.125,17.0625 -53.125,17.0625 0,0 23.80032,17.0625 53.125,17.0625 29.32468,0 53.09375,-17.0625 53.09375,-17.0625 0,0 -23.76907,-17.0625 -53.09375,-17.0625 z"
           id="rect5003"
           inkscape:connector-curvature="0" />
        <path
           style="fill:#0255bf;fill-opacity:1;stroke:none"
           d="m 396.16675,196.25155 c 0,0 -17.09375,23.77811 -17.09375,53.09375 0,29.31565 17.09375,53.0625 17.09375,53.0625 0,0 17.0625,-23.74685 17.0625,-53.0625 0,-29.31564 -17.0625,-53.09375 -17.0625,-53.09375 z"
           id="rect5023"
           inkscape:connector-curvature="0" />
        <path
           style="fill:#77cd0f;fill-opacity:1;stroke:none"
           d="m 471.24487,121.15779 c 0,0 -28.88906,4.73938 -49.625,25.46876 -20.73594,20.72937 -25.46875,49.625 -25.46875,49.625 0,0 28.88879,-4.73938 49.625,-25.46875 20.73594,-20.72937 25.46875,-49.62501 25.46875,-49.62501 z"
           id="rect4973"
           inkscape:connector-curvature="0" />
        <path
           style="fill:#3d8fe3;fill-opacity:1;stroke:none"
           d="m 396.15112,196.25155 c 0,0 4.73254,28.86438 25.46875,49.59375 20.73488,20.72885 49.625,25.46875 49.625,25.46875 0,0 -4.73254,-28.86437 -25.46875,-49.59375 -20.73488,-20.72884 -49.625,-25.46875 -49.625,-25.46875 z"
           id="rect4986"
           inkscape:connector-curvature="0" />
        <path
           style="fill:#f57900;fill-opacity:1;stroke:none"
           d="m 321.05737,121.15779 c 0,0 4.73254,28.89564 25.46875,49.62501 20.73488,20.72885 49.625,25.46875 49.625,25.46875 0,0 -4.76379,-28.89562 -25.5,-49.625 -20.73488,-20.72885 -49.59375,-25.46876 -49.59375,-25.46876 z"
           id="rect4983"
           inkscape:connector-curvature="0" />
        <path
           style="fill:#710085;fill-opacity:1;stroke:none"
           d="m 396.15112,196.25155 c 0,0 -28.88906,4.73938 -49.625,25.46875 -20.73594,20.72937 -25.46875,49.59375 -25.46875,49.59375 0,0 28.85754,-4.73938 49.59375,-25.46875 20.73594,-20.72937 25.5,-49.59375 25.5,-49.59375 z"
           id="rect5013"
           inkscape:connector-curvature="0" />
        <path
           style="opacity:0.7;fill:#ffffff;fill-opacity:1;stroke:none"
           d="m -86.09375,-119.40625 c 0,0 -17.0625,23.7781 -17.0625,53.09375 0,0.397546 0.0252,0.792078 0.0312,1.1875 0.31288,-28.937693 17.03125,-52.28125 17.03125,-52.28125 0,0 16.749047,23.343557 17.0625,52.28125 0.0064,-0.393806 0.03125,-0.791563 0.03125,-1.1875 0,-29.31565 -17.09375,-53.09375 -17.09375,-53.09375 z m -75.09375,31.09375 c 0,0 0.12517,0.795889 0.40625,2.09375 2.15451,0.380343 29.27994,5.473225 49.1875,25.375 3.84847,3.8472 7.14895,7.98341 9.96875,12.15625 -0.16947,-0.875262 -0.32434,-1.762578 -0.46875,-2.65625 -2.71955,-3.949012 -5.85398,-7.855184 -9.5,-11.5 -20.73488,-20.72885 -49.59375,-25.46875 -49.59375,-25.46875 z m 150.1875,0 c 0,0 -28.88906,4.73937 -49.625,25.46875 -3.627064,3.625914 -6.759453,7.510015 -9.46875,11.4375 -0.145679,0.890262 -0.300183,1.784092 -0.46875,2.65625 2.80955,-4.15345 6.10659,-8.26405 9.9375,-12.09375 19.908582,-19.902284 47.062019,-24.994695 49.21875,-25.375 C -11.125164,-87.516611 -11,-88.3125 -11,-88.3125 z m -128.21875,58.03125 c -29.32468,0 -53.09375,17.0625 -53.09375,17.0625 0,0 0.57222,0.377331 1.53125,1 5.60123,-3.636708 26.52473,-16.0625 51.5625,-16.0625 5.42975,0 10.65882,0.57793 15.59375,1.53125 -1.24034,-0.838754 -2.46156,-1.729226 -3.6875,-2.65625 -3.82599,-0.570363 -7.81199,-0.875 -11.90625,-0.875 z m 106.25,0 c -4.110459,0 -8.121138,0.36147 -11.96875,0.9375 -1.203202,0.907916 -2.408217,1.770892 -3.625,2.59375 4.92684,-0.95016 10.17417,-1.53125 15.59375,-1.53125 25.0377707,0 45.961272,12.425792 51.5625,16.0625 0.959029,-0.622669 1.53125,-1 1.53125,-1 0,0 -23.76907,-17.0625 -53.09375,-17.0625 z M -123.5625,4.3125 c -1.21829,0.2362081 -2.46574,0.4698526 -3.71875,0.65625 -2.8956,2.1744321 -5.73795,4.582556 -8.4375,7.28125 -20.73594,20.72937 -25.46875,49.59375 -25.46875,49.59375 0,0 0.31672,-0.07794 0.40625,-0.09375 1.49696,-6.904939 7.60464,-30.047669 25.0625,-47.5 3.84857,-3.84735 7.9828,-7.11983 12.15625,-9.9375 z m 74.9375,0 c 4.17292,2.81743 8.30829,6.09066 12.15625,9.9375 17.45809,17.452339 23.56559,40.595063 25.0625,47.5 0.08963,0.01581 0.40625,0.09375 0.40625,0.09375 0,0 -4.73254,-28.86437 -25.46875,-49.59375 -2.699122,-2.6983352 -5.541788,-5.1067117 -8.4375,-7.28125 C -46.159651,4.7825106 -47.408751,4.5479086 -48.625,4.3125 z m -53,21.90625 c -0.14835,0.219448 -0.31773,0.437029 -0.46875,0.65625 -0.68224,4.166149 -1.09375,8.506843 -1.09375,13 0,0.273879 0.0283,0.539608 0.0312,0.8125 0.0802,-5.02538 0.63938,-9.879837 1.53125,-14.46875 z m 31.0625,0.0625 c 0.883921,4.572785 1.422733,9.40129 1.5,14.40625 0.003,-0.272892 0.03125,-0.538621 0.03125,-0.8125 0,-4.467413 -0.392601,-8.793699 -1.0625,-12.9375 -0.152275,-0.220679 -0.319237,-0.435302 -0.46875,-0.65625 z"
           transform="translate(482.25,209.46875)"
           id="path5055"
           inkscape:connector-curvature="0" />
        <path
           style="opacity:0.7;fill:#000000;fill-opacity:1;stroke:none"
           d="m -161.1875,-88.3125 c 0,0 4.73254,28.89563 25.46875,49.625 2.68741,2.686634 5.52599,5.103269 8.40625,7.28125 1.24798,0.186044 2.47372,0.421774 3.6875,0.65625 -4.15444,-2.80935 -8.26248,-6.10734 -12.09375,-9.9375 -17.45809,-17.452331 -23.56559,-40.619307 -25.0625,-47.53125 -0.0895,-0.01581 -0.40625,-0.09375 -0.40625,-0.09375 z m 150.1875,0 c 0,0 -0.316621,0.07794 -0.40625,0.09375 -1.496964,6.911943 -7.604638,30.078919 -25.0625,47.53125 -3.83096,3.8297 -7.93984,7.12839 -12.09375,9.9375 1.190098,-0.229515 2.399591,-0.410293 3.625,-0.59375 2.904344,-2.191571 5.759974,-4.635867 8.46875,-7.34375 C -15.73281,-59.41687 -11,-88.3125 -11,-88.3125 z m -92.125,21.1875 c -0.003,0.272897 -0.0312,0.538621 -0.0312,0.8125 0,4.475753 0.3916,8.817063 1.0625,12.96875 0.15101,0.219278 0.32041,0.436733 0.46875,0.65625 -0.88685,-4.580256 -1.42311,-9.422793 -1.5,-14.4375 z m 34.09375,0 c -0.08143,4.994208 -0.649137,9.810984 -1.53125,14.375 0.149498,-0.221008 0.316484,-0.435521 0.46875,-0.65625 C -69.416976,-57.542096 -69,-61.854859 -69,-66.3125 c 0,-0.273879 -0.02829,-0.539603 -0.03125,-0.8125 z m -121.75,52.90625 c -0.95903,0.622669 -1.53125,1 -1.53125,1 0,0 23.76907,17.0625 53.09375,17.0625 4.11085,0 8.09674,-0.3036485 11.9375,-0.875 1.23247,-0.9255134 2.47273,-1.8150123 3.71875,-2.65625 -4.95262,0.96024 -10.20428,1.53125 -15.65625,1.53125 -25.03777,0 -45.96127,-12.425792 -51.5625,-16.0625 z m 209.375,0 c -5.601228,3.636708 -26.5247293,16.0625 -51.5625,16.0625 -5.44155,0 -10.71192,-0.57426 -15.65625,-1.53125 1.245858,0.841166 2.486235,1.7306916 3.71875,2.65625 3.841962,0.5708673 7.834508,0.875 11.9375,0.875 29.32468,0 53.09375,-17.0625 53.09375,-17.0625 0,0 -0.572221,-0.377331 -1.53125,-1 z M -101.625,22.21875 c -2.81998,4.17153 -6.11993,8.30865 -9.96875,12.15625 -19.90884,19.902274 -47.03309,24.994694 -49.1875,25.375 -0.28109,1.296546 -0.40625,2.09375 -0.40625,2.09375 0,0 28.85754,-4.73938 49.59375,-25.46875 3.64635,-3.645195 6.78035,-7.552014 9.5,-11.5 0.14543,-0.888055 0.29969,-1.786371 0.46875,-2.65625 z m 31.0625,0.0625 c 0.168912,0.873834 0.324551,1.764275 0.46875,2.65625 2.709459,3.92659 5.84111,7.811056 9.46875,11.4375 C -39.89012,57.10385 -11,61.84375 -11,61.84375 c 0,0 -0.125174,-0.797204 -0.40625,-2.09375 -2.156807,-0.380343 -29.311186,-5.473225 -49.21875,-25.375 -3.83152,-3.83025 -7.12766,-7.94142 -9.9375,-12.09375 z m -32.59375,16.40625 c -0.006,0.396264 -0.0312,0.789097 -0.0312,1.1875 0,29.31565 17.09375,53.0625 17.09375,53.0625 0,0 17.0625,-23.74685 17.0625,-53.0625 0,-0.396805 -0.02516,-0.792847 -0.03125,-1.1875 -0.31288,28.93712 -17.03125,52.25 -17.03125,52.25 0,0 -16.74905,-23.31288 -17.0625,-52.25 z"
           transform="translate(482.25,209.46875)"
           id="path5060"
           inkscape:connector-curvature="0" />
        <path
           id="path5065"
           d="m 321.0625,123.15625 c 0,0 4.73254,28.89563 25.46875,49.625 2.68741,2.68663 5.52599,5.10327 8.40625,7.28125 1.24798,0.18604 2.47372,0.42177 3.6875,0.65625 -4.15444,-2.80935 -8.26248,-6.10734 -12.09375,-9.9375 -17.45809,-17.45233 -23.56559,-40.61931 -25.0625,-47.53125 -0.0895,-0.0158 -0.40625,-0.0937 -0.40625,-0.0937 z m 150.1875,0 c 0,0 -0.31662,0.078 -0.40625,0.0937 -1.49696,6.91194 -7.60464,30.07892 -25.0625,47.53125 -3.83096,3.8297 -7.93984,7.12839 -12.09375,9.9375 1.1901,-0.22952 2.39959,-0.41029 3.625,-0.59375 2.90434,-2.19157 5.75997,-4.63587 8.46875,-7.34375 20.73594,-20.72937 25.46875,-49.625 25.46875,-49.625 z m -92.125,21.1875 c -0.003,0.2729 -0.0312,0.53862 -0.0312,0.8125 0,4.47575 0.3916,8.81706 1.0625,12.96875 0.15101,0.21928 0.32041,0.43673 0.46875,0.65625 -0.88685,-4.58026 -1.42311,-9.42279 -1.5,-14.4375 z m 34.09375,0 c -0.0814,4.99421 -0.64914,9.81098 -1.53125,14.375 0.1495,-0.22101 0.31648,-0.43552 0.46875,-0.65625 0.67677,-4.13585 1.09375,-8.44861 1.09375,-12.90625 0,-0.27388 -0.0283,-0.5396 -0.0312,-0.8125 z m -121.75,52.90625 c -0.95903,0.62267 -1.53125,1 -1.53125,1 0,0 23.76907,17.0625 53.09375,17.0625 4.11085,0 8.09674,-0.30365 11.9375,-0.875 1.23247,-0.92551 2.47273,-1.81501 3.71875,-2.65625 -4.95262,0.96024 -10.20428,1.53125 -15.65625,1.53125 -25.03777,0 -45.96127,-12.42579 -51.5625,-16.0625 z m 209.375,0 c -5.60123,3.63671 -26.52473,16.0625 -51.5625,16.0625 -5.44155,0 -10.71192,-0.57426 -15.65625,-1.53125 1.24586,0.84117 2.48624,1.73069 3.71875,2.65625 3.84196,0.57087 7.83451,0.875 11.9375,0.875 29.32468,0 53.09375,-17.0625 53.09375,-17.0625 0,0 -0.57222,-0.37733 -1.53125,-1 z M 380.625,233.6875 c -2.81998,4.17153 -6.11993,8.30865 -9.96875,12.15625 -19.90884,19.90227 -47.03309,24.99469 -49.1875,25.375 -0.28109,1.29655 -0.40625,2.09375 -0.40625,2.09375 0,0 28.85754,-4.73938 49.59375,-25.46875 3.64635,-3.6452 6.78035,-7.55201 9.5,-11.5 0.14543,-0.88806 0.29969,-1.78637 0.46875,-2.65625 z m 31.0625,0.0625 c 0.16891,0.87383 0.32455,1.76427 0.46875,2.65625 2.70946,3.92659 5.84111,7.81106 9.46875,11.4375 20.73488,20.72885 49.625,25.46875 49.625,25.46875 0,0 -0.12517,-0.7972 -0.40625,-2.09375 -2.15681,-0.38034 -29.31119,-5.47323 -49.21875,-25.375 -3.83152,-3.83025 -7.12766,-7.94142 -9.9375,-12.09375 z m -32.59375,16.40625 c -0.006,0.39626 -0.0312,0.7891 -0.0312,1.1875 0,29.31565 17.09375,53.0625 17.09375,53.0625 0,0 17.0625,-23.74685 17.0625,-53.0625 0,-0.39681 -0.0252,-0.79285 -0.0312,-1.1875 -0.31288,28.93712 -17.03125,52.25 -17.03125,52.25 0,0 -16.74905,-23.31288 -17.0625,-52.25 z"
           style="opacity:0.3;fill:#000000;fill-opacity:1;stroke:none"
           inkscape:connector-curvature="0" />
      </g>
      <path
         id="path3906"
         style="opacity:0.1;color:#000000;fill:#ffffff;fill-rule:evenodd;enable-background:new"
         d="m 396.15069,120.04281 c -4.4352,0 -8.76332,0.40476 -12.99045,1.13321 -1.84683,6.79893 -3.13914,14.36748 -3.13914,22.36446 0,5.3753 0.56545,10.57515 1.50273,15.46495 -2.79654,-4.12103 -6.04832,-8.19696 -9.85163,-11.99867 -5.74023,-5.73792 -12.10027,-10.2394 -18.30055,-13.76488 -7.68152,5.23644 -14.35297,11.83976 -19.66948,19.46452 3.53872,6.24133 8.07853,12.65353 13.85926,18.43102 3.79626,3.79468 7.84065,7.04029 11.956,9.8323 -4.88093,-0.93281 -10.0646,-1.49978 -15.42909,-1.49978 -8.18358,0 -15.91961,1.35025 -22.84229,3.26631 -0.78518,4.38863 -1.23557,8.9172 -1.23557,13.53237 0,4.8256 0.47892,9.52172 1.33581,14.0987 6.89703,1.90102 14.59876,3.23292 22.74183,3.23292 5.3521,0 10.5237,-0.57067 15.3949,-1.49978 -4.10263,2.78658 -8.13688,6.04861 -11.9218,9.8323 -5.68915,5.68684 -10.1781,11.98374 -13.69148,18.13133 5.38907,7.66337 12.15583,14.27255 19.93664,19.49758 6.06007,-3.48794 12.2627,-7.89673 17.86668,-13.49824 3.8032,-3.80172 7.05498,-7.87764 9.85162,-11.99868 -0.93733,4.88981 -1.50273,10.08966 -1.50273,15.46496 0,7.76053 1.21345,15.12153 2.97212,21.76399 4.28024,0.74748 8.66372,1.16659 13.15716,1.16659 5.17544,0 10.24253,-0.54824 15.12774,-1.53316 1.70545,-6.54594 2.87198,-13.78088 2.87198,-21.3971 0,-5.37551 -0.56537,-10.57504 -1.50273,-15.46496 2.79686,4.12168 6.04778,8.19632 9.85163,11.99868 5.28829,5.28613 11.09681,9.53921 16.83115,12.9319 7.92572,-5.4731 14.77723,-12.38583 20.13755,-20.39774 -3.37777,-5.67575 -7.58791,-11.43127 -12.82374,-16.66483 -3.78514,-3.78369 -7.85283,-7.04562 -11.956,-9.8323 4.88093,0.93282 10.03116,1.49978 15.3949,1.49978 7.38348,0 14.41602,-1.08094 20.80545,-2.69964 0.92336,-4.74337 1.4026,-9.61793 1.4026,-14.63198 0,-4.80289 -0.45341,-9.50871 -1.30247,-14.06565 -6.41625,-1.63331 -13.48202,-2.73303 -20.90483,-2.73303 -5.38768,0 -10.56206,0.55968 -15.46223,1.49978 4.12262,-2.79542 8.21906,-6.03048 12.02226,-9.8323 5.32709,-5.32506 9.58372,-11.19342 12.99045,-16.96452 -5.28285,-7.96733 -12.02012,-14.88155 -19.83619,-20.36468 -5.88524,3.43749 -11.86623,7.76842 -17.29923,13.19854 -3.80384,3.80225 -7.05476,7.877 -9.85162,11.99867 0.93741,-4.88991 1.50273,-10.08944 1.50273,-15.46495 0,-7.85247 -1.24594,-15.29324 -3.03901,-21.99757 -4.83423,-0.9634 -9.84394,-1.49978 -14.96104,-1.49978 z"
         inkscape:connector-curvature="0" />
      <path
         id="path3707"
         style="opacity:0.1;color:#000000;fill:#ffffff;fill-rule:evenodd;enable-background:new"
         d="m 446.99084,196.25155 c 0,28.10303 -22.76113,50.88397 -50.83972,50.88397 -28.07858,0 -50.83972,-22.78094 -50.83972,-50.88397 0,-28.10302 22.76114,-50.88397 50.83972,-50.88397 28.07859,0 50.83972,22.78095 50.83972,50.88397 z"
         inkscape:connector-curvature="0" />
      <path
         id="path3705"
         style="opacity:0.1;color:#000000;fill:#ffffff;fill-rule:evenodd;enable-background:new"
         d="m 419.76764,196.25155 c 0,13.05509 -10.57321,23.63787 -23.61652,23.63787 -13.04332,0 -23.61652,-10.58277 -23.61652,-23.63787 0,-13.05512 10.5732,-23.63786 23.61652,-23.63786 13.04331,0 23.61652,10.58274 23.61652,23.63786 z"
         inkscape:connector-curvature="0" />
    </g>
  </g>
</svg>
