<?xml version="1.0" encoding="UTF-8" standalone="no"?>
<!-- Created with Inkscape (http://www.inkscape.org/) -->

<svg
   xmlns:dc="http://purl.org/dc/elements/1.1/"
   xmlns:cc="http://creativecommons.org/ns#"
   xmlns:rdf="http://www.w3.org/1999/02/22-rdf-syntax-ns#"
   xmlns:svg="http://www.w3.org/2000/svg"
   xmlns="http://www.w3.org/2000/svg"
   xmlns:xlink="http://www.w3.org/1999/xlink"
   xmlns:sodipodi="http://sodipodi.sourceforge.net/DTD/sodipodi-0.dtd"
   xmlns:inkscape="http://www.inkscape.org/namespaces/inkscape"
   version="1.0"
   width="256"
   height="256"
   id="svg2408"
   style="display:inline"
   inkscape:version="0.48.3.1 r9886"
   sodipodi:docname="folder-copy.svg">
  <sodipodi:namedview
     pagecolor="#ffffff"
     bordercolor="#666666"
     borderopacity="1"
     objecttolerance="10"
     gridtolerance="10"
     guidetolerance="10"
     inkscape:pageopacity="0"
     inkscape:pageshadow="2"
     inkscape:window-width="1024"
     inkscape:window-height="572"
     id="namedview88"
     showgrid="false"
     inkscape:zoom="1.6367188"
     inkscape:cx="117.30788"
     inkscape:cy="128"
     inkscape:window-x="0"
     inkscape:window-y="28"
     inkscape:window-maximized="1"
     inkscape:current-layer="svg2408" />
  <defs
     id="defs2410">
    <linearGradient
       id="linearGradient3637">
      <stop
         id="stop3639"
         style="stop-color:#f0f0f0;stop-opacity:1"
         offset="0" />
      <stop
         id="stop3641"
         style="stop-color:#dcdcdc;stop-opacity:1"
         offset="1" />
    </linearGradient>
    <linearGradient
       x1="45.447727"
       y1="92.539597"
       x2="45.447727"
       y2="7.0165396"
       id="ButtonShadow"
       gradientUnits="userSpaceOnUse"
       gradientTransform="scale(1.0058652,0.994169)">
      <stop
         id="stop3750"
         style="stop-color:#000000;stop-opacity:1"
         offset="0" />
      <stop
         id="stop3752"
         style="stop-color:#000000;stop-opacity:0.58823532"
         offset="1" />
    </linearGradient>
    <linearGradient
       id="linearGradient3737">
      <stop
         id="stop3739"
         style="stop-color:#ffffff;stop-opacity:1"
         offset="0" />
      <stop
         id="stop3741"
         style="stop-color:#ffffff;stop-opacity:0"
         offset="1" />
    </linearGradient>
    <linearGradient
       id="linearGradient3700">
      <stop
         id="stop3702"
         style="stop-color:#2276c5;stop-opacity:1"
         offset="0" />
      <stop
         id="stop3704"
         style="stop-color:#68baf4;stop-opacity:1"
         offset="1" />
    </linearGradient>
    <filter
       color-interpolation-filters="sRGB"
       id="filter3174">
      <feGaussianBlur
         id="feGaussianBlur3176"
         stdDeviation="1.71" />
    </filter>
    <linearGradient
       x1="36.357143"
       y1="6"
       x2="36.357143"
       y2="63.893143"
       id="linearGradient3188"
       xlink:href="#linearGradient3737"
       gradientUnits="userSpaceOnUse" />
    <radialGradient
       cx="48"
       cy="90.171875"
       r="42"
       fx="48"
       fy="90.171875"
       id="radialGradient3619"
       xlink:href="#linearGradient3737"
       gradientUnits="userSpaceOnUse"
       gradientTransform="matrix(1.1573129,0,0,0.99590774,-7.5510206,0.19713193)" />
    <linearGradient
       x1="48"
       y1="90"
       x2="48"
       y2="5.9877172"
       id="linearGradient2843"
       xlink:href="#linearGradient3700"
       gradientUnits="userSpaceOnUse"
       gradientTransform="translate(0,100)" />
    <clipPath
       id="clipPath3625">
      <path
         d="M 0,0 0,96 96,96 96,0 0,0 z m 12,6 72,0 c 3.324,0 6,2.676 6,6 l 0,72 c 0,3.324 -2.676,6 -6,6 L 12,90 C 8.676,90 6,87.324 6,84 L 6,12 C 6,8.676 8.676,6 12,6 z"
         inkscape:connector-curvature="0"
         id="path3627"
         style="fill:#ffffff;fill-opacity:1;stroke:none" />
    </clipPath>
    <linearGradient
       x1="44.512066"
       y1="6"
       x2="44.512066"
       y2="90.015434"
       id="linearGradient3643"
       xlink:href="#linearGradient3637"
       gradientUnits="userSpaceOnUse" />
    <clipPath
       id="clipPath3649">
      <rect
         width="76"
         height="76"
         rx="4"
         ry="4"
         x="10"
         y="10"
         id="rect3651"
         style="fill:#ffffff;fill-opacity:1;fill-rule:nonzero;stroke:none" />
    </clipPath>
    <filter
       color-interpolation-filters="sRGB"
       id="filter3657">
      <feGaussianBlur
         id="feGaussianBlur3659"
         stdDeviation="1.14" />
    </filter>
    <linearGradient
       id="linearGradient4081">
      <stop
         id="stop4083"
         style="stop-color:#000000;stop-opacity:1;"
         offset="0" />
      <stop
         id="stop4085"
         style="stop-color:#5a5a5a;stop-opacity:1;"
         offset="1" />
    </linearGradient>
    <linearGradient
       inkscape:collect="always"
       xlink:href="#linearGradient4081"
       id="linearGradient4934"
       gradientUnits="userSpaceOnUse"
       gradientTransform="matrix(4.18459,0,0,4.1843822,-22.646643,-16.787427)"
       x1="48"
       y1="60"
       x2="48"
       y2="8" />
  </defs>
  <metadata
     id="metadata2413">
    <rdf:RDF>
      <cc:Work
         rdf:about="">
        <dc:format>image/svg+xml</dc:format>
        <dc:type
           rdf:resource="http://purl.org/dc/dcmitype/StillImage" />
        <dc:title></dc:title>
      </cc:Work>
    </rdf:RDF>
  </metadata>
  <g
     id="layer2"
     style="display:none"
     transform="translate(0,160)">
    <rect
       width="86"
       height="85"
       rx="6"
       ry="6"
       x="5"
       y="7"
       clip-path="url(#clipPath3625)"
       id="rect3745"
       style="opacity:0.9;fill:url(#ButtonShadow);fill-opacity:1;fill-rule:nonzero;stroke:none;filter:url(#filter3174)" />
  </g>
  <g
     id="layer1"
     style="display:none"
     transform="translate(0,160)">
    <rect
       width="84"
       height="84"
       rx="6"
       ry="6"
       x="6"
       y="6"
       id="rect2419"
       style="opacity:0.7;fill:#000000;fill-opacity:1;fill-rule:nonzero;stroke:none" />
    <path
       d="m 14,10 c -2.216,0 -4,1.784 -4,4 l 0,68 c 0,2.216 1.784,4 4,4 l 68,0 c 2.216,0 4,-1.784 4,-4 l 0,-68 c 0,-2.216 -1.784,-4 -4,-4 l -68,0 z m 0,3.0625 68,0 c 0.578769,0 0.9375,0.358731 0.9375,0.9375 l 0,68 c 0,0.578769 -0.358731,0.9375 -0.9375,0.9375 l -68,0 c -0.578769,0 -0.9375,-0.358731 -0.9375,-0.9375 l 0,-68 c 0,-0.578769 0.358731,-0.9375 0.9375,-0.9375 z"
       inkscape:connector-curvature="0"
       id="rect3726"
       style="opacity:0.07999998;fill:#000000;fill-opacity:1;fill-rule:nonzero;stroke:none" />
    <path
       d="M 12,6 C 8.676,6 6,8.676 6,12 l 0,72 c 0,3.324 2.676,6 6,6 l 72,0 c 3.324,0 6,-2.676 6,-6 L 90,12 C 90,8.676 87.324,6 84,6 L 12,6 z m 2,4 68,0 c 2.216,0 4,1.784 4,4 l 0,68 c 0,2.216 -1.784,4 -4,4 l -68,0 c -2.216,0 -4,-1.784 -4,-4 l 0,-68 c 0,-2.216 1.784,-4 4,-4 z"
       inkscape:connector-curvature="0"
       id="rect3629"
       style="fill:url(#linearGradient3643);fill-opacity:1;fill-rule:nonzero;stroke:none" />
    <path
       d="M 12,6 C 8.676,6 6,8.676 6,12 l 0,2 0,68 0,2 c 0,0.334721 0.04135,0.6507 0.09375,0.96875 0.0487,0.295596 0.09704,0.596915 0.1875,0.875 0.00988,0.03038 0.020892,0.0636 0.03125,0.09375 0.098865,0.287771 0.2348802,0.547452 0.375,0.8125 0.1445918,0.273507 0.3156161,0.535615 0.5,0.78125 0.1843839,0.245635 0.3737765,0.473472 0.59375,0.6875 0.439947,0.428056 0.94291,0.814526 1.5,1.09375 0.278545,0.139612 0.5734731,0.246947 0.875,0.34375 -0.2562018,-0.100222 -0.4867109,-0.236272 -0.71875,-0.375 -0.00741,-0.0044 -0.023866,0.0045 -0.03125,0 -0.031933,-0.0193 -0.062293,-0.04251 -0.09375,-0.0625 -0.120395,-0.0767 -0.2310226,-0.163513 -0.34375,-0.25 -0.1061728,-0.0808 -0.2132809,-0.161112 -0.3125,-0.25 C 8.4783201,88.557317 8.3087904,88.373362 8.15625,88.1875 8.0486711,88.057245 7.9378561,87.922215 7.84375,87.78125 7.818661,87.74287 7.805304,87.69538 7.78125,87.65625 7.716487,87.553218 7.6510225,87.451733 7.59375,87.34375 7.4927417,87.149044 7.3880752,86.928049 7.3125,86.71875 7.30454,86.69694 7.288911,86.6782 7.28125,86.65625 7.2494249,86.5643 7.2454455,86.469419 7.21875,86.375 7.1884177,86.268382 7.1483606,86.171969 7.125,86.0625 7.0521214,85.720988 7,85.364295 7,85 L 7,83 7,15 7,13 C 7,10.218152 9.2181517,8 12,8 l 2,0 68,0 2,0 c 2.781848,0 5,2.218152 5,5 l 0,2 0,68 0,2 c 0,0.364295 -0.05212,0.720988 -0.125,1.0625 -0.04415,0.206893 -0.08838,0.397658 -0.15625,0.59375 -0.0077,0.02195 -0.0233,0.04069 -0.03125,0.0625 -0.06274,0.173739 -0.138383,0.367449 -0.21875,0.53125 -0.04158,0.0828 -0.07904,0.169954 -0.125,0.25 -0.0546,0.09721 -0.126774,0.18835 -0.1875,0.28125 -0.09411,0.140965 -0.204921,0.275995 -0.3125,0.40625 -0.143174,0.17445 -0.303141,0.346998 -0.46875,0.5 -0.01117,0.0102 -0.01998,0.02115 -0.03125,0.03125 -0.138386,0.125556 -0.285091,0.234436 -0.4375,0.34375 -0.102571,0.07315 -0.204318,0.153364 -0.3125,0.21875 -0.0074,0.0045 -0.02384,-0.0044 -0.03125,0 -0.232039,0.138728 -0.462548,0.274778 -0.71875,0.375 0.301527,-0.0968 0.596455,-0.204138 0.875,-0.34375 0.55709,-0.279224 1.060053,-0.665694 1.5,-1.09375 0.219973,-0.214028 0.409366,-0.441865 0.59375,-0.6875 0.184384,-0.245635 0.355408,-0.507743 0.5,-0.78125 0.14012,-0.265048 0.276135,-0.524729 0.375,-0.8125 0.01041,-0.03078 0.02133,-0.06274 0.03125,-0.09375 0.09046,-0.278085 0.1388,-0.579404 0.1875,-0.875 C 89.95865,84.6507 90,84.334721 90,84 l 0,-2 0,-68 0,-2 C 90,8.676 87.324,6 84,6 L 12,6 z"
       inkscape:connector-curvature="0"
       id="rect3728"
       style="fill:url(#linearGradient3188);fill-opacity:1;fill-rule:nonzero;stroke:none" />
    <path
       d="M 12,90 C 8.676,90 6,87.324 6,84 L 6,82 6,14 6,12 c 0,-0.334721 0.04135,-0.6507 0.09375,-0.96875 0.0487,-0.295596 0.09704,-0.596915 0.1875,-0.875 C 6.29113,10.12587 6.302142,10.09265 6.3125,10.0625 6.411365,9.774729 6.5473802,9.515048 6.6875,9.25 6.8320918,8.976493 7.0031161,8.714385 7.1875,8.46875 7.3718839,8.223115 7.5612765,7.995278 7.78125,7.78125 8.221197,7.353194 8.72416,6.966724 9.28125,6.6875 9.559795,6.547888 9.8547231,6.440553 10.15625,6.34375 9.9000482,6.443972 9.6695391,6.580022 9.4375,6.71875 c -0.00741,0.0044 -0.023866,-0.0045 -0.03125,0 -0.031933,0.0193 -0.062293,0.04251 -0.09375,0.0625 -0.120395,0.0767 -0.2310226,0.163513 -0.34375,0.25 -0.1061728,0.0808 -0.2132809,0.161112 -0.3125,0.25 C 8.4783201,7.442683 8.3087904,7.626638 8.15625,7.8125 8.0486711,7.942755 7.9378561,8.077785 7.84375,8.21875 7.818661,8.25713 7.805304,8.30462 7.78125,8.34375 7.716487,8.446782 7.6510225,8.548267 7.59375,8.65625 7.4927417,8.850956 7.3880752,9.071951 7.3125,9.28125 7.30454,9.30306 7.288911,9.3218 7.28125,9.34375 7.2494249,9.4357 7.2454455,9.530581 7.21875,9.625 7.1884177,9.731618 7.1483606,9.828031 7.125,9.9375 7.0521214,10.279012 7,10.635705 7,11 l 0,2 0,68 0,2 c 0,2.781848 2.2181517,5 5,5 l 2,0 68,0 2,0 c 2.781848,0 5,-2.218152 5,-5 l 0,-2 0,-68 0,-2 C 89,10.635705 88.94788,10.279012 88.875,9.9375 88.83085,9.730607 88.78662,9.539842 88.71875,9.34375 88.71105,9.3218 88.69545,9.30306 88.6875,9.28125 88.62476,9.107511 88.549117,8.913801 88.46875,8.75 88.42717,8.6672 88.38971,8.580046 88.34375,8.5 88.28915,8.40279 88.216976,8.31165 88.15625,8.21875 88.06214,8.077785 87.951329,7.942755 87.84375,7.8125 87.700576,7.63805 87.540609,7.465502 87.375,7.3125 87.36383,7.3023 87.35502,7.29135 87.34375,7.28125 87.205364,7.155694 87.058659,7.046814 86.90625,6.9375 86.803679,6.86435 86.701932,6.784136 86.59375,6.71875 c -0.0074,-0.0045 -0.02384,0.0044 -0.03125,0 -0.232039,-0.138728 -0.462548,-0.274778 -0.71875,-0.375 0.301527,0.0968 0.596455,0.204138 0.875,0.34375 0.55709,0.279224 1.060053,0.665694 1.5,1.09375 0.219973,0.214028 0.409366,0.441865 0.59375,0.6875 0.184384,0.245635 0.355408,0.507743 0.5,0.78125 0.14012,0.265048 0.276135,0.524729 0.375,0.8125 0.01041,0.03078 0.02133,0.06274 0.03125,0.09375 0.09046,0.278085 0.1388,0.579404 0.1875,0.875 C 89.95865,11.3493 90,11.665279 90,12 l 0,2 0,68 0,2 c 0,3.324 -2.676,6 -6,6 l -72,0 z"
       inkscape:connector-curvature="0"
       id="path3615"
       style="opacity:0.6;fill:url(#radialGradient3619);fill-opacity:1;fill-rule:nonzero;stroke:none" />
    <rect
       width="84"
       height="84"
       rx="6"
       ry="6"
       x="6"
       y="106"
       id="rect2841"
       style="fill:url(#linearGradient2843);fill-opacity:1;fill-rule:nonzero;stroke:none" />
    <rect
       width="76"
       height="76"
       rx="4"
       ry="4"
       x="10"
       y="110"
       id="rect3634"
       style="fill:#ff0000;fill-opacity:1;fill-rule:nonzero;stroke:none" />
    <path
       d="m 14,9 c -2.752703,0 -5,2.247297 -5,5 l 0,68 c 0,2.752703 2.247297,5 5,5 l 68,0 c 2.752703,0 5,-2.247297 5,-5 L 87,14 C 87,11.247297 84.752703,9 82,9 L 14,9 z m 0,2 68,0 c 1.679297,0 3,1.320703 3,3 l 0,68 c 0,1.679297 -1.320703,3 -3,3 l -68,0 c -1.679297,0 -3,-1.320703 -3,-3 l 0,-68 c 0,-1.679297 1.320703,-3 3,-3 z"
       inkscape:connector-curvature="0"
       transform="translate(-110,0)"
       clip-path="url(#clipPath3649)"
       id="rect3647"
       style="font-size:medium;font-style:normal;font-variant:normal;font-weight:normal;font-stretch:normal;text-indent:0;text-align:start;text-decoration:none;line-height:normal;letter-spacing:normal;word-spacing:normal;text-transform:none;direction:ltr;block-progression:tb;writing-mode:lr-tb;text-anchor:start;color:#000000;fill:#000000;fill-opacity:1;stroke:none;stroke-width:2;marker:none;visibility:visible;display:inline;overflow:visible;filter:url(#filter3657);enable-background:accumulate;font-family:Abandoned Bitplane;-inkscape-font-specification:Abandoned Bitplane" />
    <path
       d="m 14.089286,10 c -2.216,0 -4,1.784 -4,4 l 0,68 c 0,2.216 1.784,4 4,4 l 68,0 c 2.216,0 4,-1.784 4,-4 l 0,-68 c 0,-2.216 -1.784,-4 -4,-4 l -68,0 z m 0,2 68,0 c 1.140301,0 2,0.859699 2,2 l 0,68 c 0,1.140301 -0.859699,2 -2,2 l -68,0 c -1.140301,0 -2,-0.859699 -2,-2 l 0,-68 c 0,-1.140301 0.859699,-2 2,-2 z"
       inkscape:connector-curvature="0"
       id="path3709"
       style="opacity:0.16000001;fill:#000000;fill-opacity:1;fill-rule:nonzero;stroke:none" />
    <path
       d="m 14,10 c -2.216,0 -4,1.784 -4,4 l 0,68 c 0,2.216 1.784,4 4,4 l 68,0 c 2.216,0 4,-1.784 4,-4 l 0,-68 c 0,-2.216 -1.784,-4 -4,-4 l -68,0 z m 0,1 68,0 c 1.673848,0 3,1.326152 3,3 l 0,68 c 0,1.673848 -1.326152,3 -3,3 l -68,0 c -1.673848,0 -3,-1.326152 -3,-3 l 0,-68 c 0,-1.673848 1.326152,-3 3,-3 z"
       inkscape:connector-curvature="0"
       id="path3707"
       style="opacity:0.36000001;fill:#000000;fill-opacity:1;fill-rule:nonzero;stroke:none" />
  </g>
  <g
     id="g4926"
     transform="translate(-0.51878617,-1.1572793)">
    <path
       d="M 44.306798,12.372487 C 31.243985,11.961581 21.441097,24.949484 23.253079,37.406223 23.61718,44.12019 22.480394,51.058188 23.906921,57.61612 13.576734,62.701901 9.5861329,74.587388 10.699309,85.42498 c 0.0849,23.97312 -0.171275,47.9549 0.130643,71.92254 1.061484,14.60927 15.787604,24.50642 29.752485,22.66178 9.567044,0 19.134092,0 28.701137,0 0.273253,15.59013 -0.588873,31.25277 0.514014,46.79035 2.381801,13.49572 16.296919,21.76297 29.369108,20.15977 41.155014,-0.0866 82.318794,0.17323 123.468284,-0.13056 14.61002,-1.06145 24.50767,-15.78683 22.66292,-29.751 -0.15806,-24.71982 0.32033,-49.46781 -0.24681,-74.16951 1.03042,-11.45236 -14.6207,-14.25259 -12.43759,-24.18636 -1.06149,-14.60927 -15.78761,-24.50646 -29.75249,-22.661775 -5.38245,0 -10.76491,0 -16.14737,0 -0.36707,-11.839835 2.37828,-25.834334 -7.84531,-34.575509 -9.7327,-5.497483 -2.46555,-22.788605 -15.84932,-28.056408 -10.57824,-6.771376 -23.49393,-3.563085 -35.33089,-4.318199 -9.92208,0 -19.84416,0 -29.766254,0 C 95.879276,17.69862 84.178793,10.829831 73.138715,12.372571 c -9.610635,0 -19.22127,0 -28.831905,0 z M 80.660423,125.48157 c 0.843568,-0.33224 0.129346,0.44764 0,0 z m -2.876905,0.91533 c -0.549387,1.88 -0.862176,-0.22679 0,0 z m 1.046147,0.13056 c 1.046872,-0.34438 -0.169894,0.4776 0,0 z m 0.392306,0.13055 c 0.567719,0.54129 -0.838642,0.0866 0,0 z m -0.784611,0.39207 c -1.963263,2.06772 -1.950563,1.24557 0,0 z m -2.4846,2.0922 c 0.780689,-0.28705 0.62011,1.62667 0,0 z"
       inkscape:connector-curvature="0"
       id="path4014"
       style="opacity:0.1;color:#000000;fill:#000000;fill-opacity:1;fill-rule:nonzero;stroke:none;stroke-width:1;marker:none;visibility:visible;display:inline;overflow:visible;enable-background:accumulate" />
    <path
       d="m 44.306798,16.556869 c -9.289803,0 -16.869129,7.578962 -16.869129,16.868291 l 0,20.921911 a 4.3510974,4.3508813 0 0 0 4.315359,4.315144 l 2.876905,0 c -10.97307,0.7126 -19.746034,9.645085 -19.746034,20.791149 l 0,75.318876 c 0,11.60748 9.445653,21.05268 21.053719,21.05268 l 33.47672,0 a 4.3510974,4.3508813 0 0 0 4.053821,-2.746 l 0,48.64344 c 0,11.60748 9.445654,21.05267 21.053717,21.05267 l 125.537704,0 c 11.60807,0 21.05372,-9.44519 21.05372,-21.05267 l 0,-75.31888 c 0,-11.14606 -8.77296,-20.07855 -19.74603,-20.79115 l 2.8769,0 a 4.3510974,4.3508813 0 0 0 4.31536,-4.31514 c 0,-11.60748 -9.44565,-21.05268 -21.05372,-21.05268 l -27.59214,0 a 4.3510974,4.3508813 0 0 0 2.61537,-4.053617 l 0,-16.737529 c 0,-11.146064 -8.77296,-20.078549 -19.74603,-20.791149 l 2.8769,0 a 4.3510974,4.3508813 0 0 0 4.31536,-4.315144 c 0,-11.607476 -9.44565,-21.052673 -21.05372,-21.052673 l -54.268904,0 c -0.0727,-9.22853 -7.623988,-16.737529 -16.869128,-16.737529 l -33.47672,0 z M 152.97537,98.806132 a 4.3510974,4.3508813 0 0 0 1.83076,1.438378 l -1.56922,0 c -0.004,-0.508232 -0.21295,-0.941357 -0.26154,-1.438378 z m -75.322621,22.491058 4.315359,0 4.053821,0 a 4.3510974,4.3508813 0 0 0 4.315359,4.31514 l 2.876908,0 c -3.132838,0.20336 -6.013099,1.05137 -8.630719,2.48448 l -1.830759,-3.26905 -3.923053,1.83067 c 0.204794,0.43743 -0.32351,-0.7044 -0.130768,-0.26153 0.192742,0.44288 -0.311292,-0.84026 -0.130769,-0.39207 0.180524,0.44798 -0.298947,-0.71428 -0.130768,-0.26153 0.168179,0.45275 -0.286477,-0.84947 -0.130768,-0.39207 0.155708,0.45718 -0.273924,-0.72281 -0.130769,-0.26153 0.143155,0.46129 -0.261202,-0.85734 -0.130768,-0.39208 0.130433,0.46506 -0.117671,-0.72996 0,-0.26152 0.11767,0.46844 -0.235551,-0.86378 -0.130769,-0.39208 0.104782,0.4715 -0.222578,-0.86646 -0.130768,-0.39207 0.09181,0.47417 -0.0788,-0.73804 0,-0.26153 0.0788,0.47652 -0.0657,-0.87077 0,-0.39207 0.0657,0.47848 -0.183369,-0.74164 -0.130769,-0.26153 0.0526,0.48012 -0.03933,-0.87365 0,-0.39207 0.03934,0.48137 -0.02636,-0.87458 0,-0.39208 0.02636,0.48229 -0.01297,-0.74436 0,-0.26152 0.01297,0.48283 2.47e-4,-0.87529 0,-0.39208 z"
       id="path4010"
       style="opacity:0.15;color:#000000;fill:#000000;fill-opacity:1;fill-rule:nonzero;stroke:none;stroke-width:1;marker:none;visibility:visible;display:inline;overflow:visible;enable-background:accumulate"
       inkscape:connector-curvature="0" />
    <path
       d="m 44.306798,20.872013 c -6.954789,0 -12.55377,5.598704 -12.55377,12.553147 l 0,20.921911 133.906882,0 c 0,-9.272591 -7.46531,-16.737529 -16.73836,-16.737529 l -58.584262,0 0,-4.184382 c 0,-6.954443 -5.598982,-12.553147 -12.55377,-12.553147 l -33.47672,0 z m -8.36918,41.843822 c -9.273052,0 -16.738361,7.464938 -16.738361,16.737529 l 0,75.318876 c 0,9.2726 7.465309,16.73753 16.738361,16.73753 l 33.47672,0 0,-25.10629 c 0,-9.39478 5.596575,-17.29083 13.33838,-21.57572 a 8.3173761,8.316963 0 0 1 -0.78461,-3.53057 l 0,-20.92191 c 0,-11.417761 9.504648,-20.921916 20.922952,-20.921916 l 33.47672,0 c 9.94229,0 17.98871,7.347273 20.00757,16.737529 l 21.83833,0 0,-16.737529 c 0,-9.272591 -7.46531,-16.737529 -16.73836,-16.737529 l -125.537702,0 z m 66.953442,25.106294 c -6.954794,0 -12.553772,5.598703 -12.553772,12.553151 l 0,20.92191 133.906882,0 c 0,-9.27259 -7.46531,-16.73753 -16.73836,-16.73753 l -58.58426,0 0,-4.18438 c 0,-6.954448 -5.59898,-12.553151 -12.55377,-12.553151 l -33.47672,0 z m -8.369184,41.843821 c -9.27305,0 -16.738358,7.46494 -16.738358,16.73753 l 0,75.31888 c 0,9.27259 7.465308,16.73753 16.738358,16.73753 l 125.537704,0 c 9.27305,0 16.73836,-7.46494 16.73836,-16.73753 l 0,-75.31888 c 0,-9.27259 -7.46531,-16.73753 -16.73836,-16.73753 l -125.537704,0 z"
       inkscape:connector-curvature="0"
       id="path4004"
       style="opacity:0.3;color:#000000;fill:#000000;fill-opacity:1;fill-rule:nonzero;stroke:none;stroke-width:1;marker:none;visibility:visible;display:inline;overflow:visible;enable-background:accumulate" />
    <path
       d="m 44.306798,16.687631 c -6.954789,0 -12.55377,5.598703 -12.55377,12.553147 l 0,20.921911 133.906882,0 c 0,-9.272591 -7.46531,-16.737529 -16.73836,-16.737529 l -58.584262,0 0,-4.184382 c 0,-6.954444 -5.598982,-12.553147 -12.55377,-12.553147 l -33.47672,0 z m -8.36918,41.843822 c -9.273052,0 -16.738361,7.464938 -16.738361,16.737529 l 0,75.318878 c 0,9.27259 7.465309,16.73753 16.738361,16.73753 l 33.47672,0 0,-25.10629 c 0,-9.39478 5.596575,-17.29083 13.33838,-21.57572 a 8.3173761,8.316963 0 0 1 -0.78461,-3.53058 l 0,-20.921907 c 0,-11.417756 9.504648,-20.921911 20.922952,-20.921911 l 33.47672,0 c 9.94229,0 17.98871,7.347273 20.00757,16.737529 l 21.83833,0 0,-16.737529 c 0,-9.272591 -7.46531,-16.737529 -16.73836,-16.737529 l -125.537702,0 z m 66.953442,25.106294 c -6.954794,0 -12.553772,5.598703 -12.553772,12.553146 l 0,20.921907 133.906882,0 c 0,-9.27259 -7.46531,-16.73752 -16.73836,-16.73752 l -58.58426,0 0,-4.184387 c 0,-6.954443 -5.59898,-12.553146 -12.55377,-12.553146 l -33.47672,0 z m -8.369184,41.843823 c -9.27305,0 -16.738358,7.46494 -16.738358,16.73753 l 0,75.31888 c 0,9.27259 7.465308,16.73753 16.738358,16.73753 l 125.537704,0 c 9.27305,0 16.73836,-7.46494 16.73836,-16.73753 l 0,-75.31888 c 0,-9.27259 -7.46531,-16.73753 -16.73836,-16.73753 l -125.537704,0 z"
       inkscape:connector-curvature="0"
       id="path3949"
       style="color:#000000;fill:url(#linearGradient4934);fill-opacity:1;fill-rule:nonzero;stroke:none;stroke-width:1;marker:none;visibility:visible;display:inline;overflow:visible;enable-background:accumulate" />
    <path
       d="m 44.306798,16.687631 c -6.954789,0 -12.55377,5.598703 -12.55377,12.553147 l 0,4.184382 c 0,-6.954443 5.598981,-12.553147 12.55377,-12.553147 l 33.47672,0 c 6.954788,0 12.55377,5.598704 12.55377,12.553147 l 0,-4.184382 c 0,-6.954444 -5.598982,-12.553147 -12.55377,-12.553147 l -33.47672,0 z m 46.03049,16.737529 0,4.184382 58.584262,0 c 7.82089,0 14.22955,5.327137 16.08452,12.553147 l 0.65384,0 c 0,-9.272591 -7.46531,-16.737529 -16.73836,-16.737529 l -58.584262,0 z m -54.39967,25.106293 c -9.273052,0 -16.738361,7.464938 -16.738361,16.737529 l 0,4.184382 c 0,-9.272591 7.465309,-16.737529 16.738361,-16.737529 l 125.537702,0 c 9.27305,0 16.73836,7.464938 16.73836,16.737529 l 0,-4.184382 c 0,-9.272591 -7.46531,-16.737529 -16.73836,-16.737529 l -125.537702,0 z m 66.953442,25.106294 c -6.954794,0 -12.553772,5.598703 -12.553772,12.553146 l 0,4.184387 c 0,-6.954448 5.598978,-12.553151 12.553772,-12.553151 l 33.47672,0 c 6.95479,0 12.55377,5.598703 12.55377,12.553151 l 0,-4.184387 c 0,-6.954443 -5.59898,-12.553146 -12.55377,-12.553146 l -33.47672,0 z m 46.03049,16.737533 0,4.18438 58.58426,0 c 7.82089,0 14.22955,5.32714 16.08452,12.55314 l 0.65384,0 c 0,-9.27259 -7.46531,-16.73752 -16.73836,-16.73752 l -58.58426,0 z m -66.953442,16.99905 0,3.79209 c 0.270868,-0.16193 0.508118,-0.36989 0.78461,-0.52304 a 8.3173761,8.316963 0 0 1 -0.78461,-3.26905 z m 12.553768,8.10724 c -9.27305,0 -16.738358,7.46494 -16.738358,16.73753 l 0,4.18438 c 0,-9.27259 7.465308,-16.73753 16.738358,-16.73753 l 125.537704,0 c 9.27305,0 16.73836,7.46494 16.73836,16.73753 l 0,-4.18438 c 0,-9.27259 -7.46531,-16.73753 -16.73836,-16.73753 l -125.537704,0 z"
       inkscape:connector-curvature="0"
       id="path3986"
       style="opacity:0.75;color:#000000;fill:#ffffff;fill-opacity:1;fill-rule:nonzero;stroke:none;stroke-width:1;marker:none;visibility:visible;display:inline;overflow:visible;enable-background:accumulate" />
    <path
       d="m 31.753028,45.978307 0,4.184382 133.906882,0 c 0,-1.452106 -0.30941,-2.84266 -0.65384,-4.184382 l -133.253042,0 z M 102.89106,71.0846 c -11.418304,0 -20.922952,9.504155 -20.922952,20.921911 l 0,4.184382 c 0,-11.417756 9.504648,-20.921911 20.922952,-20.921911 l 33.47672,0 c 9.94229,0 17.98871,7.347273 20.00757,16.737529 l 21.83833,0 0,-4.184382 -21.83833,0 C 154.35649,78.431873 146.31007,71.0846 136.36778,71.0846 l -33.47672,0 z m -12.553772,41.84382 0,4.18438 133.906882,0 c 0,-1.4521 -0.30941,-2.84266 -0.65384,-4.18438 l -133.253042,0 z m -8.36918,4.05362 c -7.313308,4.378 -12.55377,11.9934 -12.55377,21.05268 l 0,4.18438 c 0,-9.39478 5.596575,-17.29083 13.33838,-21.57572 a 8.3173761,8.316963 0 0 1 -0.78461,-3.53058 l 0,-0.13055 z m -62.768851,29.42144 0,4.18438 c 0,9.27259 7.465309,16.73753 16.738361,16.73753 l 33.47672,0 0,-4.18438 -33.47672,0 c -9.273052,0 -16.738361,-7.46494 -16.738361,-16.73753 z m 58.584261,66.95012 0,4.18438 c 0,9.27259 7.465308,16.73753 16.738358,16.73753 l 125.537704,0 c 9.27305,0 16.73836,-7.46494 16.73836,-16.73753 l 0,-4.18438 c 0,9.27259 -7.46531,16.73752 -16.73836,16.73752 l -125.537704,0 c -9.27305,0 -16.738358,-7.46493 -16.738358,-16.73752 z"
       inkscape:connector-curvature="0"
       id="path3995"
       style="opacity:0.15;color:#000000;fill:#000000;fill-opacity:1;fill-rule:nonzero;stroke:none;stroke-width:1;marker:none;visibility:visible;display:inline;overflow:visible;enable-background:accumulate" />
  </g>
</svg>
