<?xml version="1.0" encoding="UTF-8" standalone="no"?>
<!-- Created with Inkscape (http://www.inkscape.org/) -->

<svg
   xmlns:dc="http://purl.org/dc/elements/1.1/"
   xmlns:cc="http://creativecommons.org/ns#"
   xmlns:rdf="http://www.w3.org/1999/02/22-rdf-syntax-ns#"
   xmlns:svg="http://www.w3.org/2000/svg"
   xmlns="http://www.w3.org/2000/svg"
   xmlns:xlink="http://www.w3.org/1999/xlink"
   xmlns:sodipodi="http://sodipodi.sourceforge.net/DTD/sodipodi-0.dtd"
   xmlns:inkscape="http://www.inkscape.org/namespaces/inkscape"
   id="svg2"
   height="256"
   width="256"
   version="1.0"
   inkscape:version="0.48.3.1 r9886"
   sodipodi:docname="preferences-desktop-launch-feedback.svg">
  <sodipodi:namedview
     pagecolor="#ffffff"
     bordercolor="#666666"
     borderopacity="1"
     objecttolerance="10"
     gridtolerance="10"
     guidetolerance="10"
     inkscape:pageopacity="0"
     inkscape:pageshadow="2"
     inkscape:window-width="1024"
     inkscape:window-height="553"
     id="namedview3227"
     showgrid="false"
     fit-margin-top="0"
     fit-margin-left="0"
     fit-margin-right="0"
     fit-margin-bottom="0"
     inkscape:zoom="1.4960938"
     inkscape:cx="128"
     inkscape:cy="128"
     inkscape:window-x="-8"
     inkscape:window-y="24"
     inkscape:window-maximized="1"
     inkscape:current-layer="svg2" />
  <defs
     id="defs4">
    <linearGradient
       id="linearGradient3656">
      <stop
         id="stop3658"
         offset="0"
         style="stop-color:#717171;stop-opacity:1;" />
      <stop
         id="stop3660"
         offset="1"
         style="stop-color:#000000;stop-opacity:1" />
    </linearGradient>
    <linearGradient
       id="linearGradient4046"
       inkscape:collect="always">
      <stop
         id="stop4048"
         offset="0"
         style="stop-color:#1616a2;stop-opacity:0" />
      <stop
         id="stop4050"
         offset="1"
         style="stop-color:#1616a2;stop-opacity:0.47826087" />
    </linearGradient>
    <linearGradient
       id="linearGradient3695">
      <stop
         style="stop-color:#a8a8a8;stop-opacity:0;"
         offset="0"
         id="stop3697" />
      <stop
         id="stop3703"
         offset="0.77134377"
         style="stop-color:#343434;stop-opacity:1;" />
      <stop
         style="stop-color:#9b9b9b;stop-opacity:1;"
         offset="0.88565689"
         id="stop3705" />
      <stop
         style="stop-color:#393939;stop-opacity:1;"
         offset="1"
         id="stop3699" />
    </linearGradient>
    <linearGradient
       id="linearGradient4038">
      <stop
         id="stop4040"
         offset="0"
         style="stop-color:#5b5b5b;stop-opacity:1;" />
      <stop
         id="stop4042"
         offset="1"
         style="stop-color:#9a9a9a;stop-opacity:1;" />
    </linearGradient>
    <linearGradient
       id="linearGradient5917">
      <stop
         id="stop5919"
         offset="0"
         style="stop-color:#979797;stop-opacity:0;" />
      <stop
         style="stop-color:#5a5a5a;stop-opacity:0.25603864;"
         offset="0.71443629"
         id="stop5921" />
      <stop
         id="stop5923"
         offset="0.88565689"
         style="stop-color:#2e2e2e;stop-opacity:1;" />
      <stop
         id="stop5925"
         offset="1"
         style="stop-color:#595959;stop-opacity:1;" />
    </linearGradient>
    <linearGradient
       id="linearGradient5927">
      <stop
         id="stop5929"
         offset="0"
         style="stop-color:#ffffff;stop-opacity:1" />
      <stop
         id="stop5931"
         offset="1"
         style="stop-color:#dc5f6f;stop-opacity:0;" />
    </linearGradient>
    <linearGradient
       id="linearGradient5955">
      <stop
         style="stop-color:#000000;stop-opacity:1"
         offset="0"
         id="stop5957" />
      <stop
         style="stop-color:#9d9d9d;stop-opacity:1;"
         offset="1"
         id="stop5959" />
    </linearGradient>
    <linearGradient
       id="linearGradient5141">
      <stop
         id="stop5143"
         offset="0"
         style="stop-color:#000000;stop-opacity:0" />
      <stop
         id="stop5145"
         offset="1"
         style="stop-color:#b2b2b2;stop-opacity:1;" />
    </linearGradient>
    <linearGradient
       id="linearGradient5161">
      <stop
         id="stop5163"
         offset="0"
         style="stop-color:#000000;stop-opacity:1;" />
      <stop
         id="stop5165"
         offset="1"
         style="stop-color:#959595;stop-opacity:1;" />
    </linearGradient>
    <linearGradient
       id="linearGradient3920">
      <stop
         id="stop3922"
         offset="0"
         style="stop-color:#a4a4a4;stop-opacity:0;" />
      <stop
         style="stop-color:#9f9fa0;stop-opacity:1;"
         offset="0.77169913"
         id="stop3924" />
      <stop
         id="stop3926"
         offset="0.88565689"
         style="stop-color:#000000;stop-opacity:1;" />
      <stop
         id="stop3928"
         offset="1"
         style="stop-color:#a9aab0;stop-opacity:1;" />
    </linearGradient>
    <linearGradient
       inkscape:collect="always"
       xlink:href="#linearGradient5161"
       id="linearGradient7556"
       gradientUnits="userSpaceOnUse"
       gradientTransform="translate(-49.605515,-825.20541)"
       spreadMethod="reflect"
       x1="1442.6812"
       y1="493.71921"
       x2="1442.6809"
       y2="488.5878" />
    <linearGradient
       inkscape:collect="always"
       xlink:href="#linearGradient5161"
       id="linearGradient7558"
       gradientUnits="userSpaceOnUse"
       gradientTransform="translate(-49.605515,-825.20541)"
       spreadMethod="reflect"
       x1="1460.5959"
       y1="497.3479"
       x2="1452.3889"
       y2="485.06409" />
    <radialGradient
       inkscape:collect="always"
       xlink:href="#linearGradient3920"
       id="radialGradient7560"
       gradientUnits="userSpaceOnUse"
       gradientTransform="matrix(3.2761911,2.1396076,-2.3170703,3.1245976,272.69492,-494.79565)"
       spreadMethod="reflect"
       cx="65.986153"
       cy="219.0031"
       fx="65.986153"
       fy="219.0031"
       r="53.323734" />
    <linearGradient
       inkscape:collect="always"
       xlink:href="#linearGradient3656"
       id="linearGradient7562"
       gradientUnits="userSpaceOnUse"
       spreadMethod="reflect"
       x1="133.66173"
       y1="165.33148"
       x2="145.59059"
       y2="147.21973" />
    <linearGradient
       inkscape:collect="always"
       xlink:href="#linearGradient5955"
       id="linearGradient7564"
       gradientUnits="userSpaceOnUse"
       spreadMethod="reflect"
       x1="94.404327"
       y1="140.63757"
       x2="118.36961"
       y2="105.03297" />
    <linearGradient
       inkscape:collect="always"
       xlink:href="#linearGradient5141"
       id="linearGradient7566"
       gradientUnits="userSpaceOnUse"
       spreadMethod="reflect"
       x1="104.55441"
       y1="126.18952"
       x2="121.77771"
       y2="108.21211"
       gradientTransform="matrix(-1,0,-0.570643,1,325.79445,7.6505747)" />
    <radialGradient
       inkscape:collect="always"
       xlink:href="#linearGradient3695"
       id="radialGradient7568"
       gradientUnits="userSpaceOnUse"
       gradientTransform="matrix(0.8599242,-0.27645,0.4450709,1.2916793,-47.488189,-7.2677534)"
       spreadMethod="reflect"
       cx="132.06468"
       cy="148.36578"
       fx="132.06468"
       fy="148.36578"
       r="30.021978" />
    <linearGradient
       inkscape:collect="always"
       xlink:href="#linearGradient4046"
       id="linearGradient7570"
       gradientUnits="userSpaceOnUse"
       x1="543.16241"
       y1="-78.205132"
       x2="543.16241"
       y2="-166.96582" />
    <linearGradient
       inkscape:collect="always"
       xlink:href="#linearGradient4038"
       id="linearGradient7572"
       gradientUnits="userSpaceOnUse"
       spreadMethod="reflect"
       x1="185.53017"
       y1="159.57812"
       x2="190.24377"
       y2="151.19824" />
    <radialGradient
       inkscape:collect="always"
       xlink:href="#linearGradient5917"
       id="radialGradient7574"
       gradientUnits="userSpaceOnUse"
       gradientTransform="matrix(1,0,0,1.4257731,0,-69.211736)"
       cx="196.26112"
       cy="162.722"
       fx="196.26112"
       fy="162.722"
       r="7.3753848" />
    <radialGradient
       inkscape:collect="always"
       xlink:href="#linearGradient5927"
       id="radialGradient7576"
       gradientUnits="userSpaceOnUse"
       gradientTransform="matrix(2.5420183,1.1600045,-0.28237397,0.49281688,-228.18725,-65.256829)"
       cx="168.99173"
       cy="158.2626"
       fx="168.99173"
       fy="158.2626"
       r="38.776505" />
    <linearGradient
       inkscape:collect="always"
       xlink:href="#linearGradient5161"
       id="linearGradient7578"
       gradientUnits="userSpaceOnUse"
       gradientTransform="translate(-49.605515,-825.20541)"
       spreadMethod="reflect"
       x1="1442.6812"
       y1="493.71921"
       x2="1442.6809"
       y2="488.5878" />
    <linearGradient
       inkscape:collect="always"
       xlink:href="#linearGradient5161"
       id="linearGradient7580"
       gradientUnits="userSpaceOnUse"
       gradientTransform="translate(-49.605515,-825.20541)"
       spreadMethod="reflect"
       x1="1460.5959"
       y1="497.3479"
       x2="1452.3889"
       y2="485.06409" />
    <linearGradient
       inkscape:collect="always"
       xlink:href="#linearGradient5161"
       id="linearGradient7582"
       gradientUnits="userSpaceOnUse"
       gradientTransform="translate(-49.605515,-825.20541)"
       spreadMethod="reflect"
       x1="1442.6812"
       y1="493.71921"
       x2="1442.6809"
       y2="488.5878" />
    <linearGradient
       inkscape:collect="always"
       xlink:href="#linearGradient5161"
       id="linearGradient7584"
       gradientUnits="userSpaceOnUse"
       gradientTransform="translate(-49.605515,-825.20541)"
       spreadMethod="reflect"
       x1="1460.5959"
       y1="497.3479"
       x2="1452.3889"
       y2="485.06409" />
    <radialGradient
       inkscape:collect="always"
       xlink:href="#linearGradient5927"
       id="radialGradient7586"
       gradientUnits="userSpaceOnUse"
       gradientTransform="matrix(0.83050245,0.48472376,-0.115302,0.15483329,-4.0304455,31.894553)"
       cx="168.99173"
       cy="158.2626"
       fx="168.99173"
       fy="158.2626"
       r="38.776505" />
    <radialGradient
       inkscape:collect="always"
       xlink:href="#linearGradient5927"
       id="radialGradient7588"
       gradientUnits="userSpaceOnUse"
       gradientTransform="matrix(0.83050245,0.48472376,-0.115302,0.15483329,-53.785576,117.0354)"
       cx="168.99173"
       cy="158.2626"
       fx="168.99173"
       fy="158.2626"
       r="38.776505" />
    <radialGradient
       inkscape:collect="always"
       xlink:href="#linearGradient5927"
       id="radialGradient7590"
       gradientUnits="userSpaceOnUse"
       gradientTransform="matrix(0.83050245,0.48472376,-0.115302,0.15483329,7.5225245,112.42727)"
       cx="168.99173"
       cy="158.2626"
       fx="168.99173"
       fy="158.2626"
       r="38.776505" />
  </defs>
  <metadata
     id="metadata7">
    <rdf:RDF>
      <cc:Work
         rdf:about="">
        <dc:format>image/svg+xml</dc:format>
        <dc:type
           rdf:resource="http://purl.org/dc/dcmitype/StillImage" />
        <cc:license
           rdf:resource="http://creativecommons.org/licenses/GPL/2.0/" />
        <dc:creator>
          <cc:Agent>
            <dc:title>Lapo Calamandrei</dc:title>
          </cc:Agent>
        </dc:creator>
        <dc:title></dc:title>
        <dc:contributor>
          <cc:Agent>
            <dc:title>Jakub Steiner</dc:title>
          </cc:Agent>
        </dc:contributor>
      </cc:Work>
      <cc:License
         rdf:about="http://creativecommons.org/licenses/GPL/2.0/">
        <cc:permits
           rdf:resource="http://web.resource.org/cc/Reproduction" />
        <cc:permits
           rdf:resource="http://web.resource.org/cc/Distribution" />
        <cc:requires
           rdf:resource="http://web.resource.org/cc/Notice" />
        <cc:permits
           rdf:resource="http://web.resource.org/cc/DerivativeWorks" />
        <cc:requires
           rdf:resource="http://web.resource.org/cc/ShareAlike" />
        <cc:requires
           rdf:resource="http://web.resource.org/cc/SourceCode" />
      </cc:License>
    </rdf:RDF>
  </metadata>
  <g
     id="g7511"
     transform="translate(0.008706,-52)">
    <path
       style="opacity:0.05;fill:none;stroke:#000000;stroke-width:24;stroke-linejoin:round;stroke-miterlimit:4;stroke-opacity:1;stroke-dasharray:none"
       d="m 92.761784,115.49302 c -1.40853,0.15862 -3.178719,1.52057 -4.448803,3.59199 -1.693445,2.7619 -1.854221,5.7371 -0.395449,6.65673 l 0.428403,0.26363 c -7.071329,4.56665 -14.004704,11.26583 -20.101999,19.3111 -21.042841,-6.68173 -41.160872,-7.26122 -56.252642,1.74657 1.04709,17.42618 15.45153,31.27454 36.348368,41.65398 -0.974903,4.84288 -1.432717,9.38635 -1.482934,13.61004 l -1.944294,-1.2193 c -1.45877,-0.91963 -3.97465,0.56646 -5.6681,3.32836 -1.69345,2.7619 -1.88718,5.7371 -0.42841,6.65673 l 10.18282,6.42605 c 1.963765,5.66332 5.2119,9.8937 9.523734,12.32483 l 0.03295,0 16.641818,9.39192 c 1.790535,1.00954 3.787551,1.68823 5.931738,2.04315 0.03395,0.006 0.06482,0.0274 0.09886,0.033 0.485018,0.0777 0.980861,0.12229 1.482934,0.16477 0.06789,0.006 0.129521,0.0277 0.197725,0.0329 0.474863,0.0356 0.960326,0.0621 1.44998,0.0659 0.419577,0.004 0.854953,-0.0459 1.28521,-0.0659 0.133423,-0.006 0.261011,0.009 0.395449,0 0.06621,-0.004 0.131268,-0.0282 0.197725,-0.0329 0.08641,-0.006 0.176812,0.007 0.263632,0 0.129806,-0.0106 0.264723,-0.0202 0.39545,-0.0329 0.493658,-0.0491 0.97633,-0.11788 1.482934,-0.19772 0.435172,-0.0678 0.873592,-0.17276 1.318164,-0.26364 0.1975,-0.0406 0.393844,-0.0537 0.593174,-0.0989 0.01082,-0.002 0.02213,0.002 0.03295,0 8.170272,-1.85324 20.923509,-11.41934 30.317769,-21.55197 l 5.27265,3.32836 c 0.0132,0.009 0.0195,0.0245 0.033,0.0329 l 1.12044,0.69204 c 0.18235,0.11495 0.38087,0.18861 0.59318,0.23067 1.44092,0.3682 3.36767,-0.73616 4.61357,-2.76814 0.0785,-0.12804 0.12804,-0.26599 0.19773,-0.39545 0.093,-0.13744 0.20791,-0.25084 0.29658,-0.39545 1.69345,-2.7619 1.85422,-5.7371 0.39545,-6.65673 l -5.37152,-3.36131 c 3.19063,0.37774 6.36295,0.70446 9.52374,0.98862 0.0711,3.36387 1.17559,5.88221 3.06473,6.98627 l 8.13966,4.74539 c 0.0513,0.03 0.11231,0.038 0.16477,0.0659 0.10741,0.056 0.2175,0.11755 0.32954,0.16477 0.15099,0.0649 0.30208,0.1163 0.46136,0.16477 0.0329,0.01 0.0657,0.0238 0.0989,0.0329 0.21853,0.0611 0.42585,0.10218 0.65908,0.13181 0.34451,0.0435 0.71247,0.061 1.08749,0.0329 0.31267,-0.0234 0.62295,-0.0563 0.95567,-0.13181 0.66507,-0.15086 1.3387,-0.4204 2.0102,-0.75795 0.67149,-0.33754 1.34965,-0.75076 2.0102,-1.25225 0.66641,-0.50595 1.3068,-1.09701 1.94429,-1.74657 0.3161,-0.32134 0.61695,-0.63624 0.92271,-0.98862 0.92304,-1.06375 1.78141,-2.26454 2.57042,-3.55904 0.26171,-0.42843 0.51527,-0.83713 0.75795,-1.28521 1.21337,-2.24042 2.19345,-4.7312 2.76814,-7.2499 0.41443,-1.81631 0.5602,-3.46323 0.52727,-4.97607 -0.0122,-0.62193 -0.05,-1.22014 -0.13182,-1.77952 -0.21882,-1.48833 -0.68272,-2.73325 -1.35112,-3.69086 -0.0693,-0.0995 -0.12394,-0.20357 -0.19772,-0.29659 -0.11062,-0.13946 -0.20908,-0.27093 -0.32954,-0.39545 -0.0222,-0.0231 -0.0434,-0.0433 -0.0659,-0.0659 -0.28856,-0.28751 -0.61474,-0.52574 -0.95567,-0.72499 l -8.10671,-4.74539 c 0.17047,0.0996 0.33674,0.20746 0.49431,0.32954 l -0.52726,-0.29658 c -1.04101,-0.60842 -2.31994,-0.79473 -3.78972,-0.46136 -2.05735,0.46667 -4.18546,1.871 -6.12946,3.88858 -14.72339,-14.42979 -32.65516,-27.61081 -51.144758,-37.20517 0.519033,-0.57136 1.02037,-1.13532 1.548843,-1.68066 1.475091,-1.52113 2.982064,-2.9522 4.514711,-4.25108 1.014174,-0.86027 2.033814,-1.68606 3.064734,-2.4386 1.04611,-0.76281 2.10731,-1.4329 3.16359,-2.07611 2.08254,-1.27011 4.17991,-2.30946 6.26128,-3.06473 0.0134,-0.005 0.0196,-0.0281 0.0329,-0.0329 0.26027,-0.094 0.53112,-0.14531 0.7909,-0.23068 0.23645,-0.0772 0.45608,-0.1937 0.69203,-0.26363 l 0.98863,0.62612 c 0.0127,0.008 0.02,0.0248 0.033,0.0329 l 1.08748,0.69204 c 0.13193,0.0832 0.28024,0.15303 0.4284,0.19772 0.48994,0.16968 1.0437,0.17504 1.61475,0 2.13536,6.70004 2.12384,15.79675 -0.46135,26.09965 6.07301,4.51899 10.55989,7.70208 15.91683,12.42369 -0.003,0.0105 0.003,0.0224 0,0.033 2.29666,1.909 3.65675,3.05306 6.29423,5.2397 2.28703,-6.47867 3.78054,-12.58498 4.58062,-18.22361 2.97604,-18.50481 -1.34229,-32.51233 -10.77599,-37.83131 l -15.81797,-8.89761 -0.85681,-0.46135 c -4.11873,-2.32224 -9.20475,-3.01627 -15.09297,-1.68066 -0.13212,0.03 -0.26316,0.067 -0.39545,0.0989 l -7.151041,-4.51471 c -0.364692,-0.22991 -0.782745,-0.31651 -1.252255,-0.26364 z m 30.976846,13.37936 c 0.0203,0.0335 0.0458,0.0652 0.0659,0.0989 -1.77019,-0.0396 -3.62529,0.15971 -5.53628,0.59317 -0.56215,0.12751 -1.11566,0.26736 -1.68066,0.42841 0.55509,-0.15767 1.09537,-0.33608 1.6477,-0.46136 1.93064,-0.43792 3.75157,-0.6435 5.50334,-0.65908 z m -50.782258,69.63201 c 8.225435,2.63669 16.861329,4.91145 25.737149,6.78854 0.04507,0.0678 0.07982,0.13742 0.131816,0.19772 -0.201439,-0.0418 -0.390644,-0.0894 -0.593173,-0.13181 -4.719982,6.1585 -13.325049,12.28921 -21.617887,14.17026 -0.623461,0.14142 -1.212396,0.27818 -1.812476,0.36249 -2.432147,-5.38001 -3.151212,-12.72803 -1.845429,-21.3872 z m -6.722636,29.85641 0.06591,0.0329 c 0.544987,1.3375 1.182254,2.60348 1.878384,3.75676 -0.0219,3.1e-4 -0.04404,-2.4e-4 -0.06591,0 -0.09838,-0.1634 -0.201185,-0.3271 -0.296587,-0.49431 -0.587775,-1.03016 -1.109482,-2.12576 -1.581797,-3.29541 z"
       id="path7509"
       inkscape:connector-curvature="0" />
    <path
       inkscape:connector-curvature="0"
       id="path7507"
       d="m 92.761784,115.49302 c -1.40853,0.15862 -3.178719,1.52057 -4.448803,3.59199 -1.693445,2.7619 -1.854221,5.7371 -0.395449,6.65673 l 0.428403,0.26363 c -7.071329,4.56665 -14.004704,11.26583 -20.101999,19.3111 -21.042841,-6.68173 -41.160872,-7.26122 -56.252642,1.74657 1.04709,17.42618 15.45153,31.27454 36.348368,41.65398 -0.974903,4.84288 -1.432717,9.38635 -1.482934,13.61004 l -1.944294,-1.2193 c -1.45877,-0.91963 -3.97465,0.56646 -5.6681,3.32836 -1.69345,2.7619 -1.88718,5.7371 -0.42841,6.65673 l 10.18282,6.42605 c 1.963765,5.66332 5.2119,9.8937 9.523734,12.32483 l 0.03295,0 16.641818,9.39192 c 1.790535,1.00954 3.787551,1.68823 5.931738,2.04315 0.03395,0.006 0.06482,0.0274 0.09886,0.033 0.485018,0.0777 0.980861,0.12229 1.482934,0.16477 0.06789,0.006 0.129521,0.0277 0.197725,0.0329 0.474863,0.0356 0.960326,0.0621 1.44998,0.0659 0.419577,0.004 0.854953,-0.0459 1.28521,-0.0659 0.133423,-0.006 0.261011,0.009 0.395449,0 0.06621,-0.004 0.131268,-0.0282 0.197725,-0.0329 0.08641,-0.006 0.176812,0.007 0.263632,0 0.129806,-0.0106 0.264723,-0.0202 0.39545,-0.0329 0.493658,-0.0491 0.97633,-0.11788 1.482934,-0.19772 0.435172,-0.0678 0.873592,-0.17276 1.318164,-0.26364 0.1975,-0.0406 0.393844,-0.0537 0.593174,-0.0989 0.01082,-0.002 0.02213,0.002 0.03295,0 8.170272,-1.85324 20.923509,-11.41934 30.317769,-21.55197 l 5.27265,3.32836 c 0.0132,0.009 0.0195,0.0245 0.033,0.0329 l 1.12044,0.69204 c 0.18235,0.11495 0.38087,0.18861 0.59318,0.23067 1.44092,0.3682 3.36767,-0.73616 4.61357,-2.76814 0.0785,-0.12804 0.12804,-0.26599 0.19773,-0.39545 0.093,-0.13744 0.20791,-0.25084 0.29658,-0.39545 1.69345,-2.7619 1.85422,-5.7371 0.39545,-6.65673 l -5.37152,-3.36131 c 3.19063,0.37774 6.36295,0.70446 9.52374,0.98862 0.0711,3.36387 1.17559,5.88221 3.06473,6.98627 l 8.13966,4.74539 c 0.0513,0.03 0.11231,0.038 0.16477,0.0659 0.10741,0.056 0.2175,0.11755 0.32954,0.16477 0.15099,0.0649 0.30208,0.1163 0.46136,0.16477 0.0329,0.01 0.0657,0.0238 0.0989,0.0329 0.21853,0.0611 0.42585,0.10218 0.65908,0.13181 0.34451,0.0435 0.71247,0.061 1.08749,0.0329 0.31267,-0.0234 0.62295,-0.0563 0.95567,-0.13181 0.66507,-0.15086 1.3387,-0.4204 2.0102,-0.75795 0.67149,-0.33754 1.34965,-0.75076 2.0102,-1.25225 0.66641,-0.50595 1.3068,-1.09701 1.94429,-1.74657 0.3161,-0.32134 0.61695,-0.63624 0.92271,-0.98862 0.92304,-1.06375 1.78141,-2.26454 2.57042,-3.55904 0.26171,-0.42843 0.51527,-0.83713 0.75795,-1.28521 1.21337,-2.24042 2.19345,-4.7312 2.76814,-7.2499 0.41443,-1.81631 0.5602,-3.46323 0.52727,-4.97607 -0.0122,-0.62193 -0.05,-1.22014 -0.13182,-1.77952 -0.21882,-1.48833 -0.68272,-2.73325 -1.35112,-3.69086 -0.0693,-0.0995 -0.12394,-0.20357 -0.19772,-0.29659 -0.11062,-0.13946 -0.20908,-0.27093 -0.32954,-0.39545 -0.0222,-0.0231 -0.0434,-0.0433 -0.0659,-0.0659 -0.28856,-0.28751 -0.61474,-0.52574 -0.95567,-0.72499 l -8.10671,-4.74539 c 0.17047,0.0996 0.33674,0.20746 0.49431,0.32954 l -0.52726,-0.29658 c -1.04101,-0.60842 -2.31994,-0.79473 -3.78972,-0.46136 -2.05735,0.46667 -4.18546,1.871 -6.12946,3.88858 -14.72339,-14.42979 -32.65516,-27.61081 -51.144758,-37.20517 0.519033,-0.57136 1.02037,-1.13532 1.548843,-1.68066 1.475091,-1.52113 2.982064,-2.9522 4.514711,-4.25108 1.014174,-0.86027 2.033814,-1.68606 3.064734,-2.4386 1.04611,-0.76281 2.10731,-1.4329 3.16359,-2.07611 2.08254,-1.27011 4.17991,-2.30946 6.26128,-3.06473 0.0134,-0.005 0.0196,-0.0281 0.0329,-0.0329 0.26027,-0.094 0.53112,-0.14531 0.7909,-0.23068 0.23645,-0.0772 0.45608,-0.1937 0.69203,-0.26363 l 0.98863,0.62612 c 0.0127,0.008 0.02,0.0248 0.033,0.0329 l 1.08748,0.69204 c 0.13193,0.0832 0.28024,0.15303 0.4284,0.19772 0.48994,0.16968 1.0437,0.17504 1.61475,0 2.13536,6.70004 2.12384,15.79675 -0.46135,26.09965 6.07301,4.51899 10.55989,7.70208 15.91683,12.42369 -0.003,0.0105 0.003,0.0224 0,0.033 2.29666,1.909 3.65675,3.05306 6.29423,5.2397 2.28703,-6.47867 3.78054,-12.58498 4.58062,-18.22361 2.97604,-18.50481 -1.34229,-32.51233 -10.77599,-37.83131 l -15.81797,-8.89761 -0.85681,-0.46135 c -4.11873,-2.32224 -9.20475,-3.01627 -15.09297,-1.68066 -0.13212,0.03 -0.26316,0.067 -0.39545,0.0989 l -7.151041,-4.51471 c -0.364692,-0.22991 -0.782745,-0.31651 -1.252255,-0.26364 z m 30.976846,13.37936 c 0.0203,0.0335 0.0458,0.0652 0.0659,0.0989 -1.77019,-0.0396 -3.62529,0.15971 -5.53628,0.59317 -0.56215,0.12751 -1.11566,0.26736 -1.68066,0.42841 0.55509,-0.15767 1.09537,-0.33608 1.6477,-0.46136 1.93064,-0.43792 3.75157,-0.6435 5.50334,-0.65908 z m -50.782258,69.63201 c 8.225435,2.63669 16.861329,4.91145 25.737149,6.78854 0.04507,0.0678 0.07982,0.13742 0.131816,0.19772 -0.201439,-0.0418 -0.390644,-0.0894 -0.593173,-0.13181 -4.719982,6.1585 -13.325049,12.28921 -21.617887,14.17026 -0.623461,0.14142 -1.212396,0.27818 -1.812476,0.36249 -2.432147,-5.38001 -3.151212,-12.72803 -1.845429,-21.3872 z m -6.722636,29.85641 0.06591,0.0329 c 0.544987,1.3375 1.182254,2.60348 1.878384,3.75676 -0.0219,3.1e-4 -0.04404,-2.4e-4 -0.06591,0 -0.09838,-0.1634 -0.201185,-0.3271 -0.296587,-0.49431 -0.587775,-1.03016 -1.109482,-2.12576 -1.581797,-3.29541 z"
       style="opacity:0.1;fill:none;stroke:#000000;stroke-width:18;stroke-linejoin:round;stroke-miterlimit:4;stroke-opacity:1;stroke-dasharray:none" />
    <path
       style="opacity:0.15;fill:none;stroke:#000000;stroke-width:12;stroke-linejoin:round;stroke-miterlimit:4;stroke-opacity:1;stroke-dasharray:none"
       d="m 92.761784,115.49302 c -1.40853,0.15862 -3.178719,1.52057 -4.448803,3.59199 -1.693445,2.7619 -1.854221,5.7371 -0.395449,6.65673 l 0.428403,0.26363 c -7.071329,4.56665 -14.004704,11.26583 -20.101999,19.3111 -21.042841,-6.68173 -41.160872,-7.26122 -56.252642,1.74657 1.04709,17.42618 15.45153,31.27454 36.348368,41.65398 -0.974903,4.84288 -1.432717,9.38635 -1.482934,13.61004 l -1.944294,-1.2193 c -1.45877,-0.91963 -3.97465,0.56646 -5.6681,3.32836 -1.69345,2.7619 -1.88718,5.7371 -0.42841,6.65673 l 10.18282,6.42605 c 1.963765,5.66332 5.2119,9.8937 9.523734,12.32483 l 0.03295,0 16.641818,9.39192 c 1.790535,1.00954 3.787551,1.68823 5.931738,2.04315 0.03395,0.006 0.06482,0.0274 0.09886,0.033 0.485018,0.0777 0.980861,0.12229 1.482934,0.16477 0.06789,0.006 0.129521,0.0277 0.197725,0.0329 0.474863,0.0356 0.960326,0.0621 1.44998,0.0659 0.419577,0.004 0.854953,-0.0459 1.28521,-0.0659 0.133423,-0.006 0.261011,0.009 0.395449,0 0.06621,-0.004 0.131268,-0.0282 0.197725,-0.0329 0.08641,-0.006 0.176812,0.007 0.263632,0 0.129806,-0.0106 0.264723,-0.0202 0.39545,-0.0329 0.493658,-0.0491 0.97633,-0.11788 1.482934,-0.19772 0.435172,-0.0678 0.873592,-0.17276 1.318164,-0.26364 0.1975,-0.0406 0.393844,-0.0537 0.593174,-0.0989 0.01082,-0.002 0.02213,0.002 0.03295,0 8.170272,-1.85324 20.923509,-11.41934 30.317769,-21.55197 l 5.27265,3.32836 c 0.0132,0.009 0.0195,0.0245 0.033,0.0329 l 1.12044,0.69204 c 0.18235,0.11495 0.38087,0.18861 0.59318,0.23067 1.44092,0.3682 3.36767,-0.73616 4.61357,-2.76814 0.0785,-0.12804 0.12804,-0.26599 0.19773,-0.39545 0.093,-0.13744 0.20791,-0.25084 0.29658,-0.39545 1.69345,-2.7619 1.85422,-5.7371 0.39545,-6.65673 l -5.37152,-3.36131 c 3.19063,0.37774 6.36295,0.70446 9.52374,0.98862 0.0711,3.36387 1.17559,5.88221 3.06473,6.98627 l 8.13966,4.74539 c 0.0513,0.03 0.11231,0.038 0.16477,0.0659 0.10741,0.056 0.2175,0.11755 0.32954,0.16477 0.15099,0.0649 0.30208,0.1163 0.46136,0.16477 0.0329,0.01 0.0657,0.0238 0.0989,0.0329 0.21853,0.0611 0.42585,0.10218 0.65908,0.13181 0.34451,0.0435 0.71247,0.061 1.08749,0.0329 0.31267,-0.0234 0.62295,-0.0563 0.95567,-0.13181 0.66507,-0.15086 1.3387,-0.4204 2.0102,-0.75795 0.67149,-0.33754 1.34965,-0.75076 2.0102,-1.25225 0.66641,-0.50595 1.3068,-1.09701 1.94429,-1.74657 0.3161,-0.32134 0.61695,-0.63624 0.92271,-0.98862 0.92304,-1.06375 1.78141,-2.26454 2.57042,-3.55904 0.26171,-0.42843 0.51527,-0.83713 0.75795,-1.28521 1.21337,-2.24042 2.19345,-4.7312 2.76814,-7.2499 0.41443,-1.81631 0.5602,-3.46323 0.52727,-4.97607 -0.0122,-0.62193 -0.05,-1.22014 -0.13182,-1.77952 -0.21882,-1.48833 -0.68272,-2.73325 -1.35112,-3.69086 -0.0693,-0.0995 -0.12394,-0.20357 -0.19772,-0.29659 -0.11062,-0.13946 -0.20908,-0.27093 -0.32954,-0.39545 -0.0222,-0.0231 -0.0434,-0.0433 -0.0659,-0.0659 -0.28856,-0.28751 -0.61474,-0.52574 -0.95567,-0.72499 l -8.10671,-4.74539 c 0.17047,0.0996 0.33674,0.20746 0.49431,0.32954 l -0.52726,-0.29658 c -1.04101,-0.60842 -2.31994,-0.79473 -3.78972,-0.46136 -2.05735,0.46667 -4.18546,1.871 -6.12946,3.88858 -14.72339,-14.42979 -32.65516,-27.61081 -51.144758,-37.20517 0.519033,-0.57136 1.02037,-1.13532 1.548843,-1.68066 1.475091,-1.52113 2.982064,-2.9522 4.514711,-4.25108 1.014174,-0.86027 2.033814,-1.68606 3.064734,-2.4386 1.04611,-0.76281 2.10731,-1.4329 3.16359,-2.07611 2.08254,-1.27011 4.17991,-2.30946 6.26128,-3.06473 0.0134,-0.005 0.0196,-0.0281 0.0329,-0.0329 0.26027,-0.094 0.53112,-0.14531 0.7909,-0.23068 0.23645,-0.0772 0.45608,-0.1937 0.69203,-0.26363 l 0.98863,0.62612 c 0.0127,0.008 0.02,0.0248 0.033,0.0329 l 1.08748,0.69204 c 0.13193,0.0832 0.28024,0.15303 0.4284,0.19772 0.48994,0.16968 1.0437,0.17504 1.61475,0 2.13536,6.70004 2.12384,15.79675 -0.46135,26.09965 6.07301,4.51899 10.55989,7.70208 15.91683,12.42369 -0.003,0.0105 0.003,0.0224 0,0.033 2.29666,1.909 3.65675,3.05306 6.29423,5.2397 2.28703,-6.47867 3.78054,-12.58498 4.58062,-18.22361 2.97604,-18.50481 -1.34229,-32.51233 -10.77599,-37.83131 l -15.81797,-8.89761 -0.85681,-0.46135 c -4.11873,-2.32224 -9.20475,-3.01627 -15.09297,-1.68066 -0.13212,0.03 -0.26316,0.067 -0.39545,0.0989 l -7.151041,-4.51471 c -0.364692,-0.22991 -0.782745,-0.31651 -1.252255,-0.26364 z m 30.976846,13.37936 c 0.0203,0.0335 0.0458,0.0652 0.0659,0.0989 -1.77019,-0.0396 -3.62529,0.15971 -5.53628,0.59317 -0.56215,0.12751 -1.11566,0.26736 -1.68066,0.42841 0.55509,-0.15767 1.09537,-0.33608 1.6477,-0.46136 1.93064,-0.43792 3.75157,-0.6435 5.50334,-0.65908 z m -50.782258,69.63201 c 8.225435,2.63669 16.861329,4.91145 25.737149,6.78854 0.04507,0.0678 0.07982,0.13742 0.131816,0.19772 -0.201439,-0.0418 -0.390644,-0.0894 -0.593173,-0.13181 -4.719982,6.1585 -13.325049,12.28921 -21.617887,14.17026 -0.623461,0.14142 -1.212396,0.27818 -1.812476,0.36249 -2.432147,-5.38001 -3.151212,-12.72803 -1.845429,-21.3872 z m -6.722636,29.85641 0.06591,0.0329 c 0.544987,1.3375 1.182254,2.60348 1.878384,3.75676 -0.0219,3.1e-4 -0.04404,-2.4e-4 -0.06591,0 -0.09838,-0.1634 -0.201185,-0.3271 -0.296587,-0.49431 -0.587775,-1.03016 -1.109482,-2.12576 -1.581797,-3.29541 z"
       id="path7505"
       inkscape:connector-curvature="0" />
    <path
       inkscape:connector-curvature="0"
       id="rect6672"
       d="m 92.761784,115.49302 c -1.40853,0.15862 -3.178719,1.52057 -4.448803,3.59199 -1.693445,2.7619 -1.854221,5.7371 -0.395449,6.65673 l 0.428403,0.26363 c -7.071329,4.56665 -14.004704,11.26583 -20.101999,19.3111 -21.042841,-6.68173 -41.160872,-7.26122 -56.252642,1.74657 1.04709,17.42618 15.45153,31.27454 36.348368,41.65398 -0.974903,4.84288 -1.432717,9.38635 -1.482934,13.61004 l -1.944294,-1.2193 c -1.45877,-0.91963 -3.97465,0.56646 -5.6681,3.32836 -1.69345,2.7619 -1.88718,5.7371 -0.42841,6.65673 l 10.18282,6.42605 c 1.963765,5.66332 5.2119,9.8937 9.523734,12.32483 l 0.03295,0 16.641818,9.39192 c 1.790535,1.00954 3.787551,1.68823 5.931738,2.04315 0.03395,0.006 0.06482,0.0274 0.09886,0.033 0.485018,0.0777 0.980861,0.12229 1.482934,0.16477 0.06789,0.006 0.129521,0.0277 0.197725,0.0329 0.474863,0.0356 0.960326,0.0621 1.44998,0.0659 0.419577,0.004 0.854953,-0.0459 1.28521,-0.0659 0.133423,-0.006 0.261011,0.009 0.395449,0 0.06621,-0.004 0.131268,-0.0282 0.197725,-0.0329 0.08641,-0.006 0.176812,0.007 0.263632,0 0.129806,-0.0106 0.264723,-0.0202 0.39545,-0.0329 0.493658,-0.0491 0.97633,-0.11788 1.482934,-0.19772 0.435172,-0.0678 0.873592,-0.17276 1.318164,-0.26364 0.1975,-0.0406 0.393844,-0.0537 0.593174,-0.0989 0.01082,-0.002 0.02213,0.002 0.03295,0 8.170272,-1.85324 20.923509,-11.41934 30.317769,-21.55197 l 5.27265,3.32836 c 0.0132,0.009 0.0195,0.0245 0.033,0.0329 l 1.12044,0.69204 c 0.18235,0.11495 0.38087,0.18861 0.59318,0.23067 1.44092,0.3682 3.36767,-0.73616 4.61357,-2.76814 0.0785,-0.12804 0.12804,-0.26599 0.19773,-0.39545 0.093,-0.13744 0.20791,-0.25084 0.29658,-0.39545 1.69345,-2.7619 1.85422,-5.7371 0.39545,-6.65673 l -5.37152,-3.36131 c 3.19063,0.37774 6.36295,0.70446 9.52374,0.98862 0.0711,3.36387 1.17559,5.88221 3.06473,6.98627 l 8.13966,4.74539 c 0.0513,0.03 0.11231,0.038 0.16477,0.0659 0.10741,0.056 0.2175,0.11755 0.32954,0.16477 0.15099,0.0649 0.30208,0.1163 0.46136,0.16477 0.0329,0.01 0.0657,0.0238 0.0989,0.0329 0.21853,0.0611 0.42585,0.10218 0.65908,0.13181 0.34451,0.0435 0.71247,0.061 1.08749,0.0329 0.31267,-0.0234 0.62295,-0.0563 0.95567,-0.13181 0.66507,-0.15086 1.3387,-0.4204 2.0102,-0.75795 0.67149,-0.33754 1.34965,-0.75076 2.0102,-1.25225 0.66641,-0.50595 1.3068,-1.09701 1.94429,-1.74657 0.3161,-0.32134 0.61695,-0.63624 0.92271,-0.98862 0.92304,-1.06375 1.78141,-2.26454 2.57042,-3.55904 0.26171,-0.42843 0.51527,-0.83713 0.75795,-1.28521 1.21337,-2.24042 2.19345,-4.7312 2.76814,-7.2499 0.41443,-1.81631 0.5602,-3.46323 0.52727,-4.97607 -0.0122,-0.62193 -0.05,-1.22014 -0.13182,-1.77952 -0.21882,-1.48833 -0.68272,-2.73325 -1.35112,-3.69086 -0.0693,-0.0995 -0.12394,-0.20357 -0.19772,-0.29659 -0.11062,-0.13946 -0.20908,-0.27093 -0.32954,-0.39545 -0.0222,-0.0231 -0.0434,-0.0433 -0.0659,-0.0659 -0.28856,-0.28751 -0.61474,-0.52574 -0.95567,-0.72499 l -8.10671,-4.74539 c 0.17047,0.0996 0.33674,0.20746 0.49431,0.32954 l -0.52726,-0.29658 c -1.04101,-0.60842 -2.31994,-0.79473 -3.78972,-0.46136 -2.05735,0.46667 -4.18546,1.871 -6.12946,3.88858 -14.72339,-14.42979 -32.65516,-27.61081 -51.144758,-37.20517 0.519033,-0.57136 1.02037,-1.13532 1.548843,-1.68066 1.475091,-1.52113 2.982064,-2.9522 4.514711,-4.25108 1.014174,-0.86027 2.033814,-1.68606 3.064734,-2.4386 1.04611,-0.76281 2.10731,-1.4329 3.16359,-2.07611 2.08254,-1.27011 4.17991,-2.30946 6.26128,-3.06473 0.0134,-0.005 0.0196,-0.0281 0.0329,-0.0329 0.26027,-0.094 0.53112,-0.14531 0.7909,-0.23068 0.23645,-0.0772 0.45608,-0.1937 0.69203,-0.26363 l 0.98863,0.62612 c 0.0127,0.008 0.02,0.0248 0.033,0.0329 l 1.08748,0.69204 c 0.13193,0.0832 0.28024,0.15303 0.4284,0.19772 0.48994,0.16968 1.0437,0.17504 1.61475,0 2.13536,6.70004 2.12384,15.79675 -0.46135,26.09965 6.07301,4.51899 10.55989,7.70208 15.91683,12.42369 -0.003,0.0105 0.003,0.0224 0,0.033 2.29666,1.909 3.65675,3.05306 6.29423,5.2397 2.28703,-6.47867 3.78054,-12.58498 4.58062,-18.22361 2.97604,-18.50481 -1.34229,-32.51233 -10.77599,-37.83131 l -15.81797,-8.89761 -0.85681,-0.46135 c -4.11873,-2.32224 -9.20475,-3.01627 -15.09297,-1.68066 -0.13212,0.03 -0.26316,0.067 -0.39545,0.0989 l -7.151041,-4.51471 c -0.364692,-0.22991 -0.782745,-0.31651 -1.252255,-0.26364 z m 30.976846,13.37936 c 0.0203,0.0335 0.0458,0.0652 0.0659,0.0989 -1.77019,-0.0396 -3.62529,0.15971 -5.53628,0.59317 -0.56215,0.12751 -1.11566,0.26736 -1.68066,0.42841 0.55509,-0.15767 1.09537,-0.33608 1.6477,-0.46136 1.93064,-0.43792 3.75157,-0.6435 5.50334,-0.65908 z m -50.782258,69.63201 c 8.225435,2.63669 16.861329,4.91145 25.737149,6.78854 0.04507,0.0678 0.07982,0.13742 0.131816,0.19772 -0.201439,-0.0418 -0.390644,-0.0894 -0.593173,-0.13181 -4.719982,6.1585 -13.325049,12.28921 -21.617887,14.17026 -0.623461,0.14142 -1.212396,0.27818 -1.812476,0.36249 -2.432147,-5.38001 -3.151212,-12.72803 -1.845429,-21.3872 z m -6.722636,29.85641 0.06591,0.0329 c 0.544987,1.3375 1.182254,2.60348 1.878384,3.75676 -0.0219,3.1e-4 -0.04404,-2.4e-4 -0.06591,0 -0.09838,-0.1634 -0.201185,-0.3271 -0.296587,-0.49431 -0.587775,-1.03016 -1.109482,-2.12576 -1.581797,-3.29541 z"
       style="opacity:0.2;fill:none;stroke:#000000;stroke-width:6;stroke-linejoin:round;stroke-miterlimit:4;stroke-opacity:1;stroke-dasharray:none" />
    <g
       transform="matrix(1.1546089,0,0.03350101,1.1546089,-1460.4049,-333.66787)"
       id="g5191">
      <rect
         style="fill:url(#linearGradient7556);fill-opacity:1;stroke:#181818;stroke-width:0;stroke-linecap:round;stroke-linejoin:round;stroke-miterlimit:4;stroke-opacity:0.47342996;stroke-dasharray:none"
         id="rect5193"
         width="33.44883"
         height="10.262838"
         x="1375.0208"
         y="-339.65842"
         ry="5.1314192"
         rx="2.6607215"
         transform="matrix(0.8414452,0.5403425,-0.5403425,0.8414452,0,0)" />
      <rect
         transform="matrix(0.8414452,0.5403425,-0.5403425,0.8414452,0,0)"
         rx="2.6607215"
         ry="4.3146067"
         y="-338.035"
         x="1402.0375"
         height="8.6394062"
         width="6.4319239"
         id="rect5195"
         style="fill:url(#linearGradient7558);fill-opacity:1;stroke:#181818;stroke-width:0;stroke-linecap:round;stroke-linejoin:round;stroke-miterlimit:4;stroke-opacity:0.47342996;stroke-dasharray:none" />
    </g>
    <path
       inkscape:connector-curvature="0"
       sodipodi:nodetypes="ccc"
       id="path2617"
       d="M 12.003044,147.04937 C 51.975431,123.19113 127.1109,166.66913 161.7166,212.30781 99.236722,211.49389 14.599574,190.26246 12.003044,147.04937 z"
       style="fill:url(#radialGradient7560);fill-opacity:1;fill-rule:evenodd;stroke:none" />
    <g
       id="g3669"
       transform="matrix(1.3347882,-0.30276709,-0.64605061,1.4636707,26.429004,8.1280628)">
      <g
         transform="matrix(-1,0,0,1,242.45787,0)"
         id="g3512"
         style="fill:#161c88;fill-opacity:1;stroke:none">
        <path
           inkscape:connector-curvature="0"
           id="path3516"
           d="m 125.55399,101.85624 c -11.09119,6.40351 -20.81524,20.10922 -24.33178,35.98751 l -17.320508,10 c 3.516536,-15.87829 13.240586,-29.584 24.331788,-35.98751 l 17.3205,-10 z" />
        <path
           inkscape:connector-curvature="0"
           id="path3520"
           d="m 121.07866,177.71875 c 4.40578,0 8.8867,-1.38276 13.16491,-3.85278 l -17.3205,10 c -4.27822,2.47002 -8.75914,3.85278 -13.16492,3.85278 l 17.32051,-10 z" />
        <path
           inkscape:connector-curvature="0"
           id="path3526"
           d="m 136.83751,106.5625 c 12.42572,0 19.42789,14.0127 15.60345,31.28125 l -17.32051,10 C 138.94489,130.5752 131.94272,116.5625 119.517,116.5625 l 17.32051,-10 z" />
        <path
           inkscape:connector-curvature="0"
           id="path3528"
           d="m 152.44096,137.84375 c -2.76107,12.46715 -10.41715,23.25357 -19.13693,28.28794 l -17.32051,10 c 8.71978,-5.03437 16.37586,-15.82079 19.13693,-28.28794 l 17.32051,-10 z" />
        <path
           inkscape:connector-curvature="0"
           d="m 143.82104,130.56247 c 4.20391,4.52193 7.30679,7.73832 10.97732,12.31802 5.2386,-11.88504 3.75839,-25.91633 -2.07961,-30.94299 l -11.59375,-10 c 5.83801,5.02666 7.04834,16.16043 2.69604,28.62497 z m -0.95675,30.35936 c -5.57171,-2.12436 -10.24268,-4.07948 -15.40882,-6.4548 -3.87078,3.86286 -10.58637,7.03297 -16.79922,7.03297 -3.45488,0 -6.34194,-1.09239 -8.59375,-3.03125 l 11.59375,10 c 2.2518,1.93885 4.803,3.03701 8.625,3.03125 6.38885,-0.01 13.75333,-3.52703 20.58304,-10.57817 z"
           transform="matrix(-1,0,-0.570643,1,325.79445,7.6505747)"
           id="path3530"
           sodipodi:nodetypes="cccccccsccsc"
           style="fill:url(#linearGradient7562);fill-opacity:1" />
        <path
           inkscape:connector-curvature="0"
           id="path3536"
           d="m 126.51021,109.58432 c 3.35558,-1.93735 6.87054,-3.02182 10.3273,-3.02182 l -17.32051,10 c -3.45676,0 -6.97172,1.08447 -10.3273,3.02182 l 17.32051,-10 z" />
        <path
           inkscape:connector-curvature="0"
           d="m 135.5,90.34375 c -15.83669,-3e-6 -34.90878,17.83481 -42.59375,39.84375 -5.546998,15.88604 -3.661701,29.62269 3.78125,36.03125 l 11.625,10 c -7.44294,-6.40856 -9.32825,-20.14521 -3.78125,-36.03125 7.68497,-22.00894 26.75706,-39.84375 42.59375,-39.84375 4.41135,0 8.09727,1.40259 10.96875,3.875 l -11.625,-10 c -2.87149,-2.472408 -6.5574,-3.875001 -10.96875,-3.875 z"
           transform="matrix(-1,0,-0.570643,1,325.79445,7.6505747)"
           id="path3514"
           style="fill:url(#linearGradient7564);fill-opacity:1" />
        <path
           inkscape:connector-curvature="0"
           style="fill:url(#linearGradient7566);fill-opacity:1"
           id="path4369"
           d="m 138.74042,97.994325 c 15.83669,-3e-6 24.73147,17.834815 19.8572,39.843755 -3.51826,15.88604 -13.24228,29.62269 -24.34223,36.03125 l -17.33143,10 c 11.09994,-6.40856 20.82397,-20.14521 24.34223,-36.03125 4.87427,-22.00894 -4.02051,-39.84375 -19.8572,-39.84375 -4.41135,0 -8.89765,1.40259 -13.17999,3.875 l 17.33143,-10 c 4.28235,-2.472413 8.76864,-3.875006 13.17999,-3.875005 z" />
      </g>
      <path
         inkscape:connector-curvature="0"
         id="path3402"
         d="m 158.80564,171.08283 c -2.99653,-0.90952 -4.84752,-1.53843 -7.5199,-2.4196 -2.81616,5.66955 -8.22909,10.49762 -14.44194,10.49762 -12.42571,0 -25.64154,-14.04395 -29.46597,-31.3125 -3.82444,-17.26855 3.17773,-31.28125 15.60345,-31.28125 12.42571,0 26.00926,16.59448 29.8337,33.86303 2.61356,1.84488 4.1669,2.92992 7.16623,5.04429 -2.76525,-26.24786 -23.05957,-47.46982 -38.89626,-47.46982 -15.83669,-1e-5 -24.737646,17.83481 -19.86337,39.84375 4.87429,22.00894 21.68186,39.875 37.51855,39.875 7.91835,0 17.51074,-8.4524 20.06551,-16.64052 z"
         style="fill:url(#radialGradient7568);fill-opacity:1;stroke:none"
         sodipodi:nodetypes="ccssccccssc" />
    </g>
    <g
       transform="matrix(1.3347882,-0.30276709,-0.12590597,1.3456874,-84.474436,48.943291)"
       id="g4076">
      <g
         style="fill:#858bdf;fill-opacity:1;stroke:none"
         id="g3858"
         transform="matrix(-1,0,-0.4213751,1,423.98446,-6.7641682)">
        <path
           inkscape:connector-curvature="0"
           d="m 165.64608,154.81216 c -2.90975,1.67994 -5.60248,5.3007 -6.77108,9.50034 l -8.66025,5 c 1.1686,-4.19964 3.86133,-7.8204 6.77107,-9.50034 l 8.66026,-5 z"
           id="path5384" />
        <path
           inkscape:connector-curvature="0"
           d="m 158.875,164.3125 c -1.61463,5.80256 0.29515,10.53125 4.28125,10.53125 l -8.66025,5 c -3.9861,0 -5.89588,-4.72869 -4.28125,-10.53125 l 8.66025,-5 z"
           id="path3864" />
        <path
           inkscape:connector-curvature="0"
           d="m 163.15625,174.84375 c 1.09847,0 2.24018,-0.3591 3.35167,-1.00082 l -8.66025,5 c -1.11149,0.64172 -2.2532,1.00082 -3.35167,1.00082 l 8.66025,-5 z"
           id="path3866" />
        <path
           inkscape:connector-curvature="0"
           d="m 167.78125,158.1875 c 2.32234,0 3.44069,2.74438 2.5,6.125 l -8.66025,5 c 0.94069,-3.38062 -0.17766,-6.125 -2.5,-6.125 l 8.66025,-5 z"
           id="path3872" />
        <path
           inkscape:connector-curvature="0"
           d="m 170.28125,164.3125 c -0.68111,2.44774 -2.25476,4.56193 -3.95291,5.54236 l -8.66026,5 c 1.69816,-0.98043 3.27181,-3.09462 3.95292,-5.54236 l 8.66025,-5 z"
           id="path3874" />
        <path
           inkscape:connector-curvature="0"
           d="m 191.25,152 c 1.28502,0.98043 1.9753,3.11477 1.625,5.5625 -0.48382,3.38062 -2.7714,6.12502 -5.09375,6.125 -0.64085,0 -1.19775,-0.2201 -1.6875,-0.59375 l 6.53125,5 c 0.48975,0.37366 1.0779,0.59376 1.71875,0.59375 2.32235,1e-5 4.60993,-2.74437 5.09375,-6.125 0.35031,-2.44774 -0.33997,-4.58206 -1.625,-5.5625 l -6.5625,-5 z"
           transform="matrix(-1,0,-0.4213751,1,421.13421,6.7641682)"
           id="path3876"
           style="fill:url(#linearGradient7570);fill-opacity:1" />
        <path
           inkscape:connector-curvature="0"
           d="m 165.82792,158.77014 c 0.6472,-0.37366 1.31248,-0.58264 1.95333,-0.58264 l -8.66025,5 c -0.64085,0 -1.30613,0.20898 -1.95333,0.58264 l 8.66025,-5 z"
           id="path3882" />
        <path
           inkscape:connector-curvature="0"
           d="m 190.15625,147.0625 c -3.9861,1e-5 -7.88833,4.69745 -8.71875,10.5 -0.60158,4.20352 0.57021,7.84431 2.78125,9.53125 l 6.5625,5 c -2.21104,-1.68694 -3.38283,-5.32772 -2.78125,-9.53125 0.83042,-5.80256 4.73264,-10.49998 8.71875,-10.5 1.10114,0 2.09709,0.3588 2.9375,1 l -6.5625,-5 c -0.84039,-0.6412 -1.83637,-0.99999 -2.9375,-1 z"
           transform="matrix(-1,0,-0.4213751,1,421.13421,6.7641682)"
           id="path5392"
           style="fill:url(#linearGradient7572);fill-opacity:1" />
      </g>
      <path
         inkscape:connector-curvature="0"
         style="fill:url(#radialGradient7574);fill-opacity:1;stroke:none"
         d="m 196.71334,152.03982 c 3.98611,0 6.53099,4.69744 5.70056,10.5 -0.83042,5.80256 -4.73275,10.53125 -8.71885,10.53125 -3.98611,0 -6.54907,-4.72869 -5.71865,-10.53125 0.83043,-5.80256 4.75084,-10.49999 8.73694,-10.5 z m -0.62477,4.375 c -2.32234,0 -4.5971,2.74438 -5.08092,6.125 -0.48382,3.38063 1.00299,6.125 3.32533,6.125 2.32235,1e-5 4.5971,-2.74438 5.08092,-6.125 0.48381,-3.38062 -1.00299,-6.125 -3.32533,-6.125 z"
         id="path5394" />
    </g>
    <path
       inkscape:connector-curvature="0"
       sodipodi:nodetypes="cccccc"
       id="path5396"
       d="m 163.82853,196.1849 61.70416,26.73368 c 17.64483,6.41374 34.50875,22.33733 29.59377,29.92015 -4.15722,5.98325 -35.61336,2.96379 -49.0226,-4.78667 L 149.6344,221.33602 c -7.46072,-5.37536 3.52722,-31.21369 14.19413,-25.15112 z"
       style="fill:url(#radialGradient7576);fill-opacity:1;fill-rule:evenodd;stroke:none" />
    <g
       transform="matrix(1.1546089,0,0.03350101,1.1546089,-1471.7256,-413.76172)"
       id="g5173">
      <rect
         style="fill:url(#linearGradient7578);fill-opacity:1;stroke:#181818;stroke-width:0;stroke-linecap:round;stroke-linejoin:round;stroke-miterlimit:4;stroke-opacity:0.47342996;stroke-dasharray:none"
         id="rect5159"
         width="33.44883"
         height="10.262838"
         x="1375.0208"
         y="-339.65842"
         ry="5.1314192"
         rx="2.6607215"
         transform="matrix(0.8414452,0.5403425,-0.5403425,0.8414452,0,0)" />
      <rect
         transform="matrix(0.8414452,0.5403425,-0.5403425,0.8414452,0,0)"
         rx="2.6607215"
         ry="4.3146067"
         y="-338.035"
         x="1402.0375"
         height="8.6394062"
         width="6.4319239"
         id="rect5169"
         style="fill:url(#linearGradient7580);fill-opacity:1;stroke:#181818;stroke-width:0;stroke-linecap:round;stroke-linejoin:round;stroke-miterlimit:4;stroke-opacity:0.47342996;stroke-dasharray:none" />
    </g>
    <g
       id="g5181"
       transform="matrix(1.1546089,0,0.03350101,1.1546089,-1520.8161,-328.40142)">
      <rect
         transform="matrix(0.8414452,0.5403425,-0.5403425,0.8414452,0,0)"
         rx="2.6607215"
         ry="5.1314192"
         y="-339.65842"
         x="1375.0208"
         height="10.262838"
         width="33.44883"
         id="rect5183"
         style="fill:url(#linearGradient7582);fill-opacity:1;stroke:#181818;stroke-width:0;stroke-linecap:round;stroke-linejoin:round;stroke-miterlimit:4;stroke-opacity:0.47342996;stroke-dasharray:none" />
      <rect
         style="fill:url(#linearGradient7584);fill-opacity:1;stroke:#181818;stroke-width:0;stroke-linecap:round;stroke-linejoin:round;stroke-miterlimit:4;stroke-opacity:0.47342996;stroke-dasharray:none"
         id="rect5185"
         width="6.4319239"
         height="8.6394062"
         x="1402.0375"
         y="-338.035"
         ry="4.3146067"
         rx="2.6607215"
         transform="matrix(0.8414452,0.5403425,-0.5403425,0.8414452,0,0)" />
    </g>
    <path
       inkscape:connector-curvature="0"
       style="fill:url(#radialGradient7586);fill-opacity:1;fill-rule:evenodd;stroke:none"
       d="m 120.98442,134.35635 20.2122,11.28808 c 5.8255,2.81472 11.03003,8.79231 9.05996,11.1533 -1.65034,1.85248 -12.34758,-0.34089 -16.66803,-3.44544 l -18.41403,-11.08582 c -2.36438,-2.08417 2.36929,-10.34522 5.8099,-7.91012 z"
       id="path5201"
       sodipodi:nodetypes="cccccc" />
    <path
       inkscape:connector-curvature="0"
       sodipodi:nodetypes="cccccc"
       id="path5236"
       d="m 71.229282,219.4972 20.212198,11.28808 c 5.825503,2.81472 11.03004,8.79231 9.05996,11.1533 -1.650335,1.85248 -12.347579,-0.34089 -16.668028,-3.44544 L 65.419381,227.40732 c -2.364379,-2.08417 2.369289,-10.34522 5.809901,-7.91012 z"
       style="fill:url(#radialGradient7588);fill-opacity:1;fill-rule:evenodd;stroke:none" />
    <path
       inkscape:connector-curvature="0"
       style="fill:url(#radialGradient7590);fill-opacity:1;fill-rule:evenodd;stroke:none"
       d="m 132.5374,214.88906 20.2122,11.28809 c 5.8255,2.81471 11.03003,8.79231 9.05996,11.1533 -1.65034,1.85248 -12.34758,-0.3409 -16.66803,-3.44545 L 126.7275,222.79919 c -2.36438,-2.08418 2.36929,-10.34523 5.8099,-7.91013 z"
       id="path5240"
       sodipodi:nodetypes="cccccc" />
    <path
       inkscape:connector-curvature="0"
       id="path6947"
       d="m 92.761784,115.49302 c -1.40853,0.15862 -3.178719,1.52057 -4.448803,3.59199 -1.174433,1.91543 -1.581124,3.90885 -1.252256,5.27266 0.190738,-1.00267 0.595725,-2.09283 1.252256,-3.16359 1.270084,-2.07143 3.040273,-3.43338 4.448803,-3.592 0.46951,-0.0529 0.887563,0.0337 1.252255,0.26363 l 7.151041,4.51471 c 0.13229,-0.0318 0.26333,-0.0689 0.39545,-0.0989 5.88822,-1.33561 10.97424,-0.64157 15.09297,1.68066 l 0.85681,0.46136 15.81797,8.8976 c 7.34151,4.13935 11.54727,13.54343 11.66575,26.23146 0.35539,-13.75753 -3.92174,-23.97423 -11.66575,-28.34052 l -15.81797,-8.89761 -0.85681,-0.46135 c -4.11873,-2.32224 -9.20475,-3.01627 -15.09297,-1.68066 -0.13212,0.03 -0.26316,0.067 -0.39545,0.0989 l -7.151041,-4.51471 c -0.364692,-0.22991 -0.782745,-0.31651 -1.252255,-0.26364 z m -5.602197,11.33621 c -6.655488,4.53368 -13.162441,10.89598 -18.915651,18.48724 -21.042841,-6.68173 -41.160872,-7.26122 -56.252642,1.74657 0.0408,0.67838 0.11688,1.34266 0.19772,2.0102 15.07033,-8.88965 35.100588,-8.30133 56.054922,-1.6477 6.097295,-8.04528 13.03067,-14.74446 20.101999,-19.3111 l -0.428403,-0.26364 c -0.353223,-0.22267 -0.593398,-0.59007 -0.757945,-1.02157 z m 36.579043,4.15221 c -1.75177,0.0156 -3.57269,0.22116 -5.50333,0.65908 -0.55233,0.12529 -1.09261,0.3037 -1.6477,0.46136 0.565,-0.16104 1.11851,-0.30089 1.68065,-0.4284 1.911,-0.43347 3.7661,-0.63277 5.53629,-0.59318 -0.0201,-0.0336 -0.0457,-0.0654 -0.0659,-0.0989 z m -4.41584,24.45194 c -0.0806,4.33065 -0.74292,9.08671 -2.0102,14.13731 0.1404,0.10448 0.25671,0.1935 0.39545,0.29659 1.16692,-5.19837 1.72613,-10.06467 1.61475,-14.4339 z m -24.451944,1.2193 c -0.441349,0.46639 -0.878659,0.93322 -1.318164,1.41703 18.489598,9.59436 36.421368,22.77539 51.144758,37.20517 1.944,-2.01758 4.07211,-3.42191 6.12946,-3.88858 1.46978,-0.33337 2.74871,-0.14706 3.78972,0.46136 l 0.52727,0.29658 c -0.15757,-0.12208 -0.32384,-0.2299 -0.49431,-0.32954 l 8.1067,4.74539 c 0.34094,0.19926 0.66711,0.43748 0.95567,0.72499 0.0226,0.0226 0.0437,0.0428 0.0659,0.0659 0.12047,0.12452 0.21892,0.25599 0.32954,0.39545 0.0738,0.093 0.12841,0.19711 0.19773,0.29659 0.66839,0.95761 1.13229,2.20253 1.35112,3.69086 0.0526,0.3595 0.0778,0.73287 0.0989,1.12044 0.027,-0.49742 0.0432,-0.97955 0.0329,-1.44998 -0.0122,-0.62193 -0.05,-1.22013 -0.13182,-1.77952 -0.21882,-1.48833 -0.68272,-2.73325 -1.35112,-3.69086 -0.0693,-0.0995 -0.12394,-0.20357 -0.19772,-0.29659 -0.11062,-0.13946 -0.20908,-0.27093 -0.32954,-0.39545 -0.0222,-0.0231 -0.0434,-0.0433 -0.0659,-0.0659 -0.28856,-0.28751 -0.61474,-0.52574 -0.95567,-0.72499 l -8.10671,-4.74539 c 0.17047,0.0996 0.33674,0.20746 0.49431,0.32954 l -0.52726,-0.29658 c -1.04101,-0.60842 -2.31994,-0.79473 -3.78972,-0.46136 -2.05735,0.46667 -4.18546,1.871 -6.12946,3.88858 -1.58694,-1.55529 -3.21904,-3.09022 -4.87721,-4.61357 -0.0955,0.27744 -0.19815,0.54502 -0.29658,0.82385 -2.63748,-2.18664 -3.99757,-3.3307 -6.29424,-5.2397 0.003,-0.0105 -0.003,-0.0224 0,-0.0329 -5.35694,-4.72161 -9.84382,-7.9047 -15.91682,-12.4237 0.0898,-0.35779 0.14709,-0.69969 0.23067,-1.05453 -7.3213,-5.15762 -14.93835,-9.88246 -22.672404,-13.97253 z m -46.860725,34.00863 c -0.723893,4.11773 -1.109968,8.01314 -1.153393,11.66575 l -1.944294,-1.2193 c -1.45877,-0.91963 -3.97465,0.56646 -5.6681,3.32836 -1.19274,1.94527 -1.63379,3.9744 -1.28521,5.33857 0.1902,-1.02121 0.61336,-2.13377 1.28521,-3.22951 1.69345,-2.7619 4.20933,-4.24799 5.6681,-3.32836 l 1.944294,1.2193 c 0.05022,-4.22369 0.508031,-8.76716 1.482934,-13.61004 -0.111047,-0.0552 -0.218862,-0.10942 -0.329541,-0.16477 z m 48.870925,16.34523 c -4.899647,5.57521 -12.712263,10.80899 -20.266769,12.52256 -0.623461,0.14142 -1.212396,0.27818 -1.812476,0.36249 -1.476587,-3.26627 -2.294615,-7.26047 -2.438603,-11.83052 -0.07774,5.44992 0.740866,10.18412 2.438603,13.93959 0.60008,-0.0843 1.189015,-0.22108 1.812476,-0.3625 8.292838,-1.88105 16.897905,-8.01175 21.617887,-14.17026 0.202529,0.0424 0.391734,0.09 0.593173,0.13182 -0.05199,-0.0603 -0.08675,-0.12992 -0.131816,-0.19773 -0.606439,-0.12825 -1.20833,-0.26349 -1.812475,-0.39545 z m 30.910944,5.14084 5.37152,3.36132 c 0.44709,0.28185 0.71147,0.78137 0.8568,1.38407 0.30125,-1.5836 0.0364,-2.93003 -0.8568,-3.49313 l -1.28521,-0.7909 c -1.35848,-0.14356 -2.72166,-0.2998 -4.08631,-0.46136 z m -61.558254,18.32248 c 0.472315,1.16964 0.994022,2.26524 1.581797,3.29541 0.0954,0.1672 0.19821,0.3309 0.296587,0.49431 0.02187,-2.4e-4 0.04401,3.1e-4 0.06591,0 -0.69613,-1.15328 -1.333397,-2.41926 -1.878384,-3.75677 l -0.06591,-0.0329 z"
       style="opacity:0.7;fill:#ffffff;fill-opacity:1;stroke:none" />
    <path
       inkscape:connector-curvature="0"
       id="path6956"
       d="m 87.060725,122.24861 c -0.182121,0.95737 -0.152694,1.81188 0.09886,2.47155 0.398048,-0.27114 0.787296,-0.56614 1.186348,-0.82385 l -0.428403,-0.26363 c -0.44709,-0.28185 -0.711471,-0.78137 -0.856807,-1.38407 z m 36.677905,4.51471 c -1.75177,0.0156 -3.57269,0.22116 -5.50333,0.65908 -0.55233,0.12528 -1.09261,0.30369 -1.6477,0.46136 0.565,-0.16105 1.11851,-0.3009 1.68065,-0.42841 1.911,-0.43346 3.7661,-0.63277 5.53629,-0.59317 -0.0201,-0.0336 -0.0457,-0.0654 -0.0659,-0.0989 z m -10.1169,13.04982 c -0.23595,0.0699 -0.45558,0.18642 -0.69204,0.26363 -0.25977,0.0854 -0.53062,0.13667 -0.7909,0.23068 -0.0134,0.005 -0.0196,0.0281 -0.0329,0.0329 -2.08137,0.75527 -4.17874,1.79462 -6.26128,3.06473 -1.05627,0.64321 -2.11748,1.31331 -3.16359,2.07611 -1.03091,0.75254 -2.05056,1.57833 -3.06473,2.4386 -1.532647,1.29889 -3.03962,2.72995 -4.514711,4.25108 -0.528473,0.54534 -1.02981,1.1093 -1.548843,1.68066 0.438705,0.22765 0.880122,0.46038 1.318164,0.69204 0.07986,-0.0844 0.149704,-0.18008 0.230679,-0.26364 1.475091,-1.52113 2.982064,-2.95219 4.514711,-4.25107 1.01417,-0.86028 2.03382,-1.68607 3.06473,-2.43861 1.04611,-0.7628 2.10732,-1.43289 3.16359,-2.07611 2.08254,-1.27011 4.17991,-2.30945 6.26128,-3.06473 0.0134,-0.005 0.0196,-0.0281 0.0329,-0.0329 0.26028,-0.094 0.53113,-0.14531 0.7909,-0.23068 0.23646,-0.0772 0.45609,-0.19369 0.69204,-0.26363 l 0.98862,0.62613 c 0.0127,0.008 0.02,0.0248 0.033,0.0329 l 1.08748,0.69204 c 0.13194,0.0832 0.28025,0.15302 0.42841,0.19772 0.48994,0.16968 1.04369,0.17503 1.61475,0 0.91479,2.8703 1.45563,6.19686 1.54884,9.85328 0.0838,-4.5036 -0.46026,-8.54674 -1.54884,-11.96234 -0.57106,0.17503 -1.12481,0.16968 -1.61475,0 -0.14816,-0.0447 -0.29647,-0.11455 -0.42841,-0.19773 l -1.08748,-0.69203 c -0.013,-0.008 -0.0202,-0.0245 -0.033,-0.0329 l -0.98862,-0.62613 z m -101.432716,7.15104 c -0.0637,0.0376 -0.13424,0.061 -0.19772,0.0989 1.04152,17.33358 15.30186,31.12824 36.018827,41.48921 0.113182,-0.64382 0.197724,-1.28949 0.329541,-1.9443 -20.083358,-9.97538 -34.154838,-23.16352 -36.150648,-39.64377 z m 132.805016,10.4794 c -0.0776,3.00179 -0.35672,6.17636 -0.88976,9.49078 -0.80008,5.63864 -2.29359,11.74494 -4.58062,18.22362 -2.63748,-2.18665 -3.99757,-3.33071 -6.29424,-5.23971 0.003,-0.0105 -0.003,-0.0224 0,-0.0329 -5.23309,-4.61244 -9.65913,-7.77143 -15.52137,-12.1271 -0.0569,0.25339 -0.10471,0.50298 -0.16478,0.75794 7.85676,5.53484 15.36078,11.57315 22.27697,17.92703 2.12342,-6.169 3.5184,-12.0038 4.28404,-17.39976 0.66002,-4.10395 0.92352,-7.98402 0.88976,-11.59984 z m -72.037658,38.95174 c -0.513025,3.40208 -0.686354,6.59923 -0.593174,9.55669 0.03363,-2.35753 0.198881,-4.8329 0.593174,-7.44762 7.663433,2.45654 15.68658,4.59378 23.924674,6.39309 0.478861,-0.54489 0.930886,-1.0994 1.351118,-1.6477 0.202529,0.0424 0.391734,0.09 0.593173,0.13181 -0.05199,-0.0603 -0.08675,-0.12992 -0.131816,-0.19772 -8.87582,-1.8771 -17.511714,-4.15185 -25.737149,-6.78855 z m 92.798738,4.34994 c -0.0599,1.10222 -0.20876,2.27458 -0.49431,3.52609 -0.5747,2.51871 -1.55478,5.00949 -2.76815,7.2499 -0.24267,0.44809 -0.49624,0.85679 -0.75794,1.28521 -0.78901,1.29451 -1.64739,2.49529 -2.57042,3.55905 -0.30576,0.35237 -0.60661,0.66728 -0.92272,0.98862 -0.63749,0.64956 -1.27788,1.24062 -1.94429,1.74657 -0.66054,0.50148 -1.3387,0.91471 -2.0102,1.25225 -0.6715,0.33755 -1.34512,0.60709 -2.0102,0.75795 -0.33272,0.0755 -0.64299,0.10842 -0.95567,0.13181 -0.37502,0.0281 -0.74297,0.0105 -1.08748,-0.0329 -0.23323,-0.0296 -0.44055,-0.0708 -0.65908,-0.13181 -0.0332,-0.009 -0.066,-0.023 -0.0989,-0.033 -0.15928,-0.0485 -0.31037,-0.0999 -0.46135,-0.16477 -0.11205,-0.0472 -0.22213,-0.10877 -0.32954,-0.16478 -0.0525,-0.0279 -0.11345,-0.0359 -0.16477,-0.0659 l -8.13967,-4.74539 c -1.88914,-1.10405 -2.99366,-3.62239 -3.06473,-6.98626 -3.16079,-0.28416 -6.3331,-0.61088 -9.52373,-0.98863 l 4.08631,2.57042 c 1.81772,0.19209 3.62852,0.36465 5.43742,0.52727 0.0711,3.36387 1.17559,5.88221 3.06473,6.98627 l 8.13967,4.74539 c 0.0513,0.03 0.11231,0.038 0.16477,0.0659 0.10741,0.056 0.21749,0.11754 0.32954,0.16477 0.15098,0.0649 0.30207,0.1163 0.46135,0.16477 0.0329,0.01 0.0657,0.0238 0.0989,0.0329 0.21853,0.0611 0.42585,0.10218 0.65908,0.13181 0.34451,0.0435 0.71246,0.061 1.08748,0.0329 0.31268,-0.0234 0.62295,-0.0563 0.95567,-0.13181 0.66508,-0.15086 1.3387,-0.4204 2.0102,-0.75795 0.6715,-0.33754 1.34966,-0.75076 2.0102,-1.25225 0.66641,-0.50595 1.3068,-1.09701 1.94429,-1.74657 0.31611,-0.32134 0.61696,-0.63624 0.92272,-0.98862 0.92303,-1.06376 1.78141,-2.26454 2.57042,-3.55904 0.2617,-0.42843 0.51527,-0.83713 0.75794,-1.28521 1.21337,-2.24042 2.19345,-4.7312 2.76815,-7.24991 0.41442,-1.8163 0.56019,-3.46322 0.52726,-4.97606 -0.004,-0.22223 -0.0212,-0.4436 -0.0329,-0.65909 z m -127.795986,6.92036 c -0.28923,1.55283 -0.0232,2.87245 0.8568,3.42723 l 10.18282,6.42605 c 1.963765,5.66332 5.2119,9.8937 9.523734,12.32483 l 0.03295,0 16.641818,9.39192 c 1.790535,1.00954 3.787551,1.68823 5.931738,2.04315 0.03395,0.006 0.06482,0.0274 0.09886,0.033 0.485018,0.0777 0.980861,0.12229 1.482934,0.16477 0.06789,0.006 0.129521,0.0277 0.197725,0.0329 0.474863,0.0356 0.960326,0.0621 1.44998,0.0659 0.419577,0.004 0.854953,-0.0459 1.28521,-0.0659 0.133423,-0.006 0.261011,0.009 0.395449,0 0.06621,-0.004 0.131268,-0.0282 0.197725,-0.0329 0.08641,-0.006 0.176812,0.007 0.263632,0 0.129806,-0.0106 0.264723,-0.0202 0.39545,-0.0329 0.493658,-0.0491 0.97633,-0.11788 1.482934,-0.19772 0.435172,-0.0678 0.873592,-0.17276 1.318164,-0.26364 0.1975,-0.0406 0.393844,-0.0537 0.593174,-0.0989 0.01082,-0.002 0.02213,0.002 0.03295,0 8.170272,-1.85324 20.923509,-11.41934 30.317769,-21.55197 l 5.27265,3.32836 c 0.0132,0.009 0.0195,0.0245 0.033,0.0329 l 1.12044,0.69204 c 0.18235,0.11495 0.38087,0.18861 0.59318,0.23067 1.44092,0.3682 3.36767,-0.73616 4.61357,-2.76814 0.0785,-0.12804 0.12804,-0.26599 0.19773,-0.39545 0.093,-0.13744 0.20791,-0.25084 0.29658,-0.39545 1.17443,-1.91542 1.58113,-3.90885 1.25226,-5.27265 -0.19074,1.00267 -0.59573,2.09283 -1.25226,3.16359 -0.0887,0.14461 -0.20356,0.25801 -0.29658,0.39545 -0.0697,0.12945 -0.11922,0.26741 -0.19773,0.39545 -1.2459,2.03198 -3.17265,3.13634 -4.61357,2.76814 -0.21231,-0.0421 -0.41083,-0.11572 -0.59318,-0.23068 l -1.12044,-0.69203 c -0.0135,-0.008 -0.0197,-0.0242 -0.033,-0.0329 l -5.27265,-3.32837 c -9.39426,10.13263 -22.147497,19.69874 -30.317769,21.55198 -0.01082,0.002 -0.02213,-0.002 -0.03295,0 -0.19933,0.0452 -0.395674,0.0582 -0.593174,0.0989 -0.444572,0.0909 -0.882992,0.19579 -1.318164,0.26364 -0.506604,0.0798 -0.989276,0.14859 -1.482934,0.19772 -0.130727,0.0128 -0.265644,0.0223 -0.39545,0.0329 -0.08682,0.007 -0.177224,-0.006 -0.263632,0 -0.06646,0.005 -0.131511,0.0287 -0.197725,0.0329 -0.134438,0.009 -0.262026,-0.006 -0.395449,0 -0.430257,0.02 -0.865633,0.0696 -1.28521,0.0659 -0.489654,-0.004 -0.975117,-0.0303 -1.44998,-0.0659 -0.0682,-0.005 -0.129834,-0.0271 -0.197725,-0.0329 -0.502073,-0.0425 -0.997916,-0.0871 -1.482934,-0.16477 -0.03404,-0.006 -0.06491,-0.0273 -0.09886,-0.0329 -2.144187,-0.35492 -4.141203,-1.03361 -5.931738,-2.04315 l -16.641818,-9.39192 -0.03295,0 c -4.311834,-2.43114 -7.559969,-6.66153 -9.523734,-12.32484 l -10.18282,-6.42605 c -0.43132,-0.27192 -0.71046,-0.74548 -0.8568,-1.31817 z m 28.274612,18.58611 c 0.472315,1.16965 0.994022,2.26525 1.581797,3.29541 0.0954,0.16721 0.19821,0.33091 0.296587,0.49432 0.02187,-2.5e-4 0.04401,3e-4 0.06591,0 -0.69613,-1.15328 -1.333397,-2.41927 -1.878384,-3.75677 l -0.06591,-0.0329 z"
       style="opacity:0.7;fill:#000000;fill-opacity:1;stroke:none" />
    <path
       style="opacity:0.3;fill:#000000;fill-opacity:1;stroke:none"
       d="m 87.060725,124.24861 c -0.182121,0.95737 -0.152694,1.81188 0.09886,2.47155 0.398048,-0.27114 0.787296,-0.56614 1.186348,-0.82385 l -0.428403,-0.26363 c -0.44709,-0.28185 -0.711471,-0.78137 -0.856807,-1.38407 z m 36.677905,4.51471 c -1.75177,0.0156 -3.57269,0.22116 -5.50333,0.65908 -0.55233,0.12528 -1.09261,0.30369 -1.6477,0.46136 0.565,-0.16105 1.11851,-0.3009 1.68065,-0.42841 1.911,-0.43346 3.7661,-0.63277 5.53629,-0.59317 -0.0201,-0.0336 -0.0457,-0.0654 -0.0659,-0.0989 z m -10.1169,13.04982 c -0.23595,0.0699 -0.45558,0.18642 -0.69204,0.26363 -0.25977,0.0854 -0.53062,0.13667 -0.7909,0.23068 -0.0134,0.005 -0.0196,0.0281 -0.0329,0.0329 -2.08137,0.75527 -4.17874,1.79462 -6.26128,3.06473 -1.05627,0.64321 -2.11748,1.31331 -3.16359,2.07611 -1.03091,0.75254 -2.05056,1.57833 -3.06473,2.4386 -1.532647,1.29889 -3.03962,2.72995 -4.514711,4.25108 -0.528473,0.54534 -1.02981,1.1093 -1.548843,1.68066 0.438705,0.22765 0.880122,0.46038 1.318164,0.69204 0.07986,-0.0844 0.149704,-0.18008 0.230679,-0.26364 1.475091,-1.52113 2.982064,-2.95219 4.514711,-4.25107 1.01417,-0.86028 2.03382,-1.68607 3.06473,-2.43861 1.04611,-0.7628 2.10732,-1.43289 3.16359,-2.07611 2.08254,-1.27011 4.17991,-2.30945 6.26128,-3.06473 0.0134,-0.005 0.0196,-0.0281 0.0329,-0.0329 0.26028,-0.094 0.53113,-0.14531 0.7909,-0.23068 0.23646,-0.0772 0.45609,-0.19369 0.69204,-0.26363 l 0.98862,0.62613 c 0.0127,0.008 0.02,0.0248 0.033,0.0329 l 1.08748,0.69204 c 0.13194,0.0832 0.28025,0.15302 0.42841,0.19772 0.48994,0.16968 1.04369,0.17503 1.61475,0 0.91479,2.8703 1.45563,6.19686 1.54884,9.85328 0.0838,-4.5036 -0.46026,-8.54674 -1.54884,-11.96234 -0.57106,0.17503 -1.12481,0.16968 -1.61475,0 -0.14816,-0.0447 -0.29647,-0.11455 -0.42841,-0.19773 l -1.08748,-0.69203 c -0.013,-0.008 -0.0202,-0.0245 -0.033,-0.0329 l -0.98862,-0.62613 z m -101.432716,7.15104 c -0.0637,0.0376 -0.13424,0.061 -0.19772,0.0989 1.04152,17.33358 15.30186,31.12824 36.018827,41.48921 0.113182,-0.64382 0.197724,-1.28949 0.329541,-1.9443 -20.083358,-9.97538 -34.154838,-23.16352 -36.150648,-39.64377 z m 132.805016,10.4794 c -0.0776,3.00179 -0.35672,6.17636 -0.88976,9.49078 -0.80008,5.63864 -2.29359,11.74494 -4.58062,18.22362 -2.63748,-2.18665 -3.99757,-3.33071 -6.29424,-5.23971 0.003,-0.0105 -0.003,-0.0224 0,-0.0329 -5.23309,-4.61244 -9.65913,-7.77143 -15.52137,-12.1271 -0.0569,0.25339 -0.10471,0.50298 -0.16478,0.75794 7.85676,5.53484 15.36078,11.57315 22.27697,17.92703 2.12342,-6.169 3.5184,-12.0038 4.28404,-17.39976 0.66002,-4.10395 0.92352,-7.98402 0.88976,-11.59984 z m -72.037658,38.95174 c -0.513025,3.40208 -0.686354,6.59923 -0.593174,9.55669 0.03363,-2.35753 0.198881,-4.8329 0.593174,-7.44762 7.663433,2.45654 15.68658,4.59378 23.924674,6.39309 0.478861,-0.54489 0.930886,-1.0994 1.351118,-1.6477 0.202529,0.0424 0.391734,0.09 0.593173,0.13181 -0.05199,-0.0603 -0.08675,-0.12992 -0.131816,-0.19772 -8.87582,-1.8771 -17.511714,-4.15185 -25.737149,-6.78855 z m 92.798738,4.34994 c -0.0599,1.10222 -0.20876,2.27458 -0.49431,3.52609 -0.5747,2.51871 -1.55478,5.00949 -2.76815,7.2499 -0.24267,0.44809 -0.49624,0.85679 -0.75794,1.28521 -0.78901,1.29451 -1.64739,2.49529 -2.57042,3.55905 -0.30576,0.35237 -0.60661,0.66728 -0.92272,0.98862 -0.63749,0.64956 -1.27788,1.24062 -1.94429,1.74657 -0.66054,0.50148 -1.3387,0.91471 -2.0102,1.25225 -0.6715,0.33755 -1.34512,0.60709 -2.0102,0.75795 -0.33272,0.0755 -0.64299,0.10842 -0.95567,0.13181 -0.37502,0.0281 -0.74297,0.0105 -1.08748,-0.0329 -0.23323,-0.0296 -0.44055,-0.0708 -0.65908,-0.13181 -0.0332,-0.009 -0.066,-0.023 -0.0989,-0.033 -0.15928,-0.0485 -0.31037,-0.0999 -0.46135,-0.16477 -0.11205,-0.0472 -0.22213,-0.10877 -0.32954,-0.16478 -0.0525,-0.0279 -0.11345,-0.0359 -0.16477,-0.0659 l -8.13967,-4.74539 c -1.88914,-1.10405 -2.99366,-3.62239 -3.06473,-6.98626 -3.16079,-0.28416 -6.3331,-0.61088 -9.52373,-0.98863 l 4.08631,2.57042 c 1.81772,0.19209 3.62852,0.36465 5.43742,0.52727 0.0711,3.36387 1.17559,5.88221 3.06473,6.98627 l 8.13967,4.74539 c 0.0513,0.03 0.11231,0.038 0.16477,0.0659 0.10741,0.056 0.21749,0.11754 0.32954,0.16477 0.15098,0.0649 0.30207,0.1163 0.46135,0.16477 0.0329,0.01 0.0657,0.0238 0.0989,0.0329 0.21853,0.0611 0.42585,0.10218 0.65908,0.13181 0.34451,0.0435 0.71246,0.061 1.08748,0.0329 0.31268,-0.0234 0.62295,-0.0563 0.95567,-0.13181 0.66508,-0.15086 1.3387,-0.4204 2.0102,-0.75795 0.6715,-0.33754 1.34966,-0.75076 2.0102,-1.25225 0.66641,-0.50595 1.3068,-1.09701 1.94429,-1.74657 0.31611,-0.32134 0.61696,-0.63624 0.92272,-0.98862 0.92303,-1.06376 1.78141,-2.26454 2.57042,-3.55904 0.2617,-0.42843 0.51527,-0.83713 0.75794,-1.28521 1.21337,-2.24042 2.19345,-4.7312 2.76815,-7.24991 0.41442,-1.8163 0.56019,-3.46322 0.52726,-4.97606 -0.004,-0.22223 -0.0212,-0.4436 -0.0329,-0.65909 z m -127.795986,6.92036 c -0.28923,1.55283 -0.0232,2.87245 0.8568,3.42723 l 10.18282,6.42605 c 1.963765,5.66332 5.2119,9.8937 9.523734,12.32483 l 0.03295,0 16.641818,9.39192 c 1.790535,1.00954 3.787551,1.68823 5.931738,2.04315 0.03395,0.006 0.06482,0.0274 0.09886,0.033 0.485018,0.0777 0.980861,0.12229 1.482934,0.16477 0.06789,0.006 0.129521,0.0277 0.197725,0.0329 0.474863,0.0356 0.960326,0.0621 1.44998,0.0659 0.419577,0.004 0.854953,-0.0459 1.28521,-0.0659 0.133423,-0.006 0.261011,0.009 0.395449,0 0.06621,-0.004 0.131268,-0.0282 0.197725,-0.0329 0.08641,-0.006 0.176812,0.007 0.263632,0 0.129806,-0.0106 0.264723,-0.0202 0.39545,-0.0329 0.493658,-0.0491 0.97633,-0.11788 1.482934,-0.19773 0.435172,-0.0678 0.873592,-0.17276 1.318164,-0.26363 0.1975,-0.0406 0.393844,-0.0537 0.593174,-0.0989 0.01082,-0.002 0.02213,0.002 0.03295,0 8.170272,-1.85324 20.923509,-11.41934 30.317769,-21.55197 l 5.27265,3.32836 c 0.0132,0.009 0.0195,0.0245 0.033,0.0329 l 1.12044,0.69204 c 0.18235,0.11495 0.38087,0.18861 0.59318,0.23067 1.44092,0.3682 3.36767,-0.73616 4.61357,-2.76814 0.0785,-0.12804 0.12804,-0.26599 0.19773,-0.39545 0.093,-0.13744 0.20791,-0.25084 0.29658,-0.39545 1.17443,-1.91542 1.58113,-3.90885 1.25226,-5.27265 -0.19074,1.00267 -0.59573,2.09283 -1.25226,3.16359 -0.0887,0.14461 -0.20356,0.25801 -0.29658,0.39545 -0.0697,0.12945 -0.11922,0.26741 -0.19773,0.39545 -1.2459,2.03198 -3.17265,3.13634 -4.61357,2.76814 -0.21231,-0.0421 -0.41083,-0.11572 -0.59318,-0.23068 l -1.12044,-0.69203 c -0.0135,-0.008 -0.0197,-0.0242 -0.033,-0.0329 l -5.27265,-3.32837 c -9.39426,10.13263 -22.147497,19.69874 -30.317769,21.55198 -0.01082,0.002 -0.02213,-0.002 -0.03295,0 -0.19933,0.0452 -0.395674,0.0582 -0.593174,0.0989 -0.444572,0.0909 -0.882992,0.19579 -1.318164,0.26364 -0.506604,0.0798 -0.989276,0.14859 -1.482934,0.19772 -0.130727,0.0128 -0.265644,0.0223 -0.39545,0.0329 -0.08682,0.007 -0.177224,-0.006 -0.263632,0 -0.06646,0.005 -0.131511,0.0287 -0.197725,0.0329 -0.134438,0.009 -0.262026,-0.006 -0.395449,0 -0.430257,0.02 -0.865633,0.0696 -1.28521,0.0659 -0.489654,-0.004 -0.975117,-0.0303 -1.44998,-0.0659 -0.0682,-0.005 -0.129834,-0.0271 -0.197725,-0.0329 -0.502073,-0.0425 -0.997916,-0.0871 -1.482934,-0.16477 -0.03404,-0.005 -0.06491,-0.0273 -0.09886,-0.0329 -2.144187,-0.35492 -4.141203,-1.03361 -5.931738,-2.04315 l -16.641818,-9.39192 -0.03295,0 c -4.311834,-2.43119 -7.559969,-6.66158 -9.523734,-12.32489 l -10.18282,-6.42605 c -0.43132,-0.27192 -0.71046,-0.74548 -0.8568,-1.31817 z m 28.274612,18.58611 c 0.472315,1.16965 0.994022,2.26525 1.581797,3.29541 0.0954,0.16721 0.19821,0.33091 0.296587,0.49432 0.02187,-2.5e-4 0.04401,3e-4 0.06591,0 -0.69613,-1.15328 -1.333397,-2.41927 -1.878384,-3.75677 l -0.06591,-0.0329 z"
       id="path6995"
       inkscape:connector-curvature="0" />
  </g>
</svg>
