<?xml version="1.0" encoding="UTF-8" standalone="no"?>
<!-- Created with Inkscape (http://www.inkscape.org/) -->

<svg
   xmlns:dc="http://purl.org/dc/elements/1.1/"
   xmlns:cc="http://creativecommons.org/ns#"
   xmlns:rdf="http://www.w3.org/1999/02/22-rdf-syntax-ns#"
   xmlns:svg="http://www.w3.org/2000/svg"
   xmlns="http://www.w3.org/2000/svg"
   xmlns:xlink="http://www.w3.org/1999/xlink"
   xmlns:sodipodi="http://sodipodi.sourceforge.net/DTD/sodipodi-0.dtd"
   xmlns:inkscape="http://www.inkscape.org/namespaces/inkscape"
   version="1.0"
   width="256"
   height="256"
   id="svg2408"
   inkscape:version="0.48.3.1 r9886"
   sodipodi:docname="format-text-strikethrough.svg">
  <sodipodi:namedview
     pagecolor="#ffffff"
     bordercolor="#666666"
     borderopacity="1"
     objecttolerance="10"
     gridtolerance="10"
     guidetolerance="10"
     inkscape:pageopacity="0"
     inkscape:pageshadow="2"
     inkscape:window-width="1024"
     inkscape:window-height="572"
     id="namedview93"
     showgrid="false"
     inkscape:zoom="1.6367188"
     inkscape:cx="117.30788"
     inkscape:cy="128"
     inkscape:window-x="0"
     inkscape:window-y="28"
     inkscape:window-maximized="1"
     inkscape:current-layer="svg2408" />
  <defs
     id="defs2410">
    <linearGradient
       id="linearGradient3637">
      <stop
         id="stop3639"
         style="stop-color:#5a5a5a;stop-opacity:1;"
         offset="0" />
      <stop
         id="stop3641"
         style="stop-color:#000000;stop-opacity:1;"
         offset="1" />
    </linearGradient>
    <linearGradient
       x1="45.447727"
       y1="92.539597"
       x2="45.447727"
       y2="7.0165396"
       id="ButtonShadow"
       gradientUnits="userSpaceOnUse"
       gradientTransform="scale(1.0058652,0.994169)">
      <stop
         id="stop3750"
         style="stop-color:#000000;stop-opacity:1"
         offset="0" />
      <stop
         id="stop3752"
         style="stop-color:#000000;stop-opacity:0.58823532"
         offset="1" />
    </linearGradient>
    <linearGradient
       id="linearGradient3737">
      <stop
         id="stop3739"
         style="stop-color:#ffffff;stop-opacity:1"
         offset="0" />
      <stop
         id="stop3741"
         style="stop-color:#ffffff;stop-opacity:0"
         offset="1" />
    </linearGradient>
    <linearGradient
       id="linearGradient3700">
      <stop
         id="stop3702"
         style="stop-color:#2276c5;stop-opacity:1"
         offset="0" />
      <stop
         id="stop3704"
         style="stop-color:#68baf4;stop-opacity:1"
         offset="1" />
    </linearGradient>
    <filter
       color-interpolation-filters="sRGB"
       id="filter3174">
      <feGaussianBlur
         id="feGaussianBlur3176"
         stdDeviation="1.71" />
    </filter>
    <linearGradient
       x1="36.357143"
       y1="6"
       x2="36.357143"
       y2="63.893143"
       id="linearGradient3188"
       xlink:href="#linearGradient3737"
       gradientUnits="userSpaceOnUse" />
    <filter
       x="-0.192"
       y="-0.192"
       width="1.3839999"
       height="1.3839999"
       color-interpolation-filters="sRGB"
       id="filter3794">
      <feGaussianBlur
         id="feGaussianBlur3796"
         stdDeviation="5.28" />
    </filter>
    <linearGradient
       x1="48"
       y1="20.220806"
       x2="48"
       y2="138.66119"
       id="linearGradient3613"
       xlink:href="#linearGradient3737"
       gradientUnits="userSpaceOnUse" />
    <radialGradient
       cx="48"
       cy="90.171875"
       r="42"
       fx="48"
       fy="90.171875"
       id="radialGradient3619"
       xlink:href="#linearGradient3737"
       gradientUnits="userSpaceOnUse"
       gradientTransform="matrix(1.1573129,0,0,0.99590774,-7.5510206,0.19713193)" />
    <clipPath
       id="clipPath3613">
      <rect
         width="84"
         height="84"
         rx="6"
         ry="6"
         x="6"
         y="6"
         id="rect3615"
         style="fill:#ffffff;fill-opacity:1;fill-rule:nonzero;stroke:none" />
    </clipPath>
    <linearGradient
       x1="48"
       y1="90"
       x2="48"
       y2="5.9877172"
       id="linearGradient2843"
       xlink:href="#linearGradient3700"
       gradientUnits="userSpaceOnUse"
       gradientTransform="translate(0,100)" />
    <clipPath
       id="clipPath3625">
      <path
         d="M 0,0 0,96 96,96 96,0 0,0 z m 12,6 72,0 c 3.324,0 6,2.676 6,6 l 0,72 c 0,3.324 -2.676,6 -6,6 L 12,90 C 8.676,90 6,87.324 6,84 L 6,12 C 6,8.676 8.676,6 12,6 z"
         inkscape:connector-curvature="0"
         id="path3627"
         style="fill:#ffffff;fill-opacity:1;stroke:none" />
    </clipPath>
    <linearGradient
       x1="44.512066"
       y1="6"
       x2="44.512066"
       y2="90.015434"
       id="linearGradient3643"
       xlink:href="#linearGradient3637"
       gradientUnits="userSpaceOnUse" />
    <clipPath
       id="clipPath3649">
      <rect
         width="76"
         height="76"
         rx="4"
         ry="4"
         x="10"
         y="10"
         id="rect3651"
         style="fill:#ffffff;fill-opacity:1;fill-rule:nonzero;stroke:none" />
    </clipPath>
    <filter
       color-interpolation-filters="sRGB"
       id="filter3657">
      <feGaussianBlur
         id="feGaussianBlur3659"
         stdDeviation="1.14" />
    </filter>
    <linearGradient
       inkscape:collect="always"
       xlink:href="#linearGradient3637"
       id="linearGradient6048"
       gradientUnits="userSpaceOnUse"
       gradientTransform="matrix(15.284641,0,0,15.284641,-40.475568,-14.755923)"
       x1="12.070416"
       y1="3.1332362"
       x2="12.070416"
       y2="19.05331" />
  </defs>
  <metadata
     id="metadata2413">
    <rdf:RDF>
      <cc:Work
         rdf:about="">
        <dc:format>image/svg+xml</dc:format>
        <dc:type
           rdf:resource="http://purl.org/dc/dcmitype/StillImage" />
        <dc:title></dc:title>
      </cc:Work>
    </rdf:RDF>
  </metadata>
  <g
     id="layer2"
     style="display:none"
     transform="translate(0,160)">
    <rect
       width="86"
       height="85"
       rx="6"
       ry="6"
       x="5"
       y="7"
       clip-path="url(#clipPath3625)"
       id="rect3745"
       style="opacity:0.9;fill:url(#ButtonShadow);fill-opacity:1;fill-rule:nonzero;stroke:none;filter:url(#filter3174)" />
  </g>
  <g
     id="layer1"
     style="display:none"
     transform="translate(0,160)">
    <rect
       width="84"
       height="84"
       rx="6"
       ry="6"
       x="6"
       y="6"
       id="rect2419"
       style="opacity:0.8;fill:#000000;fill-opacity:1;fill-rule:nonzero;stroke:none" />
    <path
       d="m 14,10 c -2.216,0 -4,1.784 -4,4 l 0,68 c 0,2.216 1.784,4 4,4 l 68,0 c 2.216,0 4,-1.784 4,-4 l 0,-68 c 0,-2.216 -1.784,-4 -4,-4 l -68,0 z m 0,3.0625 68,0 c 0.578769,0 0.9375,0.358731 0.9375,0.9375 l 0,68 c 0,0.578769 -0.358731,0.9375 -0.9375,0.9375 l -68,0 c -0.578769,0 -0.9375,-0.358731 -0.9375,-0.9375 l 0,-68 c 0,-0.578769 0.358731,-0.9375 0.9375,-0.9375 z"
       inkscape:connector-curvature="0"
       id="rect3726"
       style="opacity:0.07999998;fill:#000000;fill-opacity:1;fill-rule:nonzero;stroke:none" />
    <path
       d="M 12,6 C 8.676,6 6,8.676 6,12 l 0,72 c 0,3.324 2.676,6 6,6 l 72,0 c 3.324,0 6,-2.676 6,-6 L 90,12 C 90,8.676 87.324,6 84,6 L 12,6 z m 2,4 68,0 c 2.216,0 4,1.784 4,4 l 0,68 c 0,2.216 -1.784,4 -4,4 l -68,0 c -2.216,0 -4,-1.784 -4,-4 l 0,-68 c 0,-2.216 1.784,-4 4,-4 z"
       inkscape:connector-curvature="0"
       id="rect3629"
       style="fill:url(#linearGradient3643);fill-opacity:1;fill-rule:nonzero;stroke:none" />
    <path
       d="M 12,6 C 8.676,6 6,8.676 6,12 l 0,2 0,68 0,2 c 0,0.334721 0.04135,0.6507 0.09375,0.96875 0.0487,0.295596 0.09704,0.596915 0.1875,0.875 0.00988,0.03038 0.020892,0.0636 0.03125,0.09375 0.098865,0.287771 0.2348802,0.547452 0.375,0.8125 0.1445918,0.273507 0.3156161,0.535615 0.5,0.78125 0.1843839,0.245635 0.3737765,0.473472 0.59375,0.6875 0.439947,0.428056 0.94291,0.814526 1.5,1.09375 0.278545,0.139612 0.5734731,0.246947 0.875,0.34375 -0.2562018,-0.100222 -0.4867109,-0.236272 -0.71875,-0.375 -0.00741,-0.0044 -0.023866,0.0045 -0.03125,0 -0.031933,-0.0193 -0.062293,-0.04251 -0.09375,-0.0625 -0.120395,-0.0767 -0.2310226,-0.163513 -0.34375,-0.25 -0.1061728,-0.0808 -0.2132809,-0.161112 -0.3125,-0.25 C 8.4783201,88.557317 8.3087904,88.373362 8.15625,88.1875 8.0486711,88.057245 7.9378561,87.922215 7.84375,87.78125 7.818661,87.74287 7.805304,87.69538 7.78125,87.65625 7.716487,87.553218 7.6510225,87.451733 7.59375,87.34375 7.4927417,87.149044 7.3880752,86.928049 7.3125,86.71875 7.30454,86.69694 7.288911,86.6782 7.28125,86.65625 7.2494249,86.5643 7.2454455,86.469419 7.21875,86.375 7.1884177,86.268382 7.1483606,86.171969 7.125,86.0625 7.0521214,85.720988 7,85.364295 7,85 L 7,83 7,15 7,13 C 7,10.218152 9.2181517,8 12,8 l 2,0 68,0 2,0 c 2.781848,0 5,2.218152 5,5 l 0,2 0,68 0,2 c 0,0.364295 -0.05212,0.720988 -0.125,1.0625 -0.04415,0.206893 -0.08838,0.397658 -0.15625,0.59375 -0.0077,0.02195 -0.0233,0.04069 -0.03125,0.0625 -0.06274,0.173739 -0.138383,0.367449 -0.21875,0.53125 -0.04158,0.0828 -0.07904,0.169954 -0.125,0.25 -0.0546,0.09721 -0.126774,0.18835 -0.1875,0.28125 -0.09411,0.140965 -0.204921,0.275995 -0.3125,0.40625 -0.143174,0.17445 -0.303141,0.346998 -0.46875,0.5 -0.01117,0.0102 -0.01998,0.02115 -0.03125,0.03125 -0.138386,0.125556 -0.285091,0.234436 -0.4375,0.34375 -0.102571,0.07315 -0.204318,0.153364 -0.3125,0.21875 -0.0074,0.0045 -0.02384,-0.0044 -0.03125,0 -0.232039,0.138728 -0.462548,0.274778 -0.71875,0.375 0.301527,-0.0968 0.596455,-0.204138 0.875,-0.34375 0.55709,-0.279224 1.060053,-0.665694 1.5,-1.09375 0.219973,-0.214028 0.409366,-0.441865 0.59375,-0.6875 0.184384,-0.245635 0.355408,-0.507743 0.5,-0.78125 0.14012,-0.265048 0.276135,-0.524729 0.375,-0.8125 0.01041,-0.03078 0.02133,-0.06274 0.03125,-0.09375 0.09046,-0.278085 0.1388,-0.579404 0.1875,-0.875 C 89.95865,84.6507 90,84.334721 90,84 l 0,-2 0,-68 0,-2 C 90,8.676 87.324,6 84,6 L 12,6 z"
       inkscape:connector-curvature="0"
       id="rect3728"
       style="fill:url(#linearGradient3188);fill-opacity:1;fill-rule:nonzero;stroke:none" />
    <path
       d="M 12,90 C 8.676,90 6,87.324 6,84 L 6,82 6,14 6,12 c 0,-0.334721 0.04135,-0.6507 0.09375,-0.96875 0.0487,-0.295596 0.09704,-0.596915 0.1875,-0.875 C 6.29113,10.12587 6.302142,10.09265 6.3125,10.0625 6.411365,9.774729 6.5473802,9.515048 6.6875,9.25 6.8320918,8.976493 7.0031161,8.714385 7.1875,8.46875 7.3718839,8.223115 7.5612765,7.995278 7.78125,7.78125 8.221197,7.353194 8.72416,6.966724 9.28125,6.6875 9.559795,6.547888 9.8547231,6.440553 10.15625,6.34375 9.9000482,6.443972 9.6695391,6.580022 9.4375,6.71875 c -0.00741,0.0044 -0.023866,-0.0045 -0.03125,0 -0.031933,0.0193 -0.062293,0.04251 -0.09375,0.0625 -0.120395,0.0767 -0.2310226,0.163513 -0.34375,0.25 -0.1061728,0.0808 -0.2132809,0.161112 -0.3125,0.25 C 8.4783201,7.442683 8.3087904,7.626638 8.15625,7.8125 8.0486711,7.942755 7.9378561,8.077785 7.84375,8.21875 7.818661,8.25713 7.805304,8.30462 7.78125,8.34375 7.716487,8.446782 7.6510225,8.548267 7.59375,8.65625 7.4927417,8.850956 7.3880752,9.071951 7.3125,9.28125 7.30454,9.30306 7.288911,9.3218 7.28125,9.34375 7.2494249,9.4357 7.2454455,9.530581 7.21875,9.625 7.1884177,9.731618 7.1483606,9.828031 7.125,9.9375 7.0521214,10.279012 7,10.635705 7,11 l 0,2 0,68 0,2 c 0,2.781848 2.2181517,5 5,5 l 2,0 68,0 2,0 c 2.781848,0 5,-2.218152 5,-5 l 0,-2 0,-68 0,-2 C 89,10.635705 88.94788,10.279012 88.875,9.9375 88.83085,9.730607 88.78662,9.539842 88.71875,9.34375 88.71105,9.3218 88.69545,9.30306 88.6875,9.28125 88.62476,9.107511 88.549117,8.913801 88.46875,8.75 88.42717,8.6672 88.38971,8.580046 88.34375,8.5 88.28915,8.40279 88.216976,8.31165 88.15625,8.21875 88.06214,8.077785 87.951329,7.942755 87.84375,7.8125 87.700576,7.63805 87.540609,7.465502 87.375,7.3125 87.36383,7.3023 87.35502,7.29135 87.34375,7.28125 87.205364,7.155694 87.058659,7.046814 86.90625,6.9375 86.803679,6.86435 86.701932,6.784136 86.59375,6.71875 c -0.0074,-0.0045 -0.02384,0.0044 -0.03125,0 -0.232039,-0.138728 -0.462548,-0.274778 -0.71875,-0.375 0.301527,0.0968 0.596455,0.204138 0.875,0.34375 0.55709,0.279224 1.060053,0.665694 1.5,1.09375 0.219973,0.214028 0.409366,0.441865 0.59375,0.6875 0.184384,0.245635 0.355408,0.507743 0.5,0.78125 0.14012,0.265048 0.276135,0.524729 0.375,0.8125 0.01041,0.03078 0.02133,0.06274 0.03125,0.09375 0.09046,0.278085 0.1388,0.579404 0.1875,0.875 C 89.95865,11.3493 90,11.665279 90,12 l 0,2 0,68 0,2 c 0,3.324 -2.676,6 -6,6 l -72,0 z"
       inkscape:connector-curvature="0"
       id="path3615"
       style="opacity:0.6;fill:url(#radialGradient3619);fill-opacity:1;fill-rule:nonzero;stroke:none" />
    <rect
       width="84"
       height="84"
       rx="6"
       ry="6"
       x="6"
       y="106"
       id="rect2841"
       style="fill:url(#linearGradient2843);fill-opacity:1;fill-rule:nonzero;stroke:none" />
    <rect
       width="76"
       height="76"
       rx="4"
       ry="4"
       x="10"
       y="110"
       id="rect3634"
       style="fill:#ff0000;fill-opacity:1;fill-rule:nonzero;stroke:none" />
    <path
       d="m 14,9 c -2.752703,0 -5,2.247297 -5,5 l 0,68 c 0,2.752703 2.247297,5 5,5 l 68,0 c 2.752703,0 5,-2.247297 5,-5 L 87,14 C 87,11.247297 84.752703,9 82,9 L 14,9 z m 0,2 68,0 c 1.679297,0 3,1.320703 3,3 l 0,68 c 0,1.679297 -1.320703,3 -3,3 l -68,0 c -1.679297,0 -3,-1.320703 -3,-3 l 0,-68 c 0,-1.679297 1.320703,-3 3,-3 z"
       inkscape:connector-curvature="0"
       transform="translate(-110,0)"
       clip-path="url(#clipPath3649)"
       id="rect3647"
       style="font-size:medium;font-style:normal;font-variant:normal;font-weight:normal;font-stretch:normal;text-indent:0;text-align:start;text-decoration:none;line-height:normal;letter-spacing:normal;word-spacing:normal;text-transform:none;direction:ltr;block-progression:tb;writing-mode:lr-tb;text-anchor:start;color:#000000;fill:#000000;fill-opacity:1;stroke:none;stroke-width:2;marker:none;visibility:visible;display:inline;overflow:visible;filter:url(#filter3657);enable-background:accumulate;font-family:Abandoned Bitplane;-inkscape-font-specification:Abandoned Bitplane" />
    <path
       d="m 14.089286,10 c -2.216,0 -4,1.784 -4,4 l 0,68 c 0,2.216 1.784,4 4,4 l 68,0 c 2.216,0 4,-1.784 4,-4 l 0,-68 c 0,-2.216 -1.784,-4 -4,-4 l -68,0 z m 0,2 68,0 c 1.140301,0 2,0.859699 2,2 l 0,68 c 0,1.140301 -0.859699,2 -2,2 l -68,0 c -1.140301,0 -2,-0.859699 -2,-2 l 0,-68 c 0,-1.140301 0.859699,-2 2,-2 z"
       inkscape:connector-curvature="0"
       id="path3709"
       style="opacity:0.16000001;fill:#000000;fill-opacity:1;fill-rule:nonzero;stroke:none" />
    <path
       d="m 14,10 c -2.216,0 -4,1.784 -4,4 l 0,68 c 0,2.216 1.784,4 4,4 l 68,0 c 2.216,0 4,-1.784 4,-4 l 0,-68 c 0,-2.216 -1.784,-4 -4,-4 l -68,0 z m 0,1 68,0 c 1.673848,0 3,1.326152 3,3 l 0,68 c 0,1.673848 -1.326152,3 -3,3 l -68,0 c -1.673848,0 -3,-1.326152 -3,-3 l 0,-68 c 0,-1.673848 1.326152,-3 3,-3 z"
       inkscape:connector-curvature="0"
       id="path3707"
       style="opacity:0.36000001;fill:#000000;fill-opacity:1;fill-rule:nonzero;stroke:none" />
  </g>
  <g
     id="layer5"
     style="display:none"
     transform="translate(0,160)">
    <rect
       width="66"
       height="66"
       rx="12"
       ry="12"
       x="15"
       y="15"
       clip-path="url(#clipPath3613)"
       id="rect3171"
       style="opacity:0.1;fill:url(#linearGradient3613);fill-opacity:1;fill-rule:nonzero;stroke:#ffffff;stroke-width:0.5;stroke-linecap:round;stroke-linejoin:miter;stroke-miterlimit:4;stroke-opacity:1;stroke-dasharray:none;stroke-dashoffset:0;filter:url(#filter3794)" />
  </g>
  <g
     id="g6040"
     transform="translate(-0.15548044,0.93115456)">
    <path
       d="m 126.22255,25.843904 c -22.97994,0.449878 -45.947912,5.294345 -67.347953,13.533275 -6.982559,4.84946 -3.970629,14.014284 -4.617235,21.197963 0.606948,6.645354 -1.464834,13.870506 1.59215,20.038725 3.642865,5.80261 11.845571,5.684001 16.862678,1.716006 20.967758,-10.580436 45.83577,-14.445972 68.8013,-9.069243 9.46515,1.431967 23.37435,14.077816 18.9847,21.364157 -30.42955,0.290918 -62.962772,-2.659527 -90.205273,13.565533 -9.125899,5.9337 -16.721774,14.64375 -21.448866,24.64607 -10.395155,0.19615 -20.851368,-0.403 -31.206141,0.31843 -6.576711,1.89494 -8.0192352,9.03842 -7.323891,15.00697 0.195338,9.53252 -0.4018332,19.12583 0.31843,28.61794 1.894949,6.57673 9.038435,8.01924 15.006996,7.32389 6.355007,0 12.710009,0 19.065016,0 3.394204,15.54825 13.389901,29.27106 27.602849,36.53987 22.705698,12.0951 50.63434,11.73876 74.57282,3.5276 6.3547,-0.0785 15.03558,-11.34049 17.23559,-9.06497 -0.7211,5.84159 0.98365,12.69757 7.32389,14.533 11.46545,0.60889 23.06587,0.33779 34.54966,0.15896 6.90375,-0.9718 9.3462,-8.42907 8.43839,-14.54415 0,-10.38352 0,-20.76704 0,-31.15056 7.74273,-0.18138 15.54259,0.38263 23.24539,-0.31843 6.57671,-1.89494 8.01924,-9.03842 7.32389,-15.00702 -0.19533,-9.53247 0.40184,-19.12577 -0.31843,-28.61789 -1.89494,-6.57673 -9.03843,-8.01924 -15.00699,-7.32389 -5.08129,0 -10.16257,0 -15.24386,0 0.33061,-24.85247 0.37172,-51.265404 -13.54164,-72.965263 C 185.48679,34.414562 154.37738,25.43616 126.22255,25.843649 z M 110.46026,184.10362 c 5.41331,0 10.82662,0 16.23993,0 -5.32913,1.72223 -10.88346,1.51206 -16.23993,0 z"
       inkscape:connector-curvature="0"
       id="path4030"
       style="font-size:12px;font-style:normal;font-variant:normal;font-weight:normal;font-stretch:normal;text-align:start;line-height:125%;writing-mode:lr-tb;text-anchor:start;opacity:0.1;fill:#000000;fill-opacity:1;stroke:none;display:inline;font-family:Sans;-inkscape-font-specification:Sans" />
    <path
       d="m 126.22255,31.097999 c -10.13215,2.04e-4 -20.56663,1.373121 -31.046932,3.50273 -10.405767,2.009115 -21.107828,4.577495 -32.320646,8.756826 a 5.0376854,5.0376854 0 0 0 -3.343515,4.77645 l 0,26.748121 a 5.0376854,5.0376854 0 0 0 7.483105,4.458021 c 8.760438,-4.630839 17.58739,-8.234193 26.907336,-10.508191 9.338492,-2.278278 18.945622,-3.184147 28.977132,-3.1843 15.4993,1.53e-4 26.7466,3.518983 34.54966,9.87133 7.3359,5.81708 10.92202,13.722653 11.46348,24.359897 l -36.46024,0 c -27.63566,1.02e-4 -48.747487,4.862047 -63.686002,15.762287 a 5.0376854,5.0376854 0 0 0 0,0.15896 c -7.916711,5.82253 -13.073891,13.62152 -16.717576,22.2901 l -31.365357,2.6e-4 a 5.0376854,5.0376854 0 0 0 -5.09488,5.09488 l 0,30.56928 a 5.0376854,5.0376854 0 0 0 5.09488,5.09488 l 27.862626,0 c 2.375565,11.41477 6.965863,21.75427 15.443856,29.61399 a 5.0376854,5.0376854 0 0 0 0.159215,0 c 12.06728,10.96347 28.362996,16.23993 47.764508,16.23993 15.25686,0 28.52213,-2.87524 39.48532,-8.27918 6.76181,-3.40251 12.63781,-8.24392 17.9913,-13.8517 l 0,17.036 a 5.0376854,5.0376854 0 0 0 5.09488,5.09488 l 29.61399,0 a 5.0376854,5.0376854 0 0 0 5.09488,-5.09488 l 0,-40.75904 25.4744,0 a 5.0376854,5.0376854 0 0 0 5.09488,-5.09488 l 0,-30.56928 a 5.0376854,5.0376854 0 0 0 -5.09488,-5.09488 l -25.4744,0 0,-22.60853 C 209.17339,88.024013 202.27416,66.582515 188.15719,52.273595 174.06578,37.991321 153.22861,31.098203 126.22255,31.097999 z m 18.62815,101.419961 24.51912,0 0,1.11451 c -2e-5,1.56754 -0.0884,2.98932 -0.15922,4.45802 l -67.50716,0 c 8.51807,-3.39065 22.44025,-5.57248 43.14726,-5.57253 z m -52.859382,46.33157 58.431912,0 c -8.30103,7.28364 -18.03403,11.78191 -30.88771,11.78191 -11.00873,5e-5 -18.8432,-2.77105 -24.837542,-7.80154 -1.28033,-1.12005 -1.73031,-2.70716 -2.70666,-3.98037 z"
       id="path4026"
       style="font-size:12px;font-style:normal;font-variant:normal;font-weight:normal;font-stretch:normal;text-align:start;line-height:125%;writing-mode:lr-tb;text-anchor:start;opacity:0.15;fill:#000000;fill-opacity:1;stroke:none;display:inline;font-family:Sans;-inkscape-font-specification:Sans"
       inkscape:connector-curvature="0" />
    <path
       d="m 126.22255,36.192879 c -9.69436,2.04e-4 -19.85887,1.264193 -30.091642,3.343515 -10.2329,1.975744 -20.645488,4.542647 -31.524571,8.597611 l 0,26.748121 c 9.047947,-4.782818 18.379012,-8.594196 28.181061,-10.985835 9.801902,-2.391333 19.750992,-3.343363 30.091632,-3.343515 16.26474,1.52e-4 28.79356,3.707595 37.73396,10.985835 9.04786,7.17456 13.85155,17.36432 13.85171,30.569279 l 0,2.86588 -42.03277,0 c -27.03635,1e-4 -46.981272,4.82531 -60.660917,14.80699 -8.135332,5.98333 -13.406699,13.95534 -16.717576,23.40461 l -34.390442,0 0,30.56928 31.524572,0 c 1.722543,12.43986 6.584771,22.98153 15.28464,31.04693 10.986789,9.98178 25.894081,14.80699 44.420993,14.80699 14.64906,0 27.13106,-2.65143 37.25631,-7.64232 10.12499,-5.09488 18.52905,-12.7989 25.31519,-23.40461 l 0,31.04693 29.61399,0 0,-45.85392 30.56928,0 0,-30.56928 -30.56928,0 0,-27.70341 C 204.07852,88.863955 197.42077,68.877606 184.49524,55.776325 171.56939,42.67535 152.39696,36.193083 126.22255,36.192879 z m 18.62815,91.230201 29.614,0 0,6.20939 c -4e-5,3.33704 -0.14521,6.45969 -0.47765,9.5529 l -87.886682,0 c 2.18752,-3.17839 5.02191,-6.07305 8.59761,-8.11997 9.263342,-5.3028 26.132362,-7.64227 50.152722,-7.64232 z m -62.093852,46.33157 79.766722,0 c -1.13504,1.58323 -2.04865,3.31147 -3.34352,4.77645 -9.90982,11.22952 -23.16436,17.19527 -39.64453,17.19522 -11.95638,5e-5 -21.179712,-3.14853 -28.181062,-9.07526 -4.07075,-3.56111 -6.882775,-7.87673 -8.59761,-12.89641 z"
       inkscape:connector-curvature="0"
       id="path4020"
       style="font-size:12px;font-style:normal;font-variant:normal;font-weight:normal;font-stretch:normal;text-align:start;line-height:125%;writing-mode:lr-tb;text-anchor:start;opacity:0.3;fill:#000000;fill-opacity:1;stroke:none;display:inline;font-family:Sans;-inkscape-font-specification:Sans" />
    <path
       d="m 126.22255,31.097999 c -9.69436,2.04e-4 -19.85887,1.264193 -30.091642,3.343515 -10.2329,1.975744 -20.645488,4.542646 -31.524571,8.597611 l 0,26.748121 c 9.047947,-4.782819 18.379012,-8.594197 28.181061,-10.985835 9.801902,-2.391333 19.750992,-3.343363 30.091632,-3.343516 16.26474,1.53e-4 28.79356,3.707596 37.73396,10.985836 9.04786,7.174559 13.85155,17.36432 13.85171,30.569282 l 0,2.86587 -42.03277,0 c -27.03635,1.02e-4 -46.981272,4.825307 -60.660917,14.806997 -8.135332,5.98333 -13.406699,13.95534 -16.717576,23.40461 l -34.390442,0 0,30.56928 31.524572,0 c 1.722543,12.43986 6.584771,22.98153 15.28464,31.04693 10.986789,9.98178 25.894081,14.80699 44.420993,14.80699 14.64906,0 27.13106,-2.65143 37.25631,-7.64232 10.12499,-5.09488 18.52905,-12.7989 25.31519,-23.40461 l 0,31.04693 29.61399,0 0,-45.85392 30.56928,0 0,-30.56928 -30.56928,0 0,-27.70341 C 204.07852,83.769075 197.42077,63.782726 184.49524,50.681445 171.56939,37.58047 152.39696,31.098203 126.22255,31.097999 z m 18.62815,91.230201 29.614,0 0,6.20939 c -4e-5,3.33704 -0.14521,6.45969 -0.47765,9.5529 l -87.886682,0 c 2.18752,-3.17839 5.02191,-6.07305 8.59761,-8.11997 9.263342,-5.3028 26.132362,-7.64227 50.152722,-7.64232 z m -62.093852,46.33157 79.766722,0 c -1.13504,1.58323 -2.04865,3.31147 -3.34352,4.77645 -9.90982,11.22952 -23.16436,17.19527 -39.64453,17.19522 -11.95638,5e-5 -21.179712,-3.14853 -28.181062,-9.07526 -4.07075,-3.56111 -6.882775,-7.87673 -8.59761,-12.89641 z"
       inkscape:connector-curvature="0"
       id="path2871"
       style="font-size:12px;font-style:normal;font-variant:normal;font-weight:normal;font-stretch:normal;text-align:start;line-height:125%;writing-mode:lr-tb;text-anchor:start;fill:url(#linearGradient6048);fill-opacity:1;stroke:none;display:inline;font-family:Sans;-inkscape-font-specification:Sans" />
    <path
       d="m 126.22255,31.097999 c -9.69436,2.04e-4 -19.85887,1.264193 -30.091642,3.343515 -10.2329,1.975744 -20.645488,4.542646 -31.524571,8.597611 l 0,5.09488 c 10.879083,-4.054964 21.291671,-6.621867 31.524571,-8.597611 10.232772,-2.079322 20.397282,-3.343311 30.091642,-3.343515 26.17441,2.04e-4 45.34684,6.482471 58.27269,19.583446 12.92553,13.101281 19.58328,33.08763 19.58345,59.705635 l 0,-5.09488 C 204.07852,83.769075 197.42077,63.782726 184.49524,50.681445 171.56939,37.58047 152.39696,31.098203 126.22255,31.097999 z m 6.20938,68.780884 c -27.03635,1.02e-4 -46.981272,4.825307 -60.660917,14.806997 -8.135332,5.98333 -13.406699,13.95534 -16.717576,23.40461 l -34.390442,0 0,5.09488 34.390442,0 c 3.310877,-9.44927 8.582244,-17.42128 16.717576,-23.40461 13.679645,-9.98168 33.624567,-14.80689 60.660917,-14.80699 l 42.03277,0 0,-2.86588 c -1e-5,-0.76943 0.0326,-1.48006 0,-2.229007 l -42.03277,0 z m 42.03277,28.658707 c -4e-5,3.33704 -0.14521,6.45969 -0.47765,9.5529 l -83.269452,0 c -1.74806,1.55567 -3.33367,3.2299 -4.61723,5.09488 l 87.886682,0 c 0.33244,-3.09321 0.47759,-6.21586 0.47765,-9.5529 l 0,-5.09488 z m 29.61399,9.5529 0,5.09488 30.56928,0 0,-5.09488 -30.56928,0 z M 82.756848,173.75465 c 1.714835,5.01968 4.52686,9.3353 8.59761,12.89641 7.00135,5.92673 16.224682,9.07531 28.181062,9.07526 16.48017,5e-5 29.73471,-5.9657 39.64453,-17.19522 1.29487,-1.46498 2.20848,-3.19322 3.34352,-4.77645 l -3.66195,0 c -9.87627,11.00866 -23.01402,16.87684 -39.3261,16.87679 -11.95638,5e-5 -21.179712,-3.14853 -28.181062,-9.07526 -2.61989,-2.29188 -4.74839,-4.89806 -6.3686,-7.80153 l -2.22901,0 z"
       inkscape:connector-curvature="0"
       id="path4002"
       style="font-size:12px;font-style:normal;font-variant:normal;font-weight:normal;font-stretch:normal;text-align:start;line-height:125%;writing-mode:lr-tb;text-anchor:start;opacity:0.75;fill:#ffffff;fill-opacity:1;stroke:none;display:inline;font-family:Sans;-inkscape-font-specification:Sans" />
    <path
       d="m 122.87903,50.363015 c -10.34064,1.53e-4 -20.28973,0.952182 -30.091632,3.343515 -9.802049,2.391639 -19.133114,6.203017 -28.181061,10.985836 l 0,5.09488 c 9.047947,-4.782819 18.379012,-8.594197 28.181061,-10.985835 9.801902,-2.391333 19.750992,-3.343363 30.091632,-3.343516 16.26474,1.53e-4 28.79356,3.707596 37.73396,10.985836 8.52066,6.756524 13.32618,16.235651 13.85171,28.340272 l 0,-2.865871 C 174.46454,78.713171 169.66085,68.52341 160.61299,61.348851 151.67259,54.07061 139.14377,50.363168 122.87903,50.363015 z m 21.97167,66.870305 c -24.02036,5e-5 -40.88938,2.33952 -50.152722,7.64232 -3.5757,2.04692 -6.41009,4.94158 -8.59761,8.11997 l 4.61723,0 c 1.23109,-1.09561 2.50277,-2.17924 3.98038,-3.02509 9.263342,-5.3028 26.132362,-7.64227 50.152722,-7.64232 l 29.614,0 0,-5.09488 -29.614,0 z m -124.187705,46.33157 0,5.09488 31.524572,0 c 1.722543,12.43986 6.584771,22.98153 15.28464,31.04693 10.986789,9.98178 25.894081,14.80699 44.420993,14.80699 14.64906,0 27.13106,-2.65143 37.25631,-7.64232 10.12499,-5.09488 18.52905,-12.7989 25.31519,-23.40461 l 0,-5.09488 c -6.78614,10.60571 -15.1902,18.30973 -25.31519,23.40461 -10.12525,4.99089 -22.60725,7.64232 -37.25631,7.64232 -18.526912,0 -33.434204,-4.82521 -44.420993,-14.807 -8.699869,-8.06539 -13.562097,-18.60706 -15.28464,-31.04692 l -31.524572,0 z m 62.093853,0 c 0.611187,1.78907 1.331761,3.48699 2.22901,5.09488 l 73.875762,0 c 0.1018,-0.11362 0.21735,-0.2038 0.31843,-0.31843 1.29487,-1.46498 2.20848,-3.19322 3.34352,-4.77645 l -79.766722,0 z m 121.321842,0 0,5.09488 30.56928,0 0,-5.09488 -30.56928,0 z m -29.61399,45.85392 0,5.09488 29.61399,0 0,-5.09488 -29.61399,0 z"
       inkscape:connector-curvature="0"
       id="path4011"
       style="font-size:12px;font-style:normal;font-variant:normal;font-weight:normal;font-stretch:normal;text-align:start;line-height:125%;writing-mode:lr-tb;text-anchor:start;opacity:0.15;fill:#000000;fill-opacity:1;stroke:none;display:inline;font-family:Sans;-inkscape-font-specification:Sans" />
  </g>
</svg>
