<?xml version="1.0" encoding="UTF-8" standalone="no"?>
<!-- Created with Inkscape (http://www.inkscape.org/) -->

<svg
   xmlns:dc="http://purl.org/dc/elements/1.1/"
   xmlns:cc="http://creativecommons.org/ns#"
   xmlns:rdf="http://www.w3.org/1999/02/22-rdf-syntax-ns#"
   xmlns:svg="http://www.w3.org/2000/svg"
   xmlns="http://www.w3.org/2000/svg"
   xmlns:xlink="http://www.w3.org/1999/xlink"
   xmlns:sodipodi="http://sodipodi.sourceforge.net/DTD/sodipodi-0.dtd"
   xmlns:inkscape="http://www.inkscape.org/namespaces/inkscape"
   version="1.0"
   width="256"
   height="256"
   id="svg2408"
   inkscape:version="0.48.3.1 r9886"
   sodipodi:docname="format-indent-more.svg">
  <sodipodi:namedview
     pagecolor="#ffffff"
     bordercolor="#666666"
     borderopacity="1"
     objecttolerance="10"
     gridtolerance="10"
     guidetolerance="10"
     inkscape:pageopacity="0"
     inkscape:pageshadow="2"
     inkscape:window-width="1024"
     inkscape:window-height="572"
     id="namedview93"
     showgrid="false"
     inkscape:zoom="1.6367188"
     inkscape:cx="117.30788"
     inkscape:cy="128"
     inkscape:window-x="0"
     inkscape:window-y="28"
     inkscape:window-maximized="1"
     inkscape:current-layer="svg2408" />
  <defs
     id="defs2410">
    <linearGradient
       id="linearGradient3637">
      <stop
         id="stop3639"
         style="stop-color:#5a5a5a;stop-opacity:1;"
         offset="0" />
      <stop
         id="stop3641"
         style="stop-color:#000000;stop-opacity:1;"
         offset="1" />
    </linearGradient>
    <linearGradient
       x1="45.447727"
       y1="92.539597"
       x2="45.447727"
       y2="7.0165396"
       id="ButtonShadow"
       gradientUnits="userSpaceOnUse"
       gradientTransform="scale(1.0058652,0.994169)">
      <stop
         id="stop3750"
         style="stop-color:#000000;stop-opacity:1"
         offset="0" />
      <stop
         id="stop3752"
         style="stop-color:#000000;stop-opacity:0.58823532"
         offset="1" />
    </linearGradient>
    <linearGradient
       id="linearGradient3737">
      <stop
         id="stop3739"
         style="stop-color:#ffffff;stop-opacity:1"
         offset="0" />
      <stop
         id="stop3741"
         style="stop-color:#ffffff;stop-opacity:0"
         offset="1" />
    </linearGradient>
    <linearGradient
       id="linearGradient3700">
      <stop
         id="stop3702"
         style="stop-color:#2276c5;stop-opacity:1"
         offset="0" />
      <stop
         id="stop3704"
         style="stop-color:#68baf4;stop-opacity:1"
         offset="1" />
    </linearGradient>
    <filter
       color-interpolation-filters="sRGB"
       id="filter3174">
      <feGaussianBlur
         id="feGaussianBlur3176"
         stdDeviation="1.71" />
    </filter>
    <linearGradient
       x1="36.357143"
       y1="6"
       x2="36.357143"
       y2="63.893143"
       id="linearGradient3188"
       xlink:href="#linearGradient3737"
       gradientUnits="userSpaceOnUse" />
    <filter
       x="-0.192"
       y="-0.192"
       width="1.3839999"
       height="1.3839999"
       color-interpolation-filters="sRGB"
       id="filter3794">
      <feGaussianBlur
         id="feGaussianBlur3796"
         stdDeviation="5.28" />
    </filter>
    <linearGradient
       x1="48"
       y1="20.220806"
       x2="48"
       y2="138.66119"
       id="linearGradient3613"
       xlink:href="#linearGradient3737"
       gradientUnits="userSpaceOnUse" />
    <radialGradient
       cx="48"
       cy="90.171875"
       r="42"
       fx="48"
       fy="90.171875"
       id="radialGradient3619"
       xlink:href="#linearGradient3737"
       gradientUnits="userSpaceOnUse"
       gradientTransform="matrix(1.1573129,0,0,0.99590774,-7.5510206,0.19713193)" />
    <clipPath
       id="clipPath3613">
      <rect
         width="84"
         height="84"
         rx="6"
         ry="6"
         x="6"
         y="6"
         id="rect3615"
         style="fill:#ffffff;fill-opacity:1;fill-rule:nonzero;stroke:none" />
    </clipPath>
    <linearGradient
       x1="48"
       y1="90"
       x2="48"
       y2="5.9877172"
       id="linearGradient2843"
       xlink:href="#linearGradient3700"
       gradientUnits="userSpaceOnUse"
       gradientTransform="translate(0,100)" />
    <clipPath
       id="clipPath3625">
      <path
         d="M 0,0 0,96 96,96 96,0 0,0 z m 12,6 72,0 c 3.324,0 6,2.676 6,6 l 0,72 c 0,3.324 -2.676,6 -6,6 L 12,90 C 8.676,90 6,87.324 6,84 L 6,12 C 6,8.676 8.676,6 12,6 z"
         inkscape:connector-curvature="0"
         id="path3627"
         style="fill:#ffffff;fill-opacity:1;stroke:none" />
    </clipPath>
    <linearGradient
       x1="44.512066"
       y1="6"
       x2="44.512066"
       y2="90.015434"
       id="linearGradient3643"
       xlink:href="#linearGradient3637"
       gradientUnits="userSpaceOnUse" />
    <clipPath
       id="clipPath3649">
      <rect
         width="76"
         height="76"
         rx="4"
         ry="4"
         x="10"
         y="10"
         id="rect3651"
         style="fill:#ffffff;fill-opacity:1;fill-rule:nonzero;stroke:none" />
    </clipPath>
    <filter
       color-interpolation-filters="sRGB"
       id="filter3657">
      <feGaussianBlur
         id="feGaussianBlur3659"
         stdDeviation="1.14" />
    </filter>
    <linearGradient
       inkscape:collect="always"
       xlink:href="#linearGradient3637"
       id="linearGradient7822"
       gradientUnits="userSpaceOnUse"
       gradientTransform="matrix(-13.541381,0,0,13.541381,277.00103,-27.082973)"
       x1="13"
       y1="4"
       x2="13"
       y2="18.035669" />
  </defs>
  <metadata
     id="metadata2413">
    <rdf:RDF>
      <cc:Work
         rdf:about="">
        <dc:format>image/svg+xml</dc:format>
        <dc:type
           rdf:resource="http://purl.org/dc/dcmitype/StillImage" />
        <dc:title></dc:title>
      </cc:Work>
    </rdf:RDF>
  </metadata>
  <g
     id="layer2"
     style="display:none"
     transform="translate(0,160)">
    <rect
       width="86"
       height="85"
       rx="6"
       ry="6"
       x="5"
       y="7"
       clip-path="url(#clipPath3625)"
       id="rect3745"
       style="opacity:0.9;fill:url(#ButtonShadow);fill-opacity:1;fill-rule:nonzero;stroke:none;filter:url(#filter3174)" />
  </g>
  <g
     id="layer1"
     style="display:none"
     transform="translate(0,160)">
    <rect
       width="84"
       height="84"
       rx="6"
       ry="6"
       x="6"
       y="6"
       id="rect2419"
       style="opacity:0.8;fill:#000000;fill-opacity:1;fill-rule:nonzero;stroke:none" />
    <path
       d="m 14,10 c -2.216,0 -4,1.784 -4,4 l 0,68 c 0,2.216 1.784,4 4,4 l 68,0 c 2.216,0 4,-1.784 4,-4 l 0,-68 c 0,-2.216 -1.784,-4 -4,-4 l -68,0 z m 0,3.0625 68,0 c 0.578769,0 0.9375,0.358731 0.9375,0.9375 l 0,68 c 0,0.578769 -0.358731,0.9375 -0.9375,0.9375 l -68,0 c -0.578769,0 -0.9375,-0.358731 -0.9375,-0.9375 l 0,-68 c 0,-0.578769 0.358731,-0.9375 0.9375,-0.9375 z"
       inkscape:connector-curvature="0"
       id="rect3726"
       style="opacity:0.07999998;fill:#000000;fill-opacity:1;fill-rule:nonzero;stroke:none" />
    <path
       d="M 12,6 C 8.676,6 6,8.676 6,12 l 0,72 c 0,3.324 2.676,6 6,6 l 72,0 c 3.324,0 6,-2.676 6,-6 L 90,12 C 90,8.676 87.324,6 84,6 L 12,6 z m 2,4 68,0 c 2.216,0 4,1.784 4,4 l 0,68 c 0,2.216 -1.784,4 -4,4 l -68,0 c -2.216,0 -4,-1.784 -4,-4 l 0,-68 c 0,-2.216 1.784,-4 4,-4 z"
       inkscape:connector-curvature="0"
       id="rect3629"
       style="fill:url(#linearGradient3643);fill-opacity:1;fill-rule:nonzero;stroke:none" />
    <path
       d="M 12,6 C 8.676,6 6,8.676 6,12 l 0,2 0,68 0,2 c 0,0.334721 0.04135,0.6507 0.09375,0.96875 0.0487,0.295596 0.09704,0.596915 0.1875,0.875 0.00988,0.03038 0.020892,0.0636 0.03125,0.09375 0.098865,0.287771 0.2348802,0.547452 0.375,0.8125 0.1445918,0.273507 0.3156161,0.535615 0.5,0.78125 0.1843839,0.245635 0.3737765,0.473472 0.59375,0.6875 0.439947,0.428056 0.94291,0.814526 1.5,1.09375 0.278545,0.139612 0.5734731,0.246947 0.875,0.34375 -0.2562018,-0.100222 -0.4867109,-0.236272 -0.71875,-0.375 -0.00741,-0.0044 -0.023866,0.0045 -0.03125,0 -0.031933,-0.0193 -0.062293,-0.04251 -0.09375,-0.0625 -0.120395,-0.0767 -0.2310226,-0.163513 -0.34375,-0.25 -0.1061728,-0.0808 -0.2132809,-0.161112 -0.3125,-0.25 C 8.4783201,88.557317 8.3087904,88.373362 8.15625,88.1875 8.0486711,88.057245 7.9378561,87.922215 7.84375,87.78125 7.818661,87.74287 7.805304,87.69538 7.78125,87.65625 7.716487,87.553218 7.6510225,87.451733 7.59375,87.34375 7.4927417,87.149044 7.3880752,86.928049 7.3125,86.71875 7.30454,86.69694 7.288911,86.6782 7.28125,86.65625 7.2494249,86.5643 7.2454455,86.469419 7.21875,86.375 7.1884177,86.268382 7.1483606,86.171969 7.125,86.0625 7.0521214,85.720988 7,85.364295 7,85 L 7,83 7,15 7,13 C 7,10.218152 9.2181517,8 12,8 l 2,0 68,0 2,0 c 2.781848,0 5,2.218152 5,5 l 0,2 0,68 0,2 c 0,0.364295 -0.05212,0.720988 -0.125,1.0625 -0.04415,0.206893 -0.08838,0.397658 -0.15625,0.59375 -0.0077,0.02195 -0.0233,0.04069 -0.03125,0.0625 -0.06274,0.173739 -0.138383,0.367449 -0.21875,0.53125 -0.04158,0.0828 -0.07904,0.169954 -0.125,0.25 -0.0546,0.09721 -0.126774,0.18835 -0.1875,0.28125 -0.09411,0.140965 -0.204921,0.275995 -0.3125,0.40625 -0.143174,0.17445 -0.303141,0.346998 -0.46875,0.5 -0.01117,0.0102 -0.01998,0.02115 -0.03125,0.03125 -0.138386,0.125556 -0.285091,0.234436 -0.4375,0.34375 -0.102571,0.07315 -0.204318,0.153364 -0.3125,0.21875 -0.0074,0.0045 -0.02384,-0.0044 -0.03125,0 -0.232039,0.138728 -0.462548,0.274778 -0.71875,0.375 0.301527,-0.0968 0.596455,-0.204138 0.875,-0.34375 0.55709,-0.279224 1.060053,-0.665694 1.5,-1.09375 0.219973,-0.214028 0.409366,-0.441865 0.59375,-0.6875 0.184384,-0.245635 0.355408,-0.507743 0.5,-0.78125 0.14012,-0.265048 0.276135,-0.524729 0.375,-0.8125 0.01041,-0.03078 0.02133,-0.06274 0.03125,-0.09375 0.09046,-0.278085 0.1388,-0.579404 0.1875,-0.875 C 89.95865,84.6507 90,84.334721 90,84 l 0,-2 0,-68 0,-2 C 90,8.676 87.324,6 84,6 L 12,6 z"
       inkscape:connector-curvature="0"
       id="rect3728"
       style="fill:url(#linearGradient3188);fill-opacity:1;fill-rule:nonzero;stroke:none" />
    <path
       d="M 12,90 C 8.676,90 6,87.324 6,84 L 6,82 6,14 6,12 c 0,-0.334721 0.04135,-0.6507 0.09375,-0.96875 0.0487,-0.295596 0.09704,-0.596915 0.1875,-0.875 C 6.29113,10.12587 6.302142,10.09265 6.3125,10.0625 6.411365,9.774729 6.5473802,9.515048 6.6875,9.25 6.8320918,8.976493 7.0031161,8.714385 7.1875,8.46875 7.3718839,8.223115 7.5612765,7.995278 7.78125,7.78125 8.221197,7.353194 8.72416,6.966724 9.28125,6.6875 9.559795,6.547888 9.8547231,6.440553 10.15625,6.34375 9.9000482,6.443972 9.6695391,6.580022 9.4375,6.71875 c -0.00741,0.0044 -0.023866,-0.0045 -0.03125,0 -0.031933,0.0193 -0.062293,0.04251 -0.09375,0.0625 -0.120395,0.0767 -0.2310226,0.163513 -0.34375,0.25 -0.1061728,0.0808 -0.2132809,0.161112 -0.3125,0.25 C 8.4783201,7.442683 8.3087904,7.626638 8.15625,7.8125 8.0486711,7.942755 7.9378561,8.077785 7.84375,8.21875 7.818661,8.25713 7.805304,8.30462 7.78125,8.34375 7.716487,8.446782 7.6510225,8.548267 7.59375,8.65625 7.4927417,8.850956 7.3880752,9.071951 7.3125,9.28125 7.30454,9.30306 7.288911,9.3218 7.28125,9.34375 7.2494249,9.4357 7.2454455,9.530581 7.21875,9.625 7.1884177,9.731618 7.1483606,9.828031 7.125,9.9375 7.0521214,10.279012 7,10.635705 7,11 l 0,2 0,68 0,2 c 0,2.781848 2.2181517,5 5,5 l 2,0 68,0 2,0 c 2.781848,0 5,-2.218152 5,-5 l 0,-2 0,-68 0,-2 C 89,10.635705 88.94788,10.279012 88.875,9.9375 88.83085,9.730607 88.78662,9.539842 88.71875,9.34375 88.71105,9.3218 88.69545,9.30306 88.6875,9.28125 88.62476,9.107511 88.549117,8.913801 88.46875,8.75 88.42717,8.6672 88.38971,8.580046 88.34375,8.5 88.28915,8.40279 88.216976,8.31165 88.15625,8.21875 88.06214,8.077785 87.951329,7.942755 87.84375,7.8125 87.700576,7.63805 87.540609,7.465502 87.375,7.3125 87.36383,7.3023 87.35502,7.29135 87.34375,7.28125 87.205364,7.155694 87.058659,7.046814 86.90625,6.9375 86.803679,6.86435 86.701932,6.784136 86.59375,6.71875 c -0.0074,-0.0045 -0.02384,0.0044 -0.03125,0 -0.232039,-0.138728 -0.462548,-0.274778 -0.71875,-0.375 0.301527,0.0968 0.596455,0.204138 0.875,0.34375 0.55709,0.279224 1.060053,0.665694 1.5,1.09375 0.219973,0.214028 0.409366,0.441865 0.59375,0.6875 0.184384,0.245635 0.355408,0.507743 0.5,0.78125 0.14012,0.265048 0.276135,0.524729 0.375,0.8125 0.01041,0.03078 0.02133,0.06274 0.03125,0.09375 0.09046,0.278085 0.1388,0.579404 0.1875,0.875 C 89.95865,11.3493 90,11.665279 90,12 l 0,2 0,68 0,2 c 0,3.324 -2.676,6 -6,6 l -72,0 z"
       inkscape:connector-curvature="0"
       id="path3615"
       style="opacity:0.6;fill:url(#radialGradient3619);fill-opacity:1;fill-rule:nonzero;stroke:none" />
    <rect
       width="84"
       height="84"
       rx="6"
       ry="6"
       x="6"
       y="106"
       id="rect2841"
       style="fill:url(#linearGradient2843);fill-opacity:1;fill-rule:nonzero;stroke:none" />
    <rect
       width="76"
       height="76"
       rx="4"
       ry="4"
       x="10"
       y="110"
       id="rect3634"
       style="fill:#ff0000;fill-opacity:1;fill-rule:nonzero;stroke:none" />
    <path
       d="m 14,9 c -2.752703,0 -5,2.247297 -5,5 l 0,68 c 0,2.752703 2.247297,5 5,5 l 68,0 c 2.752703,0 5,-2.247297 5,-5 L 87,14 C 87,11.247297 84.752703,9 82,9 L 14,9 z m 0,2 68,0 c 1.679297,0 3,1.320703 3,3 l 0,68 c 0,1.679297 -1.320703,3 -3,3 l -68,0 c -1.679297,0 -3,-1.320703 -3,-3 l 0,-68 c 0,-1.679297 1.320703,-3 3,-3 z"
       inkscape:connector-curvature="0"
       transform="translate(-110,0)"
       clip-path="url(#clipPath3649)"
       id="rect3647"
       style="font-size:medium;font-style:normal;font-variant:normal;font-weight:normal;font-stretch:normal;text-indent:0;text-align:start;text-decoration:none;line-height:normal;letter-spacing:normal;word-spacing:normal;text-transform:none;direction:ltr;block-progression:tb;writing-mode:lr-tb;text-anchor:start;color:#000000;fill:#000000;fill-opacity:1;stroke:none;stroke-width:2;marker:none;visibility:visible;display:inline;overflow:visible;filter:url(#filter3657);enable-background:accumulate;font-family:Abandoned Bitplane;-inkscape-font-specification:Abandoned Bitplane" />
    <path
       d="m 14.089286,10 c -2.216,0 -4,1.784 -4,4 l 0,68 c 0,2.216 1.784,4 4,4 l 68,0 c 2.216,0 4,-1.784 4,-4 l 0,-68 c 0,-2.216 -1.784,-4 -4,-4 l -68,0 z m 0,2 68,0 c 1.140301,0 2,0.859699 2,2 l 0,68 c 0,1.140301 -0.859699,2 -2,2 l -68,0 c -1.140301,0 -2,-0.859699 -2,-2 l 0,-68 c 0,-1.140301 0.859699,-2 2,-2 z"
       inkscape:connector-curvature="0"
       id="path3709"
       style="opacity:0.16000001;fill:#000000;fill-opacity:1;fill-rule:nonzero;stroke:none" />
    <path
       d="m 14,10 c -2.216,0 -4,1.784 -4,4 l 0,68 c 0,2.216 1.784,4 4,4 l 68,0 c 2.216,0 4,-1.784 4,-4 l 0,-68 c 0,-2.216 -1.784,-4 -4,-4 l -68,0 z m 0,1 68,0 c 1.673848,0 3,1.326152 3,3 l 0,68 c 0,1.673848 -1.326152,3 -3,3 l -68,0 c -1.673848,0 -3,-1.326152 -3,-3 l 0,-68 c 0,-1.673848 1.326152,-3 3,-3 z"
       inkscape:connector-curvature="0"
       id="path3707"
       style="opacity:0.36000001;fill:#000000;fill-opacity:1;fill-rule:nonzero;stroke:none" />
  </g>
  <g
     id="layer5"
     style="display:none"
     transform="translate(0,160)">
    <rect
       width="66"
       height="66"
       rx="12"
       ry="12"
       x="15"
       y="15"
       clip-path="url(#clipPath3613)"
       id="rect3171"
       style="opacity:0.1;fill:url(#linearGradient3613);fill-opacity:1;fill-rule:nonzero;stroke:#ffffff;stroke-width:0.5;stroke-linecap:round;stroke-linejoin:miter;stroke-miterlimit:4;stroke-opacity:1;stroke-dasharray:none;stroke-dashoffset:0;filter:url(#filter3794)" />
  </g>
  <g
     id="g7814"
     transform="translate(-0.54608276,1.6566178)">
    <path
       d="m 18.022484,22.427702 c -0.0038,6.77e-4 -0.701602,0.281209 -0.70528,0.282112 -0.0037,9.93e-4 -0.842762,0.280758 -0.846337,0.282112 -0.0036,0.0014 -0.701836,0.280307 -0.70528,0.282112 -0.0034,0.0016 -0.701994,0.280307 -0.70528,0.282112 -0.0033,0.0019 -0.702175,0.562013 -0.705281,0.564225 -0.0031,0.0022 -0.561326,0.420685 -0.564224,0.422942 -0.0029,0.0025 -0.702612,0.561471 -0.70528,0.564224 -0.0027,0.0027 -0.420731,0.561245 -0.423168,0.564224 -0.0024,0.0029 -0.562076,0.702121 -0.564224,0.705281 -0.0021,0.0032 -0.421318,0.70194 -0.423169,0.70528 -0.0019,0.0033 -0.280532,0.701805 -0.282112,0.70528 -0.0016,0.0035 -0.280848,0.70167 -0.282112,0.705281 -0.0012,0.0036 -0.281164,0.842635 -0.282112,0.846336 -9.3e-4,0.0037 -0.140469,0.701489 -0.141056,0.70528 -6e-4,0.0037 -0.140785,0.842545 -0.141056,0.846336 -2.21e-4,0.0032 0.005,0.518274 0,0.705281 -9.61e-4,0.03611 -1.4e-5,0.140379 0,0.14083 l 0,26.941706 c -5e-6,0.0043 -4.15e-4,0.842094 0,0.846336 4.15e-4,0.0042 0.140244,0.983195 0.141056,0.987393 8.31e-4,0.0042 0.280893,0.842229 0.282112,0.846336 0.0012,0.0041 0.280487,0.842409 0.282112,0.846336 0.0016,0.0039 0.421182,0.84259 0.423168,0.846337 0.002,0.0037 0.420821,0.701714 0.423169,0.70528 0.0024,0.0036 0.561516,0.701985 0.564224,0.70528 0.0027,0.0033 0.561204,0.702256 0.564224,0.705281 0.003,0.003 0.701981,0.561516 0.70528,0.564224 0.0033,0.0027 0.701728,0.561832 0.705281,0.564224 0.0036,0.0023 0.701515,0.421137 0.70528,0.422942 0.0038,0.002 0.842391,0.421589 0.846336,0.422943 0.0039,0.0016 0.842251,0.280758 0.846336,0.282112 0.0041,0.0012 0.842148,0.281209 0.846337,0.282112 0.0042,8.13e-4 0.983145,0.140831 0.987392,0.140831 0.0042,4.06e-4 0.842066,0 0.846336,0 l 144.441404,0 c 0.004,0 0.84209,4.06e-4 0.84633,0 0.004,-4.07e-4 0.98321,-0.140379 0.9874,-0.140831 0.004,-8.12e-4 0.84225,-0.280758 0.84633,-0.282112 0.004,-0.0012 0.84239,-0.280307 0.84634,-0.282112 0.004,-0.0016 0.84257,-0.421137 0.84633,-0.422943 0.004,-0.002 0.70173,-0.420685 0.70528,-0.422942 0.004,-0.0024 0.70199,-0.561516 0.70528,-0.564224 0.003,-0.0027 0.70227,-0.5612 0.70529,-0.564224 0.003,-0.003 0.56151,-0.701986 0.56422,-0.705281 0.003,-0.0033 0.56185,-0.701714 0.56422,-0.70528 0.002,-0.0036 0.42119,-0.701534 0.42317,-0.70528 0.002,-0.0037 0.42154,-0.84241 0.42317,-0.846337 0.002,-0.0039 0.28089,-0.842273 0.28211,-0.846336 0.001,-0.0041 0.2813,-0.842138 0.28211,-0.846336 8.3e-4,-0.0042 0.14065,-0.98315 0.14106,-0.987393 4.2e-4,-0.0042 0,-0.842048 0,-0.846336 l 0,-27.082762 c 0,-0.0043 4.2e-4,-0.842093 0,-0.846336 -4.2e-4,-0.0042 -0.14024,-0.983195 -0.14106,-0.987393 -8.3e-4,-0.0042 -0.28089,-0.842274 -0.28211,-0.846336 -0.001,-0.0041 -0.28049,-0.842409 -0.28211,-0.846336 -0.002,-0.0039 -0.42118,-0.84259 -0.42317,-0.846337 -0.002,-0.0037 -0.42077,-0.701714 -0.42317,-0.70528 -0.002,-0.0036 -0.56151,-0.701985 -0.56422,-0.70528 -0.003,-0.0033 -0.56121,-0.702256 -0.56422,-0.70528 -0.003,-0.003 -0.70199,-0.561516 -0.70529,-0.564225 -0.003,-0.0027 -0.70172,-0.561877 -0.70528,-0.564224 -0.004,-0.0024 -0.70151,-0.421137 -0.70528,-0.422942 -0.004,-0.002 -0.84239,-0.421589 -0.84633,-0.422943 -0.004,-0.0016 -0.84225,-0.280758 -0.84634,-0.282112 -0.004,-0.0012 -0.84215,-0.281209 -0.84633,-0.282112 -0.004,-8.12e-4 -0.98315,-0.14083 -0.9874,-0.14083 -0.004,-4.07e-4 -0.84206,0 -0.84633,0 l -144.300348,0 c -7.89e-4,-4.5e-5 -0.08761,0 -0.141056,0 -0.106886,-4.5e-5 -0.122594,0 -0.282112,0 -0.0016,-9.1e-5 -0.122594,0 -0.282112,0 -0.239276,0 -0.420821,-9.1e-5 -0.423168,0 a 4.5188952,4.5188952 0 0 0 -0.70528,0 z m 0.282112,54.165524 c -0.0038,5.87e-4 -0.842563,0.139928 -0.846336,0.140831 -0.0038,9.02e-4 -0.701602,0.280758 -0.705281,0.282112 -0.0037,0.0013 -0.842788,0.280758 -0.846336,0.282112 -0.0035,0.0016 -0.701886,0.421137 -0.70528,0.422942 -0.0034,0.0019 -0.702071,0.421137 -0.705281,0.422943 -0.0032,0.0022 -0.561222,0.420685 -0.564224,0.422942 -0.003,0.0025 -0.702509,0.561516 -0.70528,0.564224 -0.0028,0.0027 -0.56171,0.702302 -0.564224,0.705281 -0.0025,0.003 -0.420911,0.561064 -0.423168,0.564224 -0.0022,0.0032 -0.421228,0.701895 -0.423169,0.70528 -0.0019,0.0033 -0.421543,0.70176 -0.423168,0.70528 -0.0016,0.0035 -0.280803,0.842681 -0.282112,0.846337 -0.0013,0.0037 -0.281119,0.701534 -0.282112,0.70528 -9.84e-4,0.0037 -0.140424,0.8425 -0.141056,0.846336 -6.45e-4,0.0038 -0.14074,0.842455 -0.141056,0.846337 -2.98e-4,0.0039 -5e-5,0.701398 0,0.70528 l 0,81.248293 c 1.4e-5,0.003 -2.21e-4,0.70225 0,0.70528 2.21e-4,0.003 0.140605,0.56124 0.141056,0.56422 4.29e-4,0.003 -6.36e-4,0.70235 0,0.70528 6.36e-4,0.003 0.281255,0.56134 0.282112,0.56423 8.4e-4,0.003 0.140018,0.56138 0.141056,0.56422 10e-4,0.003 0.280894,0.56147 0.282112,0.56422 0.0012,0.003 0.280713,0.56157 0.282112,0.56423 0.0014,0.003 0.280533,0.56165 0.282113,0.56422 0.0016,0.003 0.280351,0.56179 0.282112,0.56423 0.0018,0.002 0.421227,0.56192 0.423168,0.56422 0.0019,0.002 0.421092,0.42114 0.423168,0.42294 0.0021,0.002 0.420911,0.42114 0.423168,0.42295 0.0022,0.002 0.561855,0.42113 0.564224,0.42294 0.0024,0.002 0.561728,0.42159 0.564225,0.42294 0.0025,0.002 0.42055,0.28076 0.423168,0.28211 0.0026,0.001 0.56152,0.28076 0.564224,0.28212 0.0027,0.001 0.561435,0.28121 0.564224,0.28211 0.0028,0.001 0.702419,0.28121 0.70528,0.28211 0.0029,9.5e-4 0.561304,0.14038 0.564225,0.14083 0.0029,7.2e-4 0.561258,0.14038 0.564224,0.14083 0.003,5.4e-4 0.702287,-3.2e-4 0.70528,0 0.003,3.2e-4 0.561214,0.14083 0.564224,0.14083 0.003,1.4e-4 0.70227,9e-5 0.705281,0 0.003,-9e-5 0.561227,3.2e-4 0.564224,0 0.003,-3.1e-4 0.70231,-0.14038 0.70528,-0.14083 0.003,-5e-4 0.561299,-0.14038 0.564224,-0.14083 0.0029,-7.2e-4 0.70241,-0.13993 0.70528,-0.14083 0.0029,-9e-4 0.561426,-0.28121 0.564225,-0.28211 0.0028,-0.001 0.561507,-0.28076 0.564224,-0.28211 0.0027,-10e-4 0.561602,-0.28076 0.564224,-0.28212 0.0026,-0.001 0.561715,-0.2803 0.564224,-0.28211 0.0021,-0.001 0.303011,-0.19635 0.423168,-0.28211 l 54.165525,-40.62414 a 4.5188952,4.5188952 0 0 0 0.141056,-0.14083 c 0.0019,-0.002 0.421317,-0.28031 0.423168,-0.28212 0.0019,-0.002 0.280352,-0.42158 0.282112,-0.42294 0.0018,-0.002 0.421498,-0.28031 0.423168,-0.28211 0.0017,-0.002 0.280578,-0.42114 0.282112,-0.42294 0.0016,-0.002 0.280668,-0.42114 0.282112,-0.42295 0.0014,-0.002 0.42186,-0.42113 0.423169,-0.42294 0.0013,-0.002 0.139837,-0.42114 0.141056,-0.42294 0.0012,-0.002 0.281028,-0.42114 0.282112,-0.42294 0.0011,-0.002 0.281164,-0.56197 0.282112,-0.56423 9.57e-4,-0.002 0.140243,-0.42068 0.141056,-0.42294 8.26e-4,-0.002 0.140379,-0.56188 0.141056,-0.56422 6.91e-4,-0.002 0.140514,-0.42069 0.141056,-0.42295 5.55e-4,-0.002 0.14065,-0.56178 0.141056,-0.56422 4.2e-4,-0.002 -2.8e-4,-0.56179 0,-0.56423 2.8e-4,-0.002 0.140921,-0.42068 0.141056,-0.42294 1.4e-4,-0.002 0,-0.56174 0,-0.56422 0,-0.002 1.4e-4,-0.56174 0,-0.56423 -1.4e-4,-0.002 -0.140785,-0.42068 -0.141056,-0.42294 -2.8e-4,-0.002 4.2e-4,-0.56179 0,-0.56422 -4.2e-4,-0.002 -0.140514,-0.56183 -0.141056,-0.56423 -5.55e-4,-0.002 -0.140379,-0.42068 -0.141056,-0.42294 -6.91e-4,-0.002 -0.140244,-0.56192 -0.141056,-0.56422 -8.26e-4,-0.002 -0.140108,-0.42114 -0.141056,-0.42295 -9.57e-4,-0.002 -0.281029,-0.56201 -0.282112,-0.56422 -0.0011,-0.002 -0.280894,-0.42114 -0.282112,-0.42294 -0.0012,-0.002 -0.139747,-0.42114 -0.141056,-0.42295 -0.0013,-0.002 -0.421724,-0.42113 -0.423169,-0.42294 -0.0014,-0.002 -0.280577,-0.42113 -0.282112,-0.42294 -0.0016,-0.002 -0.280442,-0.42114 -0.282112,-0.42294 -0.0017,-0.002 -0.421408,-0.28031 -0.423168,-0.28211 -0.0018,-0.002 -0.280261,-0.42159 -0.282112,-0.42295 -0.0019,-0.002 -0.421227,-0.28076 -0.423168,-0.28211 A 4.5188952,4.5188952 0 0 0 79.381867,119.0511 L 25.357399,78.568011 c -6.59e-4,-5.42e-4 -0.07425,-0.08982 -0.141057,-0.14083 -0.106886,-0.0817 -0.281028,-0.140379 -0.282112,-0.140831 -0.0018,-0.0013 -0.280261,-0.280758 -0.282112,-0.282112 -0.0018,-0.0012 -0.421272,-0.281209 -0.423168,-0.282112 -0.0019,-0.0011 -0.421227,-0.139928 -0.423168,-0.14083 -0.002,-9.93e-4 -0.421182,-0.28121 -0.423168,-0.282112 -0.002,-9.03e-4 -0.421137,-0.140379 -0.423168,-0.140831 -0.002,-8.12e-4 -0.421092,-0.140379 -0.423169,-0.14083 -0.0021,-7.22e-4 -0.421046,-0.140379 -0.423168,-0.14083 -0.0021,-5.87e-4 -0.421001,-0.140379 -0.423168,-0.140831 -0.0021,-4.96e-4 -0.562057,3.61e-4 -0.564224,0 -0.0022,-3.61e-4 -0.421002,-0.14083 -0.423168,-0.14083 -0.0022,-2.71e-4 -0.420957,1.35e-4 -0.423168,0 -0.0022,-1.36e-4 -0.420957,4.5e-5 -0.423169,0 -0.0022,-4.5e-5 -0.56203,-9.1e-5 -0.564224,0 -0.0022,4.5e-5 -0.420956,-1.81e-4 -0.423168,0 -0.0022,1.8e-4 -0.421001,-2.71e-4 -0.423168,0 a 4.5188952,4.5188952 0 0 0 -0.141056,0 z m 80.966172,0 c -0.004,6.77e-4 -0.7016,0.28121 -0.70528,0.282112 -0.004,9.93e-4 -0.84276,0.280758 -0.84633,0.282112 -0.004,0.0014 -0.70184,0.280307 -0.70528,0.282113 -0.003,0.0016 -0.702,0.280306 -0.70528,0.282112 -0.003,0.0019 -0.70218,0.562012 -0.70529,0.564224 -0.003,0.0022 -0.56132,0.420685 -0.56422,0.422942 -0.003,0.0025 -0.70261,0.561471 -0.70528,0.564225 -0.003,0.0027 -0.42073,0.561245 -0.42317,0.564224 -0.002,0.0029 -0.56207,0.70212 -0.56422,0.70528 -0.002,0.0032 -0.42132,0.70194 -0.42317,0.70528 -0.002,0.0033 -0.28053,0.701805 -0.28211,0.705281 -0.002,0.0035 -0.28085,0.701669 -0.28211,0.70528 -10e-4,0.0036 -0.28117,0.842635 -0.28212,0.846336 -9.3e-4,0.0037 -0.14047,0.701489 -0.14105,0.70528 -6e-4,0.0037 -0.14079,0.842545 -0.14106,0.846337 -2.2e-4,0.0032 0.005,0.518274 0,0.70528 -9.6e-4,0.03611 -1e-5,0.140379 0,0.14083 l 0,26.941706 c 0,0.004 -4.1e-4,0.8421 0,0.84634 4.2e-4,0.004 0.14025,0.9832 0.14106,0.98739 8.3e-4,0.004 0.28089,0.84223 0.28211,0.84634 0.001,0.004 0.28049,0.84241 0.28211,0.84634 0.002,0.004 0.42118,0.84259 0.42317,0.84633 0.002,0.004 0.42078,0.70172 0.42317,0.70528 0.002,0.004 0.56151,0.70199 0.56422,0.70528 0.003,0.003 0.56121,0.70226 0.56423,0.70528 0.003,0.003 0.70198,0.56152 0.70528,0.56423 0.003,0.003 0.70172,0.56183 0.70528,0.56422 0.004,0.002 0.70151,0.42114 0.70528,0.42294 0.004,0.002 0.84239,0.42159 0.84633,0.42295 0.004,0.002 0.84225,0.28075 0.84634,0.28211 0.004,0.001 0.84215,0.28121 0.84634,0.28211 0.004,8.1e-4 0.983142,0.14083 0.987392,0.14083 0.004,4.1e-4 0.84206,0 0.84633,0 l 135.41382,0 c 0.004,0 0.84208,4.1e-4 0.84633,0 0.004,-4.1e-4 0.98321,-0.14038 0.98739,-0.14083 0.004,-8.1e-4 0.84226,-0.28076 0.84634,-0.28211 0.004,-10e-4 0.84239,-0.28031 0.84634,-0.28211 0.004,-0.002 0.84257,-0.42114 0.84633,-0.42295 0.004,-0.002 0.70173,-0.42068 0.70528,-0.42294 0.004,-0.002 0.70198,-0.56151 0.70528,-0.56422 0.003,-0.003 0.70226,-0.5612 0.70528,-0.56423 0.003,-0.003 0.56152,-0.70198 0.56423,-0.70528 0.003,-0.003 0.56185,-0.70171 0.56422,-0.70528 0.002,-0.004 0.42118,-0.70153 0.42317,-0.70528 0.002,-0.004 0.42154,-0.84241 0.42317,-0.84633 0.002,-0.004 0.28089,-0.84228 0.28211,-0.84634 0.001,-0.004 0.2813,-0.84214 0.28211,-0.84634 8.3e-4,-0.004 0.14065,-0.98315 0.14106,-0.98739 4.1e-4,-0.004 0,-0.84205 0,-0.84634 l 0,-27.082762 c 0,-0.0043 4.1e-4,-0.842093 0,-0.846336 -4.2e-4,-0.0042 -0.14024,-0.983195 -0.14106,-0.987392 -8.3e-4,-0.0042 -0.28089,-0.842274 -0.28211,-0.846337 -10e-4,-0.0041 -0.28049,-0.842409 -0.28211,-0.846336 -0.002,-0.0039 -0.42118,-0.84259 -0.42317,-0.846336 -0.002,-0.0037 -0.42082,-0.701715 -0.42317,-0.705281 -0.002,-0.0036 -0.56151,-0.701985 -0.56422,-0.70528 -0.003,-0.0033 -0.56121,-0.702256 -0.56423,-0.70528 -0.003,-0.003 -0.70198,-0.561516 -0.70528,-0.564224 -0.003,-0.0027 -0.70172,-0.561877 -0.70528,-0.564225 -0.004,-0.0024 -0.70151,-0.421136 -0.70528,-0.422942 -0.004,-0.002 -0.84239,-0.421588 -0.84633,-0.422942 -0.004,-0.0016 -0.84225,-0.280758 -0.84634,-0.282113 -0.004,-0.0012 -0.84215,-0.281209 -0.84634,-0.282112 -0.004,-8.12e-4 -0.98314,-0.14083 -0.98739,-0.14083 -0.004,-4.06e-4 -0.84206,0 -0.84633,0 l -135.27276,0 c -7.9e-4,-4.5e-5 -0.0876,0 -0.14106,0 -0.10688,-4.5e-5 -0.12259,0 -0.28211,0 -0.002,-9e-5 -0.12259,0 -0.28211,0 -0.23928,0 -0.420782,-9e-5 -0.423172,0 a 4.5188952,4.5188952 0 0 0 -0.70528,0 z m 0,54.165524 c -0.004,6.8e-4 -0.7016,0.28121 -0.70528,0.28212 -0.004,9.9e-4 -0.84276,0.28075 -0.84633,0.28211 -0.004,0.001 -0.70184,0.28031 -0.70528,0.28211 -0.003,0.002 -0.702,0.28031 -0.70528,0.28211 -0.003,0.002 -0.70218,0.56202 -0.70529,0.56423 -0.003,0.002 -0.56132,0.42068 -0.56422,0.42294 -0.003,0.002 -0.70261,0.56147 -0.70528,0.56422 -0.003,0.003 -0.42073,0.56125 -0.42317,0.56423 -0.002,0.003 -0.56207,0.70212 -0.56422,0.70528 -0.002,0.003 -0.42132,0.70194 -0.42317,0.70528 -0.002,0.003 -0.28053,0.7018 -0.28211,0.70528 -0.002,0.003 -0.28085,0.70167 -0.28211,0.70528 -10e-4,0.004 -0.28117,0.84263 -0.28212,0.84634 -9.3e-4,0.004 -0.14047,0.70148 -0.14105,0.70528 -6e-4,0.004 -0.14079,0.84254 -0.14106,0.84633 -2.2e-4,0.003 0.005,0.51828 0,0.70528 -9.6e-4,0.0361 -1e-5,0.14038 0,0.14083 l 0,26.94171 c 0,0.004 -4.1e-4,0.84209 0,0.84634 4.2e-4,0.004 0.14025,0.98319 0.14106,0.98739 8.3e-4,0.004 0.28089,0.84223 0.28211,0.84633 0.001,0.004 0.28049,0.84241 0.28211,0.84634 0.002,0.004 0.42118,0.84259 0.42317,0.84634 0.002,0.004 0.42078,0.70171 0.42317,0.70528 0.002,0.004 0.56151,0.70198 0.56422,0.70528 0.003,0.003 0.56121,0.70225 0.56423,0.70528 0.003,0.003 0.70198,0.56151 0.70528,0.56422 0.003,0.003 0.70172,0.56183 0.70528,0.56423 0.004,0.002 0.70151,0.42113 0.70528,0.42294 0.004,0.002 0.84239,0.42159 0.84633,0.42294 0.004,0.002 0.84225,0.28076 0.84634,0.28211 0.004,0.001 0.84215,0.28121 0.84634,0.28211 0.004,8.2e-4 0.983142,0.14084 0.987392,0.14084 0.004,4e-4 0.84206,0 0.84633,0 l 108.33105,0 c 0.004,0 0.84209,4e-4 0.84634,0 0.004,-4.1e-4 0.9832,-0.14038 0.98739,-0.14084 0.004,-8.1e-4 0.84225,-0.28075 0.84634,-0.28211 0.004,-0.001 0.84239,-0.2803 0.84633,-0.28211 0.004,-0.002 0.84258,-0.42114 0.84634,-0.42294 0.004,-0.002 0.70173,-0.42069 0.70528,-0.42294 0.004,-0.002 0.70198,-0.56152 0.70528,-0.56423 0.003,-0.003 0.70226,-0.5612 0.70528,-0.56422 0.003,-0.003 0.56152,-0.70199 0.56423,-0.70528 0.003,-0.003 0.56185,-0.70172 0.56422,-0.70528 0.002,-0.004 0.42118,-0.70154 0.42317,-0.70528 0.002,-0.004 0.42154,-0.84241 0.42317,-0.84634 0.002,-0.004 0.28089,-0.84227 0.28211,-0.84634 10e-4,-0.004 0.2813,-0.84213 0.28211,-0.84633 8.3e-4,-0.004 0.14065,-0.98315 0.14106,-0.98739 4.1e-4,-0.004 0,-0.84205 0,-0.84634 l 0,-27.08276 c 0,-0.004 4.1e-4,-0.8421 0,-0.84634 -4.2e-4,-0.004 -0.14025,-0.98319 -0.14106,-0.98739 -8.3e-4,-0.004 -0.28089,-0.84228 -0.28211,-0.84634 -0.001,-0.004 -0.28049,-0.84241 -0.28211,-0.84633 -0.002,-0.004 -0.42119,-0.84259 -0.42317,-0.84634 -0.002,-0.004 -0.42082,-0.70172 -0.42317,-0.70528 -0.002,-0.004 -0.56152,-0.70199 -0.56422,-0.70528 -0.003,-0.003 -0.56121,-0.70226 -0.56423,-0.70528 -0.003,-0.003 -0.70198,-0.56152 -0.70528,-0.56423 -0.003,-0.003 -0.70173,-0.56187 -0.70528,-0.56422 -0.004,-0.002 -0.70151,-0.42114 -0.70528,-0.42294 -0.004,-0.002 -0.84239,-0.42159 -0.84634,-0.42295 -0.004,-0.002 -0.84225,-0.28075 -0.84633,-0.28211 -0.004,-0.001 -0.84215,-0.28121 -0.84634,-0.28211 -0.004,-8.1e-4 -0.98314,-0.14083 -0.98739,-0.14083 -0.004,-4.1e-4 -0.84207,0 -0.84634,0 l -108.18999,0 c -7.9e-4,-4e-5 -0.0876,0 -0.14106,0 -0.10688,-4e-5 -0.12259,0 -0.28211,0 -0.002,-9e-5 -0.12259,0 -0.28211,0 -0.23928,0 -0.420782,-9e-5 -0.423172,0 a 4.5188952,4.5188952 0 0 0 -0.70528,0 z m -81.248284,54.16553 c -0.0038,6.8e-4 -0.701602,0.28121 -0.70528,0.28211 -0.0037,9.9e-4 -0.842762,0.28076 -0.846337,0.28211 -0.0036,0.001 -0.701836,0.28031 -0.70528,0.28212 -0.0034,0.002 -0.701994,0.2803 -0.70528,0.28211 -0.0033,0.002 -0.702175,0.56201 -0.705281,0.56422 -0.0031,0.002 -0.561326,0.42069 -0.564224,0.42294 -0.0029,0.002 -0.702612,0.56147 -0.70528,0.56423 -0.0027,0.003 -0.420731,0.56124 -0.423168,0.56422 -0.0024,0.003 -0.562076,0.70212 -0.564224,0.70528 -0.0021,0.003 -0.421318,0.70194 -0.423169,0.70528 -0.0019,0.003 -0.280532,0.70181 -0.282112,0.70528 -0.0016,0.003 -0.280848,0.70167 -0.282112,0.70528 -0.0012,0.004 -0.281164,0.84264 -0.282112,0.84634 -9.3e-4,0.004 -0.140469,0.70149 -0.141056,0.70528 -6e-4,0.004 -0.140785,0.84254 -0.141056,0.84634 -2.21e-4,0.003 0.005,0.51827 0,0.70528 -9.61e-4,0.0361 -1.4e-5,0.14038 0,0.14083 l 0,26.9417 c -5e-6,0.004 -4.15e-4,0.8421 0,0.84634 4.15e-4,0.004 0.140244,0.98319 0.141056,0.98739 8.31e-4,0.004 0.280893,0.84223 0.282112,0.84634 0.0012,0.004 0.280487,0.84241 0.282112,0.84633 0.0016,0.004 0.421182,0.84259 0.423168,0.84634 0.002,0.004 0.420821,0.70172 0.423169,0.70528 0.0024,0.004 0.561516,0.70199 0.564224,0.70528 0.0027,0.003 0.561204,0.70226 0.564224,0.70528 0.003,0.003 0.701981,0.56152 0.70528,0.56423 0.0033,0.003 0.701728,0.56187 0.705281,0.56422 0.0036,0.002 0.701515,0.42114 0.70528,0.42294 0.0038,0.002 0.842391,0.42159 0.846336,0.42294 0.0039,0.002 0.842251,0.28076 0.846336,0.28212 0.0041,10e-4 0.842148,0.28121 0.846337,0.28211 0.0042,8.1e-4 0.983145,0.14083 0.987392,0.14083 0.0042,4.1e-4 0.842066,0 0.846336,0 l 144.441404,0 c 0.004,0 0.84209,4.1e-4 0.84633,0 0.004,-4.1e-4 0.98321,-0.14038 0.9874,-0.14083 0.004,-8.1e-4 0.84225,-0.28076 0.84633,-0.28211 0.004,-0.001 0.84239,-0.28031 0.84634,-0.28212 0.004,-0.002 0.84257,-0.42113 0.84633,-0.42294 0.004,-0.002 0.70173,-0.42068 0.70528,-0.42294 0.004,-0.002 0.70199,-0.56152 0.70528,-0.56422 0.003,-0.003 0.70227,-0.5612 0.70529,-0.56423 0.003,-0.003 0.56151,-0.70198 0.56422,-0.70528 0.003,-0.003 0.56185,-0.70171 0.56422,-0.70528 0.002,-0.004 0.42119,-0.70153 0.42317,-0.70528 0.002,-0.004 0.42154,-0.84241 0.42317,-0.84634 0.002,-0.004 0.28089,-0.84227 0.28211,-0.84633 0.001,-0.004 0.2813,-0.84214 0.28211,-0.84634 8.3e-4,-0.004 0.14065,-0.98315 0.14106,-0.98739 4.2e-4,-0.004 0,-0.84205 0,-0.84634 l 0,-27.08276 c 0,-0.004 4.2e-4,-0.84209 0,-0.84634 -4.2e-4,-0.004 -0.14024,-0.98319 -0.14106,-0.98739 -8.3e-4,-0.004 -0.28089,-0.84227 -0.28211,-0.84633 -0.001,-0.004 -0.28049,-0.84241 -0.28211,-0.84634 -0.002,-0.004 -0.42118,-0.84259 -0.42317,-0.84634 -0.002,-0.004 -0.42077,-0.70171 -0.42317,-0.70528 -0.002,-0.004 -0.56151,-0.70198 -0.56422,-0.70528 -0.003,-0.003 -0.56121,-0.70225 -0.56422,-0.70528 -0.003,-0.003 -0.70199,-0.56151 -0.70529,-0.56422 -0.003,-0.003 -0.70172,-0.56188 -0.70528,-0.56423 -0.004,-0.002 -0.70151,-0.42113 -0.70528,-0.42294 -0.004,-0.002 -0.84239,-0.42159 -0.84633,-0.42294 -0.004,-0.002 -0.84225,-0.28076 -0.84634,-0.28211 -0.004,-0.001 -0.84215,-0.28121 -0.84633,-0.28212 -0.004,-8.1e-4 -0.98315,-0.14083 -0.9874,-0.14083 -0.004,-4e-4 -0.84206,0 -0.84633,0 l -144.300348,0 c -7.89e-4,-4e-5 -0.08761,0 -0.141056,0 -0.106886,-4e-5 -0.122594,0 -0.282112,0 -0.0016,-9e-5 -0.122594,0 -0.282112,0 -0.239276,0 -0.420821,-9e-5 -0.423168,0 a 4.5188952,4.5188952 0 0 0 -0.70528,0 z"
       id="path3927"
       style="opacity:0.1;fill:#000000;fill-opacity:1;stroke:none;display:inline"
       inkscape:connector-curvature="0" />
    <path
       d="m 19.291988,26.941496 a 4.6486758,4.6486758 0 0 0 -4.231681,4.654849 l 0,27.082763 a 4.6486758,4.6486758 0 0 0 4.654849,4.654849 l 144.441404,0 a 4.6486758,4.6486758 0 0 0 4.65485,-4.654849 l 0,-27.082763 a 4.6486758,4.6486758 0 0 0 -4.65485,-4.654849 l -144.441404,0 a 4.6486758,4.6486758 0 0 0 -0.423168,0 z M 19.009876,81.10702 a 4.6486758,4.6486758 0 0 0 -3.949569,4.65485 l 0,81.24829 a 4.6486758,4.6486758 0 0 0 7.47597,3.66746 l 54.165525,-40.62415 a 4.6486758,4.6486758 0 0 0 0,-7.33491 L 22.536277,82.094412 A 4.6486758,4.6486758 0 0 0 19.009876,81.10702 z m 81.530404,0 a 4.6486758,4.6486758 0 0 0 -4.231682,4.65485 l 0,27.08277 a 4.6486758,4.6486758 0 0 0 4.654842,4.65485 l 135.41382,0 a 4.6486758,4.6486758 0 0 0 4.65485,-4.65485 l 0,-27.08277 a 4.6486758,4.6486758 0 0 0 -4.65485,-4.65485 l -135.41382,0 a 4.6486758,4.6486758 0 0 0 -0.42316,0 z m 0,54.16553 a 4.6486758,4.6486758 0 0 0 -4.231682,4.65485 l 0,27.08276 a 4.6486758,4.6486758 0 0 0 4.654842,4.65485 l 108.33105,0 a 4.6486758,4.6486758 0 0 0 4.65485,-4.65485 l 0,-27.08276 a 4.6486758,4.6486758 0 0 0 -4.65485,-4.65485 l -108.33105,0 a 4.6486758,4.6486758 0 0 0 -0.42316,0 z m -81.248292,54.16552 a 4.6486758,4.6486758 0 0 0 -4.231681,4.65485 l 0,27.08276 a 4.6486758,4.6486758 0 0 0 4.654849,4.65485 l 144.441404,0 a 4.6486758,4.6486758 0 0 0 4.65485,-4.65485 l 0,-27.08276 a 4.6486758,4.6486758 0 0 0 -4.65485,-4.65485 l -144.441404,0 a 4.6486758,4.6486758 0 0 0 -0.423168,0 z"
       id="path3923"
       style="opacity:0.15;fill:#000000;fill-opacity:1;stroke:none;display:inline"
       inkscape:connector-curvature="0" />
    <path
       d="m 164.15619,31.596345 0,27.082763 -144.441404,0 0,-27.082763 z m 72.2207,54.165525 0,27.08277 -135.41382,0 0,-27.08277 z m -216.662104,0 54.165525,40.62415 -54.165525,40.62414 z m 189.579334,54.16553 0,27.08276 -108.33105,0 0,-27.08276 z m -45.13793,54.16552 0,27.08276 -144.441404,0 0,-27.08276 z"
       inkscape:connector-curvature="0"
       id="path3917"
       style="opacity:0.3;fill:#000000;fill-opacity:1;stroke:none;display:inline" />
    <path
       d="m 164.15619,27.082552 0,27.082762 -144.441404,0 0,-27.082762 z m 72.2207,54.165524 0,27.082764 -135.41382,0 0,-27.082764 z m -216.662104,0 54.165525,40.624144 -54.165525,40.62415 z m 189.579334,54.165524 0,27.08277 -108.33105,0 0,-27.08277 z m -45.13793,54.16553 0,27.08276 -144.441404,0 0,-27.08276 z"
       inkscape:connector-curvature="0"
       id="rect2859"
       style="fill:url(#linearGradient7822);fill-opacity:1;stroke:none;display:inline" />
    <path
       d="m 164.15619,27.082552 0,4.513793 -144.441404,0 0,-4.513793 z m 72.2207,54.165524 0,4.513794 -135.41382,0 0,-4.513794 z m -216.662104,0 54.165525,40.624144 -2.962178,2.2569 -51.203347,-38.36725 z m 189.579334,54.165524 0,4.5138 -108.33105,0 0,-4.5138 z m -45.13793,54.16553 0,4.51379 -144.441404,0 0,-4.51379 z"
       inkscape:connector-curvature="0"
       id="path3868"
       style="opacity:0.75;fill:#ffffff;fill-opacity:1;stroke:none;display:inline" />
    <path
       d="m 164.15619,49.65152 0,4.513794 -144.441404,0 0,-4.513794 z m 72.2207,54.16553 0,4.51379 -135.41382,0 0,-4.51379 z m -165.458757,15.79828 2.962178,2.25689 -54.165525,40.62415 0,-4.5138 z m 138.375987,38.36724 0,4.5138 -108.33105,0 0,-4.5138 z m -45.13793,54.16553 0,4.51379 -144.441404,0 0,-4.51379 z"
       inkscape:connector-curvature="0"
       id="path3877"
       style="opacity:0.15;fill:#000000;fill-opacity:1;stroke:none;display:inline" />
  </g>
</svg>
