<?xml version="1.0" encoding="UTF-8" standalone="no"?>
<!-- Created with Inkscape (http://www.inkscape.org/) -->

<svg
   xmlns:dc="http://purl.org/dc/elements/1.1/"
   xmlns:cc="http://creativecommons.org/ns#"
   xmlns:rdf="http://www.w3.org/1999/02/22-rdf-syntax-ns#"
   xmlns:svg="http://www.w3.org/2000/svg"
   xmlns="http://www.w3.org/2000/svg"
   xmlns:xlink="http://www.w3.org/1999/xlink"
   xmlns:sodipodi="http://sodipodi.sourceforge.net/DTD/sodipodi-0.dtd"
   xmlns:inkscape="http://www.inkscape.org/namespaces/inkscape"
   version="1.0"
   width="256"
   height="256"
   id="svg2408"
   inkscape:version="0.48.3.1 r9886"
   sodipodi:docname="format-text-italic.svg">
  <sodipodi:namedview
     pagecolor="#ffffff"
     bordercolor="#666666"
     borderopacity="1"
     objecttolerance="10"
     gridtolerance="10"
     guidetolerance="10"
     inkscape:pageopacity="0"
     inkscape:pageshadow="2"
     inkscape:window-width="1024"
     inkscape:window-height="572"
     id="namedview4010"
     showgrid="false"
     inkscape:zoom="1.6367188"
     inkscape:cx="117.30788"
     inkscape:cy="128"
     inkscape:window-x="0"
     inkscape:window-y="28"
     inkscape:window-maximized="1"
     inkscape:current-layer="svg2408" />
  <defs
     id="defs2410">
    <linearGradient
       id="linearGradient3637">
      <stop
         id="stop3639"
         style="stop-color:#5a5a5a;stop-opacity:1;"
         offset="0" />
      <stop
         id="stop3641"
         style="stop-color:#000000;stop-opacity:1;"
         offset="1" />
    </linearGradient>
    <linearGradient
       x1="45.447727"
       y1="92.539597"
       x2="45.447727"
       y2="7.0165396"
       id="ButtonShadow"
       gradientUnits="userSpaceOnUse"
       gradientTransform="scale(1.0058652,0.994169)">
      <stop
         id="stop3750"
         style="stop-color:#000000;stop-opacity:1"
         offset="0" />
      <stop
         id="stop3752"
         style="stop-color:#000000;stop-opacity:0.58823532"
         offset="1" />
    </linearGradient>
    <linearGradient
       id="linearGradient3737">
      <stop
         id="stop3739"
         style="stop-color:#ffffff;stop-opacity:1"
         offset="0" />
      <stop
         id="stop3741"
         style="stop-color:#ffffff;stop-opacity:0"
         offset="1" />
    </linearGradient>
    <linearGradient
       id="linearGradient3700">
      <stop
         id="stop3702"
         style="stop-color:#2276c5;stop-opacity:1"
         offset="0" />
      <stop
         id="stop3704"
         style="stop-color:#68baf4;stop-opacity:1"
         offset="1" />
    </linearGradient>
    <filter
       color-interpolation-filters="sRGB"
       id="filter3174">
      <feGaussianBlur
         id="feGaussianBlur3176"
         stdDeviation="1.71" />
    </filter>
    <linearGradient
       x1="36.357143"
       y1="6"
       x2="36.357143"
       y2="63.893143"
       id="linearGradient3188"
       xlink:href="#linearGradient3737"
       gradientUnits="userSpaceOnUse" />
    <filter
       x="-0.192"
       y="-0.192"
       width="1.3839999"
       height="1.3839999"
       color-interpolation-filters="sRGB"
       id="filter3794">
      <feGaussianBlur
         id="feGaussianBlur3796"
         stdDeviation="5.28" />
    </filter>
    <linearGradient
       x1="48"
       y1="20.220806"
       x2="48"
       y2="138.66119"
       id="linearGradient3613"
       xlink:href="#linearGradient3737"
       gradientUnits="userSpaceOnUse" />
    <radialGradient
       cx="48"
       cy="90.171875"
       r="42"
       fx="48"
       fy="90.171875"
       id="radialGradient3619"
       xlink:href="#linearGradient3737"
       gradientUnits="userSpaceOnUse"
       gradientTransform="matrix(1.1573129,0,0,0.99590774,-7.5510206,0.19713193)" />
    <clipPath
       id="clipPath3613">
      <rect
         width="84"
         height="84"
         rx="6"
         ry="6"
         x="6"
         y="6"
         id="rect3615"
         style="fill:#ffffff;fill-opacity:1;fill-rule:nonzero;stroke:none" />
    </clipPath>
    <linearGradient
       x1="48"
       y1="90"
       x2="48"
       y2="5.9877172"
       id="linearGradient2843"
       xlink:href="#linearGradient3700"
       gradientUnits="userSpaceOnUse"
       gradientTransform="translate(0,100)" />
    <clipPath
       id="clipPath3625">
      <path
         d="M 0,0 0,96 96,96 96,0 0,0 z m 12,6 72,0 c 3.324,0 6,2.676 6,6 l 0,72 c 0,3.324 -2.676,6 -6,6 L 12,90 C 8.676,90 6,87.324 6,84 L 6,12 C 6,8.676 8.676,6 12,6 z"
         inkscape:connector-curvature="0"
         id="path3627"
         style="fill:#ffffff;fill-opacity:1;stroke:none" />
    </clipPath>
    <linearGradient
       x1="44.512066"
       y1="6"
       x2="44.512066"
       y2="90.015434"
       id="linearGradient3643"
       xlink:href="#linearGradient3637"
       gradientUnits="userSpaceOnUse" />
    <clipPath
       id="clipPath3649">
      <rect
         width="76"
         height="76"
         rx="4"
         ry="4"
         x="10"
         y="10"
         id="rect3651"
         style="fill:#ffffff;fill-opacity:1;fill-rule:nonzero;stroke:none" />
    </clipPath>
    <filter
       color-interpolation-filters="sRGB"
       id="filter3657">
      <feGaussianBlur
         id="feGaussianBlur3659"
         stdDeviation="1.14" />
    </filter>
    <linearGradient
       inkscape:collect="always"
       xlink:href="#linearGradient3637"
       id="linearGradient4209"
       gradientUnits="userSpaceOnUse"
       gradientTransform="matrix(17.625307,0,0,17.625307,-64.596499,-89.07955)"
       x1="10.467128"
       y1="5.8862238"
       x2="10.467128"
       y2="17.767334" />
  </defs>
  <metadata
     id="metadata2413">
    <rdf:RDF>
      <cc:Work
         rdf:about="">
        <dc:format>image/svg+xml</dc:format>
        <dc:type
           rdf:resource="http://purl.org/dc/dcmitype/StillImage" />
        <dc:title></dc:title>
      </cc:Work>
    </rdf:RDF>
  </metadata>
  <g
     id="layer2"
     style="display:none"
     transform="translate(0,160)">
    <rect
       width="86"
       height="85"
       rx="6"
       ry="6"
       x="5"
       y="7"
       clip-path="url(#clipPath3625)"
       id="rect3745"
       style="opacity:0.9;fill:url(#ButtonShadow);fill-opacity:1;fill-rule:nonzero;stroke:none;filter:url(#filter3174)" />
  </g>
  <g
     id="layer1"
     style="display:none"
     transform="translate(0,160)">
    <rect
       width="84"
       height="84"
       rx="6"
       ry="6"
       x="6"
       y="6"
       id="rect2419"
       style="opacity:0.8;fill:#000000;fill-opacity:1;fill-rule:nonzero;stroke:none" />
    <path
       d="m 14,10 c -2.216,0 -4,1.784 -4,4 l 0,68 c 0,2.216 1.784,4 4,4 l 68,0 c 2.216,0 4,-1.784 4,-4 l 0,-68 c 0,-2.216 -1.784,-4 -4,-4 l -68,0 z m 0,3.0625 68,0 c 0.578769,0 0.9375,0.358731 0.9375,0.9375 l 0,68 c 0,0.578769 -0.358731,0.9375 -0.9375,0.9375 l -68,0 c -0.578769,0 -0.9375,-0.358731 -0.9375,-0.9375 l 0,-68 c 0,-0.578769 0.358731,-0.9375 0.9375,-0.9375 z"
       inkscape:connector-curvature="0"
       id="rect3726"
       style="opacity:0.07999998;fill:#000000;fill-opacity:1;fill-rule:nonzero;stroke:none" />
    <path
       d="M 12,6 C 8.676,6 6,8.676 6,12 l 0,72 c 0,3.324 2.676,6 6,6 l 72,0 c 3.324,0 6,-2.676 6,-6 L 90,12 C 90,8.676 87.324,6 84,6 L 12,6 z m 2,4 68,0 c 2.216,0 4,1.784 4,4 l 0,68 c 0,2.216 -1.784,4 -4,4 l -68,0 c -2.216,0 -4,-1.784 -4,-4 l 0,-68 c 0,-2.216 1.784,-4 4,-4 z"
       inkscape:connector-curvature="0"
       id="rect3629"
       style="fill:url(#linearGradient3643);fill-opacity:1;fill-rule:nonzero;stroke:none" />
    <path
       d="M 12,6 C 8.676,6 6,8.676 6,12 l 0,2 0,68 0,2 c 0,0.334721 0.04135,0.6507 0.09375,0.96875 0.0487,0.295596 0.09704,0.596915 0.1875,0.875 0.00988,0.03038 0.020892,0.0636 0.03125,0.09375 0.098865,0.287771 0.2348802,0.547452 0.375,0.8125 0.1445918,0.273507 0.3156161,0.535615 0.5,0.78125 0.1843839,0.245635 0.3737765,0.473472 0.59375,0.6875 0.439947,0.428056 0.94291,0.814526 1.5,1.09375 0.278545,0.139612 0.5734731,0.246947 0.875,0.34375 -0.2562018,-0.100222 -0.4867109,-0.236272 -0.71875,-0.375 -0.00741,-0.0044 -0.023866,0.0045 -0.03125,0 -0.031933,-0.0193 -0.062293,-0.04251 -0.09375,-0.0625 -0.120395,-0.0767 -0.2310226,-0.163513 -0.34375,-0.25 -0.1061728,-0.0808 -0.2132809,-0.161112 -0.3125,-0.25 C 8.4783201,88.557317 8.3087904,88.373362 8.15625,88.1875 8.0486711,88.057245 7.9378561,87.922215 7.84375,87.78125 7.818661,87.74287 7.805304,87.69538 7.78125,87.65625 7.716487,87.553218 7.6510225,87.451733 7.59375,87.34375 7.4927417,87.149044 7.3880752,86.928049 7.3125,86.71875 7.30454,86.69694 7.288911,86.6782 7.28125,86.65625 7.2494249,86.5643 7.2454455,86.469419 7.21875,86.375 7.1884177,86.268382 7.1483606,86.171969 7.125,86.0625 7.0521214,85.720988 7,85.364295 7,85 L 7,83 7,15 7,13 C 7,10.218152 9.2181517,8 12,8 l 2,0 68,0 2,0 c 2.781848,0 5,2.218152 5,5 l 0,2 0,68 0,2 c 0,0.364295 -0.05212,0.720988 -0.125,1.0625 -0.04415,0.206893 -0.08838,0.397658 -0.15625,0.59375 -0.0077,0.02195 -0.0233,0.04069 -0.03125,0.0625 -0.06274,0.173739 -0.138383,0.367449 -0.21875,0.53125 -0.04158,0.0828 -0.07904,0.169954 -0.125,0.25 -0.0546,0.09721 -0.126774,0.18835 -0.1875,0.28125 -0.09411,0.140965 -0.204921,0.275995 -0.3125,0.40625 -0.143174,0.17445 -0.303141,0.346998 -0.46875,0.5 -0.01117,0.0102 -0.01998,0.02115 -0.03125,0.03125 -0.138386,0.125556 -0.285091,0.234436 -0.4375,0.34375 -0.102571,0.07315 -0.204318,0.153364 -0.3125,0.21875 -0.0074,0.0045 -0.02384,-0.0044 -0.03125,0 -0.232039,0.138728 -0.462548,0.274778 -0.71875,0.375 0.301527,-0.0968 0.596455,-0.204138 0.875,-0.34375 0.55709,-0.279224 1.060053,-0.665694 1.5,-1.09375 0.219973,-0.214028 0.409366,-0.441865 0.59375,-0.6875 0.184384,-0.245635 0.355408,-0.507743 0.5,-0.78125 0.14012,-0.265048 0.276135,-0.524729 0.375,-0.8125 0.01041,-0.03078 0.02133,-0.06274 0.03125,-0.09375 0.09046,-0.278085 0.1388,-0.579404 0.1875,-0.875 C 89.95865,84.6507 90,84.334721 90,84 l 0,-2 0,-68 0,-2 C 90,8.676 87.324,6 84,6 L 12,6 z"
       inkscape:connector-curvature="0"
       id="rect3728"
       style="fill:url(#linearGradient3188);fill-opacity:1;fill-rule:nonzero;stroke:none" />
    <path
       d="M 12,90 C 8.676,90 6,87.324 6,84 L 6,82 6,14 6,12 c 0,-0.334721 0.04135,-0.6507 0.09375,-0.96875 0.0487,-0.295596 0.09704,-0.596915 0.1875,-0.875 C 6.29113,10.12587 6.302142,10.09265 6.3125,10.0625 6.411365,9.774729 6.5473802,9.515048 6.6875,9.25 6.8320918,8.976493 7.0031161,8.714385 7.1875,8.46875 7.3718839,8.223115 7.5612765,7.995278 7.78125,7.78125 8.221197,7.353194 8.72416,6.966724 9.28125,6.6875 9.559795,6.547888 9.8547231,6.440553 10.15625,6.34375 9.9000482,6.443972 9.6695391,6.580022 9.4375,6.71875 c -0.00741,0.0044 -0.023866,-0.0045 -0.03125,0 -0.031933,0.0193 -0.062293,0.04251 -0.09375,0.0625 -0.120395,0.0767 -0.2310226,0.163513 -0.34375,0.25 -0.1061728,0.0808 -0.2132809,0.161112 -0.3125,0.25 C 8.4783201,7.442683 8.3087904,7.626638 8.15625,7.8125 8.0486711,7.942755 7.9378561,8.077785 7.84375,8.21875 7.818661,8.25713 7.805304,8.30462 7.78125,8.34375 7.716487,8.446782 7.6510225,8.548267 7.59375,8.65625 7.4927417,8.850956 7.3880752,9.071951 7.3125,9.28125 7.30454,9.30306 7.288911,9.3218 7.28125,9.34375 7.2494249,9.4357 7.2454455,9.530581 7.21875,9.625 7.1884177,9.731618 7.1483606,9.828031 7.125,9.9375 7.0521214,10.279012 7,10.635705 7,11 l 0,2 0,68 0,2 c 0,2.781848 2.2181517,5 5,5 l 2,0 68,0 2,0 c 2.781848,0 5,-2.218152 5,-5 l 0,-2 0,-68 0,-2 C 89,10.635705 88.94788,10.279012 88.875,9.9375 88.83085,9.730607 88.78662,9.539842 88.71875,9.34375 88.71105,9.3218 88.69545,9.30306 88.6875,9.28125 88.62476,9.107511 88.549117,8.913801 88.46875,8.75 88.42717,8.6672 88.38971,8.580046 88.34375,8.5 88.28915,8.40279 88.216976,8.31165 88.15625,8.21875 88.06214,8.077785 87.951329,7.942755 87.84375,7.8125 87.700576,7.63805 87.540609,7.465502 87.375,7.3125 87.36383,7.3023 87.35502,7.29135 87.34375,7.28125 87.205364,7.155694 87.058659,7.046814 86.90625,6.9375 86.803679,6.86435 86.701932,6.784136 86.59375,6.71875 c -0.0074,-0.0045 -0.02384,0.0044 -0.03125,0 -0.232039,-0.138728 -0.462548,-0.274778 -0.71875,-0.375 0.301527,0.0968 0.596455,0.204138 0.875,0.34375 0.55709,0.279224 1.060053,0.665694 1.5,1.09375 0.219973,0.214028 0.409366,0.441865 0.59375,0.6875 0.184384,0.245635 0.355408,0.507743 0.5,0.78125 0.14012,0.265048 0.276135,0.524729 0.375,0.8125 0.01041,0.03078 0.02133,0.06274 0.03125,0.09375 0.09046,0.278085 0.1388,0.579404 0.1875,0.875 C 89.95865,11.3493 90,11.665279 90,12 l 0,2 0,68 0,2 c 0,3.324 -2.676,6 -6,6 l -72,0 z"
       inkscape:connector-curvature="0"
       id="path3615"
       style="opacity:0.6;fill:url(#radialGradient3619);fill-opacity:1;fill-rule:nonzero;stroke:none" />
    <rect
       width="84"
       height="84"
       rx="6"
       ry="6"
       x="6"
       y="106"
       id="rect2841"
       style="fill:url(#linearGradient2843);fill-opacity:1;fill-rule:nonzero;stroke:none" />
    <rect
       width="76"
       height="76"
       rx="4"
       ry="4"
       x="10"
       y="110"
       id="rect3634"
       style="fill:#ff0000;fill-opacity:1;fill-rule:nonzero;stroke:none" />
    <path
       d="m 14,9 c -2.752703,0 -5,2.247297 -5,5 l 0,68 c 0,2.752703 2.247297,5 5,5 l 68,0 c 2.752703,0 5,-2.247297 5,-5 L 87,14 C 87,11.247297 84.752703,9 82,9 L 14,9 z m 0,2 68,0 c 1.679297,0 3,1.320703 3,3 l 0,68 c 0,1.679297 -1.320703,3 -3,3 l -68,0 c -1.679297,0 -3,-1.320703 -3,-3 l 0,-68 c 0,-1.679297 1.320703,-3 3,-3 z"
       inkscape:connector-curvature="0"
       transform="translate(-110,0)"
       clip-path="url(#clipPath3649)"
       id="rect3647"
       style="font-size:medium;font-style:normal;font-variant:normal;font-weight:normal;font-stretch:normal;text-indent:0;text-align:start;text-decoration:none;line-height:normal;letter-spacing:normal;word-spacing:normal;text-transform:none;direction:ltr;block-progression:tb;writing-mode:lr-tb;text-anchor:start;color:#000000;fill:#000000;fill-opacity:1;stroke:none;stroke-width:2;marker:none;visibility:visible;display:inline;overflow:visible;filter:url(#filter3657);enable-background:accumulate;font-family:Abandoned Bitplane;-inkscape-font-specification:Abandoned Bitplane" />
    <path
       d="m 14.089286,10 c -2.216,0 -4,1.784 -4,4 l 0,68 c 0,2.216 1.784,4 4,4 l 68,0 c 2.216,0 4,-1.784 4,-4 l 0,-68 c 0,-2.216 -1.784,-4 -4,-4 l -68,0 z m 0,2 68,0 c 1.140301,0 2,0.859699 2,2 l 0,68 c 0,1.140301 -0.859699,2 -2,2 l -68,0 c -1.140301,0 -2,-0.859699 -2,-2 l 0,-68 c 0,-1.140301 0.859699,-2 2,-2 z"
       inkscape:connector-curvature="0"
       id="path3709"
       style="opacity:0.16000001;fill:#000000;fill-opacity:1;fill-rule:nonzero;stroke:none" />
    <path
       d="m 14,10 c -2.216,0 -4,1.784 -4,4 l 0,68 c 0,2.216 1.784,4 4,4 l 68,0 c 2.216,0 4,-1.784 4,-4 l 0,-68 c 0,-2.216 -1.784,-4 -4,-4 l -68,0 z m 0,1 68,0 c 1.673848,0 3,1.326152 3,3 l 0,68 c 0,1.673848 -1.326152,3 -3,3 l -68,0 c -1.673848,0 -3,-1.326152 -3,-3 l 0,-68 c 0,-1.673848 1.326152,-3 3,-3 z"
       inkscape:connector-curvature="0"
       id="path3707"
       style="opacity:0.36000001;fill:#000000;fill-opacity:1;fill-rule:nonzero;stroke:none" />
  </g>
  <g
     id="layer5"
     style="display:none"
     transform="translate(0,160)">
    <rect
       width="66"
       height="66"
       rx="12"
       ry="12"
       x="15"
       y="15"
       clip-path="url(#clipPath3613)"
       id="rect3171"
       style="opacity:0.1;fill:url(#linearGradient3613);fill-opacity:1;fill-rule:nonzero;stroke:#ffffff;stroke-width:0.5;stroke-linecap:round;stroke-linejoin:miter;stroke-miterlimit:4;stroke-opacity:1;stroke-dasharray:none;stroke-dashoffset:0;filter:url(#filter3794)" />
  </g>
  <g
     id="g4201"
     transform="translate(0.58271708,0.2028)">
    <path
       d="m 149.66476,10.7972 c -11.73494,2.35e-4 -23.69729,1.336234 -36.1686,3.855536 -12.2519,2.37554 -25.338153,5.982794 -38.922554,10.832221 -0.05951,0.0235 -0.124082,-0.0235 -0.183597,0 -0.191058,0.0752 -0.546737,0.181541 -0.55079,0.183303 -0.0053,0.0023 -0.729212,0.364257 -0.734388,0.367194 -0.0052,0.0026 -0.729388,0.364257 -0.734388,0.367194 -0.005,0.0029 -0.545974,0.363669 -0.550791,0.367194 -0.0048,0.0033 -0.546208,0.363669 -0.550791,0.367194 -0.0046,0.0036 -0.546443,0.546972 -0.550791,0.550497 -0.0043,0.0038 -0.546678,0.546972 -0.550791,0.550497 -0.0041,0.0041 -0.546972,0.546385 -0.550791,0.550497 -0.0038,0.0043 -0.547265,0.546385 -0.550791,0.550497 -0.0035,0.0046 -0.363962,0.545798 -0.367193,0.550498 -0.0032,0.0048 -0.364257,0.729394 -0.367194,0.734387 -0.0029,0.005 -0.364609,0.545798 -0.367194,0.550498 -0.0026,0.0052 -0.364903,0.729041 -0.367194,0.734387 -0.0023,0.0053 -0.181658,0.728924 -0.183597,0.734388 -0.0019,0.0055 -0.365608,0.728807 -0.367194,0.734388 -0.0016,0.0056 -0.182363,0.728689 -0.183597,0.734388 l -6.242297,30.660693 c -0.0012,0.0059 8.17e-4,0.72816 0,0.734388 -8.16e-4,0.0059 -0.183244,0.911698 -0.183597,0.917984 -3.82e-4,0.0059 -5.3e-5,0.728102 0,0.734388 5.3e-5,0.0059 -4.87e-4,0.728102 0,0.734388 4.88e-4,0.0059 0.182657,0.911757 0.183597,0.917985 9.17e-4,0.0059 0.182246,0.728219 0.183597,0.734388 0.0013,0.0059 0.181835,0.728336 0.183597,0.734388 0.0018,0.0059 0.181423,0.912051 0.183597,0.917985 0.0022,0.0059 0.364609,0.72863 0.367194,0.734387 0.0026,0.0058 0.364198,0.728807 0.367194,0.734388 0.003,0.0055 0.363845,0.54521 0.367194,0.550497 0.0033,0.0053 0.363492,0.729277 0.367194,0.734388 0.0037,0.0051 0.546737,0.72957 0.550791,0.734388 0.0041,0.0048 0.546384,0.546385 0.550791,0.550497 0.0044,0.0045 0.54609,0.546385 0.55079,0.550497 0.0047,0.0042 0.72943,0.546972 0.734388,0.550497 0.005,0.0039 0.545562,0.363669 0.550791,0.367194 0.0052,0.0035 0.728942,0.54756 0.734388,0.550498 0.0054,0.0032 0.728736,0.364256 0.734388,0.367193 0.0057,0.0028 0.728554,0.364844 0.734388,0.367194 0.0058,0.0023 0.728407,0.181541 0.734388,0.183304 0.0059,0.002 0.728283,0.182128 0.734387,0.183303 0.0059,0.0015 0.911787,0.182715 0.917985,0.183303 0.0065,0.0011 0.728125,0.182716 0.734388,0.183303 0.0065,7.05e-4 0.728096,-2.94e-4 0.734388,0 0.0065,2.35e-4 0.911687,1.76e-4 0.917985,0 0.0065,-1.76e-4 0.728119,5.88e-4 0.734388,0 0.0065,-5.87e-4 0.911774,-0.182715 0.917984,-0.183303 0.0065,-0.0011 0.728261,0.0015 0.734388,0 0.0059,-0.0015 0.728378,-0.365431 0.734388,-0.367194 0.0059,-0.0019 0.728525,-0.181541 0.734388,-0.183303 0.0059,-0.0023 0.728695,-0.364257 0.734388,-0.367194 a 5.7253255,5.7253255 0 0 0 0.183597,0 c 10.380566,-5.13437 21.056519,-9.018988 31.578679,-11.566609 10.59124,-2.537398 21.11425,-3.671763 31.76227,-3.671939 16.35476,1.76e-4 25.97715,3.686275 31.21149,8.996251 4.20373,4.143886 5.59106,10.073804 4.95711,18.543293 l -35.61781,0 c -31.59828,1.18e-4 -57.779129,6.083669 -77.845108,19.277682 -19.951562,13.2094 -33.123107,33.55888 -38.188169,58.75103 -4.30232,21.78036 -0.871953,41.65042 11.566609,56.36427 12.489699,14.62213 31.856241,21.48084 54.711895,21.48084 17.685913,0 33.861563,-3.15799 48.102403,-9.73064 2.65796,-1.25234 4.98801,-3.25181 7.52748,-4.77352 -0.0147,0.0529 2.8e-4,0.18213 0,0.1833 -0.001,0.005 -0.18272,0.5458 -0.1836,0.5505 -9.1e-4,0.005 6.1e-4,0.72916 0,0.73439 -6.1e-4,0.005 3.1e-4,0.7291 0,0.73439 -3.1e-4,0.005 -0.1836,0.54521 -0.1836,0.55049 0,0.005 0.18331,0.7291 0.1836,0.73439 3e-4,0.005 -6.1e-4,0.72916 0,0.73439 6e-4,0.005 -9.1e-4,0.5458 0,0.5505 9e-4,0.005 0.18236,0.72927 0.1836,0.73438 10e-4,0.005 0.18207,0.72934 0.18359,0.73439 0.001,0.005 0.18184,0.5458 0.1836,0.5505 0.002,0.005 0.36514,0.5458 0.36719,0.5505 0.002,0.005 0.18125,0.72968 0.1836,0.73438 0.002,0.005 0.36455,0.54639 0.3672,0.5505 0.003,0.005 0.36431,0.54639 0.36719,0.5505 0.003,0.004 0.36408,0.54638 0.36719,0.5505 0.003,0.004 0.36385,0.54697 0.3672,0.55049 0.003,0.004 0.5472,0.54697 0.55079,0.5505 0.004,0.004 0.36337,0.54697 0.36719,0.5505 0.004,0.004 0.5468,0.36367 0.55079,0.36719 0.004,0.003 0.54656,0.36426 0.55079,0.36719 0.004,0.003 0.54639,0.36426 0.55079,0.3672 0.004,0.003 0.54627,0.36425 0.5508,0.36719 0.005,0.003 0.54609,0.36485 0.55079,0.3672 0.005,0.002 0.72956,0.36484 0.73438,0.36719 0.005,0.002 0.54586,0.18154 0.5508,0.1833 0.005,0.002 0.72935,0.18213 0.73438,0.18331 0.005,0.002 0.54568,0.18212 0.55079,0.1833 0.005,0.001 0.72921,0.18272 0.73439,0.1833 0.005,9.4e-4 0.54556,0.18272 0.55079,0.18331 0.005,6.4e-4 0.72913,-3.6e-4 0.73439,0 0.005,3.5e-4 0.72912,-6e-5 0.73439,0 l 33.04745,0 c 0.008,0 0.91024,6.4e-4 0.91799,0 0.008,-6.5e-4 1.09391,-0.18213 1.10158,-0.18331 0.008,-0.001 0.91046,-0.18154 0.91798,-0.1833 0.008,-0.002 0.91066,-0.18095 0.91799,-0.1833 0.007,-0.003 0.9109,-0.54756 0.91798,-0.5505 0.007,-0.003 0.91121,-0.36308 0.91799,-0.36719 0.007,-0.004 0.91155,-0.54639 0.91798,-0.5505 0.006,-0.004 0.72836,-0.5458 0.73439,-0.5505 0.006,-0.005 0.7288,-0.72898 0.73439,-0.73439 0.006,-0.005 0.72927,-0.72851 0.73439,-0.73438 0.005,-0.006 0.72979,-0.72811 0.73438,-0.73439 0.005,-0.006 0.54674,-0.72775 0.55079,-0.73439 0.004,-0.006 0.36373,-0.91099 0.3672,-0.91799 0.003,-0.006 0.36431,-0.91075 0.36719,-0.91798 0.003,-0.006 0.36496,-0.91052 0.3672,-0.91798 0.002,-0.006 0.12073,-0.66947 0.18359,-0.91799 0.0159,-0.0623 0.18331,-0.18213 0.1836,-0.1833 l -0.1836,0 26.80516,-119.88177 a 5.7253255,5.7253255 0 0 0 0.1836,-0.36719 5.7253255,5.7253255 0 0 0 0,-0.73439 C 236.17062,83.366999 233.98287,56.782687 219.7988,37.969551 205.50374,19.010359 180.82489,10.797435 149.66476,10.7972 z m 0,128.51787 17.44172,0 c -4.31869,16.0804 -11.15934,29.05368 -21.48085,38.92256 -11.77507,11.06552 -24.16033,16.34019 -39.65694,16.34013 -11.35142,6e-5 -17.372459,-2.59973 -20.930057,-6.42589 -3.746694,-4.10012 -4.876294,-8.30928 -2.937551,-17.80891 a 5.7253255,5.7253255 0 0 0 0,-0.1833 c 2.404509,-12.32332 6.856897,-18.3993 15.422148,-22.94962 8.18763,-4.30481 26.32922,-7.89461 52.14153,-7.89467 z"
       id="path3964"
       style="font-size:20.89795876px;font-style:italic;font-variant:normal;font-weight:normal;font-stretch:normal;text-align:start;line-height:125%;writing-mode:lr-tb;text-anchor:start;opacity:0.1;fill:#000000;fill-opacity:1;stroke:none;display:inline;font-family:sans;-inkscape-font-specification:Abandoned Bitplane Italic"
       inkscape:connector-curvature="0" />
    <path
       d="m 149.66476,16.488706 c -11.26306,2.35e-4 -22.87676,1.393046 -35.06702,3.855536 -12.04427,2.335295 -24.831212,5.686101 -38.188164,10.465027 a 5.9980863,5.9980863 0 0 0 -3.855536,4.406327 l -6.242297,30.660693 a 5.9980863,5.9980863 0 0 0 8.44546,6.609491 c 10.77901,-5.331421 21.939107,-9.288714 32.863857,-11.933803 11.03983,-2.644854 21.98198,-3.85536 33.04745,-3.855536 17.20118,1.76e-4 28.51444,3.815115 35.25062,10.648624 6.50617,6.413497 8.59729,15.372147 6.42589,28.273932 l -41.12572,0 c -30.85862,1.17e-4 -55.897704,5.980853 -74.72396,18.359693 -18.678662,12.36662 -30.805015,31.14163 -35.617811,55.07909 -4.070206,20.60528 -0.866713,38.40338 10.28143,51.59075 11.182007,13.0912 28.56834,19.46128 50.305568,19.46128 17.010973,0 32.343973,-3.00835 45.715643,-9.17985 6.82235,-3.21439 13.35117,-7.53 19.46128,-12.48459 l -3.85554,13.95336 a 5.9980863,5.9980863 0 0 0 5.69151,7.71108 l 33.04745,0 a 5.9980863,5.9980863 0 0 0 5.8751,-4.77352 l 26.80516,-120.07242 a 5.9980863,5.9980863 0 0 0 0,-0.1833 C 230.49631,83.500305 228.09824,58.554089 215.20888,41.458187 202.33419,24.382788 179.82609,16.489235 149.66476,16.489 z m 0,117.134864 25.33639,0 a 5.9980863,5.9980863 0 0 0 0,0.1833 c -4.12296,20.61397 -12.62864,36.50272 -25.33639,48.6532 -12.68031,11.96494 -26.82406,17.80896 -43.69607,17.8089 -12.27339,6e-5 -20.227594,-2.96487 -25.152787,-8.26186 -4.947442,-5.41408 -6.553953,-12.24289 -4.406327,-22.76602 a 5.9980863,5.9980863 0 0 0 0,-0.18331 c 2.623768,-13.44705 8.423599,-21.71015 18.359694,-26.98875 9.94414,-5.22831 28.61599,-8.4454 54.89549,-8.44546 z"
       id="path3960"
       style="font-size:20.89795876px;font-style:italic;font-variant:normal;font-weight:normal;font-stretch:normal;text-align:start;line-height:125%;writing-mode:lr-tb;text-anchor:start;opacity:0.15;fill:#000000;fill-opacity:1;stroke:none;display:inline;font-family:sans;-inkscape-font-specification:Abandoned Bitplane Italic"
       inkscape:connector-curvature="0" />
    <path
       d="m 149.60493,127.57985 c -26.73782,1.2e-4 -45.92182,3.05752 -57.552017,9.17233 -11.510484,6.11504 -18.704477,16.54629 -21.582008,31.29391 -2.398071,11.75026 -0.419718,21.10249 5.935052,28.05661 6.354623,6.83433 16.186413,10.25153 29.495403,10.25147 18.3446,6e-5 34.35123,-6.4746 48.01997,-19.4238 13.66844,-13.06905 22.66093,-30.39461 26.97751,-51.97668 l 1.61871,-7.37384 -32.91256,0 m 68.70272,-13.6686 -26.70344,120.13986 -33.09241,0 9.79754,-35.79019 c -9.95186,12.22985 -21.16251,21.28227 -33.63198,27.15737 -12.46971,5.75519 -26.85771,8.63282 -43.164006,8.63282 -20.622874,0 -35.850166,-5.75525 -45.681915,-17.26564 C 35.999661,205.15518 33.002166,189.62816 36.838996,170.20431 41.395162,147.54327 52.366,130.45753 69.751557,118.94703 87.256878,107.43677 111.05701,101.68157 141.15203,101.68146 l 46.40131,0 0.71947,-3.237302 c 2.9972,-15.227209 0.29945,-26.977356 -8.09337,-35.250676 -8.27326,-8.392761 -21.46226,-12.589288 -39.56701,-12.589464 -11.51053,1.76e-4 -23.02093,1.379004 -34.53121,4.136542 -11.3906,2.757891 -22.661195,6.894433 -33.811817,12.409627 l 6.114901,-30.574505 c 13.069019,-4.675876 25.478666,-8.152997 37.228966,-10.431244 11.86998,-2.397806 23.20053,-3.596797 33.99166,-3.597032 29.13553,2.35e-4 49.39862,7.553913 60.78933,22.661094 11.39029,15.107592 14.02807,38.008449 7.9134,68.70275"
       inkscape:connector-curvature="0"
       id="path3954"
       style="font-size:20.89795876px;font-style:italic;font-variant:normal;font-weight:normal;font-stretch:normal;text-align:start;line-height:125%;writing-mode:lr-tb;text-anchor:start;opacity:0.3;fill:#000000;fill-opacity:1;stroke:none;display:inline;font-family:sans;-inkscape-font-specification:Abandoned Bitplane Italic" />
    <path
       d="m 149.60493,121.70475 c -26.73782,1.1e-4 -45.92182,3.05752 -57.552017,9.17233 -11.510484,6.11504 -18.704477,16.54628 -21.582008,31.29391 -2.398071,11.75026 -0.419718,21.10248 5.935052,28.05661 6.354623,6.83433 16.186413,10.25152 29.495403,10.25147 18.3446,5e-5 34.35123,-6.4746 48.01997,-19.4238 13.66844,-13.06905 22.66093,-30.39461 26.97751,-51.97668 l 1.61871,-7.37384 -32.91256,0 m 68.70272,-13.66861 -26.70344,120.13986 -33.09241,0 9.79754,-35.79018 c -9.95186,12.22985 -21.16251,21.28226 -33.63198,27.15737 -12.46971,5.75519 -26.85771,8.63281 -43.164006,8.63281 -20.622874,0 -35.850166,-5.75525 -45.681915,-17.26563 C 35.999661,199.28007 33.002166,183.75306 36.838996,164.32921 41.395162,141.66817 52.366,124.58243 69.751557,113.07193 87.256878,101.56166 111.05701,95.806471 141.15203,95.806354 l 46.40131,0 0.71947,-3.237299 c 2.9972,-15.227209 0.29945,-26.977356 -8.09337,-35.250676 -8.27326,-8.392761 -21.46226,-12.589288 -39.56701,-12.589464 -11.51053,1.76e-4 -23.02093,1.379004 -34.53121,4.136542 -11.3906,2.757891 -22.661195,6.894434 -33.811817,12.409628 L 78.384304,30.70058 c 13.069019,-4.675877 25.478666,-8.152998 37.228966,-10.431245 11.86998,-2.397806 23.20053,-3.596797 33.99166,-3.597032 29.13553,2.35e-4 49.39862,7.553914 60.78933,22.661094 11.39029,15.107592 14.02807,38.008449 7.9134,68.702743"
       inkscape:connector-curvature="0"
       id="path2864"
       style="font-size:20.89795876px;font-style:italic;font-variant:normal;font-weight:normal;font-stretch:normal;text-align:start;line-height:125%;writing-mode:lr-tb;text-anchor:start;fill:url(#linearGradient4209);fill-opacity:1;stroke:none;display:inline;font-family:sans;-inkscape-font-specification:Abandoned Bitplane Italic" />
    <path
       d="m 149.66476,16.672303 c -10.79113,2.35e-4 -22.09546,1.274134 -33.96543,3.671939 -11.75031,2.278306 -24.201168,5.605495 -37.270187,10.28143 l -6.242297,30.660693 c 0.419717,-0.207391 0.865109,-0.347219 1.285179,-0.550497 l 4.957118,-24.235093 c 13.069019,-4.675936 25.519877,-8.003124 37.270187,-10.28143 11.86997,-2.397806 23.1743,-3.671704 33.96543,-3.671939 29.13553,2.35e-4 49.37989,7.475245 60.7706,22.582426 6.9121,9.167922 10.55004,21.260763 11.01582,36.168602 0.39809,-17.623781 -3.22553,-31.710985 -11.01582,-42.043705 -11.39071,-15.10718 -31.63507,-22.582191 -60.7706,-22.582426 z m 39.65695,67.196488 c -0.14253,2.777514 -0.49968,5.571066 -1.10158,8.629058 l -0.73439,3.304745 -46.26644,0 c -30.09501,1.17e-4 -53.913893,5.747846 -71.419215,17.258116 -17.385557,11.5105 -28.491287,28.56252 -33.047453,51.22355 -1.255592,6.35639 -1.493375,12.28713 -1.285179,17.80891 0.19758,-3.77987 0.468833,-7.80114 1.285179,-11.93381 4.556166,-22.66103 15.661896,-39.71305 33.047453,-51.22355 17.505322,-11.51026 41.324205,-17.258 71.419215,-17.25811 l 46.26644,0 0.73439,-3.304749 c 1.04081,-5.287768 1.43428,-10.054944 1.10158,-14.50416 z m -8.07827,43.696079 -0.36719,1.46877 c -4.31658,21.58208 -13.32032,38.8889 -26.98876,51.95794 -13.66874,12.9492 -29.57421,19.46134 -47.9188,19.46128 -13.308997,6e-5 -23.204491,-3.4471 -29.559114,-10.28143 -3.971734,-4.34634 -6.240434,-9.56954 -6.793088,-15.78934 -0.614988,8.81642 1.629836,16.01418 6.793088,21.66445 6.354623,6.83433 16.250117,10.28148 29.559114,10.28143 18.34459,5e-5 34.25006,-6.51209 47.9188,-19.46128 13.66844,-13.06905 22.67218,-30.37587 26.98876,-51.95794 l 1.65237,-7.34388 -1.28518,0 z m -12.85179,70.68483 c -0.75397,0.92656 -1.61834,1.68028 -2.38676,2.57036 l -7.52747,27.35594 1.65237,0 8.26186,-29.9263 z"
       inkscape:connector-curvature="0"
       id="path3936"
       style="font-size:20.89795876px;font-style:italic;font-variant:normal;font-weight:normal;font-stretch:normal;text-align:start;line-height:125%;writing-mode:lr-tb;text-anchor:start;opacity:0.75;fill:#ffffff;fill-opacity:1;stroke:none;display:inline;font-family:sans;-inkscape-font-specification:Abandoned Bitplane Italic" />
    <path
       d="m 140.66851,38.887535 c -11.51052,1.77e-4 -23.00594,1.281595 -34.51623,4.039134 -10.96183,2.654077 -21.940673,6.726052 -32.680255,11.933802 l -1.285179,6.425894 c 11.150622,-5.515194 22.574844,-9.726703 33.965434,-12.484594 11.51029,-2.757538 23.00571,-4.038957 34.51623,-4.039133 18.10476,1.76e-4 31.20008,4.091774 39.47335,12.484594 5.47833,5.400277 8.55448,12.383306 9.17985,20.746456 0.5673,-11.053124 -2.47252,-20.009777 -9.17985,-26.621559 -8.27327,-8.39282 -21.36859,-12.484417 -39.47335,-12.484594 z m 80.78267,36.535796 c -0.18395,8.144185 -1.18855,17.103952 -3.12115,26.805159 l -26.80516,120.07241 -31.39508,0 -1.65237,5.8751 33.04745,0 26.80516,-120.07241 c 2.40403,-12.067696 3.42291,-23.021825 3.12115,-32.680259 z m -71.78642,40.391329 c -26.73782,6e-5 -46.01924,3.06504 -57.649442,9.17985 -11.510484,6.11498 -18.603313,16.46386 -21.480845,31.21148 -0.899278,4.40633 -1.249575,8.56914 -0.917985,12.301 0.141943,-2.03455 0.468364,-4.22273 0.917985,-6.42589 2.877532,-14.74763 9.970361,-25.0965 21.480845,-31.21149 11.630202,-6.1148 30.911622,-9.17979 57.649442,-9.17984 l 31.57868,0 1.28518,-5.87511 -32.86386,0 z m -114.197307,60.4034 c -0.731051,13.98574 2.541452,25.54407 10.28143,34.69983 9.83175,11.51038 25.09277,17.25811 45.715644,17.25811 16.306303,0 30.675573,-2.87386 43.145283,-8.62905 11.52476,-5.43001 22.0209,-13.74369 31.39508,-24.602 l 2.38676,-8.44546 c -9.95186,12.22979 -21.31237,21.29725 -33.78184,27.17235 -12.46971,5.7552 -26.83898,8.62906 -43.145283,8.62906 -20.622874,0 -35.883894,-5.74773 -45.715644,-17.25811 -6.614396,-7.82429 -9.853423,-17.47309 -10.28143,-28.82473 z"
       inkscape:connector-curvature="0"
       id="path3945"
       style="font-size:20.89795876px;font-style:italic;font-variant:normal;font-weight:normal;font-stretch:normal;text-align:start;line-height:125%;writing-mode:lr-tb;text-anchor:start;opacity:0.15;fill:#000000;fill-opacity:1;stroke:none;display:inline;font-family:sans;-inkscape-font-specification:Abandoned Bitplane Italic" />
  </g>
</svg>
