<?xml version="1.0" encoding="UTF-8" standalone="no"?>
<!-- Created with Inkscape (http://www.inkscape.org/) -->

<svg
   xmlns:dc="http://purl.org/dc/elements/1.1/"
   xmlns:cc="http://creativecommons.org/ns#"
   xmlns:rdf="http://www.w3.org/1999/02/22-rdf-syntax-ns#"
   xmlns:svg="http://www.w3.org/2000/svg"
   xmlns="http://www.w3.org/2000/svg"
   xmlns:xlink="http://www.w3.org/1999/xlink"
   xmlns:sodipodi="http://sodipodi.sourceforge.net/DTD/sodipodi-0.dtd"
   xmlns:inkscape="http://www.inkscape.org/namespaces/inkscape"
   version="1.0"
   width="256"
   height="256"
   id="svg2408"
   inkscape:version="0.48.3.1 r9886"
   sodipodi:docname="format-text-direction-rtl.svg">
  <sodipodi:namedview
     pagecolor="#ffffff"
     bordercolor="#666666"
     borderopacity="1"
     objecttolerance="10"
     gridtolerance="10"
     guidetolerance="10"
     inkscape:pageopacity="0"
     inkscape:pageshadow="2"
     inkscape:window-width="1024"
     inkscape:window-height="572"
     id="namedview3917"
     showgrid="false"
     inkscape:zoom="1.6367188"
     inkscape:cx="117.30788"
     inkscape:cy="128"
     inkscape:window-x="0"
     inkscape:window-y="28"
     inkscape:window-maximized="1"
     inkscape:current-layer="svg2408" />
  <defs
     id="defs2410">
    <linearGradient
       id="linearGradient3637">
      <stop
         id="stop3639"
         style="stop-color:#5a5a5a;stop-opacity:1;"
         offset="0" />
      <stop
         id="stop3641"
         style="stop-color:#000000;stop-opacity:1;"
         offset="1" />
    </linearGradient>
    <linearGradient
       x1="45.447727"
       y1="92.539597"
       x2="45.447727"
       y2="7.0165396"
       id="ButtonShadow"
       gradientUnits="userSpaceOnUse"
       gradientTransform="scale(1.0058652,0.994169)">
      <stop
         id="stop3750"
         style="stop-color:#000000;stop-opacity:1"
         offset="0" />
      <stop
         id="stop3752"
         style="stop-color:#000000;stop-opacity:0.58823532"
         offset="1" />
    </linearGradient>
    <linearGradient
       id="linearGradient3737">
      <stop
         id="stop3739"
         style="stop-color:#ffffff;stop-opacity:1"
         offset="0" />
      <stop
         id="stop3741"
         style="stop-color:#ffffff;stop-opacity:0"
         offset="1" />
    </linearGradient>
    <linearGradient
       id="linearGradient3700">
      <stop
         id="stop3702"
         style="stop-color:#2276c5;stop-opacity:1"
         offset="0" />
      <stop
         id="stop3704"
         style="stop-color:#68baf4;stop-opacity:1"
         offset="1" />
    </linearGradient>
    <filter
       color-interpolation-filters="sRGB"
       id="filter3174">
      <feGaussianBlur
         id="feGaussianBlur3176"
         stdDeviation="1.71" />
    </filter>
    <linearGradient
       x1="36.357143"
       y1="6"
       x2="36.357143"
       y2="63.893143"
       id="linearGradient3188"
       xlink:href="#linearGradient3737"
       gradientUnits="userSpaceOnUse" />
    <filter
       x="-0.192"
       y="-0.192"
       width="1.3839999"
       height="1.3839999"
       color-interpolation-filters="sRGB"
       id="filter3794">
      <feGaussianBlur
         id="feGaussianBlur3796"
         stdDeviation="5.28" />
    </filter>
    <linearGradient
       x1="48"
       y1="20.220806"
       x2="48"
       y2="138.66119"
       id="linearGradient3613"
       xlink:href="#linearGradient3737"
       gradientUnits="userSpaceOnUse" />
    <radialGradient
       cx="48"
       cy="90.171875"
       r="42"
       fx="48"
       fy="90.171875"
       id="radialGradient3619"
       xlink:href="#linearGradient3737"
       gradientUnits="userSpaceOnUse"
       gradientTransform="matrix(1.1573129,0,0,0.99590774,-7.5510206,0.19713193)" />
    <clipPath
       id="clipPath3613">
      <rect
         width="84"
         height="84"
         rx="6"
         ry="6"
         x="6"
         y="6"
         id="rect3615"
         style="fill:#ffffff;fill-opacity:1;fill-rule:nonzero;stroke:none" />
    </clipPath>
    <linearGradient
       x1="48"
       y1="90"
       x2="48"
       y2="5.9877172"
       id="linearGradient2843"
       xlink:href="#linearGradient3700"
       gradientUnits="userSpaceOnUse"
       gradientTransform="translate(0,100)" />
    <clipPath
       id="clipPath3625">
      <path
         d="M 0,0 0,96 96,96 96,0 0,0 z m 12,6 72,0 c 3.324,0 6,2.676 6,6 l 0,72 c 0,3.324 -2.676,6 -6,6 L 12,90 C 8.676,90 6,87.324 6,84 L 6,12 C 6,8.676 8.676,6 12,6 z"
         inkscape:connector-curvature="0"
         id="path3627"
         style="fill:#ffffff;fill-opacity:1;stroke:none" />
    </clipPath>
    <linearGradient
       x1="44.512066"
       y1="6"
       x2="44.512066"
       y2="90.015434"
       id="linearGradient3643"
       xlink:href="#linearGradient3637"
       gradientUnits="userSpaceOnUse" />
    <clipPath
       id="clipPath3649">
      <rect
         width="76"
         height="76"
         rx="4"
         ry="4"
         x="10"
         y="10"
         id="rect3651"
         style="fill:#ffffff;fill-opacity:1;fill-rule:nonzero;stroke:none" />
    </clipPath>
    <filter
       color-interpolation-filters="sRGB"
       id="filter3657">
      <feGaussianBlur
         id="feGaussianBlur3659"
         stdDeviation="1.14" />
    </filter>
    <linearGradient
       inkscape:collect="always"
       xlink:href="#linearGradient3637"
       id="linearGradient7274"
       gradientUnits="userSpaceOnUse"
       gradientTransform="matrix(-12.663942,0,0,12.663942,266.37076,-11.70007)"
       x1="10.710332"
       y1="1.9963325"
       x2="10.710332"
       y2="18.974037" />
  </defs>
  <metadata
     id="metadata2413">
    <rdf:RDF>
      <cc:Work
         rdf:about="">
        <dc:format>image/svg+xml</dc:format>
        <dc:type
           rdf:resource="http://purl.org/dc/dcmitype/StillImage" />
        <dc:title></dc:title>
      </cc:Work>
    </rdf:RDF>
  </metadata>
  <g
     id="layer2"
     style="display:none"
     transform="translate(0,160)">
    <rect
       width="86"
       height="85"
       rx="6"
       ry="6"
       x="5"
       y="7"
       clip-path="url(#clipPath3625)"
       id="rect3745"
       style="opacity:0.9;fill:url(#ButtonShadow);fill-opacity:1;fill-rule:nonzero;stroke:none;filter:url(#filter3174)" />
  </g>
  <g
     id="layer1"
     style="display:none"
     transform="translate(0,160)">
    <rect
       width="84"
       height="84"
       rx="6"
       ry="6"
       x="6"
       y="6"
       id="rect2419"
       style="opacity:0.8;fill:#000000;fill-opacity:1;fill-rule:nonzero;stroke:none" />
    <path
       d="m 14,10 c -2.216,0 -4,1.784 -4,4 l 0,68 c 0,2.216 1.784,4 4,4 l 68,0 c 2.216,0 4,-1.784 4,-4 l 0,-68 c 0,-2.216 -1.784,-4 -4,-4 l -68,0 z m 0,3.0625 68,0 c 0.578769,0 0.9375,0.358731 0.9375,0.9375 l 0,68 c 0,0.578769 -0.358731,0.9375 -0.9375,0.9375 l -68,0 c -0.578769,0 -0.9375,-0.358731 -0.9375,-0.9375 l 0,-68 c 0,-0.578769 0.358731,-0.9375 0.9375,-0.9375 z"
       inkscape:connector-curvature="0"
       id="rect3726"
       style="opacity:0.07999998;fill:#000000;fill-opacity:1;fill-rule:nonzero;stroke:none" />
    <path
       d="M 12,6 C 8.676,6 6,8.676 6,12 l 0,72 c 0,3.324 2.676,6 6,6 l 72,0 c 3.324,0 6,-2.676 6,-6 L 90,12 C 90,8.676 87.324,6 84,6 L 12,6 z m 2,4 68,0 c 2.216,0 4,1.784 4,4 l 0,68 c 0,2.216 -1.784,4 -4,4 l -68,0 c -2.216,0 -4,-1.784 -4,-4 l 0,-68 c 0,-2.216 1.784,-4 4,-4 z"
       inkscape:connector-curvature="0"
       id="rect3629"
       style="fill:url(#linearGradient3643);fill-opacity:1;fill-rule:nonzero;stroke:none" />
    <path
       d="M 12,6 C 8.676,6 6,8.676 6,12 l 0,2 0,68 0,2 c 0,0.334721 0.04135,0.6507 0.09375,0.96875 0.0487,0.295596 0.09704,0.596915 0.1875,0.875 0.00988,0.03038 0.020892,0.0636 0.03125,0.09375 0.098865,0.287771 0.2348802,0.547452 0.375,0.8125 0.1445918,0.273507 0.3156161,0.535615 0.5,0.78125 0.1843839,0.245635 0.3737765,0.473472 0.59375,0.6875 0.439947,0.428056 0.94291,0.814526 1.5,1.09375 0.278545,0.139612 0.5734731,0.246947 0.875,0.34375 -0.2562018,-0.100222 -0.4867109,-0.236272 -0.71875,-0.375 -0.00741,-0.0044 -0.023866,0.0045 -0.03125,0 -0.031933,-0.0193 -0.062293,-0.04251 -0.09375,-0.0625 -0.120395,-0.0767 -0.2310226,-0.163513 -0.34375,-0.25 -0.1061728,-0.0808 -0.2132809,-0.161112 -0.3125,-0.25 C 8.4783201,88.557317 8.3087904,88.373362 8.15625,88.1875 8.0486711,88.057245 7.9378561,87.922215 7.84375,87.78125 7.818661,87.74287 7.805304,87.69538 7.78125,87.65625 7.716487,87.553218 7.6510225,87.451733 7.59375,87.34375 7.4927417,87.149044 7.3880752,86.928049 7.3125,86.71875 7.30454,86.69694 7.288911,86.6782 7.28125,86.65625 7.2494249,86.5643 7.2454455,86.469419 7.21875,86.375 7.1884177,86.268382 7.1483606,86.171969 7.125,86.0625 7.0521214,85.720988 7,85.364295 7,85 L 7,83 7,15 7,13 C 7,10.218152 9.2181517,8 12,8 l 2,0 68,0 2,0 c 2.781848,0 5,2.218152 5,5 l 0,2 0,68 0,2 c 0,0.364295 -0.05212,0.720988 -0.125,1.0625 -0.04415,0.206893 -0.08838,0.397658 -0.15625,0.59375 -0.0077,0.02195 -0.0233,0.04069 -0.03125,0.0625 -0.06274,0.173739 -0.138383,0.367449 -0.21875,0.53125 -0.04158,0.0828 -0.07904,0.169954 -0.125,0.25 -0.0546,0.09721 -0.126774,0.18835 -0.1875,0.28125 -0.09411,0.140965 -0.204921,0.275995 -0.3125,0.40625 -0.143174,0.17445 -0.303141,0.346998 -0.46875,0.5 -0.01117,0.0102 -0.01998,0.02115 -0.03125,0.03125 -0.138386,0.125556 -0.285091,0.234436 -0.4375,0.34375 -0.102571,0.07315 -0.204318,0.153364 -0.3125,0.21875 -0.0074,0.0045 -0.02384,-0.0044 -0.03125,0 -0.232039,0.138728 -0.462548,0.274778 -0.71875,0.375 0.301527,-0.0968 0.596455,-0.204138 0.875,-0.34375 0.55709,-0.279224 1.060053,-0.665694 1.5,-1.09375 0.219973,-0.214028 0.409366,-0.441865 0.59375,-0.6875 0.184384,-0.245635 0.355408,-0.507743 0.5,-0.78125 0.14012,-0.265048 0.276135,-0.524729 0.375,-0.8125 0.01041,-0.03078 0.02133,-0.06274 0.03125,-0.09375 0.09046,-0.278085 0.1388,-0.579404 0.1875,-0.875 C 89.95865,84.6507 90,84.334721 90,84 l 0,-2 0,-68 0,-2 C 90,8.676 87.324,6 84,6 L 12,6 z"
       inkscape:connector-curvature="0"
       id="rect3728"
       style="fill:url(#linearGradient3188);fill-opacity:1;fill-rule:nonzero;stroke:none" />
    <path
       d="M 12,90 C 8.676,90 6,87.324 6,84 L 6,82 6,14 6,12 c 0,-0.334721 0.04135,-0.6507 0.09375,-0.96875 0.0487,-0.295596 0.09704,-0.596915 0.1875,-0.875 C 6.29113,10.12587 6.302142,10.09265 6.3125,10.0625 6.411365,9.774729 6.5473802,9.515048 6.6875,9.25 6.8320918,8.976493 7.0031161,8.714385 7.1875,8.46875 7.3718839,8.223115 7.5612765,7.995278 7.78125,7.78125 8.221197,7.353194 8.72416,6.966724 9.28125,6.6875 9.559795,6.547888 9.8547231,6.440553 10.15625,6.34375 9.9000482,6.443972 9.6695391,6.580022 9.4375,6.71875 c -0.00741,0.0044 -0.023866,-0.0045 -0.03125,0 -0.031933,0.0193 -0.062293,0.04251 -0.09375,0.0625 -0.120395,0.0767 -0.2310226,0.163513 -0.34375,0.25 -0.1061728,0.0808 -0.2132809,0.161112 -0.3125,0.25 C 8.4783201,7.442683 8.3087904,7.626638 8.15625,7.8125 8.0486711,7.942755 7.9378561,8.077785 7.84375,8.21875 7.818661,8.25713 7.805304,8.30462 7.78125,8.34375 7.716487,8.446782 7.6510225,8.548267 7.59375,8.65625 7.4927417,8.850956 7.3880752,9.071951 7.3125,9.28125 7.30454,9.30306 7.288911,9.3218 7.28125,9.34375 7.2494249,9.4357 7.2454455,9.530581 7.21875,9.625 7.1884177,9.731618 7.1483606,9.828031 7.125,9.9375 7.0521214,10.279012 7,10.635705 7,11 l 0,2 0,68 0,2 c 0,2.781848 2.2181517,5 5,5 l 2,0 68,0 2,0 c 2.781848,0 5,-2.218152 5,-5 l 0,-2 0,-68 0,-2 C 89,10.635705 88.94788,10.279012 88.875,9.9375 88.83085,9.730607 88.78662,9.539842 88.71875,9.34375 88.71105,9.3218 88.69545,9.30306 88.6875,9.28125 88.62476,9.107511 88.549117,8.913801 88.46875,8.75 88.42717,8.6672 88.38971,8.580046 88.34375,8.5 88.28915,8.40279 88.216976,8.31165 88.15625,8.21875 88.06214,8.077785 87.951329,7.942755 87.84375,7.8125 87.700576,7.63805 87.540609,7.465502 87.375,7.3125 87.36383,7.3023 87.35502,7.29135 87.34375,7.28125 87.205364,7.155694 87.058659,7.046814 86.90625,6.9375 86.803679,6.86435 86.701932,6.784136 86.59375,6.71875 c -0.0074,-0.0045 -0.02384,0.0044 -0.03125,0 -0.232039,-0.138728 -0.462548,-0.274778 -0.71875,-0.375 0.301527,0.0968 0.596455,0.204138 0.875,0.34375 0.55709,0.279224 1.060053,0.665694 1.5,1.09375 0.219973,0.214028 0.409366,0.441865 0.59375,0.6875 0.184384,0.245635 0.355408,0.507743 0.5,0.78125 0.14012,0.265048 0.276135,0.524729 0.375,0.8125 0.01041,0.03078 0.02133,0.06274 0.03125,0.09375 0.09046,0.278085 0.1388,0.579404 0.1875,0.875 C 89.95865,11.3493 90,11.665279 90,12 l 0,2 0,68 0,2 c 0,3.324 -2.676,6 -6,6 l -72,0 z"
       inkscape:connector-curvature="0"
       id="path3615"
       style="opacity:0.6;fill:url(#radialGradient3619);fill-opacity:1;fill-rule:nonzero;stroke:none" />
    <rect
       width="84"
       height="84"
       rx="6"
       ry="6"
       x="6"
       y="106"
       id="rect2841"
       style="fill:url(#linearGradient2843);fill-opacity:1;fill-rule:nonzero;stroke:none" />
    <rect
       width="76"
       height="76"
       rx="4"
       ry="4"
       x="10"
       y="110"
       id="rect3634"
       style="fill:#ff0000;fill-opacity:1;fill-rule:nonzero;stroke:none" />
    <path
       d="m 14,9 c -2.752703,0 -5,2.247297 -5,5 l 0,68 c 0,2.752703 2.247297,5 5,5 l 68,0 c 2.752703,0 5,-2.247297 5,-5 L 87,14 C 87,11.247297 84.752703,9 82,9 L 14,9 z m 0,2 68,0 c 1.679297,0 3,1.320703 3,3 l 0,68 c 0,1.679297 -1.320703,3 -3,3 l -68,0 c -1.679297,0 -3,-1.320703 -3,-3 l 0,-68 c 0,-1.679297 1.320703,-3 3,-3 z"
       inkscape:connector-curvature="0"
       transform="translate(-110,0)"
       clip-path="url(#clipPath3649)"
       id="rect3647"
       style="font-size:medium;font-style:normal;font-variant:normal;font-weight:normal;font-stretch:normal;text-indent:0;text-align:start;text-decoration:none;line-height:normal;letter-spacing:normal;word-spacing:normal;text-transform:none;direction:ltr;block-progression:tb;writing-mode:lr-tb;text-anchor:start;color:#000000;fill:#000000;fill-opacity:1;stroke:none;stroke-width:2;marker:none;visibility:visible;display:inline;overflow:visible;filter:url(#filter3657);enable-background:accumulate;font-family:Abandoned Bitplane;-inkscape-font-specification:Abandoned Bitplane" />
    <path
       d="m 14.089286,10 c -2.216,0 -4,1.784 -4,4 l 0,68 c 0,2.216 1.784,4 4,4 l 68,0 c 2.216,0 4,-1.784 4,-4 l 0,-68 c 0,-2.216 -1.784,-4 -4,-4 l -68,0 z m 0,2 68,0 c 1.140301,0 2,0.859699 2,2 l 0,68 c 0,1.140301 -0.859699,2 -2,2 l -68,0 c -1.140301,0 -2,-0.859699 -2,-2 l 0,-68 c 0,-1.140301 0.859699,-2 2,-2 z"
       inkscape:connector-curvature="0"
       id="path3709"
       style="opacity:0.16000001;fill:#000000;fill-opacity:1;fill-rule:nonzero;stroke:none" />
    <path
       d="m 14,10 c -2.216,0 -4,1.784 -4,4 l 0,68 c 0,2.216 1.784,4 4,4 l 68,0 c 2.216,0 4,-1.784 4,-4 l 0,-68 c 0,-2.216 -1.784,-4 -4,-4 l -68,0 z m 0,1 68,0 c 1.673848,0 3,1.326152 3,3 l 0,68 c 0,1.673848 -1.326152,3 -3,3 l -68,0 c -1.673848,0 -3,-1.326152 -3,-3 l 0,-68 c 0,-1.673848 1.326152,-3 3,-3 z"
       inkscape:connector-curvature="0"
       id="path3707"
       style="opacity:0.36000001;fill:#000000;fill-opacity:1;fill-rule:nonzero;stroke:none" />
  </g>
  <g
     id="layer5"
     style="display:none"
     transform="translate(0,160)">
    <rect
       width="66"
       height="66"
       rx="12"
       ry="12"
       x="15"
       y="15"
       clip-path="url(#clipPath3613)"
       id="rect3171"
       style="opacity:0.1;fill:url(#linearGradient3613);fill-opacity:1;fill-rule:nonzero;stroke:#ffffff;stroke-width:0.5;stroke-linecap:round;stroke-linejoin:miter;stroke-miterlimit:4;stroke-opacity:1;stroke-dasharray:none;stroke-dashoffset:0;filter:url(#filter3794)" />
  </g>
  <g
     id="g7266"
     transform="translate(-1.831421,0.18217394)">
    <path
       d="m 189.68629,10.821563 c -9.66531,-0.219425 -14.34287,9.264616 -20.90542,14.706579 -41.9347,42.062801 -84.072517,83.979698 -125.880277,126.133698 -9.286504,21.79254 -17.707182,44.39002 -26.688308,66.19229 -2.375105,7.4211 6.882476,14.12651 13.241772,9.81939 21.222238,-8.62287 42.757451,-16.72867 63.784383,-25.67383 46.2118,-45.90381 92.25409,-92.20968 138.32999,-138.197873 3.14777,-5.422388 3.30258,-13.366646 -0.92484,-18.232606 -11.05737,-10.649787 -21.75025,-21.897688 -32.76584,-32.501602 -2.43738,-1.47349 -5.41736,-1.497209 -8.19146,-2.246046 z m -5.28482,149.824457 c -6.57436,1.89746 -11.03141,7.95546 -16.65533,11.68599 -10.49459,8.63074 -21.55413,16.77671 -31.70071,25.70407 -3.67044,4.86997 -0.71796,11.49324 4.2791,14.07219 13.99706,10.95021 27.56791,22.54877 41.8309,33.09477 6.34954,2.60414 13.41835,-3.498 12.02295,-10.1597 -1.0703,-5.11291 0.57222,-7.51302 5.90465,-6.22323 12.60527,-0.09 25.2402,0.17884 37.82718,-0.1319 6.89842,-1.232 7.57098,-8.83748 7.00238,-14.49248 -0.25482,-10.12592 0.51587,-20.39186 -0.39637,-30.42844 -2.06137,-7.58565 -10.82086,-6.19714 -16.85252,-6.20965 -11.16178,0 -22.32355,0 -33.48532,0 0.004,-5.70468 1.28723,-13.4485 -5.1527,-16.2508 -1.51856,-0.55533 -3.00326,-0.79323 -4.62421,-0.66061 z M 63.115004,176.50046 c 2.629951,4.89585 7.820365,5.6312 0.0241,7.6897 -6.121741,4.08225 -3.312512,-0.72114 -1.411417,-4.621 0.462404,-1.02288 0.924813,-2.04581 1.387217,-3.0687 z"
       inkscape:connector-curvature="0"
       id="path3972"
       style="opacity:0.1;fill:#000000;fill-opacity:1;stroke:none;display:inline" />
    <path
       d="m 189.68629,15.049414 c -1.7203,0 -3.51636,0.311593 -5.1527,1.189083 l -0.26424,0.131909 a 4.5109344,4.5109344 0 0 0 -1.18908,0.924842 L 46.996323,153.51152 a 4.5109344,4.5109344 0 0 0 -1.056963,1.45333 l -25.367104,63.41776 a 4.5109344,4.5109344 0 0 0 5.945415,5.94541 l 63.41776,-25.3671 a 4.5109344,4.5109344 0 0 0 1.453324,-1.05696 L 227.60482,61.820012 a 4.5109344,4.5109344 0 0 0 0.6606,-0.660602 c 0.51282,-0.792891 0.56008,-1.041446 0.26424,-0.528481 0.9837,-1.705684 1.32121,-3.602932 1.32121,-5.416934 0,-1.814001 -0.33751,-3.711249 -1.32121,-5.416933 0.29583,0.512965 0.2486,0.26424 -0.26424,-0.528482 a 4.5109344,4.5109344 0 0 0 -0.6606,-0.660601 L 196.2923,17.29546 a 4.5109344,4.5109344 0 0 0 -0.6606,-0.660602 c -0.79287,-0.512838 -1.04142,-0.560063 -0.52848,-0.264241 -1.70569,-0.983694 -3.60294,-1.321203 -5.41693,-1.321203 z m -4.75634,149.824456 a 4.5109344,4.5109344 0 0 0 -2.24604,0.92485 l -42.27851,33.8228 a 4.5109344,4.5109344 0 0 0 0,7.1345 l 42.27851,33.8228 a 4.5109344,4.5109344 0 0 0 7.26662,-3.56724 l 0,-12.41932 46.24211,0 a 4.5109344,4.5109344 0 0 0 4.4921,-4.49209 l 0,-33.8228 a 4.5109344,4.5109344 0 0 0 -4.4921,-4.49209 l -46.24211,0 0,-12.41932 a 4.5109344,4.5109344 0 0 0 -5.02058,-4.49209 z m -118.379818,1.98181 0.264241,6.87026 a 4.5109344,4.5109344 0 0 0 4.492091,4.35997 l 6.473897,0 -1.585444,4.88845 -25.631345,11.36235 11.362349,-25.63135 4.624211,-1.84968 z"
       id="path3968"
       style="opacity:0.15;fill:#000000;fill-opacity:1;stroke:none;display:inline"
       inkscape:connector-curvature="0" />
    <path
       d="m 189.68629,19.541505 c -1.15732,0 -2.23459,0.252826 -3.17089,0.792722 L 186.25116,20.466136 50.167211,156.68241 24.800107,220.10017 88.217867,194.73307 224.43393,58.649124 c 0.0532,-0.08244 0.083,-0.179261 0.13212,-0.264241 0.53999,-0.9363 0.79273,-2.013556 0.79273,-3.170888 0,-1.157332 -0.25274,-2.234588 -0.79273,-3.170888 -0.0491,-0.08498 -0.0789,-0.181797 -0.13212,-0.26424 L 193.12142,20.466348 c -0.0822,-0.05327 -0.17914,-0.08287 -0.26425,-0.131909 -0.9363,-0.539981 -2.01357,-0.792722 -3.17088,-0.792722 z M 70.777983,160.11754 l 0.528481,13.47628 12.683552,0 -4.22785,12.68355 -38.050656,16.9114 16.911402,-38.05066 12.155071,-5.02057 z m 114.680457,9.24842 -42.27851,33.82281 42.27851,33.82281 0,-16.91141 50.7342,0 0,-33.8228 -50.7342,0 0,-16.91141 z"
       inkscape:connector-curvature="0"
       id="path3962"
       style="opacity:0.3;fill:#000000;fill-opacity:1;stroke:none;display:inline" />
    <path
       d="m 189.68629,15.313655 c -1.15732,0 -2.23459,0.252825 -3.17089,0.792722 L 186.25116,16.238286 50.167211,152.45456 24.800107,215.87232 88.217867,190.50522 224.43393,54.421273 c 0.0532,-0.08244 0.083,-0.179261 0.13212,-0.26424 0.53999,-0.9363 0.79273,-2.013557 0.79273,-3.170888 0,-1.157332 -0.25274,-2.234589 -0.79273,-3.170888 -0.0491,-0.08498 -0.0789,-0.181798 -0.13212,-0.264241 L 193.12142,16.238497 c -0.0822,-0.05327 -0.17914,-0.08287 -0.26425,-0.131909 -0.9363,-0.539981 -2.01357,-0.792722 -3.17088,-0.792722 z M 70.777983,155.88969 l 0.528481,13.47627 12.683552,0 -4.22785,12.68356 -38.050656,16.9114 16.911402,-38.05066 12.155071,-5.02057 z m 114.680457,9.24842 -42.27851,33.82281 42.27851,33.8228 0,-16.9114 50.7342,0 0,-33.8228 -50.7342,0 0,-16.91141 z"
       inkscape:connector-curvature="0"
       id="path3934"
       style="fill:url(#linearGradient7274);fill-opacity:1;stroke:none;display:inline" />
    <path
       d="m 189.68629,15.313655 c -1.15732,0 -2.23459,0.252825 -3.17089,0.792722 L 186.25116,16.238286 50.167211,152.45456 24.800107,215.87232 26.781912,215.0796 50.167211,156.68241 186.25116,20.466348 186.5154,20.334227 c 0.9363,-0.539981 2.01357,-0.792722 3.17089,-0.792722 1.15731,0 2.23458,0.252826 3.17088,0.792722 0.0851,0.04904 0.18201,0.07906 0.26425,0.131909 l 31.31251,31.312519 c 0.0532,0.08244 0.083,0.179261 0.13212,0.264241 0.19973,0.346261 0.40562,0.675188 0.52849,1.056962 0.20936,-0.650454 0.26424,-1.384663 0.26424,-2.113925 0,-1.157332 -0.25274,-2.234588 -0.79273,-3.170888 -0.0491,-0.08498 -0.0789,-0.181797 -0.13212,-0.264241 L 193.12142,16.238286 c -0.0822,-0.05327 -0.17914,-0.08287 -0.26425,-0.131909 -0.9363,-0.539981 -2.01357,-0.792722 -3.17088,-0.792722 z m -4.22785,149.824455 -42.27851,33.82281 2.64241,2.11392 39.6361,-31.70888 0,-4.22785 z m -102.921747,8.45571 -2.774527,8.4557 -35.67249,15.85444 -2.378166,5.28481 38.050656,-16.9114 4.22785,-12.68355 -1.453323,0 z m 102.921747,8.4557 0,4.22785 50.7342,0 0,-4.22785 -50.7342,0 z"
       inkscape:connector-curvature="0"
       id="path3944"
       style="opacity:0.75;fill:#ffffff;fill-opacity:1;stroke:none;display:inline" />
    <path
       d="m 225.09454,48.872219 c -0.12287,0.381775 -0.32876,0.71066 -0.52849,1.056963 -0.0491,0.08498 -0.0789,0.181797 -0.13212,0.264241 L 88.217867,186.27737 26.781912,210.85175 24.800107,215.87232 88.217867,190.50522 224.43393,54.421273 c 0.0532,-0.08244 0.083,-0.179261 0.13212,-0.26424 0.53999,-0.9363 0.79273,-2.013557 0.79273,-3.170888 0,-0.729262 -0.0549,-1.463471 -0.26424,-2.113926 z M 70.777983,151.66184 l -12.155071,5.02057 -16.911402,38.05066 2.378166,-1.05696 14.533236,-32.76585 12.155071,-5.02057 0.528481,13.47627 11.230229,0 1.453323,-4.22785 -12.683552,0 -0.528481,-13.47627 z m 75.044357,45.18515 -2.64241,2.11393 42.27851,33.8228 0,-4.22785 -39.6361,-31.70888 z m 39.6361,14.79748 0,4.22785 50.7342,0 0,-4.22785 -50.7342,0 z"
       inkscape:connector-curvature="0"
       id="path3953"
       style="opacity:0.15;fill:#000000;fill-opacity:1;stroke:none;display:inline" />
  </g>
</svg>
