<?xml version="1.0" encoding="UTF-8" standalone="no"?>
<!-- Created with Inkscape (http://www.inkscape.org/) -->

<svg
   xmlns:dc="http://purl.org/dc/elements/1.1/"
   xmlns:cc="http://creativecommons.org/ns#"
   xmlns:rdf="http://www.w3.org/1999/02/22-rdf-syntax-ns#"
   xmlns:svg="http://www.w3.org/2000/svg"
   xmlns="http://www.w3.org/2000/svg"
   xmlns:xlink="http://www.w3.org/1999/xlink"
   xmlns:sodipodi="http://sodipodi.sourceforge.net/DTD/sodipodi-0.dtd"
   xmlns:inkscape="http://www.inkscape.org/namespaces/inkscape"
   version="1.0"
   width="256"
   height="256"
   id="svg2408"
   inkscape:version="0.48.3.1 r9886"
   sodipodi:docname="format-text-bold.svg">
  <sodipodi:namedview
     pagecolor="#ffffff"
     bordercolor="#666666"
     borderopacity="1"
     objecttolerance="10"
     gridtolerance="10"
     guidetolerance="10"
     inkscape:pageopacity="0"
     inkscape:pageshadow="2"
     inkscape:window-width="1024"
     inkscape:window-height="572"
     id="namedview93"
     showgrid="false"
     inkscape:zoom="1.6367188"
     inkscape:cx="117.30788"
     inkscape:cy="128"
     inkscape:window-x="0"
     inkscape:window-y="28"
     inkscape:window-maximized="1"
     inkscape:current-layer="svg2408" />
  <defs
     id="defs2410">
    <linearGradient
       id="linearGradient3637">
      <stop
         id="stop3639"
         style="stop-color:#5a5a5a;stop-opacity:1;"
         offset="0" />
      <stop
         id="stop3641"
         style="stop-color:#000000;stop-opacity:1;"
         offset="1" />
    </linearGradient>
    <linearGradient
       x1="45.447727"
       y1="92.539597"
       x2="45.447727"
       y2="7.0165396"
       id="ButtonShadow"
       gradientUnits="userSpaceOnUse"
       gradientTransform="scale(1.0058652,0.994169)">
      <stop
         id="stop3750"
         style="stop-color:#000000;stop-opacity:1"
         offset="0" />
      <stop
         id="stop3752"
         style="stop-color:#000000;stop-opacity:0.58823532"
         offset="1" />
    </linearGradient>
    <linearGradient
       id="linearGradient3737">
      <stop
         id="stop3739"
         style="stop-color:#ffffff;stop-opacity:1"
         offset="0" />
      <stop
         id="stop3741"
         style="stop-color:#ffffff;stop-opacity:0"
         offset="1" />
    </linearGradient>
    <linearGradient
       id="linearGradient3700">
      <stop
         id="stop3702"
         style="stop-color:#2276c5;stop-opacity:1"
         offset="0" />
      <stop
         id="stop3704"
         style="stop-color:#68baf4;stop-opacity:1"
         offset="1" />
    </linearGradient>
    <filter
       color-interpolation-filters="sRGB"
       id="filter3174">
      <feGaussianBlur
         id="feGaussianBlur3176"
         stdDeviation="1.71" />
    </filter>
    <linearGradient
       x1="36.357143"
       y1="6"
       x2="36.357143"
       y2="63.893143"
       id="linearGradient3188"
       xlink:href="#linearGradient3737"
       gradientUnits="userSpaceOnUse" />
    <filter
       x="-0.192"
       y="-0.192"
       width="1.3839999"
       height="1.3839999"
       color-interpolation-filters="sRGB"
       id="filter3794">
      <feGaussianBlur
         id="feGaussianBlur3796"
         stdDeviation="5.28" />
    </filter>
    <linearGradient
       x1="48"
       y1="20.220806"
       x2="48"
       y2="138.66119"
       id="linearGradient3613"
       xlink:href="#linearGradient3737"
       gradientUnits="userSpaceOnUse" />
    <radialGradient
       cx="48"
       cy="90.171875"
       r="42"
       fx="48"
       fy="90.171875"
       id="radialGradient3619"
       xlink:href="#linearGradient3737"
       gradientUnits="userSpaceOnUse"
       gradientTransform="matrix(1.1573129,0,0,0.99590774,-7.5510206,0.19713193)" />
    <clipPath
       id="clipPath3613">
      <rect
         width="84"
         height="84"
         rx="6"
         ry="6"
         x="6"
         y="6"
         id="rect3615"
         style="fill:#ffffff;fill-opacity:1;fill-rule:nonzero;stroke:none" />
    </clipPath>
    <linearGradient
       x1="48"
       y1="90"
       x2="48"
       y2="5.9877172"
       id="linearGradient2843"
       xlink:href="#linearGradient3700"
       gradientUnits="userSpaceOnUse"
       gradientTransform="translate(0,100)" />
    <clipPath
       id="clipPath3625">
      <path
         d="M 0,0 0,96 96,96 96,0 0,0 z m 12,6 72,0 c 3.324,0 6,2.676 6,6 l 0,72 c 0,3.324 -2.676,6 -6,6 L 12,90 C 8.676,90 6,87.324 6,84 L 6,12 C 6,8.676 8.676,6 12,6 z"
         inkscape:connector-curvature="0"
         id="path3627"
         style="fill:#ffffff;fill-opacity:1;stroke:none" />
    </clipPath>
    <linearGradient
       x1="44.512066"
       y1="6"
       x2="44.512066"
       y2="90.015434"
       id="linearGradient3643"
       xlink:href="#linearGradient3637"
       gradientUnits="userSpaceOnUse" />
    <clipPath
       id="clipPath3649">
      <rect
         width="76"
         height="76"
         rx="4"
         ry="4"
         x="10"
         y="10"
         id="rect3651"
         style="fill:#ffffff;fill-opacity:1;fill-rule:nonzero;stroke:none" />
    </clipPath>
    <filter
       color-interpolation-filters="sRGB"
       id="filter3657">
      <feGaussianBlur
         id="feGaussianBlur3659"
         stdDeviation="1.14" />
    </filter>
    <linearGradient
       inkscape:collect="always"
       xlink:href="#linearGradient3637"
       id="linearGradient5435"
       gradientUnits="userSpaceOnUse"
       gradientTransform="matrix(30.667556,0,0,30.667556,-221.74963,-123.91051)"
       x1="12.028171"
       y1="4.5631547"
       x2="12.028171"
       y2="11.477665" />
  </defs>
  <metadata
     id="metadata2413">
    <rdf:RDF>
      <cc:Work
         rdf:about="">
        <dc:format>image/svg+xml</dc:format>
        <dc:type
           rdf:resource="http://purl.org/dc/dcmitype/StillImage" />
        <dc:title></dc:title>
      </cc:Work>
    </rdf:RDF>
  </metadata>
  <g
     id="layer2"
     style="display:none"
     transform="translate(0,160)">
    <rect
       width="86"
       height="85"
       rx="6"
       ry="6"
       x="5"
       y="7"
       clip-path="url(#clipPath3625)"
       id="rect3745"
       style="opacity:0.9;fill:url(#ButtonShadow);fill-opacity:1;fill-rule:nonzero;stroke:none;filter:url(#filter3174)" />
  </g>
  <g
     id="layer1"
     style="display:none"
     transform="translate(0,160)">
    <rect
       width="84"
       height="84"
       rx="6"
       ry="6"
       x="6"
       y="6"
       id="rect2419"
       style="opacity:0.8;fill:#000000;fill-opacity:1;fill-rule:nonzero;stroke:none" />
    <path
       d="m 14,10 c -2.216,0 -4,1.784 -4,4 l 0,68 c 0,2.216 1.784,4 4,4 l 68,0 c 2.216,0 4,-1.784 4,-4 l 0,-68 c 0,-2.216 -1.784,-4 -4,-4 l -68,0 z m 0,3.0625 68,0 c 0.578769,0 0.9375,0.358731 0.9375,0.9375 l 0,68 c 0,0.578769 -0.358731,0.9375 -0.9375,0.9375 l -68,0 c -0.578769,0 -0.9375,-0.358731 -0.9375,-0.9375 l 0,-68 c 0,-0.578769 0.358731,-0.9375 0.9375,-0.9375 z"
       inkscape:connector-curvature="0"
       id="rect3726"
       style="opacity:0.07999998;fill:#000000;fill-opacity:1;fill-rule:nonzero;stroke:none" />
    <path
       d="M 12,6 C 8.676,6 6,8.676 6,12 l 0,72 c 0,3.324 2.676,6 6,6 l 72,0 c 3.324,0 6,-2.676 6,-6 L 90,12 C 90,8.676 87.324,6 84,6 L 12,6 z m 2,4 68,0 c 2.216,0 4,1.784 4,4 l 0,68 c 0,2.216 -1.784,4 -4,4 l -68,0 c -2.216,0 -4,-1.784 -4,-4 l 0,-68 c 0,-2.216 1.784,-4 4,-4 z"
       inkscape:connector-curvature="0"
       id="rect3629"
       style="fill:url(#linearGradient3643);fill-opacity:1;fill-rule:nonzero;stroke:none" />
    <path
       d="M 12,6 C 8.676,6 6,8.676 6,12 l 0,2 0,68 0,2 c 0,0.334721 0.04135,0.6507 0.09375,0.96875 0.0487,0.295596 0.09704,0.596915 0.1875,0.875 0.00988,0.03038 0.020892,0.0636 0.03125,0.09375 0.098865,0.287771 0.2348802,0.547452 0.375,0.8125 0.1445918,0.273507 0.3156161,0.535615 0.5,0.78125 0.1843839,0.245635 0.3737765,0.473472 0.59375,0.6875 0.439947,0.428056 0.94291,0.814526 1.5,1.09375 0.278545,0.139612 0.5734731,0.246947 0.875,0.34375 -0.2562018,-0.100222 -0.4867109,-0.236272 -0.71875,-0.375 -0.00741,-0.0044 -0.023866,0.0045 -0.03125,0 -0.031933,-0.0193 -0.062293,-0.04251 -0.09375,-0.0625 -0.120395,-0.0767 -0.2310226,-0.163513 -0.34375,-0.25 -0.1061728,-0.0808 -0.2132809,-0.161112 -0.3125,-0.25 C 8.4783201,88.557317 8.3087904,88.373362 8.15625,88.1875 8.0486711,88.057245 7.9378561,87.922215 7.84375,87.78125 7.818661,87.74287 7.805304,87.69538 7.78125,87.65625 7.716487,87.553218 7.6510225,87.451733 7.59375,87.34375 7.4927417,87.149044 7.3880752,86.928049 7.3125,86.71875 7.30454,86.69694 7.288911,86.6782 7.28125,86.65625 7.2494249,86.5643 7.2454455,86.469419 7.21875,86.375 7.1884177,86.268382 7.1483606,86.171969 7.125,86.0625 7.0521214,85.720988 7,85.364295 7,85 L 7,83 7,15 7,13 C 7,10.218152 9.2181517,8 12,8 l 2,0 68,0 2,0 c 2.781848,0 5,2.218152 5,5 l 0,2 0,68 0,2 c 0,0.364295 -0.05212,0.720988 -0.125,1.0625 -0.04415,0.206893 -0.08838,0.397658 -0.15625,0.59375 -0.0077,0.02195 -0.0233,0.04069 -0.03125,0.0625 -0.06274,0.173739 -0.138383,0.367449 -0.21875,0.53125 -0.04158,0.0828 -0.07904,0.169954 -0.125,0.25 -0.0546,0.09721 -0.126774,0.18835 -0.1875,0.28125 -0.09411,0.140965 -0.204921,0.275995 -0.3125,0.40625 -0.143174,0.17445 -0.303141,0.346998 -0.46875,0.5 -0.01117,0.0102 -0.01998,0.02115 -0.03125,0.03125 -0.138386,0.125556 -0.285091,0.234436 -0.4375,0.34375 -0.102571,0.07315 -0.204318,0.153364 -0.3125,0.21875 -0.0074,0.0045 -0.02384,-0.0044 -0.03125,0 -0.232039,0.138728 -0.462548,0.274778 -0.71875,0.375 0.301527,-0.0968 0.596455,-0.204138 0.875,-0.34375 0.55709,-0.279224 1.060053,-0.665694 1.5,-1.09375 0.219973,-0.214028 0.409366,-0.441865 0.59375,-0.6875 0.184384,-0.245635 0.355408,-0.507743 0.5,-0.78125 0.14012,-0.265048 0.276135,-0.524729 0.375,-0.8125 0.01041,-0.03078 0.02133,-0.06274 0.03125,-0.09375 0.09046,-0.278085 0.1388,-0.579404 0.1875,-0.875 C 89.95865,84.6507 90,84.334721 90,84 l 0,-2 0,-68 0,-2 C 90,8.676 87.324,6 84,6 L 12,6 z"
       inkscape:connector-curvature="0"
       id="rect3728"
       style="fill:url(#linearGradient3188);fill-opacity:1;fill-rule:nonzero;stroke:none" />
    <path
       d="M 12,90 C 8.676,90 6,87.324 6,84 L 6,82 6,14 6,12 c 0,-0.334721 0.04135,-0.6507 0.09375,-0.96875 0.0487,-0.295596 0.09704,-0.596915 0.1875,-0.875 C 6.29113,10.12587 6.302142,10.09265 6.3125,10.0625 6.411365,9.774729 6.5473802,9.515048 6.6875,9.25 6.8320918,8.976493 7.0031161,8.714385 7.1875,8.46875 7.3718839,8.223115 7.5612765,7.995278 7.78125,7.78125 8.221197,7.353194 8.72416,6.966724 9.28125,6.6875 9.559795,6.547888 9.8547231,6.440553 10.15625,6.34375 9.9000482,6.443972 9.6695391,6.580022 9.4375,6.71875 c -0.00741,0.0044 -0.023866,-0.0045 -0.03125,0 -0.031933,0.0193 -0.062293,0.04251 -0.09375,0.0625 -0.120395,0.0767 -0.2310226,0.163513 -0.34375,0.25 -0.1061728,0.0808 -0.2132809,0.161112 -0.3125,0.25 C 8.4783201,7.442683 8.3087904,7.626638 8.15625,7.8125 8.0486711,7.942755 7.9378561,8.077785 7.84375,8.21875 7.818661,8.25713 7.805304,8.30462 7.78125,8.34375 7.716487,8.446782 7.6510225,8.548267 7.59375,8.65625 7.4927417,8.850956 7.3880752,9.071951 7.3125,9.28125 7.30454,9.30306 7.288911,9.3218 7.28125,9.34375 7.2494249,9.4357 7.2454455,9.530581 7.21875,9.625 7.1884177,9.731618 7.1483606,9.828031 7.125,9.9375 7.0521214,10.279012 7,10.635705 7,11 l 0,2 0,68 0,2 c 0,2.781848 2.2181517,5 5,5 l 2,0 68,0 2,0 c 2.781848,0 5,-2.218152 5,-5 l 0,-2 0,-68 0,-2 C 89,10.635705 88.94788,10.279012 88.875,9.9375 88.83085,9.730607 88.78662,9.539842 88.71875,9.34375 88.71105,9.3218 88.69545,9.30306 88.6875,9.28125 88.62476,9.107511 88.549117,8.913801 88.46875,8.75 88.42717,8.6672 88.38971,8.580046 88.34375,8.5 88.28915,8.40279 88.216976,8.31165 88.15625,8.21875 88.06214,8.077785 87.951329,7.942755 87.84375,7.8125 87.700576,7.63805 87.540609,7.465502 87.375,7.3125 87.36383,7.3023 87.35502,7.29135 87.34375,7.28125 87.205364,7.155694 87.058659,7.046814 86.90625,6.9375 86.803679,6.86435 86.701932,6.784136 86.59375,6.71875 c -0.0074,-0.0045 -0.02384,0.0044 -0.03125,0 -0.232039,-0.138728 -0.462548,-0.274778 -0.71875,-0.375 0.301527,0.0968 0.596455,0.204138 0.875,0.34375 0.55709,0.279224 1.060053,0.665694 1.5,1.09375 0.219973,0.214028 0.409366,0.441865 0.59375,0.6875 0.184384,0.245635 0.355408,0.507743 0.5,0.78125 0.14012,0.265048 0.276135,0.524729 0.375,0.8125 0.01041,0.03078 0.02133,0.06274 0.03125,0.09375 0.09046,0.278085 0.1388,0.579404 0.1875,0.875 C 89.95865,11.3493 90,11.665279 90,12 l 0,2 0,68 0,2 c 0,3.324 -2.676,6 -6,6 l -72,0 z"
       inkscape:connector-curvature="0"
       id="path3615"
       style="opacity:0.6;fill:url(#radialGradient3619);fill-opacity:1;fill-rule:nonzero;stroke:none" />
    <rect
       width="84"
       height="84"
       rx="6"
       ry="6"
       x="6"
       y="106"
       id="rect2841"
       style="fill:url(#linearGradient2843);fill-opacity:1;fill-rule:nonzero;stroke:none" />
    <rect
       width="76"
       height="76"
       rx="4"
       ry="4"
       x="10"
       y="110"
       id="rect3634"
       style="fill:#ff0000;fill-opacity:1;fill-rule:nonzero;stroke:none" />
    <path
       d="m 14,9 c -2.752703,0 -5,2.247297 -5,5 l 0,68 c 0,2.752703 2.247297,5 5,5 l 68,0 c 2.752703,0 5,-2.247297 5,-5 L 87,14 C 87,11.247297 84.752703,9 82,9 L 14,9 z m 0,2 68,0 c 1.679297,0 3,1.320703 3,3 l 0,68 c 0,1.679297 -1.320703,3 -3,3 l -68,0 c -1.679297,0 -3,-1.320703 -3,-3 l 0,-68 c 0,-1.679297 1.320703,-3 3,-3 z"
       inkscape:connector-curvature="0"
       transform="translate(-110,0)"
       clip-path="url(#clipPath3649)"
       id="rect3647"
       style="font-size:medium;font-style:normal;font-variant:normal;font-weight:normal;font-stretch:normal;text-indent:0;text-align:start;text-decoration:none;line-height:normal;letter-spacing:normal;word-spacing:normal;text-transform:none;direction:ltr;block-progression:tb;writing-mode:lr-tb;text-anchor:start;color:#000000;fill:#000000;fill-opacity:1;stroke:none;stroke-width:2;marker:none;visibility:visible;display:inline;overflow:visible;filter:url(#filter3657);enable-background:accumulate;font-family:Abandoned Bitplane;-inkscape-font-specification:Abandoned Bitplane" />
    <path
       d="m 14.089286,10 c -2.216,0 -4,1.784 -4,4 l 0,68 c 0,2.216 1.784,4 4,4 l 68,0 c 2.216,0 4,-1.784 4,-4 l 0,-68 c 0,-2.216 -1.784,-4 -4,-4 l -68,0 z m 0,2 68,0 c 1.140301,0 2,0.859699 2,2 l 0,68 c 0,1.140301 -0.859699,2 -2,2 l -68,0 c -1.140301,0 -2,-0.859699 -2,-2 l 0,-68 c 0,-1.140301 0.859699,-2 2,-2 z"
       inkscape:connector-curvature="0"
       id="path3709"
       style="opacity:0.16000001;fill:#000000;fill-opacity:1;fill-rule:nonzero;stroke:none" />
    <path
       d="m 14,10 c -2.216,0 -4,1.784 -4,4 l 0,68 c 0,2.216 1.784,4 4,4 l 68,0 c 2.216,0 4,-1.784 4,-4 l 0,-68 c 0,-2.216 -1.784,-4 -4,-4 l -68,0 z m 0,1 68,0 c 1.673848,0 3,1.326152 3,3 l 0,68 c 0,1.673848 -1.326152,3 -3,3 l -68,0 c -1.673848,0 -3,-1.326152 -3,-3 l 0,-68 c 0,-1.673848 1.326152,-3 3,-3 z"
       inkscape:connector-curvature="0"
       id="path3707"
       style="opacity:0.36000001;fill:#000000;fill-opacity:1;fill-rule:nonzero;stroke:none" />
  </g>
  <g
     id="layer5"
     style="display:none"
     transform="translate(0,160)">
    <rect
       width="66"
       height="66"
       rx="12"
       ry="12"
       x="15"
       y="15"
       clip-path="url(#clipPath3613)"
       id="rect3171"
       style="opacity:0.1;fill:url(#linearGradient3613);fill-opacity:1;fill-rule:nonzero;stroke:#ffffff;stroke-width:0.5;stroke-linecap:round;stroke-linejoin:miter;stroke-miterlimit:4;stroke-opacity:1;stroke-dasharray:none;stroke-dashoffset:0;filter:url(#filter3794)" />
  </g>
  <g
     id="g5427"
     transform="translate(-0.87379426,0.83969039)">
    <path
       d="m 128.59792,10.160313 c -29.698344,0.07631 -59.439728,3.837488 -88.232873,11.006179 -5.709196,2.71386 -7.602235,9.243312 -6.787144,15.109459 0.126028,15.683835 -0.249708,31.429422 0.183437,47.075454 1.172548,8.398918 12.222652,12.671311 18.788481,7.339038 C 78.30259,77.893984 108.3576,73.622764 136.70921,78.16635 c 4.54804,-0.768789 22.56613,8.577247 12.73278,9.220654 -33.92496,0.01174 -69.872381,-1.345513 -100.365455,15.960426 -27.008107,15.17455 -36.907734,49.18007 -31.988125,78.32079 4.186716,29.95906 28.495063,55.05755 58.082003,60.84515 23.014933,4.5089 48.352267,3.35844 69.371237,-7.85958 6.42182,-5.49082 12.03053,-12.04728 10.10423,-0.15086 0.73234,7.637 8.63863,11.62675 15.65976,10.45587 21.12878,-0.12151 42.29779,0.24302 63.40129,-0.18314 7.47019,-1.39248 10.36636,-9.33301 9.35526,-16.12966 -0.1366,-41.49676 0.28199,-83.00285 -0.2257,-124.4935 C 241.86058,79.255639 234.04333,53.49437 215.79575,35.881724 192.69308,14.18159 158.88554,10.412017 128.59792,10.160313 z m 4.40247,139.044727 c 6.97058,0 13.94116,0 20.91174,0 -0.39129,16.88148 -16.09625,31.84848 -33.23545,29.45248 -12.09048,1.54867 -21.564474,-12.83115 -13.80958,-22.60276 7.09849,-6.09185 17.22912,-6.61698 26.13329,-6.84972 z"
       inkscape:connector-curvature="0"
       id="path3896"
       style="font-size:12px;font-style:normal;font-variant:normal;font-weight:bold;font-stretch:normal;text-align:start;line-height:125%;writing-mode:lr-tb;text-anchor:start;opacity:0.1;fill:#000000;fill-opacity:1;stroke:none;display:inline;font-family:Sans;-inkscape-font-specification:Abandoned Bitplane Bold" />
    <path
       d="m 128.59792,16.030275 c -14.16904,2.35e-4 -28.42151,0.923874 -42.557229,2.751545 -14.127174,1.705166 -28.184917,4.111028 -42.190354,7.520889 a 5.9564221,5.9564221 0 0 0 -4.402471,5.869962 l 0,48.977498 a 5.9564221,5.9564221 0 0 0 8.621507,5.319653 C 57.74381,81.234403 68.21678,77.379364 79.62042,74.729898 91.006736,72.084717 103.5033,70.511039 116.858,70.510862 c 16.45945,1.77e-4 28.06927,2.589593 34.48603,6.420272 a 5.9564221,5.9564221 0 0 0 0.18343,0 c 6.06989,3.533423 8.58382,8.354482 8.80494,16.325832 l -31.73448,0 c -35.367894,1.18e-4 -62.043831,5.294471 -79.978238,17.426454 -17.808756,12.13643 -26.781721,31.91275 -26.781703,56.86525 -1.8e-5,20.73805 7.192177,38.60874 21.278613,51.91248 14.210639,13.16773 32.848544,19.62769 54.847464,19.62769 16.158524,0 30.367554,-2.76223 42.190354,-8.80495 7.44639,-3.88873 14.0567,-9.73093 20.36143,-16.32583 l 0,19.26081 a 5.9564221,5.9564221 0 0 0 5.86996,5.86997 l 64.93646,0 a 5.9564221,5.9564221 0 0 0 5.86996,-5.86997 l 0,-119.96734 C 237.19199,80.100209 228.73442,55.063 210.96083,39.326688 l 0.18344,-0.183143 c -0.0364,-0.03522 -0.14669,0.03522 -0.18344,0 C 193.25137,23.356693 165.61417,16.03051 128.59792,16.030275 z m 4.40247,127.304805 27.51545,0 0,1.46749 c -1.4e-4,11.83408 -3.58325,20.95682 -10.82274,28.61606 -7.23562,7.49735 -15.63037,11.18962 -26.2314,11.18962 -8.78897,0 -14.70004,-2.03846 -18.89394,-5.50309 -4.08133,-3.53712 -6.053474,-7.83534 -6.053404,-14.67491 -7e-5,-7.3506 2.310234,-11.68938 7.520894,-15.22521 5.33895,-3.55931 14.20936,-5.8699 26.96514,-5.86996 z"
       id="path3892"
       style="font-size:12px;font-style:normal;font-variant:normal;font-weight:bold;font-stretch:normal;text-align:start;line-height:125%;writing-mode:lr-tb;text-anchor:start;opacity:0.15;fill:#000000;fill-opacity:1;stroke:none;display:inline;font-family:Sans;-inkscape-font-specification:Abandoned Bitplane Bold"
       inkscape:connector-curvature="0" />
    <path
       d="m 133.01911,137.44263 c -13.41715,1.2e-4 -23.53984,2.27626 -30.36806,6.82835 -6.708624,4.55228 -10.062884,11.26082 -10.062794,20.12558 -9e-5,8.1461 2.69537,14.55516 8.086174,19.22712 5.51047,4.55227 13.11747,6.82835 22.82096,6.82835 12.09917,0 22.28175,-4.3126 30.54776,-12.93786 8.26571,-8.74502 12.39865,-19.64636 12.39881,-32.70409 l 0,-7.36745 -33.42285,0 m 98.29191,-24.25849 0,120.03473 -64.86906,0 0,-35.04009 c -8.62542,12.21915 -18.32882,21.14384 -29.11024,26.77425 -10.78165,5.51054 -23.89922,8.26584 -39.352694,8.26584 -20.844418,0 -37.795413,-6.04964 -50.853033,-18.14898 -12.937901,-12.21903 -19.406829,-28.032 -19.406811,-47.43886 -1.8e-5,-23.59954 8.086149,-40.90994 24.258511,-51.9312 C 68.269779,104.6788 93.786126,99.168253 128.52679,99.168136 l 37.91517,0 0,-5.031439 c -1.6e-4,-10.182447 -4.01328,-17.60971 -12.03941,-22.281907 -8.02641,-4.791591 -20.545,-7.187534 -37.55579,-7.187651 -13.77652,1.17e-4 -26.594604,1.377797 -38.454237,4.132923 -11.859771,2.755419 -22.880913,6.888342 -33.06346,12.398769 l 0,-49.056096 c 13.77639,-3.354097 27.612719,-5.869787 41.509021,-7.547069 13.896156,-1.796737 27.792366,-2.695193 41.688706,-2.695428 36.29779,2.35e-4 62.47298,7.187886 78.52573,21.56313 16.17211,14.25579 24.25827,37.496027 24.2585,69.720772"
       inkscape:connector-curvature="0"
       id="path3886"
       style="font-size:12px;font-style:normal;font-variant:normal;font-weight:bold;font-stretch:normal;text-align:start;line-height:125%;writing-mode:lr-tb;text-anchor:start;opacity:0.3;fill:#000000;fill-opacity:1;stroke:none;display:inline;font-family:Sans;-inkscape-font-specification:Abandoned Bitplane Bold" />
    <path
       d="m 133.01911,131.57267 c -13.41715,1.2e-4 -23.53984,2.27626 -30.36806,6.82835 -6.708624,4.55228 -10.062884,11.26082 -10.062794,20.12558 -9e-5,8.1461 2.69537,14.55516 8.086174,19.22712 5.51047,4.55227 13.11747,6.82835 22.82096,6.82835 12.09917,0 22.28175,-4.3126 30.54776,-12.93787 8.26571,-8.74501 12.39865,-19.64635 12.39881,-32.70408 l 0,-7.36745 -33.42285,0 m 98.29191,-24.25849 0,120.03473 -64.86906,0 0,-35.04009 c -8.62542,12.21915 -18.32882,21.14384 -29.11024,26.77425 -10.78165,5.51054 -23.89922,8.26584 -39.352694,8.26584 -20.844418,0 -37.795413,-6.04964 -50.853033,-18.14898 C 34.188092,196.9809 27.719164,181.16792 27.719182,161.76107 27.719164,138.16153 35.805331,120.85113 51.977693,109.82987 68.269779,98.808835 93.786126,93.298291 128.52679,93.298173 l 37.91517,0 0,-5.031438 c -1.6e-4,-10.182447 -4.01328,-17.609711 -12.03941,-22.281907 -8.02641,-4.791591 -20.545,-7.187534 -37.55579,-7.187651 -13.77652,1.17e-4 -26.594604,1.377797 -38.454237,4.132923 -11.859771,2.755419 -22.880913,6.888342 -33.06346,12.398769 l 0,-49.056097 c 13.77639,-3.354096 27.612719,-5.869786 41.509021,-7.547069 13.896156,-1.796736 27.792366,-2.695193 41.688706,-2.695428 36.29779,2.35e-4 62.47298,7.187887 78.52573,21.56313 16.17211,14.255791 24.25827,37.496028 24.2585,69.720775"
       inkscape:connector-curvature="0"
       id="path2847"
       style="font-size:12px;font-style:normal;font-variant:normal;font-weight:bold;font-stretch:normal;text-align:start;line-height:125%;writing-mode:lr-tb;text-anchor:start;fill:url(#linearGradient5435);fill-opacity:1;stroke:none;display:inline;font-family:Sans;-inkscape-font-specification:Abandoned Bitplane Bold" />
    <path
       d="m 128.59792,16.030275 c -13.89635,2.35e-4 -27.92733,0.954809 -41.823484,2.751545 -13.896302,1.677342 -27.680218,4.166793 -41.456608,7.520889 l 0,5.869962 c 13.77639,-3.354096 27.560306,-5.843547 41.456608,-7.520888 13.896154,-1.796737 27.927134,-2.75131 41.823484,-2.751545 36.29778,2.35e-4 62.458,7.270241 78.51075,21.645485 16.17211,14.255791 24.21336,37.481059 24.21359,69.705807 l 0,-5.86997 C 231.32203,75.15682 223.28078,51.931551 207.10867,37.675761 191.05592,23.300517 164.8957,16.03051 128.59792,16.030275 z m 0,77.226691 c -34.740664,1.18e-4 -60.384299,5.488239 -76.676385,16.509274 -16.172362,11.02126 -24.213612,28.31287 -24.213594,51.91247 0,0.93373 0.1535,1.83442 0.183436,2.75154 0.713013,-21.95407 8.605389,-38.2823 24.030158,-48.79405 16.292086,-11.02103 41.935721,-16.509154 76.676385,-16.509272 l 37.78788,0 0,-4.95278 c 0,-0.317565 0.008,-0.605135 0,-0.917182 l -37.78788,0 z m 37.78788,45.675644 c -1.6e-4,13.05773 -4.02452,23.90671 -12.29023,32.65166 -8.26601,8.62526 -18.53469,13.02404 -30.63387,13.02398 -9.70348,6e-5 -17.23563,-2.23487 -22.7461,-6.78714 -4.738604,-4.10675 -7.314514,-9.7182 -7.887764,-16.50927 -0.0935,0.98662 -0.18344,2.07168 -0.18344,3.11841 -9e-5,8.1461 2.6804,14.58886 8.071204,19.26082 5.51047,4.55227 13.04262,6.7872 22.7461,6.78714 12.09918,6e-5 22.36786,-4.39871 30.63387,-13.02398 8.26571,-8.74495 12.29007,-19.59393 12.29023,-32.65166 l 0,-5.86996 z"
       inkscape:connector-curvature="0"
       id="path3868"
       style="font-size:12px;font-style:normal;font-variant:normal;font-weight:bold;font-stretch:normal;text-align:start;line-height:125%;writing-mode:lr-tb;text-anchor:start;opacity:0.75;fill:#ffffff;fill-opacity:1;stroke:none;display:inline;font-family:Sans;-inkscape-font-specification:Abandoned Bitplane Bold" />
    <path
       d="m 116.858,52.900976 c -13.77652,1.76e-4 -26.662004,1.46391 -38.521634,4.219035 -11.859772,2.755419 -22.835991,6.779806 -33.018538,12.290233 l 0,5.869963 C 55.500375,69.76978 66.476594,65.745392 78.336366,62.989973 90.195996,60.234848 103.08148,58.771114 116.858,58.770938 c 17.0108,1.76e-4 29.57803,2.362366 37.60444,7.154016 7.77594,4.526504 11.68082,11.763405 11.92336,21.46205 l 0,-4.952781 c -1.6e-4,-10.182447 -3.89723,-17.707034 -11.92336,-22.379231 -8.02641,-4.79165 -20.59364,-7.15384 -37.60444,-7.154016 z m 16.14239,72.824214 c -13.41715,6e-5 -23.43877,2.23505 -30.26699,6.78714 -6.708624,4.55228 -10.089094,11.31324 -10.089004,20.178 -1e-5,0.92012 0.11464,1.69231 0.18344,2.56811 0.73369,-7.28498 4.03552,-12.8929 9.905564,-16.87614 6.82822,-4.5521 16.84984,-6.78709 30.26699,-6.78715 l 33.38541,0 0,-5.86996 -33.38541,0 z m -105.109013,32.8351 c -0.03463,1.06405 -0.183436,2.02749 -0.183436,3.11842 -1.8e-5,19.40686 6.506348,35.29098 19.44425,47.51001 13.05762,12.09934 29.967443,18.16019 50.811865,18.16019 15.453464,0 28.657154,-2.74409 39.438804,-8.25463 10.78143,-5.63041 20.35753,-14.56256 28.98294,-26.7817 l 0,-5.86997 c -8.62541,12.21915 -18.20151,21.1513 -28.98294,26.78171 -10.78165,5.51054 -23.98534,8.25463 -39.438804,8.25463 -20.844422,0 -37.754245,-6.06085 -50.811865,-18.1602 C 34.836793,191.6876 28.483915,176.70417 27.891377,158.56029 z m 138.494423,62.91866 0,5.86996 64.93646,0 0,-5.86996 -64.93646,0 z"
       inkscape:connector-curvature="0"
       id="path3877"
       style="font-size:12px;font-style:normal;font-variant:normal;font-weight:bold;font-stretch:normal;text-align:start;line-height:125%;writing-mode:lr-tb;text-anchor:start;opacity:0.15;fill:#000000;fill-opacity:1;stroke:none;display:inline;font-family:Sans;-inkscape-font-specification:Abandoned Bitplane Bold" />
  </g>
</svg>
