<?xml version="1.0" encoding="UTF-8" standalone="no"?>
<!-- Created with Inkscape (http://www.inkscape.org/) -->

<svg
   xmlns:dc="http://purl.org/dc/elements/1.1/"
   xmlns:cc="http://creativecommons.org/ns#"
   xmlns:rdf="http://www.w3.org/1999/02/22-rdf-syntax-ns#"
   xmlns:svg="http://www.w3.org/2000/svg"
   xmlns="http://www.w3.org/2000/svg"
   xmlns:xlink="http://www.w3.org/1999/xlink"
   xmlns:sodipodi="http://sodipodi.sourceforge.net/DTD/sodipodi-0.dtd"
   xmlns:inkscape="http://www.inkscape.org/namespaces/inkscape"
   version="1.0"
   width="256"
   height="256"
   id="svg2408"
   inkscape:version="0.48.3.1 r9886"
   sodipodi:docname="format-text-underline.svg">
  <sodipodi:namedview
     pagecolor="#ffffff"
     bordercolor="#666666"
     borderopacity="1"
     objecttolerance="10"
     gridtolerance="10"
     guidetolerance="10"
     inkscape:pageopacity="0"
     inkscape:pageshadow="2"
     inkscape:window-width="1024"
     inkscape:window-height="572"
     id="namedview4196"
     showgrid="false"
     inkscape:zoom="1.6367188"
     inkscape:cx="117.30788"
     inkscape:cy="128"
     inkscape:window-x="0"
     inkscape:window-y="28"
     inkscape:window-maximized="1"
     inkscape:current-layer="svg2408" />
  <defs
     id="defs2410">
    <linearGradient
       id="linearGradient3637">
      <stop
         id="stop3639"
         style="stop-color:#5a5a5a;stop-opacity:1;"
         offset="0" />
      <stop
         id="stop3641"
         style="stop-color:#000000;stop-opacity:1;"
         offset="1" />
    </linearGradient>
    <linearGradient
       x1="45.447727"
       y1="92.539597"
       x2="45.447727"
       y2="7.0165396"
       id="ButtonShadow"
       gradientUnits="userSpaceOnUse"
       gradientTransform="scale(1.0058652,0.994169)">
      <stop
         id="stop3750"
         style="stop-color:#000000;stop-opacity:1"
         offset="0" />
      <stop
         id="stop3752"
         style="stop-color:#000000;stop-opacity:0.58823532"
         offset="1" />
    </linearGradient>
    <linearGradient
       id="linearGradient3737">
      <stop
         id="stop3739"
         style="stop-color:#ffffff;stop-opacity:1"
         offset="0" />
      <stop
         id="stop3741"
         style="stop-color:#ffffff;stop-opacity:0"
         offset="1" />
    </linearGradient>
    <linearGradient
       id="linearGradient3700">
      <stop
         id="stop3702"
         style="stop-color:#2276c5;stop-opacity:1"
         offset="0" />
      <stop
         id="stop3704"
         style="stop-color:#68baf4;stop-opacity:1"
         offset="1" />
    </linearGradient>
    <filter
       color-interpolation-filters="sRGB"
       id="filter3174">
      <feGaussianBlur
         id="feGaussianBlur3176"
         stdDeviation="1.71" />
    </filter>
    <linearGradient
       x1="36.357143"
       y1="6"
       x2="36.357143"
       y2="63.893143"
       id="linearGradient3188"
       xlink:href="#linearGradient3737"
       gradientUnits="userSpaceOnUse" />
    <filter
       x="-0.192"
       y="-0.192"
       width="1.3839999"
       height="1.3839999"
       color-interpolation-filters="sRGB"
       id="filter3794">
      <feGaussianBlur
         id="feGaussianBlur3796"
         stdDeviation="5.28" />
    </filter>
    <linearGradient
       x1="48"
       y1="20.220806"
       x2="48"
       y2="138.66119"
       id="linearGradient3613"
       xlink:href="#linearGradient3737"
       gradientUnits="userSpaceOnUse" />
    <radialGradient
       cx="48"
       cy="90.171875"
       r="42"
       fx="48"
       fy="90.171875"
       id="radialGradient3619"
       xlink:href="#linearGradient3737"
       gradientUnits="userSpaceOnUse"
       gradientTransform="matrix(1.1573129,0,0,0.99590774,-7.5510206,0.19713193)" />
    <clipPath
       id="clipPath3613">
      <rect
         width="84"
         height="84"
         rx="6"
         ry="6"
         x="6"
         y="6"
         id="rect3615"
         style="fill:#ffffff;fill-opacity:1;fill-rule:nonzero;stroke:none" />
    </clipPath>
    <linearGradient
       x1="48"
       y1="90"
       x2="48"
       y2="5.9877172"
       id="linearGradient2843"
       xlink:href="#linearGradient3700"
       gradientUnits="userSpaceOnUse"
       gradientTransform="translate(0,100)" />
    <clipPath
       id="clipPath3625">
      <path
         d="M 0,0 0,96 96,96 96,0 0,0 z m 12,6 72,0 c 3.324,0 6,2.676 6,6 l 0,72 c 0,3.324 -2.676,6 -6,6 L 12,90 C 8.676,90 6,87.324 6,84 L 6,12 C 6,8.676 8.676,6 12,6 z"
         inkscape:connector-curvature="0"
         id="path3627"
         style="fill:#ffffff;fill-opacity:1;stroke:none" />
    </clipPath>
    <linearGradient
       x1="44.512066"
       y1="6"
       x2="44.512066"
       y2="90.015434"
       id="linearGradient3643"
       xlink:href="#linearGradient3637"
       gradientUnits="userSpaceOnUse" />
    <clipPath
       id="clipPath3649">
      <rect
         width="76"
         height="76"
         rx="4"
         ry="4"
         x="10"
         y="10"
         id="rect3651"
         style="fill:#ffffff;fill-opacity:1;fill-rule:nonzero;stroke:none" />
    </clipPath>
    <filter
       color-interpolation-filters="sRGB"
       id="filter3657">
      <feGaussianBlur
         id="feGaussianBlur3659"
         stdDeviation="1.14" />
    </filter>
    <linearGradient
       inkscape:collect="always"
       xlink:href="#linearGradient3637"
       id="linearGradient4822"
       gradientUnits="userSpaceOnUse"
       gradientTransform="matrix(13.451956,0,0,13.451956,-18.453691,-25.43457)"
       x1="12.070416"
       y1="3.1332362"
       x2="12.070416"
       y2="19.05331" />
  </defs>
  <metadata
     id="metadata2413">
    <rdf:RDF>
      <cc:Work
         rdf:about="">
        <dc:format>image/svg+xml</dc:format>
        <dc:type
           rdf:resource="http://purl.org/dc/dcmitype/StillImage" />
        <dc:title></dc:title>
      </cc:Work>
    </rdf:RDF>
  </metadata>
  <g
     id="layer2"
     style="display:none"
     transform="translate(0,160)">
    <rect
       width="86"
       height="85"
       rx="6"
       ry="6"
       x="5"
       y="7"
       clip-path="url(#clipPath3625)"
       id="rect3745"
       style="opacity:0.9;fill:url(#ButtonShadow);fill-opacity:1;fill-rule:nonzero;stroke:none;filter:url(#filter3174)" />
  </g>
  <g
     id="layer1"
     style="display:none"
     transform="translate(0,160)">
    <rect
       width="84"
       height="84"
       rx="6"
       ry="6"
       x="6"
       y="6"
       id="rect2419"
       style="opacity:0.8;fill:#000000;fill-opacity:1;fill-rule:nonzero;stroke:none" />
    <path
       d="m 14,10 c -2.216,0 -4,1.784 -4,4 l 0,68 c 0,2.216 1.784,4 4,4 l 68,0 c 2.216,0 4,-1.784 4,-4 l 0,-68 c 0,-2.216 -1.784,-4 -4,-4 l -68,0 z m 0,3.0625 68,0 c 0.578769,0 0.9375,0.358731 0.9375,0.9375 l 0,68 c 0,0.578769 -0.358731,0.9375 -0.9375,0.9375 l -68,0 c -0.578769,0 -0.9375,-0.358731 -0.9375,-0.9375 l 0,-68 c 0,-0.578769 0.358731,-0.9375 0.9375,-0.9375 z"
       inkscape:connector-curvature="0"
       id="rect3726"
       style="opacity:0.07999998;fill:#000000;fill-opacity:1;fill-rule:nonzero;stroke:none" />
    <path
       d="M 12,6 C 8.676,6 6,8.676 6,12 l 0,72 c 0,3.324 2.676,6 6,6 l 72,0 c 3.324,0 6,-2.676 6,-6 L 90,12 C 90,8.676 87.324,6 84,6 L 12,6 z m 2,4 68,0 c 2.216,0 4,1.784 4,4 l 0,68 c 0,2.216 -1.784,4 -4,4 l -68,0 c -2.216,0 -4,-1.784 -4,-4 l 0,-68 c 0,-2.216 1.784,-4 4,-4 z"
       inkscape:connector-curvature="0"
       id="rect3629"
       style="fill:url(#linearGradient3643);fill-opacity:1;fill-rule:nonzero;stroke:none" />
    <path
       d="M 12,6 C 8.676,6 6,8.676 6,12 l 0,2 0,68 0,2 c 0,0.334721 0.04135,0.6507 0.09375,0.96875 0.0487,0.295596 0.09704,0.596915 0.1875,0.875 0.00988,0.03038 0.020892,0.0636 0.03125,0.09375 0.098865,0.287771 0.2348802,0.547452 0.375,0.8125 0.1445918,0.273507 0.3156161,0.535615 0.5,0.78125 0.1843839,0.245635 0.3737765,0.473472 0.59375,0.6875 0.439947,0.428056 0.94291,0.814526 1.5,1.09375 0.278545,0.139612 0.5734731,0.246947 0.875,0.34375 -0.2562018,-0.100222 -0.4867109,-0.236272 -0.71875,-0.375 -0.00741,-0.0044 -0.023866,0.0045 -0.03125,0 -0.031933,-0.0193 -0.062293,-0.04251 -0.09375,-0.0625 -0.120395,-0.0767 -0.2310226,-0.163513 -0.34375,-0.25 -0.1061728,-0.0808 -0.2132809,-0.161112 -0.3125,-0.25 C 8.4783201,88.557317 8.3087904,88.373362 8.15625,88.1875 8.0486711,88.057245 7.9378561,87.922215 7.84375,87.78125 7.818661,87.74287 7.805304,87.69538 7.78125,87.65625 7.716487,87.553218 7.6510225,87.451733 7.59375,87.34375 7.4927417,87.149044 7.3880752,86.928049 7.3125,86.71875 7.30454,86.69694 7.288911,86.6782 7.28125,86.65625 7.2494249,86.5643 7.2454455,86.469419 7.21875,86.375 7.1884177,86.268382 7.1483606,86.171969 7.125,86.0625 7.0521214,85.720988 7,85.364295 7,85 L 7,83 7,15 7,13 C 7,10.218152 9.2181517,8 12,8 l 2,0 68,0 2,0 c 2.781848,0 5,2.218152 5,5 l 0,2 0,68 0,2 c 0,0.364295 -0.05212,0.720988 -0.125,1.0625 -0.04415,0.206893 -0.08838,0.397658 -0.15625,0.59375 -0.0077,0.02195 -0.0233,0.04069 -0.03125,0.0625 -0.06274,0.173739 -0.138383,0.367449 -0.21875,0.53125 -0.04158,0.0828 -0.07904,0.169954 -0.125,0.25 -0.0546,0.09721 -0.126774,0.18835 -0.1875,0.28125 -0.09411,0.140965 -0.204921,0.275995 -0.3125,0.40625 -0.143174,0.17445 -0.303141,0.346998 -0.46875,0.5 -0.01117,0.0102 -0.01998,0.02115 -0.03125,0.03125 -0.138386,0.125556 -0.285091,0.234436 -0.4375,0.34375 -0.102571,0.07315 -0.204318,0.153364 -0.3125,0.21875 -0.0074,0.0045 -0.02384,-0.0044 -0.03125,0 -0.232039,0.138728 -0.462548,0.274778 -0.71875,0.375 0.301527,-0.0968 0.596455,-0.204138 0.875,-0.34375 0.55709,-0.279224 1.060053,-0.665694 1.5,-1.09375 0.219973,-0.214028 0.409366,-0.441865 0.59375,-0.6875 0.184384,-0.245635 0.355408,-0.507743 0.5,-0.78125 0.14012,-0.265048 0.276135,-0.524729 0.375,-0.8125 0.01041,-0.03078 0.02133,-0.06274 0.03125,-0.09375 0.09046,-0.278085 0.1388,-0.579404 0.1875,-0.875 C 89.95865,84.6507 90,84.334721 90,84 l 0,-2 0,-68 0,-2 C 90,8.676 87.324,6 84,6 L 12,6 z"
       inkscape:connector-curvature="0"
       id="rect3728"
       style="fill:url(#linearGradient3188);fill-opacity:1;fill-rule:nonzero;stroke:none" />
    <path
       d="M 12,90 C 8.676,90 6,87.324 6,84 L 6,82 6,14 6,12 c 0,-0.334721 0.04135,-0.6507 0.09375,-0.96875 0.0487,-0.295596 0.09704,-0.596915 0.1875,-0.875 C 6.29113,10.12587 6.302142,10.09265 6.3125,10.0625 6.411365,9.774729 6.5473802,9.515048 6.6875,9.25 6.8320918,8.976493 7.0031161,8.714385 7.1875,8.46875 7.3718839,8.223115 7.5612765,7.995278 7.78125,7.78125 8.221197,7.353194 8.72416,6.966724 9.28125,6.6875 9.559795,6.547888 9.8547231,6.440553 10.15625,6.34375 9.9000482,6.443972 9.6695391,6.580022 9.4375,6.71875 c -0.00741,0.0044 -0.023866,-0.0045 -0.03125,0 -0.031933,0.0193 -0.062293,0.04251 -0.09375,0.0625 -0.120395,0.0767 -0.2310226,0.163513 -0.34375,0.25 -0.1061728,0.0808 -0.2132809,0.161112 -0.3125,0.25 C 8.4783201,7.442683 8.3087904,7.626638 8.15625,7.8125 8.0486711,7.942755 7.9378561,8.077785 7.84375,8.21875 7.818661,8.25713 7.805304,8.30462 7.78125,8.34375 7.716487,8.446782 7.6510225,8.548267 7.59375,8.65625 7.4927417,8.850956 7.3880752,9.071951 7.3125,9.28125 7.30454,9.30306 7.288911,9.3218 7.28125,9.34375 7.2494249,9.4357 7.2454455,9.530581 7.21875,9.625 7.1884177,9.731618 7.1483606,9.828031 7.125,9.9375 7.0521214,10.279012 7,10.635705 7,11 l 0,2 0,68 0,2 c 0,2.781848 2.2181517,5 5,5 l 2,0 68,0 2,0 c 2.781848,0 5,-2.218152 5,-5 l 0,-2 0,-68 0,-2 C 89,10.635705 88.94788,10.279012 88.875,9.9375 88.83085,9.730607 88.78662,9.539842 88.71875,9.34375 88.71105,9.3218 88.69545,9.30306 88.6875,9.28125 88.62476,9.107511 88.549117,8.913801 88.46875,8.75 88.42717,8.6672 88.38971,8.580046 88.34375,8.5 88.28915,8.40279 88.216976,8.31165 88.15625,8.21875 88.06214,8.077785 87.951329,7.942755 87.84375,7.8125 87.700576,7.63805 87.540609,7.465502 87.375,7.3125 87.36383,7.3023 87.35502,7.29135 87.34375,7.28125 87.205364,7.155694 87.058659,7.046814 86.90625,6.9375 86.803679,6.86435 86.701932,6.784136 86.59375,6.71875 c -0.0074,-0.0045 -0.02384,0.0044 -0.03125,0 -0.232039,-0.138728 -0.462548,-0.274778 -0.71875,-0.375 0.301527,0.0968 0.596455,0.204138 0.875,0.34375 0.55709,0.279224 1.060053,0.665694 1.5,1.09375 0.219973,0.214028 0.409366,0.441865 0.59375,0.6875 0.184384,0.245635 0.355408,0.507743 0.5,0.78125 0.14012,0.265048 0.276135,0.524729 0.375,0.8125 0.01041,0.03078 0.02133,0.06274 0.03125,0.09375 0.09046,0.278085 0.1388,0.579404 0.1875,0.875 C 89.95865,11.3493 90,11.665279 90,12 l 0,2 0,68 0,2 c 0,3.324 -2.676,6 -6,6 l -72,0 z"
       inkscape:connector-curvature="0"
       id="path3615"
       style="opacity:0.6;fill:url(#radialGradient3619);fill-opacity:1;fill-rule:nonzero;stroke:none" />
    <rect
       width="84"
       height="84"
       rx="6"
       ry="6"
       x="6"
       y="106"
       id="rect2841"
       style="fill:url(#linearGradient2843);fill-opacity:1;fill-rule:nonzero;stroke:none" />
    <rect
       width="76"
       height="76"
       rx="4"
       ry="4"
       x="10"
       y="110"
       id="rect3634"
       style="fill:#ff0000;fill-opacity:1;fill-rule:nonzero;stroke:none" />
    <path
       d="m 14,9 c -2.752703,0 -5,2.247297 -5,5 l 0,68 c 0,2.752703 2.247297,5 5,5 l 68,0 c 2.752703,0 5,-2.247297 5,-5 L 87,14 C 87,11.247297 84.752703,9 82,9 L 14,9 z m 0,2 68,0 c 1.679297,0 3,1.320703 3,3 l 0,68 c 0,1.679297 -1.320703,3 -3,3 l -68,0 c -1.679297,0 -3,-1.320703 -3,-3 l 0,-68 c 0,-1.679297 1.320703,-3 3,-3 z"
       inkscape:connector-curvature="0"
       transform="translate(-110,0)"
       clip-path="url(#clipPath3649)"
       id="rect3647"
       style="font-size:medium;font-style:normal;font-variant:normal;font-weight:normal;font-stretch:normal;text-indent:0;text-align:start;text-decoration:none;line-height:normal;letter-spacing:normal;word-spacing:normal;text-transform:none;direction:ltr;block-progression:tb;writing-mode:lr-tb;text-anchor:start;color:#000000;fill:#000000;fill-opacity:1;stroke:none;stroke-width:2;marker:none;visibility:visible;display:inline;overflow:visible;filter:url(#filter3657);enable-background:accumulate;font-family:Abandoned Bitplane;-inkscape-font-specification:Abandoned Bitplane" />
    <path
       d="m 14.089286,10 c -2.216,0 -4,1.784 -4,4 l 0,68 c 0,2.216 1.784,4 4,4 l 68,0 c 2.216,0 4,-1.784 4,-4 l 0,-68 c 0,-2.216 -1.784,-4 -4,-4 l -68,0 z m 0,2 68,0 c 1.140301,0 2,0.859699 2,2 l 0,68 c 0,1.140301 -0.859699,2 -2,2 l -68,0 c -1.140301,0 -2,-0.859699 -2,-2 l 0,-68 c 0,-1.140301 0.859699,-2 2,-2 z"
       inkscape:connector-curvature="0"
       id="path3709"
       style="opacity:0.16000001;fill:#000000;fill-opacity:1;fill-rule:nonzero;stroke:none" />
    <path
       d="m 14,10 c -2.216,0 -4,1.784 -4,4 l 0,68 c 0,2.216 1.784,4 4,4 l 68,0 c 2.216,0 4,-1.784 4,-4 l 0,-68 c 0,-2.216 -1.784,-4 -4,-4 l -68,0 z m 0,1 68,0 c 1.673848,0 3,1.326152 3,3 l 0,68 c 0,1.673848 -1.326152,3 -3,3 l -68,0 c -1.673848,0 -3,-1.326152 -3,-3 l 0,-68 c 0,-1.673848 1.326152,-3 3,-3 z"
       inkscape:connector-curvature="0"
       id="path3707"
       style="opacity:0.36000001;fill:#000000;fill-opacity:1;fill-rule:nonzero;stroke:none" />
  </g>
  <g
     id="layer5"
     style="display:none"
     transform="translate(0,160)">
    <rect
       width="66"
       height="66"
       rx="12"
       ry="12"
       x="15"
       y="15"
       clip-path="url(#clipPath3613)"
       id="rect3171"
       style="opacity:0.1;fill:url(#linearGradient3613);fill-opacity:1;fill-rule:nonzero;stroke:#ffffff;stroke-width:0.5;stroke-linecap:round;stroke-linejoin:miter;stroke-miterlimit:4;stroke-opacity:1;stroke-dasharray:none;stroke-dashoffset:0;filter:url(#filter3794)" />
  </g>
  <g
     id="g4814"
     transform="translate(-0.27491618,1.4034338)">
    <path
       d="M 128.2567,9.5965648 C 107.89617,9.9983299 87.473186,14.164131 68.563647,21.647275 c -6.528315,4.666977 -3.755737,13.294164 -4.343861,20.065699 0.670531,6.344301 -2.039819,14.114151 3.222864,19.029047 4.398436,4.143247 10.920275,2.465519 15.377801,-0.709815 17.969729,-8.791301 39.138199,-11.884444 58.688959,-7.322617 7.94262,1.505767 18.62836,10.569516 16.73128,17.420776 -26.85304,0.244377 -55.55845,-2.299119 -79.57097,12.040307 -22.256306,12.715237 -30.210384,41.292218 -24.545864,65.202308 4.094945,20.73645 21.682301,37.10735 42.21212,41.17276 19.505424,3.91819 41.054974,2.78607 58.757914,-6.92422 4.32879,-4.20943 6.80012,-5.84304 5.95195,1.16898 1.20796,6.26269 7.89953,8.72709 13.60138,7.84697 8.34476,-0.24752 16.80895,0.51597 25.07299,-0.42015 6.03484,-1.76557 7.5486,-8.37286 6.8661,-13.88296 -0.13698,-31.73581 0.28353,-63.48233 -0.22819,-95.211012 C 205.48637,57.252673 195.55463,31.581096 173.55472,19.727367 159.83986,11.995362 143.80772,9.6130211 128.2567,9.596789 z m 16.39457,99.9087952 c 5.18461,0 10.36921,0 15.55382,0 -0.18402,17.64888 -11.05021,36.60228 -29.53548,39.78201 -11.5055,2.27522 -27.29671,0.15559 -31.753365,-12.52785 -2.847524,-9.47085 0.368942,-22.22981 11.668855,-23.73701 11.09593,-2.84894 22.65838,-3.42899 34.06617,-3.51715 z m -83.794473,88.41859 c -6.629191,0.74236 -9.326102,7.86091 -8.407472,13.74148 0.241687,8.62575 -0.507049,17.3684 0.420373,25.91376 1.765583,6.03482 8.372861,7.54861 13.882957,6.8661 43.992245,-0.0933 88.011025,0.18654 131.986685,-0.1399 6.26267,-1.20798 8.72711,-7.89953 7.84697,-13.60136 -0.24168,-8.62575 0.50705,-17.3684 -0.42037,-25.91376 -1.76558,-6.03486 -8.37286,-7.54861 -13.88296,-6.8661 -43.80872,0 -87.61745,0 -131.426183,0 z"
       inkscape:connector-curvature="0"
       id="path4098"
       style="font-size:12px;font-style:normal;font-variant:normal;font-weight:normal;font-stretch:normal;text-align:start;line-height:125%;writing-mode:lr-tb;text-anchor:start;opacity:0.1;fill:#000000;fill-opacity:1;stroke:none;display:inline;font-family:Sans;-inkscape-font-specification:Sans" />
    <path
       d="m 128.2567,14.500924 c -8.96425,1.79e-4 -18.21417,1.062928 -27.46441,2.942615 -9.176632,1.771802 -18.541104,4.155399 -28.445281,7.846974 a 4.9743368,4.9743368 0 0 0 -3.222864,4.62411 l 0,23.540922 a 4.9743368,4.9743368 0 0 0 7.286476,4.343861 c 7.67917,-4.059262 15.390212,-7.259528 23.540922,-9.24822 8.169037,-1.992952 16.567017,-2.802356 25.362537,-2.802491 13.55873,1.35e-4 23.3814,3.196409 30.12678,8.687722 6.22901,4.939334 9.38653,11.626525 9.94884,20.598307 l -31.66815,0 c -24.38636,8.9e-5 -43.047615,4.180464 -56.330058,13.872329 -13.178993,9.692807 -20.037822,24.687527 -20.037808,43.158357 -1.4e-5,15.8799 5.213583,29.52902 15.834072,39.375 10.736338,9.75423 25.288677,14.2927 42.457734,14.2927 13.49274,0 25.29253,-2.34602 35.03113,-7.14635 5.68149,-2.8589 10.57119,-6.8792 15.13345,-11.49021 l 0,13.7322 a 4.9743368,4.9743368 0 0 0 4.90436,4.90436 l 26.06317,0 a 4.9743368,4.9743368 0 0 0 4.90436,-4.90436 l 0,-91.641448 c -1.6e-4,-24.255804 -6.0844,-43.327 -18.63657,-56.049815 C 170.5185,20.440904 152.11389,14.501103 128.2567,14.500924 z m 16.39457,90.100076 21.1588,0 0,0.5605 c -1.2e-4,15.53867 -4.36952,27.14461 -12.33096,36.15213 a 4.9743368,4.9743368 0 0 0 0,0.1399 c -7.84398,8.88856 -17.80384,13.452 -31.10764,13.45196 -9.64955,4e-5 -16.39843,-2.48054 -21.57918,-6.8661 -5.046384,-4.41458 -7.566761,-9.86387 -7.566725,-17.6557 -3.6e-5,-10.066 3.178522,-15.82196 9.808715,-19.61743 6.44053,-3.68691 20.79969,-6.16544 41.61699,-6.16548 z m -83.374099,98.2273 a 4.9743368,4.9743368 0 0 0 -3.923487,4.90436 l 0,26.90391 a 4.9743368,4.9743368 0 0 0 4.904358,4.90436 l 134.519558,0 a 4.9743368,4.9743368 0 0 0 4.90436,-4.90436 l 0,-26.90391 a 4.9743368,4.9743368 0 0 0 -4.90436,-4.90436 l -134.519558,0 a 4.9743368,4.9743368 0 0 0 -0.980871,0 z"
       id="path4094"
       style="font-size:12px;font-style:normal;font-variant:normal;font-weight:normal;font-stretch:normal;text-align:start;line-height:125%;writing-mode:lr-tb;text-anchor:start;opacity:0.15;fill:#000000;fill-opacity:1;stroke:none;display:inline;font-family:Sans;-inkscape-font-specification:Sans"
       inkscape:connector-curvature="0" />
    <path
       d="m 128.2567,19.405282 c -8.53197,1.8e-4 -17.47771,1.112612 -26.48354,2.942616 -9.005934,1.738844 -18.170016,3.997966 -27.744656,7.566725 l 0,23.540922 c 7.963064,-4.209341 16.175299,-7.563721 24.802043,-9.668593 8.626623,-2.104603 17.382783,-2.942481 26.483533,-2.942615 14.31454,1.34e-4 25.34111,3.26304 33.20952,9.668593 7.96299,6.314303 12.1907,15.282273 12.19083,26.903911 l 0,2.522242 -36.99288,0 c -23.79458,8.9e-5 -41.348041,4.246737 -53.387442,13.031582 -11.944682,8.785025 -18.076079,21.799435 -18.076066,39.094745 -1.3e-5,14.82464 4.717991,26.85531 14.292703,35.73176 9.669432,8.78493 22.789286,13.03158 39.094745,13.03158 12.89258,0 23.87795,-2.33351 32.78914,-6.72598 8.91097,-4.48398 16.30735,-11.26426 22.2798,-20.5983 l 0,27.32428 26.06317,0 0,-91.641448 C 196.77745,65.760901 190.91799,48.170989 179.54228,36.6406 168.16628,25.110481 151.2927,19.405462 128.2567,19.405282 z m 16.39457,80.29136 26.06316,0 0,5.464858 c -1.3e-4,16.47183 -4.63578,29.54059 -13.45195,39.51512 -8.72161,9.88306 -20.38687,15.1335 -34.89101,15.13345 -10.52276,5e-5 -18.64018,-2.77101 -24.802044,-7.9871 -6.067173,-5.30756 -9.24826,-12.47104 -9.24822,-21.43905 -4e-5,-11.25566 4.038089,-19.29423 12.190834,-23.9613 8.15264,-4.66698 22.999,-6.725933 44.13923,-6.725978 z m -82.393228,108.036018 0,26.90391 134.519558,0 0,-26.90391 -134.519558,0 z"
       inkscape:connector-curvature="0"
       id="path4088"
       style="font-size:12px;font-style:normal;font-variant:normal;font-weight:normal;font-stretch:normal;text-align:start;line-height:125%;writing-mode:lr-tb;text-anchor:start;opacity:0.3;fill:#000000;fill-opacity:1;stroke:none;display:inline;font-family:Sans;-inkscape-font-specification:Sans" />
    <path
       d="m 128.2567,14.921297 c -8.53197,1.8e-4 -17.47771,1.112611 -26.48354,2.942615 -9.005934,1.738845 -18.170016,3.997967 -27.744656,7.566725 l 0,23.540923 c 7.963064,-4.209341 16.175299,-7.563721 24.802043,-9.668593 8.626623,-2.104604 17.382783,-2.942481 26.483533,-2.942616 14.31454,1.35e-4 25.34111,3.263041 33.20952,9.668594 7.96299,6.314303 12.1907,15.282273 12.19083,26.903911 l 0,2.522241 -36.99288,0 c -23.79458,9e-5 -41.348041,4.246738 -53.387442,13.031582 -11.944682,8.785024 -18.076079,21.799431 -18.076066,39.094751 -1.3e-5,14.82464 4.717991,26.8553 14.292703,35.73175 9.669432,8.78494 22.789286,13.03159 39.094745,13.03159 12.89258,0 23.87795,-2.33351 32.78914,-6.72598 8.91097,-4.48399 16.30735,-11.26427 22.2798,-20.59831 l 0,27.32429 26.06317,0 0,-91.641453 C 196.77745,61.276916 190.91799,43.687004 179.54228,32.156615 168.16628,20.626496 151.2927,14.921477 128.2567,14.921297 z m 16.39457,80.29136 26.06316,0 0,5.464853 c -1.3e-4,16.47184 -4.63578,29.54059 -13.45195,39.51513 -8.72161,9.88306 -20.38687,15.13349 -34.89101,15.13345 -10.52276,4e-5 -18.64018,-2.77102 -24.802044,-7.9871 -6.067173,-5.30756 -9.24826,-12.47104 -9.24822,-21.43906 -4e-5,-11.25565 4.038089,-19.29423 12.190834,-23.96129 8.15264,-4.666982 22.999,-6.725938 44.13923,-6.725983 z m -82.393228,108.036023 0,26.90391 134.519558,0 0,-26.90391 -134.519558,0 z"
       inkscape:connector-curvature="0"
       id="path2864"
       style="font-size:12px;font-style:normal;font-variant:normal;font-weight:normal;font-stretch:normal;text-align:start;line-height:125%;writing-mode:lr-tb;text-anchor:start;fill:url(#linearGradient4822);fill-opacity:1;stroke:none;display:inline;font-family:Sans;-inkscape-font-specification:Sans" />
    <path
       d="m 128.2567,14.921297 c -8.53197,1.8e-4 -17.47771,1.112611 -26.48354,2.942615 -9.005934,1.738845 -18.170016,3.997967 -27.744656,7.566725 l 0,4.483986 c 9.57464,-3.568759 18.738722,-5.827881 27.744656,-7.566725 9.00583,-1.830004 17.95157,-2.942436 26.48354,-2.942616 23.036,1.8e-4 39.90958,5.705199 51.28558,17.235318 11.37571,11.530389 17.23517,29.120301 17.23532,52.546702 l 0,-4.483985 C 196.77745,61.276916 190.91799,43.687004 179.54228,32.156615 168.16628,20.626496 151.2927,14.921477 128.2567,14.921297 z m 5.46485,60.5338 c -23.79458,9e-5 -41.348041,4.246738 -53.387442,13.031582 -11.944682,8.785024 -18.076079,21.799431 -18.076066,39.094751 0,0.71326 0.118288,1.40156 0.140125,2.10187 0.551378,-16.09276 6.555672,-28.34274 17.935941,-36.712635 C 92.373509,84.18582 109.92697,79.939172 133.72155,79.939083 l 36.99288,0 0,-2.522242 c -1e-5,-0.677172 0.0287,-1.302598 0,-1.961744 l -36.99288,0 z m 36.99288,25.222413 c -1.3e-4,16.47184 -4.63578,29.54059 -13.45195,39.51513 -8.72161,9.88306 -20.38687,15.13349 -34.89101,15.13345 -10.52276,4e-5 -18.64018,-2.77102 -24.802044,-7.9871 -5.604982,-4.90324 -8.661965,-11.44677 -9.108095,-19.47731 -0.04874,0.83505 -0.140125,1.64831 -0.140125,2.52224 -4e-5,8.96801 3.181047,16.13149 9.24822,21.43905 6.161864,5.21609 14.279284,7.98715 24.802044,7.9871 14.50414,5e-5 26.1694,-5.25039 34.89101,-15.13345 8.81617,-9.97453 13.45182,-23.04329 13.45195,-39.51512 l 0,-4.48399 z m -108.456388,102.57117 0,4.48398 134.519558,0 0,-4.48398 -134.519558,0 z"
       inkscape:connector-curvature="0"
       id="path4070"
       style="font-size:12px;font-style:normal;font-variant:normal;font-weight:normal;font-stretch:normal;text-align:start;line-height:125%;writing-mode:lr-tb;text-anchor:start;opacity:0.75;fill:#ffffff;fill-opacity:1;stroke:none;display:inline;font-family:Sans;-inkscape-font-specification:Sans" />
    <path
       d="m 125.31408,31.876366 c -9.10075,1.35e-4 -17.85691,0.838012 -26.483533,2.942616 -8.626744,2.104872 -16.838979,5.459251 -24.802043,9.668593 l 0,4.483985 c 7.963064,-4.209341 16.175299,-7.563721 24.802043,-9.668593 8.626623,-2.104604 17.382783,-2.942481 26.483533,-2.942616 14.31454,1.35e-4 25.34111,3.263041 33.20952,9.668594 7.499,5.946392 11.72832,14.288936 12.19083,24.942167 l 0,-2.522241 C 170.7143,56.827233 166.48659,47.859262 158.5236,41.544959 150.65519,35.139407 139.62862,31.876501 125.31408,31.876366 z m 19.33719,58.852306 c -21.14023,4.5e-5 -35.98659,2.059001 -44.13923,6.725978 -8.152745,4.66707 -12.190874,12.70564 -12.190834,23.9613 -4e-6,0.68318 0.103356,1.29955 0.140125,1.96174 0.578766,-9.9201 4.530964,-17.13438 12.050709,-21.43905 8.15264,-4.666982 22.999,-6.725938 44.13923,-6.725983 l 26.06316,0 0,-4.483985 -26.06316,0 z M 62.398167,125.19931 c -0.02735,0.79815 -0.140125,1.56487 -0.140125,2.38212 -1.3e-5,14.82464 4.717991,26.8553 14.292703,35.73175 9.669432,8.78494 22.789286,13.03159 39.094745,13.03159 12.89258,0 23.87795,-2.33351 32.78914,-6.72598 8.91097,-4.48399 16.30735,-11.26427 22.2798,-20.59831 l 0,-4.48398 c -5.97245,9.33404 -13.36883,16.11432 -22.2798,20.5983 -8.91119,4.39247 -19.89656,6.72598 -32.78914,6.72598 -16.305459,0 -29.425313,-4.24665 -39.094745,-13.03158 -9.114027,-8.44935 -13.720116,-19.77527 -14.152578,-33.62989 z m 108.316263,46.66147 0,4.48399 26.06317,0 0,-4.48399 -26.06317,0 z m -108.456388,53.80782 0,4.48399 134.519558,0 0,-4.48399 -134.519558,0 z"
       inkscape:connector-curvature="0"
       id="path4079"
       style="font-size:12px;font-style:normal;font-variant:normal;font-weight:normal;font-stretch:normal;text-align:start;line-height:125%;writing-mode:lr-tb;text-anchor:start;opacity:0.15;fill:#000000;fill-opacity:1;stroke:none;display:inline;font-family:Sans;-inkscape-font-specification:Sans" />
  </g>
</svg>
