<?xml version="1.0" encoding="UTF-8" standalone="no"?>
<!-- Created with Inkscape (http://www.inkscape.org/) -->

<svg
   xmlns:dc="http://purl.org/dc/elements/1.1/"
   xmlns:cc="http://creativecommons.org/ns#"
   xmlns:rdf="http://www.w3.org/1999/02/22-rdf-syntax-ns#"
   xmlns:svg="http://www.w3.org/2000/svg"
   xmlns="http://www.w3.org/2000/svg"
   xmlns:xlink="http://www.w3.org/1999/xlink"
   xmlns:sodipodi="http://sodipodi.sourceforge.net/DTD/sodipodi-0.dtd"
   xmlns:inkscape="http://www.inkscape.org/namespaces/inkscape"
   width="256.00305"
   height="256"
   id="svg2"
   sodipodi:version="0.32"
   inkscape:version="0.48.1 r9760"
   sodipodi:docname="joystick.svg"
   inkscape:output_extension="org.inkscape.output.svg.inkscape"
   version="1.0">
  <defs
     id="defs4">
    <linearGradient
       id="linearGradient8413">
      <stop
         style="stop-color:#cccccc;stop-opacity:1;"
         offset="0"
         id="stop8415" />
      <stop
         style="stop-color:#ffffff;stop-opacity:1;"
         offset="1"
         id="stop8417" />
    </linearGradient>
    <linearGradient
       inkscape:collect="always"
       xlink:href="#linearGradient8413"
       id="linearGradient8464"
       gradientUnits="userSpaceOnUse"
       spreadMethod="reflect"
       x1="38.261826"
       y1="766.13812"
       x2="91.854118"
       y2="668.69666"
       gradientTransform="matrix(0.99117938,0,0,0.99308051,0.02313688,-28.486019)" />
  </defs>
  <sodipodi:namedview
     id="base"
     pagecolor="#ffffff"
     bordercolor="#666666"
     borderopacity="1.0"
     gridtolerance="10000"
     guidetolerance="10"
     objecttolerance="10"
     inkscape:pageopacity="0.0"
     inkscape:pageshadow="2"
     inkscape:zoom="1.734375"
     inkscape:cx="128.00153"
     inkscape:cy="128"
     inkscape:document-units="px"
     inkscape:current-layer="layer1"
     showgrid="false"
     inkscape:window-width="1024"
     inkscape:window-height="576"
     inkscape:window-x="0"
     inkscape:window-y="24"
     showguides="true"
     inkscape:guide-bbox="true"
     inkscape:window-maximized="1"
     fit-margin-top="0"
     fit-margin-left="0"
     fit-margin-right="0"
     fit-margin-bottom="0" />
  <metadata
     id="metadata7">
    <rdf:RDF>
      <cc:Work
         rdf:about="">
        <dc:format>image/svg+xml</dc:format>
        <dc:type
           rdf:resource="http://purl.org/dc/dcmitype/StillImage" />
        <dc:title></dc:title>
      </cc:Work>
    </rdf:RDF>
  </metadata>
  <g
     inkscape:label="Layer 1"
     inkscape:groupmode="layer"
     id="layer1"
     transform="translate(0.34526943,-543.40972)">
    <path
       id="path8462"
       d="m 71.670164,587.42046 c -9.573183,0.0152 -18.984147,3.301 -27.257434,8.9998 -1.084904,0.74729 -1.289206,1.22712 -1.42482,2.11028 -0.05214,0.33955 -0.342821,1.55675 -0.588513,2.66892 -2.212663,2.12995 -3.932622,4.52519 -4.955896,7.10672 -6.103946,15.39911 -26.909958,76.42927 -25.73969,108.55612 1.110476,30.48547 6.017492,36.79554 17.314665,36.52676 1.336175,-0.14345 2.590804,-0.32324 3.809845,-0.52758 -0.310962,0.17235 -0.611689,0.3575 -0.929231,0.52758 23.952898,-3.47667 27.03303,-18.12663 44.138459,-31.59239 12.15982,-9.57246 21.634828,-12.69079 35.558571,-13.46866 0.14142,-0.007 0.29127,-0.0241 0.43363,-0.0309 0.47436,-0.0246 0.97076,-0.0426 1.4558,-0.0621 0.71756,-0.0266 1.42573,-0.0453 2.16821,-0.0621 0.1,-0.003 0.20935,0.002 0.30973,0 l 0,0.31035 c 0,0.49275 0.40646,0.86895 0.89826,0.86895 l 6.31877,0 c 0.49182,0 0.89826,-0.3762 0.89826,-0.86895 l 0,-0.34138 c 0.21037,0.002 0.43807,0.0283 0.65045,0.0309 l 0,0.21724 c 0,0.49275 0.37546,0.89999 0.86729,0.89999 l 4.11959,0 c 0.49182,0 0.86727,-0.40724 0.86727,-0.89999 l 0,-0.21724 c 0.0515,-7.5e-4 0.1036,7.2e-4 0.15489,0 0.16413,-0.002 0.33265,0.002 0.49559,0 l 0,0.31034 c 0,0.49275 0.40643,0.86895 0.89825,0.86895 l 6.31876,0 c 0.49182,0 0.89827,-0.3762 0.89827,-0.86895 l 0,-0.31034 c 0.18279,0.004 0.37626,-0.005 0.55753,0 16.23743,0.4074 26.3044,3.14448 39.61621,13.62382 11.96157,9.4164 17.08252,19.25384 27.25742,25.50976 0.45855,0.28193 0.9136,0.57096 1.39385,0.83791 0.28923,0.16077 0.56955,0.34142 0.86729,0.49654 4.07073,2.22551 8.95375,3.88392 15.30133,4.7792 -0.21074,-0.11258 -0.41165,-0.22777 -0.61947,-0.34137 0.7744,0.11106 1.56581,0.2224 2.38501,0.31035 11.43199,0.33994 16.38384,-5.87127 17.50051,-36.52676 1.17027,-32.12684 -19.63574,-93.157 -25.73971,-108.55612 -0.83578,-2.10854 -2.15676,-4.08378 -3.80982,-5.89641 -0.36633,-1.63003 -0.75951,-3.37898 -0.83631,-3.87923 -0.13562,-0.88316 -0.33993,-1.36299 -1.42481,-2.11028 -10.18253,-7.01391 -22.07902,-10.38021 -33.88596,-8.47222 -0.96341,0.15568 -2.04265,1.35522 -2.94255,2.60682 -2.94954,0.57778 -5.64876,1.55865 -7.89846,2.97925 -11.47743,7.24752 -24.03112,8.19291 -39.39941,8.19291 -15.36826,0 -27.952933,-0.94539 -39.430343,-8.19291 -1.985529,-1.25377 -4.297036,-2.16681 -6.845333,-2.76199 -0.927224,-1.32671 -2.07863,-2.65945 -3.097438,-2.82408 -2.213801,-0.35775 -4.419315,-0.53109 -6.628512,-0.52758 z"
       style="opacity:0.05;fill:none;stroke:#000000;stroke-width:24.00000191;stroke-linejoin:round;stroke-miterlimit:4;stroke-opacity:1;stroke-dasharray:none"
       inkscape:connector-curvature="0" />
    <path
       style="opacity:0.1;fill:none;stroke:#000000;stroke-width:18.00000191;stroke-linejoin:round;stroke-miterlimit:4;stroke-opacity:1;stroke-dasharray:none"
       d="m 71.670164,587.42046 c -9.573183,0.0152 -18.984147,3.301 -27.257434,8.9998 -1.084904,0.74729 -1.289206,1.22712 -1.42482,2.11028 -0.05214,0.33955 -0.342821,1.55675 -0.588513,2.66892 -2.212663,2.12995 -3.932622,4.52519 -4.955896,7.10672 -6.103946,15.39911 -26.909958,76.42927 -25.73969,108.55612 1.110476,30.48547 6.017492,36.79554 17.314665,36.52676 1.336175,-0.14345 2.590804,-0.32324 3.809845,-0.52758 -0.310962,0.17235 -0.611689,0.3575 -0.929231,0.52758 23.952898,-3.47667 27.03303,-18.12663 44.138459,-31.59239 12.15982,-9.57246 21.634828,-12.69079 35.558571,-13.46866 0.14142,-0.007 0.29127,-0.0241 0.43363,-0.0309 0.47436,-0.0246 0.97076,-0.0426 1.4558,-0.0621 0.71756,-0.0266 1.42573,-0.0453 2.16821,-0.0621 0.1,-0.003 0.20935,0.002 0.30973,0 l 0,0.31035 c 0,0.49275 0.40646,0.86895 0.89826,0.86895 l 6.31877,0 c 0.49182,0 0.89826,-0.3762 0.89826,-0.86895 l 0,-0.34138 c 0.21037,0.002 0.43807,0.0283 0.65045,0.0309 l 0,0.21724 c 0,0.49275 0.37546,0.89999 0.86729,0.89999 l 4.11959,0 c 0.49182,0 0.86727,-0.40724 0.86727,-0.89999 l 0,-0.21724 c 0.0515,-7.5e-4 0.1036,7.2e-4 0.15489,0 0.16413,-0.002 0.33265,0.002 0.49559,0 l 0,0.31034 c 0,0.49275 0.40643,0.86895 0.89825,0.86895 l 6.31876,0 c 0.49182,0 0.89827,-0.3762 0.89827,-0.86895 l 0,-0.31034 c 0.18279,0.004 0.37626,-0.005 0.55753,0 16.23743,0.4074 26.3044,3.14448 39.61621,13.62382 11.96157,9.4164 17.08252,19.25384 27.25742,25.50976 0.45855,0.28193 0.9136,0.57096 1.39385,0.83791 0.28923,0.16077 0.56955,0.34142 0.86729,0.49654 4.07073,2.22551 8.95375,3.88392 15.30133,4.7792 -0.21074,-0.11258 -0.41165,-0.22777 -0.61947,-0.34137 0.7744,0.11106 1.56581,0.2224 2.38501,0.31035 11.43199,0.33994 16.38384,-5.87127 17.50051,-36.52676 1.17027,-32.12684 -19.63574,-93.157 -25.73971,-108.55612 -0.83578,-2.10854 -2.15676,-4.08378 -3.80982,-5.89641 -0.36633,-1.63003 -0.75951,-3.37898 -0.83631,-3.87923 -0.13562,-0.88316 -0.33993,-1.36299 -1.42481,-2.11028 -10.18253,-7.01391 -22.07902,-10.38021 -33.88596,-8.47222 -0.96341,0.15568 -2.04265,1.35522 -2.94255,2.60682 -2.94954,0.57778 -5.64876,1.55865 -7.89846,2.97925 -11.47743,7.24752 -24.03112,8.19291 -39.39941,8.19291 -15.36826,0 -27.952933,-0.94539 -39.430343,-8.19291 -1.985529,-1.25377 -4.297036,-2.16681 -6.845333,-2.76199 -0.927224,-1.32671 -2.07863,-2.65945 -3.097438,-2.82408 -2.213801,-0.35775 -4.419315,-0.53109 -6.628512,-0.52758 z"
       id="path8460"
       inkscape:connector-curvature="0" />
    <path
       id="path8458"
       d="m 71.670164,587.42046 c -9.573183,0.0152 -18.984147,3.301 -27.257434,8.9998 -1.084904,0.74729 -1.289206,1.22712 -1.42482,2.11028 -0.05214,0.33955 -0.342821,1.55675 -0.588513,2.66892 -2.212663,2.12995 -3.932622,4.52519 -4.955896,7.10672 -6.103946,15.39911 -26.909958,76.42927 -25.73969,108.55612 1.110476,30.48547 6.017492,36.79554 17.314665,36.52676 1.336175,-0.14345 2.590804,-0.32324 3.809845,-0.52758 -0.310962,0.17235 -0.611689,0.3575 -0.929231,0.52758 23.952898,-3.47667 27.03303,-18.12663 44.138459,-31.59239 12.15982,-9.57246 21.634828,-12.69079 35.558571,-13.46866 0.14142,-0.007 0.29127,-0.0241 0.43363,-0.0309 0.47436,-0.0246 0.97076,-0.0426 1.4558,-0.0621 0.71756,-0.0266 1.42573,-0.0453 2.16821,-0.0621 0.1,-0.003 0.20935,0.002 0.30973,0 l 0,0.31035 c 0,0.49275 0.40646,0.86895 0.89826,0.86895 l 6.31877,0 c 0.49182,0 0.89826,-0.3762 0.89826,-0.86895 l 0,-0.34138 c 0.21037,0.002 0.43807,0.0283 0.65045,0.0309 l 0,0.21724 c 0,0.49275 0.37546,0.89999 0.86729,0.89999 l 4.11959,0 c 0.49182,0 0.86727,-0.40724 0.86727,-0.89999 l 0,-0.21724 c 0.0515,-7.5e-4 0.1036,7.2e-4 0.15489,0 0.16413,-0.002 0.33265,0.002 0.49559,0 l 0,0.31034 c 0,0.49275 0.40643,0.86895 0.89825,0.86895 l 6.31876,0 c 0.49182,0 0.89827,-0.3762 0.89827,-0.86895 l 0,-0.31034 c 0.18279,0.004 0.37626,-0.005 0.55753,0 16.23743,0.4074 26.3044,3.14448 39.61621,13.62382 11.96157,9.4164 17.08252,19.25384 27.25742,25.50976 0.45855,0.28193 0.9136,0.57096 1.39385,0.83791 0.28923,0.16077 0.56955,0.34142 0.86729,0.49654 4.07073,2.22551 8.95375,3.88392 15.30133,4.7792 -0.21074,-0.11258 -0.41165,-0.22777 -0.61947,-0.34137 0.7744,0.11106 1.56581,0.2224 2.38501,0.31035 11.43199,0.33994 16.38384,-5.87127 17.50051,-36.52676 1.17027,-32.12684 -19.63574,-93.157 -25.73971,-108.55612 -0.83578,-2.10854 -2.15676,-4.08378 -3.80982,-5.89641 -0.36633,-1.63003 -0.75951,-3.37898 -0.83631,-3.87923 -0.13562,-0.88316 -0.33993,-1.36299 -1.42481,-2.11028 -10.18253,-7.01391 -22.07902,-10.38021 -33.88596,-8.47222 -0.96341,0.15568 -2.04265,1.35522 -2.94255,2.60682 -2.94954,0.57778 -5.64876,1.55865 -7.89846,2.97925 -11.47743,7.24752 -24.03112,8.19291 -39.39941,8.19291 -15.36826,0 -27.952933,-0.94539 -39.430343,-8.19291 -1.985529,-1.25377 -4.297036,-2.16681 -6.845333,-2.76199 -0.927224,-1.32671 -2.07863,-2.65945 -3.097438,-2.82408 -2.213801,-0.35775 -4.419315,-0.53109 -6.628512,-0.52758 z"
       style="opacity:0.15;fill:none;stroke:#000000;stroke-width:12.00000095;stroke-linejoin:round;stroke-miterlimit:4;stroke-opacity:1;stroke-dasharray:none"
       inkscape:connector-curvature="0" />
    <path
       style="opacity:0.2;fill:none;stroke:#000000;stroke-width:6.00000048;stroke-linejoin:round;stroke-miterlimit:4;stroke-opacity:1;stroke-dasharray:none"
       d="m 71.670164,587.42046 c -9.573183,0.0152 -18.984147,3.301 -27.257434,8.9998 -1.084904,0.74729 -1.289206,1.22712 -1.42482,2.11028 -0.05214,0.33955 -0.342821,1.55675 -0.588513,2.66892 -2.212663,2.12995 -3.932622,4.52519 -4.955896,7.10672 -6.103946,15.39911 -26.909958,76.42927 -25.73969,108.55612 1.110476,30.48547 6.017492,36.79554 17.314665,36.52676 1.336175,-0.14345 2.590804,-0.32324 3.809845,-0.52758 -0.310962,0.17235 -0.611689,0.3575 -0.929231,0.52758 23.952898,-3.47667 27.03303,-18.12663 44.138459,-31.59239 12.15982,-9.57246 21.634828,-12.69079 35.558571,-13.46866 0.14142,-0.007 0.29127,-0.0241 0.43363,-0.0309 0.47436,-0.0246 0.97076,-0.0426 1.4558,-0.0621 0.71756,-0.0266 1.42573,-0.0453 2.16821,-0.0621 0.1,-0.003 0.20935,0.002 0.30973,0 l 0,0.31035 c 0,0.49275 0.40646,0.86895 0.89826,0.86895 l 6.31877,0 c 0.49182,0 0.89826,-0.3762 0.89826,-0.86895 l 0,-0.34138 c 0.21037,0.002 0.43807,0.0283 0.65045,0.0309 l 0,0.21724 c 0,0.49275 0.37546,0.89999 0.86729,0.89999 l 4.11959,0 c 0.49182,0 0.86727,-0.40724 0.86727,-0.89999 l 0,-0.21724 c 0.0515,-7.5e-4 0.1036,7.2e-4 0.15489,0 0.16413,-0.002 0.33265,0.002 0.49559,0 l 0,0.31034 c 0,0.49275 0.40643,0.86895 0.89825,0.86895 l 6.31876,0 c 0.49182,0 0.89827,-0.3762 0.89827,-0.86895 l 0,-0.31034 c 0.18279,0.004 0.37626,-0.005 0.55753,0 16.23743,0.4074 26.3044,3.14448 39.61621,13.62382 11.96157,9.4164 17.08252,19.25384 27.25742,25.50976 0.45855,0.28193 0.9136,0.57096 1.39385,0.83791 0.28923,0.16077 0.56955,0.34142 0.86729,0.49654 4.07073,2.22551 8.95375,3.88392 15.30133,4.7792 -0.21074,-0.11258 -0.41165,-0.22777 -0.61947,-0.34137 0.7744,0.11106 1.56581,0.2224 2.38501,0.31035 11.43199,0.33994 16.38384,-5.87127 17.50051,-36.52676 1.17027,-32.12684 -19.63574,-93.157 -25.73971,-108.55612 -0.83578,-2.10854 -2.15676,-4.08378 -3.80982,-5.89641 -0.36633,-1.63003 -0.75951,-3.37898 -0.83631,-3.87923 -0.13562,-0.88316 -0.33993,-1.36299 -1.42481,-2.11028 -10.18253,-7.01391 -22.07902,-10.38021 -33.88596,-8.47222 -0.96341,0.15568 -2.04265,1.35522 -2.94255,2.60682 -2.94954,0.57778 -5.64876,1.55865 -7.89846,2.97925 -11.47743,7.24752 -24.03112,8.19291 -39.39941,8.19291 -15.36826,0 -27.952933,-0.94539 -39.430343,-8.19291 -1.985529,-1.25377 -4.297036,-2.16681 -6.845333,-2.76199 -0.927224,-1.32671 -2.07863,-2.65945 -3.097438,-2.82408 -2.213801,-0.35775 -4.419315,-0.53109 -6.628512,-0.52758 z"
       id="rect8423"
       inkscape:connector-curvature="0" />
    <g
       id="g4442"
       transform="matrix(0.17850145,0,0,0.17884384,61.481898,591.68896)"
       style="stroke:none">
      <rect
         style="fill:#4d4d4d;fill-opacity:1;stroke:none"
         id="rect4436"
         width="45.344299"
         height="27.532085"
         x="390.84552"
         y="630.43866"
         ry="4.973381"
         rx="4.973381" />
      <rect
         rx="4.973381"
         ry="4.973381"
         y="630.43866"
         x="305.26193"
         height="27.532085"
         width="45.344299"
         id="rect4438"
         style="fill:#4d4d4d;fill-opacity:1;stroke:none" />
      <rect
         style="fill:#4d4d4d;fill-opacity:1;stroke:none"
         id="rect4440"
         width="32.910625"
         height="27.325605"
         x="354.27057"
         y="630.23145"
         ry="4.973381"
         rx="4.973381" />
    </g>
    <path
       sodipodi:nodetypes="cssscc"
       id="path3365"
       d="m 214.65382,605.06176 c -0.0678,-0.33967 -1.28832,-5.63872 -1.42392,-6.5219 -0.13562,-0.88319 -0.33904,-1.35874 -1.42395,-2.10602 -10.1825,-7.01391 -22.09628,-10.40006 -33.90322,-8.49208 -2.10198,0.33967 -4.81426,5.63873 -4.81426,5.63873 l 41.56535,11.48127 z"
       style="fill:#d8d8d8;fill-opacity:1;fill-rule:evenodd;stroke:none"
       inkscape:connector-curvature="0" />
    <path
       style="fill:#d8d8d8;fill-opacity:1;fill-rule:evenodd;stroke:none"
       d="m 41.550343,605.06176 c 0.0678,-0.33967 1.288322,-5.63872 1.423932,-6.5219 0.135615,-0.88319 0.339034,-1.35874 1.423937,-2.10602 10.182508,-7.01391 22.096281,-10.40006 33.903218,-8.49208 2.102,0.33967 4.81426,5.63873 4.81426,5.63873 l -41.565347,11.48127 z"
       id="path3352"
       sodipodi:nodetypes="cssscc"
       inkscape:connector-curvature="0" />
    <path
       style="fill:url(#linearGradient8464);fill-opacity:1;fill-rule:evenodd;stroke:none"
       d="m 226.10403,753.39006 c 11.43199,0.33995 16.38697,-5.85689 17.50363,-36.51237 1.17028,-32.12684 -19.6424,-93.17613 -25.74633,-108.57523 -6.10397,-15.39911 -36.83838,-23.57477 -50.78479,-14.76817 -11.4774,7.24751 -24.05127,8.20021 -39.41955,8.20021 -15.36827,0 -27.932416,-0.9527 -39.409833,-8.20021 -3.922429,-2.47685 -9.179428,-3.61735 -14.836876,-3.62404 -14.457917,-0.0171 -31.570392,7.32411 -35.957603,18.39221 -6.103947,15.39909 -26.91661,76.44838 -25.746343,108.57523 1.110479,30.48545 6.022214,36.78601 17.319385,36.51723 26.214004,-2.81403 28.904415,-17.6797 46.576152,-31.59127 16.383755,-12.89766 27.860338,-14.07127 51.967858,-13.60226 24.10751,-0.469 35.57439,0.70461 51.95814,13.60226 17.67174,13.91156 20.36216,28.77238 46.57616,31.58641 z"
       id="path3354"
       sodipodi:nodetypes="cssssscsscscsc"
       inkscape:connector-curvature="0" />
    <path
       style="fill:#808080;fill-opacity:1;fill-rule:evenodd;stroke:none"
       d="m 128.09116,700.93048 c -21.74405,0 -32.757968,0.47766 -43.860896,6.56795 -23.13896,12.69244 -27.784499,32.74886 -52.316961,45.88823 23.952899,-3.47668 27.017307,-18.12066 44.122736,-31.58641 16.383757,-12.89764 27.860331,-14.07127 51.967861,-13.60227 24.10751,-0.46901 35.57439,0.70463 51.95815,13.60227 17.16487,13.51254 20.19265,28.21454 44.37485,31.62527 -24.59253,-13.13868 -29.22427,-33.2228 -52.38482,-45.92709 -11.10293,-6.09029 -22.11683,-6.56795 -43.86092,-6.56795 z"
       id="path3191"
       inkscape:connector-curvature="0" />
    <path
       sodipodi:type="arc"
       style="fill:#d4d4d4;fill-opacity:1;fill-rule:evenodd;stroke:none"
       id="path3339"
       sodipodi:cx="160.65491"
       sodipodi:cy="389.37787"
       sodipodi:rx="68.636604"
       sodipodi:ry="68.636604"
       d="m 229.29151,389.37787 a 68.636604,68.636604 0 1 1 -137.273207,0 68.636604,68.636604 0 1 1 137.273207,0 z"
       transform="matrix(0.40920451,0,0,0.42194695,96.230521,502.04681)" />
    <path
       sodipodi:type="arc"
       style="fill:#d4d4d4;fill-opacity:1;fill-rule:evenodd;stroke:none"
       id="path3335"
       sodipodi:cx="160.65491"
       sodipodi:cy="389.37787"
       sodipodi:rx="68.636604"
       sodipodi:ry="68.636604"
       d="m 229.29151,389.37787 a 68.636604,68.636604 0 1 1 -137.273207,0 68.636604,68.636604 0 1 1 137.273207,0 z"
       transform="matrix(0.34611774,0,0,0.3228665,6.073675,499.11975)" />
    <path
       transform="matrix(0.40920451,0,0,0.42194695,27.652923,502.04681)"
       d="m 229.29151,389.37787 a 68.636604,68.636604 0 1 1 -137.273207,0 68.636604,68.636604 0 1 1 137.273207,0 z"
       sodipodi:ry="68.636604"
       sodipodi:rx="68.636604"
       sodipodi:cy="389.37787"
       sodipodi:cx="160.65491"
       id="path3337"
       style="fill:#d4d4d4;fill-opacity:1;fill-rule:evenodd;stroke:none"
       sodipodi:type="arc" />
    <path
       sodipodi:type="arc"
       style="fill:#333333;fill-opacity:1;fill-rule:evenodd;stroke:#000000;stroke-width:2.66738129;stroke-linecap:round;stroke-linejoin:round;stroke-miterlimit:4;stroke-opacity:1;stroke-dasharray:none"
       id="path3249"
       sodipodi:cx="211.80083"
       sodipodi:cy="443.66501"
       sodipodi:rx="53.410645"
       sodipodi:ry="53.410645"
       d="m 265.21147,443.66501 a 53.410645,53.410645 0 1 1 -106.82129,0 53.410645,53.410645 0 1 1 106.82129,0 z"
       transform="matrix(0.35177786,0,0,0.35245259,19.247051,505.53795)" />
    <path
       id="path3253"
       style="fill:#3a3a3a;fill-opacity:1;fill-rule:evenodd;stroke:#515151;stroke-width:0.93922585;stroke-linecap:round;stroke-linejoin:round;stroke-miterlimit:4;stroke-opacity:1"
       d="m 88.697918,678.88626 c 0,1.67115 10.112063,1.54304 10.112063,0 0,-6.23504 5.050569,-11.29536 11.273579,-11.29536 1.62877,0.3596 2.25784,-11.05346 0,-11.36384 -6.22301,0 -11.273579,-5.06032 -11.273579,-11.29536 0,-1.67737 -10.112063,-1.80511 -10.112063,0 0,6.23504 -5.050563,11.29536 -11.273587,11.29536 -1.824653,-0.0699 -2.189454,11.29969 0,11.36384 6.223024,0 11.273587,5.06032 11.273587,11.29536 z"
       sodipodi:nodetypes="ccccssccc"
       inkscape:connector-curvature="0" />
    <g
       id="g3292"
       transform="matrix(0.31031373,0,0,0.31090893,11.240864,506.0037)">
      <rect
         ry="16.450199"
         rx="16.450203"
         y="372.24924"
         x="437.39334"
         height="29.558952"
         width="37.428303"
         id="rect3288"
         style="fill:#d1d1d1;fill-opacity:1;fill-rule:evenodd;stroke:#6d6d6d;stroke-width:1.00793314;stroke-linecap:round;stroke-linejoin:round;stroke-miterlimit:4;stroke-opacity:1;stroke-dasharray:none" />
      <path
         transform="matrix(0,1.12594,1.12594,0,20.7192,57.3957)"
         d="m 300.92577,381.6729 -8.16362,14.13981 -8.16363,-14.13981 z"
         inkscape:randomized="0"
         inkscape:rounded="0"
         inkscape:flatsided="true"
         sodipodi:arg2="0.52359878"
         sodipodi:arg1="-0.52359878"
         sodipodi:r2="4.7132702"
         sodipodi:r1="9.4265404"
         sodipodi:cy="386.38617"
         sodipodi:cx="292.76215"
         sodipodi:sides="3"
         id="path3290"
         style="fill:#717171;fill-opacity:1;fill-rule:evenodd;stroke:none"
         sodipodi:type="star" />
    </g>
    <g
       id="g3296"
       transform="matrix(-0.31031373,0,0,0.31090893,246.21756,506.0037)">
      <rect
         style="fill:#d1d1d1;fill-opacity:1;fill-rule:evenodd;stroke:#6d6d6d;stroke-width:1.00793314;stroke-linecap:round;stroke-linejoin:round;stroke-miterlimit:4;stroke-opacity:1;stroke-dasharray:none"
         id="rect3298"
         width="37.428303"
         height="29.558952"
         x="437.39334"
         y="372.24924"
         rx="16.450203"
         ry="16.450199" />
      <path
         sodipodi:type="star"
         style="fill:#717171;fill-opacity:1;fill-rule:evenodd;stroke:none"
         id="path3300"
         sodipodi:sides="3"
         sodipodi:cx="292.76215"
         sodipodi:cy="386.38617"
         sodipodi:r1="9.4265404"
         sodipodi:r2="4.7132702"
         sodipodi:arg1="-0.52359878"
         sodipodi:arg2="0.52359878"
         inkscape:flatsided="true"
         inkscape:rounded="0"
         inkscape:randomized="0"
         d="m 300.92577,381.6729 -8.16362,14.13981 -8.16363,-14.13981 z"
         transform="matrix(0,1.12594,1.12594,0,20.7192,57.3957)" />
    </g>
    <path
       transform="matrix(0.35284844,0,0,0.35352523,-5.6620488,487.63567)"
       d="m 418.96601,392.55499 a 37.527016,37.527016 0 1 1 -75.05403,0 37.527016,37.527016 0 1 1 75.05403,0 z"
       sodipodi:ry="37.527016"
       sodipodi:rx="37.527016"
       sodipodi:cy="392.55499"
       sodipodi:cx="381.439"
       id="path3304"
       style="fill:#00ff00;fill-opacity:1;fill-rule:evenodd;stroke:#000000;stroke-width:0.88642645;stroke-linecap:round;stroke-linejoin:round;stroke-miterlimit:4;stroke-opacity:1;stroke-dasharray:none"
       sodipodi:type="arc" />
    <path
       sodipodi:type="arc"
       style="fill:#979797;fill-opacity:1;fill-rule:evenodd;stroke:#000000;stroke-width:1.04336762;stroke-linecap:round;stroke-linejoin:round;stroke-miterlimit:4;stroke-opacity:1;stroke-dasharray:none"
       id="path3302"
       sodipodi:cx="381.439"
       sodipodi:cy="392.55499"
       sodipodi:rx="37.527016"
       sodipodi:ry="37.527016"
       d="m 418.96601,392.55499 a 37.527016,37.527016 0 1 1 -75.05403,0 37.527016,37.527016 0 1 1 75.05403,0 z"
       transform="matrix(0.29977485,0,0,0.30034985,14.582788,508.51046)" />
    <path
       transform="matrix(0.22332566,0,0,0.22375401,43.743436,537.01068)"
       d="m 418.96601,392.55499 a 37.527016,37.527016 0 1 1 -75.05403,0 37.527016,37.527016 0 1 1 75.05403,0 z"
       sodipodi:ry="37.527016"
       sodipodi:rx="37.527016"
       sodipodi:cy="392.55499"
       sodipodi:cx="381.439"
       id="path3310"
       style="fill:#a7a7a7;fill-opacity:1;fill-rule:evenodd;stroke:none"
       sodipodi:type="arc" />
    <path
       style="fill:#00ff00;fill-opacity:1;fill-rule:evenodd;stroke:none"
       d="m 118.28052,631.80853 c 3.60431,-8.95041 8.65046,-14.38457 16.98916,-15.66321 l 0.95713,0.79915 c -6.81127,2.45305 -13.29074,9.15071 -16.67013,16.62217 l -1.27616,-1.75811 z"
       id="path3306"
       sodipodi:nodetypes="ccccc"
       inkscape:connector-curvature="0" />
    <path
       sodipodi:nodetypes="ccccc"
       id="path3308"
       d="m 138.85048,631.40322 c -3.3335,-8.27789 -8.00049,-13.30376 -15.71263,-14.48631 l -0.88524,0.73909 c 6.29951,2.26874 12.29213,8.46316 15.41758,15.37324 l 1.18029,-1.62602 z"
       style="fill:#00ff00;fill-opacity:1;fill-rule:evenodd;stroke:none"
       inkscape:connector-curvature="0" />
    <text
       xml:space="preserve"
       style="font-size:3.39605951px;font-style:normal;font-variant:normal;font-weight:normal;font-stretch:normal;text-align:center;line-height:-200%;writing-mode:lr-tb;text-anchor:middle;fill:#000000;fill-opacity:1;stroke:none;font-family:DejaVu Sans Mono;-inkscape-font-specification:DejaVu Sans Mono"
       x="158.10442"
       y="618.7113"
       id="text3312"
       sodipodi:linespacing="-200%"
       transform="scale(0.99904231,1.0009586)"><tspan
         sodipodi:role="line"
         id="tspan3314"
         x="158.10442"
         y="618.7113">START</tspan></text>
    <path
       d="m 179.4913,662.69628 c 0,9.76433 -7.90951,17.68901 -17.65514,17.68901 -9.74563,0 -17.65513,-7.92468 -17.65513,-17.68901 0,-9.76431 7.9095,-17.689 17.65513,-17.689 9.74563,0 17.65514,7.92469 17.65514,17.689 z m -2.57676,0 c 0,8.33922 -6.7551,15.10728 -15.07838,15.10728 -8.32325,0 -15.07836,-6.76806 -15.07836,-15.10728 0,-8.33924 6.75511,-15.10729 15.07836,-15.10729 8.32328,0 15.07838,6.76805 15.07838,15.10729 z"
       style="fill:#dfdfdf;fill-opacity:1;fill-rule:evenodd;stroke:none"
       id="path3348"
       inkscape:connector-curvature="0" />
    <text
       xml:space="preserve"
       style="font-size:3.39605951px;font-style:normal;font-variant:normal;font-weight:normal;font-stretch:normal;text-align:center;line-height:100%;writing-mode:lr-tb;text-anchor:middle;fill:#000000;fill-opacity:1;stroke:none;font-family:DejaVu Sans Mono;-inkscape-font-specification:DejaVu Sans Mono"
       x="99.709877"
       y="618.24664"
       id="text3316"
       sodipodi:linespacing="100%"
       transform="scale(0.99904231,1.0009586)"><tspan
         sodipodi:role="line"
         id="tspan3318"
         x="99.709877"
         y="618.24664">BACK</tspan></text>
    <path
       id="path3350"
       style="fill:#dfdfdf;fill-opacity:1;fill-rule:evenodd;stroke:none"
       d="m 79.099204,622.6132 c 0,9.39819 -7.612928,17.02572 -16.993135,17.02572 -9.380205,0 -16.993133,-7.62753 -16.993133,-17.02572 0,-9.3982 7.612928,-17.02573 16.993133,-17.02573 9.380207,0 16.993135,7.62753 16.993135,17.02573 z m -2.480142,0 c 0,8.02653 -6.501824,14.54082 -14.512993,14.54082 -8.011171,0 -14.512994,-6.51429 -14.512994,-14.54082 0,-8.02654 6.501823,-14.54082 14.512994,-14.54082 8.011169,0 14.512993,6.51428 14.512993,14.54082 z"
       inkscape:connector-curvature="0" />
    <path
       id="path3320"
       style="fill:none;stroke:#969696;stroke-width:0.25464615;stroke-linecap:round;stroke-linejoin:round;stroke-miterlimit:4;stroke-opacity:1"
       d="m 128.92147,640.81706 c 3.91485,0 7.55692,-1.48363 10.03272,-4.13042 2.20772,-2.3602 4.8678,-4.32626 7.02387,-4.32626 2.15606,0 -0.16549,0 -0.16549,0 0,0 8.67145,0 8.67145,0 3.24392,0 5.87667,-2.6378 5.87667,-5.91698 0,-3.27918 -2.63275,-5.91697 -5.87667,-5.91697 0,0 -8.67145,0 -8.67145,0 0,0 2.32155,0 0.16549,0 -2.15607,0 -4.81615,-1.96606 -7.02387,-4.32627 -2.4758,-2.64679 -6.12507,-4.13042 -10.03272,-4.13042 -3.90766,0 -7.55692,1.48363 -10.03272,4.13042 -2.20774,2.36021 -4.86781,4.32627 -7.02388,4.32627 -2.15607,0 0.16551,0 0.16551,0 0,0 -8.67147,0 -8.67147,0 -3.24393,0 -5.876664,2.63779 -5.876664,5.91697 0,3.27918 2.632734,5.91698 5.876664,5.91698 0,0 8.67147,0 8.67147,0 0,0 -2.32158,0 -0.16551,0 2.15607,0 4.81614,1.96606 7.02388,4.32626 2.4758,2.64679 6.11788,4.13042 10.03272,4.13042 z"
       sodipodi:nodetypes="cssccsccsscssccsccssc"
       inkscape:connector-curvature="0" />
    <path
       id="path3341"
       style="fill:#dfdfdf;fill-opacity:1;fill-rule:evenodd;stroke:none"
       d="m 116.17046,661.90892 c 0,12.39766 -10.04261,22.45953 -22.416516,22.45953 -12.373922,0 -22.416525,-10.06187 -22.416525,-22.45953 0,-12.39766 10.042603,-22.45952 22.416525,-22.45952 12.373906,0 22.416516,10.06186 22.416516,22.45952 z m -3.27169,0 c 0,10.58823 -8.57687,19.18156 -19.144826,19.18156 -10.567952,0 -19.144843,-8.59333 -19.144843,-19.18156 0,-10.58822 8.576891,-19.18155 19.144843,-19.18155 10.567956,0 19.144826,8.59333 19.144826,19.18155 z"
       inkscape:connector-curvature="0" />
    <g
       transform="matrix(0.31031373,0,0,0.31090893,-88.632059,468.92688)"
       id="g3233">
      <path
         sodipodi:type="arc"
         style="fill:#4d4d4d;fill-opacity:1;fill-rule:evenodd;stroke:#000000;stroke-width:3.02379894;stroke-linecap:round;stroke-linejoin:round;stroke-miterlimit:4;stroke-opacity:1;stroke-dasharray:none"
         id="path3235"
         sodipodi:cx="491.28583"
         sodipodi:cy="494.31305"
         sodipodi:rx="49.266716"
         sodipodi:ry="49.266716"
         d="m 540.55254,494.31305 c 0,27.20926 -22.05746,49.26672 -49.26671,49.26672 -27.20926,0 -49.26672,-22.05746 -49.26672,-49.26672 0,-27.20926 22.05746,-49.26672 49.26672,-49.26672 27.20925,0 49.26671,22.05746 49.26671,49.26672 z"
         transform="translate(-5.52524,0)" />
      <path
         transform="matrix(0.71028,0,0,0.71028,136.81,143.212)"
         d="m 540.55254,494.31305 c 0,27.20926 -22.05746,49.26672 -49.26671,49.26672 -27.20926,0 -49.26672,-22.05746 -49.26672,-49.26672 0,-27.20926 22.05746,-49.26672 49.26672,-49.26672 27.20925,0 49.26671,22.05746 49.26671,49.26672 z"
         sodipodi:ry="49.266716"
         sodipodi:rx="49.266716"
         sodipodi:cy="494.31305"
         sodipodi:cx="491.28583"
         id="path3237"
         style="fill:#333333;fill-opacity:1;fill-rule:evenodd;stroke:none"
         sodipodi:type="arc" />
      <g
         id="g3239"
         transform="matrix(1.07463,0,0,1.07463,-36.2508,-36.889)">
        <path
           transform="matrix(0.0841122,0,0,0.0841122,471.143,452.735)"
           d="m 540.55254,494.31305 c 0,27.20926 -22.05746,49.26672 -49.26671,49.26672 -27.20926,0 -49.26672,-22.05746 -49.26672,-49.26672 0,-27.20926 22.05746,-49.26672 49.26672,-49.26672 27.20925,0 49.26671,22.05746 49.26671,49.26672 z"
           sodipodi:ry="49.266716"
           sodipodi:rx="49.266716"
           sodipodi:cy="494.31305"
           sodipodi:cx="491.28583"
           id="path3241"
           style="fill:#9b9b9b;fill-opacity:1;fill-rule:evenodd;stroke:none"
           sodipodi:type="arc" />
        <path
           sodipodi:type="arc"
           style="fill:#9b9b9b;fill-opacity:1;fill-rule:evenodd;stroke:none"
           id="path3243"
           sodipodi:cx="491.28583"
           sodipodi:cy="494.31305"
           sodipodi:rx="49.266716"
           sodipodi:ry="49.266716"
           d="m 540.55254,494.31305 c 0,27.20926 -22.05746,49.26672 -49.26671,49.26672 -27.20926,0 -49.26672,-22.05746 -49.26672,-49.26672 0,-27.20926 22.05746,-49.26672 49.26672,-49.26672 27.20925,0 49.26671,22.05746 49.26671,49.26672 z"
           transform="matrix(0.0841122,0,0,0.0841122,417.732,452.735)" />
        <path
           sodipodi:type="arc"
           style="fill:#9b9b9b;fill-opacity:1;fill-rule:evenodd;stroke:none"
           id="path3245"
           sodipodi:cx="491.28583"
           sodipodi:cy="494.31305"
           sodipodi:rx="49.266716"
           sodipodi:ry="49.266716"
           d="m 540.55254,494.31305 c 0,27.20926 -22.05746,49.26672 -49.26671,49.26672 -27.20926,0 -49.26672,-22.05746 -49.26672,-49.26672 0,-27.20926 22.05746,-49.26672 49.26672,-49.26672 27.20925,0 49.26671,22.05746 49.26671,49.26672 z"
           transform="matrix(0,0.0841122,-0.0841122,0,527.338,479.695)" />
        <path
           transform="matrix(0,0.0841122,-0.0841122,0,527.338,426.285)"
           d="m 540.55254,494.31305 c 0,27.20926 -22.05746,49.26672 -49.26671,49.26672 -27.20926,0 -49.26672,-22.05746 -49.26672,-49.26672 0,-27.20926 22.05746,-49.26672 49.26672,-49.26672 27.20925,0 49.26671,22.05746 49.26671,49.26672 z"
           sodipodi:ry="49.266716"
           sodipodi:rx="49.266716"
           sodipodi:cy="494.31305"
           sodipodi:cx="491.28583"
           id="path3247"
           style="fill:#9b9b9b;fill-opacity:1;fill-rule:evenodd;stroke:none"
           sodipodi:type="arc" />
      </g>
    </g>
    <g
       id="g3224"
       transform="matrix(0.31031373,0,0,0.31090893,11.097984,509.00993)">
      <path
         transform="translate(-5.52524,0)"
         d="m 540.55254,494.31305 c 0,27.20926 -22.05746,49.26672 -49.26671,49.26672 -27.20926,0 -49.26672,-22.05746 -49.26672,-49.26672 0,-27.20926 22.05746,-49.26672 49.26672,-49.26672 27.20925,0 49.26671,22.05746 49.26671,49.26672 z"
         sodipodi:ry="49.266716"
         sodipodi:rx="49.266716"
         sodipodi:cy="494.31305"
         sodipodi:cx="491.28583"
         id="path3196"
         style="fill:#4d4d4d;fill-opacity:1;fill-rule:evenodd;stroke:#000000;stroke-width:3.02379894;stroke-linecap:round;stroke-linejoin:round;stroke-miterlimit:4;stroke-opacity:1;stroke-dasharray:none"
         sodipodi:type="arc" />
      <path
         sodipodi:type="arc"
         style="fill:#333333;fill-opacity:1;fill-rule:evenodd;stroke:none"
         id="path3198"
         sodipodi:cx="491.28583"
         sodipodi:cy="494.31305"
         sodipodi:rx="49.266716"
         sodipodi:ry="49.266716"
         d="m 540.55254,494.31305 c 0,27.20926 -22.05746,49.26672 -49.26671,49.26672 -27.20926,0 -49.26672,-22.05746 -49.26672,-49.26672 0,-27.20926 22.05746,-49.26672 49.26672,-49.26672 27.20925,0 49.26671,22.05746 49.26671,49.26672 z"
         transform="matrix(0.71028,0,0,0.71028,136.81,143.212)" />
      <g
         transform="matrix(1.07463,0,0,1.07463,-36.2508,-36.889)"
         id="g3218">
        <path
           sodipodi:type="arc"
           style="fill:#9b9b9b;fill-opacity:1;fill-rule:evenodd;stroke:none"
           id="path3200"
           sodipodi:cx="491.28583"
           sodipodi:cy="494.31305"
           sodipodi:rx="49.266716"
           sodipodi:ry="49.266716"
           d="m 540.55254,494.31305 c 0,27.20926 -22.05746,49.26672 -49.26671,49.26672 -27.20926,0 -49.26672,-22.05746 -49.26672,-49.26672 0,-27.20926 22.05746,-49.26672 49.26672,-49.26672 27.20925,0 49.26671,22.05746 49.26671,49.26672 z"
           transform="matrix(0.0841122,0,0,0.0841122,471.143,452.735)" />
        <path
           transform="matrix(0.0841122,0,0,0.0841122,417.732,452.735)"
           d="m 540.55254,494.31305 c 0,27.20926 -22.05746,49.26672 -49.26671,49.26672 -27.20926,0 -49.26672,-22.05746 -49.26672,-49.26672 0,-27.20926 22.05746,-49.26672 49.26672,-49.26672 27.20925,0 49.26671,22.05746 49.26671,49.26672 z"
           sodipodi:ry="49.266716"
           sodipodi:rx="49.266716"
           sodipodi:cy="494.31305"
           sodipodi:cx="491.28583"
           id="path3202"
           style="fill:#9b9b9b;fill-opacity:1;fill-rule:evenodd;stroke:none"
           sodipodi:type="arc" />
        <path
           transform="matrix(0,0.0841122,-0.0841122,0,527.338,479.695)"
           d="m 540.55254,494.31305 c 0,27.20926 -22.05746,49.26672 -49.26671,49.26672 -27.20926,0 -49.26672,-22.05746 -49.26672,-49.26672 0,-27.20926 22.05746,-49.26672 49.26672,-49.26672 27.20925,0 49.26671,22.05746 49.26671,49.26672 z"
           sodipodi:ry="49.266716"
           sodipodi:rx="49.266716"
           sodipodi:cy="494.31305"
           sodipodi:cx="491.28583"
           id="path3210"
           style="fill:#9b9b9b;fill-opacity:1;fill-rule:evenodd;stroke:none"
           sodipodi:type="arc" />
        <path
           sodipodi:type="arc"
           style="fill:#9b9b9b;fill-opacity:1;fill-rule:evenodd;stroke:none"
           id="path3212"
           sodipodi:cx="491.28583"
           sodipodi:cy="494.31305"
           sodipodi:rx="49.266716"
           sodipodi:ry="49.266716"
           d="m 540.55254,494.31305 c 0,27.20926 -22.05746,49.26672 -49.26671,49.26672 -27.20926,0 -49.26672,-22.05746 -49.26672,-49.26672 0,-27.20926 22.05746,-49.26672 49.26672,-49.26672 27.20925,0 49.26671,22.05746 49.26671,49.26672 z"
           transform="matrix(0,0.0841122,-0.0841122,0,527.338,426.285)" />
      </g>
    </g>
    <path
       transform="matrix(0.39197589,0,0,0.39272772,1.0903162,474.89852)"
       d="m 565.68628,384.47525 a 28.661438,28.661438 0 1 1 -57.32288,0 28.661438,28.661438 0 1 1 57.32288,0 z"
       sodipodi:ry="28.661438"
       sodipodi:rx="28.661438"
       sodipodi:cy="384.47525"
       sodipodi:cx="537.02484"
       id="path3405"
       style="fill:#dadada;fill-opacity:1;fill-rule:evenodd;stroke:none"
       sodipodi:type="arc" />
    <path
       sodipodi:type="arc"
       style="fill:#dadada;fill-opacity:1;fill-rule:evenodd;stroke:none"
       id="path3403"
       sodipodi:cx="537.02484"
       sodipodi:cy="384.47525"
       sodipodi:rx="28.661438"
       sodipodi:ry="28.661438"
       d="m 565.68628,384.47525 a 28.661438,28.661438 0 1 1 -57.32288,0 28.661438,28.661438 0 1 1 57.32288,0 z"
       transform="matrix(0.39197589,0,0,0.39272772,-32.730281,474.89852)" />
    <path
       sodipodi:type="arc"
       style="fill:#0000ff;fill-opacity:1;fill-rule:evenodd;stroke:#000000;stroke-width:1.00793314;stroke-linecap:round;stroke-linejoin:round;stroke-miterlimit:4;stroke-opacity:1;stroke-dasharray:none"
       id="path3367"
       sodipodi:cx="536.64771"
       sodipodi:cy="382.96677"
       sodipodi:rx="25.267321"
       sodipodi:ry="25.267321"
       d="m 561.91503,382.96677 a 25.267321,25.267321 0 1 1 -50.53465,0 25.267321,25.267321 0 1 1 50.53465,0 z"
       transform="matrix(0.31031373,0,0,0.31090893,11.240864,506.0037)" />
    <path
       sodipodi:type="arc"
       style="fill:#dadada;fill-opacity:1;fill-rule:evenodd;stroke:none"
       id="path3407"
       sodipodi:cx="537.02484"
       sodipodi:cy="384.47525"
       sodipodi:rx="28.661438"
       sodipodi:ry="28.661438"
       d="m 565.68628,384.47525 a 28.661438,28.661438 0 1 1 -57.32288,0 28.661438,28.661438 0 1 1 57.32288,0 z"
       transform="matrix(0.39197589,0,0,0.39272772,-15.87857,458.71787)" />
    <path
       d="m 561.91503,382.96677 a 25.267321,25.267321 0 1 1 -50.53465,0 25.267321,25.267321 0 1 1 50.53465,0 z"
       sodipodi:ry="25.267321"
       sodipodi:rx="25.267321"
       sodipodi:cy="382.96677"
       sodipodi:cx="536.64771"
       id="path3369"
       style="fill:#ff0000;fill-opacity:1;fill-rule:evenodd;stroke:#000000;stroke-width:1.00793314;stroke-linecap:round;stroke-linejoin:round;stroke-miterlimit:4;stroke-opacity:1;stroke-dasharray:none"
       sodipodi:type="arc"
       transform="matrix(0.31031373,0,0,0.31090893,45.178636,506.0037)" />
    <path
       d="m 561.91503,382.96677 a 25.267321,25.267321 0 1 1 -50.53465,0 25.267321,25.267321 0 1 1 50.53465,0 z"
       sodipodi:ry="25.267321"
       sodipodi:rx="25.267321"
       sodipodi:cy="382.96677"
       sodipodi:cx="536.64771"
       id="path3371"
       style="fill:#ffff00;fill-opacity:1;fill-rule:evenodd;stroke:#000000;stroke-width:1.00793314;stroke-linecap:round;stroke-linejoin:round;stroke-miterlimit:4;stroke-opacity:1;stroke-dasharray:none"
       sodipodi:type="arc"
       transform="matrix(-0.31031373,0,0,-0.31090893,361.26854,727.138)" />
    <path
       transform="matrix(0.39197589,0,0,0.39272772,-15.87857,492.13433)"
       d="m 565.68628,384.47525 a 28.661438,28.661438 0 1 1 -57.32288,0 28.661438,28.661438 0 1 1 57.32288,0 z"
       sodipodi:ry="28.661438"
       sodipodi:rx="28.661438"
       sodipodi:cy="384.47525"
       sodipodi:cx="537.02484"
       id="path3409"
       style="fill:#dadada;fill-opacity:1;fill-rule:evenodd;stroke:none"
       sodipodi:type="arc" />
    <path
       transform="matrix(-0.31031373,0,0,-0.31090893,361.26854,761.14086)"
       sodipodi:type="arc"
       style="fill:#00ff00;fill-opacity:1;fill-rule:evenodd;stroke:#000000;stroke-width:1.00793314;stroke-linecap:round;stroke-linejoin:round;stroke-miterlimit:4;stroke-opacity:1;stroke-dasharray:none"
       id="path3373"
       sodipodi:cx="536.64771"
       sodipodi:cy="382.96677"
       sodipodi:rx="25.267321"
       sodipodi:ry="25.267321"
       d="m 561.91503,382.96677 a 25.267321,25.267321 0 1 1 -50.53465,0 25.267321,25.267321 0 1 1 50.53465,0 z" />
    <text
       xml:space="preserve"
       style="font-size:9.67765999px;font-style:normal;font-variant:normal;font-weight:bold;font-stretch:normal;text-align:center;line-height:-200%;writing-mode:lr-tb;text-anchor:middle;fill:#000000;fill-opacity:1;stroke:none;font-family:DejaVu Sans Mono;-inkscape-font-specification:DejaVu Sans Mono Bold"
       x="163.04314"
       y="685.05115"
       id="text3381"
       sodipodi:linespacing="-200%"
       transform="scale(1.090313,0.91716782)"><tspan
         sodipodi:role="line"
         id="tspan3383"
         x="163.04314"
         y="685.05115">X</tspan></text>
    <text
       xml:space="preserve"
       style="font-size:9.67765999px;font-style:normal;font-variant:normal;font-weight:bold;font-stretch:normal;text-align:center;line-height:-200%;writing-mode:lr-tb;text-anchor:middle;fill:#000000;fill-opacity:1;stroke:none;font-family:DejaVu Sans Mono;-inkscape-font-specification:DejaVu Sans Mono Bold"
       x="178.60649"
       y="666.51428"
       id="text3385"
       sodipodi:linespacing="-200%"
       transform="scale(1.090313,0.91716782)"><tspan
         sodipodi:role="line"
         id="tspan3387"
         x="178.60649"
         y="666.51428">Y</tspan></text>
    <text
       xml:space="preserve"
       style="font-size:9.67765999px;font-style:normal;font-variant:normal;font-weight:bold;font-stretch:normal;text-align:center;line-height:-200%;writing-mode:lr-tb;text-anchor:middle;fill:#000000;fill-opacity:1;stroke:none;font-family:DejaVu Sans Mono;-inkscape-font-specification:DejaVu Sans Mono Bold"
       x="178.60649"
       y="703.58795"
       id="text3389"
       sodipodi:linespacing="-200%"
       transform="scale(1.090313,0.91716782)"><tspan
         sodipodi:role="line"
         id="tspan3391"
         x="178.60649"
         y="703.58795">A</tspan></text>
    <text
       xml:space="preserve"
       style="font-size:9.67765999px;font-style:normal;font-variant:normal;font-weight:bold;font-stretch:normal;text-align:center;line-height:-200%;writing-mode:lr-tb;text-anchor:middle;fill:#000000;fill-opacity:1;stroke:none;font-family:DejaVu Sans Mono;-inkscape-font-specification:DejaVu Sans Mono Bold"
       x="194.04936"
       y="685.05591"
       id="text3393"
       sodipodi:linespacing="-200%"
       transform="scale(1.090313,0.91716782)"><tspan
         sodipodi:role="line"
         id="tspan3395"
         x="194.04936"
         y="685.05591">B</tspan></text>
    <path
       style="fill:#ffffff;fill-opacity:0.48677243;fill-rule:evenodd;stroke:none"
       d="m 183.1022,620.78897 c 0,1.83063 -2.39588,0.5072 -5.34795,0.5072 -2.95207,0 -5.34794,1.32343 -5.34794,-0.5072 0,-1.83064 2.39587,-3.31637 5.34794,-3.31637 2.95207,0 5.34795,1.48573 5.34795,3.31637 z"
       id="path3433"
       sodipodi:nodetypes="csssc"
       inkscape:connector-curvature="0" />
    <path
       sodipodi:nodetypes="csssc"
       id="path3436"
       d="m 200.23642,604.03806 c 0,1.83064 -2.39589,0.50721 -5.34795,0.50721 -2.95207,0 -5.34796,1.32343 -5.34796,-0.50721 0,-1.83063 2.39589,-3.31637 5.34796,-3.31637 2.95206,0 5.34795,1.48574 5.34795,3.31637 z"
       style="fill:#ffffff;fill-opacity:0.48677243;fill-rule:evenodd;stroke:none"
       inkscape:connector-curvature="0" />
    <path
       style="fill:#ffffff;fill-opacity:0.48677243;fill-rule:evenodd;stroke:none"
       d="m 200.23642,637.74796 c 0,1.83063 -2.39589,0.5072 -5.34795,0.5072 -2.95207,0 -5.34796,1.32343 -5.34796,-0.5072 0,-1.83062 2.39589,-3.31636 5.34796,-3.31636 2.95206,0 5.34795,1.48574 5.34795,3.31636 z"
       id="path3438"
       sodipodi:nodetypes="csssc"
       inkscape:connector-curvature="0" />
    <path
       sodipodi:nodetypes="csssc"
       id="path3440"
       d="m 217.26678,620.89301 c 0,1.83063 -2.39589,0.50722 -5.34795,0.50722 -2.95207,0 -5.34795,1.32341 -5.34795,-0.50722 0,-1.83064 2.39588,-3.31637 5.34795,-3.31637 2.95206,0 5.34795,1.48573 5.34795,3.31637 z"
       style="fill:#ffffff;fill-opacity:0.48677243;fill-rule:evenodd;stroke:none"
       inkscape:connector-curvature="0" />
    <path
       sodipodi:nodetypes="csssc"
       id="path3456"
       d="m 201.31338,612.06132 c 0,-2.03172 -3.2465,1.39669 -6.52282,1.39669 -3.27634,0 -6.5228,-3.3303 -6.5228,-1.29861 0,2.03173 3.24646,3.58256 6.5228,3.58256 3.27632,0 6.52282,-1.64894 6.52282,-3.68064 z"
       style="fill:#000000;fill-opacity:0.26455024;fill-rule:evenodd;stroke:none"
       inkscape:connector-curvature="0" />
    <path
       style="fill:#000000;fill-opacity:0.26455024;fill-rule:evenodd;stroke:none"
       d="m 201.31338,646.19752 c 0,-2.03169 -3.2465,1.3967 -6.52282,1.3967 -3.27634,0 -6.5228,-3.33031 -6.5228,-1.29859 0,2.03171 3.24646,3.58255 6.5228,3.58255 3.27632,0 6.52282,-1.64893 6.52282,-3.68066 z"
       id="path3460"
       sodipodi:nodetypes="csssc"
       inkscape:connector-curvature="0" />
    <path
       sodipodi:nodetypes="csssc"
       id="path3462"
       d="m 184.27796,629.12943 c 0,-2.03172 -3.2465,1.39669 -6.52283,1.39669 -3.27633,0 -6.52281,-3.33031 -6.52281,-1.2986 0,2.03171 3.24648,3.58256 6.52281,3.58256 3.27633,0 6.52283,-1.64894 6.52283,-3.68065 z"
       style="fill:#000000;fill-opacity:0.26455024;fill-rule:evenodd;stroke:none"
       inkscape:connector-curvature="0" />
    <path
       style="fill:#000000;fill-opacity:0.26455024;fill-rule:evenodd;stroke:none"
       d="m 218.44671,629.12943 c 0,-2.03172 -3.24649,1.39669 -6.52281,1.39669 -3.27632,0 -6.52281,-3.33031 -6.52281,-1.2986 0,2.03171 3.24649,3.58256 6.52281,3.58256 3.27632,0 6.52281,-1.64894 6.52281,-3.68065 z"
       id="path3464"
       sodipodi:nodetypes="csssc"
       inkscape:connector-curvature="0" />
    <text
       xml:space="preserve"
       style="font-size:5.92410517px;font-style:normal;font-variant:normal;font-weight:normal;font-stretch:normal;text-align:start;line-height:125%;writing-mode:lr-tb;text-anchor:start;fill:#808080;fill-opacity:1;stroke:none;font-family:Arial;-inkscape-font-specification:Arial"
       x="115.07427"
       y="614.28485"
       id="text4416"
       sodipodi:linespacing="125%"
       transform="scale(0.99904231,1.0009586)"><tspan
         sodipodi:role="line"
         id="tspan4418"
         x="115.07427"
         y="614.28485">1</tspan></text>
    <text
       sodipodi:linespacing="125%"
       id="text4420"
       y="614.28485"
       x="139.23296"
       style="font-size:5.92410517px;font-style:normal;font-variant:normal;font-weight:normal;font-stretch:normal;text-align:start;line-height:125%;writing-mode:lr-tb;text-anchor:start;fill:#808080;fill-opacity:1;stroke:none;font-family:Arial;-inkscape-font-specification:Arial"
       xml:space="preserve"
       transform="scale(0.99904231,1.0009586)"><tspan
         y="614.28485"
         x="139.23296"
         id="tspan4422"
         sodipodi:role="line">2</tspan></text>
    <text
       xml:space="preserve"
       style="font-size:12.42444801px;font-style:normal;font-weight:normal;fill:#000000;fill-opacity:1;stroke:none;font-family:Bitstream Vera Sans"
       x="115.96629"
       y="637.49304"
       id="text4424"
       transform="scale(0.99904231,1.0009586)"><tspan
         sodipodi:role="line"
         id="tspan4426"
         x="115.96629"
         y="637.49304" /></text>
    <text
       sodipodi:linespacing="125%"
       id="text4428"
       y="641.0553"
       x="115.07427"
       style="font-size:5.92410517px;font-style:normal;font-variant:normal;font-weight:normal;font-stretch:normal;text-align:start;line-height:125%;writing-mode:lr-tb;text-anchor:start;fill:#808080;fill-opacity:1;stroke:none;font-family:Arial;-inkscape-font-specification:Arial"
       xml:space="preserve"
       transform="scale(0.99904231,1.0009586)"><tspan
         y="641.0553"
         x="115.07427"
         id="tspan4430"
         sodipodi:role="line">3</tspan></text>
    <text
       xml:space="preserve"
       style="font-size:5.92410517px;font-style:normal;font-variant:normal;font-weight:normal;font-stretch:normal;text-align:start;line-height:125%;writing-mode:lr-tb;text-anchor:start;fill:#808080;fill-opacity:1;stroke:none;font-family:Arial;-inkscape-font-specification:Arial"
       x="139.23296"
       y="641.0553"
       id="text4432"
       sodipodi:linespacing="125%"
       transform="scale(0.99904231,1.0009586)"><tspan
         sodipodi:role="line"
         id="tspan4434"
         x="139.23296"
         y="641.0553">4</tspan></text>
    <path
       style="opacity:0.7;fill:#ffffff;fill-opacity:1;stroke:none"
       d="m 71.670161,587.42042 c -9.573183,0.0152 -18.984146,3.301 -27.257431,8.99979 -1.084905,0.74729 -1.289209,1.22712 -1.424822,2.11031 -0.05214,0.33953 -0.34282,1.55673 -0.588512,2.66889 -2.212664,2.12996 -3.932623,4.52521 -4.955896,7.10673 -5.993306,15.11997 -26.149296,74.20687 -25.770666,106.75617 0.424425,-32.91341 19.897803,-89.95389 25.770666,-104.77 1.023273,-2.58152 2.743232,-4.97677 4.955896,-7.10674 0.245692,-1.11215 0.536376,-2.32937 0.588512,-2.66889 0.135613,-0.88319 0.339917,-1.36302 1.424822,-2.11031 8.273285,-5.69879 17.684248,-8.98459 27.257431,-8.99978 2.209197,-0.004 4.414713,0.16982 6.628512,0.52756 1.018809,0.16465 2.170213,1.49737 3.097437,2.82407 2.548297,0.59521 4.859806,1.50823 6.845332,2.76202 11.477411,7.24751 24.062088,8.19291 39.430348,8.19291 15.36828,0 27.92198,-0.9454 39.3994,-8.19291 2.24969,-1.4206 4.94892,-2.40149 7.89846,-2.97924 0.8999,-1.25161 1.97914,-2.45115 2.94255,-2.60685 11.80694,-1.90798 23.70344,1.45833 33.88596,8.47222 1.08488,0.74729 1.28919,1.22712 1.42481,2.11031 0.077,0.50024 0.46998,2.24918 0.83631,3.87922 1.65306,1.81262 2.97404,3.78786 3.80984,5.89641 5.87286,14.81612 25.34626,71.8566 25.77066,104.77 0.37864,-32.5493 -19.77736,-91.63619 -25.77066,-106.75617 -0.8358,-2.10854 -2.15678,-4.08378 -3.80984,-5.8964 -0.36633,-1.63003 -0.75951,-3.37898 -0.83631,-3.87922 -0.13562,-0.88319 -0.33993,-1.36302 -1.42481,-2.11031 -10.18252,-7.01389 -22.07902,-10.38019 -33.88596,-8.47222 -0.96341,0.15569 -2.04265,1.35524 -2.94255,2.60684 -2.94954,0.57777 -5.64877,1.55865 -7.89846,2.97925 -11.47742,7.24751 -24.03112,8.1929 -39.3994,8.1929 -15.36826,0 -27.952937,-0.94539 -39.430348,-8.1929 -1.985526,-1.25379 -4.297035,-2.16681 -6.845332,-2.76201 -0.927224,-1.32671 -2.078628,-2.65944 -3.097437,-2.82408 -2.213799,-0.35773 -4.419315,-0.53109 -6.628512,-0.52757 z"
       id="path8444"
       inkscape:connector-curvature="0" />
    <path
       style="opacity:0.7;fill:#000000;fill-opacity:1;stroke:none"
       d="m 124.07877,706.15562 0,0.34136 c 0,0.49276 -0.40643,0.86895 -0.89826,0.86895 l -6.31876,0 c -0.49181,0 -0.89825,-0.37619 -0.89825,-0.86895 l 0,-0.31033 c -0.1004,0.002 -0.20983,-0.003 -0.30975,0 -0.74248,0.0167 -1.45064,0.0354 -2.16821,0.0621 -0.48503,0.0195 -0.98144,0.0374 -1.45579,0.0621 -0.14236,0.007 -0.29221,0.024 -0.43364,0.031 -13.923739,0.77786 -23.398743,3.8962 -35.558564,13.46867 -17.105427,13.46574 -20.185559,28.1157 -44.138457,31.59237 0.317542,-0.17008 0.618269,-0.35523 0.92923,-0.52759 -1.219039,0.20434 -2.473669,0.38414 -3.809844,0.52759 -11.297172,0.26878 -16.204189,-6.0413 -17.314665,-36.52676 -0.02121,-0.58234 -0.02399,-1.19906 -0.03098,-1.79995 -0.01669,1.29506 -0.01333,2.56985 0.03098,3.78612 1.110476,30.48546 6.017493,36.79553 17.314665,36.52675 1.336175,-0.14345 2.590805,-0.32324 3.809844,-0.52759 -0.310961,0.17236 -0.611688,0.35751 -0.92923,0.52759 23.952898,-3.47666 27.03303,-18.12662 44.138457,-31.59237 12.159821,-9.57247 21.634825,-12.69081 35.558564,-13.46868 0.14143,-0.007 0.29128,-0.0241 0.43364,-0.031 0.47435,-0.0246 0.97076,-0.0424 1.45579,-0.0621 0.71757,-0.0266 1.42573,-0.0454 2.16821,-0.0621 0.10001,-0.003 0.20935,0.002 0.30975,0 l 0,0.31033 c 0,0.49276 0.40644,0.86896 0.89825,0.86896 l 6.31876,0 c 0.49183,0 0.89826,-0.3762 0.89826,-0.86896 l 0,-0.34137 c 0.21037,0.002 0.43807,0.0283 0.65046,0.031 l 0,0.21723 c 0,0.49276 0.37546,0.89998 0.86728,0.89998 l 4.1196,0 c 0.49181,0 0.86728,-0.40722 0.86728,-0.89998 l 0,-0.21723 c 0.0514,-7.5e-4 0.10358,7.2e-4 0.15487,0 0.16413,-0.002 0.33266,0.002 0.49559,0 l 0,0.31033 c 0,0.49276 0.40643,0.86896 0.89825,0.86896 l 6.31876,0 c 0.49182,0 0.89827,-0.3762 0.89827,-0.86896 l 0,-0.31033 c 0.18279,0.004 0.37626,-0.005 0.55752,0 16.23745,0.40739 26.30441,3.14449 39.61622,13.62383 11.96157,9.41639 17.08252,19.25383 27.25742,25.50974 0.45855,0.28193 0.91361,0.57096 1.39385,0.83791 0.28924,0.16078 0.56956,0.34143 0.86729,0.49654 4.07072,2.22551 8.95375,3.88392 15.30133,4.7792 -0.21074,-0.11258 -0.41165,-0.22777 -0.61947,-0.34136 0.77441,0.11107 1.56581,0.2224 2.38503,0.31034 11.43197,0.33995 16.38382,-5.87126 17.50049,-36.52675 0.0443,-1.21627 0.0477,-2.49106 0.031,-3.78612 -0.007,0.60089 -0.01,1.21761 -0.031,1.79995 -1.11667,30.65549 -6.06852,36.8667 -17.50049,36.52676 -0.81922,-0.0879 -1.61062,-0.19928 -2.38503,-0.31034 0.20782,0.11359 0.40873,0.22879 0.61947,0.34136 -6.34758,-0.89527 -11.23061,-2.55369 -15.30133,-4.7792 -0.29773,-0.15511 -0.57805,-0.33577 -0.86729,-0.49654 -0.48024,-0.26695 -0.9353,-0.55599 -1.39385,-0.83791 -10.1749,-6.25592 -15.29585,-16.09335 -27.25742,-25.50974 -13.31181,-10.47933 -23.37877,-13.21644 -39.61622,-13.62383 -0.18126,-0.005 -0.37473,0.004 -0.55752,0 l 0,0.31033 c 0,0.49276 -0.40645,0.86895 -0.89827,0.86895 l -6.31876,0 c -0.49182,0 -0.89825,-0.37619 -0.89825,-0.86895 l 0,-0.31033 c -0.16293,0.002 -0.33146,-0.002 -0.49559,0 -0.0513,7.2e-4 -0.10343,-7.4e-4 -0.15487,0 l 0,0.21723 c 0,0.49275 -0.37547,0.89998 -0.86728,0.89998 l -4.1196,0 c -0.49182,0 -0.86728,-0.40723 -0.86728,-0.89998 l 0,-0.21723 c -0.21239,-0.003 -0.44009,-0.029 -0.65046,-0.031 z"
       id="path8449"
       inkscape:connector-curvature="0" />
    <path
       id="path8454"
       d="m 124.07877,708.14177 0,0.34137 c 0,0.49276 -0.40643,0.86896 -0.89826,0.86896 l -6.31876,0 c -0.49181,0 -0.89825,-0.3762 -0.89825,-0.86896 l 0,-0.31033 c -0.1004,0.002 -0.20983,-0.003 -0.30975,0 -0.74248,0.0167 -1.45064,0.0354 -2.16821,0.0621 -0.48503,0.0195 -0.98144,0.0374 -1.45579,0.0621 -0.14236,0.007 -0.29221,0.024 -0.43364,0.0309 -13.923739,0.77787 -23.398743,3.89621 -35.558564,13.46868 -17.105427,13.46575 -20.185559,28.11571 -44.138457,31.59237 0.317542,-0.17008 0.618269,-0.35522 0.92923,-0.52759 -1.219039,0.20435 -2.473669,0.38414 -3.809844,0.52759 -11.297172,0.26878 -16.204189,-6.04129 -17.314665,-36.52675 -0.02121,-0.58235 -0.02399,-1.19907 -0.03098,-1.79995 -0.01669,1.29505 -0.01333,2.56985 0.03098,3.7861 1.110476,30.48547 6.017493,36.79554 17.314665,36.52677 1.336175,-0.14346 2.590805,-0.32325 3.809844,-0.52759 -0.310961,0.17235 -0.611688,0.3575 -0.92923,0.52759 23.952898,-3.47668 27.03303,-18.12663 44.138457,-31.59239 12.159821,-9.57246 21.634825,-12.69079 35.558564,-13.46866 0.14143,-0.007 0.29128,-0.0241 0.43364,-0.0309 0.47435,-0.0246 0.97076,-0.0424 1.45579,-0.0621 0.71757,-0.0266 1.42573,-0.0454 2.16821,-0.0621 0.10001,-0.003 0.20935,0.002 0.30975,0 l 0,0.31034 c 0,0.49275 0.40644,0.86894 0.89825,0.86894 l 6.31876,0 c 0.49183,0 0.89826,-0.37619 0.89826,-0.86894 l 0,-0.34137 c 0.21037,0.002 0.43807,0.0283 0.65046,0.0309 l 0,0.21724 c 0,0.49274 0.37546,0.89998 0.86728,0.89998 l 4.1196,0 c 0.49181,0 0.86728,-0.40724 0.86728,-0.89998 l 0,-0.21724 c 0.0515,-7.4e-4 0.10358,7.3e-4 0.15487,0 0.16413,-0.002 0.33266,0.002 0.49559,0 l 0,0.31034 c 0,0.49275 0.40643,0.86894 0.89825,0.86894 l 6.31876,0 c 0.49182,0 0.89827,-0.37619 0.89827,-0.86894 l 0,-0.31034 c 0.18279,0.004 0.37626,-0.005 0.55752,0 16.23745,0.40739 26.30441,3.14448 39.61622,13.62382 11.96157,9.4164 17.08252,19.25384 27.25742,25.50975 0.45855,0.28193 0.91361,0.57097 1.39385,0.83791 0.28924,0.16077 0.56956,0.34143 0.86729,0.49655 4.07072,2.22549 8.95375,3.88392 15.30133,4.7792 -0.21074,-0.11259 -0.41165,-0.22778 -0.61947,-0.34137 0.77441,0.11106 1.56581,0.2224 2.38503,0.31035 11.43197,0.33993 16.38382,-5.87128 17.50049,-36.52677 0.0443,-1.21625 0.0477,-2.49105 0.0309,-3.7861 -0.007,0.60088 -0.01,1.2176 -0.0309,1.79995 -1.11667,30.65549 -6.06852,36.8667 -17.50049,36.52675 -0.81922,-0.088 -1.61062,-0.19927 -2.38503,-0.31034 0.20782,0.1136 0.40873,0.22878 0.61947,0.34136 -6.34758,-0.89528 -11.23061,-2.55369 -15.30133,-4.7792 -0.29773,-0.15511 -0.57805,-0.33576 -0.86729,-0.49653 -0.48024,-0.26696 -0.9353,-0.55599 -1.39385,-0.83792 -10.1749,-6.25591 -15.29585,-16.09335 -27.25742,-25.50974 -13.31181,-10.47934 -23.37877,-13.21644 -39.61622,-13.62383 -0.18126,-0.005 -0.37473,0.004 -0.55752,0 l 0,0.31033 c 0,0.49276 -0.40645,0.86896 -0.89827,0.86896 l -6.31876,0 c -0.49182,0 -0.89825,-0.3762 -0.89825,-0.86896 l 0,-0.31033 c -0.16293,0.002 -0.33146,-0.002 -0.49559,0 -0.0513,7.2e-4 -0.10343,-7.5e-4 -0.15487,0 l 0,0.21723 c 0,0.49276 -0.37547,0.89998 -0.86728,0.89998 l -4.1196,0 c -0.49182,0 -0.86728,-0.40722 -0.86728,-0.89998 l 0,-0.21723 c -0.21239,-0.003 -0.44009,-0.0291 -0.65046,-0.0309 z"
       style="opacity:0.3;fill:#000000;fill-opacity:1;stroke:none"
       inkscape:connector-curvature="0" />
  </g>
</svg>
