<?xml version="1.0" encoding="UTF-8" standalone="no"?>
<!-- Created with Inkscape (http://www.inkscape.org/) -->

<svg
   xmlns:dc="http://purl.org/dc/elements/1.1/"
   xmlns:cc="http://creativecommons.org/ns#"
   xmlns:rdf="http://www.w3.org/1999/02/22-rdf-syntax-ns#"
   xmlns:svg="http://www.w3.org/2000/svg"
   xmlns="http://www.w3.org/2000/svg"
   xmlns:xlink="http://www.w3.org/1999/xlink"
   xmlns:sodipodi="http://sodipodi.sourceforge.net/DTD/sodipodi-0.dtd"
   xmlns:inkscape="http://www.inkscape.org/namespaces/inkscape"
   width="256"
   height="256"
   id="svg2"
   sodipodi:version="0.32"
   inkscape:version="0.48.3.1 r9886"
   version="1.0"
   sodipodi:docname="rating.svg"
   inkscape:output_extension="org.inkscape.output.svg.inkscape">
  <sodipodi:namedview
     id="base"
     pagecolor="#ffffff"
     bordercolor="#666666"
     borderopacity="1.0"
     inkscape:pageopacity="0"
     inkscape:pageshadow="2"
     inkscape:zoom="1.4921875"
     inkscape:cx="116.27225"
     inkscape:cy="128"
     inkscape:document-units="px"
     inkscape:current-layer="layer1"
     width="256px"
     height="256px"
     inkscape:window-width="1024"
     inkscape:window-height="553"
     inkscape:window-x="-4"
     inkscape:window-y="24"
     showgrid="false"
     inkscape:window-maximized="1"
     showguides="true"
     inkscape:guide-bbox="true"
     inkscape:snap-global="true"
     inkscape:snap-bbox="true"
     inkscape:bbox-paths="true"
     inkscape:bbox-nodes="true"
     inkscape:snap-bbox-edge-midpoints="true"
     inkscape:snap-bbox-midpoints="true"
     inkscape:object-paths="true"
     inkscape:snap-intersection-paths="true"
     inkscape:object-nodes="true"
     inkscape:snap-smooth-nodes="true"
     inkscape:snap-midpoints="true"
     inkscape:snap-object-midpoints="true"
     inkscape:snap-center="true" />
  <defs
     id="defs4">
    <linearGradient
       id="linearGradient3658">
      <stop
         id="stop3660"
         style="stop-color:#ff8355;stop-opacity:1;"
         offset="0" />
      <stop
         id="stop3662"
         style="stop-color:#ff5e00;stop-opacity:1;"
         offset="1" />
    </linearGradient>
    <linearGradient
       inkscape:collect="always"
       xlink:href="#linearGradient3658"
       id="linearGradient3808"
       gradientUnits="userSpaceOnUse"
       gradientTransform="matrix(22.191601,1.1694566,-1.1690408,22.195854,-96.678463,-111.34727)"
       x1="9.6075687"
       y1="5.052846"
       x2="10.006175"
       y2="15.232648" />
  </defs>
  <metadata
     id="metadata7">
    <rdf:RDF>
      <cc:Work
         rdf:about="">
        <dc:format>image/svg+xml</dc:format>
        <dc:type
           rdf:resource="http://purl.org/dc/dcmitype/StillImage" />
        <dc:title></dc:title>
      </cc:Work>
    </rdf:RDF>
  </metadata>
  <g
     id="layer1"
     inkscape:groupmode="layer"
     inkscape:label="1. réteg">
    <g
       id="g3799"
       transform="translate(-1.330707,3.54385)">
      <path
         inkscape:connector-curvature="0"
         d="m 10.330707,98.482532 80.759822,-13.952937 38.263591,-72.488998 38.22433,72.510411 80.75226,13.998028 -57.13595,58.766834 11.6441,81.14028 -73.53625,-36.19047 -73.555888,36.14934 11.688063,-81.13373 z"
         id="path3797"
         style="opacity:0.1;fill:none;stroke:#000000;stroke-width:18;stroke-linejoin:round;stroke-miterlimit:4;stroke-opacity:1;stroke-dasharray:none;display:inline" />
      <path
         style="opacity:0.1;fill:none;stroke:#000000;stroke-width:12;stroke-linejoin:round;stroke-miterlimit:4;stroke-opacity:1;stroke-dasharray:none;display:inline"
         id="path3795"
         d="m 10.330707,98.482532 80.759822,-13.952937 38.263591,-72.488998 38.22433,72.510411 80.75226,13.998028 -57.13595,58.766834 11.6441,81.14028 -73.53625,-36.19047 -73.555888,36.14934 11.688063,-81.13373 z"
         inkscape:connector-curvature="0" />
      <path
         inkscape:connector-curvature="0"
         d="m 10.330707,98.482532 80.759822,-13.952937 38.263591,-72.488998 38.22433,72.510411 80.75226,13.998028 -57.13595,58.766834 11.6441,81.14028 -73.53625,-36.19047 -73.555888,36.14934 11.688063,-81.13373 z"
         id="path3793"
         style="opacity:0.1;fill:none;stroke:#000000;stroke-width:6;stroke-linejoin:round;stroke-miterlimit:4;stroke-opacity:1;stroke-dasharray:none;display:inline" />
      <path
         style="fill:url(#linearGradient3808);fill-opacity:1;stroke:none;display:inline"
         id="path3748"
         d="m 10.330707,98.482532 80.759822,-13.952937 38.263591,-72.488998 38.22433,72.510411 80.75226,13.998028 -57.13595,58.766834 11.6441,81.14028 -73.53625,-36.19047 -73.555888,36.14934 11.688063,-81.13373 z"
         inkscape:connector-curvature="0" />
      <path
         id="path3773"
         d="m 129.34375,12.03125 -38.25,72.5 -80.75,13.9375 L 12,100.1875 91.09375,86.53125 l 38.25,-72.5 38.25,72.53125 79.09375,13.71875 1.65625,-1.71875 -80.75,-14 -38.25,-72.53125 z m -62.15625,147 -11.4375,79.375 0.3125,-0.15625 11.375,-78.96875 -0.25,-0.25 z m 124.25,0.0313 -0.25,0.25 11.34375,79 0.3125,0.15625 -11.40625,-79.40625 z"
         style="opacity:0.7;fill:#ffffff;fill-opacity:1;stroke:none;display:inline"
         inkscape:connector-curvature="0" />
      <path
         id="path3782"
         d="m 12,98.1875 -1.65625,0.28125 56.84375,58.5625 0.25,-1.75 L 12,98.1875 z m 234.6875,0.09375 -55.5,57.03125 0.25,1.75 56.90625,-58.5 -1.65625,-0.28125 z m -117.375,102 -73.25,35.96875 -0.3125,2.15625 73.5625,-36.125 73.53125,36.1875 -0.3125,-2.15625 -73.21875,-36.03125 z"
         style="opacity:0.7;fill:#000000;fill-opacity:1;stroke:none;display:inline"
         inkscape:connector-curvature="0" />
      <path
         inkscape:connector-curvature="0"
         style="opacity:0.3;fill:#000000;fill-opacity:1;stroke:none;display:inline"
         d="m 12,100.1875 -1.65625,0.28125 56.84375,58.5625 0.25,-1.75 L 12,100.1875 z m 234.6875,0.0937 -55.5,57.03125 0.25,1.75 56.90625,-58.5 -1.65625,-0.28125 z m -117.375,102 -73.25,35.96875 -0.3125,2.15625 73.5625,-36.125 73.53125,36.1875 -0.3125,-2.15625 -73.21875,-36.03125 z"
         id="path3791" />
    </g>
  </g>
</svg>
