<?xml version="1.0" encoding="UTF-8" standalone="no"?>
<!-- Created with Inkscape (http://www.inkscape.org/) -->

<svg
   xmlns:dc="http://purl.org/dc/elements/1.1/"
   xmlns:cc="http://creativecommons.org/ns#"
   xmlns:rdf="http://www.w3.org/1999/02/22-rdf-syntax-ns#"
   xmlns:svg="http://www.w3.org/2000/svg"
   xmlns="http://www.w3.org/2000/svg"
   xmlns:xlink="http://www.w3.org/1999/xlink"
   xmlns:sodipodi="http://sodipodi.sourceforge.net/DTD/sodipodi-0.dtd"
   xmlns:inkscape="http://www.inkscape.org/namespaces/inkscape"
   width="256"
   height="256"
   id="svg12492"
   version="1.1"
   inkscape:version="0.48.3.1 r9886"
   sodipodi:docname="gtk-undelete.svg">
  <defs
     id="defs12494">
    <linearGradient
       id="linearGradient5188">
      <stop
         offset="0"
         style="stop-color:#5a5a5a;stop-opacity:1;"
         id="stop5190" />
      <stop
         offset="1"
         style="stop-color:#000000;stop-opacity:1;"
         id="stop5192" />
    </linearGradient>
    <linearGradient
       y2="39.186699"
       x2="216.92349"
       y1="474.2822"
       x1="293.64261"
       gradientUnits="userSpaceOnUse"
       id="front_1_">
      <stop
         id="stop3587"
         style="stop-color:#000000;stop-opacity:1;"
         offset="0" />
      <stop
         id="stop3589"
         style="stop-color:#FDFDFD"
         offset="1" />
    </linearGradient>
    <linearGradient
       inkscape:collect="always"
       xlink:href="#linearGradient5188"
       id="linearGradient4532"
       gradientUnits="userSpaceOnUse"
       gradientTransform="matrix(0.91045683,0,0,0.9418359,48.638698,818.63271)"
       spreadMethod="reflect"
       x1="65.04026"
       y1="151.18024"
       x2="183.9404"
       y2="157.60541" />
    <linearGradient
       inkscape:collect="always"
       xlink:href="#linearGradient5188"
       id="linearGradient4534"
       gradientUnits="userSpaceOnUse"
       gradientTransform="matrix(0,-5.3420069,4.8815488,0,-34.93393,999.8921)"
       x1="26.975159"
       y1="41.65942"
       x2="26.998507"
       y2="9.0272026" />
    <linearGradient
       inkscape:collect="always"
       xlink:href="#linearGradient5188"
       id="linearGradient4536"
       gradientUnits="userSpaceOnUse"
       gradientTransform="matrix(0.91045683,0,0,0.9418359,48.631893,-1.7621987)"
       spreadMethod="reflect"
       x1="8.9501925"
       y1="1046.5328"
       x2="182.99518"
       y2="1029.2189" />
    <linearGradient
       inkscape:collect="always"
       xlink:href="#front_1_"
       id="linearGradient4538"
       gradientUnits="userSpaceOnUse"
       gradientTransform="matrix(0.91045683,0,0,0.9418359,48.649936,818.64333)"
       spreadMethod="reflect"
       x1="72.714386"
       y1="26.372326"
       x2="329.59808"
       y2="46.06728" />
  </defs>
  <sodipodi:namedview
     id="base"
     pagecolor="#ffffff"
     bordercolor="#666666"
     borderopacity="1.0"
     inkscape:pageopacity="0.0"
     inkscape:pageshadow="2"
     inkscape:zoom="1.4960938"
     inkscape:cx="128"
     inkscape:cy="128"
     inkscape:document-units="px"
     inkscape:current-layer="layer1"
     showgrid="false"
     inkscape:window-width="1024"
     inkscape:window-height="553"
     inkscape:window-x="-4"
     inkscape:window-y="24"
     inkscape:window-maximized="1" />
  <metadata
     id="metadata12497">
    <rdf:RDF>
      <cc:Work
         rdf:about="">
        <dc:format>image/svg+xml</dc:format>
        <dc:type
           rdf:resource="http://purl.org/dc/dcmitype/StillImage" />
        <dc:title></dc:title>
      </cc:Work>
    </rdf:RDF>
  </metadata>
  <g
     inkscape:label="Layer 1"
     inkscape:groupmode="layer"
     id="layer1"
     transform="translate(0,-796.36218)">
    <g
       id="g4514"
       transform="matrix(-1,0,0,1,256.00088,-9.0325348e-4)">
      <path
         id="path3860"
         d="m 167.00172,843.4817 c -44.18887,0 -80.001693,7.67782 -80.001693,17.17754 0,0.4453 0.09547,0.90619 0.250006,1.34297 -0.05563,-0.1541 -0.15091,-0.31329 -0.187505,-0.46848 0.299282,4.81162 14.529682,161.35787 14.531562,161.40627 0.63103,16.2234 28.15894,19.1511 66.09514,20.4256 46.355,-0.5019 63.71951,-8.7071 64.37635,-19.9883 0.0525,-0.2216 14.71073,-160.64068 14.87532,-162.09342 6e-5,-5.7e-4 -7e-5,-0.062 0,-0.0625 0.0266,-0.18206 0.0625,-0.37872 0.0625,-0.56217 0,-9.49972 -35.81286,-17.17754 -80.00168,-17.17754 z"
         style="opacity:0.05;fill:none;stroke:#000000;stroke-width:17.99496651;stroke-linejoin:round;stroke-miterlimit:4;stroke-opacity:1;stroke-dasharray:none"
         inkscape:connector-curvature="0" />
      <path
         style="opacity:0.1;fill:none;stroke:#000000;stroke-width:11.99664593;stroke-linejoin:round;stroke-miterlimit:4;stroke-opacity:1;stroke-dasharray:none"
         d="m 167.00172,843.4817 c -44.18887,0 -80.001693,7.67782 -80.001693,17.17754 0,0.4453 0.09547,0.90619 0.250006,1.34297 -0.05563,-0.1541 -0.15091,-0.31329 -0.187505,-0.46848 0.299282,4.81162 14.529682,161.35787 14.531562,161.40627 0.63103,16.2234 28.15894,19.1511 66.09514,20.4256 46.355,-0.5019 63.71951,-8.7071 64.37635,-19.9883 0.0525,-0.2216 14.71073,-160.64068 14.87532,-162.09342 6e-5,-5.7e-4 -7e-5,-0.062 0,-0.0625 0.0266,-0.18206 0.0625,-0.37872 0.0625,-0.56217 0,-9.49972 -35.81286,-17.17754 -80.00168,-17.17754 z"
         id="path3858"
         inkscape:connector-curvature="0" />
      <path
         id="path3839"
         d="m 167.00172,843.4817 c -44.18887,0 -80.001693,7.67782 -80.001693,17.17754 0,0.4453 0.09547,0.90619 0.250006,1.34297 -0.05563,-0.1541 -0.15091,-0.31329 -0.187505,-0.46848 0.299282,4.81162 14.529682,161.35787 14.531562,161.40627 0.63103,16.2234 28.15894,19.1511 66.09514,20.4256 46.355,-0.5019 63.71951,-8.7071 64.37635,-19.9883 0.0525,-0.2216 14.71073,-160.64068 14.87532,-162.09342 6e-5,-5.7e-4 -7e-5,-0.062 0,-0.0625 0.0266,-0.18206 0.0625,-0.37872 0.0625,-0.56217 0,-9.49972 -35.81286,-17.17754 -80.00168,-17.17754 z"
         style="opacity:0.15;fill:none;stroke:#000000;stroke-width:5.99832296;stroke-linejoin:round;stroke-miterlimit:4;stroke-opacity:1;stroke-dasharray:none"
         inkscape:connector-curvature="0" />
      <path
         inkscape:connector-curvature="0"
         id="path3791"
         d="m 167.00171,843.48172 c -44.18887,0 -80.001683,7.69114 -80.001683,17.19086 0,0.4453 0.08076,0.88312 0.235298,1.3199 0.05148,0.14559 0.108201,0.30615 0.176475,0.45069 0.273089,0.57823 0.673124,1.14639 1.205907,1.70621 0.266387,0.27992 0.553575,0.53003 0.882373,0.80481 -0.322465,-0.26879 -0.619619,-0.53112 -0.882373,-0.80481 -0.531051,-0.55315 -0.928461,-1.13518 -1.205907,-1.70621 -0.07397,-0.15218 -0.121123,-0.29737 -0.176475,-0.45069 -0.05563,-0.15409 -0.139879,-0.29551 -0.176474,-0.45069 0.299282,4.81161 14.527839,161.36531 14.529719,161.41371 0.63103,16.2234 28.15342,19.1357 66.08962,20.4102 46.355,-0.5019 63.72686,-8.7104 64.3837,-19.9916 0.0525,-0.2216 14.71808,-160.63711 14.88267,-162.08985 6e-5,-5.7e-4 -7e-5,-0.0639 0,-0.0644 0.0266,-0.18206 0.0588,-0.36382 0.0588,-0.54727 0,-9.49972 -35.81285,-17.19086 -80.00167,-17.19086 z M 135.854,876.51135 c 2.39287,0.21755 4.84787,0.41198 7.35309,0.57947 2.50519,0.16748 5.04307,0.30396 7.64721,0.4185 -2.6019,-0.11487 -5.14386,-0.25069 -7.64721,-0.4185 -2.50264,-0.16777 -4.96234,-0.36169 -7.35309,-0.57947 z m 62.26599,0 c -2.06868,0.18852 -4.19964,0.36392 -6.35307,0.51508 2.16124,-0.1512 4.27706,-0.32633 6.35307,-0.51508 z m -15.00031,0.99797 c -5.21384,0.23016 -10.58734,0.35411 -16.11797,0.35411 -5.35102,0 -10.58963,-0.10605 -15.64739,-0.32192 5.05535,0.2152 10.29781,0.32192 15.64739,0.32192 5.52359,0 10.90971,-0.12503 16.11797,-0.35411 z"
         style="fill:url(#linearGradient4532);fill-opacity:1;fill-rule:evenodd;stroke:none" />
      <path
         id="path3851"
         d="m 87.15628,859.62859 c -0.0061,0.0218 -0.02555,0.0406 -0.03125,0.0625 0.04319,0.10457 0.08791,0.20959 0.125003,0.31232 -0.04373,-0.12362 -0.0603,-0.24821 -0.09375,-0.37478 z m 159.75337,0.15616 c -0.25267,2.4198 -14.79173,161.37285 -14.84407,161.59375 -0.65684,11.2811 -18.02135,19.4864 -64.37635,19.9883 -37.9362,-1.2745 -65.46411,-4.2022 -66.09514,-20.4255 -0.002,-0.048 -14.13014,-155.54563 -14.500312,-161.12532 -0.06438,0.28301 -0.09375,0.55679 -0.09375,0.84326 0,0.4453 0.09547,0.90619 0.250006,1.34297 -0.05563,-0.1541 -0.15091,-0.31329 -0.187505,-0.46848 0.299282,4.81162 14.529681,161.35787 14.531561,161.40627 0.63103,16.2234 28.15894,19.1511 66.09514,20.4256 46.35501,-0.5019 63.71951,-8.7071 64.37635,-19.9883 0.0525,-0.2216 14.71073,-160.64068 14.87532,-162.09342 6e-5,-5.7e-4 -7e-5,-0.062 0,-0.0625 0.0266,-0.18206 0.0625,-0.37872 0.0625,-0.56217 0,-0.29686 -0.0246,-0.58136 -0.0937,-0.87449 z"
         style="opacity:0.7;fill:#000000;fill-opacity:1;fill-rule:evenodd;stroke:none"
         inkscape:connector-curvature="0" />
      <path
         inkscape:connector-curvature="0"
         style="opacity:0.2;fill:#000000;fill-opacity:1;fill-rule:evenodd;stroke:none"
         d="m 87.15628,861.62743 c -0.0061,0.0219 -0.02555,0.0406 -0.03125,0.0625 0.04319,0.10457 0.08791,0.20958 0.125003,0.31232 -0.04373,-0.12362 -0.0603,-0.2482 -0.09375,-0.37478 z m 159.75337,0.15616 c -0.25267,2.4198 -14.79173,161.37291 -14.84407,161.59381 -0.65684,11.2812 -18.02135,19.4864 -64.37635,19.9883 -37.9362,-1.2745 -65.46411,-4.2022 -66.09514,-20.4256 -0.002,-0.048 -14.13014,-155.54559 -14.500312,-161.12528 -0.06438,0.283 -0.09375,0.55678 -0.09375,0.84326 0,0.4453 0.09547,0.90618 0.250006,1.34297 -0.05563,-0.15409 -0.15091,-0.3133 -0.187505,-0.46848 0.299282,4.81162 14.529681,161.35803 14.531561,161.40643 0.63103,16.2234 28.15894,19.151 66.09514,20.4256 46.35501,-0.502 63.71951,-8.7072 64.37635,-19.9884 0.0525,-0.2216 14.71073,-160.64074 14.87532,-162.09349 6e-5,-5.7e-4 -7e-5,-0.062 0,-0.0625 0.0266,-0.18207 0.0625,-0.37873 0.0625,-0.56218 0,-0.29687 -0.0246,-0.58137 -0.0937,-0.87449 z"
         id="path3856" />
      <g
         transform="matrix(1.0000211,0,0,0.99941989,-0.00180374,0.60868376)"
         id="g4503">
        <path
           d="m 168.42854,902.52013 c -0.30735,-8.6582 -1.3697,-17.09708 -3.10265,-25.15514 C 151.58483,813.47071 95.68144,773.52039 39.71404,838.03983 L 9.12195,805.7674 C 9.12195,805.7674 9,906.36218 9,906.36218 l 93.01068,-0.14952 c 0,0 -30.14081,-32.98387 -30.14081,-32.98387 52.76724,-60.52008 85.39573,-13.02253 96.55869,29.29134 z"
           id="path4501"
           style="opacity:0.05;fill:none;stroke:#000000;stroke-width:18;stroke-linejoin:round;stroke-miterlimit:4;stroke-opacity:1;stroke-dasharray:none;marker:none;visibility:visible;display:block;overflow:visible"
           inkscape:connector-curvature="0" />
        <path
           inkscape:connector-curvature="0"
           style="opacity:0.1;fill:none;stroke:#000000;stroke-width:12;stroke-linejoin:round;stroke-miterlimit:4;stroke-opacity:1;stroke-dasharray:none;marker:none;visibility:visible;display:block;overflow:visible"
           id="path4499"
           d="m 168.42854,902.52013 c -0.30735,-8.6582 -1.3697,-17.09708 -3.10265,-25.15514 C 151.58483,813.47071 95.68144,773.52039 39.71404,838.03983 L 9.12195,805.7674 C 9.12195,805.7674 9,906.36218 9,906.36218 l 93.01068,-0.14952 c 0,0 -30.14081,-32.98387 -30.14081,-32.98387 52.76724,-60.52008 85.39573,-13.02253 96.55869,29.29134 z" />
        <path
           d="m 168.42854,902.52013 c -0.30735,-8.6582 -1.3697,-17.09708 -3.10265,-25.15514 C 151.58483,813.47071 95.68144,773.52039 39.71404,838.03983 L 9.12195,805.7674 C 9.12195,805.7674 9,906.36218 9,906.36218 l 93.01068,-0.14952 c 0,0 -30.14081,-32.98387 -30.14081,-32.98387 52.76724,-60.52008 85.39573,-13.02253 96.55869,29.29134 z"
           id="path4497"
           style="opacity:0.15;fill:none;stroke:#000000;stroke-width:6;stroke-linejoin:round;stroke-miterlimit:4;stroke-opacity:1;stroke-dasharray:none;marker:none;visibility:visible;display:block;overflow:visible"
           inkscape:connector-curvature="0" />
        <path
           inkscape:connector-curvature="0"
           style="fill:url(#linearGradient4534);fill-opacity:1;fill-rule:nonzero;stroke:none;stroke-width:6.6353569;marker:none;visibility:visible;display:block;overflow:visible"
           id="path3768"
           d="m 168.42854,902.52013 c -0.30735,-8.6582 -1.3697,-17.09708 -3.10265,-25.15514 C 151.58483,813.47071 95.68144,773.52039 39.71404,838.03983 L 9.12195,805.7674 C 9.12195,805.7674 9,906.36218 9,906.36218 l 93.01068,-0.14952 c 0,0 -30.14081,-32.98387 -30.14081,-32.98387 52.76724,-60.52008 85.39573,-13.02253 96.55869,29.29134 z" />
        <path
           inkscape:connector-curvature="0"
           style="opacity:0.5;fill:#ffffff;fill-opacity:1;fill-rule:nonzero;stroke:none;stroke-width:6.6353569;marker:none;visibility:visible;display:block;overflow:visible"
           d="M 98.0625,8.84375 C 79.919677,8.783281 59.832034,18.500826 39.71875,41.6875 L 9.125,9.40625 l 0,2 30.59375,32.28125 C 95.68615,-20.83194 151.57144,19.10572 165.3125,83 c 1.57254,7.312164 2.59492,14.931349 3,22.75 0.0364,0.13632 0.0891,0.27004 0.125,0.40625 C 168.13015,97.49805 167.04545,89.05806 165.3125,81 156.50963,40.067727 130.40405,8.9515425 98.0625,8.84375 z M 72.78125,77.875 c -0.297889,0.336217 -0.607066,0.656858 -0.90625,1 l 28.3125,30.96875 1.8125,0 L 72.78125,77.875 z"
           transform="translate(0,796.36218)"
           id="path4477" />
        <path
           inkscape:connector-curvature="0"
           style="opacity:0.5;fill:#000000;fill-opacity:1;fill-rule:nonzero;stroke:none;stroke-width:6.6353569;marker:none;visibility:visible;display:block;overflow:visible"
           d="M 119.09375,46.15625 C 105.76826,46.030536 90.013739,54.071222 71.875,74.875 l 0.90625,1 c 52.24094,-58.962607 84.55658,-11.792705 95.65625,30.28125 -0.0284,-0.80145 -0.0837,-1.60869 -0.125,-2.40625 -7.38,-27.653291 -23.90396,-57.354928 -49.21875,-57.59375 z M 100.1875,107.84375 9,108 l 0,2 93,-0.15625 -1.8125,-2 z"
           transform="translate(0,796.36218)"
           id="path4486" />
        <path
           id="path4495"
           d="M 119.09375,844.51843 C 105.76826,844.39272 90.013739,852.4334 71.875,873.23718 l 0.90625,1 c 52.24094,-58.96261 84.55658,-11.7927 95.65625,30.28125 -0.0284,-0.80145 -0.0837,-1.60869 -0.125,-2.40625 -7.38,-27.65329 -23.90396,-57.35493 -49.21875,-57.59375 z M 100.1875,906.20593 9,906.36218 l 0,2 93,-0.15625 -1.8125,-2 z"
           style="opacity:0.2;fill:#000000;fill-opacity:1;fill-rule:nonzero;stroke:none;stroke-width:6.6353569;marker:none;visibility:visible;display:block;overflow:visible"
           inkscape:connector-curvature="0" />
      </g>
      <path
         inkscape:connector-curvature="0"
         id="path3037"
         d="m 246.94456,861.28432 c -1.15061,6.85499 -20.94708,12.69747 -48.82457,15.2271 -0.33666,0.0306 -0.69063,0.0668 -1.02943,0.0965 -1.74923,0.15414 -3.51945,0.29187 -5.32364,0.41851 -7.80203,0.54525 -16.11555,0.837 -24.76521,0.837 -42.11751,0 -76.623776,-6.99046 -79.766385,-15.87095 -0.05563,-0.15409 -0.139879,-0.29551 -0.176474,-0.45069 0.299282,4.81161 14.527839,161.36531 14.529719,161.41371 0.63103,16.2234 28.15341,19.1356 66.08962,20.4102 46.355,-0.5019 63.72686,-8.7104 64.3837,-19.9917 0.0525,-0.2216 14.71808,-160.63701 14.88267,-162.08975 z"
         style="fill:url(#linearGradient4536);fill-opacity:1;fill-rule:evenodd;stroke:none" />
      <path
         inkscape:connector-curvature="0"
         id="path3041"
         d="m 167.00172,843.48161 c -4.79515,0 -9.46873,0.10747 -14.03156,0.28109 0.83116,1.50842 1.63431,3.04853 2.4063,4.62232 3.79285,-0.1105 7.65473,-0.21862 11.62526,-0.21862 39.16051,0 70.90773,5.59384 70.90773,12.49275 0,6.89889 -31.74722,12.49274 -70.90773,12.49274 -39.16054,0 -70.907751,-5.59385 -70.907751,-12.49274 0,-4.92712 16.227321,-9.14814 39.750841,-11.18102 -2.71226,-1.62185 -5.55716,-2.88718 -8.56269,-3.71659 -24.04162,2.96393 -40.282093,8.51015 -40.282093,14.89761 0,9.49972 35.812823,17.20876 80.001693,17.20876 44.18882,0 80.00168,-7.70904 80.00168,-17.20876 0,-9.49972 -35.81286,-17.17754 -80.00168,-17.17754 z m -39.7196,2.27993 c 1.41442,-0.17437 2.87818,-0.34449 4.34385,-0.49971 -1.47548,0.15673 -2.92159,0.32437 -4.34385,0.49971 z m 25.68804,-1.99884 c -1.71193,0.0651 -3.39016,0.1305 -5.06261,0.21863 1.67472,-0.0876 3.34674,-0.15334 5.06261,-0.21863 z m -8.21892,0.40602 c -1.75772,0.10923 -3.482,0.24083 -5.18761,0.37478 1.69226,-0.13161 3.4435,-0.26735 5.18761,-0.37478 z m -5.18761,0.37478 c -1.81909,0.14286 -3.62059,0.29864 -5.37511,0.46847 1.76671,-0.17017 3.54324,-0.326 5.37511,-0.46847 z"
         style="fill:url(#linearGradient4538);fill-opacity:1;fill-rule:evenodd;stroke:none" />
    </g>
  </g>
</svg>
