<?xml version="1.0" encoding="UTF-8" standalone="no"?>
<!-- Created with Inkscape (http://www.inkscape.org/) -->

<svg
   xmlns:dc="http://purl.org/dc/elements/1.1/"
   xmlns:cc="http://creativecommons.org/ns#"
   xmlns:rdf="http://www.w3.org/1999/02/22-rdf-syntax-ns#"
   xmlns:svg="http://www.w3.org/2000/svg"
   xmlns="http://www.w3.org/2000/svg"
   xmlns:xlink="http://www.w3.org/1999/xlink"
   xmlns:sodipodi="http://sodipodi.sourceforge.net/DTD/sodipodi-0.dtd"
   xmlns:inkscape="http://www.inkscape.org/namespaces/inkscape"
   width="256"
   height="256"
   id="svg6364"
   version="1.1"
   inkscape:version="0.48.2 r9819"
   sodipodi:docname="stock_dialog-question.svg">
  <defs
     id="defs6366">
    <linearGradient
       id="linearGradient3731-7">
      <stop
         id="stop3733-1"
         style="stop-color:#000080;stop-opacity:1;"
         offset="0" />
      <stop
         id="stop3759"
         style="stop-color:#0066ff;stop-opacity:1;"
         offset="1" />
    </linearGradient>
    <linearGradient
       inkscape:collect="always"
       xlink:href="#linearGradient3731-7"
       id="linearGradient30380"
       gradientUnits="userSpaceOnUse"
       gradientTransform="matrix(3.6060607,0,0,3.3027875,-30.184913,755.99479)"
       x1="48.082497"
       y1="75.561722"
       x2="46.654823"
       y2="16.972879" />
  </defs>
  <sodipodi:namedview
     id="base"
     pagecolor="#ffffff"
     bordercolor="#666666"
     borderopacity="1.0"
     inkscape:pageopacity="0.0"
     inkscape:pageshadow="2"
     inkscape:zoom="1.6328125"
     inkscape:cx="128"
     inkscape:cy="128"
     inkscape:document-units="px"
     inkscape:current-layer="layer1"
     showgrid="false"
     inkscape:window-width="1024"
     inkscape:window-height="576"
     inkscape:window-x="0"
     inkscape:window-y="24"
     inkscape:window-maximized="1"
     fit-margin-top="0"
     fit-margin-left="0"
     fit-margin-right="0"
     fit-margin-bottom="0" />
  <metadata
     id="metadata6369">
    <rdf:RDF>
      <cc:Work
         rdf:about="">
        <dc:format>image/svg+xml</dc:format>
        <dc:type
           rdf:resource="http://purl.org/dc/dcmitype/StillImage" />
        <dc:title></dc:title>
      </cc:Work>
    </rdf:RDF>
  </metadata>
  <g
     inkscape:label="Layer 1"
     inkscape:groupmode="layer"
     id="layer1"
     transform="translate(-14.90625,-765.12238)">
    <g
       id="g30371"
       transform="translate(0,-18.019798)">
      <path
         style="opacity:0.05;fill:none;stroke:#000000;stroke-width:18;stroke-linejoin:round;stroke-miterlimit:4;stroke-opacity:1;stroke-dasharray:none;display:inline"
         id="path30369"
         inkscape:connector-curvature="0"
         d="m 142.90601,812.14218 c -65.721899,0 -119.000009,39.92512 -119.000009,89.17527 0,31.37132 21.635489,58.93317 54.316279,74.82879 -1.24273,8.28587 -6.902046,28.56856 -33.694123,35.50496 34.700813,3.4541 57.746023,-12.04295 69.980133,-23.7388 9.09991,1.66956 18.61112,2.58032 28.39772,2.58032 65.72189,0 118.99999,-39.92512 118.99999,-89.17527 0,-49.25015 -53.2781,-89.17527 -118.99999,-89.17527 z m -3.26799,33.2343 c 6.23537,1.1e-4 12.04244,0.68947 17.35416,2.06424 5.3116,1.32211 9.87977,3.29208 13.74812,5.88308 3.86818,2.53835 6.9338,5.69082 9.12782,9.39231 2.19388,3.70169 3.26792,7.88566 3.268,12.59188 -8e-5,4.33623 -0.75274,8.22586 -2.25378,11.66298 -1.44347,3.43725 -3.59157,6.53684 -6.53598,9.39228 -2.9446,2.85559 -6.598,5.51494 -11.04358,7.94734 -4.38794,2.37965 -9.54948,4.69431 -15.43843,6.91521 l -3.60606,14.75935 -10.81818,0 -3.49339,-20.02316 c 5.08068,-1.85074 9.16262,-4.01695 12.39584,-6.50236 3.23314,-2.53816 5.81529,-5.19496 7.66289,-8.05055 1.90521,-2.90832 3.25123,-5.90979 3.94412,-9.08266 0.69277,-3.17271 1.01415,-6.37297 1.0142,-9.59873 -5e-5,-2.59103 -0.26928,-5.00635 -0.78881,-7.12165 -0.51969,-2.16796 -1.32452,-4.03982 -2.47918,-5.57344 -1.09703,-1.5863 -2.60514,-2.76625 -4.39488,-3.61243 -1.73211,-0.84597 -3.77308,-1.23844 -6.19793,-1.23854 -2.65586,10e-5 -4.85891,0.54102 -6.64867,1.65139 -1.78984,1.11058 -3.29795,2.58742 -4.39488,4.43812 -1.09701,1.8509 -1.84689,4.01711 -2.36647,6.50237 -0.46192,2.48544 -0.67618,5.09445 -0.67615,7.84411 -3.63736,9e-5 -7.08208,-0.24648 -10.14204,-0.72248 -3.06,-0.47584 -5.63659,-1.1652 -7.88827,-2.06424 -2.19396,-0.95175 -3.91354,-2.08136 -5.18372,-3.50922 -1.21244,-1.42766 -1.91572,-3.15362 -1.91572,-5.05739 0,-2.64389 0.75267,-5.05412 2.2538,-7.32806 1.50111,-2.3266 3.81405,-4.39724 6.87406,-6.08952 3.1177,-1.69203 7.09806,-2.9701 11.83239,-3.92205 4.73426,-1.00461 10.26657,-1.54807 16.79072,-1.54818 z m -1.01421,92.99412 c 1.96296,3e-5 3.78968,0.19625 5.52178,0.61928 1.78975,0.42306 3.40499,1.16276 4.73295,2.16745 1.32786,1.00474 2.4047,2.33313 3.15531,4.02527 0.80824,1.63929 1.12684,3.70738 1.12689,6.19273 -5e-5,2.43248 -0.31866,4.45023 -1.12689,6.08951 -0.75061,1.63929 -1.82745,3.02056 -3.15531,4.02527 -1.32796,1.00472 -2.9432,1.6412 -4.73295,2.06424 -1.7321,0.47591 -3.55882,0.72248 -5.52178,0.72248 -2.02077,0 -3.84471,-0.24658 -5.63446,-0.72248 -1.78985,-0.42304 -3.40508,-1.05952 -4.73296,-2.06424 -1.27021,-1.00471 -2.29208,-2.38598 -3.04262,-4.02527 -0.75059,-1.63928 -1.12692,-3.65703 -1.12689,-6.08951 -3e-5,-2.48535 0.3763,-4.55344 1.12689,-6.19273 0.75054,-1.69214 1.77241,-3.02053 3.04262,-4.02527 1.32788,-1.00469 2.94311,-1.74439 4.73296,-2.16745 1.78975,-0.42303 3.61369,-0.61925 5.63446,-0.61928 z" />
      <path
         d="m 142.90601,812.14218 c -65.721899,0 -119.000009,39.92512 -119.000009,89.17527 0,31.37132 21.635489,58.93317 54.316279,74.82879 -1.24273,8.28587 -6.902046,28.56856 -33.694123,35.50496 34.700813,3.4541 57.746023,-12.04295 69.980133,-23.7388 9.09991,1.66956 18.61112,2.58032 28.39772,2.58032 65.72189,0 118.99999,-39.92512 118.99999,-89.17527 0,-49.25015 -53.2781,-89.17527 -118.99999,-89.17527 z m -3.26799,33.2343 c 6.23537,1.1e-4 12.04244,0.68947 17.35416,2.06424 5.3116,1.32211 9.87977,3.29208 13.74812,5.88308 3.86818,2.53835 6.9338,5.69082 9.12782,9.39231 2.19388,3.70169 3.26792,7.88566 3.268,12.59188 -8e-5,4.33623 -0.75274,8.22586 -2.25378,11.66298 -1.44347,3.43725 -3.59157,6.53684 -6.53598,9.39228 -2.9446,2.85559 -6.598,5.51494 -11.04358,7.94734 -4.38794,2.37965 -9.54948,4.69431 -15.43843,6.91521 l -3.60606,14.75935 -10.81818,0 -3.49339,-20.02316 c 5.08068,-1.85074 9.16262,-4.01695 12.39584,-6.50236 3.23314,-2.53816 5.81529,-5.19496 7.66289,-8.05055 1.90521,-2.90832 3.25123,-5.90979 3.94412,-9.08266 0.69277,-3.17271 1.01415,-6.37297 1.0142,-9.59873 -5e-5,-2.59103 -0.26928,-5.00635 -0.78881,-7.12165 -0.51969,-2.16796 -1.32452,-4.03982 -2.47918,-5.57344 -1.09703,-1.5863 -2.60514,-2.76625 -4.39488,-3.61243 -1.73211,-0.84597 -3.77308,-1.23844 -6.19793,-1.23854 -2.65586,10e-5 -4.85891,0.54102 -6.64867,1.65139 -1.78984,1.11058 -3.29795,2.58742 -4.39488,4.43812 -1.09701,1.8509 -1.84689,4.01711 -2.36647,6.50237 -0.46192,2.48544 -0.67618,5.09445 -0.67615,7.84411 -3.63736,9e-5 -7.08208,-0.24648 -10.14204,-0.72248 -3.06,-0.47584 -5.63659,-1.1652 -7.88827,-2.06424 -2.19396,-0.95175 -3.91354,-2.08136 -5.18372,-3.50922 -1.21244,-1.42766 -1.91572,-3.15362 -1.91572,-5.05739 0,-2.64389 0.75267,-5.05412 2.2538,-7.32806 1.50111,-2.3266 3.81405,-4.39724 6.87406,-6.08952 3.1177,-1.69203 7.09806,-2.9701 11.83239,-3.92205 4.73426,-1.00461 10.26657,-1.54807 16.79072,-1.54818 z m -1.01421,92.99412 c 1.96296,3e-5 3.78968,0.19625 5.52178,0.61928 1.78975,0.42306 3.40499,1.16276 4.73295,2.16745 1.32786,1.00474 2.4047,2.33313 3.15531,4.02527 0.80824,1.63929 1.12684,3.70738 1.12689,6.19273 -5e-5,2.43248 -0.31866,4.45023 -1.12689,6.08951 -0.75061,1.63929 -1.82745,3.02056 -3.15531,4.02527 -1.32796,1.00472 -2.9432,1.6412 -4.73295,2.06424 -1.7321,0.47591 -3.55882,0.72248 -5.52178,0.72248 -2.02077,0 -3.84471,-0.24658 -5.63446,-0.72248 -1.78985,-0.42304 -3.40508,-1.05952 -4.73296,-2.06424 -1.27021,-1.00471 -2.29208,-2.38598 -3.04262,-4.02527 -0.75059,-1.63928 -1.12692,-3.65703 -1.12689,-6.08951 -3e-5,-2.48535 0.3763,-4.55344 1.12689,-6.19273 0.75054,-1.69214 1.77241,-3.02053 3.04262,-4.02527 1.32788,-1.00469 2.94311,-1.74439 4.73296,-2.16745 1.78975,-0.42303 3.61369,-0.61925 5.63446,-0.61928 z"
         inkscape:connector-curvature="0"
         id="path30367"
         style="opacity:0.1;fill:none;stroke:#000000;stroke-width:12;stroke-linejoin:round;stroke-miterlimit:4;stroke-opacity:1;stroke-dasharray:none;display:inline" />
      <path
         style="opacity:0.15;fill:none;stroke:#000000;stroke-width:6;stroke-linejoin:round;stroke-miterlimit:4;stroke-opacity:1;stroke-dasharray:none;display:inline"
         id="path30365"
         inkscape:connector-curvature="0"
         d="m 142.90601,812.14218 c -65.721899,0 -119.000009,39.92512 -119.000009,89.17527 0,31.37132 21.635489,58.93317 54.316279,74.82879 -1.24273,8.28587 -6.902046,28.56856 -33.694123,35.50496 34.700813,3.4541 57.746023,-12.04295 69.980133,-23.7388 9.09991,1.66956 18.61112,2.58032 28.39772,2.58032 65.72189,0 118.99999,-39.92512 118.99999,-89.17527 0,-49.25015 -53.2781,-89.17527 -118.99999,-89.17527 z m -3.26799,33.2343 c 6.23537,1.1e-4 12.04244,0.68947 17.35416,2.06424 5.3116,1.32211 9.87977,3.29208 13.74812,5.88308 3.86818,2.53835 6.9338,5.69082 9.12782,9.39231 2.19388,3.70169 3.26792,7.88566 3.268,12.59188 -8e-5,4.33623 -0.75274,8.22586 -2.25378,11.66298 -1.44347,3.43725 -3.59157,6.53684 -6.53598,9.39228 -2.9446,2.85559 -6.598,5.51494 -11.04358,7.94734 -4.38794,2.37965 -9.54948,4.69431 -15.43843,6.91521 l -3.60606,14.75935 -10.81818,0 -3.49339,-20.02316 c 5.08068,-1.85074 9.16262,-4.01695 12.39584,-6.50236 3.23314,-2.53816 5.81529,-5.19496 7.66289,-8.05055 1.90521,-2.90832 3.25123,-5.90979 3.94412,-9.08266 0.69277,-3.17271 1.01415,-6.37297 1.0142,-9.59873 -5e-5,-2.59103 -0.26928,-5.00635 -0.78881,-7.12165 -0.51969,-2.16796 -1.32452,-4.03982 -2.47918,-5.57344 -1.09703,-1.5863 -2.60514,-2.76625 -4.39488,-3.61243 -1.73211,-0.84597 -3.77308,-1.23844 -6.19793,-1.23854 -2.65586,10e-5 -4.85891,0.54102 -6.64867,1.65139 -1.78984,1.11058 -3.29795,2.58742 -4.39488,4.43812 -1.09701,1.8509 -1.84689,4.01711 -2.36647,6.50237 -0.46192,2.48544 -0.67618,5.09445 -0.67615,7.84411 -3.63736,9e-5 -7.08208,-0.24648 -10.14204,-0.72248 -3.06,-0.47584 -5.63659,-1.1652 -7.88827,-2.06424 -2.19396,-0.95175 -3.91354,-2.08136 -5.18372,-3.50922 -1.21244,-1.42766 -1.91572,-3.15362 -1.91572,-5.05739 0,-2.64389 0.75267,-5.05412 2.2538,-7.32806 1.50111,-2.3266 3.81405,-4.39724 6.87406,-6.08952 3.1177,-1.69203 7.09806,-2.9701 11.83239,-3.92205 4.73426,-1.00461 10.26657,-1.54807 16.79072,-1.54818 z m -1.01421,92.99412 c 1.96296,3e-5 3.78968,0.19625 5.52178,0.61928 1.78975,0.42306 3.40499,1.16276 4.73295,2.16745 1.32786,1.00474 2.4047,2.33313 3.15531,4.02527 0.80824,1.63929 1.12684,3.70738 1.12689,6.19273 -5e-5,2.43248 -0.31866,4.45023 -1.12689,6.08951 -0.75061,1.63929 -1.82745,3.02056 -3.15531,4.02527 -1.32796,1.00472 -2.9432,1.6412 -4.73295,2.06424 -1.7321,0.47591 -3.55882,0.72248 -5.52178,0.72248 -2.02077,0 -3.84471,-0.24658 -5.63446,-0.72248 -1.78985,-0.42304 -3.40508,-1.05952 -4.73296,-2.06424 -1.27021,-1.00471 -2.29208,-2.38598 -3.04262,-4.02527 -0.75059,-1.63928 -1.12692,-3.65703 -1.12689,-6.08951 -3e-5,-2.48535 0.3763,-4.55344 1.12689,-6.19273 0.75054,-1.69214 1.77241,-3.02053 3.04262,-4.02527 1.32788,-1.00469 2.94311,-1.74439 4.73296,-2.16745 1.78975,-0.42303 3.61369,-0.61925 5.63446,-0.61928 z" />
      <path
         d="m 142.90601,812.14218 c -65.721899,0 -119.000009,39.92512 -119.000009,89.17527 0,31.37132 21.635489,58.93317 54.316279,74.82879 -1.24273,8.28587 -6.902046,28.56856 -33.694123,35.50496 34.700813,3.4541 57.746023,-12.04295 69.980133,-23.7388 9.09991,1.66956 18.61112,2.58032 28.39772,2.58032 65.72189,0 118.99999,-39.92512 118.99999,-89.17527 0,-49.25015 -53.2781,-89.17527 -118.99999,-89.17527 z m -3.26799,33.2343 c 6.23537,1.1e-4 12.04244,0.68947 17.35416,2.06424 5.3116,1.32211 9.87977,3.29208 13.74812,5.88308 3.86818,2.53835 6.9338,5.69082 9.12782,9.39231 2.19388,3.70169 3.26792,7.88566 3.268,12.59188 -8e-5,4.33623 -0.75274,8.22586 -2.25378,11.66298 -1.44347,3.43725 -3.59157,6.53684 -6.53598,9.39228 -2.9446,2.85559 -6.598,5.51494 -11.04358,7.94734 -4.38794,2.37965 -9.54948,4.69431 -15.43843,6.91521 l -3.60606,14.75935 -10.81818,0 -3.49339,-20.02316 c 5.08068,-1.85074 9.16262,-4.01695 12.39584,-6.50236 3.23314,-2.53816 5.81529,-5.19496 7.66289,-8.05055 1.90521,-2.90832 3.25123,-5.90979 3.94412,-9.08266 0.69277,-3.17271 1.01415,-6.37297 1.0142,-9.59873 -5e-5,-2.59103 -0.26928,-5.00635 -0.78881,-7.12165 -0.51969,-2.16796 -1.32452,-4.03982 -2.47918,-5.57344 -1.09703,-1.5863 -2.60514,-2.76625 -4.39488,-3.61243 -1.73211,-0.84597 -3.77308,-1.23844 -6.19793,-1.23854 -2.65586,10e-5 -4.85891,0.54102 -6.64867,1.65139 -1.78984,1.11058 -3.29795,2.58742 -4.39488,4.43812 -1.09701,1.8509 -1.84689,4.01711 -2.36647,6.50237 -0.46192,2.48544 -0.67618,5.09445 -0.67615,7.84411 -3.63736,9e-5 -7.08208,-0.24648 -10.14204,-0.72248 -3.06,-0.47584 -5.63659,-1.1652 -7.88827,-2.06424 -2.19396,-0.95175 -3.91354,-2.08136 -5.18372,-3.50922 -1.21244,-1.42766 -1.91572,-3.15362 -1.91572,-5.05739 0,-2.64389 0.75267,-5.05412 2.2538,-7.32806 1.50111,-2.3266 3.81405,-4.39724 6.87406,-6.08952 3.1177,-1.69203 7.09806,-2.9701 11.83239,-3.92205 4.73426,-1.00461 10.26657,-1.54807 16.79072,-1.54818 z m -1.01421,92.99412 c 1.96296,3e-5 3.78968,0.19625 5.52178,0.61928 1.78975,0.42306 3.40499,1.16276 4.73295,2.16745 1.32786,1.00474 2.4047,2.33313 3.15531,4.02527 0.80824,1.63929 1.12684,3.70738 1.12689,6.19273 -5e-5,2.43248 -0.31866,4.45023 -1.12689,6.08951 -0.75061,1.63929 -1.82745,3.02056 -3.15531,4.02527 -1.32796,1.00472 -2.9432,1.6412 -4.73295,2.06424 -1.7321,0.47591 -3.55882,0.72248 -5.52178,0.72248 -2.02077,0 -3.84471,-0.24658 -5.63446,-0.72248 -1.78985,-0.42304 -3.40508,-1.05952 -4.73296,-2.06424 -1.27021,-1.00471 -2.29208,-2.38598 -3.04262,-4.02527 -0.75059,-1.63928 -1.12692,-3.65703 -1.12689,-6.08951 -3e-5,-2.48535 0.3763,-4.55344 1.12689,-6.19273 0.75054,-1.69214 1.77241,-3.02053 3.04262,-4.02527 1.32788,-1.00469 2.94311,-1.74439 4.73296,-2.16745 1.78975,-0.42303 3.61369,-0.61925 5.63446,-0.61928 z"
         inkscape:connector-curvature="0"
         id="path3620-1"
         style="fill:url(#linearGradient30380);fill-opacity:1;stroke:none;display:inline" />
      <path
         id="path30341"
         transform="translate(0,796.36218)"
         d="m 142.90625,15.78125 c -65.721899,0 -119,39.93735 -119,89.1875 0,0.26364 0.0282,0.51815 0.03125,0.78125 0.867637,-48.69012 53.788146,-87.96875 118.96875,-87.96875 65.2779,0 118.28687,39.396587 119,88.1875 0.005,-0.33638 0,-0.66273 0,-1 0,-49.25015 -53.27811,-89.1875 -119,-89.1875 z m -1.8125,43.03125 c -2.65586,1e-4 -4.83524,0.54588 -6.625,1.65625 -1.78984,1.11058 -3.30932,2.5868 -4.40625,4.4375 -1.09701,1.8509 -1.85542,4.01474 -2.375,6.5 -0.46192,2.48544 -0.65628,5.09409 -0.65625,7.84375 -3.63736,9e-5 -7.09629,-0.24275 -10.15625,-0.71875 -3.06,-0.47584 -5.62332,-1.16346 -7.875,-2.0625 -2.19396,-0.95175 -3.91732,-2.07214 -5.1875,-3.5 -1.01299,-1.19281 -1.68607,-2.617251 -1.875,-4.15625 -0.0284,0.354641 -0.0625,0.730542 -0.0625,1.09375 0,1.90377 0.72506,3.63484 1.9375,5.0625 1.27018,1.42786 2.99354,2.54825 5.1875,3.5 2.25168,0.89904 4.815,1.58666 7.875,2.0625 3.05996,0.476 6.51889,0.71884 10.15625,0.71875 -3e-5,-2.74966 0.19433,-5.35831 0.65625,-7.84375 0.51958,-2.48526 1.27799,-4.6491 2.375,-6.5 1.09693,-1.8507 2.61641,-3.32692 4.40625,-4.4375 1.78976,-1.11037 3.96914,-1.65615 6.625,-1.65625 2.42485,1e-4 4.48664,0.40403 6.21875,1.25 1.78974,0.84618 3.27797,2.00745 4.375,3.59375 1.15466,1.53362 1.98031,3.42579 2.5,5.59375 0.45991,1.872537 0.69548,3.993481 0.75,6.25 0.009,-0.376354 0.0312,-0.747945 0.0312,-1.125 -5e-5,-2.59103 -0.26172,-5.0097 -0.78125,-7.125 -0.51969,-2.16796 -1.34534,-4.06013 -2.5,-5.59375 -1.09703,-1.5863 -2.58526,-2.74757 -4.375,-3.59375 -1.73211,-0.84597 -3.7939,-1.2499 -6.21875,-1.25 z m 42,21.09375 c -0.10388,3.951371 -0.82959,7.506576 -2.21875,10.6875 -1.44347,3.43725 -3.58684,6.55081 -6.53125,9.40625 -2.9446,2.85559 -6.58567,5.5051 -11.03125,7.9375 -4.38794,2.37965 -9.54855,4.7166 -15.4375,6.9375 l -3.625,14.75 -10.8125,0 -3.15625,-18.15625 c -0.11527,0.0427 -0.22743,0.0826 -0.34375,0.125 l 3.5,20.03125 10.8125,0 3.625,-14.75 c 5.88895,-2.2209 11.04956,-4.55785 15.4375,-6.9375 4.44558,-2.4324 8.08665,-5.08191 11.03125,-7.9375 2.94441,-2.85544 5.08778,-5.969 6.53125,-9.40625 1.50104,-3.43712 2.24992,-7.32002 2.25,-11.65625 -1e-5,-0.353044 -0.0191,-0.684067 -0.0312,-1.03125 z M 124.125,156 c -0.0148,0.33231 -0.0312,0.65123 -0.0312,1 -3e-5,2.43248 0.37441,4.45447 1.125,6.09375 0.75054,1.63929 1.76104,3.02654 3.03125,4.03125 1.32788,1.00472 2.96015,1.63946 4.75,2.0625 1.78975,0.4759 3.60423,0.71875 5.625,0.71875 1.96296,0 3.79915,-0.24284 5.53125,-0.71875 1.78975,-0.42304 3.39079,-1.05778 4.71875,-2.0625 1.32786,-1.00471 2.40564,-2.39196 3.15625,-4.03125 0.80823,-1.63928 1.12495,-3.66127 1.125,-6.09375 -10e-6,-0.34877 -0.0182,-0.66769 -0.0312,-1 -0.081,1.98412 -0.40096,3.68862 -1.09375,5.09375 -0.75061,1.63929 -1.82839,3.02654 -3.15625,4.03125 -1.32796,1.00472 -2.929,1.63946 -4.71875,2.0625 -1.7321,0.47591 -3.56829,0.71875 -5.53125,0.71875 -2.02077,0 -3.83525,-0.24285 -5.625,-0.71875 -1.78985,-0.42304 -3.42212,-1.05778 -4.75,-2.0625 -1.27021,-1.00471 -2.28071,-2.39196 -3.03125,-4.03125 C 124.57537,159.68862 124.2171,157.98412 124.125,156 z m -46.21875,25.625 c -1.786118,9.12943 -8.392206,27.18827 -33.375,33.65625 1.782166,0.1774 3.529206,0.2945 5.25,0.375 22.293534,-8.06204 27.280699,-26.16206 28.4375,-33.875 -0.105068,-0.0511 -0.207661,-0.10491 -0.3125,-0.15625 z"
         style="opacity:0.7;fill:#ffffff;fill-opacity:1;stroke:none;display:inline"
         inkscape:connector-curvature="0" />
      <path
         id="path30350"
         transform="translate(0,796.36218)"
         d="m 139.625,47 c -6.52415,1.1e-4 -12.04699,0.55789 -16.78125,1.5625 C 118.10942,49.51445 114.1177,50.80797 111,52.5 c -3.06001,1.69228 -5.34264,3.7359 -6.84375,6.0625 -1.50113,2.27394 -2.28125,4.69986 -2.28125,7.34375 0,0.31317 0.0253,0.603239 0.0625,0.90625 0.17832,-2.226888 0.92384,-4.288445 2.21875,-6.25 1.50111,-2.3266 3.78374,-4.37022 6.84375,-6.0625 3.1177,-1.69203 7.10942,-2.98555 11.84375,-3.9375 4.73426,-1.00461 10.2571,-1.56239 16.78125,-1.5625 6.23537,1.1e-4 12.06328,0.71898 17.375,2.09375 5.3116,1.32211 9.88165,3.284 13.75,5.875 3.86818,2.53835 6.93098,5.67351 9.125,9.375 2.0293,3.424002 3.0694,7.281593 3.21875,11.5625 0.008,-0.318248 0.0312,-0.645537 0.0312,-0.96875 -8e-5,-4.70622 -1.05612,-8.89206 -3.25,-12.59375 -2.19402,-3.70149 -5.25682,-6.83665 -9.125,-9.375 -3.86835,-2.591 -8.4384,-4.55289 -13.75,-5.875 C 151.68828,47.71898 145.86037,47.00011 139.625,47 z m 15.3125,28.5 c -0.067,2.843416 -0.38821,5.666894 -1,8.46875 -0.69289,3.17287 -2.03229,6.18543 -3.9375,9.09375 -1.8476,2.85559 -4.42311,5.49309 -7.65625,8.03125 -3.23322,2.48541 -7.32557,4.64926 -12.40625,6.5 l 0.34375,1.875 c 4.91975,-1.82248 8.9033,-3.94649 12.0625,-6.375 3.23314,-2.53816 5.80865,-5.17566 7.65625,-8.03125 1.90521,-2.90832 3.24461,-5.92088 3.9375,-9.09375 0.69277,-3.17271 1.0312,-6.36799 1.03125,-9.59375 -1e-5,-0.29736 -0.0242,-0.582457 -0.0312,-0.875 z m -131,28.25 c -0.0072,0.40435 -0.03125,0.81312 -0.03125,1.21875 0,31.27046 21.495179,58.73704 54,74.65625 0.129353,-0.66116 0.228578,-1.2842 0.3125,-1.84375 C 45.812605,162.01921 24.297346,134.79364 23.9375,103.75 z m 237.96875,0.21875 c -0.7228,48.78462 -53.72818,88.15625 -119,88.15625 -9.7866,0 -19.30634,-0.89294 -28.40625,-2.5625 -11.60579,11.09517 -32.933722,25.58077 -64.71875,24.09375 -1.655999,0.59886 -3.397452,1.14538 -5.25,1.625 34.700813,3.4541 57.73464,-12.0229 69.96875,-23.71875 9.09991,1.66956 18.61965,2.5625 28.40625,2.5625 65.72189,0 119,-39.9061 119,-89.15625 0,-0.33271 0.005,-0.66815 0,-1 z M 138.625,140 c -2.02077,3e-5 -3.83525,0.20197 -5.625,0.625 -1.78985,0.42306 -3.42212,1.15156 -4.75,2.15625 -1.27021,1.00474 -2.28071,2.33911 -3.03125,4.03125 -0.75059,1.63929 -1.12503,3.70215 -1.125,6.1875 0,0.34744 0.0159,0.66937 0.0312,1 0.0907,-2.0357 0.44849,-3.77825 1.09375,-5.1875 0.75054,-1.69214 1.76104,-3.02651 3.03125,-4.03125 1.32788,-1.00469 2.96015,-1.73319 4.75,-2.15625 1.78975,-0.42303 3.60423,-0.62497 5.625,-0.625 1.96296,3e-5 3.79915,0.20197 5.53125,0.625 1.78975,0.42306 3.39079,1.15156 4.71875,2.15625 1.32786,1.00474 2.40564,2.33911 3.15625,4.03125 0.69482,1.40925 1.01395,3.1518 1.09375,5.1875 0.0135,-0.33063 0.0312,-0.65256 0.0312,-1 -5e-5,-2.48535 -0.31676,-4.54821 -1.125,-6.1875 -0.75061,-1.69214 -1.82839,-3.02651 -3.15625,-4.03125 -1.32796,-1.00469 -2.929,-1.73319 -4.71875,-2.15625 -1.7321,-0.42303 -3.56829,-0.62497 -5.53125,-0.625 z"
         style="opacity:0.7;fill:#000000;fill-opacity:1;stroke:none;display:inline"
         inkscape:connector-curvature="0" />
      <path
         inkscape:connector-curvature="0"
         style="opacity:0.3;fill:#000000;fill-opacity:1;stroke:none;display:inline"
         d="m 139.625,845.36218 c -6.52415,1.1e-4 -12.04699,0.55789 -16.78125,1.5625 -4.73433,0.95195 -8.72605,2.24547 -11.84375,3.9375 -3.06001,1.69228 -5.34264,3.7359 -6.84375,6.0625 -1.50113,2.27394 -2.28125,4.69986 -2.28125,7.34375 0,0.31317 0.0253,0.60324 0.0625,0.90625 0.17832,-2.22689 0.92384,-4.28844 2.21875,-6.25 1.50111,-2.3266 3.78374,-4.37022 6.84375,-6.0625 3.1177,-1.69203 7.10942,-2.98555 11.84375,-3.9375 4.73426,-1.00461 10.2571,-1.56239 16.78125,-1.5625 6.23537,1.1e-4 12.06328,0.71898 17.375,2.09375 5.3116,1.32211 9.88165,3.284 13.75,5.875 3.86818,2.53835 6.93098,5.67351 9.125,9.375 2.0293,3.424 3.0694,7.28159 3.21875,11.5625 0.008,-0.31825 0.0312,-0.64554 0.0312,-0.96875 -8e-5,-4.70622 -1.05612,-8.89206 -3.25,-12.59375 -2.19402,-3.70149 -5.25682,-6.83665 -9.125,-9.375 -3.86835,-2.591 -8.4384,-4.55289 -13.75,-5.875 -5.31172,-1.37477 -11.13963,-2.09364 -17.375,-2.09375 z m 15.3125,28.5 c -0.067,2.84342 -0.38821,5.66689 -1,8.46875 -0.69289,3.17287 -2.03229,6.18543 -3.9375,9.09375 -1.8476,2.85559 -4.42311,5.49309 -7.65625,8.03125 -3.23322,2.48541 -7.32557,4.64926 -12.40625,6.5 l 0.34375,1.875 c 4.91975,-1.82248 8.9033,-3.94649 12.0625,-6.375 3.23314,-2.53816 5.80865,-5.17566 7.65625,-8.03125 1.90521,-2.90832 3.24461,-5.92088 3.9375,-9.09375 0.69277,-3.17271 1.0312,-6.36799 1.03125,-9.59375 -1e-5,-0.29736 -0.0242,-0.58246 -0.0312,-0.875 z m -131,28.25 c -0.0072,0.40435 -0.03125,0.81312 -0.03125,1.21875 0,31.27046 21.495179,58.73704 54,74.65625 0.129353,-0.66116 0.228578,-1.2842 0.3125,-1.84375 C 45.812605,960.38139 24.297346,933.15582 23.9375,902.11218 z m 237.96875,0.21875 c -0.7228,48.78462 -53.72818,88.15625 -119,88.15625 -9.7866,0 -19.30634,-0.89294 -28.40625,-2.5625 -11.60579,11.09517 -32.933722,25.58082 -64.71875,24.09372 -1.655999,0.5989 -3.397452,1.1454 -5.25,1.625 34.700813,3.4541 57.73464,-12.0229 69.96875,-23.71872 9.09991,1.66956 18.61965,2.5625 28.40625,2.5625 65.72189,0 119,-39.9061 119,-89.15625 0,-0.33271 0.005,-0.66815 0,-1 z M 138.625,938.36218 c -2.02077,3e-5 -3.83525,0.20197 -5.625,0.625 -1.78985,0.42306 -3.42212,1.15156 -4.75,2.15625 -1.27021,1.00474 -2.28071,2.33911 -3.03125,4.03125 -0.75059,1.63929 -1.12503,3.70215 -1.125,6.1875 0,0.34744 0.0159,0.66937 0.0312,1 0.0907,-2.0357 0.44849,-3.77825 1.09375,-5.1875 0.75054,-1.69214 1.76104,-3.02651 3.03125,-4.03125 1.32788,-1.00469 2.96015,-1.73319 4.75,-2.15625 1.78975,-0.42303 3.60423,-0.62497 5.625,-0.625 1.96296,3e-5 3.79915,0.20197 5.53125,0.625 1.78975,0.42306 3.39079,1.15156 4.71875,2.15625 1.32786,1.00474 2.40564,2.33911 3.15625,4.03125 0.69482,1.40925 1.01395,3.1518 1.09375,5.1875 0.0135,-0.33063 0.0312,-0.65256 0.0312,-1 -5e-5,-2.48535 -0.31676,-4.54821 -1.125,-6.1875 -0.75061,-1.69214 -1.82839,-3.02651 -3.15625,-4.03125 -1.32796,-1.00469 -2.929,-1.73319 -4.71875,-2.15625 -1.7321,-0.42303 -3.56829,-0.62497 -5.53125,-0.625 z"
         id="path30363" />
    </g>
  </g>
</svg>
