<?xml version="1.0" encoding="UTF-8" standalone="no"?>
<!-- Created with Inkscape (http://www.inkscape.org/) -->

<svg
   xmlns:dc="http://purl.org/dc/elements/1.1/"
   xmlns:cc="http://creativecommons.org/ns#"
   xmlns:rdf="http://www.w3.org/1999/02/22-rdf-syntax-ns#"
   xmlns:svg="http://www.w3.org/2000/svg"
   xmlns="http://www.w3.org/2000/svg"
   xmlns:xlink="http://www.w3.org/1999/xlink"
   xmlns:sodipodi="http://sodipodi.sourceforge.net/DTD/sodipodi-0.dtd"
   xmlns:inkscape="http://www.inkscape.org/namespaces/inkscape"
   width="256"
   height="256"
   id="svg6138"
   version="1.1"
   inkscape:version="0.48.2 r9819"
   sodipodi:docname="stock_dialog-info.svg">
  <defs
     id="defs6140">
    <linearGradient
       inkscape:collect="always"
       xlink:href="#linearGradient3731"
       id="linearGradient6073"
       gradientUnits="userSpaceOnUse"
       gradientTransform="matrix(3.1543624,0,0,2.8991873,-23.409396,-4.2383422)"
       x1="48.082497"
       y1="75.561722"
       x2="46.654823"
       y2="16.972879" />
    <linearGradient
       id="linearGradient3731">
      <stop
         id="stop3733"
         style="stop-color:#008000;stop-opacity:1;"
         offset="0" />
      <stop
         id="stop3735"
         style="stop-color:#00ff00;stop-opacity:1;"
         offset="1" />
    </linearGradient>
    <linearGradient
       inkscape:collect="always"
       xlink:href="#linearGradient3731"
       id="linearGradient29182"
       gradientUnits="userSpaceOnUse"
       gradientTransform="matrix(3.6060606,0,0,3.302788,-30.184869,755.99479)"
       x1="48.082497"
       y1="75.561722"
       x2="46.654823"
       y2="16.972879" />
    <linearGradient
       inkscape:collect="always"
       xlink:href="#linearGradient3731"
       id="linearGradient29700"
       gradientUnits="userSpaceOnUse"
       gradientTransform="matrix(3.6060606,0,0,3.302788,-30.184869,757.99479)"
       x1="48.082497"
       y1="75.561722"
       x2="46.654823"
       y2="16.972879" />
    <linearGradient
       inkscape:collect="always"
       xlink:href="#linearGradient3731"
       id="linearGradient29702"
       gradientUnits="userSpaceOnUse"
       gradientTransform="matrix(3.6060606,0,0,3.302788,-30.184869,-40.36739)"
       x1="48.082497"
       y1="75.561722"
       x2="46.654823"
       y2="16.972879" />
    <linearGradient
       inkscape:collect="always"
       xlink:href="#linearGradient3731"
       id="linearGradient29709"
       gradientUnits="userSpaceOnUse"
       gradientTransform="matrix(3.6060606,0,0,3.302788,-30.184869,753.99479)"
       x1="48.082497"
       y1="75.561722"
       x2="46.654823"
       y2="16.972879" />
    <linearGradient
       inkscape:collect="always"
       xlink:href="#linearGradient3731"
       id="linearGradient29711"
       gradientUnits="userSpaceOnUse"
       gradientTransform="matrix(3.6060606,0,0,3.302788,-30.184869,-40.36739)"
       x1="48.082497"
       y1="75.561722"
       x2="46.654823"
       y2="16.972879" />
    <linearGradient
       inkscape:collect="always"
       xlink:href="#linearGradient3731"
       id="linearGradient29731"
       gradientUnits="userSpaceOnUse"
       gradientTransform="matrix(3.6060606,0,0,3.302788,-30.184869,755.99479)"
       x1="48.082497"
       y1="75.561722"
       x2="46.654823"
       y2="16.972879" />
  </defs>
  <sodipodi:namedview
     id="base"
     pagecolor="#ffffff"
     bordercolor="#666666"
     borderopacity="1.0"
     inkscape:pageopacity="0.0"
     inkscape:pageshadow="2"
     inkscape:zoom="1.6328125"
     inkscape:cx="128"
     inkscape:cy="128"
     inkscape:document-units="px"
     inkscape:current-layer="layer1"
     showgrid="false"
     inkscape:window-width="1024"
     inkscape:window-height="576"
     inkscape:window-x="0"
     inkscape:window-y="24"
     inkscape:window-maximized="1"
     fit-margin-top="0"
     fit-margin-left="0"
     fit-margin-right="0"
     fit-margin-bottom="0" />
  <metadata
     id="metadata6143">
    <rdf:RDF>
      <cc:Work
         rdf:about="">
        <dc:format>image/svg+xml</dc:format>
        <dc:type
           rdf:resource="http://purl.org/dc/dcmitype/StillImage" />
        <dc:title></dc:title>
      </cc:Work>
    </rdf:RDF>
  </metadata>
  <g
     inkscape:label="Layer 1"
     inkscape:groupmode="layer"
     id="layer1"
     transform="translate(-14.90625,-765.12238)">
    <g
       id="g29722"
       transform="translate(0,-18.019798)">
      <path
         style="opacity:0.05;fill:none;stroke:#000000;stroke-width:18;stroke-linejoin:round;stroke-miterlimit:4;stroke-opacity:1;stroke-dasharray:none;display:inline"
         id="path29720"
         inkscape:connector-curvature="0"
         d="m 142.90604,812.14218 c -65.721886,0 -119,39.92513 -119,89.17527 0,31.37133 21.635499,58.93315 54.316288,74.82879 -1.242739,8.28586 -6.902051,28.56856 -33.694129,35.50496 34.700815,3.4541 57.746011,-12.04295 69.980121,-23.73879 9.09991,1.66956 18.61111,2.58031 28.39772,2.58031 65.72189,0 119,-39.92512 119,-89.17527 0,-49.25014 -53.27811,-89.17527 -119,-89.17527 z m 10.02936,29.7251 c 4.45085,9e-5 8.24945,1.41087 11.38163,4.12848 3.18701,2.71782 4.7329,5.98032 4.73295,9.80514 -5e-5,3.82507 -1.54594,7.08753 -4.73295,9.80515 -3.13218,2.6675 -6.93078,4.02539 -11.38163,4.02528 -4.45095,1.1e-4 -8.30729,-1.35778 -11.49432,-4.02528 -3.1871,-2.71762 -4.73299,-5.98008 -4.73296,-9.80515 -3e-5,-3.82482 1.54586,-7.08732 4.73296,-9.80514 3.18703,-2.71761 7.04337,-4.12839 11.49432,-4.12848 z M 137.83502,882.12 c 6.53894,6e-5 11.58357,1.51914 15.10038,4.43813 3.57167,2.86875 5.29634,6.62 5.2964,11.2501 -7e-5,0.9563 -0.0633,2.64172 -0.33807,5.05741 -0.21982,2.41578 -0.69293,4.59249 -1.35228,6.60558 l -6.76136,21.98416 c -0.54954,1.76152 -1.0254,3.72155 -1.46496,5.9863 -0.43965,2.26479 -0.67617,4.00309 -0.67614,5.16062 -3e-5,2.91907 0.71238,4.9294 2.1411,5.9863 1.42865,1.05688 3.92069,1.54817 7.43751,1.54817 1.64843,0 3.54633,-0.21896 5.63447,-0.72248 2.08801,-0.55361 3.57337,-1.04232 4.50757,-1.44497 l -1.80303,6.81199 c -5.44006,1.96279 -9.83001,3.43158 -13.07197,4.43814 -3.24206,1.05689 -6.98291,1.54818 -11.26894,1.54818 -6.59397,0 -11.75685,-1.41588 -15.43845,-4.33491 -3.62668,-2.96934 -5.40909,-6.72058 -5.40909,-11.25013 0,-1.76147 0.17598,-3.55519 0.45076,-5.36702 0.27474,-1.86211 0.63513,-3.98082 1.23958,-6.29595 l 6.76136,-21.98417 c 0.60442,-2.11375 1.0803,-4.12412 1.46497,-5.9863 0.43958,-1.91242 0.67612,-3.60037 0.67613,-5.16061 -1e-5,-2.81834 -0.6519,-4.7758 -1.91571,-5.88308 -1.26386,-1.10716 -3.64043,-1.75454 -7.21213,-1.7546 -1.75839,6e-5 -3.54082,0.32234 -5.40909,0.82569 -1.81334,0.50334 -3.41417,0.99208 -4.73295,1.44496 l 1.80303,-6.812 c 4.4509,-1.66077 8.78032,-3.07406 12.84659,-4.2317 4.06624,-1.2078 7.86763,-1.85775 11.49432,-1.85781 z" />
      <path
         d="m 142.90604,812.14218 c -65.721886,0 -119,39.92513 -119,89.17527 0,31.37133 21.635499,58.93315 54.316288,74.82879 -1.242739,8.28586 -6.902051,28.56856 -33.694129,35.50496 34.700815,3.4541 57.746011,-12.04295 69.980121,-23.73879 9.09991,1.66956 18.61111,2.58031 28.39772,2.58031 65.72189,0 119,-39.92512 119,-89.17527 0,-49.25014 -53.27811,-89.17527 -119,-89.17527 z m 10.02936,29.7251 c 4.45085,9e-5 8.24945,1.41087 11.38163,4.12848 3.18701,2.71782 4.7329,5.98032 4.73295,9.80514 -5e-5,3.82507 -1.54594,7.08753 -4.73295,9.80515 -3.13218,2.6675 -6.93078,4.02539 -11.38163,4.02528 -4.45095,1.1e-4 -8.30729,-1.35778 -11.49432,-4.02528 -3.1871,-2.71762 -4.73299,-5.98008 -4.73296,-9.80515 -3e-5,-3.82482 1.54586,-7.08732 4.73296,-9.80514 3.18703,-2.71761 7.04337,-4.12839 11.49432,-4.12848 z M 137.83502,882.12 c 6.53894,6e-5 11.58357,1.51914 15.10038,4.43813 3.57167,2.86875 5.29634,6.62 5.2964,11.2501 -7e-5,0.9563 -0.0633,2.64172 -0.33807,5.05741 -0.21982,2.41578 -0.69293,4.59249 -1.35228,6.60558 l -6.76136,21.98416 c -0.54954,1.76152 -1.0254,3.72155 -1.46496,5.9863 -0.43965,2.26479 -0.67617,4.00309 -0.67614,5.16062 -3e-5,2.91907 0.71238,4.9294 2.1411,5.9863 1.42865,1.05688 3.92069,1.54817 7.43751,1.54817 1.64843,0 3.54633,-0.21896 5.63447,-0.72248 2.08801,-0.55361 3.57337,-1.04232 4.50757,-1.44497 l -1.80303,6.81199 c -5.44006,1.96279 -9.83001,3.43158 -13.07197,4.43814 -3.24206,1.05689 -6.98291,1.54818 -11.26894,1.54818 -6.59397,0 -11.75685,-1.41588 -15.43845,-4.33491 -3.62668,-2.96934 -5.40909,-6.72058 -5.40909,-11.25013 0,-1.76147 0.17598,-3.55519 0.45076,-5.36702 0.27474,-1.86211 0.63513,-3.98082 1.23958,-6.29595 l 6.76136,-21.98417 c 0.60442,-2.11375 1.0803,-4.12412 1.46497,-5.9863 0.43958,-1.91242 0.67612,-3.60037 0.67613,-5.16061 -1e-5,-2.81834 -0.6519,-4.7758 -1.91571,-5.88308 -1.26386,-1.10716 -3.64043,-1.75454 -7.21213,-1.7546 -1.75839,6e-5 -3.54082,0.32234 -5.40909,0.82569 -1.81334,0.50334 -3.41417,0.99208 -4.73295,1.44496 l 1.80303,-6.812 c 4.4509,-1.66077 8.78032,-3.07406 12.84659,-4.2317 4.06624,-1.2078 7.86763,-1.85775 11.49432,-1.85781 z"
         inkscape:connector-curvature="0"
         id="path29718"
         style="opacity:0.1;fill:none;stroke:#000000;stroke-width:12;stroke-linejoin:round;stroke-miterlimit:4;stroke-opacity:1;stroke-dasharray:none;display:inline" />
      <path
         style="opacity:0.15;fill:none;stroke:#000000;stroke-width:6;stroke-linejoin:round;stroke-miterlimit:4;stroke-opacity:1;stroke-dasharray:none;display:inline"
         id="path29716"
         inkscape:connector-curvature="0"
         d="m 142.90604,812.14218 c -65.721886,0 -119,39.92513 -119,89.17527 0,31.37133 21.635499,58.93315 54.316288,74.82879 -1.242739,8.28586 -6.902051,28.56856 -33.694129,35.50496 34.700815,3.4541 57.746011,-12.04295 69.980121,-23.73879 9.09991,1.66956 18.61111,2.58031 28.39772,2.58031 65.72189,0 119,-39.92512 119,-89.17527 0,-49.25014 -53.27811,-89.17527 -119,-89.17527 z m 10.02936,29.7251 c 4.45085,9e-5 8.24945,1.41087 11.38163,4.12848 3.18701,2.71782 4.7329,5.98032 4.73295,9.80514 -5e-5,3.82507 -1.54594,7.08753 -4.73295,9.80515 -3.13218,2.6675 -6.93078,4.02539 -11.38163,4.02528 -4.45095,1.1e-4 -8.30729,-1.35778 -11.49432,-4.02528 -3.1871,-2.71762 -4.73299,-5.98008 -4.73296,-9.80515 -3e-5,-3.82482 1.54586,-7.08732 4.73296,-9.80514 3.18703,-2.71761 7.04337,-4.12839 11.49432,-4.12848 z M 137.83502,882.12 c 6.53894,6e-5 11.58357,1.51914 15.10038,4.43813 3.57167,2.86875 5.29634,6.62 5.2964,11.2501 -7e-5,0.9563 -0.0633,2.64172 -0.33807,5.05741 -0.21982,2.41578 -0.69293,4.59249 -1.35228,6.60558 l -6.76136,21.98416 c -0.54954,1.76152 -1.0254,3.72155 -1.46496,5.9863 -0.43965,2.26479 -0.67617,4.00309 -0.67614,5.16062 -3e-5,2.91907 0.71238,4.9294 2.1411,5.9863 1.42865,1.05688 3.92069,1.54817 7.43751,1.54817 1.64843,0 3.54633,-0.21896 5.63447,-0.72248 2.08801,-0.55361 3.57337,-1.04232 4.50757,-1.44497 l -1.80303,6.81199 c -5.44006,1.96279 -9.83001,3.43158 -13.07197,4.43814 -3.24206,1.05689 -6.98291,1.54818 -11.26894,1.54818 -6.59397,0 -11.75685,-1.41588 -15.43845,-4.33491 -3.62668,-2.96934 -5.40909,-6.72058 -5.40909,-11.25013 0,-1.76147 0.17598,-3.55519 0.45076,-5.36702 0.27474,-1.86211 0.63513,-3.98082 1.23958,-6.29595 l 6.76136,-21.98417 c 0.60442,-2.11375 1.0803,-4.12412 1.46497,-5.9863 0.43958,-1.91242 0.67612,-3.60037 0.67613,-5.16061 -1e-5,-2.81834 -0.6519,-4.7758 -1.91571,-5.88308 -1.26386,-1.10716 -3.64043,-1.75454 -7.21213,-1.7546 -1.75839,6e-5 -3.54082,0.32234 -5.40909,0.82569 -1.81334,0.50334 -3.41417,0.99208 -4.73295,1.44496 l 1.80303,-6.812 c 4.4509,-1.66077 8.78032,-3.07406 12.84659,-4.2317 4.06624,-1.2078 7.86763,-1.85775 11.49432,-1.85781 z" />
      <path
         d="m 142.90604,812.14218 c -65.721886,0 -119,39.92513 -119,89.17527 0,31.37133 21.635499,58.93315 54.316288,74.82879 -1.242739,8.28586 -6.902051,28.56856 -33.694129,35.50496 34.700815,3.4541 57.746011,-12.04295 69.980121,-23.73879 9.09991,1.66956 18.61111,2.58031 28.39772,2.58031 65.72189,0 119,-39.92512 119,-89.17527 0,-49.25014 -53.27811,-89.17527 -119,-89.17527 z m 10.02936,29.7251 c 4.45085,9e-5 8.24945,1.41087 11.38163,4.12848 3.18701,2.71782 4.7329,5.98032 4.73295,9.80514 -5e-5,3.82507 -1.54594,7.08753 -4.73295,9.80515 -3.13218,2.6675 -6.93078,4.02539 -11.38163,4.02528 -4.45095,1.1e-4 -8.30729,-1.35778 -11.49432,-4.02528 -3.1871,-2.71762 -4.73299,-5.98008 -4.73296,-9.80515 -3e-5,-3.82482 1.54586,-7.08732 4.73296,-9.80514 3.18703,-2.71761 7.04337,-4.12839 11.49432,-4.12848 z M 137.83502,882.12 c 6.53894,6e-5 11.58357,1.51914 15.10038,4.43813 3.57167,2.86875 5.29634,6.62 5.2964,11.2501 -7e-5,0.9563 -0.0633,2.64172 -0.33807,5.05741 -0.21982,2.41578 -0.69293,4.59249 -1.35228,6.60558 l -6.76136,21.98416 c -0.54954,1.76152 -1.0254,3.72155 -1.46496,5.9863 -0.43965,2.26479 -0.67617,4.00309 -0.67614,5.16062 -3e-5,2.91907 0.71238,4.9294 2.1411,5.9863 1.42865,1.05688 3.92069,1.54817 7.43751,1.54817 1.64843,0 3.54633,-0.21896 5.63447,-0.72248 2.08801,-0.55361 3.57337,-1.04232 4.50757,-1.44497 l -1.80303,6.81199 c -5.44006,1.96279 -9.83001,3.43158 -13.07197,4.43814 -3.24206,1.05689 -6.98291,1.54818 -11.26894,1.54818 -6.59397,0 -11.75685,-1.41588 -15.43845,-4.33491 -3.62668,-2.96934 -5.40909,-6.72058 -5.40909,-11.25013 0,-1.76147 0.17598,-3.55519 0.45076,-5.36702 0.27474,-1.86211 0.63513,-3.98082 1.23958,-6.29595 l 6.76136,-21.98417 c 0.60442,-2.11375 1.0803,-4.12412 1.46497,-5.9863 0.43958,-1.91242 0.67612,-3.60037 0.67613,-5.16061 -1e-5,-2.81834 -0.6519,-4.7758 -1.91571,-5.88308 -1.26386,-1.10716 -3.64043,-1.75454 -7.21213,-1.7546 -1.75839,6e-5 -3.54082,0.32234 -5.40909,0.82569 -1.81334,0.50334 -3.41417,0.99208 -4.73295,1.44496 l 1.80303,-6.812 c 4.4509,-1.66077 8.78032,-3.07406 12.84659,-4.2317 4.06624,-1.2078 7.86763,-1.85775 11.49432,-1.85781 z"
         inkscape:connector-curvature="0"
         id="path3620-5"
         style="fill:url(#linearGradient29731);fill-opacity:1;stroke:none;display:inline" />
      <path
         id="path29696"
         transform="translate(0,796.36218)"
         d="m 142.90625,15.78125 c -65.721886,0 -119,39.93736 -119,89.1875 0,0.26364 0.0282,0.51815 0.03125,0.78125 0.867637,-48.690111 53.788159,-87.96875 118.96875,-87.96875 65.2779,0 118.28687,39.396597 119,88.1875 0.005,-0.33638 0,-0.66273 0,-1 0,-49.25014 -53.27811,-89.1875 -119,-89.1875 z M 136.75,60.4375 c -0.0245,0.330922 -0.0312,0.660215 -0.0312,1 -3e-5,3.82507 1.53165,7.09488 4.71875,9.8125 3.18703,2.6675 7.04905,4.03136 11.5,4.03125 4.45085,1.1e-4 8.24282,-1.36375 11.375,-4.03125 3.18701,-2.71762 4.74995,-5.98743 4.75,-9.8125 0,-0.33989 -0.038,-0.668979 -0.0625,-1 -0.25106,3.394179 -1.7837,6.336379 -4.6875,8.8125 -3.13218,2.6675 -6.92415,4.03136 -11.375,4.03125 -4.45095,1.1e-4 -8.31297,-1.36375 -11.5,-4.03125 -2.90397,-2.476195 -4.43657,-5.41819 -4.6875,-8.8125 z M 121.84375,96.375 c -1.75839,6e-5 -3.53798,0.3404 -5.40625,0.84375 -1.56714,0.435 -2.95144,0.850532 -4.15625,1.25 l -0.59375,2.1875 c 1.31878,-0.45288 2.93666,-0.93416 4.75,-1.4375 1.86827,-0.50335 3.64786,-0.84369 5.40625,-0.84375 3.5717,6e-5 5.92364,0.67409 7.1875,1.78125 1.08498,0.9506 1.74855,2.50818 1.90625,4.71875 0.0147,-0.28551 0.0312,-0.56683 0.0312,-0.84375 -1e-5,-2.81834 -0.67369,-4.76772 -1.9375,-5.875 -1.26386,-1.10716 -3.6158,-1.78119 -7.1875,-1.78125 z m 36.34375,6.15625 c -0.0332,0.98459 -0.0816,2.21354 -0.28125,3.96875 -0.21982,2.41578 -0.71565,4.58066 -1.375,6.59375 l -6.75,22 c -0.54954,1.76152 -1.02919,3.73525 -1.46875,6 -0.43965,2.26479 -0.68753,3.99872 -0.6875,5.15625 0,0.35387 0.0416,0.67292 0.0625,1 0.0871,-1.08339 0.29526,-2.45766 0.625,-4.15625 0.43956,-2.26475 0.91921,-4.23848 1.46875,-6 l 6.75,-22 c 0.65935,-2.01309 1.15518,-4.17797 1.375,-6.59375 0.27477,-2.41569 0.31243,-4.1062 0.3125,-5.0625 0,-0.31079 -0.0157,-0.60338 -0.0312,-0.90625 z m -37.78125,47.0625 c -0.018,0.41223 -0.0312,0.80982 -0.0312,1.21875 0,4.52955 1.77957,8.28066 5.40625,11.25 3.6816,2.91903 8.84353,4.34375 15.4375,4.34375 4.28603,0 8.03919,-0.50561 11.28125,-1.5625 3.24196,-1.00656 7.62244,-2.47471 13.0625,-4.4375 l 1.8125,-6.8125 c -0.1502,0.0647 -0.41484,0.14965 -0.59375,0.21875 l -1.21875,4.59375 c -5.44006,1.96279 -9.82054,3.43094 -13.0625,4.4375 -3.24206,1.05689 -6.99522,1.5625 -11.28125,1.5625 -6.59397,0 -11.7559,-1.42472 -15.4375,-4.34375 -3.41282,-2.79425 -5.17699,-6.29268 -5.375,-10.46875 z m -42.5,32.03125 c -1.786125,9.12943 -8.392205,27.18827 -33.375,33.65625 1.782166,0.1774 3.529206,0.29449 5.25,0.375 22.293535,-8.06204 27.280691,-26.16207 28.4375,-33.875 -0.105068,-0.0511 -0.207661,-0.10491 -0.3125,-0.15625 z"
         style="opacity:0.7;fill:#ffffff;fill-opacity:1;stroke:none;display:inline"
         inkscape:connector-curvature="0" />
      <path
         id="path29705"
         transform="translate(0,796.36218)"
         d="m 152.9375,43.5 c -4.45095,9e-5 -8.31297,1.40739 -11.5,4.125 -3.1871,2.71782 -4.71878,5.98768 -4.71875,9.8125 0,0.339807 0.007,0.669061 0.0312,1 0.25093,-3.394128 1.78353,-6.336123 4.6875,-8.8125 3.18703,-2.71761 7.04905,-4.12491 11.5,-4.125 4.45085,9e-5 8.24282,1.40739 11.375,4.125 2.9038,2.476303 4.43644,5.418502 4.6875,8.8125 0.0245,-0.331039 0.0625,-0.660088 0.0625,-1 -5e-5,-3.82482 -1.56299,-7.09468 -4.75,-9.8125 -3.13218,-2.71761 -6.92415,-4.12491 -11.375,-4.125 z m -15.09375,40.25 c -3.62669,6e-5 -7.43376,0.6672 -11.5,1.875 -4.06627,1.15764 -8.39285,2.55798 -12.84375,4.21875 l -1.8125,6.8125 c 0.17905,-0.06149 0.40447,-0.124742 0.59375,-0.1875 l 1.21875,-4.625 c 4.4509,-1.66077 8.77748,-3.06111 12.84375,-4.21875 4.06624,-1.2078 7.87331,-1.87494 11.5,-1.875 6.53894,6e-5 11.57694,1.51851 15.09375,4.4375 3.33193,2.67619 5.03345,6.134516 5.25,10.34375 0.0125,-0.3705 0.0312,-0.832284 0.0312,-1.09375 -6e-5,-4.6301 -1.70958,-8.38125 -5.28125,-11.25 -3.51681,-2.91899 -8.55481,-4.43744 -15.09375,-4.4375 z m -6.90625,19.125 c -0.0682,1.32311 -0.29469,2.73951 -0.65625,4.3125 -0.38467,1.86218 -0.86433,3.88625 -1.46875,6 l -6.75,21.96875 c -0.60445,2.31513 -0.97526,4.45039 -1.25,6.3125 -0.27478,1.81183 -0.4375,3.58228 -0.4375,5.34375 0,0.23509 0.0216,0.4566 0.0312,0.6875 0.0624,-1.33253 0.20016,-2.67238 0.40625,-4.03125 0.27474,-1.86211 0.64555,-3.99737 1.25,-6.3125 l 6.75,-21.96875 c 0.60442,-2.11375 1.08408,-4.13782 1.46875,-6 0.43958,-1.91242 0.68749,-3.59601 0.6875,-5.15625 0,-0.3988 -0.005,-0.79189 -0.0312,-1.15625 z m -107,0.875 c -0.0072,0.40435 -0.03125,0.81312 -0.03125,1.21875 0,31.27047 21.49518,58.73702 54,74.65625 0.129353,-0.66116 0.228577,-1.2842 0.3125,-1.84375 C 45.812606,162.0192 24.297346,134.79365 23.9375,103.75 z m 237.96875,0.21875 c -0.7228,48.78462 -53.72818,88.15625 -119,88.15625 -9.78661,0 -19.30634,-0.89294 -28.40625,-2.5625 -11.60579,11.09516 -32.933721,25.58077 -64.71875,24.09375 -1.655999,0.59886 -3.397452,1.14538 -5.25,1.625 34.700815,3.4541 57.73464,-12.02291 69.96875,-23.71875 9.09991,1.66956 18.61964,2.5625 28.40625,2.5625 65.72189,0 119,-39.9061 119,-89.15625 0,-0.33271 0.005,-0.66815 0,-1 z m -114.21875,41.3125 c -0.0273,0.34775 -0.0625,0.68838 -0.0625,0.96875 -3e-5,2.91907 0.72753,4.91185 2.15625,5.96875 1.42865,1.05688 3.92068,1.5625 7.4375,1.5625 1.64843,0 3.53686,-0.21523 5.625,-0.71875 1.7523,-0.4646 3.00365,-0.88932 3.9375,-1.25 l 0.59375,-2.21875 c -0.9342,0.40265 -2.44324,0.91514 -4.53125,1.46875 -2.08814,0.50352 -3.97657,0.71875 -5.625,0.71875 -3.51682,0 -6.00885,-0.50562 -7.4375,-1.5625 -1.25013,-0.92479 -1.93788,-2.58271 -2.09375,-4.9375 z"
         style="opacity:0.7;fill:#000000;fill-opacity:1;stroke:none;display:inline"
         inkscape:connector-curvature="0" />
      <path
         inkscape:connector-curvature="0"
         style="opacity:0.3;fill:#000000;fill-opacity:1;stroke:none;display:inline"
         d="m 152.9375,841.86218 c -4.45095,9e-5 -8.31297,1.40739 -11.5,4.125 -3.1871,2.71782 -4.71878,5.98768 -4.71875,9.8125 0,0.33981 0.007,0.66906 0.0312,1 0.25093,-3.39413 1.78353,-6.33612 4.6875,-8.8125 3.18703,-2.71761 7.04905,-4.12491 11.5,-4.125 4.45085,9e-5 8.24282,1.40739 11.375,4.125 2.9038,2.4763 4.43644,5.4185 4.6875,8.8125 0.0245,-0.33104 0.0625,-0.66009 0.0625,-1 -5e-5,-3.82482 -1.56299,-7.09468 -4.75,-9.8125 -3.13218,-2.71761 -6.92415,-4.12491 -11.375,-4.125 z m -15.09375,40.25 c -3.62669,6e-5 -7.43376,0.6672 -11.5,1.875 -4.06627,1.15764 -8.39285,2.55798 -12.84375,4.21875 l -1.8125,6.8125 c 0.17905,-0.0615 0.40447,-0.12474 0.59375,-0.1875 l 1.21875,-4.625 c 4.4509,-1.66077 8.77748,-3.06111 12.84375,-4.21875 4.06624,-1.2078 7.87331,-1.87494 11.5,-1.875 6.53894,6e-5 11.57694,1.51851 15.09375,4.4375 3.33193,2.67619 5.03345,6.13452 5.25,10.34375 0.0125,-0.3705 0.0312,-0.83228 0.0312,-1.09375 -6e-5,-4.6301 -1.70958,-8.38125 -5.28125,-11.25 -3.51681,-2.91899 -8.55481,-4.43744 -15.09375,-4.4375 z m -6.90625,19.125 c -0.0682,1.32311 -0.29469,2.73951 -0.65625,4.3125 -0.38467,1.86218 -0.86433,3.88625 -1.46875,6 l -6.75,21.96875 c -0.60445,2.31513 -0.97526,4.45039 -1.25,6.3125 -0.27478,1.81183 -0.4375,3.58228 -0.4375,5.34375 0,0.23509 0.0216,0.4566 0.0312,0.6875 0.0624,-1.33253 0.20016,-2.67238 0.40625,-4.03125 0.27474,-1.86211 0.64555,-3.99737 1.25,-6.3125 l 6.75,-21.96875 c 0.60442,-2.11375 1.08408,-4.13782 1.46875,-6 0.43958,-1.91242 0.68749,-3.59601 0.6875,-5.15625 0,-0.3988 -0.005,-0.79189 -0.0312,-1.15625 z m -107,0.875 c -0.0072,0.40435 -0.03125,0.81312 -0.03125,1.21875 0,31.27047 21.49518,58.73702 54,74.65625 0.129353,-0.66116 0.228577,-1.2842 0.3125,-1.84375 C 45.812606,960.38138 24.297346,933.15583 23.9375,902.11218 z m 237.96875,0.21875 c -0.7228,48.78462 -53.72818,88.15625 -119,88.15625 -9.78661,0 -19.30634,-0.89294 -28.40625,-2.5625 -11.60579,11.09516 -32.933721,25.58082 -64.71875,24.09372 -1.655999,0.5989 -3.397452,1.1454 -5.25,1.625 34.700815,3.4541 57.73464,-12.0229 69.96875,-23.71872 9.09991,1.66956 18.61964,2.5625 28.40625,2.5625 65.72189,0 119,-39.9061 119,-89.15625 0,-0.33271 0.005,-0.66815 0,-1 z m -114.21875,41.3125 c -0.0273,0.34775 -0.0625,0.68838 -0.0625,0.96875 -3e-5,2.91907 0.72753,4.91185 2.15625,5.96875 1.42865,1.05688 3.92068,1.5625 7.4375,1.5625 1.64843,0 3.53686,-0.21523 5.625,-0.71875 1.7523,-0.4646 3.00365,-0.88932 3.9375,-1.25 l 0.59375,-2.21875 c -0.9342,0.40265 -2.44324,0.91514 -4.53125,1.46875 -2.08814,0.50352 -3.97657,0.71875 -5.625,0.71875 -3.51682,0 -6.00885,-0.50562 -7.4375,-1.5625 -1.25013,-0.92479 -1.93788,-2.58271 -2.09375,-4.9375 z"
         id="path29714" />
    </g>
  </g>
</svg>
