<?xml version="1.0" encoding="UTF-8" standalone="no"?>
<!-- Created with Inkscape (http://www.inkscape.org/) -->

<svg
   xmlns:dc="http://purl.org/dc/elements/1.1/"
   xmlns:cc="http://creativecommons.org/ns#"
   xmlns:rdf="http://www.w3.org/1999/02/22-rdf-syntax-ns#"
   xmlns:svg="http://www.w3.org/2000/svg"
   xmlns="http://www.w3.org/2000/svg"
   xmlns:xlink="http://www.w3.org/1999/xlink"
   xmlns:sodipodi="http://sodipodi.sourceforge.net/DTD/sodipodi-0.dtd"
   xmlns:inkscape="http://www.inkscape.org/namespaces/inkscape"
   version="1.0"
   width="256"
   height="256"
   id="svg2408"
   inkscape:version="0.48.3.1 r9886"
   sodipodi:docname="insert-text.svg">
  <sodipodi:namedview
     pagecolor="#ffffff"
     bordercolor="#666666"
     borderopacity="1"
     objecttolerance="10"
     gridtolerance="10"
     guidetolerance="10"
     inkscape:pageopacity="0"
     inkscape:pageshadow="2"
     inkscape:window-width="1024"
     inkscape:window-height="572"
     id="namedview4948"
     showgrid="false"
     inkscape:zoom="1.5703125"
     inkscape:cx="116.85572"
     inkscape:cy="122.58706"
     inkscape:window-x="0"
     inkscape:window-y="28"
     inkscape:window-maximized="1"
     inkscape:current-layer="svg2408" />
  <defs
     id="defs2410">
    <linearGradient
       id="linearGradient3637">
      <stop
         id="stop3639"
         style="stop-color:#5a5a5a;stop-opacity:1;"
         offset="0" />
      <stop
         id="stop3641"
         style="stop-color:#000000;stop-opacity:1;"
         offset="1" />
    </linearGradient>
    <linearGradient
       x1="45.447727"
       y1="92.539597"
       x2="45.447727"
       y2="7.0165396"
       id="ButtonShadow"
       gradientUnits="userSpaceOnUse"
       gradientTransform="scale(1.0058652,0.994169)">
      <stop
         id="stop3750"
         style="stop-color:#000000;stop-opacity:1"
         offset="0" />
      <stop
         id="stop3752"
         style="stop-color:#000000;stop-opacity:0.58823532"
         offset="1" />
    </linearGradient>
    <linearGradient
       id="linearGradient3737">
      <stop
         id="stop3739"
         style="stop-color:#ffffff;stop-opacity:1"
         offset="0" />
      <stop
         id="stop3741"
         style="stop-color:#ffffff;stop-opacity:0"
         offset="1" />
    </linearGradient>
    <linearGradient
       id="linearGradient3700">
      <stop
         id="stop3702"
         style="stop-color:#2276c5;stop-opacity:1"
         offset="0" />
      <stop
         id="stop3704"
         style="stop-color:#68baf4;stop-opacity:1"
         offset="1" />
    </linearGradient>
    <filter
       color-interpolation-filters="sRGB"
       id="filter3174">
      <feGaussianBlur
         id="feGaussianBlur3176"
         stdDeviation="1.71" />
    </filter>
    <linearGradient
       x1="36.357143"
       y1="6"
       x2="36.357143"
       y2="63.893143"
       id="linearGradient3188"
       xlink:href="#linearGradient3737"
       gradientUnits="userSpaceOnUse" />
    <filter
       x="-0.192"
       y="-0.192"
       width="1.3839999"
       height="1.3839999"
       color-interpolation-filters="sRGB"
       id="filter3794">
      <feGaussianBlur
         id="feGaussianBlur3796"
         stdDeviation="5.28" />
    </filter>
    <linearGradient
       x1="48"
       y1="20.220806"
       x2="48"
       y2="138.66119"
       id="linearGradient3613"
       xlink:href="#linearGradient3737"
       gradientUnits="userSpaceOnUse" />
    <radialGradient
       cx="48"
       cy="90.171875"
       r="42"
       fx="48"
       fy="90.171875"
       id="radialGradient3619"
       xlink:href="#linearGradient3737"
       gradientUnits="userSpaceOnUse"
       gradientTransform="matrix(1.1573129,0,0,0.99590774,-7.5510206,0.19713193)" />
    <clipPath
       id="clipPath3613">
      <rect
         width="84"
         height="84"
         rx="6"
         ry="6"
         x="6"
         y="6"
         id="rect3615"
         style="fill:#ffffff;fill-opacity:1;fill-rule:nonzero;stroke:none" />
    </clipPath>
    <linearGradient
       x1="48"
       y1="90"
       x2="48"
       y2="5.9877172"
       id="linearGradient2843"
       xlink:href="#linearGradient3700"
       gradientUnits="userSpaceOnUse"
       gradientTransform="translate(0,100)" />
    <clipPath
       id="clipPath3625">
      <path
         d="M 0,0 0,96 96,96 96,0 0,0 z m 12,6 72,0 c 3.324,0 6,2.676 6,6 l 0,72 c 0,3.324 -2.676,6 -6,6 L 12,90 C 8.676,90 6,87.324 6,84 L 6,12 C 6,8.676 8.676,6 12,6 z"
         inkscape:connector-curvature="0"
         id="path3627"
         style="fill:#ffffff;fill-opacity:1;stroke:none" />
    </clipPath>
    <linearGradient
       x1="44.512066"
       y1="6"
       x2="44.512066"
       y2="90.015434"
       id="linearGradient3643"
       xlink:href="#linearGradient3637"
       gradientUnits="userSpaceOnUse" />
    <clipPath
       id="clipPath3649">
      <rect
         width="76"
         height="76"
         rx="4"
         ry="4"
         x="10"
         y="10"
         id="rect3651"
         style="fill:#ffffff;fill-opacity:1;fill-rule:nonzero;stroke:none" />
    </clipPath>
    <filter
       color-interpolation-filters="sRGB"
       id="filter3657">
      <feGaussianBlur
         id="feGaussianBlur3659"
         stdDeviation="1.14" />
    </filter>
    <linearGradient
       inkscape:collect="always"
       xlink:href="#linearGradient3637"
       id="linearGradient3829"
       gradientUnits="userSpaceOnUse"
       gradientTransform="matrix(11.997578,0,0,11.997578,-1.4514427,-8.9518113)"
       x1="9.1734705"
       y1="3.149884"
       x2="9.1734705"
       y2="18.002266" />
  </defs>
  <metadata
     id="metadata2413">
    <rdf:RDF>
      <cc:Work
         rdf:about="">
        <dc:format>image/svg+xml</dc:format>
        <dc:type
           rdf:resource="http://purl.org/dc/dcmitype/StillImage" />
        <dc:title></dc:title>
      </cc:Work>
    </rdf:RDF>
  </metadata>
  <g
     id="layer2"
     style="display:none"
     transform="translate(0,160)">
    <rect
       width="86"
       height="85"
       rx="6"
       ry="6"
       x="5"
       y="7"
       clip-path="url(#clipPath3625)"
       id="rect3745"
       style="opacity:0.9;fill:url(#ButtonShadow);fill-opacity:1;fill-rule:nonzero;stroke:none;filter:url(#filter3174)" />
  </g>
  <g
     id="layer1"
     style="display:none"
     transform="translate(0,160)">
    <rect
       width="84"
       height="84"
       rx="6"
       ry="6"
       x="6"
       y="6"
       id="rect2419"
       style="opacity:0.8;fill:#000000;fill-opacity:1;fill-rule:nonzero;stroke:none" />
    <path
       d="m 14,10 c -2.216,0 -4,1.784 -4,4 l 0,68 c 0,2.216 1.784,4 4,4 l 68,0 c 2.216,0 4,-1.784 4,-4 l 0,-68 c 0,-2.216 -1.784,-4 -4,-4 l -68,0 z m 0,3.0625 68,0 c 0.578769,0 0.9375,0.358731 0.9375,0.9375 l 0,68 c 0,0.578769 -0.358731,0.9375 -0.9375,0.9375 l -68,0 c -0.578769,0 -0.9375,-0.358731 -0.9375,-0.9375 l 0,-68 c 0,-0.578769 0.358731,-0.9375 0.9375,-0.9375 z"
       inkscape:connector-curvature="0"
       id="rect3726"
       style="opacity:0.07999998;fill:#000000;fill-opacity:1;fill-rule:nonzero;stroke:none" />
    <path
       d="M 12,6 C 8.676,6 6,8.676 6,12 l 0,72 c 0,3.324 2.676,6 6,6 l 72,0 c 3.324,0 6,-2.676 6,-6 L 90,12 C 90,8.676 87.324,6 84,6 L 12,6 z m 2,4 68,0 c 2.216,0 4,1.784 4,4 l 0,68 c 0,2.216 -1.784,4 -4,4 l -68,0 c -2.216,0 -4,-1.784 -4,-4 l 0,-68 c 0,-2.216 1.784,-4 4,-4 z"
       inkscape:connector-curvature="0"
       id="rect3629"
       style="fill:url(#linearGradient3643);fill-opacity:1;fill-rule:nonzero;stroke:none" />
    <path
       d="M 12,6 C 8.676,6 6,8.676 6,12 l 0,2 0,68 0,2 c 0,0.334721 0.04135,0.6507 0.09375,0.96875 0.0487,0.295596 0.09704,0.596915 0.1875,0.875 0.00988,0.03038 0.020892,0.0636 0.03125,0.09375 0.098865,0.287771 0.2348802,0.547452 0.375,0.8125 0.1445918,0.273507 0.3156161,0.535615 0.5,0.78125 0.1843839,0.245635 0.3737765,0.473472 0.59375,0.6875 0.439947,0.428056 0.94291,0.814526 1.5,1.09375 0.278545,0.139612 0.5734731,0.246947 0.875,0.34375 -0.2562018,-0.100222 -0.4867109,-0.236272 -0.71875,-0.375 -0.00741,-0.0044 -0.023866,0.0045 -0.03125,0 -0.031933,-0.0193 -0.062293,-0.04251 -0.09375,-0.0625 -0.120395,-0.0767 -0.2310226,-0.163513 -0.34375,-0.25 -0.1061728,-0.0808 -0.2132809,-0.161112 -0.3125,-0.25 C 8.4783201,88.557317 8.3087904,88.373362 8.15625,88.1875 8.0486711,88.057245 7.9378561,87.922215 7.84375,87.78125 7.818661,87.74287 7.805304,87.69538 7.78125,87.65625 7.716487,87.553218 7.6510225,87.451733 7.59375,87.34375 7.4927417,87.149044 7.3880752,86.928049 7.3125,86.71875 7.30454,86.69694 7.288911,86.6782 7.28125,86.65625 7.2494249,86.5643 7.2454455,86.469419 7.21875,86.375 7.1884177,86.268382 7.1483606,86.171969 7.125,86.0625 7.0521214,85.720988 7,85.364295 7,85 L 7,83 7,15 7,13 C 7,10.218152 9.2181517,8 12,8 l 2,0 68,0 2,0 c 2.781848,0 5,2.218152 5,5 l 0,2 0,68 0,2 c 0,0.364295 -0.05212,0.720988 -0.125,1.0625 -0.04415,0.206893 -0.08838,0.397658 -0.15625,0.59375 -0.0077,0.02195 -0.0233,0.04069 -0.03125,0.0625 -0.06274,0.173739 -0.138383,0.367449 -0.21875,0.53125 -0.04158,0.0828 -0.07904,0.169954 -0.125,0.25 -0.0546,0.09721 -0.126774,0.18835 -0.1875,0.28125 -0.09411,0.140965 -0.204921,0.275995 -0.3125,0.40625 -0.143174,0.17445 -0.303141,0.346998 -0.46875,0.5 -0.01117,0.0102 -0.01998,0.02115 -0.03125,0.03125 -0.138386,0.125556 -0.285091,0.234436 -0.4375,0.34375 -0.102571,0.07315 -0.204318,0.153364 -0.3125,0.21875 -0.0074,0.0045 -0.02384,-0.0044 -0.03125,0 -0.232039,0.138728 -0.462548,0.274778 -0.71875,0.375 0.301527,-0.0968 0.596455,-0.204138 0.875,-0.34375 0.55709,-0.279224 1.060053,-0.665694 1.5,-1.09375 0.219973,-0.214028 0.409366,-0.441865 0.59375,-0.6875 0.184384,-0.245635 0.355408,-0.507743 0.5,-0.78125 0.14012,-0.265048 0.276135,-0.524729 0.375,-0.8125 0.01041,-0.03078 0.02133,-0.06274 0.03125,-0.09375 0.09046,-0.278085 0.1388,-0.579404 0.1875,-0.875 C 89.95865,84.6507 90,84.334721 90,84 l 0,-2 0,-68 0,-2 C 90,8.676 87.324,6 84,6 L 12,6 z"
       inkscape:connector-curvature="0"
       id="rect3728"
       style="fill:url(#linearGradient3188);fill-opacity:1;fill-rule:nonzero;stroke:none" />
    <path
       d="M 12,90 C 8.676,90 6,87.324 6,84 L 6,82 6,14 6,12 c 0,-0.334721 0.04135,-0.6507 0.09375,-0.96875 0.0487,-0.295596 0.09704,-0.596915 0.1875,-0.875 C 6.29113,10.12587 6.302142,10.09265 6.3125,10.0625 6.411365,9.774729 6.5473802,9.515048 6.6875,9.25 6.8320918,8.976493 7.0031161,8.714385 7.1875,8.46875 7.3718839,8.223115 7.5612765,7.995278 7.78125,7.78125 8.221197,7.353194 8.72416,6.966724 9.28125,6.6875 9.559795,6.547888 9.8547231,6.440553 10.15625,6.34375 9.9000482,6.443972 9.6695391,6.580022 9.4375,6.71875 c -0.00741,0.0044 -0.023866,-0.0045 -0.03125,0 -0.031933,0.0193 -0.062293,0.04251 -0.09375,0.0625 -0.120395,0.0767 -0.2310226,0.163513 -0.34375,0.25 -0.1061728,0.0808 -0.2132809,0.161112 -0.3125,0.25 C 8.4783201,7.442683 8.3087904,7.626638 8.15625,7.8125 8.0486711,7.942755 7.9378561,8.077785 7.84375,8.21875 7.818661,8.25713 7.805304,8.30462 7.78125,8.34375 7.716487,8.446782 7.6510225,8.548267 7.59375,8.65625 7.4927417,8.850956 7.3880752,9.071951 7.3125,9.28125 7.30454,9.30306 7.288911,9.3218 7.28125,9.34375 7.2494249,9.4357 7.2454455,9.530581 7.21875,9.625 7.1884177,9.731618 7.1483606,9.828031 7.125,9.9375 7.0521214,10.279012 7,10.635705 7,11 l 0,2 0,68 0,2 c 0,2.781848 2.2181517,5 5,5 l 2,0 68,0 2,0 c 2.781848,0 5,-2.218152 5,-5 l 0,-2 0,-68 0,-2 C 89,10.635705 88.94788,10.279012 88.875,9.9375 88.83085,9.730607 88.78662,9.539842 88.71875,9.34375 88.71105,9.3218 88.69545,9.30306 88.6875,9.28125 88.62476,9.107511 88.549117,8.913801 88.46875,8.75 88.42717,8.6672 88.38971,8.580046 88.34375,8.5 88.28915,8.40279 88.216976,8.31165 88.15625,8.21875 88.06214,8.077785 87.951329,7.942755 87.84375,7.8125 87.700576,7.63805 87.540609,7.465502 87.375,7.3125 87.36383,7.3023 87.35502,7.29135 87.34375,7.28125 87.205364,7.155694 87.058659,7.046814 86.90625,6.9375 86.803679,6.86435 86.701932,6.784136 86.59375,6.71875 c -0.0074,-0.0045 -0.02384,0.0044 -0.03125,0 -0.232039,-0.138728 -0.462548,-0.274778 -0.71875,-0.375 0.301527,0.0968 0.596455,0.204138 0.875,0.34375 0.55709,0.279224 1.060053,0.665694 1.5,1.09375 0.219973,0.214028 0.409366,0.441865 0.59375,0.6875 0.184384,0.245635 0.355408,0.507743 0.5,0.78125 0.14012,0.265048 0.276135,0.524729 0.375,0.8125 0.01041,0.03078 0.02133,0.06274 0.03125,0.09375 0.09046,0.278085 0.1388,0.579404 0.1875,0.875 C 89.95865,11.3493 90,11.665279 90,12 l 0,2 0,68 0,2 c 0,3.324 -2.676,6 -6,6 l -72,0 z"
       inkscape:connector-curvature="0"
       id="path3615"
       style="opacity:0.6;fill:url(#radialGradient3619);fill-opacity:1;fill-rule:nonzero;stroke:none" />
    <rect
       width="84"
       height="84"
       rx="6"
       ry="6"
       x="6"
       y="106"
       id="rect2841"
       style="fill:url(#linearGradient2843);fill-opacity:1;fill-rule:nonzero;stroke:none" />
    <rect
       width="76"
       height="76"
       rx="4"
       ry="4"
       x="10"
       y="110"
       id="rect3634"
       style="fill:#ff0000;fill-opacity:1;fill-rule:nonzero;stroke:none" />
    <path
       d="m 14,9 c -2.752703,0 -5,2.247297 -5,5 l 0,68 c 0,2.752703 2.247297,5 5,5 l 68,0 c 2.752703,0 5,-2.247297 5,-5 L 87,14 C 87,11.247297 84.752703,9 82,9 L 14,9 z m 0,2 68,0 c 1.679297,0 3,1.320703 3,3 l 0,68 c 0,1.679297 -1.320703,3 -3,3 l -68,0 c -1.679297,0 -3,-1.320703 -3,-3 l 0,-68 c 0,-1.679297 1.320703,-3 3,-3 z"
       inkscape:connector-curvature="0"
       transform="translate(-110,0)"
       clip-path="url(#clipPath3649)"
       id="rect3647"
       style="font-size:medium;font-style:normal;font-variant:normal;font-weight:normal;font-stretch:normal;text-indent:0;text-align:start;text-decoration:none;line-height:normal;letter-spacing:normal;word-spacing:normal;text-transform:none;direction:ltr;block-progression:tb;writing-mode:lr-tb;text-anchor:start;color:#000000;fill:#000000;fill-opacity:1;stroke:none;stroke-width:2;marker:none;visibility:visible;display:inline;overflow:visible;filter:url(#filter3657);enable-background:accumulate;font-family:Abandoned Bitplane;-inkscape-font-specification:Abandoned Bitplane" />
    <path
       d="m 14.089286,10 c -2.216,0 -4,1.784 -4,4 l 0,68 c 0,2.216 1.784,4 4,4 l 68,0 c 2.216,0 4,-1.784 4,-4 l 0,-68 c 0,-2.216 -1.784,-4 -4,-4 l -68,0 z m 0,2 68,0 c 1.140301,0 2,0.859699 2,2 l 0,68 c 0,1.140301 -0.859699,2 -2,2 l -68,0 c -1.140301,0 -2,-0.859699 -2,-2 l 0,-68 c 0,-1.140301 0.859699,-2 2,-2 z"
       inkscape:connector-curvature="0"
       id="path3709"
       style="opacity:0.16000001;fill:#000000;fill-opacity:1;fill-rule:nonzero;stroke:none" />
    <path
       d="m 14,10 c -2.216,0 -4,1.784 -4,4 l 0,68 c 0,2.216 1.784,4 4,4 l 68,0 c 2.216,0 4,-1.784 4,-4 l 0,-68 c 0,-2.216 -1.784,-4 -4,-4 l -68,0 z m 0,1 68,0 c 1.673848,0 3,1.326152 3,3 l 0,68 c 0,1.673848 -1.326152,3 -3,3 l -68,0 c -1.673848,0 -3,-1.326152 -3,-3 l 0,-68 c 0,-1.673848 1.326152,-3 3,-3 z"
       inkscape:connector-curvature="0"
       id="path3707"
       style="opacity:0.36000001;fill:#000000;fill-opacity:1;fill-rule:nonzero;stroke:none" />
  </g>
  <g
     id="layer5"
     style="display:none"
     transform="translate(0,160)">
    <rect
       width="66"
       height="66"
       rx="12"
       ry="12"
       x="15"
       y="15"
       clip-path="url(#clipPath3613)"
       id="rect3171"
       style="opacity:0.1;fill:url(#linearGradient3613);fill-opacity:1;fill-rule:nonzero;stroke:#ffffff;stroke-width:0.5;stroke-linecap:round;stroke-linejoin:miter;stroke-miterlimit:4;stroke-opacity:1;stroke-dasharray:none;stroke-dashoffset:0;filter:url(#filter3794)" />
  </g>
  <g
     id="g3821"
     transform="translate(-1.0673336,-0.91636015)">
    <path
       d="m 150.01798,22.791781 c -6.4066,0.122375 -8.32664,7.158955 -7.49848,12.429611 0.0833,34.845486 -0.16657,69.718528 0.12497,104.546778 0.40839,6.44886 7.58801,7.8151 12.81271,7.12356 8.04141,-0.35633 16.25578,0.75041 24.17982,-0.62487 5.74781,-6.34608 13.68598,4.46954 21.64687,2.43331 16.2965,1.40879 31.94317,-8.66541 38.52599,-23.33985 9.67827,-19.5241 8.35828,-45.340731 -5.55888,-62.451637 -10.19049,-12.04017 -27.12005,-18.424241 -42.50558,-13.324831 -6.36474,4.084336 -8.36758,3.329528 -7.23438,-3.378398 -0.58603,-6.594428 1.35878,-13.741186 -1.37472,-19.91438 -4.40537,-5.703568 -12.37172,-2.77388 -18.52634,-3.499293 -4.86399,0 -9.72799,0 -14.59198,0 z m -90.731684,0.374724 c -6.869221,0.105979 -7.969455,7.791427 -10.01605,12.828331 -12.63794,34.025611 -25.768226,67.909774 -38.099237,102.023484 -0.961254,5.68741 4.941095,9.94388 10.280573,8.87321 9.292848,-0.32353 18.808483,0.65379 27.961708,-0.4999 6.332905,-2.28082 6.178104,-10.35319 8.878187,-15.58797 0.0943,-5.38735 5.279639,-3.51685 8.966154,-3.78312 8.382328,0 16.764652,0 25.146977,0 2.61442,5.89725 3.19465,12.97518 7.37351,17.99637 5.315082,3.53273 12.248842,1.1988 18.292722,1.87462 6.24177,-0.46506 12.82753,1.00276 18.82479,-0.87482 5.16618,-2.54921 4.79436,-9.04578 2.28928,-13.42885 C 125.84381,97.301578 112.81297,61.846697 99.278228,26.665799 94.924778,20.933156 86.894427,23.904316 80.751883,23.166505 c -7.155195,0 -14.310391,0 -21.465587,0 z m 16.871595,56.988496 c 1.291407,3.749243 2.58281,7.498486 3.874218,11.24773 -3.295403,-0.394721 -10.198502,1.783557 -6.511486,-3.591155 0.879091,-2.552205 1.758177,-5.10437 2.637268,-7.656575 z m 117.726239,2.62447 c 12.85554,1.39056 11.1805,22.073309 5.36348,30.227219 -14.29761,7.16951 -16.89176,-13.350862 -13.87076,-22.755327 0.80047,-4.127687 3.61746,-8.592705 8.50728,-7.471892 z M 77.782563,171.13684 c -6.67091,0.17956 -9.711864,9.52179 -4.624067,13.62225 16.349256,16.2252 32.544794,32.62257 48.990114,48.74016 5.87928,4.20415 11.21267,-1.89902 14.91539,-5.93008 14.71861,-14.92915 29.86181,-29.60111 44.32265,-44.6847 3.69106,-5.79443 -2.36472,-13.1128 -8.77272,-11.74763 -31.61045,0 -63.22091,0 -94.831367,0 z"
       inkscape:connector-curvature="0"
       id="path3939"
       style="font-size:8.9971447px;font-style:normal;font-variant:normal;font-weight:bold;font-stretch:normal;text-align:start;line-height:125%;writing-mode:lr-tb;text-anchor:start;opacity:0.1;fill:#000000;fill-opacity:1;stroke:none;display:inline;font-family:Sans;-inkscape-font-specification:Abandoned Bitplane Bold" />
    <path
       d="m 150.39291,27.165898 a 3.4541608,3.4541608 0 0 0 -3.4993,3.499293 l 0,108.353129 a 3.4541608,3.4541608 0 0 0 3.4993,3.49929 l 26.2447,0 a 3.4541608,3.4541608 0 0 0 3.49929,-3.49929 l 0,-3.12437 c 2.15525,1.86718 4.47119,3.50589 6.87362,4.74904 a 3.4541608,3.4541608 0 0 0 0.12497,0 c 4.87823,2.4705 10.33627,3.74925 16.49667,3.74925 10.92081,0 20.32836,-4.26938 27.36948,-12.87241 a 3.4541608,3.4541608 0 0 0 0,-0.12477 c 7.03182,-8.64434 10.62275,-19.77765 10.62285,-32.868372 -1e-4,-13.048001 -3.62438,-24.271816 -10.62285,-32.86836 -0.0216,-0.028 -0.10322,0.02799 -0.12498,0 -7.00429,-8.567351 -16.28308,-13.372221 -27.2445,-13.372301 -6.09741,8e-5 -11.61328,1.245469 -16.49667,3.749243 -0.0348,0.02 -0.0903,-0.02 -0.12497,0 l 0,0.124775 c -2.36835,1.215994 -4.75962,2.786357 -6.87362,4.624067 l 0,-30.118921 a 3.4541608,3.4541608 0 0 0 -3.49929,-3.499293 l -26.2447,0 z m -90.981639,0.374724 a 3.4541608,3.4541608 0 0 0 -3.249344,2.249546 L 15.670101,137.76837 a 3.4541608,3.4541608 0 0 0 3.249344,4.74904 l 28.119324,0 a 3.4541608,3.4541608 0 0 0 3.249344,-2.37452 l 6.248739,-17.49646 38.992126,0 5.998792,17.49646 a 3.4541608,3.4541608 0 0 0 3.24935,2.37452 l 28.49424,0 a 3.4541608,3.4541608 0 0 0 3.24935,-4.74884 L 96.028878,29.790368 a 3.4541608,3.4541608 0 0 0 -3.24934,-2.249546 l -33.368267,0 z m 16.871594,39.242079 9.748033,28.994147 -19.870989,0 10.122956,-28.994147 z M 193.88413,78.405354 c 4.79297,4e-5 7.69745,1.307816 9.99798,4.499092 2.36388,3.225629 3.74917,8.365351 3.74924,15.621842 -7e-5,7.256582 -1.38539,12.396302 -3.74924,15.621852 -2.30054,3.19136 -5.20503,4.49909 -9.99798,4.49909 -4.79307,0 -7.56781,-1.36152 -9.99798,-4.62406 -2.34685,-3.29098 -3.74928,-8.35096 -3.74925,-15.496882 -3e-5,-7.205381 1.39301,-12.406771 3.74925,-15.621842 2.42528,-3.294695 5.18505,-4.499052 9.99798,-4.499092 z M 78.532411,175.51095 a 3.4541608,3.4541608 0 0 0 -2.499495,5.99879 l 47.990314,47.99032 a 3.4541608,3.4541608 0 0 0 4.99899,0 l 47.99031,-47.99032 a 3.4541608,3.4541608 0 0 0 -2.49949,-5.99879 l -95.980629,0 z"
       id="path3935"
       style="font-size:8.9971447px;font-style:normal;font-variant:normal;font-weight:bold;font-stretch:normal;text-align:start;line-height:125%;writing-mode:lr-tb;text-anchor:start;opacity:0.15;fill:#000000;fill-opacity:1;stroke:none;display:inline;font-family:Sans;-inkscape-font-specification:Abandoned Bitplane Bold"
       inkscape:connector-curvature="0" />
    <path
       d="m 150.39291,30.665191 0,108.353129 26.2447,0 0,-11.99758 c 3.6003,4.72457 7.61873,8.23202 11.99758,10.49788 4.37875,2.21756 9.30447,3.37432 14.99697,3.37432 10.07119,0 18.274,-3.71621 24.745,-11.62265 6.47081,-7.95464 9.74794,-18.2574 9.74804,-30.743802 -1e-4,-12.486355 -3.27723,-22.837265 -9.74804,-30.743789 -6.471,-7.954595 -14.67381,-11.997498 -24.745,-11.997578 -5.6925,8e-5 -10.61822,1.108576 -14.99697,3.374318 -4.37885,2.217753 -8.39728,5.773355 -11.99758,10.497881 l 0,-38.992129 -26.2447,0 z m -90.981639,0.374725 -40.491826,107.978204 28.119324,0 7.123562,-19.87099 43.866147,0 6.748642,19.87099 28.49424,0 -40.491822,-107.978204 -33.368267,0 z m 16.871594,25.119929 14.622049,43.116293 -29.619021,0 14.996972,-43.116293 z M 193.88413,74.906061 c 5.59508,4e-5 9.82815,1.949206 12.74742,5.998789 2.96779,4.049702 4.49902,9.90788 4.4991,17.621438 -8e-5,7.713652 -1.53131,13.571822 -4.4991,17.621452 -2.91927,4.04966 -7.15234,5.99879 -12.74742,5.99879 -5.59519,0 -9.73096,-1.94913 -12.74743,-5.99879 -2.9679,-4.09782 -4.49913,-9.95603 -4.49909,-17.621452 -4e-5,-7.665328 1.53119,-13.571736 4.49909,-17.621438 3.01647,-4.097813 7.15224,-5.998749 12.74743,-5.998789 z M 78.532411,179.01025 l 47.990319,47.99031 47.99031,-47.99031 -95.980629,0 z"
       inkscape:connector-curvature="0"
       id="path3929"
       style="font-size:8.9971447px;font-style:normal;font-variant:normal;font-weight:bold;font-stretch:normal;text-align:start;line-height:125%;writing-mode:lr-tb;text-anchor:start;opacity:0.3;fill:#000000;fill-opacity:1;stroke:none;display:inline;font-family:Sans;-inkscape-font-specification:Abandoned Bitplane Bold" />
    <path
       d="m 150.39291,26.665999 0,108.353131 26.2447,0 0,-11.99758 c 3.6003,4.72457 7.61873,8.23202 11.99758,10.49788 4.37875,2.21755 9.30447,3.37432 14.99697,3.37432 10.07119,0 18.274,-3.71621 24.745,-11.62265 6.47081,-7.95464 9.74794,-18.2574 9.74804,-30.743802 -1e-4,-12.486358 -3.27723,-22.837268 -9.74804,-30.743792 -6.471,-7.954594 -14.67381,-11.997498 -24.745,-11.997578 -5.6925,8e-5 -10.61822,1.108576 -14.99697,3.374319 -4.37885,2.217752 -8.39728,5.773354 -11.99758,10.497881 l 0,-38.992129 -26.2447,0 z m -90.981639,0.374724 -40.491826,107.978207 28.119324,0 7.123562,-19.87099 43.866147,0 6.748642,19.87099 28.49424,0 -40.491822,-107.978207 -33.368267,0 z m 16.871594,25.119929 14.622049,43.116296 -29.619021,0 14.996972,-43.116296 z M 193.88413,70.906868 c 5.59508,4e-5 9.82815,1.949207 12.74742,5.998789 2.96779,4.049703 4.49902,9.90788 4.4991,17.621441 -8e-5,7.713642 -1.53131,13.571822 -4.4991,17.621442 -2.91927,4.04967 -7.15234,5.99879 -12.74742,5.99879 -5.59519,0 -9.73096,-1.94912 -12.74743,-5.99879 -2.9679,-4.09781 -4.49913,-9.95603 -4.49909,-17.621442 -4e-5,-7.665331 1.53119,-13.571738 4.49909,-17.621441 3.01647,-4.097813 7.15224,-5.998749 12.74743,-5.998789 z M 78.532411,175.01105 l 47.990319,47.99032 47.99031,-47.99032 -95.980629,0 z"
       inkscape:connector-curvature="0"
       id="path3108"
       style="font-size:8.9971447px;font-style:normal;font-variant:normal;font-weight:bold;font-stretch:normal;text-align:start;line-height:125%;writing-mode:lr-tb;text-anchor:start;fill:url(#linearGradient3829);fill-opacity:1;stroke:none;display:inline;font-family:Sans;-inkscape-font-specification:Abandoned Bitplane Bold" />
    <path
       d="m 150.39291,26.665999 0,3.999192 26.2447,0 0,-3.999192 -26.2447,0 z m -90.981639,0.374724 -40.491826,107.978207 1.499697,0 38.992129,-103.979014 33.368267,0 38.992132,103.979014 1.49969,0 -40.491822,-107.978207 -33.368267,0 z M 203.63216,51.785728 c -5.6925,8e-5 -10.61822,1.108576 -14.99697,3.374319 -4.37885,2.217752 -8.39728,5.773354 -11.99758,10.497881 l 0,3.999192 c 3.6003,-4.724526 7.61873,-8.280128 11.99758,-10.49788 4.37875,-2.265743 9.30447,-3.374239 14.99697,-3.374319 10.07119,8e-5 18.274,4.042984 24.745,11.997578 6.1213,7.47945 9.41328,17.151377 9.74804,28.744199 0.0192,-0.66167 -1e-5,-1.32513 0,-1.9996 -1e-4,-12.486357 -3.27723,-22.837268 -9.74804,-30.743792 -6.471,-7.954594 -14.67381,-11.997498 -24.745,-11.997578 z m -140.971545,43.49122 -1.374722,3.99919 29.619021,0 -1.374723,-3.99919 -26.869576,0 z m 114.101965,1.24975 c -0.0264,0.68302 -0.12497,1.28602 -0.12497,1.99959 -4e-5,7.665422 1.53119,13.523632 4.49909,17.621452 3.01647,4.04966 7.15224,5.99879 12.74743,5.99879 5.59508,0 9.82815,-1.94913 12.74742,-5.99879 2.96779,-4.04963 4.49902,-9.9078 4.4991,-17.621452 -1e-5,-0.70177 -0.0997,-1.32849 -0.12498,-1.99959 -0.25263,6.705282 -1.67634,11.940672 -4.37412,15.621842 -2.91927,4.04967 -7.15234,5.99879 -12.74742,5.99879 -5.59519,0 -9.73096,-1.94912 -12.74743,-5.99879 -2.69161,-3.71633 -4.11634,-8.97478 -4.37412,-15.621842 z m -98.230169,78.484352 3.999193,3.9992 87.982246,0 3.99919,-3.9992 -95.980629,0 z"
       inkscape:connector-curvature="0"
       id="path3143"
       style="font-size:8.9971447px;font-style:normal;font-variant:normal;font-weight:bold;font-stretch:normal;text-align:start;line-height:125%;writing-mode:lr-tb;text-anchor:start;opacity:0.75;fill:#ffffff;fill-opacity:1;stroke:none;display:inline;font-family:Sans;-inkscape-font-specification:Abandoned Bitplane Bold" />
    <path
       d="m 76.282865,48.16166 -14.996972,43.116296 1.374722,0 13.62225,-39.117104 13.247326,39.117104 1.374723,0 L 76.282865,48.16166 z M 193.88413,66.907875 c -5.59519,4e-5 -9.73096,1.900977 -12.74743,5.998789 -2.9679,4.049703 -4.49913,9.956111 -4.49909,17.621443 0,0.713576 0.0985,1.317294 0.12497,1.999601 0.25779,-6.653981 1.68251,-11.949152 4.37412,-15.621851 3.01647,-4.097813 7.15224,-5.998749 12.74743,-5.998789 5.59508,4e-5 9.82815,1.949207 12.74742,5.998789 2.69778,3.681257 4.12151,8.9166 4.37412,15.621851 0.0252,-0.671109 0.12498,-1.297822 0.12498,-1.999601 -8e-5,-7.713563 -1.53131,-13.57174 -4.4991,-17.621443 -2.91927,-4.049582 -7.15234,-5.998749 -12.74742,-5.998789 z m 44.24107,25.619833 c -0.33474,11.588342 -3.62674,21.219232 -9.74804,28.744192 -6.471,7.90645 -14.67381,11.62266 -24.745,11.62266 -5.6925,0 -10.61822,-1.15677 -14.99697,-3.37432 -4.37885,-2.26586 -8.39728,-5.77332 -11.99758,-10.49788 l 0,3.99919 c 3.6003,4.72457 7.61873,8.23202 11.99758,10.49788 4.37875,2.21755 9.30447,3.37432 14.99697,3.37432 10.07119,0 18.274,-3.71621 24.745,-11.62265 6.47081,-7.95464 9.74794,-18.2574 9.74804,-30.743802 -1e-5,-0.67446 0.0192,-1.33765 0,-1.99959 z m -183.962869,18.621242 -7.123562,19.87099 -26.619627,0 -1.499697,3.99919 28.119324,0 7.123562,-19.87099 43.866147,0 6.748642,19.87099 28.49424,0 -1.49969,-3.99919 -26.99455,0 -6.748642,-19.87099 -43.866147,0 z m 96.230579,19.87099 0,3.99919 26.2447,0 0,-3.99919 -26.2447,0 z m -71.860499,43.99111 47.990319,47.99032 47.99031,-47.99032 -3.99919,0 -43.99112,43.99112 -43.991126,-43.99112 -3.999193,0 z"
       inkscape:connector-curvature="0"
       id="path3920"
       style="font-size:8.9971447px;font-style:normal;font-variant:normal;font-weight:bold;font-stretch:normal;text-align:start;line-height:125%;writing-mode:lr-tb;text-anchor:start;opacity:0.15;fill:#000000;fill-opacity:1;stroke:none;display:inline;font-family:Sans;-inkscape-font-specification:Abandoned Bitplane Bold" />
  </g>
</svg>
