<?xml version="1.0" encoding="UTF-8" standalone="no"?>
<!-- Created with Inkscape (http://www.inkscape.org/) -->

<svg
   xmlns:dc="http://purl.org/dc/elements/1.1/"
   xmlns:cc="http://creativecommons.org/ns#"
   xmlns:rdf="http://www.w3.org/1999/02/22-rdf-syntax-ns#"
   xmlns:svg="http://www.w3.org/2000/svg"
   xmlns="http://www.w3.org/2000/svg"
   xmlns:xlink="http://www.w3.org/1999/xlink"
   xmlns:sodipodi="http://sodipodi.sourceforge.net/DTD/sodipodi-0.dtd"
   xmlns:inkscape="http://www.inkscape.org/namespaces/inkscape"
   version="1.0"
   width="256"
   height="256"
   id="svg2408"
   inkscape:version="0.48.3.1 r9886"
   sodipodi:docname="library-internet-radio.svg">
  <sodipodi:namedview
     pagecolor="#ffffff"
     bordercolor="#666666"
     borderopacity="1"
     objecttolerance="10"
     gridtolerance="10"
     guidetolerance="10"
     inkscape:pageopacity="0"
     inkscape:pageshadow="2"
     inkscape:window-width="1024"
     inkscape:window-height="572"
     id="namedview5053"
     showgrid="false"
     inkscape:zoom="1.5703125"
     inkscape:cx="116.85572"
     inkscape:cy="122.58706"
     inkscape:window-x="0"
     inkscape:window-y="28"
     inkscape:window-maximized="1"
     inkscape:current-layer="svg2408" />
  <defs
     id="defs2410">
    <linearGradient
       id="linearGradient3637">
      <stop
         id="stop3639"
         style="stop-color:#5a5a5a;stop-opacity:1;"
         offset="0" />
      <stop
         id="stop3641"
         style="stop-color:#000000;stop-opacity:1;"
         offset="1" />
    </linearGradient>
    <linearGradient
       x1="45.447727"
       y1="92.539597"
       x2="45.447727"
       y2="7.0165396"
       id="ButtonShadow"
       gradientUnits="userSpaceOnUse"
       gradientTransform="scale(1.0058652,0.994169)">
      <stop
         id="stop3750"
         style="stop-color:#000000;stop-opacity:1"
         offset="0" />
      <stop
         id="stop3752"
         style="stop-color:#000000;stop-opacity:0.58823532"
         offset="1" />
    </linearGradient>
    <linearGradient
       id="linearGradient3737">
      <stop
         id="stop3739"
         style="stop-color:#ffffff;stop-opacity:1"
         offset="0" />
      <stop
         id="stop3741"
         style="stop-color:#ffffff;stop-opacity:0"
         offset="1" />
    </linearGradient>
    <linearGradient
       id="linearGradient3700">
      <stop
         id="stop3702"
         style="stop-color:#2276c5;stop-opacity:1"
         offset="0" />
      <stop
         id="stop3704"
         style="stop-color:#68baf4;stop-opacity:1"
         offset="1" />
    </linearGradient>
    <filter
       color-interpolation-filters="sRGB"
       id="filter3174">
      <feGaussianBlur
         id="feGaussianBlur3176"
         stdDeviation="1.71" />
    </filter>
    <linearGradient
       x1="36.357143"
       y1="6"
       x2="36.357143"
       y2="63.893143"
       id="linearGradient3188"
       xlink:href="#linearGradient3737"
       gradientUnits="userSpaceOnUse" />
    <filter
       x="-0.192"
       y="-0.192"
       width="1.3839999"
       height="1.3839999"
       color-interpolation-filters="sRGB"
       id="filter3794">
      <feGaussianBlur
         id="feGaussianBlur3796"
         stdDeviation="5.28" />
    </filter>
    <linearGradient
       x1="48"
       y1="20.220806"
       x2="48"
       y2="138.66119"
       id="linearGradient3613"
       xlink:href="#linearGradient3737"
       gradientUnits="userSpaceOnUse" />
    <radialGradient
       cx="48"
       cy="90.171875"
       r="42"
       fx="48"
       fy="90.171875"
       id="radialGradient3619"
       xlink:href="#linearGradient3737"
       gradientUnits="userSpaceOnUse"
       gradientTransform="matrix(1.1573129,0,0,0.99590774,-7.5510206,0.19713193)" />
    <clipPath
       id="clipPath3613">
      <rect
         width="84"
         height="84"
         rx="6"
         ry="6"
         x="6"
         y="6"
         id="rect3615"
         style="fill:#ffffff;fill-opacity:1;fill-rule:nonzero;stroke:none" />
    </clipPath>
    <linearGradient
       x1="48"
       y1="90"
       x2="48"
       y2="5.9877172"
       id="linearGradient2843"
       xlink:href="#linearGradient3700"
       gradientUnits="userSpaceOnUse"
       gradientTransform="translate(0,100)" />
    <clipPath
       id="clipPath3625">
      <path
         d="M 0,0 0,96 96,96 96,0 0,0 z m 12,6 72,0 c 3.324,0 6,2.676 6,6 l 0,72 c 0,3.324 -2.676,6 -6,6 L 12,90 C 8.676,90 6,87.324 6,84 L 6,12 C 6,8.676 8.676,6 12,6 z"
         inkscape:connector-curvature="0"
         id="path3627"
         style="fill:#ffffff;fill-opacity:1;stroke:none" />
    </clipPath>
    <linearGradient
       x1="44.512066"
       y1="6"
       x2="44.512066"
       y2="90.015434"
       id="linearGradient3643"
       xlink:href="#linearGradient3637"
       gradientUnits="userSpaceOnUse" />
    <clipPath
       id="clipPath3649">
      <rect
         width="76"
         height="76"
         rx="4"
         ry="4"
         x="10"
         y="10"
         id="rect3651"
         style="fill:#ffffff;fill-opacity:1;fill-rule:nonzero;stroke:none" />
    </clipPath>
    <filter
       color-interpolation-filters="sRGB"
       id="filter3657">
      <feGaussianBlur
         id="feGaussianBlur3659"
         stdDeviation="1.14" />
    </filter>
    <linearGradient
       id="linearGradient3657">
      <stop
         id="stop3659"
         style="stop-color:#000000;stop-opacity:1;"
         offset="0" />
      <stop
         id="stop3661"
         style="stop-color:#000000;stop-opacity:0;"
         offset="1" />
    </linearGradient>
    <linearGradient
       inkscape:collect="always"
       xlink:href="#linearGradient3657"
       id="linearGradient5339"
       gradientUnits="userSpaceOnUse"
       gradientTransform="matrix(0,10.650619,-10.650619,0,224.36175,-20.951857)"
       x1="7"
       y1="9"
       x2="13.086674"
       y2="8.9402084" />
    <linearGradient
       inkscape:collect="always"
       xlink:href="#linearGradient3657"
       id="linearGradient5342"
       gradientUnits="userSpaceOnUse"
       gradientTransform="matrix(0,10.650619,-10.650619,0,235.01237,-10.301238)"
       x1="4"
       y1="10"
       x2="15.727925"
       y2="10.119583" />
    <linearGradient
       inkscape:collect="always"
       xlink:href="#linearGradient3657"
       id="linearGradient5345"
       gradientUnits="userSpaceOnUse"
       gradientTransform="matrix(0,10.650619,-10.650619,0,245.66299,0.34938032)"
       x1="1"
       y1="11"
       x2="18.309385"
       y2="11.119583" />
    <linearGradient
       inkscape:collect="always"
       xlink:href="#linearGradient3637"
       id="linearGradient3844"
       gradientUnits="userSpaceOnUse"
       gradientTransform="matrix(10.650619,0,0,10.650619,10.449381,2.8740049)"
       x1="11.016455"
       y1="6.58146"
       x2="10.956663"
       y2="20.916086" />
  </defs>
  <metadata
     id="metadata2413">
    <rdf:RDF>
      <cc:Work
         rdf:about="">
        <dc:format>image/svg+xml</dc:format>
        <dc:type
           rdf:resource="http://purl.org/dc/dcmitype/StillImage" />
        <dc:title></dc:title>
      </cc:Work>
    </rdf:RDF>
  </metadata>
  <g
     id="layer2"
     style="display:none"
     transform="translate(0,160)">
    <rect
       width="86"
       height="85"
       rx="6"
       ry="6"
       x="5"
       y="7"
       clip-path="url(#clipPath3625)"
       id="rect3745"
       style="opacity:0.9;fill:url(#ButtonShadow);fill-opacity:1;fill-rule:nonzero;stroke:none;filter:url(#filter3174)" />
  </g>
  <g
     id="layer1"
     style="display:none"
     transform="translate(0,160)">
    <rect
       width="84"
       height="84"
       rx="6"
       ry="6"
       x="6"
       y="6"
       id="rect2419"
       style="opacity:0.8;fill:#000000;fill-opacity:1;fill-rule:nonzero;stroke:none" />
    <path
       d="m 14,10 c -2.216,0 -4,1.784 -4,4 l 0,68 c 0,2.216 1.784,4 4,4 l 68,0 c 2.216,0 4,-1.784 4,-4 l 0,-68 c 0,-2.216 -1.784,-4 -4,-4 l -68,0 z m 0,3.0625 68,0 c 0.578769,0 0.9375,0.358731 0.9375,0.9375 l 0,68 c 0,0.578769 -0.358731,0.9375 -0.9375,0.9375 l -68,0 c -0.578769,0 -0.9375,-0.358731 -0.9375,-0.9375 l 0,-68 c 0,-0.578769 0.358731,-0.9375 0.9375,-0.9375 z"
       inkscape:connector-curvature="0"
       id="rect3726"
       style="opacity:0.07999998;fill:#000000;fill-opacity:1;fill-rule:nonzero;stroke:none" />
    <path
       d="M 12,6 C 8.676,6 6,8.676 6,12 l 0,72 c 0,3.324 2.676,6 6,6 l 72,0 c 3.324,0 6,-2.676 6,-6 L 90,12 C 90,8.676 87.324,6 84,6 L 12,6 z m 2,4 68,0 c 2.216,0 4,1.784 4,4 l 0,68 c 0,2.216 -1.784,4 -4,4 l -68,0 c -2.216,0 -4,-1.784 -4,-4 l 0,-68 c 0,-2.216 1.784,-4 4,-4 z"
       inkscape:connector-curvature="0"
       id="rect3629"
       style="fill:url(#linearGradient3643);fill-opacity:1;fill-rule:nonzero;stroke:none" />
    <path
       d="M 12,6 C 8.676,6 6,8.676 6,12 l 0,2 0,68 0,2 c 0,0.334721 0.04135,0.6507 0.09375,0.96875 0.0487,0.295596 0.09704,0.596915 0.1875,0.875 0.00988,0.03038 0.020892,0.0636 0.03125,0.09375 0.098865,0.287771 0.2348802,0.547452 0.375,0.8125 0.1445918,0.273507 0.3156161,0.535615 0.5,0.78125 0.1843839,0.245635 0.3737765,0.473472 0.59375,0.6875 0.439947,0.428056 0.94291,0.814526 1.5,1.09375 0.278545,0.139612 0.5734731,0.246947 0.875,0.34375 -0.2562018,-0.100222 -0.4867109,-0.236272 -0.71875,-0.375 -0.00741,-0.0044 -0.023866,0.0045 -0.03125,0 -0.031933,-0.0193 -0.062293,-0.04251 -0.09375,-0.0625 -0.120395,-0.0767 -0.2310226,-0.163513 -0.34375,-0.25 -0.1061728,-0.0808 -0.2132809,-0.161112 -0.3125,-0.25 C 8.4783201,88.557317 8.3087904,88.373362 8.15625,88.1875 8.0486711,88.057245 7.9378561,87.922215 7.84375,87.78125 7.818661,87.74287 7.805304,87.69538 7.78125,87.65625 7.716487,87.553218 7.6510225,87.451733 7.59375,87.34375 7.4927417,87.149044 7.3880752,86.928049 7.3125,86.71875 7.30454,86.69694 7.288911,86.6782 7.28125,86.65625 7.2494249,86.5643 7.2454455,86.469419 7.21875,86.375 7.1884177,86.268382 7.1483606,86.171969 7.125,86.0625 7.0521214,85.720988 7,85.364295 7,85 L 7,83 7,15 7,13 C 7,10.218152 9.2181517,8 12,8 l 2,0 68,0 2,0 c 2.781848,0 5,2.218152 5,5 l 0,2 0,68 0,2 c 0,0.364295 -0.05212,0.720988 -0.125,1.0625 -0.04415,0.206893 -0.08838,0.397658 -0.15625,0.59375 -0.0077,0.02195 -0.0233,0.04069 -0.03125,0.0625 -0.06274,0.173739 -0.138383,0.367449 -0.21875,0.53125 -0.04158,0.0828 -0.07904,0.169954 -0.125,0.25 -0.0546,0.09721 -0.126774,0.18835 -0.1875,0.28125 -0.09411,0.140965 -0.204921,0.275995 -0.3125,0.40625 -0.143174,0.17445 -0.303141,0.346998 -0.46875,0.5 -0.01117,0.0102 -0.01998,0.02115 -0.03125,0.03125 -0.138386,0.125556 -0.285091,0.234436 -0.4375,0.34375 -0.102571,0.07315 -0.204318,0.153364 -0.3125,0.21875 -0.0074,0.0045 -0.02384,-0.0044 -0.03125,0 -0.232039,0.138728 -0.462548,0.274778 -0.71875,0.375 0.301527,-0.0968 0.596455,-0.204138 0.875,-0.34375 0.55709,-0.279224 1.060053,-0.665694 1.5,-1.09375 0.219973,-0.214028 0.409366,-0.441865 0.59375,-0.6875 0.184384,-0.245635 0.355408,-0.507743 0.5,-0.78125 0.14012,-0.265048 0.276135,-0.524729 0.375,-0.8125 0.01041,-0.03078 0.02133,-0.06274 0.03125,-0.09375 0.09046,-0.278085 0.1388,-0.579404 0.1875,-0.875 C 89.95865,84.6507 90,84.334721 90,84 l 0,-2 0,-68 0,-2 C 90,8.676 87.324,6 84,6 L 12,6 z"
       inkscape:connector-curvature="0"
       id="rect3728"
       style="fill:url(#linearGradient3188);fill-opacity:1;fill-rule:nonzero;stroke:none" />
    <path
       d="M 12,90 C 8.676,90 6,87.324 6,84 L 6,82 6,14 6,12 c 0,-0.334721 0.04135,-0.6507 0.09375,-0.96875 0.0487,-0.295596 0.09704,-0.596915 0.1875,-0.875 C 6.29113,10.12587 6.302142,10.09265 6.3125,10.0625 6.411365,9.774729 6.5473802,9.515048 6.6875,9.25 6.8320918,8.976493 7.0031161,8.714385 7.1875,8.46875 7.3718839,8.223115 7.5612765,7.995278 7.78125,7.78125 8.221197,7.353194 8.72416,6.966724 9.28125,6.6875 9.559795,6.547888 9.8547231,6.440553 10.15625,6.34375 9.9000482,6.443972 9.6695391,6.580022 9.4375,6.71875 c -0.00741,0.0044 -0.023866,-0.0045 -0.03125,0 -0.031933,0.0193 -0.062293,0.04251 -0.09375,0.0625 -0.120395,0.0767 -0.2310226,0.163513 -0.34375,0.25 -0.1061728,0.0808 -0.2132809,0.161112 -0.3125,0.25 C 8.4783201,7.442683 8.3087904,7.626638 8.15625,7.8125 8.0486711,7.942755 7.9378561,8.077785 7.84375,8.21875 7.818661,8.25713 7.805304,8.30462 7.78125,8.34375 7.716487,8.446782 7.6510225,8.548267 7.59375,8.65625 7.4927417,8.850956 7.3880752,9.071951 7.3125,9.28125 7.30454,9.30306 7.288911,9.3218 7.28125,9.34375 7.2494249,9.4357 7.2454455,9.530581 7.21875,9.625 7.1884177,9.731618 7.1483606,9.828031 7.125,9.9375 7.0521214,10.279012 7,10.635705 7,11 l 0,2 0,68 0,2 c 0,2.781848 2.2181517,5 5,5 l 2,0 68,0 2,0 c 2.781848,0 5,-2.218152 5,-5 l 0,-2 0,-68 0,-2 C 89,10.635705 88.94788,10.279012 88.875,9.9375 88.83085,9.730607 88.78662,9.539842 88.71875,9.34375 88.71105,9.3218 88.69545,9.30306 88.6875,9.28125 88.62476,9.107511 88.549117,8.913801 88.46875,8.75 88.42717,8.6672 88.38971,8.580046 88.34375,8.5 88.28915,8.40279 88.216976,8.31165 88.15625,8.21875 88.06214,8.077785 87.951329,7.942755 87.84375,7.8125 87.700576,7.63805 87.540609,7.465502 87.375,7.3125 87.36383,7.3023 87.35502,7.29135 87.34375,7.28125 87.205364,7.155694 87.058659,7.046814 86.90625,6.9375 86.803679,6.86435 86.701932,6.784136 86.59375,6.71875 c -0.0074,-0.0045 -0.02384,0.0044 -0.03125,0 -0.232039,-0.138728 -0.462548,-0.274778 -0.71875,-0.375 0.301527,0.0968 0.596455,0.204138 0.875,0.34375 0.55709,0.279224 1.060053,0.665694 1.5,1.09375 0.219973,0.214028 0.409366,0.441865 0.59375,0.6875 0.184384,0.245635 0.355408,0.507743 0.5,0.78125 0.14012,0.265048 0.276135,0.524729 0.375,0.8125 0.01041,0.03078 0.02133,0.06274 0.03125,0.09375 0.09046,0.278085 0.1388,0.579404 0.1875,0.875 C 89.95865,11.3493 90,11.665279 90,12 l 0,2 0,68 0,2 c 0,3.324 -2.676,6 -6,6 l -72,0 z"
       inkscape:connector-curvature="0"
       id="path3615"
       style="opacity:0.6;fill:url(#radialGradient3619);fill-opacity:1;fill-rule:nonzero;stroke:none" />
    <rect
       width="84"
       height="84"
       rx="6"
       ry="6"
       x="6"
       y="106"
       id="rect2841"
       style="fill:url(#linearGradient2843);fill-opacity:1;fill-rule:nonzero;stroke:none" />
    <rect
       width="76"
       height="76"
       rx="4"
       ry="4"
       x="10"
       y="110"
       id="rect3634"
       style="fill:#ff0000;fill-opacity:1;fill-rule:nonzero;stroke:none" />
    <path
       d="m 14,9 c -2.752703,0 -5,2.247297 -5,5 l 0,68 c 0,2.752703 2.247297,5 5,5 l 68,0 c 2.752703,0 5,-2.247297 5,-5 L 87,14 C 87,11.247297 84.752703,9 82,9 L 14,9 z m 0,2 68,0 c 1.679297,0 3,1.320703 3,3 l 0,68 c 0,1.679297 -1.320703,3 -3,3 l -68,0 c -1.679297,0 -3,-1.320703 -3,-3 l 0,-68 c 0,-1.679297 1.320703,-3 3,-3 z"
       inkscape:connector-curvature="0"
       transform="translate(-110,0)"
       clip-path="url(#clipPath3649)"
       id="rect3647"
       style="font-size:medium;font-style:normal;font-variant:normal;font-weight:normal;font-stretch:normal;text-indent:0;text-align:start;text-decoration:none;line-height:normal;letter-spacing:normal;word-spacing:normal;text-transform:none;direction:ltr;block-progression:tb;writing-mode:lr-tb;text-anchor:start;color:#000000;fill:#000000;fill-opacity:1;stroke:none;stroke-width:2;marker:none;visibility:visible;display:inline;overflow:visible;filter:url(#filter3657);enable-background:accumulate;font-family:Abandoned Bitplane;-inkscape-font-specification:Abandoned Bitplane" />
    <path
       d="m 14.089286,10 c -2.216,0 -4,1.784 -4,4 l 0,68 c 0,2.216 1.784,4 4,4 l 68,0 c 2.216,0 4,-1.784 4,-4 l 0,-68 c 0,-2.216 -1.784,-4 -4,-4 l -68,0 z m 0,2 68,0 c 1.140301,0 2,0.859699 2,2 l 0,68 c 0,1.140301 -0.859699,2 -2,2 l -68,0 c -1.140301,0 -2,-0.859699 -2,-2 l 0,-68 c 0,-1.140301 0.859699,-2 2,-2 z"
       inkscape:connector-curvature="0"
       id="path3709"
       style="opacity:0.16000001;fill:#000000;fill-opacity:1;fill-rule:nonzero;stroke:none" />
    <path
       d="m 14,10 c -2.216,0 -4,1.784 -4,4 l 0,68 c 0,2.216 1.784,4 4,4 l 68,0 c 2.216,0 4,-1.784 4,-4 l 0,-68 c 0,-2.216 -1.784,-4 -4,-4 l -68,0 z m 0,1 68,0 c 1.673848,0 3,1.326152 3,3 l 0,68 c 0,1.673848 -1.326152,3 -3,3 l -68,0 c -1.673848,0 -3,-1.326152 -3,-3 l 0,-68 c 0,-1.673848 1.326152,-3 3,-3 z"
       inkscape:connector-curvature="0"
       id="path3707"
       style="opacity:0.36000001;fill:#000000;fill-opacity:1;fill-rule:nonzero;stroke:none" />
  </g>
  <g
     id="layer5"
     style="display:none"
     transform="translate(0,160)">
    <rect
       width="66"
       height="66"
       rx="12"
       ry="12"
       x="15"
       y="15"
       clip-path="url(#clipPath3613)"
       id="rect3171"
       style="opacity:0.1;fill:url(#linearGradient3613);fill-opacity:1;fill-rule:nonzero;stroke:#ffffff;stroke-width:0.5;stroke-linecap:round;stroke-linejoin:miter;stroke-miterlimit:4;stroke-opacity:1;stroke-dasharray:none;stroke-dashoffset:0;filter:url(#filter3794)" />
  </g>
  <g
     id="g3846">
    <path
       d="M 235.01237,117.50618 C 235.01237,58.684435 187.32792,10.999999 128.50619,10.999999 69.684448,10.999999 22,58.684435 22,117.50618 c 0,58.82175 47.684448,106.50619 106.50619,106.50619 58.82173,0 106.50618,-47.68444 106.50618,-106.50619 z m -10.65062,0 c 0,14.18501 -3.08118,27.65039 -8.61079,39.76333 -15.1073,33.09349 -48.49022,56.09224 -87.24477,56.09224 -52.939575,0 -95.855571,-42.916 -95.855571,-95.85557 0,-52.939566 42.915996,-95.855563 95.855571,-95.855563 52.93957,0 95.85556,42.915997 95.85556,95.855563 z"
       inkscape:connector-curvature="0"
       id="path2880"
       style="opacity:0.3;color:#000000;fill:url(#linearGradient5345);fill-opacity:1;stroke:none;stroke-width:1;marker:none;visibility:visible;display:inline;overflow:visible;enable-background:accumulate" />
    <path
       d="m 203.06051,106.85557 c 0,-41.175217 -33.37911,-74.554334 -74.55432,-74.554334 -41.175221,0 -74.554334,33.379117 -74.554334,74.554334 0,41.1752 33.379113,74.55432 74.554334,74.55432 41.17521,0 74.55432,-33.37912 74.55432,-74.55432 z m -10.65061,0 c 0,35.29303 -28.61067,63.9037 -63.90371,63.9037 -35.293054,0 -63.903716,-28.61067 -63.903716,-63.9037 0,-35.293038 28.610662,-63.903716 63.903716,-63.903716 35.29304,0 63.90371,28.610678 63.90371,63.903716 z"
       inkscape:connector-curvature="0"
       id="path3665"
       style="opacity:0.3;color:#000000;fill:url(#linearGradient5342);fill-opacity:1;fill-rule:nonzero;stroke:none;stroke-width:1;marker:none;visibility:visible;display:inline;overflow:visible;enable-background:accumulate" />
    <path
       d="m 171.10866,96.204947 c 0,-23.528715 -19.07378,-42.602474 -42.60247,-42.602474 -23.5287,0 -42.602479,19.073759 -42.602479,42.602474 0,23.528673 19.073779,42.602473 42.602479,42.602473 23.52869,0 42.60247,-19.0738 42.60247,-42.602473 z m -10.65062,0 c 0,17.646493 -14.30534,31.951853 -31.95185,31.951853 -17.64652,0 -31.95186,-14.30536 -31.95186,-31.951853 0,-17.646536 14.30534,-31.951855 31.95186,-31.951855 17.64651,0 31.95185,14.305319 31.95185,31.951855 z"
       inkscape:connector-curvature="0"
       id="path3688"
       style="opacity:0.3;color:#000000;fill:url(#linearGradient5339);fill-opacity:1;fill-rule:nonzero;stroke:none;stroke-width:1;marker:none;visibility:visible;display:inline;overflow:visible;enable-background:accumulate" />
    <g
       transform="translate(0.9,8.125994)"
       id="g3836">
      <path
         inkscape:connector-curvature="0"
         style="opacity:0.1;color:#000000;fill:#000000;fill-opacity:1;fill-rule:nonzero;stroke:none;stroke-width:1;marker:none;visibility:visible;display:inline;overflow:visible;enable-background:accumulate"
         id="path3936"
         d="m 127.58153,68.626782 c -12.86431,0 -23.29823,10.620994 -23.29823,23.421499 0,3.382834 1.28188,6.043516 2.46542,8.628969 L 67.301989,228.26279 c 3.07e-4,-9.5e-4 -0.123508,0.3708 -0.123271,0.36961 2.52e-4,-9.4e-4 -1.94e-4,0.3708 0,0.36962 1.93e-4,-9.5e-4 -0.12339,0.49407 -0.123271,0.49308 1.38e-4,-9.8e-4 -7.9e-5,0.3708 0,0.36962 7.8e-5,-9.9e-4 -0.123311,0.49407 -0.123271,0.49308 2.3e-5,-9.8e-4 3.5e-5,0.3708 0,0.36962 -3.6e-5,-9.9e-4 0.123349,0.49407 0.123271,0.49308 -9.1e-5,-9.8e-4 1.5e-4,0.3708 0,0.36962 -1.5e-4,-9.9e-4 0.123468,0.49403 0.123271,0.49308 -2.05e-4,-9.4e-4 0.123547,0.3708 0.123271,0.36962 -2.61e-4,-9.5e-4 0.123586,0.49403 0.123271,0.49309 -3.16e-4,-9.5e-4 0.123626,0.37079 0.123271,0.36961 -3.71e-4,-9.1e-4 0.123705,0.3708 0.123271,0.36962 -4.26e-4,-9.1e-4 0.247015,0.3708 0.246542,0.36961 -4.77e-4,-8.7e-4 0.247055,0.3708 0.246542,0.36962 -5.25e-4,-8.3e-4 0.247134,0.3708 0.246542,0.36961 -5.72e-4,-7.8e-4 0.247173,0.37041 0.246542,0.36962 -6.19e-4,-7.5e-4 0.247213,0.37041 0.246542,0.36962 -6.62e-4,-7.1e-4 0.247252,0.24733 0.246542,0.24654 -7.02e-4,-6.7e-4 0.370563,0.3704 0.369814,0.36961 -7.42e-4,-6.3e-4 0.370602,0.24694 0.369813,0.24655 -7.81e-4,-6e-4 0.370641,0.24693 0.369813,0.24654 -8.13e-4,-5.5e-4 0.370641,0.24694 0.369813,0.24654 -8.44e-4,-5.1e-4 0.370681,0.12386 0.369813,0.12307 -8.72e-4,-4.7e-4 0.370721,0.24694 0.369813,0.24655 -8.95e-4,-4e-4 0.370721,0.12346 0.369813,0.12307 -9.19e-4,-3.5e-4 0.37076,0.12347 0.369814,0.12307 -9.39e-4,-2.7e-4 0.494038,0.12347 0.493084,0.12308 -9.55e-4,-2.4e-4 0.37076,0.12347 0.369813,0.12307 -9.67e-4,-2e-4 0.494058,0.12347 0.493084,0.12308 -9.74e-4,-1.2e-4 0.370799,7e-5 0.369813,0 -9.82e-4,-8e-5 0.494067,0 0.493084,0 l 21.325892,0 c -0.0014,0 0.617728,-1.2e-4 0.616355,0 -0.0014,7e-5 0.617716,-0.12347 0.616355,-0.12308 -0.0014,2e-4 0.494422,-0.12347 0.493084,-0.12307 -0.0013,3.1e-4 0.617665,-0.12386 0.616356,-0.12308 -0.0013,4.4e-4 0.617621,-0.24693 0.616355,-0.24654 -0.0013,5.5e-4 0.494303,-0.24733 0.493084,-0.24654 -0.0012,6.3e-4 0.494248,-0.24733 0.493084,-0.24654 -0.0012,7.5e-4 0.494177,-0.3708 0.493087,-0.36962 -0.001,8.3e-4 0.49411,-0.3708 0.49308,-0.36961 -0.001,9e-4 0.49403,-0.49407 0.49309,-0.49309 -9.5e-4,9.9e-4 0.37068,-0.3708 0.36981,-0.36961 -8.6e-4,0.001 0.37056,-0.49423 0.36981,-0.49309 -7.7e-4,0.001 0.37049,-0.61758 0.36982,-0.61635 -6.8e-4,0.001 0.24713,-0.49435 0.24654,-0.49309 -5.7e-4,0.001 0.24701,-0.49438 0.24654,-0.49308 -4.7e-4,0.001 0.12363,-0.6177 0.12327,-0.61636 l 1.47925,-5.17738 46.59646,0 1.47925,5.17738 c -3.6e-4,-0.001 0.12375,0.61766 0.12327,0.61636 -4.6e-4,-0.001 0.24714,0.49434 0.24654,0.49308 -5.7e-4,-0.001 0.24722,0.49427 0.24655,0.49309 -6.7e-4,-10e-4 0.37056,0.6175 0.36981,0.61635 -7.7e-4,-0.001 0.37068,0.49415 0.36981,0.49309 -8.6e-4,-0.001 0.37076,0.3708 0.36982,0.36961 -9.5e-4,-9.8e-4 0.49411,0.49399 0.49308,0.49309 -0.001,-9.1e-4 0.49418,0.3708 0.49308,0.36961 -10e-4,-8.3e-4 0.49425,0.37041 0.49309,0.36962 -0.001,-7.5e-4 0.4943,0.24733 0.49308,0.24654 -0.001,-6.3e-4 0.49435,0.24694 0.49309,0.24654 -0.001,-5.5e-4 0.61766,0.24694 0.61635,0.24654 -0.001,-4.3e-4 0.6177,0.12347 0.61636,0.12308 -0.001,-3.2e-4 0.49444,0.12347 0.49308,0.12307 -10e-4,-2e-4 0.61773,0.12347 0.61636,0.12308 -0.001,-1.2e-4 0.61773,0 0.61635,0 l 21.32589,0 c -9.8e-4,0 0.49407,-8e-5 0.49309,0 -9.8e-4,7e-5 0.3708,-1.2e-4 0.36981,0 -9.7e-4,1.1e-4 0.49405,-0.12347 0.49309,-0.12308 -9.7e-4,2e-4 0.37076,-0.12347 0.36981,-0.12307 -9.6e-4,2.3e-4 0.49402,-0.12347 0.49308,-0.12308 -9.4e-4,2.8e-4 0.37072,-0.12346 0.36982,-0.12307 -9.2e-4,3.6e-4 0.37072,-0.12386 0.36981,-0.12307 -9e-4,3.9e-4 0.37068,-0.24694 0.36981,-0.24655 -8.7e-4,4.4e-4 0.37064,-0.12386 0.36982,-0.12307 -8.5e-4,5.1e-4 0.37064,-0.24694 0.36981,-0.24654 -8.1e-4,5.5e-4 0.3706,-0.24694 0.36981,-0.24654 -7.8e-4,5.9e-4 0.37056,-0.24733 0.36981,-0.24655 -7.4e-4,6.4e-4 0.37053,-0.3704 0.36982,-0.36961 -7e-4,6.7e-4 0.24721,-0.24733 0.24654,-0.24654 -6.6e-4,7.1e-4 0.24717,-0.37041 0.24654,-0.36962 -6.2e-4,7.5e-4 0.24714,-0.3708 0.24654,-0.36962 -5.7e-4,7.9e-4 0.24706,-0.37079 0.24655,-0.36961 -5.3e-4,8.3e-4 0.24701,-0.3708 0.24654,-0.36962 -4.8e-4,8.7e-4 0.24697,-0.3708 0.24654,-0.36961 -4.3e-4,8.6e-4 0.12363,-0.3708 0.12327,-0.36962 -3.7e-4,9.1e-4 0.12359,-0.3708 0.12327,-0.36961 -3.1e-4,9.4e-4 0.12355,-0.49404 0.12327,-0.49309 -2.6e-4,9.5e-4 0.12347,-0.3708 0.12327,-0.36962 -2e-4,9.5e-4 0.12343,-0.49407 0.12328,-0.49308 -1.5e-4,9.9e-4 9e-5,-0.3708 0,-0.36962 -1e-4,9.9e-4 0.12331,-0.49407 0.12327,-0.49308 -4e-5,9.9e-4 -3e-5,-0.3708 0,-0.36962 2e-5,9.9e-4 -0.12335,-0.49407 -0.12327,-0.49308 7e-5,9.9e-4 -1.4e-4,-0.3708 0,-0.36962 1.3e-4,9.9e-4 -0.12347,-0.49403 -0.12328,-0.49308 2e-4,9.5e-4 -2.5e-4,-0.3708 0,-0.36962 2.6e-4,9.5e-4 -0.12358,-0.37079 -0.12327,-0.36961 L 148.41434,100.80053 c 1.22125,-2.543728 2.58869,-5.251036 2.58869,-8.752249 0,-12.85648 -10.565,-23.421499 -23.4215,-23.421499 z m -4.93084,94.672168 9.98495,0 1.47926,4.80757 -12.94346,0 1.47925,-4.80757 z m -8.99879,31.9272 27.85926,0 1.47925,4.93084 -30.81776,0 1.47925,-4.93084 z" />
      <path
         inkscape:connector-curvature="0"
         style="opacity:0.15;color:#000000;fill:#000000;fill-opacity:1;fill-rule:nonzero;stroke:none;stroke-width:1;marker:none;visibility:visible;display:inline;overflow:visible;enable-background:accumulate"
         id="path3932"
         d="m 127.58153,72.324913 c -10.81739,0 -19.6001,8.94009 -19.6001,19.723368 0,3.160906 1.20378,6.101542 2.5887,8.875519 L 70.876849,229.37223 a 3.6649306,3.6649306 0 0 0 3.451589,4.80757 l 21.325892,0 a 3.6649306,3.6649306 0 0 0 3.57486,-2.71196 l 2.21888,-7.88935 52.26692,0 2.21888,7.88935 a 3.6649306,3.6649306 0 0 0 3.57486,2.71196 l 21.32589,0 a 3.6649306,3.6649306 0 0 0 3.45159,-4.80757 L 144.59294,100.9238 c 1.40685,-2.737844 2.71196,-5.639191 2.71196,-8.875519 0,-10.8174 -8.90598,-19.723368 -19.72337,-19.723368 z m -7.76607,87.275897 15.65542,0 3.57486,12.20384 -22.80515,0 3.57487,-12.20384 z m -8.99879,31.92721 33.52972,0 3.57486,12.3271 -40.67944,0 3.57486,-12.3271 z" />
      <path
         style="opacity:0.3;color:#000000;fill:#000000;fill-opacity:1;fill-rule:nonzero;stroke:none;stroke-width:1;marker:none;visibility:visible;display:inline;overflow:visible;enable-background:accumulate"
         id="path3926"
         inkscape:connector-curvature="0"
         d="m 127.60619,76.047699 c -8.82327,0 -15.97593,7.152679 -15.97593,15.975928 0,3.308713 0.94006,6.436681 2.66265,8.986443 l -39.939817,129.4716 21.301237,0 2.995486,-10.65062 57.912734,0 2.99549,10.65062 21.30124,0 -39.93982,-129.4716 c 1.7226,-2.549762 2.66265,-5.67773 2.66265,-8.986443 0,-8.823249 -7.15266,-15.975928 -15.97592,-15.975928 z m -10.65062,79.879641 21.30123,0 5.65814,19.63706 -32.61751,0 5.65814,-19.63706 z m -8.98646,31.95185 39.27415,0 5.65814,19.6371 -50.59043,0 5.65814,-19.6371 z" />
      <path
         style="color:#000000;fill:url(#linearGradient3844);fill-opacity:1;fill-rule:nonzero;stroke:none;stroke-width:1;marker:none;visibility:visible;display:inline;overflow:visible;enable-background:accumulate"
         id="path3841"
         inkscape:connector-curvature="0"
         d="m 127.60619,72.103025 c -8.82327,0 -15.97593,7.15268 -15.97593,15.975928 0,3.308713 0.94006,6.436682 2.66265,8.98644 l -39.939817,129.471597 21.301237,0 2.995486,-10.65061 57.912734,0 2.99549,10.65061 21.30124,0 -39.93982,-129.471597 c 1.7226,-2.549758 2.66265,-5.677727 2.66265,-8.98644 0,-8.823248 -7.15266,-15.975928 -15.97592,-15.975928 z m -10.65062,79.879635 21.30123,0 5.65814,19.63706 -32.61751,0 5.65814,-19.63706 z m -8.98646,31.95186 39.27415,0 5.65814,19.6371 -50.59043,0 5.65814,-19.6371 z" />
      <path
         style="opacity:0.75;color:#000000;fill:#ffffff;fill-opacity:1;fill-rule:nonzero;stroke:none;stroke-width:1;marker:none;visibility:visible;display:inline;overflow:visible;enable-background:accumulate"
         id="path3898"
         inkscape:connector-curvature="0"
         d="m 127.58153,72.078371 c -8.82326,0 -15.90196,7.201988 -15.90196,16.025236 0,0.785937 0.0193,1.581933 0.12327,2.34215 0.81812,-8.05597 7.50688,-14.422712 15.77869,-14.422712 8.18567,0 14.84621,6.241065 15.7787,14.17617 0.0837,-0.684125 0.24654,-1.391286 0.24654,-2.095608 0,-8.823248 -7.20198,-16.025236 -16.02524,-16.025236 z m -14.0529,27.489444 -39.200192,126.969175 1.232711,0 38.707111,-125.48992 c -0.30027,-0.44449 -0.48773,-1.00175 -0.73963,-1.479255 z m 28.1058,0 c -0.25191,0.477505 -0.43933,1.034765 -0.73963,1.479255 l 38.70711,125.48992 1.23271,0 -39.20019,-126.969175 z m -29.21524,71.990295 -1.10944,3.94467 32.66683,0 -1.10944,-3.94467 -30.44795,0 z m -8.99878,32.05047 -1.10944,3.94467 50.54113,0 -1.10944,-3.94467 -48.32225,0 z" />
      <path
         style="opacity:0.15;color:#000000;fill:#000000;fill-opacity:1;fill-rule:nonzero;stroke:none;stroke-width:1;marker:none;visibility:visible;display:inline;overflow:visible;enable-background:accumulate"
         id="path3917"
         inkscape:connector-curvature="0"
         d="m 143.36023,86.254542 c -0.30943,2.52964 -1.10952,4.896168 -2.46543,6.903178 l 0.73963,2.465421 c 1.19309,-2.261757 1.97234,-4.787611 1.97234,-7.519534 0,-0.637577 -0.17392,-1.230975 -0.24654,-1.849065 z m -31.55739,0.369615 c -0.0466,0.497108 -0.12327,0.969956 -0.12327,1.479253 0,2.731923 0.65598,5.257777 1.84906,7.519534 l 0.73963,-2.465421 c -1.29195,-1.912338 -2.12028,-4.138239 -2.46542,-6.533366 z m 5.17738,61.388983 -5.67047,19.6001 1.10944,0 4.56103,-15.65543 21.32589,0 4.56103,15.65543 1.10944,0 -5.67047,-19.6001 -21.32589,0 z m -8.99879,31.9272 -5.67046,19.72337 1.10944,0 4.56102,-15.7787 39.2002,0 4.56103,15.7787 1.10944,0 -5.67047,-19.72337 -39.2002,0 z m -9.368595,32.05067 -2.958505,10.60131 -20.093181,0 -1.232711,3.94467 21.325892,0 2.958505,-10.60131 57.937395,0 2.9585,10.60131 21.32589,0 -1.23271,-3.94467 -20.09318,0 -2.9585,-10.60131 -57.937395,0 z" />
    </g>
  </g>
</svg>
