<?xml version="1.0" encoding="UTF-8" standalone="no"?>
<!-- Created with Inkscape (http://www.inkscape.org/) -->

<svg
   xmlns:dc="http://purl.org/dc/elements/1.1/"
   xmlns:cc="http://creativecommons.org/ns#"
   xmlns:rdf="http://www.w3.org/1999/02/22-rdf-syntax-ns#"
   xmlns:svg="http://www.w3.org/2000/svg"
   xmlns="http://www.w3.org/2000/svg"
   xmlns:xlink="http://www.w3.org/1999/xlink"
   xmlns:sodipodi="http://sodipodi.sourceforge.net/DTD/sodipodi-0.dtd"
   xmlns:inkscape="http://www.inkscape.org/namespaces/inkscape"
   width="256"
   height="256"
   id="svg2"
   version="1.1"
   inkscape:version="0.48.3.1 r9886"
   sodipodi:docname="jamendo.svg">
  <defs
     id="defs4">
    <linearGradient
       id="linearGradient5076">
      <stop
         style="stop-color:#c1c1c1;stop-opacity:1;"
         offset="0"
         id="stop5078" />
      <stop
         style="stop-color:#f1f1f1;stop-opacity:1;"
         offset="1"
         id="stop5080" />
    </linearGradient>
    <linearGradient
       inkscape:collect="always"
       xlink:href="#linearGradient5076"
       id="linearGradient4526"
       gradientUnits="userSpaceOnUse"
       x1="733.35999"
       y1="212.828"
       x2="811.84802"
       y2="212.828" />
    <linearGradient
       inkscape:collect="always"
       xlink:href="#linearGradient5076"
       id="linearGradient4528"
       gradientUnits="userSpaceOnUse"
       x1="733.35999"
       y1="212.828"
       x2="811.84802"
       y2="212.828" />
    <linearGradient
       inkscape:collect="always"
       xlink:href="#linearGradient5076"
       id="linearGradient4530"
       gradientUnits="userSpaceOnUse"
       x1="733.35999"
       y1="212.828"
       x2="811.84802"
       y2="212.828" />
    <linearGradient
       inkscape:collect="always"
       xlink:href="#ButtonShadow"
       id="linearGradient4532"
       gradientUnits="userSpaceOnUse"
       gradientTransform="matrix(0.85561496,0,0,0.85561496,112.46353,30.215452)"
       x1="774.091"
       y1="176.75133"
       x2="774.76697"
       y2="247.54063" />
    <linearGradient
       inkscape:collect="always"
       xlink:href="#linearGradient5076"
       id="linearGradient4534"
       gradientUnits="userSpaceOnUse"
       x1="764.164"
       y1="212.82231"
       x2="786.4989"
       y2="212.82231" />
    <linearGradient
       inkscape:collect="always"
       xlink:href="#linearGradient5076"
       id="linearGradient4536"
       gradientUnits="userSpaceOnUse"
       x1="764.164"
       y1="212.82231"
       x2="786.4989"
       y2="212.82231" />
    <linearGradient
       inkscape:collect="always"
       xlink:href="#linearGradient5076"
       id="linearGradient4538"
       gradientUnits="userSpaceOnUse"
       x1="764.164"
       y1="212.82231"
       x2="786.4989"
       y2="212.82231" />
    <linearGradient
       inkscape:collect="always"
       xlink:href="#linearGradient5076"
       id="linearGradient4540"
       gradientUnits="userSpaceOnUse"
       x1="764.164"
       y1="212.82231"
       x2="786.4989"
       y2="212.82231" />
    <linearGradient
       inkscape:collect="always"
       xlink:href="#linearGradient5076"
       id="linearGradient4542"
       gradientUnits="userSpaceOnUse"
       x1="764.164"
       y1="212.82231"
       x2="786.4989"
       y2="212.82231" />
    <linearGradient
       gradientTransform="scale(1.0058652,0.994169)"
       gradientUnits="userSpaceOnUse"
       id="ButtonShadow"
       y2="7.0165396"
       x2="45.447727"
       y1="92.539597"
       x1="45.447727">
      <stop
         offset="0"
         style="stop-color:#000000;stop-opacity:1"
         id="stop3750" />
      <stop
         offset="1"
         style="stop-color:#000000;stop-opacity:0.58823532"
         id="stop3752" />
    </linearGradient>
  </defs>
  <sodipodi:namedview
     id="base"
     pagecolor="#ffffff"
     bordercolor="#666666"
     borderopacity="1.0"
     inkscape:pageopacity="0.0"
     inkscape:pageshadow="2"
     inkscape:zoom="1.4960938"
     inkscape:cx="116.30287"
     inkscape:cy="128"
     inkscape:document-units="px"
     inkscape:current-layer="layer1"
     showgrid="false"
     inkscape:window-width="1024"
     inkscape:window-height="553"
     inkscape:window-x="-4"
     inkscape:window-y="24"
     inkscape:window-maximized="1" />
  <metadata
     id="metadata7">
    <rdf:RDF>
      <cc:Work
         rdf:about="">
        <dc:format>image/svg+xml</dc:format>
        <dc:type
           rdf:resource="http://purl.org/dc/dcmitype/StillImage" />
        <dc:title></dc:title>
      </cc:Work>
    </rdf:RDF>
  </metadata>
  <g
     inkscape:label="Layer 1"
     inkscape:groupmode="layer"
     id="layer1"
     transform="translate(0,-796.36218)">
    <g
       id="g4495"
       transform="translate(-10.020656,9.117178)">
      <g
         id="g4468"
         transform="matrix(3.2104042,0,0,-3.212835,-2350.9724,1595.6928)"
         style="opacity:0.05;fill:none;stroke:#000000;stroke-width:6.04170895;stroke-linejoin:round;stroke-miterlimit:4;stroke-opacity:1;stroke-dasharray:none">
        <g
           id="g4470"
           style="fill:none;stroke:#000000;stroke-width:6.04170895;stroke-linejoin:round;stroke-miterlimit:4;stroke-opacity:1;stroke-dasharray:none">
          <g
             id="g4472"
             style="fill:none;stroke:#000000;stroke-width:6.04170895;stroke-linejoin:round;stroke-miterlimit:4;stroke-opacity:1;stroke-dasharray:none">
            <g
               id="g4474"
               style="fill:none;stroke:#000000;stroke-width:6.04170895;stroke-linejoin:round;stroke-miterlimit:4;stroke-opacity:1;stroke-dasharray:none">
              <path
                 id="path4476"
                 style="fill:none;stroke:#000000;stroke-width:6.04170895;stroke-linejoin:round;stroke-miterlimit:4;stroke-opacity:1;stroke-dasharray:none"
                 d="m 766.29368,222.07428 0.0282,-19.26332 c -0.20535,-4.94118 3.89904,-3.09562 3.89904,-3.09562 l 0,0 13.80534,9.69241 c 3.08278,2.19209 0.0282,4.08899 0.0282,4.08899 l 0,0 -12.46032,10.92534 c -0.97455,0.58781 -1.7754,0.81883 -2.4308,0.81883 l 0,0 c -2.42567,0 -2.86974,-3.16663 -2.86974,-3.16663 m -15.25893,11.76138 c -6.1108,-5.67786 -9.16706,-12.9985 -9.16706,-21.96535 l 0,0 c 0,-8.97283 3.01775,-16.2755 9.04984,-21.91144 l 0,0 c 6.03294,-5.63594 14.16984,-8.45262 24.40898,-8.45262 l 0,0 c 10.23744,0 18.41198,2.81668 24.52621,8.45262 l 0,0 c 6.10994,5.63594 9.17048,12.93861 9.17048,21.91144 l 0,0 c 0,8.96685 -3.01776,16.28749 -9.05155,21.96535 l 0,0 c -6.03209,5.67615 -14.16899,8.51508 -24.40556,8.51508 l 0,0 c -10.24257,0 -18.42139,-2.83893 -24.53134,-8.51508 m 8.21561,-36.61347 c -3.88877,3.73133 -5.83187,8.61433 -5.83187,14.64812 l 0,0 c 0,6.11081 1.92514,11.03059 5.7754,14.76364 l 0,0 c 3.84856,3.72963 9.26546,5.59743 16.2507,5.59743 l 0,0 c 7.06481,0 12.52192,-1.84727 16.37219,-5.53925 l 0,0 c 3.85027,-3.69112 5.7754,-8.63315 5.7754,-14.82182 l 0,0 c 0,-6.03379 -1.9662,-10.91679 -5.89519,-14.64812 l 0,0 c -3.93069,-3.72963 -9.34759,-5.59316 -16.2524,-5.59316 l 0,0 c -6.90481,0 -12.30631,1.86353 -16.19423,5.59316"
                 inkscape:connector-curvature="0" />
            </g>
          </g>
        </g>
      </g>
      <g
         style="opacity:0.1;fill:none;stroke:#000000;stroke-width:4.02780581;stroke-linejoin:round;stroke-miterlimit:4;stroke-opacity:1;stroke-dasharray:none"
         transform="matrix(3.2104042,0,0,-3.212835,-2350.9724,1595.6928)"
         id="g4458">
        <g
           style="fill:none;stroke:#000000;stroke-width:4.02780581;stroke-linejoin:round;stroke-miterlimit:4;stroke-opacity:1;stroke-dasharray:none"
           id="g4460">
          <g
             style="fill:none;stroke:#000000;stroke-width:4.02780581;stroke-linejoin:round;stroke-miterlimit:4;stroke-opacity:1;stroke-dasharray:none"
             id="g4462">
            <g
               style="fill:none;stroke:#000000;stroke-width:4.02780581;stroke-linejoin:round;stroke-miterlimit:4;stroke-opacity:1;stroke-dasharray:none"
               id="g4464">
              <path
                 inkscape:connector-curvature="0"
                 d="m 766.29368,222.07428 0.0282,-19.26332 c -0.20535,-4.94118 3.89904,-3.09562 3.89904,-3.09562 l 0,0 13.80534,9.69241 c 3.08278,2.19209 0.0282,4.08899 0.0282,4.08899 l 0,0 -12.46032,10.92534 c -0.97455,0.58781 -1.7754,0.81883 -2.4308,0.81883 l 0,0 c -2.42567,0 -2.86974,-3.16663 -2.86974,-3.16663 m -15.25893,11.76138 c -6.1108,-5.67786 -9.16706,-12.9985 -9.16706,-21.96535 l 0,0 c 0,-8.97283 3.01775,-16.2755 9.04984,-21.91144 l 0,0 c 6.03294,-5.63594 14.16984,-8.45262 24.40898,-8.45262 l 0,0 c 10.23744,0 18.41198,2.81668 24.52621,8.45262 l 0,0 c 6.10994,5.63594 9.17048,12.93861 9.17048,21.91144 l 0,0 c 0,8.96685 -3.01776,16.28749 -9.05155,21.96535 l 0,0 c -6.03209,5.67615 -14.16899,8.51508 -24.40556,8.51508 l 0,0 c -10.24257,0 -18.42139,-2.83893 -24.53134,-8.51508 m 8.21561,-36.61347 c -3.88877,3.73133 -5.83187,8.61433 -5.83187,14.64812 l 0,0 c 0,6.11081 1.92514,11.03059 5.7754,14.76364 l 0,0 c 3.84856,3.72963 9.26546,5.59743 16.2507,5.59743 l 0,0 c 7.06481,0 12.52192,-1.84727 16.37219,-5.53925 l 0,0 c 3.85027,-3.69112 5.7754,-8.63315 5.7754,-14.82182 l 0,0 c 0,-6.03379 -1.9662,-10.91679 -5.89519,-14.64812 l 0,0 c -3.93069,-3.72963 -9.34759,-5.59316 -16.2524,-5.59316 l 0,0 c -6.90481,0 -12.30631,1.86353 -16.19423,5.59316"
                 style="fill:none;stroke:#000000;stroke-width:4.02780581;stroke-linejoin:round;stroke-miterlimit:4;stroke-opacity:1;stroke-dasharray:none"
                 id="path4466" />
            </g>
          </g>
        </g>
      </g>
      <g
         id="g4428"
         transform="matrix(3.2104042,0,0,-3.212835,-2350.9724,1595.6928)"
         style="opacity:0.15;fill:none;stroke:#000000;stroke-width:2.0139029;stroke-linejoin:round;stroke-miterlimit:4;stroke-opacity:1;stroke-dasharray:none">
        <g
           id="g4430"
           style="fill:none;stroke:#000000;stroke-width:2.0139029;stroke-linejoin:round;stroke-miterlimit:4;stroke-opacity:1;stroke-dasharray:none">
          <g
             id="g4432"
             style="fill:none;stroke:#000000;stroke-width:2.0139029;stroke-linejoin:round;stroke-miterlimit:4;stroke-opacity:1;stroke-dasharray:none">
            <g
               id="g4434"
               style="fill:none;stroke:#000000;stroke-width:2.0139029;stroke-linejoin:round;stroke-miterlimit:4;stroke-opacity:1;stroke-dasharray:none">
              <path
                 id="path4436"
                 style="fill:none;stroke:#000000;stroke-width:2.0139029;stroke-linejoin:round;stroke-miterlimit:4;stroke-opacity:1;stroke-dasharray:none"
                 d="m 766.29368,222.07428 0.0282,-19.26332 c -0.20535,-4.94118 3.89904,-3.09562 3.89904,-3.09562 l 0,0 13.80534,9.69241 c 3.08278,2.19209 0.0282,4.08899 0.0282,4.08899 l 0,0 -12.46032,10.92534 c -0.97455,0.58781 -1.7754,0.81883 -2.4308,0.81883 l 0,0 c -2.42567,0 -2.86974,-3.16663 -2.86974,-3.16663 m -15.25893,11.76138 c -6.1108,-5.67786 -9.16706,-12.9985 -9.16706,-21.96535 l 0,0 c 0,-8.97283 3.01775,-16.2755 9.04984,-21.91144 l 0,0 c 6.03294,-5.63594 14.16984,-8.45262 24.40898,-8.45262 l 0,0 c 10.23744,0 18.41198,2.81668 24.52621,8.45262 l 0,0 c 6.10994,5.63594 9.17048,12.93861 9.17048,21.91144 l 0,0 c 0,8.96685 -3.01776,16.28749 -9.05155,21.96535 l 0,0 c -6.03209,5.67615 -14.16899,8.51508 -24.40556,8.51508 l 0,0 c -10.24257,0 -18.42139,-2.83893 -24.53134,-8.51508 m 8.21561,-36.61347 c -3.88877,3.73133 -5.83187,8.61433 -5.83187,14.64812 l 0,0 c 0,6.11081 1.92514,11.03059 5.7754,14.76364 l 0,0 c 3.84856,3.72963 9.26546,5.59743 16.2507,5.59743 l 0,0 c 7.06481,0 12.52192,-1.84727 16.37219,-5.53925 l 0,0 c 3.85027,-3.69112 5.7754,-8.63315 5.7754,-14.82182 l 0,0 c 0,-6.03379 -1.9662,-10.91679 -5.89519,-14.64812 l 0,0 c -3.93069,-3.72963 -9.34759,-5.59316 -16.2524,-5.59316 l 0,0 c -6.90481,0 -12.30631,1.86353 -16.19423,5.59316"
                 inkscape:connector-curvature="0" />
            </g>
          </g>
        </g>
      </g>
      <g
         style="fill:url(#linearGradient4530);fill-opacity:1;stroke:#cccccc;stroke-width:0.41956311"
         transform="matrix(3.2104042,0,0,-3.212835,-2343.7293,1597.1414)"
         id="g3908">
        <g
           style="fill:url(#linearGradient4528);fill-opacity:1;stroke:#cccccc;stroke-width:0.41956311"
           id="g3914">
          <g
             style="fill:url(#linearGradient4526);fill-opacity:1;stroke:#cccccc;stroke-width:0.41956311"
             id="g3916" />
        </g>
      </g>
      <g
         id="g4438"
         transform="matrix(3.2104042,0,0,-3.212835,-2350.9724,1597.8488)"
         style="opacity:0.3;fill:#000000;fill-opacity:1">
        <g
           id="g4440"
           style="fill:#000000;fill-opacity:1">
          <g
             id="g4442"
             style="fill:#000000;fill-opacity:1">
            <g
               id="g4444"
               style="fill:#000000;fill-opacity:1">
              <path
                 id="path4446"
                 style="fill:#000000;fill-opacity:1;stroke:none"
                 d="m 766.29368,222.07428 0.0282,-19.26332 c -0.20535,-4.94118 3.89904,-3.09562 3.89904,-3.09562 l 0,0 13.80534,9.69241 c 3.08278,2.19209 0.0282,4.08899 0.0282,4.08899 l 0,0 -12.46032,10.92534 c -0.97455,0.58781 -1.7754,0.81883 -2.4308,0.81883 l 0,0 c -2.42567,0 -2.86974,-3.16663 -2.86974,-3.16663 m -15.25893,11.76138 c -6.1108,-5.67786 -9.16706,-12.9985 -9.16706,-21.96535 l 0,0 c 0,-8.97283 3.01775,-16.2755 9.04984,-21.91144 l 0,0 c 6.03294,-5.63594 14.16984,-8.45262 24.40898,-8.45262 l 0,0 c 10.23744,0 18.41198,2.81668 24.52621,8.45262 l 0,0 c 6.10994,5.63594 9.17048,12.93861 9.17048,21.91144 l 0,0 c 0,8.96685 -3.01776,16.28749 -9.05155,21.96535 l 0,0 c -6.03209,5.67615 -14.16899,8.51508 -24.40556,8.51508 l 0,0 c -10.24257,0 -18.42139,-2.83893 -24.53134,-8.51508 m 8.21561,-36.61347 c -3.88877,3.73133 -5.83187,8.61433 -5.83187,14.64812 l 0,0 c 0,6.11081 1.92514,11.03059 5.7754,14.76364 l 0,0 c 3.84856,3.72963 9.26546,5.59743 16.2507,5.59743 l 0,0 c 7.06481,0 12.52192,-1.84727 16.37219,-5.53925 l 0,0 c 3.85027,-3.69112 5.7754,-8.63315 5.7754,-14.82182 l 0,0 c 0,-6.03379 -1.9662,-10.91679 -5.89519,-14.64812 l 0,0 c -3.93069,-3.72963 -9.34759,-5.59316 -16.2524,-5.59316 l 0,0 c -6.90481,0 -12.30631,1.86353 -16.19423,5.59316"
                 inkscape:connector-curvature="0" />
            </g>
          </g>
        </g>
      </g>
      <g
         style="fill:url(#linearGradient4540);fill-opacity:1"
         transform="matrix(3.2104042,0,0,-3.212835,-2350.9724,1595.6928)"
         id="g3940">
        <g
           style="fill:url(#linearGradient4538);fill-opacity:1"
           id="g3942">
          <g
             style="fill:url(#linearGradient4536);fill-opacity:1"
             id="g3948">
            <g
               style="fill:url(#linearGradient4534);fill-opacity:1"
               id="g3950">
              <path
                 inkscape:connector-curvature="0"
                 d="m 766.29368,222.07428 0.0282,-19.26332 c -0.20535,-4.94118 3.89904,-3.09562 3.89904,-3.09562 l 0,0 13.80534,9.69241 c 3.08278,2.19209 0.0282,4.08899 0.0282,4.08899 l 0,0 -12.46032,10.92534 c -0.97455,0.58781 -1.7754,0.81883 -2.4308,0.81883 l 0,0 c -2.42567,0 -2.86974,-3.16663 -2.86974,-3.16663 m -15.25893,11.76138 c -6.1108,-5.67786 -9.16706,-12.9985 -9.16706,-21.96535 l 0,0 c 0,-8.97283 3.01775,-16.2755 9.04984,-21.91144 l 0,0 c 6.03294,-5.63594 14.16984,-8.45262 24.40898,-8.45262 l 0,0 c 10.23744,0 18.41198,2.81668 24.52621,8.45262 l 0,0 c 6.10994,5.63594 9.17048,12.93861 9.17048,21.91144 l 0,0 c 0,8.96685 -3.01776,16.28749 -9.05155,21.96535 l 0,0 c -6.03209,5.67615 -14.16899,8.51508 -24.40556,8.51508 l 0,0 c -10.24257,0 -18.42139,-2.83893 -24.53134,-8.51508 m 8.21561,-36.61347 c -3.88877,3.73133 -5.83187,8.61433 -5.83187,14.64812 l 0,0 c 0,6.11081 1.92514,11.03059 5.7754,14.76364 l 0,0 c 3.84856,3.72963 9.26546,5.59743 16.2507,5.59743 l 0,0 c 7.06481,0 12.52192,-1.84727 16.37219,-5.53925 l 0,0 c 3.85027,-3.69112 5.7754,-8.63315 5.7754,-14.82182 l 0,0 c 0,-6.03379 -1.9662,-10.91679 -5.89519,-14.64812 l 0,0 c -3.93069,-3.72963 -9.34759,-5.59316 -16.2524,-5.59316 l 0,0 c -6.90481,0 -12.30631,1.86353 -16.19423,5.59316"
                 style="fill:url(#linearGradient4532);fill-opacity:1;stroke:none"
                 id="path3958" />
            </g>
          </g>
        </g>
      </g>
      <g
         id="g4364"
         transform="matrix(3.2104042,0,0,-3.212835,-2722.2684,1587.5394)"
         style="fill:url(#linearGradient4542);fill-opacity:1" />
    </g>
  </g>
</svg>
