<?xml version="1.0" encoding="UTF-8" standalone="no"?>
<!-- Created with Inkscape (http://www.inkscape.org/) -->

<svg
   xmlns:dc="http://purl.org/dc/elements/1.1/"
   xmlns:cc="http://creativecommons.org/ns#"
   xmlns:rdf="http://www.w3.org/1999/02/22-rdf-syntax-ns#"
   xmlns:svg="http://www.w3.org/2000/svg"
   xmlns="http://www.w3.org/2000/svg"
   xmlns:xlink="http://www.w3.org/1999/xlink"
   xmlns:sodipodi="http://sodipodi.sourceforge.net/DTD/sodipodi-0.dtd"
   xmlns:inkscape="http://www.inkscape.org/namespaces/inkscape"
   width="256"
   height="256"
   id="svg3193"
   version="1.1"
   inkscape:version="0.48.3.1 r9886"
   sodipodi:docname="jockey-free.svg">
  <defs
     id="defs3195">
    <linearGradient
       id="linearGradient2905">
      <stop
         id="stop2907"
         offset="0"
         style="stop-color:#ffdfad;stop-opacity:1;" />
      <stop
         id="stop2909"
         offset="1"
         style="stop-color:#b0701c;stop-opacity:1;" />
    </linearGradient>
    <linearGradient
       inkscape:collect="always"
       xlink:href="#linearGradient2905"
       id="linearGradient4034"
       gradientUnits="userSpaceOnUse"
       gradientTransform="matrix(1.0975907,-0.21567339,0.21528621,1.0956203,94.946897,1239.225)"
       x1="88.479065"
       y1="-306.11642"
       x2="-13.324266"
       y2="-212.4579" />
    <linearGradient
       inkscape:collect="always"
       xlink:href="#linearGradient2905"
       id="linearGradient4036"
       gradientUnits="userSpaceOnUse"
       gradientTransform="matrix(1.1426989,0,0,1.1406475,19.120906,1252.0379)"
       x1="107.78049"
       y1="-180.99023"
       x2="13.540876"
       y2="-349.37045" />
    <linearGradient
       inkscape:collect="always"
       xlink:href="#linearGradient2905"
       id="linearGradient4038"
       gradientUnits="userSpaceOnUse"
       gradientTransform="matrix(1.1426989,0,0,1.1406475,19.120906,343.66947)"
       x1="147.57199"
       y1="553.3642"
       x2="202.01385"
       y2="439.3511" />
    <linearGradient
       inkscape:collect="always"
       xlink:href="#linearGradient2905"
       id="linearGradient4040"
       gradientUnits="userSpaceOnUse"
       gradientTransform="matrix(1.1426989,0,0,1.1406475,19.120906,343.66947)"
       spreadMethod="reflect"
       x1="129.41156"
       y1="463.4556"
       x2="156.05191"
       y2="498.10385" />
    <linearGradient
       inkscape:collect="always"
       xlink:href="#linearGradient2905"
       id="linearGradient4042"
       gradientUnits="userSpaceOnUse"
       gradientTransform="matrix(1.1426989,0,0,1.1406475,19.120906,343.66947)"
       spreadMethod="reflect"
       x1="82.455208"
       y1="438.30167"
       x2="101.55318"
       y2="473.53363" />
    <linearGradient
       id="linearGradient3637">
      <stop
         id="stop3639"
         style="stop-color:#00ff39;stop-opacity:1;"
         offset="0" />
      <stop
         id="stop3641"
         style="stop-color:#004d11;stop-opacity:1;"
         offset="1" />
    </linearGradient>
    <linearGradient
       x1="45.447727"
       y1="92.539597"
       x2="45.447727"
       y2="7.0165396"
       id="ButtonShadow"
       gradientUnits="userSpaceOnUse"
       gradientTransform="scale(1.0058652,0.994169)">
      <stop
         id="stop3750"
         style="stop-color:#000000;stop-opacity:1"
         offset="0" />
      <stop
         id="stop3752"
         style="stop-color:#000000;stop-opacity:0.58823532"
         offset="1" />
    </linearGradient>
    <linearGradient
       id="linearGradient3737">
      <stop
         id="stop3739"
         style="stop-color:#ffffff;stop-opacity:1"
         offset="0" />
      <stop
         id="stop3741"
         style="stop-color:#ffffff;stop-opacity:0"
         offset="1" />
    </linearGradient>
    <linearGradient
       id="linearGradient3700">
      <stop
         id="stop3702"
         style="stop-color:#2276c5;stop-opacity:1"
         offset="0" />
      <stop
         id="stop3704"
         style="stop-color:#68baf4;stop-opacity:1"
         offset="1" />
    </linearGradient>
    <filter
       color-interpolation-filters="sRGB"
       id="filter3174">
      <feGaussianBlur
         id="feGaussianBlur3176"
         stdDeviation="1.71" />
    </filter>
    <filter
       x="-0.192"
       y="-0.192"
       width="1.3839999"
       height="1.3839999"
       color-interpolation-filters="sRGB"
       id="filter3794">
      <feGaussianBlur
         id="feGaussianBlur3796"
         stdDeviation="5.28" />
    </filter>
    <linearGradient
       x1="48"
       y1="20.220806"
       x2="48"
       y2="138.66119"
       id="linearGradient3613"
       xlink:href="#linearGradient3737"
       gradientUnits="userSpaceOnUse" />
    <clipPath
       id="clipPath3613">
      <rect
         width="84"
         height="84"
         rx="6"
         ry="6"
         x="6"
         y="6"
         id="rect3615"
         style="fill:#ffffff;fill-opacity:1;fill-rule:nonzero;stroke:none" />
    </clipPath>
    <clipPath
       id="clipPath3625">
      <path
         d="M 0,0 0,96 96,96 96,0 0,0 z m 12,6 72,0 c 3.324,0 6,2.676 6,6 l 0,72 c 0,3.324 -2.676,6 -6,6 L 12,90 C 8.676,90 6,87.324 6,84 L 6,12 C 6,8.676 8.676,6 12,6 z"
         inkscape:connector-curvature="0"
         id="path3627"
         style="fill:#ffffff;fill-opacity:1;stroke:none" />
    </clipPath>
    <clipPath
       id="clipPath3649">
      <rect
         width="76"
         height="76"
         rx="4"
         ry="4"
         x="10"
         y="10"
         id="rect3651"
         style="fill:#ffffff;fill-opacity:1;fill-rule:nonzero;stroke:none" />
    </clipPath>
    <filter
       color-interpolation-filters="sRGB"
       id="filter3657">
      <feGaussianBlur
         id="feGaussianBlur3659"
         stdDeviation="1.14" />
    </filter>
    <style
       type="text/css"
       id="style2464-3" />
    <style
       type="text/css"
       id="style2464" />
    <linearGradient
       inkscape:collect="always"
       xlink:href="#ButtonShadow"
       id="linearGradient5255"
       gradientUnits="userSpaceOnUse"
       gradientTransform="scale(1.0058652,0.994169)"
       x1="45.447727"
       y1="92.539597"
       x2="45.447727"
       y2="7.0165396" />
    <linearGradient
       inkscape:collect="always"
       xlink:href="#linearGradient3637"
       id="linearGradient5257"
       gradientUnits="userSpaceOnUse"
       x1="44.512066"
       y1="6"
       x2="44.512066"
       y2="90.015434" />
    <linearGradient
       inkscape:collect="always"
       xlink:href="#linearGradient3737"
       id="linearGradient5259"
       gradientUnits="userSpaceOnUse"
       x1="36.357143"
       y1="6"
       x2="36.357143"
       y2="63.893143" />
    <radialGradient
       inkscape:collect="always"
       xlink:href="#linearGradient3737"
       id="radialGradient5261"
       gradientUnits="userSpaceOnUse"
       gradientTransform="matrix(1.1573129,0,0,0.99590774,-7.5510206,0.19713193)"
       cx="48"
       cy="90.171875"
       fx="48"
       fy="90.171875"
       r="42" />
    <linearGradient
       inkscape:collect="always"
       xlink:href="#linearGradient3700"
       id="linearGradient5263"
       gradientUnits="userSpaceOnUse"
       gradientTransform="translate(0,100)"
       x1="48"
       y1="90"
       x2="48"
       y2="5.9877172" />
    <linearGradient
       inkscape:collect="always"
       xlink:href="#linearGradient3737"
       id="linearGradient5265"
       gradientUnits="userSpaceOnUse"
       x1="48"
       y1="20.220806"
       x2="48"
       y2="138.66119" />
    <linearGradient
       inkscape:collect="always"
       xlink:href="#linearGradient3637"
       id="linearGradient5267"
       gradientUnits="userSpaceOnUse"
       gradientTransform="matrix(13.638393,0,0,13.638393,-21.929145,-26.655758)"
       x1="13"
       y1="3"
       x2="13"
       y2="19" />
  </defs>
  <sodipodi:namedview
     id="base"
     pagecolor="#ffffff"
     bordercolor="#666666"
     borderopacity="1.0"
     inkscape:pageopacity="0.0"
     inkscape:pageshadow="2"
     inkscape:zoom="1.6484375"
     inkscape:cx="128"
     inkscape:cy="128"
     inkscape:document-units="px"
     inkscape:current-layer="layer1"
     showgrid="false"
     inkscape:window-width="1024"
     inkscape:window-height="572"
     inkscape:window-x="0"
     inkscape:window-y="28"
     inkscape:window-maximized="1"
     showguides="true"
     inkscape:guide-bbox="true"
     inkscape:snap-bbox="true"
     inkscape:bbox-paths="true"
     inkscape:bbox-nodes="true"
     inkscape:snap-bbox-edge-midpoints="true"
     inkscape:snap-bbox-midpoints="true"
     inkscape:object-paths="true"
     inkscape:snap-intersection-paths="true"
     inkscape:object-nodes="true"
     inkscape:snap-smooth-nodes="true"
     inkscape:snap-midpoints="true"
     inkscape:snap-object-midpoints="true"
     inkscape:snap-center="true"
     inkscape:snap-global="true"
     fit-margin-top="0"
     fit-margin-left="0"
     fit-margin-right="0"
     fit-margin-bottom="0" />
  <metadata
     id="metadata3198">
    <rdf:RDF>
      <cc:Work
         rdf:about="">
        <dc:format>image/svg+xml</dc:format>
        <dc:type
           rdf:resource="http://purl.org/dc/dcmitype/StillImage" />
        <dc:title></dc:title>
      </cc:Work>
    </rdf:RDF>
  </metadata>
  <g
     inkscape:label="Layer 1"
     inkscape:groupmode="layer"
     id="layer1"
     transform="translate(-10.531551,-795.56063)">
    <g
       id="g5975">
      <path
         inkscape:connector-curvature="0"
         id="path4024"
         d="m 149.5003,804.56063 -117.968749,51.9375 0,116.0625 121.437499,69.99997 30.3125,-30.2812 63.625,-63.46877 0,-101.03125 c -13.26715,-15.75166 -27.95765,-20.42367 -51.4375,-23.625 -9.71693,-8.99199 -21.27032,-16.8603 -45.96875,-19.59375 z"
         style="opacity:0.05;fill:none;stroke:#000000;stroke-width:18;stroke-linejoin:round;stroke-miterlimit:4;stroke-opacity:1;stroke-dasharray:none" />
      <path
         inkscape:connector-curvature="0"
         style="opacity:0.1;fill:none;stroke:#000000;stroke-width:12;stroke-linejoin:round;stroke-miterlimit:4;stroke-opacity:1;stroke-dasharray:none"
         d="m 149.5003,804.56063 -117.968749,51.9375 0,116.0625 121.437499,69.99997 30.3125,-30.2812 63.625,-63.46877 0,-101.03125 c -13.26715,-15.75166 -27.95765,-20.42367 -51.4375,-23.625 -9.71693,-8.99199 -21.27032,-16.8603 -45.96875,-19.59375 z"
         id="path4022" />
      <path
         inkscape:connector-curvature="0"
         id="path3965"
         d="m 149.5003,804.56063 -117.968749,51.9375 0,116.0625 121.437499,69.99997 30.3125,-30.2812 63.625,-63.46877 0,-101.03125 c -13.26715,-15.75166 -27.95765,-20.42367 -51.4375,-23.625 -9.71693,-8.99199 -21.27032,-16.8603 -45.96875,-19.59375 z"
         style="opacity:0.15;fill:none;stroke:#000000;stroke-width:6;stroke-linejoin:round;stroke-miterlimit:4;stroke-opacity:1;stroke-dasharray:none" />
      <g
         transform="translate(-3.0625,2.96875)"
         id="g3899">
        <path
           id="path3880"
           d="M 34.58305,853.52426 56.488421,965.00364 186.35494,1009.3255 164.44282,897.8117 34.58305,853.52426 z"
           style="fill:url(#linearGradient4034);fill-opacity:1;fill-rule:evenodd;stroke:none"
           inkscape:connector-curvature="0" />
        <path
           inkscape:connector-curvature="0"
           style="fill:url(#linearGradient4036);fill-opacity:1;fill-rule:evenodd;stroke:none"
           d="m 34.58305,853.52424 0,116.06087 121.44746,70.00729 0,-116.09657 -121.44746,-69.97159 z"
           id="path3912" />
        <path
           style="fill:url(#linearGradient4038);fill-opacity:1;fill-rule:evenodd;stroke:none"
           d="m 249.96192,844.81419 -93.91556,78.66901 0,116.0964 93.91556,-93.7469 0,-101.01851 z"
           id="path3961"
           inkscape:connector-curvature="0" />
        <path
           style="fill:url(#linearGradient4040);fill-opacity:1;fill-rule:evenodd;stroke:none"
           d="M 198.16454,821.13465 91.046417,890.48131 c 21.763723,4.56939 44.389293,14.65715 64.999943,33.00189 l 93.91556,-78.66901 0,0 C 236.62256,828.9768 221.86886,824.33757 198.16454,821.13465 z"
           id="path3963"
           inkscape:connector-curvature="0"
           sodipodi:nodetypes="cccccc" />
        <path
           inkscape:connector-curvature="0"
           sodipodi:nodetypes="ccccc"
           id="path3971"
           d="m 34.58305,853.52426 c 35.247985,15.18672 38.22978,18.98476 56.463367,36.95705 L 198.56579,821.22003 c -9.72365,-9.0045 -21.287,-16.89117 -46.01295,-19.62767 z"
           style="fill:url(#linearGradient4042);fill-opacity:1;fill-rule:evenodd;stroke:none" />
      </g>
      <path
         inkscape:connector-curvature="0"
         id="path4002"
         d="m 149.5003,804.56063 -117.968749,51.9375 0,2 117.968749,-51.9375 c 24.69843,2.73345 36.25182,10.60176 45.96875,19.59375 23.47985,3.20133 38.17035,7.87334 51.4375,23.625 l 0,-2 c -13.26715,-15.75166 -27.95765,-20.42367 -51.4375,-23.625 -9.71693,-8.99199 -21.27032,-16.8603 -45.96875,-19.59375 z"
         style="opacity:0.7;fill:#ffffff;fill-opacity:1;fill-rule:evenodd;stroke:none" />
      <path
         inkscape:connector-curvature="0"
         id="path4011"
         d="m 246.90655,946.81063 -63.625,63.46877 -30.3125,30.2812 -121.437499,-69.99997 0,2 121.437499,69.99997 30.3125,-30.2812 63.625,-63.46877 0,-2 z"
         style="opacity:0.7;fill:#000000;fill-opacity:1;fill-rule:evenodd;stroke:none" />
      <path
         inkscape:connector-curvature="0"
         style="opacity:0.3;fill:#000000;fill-opacity:1;fill-rule:evenodd;stroke:none"
         d="m 246.90655,948.81063 -63.625,63.46867 -30.3125,30.2813 -121.437499,-69.99997 0,2 121.437499,69.99997 30.3125,-30.2813 63.625,-63.46867 0,-2 z"
         id="path4020" />
    </g>
    <g
       id="g17689"
       transform="matrix(0.68085107,0,0,0.68085107,99.319176,884.70923)">
      <g
         transform="translate(0,160)"
         style="display:none"
         id="layer2">
        <rect
           style="opacity:0.9;fill:url(#linearGradient5255);fill-opacity:1;fill-rule:nonzero;stroke:none;filter:url(#filter3174)"
           id="rect3745"
           clip-path="url(#clipPath3625)"
           y="7"
           x="5"
           ry="6"
           rx="6"
           height="85"
           width="86" />
      </g>
      <g
         transform="translate(0,160)"
         style="display:none"
         id="layer1-9">
        <rect
           style="opacity:0.8;fill:#000000;fill-opacity:1;fill-rule:nonzero;stroke:none"
           id="rect2419"
           y="6"
           x="6"
           ry="6"
           rx="6"
           height="84"
           width="84" />
        <path
           style="opacity:0.07999998;fill:#000000;fill-opacity:1;fill-rule:nonzero;stroke:none"
           id="rect3726"
           inkscape:connector-curvature="0"
           d="m 14,10 c -2.216,0 -4,1.784 -4,4 l 0,68 c 0,2.216 1.784,4 4,4 l 68,0 c 2.216,0 4,-1.784 4,-4 l 0,-68 c 0,-2.216 -1.784,-4 -4,-4 l -68,0 z m 0,3.0625 68,0 c 0.578769,0 0.9375,0.358731 0.9375,0.9375 l 0,68 c 0,0.578769 -0.358731,0.9375 -0.9375,0.9375 l -68,0 c -0.578769,0 -0.9375,-0.358731 -0.9375,-0.9375 l 0,-68 c 0,-0.578769 0.358731,-0.9375 0.9375,-0.9375 z" />
        <path
           style="fill:url(#linearGradient5257);fill-opacity:1;fill-rule:nonzero;stroke:none"
           id="rect3629"
           inkscape:connector-curvature="0"
           d="M 12,6 C 8.676,6 6,8.676 6,12 l 0,72 c 0,3.324 2.676,6 6,6 l 72,0 c 3.324,0 6,-2.676 6,-6 L 90,12 C 90,8.676 87.324,6 84,6 L 12,6 z m 2,4 68,0 c 2.216,0 4,1.784 4,4 l 0,68 c 0,2.216 -1.784,4 -4,4 l -68,0 c -2.216,0 -4,-1.784 -4,-4 l 0,-68 c 0,-2.216 1.784,-4 4,-4 z" />
        <path
           style="fill:url(#linearGradient5259);fill-opacity:1;fill-rule:nonzero;stroke:none"
           id="rect3728"
           inkscape:connector-curvature="0"
           d="M 12,6 C 8.676,6 6,8.676 6,12 l 0,2 0,68 0,2 c 0,0.334721 0.04135,0.6507 0.09375,0.96875 0.0487,0.295596 0.09704,0.596915 0.1875,0.875 0.00988,0.03038 0.020892,0.0636 0.03125,0.09375 0.098865,0.287771 0.2348802,0.547452 0.375,0.8125 0.1445918,0.273507 0.3156161,0.535615 0.5,0.78125 0.1843839,0.245635 0.3737765,0.473472 0.59375,0.6875 0.439947,0.428056 0.94291,0.814526 1.5,1.09375 0.278545,0.139612 0.5734731,0.246947 0.875,0.34375 -0.2562018,-0.100222 -0.4867109,-0.236272 -0.71875,-0.375 -0.00741,-0.0044 -0.023866,0.0045 -0.03125,0 -0.031933,-0.0193 -0.062293,-0.04251 -0.09375,-0.0625 -0.120395,-0.0767 -0.2310226,-0.163513 -0.34375,-0.25 -0.1061728,-0.0808 -0.2132809,-0.161112 -0.3125,-0.25 C 8.4783201,88.557317 8.3087904,88.373362 8.15625,88.1875 8.0486711,88.057245 7.9378561,87.922215 7.84375,87.78125 7.818661,87.74287 7.805304,87.69538 7.78125,87.65625 7.716487,87.553218 7.6510225,87.451733 7.59375,87.34375 7.4927417,87.149044 7.3880752,86.928049 7.3125,86.71875 7.30454,86.69694 7.288911,86.6782 7.28125,86.65625 7.2494249,86.5643 7.2454455,86.469419 7.21875,86.375 7.1884177,86.268382 7.1483606,86.171969 7.125,86.0625 7.0521214,85.720988 7,85.364295 7,85 L 7,83 7,15 7,13 C 7,10.218152 9.2181517,8 12,8 l 2,0 68,0 2,0 c 2.781848,0 5,2.218152 5,5 l 0,2 0,68 0,2 c 0,0.364295 -0.05212,0.720988 -0.125,1.0625 -0.04415,0.206893 -0.08838,0.397658 -0.15625,0.59375 -0.0077,0.02195 -0.0233,0.04069 -0.03125,0.0625 -0.06274,0.173739 -0.138383,0.367449 -0.21875,0.53125 -0.04158,0.0828 -0.07904,0.169954 -0.125,0.25 -0.0546,0.09721 -0.126774,0.18835 -0.1875,0.28125 -0.09411,0.140965 -0.204921,0.275995 -0.3125,0.40625 -0.143174,0.17445 -0.303141,0.346998 -0.46875,0.5 -0.01117,0.0102 -0.01998,0.02115 -0.03125,0.03125 -0.138386,0.125556 -0.285091,0.234436 -0.4375,0.34375 -0.102571,0.07315 -0.204318,0.153364 -0.3125,0.21875 -0.0074,0.0045 -0.02384,-0.0044 -0.03125,0 -0.232039,0.138728 -0.462548,0.274778 -0.71875,0.375 0.301527,-0.0968 0.596455,-0.204138 0.875,-0.34375 0.55709,-0.279224 1.060053,-0.665694 1.5,-1.09375 0.219973,-0.214028 0.409366,-0.441865 0.59375,-0.6875 0.184384,-0.245635 0.355408,-0.507743 0.5,-0.78125 0.14012,-0.265048 0.276135,-0.524729 0.375,-0.8125 0.01041,-0.03078 0.02133,-0.06274 0.03125,-0.09375 0.09046,-0.278085 0.1388,-0.579404 0.1875,-0.875 C 89.95865,84.6507 90,84.334721 90,84 l 0,-2 0,-68 0,-2 C 90,8.676 87.324,6 84,6 L 12,6 z" />
        <path
           style="opacity:0.6;fill:url(#radialGradient5261);fill-opacity:1;fill-rule:nonzero;stroke:none"
           id="path3615"
           inkscape:connector-curvature="0"
           d="M 12,90 C 8.676,90 6,87.324 6,84 L 6,82 6,14 6,12 c 0,-0.334721 0.04135,-0.6507 0.09375,-0.96875 0.0487,-0.295596 0.09704,-0.596915 0.1875,-0.875 C 6.29113,10.12587 6.302142,10.09265 6.3125,10.0625 6.411365,9.774729 6.5473802,9.515048 6.6875,9.25 6.8320918,8.976493 7.0031161,8.714385 7.1875,8.46875 7.3718839,8.223115 7.5612765,7.995278 7.78125,7.78125 8.221197,7.353194 8.72416,6.966724 9.28125,6.6875 9.559795,6.547888 9.8547231,6.440553 10.15625,6.34375 9.9000482,6.443972 9.6695391,6.580022 9.4375,6.71875 c -0.00741,0.0044 -0.023866,-0.0045 -0.03125,0 -0.031933,0.0193 -0.062293,0.04251 -0.09375,0.0625 -0.120395,0.0767 -0.2310226,0.163513 -0.34375,0.25 -0.1061728,0.0808 -0.2132809,0.161112 -0.3125,0.25 C 8.4783201,7.442683 8.3087904,7.626638 8.15625,7.8125 8.0486711,7.942755 7.9378561,8.077785 7.84375,8.21875 7.818661,8.25713 7.805304,8.30462 7.78125,8.34375 7.716487,8.446782 7.6510225,8.548267 7.59375,8.65625 7.4927417,8.850956 7.3880752,9.071951 7.3125,9.28125 7.30454,9.30306 7.288911,9.3218 7.28125,9.34375 7.2494249,9.4357 7.2454455,9.530581 7.21875,9.625 7.1884177,9.731618 7.1483606,9.828031 7.125,9.9375 7.0521214,10.279012 7,10.635705 7,11 l 0,2 0,68 0,2 c 0,2.781848 2.2181517,5 5,5 l 2,0 68,0 2,0 c 2.781848,0 5,-2.218152 5,-5 l 0,-2 0,-68 0,-2 C 89,10.635705 88.94788,10.279012 88.875,9.9375 88.83085,9.730607 88.78662,9.539842 88.71875,9.34375 88.71105,9.3218 88.69545,9.30306 88.6875,9.28125 88.62476,9.107511 88.549117,8.913801 88.46875,8.75 88.42717,8.6672 88.38971,8.580046 88.34375,8.5 88.28915,8.40279 88.216976,8.31165 88.15625,8.21875 88.06214,8.077785 87.951329,7.942755 87.84375,7.8125 87.700576,7.63805 87.540609,7.465502 87.375,7.3125 87.36383,7.3023 87.35502,7.29135 87.34375,7.28125 87.205364,7.155694 87.058659,7.046814 86.90625,6.9375 86.803679,6.86435 86.701932,6.784136 86.59375,6.71875 c -0.0074,-0.0045 -0.02384,0.0044 -0.03125,0 -0.232039,-0.138728 -0.462548,-0.274778 -0.71875,-0.375 0.301527,0.0968 0.596455,0.204138 0.875,0.34375 0.55709,0.279224 1.060053,0.665694 1.5,1.09375 0.219973,0.214028 0.409366,0.441865 0.59375,0.6875 0.184384,0.245635 0.355408,0.507743 0.5,0.78125 0.14012,0.265048 0.276135,0.524729 0.375,0.8125 0.01041,0.03078 0.02133,0.06274 0.03125,0.09375 0.09046,0.278085 0.1388,0.579404 0.1875,0.875 C 89.95865,11.3493 90,11.665279 90,12 l 0,2 0,68 0,2 c 0,3.324 -2.676,6 -6,6 l -72,0 z" />
        <rect
           style="fill:url(#linearGradient5263);fill-opacity:1;fill-rule:nonzero;stroke:none"
           id="rect2841"
           y="106"
           x="6"
           ry="6"
           rx="6"
           height="84"
           width="84" />
        <rect
           style="fill:#ff0000;fill-opacity:1;fill-rule:nonzero;stroke:none"
           id="rect3634"
           y="110"
           x="10"
           ry="4"
           rx="4"
           height="76"
           width="76" />
        <path
           style="font-size:medium;font-style:normal;font-variant:normal;font-weight:normal;font-stretch:normal;text-indent:0;text-align:start;text-decoration:none;line-height:normal;letter-spacing:normal;word-spacing:normal;text-transform:none;direction:ltr;block-progression:tb;writing-mode:lr-tb;text-anchor:start;color:#000000;fill:#000000;fill-opacity:1;stroke:none;stroke-width:2;marker:none;visibility:visible;display:inline;overflow:visible;filter:url(#filter3657);enable-background:accumulate;font-family:Abandoned Bitplane;-inkscape-font-specification:Abandoned Bitplane"
           id="rect3647"
           clip-path="url(#clipPath3649)"
           transform="translate(-110,0)"
           inkscape:connector-curvature="0"
           d="m 14,9 c -2.752703,0 -5,2.247297 -5,5 l 0,68 c 0,2.752703 2.247297,5 5,5 l 68,0 c 2.752703,0 5,-2.247297 5,-5 L 87,14 C 87,11.247297 84.752703,9 82,9 L 14,9 z m 0,2 68,0 c 1.679297,0 3,1.320703 3,3 l 0,68 c 0,1.679297 -1.320703,3 -3,3 l -68,0 c -1.679297,0 -3,-1.320703 -3,-3 l 0,-68 c 0,-1.679297 1.320703,-3 3,-3 z" />
        <path
           style="opacity:0.16000001;fill:#000000;fill-opacity:1;fill-rule:nonzero;stroke:none"
           id="path3709"
           inkscape:connector-curvature="0"
           d="m 14.089286,10 c -2.216,0 -4,1.784 -4,4 l 0,68 c 0,2.216 1.784,4 4,4 l 68,0 c 2.216,0 4,-1.784 4,-4 l 0,-68 c 0,-2.216 -1.784,-4 -4,-4 l -68,0 z m 0,2 68,0 c 1.140301,0 2,0.859699 2,2 l 0,68 c 0,1.140301 -0.859699,2 -2,2 l -68,0 c -1.140301,0 -2,-0.859699 -2,-2 l 0,-68 c 0,-1.140301 0.859699,-2 2,-2 z" />
        <path
           style="opacity:0.36000001;fill:#000000;fill-opacity:1;fill-rule:nonzero;stroke:none"
           id="path3707"
           inkscape:connector-curvature="0"
           d="m 14,10 c -2.216,0 -4,1.784 -4,4 l 0,68 c 0,2.216 1.784,4 4,4 l 68,0 c 2.216,0 4,-1.784 4,-4 l 0,-68 c 0,-2.216 -1.784,-4 -4,-4 l -68,0 z m 0,1 68,0 c 1.673848,0 3,1.326152 3,3 l 0,68 c 0,1.673848 -1.326152,3 -3,3 l -68,0 c -1.673848,0 -3,-1.326152 -3,-3 l 0,-68 c 0,-1.673848 1.326152,-3 3,-3 z" />
      </g>
      <g
         transform="translate(0,160)"
         style="display:none"
         id="layer5">
        <rect
           style="opacity:0.1;fill:url(#linearGradient5265);fill-opacity:1;fill-rule:nonzero;stroke:#ffffff;stroke-width:1.17499995;stroke-linecap:round;stroke-linejoin:miter;stroke-miterlimit:4;stroke-opacity:1;stroke-dasharray:none;stroke-dashoffset:0;filter:url(#filter3794)"
           id="rect3171"
           clip-path="url(#clipPath3613)"
           y="15"
           x="15"
           ry="12"
           rx="12"
           height="66"
           width="66" />
      </g>
      <g
         id="g4463">
        <path
           inkscape:connector-curvature="0"
           style="opacity:0.1;fill:#000000;fill-opacity:1;stroke:none;display:inline"
           id="path3923"
           d="m 128.09318,10.062992 c -64.726906,0 -117.500004,52.773069 -117.500004,117.499998 0,64.72693 52.773098,117.5 117.500004,117.5 64.7269,0 117.50001,-52.77307 117.5,-117.5 0,-64.726929 -52.7731,-117.499998 -117.5,-117.499998 z m 41.43973,75.797991 15.21206,16.392297 -70.94587,80.65011 -41.964295,-41.57087 15.474331,-16.3923 21.113284,19.01507 c 0.007,0.008 0.25493,0.25598 0.26228,0.26228 0.007,0.004 0.38578,0.2564 0.39341,0.26227 0.008,0.004 0.25435,0.25682 0.26228,0.26228 0.008,0.004 0.38523,0.12631 0.39341,0.13093 0.008,0.004 0.38499,0.25766 0.39342,0.26227 0.008,0.004 0.38477,0.12716 0.39342,0.13093 0.009,0.004 0.38456,0.2585 0.39341,0.26228 0.009,0.004 0.38439,0.12799 0.39342,0.13093 0.009,0.003 0.38426,0.12841 0.39341,0.13093 0.009,0.003 0.38414,0.12883 0.39342,0.13093 0.009,0.002 0.38401,-0.002 0.39341,0 0.009,0.002 0.38393,0.12967 0.39342,0.13092 0.01,10e-4 0.38389,-8.8e-4 0.39341,0 0.01,8.9e-4 0.51498,0.13093 0.52456,0.13093 0.01,3.8e-4 0.38384,9e-5 0.39341,0 0.01,-8e-5 0.38385,-0.13051 0.39342,-0.13093 0.01,-5.8e-4 0.38388,10e-4 0.39341,0 0.01,-0.001 0.38397,0.002 0.39342,0 0.01,-0.002 0.38405,-0.12925 0.39341,-0.13092 0.009,-0.002 0.51531,-0.12883 0.52455,-0.13093 0.009,-0.003 0.38431,-0.12799 0.39342,-0.13093 0.009,-0.003 0.38448,-0.12757 0.39341,-0.13093 0.009,-0.003 0.38465,-0.12715 0.39342,-0.13093 0.009,-0.004 0.38485,-0.12673 0.39342,-0.13093 0.008,-0.004 0.25396,-0.25766 0.26227,-0.26227 0.008,-0.004 0.38536,-0.1259 0.39342,-0.13093 0.008,-0.004 0.38561,-0.25682 0.39341,-0.26228 0.008,-0.004 0.25477,-0.2564 0.26228,-0.26228 0.008,-0.004 0.38624,-0.25598 0.39341,-0.26227 0.007,-0.004 0.2554,-0.25557 0.26228,-0.26228 0.007,-0.008 0.25577,-0.38649 0.26228,-0.3932 0.005,-0.004 0.18649,-0.17625 0.26227,-0.26228 l 49.1769,-57.307897 z" />
        <path
           inkscape:connector-curvature="0"
           style="opacity:0.15;fill:#000000;fill-opacity:1;stroke:none;display:inline"
           id="path3919"
           d="m 128.09318,13.997144 c -62.627915,0 -113.565852,50.937928 -113.565852,113.565846 0,62.62792 50.937937,113.56585 113.565852,113.56585 62.62791,0 113.56586,-50.93793 113.56585,-113.56585 0,-62.627918 -50.93794,-113.565846 -113.56585,-113.565846 z m 41.43973,66.09375 20.45759,22.031246 -76.06027,86.4202 -47.472099,-47.07868 20.588728,-22.03125 23.998331,21.63783 a 4.4375797,4.4375797 0 0 0 6.42578,-0.3932 l 52.06194,-60.586146 z" />
        <path
           style="opacity:0.3;fill:#000000;fill-opacity:1;stroke:none;display:inline"
           id="path3913"
           inkscape:connector-curvature="0"
           d="m 128.09318,18.455849 c -60.227147,0 -109.107147,48.88 -109.107147,109.107141 0,60.22714 48.88,109.10714 109.107147,109.10714 60.22714,0 109.10716,-48.87996 109.10714,-109.10714 0,-60.227141 -48.88,-109.107141 -109.10714,-109.107141 z m 41.34138,54.979761 26.42438,28.5554 -81.83035,92.91152 -53.701181,-53.27496 26.424387,-28.55539 27.276794,24.7196 55.40597,-64.35617 z" />
        <path
           style="fill:url(#linearGradient5267);fill-opacity:1;stroke:none;display:inline"
           id="path2505"
           inkscape:connector-curvature="0"
           d="m 128.09318,14.259421 c -60.227147,0 -109.107147,48.88 -109.107147,109.107139 0,60.22714 48.88,109.10714 109.107147,109.10714 60.22714,0 109.10716,-48.87995 109.10714,-109.10714 0,-60.227139 -48.88,-109.107139 -109.10714,-109.107139 z m 41.34138,54.97976 26.42438,28.555396 -81.83035,92.911533 -53.701181,-53.27497 26.424387,-28.55539 27.276794,24.71961 55.40597,-64.356179 z" />
        <path
           style="opacity:0.75;fill:#ffffff;fill-opacity:1;stroke:none;display:inline"
           id="path3895"
           inkscape:connector-curvature="0"
           d="m 128.09318,14.259421 c -60.227147,0 -109.107147,48.88 -109.107147,109.107139 0,0.69992 -0.01301,1.4014 0,2.09822 C 20.103949,66.203233 68.565972,18.455849 128.09318,18.455849 c 59.5272,0 107.98923,47.747384 109.10714,107.008931 0.013,-0.69682 0,-1.3983 0,-2.09822 0,-60.227139 -48.88,-109.107139 -109.10714,-109.107139 z m 65.96261,85.63337 -79.99442,90.878909 -51.799667,-51.40625 -1.967076,2.22935 53.766743,53.37332 81.83036,-92.97711 -1.83594,-2.098219 z" />
        <path
           style="opacity:0.15;fill:#000000;fill-opacity:1;stroke:none;display:inline"
           id="path3904"
           inkscape:connector-curvature="0"
           d="m 169.40177,65.009979 -55.3404,64.388951 -27.276788,-24.65402 -26.489955,28.45703 1.967076,1.96708 24.522879,-26.22768 27.276788,24.65402 55.3404,-64.388953 24.65402,26.489956 1.83594,-2.098215 -26.48996,-28.588169 z M 18.986033,121.26835 c -0.01301,0.69681 0,1.39829 0,2.09821 0,60.22714 48.88,109.10714 109.107147,109.10714 60.22714,0 109.10716,-48.87995 109.10714,-109.10714 0,-0.69992 0.013,-1.4014 0,-2.09821 -1.1179,59.26154 -49.57994,107.00893 -109.10714,107.00893 -59.527208,0 -107.989231,-47.74739 -109.107147,-107.00893 z" />
      </g>
    </g>
  </g>
  <style
     id="style4186"
     type="text/css">

	.st0{fill-rule:evenodd;clip-rule:evenodd;}
	.st1{fill-rule:evenodd;clip-rule:evenodd;fill:#5A9A98;}

</style>
  <style
     id="style4186-8"
     type="text/css">

	.st0{fill-rule:evenodd;clip-rule:evenodd;}
	.st1{fill-rule:evenodd;clip-rule:evenodd;fill:#5A9A98;}

</style>
  <style
     id="style4186-9"
     type="text/css">

	.st0{fill-rule:evenodd;clip-rule:evenodd;}
	.st1{fill-rule:evenodd;clip-rule:evenodd;fill:#5A9A98;}

</style>
  <style
     id="style4186-8-2"
     type="text/css">

	.st0{fill-rule:evenodd;clip-rule:evenodd;}
	.st1{fill-rule:evenodd;clip-rule:evenodd;fill:#5A9A98;}

</style>
</svg>
