<?xml version="1.0" encoding="UTF-8" standalone="no"?>
<!-- Created with Inkscape (http://www.inkscape.org/) -->

<svg
   xmlns:dc="http://purl.org/dc/elements/1.1/"
   xmlns:cc="http://creativecommons.org/ns#"
   xmlns:rdf="http://www.w3.org/1999/02/22-rdf-syntax-ns#"
   xmlns:svg="http://www.w3.org/2000/svg"
   xmlns="http://www.w3.org/2000/svg"
   xmlns:xlink="http://www.w3.org/1999/xlink"
   xmlns:sodipodi="http://sodipodi.sourceforge.net/DTD/sodipodi-0.dtd"
   xmlns:inkscape="http://www.inkscape.org/namespaces/inkscape"
   width="256"
   height="256"
   id="svg2"
   sodipodi:version="0.32"
   inkscape:version="0.48.3.1 r9886"
   sodipodi:docname="jockey-certified.svg"
   inkscape:output_extension="org.inkscape.output.svg.inkscape"
   version="1.0"
   inkscape:export-filename="D:\Vector_Art\my_folder\OCAL_dev\label.png"
   inkscape:export-xdpi="10.52638"
   inkscape:export-ydpi="10.52638">
  <defs
     id="defs4">
    <linearGradient
       x1="38.506001"
       x2="38.250999"
       gradientTransform="matrix(0.84394,0,0,1.1849,-1.2803,1.6893)"
       y1="22.886"
       gradientUnits="userSpaceOnUse"
       y2="35.018002"
       id="linearGradient6631">
      <stop
         offset="0"
         style="stop-color:#49251d;stop-opacity:1;"
         id="stop6627" />
      <stop
         offset="0.35315001"
         style="stop-color:#79534c;stop-opacity:1;"
         id="stop6637" />
      <stop
         offset="0.46551999"
         style="stop-color:#ffc0b3;stop-opacity:1;"
         id="stop6633" />
      <stop
         offset="0.64982003"
         style="stop-color:#be7e72;stop-opacity:1;"
         id="stop6635" />
      <stop
         offset="1"
         style="stop-color:#7e3932;stop-opacity:1;"
         id="stop6629" />
    </linearGradient>
    <linearGradient
       x1="18.57"
       x2="29.957001"
       gradientTransform="matrix(1.0287,0,0,0.97213,-1.2803,1.1893)"
       y1="9.4436998"
       gradientUnits="userSpaceOnUse"
       y2="22.783001"
       id="linearGradient6623">
      <stop
         offset="0"
         style="stop-color:#fff;stop-opacity:.24742"
         id="stop6619" />
      <stop
         offset="1"
         style="stop-color:#fff;stop-opacity:0"
         id="stop6621" />
    </linearGradient>
    <radialGradient
       gradientTransform="matrix(1.3104,0,0,1.3104,-8.6427,-4.376)"
       r="13.281"
       cy="20.971001"
       cx="28.789"
       gradientUnits="userSpaceOnUse"
       id="radialGradient5284">
      <stop
         offset="0"
         style="stop-color:#903c00;stop-opacity:1;"
         id="stop5115" />
      <stop
         offset="1"
         style="stop-color:#4a2b00;stop-opacity:1;"
         id="stop5117" />
    </radialGradient>
    <style
       type="text/css"
       id="style2464-3" />
    <style
       type="text/css"
       id="style2464" />
    <linearGradient
       inkscape:collect="always"
       xlink:href="#linearGradient6631"
       id="linearGradient3887"
       gradientUnits="userSpaceOnUse"
       gradientTransform="matrix(4.5913228,0,0,6.446262,204.80893,501.49729)"
       x1="38.506001"
       y1="22.886"
       x2="38.250999"
       y2="35.018002" />
    <radialGradient
       inkscape:collect="always"
       xlink:href="#radialGradient5284"
       id="radialGradient3889"
       gradientUnits="userSpaceOnUse"
       gradientTransform="matrix(7.1290251,0,0,7.1290251,164.75499,468.49996)"
       cx="28.789"
       cy="20.971001"
       r="13.281" />
    <radialGradient
       inkscape:collect="always"
       xlink:href="#radialGradient5284"
       id="radialGradient3891"
       gradientUnits="userSpaceOnUse"
       gradientTransform="matrix(6.1780529,0,0,6.1780529,187.07342,481.00516)"
       cx="26.886999"
       cy="20.479"
       r="14.694" />
    <linearGradient
       inkscape:collect="always"
       xlink:href="#linearGradient6623"
       id="linearGradient3893"
       gradientUnits="userSpaceOnUse"
       gradientTransform="matrix(5.5964807,0,0,5.2887203,204.80893,498.77712)"
       x1="18.57"
       y1="9.4436998"
       x2="29.957001"
       y2="22.783001" />
  </defs>
  <sodipodi:namedview
     id="base"
     pagecolor="#ffffff"
     bordercolor="#666666"
     borderopacity="1.0"
     inkscape:pageopacity="0"
     inkscape:pageshadow="2"
     inkscape:zoom="1.4960938"
     inkscape:cx="128"
     inkscape:cy="128"
     inkscape:document-units="px"
     inkscape:current-layer="g3227"
     showgrid="false"
     inkscape:snap-object-midpoints="true"
     inkscape:window-width="1024"
     inkscape:window-height="553"
     inkscape:window-x="-4"
     inkscape:window-y="24"
     showguides="true"
     inkscape:guide-bbox="true"
     inkscape:snap-global="false"
     inkscape:object-nodes="true"
     inkscape:snap-center="true"
     inkscape:window-maximized="1"
     fit-margin-top="0"
     fit-margin-left="0"
     fit-margin-right="0"
     fit-margin-bottom="0" />
  <metadata
     id="metadata7">
    <rdf:RDF>
      <cc:Work
         rdf:about="">
        <dc:format>image/svg+xml</dc:format>
        <dc:type
           rdf:resource="http://purl.org/dc/dcmitype/StillImage" />
        <dc:title></dc:title>
      </cc:Work>
    </rdf:RDF>
  </metadata>
  <g
     inkscape:groupmode="layer"
     id="layer2"
     inkscape:label="Layer"
     style="display:inline"
     transform="translate(-824.86764,-1181.385)" />
  <g
     inkscape:label="Layer 1"
     inkscape:groupmode="layer"
     id="layer1"
     transform="translate(-209.45485,-493.10367)"
     style="display:inline">
    <path
       style="fill:#d4aa00;fill-opacity:1;stroke:#f1df6c;stroke-width:2.02121377;stroke-opacity:1"
       d=""
       id="path1887"
       inkscape:connector-curvature="0" />
    <text
       sodipodi:linespacing="125%"
       id="text3689"
       y="440.29849"
       x="226.15308"
       style="font-size:10px;font-style:normal;font-variant:normal;font-weight:normal;font-stretch:normal;text-align:center;line-height:125%;writing-mode:lr-tb;text-anchor:middle;fill:#d4aa00;stroke:#f1df6c;stroke-opacity:1;font-family:Swis721 LtEx BT;-inkscape-font-specification:Swis721 LtEx BT"
       xml:space="preserve"><tspan
         y="440.29849"
         x="226.15308"
         id="tspan3691"
         sodipodi:role="line" /></text>
    <g
       id="g3227">
      <g
         id="g3875"
         transform="translate(-1,0)">
        <path
           id="path3873"
           transform="translate(209.45485,493.10367)"
           d="m 167,9 c -8.83967,0.028346 -15.24786,6.09213 -32.625,6.53125 -15.17308,0.38355 -22.0212,-4.5 -39.84375,-4.5 -17.82254,0 -18.28881,25.6839 -33.5,42.78125 C 46.28625,70.37835 36,79.7712 36,97.59375 c 0,17.82254 15.76969,31.77244 25.75,41.75 9.27036,9.27036 9.49177,32.64802 20.1875,43.34375 6.980085,6.97653 21.73948,-0.55271 34.53125,-6.625 11.6435,1.92506 26.11335,2.39166 34.125,10.40625 C 165.4187,201.2937 116,239.59375 116,239.59375 L 165.40625,226 185.1875,247 c 0,-25.33022 29.0437,-45.71112 14.21875,-61.15625 -6.27774,-6.27777 -17.23934,-9.68926 -28.21875,-12.90625 1.03738,-0.22503 2.08793,-0.47583 3.1875,-0.78125 19.3404,-5.36958 11.64898,-23.65438 18.78125,-30.78125 7.12687,-7.13226 28.0625,-13.1289 28.0625,-25.25 0,-12.1211 -9.38821,-18.35881 -9.5625,-30.21875 C 211.35704,64.6291 199.26793,65.43583 192.375,49.5 186.98365,37.02312 194.96032,20.38804 179.28125,12.4375 174.27936,9.9012213 170.459,8.9889081 167,9 z"
           style="opacity:0.05;fill:none;stroke:#000000;stroke-width:18;stroke-linejoin:round;stroke-miterlimit:4;stroke-opacity:1;stroke-dasharray:none"
           inkscape:connector-curvature="0" />
        <path
           style="opacity:0.1;fill:none;stroke:#000000;stroke-width:12;stroke-linejoin:round;stroke-miterlimit:4;stroke-opacity:1;stroke-dasharray:none"
           d="m 167,9 c -8.83967,0.028346 -15.24786,6.09213 -32.625,6.53125 -15.17308,0.38355 -22.0212,-4.5 -39.84375,-4.5 -17.82254,0 -18.28881,25.6839 -33.5,42.78125 C 46.28625,70.37835 36,79.7712 36,97.59375 c 0,17.82254 15.76969,31.77244 25.75,41.75 9.27036,9.27036 9.49177,32.64802 20.1875,43.34375 6.980085,6.97653 21.73948,-0.55271 34.53125,-6.625 11.6435,1.92506 26.11335,2.39166 34.125,10.40625 C 165.4187,201.2937 116,239.59375 116,239.59375 L 165.40625,226 185.1875,247 c 0,-25.33022 29.0437,-45.71112 14.21875,-61.15625 -6.27774,-6.27777 -17.23934,-9.68926 -28.21875,-12.90625 1.03738,-0.22503 2.08793,-0.47583 3.1875,-0.78125 19.3404,-5.36958 11.64898,-23.65438 18.78125,-30.78125 7.12687,-7.13226 28.0625,-13.1289 28.0625,-25.25 0,-12.1211 -9.38821,-18.35881 -9.5625,-30.21875 C 211.35704,64.6291 199.26793,65.43583 192.375,49.5 186.98365,37.02312 194.96032,20.38804 179.28125,12.4375 174.27936,9.9012213 170.459,8.9889081 167,9 z"
           transform="translate(209.45485,493.10367)"
           id="path3871"
           inkscape:connector-curvature="0" />
        <path
           id="path3848"
           transform="translate(209.45485,493.10367)"
           d="m 167,9 c -8.83967,0.028346 -15.24786,6.09213 -32.625,6.53125 -15.17308,0.38355 -22.0212,-4.5 -39.84375,-4.5 -17.82254,0 -18.28881,25.6839 -33.5,42.78125 C 46.28625,70.37835 36,79.7712 36,97.59375 c 0,17.82254 15.76969,31.77244 25.75,41.75 9.27036,9.27036 9.49177,32.64802 20.1875,43.34375 6.980085,6.97653 21.73948,-0.55271 34.53125,-6.625 11.6435,1.92506 26.11335,2.39166 34.125,10.40625 C 165.4187,201.2937 116,239.59375 116,239.59375 L 165.40625,226 185.1875,247 c 0,-25.33022 29.0437,-45.71112 14.21875,-61.15625 -6.27774,-6.27777 -17.23934,-9.68926 -28.21875,-12.90625 1.03738,-0.22503 2.08793,-0.47583 3.1875,-0.78125 19.3404,-5.36958 11.64898,-23.65438 18.78125,-30.78125 7.12687,-7.13226 28.0625,-13.1289 28.0625,-25.25 0,-12.1211 -9.38821,-18.35881 -9.5625,-30.21875 C 211.35704,64.6291 199.26793,65.43583 192.375,49.5 186.98365,37.02312 194.96032,20.38804 179.28125,12.4375 174.27936,9.9012213 170.459,8.9889081 167,9 z"
           style="opacity:0.15;fill:none;stroke:#000000;stroke-width:6;stroke-linejoin:round;stroke-miterlimit:4;stroke-opacity:1;stroke-dasharray:none"
           inkscape:connector-curvature="0" />
        <path
           d="m 340.28057,590.60304 c 0,0 -32.12523,44.48022 -32.12523,64.8652 0,20.38497 37.07047,9.26491 51.89541,24.09529 14.82495,14.82495 -34.59512,53.12495 -34.59512,53.12495 l 49.42007,-13.58997 19.77018,21.00516 c 0,-25.33022 29.03515,-45.71519 14.2102,-61.16032 -15.44512,-15.44518 -59.30516,-13.59002 -61.78055,-33.98039 -2.4699,-20.38497 -6.17478,-53.74518 -6.17478,-53.74518 l -0.62018,-0.61474 z"
           style="fill:url(#linearGradient3887);stroke:none"
           id="path5112"
           inkscape:connector-curvature="0" />
        <path
           d="m 401.83257,542.61269 c 6.89293,15.93583 18.99226,15.12525 19.29147,36.4024 0.17429,11.85994 9.55323,18.08915 9.55323,30.21025 0,12.1211 -20.92896,18.10548 -28.05583,25.23774 -7.13227,7.12687 0.56036,25.41186 -18.78004,30.78144 -19.15544,5.32071 -28.51288,-2.13803 -40.63393,-2.13803 -12.1211,0 -41.11815,23.36625 -51.81382,12.67602 -10.69573,-10.69573 -10.91878,-34.06203 -20.18914,-43.33239 -9.98031,-9.97756 -25.74966,-23.92117 -25.74966,-41.74371 0,-17.82255 10.292,-27.23437 25.037,-43.80022 15.21119,-17.09735 15.68452,-42.77576 33.50706,-42.77576 17.82255,0 24.65022,4.88922 39.8233,4.50567 24.17689,-0.61095 27.14188,-12.11181 44.92638,-3.09393 15.67907,7.95054 7.69263,24.59364 13.08398,37.07052 z"
           style="fill:url(#radialGradient3889);stroke:none"
           sodipodi:nodetypes="csssssssssssss"
           id="path5119"
           inkscape:connector-curvature="0" />
        <path
           d="m 402.06107,587.88287 c 0,33.97495 -27.80011,61.77506 -61.7805,61.77506 -33.97494,0 -61.77511,-27.80011 -61.77511,-61.77506 0,-33.98038 27.80017,-61.78055 61.77511,-61.78055 33.98039,5.5e-4 61.7805,27.80017 61.7805,61.78055 z"
           style="fill:url(#radialGradient3891);fill-opacity:1"
           id="path5126"
           inkscape:connector-curvature="0" />
        <path
           d="m 340.50907,530.67495 c -31.92394,0 -57.91789,25.8008 -57.91789,57.72205 0,19.97691 10.7936,36.89095 26.20068,47.28198 39.39351,-21.201 32.39177,-58.7829 84.90742,-69.34261 -8.69911,-20.94149 -29.1113,-35.65872 -53.19021,-35.65872 z"
           style="color:#000000;fill:url(#linearGradient3893)"
           id="path6612"
           inkscape:connector-curvature="0" />
        <path
           id="path3859"
           transform="translate(209.45485,493.10367)"
           d="m 167,9 c -8.83967,0.028346 -15.24786,6.09213 -32.625,6.53125 -15.17308,0.38355 -22.0212,-4.5 -39.84375,-4.5 -17.82254,0 -18.28881,25.6839 -33.5,42.78125 C 46.28625,70.37835 36,79.7712 36,97.59375 c 0,0.336353 0.02016,0.666406 0.03125,1 0.378887,-17.179478 10.533273,-26.528036 25,-42.78125 15.21119,-17.09735 15.67746,-42.78125 33.5,-42.78125 17.82255,0 24.67067,4.88355 39.84375,4.5 C 151.75214,17.09213 158.16033,11.0283 167,11 c 3.459,-0.01109 7.27936,0.90122 12.28125,3.4375 15.67907,7.95054 7.7024,24.58562 13.09375,37.0625 6.89293,15.93583 18.98204,15.1291 19.28125,36.40625 0.16807,11.436543 8.90773,17.64005 9.53125,28.9375 0.0164,-0.23702 0.0313,-0.47691 0.0313,-0.71875 0,-12.1211 -9.38821,-18.35881 -9.5625,-30.21875 C 211.35704,64.6291 199.26793,65.43583 192.375,49.5 186.98365,37.02312 194.96032,20.38804 179.28125,12.4375 174.27936,9.9012213 170.459,8.9889081 167,9 z m 7.8125,165.03125 c -0.1471,0.0433 -0.28715,0.0833 -0.4375,0.125 -1.09957,0.30542 -2.15012,0.55622 -3.1875,0.78125 10.97941,3.21699 21.94101,6.62848 28.21875,12.90625 2.7347,2.84911 3.94938,5.8774 4.15625,9.0625 0.24716,-3.93325 -0.85183,-7.61984 -4.15625,-11.0625 -5.58211,-5.58214 -14.88541,-8.88448 -24.59375,-11.8125 z m -21.5,20.21875 C 152.04762,211.63849 116,239.59375 116,239.59375 l 3.75,-1.03125 c 9.65965,-8.0238 34.89663,-30.41962 33.5625,-44.3125 z"
           style="opacity:0.5;fill:#ffffff;stroke:none"
           inkscape:connector-curvature="0" />
        <path
           id="path3864"
           transform="translate(209.45485,493.10367)"
           d="m 36.03125,96.59375 c -0.0073,0.330453 -0.03125,0.663647 -0.03125,1 0,17.82254 15.76969,31.77244 25.75,41.75 9.27036,9.27036 9.49177,32.64802 20.1875,43.34375 6.980085,6.97653 21.73948,-0.55271 34.53125,-6.625 11.6435,1.92506 26.11335,2.39166 34.125,10.40625 1.66123,1.66123 2.51096,3.61741 2.71875,5.78125 0.21568,-2.96504 -0.5591,-5.6216 -2.71875,-7.78125 -8.01165,-8.01459 -22.4815,-8.48119 -34.125,-10.40625 -12.79177,6.07229 -27.55117,13.60153 -34.53125,6.625 C 71.24177,169.99177 71.02036,146.61411 61.75,137.34375 51.958042,127.55449 36.607705,113.93649 36.03125,96.59375 z m 185.15625,18.25 c -0.80519,11.64258 -21.04657,17.54129 -28.03125,24.53125 -7.13227,7.12687 0.55915,25.41167 -18.78125,30.78125 -1.09957,0.30542 -2.15012,0.55622 -3.1875,0.78125 1.21661,0.35647 2.41517,0.72887 3.625,1.09375 18.77555,-5.52563 11.26692,-23.58478 18.34375,-30.65625 7.12687,-7.13226 28.0625,-13.1289 28.0625,-25.25 0,-0.43272 -0.008,-0.863 -0.0313,-1.28125 z m -17.625,80.0625 C 202.70079,208.61913 185.1875,225.31579 185.1875,245 L 165.40625,224 119.75,236.5625 c -2.26221,1.87911 -3.75,3.03125 -3.75,3.03125 L 165.40625,226 185.1875,247 c 0,-20.65765 19.28956,-38.01229 18.375,-52.09375 z"
           style="opacity:0.5;fill:#000000;stroke:none"
           inkscape:connector-curvature="0" />
        <path
           inkscape:connector-curvature="0"
           style="opacity:0.2;fill:#000000;stroke:none"
           d="m 245.4861,591.69742 c -0.007,0.33045 -0.0313,0.66365 -0.0313,1 0,17.82254 15.76969,31.77244 25.75,41.75 9.27036,9.27036 9.49177,32.64802 20.1875,43.34375 6.98008,6.97653 21.73948,-0.55271 34.53125,-6.625 11.6435,1.92506 26.11335,2.39166 34.125,10.40625 1.66123,1.66123 2.51096,3.61741 2.71875,5.78125 0.21568,-2.96504 -0.5591,-5.6216 -2.71875,-7.78125 -8.01165,-8.01459 -22.4815,-8.48119 -34.125,-10.40625 -12.79177,6.07229 -27.55117,13.60153 -34.53125,6.625 -10.69573,-10.69573 -10.91714,-34.07339 -20.1875,-43.34375 -9.79196,-9.78926 -25.1423,-23.40726 -25.71875,-40.75 z m 185.15625,18.25 c -0.80519,11.64258 -21.04657,17.54129 -28.03125,24.53125 -7.13227,7.12687 0.55915,25.41167 -18.78125,30.78125 -1.09957,0.30542 -2.15012,0.55622 -3.1875,0.78125 1.21661,0.35647 2.41517,0.72887 3.625,1.09375 18.77555,-5.52563 11.26692,-23.58478 18.34375,-30.65625 7.12687,-7.13226 28.0625,-13.1289 28.0625,-25.25 0,-0.43272 -0.008,-0.863 -0.0313,-1.28125 z m -17.625,80.0625 c -0.86171,13.71288 -18.375,30.40954 -18.375,50.09375 l -19.78125,-21 -45.65625,12.5625 c -2.26221,1.87911 -3.75,3.03125 -3.75,3.03125 l 49.40625,-13.59375 19.78125,21 c 0,-20.65765 19.28956,-38.01229 18.375,-52.09375 z"
           id="path3869" />
      </g>
    </g>
  </g>
  <style
     id="style4186"
     type="text/css">

	.st0{fill-rule:evenodd;clip-rule:evenodd;}
	.st1{fill-rule:evenodd;clip-rule:evenodd;fill:#5A9A98;}

</style>
  <style
     id="style4186-8"
     type="text/css">

	.st0{fill-rule:evenodd;clip-rule:evenodd;}
	.st1{fill-rule:evenodd;clip-rule:evenodd;fill:#5A9A98;}

</style>
  <style
     id="style4186-9"
     type="text/css">

	.st0{fill-rule:evenodd;clip-rule:evenodd;}
	.st1{fill-rule:evenodd;clip-rule:evenodd;fill:#5A9A98;}

</style>
  <style
     id="style4186-8-2"
     type="text/css">

	.st0{fill-rule:evenodd;clip-rule:evenodd;}
	.st1{fill-rule:evenodd;clip-rule:evenodd;fill:#5A9A98;}

</style>
</svg>
