<?xml version="1.0" encoding="UTF-8" standalone="no"?>
<!-- Created with Inkscape (http://www.inkscape.org/) -->

<svg
   xmlns:dc="http://purl.org/dc/elements/1.1/"
   xmlns:cc="http://creativecommons.org/ns#"
   xmlns:rdf="http://www.w3.org/1999/02/22-rdf-syntax-ns#"
   xmlns:svg="http://www.w3.org/2000/svg"
   xmlns="http://www.w3.org/2000/svg"
   xmlns:xlink="http://www.w3.org/1999/xlink"
   xmlns:sodipodi="http://sodipodi.sourceforge.net/DTD/sodipodi-0.dtd"
   xmlns:inkscape="http://www.inkscape.org/namespaces/inkscape"
   width="256"
   height="256"
   id="svg3193"
   version="1.1"
   inkscape:version="0.48.3.1 r9886"
   sodipodi:docname="jockey-proprietary.svg">
  <defs
     id="defs3195">
    <linearGradient
       id="linearGradient2905">
      <stop
         id="stop2907"
         offset="0"
         style="stop-color:#ffdfad;stop-opacity:1;" />
      <stop
         id="stop2909"
         offset="1"
         style="stop-color:#b0701c;stop-opacity:1;" />
    </linearGradient>
    <linearGradient
       inkscape:collect="always"
       xlink:href="#linearGradient2905"
       id="linearGradient4034"
       gradientUnits="userSpaceOnUse"
       gradientTransform="matrix(1.0975907,-0.21567339,0.21528621,1.0956203,94.946897,1239.225)"
       x1="88.479065"
       y1="-306.11642"
       x2="-13.324266"
       y2="-212.4579" />
    <linearGradient
       inkscape:collect="always"
       xlink:href="#linearGradient2905"
       id="linearGradient4036"
       gradientUnits="userSpaceOnUse"
       gradientTransform="matrix(1.1426989,0,0,1.1406475,19.120906,1252.0379)"
       x1="107.78049"
       y1="-180.99023"
       x2="13.540876"
       y2="-349.37045" />
    <linearGradient
       inkscape:collect="always"
       xlink:href="#linearGradient2905"
       id="linearGradient4038"
       gradientUnits="userSpaceOnUse"
       gradientTransform="matrix(1.1426989,0,0,1.1406475,19.120906,343.66947)"
       x1="147.57199"
       y1="553.3642"
       x2="202.01385"
       y2="439.3511" />
    <linearGradient
       inkscape:collect="always"
       xlink:href="#linearGradient2905"
       id="linearGradient4040"
       gradientUnits="userSpaceOnUse"
       gradientTransform="matrix(1.1426989,0,0,1.1406475,19.120906,343.66947)"
       spreadMethod="reflect"
       x1="129.41156"
       y1="463.4556"
       x2="156.05191"
       y2="498.10385" />
    <linearGradient
       inkscape:collect="always"
       xlink:href="#linearGradient2905"
       id="linearGradient4042"
       gradientUnits="userSpaceOnUse"
       gradientTransform="matrix(1.1426989,0,0,1.1406475,19.120906,343.66947)"
       spreadMethod="reflect"
       x1="82.455208"
       y1="438.30167"
       x2="101.55318"
       y2="473.53363" />
    <linearGradient
       id="linearGradient3637-1">
      <stop
         id="stop3639-9"
         style="stop-color:#f0f0f0;stop-opacity:1"
         offset="0" />
      <stop
         id="stop3641-8"
         style="stop-color:#aaaaaa;stop-opacity:1"
         offset="1" />
    </linearGradient>
    <linearGradient
       x1="45.447727"
       y1="92.539597"
       x2="45.447727"
       y2="7.0165396"
       id="ButtonShadow-1"
       gradientUnits="userSpaceOnUse"
       gradientTransform="scale(1.0058652,0.994169)">
      <stop
         id="stop3750-5"
         style="stop-color:#000000;stop-opacity:1"
         offset="0" />
      <stop
         id="stop3752-6"
         style="stop-color:#000000;stop-opacity:0.58823532"
         offset="1" />
    </linearGradient>
    <linearGradient
       id="linearGradient3737-6">
      <stop
         id="stop3739-4"
         style="stop-color:#ffffff;stop-opacity:1"
         offset="0" />
      <stop
         id="stop3741-0"
         style="stop-color:#ffffff;stop-opacity:0"
         offset="1" />
    </linearGradient>
    <linearGradient
       id="linearGradient3700-4">
      <stop
         id="stop3702-4"
         style="stop-color:#ff0000;stop-opacity:1;"
         offset="0" />
      <stop
         id="stop3704-0"
         style="stop-color:#d40000;stop-opacity:1;"
         offset="1" />
    </linearGradient>
    <filter
       color-interpolation-filters="sRGB"
       id="filter3174-3">
      <feGaussianBlur
         id="feGaussianBlur3176-5"
         stdDeviation="1.71" />
    </filter>
    <filter
       x="-0.192"
       y="-0.192"
       width="1.3839999"
       height="1.3839999"
       color-interpolation-filters="sRGB"
       id="filter3794-6">
      <feGaussianBlur
         id="feGaussianBlur3796-7"
         stdDeviation="5.28" />
    </filter>
    <linearGradient
       x1="48"
       y1="20.220806"
       x2="48"
       y2="138.66119"
       id="linearGradient3613-3"
       xlink:href="#linearGradient3737-6"
       gradientUnits="userSpaceOnUse" />
    <clipPath
       id="clipPath3613-2">
      <rect
         width="84"
         height="84"
         rx="6"
         ry="6"
         x="6"
         y="6"
         id="rect3615-3"
         style="fill:#ffffff;fill-opacity:1;fill-rule:nonzero;stroke:none" />
    </clipPath>
    <clipPath
       id="clipPath3625-0">
      <path
         d="M 0,0 0,96 96,96 96,0 0,0 z m 12,6 72,0 c 3.324,0 6,2.676 6,6 l 0,72 c 0,3.324 -2.676,6 -6,6 L 12,90 C 8.676,90 6,87.324 6,84 L 6,12 C 6,8.676 8.676,6 12,6 z"
         inkscape:connector-curvature="0"
         id="path3627-6"
         style="fill:#ffffff;fill-opacity:1;stroke:none" />
    </clipPath>
    <clipPath
       id="clipPath3649-6">
      <rect
         width="76"
         height="76"
         rx="4"
         ry="4"
         x="10"
         y="10"
         id="rect3651-1"
         style="fill:#ffffff;fill-opacity:1;fill-rule:nonzero;stroke:none" />
    </clipPath>
    <filter
       color-interpolation-filters="sRGB"
       id="filter3657-3">
      <feGaussianBlur
         id="feGaussianBlur3659-0"
         stdDeviation="1.14" />
    </filter>
    <style
       type="text/css"
       id="style2464-3" />
    <style
       type="text/css"
       id="style2464" />
    <linearGradient
       inkscape:collect="always"
       xlink:href="#ButtonShadow-1"
       id="linearGradient3670"
       gradientUnits="userSpaceOnUse"
       gradientTransform="scale(1.0058652,0.994169)"
       x1="45.447727"
       y1="92.539597"
       x2="45.447727"
       y2="7.0165396" />
    <linearGradient
       inkscape:collect="always"
       xlink:href="#linearGradient3637-1"
       id="linearGradient3672"
       gradientUnits="userSpaceOnUse"
       x1="44.512066"
       y1="6"
       x2="44.512066"
       y2="90.015434" />
    <linearGradient
       inkscape:collect="always"
       xlink:href="#linearGradient3737-6"
       id="linearGradient3674"
       gradientUnits="userSpaceOnUse"
       x1="36.357143"
       y1="6"
       x2="36.357143"
       y2="63.893143" />
    <radialGradient
       inkscape:collect="always"
       xlink:href="#linearGradient3737-6"
       id="radialGradient3676"
       gradientUnits="userSpaceOnUse"
       gradientTransform="matrix(1.1573129,0,0,0.99590774,-7.5510206,0.19713193)"
       cx="48"
       cy="90.171875"
       fx="48"
       fy="90.171875"
       r="42" />
    <linearGradient
       inkscape:collect="always"
       xlink:href="#linearGradient3700-4"
       id="linearGradient3678"
       gradientUnits="userSpaceOnUse"
       gradientTransform="translate(0,100)"
       x1="48"
       y1="90"
       x2="48"
       y2="5.9877172" />
    <linearGradient
       inkscape:collect="always"
       xlink:href="#linearGradient3737-6"
       id="linearGradient3680"
       gradientUnits="userSpaceOnUse"
       x1="48"
       y1="20.220806"
       x2="48"
       y2="138.66119" />
    <linearGradient
       inkscape:collect="always"
       xlink:href="#linearGradient3700-4"
       id="linearGradient3682"
       gradientUnits="userSpaceOnUse"
       gradientTransform="matrix(15.9838,0,0,15.9838,-61.425847,37.706123)"
       x1="7.8611608"
       y1="-1.0000001"
       x2="7.8611608"
       y2="12" />
  </defs>
  <sodipodi:namedview
     id="base"
     pagecolor="#ffffff"
     bordercolor="#666666"
     borderopacity="1.0"
     inkscape:pageopacity="0.0"
     inkscape:pageshadow="2"
     inkscape:zoom="1.6484375"
     inkscape:cx="128"
     inkscape:cy="128"
     inkscape:document-units="px"
     inkscape:current-layer="layer1"
     showgrid="false"
     inkscape:window-width="1024"
     inkscape:window-height="572"
     inkscape:window-x="0"
     inkscape:window-y="28"
     inkscape:window-maximized="1"
     showguides="true"
     inkscape:guide-bbox="true"
     inkscape:snap-bbox="true"
     inkscape:bbox-paths="true"
     inkscape:bbox-nodes="true"
     inkscape:snap-bbox-edge-midpoints="true"
     inkscape:snap-bbox-midpoints="true"
     inkscape:object-paths="true"
     inkscape:snap-intersection-paths="true"
     inkscape:object-nodes="true"
     inkscape:snap-smooth-nodes="true"
     inkscape:snap-midpoints="true"
     inkscape:snap-object-midpoints="true"
     inkscape:snap-center="true"
     inkscape:snap-global="true"
     fit-margin-top="0"
     fit-margin-left="0"
     fit-margin-right="0"
     fit-margin-bottom="0" />
  <metadata
     id="metadata3198">
    <rdf:RDF>
      <cc:Work
         rdf:about="">
        <dc:format>image/svg+xml</dc:format>
        <dc:type
           rdf:resource="http://purl.org/dc/dcmitype/StillImage" />
        <dc:title></dc:title>
      </cc:Work>
    </rdf:RDF>
  </metadata>
  <g
     inkscape:label="Layer 1"
     inkscape:groupmode="layer"
     id="layer1"
     transform="translate(-10.531551,-795.56063)">
    <g
       id="g5975">
      <path
         inkscape:connector-curvature="0"
         id="path4024"
         d="m 149.5003,804.56063 -117.968749,51.9375 0,116.0625 121.437499,69.99997 30.3125,-30.2812 63.625,-63.46877 0,-101.03125 c -13.26715,-15.75166 -27.95765,-20.42367 -51.4375,-23.625 -9.71693,-8.99199 -21.27032,-16.8603 -45.96875,-19.59375 z"
         style="opacity:0.05;fill:none;stroke:#000000;stroke-width:18;stroke-linejoin:round;stroke-miterlimit:4;stroke-opacity:1;stroke-dasharray:none" />
      <path
         inkscape:connector-curvature="0"
         style="opacity:0.1;fill:none;stroke:#000000;stroke-width:12;stroke-linejoin:round;stroke-miterlimit:4;stroke-opacity:1;stroke-dasharray:none"
         d="m 149.5003,804.56063 -117.968749,51.9375 0,116.0625 121.437499,69.99997 30.3125,-30.2812 63.625,-63.46877 0,-101.03125 c -13.26715,-15.75166 -27.95765,-20.42367 -51.4375,-23.625 -9.71693,-8.99199 -21.27032,-16.8603 -45.96875,-19.59375 z"
         id="path4022" />
      <path
         inkscape:connector-curvature="0"
         id="path3965"
         d="m 149.5003,804.56063 -117.968749,51.9375 0,116.0625 121.437499,69.99997 30.3125,-30.2812 63.625,-63.46877 0,-101.03125 c -13.26715,-15.75166 -27.95765,-20.42367 -51.4375,-23.625 -9.71693,-8.99199 -21.27032,-16.8603 -45.96875,-19.59375 z"
         style="opacity:0.15;fill:none;stroke:#000000;stroke-width:6;stroke-linejoin:round;stroke-miterlimit:4;stroke-opacity:1;stroke-dasharray:none" />
      <g
         transform="translate(-3.0625,2.96875)"
         id="g3899">
        <path
           id="path3880"
           d="M 34.58305,853.52426 56.488421,965.00364 186.35494,1009.3255 164.44282,897.8117 34.58305,853.52426 z"
           style="fill:url(#linearGradient4034);fill-opacity:1;fill-rule:evenodd;stroke:none"
           inkscape:connector-curvature="0" />
        <path
           inkscape:connector-curvature="0"
           style="fill:url(#linearGradient4036);fill-opacity:1;fill-rule:evenodd;stroke:none"
           d="m 34.58305,853.52424 0,116.06087 121.44746,70.00729 0,-116.09657 -121.44746,-69.97159 z"
           id="path3912" />
        <path
           style="fill:url(#linearGradient4038);fill-opacity:1;fill-rule:evenodd;stroke:none"
           d="m 249.96192,844.81419 -93.91556,78.66901 0,116.0964 93.91556,-93.7469 0,-101.01851 z"
           id="path3961"
           inkscape:connector-curvature="0" />
        <path
           style="fill:url(#linearGradient4040);fill-opacity:1;fill-rule:evenodd;stroke:none"
           d="M 198.16454,821.13465 91.046417,890.48131 c 21.763723,4.56939 44.389293,14.65715 64.999943,33.00189 l 93.91556,-78.66901 0,0 C 236.62256,828.9768 221.86886,824.33757 198.16454,821.13465 z"
           id="path3963"
           inkscape:connector-curvature="0"
           sodipodi:nodetypes="cccccc" />
        <path
           inkscape:connector-curvature="0"
           sodipodi:nodetypes="ccccc"
           id="path3971"
           d="m 34.58305,853.52426 c 35.247985,15.18672 38.22978,18.98476 56.463367,36.95705 L 198.56579,821.22003 c -9.72365,-9.0045 -21.287,-16.89117 -46.01295,-19.62767 z"
           style="fill:url(#linearGradient4042);fill-opacity:1;fill-rule:evenodd;stroke:none" />
      </g>
      <path
         inkscape:connector-curvature="0"
         id="path4002"
         d="m 149.5003,804.56063 -117.968749,51.9375 0,2 117.968749,-51.9375 c 24.69843,2.73345 36.25182,10.60176 45.96875,19.59375 23.47985,3.20133 38.17035,7.87334 51.4375,23.625 l 0,-2 c -13.26715,-15.75166 -27.95765,-20.42367 -51.4375,-23.625 -9.71693,-8.99199 -21.27032,-16.8603 -45.96875,-19.59375 z"
         style="opacity:0.7;fill:#ffffff;fill-opacity:1;fill-rule:evenodd;stroke:none" />
      <path
         inkscape:connector-curvature="0"
         id="path4011"
         d="m 246.90655,946.81063 -63.625,63.46877 -30.3125,30.2812 -121.437499,-69.99997 0,2 121.437499,69.99997 30.3125,-30.2812 63.625,-63.46877 0,-2 z"
         style="opacity:0.7;fill:#000000;fill-opacity:1;fill-rule:evenodd;stroke:none" />
      <path
         inkscape:connector-curvature="0"
         style="opacity:0.3;fill:#000000;fill-opacity:1;fill-rule:evenodd;stroke:none"
         d="m 246.90655,948.81063 -63.625,63.46867 -30.3125,30.2813 -121.437499,-69.99997 0,2 121.437499,69.99997 30.3125,-30.2813 63.625,-63.46867 0,-2 z"
         id="path4020" />
    </g>
    <g
       id="g19211"
       transform="matrix(0.68085108,0,0,0.68085108,114.77167,884.1745)">
      <g
         transform="translate(0,160)"
         style="display:none"
         id="layer2">
        <rect
           style="opacity:0.9;fill:url(#linearGradient3670);fill-opacity:1;fill-rule:nonzero;stroke:none;filter:url(#filter3174-3)"
           id="rect3745"
           clip-path="url(#clipPath3625-0)"
           y="7"
           x="5"
           ry="6"
           rx="6"
           height="85"
           width="86" />
      </g>
      <g
         transform="translate(0,160)"
         style="display:none"
         id="layer1-4">
        <rect
           style="opacity:0.8;fill:#000000;fill-opacity:1;fill-rule:nonzero;stroke:none"
           id="rect2419"
           y="6"
           x="6"
           ry="6"
           rx="6"
           height="84"
           width="84" />
        <path
           style="opacity:0.07999998;fill:#000000;fill-opacity:1;fill-rule:nonzero;stroke:none"
           id="rect3726"
           inkscape:connector-curvature="0"
           d="m 14,10 c -2.216,0 -4,1.784 -4,4 l 0,68 c 0,2.216 1.784,4 4,4 l 68,0 c 2.216,0 4,-1.784 4,-4 l 0,-68 c 0,-2.216 -1.784,-4 -4,-4 l -68,0 z m 0,3.0625 68,0 c 0.578769,0 0.9375,0.358731 0.9375,0.9375 l 0,68 c 0,0.578769 -0.358731,0.9375 -0.9375,0.9375 l -68,0 c -0.578769,0 -0.9375,-0.358731 -0.9375,-0.9375 l 0,-68 c 0,-0.578769 0.358731,-0.9375 0.9375,-0.9375 z" />
        <path
           style="fill:url(#linearGradient3672);fill-opacity:1;fill-rule:nonzero;stroke:none"
           id="rect3629"
           inkscape:connector-curvature="0"
           d="M 12,6 C 8.676,6 6,8.676 6,12 l 0,72 c 0,3.324 2.676,6 6,6 l 72,0 c 3.324,0 6,-2.676 6,-6 L 90,12 C 90,8.676 87.324,6 84,6 L 12,6 z m 2,4 68,0 c 2.216,0 4,1.784 4,4 l 0,68 c 0,2.216 -1.784,4 -4,4 l -68,0 c -2.216,0 -4,-1.784 -4,-4 l 0,-68 c 0,-2.216 1.784,-4 4,-4 z" />
        <path
           style="fill:url(#linearGradient3674);fill-opacity:1;fill-rule:nonzero;stroke:none"
           id="rect3728"
           inkscape:connector-curvature="0"
           d="M 12,6 C 8.676,6 6,8.676 6,12 l 0,2 0,68 0,2 c 0,0.334721 0.04135,0.6507 0.09375,0.96875 0.0487,0.295596 0.09704,0.596915 0.1875,0.875 0.00988,0.03038 0.020892,0.0636 0.03125,0.09375 0.098865,0.287771 0.2348802,0.547452 0.375,0.8125 0.1445918,0.273507 0.3156161,0.535615 0.5,0.78125 0.1843839,0.245635 0.3737765,0.473472 0.59375,0.6875 0.439947,0.428056 0.94291,0.814526 1.5,1.09375 0.278545,0.139612 0.5734731,0.246947 0.875,0.34375 -0.2562018,-0.100222 -0.4867109,-0.236272 -0.71875,-0.375 -0.00741,-0.0044 -0.023866,0.0045 -0.03125,0 -0.031933,-0.0193 -0.062293,-0.04251 -0.09375,-0.0625 -0.120395,-0.0767 -0.2310226,-0.163513 -0.34375,-0.25 -0.1061728,-0.0808 -0.2132809,-0.161112 -0.3125,-0.25 C 8.4783201,88.557317 8.3087904,88.373362 8.15625,88.1875 8.0486711,88.057245 7.9378561,87.922215 7.84375,87.78125 7.818661,87.74287 7.805304,87.69538 7.78125,87.65625 7.716487,87.553218 7.6510225,87.451733 7.59375,87.34375 7.4927417,87.149044 7.3880752,86.928049 7.3125,86.71875 7.30454,86.69694 7.288911,86.6782 7.28125,86.65625 7.2494249,86.5643 7.2454455,86.469419 7.21875,86.375 7.1884177,86.268382 7.1483606,86.171969 7.125,86.0625 7.0521214,85.720988 7,85.364295 7,85 L 7,83 7,15 7,13 C 7,10.218152 9.2181517,8 12,8 l 2,0 68,0 2,0 c 2.781848,0 5,2.218152 5,5 l 0,2 0,68 0,2 c 0,0.364295 -0.05212,0.720988 -0.125,1.0625 -0.04415,0.206893 -0.08838,0.397658 -0.15625,0.59375 -0.0077,0.02195 -0.0233,0.04069 -0.03125,0.0625 -0.06274,0.173739 -0.138383,0.367449 -0.21875,0.53125 -0.04158,0.0828 -0.07904,0.169954 -0.125,0.25 -0.0546,0.09721 -0.126774,0.18835 -0.1875,0.28125 -0.09411,0.140965 -0.204921,0.275995 -0.3125,0.40625 -0.143174,0.17445 -0.303141,0.346998 -0.46875,0.5 -0.01117,0.0102 -0.01998,0.02115 -0.03125,0.03125 -0.138386,0.125556 -0.285091,0.234436 -0.4375,0.34375 -0.102571,0.07315 -0.204318,0.153364 -0.3125,0.21875 -0.0074,0.0045 -0.02384,-0.0044 -0.03125,0 -0.232039,0.138728 -0.462548,0.274778 -0.71875,0.375 0.301527,-0.0968 0.596455,-0.204138 0.875,-0.34375 0.55709,-0.279224 1.060053,-0.665694 1.5,-1.09375 0.219973,-0.214028 0.409366,-0.441865 0.59375,-0.6875 0.184384,-0.245635 0.355408,-0.507743 0.5,-0.78125 0.14012,-0.265048 0.276135,-0.524729 0.375,-0.8125 0.01041,-0.03078 0.02133,-0.06274 0.03125,-0.09375 0.09046,-0.278085 0.1388,-0.579404 0.1875,-0.875 C 89.95865,84.6507 90,84.334721 90,84 l 0,-2 0,-68 0,-2 C 90,8.676 87.324,6 84,6 L 12,6 z" />
        <path
           style="opacity:0.6;fill:url(#radialGradient3676);fill-opacity:1;fill-rule:nonzero;stroke:none"
           id="path3615"
           inkscape:connector-curvature="0"
           d="M 12,90 C 8.676,90 6,87.324 6,84 L 6,82 6,14 6,12 c 0,-0.334721 0.04135,-0.6507 0.09375,-0.96875 0.0487,-0.295596 0.09704,-0.596915 0.1875,-0.875 C 6.29113,10.12587 6.302142,10.09265 6.3125,10.0625 6.411365,9.774729 6.5473802,9.515048 6.6875,9.25 6.8320918,8.976493 7.0031161,8.714385 7.1875,8.46875 7.3718839,8.223115 7.5612765,7.995278 7.78125,7.78125 8.221197,7.353194 8.72416,6.966724 9.28125,6.6875 9.559795,6.547888 9.8547231,6.440553 10.15625,6.34375 9.9000482,6.443972 9.6695391,6.580022 9.4375,6.71875 c -0.00741,0.0044 -0.023866,-0.0045 -0.03125,0 -0.031933,0.0193 -0.062293,0.04251 -0.09375,0.0625 -0.120395,0.0767 -0.2310226,0.163513 -0.34375,0.25 -0.1061728,0.0808 -0.2132809,0.161112 -0.3125,0.25 C 8.4783201,7.442683 8.3087904,7.626638 8.15625,7.8125 8.0486711,7.942755 7.9378561,8.077785 7.84375,8.21875 7.818661,8.25713 7.805304,8.30462 7.78125,8.34375 7.716487,8.446782 7.6510225,8.548267 7.59375,8.65625 7.4927417,8.850956 7.3880752,9.071951 7.3125,9.28125 7.30454,9.30306 7.288911,9.3218 7.28125,9.34375 7.2494249,9.4357 7.2454455,9.530581 7.21875,9.625 7.1884177,9.731618 7.1483606,9.828031 7.125,9.9375 7.0521214,10.279012 7,10.635705 7,11 l 0,2 0,68 0,2 c 0,2.781848 2.2181517,5 5,5 l 2,0 68,0 2,0 c 2.781848,0 5,-2.218152 5,-5 l 0,-2 0,-68 0,-2 C 89,10.635705 88.94788,10.279012 88.875,9.9375 88.83085,9.730607 88.78662,9.539842 88.71875,9.34375 88.71105,9.3218 88.69545,9.30306 88.6875,9.28125 88.62476,9.107511 88.549117,8.913801 88.46875,8.75 88.42717,8.6672 88.38971,8.580046 88.34375,8.5 88.28915,8.40279 88.216976,8.31165 88.15625,8.21875 88.06214,8.077785 87.951329,7.942755 87.84375,7.8125 87.700576,7.63805 87.540609,7.465502 87.375,7.3125 87.36383,7.3023 87.35502,7.29135 87.34375,7.28125 87.205364,7.155694 87.058659,7.046814 86.90625,6.9375 86.803679,6.86435 86.701932,6.784136 86.59375,6.71875 c -0.0074,-0.0045 -0.02384,0.0044 -0.03125,0 -0.232039,-0.138728 -0.462548,-0.274778 -0.71875,-0.375 0.301527,0.0968 0.596455,0.204138 0.875,0.34375 0.55709,0.279224 1.060053,0.665694 1.5,1.09375 0.219973,0.214028 0.409366,0.441865 0.59375,0.6875 0.184384,0.245635 0.355408,0.507743 0.5,0.78125 0.14012,0.265048 0.276135,0.524729 0.375,0.8125 0.01041,0.03078 0.02133,0.06274 0.03125,0.09375 0.09046,0.278085 0.1388,0.579404 0.1875,0.875 C 89.95865,11.3493 90,11.665279 90,12 l 0,2 0,68 0,2 c 0,3.324 -2.676,6 -6,6 l -72,0 z" />
        <rect
           style="fill:url(#linearGradient3678);fill-opacity:1;fill-rule:nonzero;stroke:none"
           id="rect2841"
           y="106"
           x="6"
           ry="6"
           rx="6"
           height="84"
           width="84" />
        <rect
           style="fill:#ff0000;fill-opacity:1;fill-rule:nonzero;stroke:none"
           id="rect3634"
           y="110"
           x="10"
           ry="4"
           rx="4"
           height="76"
           width="76" />
        <path
           style="font-size:medium;font-style:normal;font-variant:normal;font-weight:normal;font-stretch:normal;text-indent:0;text-align:start;text-decoration:none;line-height:normal;letter-spacing:normal;word-spacing:normal;text-transform:none;direction:ltr;block-progression:tb;writing-mode:lr-tb;text-anchor:start;color:#000000;fill:#000000;fill-opacity:1;stroke:none;stroke-width:2;marker:none;visibility:visible;display:inline;overflow:visible;filter:url(#filter3657-3);enable-background:accumulate;font-family:Abandoned Bitplane;-inkscape-font-specification:Abandoned Bitplane"
           id="rect3647"
           clip-path="url(#clipPath3649-6)"
           transform="translate(-110,0)"
           inkscape:connector-curvature="0"
           d="m 14,9 c -2.752703,0 -5,2.247297 -5,5 l 0,68 c 0,2.752703 2.247297,5 5,5 l 68,0 c 2.752703,0 5,-2.247297 5,-5 L 87,14 C 87,11.247297 84.752703,9 82,9 L 14,9 z m 0,2 68,0 c 1.679297,0 3,1.320703 3,3 l 0,68 c 0,1.679297 -1.320703,3 -3,3 l -68,0 c -1.679297,0 -3,-1.320703 -3,-3 l 0,-68 c 0,-1.679297 1.320703,-3 3,-3 z" />
        <path
           style="opacity:0.16000001;fill:#000000;fill-opacity:1;fill-rule:nonzero;stroke:none"
           id="path3709"
           inkscape:connector-curvature="0"
           d="m 14.089286,10 c -2.216,0 -4,1.784 -4,4 l 0,68 c 0,2.216 1.784,4 4,4 l 68,0 c 2.216,0 4,-1.784 4,-4 l 0,-68 c 0,-2.216 -1.784,-4 -4,-4 l -68,0 z m 0,2 68,0 c 1.140301,0 2,0.859699 2,2 l 0,68 c 0,1.140301 -0.859699,2 -2,2 l -68,0 c -1.140301,0 -2,-0.859699 -2,-2 l 0,-68 c 0,-1.140301 0.859699,-2 2,-2 z" />
        <path
           style="opacity:0.36000001;fill:#000000;fill-opacity:1;fill-rule:nonzero;stroke:none"
           id="path3707"
           inkscape:connector-curvature="0"
           d="m 14,10 c -2.216,0 -4,1.784 -4,4 l 0,68 c 0,2.216 1.784,4 4,4 l 68,0 c 2.216,0 4,-1.784 4,-4 l 0,-68 c 0,-2.216 -1.784,-4 -4,-4 l -68,0 z m 0,1 68,0 c 1.673848,0 3,1.326152 3,3 l 0,68 c 0,1.673848 -1.326152,3 -3,3 l -68,0 c -1.673848,0 -3,-1.326152 -3,-3 l 0,-68 c 0,-1.673848 1.326152,-3 3,-3 z" />
      </g>
      <g
         transform="translate(0,160)"
         style="display:none"
         id="layer5">
        <rect
           style="opacity:0.1;fill:url(#linearGradient3680);fill-opacity:1;fill-rule:nonzero;stroke:#ffffff;stroke-width:1.17499995;stroke-linecap:round;stroke-linejoin:miter;stroke-miterlimit:4;stroke-opacity:1;stroke-dasharray:none;stroke-dashoffset:0;filter:url(#filter3794-6)"
           id="rect3171"
           clip-path="url(#clipPath3613-2)"
           y="15"
           x="15"
           ry="12"
           rx="12"
           height="66"
           width="66" />
      </g>
      <g
         id="g3821">
        <path
           style="opacity:0.1;fill:#000000;fill-opacity:1;stroke:none;display:inline"
           id="path3896"
           inkscape:connector-curvature="0"
           d="m 96.192974,10.89996 c -14.453111,-0.764878 -29.013185,9.229632 -31.312173,23.942026 -1.62933,14.165749 -0.474932,28.523304 -0.821924,42.775685 -0.461079,3.376844 1.879972,9.555808 -3.640385,7.873353 -15.801472,-1.278011 -29.979609,13.529221 -28.327214,29.233096 0.09148,35.62026 -0.183707,71.2522 0.138899,106.86512 1.129101,14.78102 15.827148,25.84357 30.30766,24.07277 45.871633,-0.0922 91.754993,0.18435 137.619263,-0.13905 14.781,-1.1291 25.84359,-15.82716 24.07278,-30.30769 -0.0915,-35.21577 0.18371,-70.44321 -0.1389,-105.65163 -1.1291,-14.78102 -15.82715,-25.843567 -30.30766,-24.072775 -3.33317,-0.409719 -0.6649,-6.820927 -1.52105,-9.707708 -0.31296,-13.545204 0.72833,-27.179492 -0.74178,-40.651597 -2.0488,-14.944959 -16.78402,-25.097656 -31.39232,-24.23176 -21.31173,0 -42.62346,0 -63.935196,0 z m 10.822366,42.956461 c 14.09682,0 28.19365,0 42.29047,0 0,10.544886 0,21.089718 0,31.634603 -14.09682,0 -28.19365,0 -42.29047,0 0,-10.544885 0,-21.089717 0,-31.634603 z" />
        <path
           inkscape:connector-curvature="0"
           style="opacity:0.15;fill:#000000;fill-opacity:1;stroke:none;display:inline"
           id="path3892"
           d="m 96.192974,16.727387 c -7.606631,0 -14.390646,2.269859 -19.14726,6.992912 -4.756613,4.723053 -7.15941,11.592943 -7.15941,19.313758 l 0,48.284394 -10.988862,0 c -11.552238,0 -20.978737,9.426499 -20.978737,20.978739 l 0,106.55866 c 0,11.55224 9.426499,20.97874 20.978737,20.97874 l 138.526268,0 c 11.55224,0 20.97873,-9.4265 20.97873,-20.97874 l 0,-106.55866 c 0,-11.55224 -9.42649,-20.978739 -20.97873,-20.978739 l -10.98887,0 0,-48.284394 c 0,-7.350151 -2.18799,-14.140335 -6.82641,-18.980762 -4.63842,-4.840427 -11.44358,-7.325908 -19.48026,-7.325908 l -63.935196,0 z m 7.991906,31.301607 47.95139,0 c 1.7303,0 2.99697,1.266663 2.99697,2.996962 l 0,40.292495 -53.94533,0 0,-40.292495 c 0,-1.730299 1.26667,-2.996962 2.99697,-2.996962 z" />
        <path
           style="opacity:0.3;fill:#000000;fill-opacity:1;stroke:none;display:inline"
           id="path3886"
           inkscape:connector-curvature="0"
           d="m 96.19298,21.722324 c -13.211847,0 -21.311739,7.892427 -21.311739,21.311733 l 0,53.279332 -15.983799,0 c -8.855025,0 -15.9838,7.128771 -15.9838,15.983801 l 0,106.55866 c 0,8.85503 7.128775,15.9838 15.9838,15.9838 l 138.526268,0 c 8.85502,0 15.9838,-7.12877 15.9838,-15.9838 l 0,-106.55866 c 0,-8.85503 -7.12878,-15.983801 -15.9838,-15.983801 l -15.9838,0 0,-53.279332 c 0,-12.796897 -7.27002,-21.311733 -21.31174,-21.311733 z m 7.9919,21.311733 47.95139,0 c 4.42752,0 7.9919,3.564387 7.9919,7.991899 l 0,45.287433 -63.93519,0 0,-45.287433 c 0,-4.427512 3.564387,-7.991899 7.9919,-7.991899 z" />
        <path
           style="fill:url(#linearGradient3682);fill-opacity:1;stroke:none;display:inline"
           id="rect2953"
           inkscape:connector-curvature="0"
           d="m 96.19298,16.394391 c -13.211847,0 -21.311739,7.892427 -21.311739,21.311732 l 0,53.279333 -15.983799,0 c -8.855025,0 -15.9838,7.128774 -15.9838,15.983804 l 0,106.55866 c 0,8.85502 7.128775,15.9838 15.9838,15.9838 l 138.526268,0 c 8.85502,0 15.9838,-7.12878 15.9838,-15.9838 l 0,-106.55866 c 0,-8.85503 -7.12878,-15.983804 -15.9838,-15.983804 l -15.9838,0 0,-53.279333 c 0,-12.796896 -7.27002,-21.311732 -21.31174,-21.311732 z m 7.9919,21.311732 47.95139,0 c 4.42752,0 7.9919,3.564388 7.9919,7.9919 l 0,45.287433 -63.93519,0 0,-45.287433 c 0,-4.427512 3.564387,-7.9919 7.9919,-7.9919 z" />
        <path
           style="opacity:0.75;fill:#ffffff;fill-opacity:1;stroke:none;display:inline"
           id="path3868"
           inkscape:connector-curvature="0"
           d="m 96.192974,16.394391 c -13.211846,0 -21.311733,7.892427 -21.311733,21.311732 l 0,5.327934 c 0,-13.419306 8.099887,-21.311733 21.311733,-21.311733 l 63.935196,0 c 14.04172,0 21.31174,8.514836 21.31174,21.311733 l 0,-5.327934 c 0,-12.796896 -7.27002,-21.311732 -21.31174,-21.311732 l -63.935196,0 z M 58.897442,90.985456 c -8.855025,0 -15.9838,7.128774 -15.9838,15.983804 l 0,5.32793 c 0,-8.85503 7.128775,-15.983801 15.9838,-15.983801 l 15.983799,0 0,-5.327933 -15.983799,0 z m 37.295532,0 0,5.327933 63.935196,0 0,-5.327933 -63.935196,0 z m 85.246936,0 0,5.327933 15.9838,0 c 8.85502,0 15.9838,7.128771 15.9838,15.983801 l 0,-5.32793 c 0,-8.85503 -7.12878,-15.983804 -15.9838,-15.983804 l -15.9838,0 z" />
        <path
           style="opacity:0.15;fill:#000000;fill-opacity:1;stroke:none;display:inline"
           id="path3877"
           inkscape:connector-curvature="0"
           d="m 104.18488,32.37819 c -4.427518,0 -7.991906,3.564388 -7.991906,7.9919 l 0,5.327933 c 0,-4.427512 3.564388,-7.9919 7.991906,-7.9919 l 47.95139,0 c 4.42752,0 7.9919,3.564388 7.9919,7.9919 l 0,-5.327933 c 0,-4.427512 -3.56438,-7.9919 -7.9919,-7.9919 l -47.95139,0 z m -61.271238,175.82179 0,5.32794 c 0,8.85502 7.128775,15.9838 15.9838,15.9838 l 138.526268,0 c 8.85502,0 15.9838,-7.12878 15.9838,-15.9838 l 0,-5.32794 c 0,8.85503 -7.12878,15.9838 -15.9838,15.9838 l -138.526268,0 c -8.855025,0 -15.9838,-7.12877 -15.9838,-15.9838 z" />
      </g>
    </g>
  </g>
  <style
     id="style4186"
     type="text/css">

	.st0{fill-rule:evenodd;clip-rule:evenodd;}
	.st1{fill-rule:evenodd;clip-rule:evenodd;fill:#5A9A98;}

</style>
  <style
     id="style4186-8"
     type="text/css">

	.st0{fill-rule:evenodd;clip-rule:evenodd;}
	.st1{fill-rule:evenodd;clip-rule:evenodd;fill:#5A9A98;}

</style>
  <style
     id="style4186-9"
     type="text/css">

	.st0{fill-rule:evenodd;clip-rule:evenodd;}
	.st1{fill-rule:evenodd;clip-rule:evenodd;fill:#5A9A98;}

</style>
  <style
     id="style4186-8-2"
     type="text/css">

	.st0{fill-rule:evenodd;clip-rule:evenodd;}
	.st1{fill-rule:evenodd;clip-rule:evenodd;fill:#5A9A98;}

</style>
</svg>
