<?xml version="1.0" encoding="UTF-8" standalone="no"?>
<!-- Created with Inkscape (http://www.inkscape.org/) -->

<svg
   xmlns:dc="http://purl.org/dc/elements/1.1/"
   xmlns:cc="http://creativecommons.org/ns#"
   xmlns:rdf="http://www.w3.org/1999/02/22-rdf-syntax-ns#"
   xmlns:svg="http://www.w3.org/2000/svg"
   xmlns="http://www.w3.org/2000/svg"
   xmlns:xlink="http://www.w3.org/1999/xlink"
   xmlns:sodipodi="http://sodipodi.sourceforge.net/DTD/sodipodi-0.dtd"
   xmlns:inkscape="http://www.inkscape.org/namespaces/inkscape"
   id="svg2"
   sodipodi:version="0.32"
   inkscape:version="0.48.3.1 r9886"
   width="256"
   height="256"
   version="1.0"
   sodipodi:docname="kt-add-filters.svg">
  <metadata
     id="metadata7">
    <rdf:RDF>
      <cc:Work
         rdf:about="">
        <dc:format>image/svg+xml</dc:format>
        <dc:type
           rdf:resource="http://purl.org/dc/dcmitype/StillImage" />
        <dc:title></dc:title>
      </cc:Work>
    </rdf:RDF>
  </metadata>
  <defs
     id="defs5">
    <linearGradient
       inkscape:collect="always"
       id="linearGradient2811">
      <stop
         style="stop-color:#9fa3d7;stop-opacity:1"
         offset="0"
         id="stop2813" />
      <stop
         style="stop-color:#555abf;stop-opacity:1"
         offset="1"
         id="stop2815" />
    </linearGradient>
    <linearGradient
       id="linearGradient2776">
      <stop
         id="stop2778"
         offset="0"
         style="stop-color:#a8a8a8;stop-opacity:1;" />
      <stop
         id="stop2780"
         offset="1"
         style="stop-color:#f0f0f0;stop-opacity:1;" />
    </linearGradient>
    <linearGradient
       id="linearGradient2760">
      <stop
         style="stop-color:#d7d7d7;stop-opacity:1;"
         offset="0"
         id="stop2762" />
      <stop
         style="stop-color:#ffffff;stop-opacity:1;"
         offset="1"
         id="stop2764" />
    </linearGradient>
    <linearGradient
       inkscape:collect="always"
       xlink:href="#linearGradient2811"
       id="linearGradient2817"
       x1="198.15405"
       y1="44.59111"
       x2="260.61343"
       y2="44.59111"
       gradientUnits="userSpaceOnUse"
       gradientTransform="matrix(1.870225,0,0,1.936588,-249.479,-5.225271)" />
    <linearGradient
       inkscape:collect="always"
       xlink:href="#linearGradient2760"
       id="linearGradient3961"
       gradientUnits="userSpaceOnUse"
       gradientTransform="matrix(2.0114708,0,0,2.0115052,-276.02453,-8.9361788)"
       spreadMethod="reflect"
       x1="205.25932"
       y1="107.19092"
       x2="185.05022"
       y2="103.0775" />
    <linearGradient
       inkscape:collect="always"
       xlink:href="#linearGradient2760"
       id="linearGradient3963"
       gradientUnits="userSpaceOnUse"
       gradientTransform="matrix(2.0114708,0,0,2.0115052,-276.21473,-6.8657573)"
       spreadMethod="reflect"
       x1="206.20779"
       y1="75.97731"
       x2="135.49277"
       y2="50.328918" />
    <linearGradient
       inkscape:collect="always"
       xlink:href="#linearGradient2760"
       id="linearGradient3965"
       gradientUnits="userSpaceOnUse"
       x1="-0.9821372"
       y1="20.688091"
       x2="139.62865"
       y2="30.36673" />
    <linearGradient
       inkscape:collect="always"
       xlink:href="#linearGradient2776"
       id="linearGradient3967"
       gradientUnits="userSpaceOnUse"
       gradientTransform="matrix(1,0,0,1.0175747,0,-4.0070419)"
       x1="8.0230141"
       y1="70.195732"
       x2="245.94823"
       y2="70.195732" />
    <linearGradient
       y2="17.345575"
       x2="11.640054"
       y1="4.6544242"
       x1="11.640054"
       gradientTransform="matrix(13.23757,0,0,13.23757,-17.61327,-17.613269)"
       gradientUnits="userSpaceOnUse"
       id="linearGradient3854"
       xlink:href="#linearGradient3637"
       inkscape:collect="always" />
    <filter
       id="filter3657"
       color-interpolation-filters="sRGB">
      <feGaussianBlur
         stdDeviation="1.14"
         id="feGaussianBlur3659" />
    </filter>
    <clipPath
       id="clipPath3649">
      <rect
         style="fill:#ffffff;fill-opacity:1;fill-rule:nonzero;stroke:none"
         id="rect3651"
         y="10"
         x="10"
         ry="4"
         rx="4"
         height="76"
         width="76" />
    </clipPath>
    <linearGradient
       gradientUnits="userSpaceOnUse"
       xlink:href="#linearGradient3637"
       id="linearGradient3643"
       y2="90.015434"
       x2="44.512066"
       y1="6"
       x1="44.512066" />
    <clipPath
       id="clipPath3625">
      <path
         style="fill:#ffffff;fill-opacity:1;stroke:none"
         id="path3627"
         inkscape:connector-curvature="0"
         d="M 0,0 0,96 96,96 96,0 0,0 z m 12,6 72,0 c 3.324,0 6,2.676 6,6 l 0,72 c 0,3.324 -2.676,6 -6,6 L 12,90 C 8.676,90 6,87.324 6,84 L 6,12 C 6,8.676 8.676,6 12,6 z" />
    </clipPath>
    <linearGradient
       gradientTransform="translate(0,100)"
       gradientUnits="userSpaceOnUse"
       xlink:href="#linearGradient3700"
       id="linearGradient2843"
       y2="5.9877172"
       x2="48"
       y1="90"
       x1="48" />
    <clipPath
       id="clipPath3613">
      <rect
         style="fill:#ffffff;fill-opacity:1;fill-rule:nonzero;stroke:none"
         id="rect3615"
         y="6"
         x="6"
         ry="6"
         rx="6"
         height="84"
         width="84" />
    </clipPath>
    <radialGradient
       gradientTransform="matrix(1.1573129,0,0,0.99590774,-7.5510206,0.19713193)"
       gradientUnits="userSpaceOnUse"
       xlink:href="#linearGradient3737"
       id="radialGradient3619"
       fy="90.171875"
       fx="48"
       r="42"
       cy="90.171875"
       cx="48" />
    <linearGradient
       gradientUnits="userSpaceOnUse"
       xlink:href="#linearGradient3737"
       id="linearGradient3613"
       y2="138.66119"
       x2="48"
       y1="20.220806"
       x1="48" />
    <filter
       id="filter3794"
       color-interpolation-filters="sRGB"
       height="1.3839999"
       width="1.3839999"
       y="-0.192"
       x="-0.192">
      <feGaussianBlur
         stdDeviation="5.28"
         id="feGaussianBlur3796" />
    </filter>
    <linearGradient
       gradientUnits="userSpaceOnUse"
       xlink:href="#linearGradient3737"
       id="linearGradient3188"
       y2="63.893143"
       x2="36.357143"
       y1="6"
       x1="36.357143" />
    <filter
       id="filter3174"
       color-interpolation-filters="sRGB">
      <feGaussianBlur
         stdDeviation="1.71"
         id="feGaussianBlur3176" />
    </filter>
    <linearGradient
       id="linearGradient3700">
      <stop
         offset="0"
         style="stop-color:#2276c5;stop-opacity:1"
         id="stop3702" />
      <stop
         offset="1"
         style="stop-color:#68baf4;stop-opacity:1"
         id="stop3704" />
    </linearGradient>
    <linearGradient
       id="linearGradient3737">
      <stop
         offset="0"
         style="stop-color:#ffffff;stop-opacity:1"
         id="stop3739" />
      <stop
         offset="1"
         style="stop-color:#ffffff;stop-opacity:0"
         id="stop3741" />
    </linearGradient>
    <linearGradient
       gradientTransform="scale(1.0058652,0.994169)"
       gradientUnits="userSpaceOnUse"
       id="ButtonShadow"
       y2="7.0165396"
       x2="45.447727"
       y1="92.539597"
       x1="45.447727">
      <stop
         offset="0"
         style="stop-color:#000000;stop-opacity:1"
         id="stop3750" />
      <stop
         offset="1"
         style="stop-color:#000000;stop-opacity:0.58823532"
         id="stop3752" />
    </linearGradient>
    <linearGradient
       id="linearGradient3637">
      <stop
         offset="0"
         style="stop-color:#5a5a5a;stop-opacity:1;"
         id="stop3639" />
      <stop
         offset="1"
         style="stop-color:#000000;stop-opacity:1;"
         id="stop3641" />
    </linearGradient>
  </defs>
  <sodipodi:namedview
     inkscape:window-height="553"
     inkscape:window-width="1024"
     inkscape:pageshadow="2"
     inkscape:pageopacity="0.0"
     guidetolerance="10.0"
     gridtolerance="10.0"
     objecttolerance="10.0"
     borderopacity="1.0"
     bordercolor="#666666"
     pagecolor="#ffffff"
     id="base"
     inkscape:zoom="1.4960938"
     inkscape:cx="128"
     inkscape:cy="128"
     inkscape:window-x="-4"
     inkscape:window-y="24"
     inkscape:current-layer="svg2"
     width="256px"
     height="256px"
     showgrid="false"
     inkscape:snap-bbox="true"
     inkscape:bbox-paths="true"
     inkscape:bbox-nodes="true"
     inkscape:snap-bbox-edge-midpoints="true"
     inkscape:snap-bbox-midpoints="true"
     inkscape:object-paths="true"
     inkscape:snap-intersection-paths="true"
     inkscape:object-nodes="true"
     inkscape:snap-smooth-nodes="true"
     inkscape:snap-midpoints="true"
     inkscape:snap-object-midpoints="true"
     inkscape:snap-center="true"
     inkscape:snap-page="true"
     inkscape:window-maximized="1" />
  <g
     id="g4014">
    <path
       id="path4012"
       d="M 128 28 C 96.085479 28 67.202212 31.909209 45.90625 38.34375 C 35.258269 41.561019 26.510366 45.393908 20.0625 50 C 16.900458 52.258833 14.192818 54.814232 12.25 57.65625 C 12.211973 57.711877 12.162436 57.75665 12.125 57.8125 C 12.107386 57.835349 12.07997 57.852134 12.0625 57.875 C 10.068866 60.484481 9 63.207503 9 66 C 9 66.310277 9.0053911 66.597855 9.03125 66.90625 C 9.0337907 66.936551 9.0284613 66.969718 9.03125 67 C 9.0267251 67.15549 9.03125 67.312064 9.03125 67.46875 C 9.03125 74.492268 13.614633 80.300157 20.0625 84.90625 C 23.602647 87.435186 27.852597 89.723898 32.71875 91.8125 L 105.875 183.9375 C 105.92715 183.96019 105.9791 183.97746 106.03125 184 L 105.5625 221.78125 C 121.25803 229.7481 139.34838 230.42861 155.65625 221.78125 L 157.09375 183.78125 L 228.09375 89.5625 C 230.97339 88.102139 233.62464 86.558466 235.9375 84.90625 C 242.38536 80.300157 246.9375 74.492268 246.9375 67.46875 C 246.9375 67.374738 246.93913 67.281081 246.9375 67.1875 C 246.98106 66.787612 247 66.40309 247 66 C 247 62.984338 245.75193 60.049027 243.4375 57.25 C 243.37064 57.169145 243.31866 57.080637 243.25 57 C 241.3506 54.424912 238.84965 52.080321 235.9375 50 C 229.48964 45.393908 220.77299 41.561019 210.125 38.34375 C 188.82904 31.909209 159.91452 28 128 28 z "
       style="fill:none;fill-opacity:1;fill-rule:evenodd;stroke:#000000;stroke-opacity:1;stroke-width:18;stroke-miterlimit:4;stroke-dasharray:none;stroke-linejoin:round;opacity:0.05" />
    <path
       style="fill:none;fill-opacity:1;fill-rule:evenodd;stroke:#000000;stroke-opacity:1;stroke-width:12;stroke-miterlimit:4;stroke-dasharray:none;stroke-linejoin:round;opacity:0.1"
       d="M 128 28 C 96.085479 28 67.202212 31.909209 45.90625 38.34375 C 35.258269 41.561019 26.510366 45.393908 20.0625 50 C 16.900458 52.258833 14.192818 54.814232 12.25 57.65625 C 12.211973 57.711877 12.162436 57.75665 12.125 57.8125 C 12.107386 57.835349 12.07997 57.852134 12.0625 57.875 C 10.068866 60.484481 9 63.207503 9 66 C 9 66.310277 9.0053911 66.597855 9.03125 66.90625 C 9.0337907 66.936551 9.0284613 66.969718 9.03125 67 C 9.0267251 67.15549 9.03125 67.312064 9.03125 67.46875 C 9.03125 74.492268 13.614633 80.300157 20.0625 84.90625 C 23.602647 87.435186 27.852597 89.723898 32.71875 91.8125 L 105.875 183.9375 C 105.92715 183.96019 105.9791 183.97746 106.03125 184 L 105.5625 221.78125 C 121.25803 229.7481 139.34838 230.42861 155.65625 221.78125 L 157.09375 183.78125 L 228.09375 89.5625 C 230.97339 88.102139 233.62464 86.558466 235.9375 84.90625 C 242.38536 80.300157 246.9375 74.492268 246.9375 67.46875 C 246.9375 67.374738 246.93913 67.281081 246.9375 67.1875 C 246.98106 66.787612 247 66.40309 247 66 C 247 62.984338 245.75193 60.049027 243.4375 57.25 C 243.37064 57.169145 243.31866 57.080637 243.25 57 C 241.3506 54.424912 238.84965 52.080321 235.9375 50 C 229.48964 45.393908 220.77299 41.561019 210.125 38.34375 C 188.82904 31.909209 159.91452 28 128 28 z "
       id="path4010" />
    <path
       id="path3971"
       d="M 128 28 C 96.085479 28 67.202212 31.909209 45.90625 38.34375 C 35.258269 41.561019 26.510366 45.393908 20.0625 50 C 16.900458 52.258833 14.192818 54.814232 12.25 57.65625 C 12.211973 57.711877 12.162436 57.75665 12.125 57.8125 C 12.107386 57.835349 12.07997 57.852134 12.0625 57.875 C 10.068866 60.484481 9 63.207503 9 66 C 9 66.310277 9.0053911 66.597855 9.03125 66.90625 C 9.0337907 66.936551 9.0284613 66.969718 9.03125 67 C 9.0267251 67.15549 9.03125 67.312064 9.03125 67.46875 C 9.03125 74.492268 13.614633 80.300157 20.0625 84.90625 C 23.602647 87.435186 27.852597 89.723898 32.71875 91.8125 L 105.875 183.9375 C 105.92715 183.96019 105.9791 183.97746 106.03125 184 L 105.5625 221.78125 C 121.25803 229.7481 139.34838 230.42861 155.65625 221.78125 L 157.09375 183.78125 L 228.09375 89.5625 C 230.97339 88.102139 233.62464 86.558466 235.9375 84.90625 C 242.38536 80.300157 246.9375 74.492268 246.9375 67.46875 C 246.9375 67.374738 246.93913 67.281081 246.9375 67.1875 C 246.98106 66.787612 247 66.40309 247 66 C 247 62.984338 245.75193 60.049027 243.4375 57.25 C 243.37064 57.169145 243.31866 57.080637 243.25 57 C 241.3506 54.424912 238.84965 52.080321 235.9375 50 C 229.48964 45.393908 220.77299 41.561019 210.125 38.34375 C 188.82904 31.909209 159.91452 28 128 28 z "
       style="fill:none;fill-opacity:1;fill-rule:evenodd;stroke:#000000;stroke-opacity:1;stroke-width:6;stroke-miterlimit:4;stroke-dasharray:none;stroke-linejoin:round;opacity:0.15" />
    <g
       transform="translate(0.9999993,3.1035103e-7)"
       id="g3955">
      <path
         sodipodi:nodetypes="ccccc"
         id="path2792"
         d="m 104.57687,221.76706 0.49064,-39.91068 c 17.03475,7.41118 34.06951,6.86143 51.10426,0 l -1.51473,39.91068 c -16.30787,8.64736 -34.38464,7.96685 -50.08017,0 z"
         style="fill:url(#linearGradient3961);fill-opacity:1;fill-rule:evenodd;stroke:none"
         inkscape:connector-curvature="0" />
      <path
         style="fill:url(#linearGradient3963);fill-opacity:1;fill-rule:evenodd;stroke:none"
         d="m 232.5625,82.337679 c -5.90087,3.514278 -13.30245,6.580932 -22.03125,9.21833 C 189.1856,98.005559 160.10739,101.94286 127,101.94286 c -31.107375,0 -60.185622,-3.937301 -81.531255,-10.386851 -8.004611,-2.418577 -14.918782,-5.18792 -20.5625,-8.341939 L 104.875,183.93408 c 17.03475,7.41118 34.05899,6.86142 51.09375,0 L 232.5625,82.337679 z"
         id="path2782"
         inkscape:connector-curvature="0" />
      <path
         sodipodi:type="arc"
         style="fill:url(#linearGradient3965);fill-opacity:1;stroke:none"
         id="path1873"
         sodipodi:cx="64.725899"
         sodipodi:cy="30.36673"
         sodipodi:rx="58.918716"
         sodipodi:ry="17.300568"
         d="m 123.64462,30.36673 c 0,9.554839 -26.378813,17.300567 -58.918721,17.300567 -32.539909,0 -58.9187167,-7.745728 -58.9187167,-17.300567 0,-9.55484 26.3788077,-17.300568 58.9187167,-17.300568 32.539908,0 58.918721,7.745728 58.918721,17.300568 z"
         transform="matrix(2.0197317,0,0,2.0782933,-3.7289495,2.8762344)" />
      <path
         style="font-size:medium;font-style:normal;font-variant:normal;font-weight:normal;font-stretch:normal;text-indent:0;text-align:start;text-decoration:none;line-height:normal;letter-spacing:normal;word-spacing:normal;text-transform:none;direction:ltr;block-progression:tb;writing-mode:lr-tb;text-anchor:start;baseline-shift:baseline;color:#000000;fill:url(#linearGradient3967);fill-opacity:1;stroke:none;stroke-width:4.92360163;marker:none;visibility:visible;display:inline;overflow:visible;enable-background:accumulate;font-family:Sans;-inkscape-font-specification:Sans"
         d="m 126.98562,27.999998 c -31.91452,0 -60.778546,3.911883 -82.074508,10.346424 C 34.263131,41.563691 25.494909,45.395637 19.047043,50.001729 12.599176,54.607821 8.0230136,60.43001 8.0230136,67.453526 c 0,7.023518 4.5761624,12.845706 11.0240294,17.451799 6.447866,4.606092 15.216088,8.438037 25.864069,11.655307 21.295962,6.434548 50.159988,10.284098 82.074508,10.284098 31.91452,0 60.83911,-3.84955 82.13507,-10.284098 10.64799,-3.21727 19.35564,-7.049215 25.8035,-11.655307 6.44786,-4.606093 11.02403,-10.428281 11.02403,-17.451799 0,-7.023516 -4.57617,-12.845705 -11.02403,-17.451797 -6.44786,-4.606092 -15.15551,-8.438038 -25.8035,-11.655307 -21.29596,-6.434541 -50.22055,-10.346424 -82.13507,-10.346424 z m 0,9.847801 c 31.15729,0 59.37246,3.856013 79.40935,9.910128 10.01845,3.027057 18.02838,6.633745 23.13835,10.284094 5.10997,3.65035 6.90516,6.906501 6.90516,9.411505 0,2.505006 -1.79519,5.761157 -6.90516,9.411507 -5.10997,3.650348 -13.1199,7.257037 -23.13835,10.284094 -20.03689,6.054115 -48.25206,9.910128 -79.40935,9.910128 -31.157292,0 -59.372465,-3.856013 -79.409358,-9.910128 C 37.557816,84.12207 29.608451,80.515381 24.498486,76.865033 c -5.109965,-3.65035 -6.905161,-6.906501 -6.905161,-9.411507 0,-2.505004 1.795196,-5.761155 6.905161,-9.411505 5.109965,-3.650349 13.05933,-7.257037 23.077776,-10.284094 20.036893,-6.054115 48.252066,-9.910128 79.409358,-9.910128 z"
         id="path3941"
         inkscape:connector-curvature="0" />
    </g>
    <path
       id="path3998"
       d="M 128 28 C 96.085479 28 67.202212 31.909209 45.90625 38.34375 C 35.258269 41.561019 26.510366 45.393908 20.0625 50 C 16.900458 52.258833 14.192818 54.814232 12.25 57.65625 C 12.211973 57.711877 12.162436 57.75665 12.125 57.8125 C 12.107386 57.835349 12.07997 57.852134 12.0625 57.875 C 10.068866 60.484481 9 63.207503 9 66 C 9 66.310277 9.0053911 66.597855 9.03125 66.90625 C 9.0337907 66.936551 9.0284613 66.969718 9.03125 67 C 9.0267251 67.15549 9.03125 67.312064 9.03125 67.46875 C 9.1594709 64.864595 10.19723 62.316464 12.0625 59.875 C 12.07997 59.85213 12.10739 59.83535 12.125 59.8125 C 12.16244 59.75665 12.21197 59.71188 12.25 59.65625 C 14.192818 56.814232 16.900458 54.258833 20.0625 52 C 26.510366 47.393908 35.258269 43.561019 45.90625 40.34375 C 67.202212 33.909209 96.085479 30 128 30 C 159.91452 30 188.82904 33.909209 210.125 40.34375 C 220.77299 43.561019 229.48964 47.393908 235.9375 52 C 238.84965 54.080321 241.3506 56.424912 243.25 59 C 243.31866 59.080637 243.3706 59.16915 243.4375 59.25 C 245.46263 61.699149 246.66697 64.254637 246.9375 66.875 C 246.96039 66.58428 247 66.297307 247 66 C 247 62.984338 245.75193 60.049027 243.4375 57.25 C 243.37064 57.169145 243.31866 57.080637 243.25 57 C 241.3506 54.424912 238.84965 52.080321 235.9375 50 C 229.48964 45.393908 220.77299 41.561019 210.125 38.34375 C 188.82904 31.909209 159.91452 28 128 28 z M 106 186 L 105.5625 221.78125 C 105.57093 221.78553 105.58531 221.77697 105.59375 221.78125 L 106.03125 186 C 106.02226 185.99612 106.00898 186.00362 106 186 z "
       style="fill:#ffffff;fill-opacity:1;fill-rule:evenodd;stroke:none;opacity:0.5" />
    <path
       id="path4003"
       d="M 246.9375 65.03125 C 246.93262 65.083269 246.94322 65.135029 246.9375 65.1875 C 246.9395 65.281081 246.9375 65.37474 246.9375 65.46875 C 246.9375 72.492268 242.38536 78.300157 235.9375 82.90625 C 233.62464 84.558466 230.97339 86.102139 228.09375 87.5625 L 157.09375 181.78125 L 155.65625 219.78125 C 139.35714 228.42396 121.28342 227.73599 105.59375 219.78125 L 105.5625 221.78125 C 121.25803 229.7481 139.34838 230.42861 155.65625 221.78125 L 157.09375 183.78125 L 228.09375 89.5625 C 230.97339 88.102139 233.62464 86.558466 235.9375 84.90625 C 242.38536 80.300157 246.9375 74.492268 246.9375 67.46875 C 246.9375 67.374738 246.93913 67.281081 246.9375 67.1875 C 246.98106 66.787612 247 66.40309 247 66 C 247 65.675236 246.96622 65.35408 246.9375 65.03125 z M 9.03125 65.46875 C 9.0224261 65.647963 9 65.820199 9 66 C 9 66.310277 9.0053911 66.597855 9.03125 66.90625 C 9.0337907 66.936551 9.0284613 66.969718 9.03125 67 C 9.0267251 67.15549 9.03125 67.312064 9.03125 67.46875 C 9.03125 74.492268 13.614633 80.300157 20.0625 84.90625 C 23.602647 87.435186 27.852597 89.723898 32.71875 91.8125 L 105.875 183.9375 C 105.91816 183.95628 105.95689 183.98259 106 184 L 106.03125 182 C 105.9791 181.9775 105.9271 181.9602 105.875 181.9375 L 32.71875 89.8125 C 27.852597 87.723898 23.602647 85.435186 20.0625 82.90625 C 13.614633 78.300157 9.03125 72.492268 9.03125 65.46875 z "
       style="fill:#000000;fill-opacity:1;fill-rule:evenodd;stroke:none;opacity:0.5" />
    <path
       inkscape:connector-curvature="0"
       style="opacity:0.2;fill:#000000;fill-opacity:1;fill-rule:evenodd;stroke:none"
       d="m 246.9375,67.03125 c -0.005,0.05202 0.006,0.103779 0,0.15625 0.002,0.09358 0,0.18724 0,0.28125 0,7.023518 -4.55214,12.831407 -11,17.4375 -2.31286,1.652216 -4.96411,3.195889 -7.84375,4.65625 l -71,94.21875 -1.4375,38 c -16.29911,8.64271 -34.37283,7.95474 -50.0625,0 l -0.0313,2 c 15.69553,7.96685 33.78588,8.64736 50.09375,0 l 1.4375,-38 71,-94.21875 c 2.87964,-1.460361 5.53089,-3.004034 7.84375,-4.65625 6.44786,-4.606093 11,-10.413982 11,-17.4375 0,-0.09401 0.002,-0.187669 0,-0.28125 C 246.98106,68.787612 247,68.40309 247,68 c 0,-0.324764 -0.0338,-0.64592 -0.0625,-0.96875 z M 9.03125,67.46875 C 9.0224261,67.647963 9,67.820199 9,68 c 0,0.310277 0.00539,0.597855 0.03125,0.90625 0.00254,0.0303 -0.00279,0.06347 0,0.09375 -0.00452,0.15549 0,0.312064 0,0.46875 0,7.023518 4.583383,12.831407 11.03125,17.4375 3.540147,2.528936 7.790097,4.817648 12.65625,6.90625 l 73.15625,92.125 c 0.0432,0.0188 0.0819,0.0451 0.125,0.0625 l 0.0313,-2 c -0.0521,-0.0225 -0.10415,-0.0398 -0.15625,-0.0625 L 32.71875,91.8125 C 27.852597,89.723898 23.602647,87.435186 20.0625,84.90625 13.614633,80.300157 9.03125,74.492268 9.03125,67.46875 z"
       id="path4008" />
  </g>
  <g
     id="g4464"
     transform="matrix(0.71111111,0,0,0.71111111,100.97778,100.97778)">
    <g
       transform="translate(294.28472,364.1513)"
       style="display:none"
       id="layer2">
      <rect
         style="opacity:0.9;fill:url(#ButtonShadow);fill-opacity:1;fill-rule:nonzero;stroke:none;filter:url(#filter3174)"
         id="rect3745"
         clip-path="url(#clipPath3625)"
         y="7"
         x="5"
         ry="6"
         rx="6"
         height="85"
         width="86" />
    </g>
    <g
       transform="translate(294.28472,364.1513)"
       style="display:none"
       id="layer1">
      <rect
         style="opacity:0.8;fill:#000000;fill-opacity:1;fill-rule:nonzero;stroke:none"
         id="rect2419"
         y="6"
         x="6"
         ry="6"
         rx="6"
         height="84"
         width="84" />
      <path
         style="opacity:0.07999998;fill:#000000;fill-opacity:1;fill-rule:nonzero;stroke:none"
         id="rect3726"
         inkscape:connector-curvature="0"
         d="m 14,10 c -2.216,0 -4,1.784 -4,4 l 0,68 c 0,2.216 1.784,4 4,4 l 68,0 c 2.216,0 4,-1.784 4,-4 l 0,-68 c 0,-2.216 -1.784,-4 -4,-4 l -68,0 z m 0,3.0625 68,0 c 0.578769,0 0.9375,0.358731 0.9375,0.9375 l 0,68 c 0,0.578769 -0.358731,0.9375 -0.9375,0.9375 l -68,0 c -0.578769,0 -0.9375,-0.358731 -0.9375,-0.9375 l 0,-68 c 0,-0.578769 0.358731,-0.9375 0.9375,-0.9375 z" />
      <path
         style="fill:url(#linearGradient3643);fill-opacity:1;fill-rule:nonzero;stroke:none"
         id="rect3629"
         inkscape:connector-curvature="0"
         d="M 12,6 C 8.676,6 6,8.676 6,12 l 0,72 c 0,3.324 2.676,6 6,6 l 72,0 c 3.324,0 6,-2.676 6,-6 L 90,12 C 90,8.676 87.324,6 84,6 L 12,6 z m 2,4 68,0 c 2.216,0 4,1.784 4,4 l 0,68 c 0,2.216 -1.784,4 -4,4 l -68,0 c -2.216,0 -4,-1.784 -4,-4 l 0,-68 c 0,-2.216 1.784,-4 4,-4 z" />
      <path
         style="fill:url(#linearGradient3188);fill-opacity:1;fill-rule:nonzero;stroke:none"
         id="rect3728"
         inkscape:connector-curvature="0"
         d="M 12,6 C 8.676,6 6,8.676 6,12 l 0,2 0,68 0,2 c 0,0.334721 0.04135,0.6507 0.09375,0.96875 0.0487,0.295596 0.09704,0.596915 0.1875,0.875 0.00988,0.03038 0.020892,0.0636 0.03125,0.09375 0.098865,0.287771 0.2348802,0.547452 0.375,0.8125 0.1445918,0.273507 0.3156161,0.535615 0.5,0.78125 0.1843839,0.245635 0.3737765,0.473472 0.59375,0.6875 0.439947,0.428056 0.94291,0.814526 1.5,1.09375 0.278545,0.139612 0.5734731,0.246947 0.875,0.34375 -0.2562018,-0.100222 -0.4867109,-0.236272 -0.71875,-0.375 -0.00741,-0.0044 -0.023866,0.0045 -0.03125,0 -0.031933,-0.0193 -0.062293,-0.04251 -0.09375,-0.0625 -0.120395,-0.0767 -0.2310226,-0.163513 -0.34375,-0.25 -0.1061728,-0.0808 -0.2132809,-0.161112 -0.3125,-0.25 C 8.4783201,88.557317 8.3087904,88.373362 8.15625,88.1875 8.0486711,88.057245 7.9378561,87.922215 7.84375,87.78125 7.818661,87.74287 7.805304,87.69538 7.78125,87.65625 7.716487,87.553218 7.6510225,87.451733 7.59375,87.34375 7.4927417,87.149044 7.3880752,86.928049 7.3125,86.71875 7.30454,86.69694 7.288911,86.6782 7.28125,86.65625 7.2494249,86.5643 7.2454455,86.469419 7.21875,86.375 7.1884177,86.268382 7.1483606,86.171969 7.125,86.0625 7.0521214,85.720988 7,85.364295 7,85 L 7,83 7,15 7,13 C 7,10.218152 9.2181517,8 12,8 l 2,0 68,0 2,0 c 2.781848,0 5,2.218152 5,5 l 0,2 0,68 0,2 c 0,0.364295 -0.05212,0.720988 -0.125,1.0625 -0.04415,0.206893 -0.08838,0.397658 -0.15625,0.59375 -0.0077,0.02195 -0.0233,0.04069 -0.03125,0.0625 -0.06274,0.173739 -0.138383,0.367449 -0.21875,0.53125 -0.04158,0.0828 -0.07904,0.169954 -0.125,0.25 -0.0546,0.09721 -0.126774,0.18835 -0.1875,0.28125 -0.09411,0.140965 -0.204921,0.275995 -0.3125,0.40625 -0.143174,0.17445 -0.303141,0.346998 -0.46875,0.5 -0.01117,0.0102 -0.01998,0.02115 -0.03125,0.03125 -0.138386,0.125556 -0.285091,0.234436 -0.4375,0.34375 -0.102571,0.07315 -0.204318,0.153364 -0.3125,0.21875 -0.0074,0.0045 -0.02384,-0.0044 -0.03125,0 -0.232039,0.138728 -0.462548,0.274778 -0.71875,0.375 0.301527,-0.0968 0.596455,-0.204138 0.875,-0.34375 0.55709,-0.279224 1.060053,-0.665694 1.5,-1.09375 0.219973,-0.214028 0.409366,-0.441865 0.59375,-0.6875 0.184384,-0.245635 0.355408,-0.507743 0.5,-0.78125 0.14012,-0.265048 0.276135,-0.524729 0.375,-0.8125 0.01041,-0.03078 0.02133,-0.06274 0.03125,-0.09375 0.09046,-0.278085 0.1388,-0.579404 0.1875,-0.875 C 89.95865,84.6507 90,84.334721 90,84 l 0,-2 0,-68 0,-2 C 90,8.676 87.324,6 84,6 L 12,6 z" />
      <path
         style="opacity:0.6;fill:url(#radialGradient3619);fill-opacity:1;fill-rule:nonzero;stroke:none"
         id="path3615"
         inkscape:connector-curvature="0"
         d="M 12,90 C 8.676,90 6,87.324 6,84 L 6,82 6,14 6,12 c 0,-0.334721 0.04135,-0.6507 0.09375,-0.96875 0.0487,-0.295596 0.09704,-0.596915 0.1875,-0.875 C 6.29113,10.12587 6.302142,10.09265 6.3125,10.0625 6.411365,9.774729 6.5473802,9.515048 6.6875,9.25 6.8320918,8.976493 7.0031161,8.714385 7.1875,8.46875 7.3718839,8.223115 7.5612765,7.995278 7.78125,7.78125 8.221197,7.353194 8.72416,6.966724 9.28125,6.6875 9.559795,6.547888 9.8547231,6.440553 10.15625,6.34375 9.9000482,6.443972 9.6695391,6.580022 9.4375,6.71875 c -0.00741,0.0044 -0.023866,-0.0045 -0.03125,0 -0.031933,0.0193 -0.062293,0.04251 -0.09375,0.0625 -0.120395,0.0767 -0.2310226,0.163513 -0.34375,0.25 -0.1061728,0.0808 -0.2132809,0.161112 -0.3125,0.25 C 8.4783201,7.442683 8.3087904,7.626638 8.15625,7.8125 8.0486711,7.942755 7.9378561,8.077785 7.84375,8.21875 7.818661,8.25713 7.805304,8.30462 7.78125,8.34375 7.716487,8.446782 7.6510225,8.548267 7.59375,8.65625 7.4927417,8.850956 7.3880752,9.071951 7.3125,9.28125 7.30454,9.30306 7.288911,9.3218 7.28125,9.34375 7.2494249,9.4357 7.2454455,9.530581 7.21875,9.625 7.1884177,9.731618 7.1483606,9.828031 7.125,9.9375 7.0521214,10.279012 7,10.635705 7,11 l 0,2 0,68 0,2 c 0,2.781848 2.2181517,5 5,5 l 2,0 68,0 2,0 c 2.781848,0 5,-2.218152 5,-5 l 0,-2 0,-68 0,-2 C 89,10.635705 88.94788,10.279012 88.875,9.9375 88.83085,9.730607 88.78662,9.539842 88.71875,9.34375 88.71105,9.3218 88.69545,9.30306 88.6875,9.28125 88.62476,9.107511 88.549117,8.913801 88.46875,8.75 88.42717,8.6672 88.38971,8.580046 88.34375,8.5 88.28915,8.40279 88.216976,8.31165 88.15625,8.21875 88.06214,8.077785 87.951329,7.942755 87.84375,7.8125 87.700576,7.63805 87.540609,7.465502 87.375,7.3125 87.36383,7.3023 87.35502,7.29135 87.34375,7.28125 87.205364,7.155694 87.058659,7.046814 86.90625,6.9375 86.803679,6.86435 86.701932,6.784136 86.59375,6.71875 c -0.0074,-0.0045 -0.02384,0.0044 -0.03125,0 -0.232039,-0.138728 -0.462548,-0.274778 -0.71875,-0.375 0.301527,0.0968 0.596455,0.204138 0.875,0.34375 0.55709,0.279224 1.060053,0.665694 1.5,1.09375 0.219973,0.214028 0.409366,0.441865 0.59375,0.6875 0.184384,0.245635 0.355408,0.507743 0.5,0.78125 0.14012,0.265048 0.276135,0.524729 0.375,0.8125 0.01041,0.03078 0.02133,0.06274 0.03125,0.09375 0.09046,0.278085 0.1388,0.579404 0.1875,0.875 C 89.95865,11.3493 90,11.665279 90,12 l 0,2 0,68 0,2 c 0,3.324 -2.676,6 -6,6 l -72,0 z" />
      <rect
         style="fill:url(#linearGradient2843);fill-opacity:1;fill-rule:nonzero;stroke:none"
         id="rect2841"
         y="106"
         x="6"
         ry="6"
         rx="6"
         height="84"
         width="84" />
      <rect
         style="fill:#ff0000;fill-opacity:1;fill-rule:nonzero;stroke:none"
         id="rect3634"
         y="110"
         x="10"
         ry="4"
         rx="4"
         height="76"
         width="76" />
      <path
         style="font-size:medium;font-style:normal;font-variant:normal;font-weight:normal;font-stretch:normal;text-indent:0;text-align:start;text-decoration:none;line-height:normal;letter-spacing:normal;word-spacing:normal;text-transform:none;direction:ltr;block-progression:tb;writing-mode:lr-tb;text-anchor:start;color:#000000;fill:#000000;fill-opacity:1;stroke:none;stroke-width:2;marker:none;visibility:visible;display:inline;overflow:visible;filter:url(#filter3657);enable-background:accumulate;font-family:Abandoned Bitplane;-inkscape-font-specification:Abandoned Bitplane"
         id="rect3647"
         clip-path="url(#clipPath3649)"
         transform="translate(-110,0)"
         inkscape:connector-curvature="0"
         d="m 14,9 c -2.752703,0 -5,2.247297 -5,5 l 0,68 c 0,2.752703 2.247297,5 5,5 l 68,0 c 2.752703,0 5,-2.247297 5,-5 L 87,14 C 87,11.247297 84.752703,9 82,9 L 14,9 z m 0,2 68,0 c 1.679297,0 3,1.320703 3,3 l 0,68 c 0,1.679297 -1.320703,3 -3,3 l -68,0 c -1.679297,0 -3,-1.320703 -3,-3 l 0,-68 c 0,-1.679297 1.320703,-3 3,-3 z" />
      <path
         style="opacity:0.16000001;fill:#000000;fill-opacity:1;fill-rule:nonzero;stroke:none"
         id="path3709"
         inkscape:connector-curvature="0"
         d="m 14.089286,10 c -2.216,0 -4,1.784 -4,4 l 0,68 c 0,2.216 1.784,4 4,4 l 68,0 c 2.216,0 4,-1.784 4,-4 l 0,-68 c 0,-2.216 -1.784,-4 -4,-4 l -68,0 z m 0,2 68,0 c 1.140301,0 2,0.859699 2,2 l 0,68 c 0,1.140301 -0.859699,2 -2,2 l -68,0 c -1.140301,0 -2,-0.859699 -2,-2 l 0,-68 c 0,-1.140301 0.859699,-2 2,-2 z" />
      <path
         style="opacity:0.36000001;fill:#000000;fill-opacity:1;fill-rule:nonzero;stroke:none"
         id="path3707"
         inkscape:connector-curvature="0"
         d="m 14,10 c -2.216,0 -4,1.784 -4,4 l 0,68 c 0,2.216 1.784,4 4,4 l 68,0 c 2.216,0 4,-1.784 4,-4 l 0,-68 c 0,-2.216 -1.784,-4 -4,-4 l -68,0 z m 0,1 68,0 c 1.673848,0 3,1.326152 3,3 l 0,68 c 0,1.673848 -1.326152,3 -3,3 l -68,0 c -1.673848,0 -3,-1.326152 -3,-3 l 0,-68 c 0,-1.673848 1.326152,-3 3,-3 z" />
    </g>
    <g
       transform="translate(294.28472,364.1513)"
       style="display:none"
       id="layer5">
      <rect
         style="opacity:0.1;fill:url(#linearGradient3613);fill-opacity:1;fill-rule:nonzero;stroke:#ffffff;stroke-width:0.5;stroke-linecap:round;stroke-linejoin:miter;stroke-miterlimit:4;stroke-opacity:1;stroke-dasharray:none;stroke-dashoffset:0;filter:url(#filter3794)"
         id="rect3171"
         clip-path="url(#clipPath3613)"
         y="15"
         x="15"
         ry="12"
         rx="12"
         height="66"
         width="66" />
    </g>
    <g
       id="g3887">
      <path
         d="m 104.94705,44.000009 0,61.513921 -60.94705,0 0,45.94402 60.94705,0 0,60.54204 45.70991,0 0,-60.54204 61.34304,0 0,-45.94402 -61.34304,0 0,-61.513921 z"
         inkscape:connector-curvature="0"
         id="path3885"
         style="opacity:0.05;fill:none;stroke:#000000;stroke-width:12;stroke-linejoin:round;stroke-miterlimit:4;stroke-opacity:1;stroke-dasharray:none;display:inline" />
      <path
         style="opacity:0.1;fill:none;stroke:#000000;stroke-width:8;stroke-linejoin:round;stroke-miterlimit:4;stroke-opacity:1;stroke-dasharray:none;display:inline"
         id="path3883"
         inkscape:connector-curvature="0"
         d="m 104.94705,44.000009 0,61.513921 -60.94705,0 0,45.94402 60.94705,0 0,60.54204 45.70991,0 0,-60.54204 61.34304,0 0,-45.94402 -61.34304,0 0,-61.513921 z" />
      <path
         d="m 104.94705,44.000009 0,61.513921 -60.94705,0 0,45.94402 60.94705,0 0,60.54204 45.70991,0 0,-60.54204 61.34304,0 0,-45.94402 -61.34304,0 0,-61.513921 z"
         inkscape:connector-curvature="0"
         id="path3881"
         style="opacity:0.15;fill:none;stroke:#000000;stroke-width:4;stroke-linejoin:round;stroke-miterlimit:4;stroke-opacity:1;stroke-dasharray:none;display:inline" />
      <path
         style="fill:url(#linearGradient3854);fill-opacity:1;stroke:none;display:inline"
         id="Symbol"
         inkscape:connector-curvature="0"
         d="m 104.94705,44.000009 0,61.513921 -60.94705,0 0,45.94402 60.94705,0 0,60.54204 45.70991,0 0,-60.54204 61.34304,0 0,-45.94402 -61.34304,0 0,-61.513921 z" />
      <path
         style="opacity:0.7;fill:#ffffff;fill-opacity:1;stroke:none;display:inline"
         d="m 104.9375,44 0,2 45.71875,0 0,-2 -45.71875,0 z M 44,105.5 l 0,2 60.9375,0 0,-2 -60.9375,0 z m 106.65625,0 0,2 61.34375,0 0,-2 -61.34375,0 z"
         id="path3861"
         inkscape:connector-curvature="0" />
      <path
         style="opacity:0.7;fill:#000000;fill-opacity:1;stroke:none;display:inline"
         d="m 44,149.46875 0,2 60.9375,0 0,-2 -60.9375,0 z m 106.65625,0 0,2 61.34375,0 0,-2 -61.34375,0 z M 104.9375,210 l 0,2 45.71875,0 0,-2 -45.71875,0 z"
         id="path3870"
         inkscape:connector-curvature="0" />
      <path
         id="path3879"
         d="m 44,151.46875 0,2 60.9375,0 0,-2 -60.9375,0 z m 106.65625,0 0,2 61.34375,0 0,-2 -61.34375,0 z M 104.9375,212 l 0,2 45.71875,0 0,-2 -45.71875,0 z"
         style="opacity:0.3;fill:#000000;fill-opacity:1;stroke:none;display:inline"
         inkscape:connector-curvature="0" />
    </g>
  </g>
</svg>
