<?xml version="1.0" encoding="UTF-8" standalone="no"?>
<!-- Created with Inkscape (http://www.inkscape.org/) -->

<svg
   xmlns:dc="http://purl.org/dc/elements/1.1/"
   xmlns:cc="http://creativecommons.org/ns#"
   xmlns:rdf="http://www.w3.org/1999/02/22-rdf-syntax-ns#"
   xmlns:svg="http://www.w3.org/2000/svg"
   xmlns="http://www.w3.org/2000/svg"
   xmlns:xlink="http://www.w3.org/1999/xlink"
   xmlns:sodipodi="http://sodipodi.sourceforge.net/DTD/sodipodi-0.dtd"
   xmlns:inkscape="http://www.inkscape.org/namespaces/inkscape"
   version="1.0"
   width="256"
   height="256"
   id="svg2"
   sodipodi:version="0.32"
   inkscape:version="0.48.3.1 r9886"
   sodipodi:docname="kt-magnet.svg"
   inkscape:output_extension="org.inkscape.output.svgz.inkscape">
  <metadata
     id="metadata70">
    <rdf:RDF>
      <cc:Work
         rdf:about="">
        <dc:format>image/svg+xml</dc:format>
        <dc:type
           rdf:resource="http://purl.org/dc/dcmitype/StillImage" />
        <dc:title></dc:title>
      </cc:Work>
    </rdf:RDF>
  </metadata>
  <sodipodi:namedview
     inkscape:window-height="553"
     inkscape:window-width="1024"
     inkscape:pageshadow="2"
     inkscape:pageopacity="0.0"
     guidetolerance="10.0"
     gridtolerance="10.0"
     objecttolerance="10.0"
     borderopacity="1.0"
     bordercolor="#666666"
     pagecolor="#ffffff"
     id="base"
     showgrid="false"
     inkscape:zoom="1.4960938"
     inkscape:cx="116.30287"
     inkscape:cy="128"
     inkscape:window-x="-4"
     inkscape:window-y="24"
     inkscape:current-layer="svg2"
     inkscape:window-maximized="1" />
  <defs
     id="defs5">
    <linearGradient
       id="linearGradient3213">
      <stop
         id="stop3215"
         style="stop-color:#eeeeec;stop-opacity:1"
         offset="0" />
      <stop
         id="stop3217"
         style="stop-color:#eeeeec;stop-opacity:0"
         offset="1" />
    </linearGradient>
    <filter
       height="1.2365487"
       y="-0.11827435"
       width="1.1388694"
       x="-0.069434717"
       id="filter3853"
       color-interpolation-filters="sRGB">
      <feGaussianBlur
         id="feGaussianBlur3855"
         stdDeviation="2.4849356"
         inkscape:collect="always" />
    </filter>
    <filter
       id="filter3899"
       color-interpolation-filters="sRGB">
      <feGaussianBlur
         id="feGaussianBlur3901"
         stdDeviation="1.4662514"
         inkscape:collect="always" />
    </filter>
    <filter
       id="filter4316"
       color-interpolation-filters="sRGB">
      <feGaussianBlur
         id="feGaussianBlur4318"
         stdDeviation="1.4232622"
         inkscape:collect="always" />
    </filter>
    <radialGradient
       inkscape:collect="always"
       xlink:href="#linearGradient3213"
       id="radialGradient3077"
       gradientUnits="userSpaceOnUse"
       gradientTransform="matrix(-0.9205734,0.9517794,-0.8949824,-0.9377454,405.04707,-130.23997)"
       cx="165.21585"
       cy="22.080721"
       fx="165.21585"
       fy="22.080721"
       r="41.802078" />
  </defs>
  <g
     id="g3935">
    <path
       inkscape:connector-curvature="0"
       id="path3933"
       d="m 123.93725,9 c -7.29373,0.012744 -14.86381,0.657036 -22.65659,2.03125 -17.091256,4.93543 -30.877166,13.314246 -42.906901,26.0625 -23.095506,25.898945 -28.569728,47.271315 -23.781612,92.8125 3.226101,30.68396 7.398539,65.70267 8.53138,72.28125 l 14.968978,0 13.843961,0 9.531395,0 0,-0.21875 c 0.0024,-1.54403 -1.646398,-21.0249 -3.625056,-43.34375 -3.830148,-43.20355 -4.018753,-52.62834 -1.500022,-63.21875 3.3293,-13.998138 13.052654,-27.917325 23.781607,-33.875 13.83195,-7.680784 26.44514,-8.874342 40.34437,-4.0625 5.86927,2.031898 14.04179,7.310662 18.90653,12.28125 6.98806,7.139988 13.88276,19.875733 16.469,30.4375 3.8404,15.68351 4.06749,23.86336 1.62503,53.875 -0.60207,7.39752 -1.49366,18.51438 -1.96878,24.71875 -0.47506,6.20434 -1.21974,14.29983 -1.65628,18.0625 -0.28497,2.45668 -0.3672,4.0976 -0.34375,5.34375 l 12.34394,0 11.59392,0 14.18772,0 3.68755,0 c 0.18346,-1.34405 0.37685,-2.75096 0.50001,-4.21875 1.71719,-20.46197 3.61818,-40.19885 4.62507,-48 0.61279,-4.74751 1.40919,-13.59001 1.78128,-19.65625 1.1343,-18.49373 1.06736,-25.94736 -0.43751,-35.125 C 212.70884,41.347912 174.99338,8.910873 123.93725,9 z M 43.248529,202.21875 C 45.620318,223.446 47.936834,242.43846 48.717362,247 l 14.218967,0 13.125199,0 9.031388,0 0,-0.1875 c 0.0023,-1.47168 -1.626046,-20.04015 -3.500053,-41.3125 -0.117205,-1.33093 -0.171176,-2.01646 -0.281255,-3.28125 l -38.063079,0 z m 130.001971,0 c -0.12085,1.26479 -0.18384,1.95032 -0.3125,3.28125 -2.057,21.27235 -3.81456,39.84082 -3.81256,41.3125 l 0,0.1875 9.87515,0 14.43772,0 15.59399,0 c 0.85676,-4.56154 3.39672,-23.55403 6.00009,-44.78125 l -41.78189,0 z"
       style="fill:none;fill-opacity:1;stroke:#000000;stroke-opacity:1;stroke-width:18;stroke-miterlimit:4;stroke-dasharray:none;stroke-linejoin:round;opacity:0.05" />
    <path
       style="fill:none;fill-opacity:1;stroke:#000000;stroke-opacity:1;stroke-width:12;stroke-miterlimit:4;stroke-dasharray:none;stroke-linejoin:round;opacity:0.1"
       d="m 123.93725,9 c -7.29373,0.012744 -14.86381,0.657036 -22.65659,2.03125 -17.091256,4.93543 -30.877166,13.314246 -42.906901,26.0625 -23.095506,25.898945 -28.569728,47.271315 -23.781612,92.8125 3.226101,30.68396 7.398539,65.70267 8.53138,72.28125 l 14.968978,0 13.843961,0 9.531395,0 0,-0.21875 c 0.0024,-1.54403 -1.646398,-21.0249 -3.625056,-43.34375 -3.830148,-43.20355 -4.018753,-52.62834 -1.500022,-63.21875 3.3293,-13.998138 13.052654,-27.917325 23.781607,-33.875 13.83195,-7.680784 26.44514,-8.874342 40.34437,-4.0625 5.86927,2.031898 14.04179,7.310662 18.90653,12.28125 6.98806,7.139988 13.88276,19.875733 16.469,30.4375 3.8404,15.68351 4.06749,23.86336 1.62503,53.875 -0.60207,7.39752 -1.49366,18.51438 -1.96878,24.71875 -0.47506,6.20434 -1.21974,14.29983 -1.65628,18.0625 -0.28497,2.45668 -0.3672,4.0976 -0.34375,5.34375 l 12.34394,0 11.59392,0 14.18772,0 3.68755,0 c 0.18346,-1.34405 0.37685,-2.75096 0.50001,-4.21875 1.71719,-20.46197 3.61818,-40.19885 4.62507,-48 0.61279,-4.74751 1.40919,-13.59001 1.78128,-19.65625 1.1343,-18.49373 1.06736,-25.94736 -0.43751,-35.125 C 212.70884,41.347912 174.99338,8.910873 123.93725,9 z M 43.248529,202.21875 C 45.620318,223.446 47.936834,242.43846 48.717362,247 l 14.218967,0 13.125199,0 9.031388,0 0,-0.1875 c 0.0023,-1.47168 -1.626046,-20.04015 -3.500053,-41.3125 -0.117205,-1.33093 -0.171176,-2.01646 -0.281255,-3.28125 l -38.063079,0 z m 130.001971,0 c -0.12085,1.26479 -0.18384,1.95032 -0.3125,3.28125 -2.057,21.27235 -3.81456,39.84082 -3.81256,41.3125 l 0,0.1875 9.87515,0 14.43772,0 15.59399,0 c 0.85676,-4.56154 3.39672,-23.55403 6.00009,-44.78125 l -41.78189,0 z"
       id="path3931"
       inkscape:connector-curvature="0" />
    <path
       inkscape:connector-curvature="0"
       id="path3895"
       d="m 123.93725,9 c -7.29373,0.012744 -14.86381,0.657036 -22.65659,2.03125 -17.091256,4.93543 -30.877166,13.314246 -42.906901,26.0625 -23.095506,25.898945 -28.569728,47.271315 -23.781612,92.8125 3.226101,30.68396 7.398539,65.70267 8.53138,72.28125 l 14.968978,0 13.843961,0 9.531395,0 0,-0.21875 c 0.0024,-1.54403 -1.646398,-21.0249 -3.625056,-43.34375 -3.830148,-43.20355 -4.018753,-52.62834 -1.500022,-63.21875 3.3293,-13.998138 13.052654,-27.917325 23.781607,-33.875 13.83195,-7.680784 26.44514,-8.874342 40.34437,-4.0625 5.86927,2.031898 14.04179,7.310662 18.90653,12.28125 6.98806,7.139988 13.88276,19.875733 16.469,30.4375 3.8404,15.68351 4.06749,23.86336 1.62503,53.875 -0.60207,7.39752 -1.49366,18.51438 -1.96878,24.71875 -0.47506,6.20434 -1.21974,14.29983 -1.65628,18.0625 -0.28497,2.45668 -0.3672,4.0976 -0.34375,5.34375 l 12.34394,0 11.59392,0 14.18772,0 3.68755,0 c 0.18346,-1.34405 0.37685,-2.75096 0.50001,-4.21875 1.71719,-20.46197 3.61818,-40.19885 4.62507,-48 0.61279,-4.74751 1.40919,-13.59001 1.78128,-19.65625 1.1343,-18.49373 1.06736,-25.94736 -0.43751,-35.125 C 212.70884,41.347912 174.99338,8.910873 123.93725,9 z M 43.248529,202.21875 C 45.620318,223.446 47.936834,242.43846 48.717362,247 l 14.218967,0 13.125199,0 9.031388,0 0,-0.1875 c 0.0023,-1.47168 -1.626046,-20.04015 -3.500053,-41.3125 -0.117205,-1.33093 -0.171176,-2.01646 -0.281255,-3.28125 l -38.063079,0 z m 130.001971,0 c -0.12085,1.26479 -0.18384,1.95032 -0.3125,3.28125 -2.057,21.27235 -3.81456,39.84082 -3.81256,41.3125 l 0,0.1875 9.87515,0 14.43772,0 15.59399,0 c 0.85676,-4.56154 3.39672,-23.55403 6.00009,-44.78125 l -41.78189,0 z"
       style="fill:none;fill-opacity:1;stroke:#000000;stroke-opacity:1;stroke-width:6;stroke-miterlimit:4;stroke-dasharray:none;stroke-linejoin:round;opacity:0.15" />
    <g
       style="stroke:none"
       transform="matrix(1.085365,0,0,1.0735986,19.422144,-5.9482364)"
       id="g3068">
      <path
         inkscape:connector-curvature="0"
         style="fill:#cc0000;fill-opacity:1;stroke:none"
         id="path3221"
         d="m 96.287358,13.923661 c -6.71997,0.01187 -13.692555,0.617477 -20.872316,1.897484 C 59.668266,20.418236 46.97846,28.221524 35.895044,40.095844 14.616345,64.219334 9.5643799,84.110301 13.975839,126.52949 c 2.972319,28.58048 6.807929,61.20035 7.851655,67.32795 l 13.805827,0 12.758939,0 8.767682,0 0,-0.19631 c 0.0022,-1.43818 -1.513945,-19.58176 -3.336951,-40.37058 C 50.294142,113.04874 50.128356,104.26753 52.44895,94.403129 55.516352,81.364608 64.483194,68.414904 74.368154,62.865647 87.11202,55.711405 98.726817,54.588705 111.53266,59.07068 c 5.40757,1.892605 12.92244,6.820492 17.4045,11.450331 6.43834,6.650519 12.79707,18.493663 15.17987,28.33139 3.53829,14.608349 3.75522,22.230919 1.5049,50.185169 -0.55471,6.8904 -1.39431,17.25249 -1.83206,23.03153 -0.43768,5.77901 -1.1027,13.31087 -1.5049,16.8156 -0.26256,2.28826 -0.34877,3.81202 -0.32716,4.97274 l 11.38489,0 10.66517,0 13.08609,0 3.40238,0 c 0.16902,-1.25191 0.34454,-2.55867 0.45802,-3.92583 1.5821,-19.05924 3.32529,-37.42265 4.25298,-44.68901 0.56459,-4.42205 1.29295,-12.67015 1.63576,-18.32053 1.04507,-17.22593 0.9939,-24.16675 -0.39258,-32.715231 C 178.09064,44.058126 143.32715,13.840644 96.287358,13.923661 z" />
      <path
         inkscape:connector-curvature="0"
         style="fill:#eeeeec;fill-opacity:1;stroke:none"
         id="path3264"
         d="m 21.958354,193.88727 c 2.185212,19.77206 4.31902,37.47173 5.038148,41.72056 l 13.086092,0 12.104633,0 8.30967,0 0,-0.18706 c 0.0021,-1.37079 -1.479502,-18.66366 -3.206091,-38.47773 -0.107985,-1.23969 -0.160301,-1.87768 -0.26172,-3.05577 l -35.070729,0 z" />
      <path
         inkscape:connector-curvature="0"
         style="fill:#eeeeec;fill-opacity:1;stroke:none"
         id="path3272"
         d="m 180.22143,193.88727 c -2.39857,19.77203 -4.74068,37.47173 -5.53004,41.72056 l -14.36377,0 -13.28649,0 -9.12101,0 0,-0.18706 c -0.002,-1.37079 1.62396,-18.66366 3.51914,-38.47773 0.11854,-1.23969 0.17593,-1.87768 0.28727,-3.05577 l 38.49491,0 z" />
      <path
         inkscape:connector-curvature="0"
         style="opacity:0.59999999999999998;fill:url(#radialGradient3077);fill-opacity:1;stroke:none;filter:url(#filter3853)"
         id="path3665"
         transform="matrix(1.743307,0,0,2.0937749,-307.46283,-10.289379)"
         d="m 231.36062,19.137809 c -3.29732,0.0061 -6.71856,0.348749 -10.24148,1.00246 -7.72654,2.347734 -13.95305,6.332874 -19.39138,12.397089 -8.55287,10.092056 -11.77006,18.745161 -11.46146,33.448753 0.31044,-12.437231 3.68034,-20.424554 11.46146,-29.605989 5.43832,-6.064215 11.66485,-10.049355 19.39138,-12.39709 28.18327,-5.229655 49.7941,10.761909 54.48208,40.031574 0.28662,1.839351 0.45089,3.544838 0.51368,5.546946 0.0854,-3.881611 -0.0667,-6.521572 -0.51368,-9.389709 -4.102,-25.610948 -21.15947,-41.076432 -44.2406,-41.034034 z" />
      <path
         inkscape:connector-curvature="0"
         style="opacity:0.40000000000000002;fill:#ffffff;fill-opacity:1;stroke:none;filter:url(#filter3899)"
         id="path3857"
         transform="matrix(2.0937749,0,0,2.0937749,-8.8729847,-12.224425)"
         d="m 49.465541,23.08755 c -4.78622,0.15441 -9.52609,1.32724 -14.52246,3.51985 -6.88982,3.0235 -13.13489,10.06859 -15.27286,17.1726 -1.61748,5.3746 -1.53265,10.17965 0.92698,32.1053 1.27063,11.32674 2.34099,21.18879 2.33948,21.9724 l 0,0.10666 0.97108,0 0,-0.10666 c 0.0014,-0.7815 -1.02134,-10.64048 -2.25118,-21.93685 -2.38069,-21.86685 -2.49253,-26.63845 -0.92697,-31.99863 2.06937,-7.08496 8.11863,-14.12166 14.78731,-17.13705 8.59736,-3.88752 16.43305,-4.49759 25.07224,-2.06214 3.64808,1.02842 8.71782,3.70617 11.74155,6.22196 4.34345,3.61381 8.63328,10.04921 10.24078,15.3949 2.38701,7.93799 2.53341,12.07999 1.01524,27.26995 -0.37423,3.74416 -0.94061,9.37479 -1.23594,12.51502 -0.29529,3.14025 -0.74394,7.23297 -1.01525,9.13739 -0.17716,1.24341 -0.23529,2.07141 -0.22072,2.70211 l 0.92697,0 c -0.01508,-0.63239 0.03772,-1.45537 0.22072,-2.70211 0.28034,-1.90953 0.75432,-6.02424 1.05939,-9.17294 0.30509,-3.14869 0.89346,-8.79635 1.28007,-12.55057 1.56848,-15.2308 1.40679,-19.38174 -1.05936,-27.34107 -1.66083,-5.36006 -6.10637,-11.80693 -10.59392,-15.43045 -3.12398,-2.52255 -8.32563,-5.19078 -12.09469,-6.22195 -3.90499,-1.06838 -7.66583,-1.57782 -11.38846,-1.45772 z" />
      <path
         inkscape:connector-curvature="0"
         style="opacity:0.50000000000000000;fill:#ffffff;fill-opacity:1;stroke:none"
         id="path4320"
         d="m 23.010414,194.57535 c 1.829039,19.28601 3.61505,36.57404 4.216948,40.71845 l 10.953163,0 5.093189,0 c -0.601898,-4.14441 -2.387927,-21.43244 -4.216944,-40.71845 l -16.046356,0 z" />
      <path
         inkscape:connector-curvature="0"
         style="opacity:0.50000000000000000;fill:#ffffff;fill-opacity:1;stroke:none"
         id="path4392"
         d="m 178.37283,194.57535 c -2.0037,19.28601 -3.96027,36.57404 -4.61964,40.71845 l -11.99913,0 -5.57957,0 c 0.65937,-4.14441 2.61596,-21.43244 4.61964,-40.71845 l 17.5787,0 z" />
    </g>
    <path
       id="path3919"
       d="M 123.9375 9 C 116.64377 9.012744 109.07403 9.657036 101.28125 11.03125 C 84.189994 15.96668 70.404735 24.345496 58.375 37.09375 C 40.117084 57.567896 32.868652 75.225431 33 104.21875 C 33.207993 76.405097 40.540718 59.092839 58.375 39.09375 C 70.404735 26.345496 84.189994 17.96668 101.28125 13.03125 C 109.07403 11.657036 116.64377 11.01274 123.9375 11 C 174.99363 10.910873 212.7076 43.347912 221.78125 97.1875 C 222.51505 101.66267 222.92255 105.73978 223 110.875 C 222.99971 104.78408 222.60561 100.21493 221.78125 95.1875 C 212.7076 41.347912 174.99363 8.910873 123.9375 9 z M 74.65625 112.28125 C 74.57247 121.43141 75.583769 135.13272 77.84375 160.625 C 79.616538 180.62168 81.050868 197.60643 81.34375 202.1875 L 81.46875 202.1875 L 81.46875 201.96875 C 81.47115 200.42472 79.822408 180.94385 77.84375 158.625 C 75.742726 134.92574 74.719951 121.42003 74.65625 112.28125 z M 179.0625 126.125 C 179.02558 133.11898 178.47212 141.73361 177.46875 154.0625 C 176.86668 161.46002 175.97512 172.57688 175.5 178.78125 C 175.02494 184.98559 174.28029 193.08108 173.84375 196.84375 C 173.55878 199.30043 173.47655 200.94135 173.5 202.1875 L 173.5625 202.1875 C 173.61278 201.2606 173.68723 200.1931 173.84375 198.84375 C 174.28029 195.08108 175.02494 186.98559 175.5 180.78125 C 175.97512 174.57688 176.86668 163.46002 177.46875 156.0625 C 178.56912 142.5418 179.13208 133.46595 179.0625 126.125 z M 173.25 202.21875 C 173.12915 203.48354 173.06616 204.16907 172.9375 205.5 C 170.8805 226.77235 169.123 245.34082 169.125 246.8125 L 169.125 247 L 169.25 247 C 169.57857 242.48357 171.10806 226.41909 172.9375 207.5 C 173.06616 206.16907 173.12915 205.48354 173.25 204.21875 L 214.78125 204.21875 C 214.78256 204.20816 214.77994 204.19809 214.78125 204.1875 L 211.625 204.1875 L 197.4375 204.1875 L 185.84375 204.1875 L 173.5 204.1875 C 173.4896 203.63457 173.52281 202.96389 173.5625 202.21875 L 173.25 202.21875 z M 43.46875 204.1875 C 43.469942 204.19811 43.467558 204.20814 43.46875 204.21875 L 81.3125 204.21875 C 81.422579 205.48354 81.476545 206.16907 81.59375 207.5 C 83.260325 226.41773 84.664854 242.48213 84.96875 247 L 85.09375 247 L 85.09375 246.8125 C 85.09605 245.34082 83.467757 226.77235 81.59375 205.5 C 81.54683 204.9672 81.503059 204.59201 81.46875 204.1875 L 71.9375 204.1875 L 58.09375 204.1875 L 43.46875 204.1875 z "
       style="fill:#ffffff;fill-opacity:1;stroke:none;opacity:0.5" />
    <path
       id="path3924"
       d="M 125.25 52.625 C 116.94566 52.474978 108.76997 54.73076 100.125 59.53125 C 89.396047 65.488925 79.67305 79.408112 76.34375 93.40625 C 75.206666 98.187302 74.603824 102.76011 74.65625 110.28125 C 74.714458 103.92399 75.311198 99.747782 76.34375 95.40625 C 79.67305 81.408112 89.396047 67.488925 100.125 61.53125 C 113.95695 53.850466 126.56952 52.656908 140.46875 57.46875 C 146.33802 59.500648 154.51026 64.779412 159.375 69.75 C 166.36306 76.889988 173.25751 89.625733 175.84375 100.1875 C 177.95399 108.80535 178.97764 115.17138 179.0625 124.125 C 179.11545 114.09386 178.1065 107.42817 175.84375 98.1875 C 173.25751 87.625733 166.36306 74.889988 159.375 67.75 C 154.51026 62.779412 146.33802 57.500648 140.46875 55.46875 C 135.25654 53.664309 130.2326 52.715013 125.25 52.625 z M 33 102.21875 C 32.938641 110.42395 33.503003 119.53183 34.59375 129.90625 C 37.819851 160.59021 41.992159 195.60892 43.125 202.1875 L 43.46875 202.1875 C 43.392704 201.51046 43.326209 200.90081 43.25 200.21875 L 81.3125 200.21875 C 81.371227 200.89351 81.423841 201.43777 81.46875 201.96875 C 81.469 201.8081 81.377762 200.71949 81.34375 200.1875 L 71.9375 200.1875 L 58.09375 200.1875 L 43.125 200.1875 C 41.992159 193.60892 37.819851 158.59021 34.59375 127.90625 C 33.59083 118.36718 33.034802 109.90078 33 102.21875 z M 222.96875 111.5 C 222.89372 116.00323 222.64411 121.37735 222.21875 128.3125 C 221.84666 134.37874 221.05029 143.22124 220.4375 147.96875 C 219.43061 155.7699 217.52969 175.50678 215.8125 195.96875 C 215.68934 197.43654 215.49596 198.84345 215.3125 200.1875 L 211.625 200.1875 L 197.4375 200.1875 L 185.84375 200.1875 L 173.5625 200.1875 C 173.56186 200.19937 173.56313 200.20693 173.5625 200.21875 L 215.03125 200.21875 C 214.94754 200.90126 214.86477 201.51001 214.78125 202.1875 L 215.3125 202.1875 C 215.49596 200.84345 215.68934 199.43654 215.8125 197.96875 C 217.52969 177.50678 219.43061 157.7699 220.4375 149.96875 C 221.05029 145.22124 221.84666 136.37874 222.21875 130.3125 C 222.71083 122.28954 222.94814 116.40959 222.96875 111.5 z M 43.25 202.21875 C 45.621789 223.446 47.938222 242.43846 48.71875 247 L 62.9375 247 L 76.0625 247 L 85.09375 247 L 85.09375 246.8125 C 85.094005 246.6496 85.006575 245.56232 84.96875 245 L 76.0625 245 L 62.9375 245 L 48.71875 245 C 47.963695 240.58733 45.75812 222.59958 43.46875 202.21875 L 43.25 202.21875 z M 214.78125 202.21875 C 212.26857 222.59903 209.86003 240.58742 209.03125 245 L 193.4375 245 L 179 245 L 169.25 245 C 169.20913 245.56178 169.12478 246.6497 169.125 246.8125 L 169.125 247 L 179 247 L 193.4375 247 L 209.03125 247 C 209.88801 242.43846 212.42788 223.44597 215.03125 202.21875 L 214.78125 202.21875 z "
       style="fill:#000000;fill-opacity:1;stroke:none;opacity:0.5" />
    <path
       inkscape:connector-curvature="0"
       style="opacity:0.2;fill:#000000;fill-opacity:1;stroke:none"
       d="m 125.25,54.625 c -8.30434,-0.150022 -16.48003,2.10576 -25.125,6.90625 -10.728953,5.957675 -20.45195,19.876862 -23.78125,33.875 -1.137084,4.78105 -1.739926,9.35386 -1.6875,16.875 0.05821,-6.35726 0.654948,-10.53347 1.6875,-14.875 3.3293,-13.998138 13.052297,-27.917325 23.78125,-33.875 13.83195,-7.680784 26.44452,-8.874342 40.34375,-4.0625 5.86927,2.031898 14.04151,7.310662 18.90625,12.28125 6.98806,7.139988 13.88251,19.875733 16.46875,30.4375 2.11024,8.61785 3.13389,14.98388 3.21875,23.9375 0.053,-10.03114 -0.956,-16.69683 -3.21875,-25.9375 C 173.25751,89.625733 166.36306,76.889988 159.375,69.75 154.51026,64.779412 146.33802,59.500648 140.46875,57.46875 135.25654,55.664309 130.2326,54.715013 125.25,54.625 z M 33,104.21875 c -0.06136,8.2052 0.503003,17.31308 1.59375,27.6875 3.226101,30.68396 7.398409,65.70267 8.53125,72.28125 l 0.34375,0 c -0.07605,-0.67704 -0.142541,-1.28669 -0.21875,-1.96875 l 38.0625,0 c 0.05873,0.67476 0.111341,1.21902 0.15625,1.75 2.5e-4,-0.16065 -0.09099,-1.24926 -0.125,-1.78125 l -9.40625,0 -13.84375,0 -14.96875,0 C 41.992159,195.60892 37.819851,160.59021 34.59375,129.90625 33.59083,120.36718 33.034802,111.90078 33,104.21875 z M 222.96875,113.5 c -0.075,4.50323 -0.32464,9.87735 -0.75,16.8125 -0.37209,6.06624 -1.16846,14.90874 -1.78125,19.65625 -1.00689,7.80115 -2.90781,27.53803 -4.625,48 -0.12316,1.46779 -0.31654,2.8747 -0.5,4.21875 l -3.6875,0 -14.1875,0 -11.59375,0 -12.28125,0 c -6.4e-4,0.0119 6.3e-4,0.0194 0,0.0313 l 41.46875,0 c -0.0837,0.68251 -0.16648,1.29126 -0.25,1.96875 l 0.53125,0 c 0.18346,-1.34405 0.37684,-2.75096 0.5,-4.21875 1.71719,-20.46197 3.61811,-40.19885 4.625,-48 0.61279,-4.74751 1.40916,-13.59001 1.78125,-19.65625 0.49208,-8.02296 0.72939,-13.90291 0.75,-18.8125 z M 43.25,204.21875 C 45.621789,225.446 47.938222,244.43846 48.71875,249 l 14.21875,0 13.125,0 9.03125,0 0,-0.1875 c 2.55e-4,-0.1629 -0.08718,-1.25018 -0.125,-1.8125 l -8.90625,0 -13.125,0 -14.21875,0 c -0.755055,-4.41267 -2.96063,-22.40042 -5.25,-42.78125 l -0.21875,0 z m 171.53125,0 c -2.51268,20.38028 -4.92122,38.36867 -5.75,42.78125 l -15.59375,0 -14.4375,0 -9.75,0 c -0.0409,0.56178 -0.12522,1.6497 -0.125,1.8125 l 0,0.1875 9.875,0 14.4375,0 15.59375,0 c 0.85676,-4.56154 3.39663,-23.55403 6,-44.78125 l -0.25,0 z"
       id="path3929" />
  </g>
</svg>
