<?xml version="1.0" encoding="UTF-8" standalone="no"?>
<!-- Created with Inkscape (http://www.inkscape.org/) -->

<svg
   xmlns:dc="http://purl.org/dc/elements/1.1/"
   xmlns:cc="http://creativecommons.org/ns#"
   xmlns:rdf="http://www.w3.org/1999/02/22-rdf-syntax-ns#"
   xmlns:svg="http://www.w3.org/2000/svg"
   xmlns="http://www.w3.org/2000/svg"
   xmlns:xlink="http://www.w3.org/1999/xlink"
   xmlns:sodipodi="http://sodipodi.sourceforge.net/DTD/sodipodi-0.dtd"
   xmlns:inkscape="http://www.inkscape.org/namespaces/inkscape"
   id="svg2"
   sodipodi:version="0.32"
   inkscape:version="0.48.3.1 r9886"
   width="256"
   height="256"
   version="1.0"
   sodipodi:docname="kt-remove-filters.svg">
  <metadata
     id="metadata7">
    <rdf:RDF>
      <cc:Work
         rdf:about="">
        <dc:format>image/svg+xml</dc:format>
        <dc:type
           rdf:resource="http://purl.org/dc/dcmitype/StillImage" />
        <dc:title></dc:title>
      </cc:Work>
    </rdf:RDF>
  </metadata>
  <defs
     id="defs5">
    <linearGradient
       inkscape:collect="always"
       id="linearGradient2811">
      <stop
         style="stop-color:#9fa3d7;stop-opacity:1"
         offset="0"
         id="stop2813" />
      <stop
         style="stop-color:#555abf;stop-opacity:1"
         offset="1"
         id="stop2815" />
    </linearGradient>
    <linearGradient
       id="linearGradient2776">
      <stop
         id="stop2778"
         offset="0"
         style="stop-color:#a8a8a8;stop-opacity:1;" />
      <stop
         id="stop2780"
         offset="1"
         style="stop-color:#f0f0f0;stop-opacity:1;" />
    </linearGradient>
    <linearGradient
       id="linearGradient2760">
      <stop
         style="stop-color:#d7d7d7;stop-opacity:1;"
         offset="0"
         id="stop2762" />
      <stop
         style="stop-color:#ffffff;stop-opacity:1;"
         offset="1"
         id="stop2764" />
    </linearGradient>
    <linearGradient
       inkscape:collect="always"
       xlink:href="#linearGradient2811"
       id="linearGradient2817"
       x1="198.15405"
       y1="44.59111"
       x2="260.61343"
       y2="44.59111"
       gradientUnits="userSpaceOnUse"
       gradientTransform="matrix(1.870225,0,0,1.936588,-249.479,-5.225271)" />
    <linearGradient
       inkscape:collect="always"
       xlink:href="#linearGradient2760"
       id="linearGradient3961"
       gradientUnits="userSpaceOnUse"
       gradientTransform="matrix(2.0114708,0,0,2.0115052,-276.02453,-8.9361788)"
       spreadMethod="reflect"
       x1="205.25932"
       y1="107.19092"
       x2="185.05022"
       y2="103.0775" />
    <linearGradient
       inkscape:collect="always"
       xlink:href="#linearGradient2760"
       id="linearGradient3963"
       gradientUnits="userSpaceOnUse"
       gradientTransform="matrix(2.0114708,0,0,2.0115052,-276.21473,-6.8657573)"
       spreadMethod="reflect"
       x1="206.20779"
       y1="75.97731"
       x2="135.49277"
       y2="50.328918" />
    <linearGradient
       inkscape:collect="always"
       xlink:href="#linearGradient2760"
       id="linearGradient3965"
       gradientUnits="userSpaceOnUse"
       x1="-0.9821372"
       y1="20.688091"
       x2="139.62865"
       y2="30.36673" />
    <linearGradient
       inkscape:collect="always"
       xlink:href="#linearGradient2776"
       id="linearGradient3967"
       gradientUnits="userSpaceOnUse"
       gradientTransform="matrix(1,0,0,1.0175747,0,-4.0070419)"
       x1="8.0230141"
       y1="70.195732"
       x2="245.94823"
       y2="70.195732" />
    <filter
       id="filter3657"
       color-interpolation-filters="sRGB">
      <feGaussianBlur
         stdDeviation="1.14"
         id="feGaussianBlur3659" />
    </filter>
    <linearGradient
       gradientUnits="userSpaceOnUse"
       xlink:href="#linearGradient3737"
       id="linearGradient3613"
       y2="138.66119"
       x2="48"
       y1="20.220806"
       x1="48" />
    <filter
       id="filter3794"
       color-interpolation-filters="sRGB"
       height="1.3839999"
       width="1.3839999"
       y="-0.192"
       x="-0.192">
      <feGaussianBlur
         stdDeviation="5.28"
         id="feGaussianBlur3796" />
    </filter>
    <filter
       id="filter3174"
       color-interpolation-filters="sRGB">
      <feGaussianBlur
         stdDeviation="1.71"
         id="feGaussianBlur3176" />
    </filter>
    <linearGradient
       id="linearGradient3737">
      <stop
         offset="0"
         style="stop-color:#ffffff;stop-opacity:1"
         id="stop3739" />
      <stop
         offset="1"
         style="stop-color:#ffffff;stop-opacity:0"
         id="stop3741" />
    </linearGradient>
    <linearGradient
       gradientTransform="scale(1.0058652,0.994169)"
       gradientUnits="userSpaceOnUse"
       id="ButtonShadow"
       y2="7.0165396"
       x2="45.447727"
       y1="92.539597"
       x1="45.447727">
      <stop
         offset="0"
         style="stop-color:#000000;stop-opacity:1"
         id="stop3750" />
      <stop
         offset="1"
         style="stop-color:#000000;stop-opacity:0.58823532"
         id="stop3752" />
    </linearGradient>
    <linearGradient
       y2="48.171715"
       x2="27.417484"
       y1="47.141441"
       x1="68.58252"
       gradientTransform="matrix(0,-3.9103857,3.913042,0,-58.113419,314.16812)"
       gradientUnits="userSpaceOnUse"
       id="linearGradient3977"
       xlink:href="#linearGradient3637-0"
       inkscape:collect="always" />
    <linearGradient
       id="linearGradient3637-0">
      <stop
         id="stop3639-1"
         style="stop-color:#ff0019;stop-opacity:1;"
         offset="0" />
      <stop
         id="stop3641-9"
         style="stop-color:#910008;stop-opacity:1;"
         offset="1" />
    </linearGradient>
  </defs>
  <sodipodi:namedview
     inkscape:window-height="553"
     inkscape:window-width="1024"
     inkscape:pageshadow="2"
     inkscape:pageopacity="0.0"
     guidetolerance="10.0"
     gridtolerance="10.0"
     objecttolerance="10.0"
     borderopacity="1.0"
     bordercolor="#666666"
     pagecolor="#ffffff"
     id="base"
     inkscape:zoom="1.4960938"
     inkscape:cx="128"
     inkscape:cy="128"
     inkscape:window-x="-4"
     inkscape:window-y="24"
     inkscape:current-layer="svg2"
     width="256px"
     height="256px"
     showgrid="false"
     inkscape:snap-bbox="true"
     inkscape:bbox-paths="true"
     inkscape:bbox-nodes="true"
     inkscape:snap-bbox-edge-midpoints="true"
     inkscape:snap-bbox-midpoints="true"
     inkscape:object-paths="true"
     inkscape:snap-intersection-paths="true"
     inkscape:object-nodes="true"
     inkscape:snap-smooth-nodes="true"
     inkscape:snap-midpoints="true"
     inkscape:snap-object-midpoints="true"
     inkscape:snap-center="true"
     inkscape:snap-page="true"
     inkscape:window-maximized="1" />
  <g
     id="g4014">
    <path
       id="path4012"
       d="M 128 28 C 96.085479 28 67.202212 31.909209 45.90625 38.34375 C 35.258269 41.561019 26.510366 45.393908 20.0625 50 C 16.900458 52.258833 14.192818 54.814232 12.25 57.65625 C 12.211973 57.711877 12.162436 57.75665 12.125 57.8125 C 12.107386 57.835349 12.07997 57.852134 12.0625 57.875 C 10.068866 60.484481 9 63.207503 9 66 C 9 66.310277 9.0053911 66.597855 9.03125 66.90625 C 9.0337907 66.936551 9.0284613 66.969718 9.03125 67 C 9.0267251 67.15549 9.03125 67.312064 9.03125 67.46875 C 9.03125 74.492268 13.614633 80.300157 20.0625 84.90625 C 23.602647 87.435186 27.852597 89.723898 32.71875 91.8125 L 105.875 183.9375 C 105.92715 183.96019 105.9791 183.97746 106.03125 184 L 105.5625 221.78125 C 121.25803 229.7481 139.34838 230.42861 155.65625 221.78125 L 157.09375 183.78125 L 228.09375 89.5625 C 230.97339 88.102139 233.62464 86.558466 235.9375 84.90625 C 242.38536 80.300157 246.9375 74.492268 246.9375 67.46875 C 246.9375 67.374738 246.93913 67.281081 246.9375 67.1875 C 246.98106 66.787612 247 66.40309 247 66 C 247 62.984338 245.75193 60.049027 243.4375 57.25 C 243.37064 57.169145 243.31866 57.080637 243.25 57 C 241.3506 54.424912 238.84965 52.080321 235.9375 50 C 229.48964 45.393908 220.77299 41.561019 210.125 38.34375 C 188.82904 31.909209 159.91452 28 128 28 z "
       style="fill:none;fill-opacity:1;fill-rule:evenodd;stroke:#000000;stroke-opacity:1;stroke-width:18;stroke-miterlimit:4;stroke-dasharray:none;stroke-linejoin:round;opacity:0.05" />
    <path
       style="fill:none;fill-opacity:1;fill-rule:evenodd;stroke:#000000;stroke-opacity:1;stroke-width:12;stroke-miterlimit:4;stroke-dasharray:none;stroke-linejoin:round;opacity:0.1"
       d="M 128 28 C 96.085479 28 67.202212 31.909209 45.90625 38.34375 C 35.258269 41.561019 26.510366 45.393908 20.0625 50 C 16.900458 52.258833 14.192818 54.814232 12.25 57.65625 C 12.211973 57.711877 12.162436 57.75665 12.125 57.8125 C 12.107386 57.835349 12.07997 57.852134 12.0625 57.875 C 10.068866 60.484481 9 63.207503 9 66 C 9 66.310277 9.0053911 66.597855 9.03125 66.90625 C 9.0337907 66.936551 9.0284613 66.969718 9.03125 67 C 9.0267251 67.15549 9.03125 67.312064 9.03125 67.46875 C 9.03125 74.492268 13.614633 80.300157 20.0625 84.90625 C 23.602647 87.435186 27.852597 89.723898 32.71875 91.8125 L 105.875 183.9375 C 105.92715 183.96019 105.9791 183.97746 106.03125 184 L 105.5625 221.78125 C 121.25803 229.7481 139.34838 230.42861 155.65625 221.78125 L 157.09375 183.78125 L 228.09375 89.5625 C 230.97339 88.102139 233.62464 86.558466 235.9375 84.90625 C 242.38536 80.300157 246.9375 74.492268 246.9375 67.46875 C 246.9375 67.374738 246.93913 67.281081 246.9375 67.1875 C 246.98106 66.787612 247 66.40309 247 66 C 247 62.984338 245.75193 60.049027 243.4375 57.25 C 243.37064 57.169145 243.31866 57.080637 243.25 57 C 241.3506 54.424912 238.84965 52.080321 235.9375 50 C 229.48964 45.393908 220.77299 41.561019 210.125 38.34375 C 188.82904 31.909209 159.91452 28 128 28 z "
       id="path4010" />
    <path
       id="path3971"
       d="M 128 28 C 96.085479 28 67.202212 31.909209 45.90625 38.34375 C 35.258269 41.561019 26.510366 45.393908 20.0625 50 C 16.900458 52.258833 14.192818 54.814232 12.25 57.65625 C 12.211973 57.711877 12.162436 57.75665 12.125 57.8125 C 12.107386 57.835349 12.07997 57.852134 12.0625 57.875 C 10.068866 60.484481 9 63.207503 9 66 C 9 66.310277 9.0053911 66.597855 9.03125 66.90625 C 9.0337907 66.936551 9.0284613 66.969718 9.03125 67 C 9.0267251 67.15549 9.03125 67.312064 9.03125 67.46875 C 9.03125 74.492268 13.614633 80.300157 20.0625 84.90625 C 23.602647 87.435186 27.852597 89.723898 32.71875 91.8125 L 105.875 183.9375 C 105.92715 183.96019 105.9791 183.97746 106.03125 184 L 105.5625 221.78125 C 121.25803 229.7481 139.34838 230.42861 155.65625 221.78125 L 157.09375 183.78125 L 228.09375 89.5625 C 230.97339 88.102139 233.62464 86.558466 235.9375 84.90625 C 242.38536 80.300157 246.9375 74.492268 246.9375 67.46875 C 246.9375 67.374738 246.93913 67.281081 246.9375 67.1875 C 246.98106 66.787612 247 66.40309 247 66 C 247 62.984338 245.75193 60.049027 243.4375 57.25 C 243.37064 57.169145 243.31866 57.080637 243.25 57 C 241.3506 54.424912 238.84965 52.080321 235.9375 50 C 229.48964 45.393908 220.77299 41.561019 210.125 38.34375 C 188.82904 31.909209 159.91452 28 128 28 z "
       style="fill:none;fill-opacity:1;fill-rule:evenodd;stroke:#000000;stroke-opacity:1;stroke-width:6;stroke-miterlimit:4;stroke-dasharray:none;stroke-linejoin:round;opacity:0.15" />
    <g
       transform="translate(0.9999993,3.1035103e-7)"
       id="g3955">
      <path
         sodipodi:nodetypes="ccccc"
         id="path2792"
         d="m 104.57687,221.76706 0.49064,-39.91068 c 17.03475,7.41118 34.06951,6.86143 51.10426,0 l -1.51473,39.91068 c -16.30787,8.64736 -34.38464,7.96685 -50.08017,0 z"
         style="fill:url(#linearGradient3961);fill-opacity:1;fill-rule:evenodd;stroke:none"
         inkscape:connector-curvature="0" />
      <path
         style="fill:url(#linearGradient3963);fill-opacity:1;fill-rule:evenodd;stroke:none"
         d="m 232.5625,82.337679 c -5.90087,3.514278 -13.30245,6.580932 -22.03125,9.21833 C 189.1856,98.005559 160.10739,101.94286 127,101.94286 c -31.107375,0 -60.185622,-3.937301 -81.531255,-10.386851 -8.004611,-2.418577 -14.918782,-5.18792 -20.5625,-8.341939 L 104.875,183.93408 c 17.03475,7.41118 34.05899,6.86142 51.09375,0 L 232.5625,82.337679 z"
         id="path2782"
         inkscape:connector-curvature="0" />
      <path
         sodipodi:type="arc"
         style="fill:url(#linearGradient3965);fill-opacity:1;stroke:none"
         id="path1873"
         sodipodi:cx="64.725899"
         sodipodi:cy="30.36673"
         sodipodi:rx="58.918716"
         sodipodi:ry="17.300568"
         d="m 123.64462,30.36673 c 0,9.554839 -26.378813,17.300567 -58.918721,17.300567 -32.539909,0 -58.9187167,-7.745728 -58.9187167,-17.300567 0,-9.55484 26.3788077,-17.300568 58.9187167,-17.300568 32.539908,0 58.918721,7.745728 58.918721,17.300568 z"
         transform="matrix(2.0197317,0,0,2.0782933,-3.7289495,2.8762344)" />
      <path
         style="font-size:medium;font-style:normal;font-variant:normal;font-weight:normal;font-stretch:normal;text-indent:0;text-align:start;text-decoration:none;line-height:normal;letter-spacing:normal;word-spacing:normal;text-transform:none;direction:ltr;block-progression:tb;writing-mode:lr-tb;text-anchor:start;baseline-shift:baseline;color:#000000;fill:url(#linearGradient3967);fill-opacity:1;stroke:none;stroke-width:4.92360163;marker:none;visibility:visible;display:inline;overflow:visible;enable-background:accumulate;font-family:Sans;-inkscape-font-specification:Sans"
         d="m 126.98562,27.999998 c -31.91452,0 -60.778546,3.911883 -82.074508,10.346424 C 34.263131,41.563691 25.494909,45.395637 19.047043,50.001729 12.599176,54.607821 8.0230136,60.43001 8.0230136,67.453526 c 0,7.023518 4.5761624,12.845706 11.0240294,17.451799 6.447866,4.606092 15.216088,8.438037 25.864069,11.655307 21.295962,6.434548 50.159988,10.284098 82.074508,10.284098 31.91452,0 60.83911,-3.84955 82.13507,-10.284098 10.64799,-3.21727 19.35564,-7.049215 25.8035,-11.655307 6.44786,-4.606093 11.02403,-10.428281 11.02403,-17.451799 0,-7.023516 -4.57617,-12.845705 -11.02403,-17.451797 -6.44786,-4.606092 -15.15551,-8.438038 -25.8035,-11.655307 -21.29596,-6.434541 -50.22055,-10.346424 -82.13507,-10.346424 z m 0,9.847801 c 31.15729,0 59.37246,3.856013 79.40935,9.910128 10.01845,3.027057 18.02838,6.633745 23.13835,10.284094 5.10997,3.65035 6.90516,6.906501 6.90516,9.411505 0,2.505006 -1.79519,5.761157 -6.90516,9.411507 -5.10997,3.650348 -13.1199,7.257037 -23.13835,10.284094 -20.03689,6.054115 -48.25206,9.910128 -79.40935,9.910128 -31.157292,0 -59.372465,-3.856013 -79.409358,-9.910128 C 37.557816,84.12207 29.608451,80.515381 24.498486,76.865033 c -5.109965,-3.65035 -6.905161,-6.906501 -6.905161,-9.411507 0,-2.505004 1.795196,-5.761155 6.905161,-9.411505 5.109965,-3.650349 13.05933,-7.257037 23.077776,-10.284094 20.036893,-6.054115 48.252066,-9.910128 79.409358,-9.910128 z"
         id="path3941"
         inkscape:connector-curvature="0" />
    </g>
    <path
       id="path3998"
       d="M 128 28 C 96.085479 28 67.202212 31.909209 45.90625 38.34375 C 35.258269 41.561019 26.510366 45.393908 20.0625 50 C 16.900458 52.258833 14.192818 54.814232 12.25 57.65625 C 12.211973 57.711877 12.162436 57.75665 12.125 57.8125 C 12.107386 57.835349 12.07997 57.852134 12.0625 57.875 C 10.068866 60.484481 9 63.207503 9 66 C 9 66.310277 9.0053911 66.597855 9.03125 66.90625 C 9.0337907 66.936551 9.0284613 66.969718 9.03125 67 C 9.0267251 67.15549 9.03125 67.312064 9.03125 67.46875 C 9.1594709 64.864595 10.19723 62.316464 12.0625 59.875 C 12.07997 59.85213 12.10739 59.83535 12.125 59.8125 C 12.16244 59.75665 12.21197 59.71188 12.25 59.65625 C 14.192818 56.814232 16.900458 54.258833 20.0625 52 C 26.510366 47.393908 35.258269 43.561019 45.90625 40.34375 C 67.202212 33.909209 96.085479 30 128 30 C 159.91452 30 188.82904 33.909209 210.125 40.34375 C 220.77299 43.561019 229.48964 47.393908 235.9375 52 C 238.84965 54.080321 241.3506 56.424912 243.25 59 C 243.31866 59.080637 243.3706 59.16915 243.4375 59.25 C 245.46263 61.699149 246.66697 64.254637 246.9375 66.875 C 246.96039 66.58428 247 66.297307 247 66 C 247 62.984338 245.75193 60.049027 243.4375 57.25 C 243.37064 57.169145 243.31866 57.080637 243.25 57 C 241.3506 54.424912 238.84965 52.080321 235.9375 50 C 229.48964 45.393908 220.77299 41.561019 210.125 38.34375 C 188.82904 31.909209 159.91452 28 128 28 z M 106 186 L 105.5625 221.78125 C 105.57093 221.78553 105.58531 221.77697 105.59375 221.78125 L 106.03125 186 C 106.02226 185.99612 106.00898 186.00362 106 186 z "
       style="fill:#ffffff;fill-opacity:1;fill-rule:evenodd;stroke:none;opacity:0.5" />
    <path
       id="path4003"
       d="M 246.9375 65.03125 C 246.93262 65.083269 246.94322 65.135029 246.9375 65.1875 C 246.9395 65.281081 246.9375 65.37474 246.9375 65.46875 C 246.9375 72.492268 242.38536 78.300157 235.9375 82.90625 C 233.62464 84.558466 230.97339 86.102139 228.09375 87.5625 L 157.09375 181.78125 L 155.65625 219.78125 C 139.35714 228.42396 121.28342 227.73599 105.59375 219.78125 L 105.5625 221.78125 C 121.25803 229.7481 139.34838 230.42861 155.65625 221.78125 L 157.09375 183.78125 L 228.09375 89.5625 C 230.97339 88.102139 233.62464 86.558466 235.9375 84.90625 C 242.38536 80.300157 246.9375 74.492268 246.9375 67.46875 C 246.9375 67.374738 246.93913 67.281081 246.9375 67.1875 C 246.98106 66.787612 247 66.40309 247 66 C 247 65.675236 246.96622 65.35408 246.9375 65.03125 z M 9.03125 65.46875 C 9.0224261 65.647963 9 65.820199 9 66 C 9 66.310277 9.0053911 66.597855 9.03125 66.90625 C 9.0337907 66.936551 9.0284613 66.969718 9.03125 67 C 9.0267251 67.15549 9.03125 67.312064 9.03125 67.46875 C 9.03125 74.492268 13.614633 80.300157 20.0625 84.90625 C 23.602647 87.435186 27.852597 89.723898 32.71875 91.8125 L 105.875 183.9375 C 105.91816 183.95628 105.95689 183.98259 106 184 L 106.03125 182 C 105.9791 181.9775 105.9271 181.9602 105.875 181.9375 L 32.71875 89.8125 C 27.852597 87.723898 23.602647 85.435186 20.0625 82.90625 C 13.614633 78.300157 9.03125 72.492268 9.03125 65.46875 z "
       style="fill:#000000;fill-opacity:1;fill-rule:evenodd;stroke:none;opacity:0.5" />
    <path
       inkscape:connector-curvature="0"
       style="opacity:0.2;fill:#000000;fill-opacity:1;fill-rule:evenodd;stroke:none"
       d="m 246.9375,67.03125 c -0.005,0.05202 0.006,0.103779 0,0.15625 0.002,0.09358 0,0.18724 0,0.28125 0,7.023518 -4.55214,12.831407 -11,17.4375 -2.31286,1.652216 -4.96411,3.195889 -7.84375,4.65625 l -71,94.21875 -1.4375,38 c -16.29911,8.64271 -34.37283,7.95474 -50.0625,0 l -0.0313,2 c 15.69553,7.96685 33.78588,8.64736 50.09375,0 l 1.4375,-38 71,-94.21875 c 2.87964,-1.460361 5.53089,-3.004034 7.84375,-4.65625 6.44786,-4.606093 11,-10.413982 11,-17.4375 0,-0.09401 0.002,-0.187669 0,-0.28125 C 246.98106,68.787612 247,68.40309 247,68 c 0,-0.324764 -0.0338,-0.64592 -0.0625,-0.96875 z M 9.03125,67.46875 C 9.0224261,67.647963 9,67.820199 9,68 c 0,0.310277 0.00539,0.597855 0.03125,0.90625 0.00254,0.0303 -0.00279,0.06347 0,0.09375 -0.00452,0.15549 0,0.312064 0,0.46875 0,7.023518 4.583383,12.831407 11.03125,17.4375 3.540147,2.528936 7.790097,4.817648 12.65625,6.90625 l 73.15625,92.125 c 0.0432,0.0188 0.0819,0.0451 0.125,0.0625 l 0.0313,-2 c -0.0521,-0.0225 -0.10415,-0.0398 -0.15625,-0.0625 L 32.71875,91.8125 C 27.852597,89.723898 23.602647,87.435186 20.0625,84.90625 13.614633,80.300157 9.03125,74.492268 9.03125,67.46875 z"
       id="path4008" />
  </g>
  <g
     transform="matrix(0.71111112,0,0,0.71111112,99.759929,99.328782)"
     id="g3967">
    <path
       inkscape:connector-curvature="0"
       style="opacity:0.1;fill:#000000;fill-opacity:1;stroke:none;display:inline"
       id="path3734"
       d="m 174.5903,40.318922 a 3.8669693,3.8643443 0 0 0 0,0.122199 c -0.001,1.25e-4 -0.73253,-2.31e-4 -0.7337,0 -10e-4,2.31e-4 -0.61027,0.244047 -0.61141,0.244399 -0.001,3.37e-4 -0.73259,0.243969 -0.73369,0.244399 -0.001,4.34e-4 -0.61035,0.243852 -0.61142,0.2444 -0.001,5.31e-4 -0.6104,0.365973 -0.61141,0.366598 -0.001,6.26e-4 -0.61046,0.365895 -0.61141,0.366599 -9.6e-4,7.12e-4 -0.48825,0.365816 -0.48913,0.366598 -7.8e-4,6.97e-4 -0.27176,0.395423 -0.36685,0.488799 -0.0137,0.01329 -0.12217,-1.1e-4 -0.12228,0 L 129.7126,82.844366 89.603918,42.762913 c -5.43e-4,-5.44e-4 -0.243978,-0.366091 -0.244565,-0.366599 -5.75e-4,-5.08e-4 -0.36626,-0.24393 -0.366847,-0.244399 -6.03e-4,-4.77e-4 -0.366222,-0.243969 -0.366848,-0.244399 -6.3e-4,-4.42e-4 -0.366182,-0.244008 -0.366848,-0.244399 -6.53e-4,-4.03e-4 -0.366182,-0.244047 -0.366847,-0.244399 -6.77e-4,-3.64e-4 -0.488434,-0.244087 -0.489131,-0.244399 -6.96e-4,-3.25e-4 -0.366143,-0.121926 -0.366847,-0.1222 -7.16e-4,-2.85e-4 -0.366105,-0.244165 -0.366848,-0.244399 -7.28e-4,-2.43e-4 -0.488387,-0.122004 -0.48913,-0.1222 -7.44e-4,-1.99e-4 -0.488379,-0.122043 -0.48913,-0.122199 -7.52e-4,-1.57e-4 -0.366105,1.13e-4 -0.366848,0 -7.59e-4,-1.14e-4 -0.488363,-0.122122 -0.48913,-0.1222 -7.67e-4,-7e-5 -0.366066,2.8e-5 -0.366848,0 -7.67e-4,-2.7e-5 -0.488363,-1.9e-5 -0.48913,0 -7.67e-4,2e-5 -0.488364,-6.2e-5 -0.489131,0 -5.36e-4,4.3e-5 -0.113673,0.107614 -0.244565,0.1222 -0.05611,0.0063 -0.122048,-3.2e-5 -0.122282,0 -0.149283,0.02229 -0.610497,-1.76e-4 -0.611413,0 -0.0011,2.11e-4 -0.610337,0.244086 -0.611413,0.244399 -0.0011,3.01e-4 -0.610368,0.121808 -0.611413,0.122199 -10e-4,3.91e-4 -0.610403,0.24393 -0.611413,0.2444 -10e-4,4.77e-4 -0.610446,0.366051 -0.611412,0.366598 -9.67e-4,5.59e-4 -0.488215,0.365973 -0.489131,0.366599 -9.15e-4,6.41e-4 -0.488273,0.365895 -0.48913,0.366598 -8.57e-4,7.16e-4 -0.488336,0.365817 -0.48913,0.366599 a 3.8669693,3.8643443 0 0 0 0,0.1222 l -36.562486,36.415467 0,0.122199 c -0.07486,0.07582 -0.244213,0.244008 -0.244565,0.244399 -4.58e-4,4.89e-4 -0.244135,0.243891 -0.244566,0.244399 -4.34e-4,5.09e-4 -0.244173,0.243852 -0.244565,0.244399 -4.07e-4,5.32e-4 -0.244174,0.366052 -0.244565,0.366599 -3.79e-4,5.51e-4 -0.244213,0.366012 -0.244565,0.366599 -3.52e-4,5.71e-4 -0.244252,0.243812 -0.244565,0.244399 -3.21e-4,5.86e-4 -0.122009,0.366012 -0.122283,0.366598 -2.93e-4,6.03e-4 -0.122008,0.365973 -0.122282,0.366599 -2.62e-4,6.14e-4 -0.244331,0.365973 -0.244565,0.366599 -2.31e-4,6.29e-4 -0.122087,0.365973 -0.122283,0.366598 -1.99e-4,6.38e-4 1.68e-4,0.365934 0,0.366599 -1.68e-4,6.49e-4 -0.122165,0.365934 -0.122282,0.366599 -1.33e-4,6.57e-4 -0.122166,0.365934 -0.122283,0.366598 -1.02e-4,6.61e-4 6.7e-5,0.488134 0,0.488799 -6.7e-5,6.64e-4 3.5e-5,0.365934 0,0.366598 -3.5e-5,6.69e-4 0,0.365934 0,0.366599 0,6.69e-4 -3.5e-5,0.365934 0,0.366599 3.5e-5,6.68e-4 -6.7e-5,0.365934 0,0.366598 6.7e-5,6.65e-4 -1.02e-4,0.488138 0,0.488799 1.02e-4,6.6e-4 0.122165,0.365933 0.122283,0.366598 1.33e-4,6.57e-4 0.122126,0.365934 0.122282,0.366599 1.68e-4,6.49e-4 -1.99e-4,0.365973 0,0.366598 2e-4,6.38e-4 0.122048,0.365973 0.122283,0.366599 2.31e-4,6.3e-4 0.244291,0.365973 0.244565,0.366599 2.62e-4,6.14e-4 0.122008,0.366012 0.122282,0.366598 2.94e-4,6.03e-4 0.12197,0.366013 0.122283,0.366599 3.21e-4,5.87e-4 0.244213,0.243813 0.244565,0.244399 3.52e-4,5.71e-4 0.244174,0.366051 0.244565,0.366599 3.8e-4,5.51e-4 0.244174,0.366051 0.244565,0.366599 4.07e-4,5.31e-4 0.244135,0.24389 0.244565,0.244399 4.35e-4,5.08e-4 0.244096,0.24393 0.244566,0.244399 3.52e-4,3.75e-4 0.169708,0.168576 0.244565,0.244399 0.0223,0.02268 -1.1e-4,0.122082 0,0.122199 l 40.10868,39.959252 -40.10868,39.95926 0,0.1222 c -0.07486,0.0758 -0.244213,0.244 -0.244565,0.24439 -4.58e-4,4.9e-4 -0.244135,0.2439 -0.244566,0.2444 -4.34e-4,5.1e-4 -0.244173,0.24386 -0.244565,0.2444 -4.07e-4,5.3e-4 -0.244174,0.36605 -0.244565,0.3666 -3.79e-4,5.5e-4 -0.244213,0.36601 -0.244565,0.3666 -3.52e-4,5.7e-4 -0.244252,0.24381 -0.244565,0.2444 -3.21e-4,5.9e-4 -0.122009,0.36601 -0.122283,0.3666 -2.93e-4,6e-4 -0.122008,0.36597 -0.122282,0.3666 -2.62e-4,6.1e-4 -0.244331,0.36597 -0.244565,0.3666 -2.31e-4,6.3e-4 -0.122087,0.36597 -0.122283,0.36659 -1.99e-4,6.4e-4 1.68e-4,0.36594 0,0.3666 -1.68e-4,6.5e-4 -0.122165,0.36594 -0.122282,0.3666 -1.33e-4,6.6e-4 -0.122166,0.36594 -0.122283,0.3666 -1.02e-4,6.6e-4 6.7e-5,0.48813 0,0.4888 -6.7e-5,6.6e-4 3.5e-5,0.36593 0,0.3666 -3.5e-5,6.7e-4 0,0.36593 0,0.3666 0,6.6e-4 -3.5e-5,0.36593 0,0.36659 3.5e-5,6.7e-4 -6.7e-5,0.36594 0,0.3666 6.7e-5,6.7e-4 -1.02e-4,0.48814 0,0.4888 1.02e-4,6.6e-4 0.122165,0.36594 0.122283,0.3666 1.33e-4,6.6e-4 0.122126,0.36593 0.122282,0.3666 1.68e-4,6.5e-4 -1.99e-4,0.36597 0,0.3666 2e-4,6.3e-4 0.122048,0.36597 0.122283,0.3666 2.31e-4,6.3e-4 0.244291,0.36597 0.244565,0.36659 2.62e-4,6.2e-4 0.122008,0.36602 0.122282,0.3666 2.94e-4,6.1e-4 0.12197,0.36602 0.122283,0.3666 3.21e-4,5.9e-4 0.244213,0.24381 0.244565,0.2444 3.52e-4,5.7e-4 0.244174,0.36605 0.244565,0.3666 3.8e-4,5.5e-4 0.244174,0.36605 0.244565,0.3666 4.07e-4,5.3e-4 0.244135,0.24389 0.244565,0.2444 4.35e-4,5.1e-4 0.244096,0.24393 0.244566,0.2444 3.52e-4,3.7e-4 0.169708,0.16857 0.244565,0.2444 0.0223,0.0227 -1.1e-4,0.12208 0,0.1222 l 36.562486,36.41546 c 0.07587,0.0748 0.244174,0.24405 0.244565,0.2444 4.89e-4,4.6e-4 0.244056,0.24397 0.244565,0.2444 5.09e-4,4.3e-4 0.244017,0.24401 0.244565,0.2444 5.32e-4,4.1e-4 0.3663,0.24401 0.366848,0.2444 5.52e-4,3.8e-4 0.366261,0.24405 0.366848,0.2444 5.71e-4,3.5e-4 0.243978,0.24408 0.244565,0.2444 5.87e-4,3.2e-4 0.36626,0.12192 0.366847,0.1222 6.03e-4,2.9e-4 0.366222,0.12192 0.366848,0.1222 6.14e-4,2.6e-4 0.366222,0.24416 0.366848,0.24439 6.3e-4,2.4e-4 0.366221,0.12201 0.366847,0.1222 6.38e-4,2e-4 0.366183,-1.6e-4 0.366848,0 6.5e-4,1.7e-4 0.366183,0.12209 0.366848,0.1222 6.57e-4,1.4e-4 0.366182,0.12209 0.366848,0.1222 6.61e-4,1.1e-4 0.488465,-6e-5 0.48913,0 6.65e-4,7e-5 0.366182,-3e-5 0.366847,0 6.7e-4,4e-5 0.366183,0 0.366848,0 6.69e-4,0 0.366183,4e-5 0.366848,0 6.69e-4,-3e-5 0.366182,7e-5 0.366848,0 6.65e-4,-6e-5 0.488469,1.1e-4 0.48913,0 6.61e-4,-1e-4 0.366182,-0.12208 0.366848,-0.1222 6.57e-4,-1.3e-4 0.366182,-0.12204 0.366847,-0.1222 6.5e-4,-1.6e-4 0.366222,2e-4 0.366848,0 6.38e-4,-2e-4 0.366221,-0.12196 0.366848,-0.1222 6.3e-4,-2.3e-4 0.366221,-0.24412 0.366847,-0.24439 6.15e-4,-2.7e-4 0.366261,-0.12193 0.366848,-0.1222 6.03e-4,-3e-4 0.366261,-0.12189 0.366848,-0.1222 5.87e-4,-3.2e-4 0.243978,-0.24405 0.244565,-0.2444 5.71e-4,-3.5e-4 0.3663,-0.24401 0.366847,-0.2444 5.52e-4,-3.8e-4 0.3663,-0.24401 0.366848,-0.2444 5.32e-4,-4.1e-4 0.244057,-0.24397 0.244565,-0.2444 5.09e-4,-4.3e-4 0.244096,-0.24393 0.244565,-0.2444 3.76e-4,-3.5e-4 0.168692,-0.16959 0.244565,-0.2444 l 0.122283,0 39.986399,-40.08145 40.10868,40.08145 c 0.0759,0.0748 0.24417,0.24405 0.24456,0.2444 4.9e-4,4.6e-4 0.24406,0.24397 0.24457,0.2444 5.1e-4,4.3e-4 0.24402,0.24401 0.24456,0.2444 5.4e-4,4.1e-4 0.3663,0.24401 0.36685,0.2444 5.5e-4,3.8e-4 0.36626,0.24405 0.36685,0.2444 5.7e-4,3.5e-4 0.24398,0.24408 0.24457,0.2444 5.8e-4,3.2e-4 0.36626,0.12192 0.36684,0.1222 6.1e-4,2.9e-4 0.36622,0.12192 0.36685,0.1222 6.2e-4,2.6e-4 0.36622,0.24416 0.36685,0.24439 6.3e-4,2.4e-4 0.36622,0.12201 0.36685,0.1222 6.3e-4,2e-4 0.36618,-1.6e-4 0.36684,0 6.5e-4,1.7e-4 0.36619,0.12209 0.36685,0.1222 6.6e-4,1.4e-4 0.36618,0.12209 0.36685,0.1222 6.6e-4,1.1e-4 0.48846,-6e-5 0.48913,0 6.6e-4,7e-5 0.36618,-3e-5 0.36685,0 6.7e-4,4e-5 0.36618,0 0.36684,0 6.7e-4,0 0.36619,4e-5 0.36685,0 6.7e-4,-3e-5 0.36618,7e-5 0.36685,0 6.7e-4,-6e-5 0.48847,1.1e-4 0.48913,0 6.6e-4,-1e-4 0.36618,-0.12208 0.36685,-0.1222 6.6e-4,-1.3e-4 0.36618,-0.12204 0.36685,-0.1222 6.5e-4,-1.6e-4 0.36622,2e-4 0.36684,0 6.4e-4,-2e-4 0.36623,-0.12196 0.36685,-0.1222 6.3e-4,-2.3e-4 0.36622,-0.24412 0.36685,-0.24439 6.1e-4,-2.7e-4 0.36626,-0.12193 0.36685,-0.1222 6e-4,-3e-4 0.36626,-0.12189 0.36684,-0.1222 5.9e-4,-3.2e-4 0.24398,-0.24405 0.24457,-0.2444 5.7e-4,-3.5e-4 0.3663,-0.24401 0.36685,-0.2444 5.5e-4,-3.8e-4 0.3663,-0.24401 0.36684,-0.2444 5.4e-4,-4.1e-4 0.24406,-0.24397 0.24457,-0.2444 5.1e-4,-4.3e-4 0.2441,-0.24393 0.24456,-0.2444 3.8e-4,-3.5e-4 0.1687,-0.16959 0.24457,-0.2444 l 0.12228,0 36.44021,-36.41546 0,-0.1222 c 0.0748,-0.0758 0.24421,-0.24401 0.24456,-0.2444 4.6e-4,-4.9e-4 0.24414,-0.24389 0.24457,-0.2444 4.3e-4,-5.1e-4 0.24417,-0.24385 0.24456,-0.2444 4.1e-4,-5.3e-4 0.24418,-0.36605 0.24457,-0.3666 3.8e-4,-5.5e-4 0.24421,-0.36601 0.24456,-0.3666 3.5e-4,-5.7e-4 0.24425,-0.24381 0.24457,-0.2444 3.2e-4,-5.8e-4 0.12201,-0.36601 0.12228,-0.3666 2.9e-4,-6e-4 0.12201,-0.36597 0.12228,-0.3666 2.6e-4,-6.1e-4 0.24433,-0.36597 0.24457,-0.36659 2.3e-4,-6.3e-4 0.12208,-0.36598 0.12228,-0.3666 2e-4,-6.4e-4 -1.7e-4,-0.36594 0,-0.3666 1.7e-4,-6.5e-4 0.12217,-0.36594 0.12228,-0.3666 1.4e-4,-6.6e-4 0.12217,-0.36593 0.12228,-0.3666 1.1e-4,-6.6e-4 -6e-5,-0.48813 0,-0.4888 7e-5,-6.6e-4 -3e-5,-0.36593 0,-0.3666 4e-5,-6.6e-4 0,-0.36593 0,-0.36659 0,-6.7e-4 4e-5,-0.36594 0,-0.3666 -3e-5,-6.7e-4 7e-5,-0.36594 0,-0.3666 -6e-5,-6.7e-4 1.1e-4,-0.48814 0,-0.4888 -1e-4,-6.6e-4 -0.12216,-0.36593 -0.12228,-0.3666 -1.3e-4,-6.6e-4 -0.12212,-0.36593 -0.12228,-0.3666 -1.7e-4,-6.5e-4 2e-4,-0.36597 0,-0.3666 -2e-4,-6.3e-4 -0.12205,-0.36597 -0.12228,-0.36659 -2.3e-4,-6.3e-4 -0.24429,-0.36598 -0.24457,-0.3666 -2.6e-4,-6.2e-4 -0.12201,-0.36602 -0.12228,-0.3666 -2.9e-4,-6e-4 -0.12197,-0.36601 -0.12228,-0.3666 -3.2e-4,-5.9e-4 -0.24422,-0.24381 -0.24457,-0.2444 -3.5e-4,-5.7e-4 -0.24417,-0.36605 -0.24456,-0.3666 -3.8e-4,-5.5e-4 -0.24418,-0.36605 -0.24457,-0.3666 -4.1e-4,-5.3e-4 -0.24413,-0.24389 -0.24456,-0.2444 -4.4e-4,-5e-4 -0.2441,-0.24393 -0.24457,-0.2444 -3.5e-4,-3.7e-4 -0.16971,-0.16857 -0.24456,-0.24439 L 177.28052,130.37999 217.3892,90.298539 c 0.0748,-0.07582 0.24421,-0.244008 0.24456,-0.244399 4.6e-4,-4.89e-4 0.24414,-0.243891 0.24457,-0.244399 4.3e-4,-5.09e-4 0.24417,-0.243852 0.24456,-0.244399 4.1e-4,-5.32e-4 0.24418,-0.366052 0.24457,-0.366599 3.8e-4,-5.51e-4 0.24421,-0.366012 0.24456,-0.366599 3.5e-4,-5.71e-4 0.24425,-0.243812 0.24457,-0.244399 3.2e-4,-5.86e-4 0.12201,-0.366012 0.12228,-0.366599 2.9e-4,-6.02e-4 0.12201,-0.365973 0.12228,-0.366598 2.6e-4,-6.14e-4 0.24433,-0.365973 0.24457,-0.366599 2.3e-4,-6.29e-4 0.12208,-0.365973 0.12228,-0.366599 2e-4,-6.37e-4 -1.7e-4,-0.365933 0,-0.366598 1.7e-4,-6.49e-4 0.12217,-0.365934 0.12228,-0.366599 1.4e-4,-6.57e-4 0.12217,-0.365934 0.12228,-0.366598 1.1e-4,-6.61e-4 -6e-5,-0.488134 0,-0.488799 7e-5,-6.64e-4 -3e-5,-0.365934 0,-0.366598 4e-5,-6.69e-4 0,-0.365934 0,-0.366599 0,-6.69e-4 4e-5,-0.365934 0,-0.366599 -3e-5,-6.68e-4 7e-5,-0.365934 0,-0.366598 -6e-5,-6.65e-4 1.1e-4,-0.488138 0,-0.488799 -1e-4,-6.6e-4 -0.12216,-0.365933 -0.12228,-0.366598 -1.3e-4,-6.57e-4 -0.12212,-0.365934 -0.12228,-0.366599 -1.7e-4,-6.49e-4 2e-4,-0.365973 0,-0.366599 -2e-4,-6.37e-4 -0.12205,-0.365973 -0.12228,-0.366598 -2.3e-4,-6.3e-4 -0.24429,-0.365973 -0.24457,-0.366599 -2.6e-4,-6.14e-4 -0.12201,-0.366012 -0.12228,-0.366599 -2.9e-4,-6.02e-4 -0.12197,-0.366012 -0.12228,-0.366598 -3.2e-4,-5.87e-4 -0.24422,-0.243813 -0.24457,-0.244399 -3.5e-4,-5.71e-4 -0.24417,-0.366051 -0.24456,-0.366599 -3.8e-4,-5.51e-4 -0.24418,-0.366051 -0.24457,-0.366599 -4.1e-4,-5.31e-4 -0.24413,-0.24389 -0.24456,-0.244399 -4.4e-4,-5.08e-4 -0.2441,-0.24393 -0.24457,-0.244399 -3.5e-4,-3.75e-4 -0.16971,-0.168577 -0.24456,-0.244399 L 180.94899,42.762913 c -1.3e-4,-1.37e-4 -0.0934,0.02933 -0.12228,0 -0.0867,-0.08748 -0.12189,-0.244008 -0.12228,-0.244399 -5.5e-4,-5.2e-4 -0.36626,-0.366091 -0.36685,-0.366599 -5.7e-4,-4.89e-4 -0.36626,-0.24393 -0.36685,-0.244399 -6e-4,-4.54e-4 -0.36622,-0.243969 -0.36685,-0.244399 -6.2e-4,-4.19e-4 -0.36618,-0.244008 -0.36684,-0.244399 -6.5e-4,-3.84e-4 -0.36619,-0.244048 -0.36685,-0.244399 -6.7e-4,-3.49e-4 -0.36618,-0.121887 -0.36685,-0.1222 -6.8e-4,-3.09e-4 -0.48843,-0.121926 -0.48913,-0.1222 -7e-4,-2.69e-4 -0.36614,-0.244164 -0.36685,-0.244399 -7.1e-4,-2.3e-4 -0.3661,-0.122004 -0.36684,-0.122199 -7.3e-4,-1.88e-4 -0.4884,1.48e-4 -0.48913,0 -7.4e-4,-1.49e-4 -0.36611,-0.122082 -0.36685,-0.1222 -7.5e-4,-1.05e-4 -0.48838,-0.122121 -0.48913,-0.122199 -7.5e-4,-6.3e-5 -0.36611,2.3e-5 -0.36685,0 -7.5e-4,-2.4e-5 -0.48838,-2e-5 -0.48913,0 -7.5e-4,1.9e-5 -0.48838,-6.3e-5 -0.48913,0 z" />
    <path
       inkscape:connector-curvature="0"
       style="opacity:0.15;fill:#000000;fill-opacity:1;stroke:none;display:inline"
       id="path3730"
       d="m 83.612073,44.351507 a 3.9065638,3.9039119 0 0 0 -2.323369,1.099796 L 44.726218,81.988969 a 3.9065638,3.9039119 0 0 0 0,5.62118 l 42.798897,42.769841 -42.798897,42.76985 a 3.9065638,3.9039119 0 0 0 0,5.62118 l 36.562486,36.53766 a 3.9065638,3.9039119 0 0 0 5.624998,0 l 42.798898,-42.76984 42.7989,42.76984 a 3.9065638,3.9039119 0 0 0 5.62499,0 l 36.56249,-36.53766 a 3.9065638,3.9039119 0 0 0 0,-5.62118 l -42.7989,-42.76985 42.7989,-42.769841 a 3.9065638,3.9039119 0 0 0 0,-5.62118 L 178.13649,45.451303 a 3.9065638,3.9039119 0 0 0 -5.62499,0 L 129.7126,88.221146 86.913702,45.451303 a 3.9065638,3.9039119 0 0 0 -3.301629,-1.099796 z" />
    <path
       style="opacity:0.3;fill:#000000;fill-opacity:1;stroke:none;display:inline"
       id="path3724"
       inkscape:connector-curvature="0"
       d="m 47.538713,176.00116 36.521728,36.49693 45.652159,-45.62117 45.65216,45.62117 36.52172,-36.49693 L 166.23432,130.37999 211.88648,84.758824 175.36476,48.261893 129.7126,93.88306 84.060441,48.261893 47.538713,84.758824 93.190875,130.37999 47.538713,176.00116 z" />
    <path
       style="fill:url(#linearGradient3977);fill-opacity:1;stroke:none;display:inline"
       id="path2929"
       inkscape:connector-curvature="0"
       d="m 47.538713,172.09077 36.521728,36.49694 45.652159,-45.62117 45.65216,45.62117 36.52172,-36.49694 L 166.23432,126.46961 211.88648,80.848439 175.36476,44.351507 129.7126,89.972675 84.060441,44.351507 47.538713,80.848439 93.190875,126.46961 47.538713,172.09077 z" />
    <path
       style="opacity:0.75;fill:#ffffff;fill-opacity:1;stroke:none;display:inline"
       id="path3704"
       inkscape:connector-curvature="0"
       d="m 84.101203,44.351507 -36.56249,36.537666 1.956521,1.955193 34.605969,-34.582473 45.611397,45.580433 45.61139,-45.580433 34.60597,34.582473 1.95652,-1.955193 L 175.32399,44.351507 129.7126,89.93194 84.101203,44.351507 z m 7.092389,84.073293 -43.654879,43.62524 1.956521,1.95519 43.654879,-43.62524 -1.956521,-1.95519 z m 77.038018,0 -1.95652,1.95519 43.65487,43.62524 1.95652,-1.95519 -43.65487,-43.62524 z" />
    <path
       style="opacity:0.15;fill:#000000;fill-opacity:1;stroke:none;display:inline"
       id="path3714"
       inkscape:connector-curvature="0"
       d="m 47.495234,80.93398 -1.956521,1.955193 43.654879,43.625237 1.956521,-1.95519 -43.654879,-43.62524 z m 160.434726,0 -43.65487,43.62524 1.95652,1.95519 43.65487,-43.625237 -1.95652,-1.955193 z m -80.21736,80.16291 -45.611397,45.58043 -34.605969,-34.58247 -1.956521,1.95519 36.56249,36.53767 45.611397,-45.58044 45.61139,45.58044 36.56249,-36.53767 -1.95652,-1.95519 -34.60597,34.58247 -45.61139,-45.58043 z" />
  </g>
</svg>
