<?xml version="1.0" encoding="UTF-8" standalone="no"?>
<!-- Created with Inkscape (http://www.inkscape.org/) -->

<svg
   xmlns:dc="http://purl.org/dc/elements/1.1/"
   xmlns:cc="http://creativecommons.org/ns#"
   xmlns:rdf="http://www.w3.org/1999/02/22-rdf-syntax-ns#"
   xmlns:svg="http://www.w3.org/2000/svg"
   xmlns="http://www.w3.org/2000/svg"
   xmlns:xlink="http://www.w3.org/1999/xlink"
   xmlns:sodipodi="http://sodipodi.sourceforge.net/DTD/sodipodi-0.dtd"
   xmlns:inkscape="http://www.inkscape.org/namespaces/inkscape"
   width="256"
   height="256"
   id="svg3054"
   version="1.1"
   inkscape:version="0.48.1 r9760"
   sodipodi:docname="gnome-dev-wavelan-encrypted.svg">
  <defs
     id="defs3056">
    <linearGradient
       inkscape:collect="always"
       xlink:href="#linearGradient3700"
       id="linearGradient3804"
       gradientUnits="userSpaceOnUse"
       gradientTransform="matrix(15.9838,0,0,15.9838,-61.425847,37.706123)"
       x1="7.8611608"
       y1="-1.0000001"
       x2="7.8611608"
       y2="12" />
    <linearGradient
       id="linearGradient3700">
      <stop
         id="stop3702"
         style="stop-color:#ff0000;stop-opacity:1;"
         offset="0" />
      <stop
         id="stop3704"
         style="stop-color:#d40000;stop-opacity:1;"
         offset="1" />
    </linearGradient>
  </defs>
  <sodipodi:namedview
     id="base"
     pagecolor="#ffffff"
     bordercolor="#666666"
     borderopacity="1.0"
     inkscape:pageopacity="0.0"
     inkscape:pageshadow="2"
     inkscape:zoom="1.71875"
     inkscape:cx="128"
     inkscape:cy="128"
     inkscape:document-units="px"
     inkscape:current-layer="layer1"
     showgrid="false"
     inkscape:window-width="1024"
     inkscape:window-height="576"
     inkscape:window-x="0"
     inkscape:window-y="24"
     inkscape:window-maximized="1" />
  <metadata
     id="metadata3059">
    <rdf:RDF>
      <cc:Work
         rdf:about="">
        <dc:format>image/svg+xml</dc:format>
        <dc:type
           rdf:resource="http://purl.org/dc/dcmitype/StillImage" />
        <dc:title></dc:title>
      </cc:Work>
    </rdf:RDF>
  </metadata>
  <g
     inkscape:label="Layer 1"
     inkscape:groupmode="layer"
     id="layer1"
     transform="translate(0,-796.36218)">
    <g
       id="g3809"
       transform="translate(-0.80671818,795.53199)">
      <path
         d="m 96.192974,10.89996 c -14.453111,-0.764878 -29.013185,9.229632 -31.312173,23.942026 -1.62933,14.165749 -0.474932,28.523304 -0.821924,42.775685 -0.461079,3.376844 1.879972,9.555808 -3.640385,7.873353 -15.801472,-1.278011 -29.979609,13.529221 -28.327214,29.233096 0.09148,35.62026 -0.183707,71.2522 0.138899,106.86512 1.129101,14.78102 15.827148,25.84357 30.30766,24.07277 45.871633,-0.0922 91.754993,0.18435 137.619263,-0.13905 14.781,-1.1291 25.84359,-15.82716 24.07278,-30.30769 -0.0915,-35.21577 0.18371,-70.44321 -0.1389,-105.65163 -1.1291,-14.78102 -15.82715,-25.843567 -30.30766,-24.072775 -3.33317,-0.409719 -0.6649,-6.820927 -1.52105,-9.707708 -0.31296,-13.545204 0.72833,-27.179492 -0.74178,-40.651597 -2.0488,-14.944959 -16.78402,-25.097656 -31.39232,-24.23176 -21.31173,0 -42.62346,0 -63.935196,0 z m 10.822366,42.956461 c 14.09682,0 28.19365,0 42.29047,0 0,10.544886 0,21.089718 0,31.634603 -14.09682,0 -28.19365,0 -42.29047,0 0,-10.544885 0,-21.089717 0,-31.634603 z"
         inkscape:connector-curvature="0"
         id="path3896"
         style="opacity:0.1;fill:#000000;fill-opacity:1;stroke:none;display:inline" />
      <path
         d="m 96.192974,16.727387 c -7.606631,0 -14.390646,2.269859 -19.14726,6.992912 -4.756613,4.723053 -7.15941,11.592943 -7.15941,19.313758 l 0,48.284394 -10.988862,0 c -11.552238,0 -20.978737,9.426499 -20.978737,20.978739 l 0,106.55866 c 0,11.55224 9.426499,20.97874 20.978737,20.97874 l 138.526268,0 c 11.55224,0 20.97873,-9.4265 20.97873,-20.97874 l 0,-106.55866 c 0,-11.55224 -9.42649,-20.978739 -20.97873,-20.978739 l -10.98887,0 0,-48.284394 c 0,-7.350151 -2.18799,-14.140335 -6.82641,-18.980762 -4.63842,-4.840427 -11.44358,-7.325908 -19.48026,-7.325908 l -63.935196,0 z m 7.991906,31.301607 47.95139,0 c 1.7303,0 2.99697,1.266663 2.99697,2.996962 l 0,40.292495 -53.94533,0 0,-40.292495 c 0,-1.730299 1.26667,-2.996962 2.99697,-2.996962 z"
         id="path3892"
         style="opacity:0.15;fill:#000000;fill-opacity:1;stroke:none;display:inline"
         inkscape:connector-curvature="0" />
      <path
         d="m 96.19298,21.722324 c -13.211847,0 -21.311739,7.892427 -21.311739,21.311733 l 0,53.279332 -15.983799,0 c -8.855025,0 -15.9838,7.128771 -15.9838,15.983801 l 0,106.55866 c 0,8.85503 7.128775,15.9838 15.9838,15.9838 l 138.526268,0 c 8.85502,0 15.9838,-7.12877 15.9838,-15.9838 l 0,-106.55866 c 0,-8.85503 -7.12878,-15.983801 -15.9838,-15.983801 l -15.9838,0 0,-53.279332 c 0,-12.796897 -7.27002,-21.311733 -21.31174,-21.311733 z m 7.9919,21.311733 47.95139,0 c 4.42752,0 7.9919,3.564387 7.9919,7.991899 l 0,45.287433 -63.93519,0 0,-45.287433 c 0,-4.427512 3.564387,-7.991899 7.9919,-7.991899 z"
         inkscape:connector-curvature="0"
         id="path3886"
         style="opacity:0.3;fill:#000000;fill-opacity:1;stroke:none;display:inline" />
      <path
         d="m 96.19298,16.394391 c -13.211847,0 -21.311739,7.892427 -21.311739,21.311732 l 0,53.279333 -15.983799,0 c -8.855025,0 -15.9838,7.128774 -15.9838,15.983804 l 0,106.55866 c 0,8.85502 7.128775,15.9838 15.9838,15.9838 l 138.526268,0 c 8.85502,0 15.9838,-7.12878 15.9838,-15.9838 l 0,-106.55866 c 0,-8.85503 -7.12878,-15.983804 -15.9838,-15.983804 l -15.9838,0 0,-53.279333 c 0,-12.796896 -7.27002,-21.311732 -21.31174,-21.311732 z m 7.9919,21.311732 47.95139,0 c 4.42752,0 7.9919,3.564388 7.9919,7.9919 l 0,45.287433 -63.93519,0 0,-45.287433 c 0,-4.427512 3.564387,-7.9919 7.9919,-7.9919 z"
         inkscape:connector-curvature="0"
         id="rect2953"
         style="fill:url(#linearGradient3804);fill-opacity:1;stroke:none;display:inline" />
      <path
         d="m 96.192974,16.394391 c -13.211846,0 -21.311733,7.892427 -21.311733,21.311732 l 0,5.327934 c 0,-13.419306 8.099887,-21.311733 21.311733,-21.311733 l 63.935196,0 c 14.04172,0 21.31174,8.514836 21.31174,21.311733 l 0,-5.327934 c 0,-12.796896 -7.27002,-21.311732 -21.31174,-21.311732 l -63.935196,0 z M 58.897442,90.985456 c -8.855025,0 -15.9838,7.128774 -15.9838,15.983804 l 0,5.32793 c 0,-8.85503 7.128775,-15.983801 15.9838,-15.983801 l 15.983799,0 0,-5.327933 -15.983799,0 z m 37.295532,0 0,5.327933 63.935196,0 0,-5.327933 -63.935196,0 z m 85.246936,0 0,5.327933 15.9838,0 c 8.85502,0 15.9838,7.128771 15.9838,15.983801 l 0,-5.32793 c 0,-8.85503 -7.12878,-15.983804 -15.9838,-15.983804 l -15.9838,0 z"
         inkscape:connector-curvature="0"
         id="path3868"
         style="opacity:0.75;fill:#ffffff;fill-opacity:1;stroke:none;display:inline" />
      <path
         d="m 104.18488,32.37819 c -4.427518,0 -7.991906,3.564388 -7.991906,7.9919 l 0,5.327933 c 0,-4.427512 3.564388,-7.9919 7.991906,-7.9919 l 47.95139,0 c 4.42752,0 7.9919,3.564388 7.9919,7.9919 l 0,-5.327933 c 0,-4.427512 -3.56438,-7.9919 -7.9919,-7.9919 l -47.95139,0 z m -61.271238,175.82179 0,5.32794 c 0,8.85502 7.128775,15.9838 15.9838,15.9838 l 138.526268,0 c 8.85502,0 15.9838,-7.12878 15.9838,-15.9838 l 0,-5.32794 c 0,8.85503 -7.12878,15.9838 -15.9838,15.9838 l -138.526268,0 c -8.855025,0 -15.9838,-7.12877 -15.9838,-15.9838 z"
         inkscape:connector-curvature="0"
         id="path3877"
         style="opacity:0.15;fill:#000000;fill-opacity:1;stroke:none;display:inline" />
    </g>
  </g>
</svg>
