<?xml version="1.0" encoding="UTF-8" standalone="no"?>
<!-- Generator: Adobe Illustrator 14.0.0, SVG Export Plug-In . SVG Version: 6.00 Build 43363)  -->

<svg
   xmlns:dc="http://purl.org/dc/elements/1.1/"
   xmlns:cc="http://creativecommons.org/ns#"
   xmlns:rdf="http://www.w3.org/1999/02/22-rdf-syntax-ns#"
   xmlns:svg="http://www.w3.org/2000/svg"
   xmlns="http://www.w3.org/2000/svg"
   xmlns:xlink="http://www.w3.org/1999/xlink"
   xmlns:sodipodi="http://sodipodi.sourceforge.net/DTD/sodipodi-0.dtd"
   xmlns:inkscape="http://www.inkscape.org/namespaces/inkscape"
   version="1.1"
   id="Layer_1"
   x="0px"
   y="0px"
   width="256"
   height="256"
   viewBox="0 0 256 256"
   enable-background="new 0 0 330 63"
   xml:space="preserve"
   inkscape:version="0.48.3.1 r9886"
   sodipodi:docname="magnatune.svg"><metadata
   id="metadata71"><rdf:RDF><cc:Work
       rdf:about=""><dc:format>image/svg+xml</dc:format><dc:type
         rdf:resource="http://purl.org/dc/dcmitype/StillImage" /><dc:title></dc:title></cc:Work></rdf:RDF></metadata><defs
   id="defs69"><linearGradient
     inkscape:collect="always"
     xlink:href="#linearGradient3637"
     id="linearGradient3832"
     gradientUnits="userSpaceOnUse"
     gradientTransform="matrix(0.92436978,0,0,0.92436978,8.5293075,11.487219)"
     x1="157.4978"
     y1="10.935046"
     x2="156.30026"
     y2="245.79402" /><linearGradient
     id="linearGradient3637"><stop
       id="stop3639"
       style="stop-color:#5a5a5a;stop-opacity:1;"
       offset="0" /><stop
       id="stop3641"
       style="stop-color:#000000;stop-opacity:1;"
       offset="1" /></linearGradient></defs><sodipodi:namedview
   pagecolor="#ffffff"
   bordercolor="#666666"
   borderopacity="1"
   objecttolerance="10"
   gridtolerance="10"
   guidetolerance="10"
   inkscape:pageopacity="0"
   inkscape:pageshadow="2"
   inkscape:window-width="1024"
   inkscape:window-height="553"
   id="namedview67"
   showgrid="false"
   inkscape:zoom="1.4960938"
   inkscape:cx="116.30287"
   inkscape:cy="128"
   inkscape:window-x="-4"
   inkscape:window-y="24"
   inkscape:window-maximized="1"
   inkscape:current-layer="Layer_1" />
































<g
   id="g3823"
   transform="translate(1.2791537,-2.0129147)"><path
     id="path3821"
     style="opacity:0.05;fill:none;stroke:#000000;stroke-width:17.77310944;stroke-linejoin:round;stroke-miterlimit:4;stroke-opacity:1;stroke-dasharray:none"
     d="m 181.26435,174.18276 c 0,7.02891 -5.6899,12.71899 -12.71858,12.71899 l 0,0 c -7.00777,0 -12.70464,-5.69008 -12.70464,-12.71899 v -54.05568 c 0,-7.00102 5.69687,-12.70504 12.70464,-12.70504 l 0,0 c 7.02868,0 12.71858,5.70402 12.71858,12.70504 v 54.05568 z m -83.70275,0 c 0,7.02891 -5.703835,12.71899 -12.732523,12.71899 l 0,0 c -7.00777,0 -12.704633,-5.69008 -12.704633,-12.71899 v -54.05568 c 0,-7.00102 5.696863,-12.70504 12.704633,-12.70504 l 0,0 c 7.028688,0 12.732523,5.70402 12.732523,12.70504 v 54.05568 z m 41.85137,0 c 0,7.02891 -5.69687,12.71899 -12.72556,12.71899 l 0,0 c -7.00777,0 -12.70462,-5.69008 -12.70462,-12.71899 V 72.458759 c 0,-7.028913 5.68988,-12.718986 12.70462,-12.718986 l 0,0 c 7.02869,0 12.72556,5.690073 12.72556,12.718986 V 174.18276 z M 18.607401,129.49895 c 0,59.89919 48.726658,108.62741 108.609959,108.62741 59.89028,0 108.61693,-48.72822 108.61693,-108.62741 0,-59.871281 -48.72665,-108.599503 -108.61693,-108.599503 -59.883301,0 -108.609959,48.728222 -108.609959,108.599503 z m 21.971623,0 c 0,-47.779875 38.866971,-86.634148 86.638336,-86.634148 47.77136,0 86.65926,38.854273 86.65926,86.634148 0,47.8008 -38.8879,86.66204 -86.65926,86.66204 -47.771365,0 -86.638336,-38.86124 -86.638336,-86.66204 z"
     inkscape:connector-curvature="0" /><path
     inkscape:connector-curvature="0"
     d="m 181.26435,174.18276 c 0,7.02891 -5.6899,12.71899 -12.71858,12.71899 l 0,0 c -7.00777,0 -12.70464,-5.69008 -12.70464,-12.71899 v -54.05568 c 0,-7.00102 5.69687,-12.70504 12.70464,-12.70504 l 0,0 c 7.02868,0 12.71858,5.70402 12.71858,12.70504 v 54.05568 z m -83.70275,0 c 0,7.02891 -5.703835,12.71899 -12.732523,12.71899 l 0,0 c -7.00777,0 -12.704633,-5.69008 -12.704633,-12.71899 v -54.05568 c 0,-7.00102 5.696863,-12.70504 12.704633,-12.70504 l 0,0 c 7.028688,0 12.732523,5.70402 12.732523,12.70504 v 54.05568 z m 41.85137,0 c 0,7.02891 -5.69687,12.71899 -12.72556,12.71899 l 0,0 c -7.00777,0 -12.70462,-5.69008 -12.70462,-12.71899 V 72.458759 c 0,-7.028913 5.68988,-12.718986 12.70462,-12.718986 l 0,0 c 7.02869,0 12.72556,5.690073 12.72556,12.718986 V 174.18276 z M 18.607401,129.49895 c 0,59.89919 48.726658,108.62741 108.609959,108.62741 59.89028,0 108.61693,-48.72822 108.61693,-108.62741 0,-59.871281 -48.72665,-108.599503 -108.61693,-108.599503 -59.883301,0 -108.609959,48.728222 -108.609959,108.599503 z m 21.971623,0 c 0,-47.779875 38.866971,-86.634148 86.638336,-86.634148 47.77136,0 86.65926,38.854273 86.65926,86.634148 0,47.8008 -38.8879,86.66204 -86.65926,86.66204 -47.771365,0 -86.638336,-38.86124 -86.638336,-86.66204 z"
     style="opacity:0.1;fill:none;stroke:#000000;stroke-width:11.84873962;stroke-linejoin:round;stroke-miterlimit:4;stroke-opacity:1;stroke-dasharray:none"
     id="path3819" /><path
     id="path3817"
     style="opacity:0.15;fill:none;stroke:#000000;stroke-width:5.92436981;stroke-linejoin:round;stroke-miterlimit:4;stroke-opacity:1;stroke-dasharray:none"
     d="m 181.26435,174.18276 c 0,7.02891 -5.6899,12.71899 -12.71858,12.71899 l 0,0 c -7.00777,0 -12.70464,-5.69008 -12.70464,-12.71899 v -54.05568 c 0,-7.00102 5.69687,-12.70504 12.70464,-12.70504 l 0,0 c 7.02868,0 12.71858,5.70402 12.71858,12.70504 v 54.05568 z m -83.70275,0 c 0,7.02891 -5.703835,12.71899 -12.732523,12.71899 l 0,0 c -7.00777,0 -12.704633,-5.69008 -12.704633,-12.71899 v -54.05568 c 0,-7.00102 5.696863,-12.70504 12.704633,-12.70504 l 0,0 c 7.028688,0 12.732523,5.70402 12.732523,12.70504 v 54.05568 z m 41.85137,0 c 0,7.02891 -5.69687,12.71899 -12.72556,12.71899 l 0,0 c -7.00777,0 -12.70462,-5.69008 -12.70462,-12.71899 V 72.458759 c 0,-7.028913 5.68988,-12.718986 12.70462,-12.718986 l 0,0 c 7.02869,0 12.72556,5.690073 12.72556,12.718986 V 174.18276 z M 18.607401,129.49895 c 0,59.89919 48.726658,108.62741 108.609959,108.62741 59.89028,0 108.61693,-48.72822 108.61693,-108.62741 0,-59.871281 -48.72665,-108.599503 -108.61693,-108.599503 -59.883301,0 -108.609959,48.728222 -108.609959,108.599503 z m 21.971623,0 c 0,-47.779875 38.866971,-86.634148 86.638336,-86.634148 47.77136,0 86.65926,38.854273 86.65926,86.634148 0,47.8008 -38.8879,86.66204 -86.65926,86.66204 -47.771365,0 -86.638336,-38.86124 -86.638336,-86.66204 z"
     inkscape:connector-curvature="0" /><path
     id="path3813"
     style="opacity:0.3;fill:#000000;fill-opacity:1"
     d="m 181.26435,176.15755 c 0,7.02891 -5.6899,12.71899 -12.71858,12.71899 l 0,0 c -7.00777,0 -12.70464,-5.69008 -12.70464,-12.71899 v -54.05568 c 0,-7.00102 5.69687,-12.70504 12.70464,-12.70504 l 0,0 c 7.02868,0 12.71858,5.70402 12.71858,12.70504 v 54.05568 z m -83.70275,0 c 0,7.02891 -5.703835,12.71899 -12.732523,12.71899 l 0,0 c -7.00777,0 -12.704633,-5.69008 -12.704633,-12.71899 v -54.05568 c 0,-7.00102 5.696863,-12.70504 12.704633,-12.70504 l 0,0 c 7.028688,0 12.732523,5.70402 12.732523,12.70504 v 54.05568 z m 41.85137,0 c 0,7.02891 -5.69687,12.71899 -12.72556,12.71899 l 0,0 c -7.00777,0 -12.70462,-5.69008 -12.70462,-12.71899 V 74.433549 c 0,-7.028913 5.68988,-12.718986 12.70462,-12.718986 l 0,0 c 7.02869,0 12.72556,5.690073 12.72556,12.718986 V 176.15755 z M 18.607401,131.47374 c 0,59.89919 48.726658,108.62741 108.609959,108.62741 59.89028,0 108.61693,-48.72822 108.61693,-108.62741 0,-59.871281 -48.72665,-108.599503 -108.61693,-108.599503 -59.883301,0 -108.609959,48.728222 -108.609959,108.599503 z m 21.971623,0 c 0,-47.779875 38.866971,-86.634148 86.638336,-86.634148 47.77136,0 86.65926,38.854273 86.65926,86.634148 0,47.8008 -38.8879,86.66204 -86.65926,86.66204 -47.771365,0 -86.638336,-38.86124 -86.638336,-86.66204 z"
     inkscape:connector-curvature="0" /><path
     inkscape:connector-curvature="0"
     d="m 181.26435,174.18276 c 0,7.02891 -5.6899,12.71899 -12.71858,12.71899 l 0,0 c -7.00777,0 -12.70464,-5.69008 -12.70464,-12.71899 v -54.05568 c 0,-7.00102 5.69687,-12.70504 12.70464,-12.70504 l 0,0 c 7.02868,0 12.71858,5.70402 12.71858,12.70504 v 54.05568 z m -83.70275,0 c 0,7.02891 -5.703835,12.71899 -12.732523,12.71899 l 0,0 c -7.00777,0 -12.704633,-5.69008 -12.704633,-12.71899 v -54.05568 c 0,-7.00102 5.696863,-12.70504 12.704633,-12.70504 l 0,0 c 7.028688,0 12.732523,5.70402 12.732523,12.70504 v 54.05568 z m 41.85137,0 c 0,7.02891 -5.69687,12.71899 -12.72556,12.71899 l 0,0 c -7.00777,0 -12.70462,-5.69008 -12.70462,-12.71899 V 72.458759 c 0,-7.028913 5.68988,-12.718986 12.70462,-12.718986 l 0,0 c 7.02869,0 12.72556,5.690073 12.72556,12.718986 V 174.18276 z M 18.607401,129.49895 c 0,59.89919 48.726658,108.62741 108.609959,108.62741 59.89028,0 108.61693,-48.72822 108.61693,-108.62741 0,-59.871281 -48.72665,-108.599503 -108.61693,-108.599503 -59.883301,0 -108.609959,48.728222 -108.609959,108.599503 z m 21.971623,0 c 0,-47.779875 38.866971,-86.634148 86.638336,-86.634148 47.77136,0 86.65926,38.854273 86.65926,86.634148 0,47.8008 -38.8879,86.66204 -86.65926,86.66204 -47.771365,0 -86.638336,-38.86124 -86.638336,-86.66204 z"
     style="fill:url(#linearGradient3832);fill-opacity:1"
     id="path65" /><path
     inkscape:connector-curvature="0"
     id="path3795"
     d="m 127.22439,20.901297 c -59.883304,0 -108.613448,48.711313 -108.613448,108.582603 0,0.65826 0.01913,1.31927 0.03086,1.97479 C 19.708046,72.502144 68.006491,24.850877 127.22439,24.850877 c 59.2248,0 107.51634,47.651267 108.58259,106.607813 0.0117,-0.65552 0.0308,-1.31653 0.0308,-1.97479 0,-59.87129 -48.72317,-108.582603 -108.61345,-108.582603 z m -0.52456,38.847822 c -7.01474,0 -12.71271,5.683797 -12.71271,12.71271 l 0,3.94958 c 0,-7.028913 5.69797,-12.71271 12.71271,-12.71271 7.0287,0 12.71271,5.683797 12.71271,12.71271 l 0,-3.94958 c 0,-7.028913 -5.68401,-12.71271 -12.71271,-12.71271 z M 84.828118,107.42179 c -7.00777,0 -12.712711,5.7117 -12.712711,12.71271 l 0,3.94958 c 0,-7.00101 5.704941,-12.71271 12.712711,-12.71271 7.028692,0 12.743566,5.7117 12.743566,12.71271 l 0,-3.94958 c 0,-7.00101 -5.714874,-12.71271 -12.743566,-12.71271 z m 83.712582,0 c -7.00777,0 -12.71271,5.7117 -12.71271,12.71271 l 0,3.94958 c 0,-7.00101 5.70494,-12.71271 12.71271,-12.71271 7.02868,0 12.71271,5.7117 12.71271,12.71271 l 0,-3.94958 c 0,-7.00101 -5.68403,-12.71271 -12.71271,-12.71271 z m -127.929364,24.3146 c -0.01103,0.56773 -0.03086,1.12677 -0.03086,1.69709 0,47.80081 38.872546,86.67476 86.643914,86.67476 47.77136,0 86.64391,-38.87395 86.64391,-86.67476 0,-0.57032 -0.0198,-1.12936 -0.0308,-1.69709 -1.18905,46.77174 -39.58812,84.42227 -86.61305,84.42227 -47.024938,0 -85.42464,-37.65053 -86.613059,-84.42227 z"
     style="opacity:0.7;fill:#ffffff;fill-opacity:1" /><path
     inkscape:connector-curvature="0"
     id="path3804"
     d="m 127.20251,38.90106 c -47.771364,0 -86.613054,38.864041 -86.613054,86.64391 0,0.57299 0.01974,1.15757 0.03086,1.72794 1.188418,-46.751548 39.557264,-84.42227 86.582194,-84.42227 47.02493,0 85.45486,37.670722 86.64391,84.42227 0.0112,-0.57037 0.0308,-1.15495 0.0308,-1.72794 0,-47.779869 -38.9034,-86.64391 -86.67476,-86.64391 z m -108.551736,88.6187 c -0.01172,0.65522 -0.03086,1.31683 -0.03086,1.97479 0,59.89919 48.699288,108.64431 108.582596,108.64431 59.89028,0 108.6443,-48.74512 108.6443,-108.64431 0,-0.65783 -0.0191,-1.31969 -0.0308,-1.97479 -1.05451,58.99378 -49.3812,106.66952 -108.61344,106.66952 -59.225219,0 -107.497025,-47.67591 -108.55174,-106.66952 z m 53.47361,42.70483 0,3.94958 c 0,7.02891 5.704941,12.71271 12.71271,12.71271 7.028692,0 12.71271,-5.6838 12.71271,-12.71271 l 0,-3.94958 c 0,7.02891 -5.684018,12.71271 -12.71271,12.71271 -7.007769,0 -12.71271,-5.6838 -12.71271,-12.71271 z m 41.871716,0 0,3.94958 c 0,7.02891 5.67408,12.71271 12.68185,12.71271 7.0287,0 12.74357,-5.6838 12.74357,-12.71271 l 0,-3.94958 c 0,7.02891 -5.71487,12.71271 -12.74357,12.71271 -7.00777,0 -12.68185,-5.6838 -12.68185,-12.71271 z m 41.84086,0 0,3.94958 c 0,7.02891 5.70494,12.71271 12.71271,12.71271 7.02868,0 12.71271,-5.6838 12.71271,-12.71271 l 0,-3.94958 c 0,7.02891 -5.68403,12.71271 -12.71271,12.71271 -7.00777,0 -12.71271,-5.6838 -12.71271,-12.71271 z"
     style="opacity:0.7;fill:#000000;fill-opacity:1" /></g></svg>