<?xml version="1.0" encoding="UTF-8" standalone="no"?>
<!-- Created with Inkscape (http://www.inkscape.org/) -->

<svg
   xmlns:dc="http://purl.org/dc/elements/1.1/"
   xmlns:cc="http://creativecommons.org/ns#"
   xmlns:rdf="http://www.w3.org/1999/02/22-rdf-syntax-ns#"
   xmlns:svg="http://www.w3.org/2000/svg"
   xmlns="http://www.w3.org/2000/svg"
   xmlns:xlink="http://www.w3.org/1999/xlink"
   xmlns:sodipodi="http://sodipodi.sourceforge.net/DTD/sodipodi-0.dtd"
   xmlns:inkscape="http://www.inkscape.org/namespaces/inkscape"
   width="256"
   height="256"
   id="svg7252"
   version="1.1"
   inkscape:version="0.48.1 r9760"
   sodipodi:docname="mail-mark-notjunk.svg">
  <defs
     id="defs7254">
    <linearGradient
       inkscape:collect="always"
       xlink:href="#linearGradient3700-8"
       id="linearGradient7157"
       gradientUnits="userSpaceOnUse"
       gradientTransform="matrix(2.5282101,0,0,1.7544049,6.6459477,840.11725)"
       x1="48"
       y1="90"
       x2="48"
       y2="5.9877172" />
    <linearGradient
       id="linearGradient3700-8">
      <stop
         offset="0"
         style="stop-color:#dcdcdc;stop-opacity:1"
         id="stop3702-5" />
      <stop
         offset="1"
         style="stop-color:#f0f0f0;stop-opacity:1"
         id="stop3704-0" />
    </linearGradient>
    <linearGradient
       inkscape:collect="always"
       xlink:href="#linearGradient3641-4"
       id="linearGradient7130"
       gradientUnits="userSpaceOnUse"
       gradientTransform="translate(100,0)"
       x1="48"
       y1="32"
       x2="48"
       y2="80" />
    <linearGradient
       id="linearGradient3641-4">
      <stop
         offset="0"
         style="stop-color:#000000;stop-opacity:1"
         id="stop3643-8" />
      <stop
         offset="1"
         style="stop-color:#000000;stop-opacity:0"
         id="stop3645-1" />
    </linearGradient>
    <clipPath
       id="clipPath3696-9">
      <rect
         style="fill:#ff00ff;fill-opacity:1;fill-rule:nonzero;stroke:none"
         id="rect3698-8"
         y="6"
         x="106"
         ry="6"
         rx="6"
         height="84"
         width="84" />
    </clipPath>
    <filter
       id="filter3665-1"
       color-interpolation-filters="sRGB">
      <feGaussianBlur
         stdDeviation="0.69"
         id="feGaussianBlur3667-5" />
    </filter>
    <linearGradient
       inkscape:collect="always"
       xlink:href="#linearGradient3700-8"
       id="linearGradient7153"
       gradientUnits="userSpaceOnUse"
       gradientTransform="matrix(2.5282101,0,0,1.7544049,6.6459477,840.11725)"
       x1="48"
       y1="88"
       x2="48"
       y2="36" />
    <linearGradient
       inkscape:collect="always"
       xlink:href="#linearGradient3641-4"
       id="linearGradient7132"
       gradientUnits="userSpaceOnUse"
       gradientTransform="translate(100,-1)"
       x1="51"
       y1="62"
       x2="51"
       y2="21" />
    <clipPath
       id="clipPath3703-4">
      <rect
         style="fill:#ff00ff;fill-opacity:1;fill-rule:nonzero;stroke:none"
         id="rect3705-8"
         y="6"
         x="106"
         ry="6"
         rx="6"
         height="84"
         width="84" />
    </clipPath>
    <filter
       id="filter3649-6"
       color-interpolation-filters="sRGB">
      <feGaussianBlur
         stdDeviation="1.38"
         id="feGaussianBlur3651-1" />
    </filter>
    <linearGradient
       inkscape:collect="always"
       xlink:href="#linearGradient3700-8"
       id="linearGradient7148"
       gradientUnits="userSpaceOnUse"
       gradientTransform="matrix(2.5282101,0,0,1.7544049,6.6459477,840.11725)"
       x1="48"
       y1="88"
       x2="48"
       y2="32" />
    <linearGradient
       inkscape:collect="always"
       xlink:href="#linearGradient3737-9"
       id="linearGradient7159"
       gradientUnits="userSpaceOnUse"
       x1="48"
       y1="20.220806"
       x2="48"
       y2="138.66119" />
    <linearGradient
       id="linearGradient3737-9">
      <stop
         offset="0"
         style="stop-color:#ffffff;stop-opacity:1"
         id="stop3739-0" />
      <stop
         offset="1"
         style="stop-color:#ffffff;stop-opacity:0"
         id="stop3741-8" />
    </linearGradient>
    <clipPath
       id="clipPath3613">
      <rect
         style="fill:#ffffff;fill-opacity:1;fill-rule:nonzero;stroke:none"
         id="rect3615"
         y="6"
         x="6"
         ry="6"
         rx="6"
         height="84"
         width="84" />
    </clipPath>
    <filter
       id="filter3794-8"
       color-interpolation-filters="sRGB"
       height="1.3839999"
       width="1.3839999"
       y="-0.192"
       x="-0.192">
      <feGaussianBlur
         stdDeviation="5.28"
         id="feGaussianBlur3796-5" />
    </filter>
    <radialGradient
       inkscape:collect="always"
       xlink:href="#linearGradient3737-9"
       id="radialGradient7143"
       gradientUnits="userSpaceOnUse"
       gradientTransform="matrix(2.9259301,0,0,1.7472254,-12.444619,840.4631)"
       cx="48"
       cy="90.171875"
       fx="48"
       fy="90.171875"
       r="42" />
    <linearGradient
       inkscape:collect="always"
       xlink:href="#linearGradient3737-9"
       id="linearGradient7140"
       gradientUnits="userSpaceOnUse"
       gradientTransform="matrix(2.5282101,0,0,1.7544049,6.6459477,840.11725)"
       x1="36.357143"
       y1="6"
       x2="36.357143"
       y2="63.893143" />
    <radialGradient
       inkscape:collect="always"
       xlink:href="#linearGradient3737-3-1"
       id="radialGradient7137"
       gradientUnits="userSpaceOnUse"
       gradientTransform="matrix(2.9259301,0,0,1.7472254,-12.44462,840.4631)"
       cx="48"
       cy="90.171875"
       fx="48"
       fy="90.171875"
       r="42" />
    <linearGradient
       id="linearGradient3737-3-1">
      <stop
         offset="0"
         style="stop-color:#ffffff;stop-opacity:1"
         id="stop3739-5-0" />
      <stop
         offset="1"
         style="stop-color:#ffffff;stop-opacity:0"
         id="stop3741-7-3" />
    </linearGradient>
    <linearGradient
       id="linearGradient3801">
      <stop
         offset="0"
         style="stop-color:#00ff00;stop-opacity:1;"
         id="stop3803" />
      <stop
         offset="1"
         style="stop-color:#00aa00;stop-opacity:1;"
         id="stop3805" />
    </linearGradient>
    <linearGradient
       id="linearGradient3942">
      <stop
         offset="0"
         style="stop-color:#ffffff;stop-opacity:1"
         id="stop3944" />
      <stop
         offset="1"
         style="stop-color:#ffffff;stop-opacity:0"
         id="stop3946" />
    </linearGradient>
    <linearGradient
       id="linearGradient4069">
      <stop
         offset="0"
         style="stop-color:#00ff00;stop-opacity:1;"
         id="stop4071" />
      <stop
         offset="1"
         style="stop-color:#00ff00;stop-opacity:0;"
         id="stop4073" />
    </linearGradient>
    <linearGradient
       x1="45.447727"
       y1="92.539597"
       x2="45.447727"
       y2="7.0165396"
       id="ButtonShadow-3-0"
       gradientUnits="userSpaceOnUse"
       gradientTransform="scale(1.0058652,0.994169)">
      <stop
         id="stop3750-61-8"
         style="stop-color:#000000;stop-opacity:1"
         offset="0" />
      <stop
         id="stop3752-05-9"
         style="stop-color:#000000;stop-opacity:0.58823532"
         offset="1" />
    </linearGradient>
    <filter
       color-interpolation-filters="sRGB"
       id="filter3174-0-9">
      <feGaussianBlur
         id="feGaussianBlur3176-0-9"
         stdDeviation="1.71" />
    </filter>
    <filter
       color-interpolation-filters="sRGB"
       id="filter3657-6">
      <feGaussianBlur
         id="feGaussianBlur3659-4"
         stdDeviation="1.14" />
    </filter>
    <radialGradient
       inkscape:collect="always"
       xlink:href="#linearGradient4069"
       id="radialGradient5628"
       gradientUnits="userSpaceOnUse"
       gradientTransform="matrix(14.227804,5.3375322e-7,-3.9186557e-7,19.748763,-11.982518,-67.628714)"
       cx="-10.959364"
       cy="11.931095"
       fx="-10.959364"
       fy="11.931095"
       r="7" />
    <linearGradient
       inkscape:collect="always"
       xlink:href="#linearGradient3801"
       id="linearGradient5630"
       gradientUnits="userSpaceOnUse"
       gradientTransform="matrix(0,2.3365903,-2.3365903,0,360.27278,10.945224)"
       x1="45.298355"
       y1="72.618279"
       x2="79.622185"
       y2="72.618279" />
    <linearGradient
       inkscape:collect="always"
       xlink:href="#linearGradient3942"
       id="linearGradient5632"
       gradientUnits="userSpaceOnUse"
       gradientTransform="matrix(2.227798,0,0,2.227798,34.64775,0.94342829)"
       x1="68"
       y1="52"
       x2="68"
       y2="84" />
  </defs>
  <sodipodi:namedview
     id="base"
     pagecolor="#ffffff"
     bordercolor="#666666"
     borderopacity="1.0"
     inkscape:pageopacity="0.0"
     inkscape:pageshadow="2"
     inkscape:zoom="1.71875"
     inkscape:cx="128"
     inkscape:cy="128"
     inkscape:document-units="px"
     inkscape:current-layer="layer1"
     showgrid="false"
     inkscape:window-width="1024"
     inkscape:window-height="576"
     inkscape:window-x="0"
     inkscape:window-y="24"
     inkscape:window-maximized="1" />
  <metadata
     id="metadata7257">
    <rdf:RDF>
      <cc:Work
         rdf:about="">
        <dc:format>image/svg+xml</dc:format>
        <dc:type
           rdf:resource="http://purl.org/dc/dcmitype/StillImage" />
        <dc:title></dc:title>
      </cc:Work>
    </rdf:RDF>
  </metadata>
  <g
     inkscape:label="Layer 1"
     inkscape:groupmode="layer"
     id="layer1"
     transform="translate(0,-796.36218)">
    <g
       transform="translate(0.16009331,793.16852)"
       id="g5419">
      <rect
         style="opacity:0.05;fill:none;stroke:#000000;stroke-width:22.6303196;stroke-linejoin:round;stroke-miterlimit:4;stroke-opacity:1;stroke-dasharray:none"
         id="rect5286"
         y="57.508652"
         x="21.655085"
         ry="10.52643"
         rx="15.169261"
         height="147.37001"
         width="212.36964" />
      <rect
         width="212.36964"
         height="147.37001"
         rx="15.169261"
         ry="10.52643"
         x="21.655085"
         y="57.508652"
         id="rect5280"
         style="opacity:0.2;fill:none;stroke:#000000;stroke-width:5.6575799;stroke-linejoin:round;stroke-miterlimit:4;stroke-opacity:1;stroke-dasharray:none" />
      <rect
         width="212.36964"
         height="147.37001"
         rx="15.169261"
         ry="10.52643"
         x="21.655085"
         y="57.508652"
         id="rect5284"
         style="opacity:0.1;fill:none;stroke:#000000;stroke-width:16.97274017;stroke-linejoin:round;stroke-miterlimit:4;stroke-opacity:1;stroke-dasharray:none" />
      <rect
         style="opacity:0.15;fill:none;stroke:#000000;stroke-width:11.3151598;stroke-linejoin:round;stroke-miterlimit:4;stroke-opacity:1;stroke-dasharray:none"
         id="rect5282"
         y="57.508652"
         x="21.655085"
         ry="10.52643"
         rx="15.169261"
         height="147.37001"
         width="212.36964" />
      <rect
         style="opacity:0.3;fill:#000000;fill-opacity:1;fill-rule:nonzero;stroke:none"
         id="rect5218"
         y="59.350777"
         x="21.655085"
         ry="10.52643"
         rx="15.169261"
         height="147.37001"
         width="212.36964" />
      <g
         id="g5253"
         transform="matrix(1.1637667,0,0,0.80757451,-31.115385,31.24507)" />
    </g>
    <g
       id="g7397">
      <rect
         width="212.36964"
         height="147.37001"
         rx="15.16926"
         ry="10.526429"
         x="21.815208"
         y="850.64368"
         id="rect2419"
         style="fill:url(#linearGradient7157);fill-opacity:1;fill-rule:nonzero;stroke:none" />
      <path
         d="m 112,89 c -3.324,0 -6,-2.676 -6,-6 l 0,-6 42,-42 42,42 0,6 c 0,3.324 -2.676,6 -6,6 l -72,0 z"
         inkscape:connector-curvature="0"
         transform="matrix(2.5282101,0,0,1.7544049,-246.17505,838.36284)"
         clip-path="url(#clipPath3696-9)"
         id="path3653"
         style="opacity:0.3;fill:url(#linearGradient7130);fill-opacity:1;stroke:none;filter:url(#filter3665-1)" />
      <path
         d="m 36.984468,998.01369 c -8.40377,0 -15.169261,-4.69478 -15.169261,-10.52643 l 0,-10.52642 106.184833,-73.68501 106.18482,73.68501 0,10.52642 c 0,5.83165 -6.76549,10.52643 -15.16926,10.52643 l -182.031132,0 z"
         inkscape:connector-curvature="0"
         id="path3619"
         style="fill:url(#linearGradient7153);fill-opacity:1;stroke:none" />
      <path
         d="m 128.00004,903.27583 -106.184833,73.68501 0,1.7544 106.184833,-73.68501 106.18482,73.68501 0,-1.7544 -106.18482,-73.68501 z"
         inkscape:connector-curvature="0"
         id="path3718"
         style="opacity:0.4;fill:#ffffff;fill-opacity:1;stroke:none" />
      <path
         d="m 112,7 c -3.324,0 -6,2.676 -6,6 l 0,6 42,42 42,-42 0,-6 c 0,-3.324 -2.676,-6 -6,-6 l -72,0 z"
         inkscape:connector-curvature="0"
         transform="matrix(2.5282101,0,0,1.7544049,-246.17505,841.87165)"
         clip-path="url(#clipPath3703-4)"
         id="path3637"
         style="opacity:0.4;fill:url(#linearGradient7132);fill-opacity:1;stroke:none;filter:url(#filter3649-6)" />
      <path
         d="m 36.984468,850.64368 c -8.40377,0 -15.169261,4.69479 -15.169261,10.52643 l 0,10.52643 106.184833,73.68501 106.18482,-73.68501 0,-10.52643 c 0,-5.83164 -6.76549,-10.52643 -15.16926,-10.52643 l -182.031132,0 z"
         inkscape:connector-curvature="0"
         id="path3613"
         style="fill:url(#linearGradient7148);fill-opacity:1;stroke:none" />
      <path
         d="m 21.815207,869.94213 0,1.75441 106.184833,73.68501 106.18482,-73.68501 0,-1.75441 -106.18482,73.68501 -106.184833,-73.68501 z"
         inkscape:connector-curvature="0"
         id="path3709-6"
         style="opacity:0.6;fill:#ffffff;fill-opacity:1;stroke:none" />
      <rect
         transform="matrix(2.5282101,0,0,1.7544049,6.6459477,840.11725)"
         width="66"
         height="66"
         rx="12"
         ry="12"
         x="15"
         y="15"
         clip-path="url(#clipPath3613)"
         id="rect3171"
         style="opacity:0.1;fill:url(#linearGradient7159);fill-opacity:1;fill-rule:nonzero;stroke:#ffffff;stroke-width:0.5;stroke-linecap:round;stroke-linejoin:miter;stroke-miterlimit:4;stroke-opacity:1;stroke-dasharray:none;stroke-dashoffset:0;filter:url(#filter3794-8)" />
      <path
         d="m 36.984468,998.01369 c -8.40377,0 -15.169261,-4.69478 -15.169261,-10.52643 l 0,-3.50881 0,-119.29953 0,-3.50881 c 0,-0.58724 0.104542,-1.14159 0.23702,-1.69958 0.123124,-0.5186 0.245337,-1.04723 0.47404,-1.53511 0.02497,-0.0533 0.05282,-0.11158 0.07901,-0.16447 0.249951,-0.50487 0.593826,-0.96045 0.948079,-1.42546 0.365557,-0.47984 0.797943,-0.93968 1.264104,-1.37062 0.466162,-0.43095 0.944985,-0.83067 1.501125,-1.20616 1.112278,-0.75098 2.383875,-1.42901 3.792315,-1.91888 0.70422,-0.24493 1.449861,-0.43324 2.212184,-0.60307 -0.647732,0.17583 -1.230508,0.41451 -1.817151,0.6579 -0.01874,0.008 -0.06034,-0.008 -0.07901,0 -0.08073,0.0339 -0.157489,0.0746 -0.23702,0.10965 -0.304383,0.13456 -0.584074,0.28687 -0.869072,0.4386 -0.268427,0.14175 -0.539218,0.28265 -0.790065,0.4386 -0.449844,0.28322 -0.878452,0.60595 -1.264105,0.93203 -0.271982,0.22852 -0.552146,0.46542 -0.790066,0.71272 -0.06343,0.0673 -0.0972,0.15066 -0.158013,0.21931 -0.163735,0.18076 -0.329243,0.3588 -0.47404,0.54825 -0.25537,0.34159 -0.519989,0.72931 -0.711059,1.0965 -0.02012,0.0383 -0.05964,0.0711 -0.07901,0.10965 -0.08046,0.16132 -0.09052,0.32778 -0.158013,0.49343 -0.07668,0.18705 -0.177959,0.3562 -0.237019,0.54825 -0.184252,0.59915 -0.316027,1.22493 -0.316027,1.86405 l 0,3.50881 0,119.29954 0,3.50881 c 0,4.88048 5.607954,8.77202 12.64105,8.77202 l 5.056421,0 171.918295,0 5.05642,0 c 7.0331,0 12.64105,-3.89154 12.64105,-8.77202 l 0,-3.50881 0,-119.29954 0,-3.50881 c 0,-0.63912 -0.13177,-1.2649 -0.31603,-1.86405 -0.1116,-0.36298 -0.22344,-0.69765 -0.39503,-1.04168 -0.0194,-0.0385 -0.0589,-0.0714 -0.079,-0.10965 -0.15862,-0.30481 -0.34986,-0.64465 -0.55304,-0.93203 -0.10509,-0.14526 -0.19983,-0.29817 -0.31603,-0.4386 -0.13804,-0.17054 -0.32051,-0.33044 -0.47404,-0.49343 -0.23793,-0.2473 -0.51809,-0.4842 -0.79006,-0.71272 -0.36198,-0.30606 -0.76641,-0.60878 -1.1851,-0.8772 -0.0283,-0.0179 -0.0505,-0.0371 -0.079,-0.0548 -0.34987,-0.22028 -0.72077,-0.4113 -1.10609,-0.60308 -0.25932,-0.12834 -0.51656,-0.26906 -0.79007,-0.38378 -0.0187,-0.008 -0.0603,0.008 -0.079,0 -0.58664,-0.24338 -1.16942,-0.48207 -1.81715,-0.6579 0.76233,0.16983 1.50796,0.35814 2.21218,0.60308 1.40845,0.48987 2.68004,1.16789 3.79232,1.91888 0.55614,0.37549 1.03496,0.77521 1.50112,1.20615 0.46617,0.43094 0.89856,0.89079 1.26411,1.37063 0.35426,0.465 0.69813,0.92059 0.94808,1.42545 0.0263,0.054 0.0539,0.11008 0.079,0.16448 0.22869,0.48787 0.35091,1.01651 0.47404,1.5351 0.13247,0.55799 0.23701,1.11235 0.23701,1.69958 l 0,3.50881 0,119.29954 0,3.50881 c 0,5.83165 -6.76549,10.52643 -15.16925,10.52643 l -182.031139,0 z"
         inkscape:connector-curvature="0"
         id="path3615"
         style="opacity:0;fill:url(#radialGradient7143);fill-opacity:1;fill-rule:nonzero;stroke:none" />
      <path
         d="m 36.984468,850.64368 c -8.40377,0 -15.169261,4.69479 -15.169261,10.52643 l 0,3.50881 0,119.29953 0,3.50881 c 0,0.58724 0.104542,1.14159 0.23702,1.69959 0.123124,0.51859 0.245337,1.04723 0.47404,1.5351 0.02503,0.0533 0.05281,0.11158 0.07901,0.16448 0.249938,0.50486 0.593826,0.96044 0.948079,1.42545 0.365558,0.47984 0.797943,0.93968 1.264104,1.37063 0.466162,0.43094 0.944984,0.83066 1.501125,1.20615 1.112278,0.75098 2.383875,1.429 3.792315,1.91888 0.70422,0.24494 1.449861,0.43325 2.212184,0.60308 -0.647732,-0.17583 -1.230508,-0.41452 -1.817151,-0.65791 -0.01871,-0.008 -0.06035,0.008 -0.07901,0 -0.08073,-0.0338 -0.157482,-0.0745 -0.23702,-0.10964 -0.304383,-0.13457 -0.584075,-0.28688 -0.869072,-0.4386 -0.268427,-0.14177 -0.539218,-0.28266 -0.790065,-0.43861 -0.449844,-0.28322 -0.878453,-0.60595 -1.264105,-0.93203 -0.271983,-0.22852 -0.552146,-0.46542 -0.790066,-0.71272 -0.06344,-0.0673 -0.09721,-0.15065 -0.158013,-0.21931 -0.163727,-0.18076 -0.329244,-0.3588 -0.47404,-0.54824 -0.25537,-0.3416 -0.519989,-0.72931 -0.711059,-1.09651 -0.02023,-0.0383 -0.05964,-0.0711 -0.07901,-0.10964 -0.08047,-0.16133 -0.09051,-0.32778 -0.158013,-0.49343 -0.07668,-0.18705 -0.177958,-0.3562 -0.237019,-0.54826 -0.184254,-0.59914 -0.316027,-1.22493 -0.316027,-1.86405 l 0,-3.50881 0,-119.29954 0,-3.50881 c 0,-4.88048 5.607954,-8.77202 12.64105,-8.77202 l 5.056421,0 171.918295,0 5.05642,0 c 7.0331,0 12.64105,3.89154 12.64105,8.77202 l 0,3.50881 0,119.29954 0,3.50881 c 0,0.63912 -0.13177,1.26491 -0.31603,1.86405 -0.1116,0.36298 -0.22344,0.69766 -0.39503,1.04169 -0.0194,0.0385 -0.0589,0.0714 -0.079,0.10964 -0.15862,0.30481 -0.34986,0.64465 -0.55304,0.93203 -0.10509,0.14527 -0.19983,0.29816 -0.31603,0.4386 -0.13804,0.17054 -0.32051,0.33044 -0.47404,0.49343 -0.23793,0.2473 -0.51809,0.4842 -0.79006,0.71272 -0.36198,0.30606 -0.76641,0.60878 -1.1851,0.87721 -0.0283,0.0179 -0.0505,0.0371 -0.079,0.0548 -0.34987,0.22028 -0.72077,0.41129 -1.10609,0.60307 -0.25932,0.12834 -0.51656,0.26907 -0.79007,0.38378 -0.0187,0.008 -0.0603,-0.008 -0.079,0 -0.58664,0.24339 -1.16942,0.48207 -1.81715,0.65791 0.76233,-0.16984 1.50796,-0.35815 2.21218,-0.60308 1.40845,-0.48988 2.68004,-1.1679 3.79232,-1.91888 0.55614,-0.37549 1.03496,-0.77522 1.50112,-1.20615 0.46617,-0.43095 0.89856,-0.89079 1.26411,-1.37064 0.35426,-0.465 0.69813,-0.92058 0.94808,-1.42545 0.0263,-0.054 0.0539,-0.11007 0.079,-0.16447 0.22869,-0.48788 0.35091,-1.01651 0.47404,-1.53511 0.13247,-0.55799 0.23701,-1.11234 0.23701,-1.69958 l 0,-3.50881 0,-119.29953 0,-3.50881 c 0,-5.83165 -6.76549,-10.52643 -15.16925,-10.52643 l -182.031139,0 z"
         inkscape:connector-curvature="0"
         id="rect3728"
         style="opacity:0.6;fill:url(#linearGradient7140);fill-opacity:1;fill-rule:nonzero;stroke:none" />
      <path
         d="m 36.984468,998.01369 c -8.40377,0 -15.169261,-4.69478 -15.169261,-10.52643 l 0,-3.50881 0,-119.29953 0,-3.50881 c 0,-0.58724 0.104542,-1.14159 0.23702,-1.69958 0.123124,-0.5186 0.245337,-1.04723 0.47404,-1.53511 0.02497,-0.0533 0.05282,-0.11158 0.07901,-0.16447 0.249951,-0.50487 0.593826,-0.96045 0.948079,-1.42546 0.365557,-0.47984 0.797943,-0.93968 1.264104,-1.37062 0.466162,-0.43095 0.944985,-0.83067 1.501125,-1.20616 1.112278,-0.75098 2.383875,-1.42901 3.792315,-1.91888 0.70422,-0.24493 1.449861,-0.43324 2.212184,-0.60307 -0.647732,0.17583 -1.230508,0.41451 -1.817151,0.6579 -0.01874,0.008 -0.06034,-0.008 -0.07901,0 -0.08073,0.0339 -0.157489,0.0746 -0.23702,0.10965 -0.304383,0.13456 -0.584074,0.28687 -0.869072,0.4386 -0.268427,0.14175 -0.539218,0.28265 -0.790065,0.4386 -0.449844,0.28322 -0.878452,0.60595 -1.264105,0.93203 -0.271982,0.22852 -0.552146,0.46542 -0.790066,0.71272 -0.06343,0.0673 -0.0972,0.15066 -0.158013,0.21931 -0.163735,0.18076 -0.329243,0.3588 -0.47404,0.54825 -0.25537,0.34159 -0.519989,0.72931 -0.711059,1.0965 -0.02012,0.0383 -0.05964,0.0711 -0.07901,0.10965 -0.08046,0.16132 -0.09052,0.32778 -0.158013,0.49343 -0.07668,0.18705 -0.177959,0.3562 -0.237019,0.54825 -0.184252,0.59915 -0.316027,1.22493 -0.316027,1.86405 l 0,3.50881 0,119.29954 0,3.50881 c 0,4.88048 5.607954,8.77202 12.64105,8.77202 l 5.056421,0 171.918295,0 5.05642,0 c 7.0331,0 12.64105,-3.89154 12.64105,-8.77202 l 0,-3.50881 0,-119.29954 0,-3.50881 c 0,-0.63912 -0.13177,-1.2649 -0.31603,-1.86405 -0.1116,-0.36298 -0.22344,-0.69765 -0.39503,-1.04168 -0.0194,-0.0385 -0.0589,-0.0714 -0.079,-0.10965 -0.15862,-0.30481 -0.34986,-0.64465 -0.55304,-0.93203 -0.10509,-0.14526 -0.19983,-0.29817 -0.31603,-0.4386 -0.13804,-0.17054 -0.32051,-0.33044 -0.47404,-0.49343 -0.23793,-0.2473 -0.51809,-0.4842 -0.79006,-0.71272 -0.36198,-0.30606 -0.76641,-0.60878 -1.1851,-0.8772 -0.0283,-0.0179 -0.0505,-0.0371 -0.079,-0.0548 -0.34987,-0.22028 -0.72077,-0.4113 -1.10609,-0.60308 -0.25932,-0.12834 -0.51656,-0.26906 -0.79007,-0.38378 -0.0187,-0.008 -0.0603,0.008 -0.079,0 -0.58664,-0.24338 -1.16942,-0.48207 -1.81715,-0.6579 0.76233,0.16983 1.50796,0.35814 2.21218,0.60308 1.40845,0.48987 2.68004,1.16789 3.79232,1.91888 0.55614,0.37549 1.03496,0.77521 1.50112,1.20615 0.46617,0.43094 0.89856,0.89079 1.26411,1.37063 0.35426,0.465 0.69813,0.92059 0.94808,1.42545 0.0263,0.054 0.0539,0.11008 0.079,0.16448 0.22869,0.48787 0.35091,1.01651 0.47404,1.5351 0.13247,0.55799 0.23701,1.11235 0.23701,1.69958 l 0,3.50881 0,119.29954 0,3.50881 c 0,5.83165 -6.76549,10.52643 -15.16925,10.52643 l -182.031139,0 z"
         inkscape:connector-curvature="0"
         id="path3615-5"
         style="opacity:0.3;fill:url(#radialGradient7137);fill-opacity:1;fill-rule:nonzero;stroke:none" />
    </g>
    <g
       id="g7204"
       transform="translate(-2.5250031,790.6031)">
      <rect
         width="160"
         height="220"
         rx="11.428572"
         ry="15.714286"
         x="-208.31656"
         y="17.693075"
         transform="matrix(0,-1,1,0,0,0)"
         id="rect3752"
         style="opacity:0.2;fill:url(#radialGradient5628);fill-opacity:1;fill-rule:nonzero;stroke:none;display:inline" />
      <g
         transform="matrix(1.1226535,0,0,1.123712,-26.257085,-21.282049)"
         id="g4568">
        <path
           style="opacity:0.1;color:#000000;fill:#000000;fill-opacity:1;fill-rule:nonzero;stroke:none;stroke-width:2;marker:none;visibility:visible;display:inline;overflow:visible;enable-background:accumulate"
           id="path3960"
           inkscape:connector-curvature="0"
           d="m 235.11916,155.1939 c -0.47871,-3.4778 -4.39675,-4.39118 -6.86374,-6.20657 1.00765,-2.23331 2.9124,-4.18991 3.21282,-6.64468 0.2193,-2.70108 -2.25789,-4.71155 -4.81482,-4.75803 -1.28084,-0.4277 -3.40844,-0.26986 -4.19535,-1.03912 0.23495,-2.90488 2.0665,-6.24884 -0.11714,-8.80653 -2.02261,-2.36345 -5.21203,-1.13492 -7.80538,-0.72554 -2.11782,1.12375 -1.80984,-1.26045 -2.16813,-2.68115 -0.29101,-2.38716 -0.8942,-5.39647 -3.68094,-5.93968 -2.82842,-0.78355 -5.02887,1.74975 -7.45321,2.78227 -1.258,0.44068 -1.69666,-2.30022 -2.62515,-3.13906 -0.94905,-2.2541 -3.38994,-4.1189 -5.91268,-3.14809 -2.4397,0.97277 -3.64122,3.62597 -5.47638,5.40336 -2.16909,-1.45889 -3.84222,-3.97595 -6.49864,-4.45412 -2.77086,-0.40466 -4.75553,2.01654 -5.28654,4.49907 -0.76872,0.991 -0.54247,4.10477 -2.2346,3.12561 -2.70253,-0.79177 -5.8628,-2.90187 -8.4699,-0.76095 -2.5938,2.10344 -1.42882,5.80079 -1.75083,8.71614 -2.64256,0.60031 -6.41684,-0.75754 -8.61779,1.65248 -2.28719,2.54835 -0.31935,5.7866 0.52923,8.49481 1.08715,1.71315 -1.98513,1.49871 -2.94013,2.26548 -2.44624,0.59846 -4.89018,2.49884 -4.59887,5.30377 0.55551,2.65618 2.97579,4.39404 4.45412,6.57166 -1.94232,2.03878 -5.05612,3.3268 -5.69544,6.27959 -0.41451,2.54633 1.58021,4.42441 3.70526,5.35348 0.83377,0.93254 3.92683,1.25918 2.66624,2.7534 -1.30542,2.57052 -3.9337,5.45938 -2.06341,8.39529 1.80528,2.68974 5.51769,2.13012 8.32411,2.92073 -0.19106,2.73462 -1.74098,5.61701 -0.51113,8.25109 1.17382,2.38765 4.10831,2.70338 6.40819,1.95877 1.2492,0.1608 3.85203,-1.609 3.84252,0.34699 0.64522,2.68935 0.31393,6.47976 3.40374,7.62475 3.08521,1.32822 5.73913,-1.55433 8.40674,-2.73031 1.01316,0.61606 1.65335,2.62287 2.52206,3.77754 1.0155,2.86371 5.03283,4.05639 7.25279,1.80049 1.36091,-1.43882 2.61929,-3.03083 3.943,-4.52715 2.38494,1.55227 4.28053,4.53745 7.37486,4.45413 2.86203,-0.20919 4.04933,-2.97572 4.79315,-5.35744 0.45919,-1.70076 1.00684,-3.21064 2.8768,-1.86716 2.40535,0.89205 5.36211,2.26503 7.5909,0.21482 2.30971,-2.24429 1.21977,-5.73564 1.53339,-8.61617 2.77521,-0.30159 5.95016,0.66569 8.3241,-1.1683 2.08523,-1.79183 1.54624,-4.74328 0.48909,-6.95554 -0.28856,-1.37996 -2.03176,-3.44171 0.34221,-3.57372 2.47631,-0.99859 6.05548,-1.55287 6.47055,-4.73159 0.65441,-3.20412 -2.58198,-5.1634 -4.1512,-7.53416 -0.003,-1.10828 2.17993,-2.02747 3.01829,-3.06299 1.51882,-1.08354 2.57295,-2.58638 2.44724,-4.51767 z" />
        <path
           style="opacity:0.15;color:#000000;fill:#000000;fill-opacity:1;fill-rule:nonzero;stroke:none;stroke-width:2;marker:none;visibility:visible;display:inline;overflow:visible;enable-background:accumulate"
           id="path3956"
           d="m 232.70955,155.55899 a 2.0156456,2.0156456 0 0 0 -1.02225,-1.67942 l -6.64468,-4.01602 3.79696,-6.71769 a 2.0156456,2.0156456 0 0 0 -1.38735,-2.99376 l -7.73996,-1.46037 1.31433,-7.66693 a 2.0156456,2.0156456 0 0 0 -2.33659,-2.3366 l -7.66694,1.31434 -1.46036,-7.73996 a 2.0156456,2.0156456 0 0 0 -2.99376,-1.38735 l -6.7177,3.79696 -4.01601,-6.64468 a 2.0156456,2.0156456 0 0 0 -3.28583,-0.29207 l -5.03828,5.84147 -5.98751,-4.89223 a 2.0156456,2.0156456 0 0 0 -3.21281,0.8032 l -2.7747,7.37486 -7.37486,-2.62866 a 2.0156456,2.0156456 0 0 0 -2.70169,1.89848 l -0.073,7.73995 -7.73996,0.14604 a 2.0156456,2.0156456 0 0 0 -1.89848,2.70168 l 2.55565,7.30185 -7.30185,2.7747 a 2.0156456,2.0156456 0 0 0 -0.8032,3.13979 l 4.96525,6.06053 -5.98751,5.1113 a 2.0156456,2.0156456 0 0 0 0.29207,3.28583 l 6.7177,3.94299 -3.79696,6.86374 a 2.0156456,2.0156456 0 0 0 1.38735,2.92073 l 7.66694,1.38735 -1.31433,7.73996 a 2.0156456,2.0156456 0 0 0 2.33659,2.33659 l 7.73995,-1.31433 1.38735,7.66693 a 2.0156456,2.0156456 0 0 0 2.92074,1.38736 l 6.86374,-3.79696 3.94299,6.71769 a 2.0156456,2.0156456 0 0 0 3.28583,0.29208 l 5.11129,-5.98752 6.06053,4.96526 a 2.0156456,2.0156456 0 0 0 3.1398,-0.8032 l 2.7747,-7.30185 7.30184,2.55565 a 2.0156456,2.0156456 0 0 0 2.70169,-1.89848 l 0.14603,-7.73996 7.73996,-0.073 a 2.0156456,2.0156456 0 0 0 1.89848,-2.70168 l -2.62867,-7.37486 7.37487,-2.7747 a 2.0156456,2.0156456 0 0 0 0.8032,-3.21282 l -4.89224,-5.98751 5.84148,-5.03827 a 2.0156456,2.0156456 0 0 0 0.73018,-1.60641 z"
           inkscape:connector-curvature="0" />
        <path
           style="opacity:0.3;color:#000000;fill:#000000;fill-opacity:1;fill-rule:nonzero;stroke:none;stroke-width:2;marker:none;visibility:visible;display:inline;overflow:visible;enable-background:accumulate"
           id="path3950"
           d="m 162.13006,187.58063 1.58993,-9.64643 -9.60847,-1.80523 4.79332,-8.5209 -8.41159,-4.98266 7.41857,-6.36761 -6.20014,-7.5591 9.14903,-3.4463 -3.24086,-9.2238 9.77597,-0.1093 0.10931,-9.77598 9.2238,3.24086 3.4463,-9.14903 7.55909,6.20014 6.36762,-7.41856 4.98265,8.41158 8.5209,-4.79332 1.80523,9.60848 9.64644,-1.58993 -1.58993,9.64644 9.60848,1.80523 -4.79332,8.5209 8.41158,4.98265 -7.41856,6.36762 6.20013,7.55909 -9.14902,3.4463 3.24086,9.2238 -9.77598,0.10931 -0.1093,9.77597 -9.2238,-3.24086 -3.4463,9.14903 -7.5591,-6.20014 -6.36761,7.41857 -4.98266,-8.41159 -8.5209,4.79332 -1.80523,-9.60847 z"
           inkscape:connector-curvature="0" />
        <path
           style="color:#000000;fill:url(#linearGradient5630);fill-opacity:1;fill-rule:nonzero;stroke:none;stroke-width:2;marker:none;visibility:visible;display:inline;overflow:visible;enable-background:accumulate"
           id="path3139"
           d="m 162.13006,185.35284 1.58993,-9.64644 -9.60847,-1.80523 4.79332,-8.5209 -8.41159,-4.98266 7.41857,-6.36761 -6.20014,-7.5591 9.14903,-3.4463 -3.24086,-9.2238 9.77597,-0.1093 0.10931,-9.77598 9.2238,3.24086 3.4463,-9.14902 7.55909,6.20014 6.36762,-7.41857 4.98265,8.41159 8.5209,-4.79333 1.80523,9.60848 9.64644,-1.58993 -1.58993,9.64644 9.60848,1.80523 -4.79332,8.5209 8.41158,4.98265 -7.41856,6.36762 6.20013,7.55909 -9.14902,3.4463 3.24086,9.2238 -9.77598,0.10931 -0.1093,9.77597 -9.2238,-3.24086 -3.4463,9.14903 -7.5591,-6.20014 -6.36761,7.41857 -4.98266,-8.41159 -8.5209,4.79332 -1.80523,-9.60847 z"
           inkscape:connector-curvature="0" />
        <path
           style="opacity:0;fill:#000000;stroke:none;display:inline"
           id="path3919"
           inkscape:connector-curvature="0"
           d="m 168.31563,161.34488 8.91119,-8.91119 8.91119,8.91119 17.82239,-17.82238 8.91119,8.91119 -26.73358,26.73358 -17.82238,-17.82239 z" />
        <path
           style="opacity:0.07999998;fill:#000000;stroke:none;display:inline"
           id="path3929"
           inkscape:connector-curvature="0"
           d="m 203.68192,139.0669 c -2.00027,0.0221 -3.20386,1.72785 -4.52763,2.99603 -4.33876,4.33875 -8.67752,8.67751 -13.01628,13.01627 -2.14844,-2.09225 -4.16324,-4.38885 -6.40492,-6.3353 -1.95962,-1.47709 -4.74682,-0.72837 -6.20086,1.04909 -2.86082,2.90545 -5.84871,5.75827 -8.62792,8.69753 -1.74521,1.86398 -1.19553,4.92656 0.67296,6.44976 5.90194,5.87962 11.80534,11.75778 17.70638,17.6383 1.86462,1.74586 4.92537,1.19434 6.45053,-0.67218 8.75675,-8.75675 17.5135,-17.5135 26.27025,-26.27025 1.85753,-1.73913 1.77298,-5.05119 -0.29528,-6.63058 -2.98316,-2.98174 -6.01022,-6.01217 -8.964,-8.964 -0.86563,-0.67866 -1.98168,-0.97462 -3.06323,-0.97467 z" />
        <path
           style="opacity:0.12000002;fill:#000000;stroke:none;display:inline"
           id="path3925"
           d="m 203.75154,141.50356 a 2.0239576,2.0239576 0 0 0 -1.25313,0.55695 l -16.3604,16.36039 -7.4492,-7.4492 a 2.0239576,2.0239576 0 0 0 -2.92398,0 l -8.91119,8.91119 a 2.0239576,2.0239576 0 0 0 0,2.92399 l 17.82238,17.82238 a 2.0239576,2.0239576 0 0 0 2.92399,0 l 26.73357,-26.73358 a 2.0239576,2.0239576 0 0 0 0,-2.92398 l -8.91119,-8.91119 a 2.0239576,2.0239576 0 0 0 -1.67085,-0.55695 z"
           inkscape:connector-curvature="0" />
        <path
           style="opacity:0.3;fill:#000000;stroke:none;display:inline"
           id="path3921"
           inkscape:connector-curvature="0"
           d="m 168.31563,161.34488 8.91119,-8.91119 8.91119,8.91119 17.82239,-17.82238 8.91119,8.91119 -26.73358,26.73358 -17.82238,-17.82239 z" />
        <path
           style="fill:#ffffff;stroke:none;display:inline"
           id="path3917"
           inkscape:connector-curvature="0"
           d="m 168.31563,159.11709 8.91119,-8.9112 8.91119,8.9112 17.82239,-17.82239 8.91119,8.91119 -26.73358,26.73358 -17.82238,-17.82238 z" />
        <path
           style="opacity:0.6;color:#000000;fill:url(#linearGradient5632);fill-opacity:1;fill-rule:nonzero;stroke:none;stroke-width:2;marker:none;visibility:visible;display:inline;overflow:visible;enable-background:accumulate"
           id="path3933"
           inkscape:connector-curvature="0"
           d="m 194.07454,116.78892 -6.3353,7.4492 -7.58843,-6.19606 -3.41132,9.12005 -9.25928,-3.27208 0,2.2278 9.25928,3.27208 3.41132,-9.12005 7.58843,6.19606 6.3353,-7.4492 5.01255,8.42386 8.49348,-4.80369 1.81009,9.60738 9.3289,-1.53161 0.34809,-2.29741 -9.67699,1.60122 -1.81009,-9.60737 -8.49348,4.80369 -5.01255,-8.42387 z m -26.66395,16.91735 -9.81624,0.0696 0.76581,2.2278 9.05043,-0.0696 0,-2.22779 z m 50.40393,4.45559 -0.3481,2.15818 8.49348,1.60123 1.1139,-2.01894 -9.25928,-1.74047 z m -57.64428,5.15178 -8.42386,3.13285 1.39238,1.74046 7.72767,-2.92398 -0.69619,-1.94933 z m 63.07453,5.63912 -0.97466,1.67085 6.89225,4.1075 1.53161,-1.32276 -7.4492,-4.45559 z m -66.3466,5.98721 -6.40492,5.43025 1.53161,0.90505 5.91759,-5.01255 -1.04428,-1.32275 z m 67.39088,6.12644 -1.04428,0.90504 4.80369,5.84797 1.39238,-0.48733 -5.15179,-6.26568 z m -66.3466,5.98721 -3.82903,6.82263 1.1139,0.20885 3.68979,-6.47453 -0.97466,-0.55695 z m 63.07453,5.63911 -0.69619,0.27848 2.50627,7.03148 0.76581,0 -2.57589,-7.30996 z m -57.64428,5.15178 -1.25313,7.51882 0.34809,-0.0696 1.25314,-7.37958 -0.3481,-0.0696 z" />
      </g>
    </g>
  </g>
</svg>
