<?xml version="1.0" encoding="UTF-8" standalone="no"?>
<!-- Created with Inkscape (http://www.inkscape.org/) -->

<svg
   xmlns:dc="http://purl.org/dc/elements/1.1/"
   xmlns:cc="http://creativecommons.org/ns#"
   xmlns:rdf="http://www.w3.org/1999/02/22-rdf-syntax-ns#"
   xmlns:svg="http://www.w3.org/2000/svg"
   xmlns="http://www.w3.org/2000/svg"
   xmlns:xlink="http://www.w3.org/1999/xlink"
   xmlns:sodipodi="http://sodipodi.sourceforge.net/DTD/sodipodi-0.dtd"
   xmlns:inkscape="http://www.inkscape.org/namespaces/inkscape"
   width="256"
   height="256"
   id="svg7252"
   version="1.1"
   inkscape:version="0.48.1 r9760"
   sodipodi:docname="mail-mark-junk.svg">
  <defs
     id="defs7254">
    <linearGradient
       inkscape:collect="always"
       xlink:href="#linearGradient3700-8"
       id="linearGradient7157"
       gradientUnits="userSpaceOnUse"
       gradientTransform="matrix(2.5282101,0,0,1.7544049,6.6459477,840.11725)"
       x1="48"
       y1="90"
       x2="48"
       y2="5.9877172" />
    <linearGradient
       id="linearGradient3700-8">
      <stop
         offset="0"
         style="stop-color:#dcdcdc;stop-opacity:1"
         id="stop3702-5" />
      <stop
         offset="1"
         style="stop-color:#f0f0f0;stop-opacity:1"
         id="stop3704-0" />
    </linearGradient>
    <linearGradient
       inkscape:collect="always"
       xlink:href="#linearGradient3641-4"
       id="linearGradient7130"
       gradientUnits="userSpaceOnUse"
       gradientTransform="translate(100,0)"
       x1="48"
       y1="32"
       x2="48"
       y2="80" />
    <linearGradient
       id="linearGradient3641-4">
      <stop
         offset="0"
         style="stop-color:#000000;stop-opacity:1"
         id="stop3643-8" />
      <stop
         offset="1"
         style="stop-color:#000000;stop-opacity:0"
         id="stop3645-1" />
    </linearGradient>
    <clipPath
       id="clipPath3696-9">
      <rect
         style="fill:#ff00ff;fill-opacity:1;fill-rule:nonzero;stroke:none"
         id="rect3698-8"
         y="6"
         x="106"
         ry="6"
         rx="6"
         height="84"
         width="84" />
    </clipPath>
    <filter
       id="filter3665-1"
       color-interpolation-filters="sRGB">
      <feGaussianBlur
         stdDeviation="0.69"
         id="feGaussianBlur3667-5" />
    </filter>
    <linearGradient
       inkscape:collect="always"
       xlink:href="#linearGradient3700-8"
       id="linearGradient7153"
       gradientUnits="userSpaceOnUse"
       gradientTransform="matrix(2.5282101,0,0,1.7544049,6.6459477,840.11725)"
       x1="48"
       y1="88"
       x2="48"
       y2="36" />
    <linearGradient
       inkscape:collect="always"
       xlink:href="#linearGradient3641-4"
       id="linearGradient7132"
       gradientUnits="userSpaceOnUse"
       gradientTransform="translate(100,-1)"
       x1="51"
       y1="62"
       x2="51"
       y2="21" />
    <clipPath
       id="clipPath3703-4">
      <rect
         style="fill:#ff00ff;fill-opacity:1;fill-rule:nonzero;stroke:none"
         id="rect3705-8"
         y="6"
         x="106"
         ry="6"
         rx="6"
         height="84"
         width="84" />
    </clipPath>
    <filter
       id="filter3649-6"
       color-interpolation-filters="sRGB">
      <feGaussianBlur
         stdDeviation="1.38"
         id="feGaussianBlur3651-1" />
    </filter>
    <linearGradient
       inkscape:collect="always"
       xlink:href="#linearGradient3700-8"
       id="linearGradient7148"
       gradientUnits="userSpaceOnUse"
       gradientTransform="matrix(2.5282101,0,0,1.7544049,6.6459477,840.11725)"
       x1="48"
       y1="88"
       x2="48"
       y2="32" />
    <linearGradient
       inkscape:collect="always"
       xlink:href="#linearGradient3737-9"
       id="linearGradient7159"
       gradientUnits="userSpaceOnUse"
       x1="48"
       y1="20.220806"
       x2="48"
       y2="138.66119" />
    <linearGradient
       id="linearGradient3737-9">
      <stop
         offset="0"
         style="stop-color:#ffffff;stop-opacity:1"
         id="stop3739-0" />
      <stop
         offset="1"
         style="stop-color:#ffffff;stop-opacity:0"
         id="stop3741-8" />
    </linearGradient>
    <clipPath
       id="clipPath3613">
      <rect
         style="fill:#ffffff;fill-opacity:1;fill-rule:nonzero;stroke:none"
         id="rect3615"
         y="6"
         x="6"
         ry="6"
         rx="6"
         height="84"
         width="84" />
    </clipPath>
    <filter
       id="filter3794-8"
       color-interpolation-filters="sRGB"
       height="1.3839999"
       width="1.3839999"
       y="-0.192"
       x="-0.192">
      <feGaussianBlur
         stdDeviation="5.28"
         id="feGaussianBlur3796-5" />
    </filter>
    <radialGradient
       inkscape:collect="always"
       xlink:href="#linearGradient3737-9"
       id="radialGradient7143"
       gradientUnits="userSpaceOnUse"
       gradientTransform="matrix(2.9259301,0,0,1.7472254,-12.444619,840.4631)"
       cx="48"
       cy="90.171875"
       fx="48"
       fy="90.171875"
       r="42" />
    <linearGradient
       inkscape:collect="always"
       xlink:href="#linearGradient3737-9"
       id="linearGradient7140"
       gradientUnits="userSpaceOnUse"
       gradientTransform="matrix(2.5282101,0,0,1.7544049,6.6459477,840.11725)"
       x1="36.357143"
       y1="6"
       x2="36.357143"
       y2="63.893143" />
    <radialGradient
       inkscape:collect="always"
       xlink:href="#linearGradient3737-3-1"
       id="radialGradient7137"
       gradientUnits="userSpaceOnUse"
       gradientTransform="matrix(2.9259301,0,0,1.7472254,-12.44462,840.4631)"
       cx="48"
       cy="90.171875"
       fx="48"
       fy="90.171875"
       r="42" />
    <linearGradient
       id="linearGradient3737-3-1">
      <stop
         offset="0"
         style="stop-color:#ffffff;stop-opacity:1"
         id="stop3739-5-0" />
      <stop
         offset="1"
         style="stop-color:#ffffff;stop-opacity:0"
         id="stop3741-7-3" />
    </linearGradient>
    <linearGradient
       id="linearGradient4069-7">
      <stop
         offset="0"
         style="stop-color:#ff2400;stop-opacity:1"
         id="stop4071-4" />
      <stop
         offset="1"
         style="stop-color:#ff4700;stop-opacity:0"
         id="stop4073-9" />
    </linearGradient>
    <linearGradient
       id="linearGradient3290">
      <stop
         offset="0"
         style="stop-color:#a50000;stop-opacity:1"
         id="stop3292" />
      <stop
         offset="1"
         style="stop-color:#ff580a;stop-opacity:1"
         id="stop3294" />
    </linearGradient>
    <linearGradient
       id="linearGradient3203">
      <stop
         offset="0"
         style="stop-color:#ff3000;stop-opacity:1"
         id="stop3205" />
      <stop
         offset="0.27244934"
         style="stop-color:#ff7e00;stop-opacity:1"
         id="stop3211" />
      <stop
         offset="0.62384999"
         style="stop-color:#ffd200;stop-opacity:1"
         id="stop3213" />
      <stop
         offset="1"
         style="stop-color:#fff3b9;stop-opacity:1"
         id="stop3207" />
    </linearGradient>
    <linearGradient
       x1="45.447727"
       y1="92.539597"
       x2="45.447727"
       y2="7.0165396"
       id="ButtonShadow-3"
       gradientUnits="userSpaceOnUse"
       gradientTransform="scale(1.0058652,0.994169)">
      <stop
         id="stop3750-61"
         style="stop-color:#000000;stop-opacity:1"
         offset="0" />
      <stop
         id="stop3752-05"
         style="stop-color:#000000;stop-opacity:0.58823532"
         offset="1" />
    </linearGradient>
    <filter
       color-interpolation-filters="sRGB"
       id="filter3174-0">
      <feGaussianBlur
         id="feGaussianBlur3176-0"
         stdDeviation="1.71" />
    </filter>
    <filter
       color-interpolation-filters="sRGB"
       id="filter3657">
      <feGaussianBlur
         id="feGaussianBlur3659"
         stdDeviation="1.14" />
    </filter>
    <radialGradient
       inkscape:collect="always"
       xlink:href="#linearGradient4069-7"
       id="radialGradient5025"
       gradientUnits="userSpaceOnUse"
       gradientTransform="matrix(14.227804,5.3375322e-7,-3.9186557e-7,19.748763,-11.982518,-67.628714)"
       cx="-10.959364"
       cy="11.931095"
       fx="-10.959364"
       fy="11.931095"
       r="7" />
    <linearGradient
       inkscape:collect="always"
       xlink:href="#linearGradient3290"
       id="linearGradient5027"
       gradientUnits="userSpaceOnUse"
       gradientTransform="matrix(5.5688791,0,0,5.7441205,136.89954,92.15987)"
       x1="10.351493"
       y1="2.1772521"
       x2="10.351493"
       y2="18.417696" />
    <linearGradient
       inkscape:collect="always"
       xlink:href="#linearGradient3290"
       id="linearGradient5029"
       gradientUnits="userSpaceOnUse"
       gradientTransform="matrix(5.5688791,0,0,5.7441205,136.89954,92.15987)"
       x1="10.351493"
       y1="2.1772521"
       x2="10.351493"
       y2="18.417696" />
    <linearGradient
       inkscape:collect="always"
       xlink:href="#linearGradient3290"
       id="linearGradient5031"
       gradientUnits="userSpaceOnUse"
       gradientTransform="matrix(5.5688791,0,0,5.7441205,136.89954,92.15987)"
       x1="10.351493"
       y1="2.5798409"
       x2="10.351493"
       y2="18.417696" />
    <linearGradient
       inkscape:collect="always"
       xlink:href="#linearGradient3290"
       id="linearGradient5033"
       gradientUnits="userSpaceOnUse"
       gradientTransform="matrix(5.5688791,0,0,5.7441205,136.89954,89.824037)"
       x1="10.351493"
       y1="2.5798409"
       x2="10.351493"
       y2="18.417696" />
    <linearGradient
       inkscape:collect="always"
       xlink:href="#linearGradient3203"
       id="linearGradient5035"
       gradientUnits="userSpaceOnUse"
       gradientTransform="matrix(5.5688791,0,0,5.7441205,136.89954,89.824037)"
       x1="10.351493"
       y1="4.2104902"
       x2="10.351493"
       y2="18.417696" />
    <linearGradient
       inkscape:collect="always"
       xlink:href="#linearGradient3203"
       id="linearGradient5037"
       gradientUnits="userSpaceOnUse"
       gradientTransform="matrix(5.9096029,0,0,6.4385067,133.36189,80.966292)"
       x1="10.351493"
       y1="5.4949298"
       x2="10.351493"
       y2="18.417696" />
    <linearGradient
       inkscape:collect="always"
       xlink:href="#linearGradient3203"
       id="linearGradient5039"
       gradientUnits="userSpaceOnUse"
       gradientTransform="matrix(5.5688791,0,0,5.7441205,136.89954,94.495703)"
       x1="10.351493"
       y1="3.8038428"
       x2="10.351493"
       y2="16.40992" />
  </defs>
  <sodipodi:namedview
     id="base"
     pagecolor="#ffffff"
     bordercolor="#666666"
     borderopacity="1.0"
     inkscape:pageopacity="0.0"
     inkscape:pageshadow="2"
     inkscape:zoom="1.71875"
     inkscape:cx="128"
     inkscape:cy="128"
     inkscape:document-units="px"
     inkscape:current-layer="layer1"
     showgrid="false"
     inkscape:window-width="1024"
     inkscape:window-height="576"
     inkscape:window-x="0"
     inkscape:window-y="24"
     inkscape:window-maximized="1" />
  <metadata
     id="metadata7257">
    <rdf:RDF>
      <cc:Work
         rdf:about="">
        <dc:format>image/svg+xml</dc:format>
        <dc:type
           rdf:resource="http://purl.org/dc/dcmitype/StillImage" />
        <dc:title></dc:title>
      </cc:Work>
    </rdf:RDF>
  </metadata>
  <g
     inkscape:label="Layer 1"
     inkscape:groupmode="layer"
     id="layer1"
     transform="translate(0,-796.36218)">
    <g
       transform="translate(0.16009331,793.16852)"
       id="g5419">
      <rect
         style="opacity:0.05;fill:none;stroke:#000000;stroke-width:22.6303196;stroke-linejoin:round;stroke-miterlimit:4;stroke-opacity:1;stroke-dasharray:none"
         id="rect5286"
         y="57.508652"
         x="21.655085"
         ry="10.52643"
         rx="15.169261"
         height="147.37001"
         width="212.36964" />
      <rect
         width="212.36964"
         height="147.37001"
         rx="15.169261"
         ry="10.52643"
         x="21.655085"
         y="57.508652"
         id="rect5280"
         style="opacity:0.2;fill:none;stroke:#000000;stroke-width:5.6575799;stroke-linejoin:round;stroke-miterlimit:4;stroke-opacity:1;stroke-dasharray:none" />
      <rect
         width="212.36964"
         height="147.37001"
         rx="15.169261"
         ry="10.52643"
         x="21.655085"
         y="57.508652"
         id="rect5284"
         style="opacity:0.1;fill:none;stroke:#000000;stroke-width:16.97274017;stroke-linejoin:round;stroke-miterlimit:4;stroke-opacity:1;stroke-dasharray:none" />
      <rect
         style="opacity:0.15;fill:none;stroke:#000000;stroke-width:11.3151598;stroke-linejoin:round;stroke-miterlimit:4;stroke-opacity:1;stroke-dasharray:none"
         id="rect5282"
         y="57.508652"
         x="21.655085"
         ry="10.52643"
         rx="15.169261"
         height="147.37001"
         width="212.36964" />
      <rect
         style="opacity:0.3;fill:#000000;fill-opacity:1;fill-rule:nonzero;stroke:none"
         id="rect5218"
         y="59.350777"
         x="21.655085"
         ry="10.52643"
         rx="15.169261"
         height="147.37001"
         width="212.36964" />
      <g
         id="g5253"
         transform="matrix(1.1637667,0,0,0.80757451,-31.115385,31.24507)" />
    </g>
    <g
       id="g7397">
      <rect
         width="212.36964"
         height="147.37001"
         rx="15.16926"
         ry="10.526429"
         x="21.815208"
         y="850.64368"
         id="rect2419"
         style="fill:url(#linearGradient7157);fill-opacity:1;fill-rule:nonzero;stroke:none" />
      <path
         d="m 112,89 c -3.324,0 -6,-2.676 -6,-6 l 0,-6 42,-42 42,42 0,6 c 0,3.324 -2.676,6 -6,6 l -72,0 z"
         inkscape:connector-curvature="0"
         transform="matrix(2.5282101,0,0,1.7544049,-246.17505,838.36284)"
         clip-path="url(#clipPath3696-9)"
         id="path3653"
         style="opacity:0.3;fill:url(#linearGradient7130);fill-opacity:1;stroke:none;filter:url(#filter3665-1)" />
      <path
         d="m 36.984468,998.01369 c -8.40377,0 -15.169261,-4.69478 -15.169261,-10.52643 l 0,-10.52642 106.184833,-73.68501 106.18482,73.68501 0,10.52642 c 0,5.83165 -6.76549,10.52643 -15.16926,10.52643 l -182.031132,0 z"
         inkscape:connector-curvature="0"
         id="path3619"
         style="fill:url(#linearGradient7153);fill-opacity:1;stroke:none" />
      <path
         d="m 128.00004,903.27583 -106.184833,73.68501 0,1.7544 106.184833,-73.68501 106.18482,73.68501 0,-1.7544 -106.18482,-73.68501 z"
         inkscape:connector-curvature="0"
         id="path3718"
         style="opacity:0.4;fill:#ffffff;fill-opacity:1;stroke:none" />
      <path
         d="m 112,7 c -3.324,0 -6,2.676 -6,6 l 0,6 42,42 42,-42 0,-6 c 0,-3.324 -2.676,-6 -6,-6 l -72,0 z"
         inkscape:connector-curvature="0"
         transform="matrix(2.5282101,0,0,1.7544049,-246.17505,841.87165)"
         clip-path="url(#clipPath3703-4)"
         id="path3637"
         style="opacity:0.4;fill:url(#linearGradient7132);fill-opacity:1;stroke:none;filter:url(#filter3649-6)" />
      <path
         d="m 36.984468,850.64368 c -8.40377,0 -15.169261,4.69479 -15.169261,10.52643 l 0,10.52643 106.184833,73.68501 106.18482,-73.68501 0,-10.52643 c 0,-5.83164 -6.76549,-10.52643 -15.16926,-10.52643 l -182.031132,0 z"
         inkscape:connector-curvature="0"
         id="path3613"
         style="fill:url(#linearGradient7148);fill-opacity:1;stroke:none" />
      <path
         d="m 21.815207,869.94213 0,1.75441 106.184833,73.68501 106.18482,-73.68501 0,-1.75441 -106.18482,73.68501 -106.184833,-73.68501 z"
         inkscape:connector-curvature="0"
         id="path3709-6"
         style="opacity:0.6;fill:#ffffff;fill-opacity:1;stroke:none" />
      <rect
         transform="matrix(2.5282101,0,0,1.7544049,6.6459477,840.11725)"
         width="66"
         height="66"
         rx="12"
         ry="12"
         x="15"
         y="15"
         clip-path="url(#clipPath3613)"
         id="rect3171"
         style="opacity:0.1;fill:url(#linearGradient7159);fill-opacity:1;fill-rule:nonzero;stroke:#ffffff;stroke-width:0.5;stroke-linecap:round;stroke-linejoin:miter;stroke-miterlimit:4;stroke-opacity:1;stroke-dasharray:none;stroke-dashoffset:0;filter:url(#filter3794-8)" />
      <path
         d="m 36.984468,998.01369 c -8.40377,0 -15.169261,-4.69478 -15.169261,-10.52643 l 0,-3.50881 0,-119.29953 0,-3.50881 c 0,-0.58724 0.104542,-1.14159 0.23702,-1.69958 0.123124,-0.5186 0.245337,-1.04723 0.47404,-1.53511 0.02497,-0.0533 0.05282,-0.11158 0.07901,-0.16447 0.249951,-0.50487 0.593826,-0.96045 0.948079,-1.42546 0.365557,-0.47984 0.797943,-0.93968 1.264104,-1.37062 0.466162,-0.43095 0.944985,-0.83067 1.501125,-1.20616 1.112278,-0.75098 2.383875,-1.42901 3.792315,-1.91888 0.70422,-0.24493 1.449861,-0.43324 2.212184,-0.60307 -0.647732,0.17583 -1.230508,0.41451 -1.817151,0.6579 -0.01874,0.008 -0.06034,-0.008 -0.07901,0 -0.08073,0.0339 -0.157489,0.0746 -0.23702,0.10965 -0.304383,0.13456 -0.584074,0.28687 -0.869072,0.4386 -0.268427,0.14175 -0.539218,0.28265 -0.790065,0.4386 -0.449844,0.28322 -0.878452,0.60595 -1.264105,0.93203 -0.271982,0.22852 -0.552146,0.46542 -0.790066,0.71272 -0.06343,0.0673 -0.0972,0.15066 -0.158013,0.21931 -0.163735,0.18076 -0.329243,0.3588 -0.47404,0.54825 -0.25537,0.34159 -0.519989,0.72931 -0.711059,1.0965 -0.02012,0.0383 -0.05964,0.0711 -0.07901,0.10965 -0.08046,0.16132 -0.09052,0.32778 -0.158013,0.49343 -0.07668,0.18705 -0.177959,0.3562 -0.237019,0.54825 -0.184252,0.59915 -0.316027,1.22493 -0.316027,1.86405 l 0,3.50881 0,119.29954 0,3.50881 c 0,4.88048 5.607954,8.77202 12.64105,8.77202 l 5.056421,0 171.918295,0 5.05642,0 c 7.0331,0 12.64105,-3.89154 12.64105,-8.77202 l 0,-3.50881 0,-119.29954 0,-3.50881 c 0,-0.63912 -0.13177,-1.2649 -0.31603,-1.86405 -0.1116,-0.36298 -0.22344,-0.69765 -0.39503,-1.04168 -0.0194,-0.0385 -0.0589,-0.0714 -0.079,-0.10965 -0.15862,-0.30481 -0.34986,-0.64465 -0.55304,-0.93203 -0.10509,-0.14526 -0.19983,-0.29817 -0.31603,-0.4386 -0.13804,-0.17054 -0.32051,-0.33044 -0.47404,-0.49343 -0.23793,-0.2473 -0.51809,-0.4842 -0.79006,-0.71272 -0.36198,-0.30606 -0.76641,-0.60878 -1.1851,-0.8772 -0.0283,-0.0179 -0.0505,-0.0371 -0.079,-0.0548 -0.34987,-0.22028 -0.72077,-0.4113 -1.10609,-0.60308 -0.25932,-0.12834 -0.51656,-0.26906 -0.79007,-0.38378 -0.0187,-0.008 -0.0603,0.008 -0.079,0 -0.58664,-0.24338 -1.16942,-0.48207 -1.81715,-0.6579 0.76233,0.16983 1.50796,0.35814 2.21218,0.60308 1.40845,0.48987 2.68004,1.16789 3.79232,1.91888 0.55614,0.37549 1.03496,0.77521 1.50112,1.20615 0.46617,0.43094 0.89856,0.89079 1.26411,1.37063 0.35426,0.465 0.69813,0.92059 0.94808,1.42545 0.0263,0.054 0.0539,0.11008 0.079,0.16448 0.22869,0.48787 0.35091,1.01651 0.47404,1.5351 0.13247,0.55799 0.23701,1.11235 0.23701,1.69958 l 0,3.50881 0,119.29954 0,3.50881 c 0,5.83165 -6.76549,10.52643 -15.16925,10.52643 l -182.031139,0 z"
         inkscape:connector-curvature="0"
         id="path3615"
         style="opacity:0;fill:url(#radialGradient7143);fill-opacity:1;fill-rule:nonzero;stroke:none" />
      <path
         d="m 36.984468,850.64368 c -8.40377,0 -15.169261,4.69479 -15.169261,10.52643 l 0,3.50881 0,119.29953 0,3.50881 c 0,0.58724 0.104542,1.14159 0.23702,1.69959 0.123124,0.51859 0.245337,1.04723 0.47404,1.5351 0.02503,0.0533 0.05281,0.11158 0.07901,0.16448 0.249938,0.50486 0.593826,0.96044 0.948079,1.42545 0.365558,0.47984 0.797943,0.93968 1.264104,1.37063 0.466162,0.43094 0.944984,0.83066 1.501125,1.20615 1.112278,0.75098 2.383875,1.429 3.792315,1.91888 0.70422,0.24494 1.449861,0.43325 2.212184,0.60308 -0.647732,-0.17583 -1.230508,-0.41452 -1.817151,-0.65791 -0.01871,-0.008 -0.06035,0.008 -0.07901,0 -0.08073,-0.0338 -0.157482,-0.0745 -0.23702,-0.10964 -0.304383,-0.13457 -0.584075,-0.28688 -0.869072,-0.4386 -0.268427,-0.14177 -0.539218,-0.28266 -0.790065,-0.43861 -0.449844,-0.28322 -0.878453,-0.60595 -1.264105,-0.93203 -0.271983,-0.22852 -0.552146,-0.46542 -0.790066,-0.71272 -0.06344,-0.0673 -0.09721,-0.15065 -0.158013,-0.21931 -0.163727,-0.18076 -0.329244,-0.3588 -0.47404,-0.54824 -0.25537,-0.3416 -0.519989,-0.72931 -0.711059,-1.09651 -0.02023,-0.0383 -0.05964,-0.0711 -0.07901,-0.10964 -0.08047,-0.16133 -0.09051,-0.32778 -0.158013,-0.49343 -0.07668,-0.18705 -0.177958,-0.3562 -0.237019,-0.54826 -0.184254,-0.59914 -0.316027,-1.22493 -0.316027,-1.86405 l 0,-3.50881 0,-119.29954 0,-3.50881 c 0,-4.88048 5.607954,-8.77202 12.64105,-8.77202 l 5.056421,0 171.918295,0 5.05642,0 c 7.0331,0 12.64105,3.89154 12.64105,8.77202 l 0,3.50881 0,119.29954 0,3.50881 c 0,0.63912 -0.13177,1.26491 -0.31603,1.86405 -0.1116,0.36298 -0.22344,0.69766 -0.39503,1.04169 -0.0194,0.0385 -0.0589,0.0714 -0.079,0.10964 -0.15862,0.30481 -0.34986,0.64465 -0.55304,0.93203 -0.10509,0.14527 -0.19983,0.29816 -0.31603,0.4386 -0.13804,0.17054 -0.32051,0.33044 -0.47404,0.49343 -0.23793,0.2473 -0.51809,0.4842 -0.79006,0.71272 -0.36198,0.30606 -0.76641,0.60878 -1.1851,0.87721 -0.0283,0.0179 -0.0505,0.0371 -0.079,0.0548 -0.34987,0.22028 -0.72077,0.41129 -1.10609,0.60307 -0.25932,0.12834 -0.51656,0.26907 -0.79007,0.38378 -0.0187,0.008 -0.0603,-0.008 -0.079,0 -0.58664,0.24339 -1.16942,0.48207 -1.81715,0.65791 0.76233,-0.16984 1.50796,-0.35815 2.21218,-0.60308 1.40845,-0.48988 2.68004,-1.1679 3.79232,-1.91888 0.55614,-0.37549 1.03496,-0.77522 1.50112,-1.20615 0.46617,-0.43095 0.89856,-0.89079 1.26411,-1.37064 0.35426,-0.465 0.69813,-0.92058 0.94808,-1.42545 0.0263,-0.054 0.0539,-0.11007 0.079,-0.16447 0.22869,-0.48788 0.35091,-1.01651 0.47404,-1.53511 0.13247,-0.55799 0.23701,-1.11234 0.23701,-1.69958 l 0,-3.50881 0,-119.29953 0,-3.50881 c 0,-5.83165 -6.76549,-10.52643 -15.16925,-10.52643 l -182.031139,0 z"
         inkscape:connector-curvature="0"
         id="rect3728"
         style="opacity:0.6;fill:url(#linearGradient7140);fill-opacity:1;fill-rule:nonzero;stroke:none" />
      <path
         d="m 36.984468,998.01369 c -8.40377,0 -15.169261,-4.69478 -15.169261,-10.52643 l 0,-3.50881 0,-119.29953 0,-3.50881 c 0,-0.58724 0.104542,-1.14159 0.23702,-1.69958 0.123124,-0.5186 0.245337,-1.04723 0.47404,-1.53511 0.02497,-0.0533 0.05282,-0.11158 0.07901,-0.16447 0.249951,-0.50487 0.593826,-0.96045 0.948079,-1.42546 0.365557,-0.47984 0.797943,-0.93968 1.264104,-1.37062 0.466162,-0.43095 0.944985,-0.83067 1.501125,-1.20616 1.112278,-0.75098 2.383875,-1.42901 3.792315,-1.91888 0.70422,-0.24493 1.449861,-0.43324 2.212184,-0.60307 -0.647732,0.17583 -1.230508,0.41451 -1.817151,0.6579 -0.01874,0.008 -0.06034,-0.008 -0.07901,0 -0.08073,0.0339 -0.157489,0.0746 -0.23702,0.10965 -0.304383,0.13456 -0.584074,0.28687 -0.869072,0.4386 -0.268427,0.14175 -0.539218,0.28265 -0.790065,0.4386 -0.449844,0.28322 -0.878452,0.60595 -1.264105,0.93203 -0.271982,0.22852 -0.552146,0.46542 -0.790066,0.71272 -0.06343,0.0673 -0.0972,0.15066 -0.158013,0.21931 -0.163735,0.18076 -0.329243,0.3588 -0.47404,0.54825 -0.25537,0.34159 -0.519989,0.72931 -0.711059,1.0965 -0.02012,0.0383 -0.05964,0.0711 -0.07901,0.10965 -0.08046,0.16132 -0.09052,0.32778 -0.158013,0.49343 -0.07668,0.18705 -0.177959,0.3562 -0.237019,0.54825 -0.184252,0.59915 -0.316027,1.22493 -0.316027,1.86405 l 0,3.50881 0,119.29954 0,3.50881 c 0,4.88048 5.607954,8.77202 12.64105,8.77202 l 5.056421,0 171.918295,0 5.05642,0 c 7.0331,0 12.64105,-3.89154 12.64105,-8.77202 l 0,-3.50881 0,-119.29954 0,-3.50881 c 0,-0.63912 -0.13177,-1.2649 -0.31603,-1.86405 -0.1116,-0.36298 -0.22344,-0.69765 -0.39503,-1.04168 -0.0194,-0.0385 -0.0589,-0.0714 -0.079,-0.10965 -0.15862,-0.30481 -0.34986,-0.64465 -0.55304,-0.93203 -0.10509,-0.14526 -0.19983,-0.29817 -0.31603,-0.4386 -0.13804,-0.17054 -0.32051,-0.33044 -0.47404,-0.49343 -0.23793,-0.2473 -0.51809,-0.4842 -0.79006,-0.71272 -0.36198,-0.30606 -0.76641,-0.60878 -1.1851,-0.8772 -0.0283,-0.0179 -0.0505,-0.0371 -0.079,-0.0548 -0.34987,-0.22028 -0.72077,-0.4113 -1.10609,-0.60308 -0.25932,-0.12834 -0.51656,-0.26906 -0.79007,-0.38378 -0.0187,-0.008 -0.0603,0.008 -0.079,0 -0.58664,-0.24338 -1.16942,-0.48207 -1.81715,-0.6579 0.76233,0.16983 1.50796,0.35814 2.21218,0.60308 1.40845,0.48987 2.68004,1.16789 3.79232,1.91888 0.55614,0.37549 1.03496,0.77521 1.50112,1.20615 0.46617,0.43094 0.89856,0.89079 1.26411,1.37063 0.35426,0.465 0.69813,0.92059 0.94808,1.42545 0.0263,0.054 0.0539,0.11008 0.079,0.16448 0.22869,0.48787 0.35091,1.01651 0.47404,1.5351 0.13247,0.55799 0.23701,1.11235 0.23701,1.69958 l 0,3.50881 0,119.29954 0,3.50881 c 0,5.83165 -6.76549,10.52643 -15.16925,10.52643 l -182.031139,0 z"
         inkscape:connector-curvature="0"
         id="path3615-5"
         style="opacity:0.3;fill:url(#radialGradient7137);fill-opacity:1;fill-rule:nonzero;stroke:none" />
    </g>
    <g
       id="g6353"
       transform="translate(-3.6886394,790.6031)">
      <rect
         width="160"
         height="220"
         rx="11.428572"
         ry="15.714286"
         x="-208.31656"
         y="17.693075"
         transform="matrix(0,-1,1,0,0,0)"
         id="rect3752"
         style="opacity:0.2;fill:url(#radialGradient5025);fill-opacity:1;fill-rule:nonzero;stroke:none;display:inline" />
      <g
         transform="matrix(0.9951883,0,0,0.96977324,5.8227858,9.5291846)"
         id="g5617">
        <path
           style="opacity:0.1;fill:url(#linearGradient5027);fill-opacity:1;fill-rule:evenodd;stroke:none;display:inline"
           id="path3909"
           inkscape:connector-curvature="0"
           d="m 198.87832,102.11145 c -3.45628,0.25752 -5.40439,3.69567 -7.97398,5.61868 -13.45648,12.58227 -25.109,28.62088 -27.49398,47.33893 -1.43907,12.46959 0.13489,25.94817 7.2522,36.56497 4.19276,6.00998 10.55247,10.69607 17.79622,12.0892 8.49951,2.24327 17.71253,2.11284 25.88899,-1.30096 9.53231,-2.51203 15.93866,-11.54606 17.8947,-20.85876 3.69622,-17.20957 -3.0299,-35.23766 -13.94754,-48.50227 -2.59652,-3.23224 -8.33965,-1.10357 -8.3944,2.99279 0.18409,2.37817 1.16896,8.36587 0.54504,8.14924 -2.30002,-7.81973 -9.26509,-13.88824 -9.24854,-22.41726 -0.24404,-4.97834 1.44329,-9.74621 2.57194,-14.49193 0.1935,-2.78745 -2.14829,-5.14654 -4.89065,-5.18263 z" />
        <path
           style="opacity:0.15;fill:url(#linearGradient5029);fill-opacity:1;fill-rule:evenodd;stroke:none;display:inline"
           id="path3901"
           d="m 198.58634,104.66627 a 2.3531865,2.3531865 0 0 0 -1.24091,0.58396 c -23.12843,20.05966 -34.11206,40.46748 -31.60674,64.08942 1.96011,18.48145 9.97649,26.83026 19.41661,30.87679 a 2.3531865,2.3531865 0 0 0 0.14599,0 c 4.37336,1.58059 9.09819,2.46489 14.16099,2.48182 0.0509,0.004 0.0952,-0.003 0.14599,0 6.00224,0.37534 11.29537,-1.61686 16.20484,-3.43075 a 2.3531865,2.3531865 0 0 0 0.073,0 c 9.2422,-3.85856 14.50518,-13.88143 14.89094,-25.76716 0.38576,-11.88573 -3.96874,-25.88807 -14.16099,-38.61424 a 2.3531865,2.3531865 0 0 0 -4.1607,1.89786 c 1.53569,8.81337 1.27114,14.99953 -0.073,19.48961 -0.57703,1.92757 -1.39944,3.40127 -2.33583,4.81766 0.99517,-12.17515 -2.81342,-19.30978 -6.35055,-25.11021 -2.10854,-3.45774 -3.92049,-6.54263 -4.67166,-10.73023 -0.75117,-4.1876 -0.44352,-9.58755 2.11685,-17.51875 a 2.3531865,2.3531865 0 0 0 -2.55482,-3.06578 z"
           inkscape:connector-curvature="0" />
        <path
           style="opacity:0.3;fill:url(#linearGradient5031);fill-opacity:1;fill-rule:evenodd;stroke:none;display:inline"
           id="path3893"
           inkscape:connector-curvature="0"
           d="m 198.87079,106.97879 c -22.81632,19.78897 -33.23558,39.33695 -30.81988,62.1139 1.90091,17.92328 9.13562,25.11591 18.01778,28.92328 4.1686,1.50659 8.66209,2.37076 13.51333,2.37076 5.44068,0.37602 10.46406,-1.49173 15.40993,-3.31907 16.38263,-6.83964 19.50372,-36.04286 -0.23706,-60.69145 3.15049,18.08078 -0.82197,26.34929 -7.82351,31.53111 7.35675,-33.30284 -18.62596,-28.20048 -8.06059,-60.92853 z" />
        <path
           style="opacity:0.7;fill:url(#linearGradient5033);fill-opacity:1;fill-rule:evenodd;stroke:none;display:inline"
           id="path2421"
           inkscape:connector-curvature="0"
           d="m 198.87079,104.64295 c -22.81632,19.78897 -33.23558,39.33695 -30.81988,62.11391 1.90091,17.92328 9.13562,25.11591 18.01778,28.92327 4.1686,1.50659 8.66209,2.37077 13.51333,2.37077 5.44068,0.37602 10.46406,-1.49173 15.40993,-3.31907 16.38263,-6.83965 19.50372,-36.04286 -0.23706,-60.69145 3.15049,18.08077 -0.82197,26.34928 -7.82351,31.5311 7.35675,-33.30284 -18.62596,-28.20047 -8.06059,-60.92853 z" />
        <path
           style="opacity:0.5;fill:url(#linearGradient5035);fill-opacity:1;fill-rule:evenodd;stroke:none;display:inline"
           id="path3954"
           d="m 192.96574,115.54249 c -16.01629,16.39193 -23.34214,32.44732 -21.38747,50.87737 1.79656,16.93939 7.75059,22.52961 15.69388,25.98614 0.0437,0.0159 0.10224,-0.0156 0.14599,0 0.031,0.0133 0.042,0.0597 0.073,0.073 3.73891,1.32569 7.74737,2.04386 12.11714,2.04386 a 3.513374,3.513374 0 0 1 0.21898,0 c 4.46009,0.30825 8.92071,-1.19383 13.79602,-2.99279 0.0494,-0.0205 0.0968,-0.0518 0.14598,-0.073 6.5387,-2.81424 10.83663,-10.29532 11.16821,-20.51154 0.22814,-7.0296 -1.66552,-15.22898 -5.76659,-23.43132 -0.15501,2.93778 -0.45568,5.7232 -1.16792,8.10242 -1.70648,5.70053 -5.01838,9.84332 -8.97836,12.77409 a 3.513374,3.513374 0 0 1 -5.5476,-3.57675 c 3.49893,-15.83911 -0.52445,-21.06268 -4.81766,-28.10299 -2.1466,-3.52016 -4.4483,-7.45958 -5.40161,-12.77409 -0.44569,-2.48461 -0.55817,-5.31081 -0.29198,-8.3944 z"
           inkscape:connector-curvature="0" />
        <path
           style="opacity:0.5;fill:url(#linearGradient5037);fill-opacity:1;fill-rule:evenodd;stroke:none;display:inline"
           id="path4033"
           inkscape:connector-curvature="0"
           d="m 189.56469,123.35293 c -10.06034,13.84671 -16.13391,27.42437 -14.59171,42.78338 1.77404,17.66818 6.3973,21.67236 13.58538,24.97911 3.55749,1.35806 7.19071,2.12588 11.32115,2.12588 a 8.5698769,9.0520232 0 0 1 0.50316,0 c 3.46457,0.2529 7.57097,-1.13621 12.83064,-3.18882 4.72708,-2.26495 8.50376,-8.40659 8.80534,-18.33573 0.0912,-3.00208 -0.86489,-6.66888 -1.50948,-10.09794 -2.29403,4.3388 -4.48247,8.83395 -7.79902,11.42661 a 8.5698769,9.0520232 0 0 1 -13.3338,-9.03499 c 3.46499,-16.5679 0.0983,-19.8881 -4.52846,-27.90221 -1.85352,-3.21051 -3.85725,-7.73817 -5.2832,-12.75529 z" />
        <path
           style="opacity:0.5;fill:url(#linearGradient5039);fill-opacity:1;fill-rule:evenodd;stroke:none;display:inline"
           id="path3962"
           d="m 188.07509,139.77676 c -6.53076,9.94081 -9.18066,19.58419 -8.02943,30.43882 0.80433,7.58382 2.44903,11.69776 4.08771,14.088 1.54777,2.25763 3.30672,3.4687 6.13156,4.74466 a 8.5401896,8.5401896 0 0 1 0.073,0.073 c 0.0436,0.0154 0.10236,-0.0152 0.14599,0 2.80345,0.97845 5.74285,1.53289 9.12435,1.53289 a 8.5401896,8.5401896 0 0 1 0.80294,0.073 l 0,-0.073 c 2.11873,0.14644 5.49848,-0.73569 10.07328,-2.40882 2.26547,-1.01362 4.35976,-4.45328 5.25562,-9.92729 -0.56543,0.47971 -1.02262,1.17421 -1.60588,1.60588 a 8.5401896,8.5401896 0 0 1 -12.11714,-2.11685 8.5401896,8.5401896 0 0 1 -6.86151,-10.14627 c 3.11623,-14.10664 0.75466,-14.36341 -3.79572,-21.82544 -1.00866,-1.65407 -2.17431,-3.7421 -3.28477,-6.05857 z m 2.7738,49.49046 c 0.0168,0.007 -0.0166,0.0656 0,0.073 0.94602,0.42107 1.38023,0.81483 1.89787,1.24091 -0.52921,-0.42439 -0.93229,-0.90003 -1.89787,-1.31391 z"
           inkscape:connector-curvature="0" />
      </g>
    </g>
  </g>
</svg>
