<?xml version="1.0" encoding="UTF-8" standalone="no"?>
<!-- Created with Inkscape (http://www.inkscape.org/) -->

<svg
   xmlns:dc="http://purl.org/dc/elements/1.1/"
   xmlns:cc="http://creativecommons.org/ns#"
   xmlns:rdf="http://www.w3.org/1999/02/22-rdf-syntax-ns#"
   xmlns:svg="http://www.w3.org/2000/svg"
   xmlns="http://www.w3.org/2000/svg"
   xmlns:xlink="http://www.w3.org/1999/xlink"
   xmlns:sodipodi="http://sodipodi.sourceforge.net/DTD/sodipodi-0.dtd"
   xmlns:inkscape="http://www.inkscape.org/namespaces/inkscape"
   version="1.0"
   width="256"
   height="256"
   id="svg2408"
   inkscape:version="0.48.3.1 r9886"
   sodipodi:docname="mail-folder-sent.svg">
  <sodipodi:namedview
     pagecolor="#ffffff"
     bordercolor="#666666"
     borderopacity="1"
     objecttolerance="10"
     gridtolerance="10"
     guidetolerance="10"
     inkscape:pageopacity="0"
     inkscape:pageshadow="2"
     inkscape:window-width="1024"
     inkscape:window-height="553"
     id="namedview98"
     showgrid="false"
     inkscape:zoom="1.4960938"
     inkscape:cx="128"
     inkscape:cy="128"
     inkscape:window-x="-4"
     inkscape:window-y="24"
     inkscape:window-maximized="1"
     inkscape:current-layer="svg2408"
     inkscape:snap-bbox="true"
     inkscape:bbox-paths="true"
     inkscape:bbox-nodes="true"
     inkscape:snap-bbox-edge-midpoints="true"
     inkscape:snap-bbox-midpoints="true"
     inkscape:object-paths="true"
     inkscape:snap-intersection-paths="true"
     inkscape:object-nodes="true"
     inkscape:snap-smooth-nodes="true"
     inkscape:snap-midpoints="true"
     inkscape:snap-object-midpoints="true"
     inkscape:snap-center="true"
     inkscape:snap-page="true" />
  <defs
     id="defs2410">
    <linearGradient
       id="linearGradient3737">
      <stop
         id="stop3739"
         style="stop-color:#ffffff;stop-opacity:1"
         offset="0" />
      <stop
         id="stop3741"
         style="stop-color:#ffffff;stop-opacity:0"
         offset="1" />
    </linearGradient>
    <filter
       x="-0.192"
       y="-0.192"
       width="1.3839999"
       height="1.3839999"
       color-interpolation-filters="sRGB"
       id="filter3794">
      <feGaussianBlur
         id="feGaussianBlur3796"
         stdDeviation="5.28" />
    </filter>
    <linearGradient
       x1="45.447727"
       y1="92.539597"
       x2="45.447727"
       y2="7.0165396"
       id="ButtonShadow-4"
       gradientUnits="userSpaceOnUse"
       gradientTransform="scale(1.0058652,0.994169)">
      <stop
         id="stop3750-6"
         style="stop-color:#000000;stop-opacity:1"
         offset="0" />
      <stop
         id="stop3752-9"
         style="stop-color:#000000;stop-opacity:0.58823532"
         offset="1" />
    </linearGradient>
    <filter
       color-interpolation-filters="sRGB"
       id="filter3174-2">
      <feGaussianBlur
         id="feGaussianBlur3176-2"
         stdDeviation="1.71" />
    </filter>
    <linearGradient
       x1="45.447727"
       y1="92.539597"
       x2="45.447727"
       y2="7.0165396"
       id="linearGradient2875"
       xlink:href="#ButtonShadow-4"
       gradientUnits="userSpaceOnUse"
       gradientTransform="scale(1.0058652,0.994169)" />
    <linearGradient
       x1="58.650177"
       y1="122"
       x2="58.650177"
       y2="5.4252338"
       id="ButtonColor-6"
       gradientUnits="userSpaceOnUse">
      <stop
         id="stop3189-4"
         style="stop-color:#dcdcdc;stop-opacity:1"
         offset="0" />
      <stop
         id="stop3191-0"
         style="stop-color:#f5f5f5;stop-opacity:1"
         offset="1" />
    </linearGradient>
    <clipPath
       id="clipPath4175">
      <path
         d="m 11.098025,2.9903889 c -4.5113565,0 -8.1709436,3.4413075 -8.527469,7.8577721 3.5280021,0.02442 6.3844399,2.895366 6.3844399,6.429086 0,3.548857 -2.8802307,6.429087 -6.4290863,6.429087 l 0,10.000801 c 3.5488556,0 6.4290863,2.88023 6.4290863,6.429086 0,3.548857 -2.8802307,6.429086 -6.4290863,6.429086 l 0,10.000801 c 3.5488556,0 6.4290863,2.880231 6.4290863,6.429086 0,3.548858 -2.8802307,6.429087 -6.4290863,6.429087 l 0,10.000801 c 3.5488556,0 6.4290863,2.88023 6.4290863,6.429086 0,3.548857 -2.8802307,6.429086 -6.4290863,6.429086 l 0,10.000806 c 3.5488556,-1e-5 6.4290863,2.88023 6.4290863,6.42908 0,3.53372 -2.8564378,6.40467 -6.3844399,6.42909 C 2.9270814,119.55869 6.5866685,123 11.098025,123 c 0,-3.54886 2.88023,-6.42909 6.429086,-6.42909 3.548857,0 6.429086,2.88023 6.429086,6.42909 l 10.000801,0 c 0,-3.54886 2.880231,-6.42909 6.429086,-6.42909 3.548858,0 6.429087,2.88023 6.429087,6.42909 l 10.000801,0 c 0,-3.54886 2.88023,-6.42909 6.429086,-6.42909 3.548857,0 6.429086,2.88023 6.429086,6.42909 l 10.000801,0 c 0,-3.54886 2.880231,-6.42909 6.429087,-6.42909 3.548857,0 6.429086,2.88023 6.429086,6.42909 l 10.000802,0 c -10e-6,-3.54886 2.88023,-6.42909 6.42909,-6.42909 3.50344,0 6.35668,2.80895 6.42908,6.29515 3.84108,-0.63593 6.78055,-3.7817 7.09878,-7.72383 -3.528,-0.0244 -6.38444,-2.89537 -6.38444,-6.42909 0,-3.54886 2.88023,-6.42908 6.42909,-6.42908 l 0,-10.000806 c -3.54886,2e-6 -6.42909,-2.88023 -6.42909,-6.429086 0,-3.548856 2.88023,-6.429086 6.42909,-6.429086 l 0,-10.000801 c -3.54886,1e-6 -6.42909,-2.880231 -6.42909,-6.429087 0,-3.548855 2.88023,-6.429086 6.42909,-6.429086 l 0,-10.000801 c -3.54886,2e-6 -6.42909,-2.88023 -6.42909,-6.429086 0,-3.548856 2.88023,-6.429086 6.42909,-6.429086 l 0,-10.000801 c -3.54886,1e-6 -6.42909,-2.880231 -6.42909,-6.429087 0,-3.53372 2.85644,-6.404664 6.38444,-6.429086 -0.31823,-3.9421345 -3.2577,-7.0879004 -7.09878,-7.7238328 -0.0724,3.4862044 -2.92563,6.295147 -6.42908,6.295147 -3.54887,0 -6.42909,-2.8802305 -6.42909,-6.4290863 l -10.000802,0 c 10e-7,3.5488562 -2.880231,6.4290863 -6.429086,6.4290863 -3.548856,0 -6.429087,-2.8802305 -6.429087,-6.4290863 l -10.000801,0 c 2e-6,3.5488562 -2.88023,6.4290863 -6.429086,6.4290863 -3.548856,0 -6.429086,-2.8802305 -6.429086,-6.4290863 l -10.000801,0 c 10e-7,3.5488562 -2.880231,6.4290863 -6.429087,6.4290863 -3.548855,0 -6.429086,-2.8802305 -6.429086,-6.4290863 l -10.000801,0 c 2e-6,3.5488562 -2.88023,6.4290863 -6.429086,6.4290863 -3.548856,0 -6.429086,-2.8802305 -6.429086,-6.4290863 z"
         inkscape:connector-curvature="0"
         id="path4177"
         style="fill:url(#linearGradient4179);fill-opacity:1;fill-rule:nonzero;stroke:none" />
    </clipPath>
    <linearGradient
       x1="48"
       y1="90"
       x2="48"
       y2="5.9877172"
       id="linearGradient4179"
       xlink:href="#ButtonColor-6"
       gradientUnits="userSpaceOnUse"
       gradientTransform="matrix(1.4286858,0,0,1.4286858,-6.0462055,-5.5817262)" />
    <linearGradient
       inkscape:collect="always"
       xlink:href="#ButtonColor-6"
       id="linearGradient3861"
       gradientUnits="userSpaceOnUse"
       x1="49.190796"
       y1="68.262077"
       x2="49.190796"
       y2="27.219465" />
    <linearGradient
       inkscape:collect="always"
       xlink:href="#linearGradient3737"
       id="linearGradient3863"
       gradientUnits="userSpaceOnUse"
       x1="48"
       y1="20.220806"
       x2="48"
       y2="138.66119" />
    <linearGradient
       id="linearGradient3578">
      <stop
         style="stop-color:#000000;stop-opacity:1;"
         offset="0"
         id="stop3580" />
      <stop
         style="stop-color:#fffcfc;stop-opacity:1;"
         offset="1"
         id="stop3582" />
    </linearGradient>
    <linearGradient
       inkscape:collect="always"
       xlink:href="#linearGradient3578"
       id="linearGradient3584"
       x1="13.514812"
       y1="-7.4748664"
       x2="16.093008"
       y2="-7.4748664"
       gradientUnits="userSpaceOnUse"
       spreadMethod="reflect" />
    <linearGradient
       id="linearGradient2831">
      <stop
         id="stop2833"
         offset="0"
         style="stop-color:#e1e1e1;stop-opacity:1;" />
      <stop
         id="stop2835"
         offset="1"
         style="stop-color:#bbbbbb;stop-opacity:1;" />
    </linearGradient>
    <linearGradient
       id="linearGradient2839">
      <stop
         id="stop2841"
         offset="0"
         style="stop-color:#a8a8a8;stop-opacity:1;" />
      <stop
         id="stop2843"
         offset="1"
         style="stop-color:#d0d0d0;stop-opacity:1;" />
    </linearGradient>
    <linearGradient
       id="linearGradient2847">
      <stop
         id="stop2849"
         offset="0"
         style="stop-color:#aaaaaa;stop-opacity:1;" />
      <stop
         id="stop2851"
         offset="1"
         style="stop-color:#e6e6e6;stop-opacity:1;" />
    </linearGradient>
    <linearGradient
       id="linearGradient2871">
      <stop
         style="stop-color:#b8b8b8;stop-opacity:1;"
         offset="0"
         id="stop2873" />
      <stop
         style="stop-color:white;stop-opacity:1"
         offset="1"
         id="stop2875" />
    </linearGradient>
    <linearGradient
       id="linearGradient2953">
      <stop
         id="stop2955"
         offset="0"
         style="stop-color:#c4c4c4;stop-opacity:1;" />
      <stop
         id="stop2957"
         offset="1"
         style="stop-color:#ffffff;stop-opacity:1;" />
    </linearGradient>
    <linearGradient
       id="linearGradient3906"
       inkscape:collect="always">
      <stop
         id="stop3908"
         offset="0"
         style="stop-color:#e5e6f2;stop-opacity:1;" />
      <stop
         id="stop3910"
         offset="1"
         style="stop-color:#e5e6f2;stop-opacity:0;" />
    </linearGradient>
    <linearGradient
       id="linearGradient3944">
      <stop
         style="stop-color:#ffffff;stop-opacity:1;"
         offset="0"
         id="stop3946" />
      <stop
         style="stop-color:#b9b9b9;stop-opacity:1;"
         offset="1"
         id="stop3948" />
    </linearGradient>
    <linearGradient
       id="linearGradient3533">
      <stop
         style="stop-color:#e6e8fc;stop-opacity:0.65079367"
         offset="0"
         id="stop3535" />
      <stop
         id="stop3537"
         offset="0.23175256"
         style="stop-color:#f2f3fd;stop-opacity:0" />
      <stop
         style="stop-color:#f8f9fe;stop-opacity:1"
         offset="0.41854483"
         id="stop3539" />
      <stop
         id="stop3541"
         offset="0.60366929"
         style="stop-color:#fbfcfe;stop-opacity:0" />
      <stop
         style="stop-color:#fdfdfe;stop-opacity:0"
         offset="0.71704376"
         id="stop3545" />
      <stop
         id="stop3547"
         offset="0.83154297"
         style="stop-color:#fefefe;stop-opacity:1" />
      <stop
         style="stop-color:#ffffff;stop-opacity:0"
         offset="1"
         id="stop3543" />
    </linearGradient>
    <radialGradient
       inkscape:collect="always"
       xlink:href="#linearGradient3533"
       id="radialGradient5472"
       gradientUnits="userSpaceOnUse"
       gradientTransform="matrix(0.9999996,-1.4056927e-6,3.1948244e-7,0.2272785,3.5953491e-5,127.14128)"
       spreadMethod="pad"
       cx="134.29112"
       cy="164.53687"
       fx="134.29112"
       fy="164.53687"
       r="112.03024" />
    <radialGradient
       inkscape:collect="always"
       xlink:href="#linearGradient3906"
       id="radialGradient5474"
       gradientUnits="userSpaceOnUse"
       gradientTransform="matrix(1,0,0,0.341897,0,111.6262)"
       cx="129.20982"
       cy="169.61815"
       fx="129.20982"
       fy="169.61815"
       r="122.43478" />
    <linearGradient
       inkscape:collect="always"
       xlink:href="#linearGradient3944"
       id="linearGradient5476"
       gradientUnits="userSpaceOnUse"
       gradientTransform="matrix(1.0310371,0,0,1.0310371,-278.89518,32.368968)"
       x1="272.43762"
       y1="75.493385"
       x2="443.78165"
       y2="76.46125" />
    <linearGradient
       inkscape:collect="always"
       xlink:href="#linearGradient2953"
       id="linearGradient5478"
       gradientUnits="userSpaceOnUse"
       gradientTransform="matrix(1.0310371,0,0,1.0310371,-280.29215,32.706068)"
       x1="435.52271"
       y1="166.95653"
       x2="471.36578"
       y2="72.08979" />
    <linearGradient
       inkscape:collect="always"
       xlink:href="#linearGradient2871"
       id="linearGradient5480"
       gradientUnits="userSpaceOnUse"
       gradientTransform="matrix(1.0310371,0,0,1.0310371,-277.15625,32.869467)"
       x1="329.5416"
       y1="157.29396"
       x2="418.61719"
       y2="82.510399" />
    <linearGradient
       inkscape:collect="always"
       xlink:href="#linearGradient2839"
       id="linearGradient5482"
       gradientUnits="userSpaceOnUse"
       gradientTransform="matrix(1.0310371,0,0,1.0310371,-277.6478,33.865826)"
       x1="272.43762"
       y1="81.2845"
       x2="377.96692"
       y2="178.32892" />
    <linearGradient
       inkscape:collect="always"
       xlink:href="#linearGradient2847"
       id="linearGradient5484"
       gradientUnits="userSpaceOnUse"
       gradientTransform="matrix(1.0310371,0,0,1.0310371,-279.14464,32.368967)"
       x1="339.70413"
       y1="182.68433"
       x2="427.32797"
       y2="149.29301" />
    <linearGradient
       inkscape:collect="always"
       xlink:href="#linearGradient2831"
       id="linearGradient5486"
       gradientUnits="userSpaceOnUse"
       gradientTransform="matrix(1.0310371,0,0,1.0310371,-278.89518,32.867916)"
       spreadMethod="reflect"
       x1="376.48297"
       y1="165.74669"
       x2="449.10489"
       y2="131.87146" />
  </defs>
  <metadata
     id="metadata2413">
    <rdf:RDF>
      <cc:Work
         rdf:about="">
        <dc:format>image/svg+xml</dc:format>
        <dc:type
           rdf:resource="http://purl.org/dc/dcmitype/StillImage" />
        <dc:title></dc:title>
      </cc:Work>
    </rdf:RDF>
  </metadata>
  <g
     id="layer2"
     style="display:none"
     transform="translate(0,160)">
    <path
       d="m 11,7.0000001 c -2.8840938,0 -5.2600098,2.0142918 -5.84375,4.7187499 2.508553,0.0336 4.5312502,2.077266 4.53125,4.59375 0,2.53742 -2.0563306,4.59375 -4.59375,4.59375 -0.031404,0 -0.062496,6.28e-4 -0.09375,0 l 0,7.15625 c 0.031254,-6.28e-4 0.062346,0 0.09375,0 2.5374193,0 4.5937502,2.056331 4.59375,4.59375 0,2.53742 -2.0563306,4.593749 -4.59375,4.59375 -0.031404,0 -0.062496,6.28e-4 -0.09375,0 l 0,7.15625 c 0.031254,-6.28e-4 0.062346,0 0.09375,0 2.5374193,0 4.5937502,2.056331 4.59375,4.59375 0,2.53742 -2.0563306,4.593749 -4.59375,4.59375 -0.031404,0 -0.062496,6.28e-4 -0.09375,0 L 5,60.75 c 0.031254,-6.28e-4 0.062346,0 0.09375,0 2.5374193,0 4.5937502,2.056331 4.59375,4.59375 0,2.53742 -2.0563306,4.593753 -4.59375,4.59375 -0.031404,0 -0.062496,6.28e-4 -0.09375,0 l 0,7.15625 c 0.031254,-6.28e-4 0.062346,0 0.09375,0 2.5374193,-4e-6 4.5937502,2.056332 4.59375,4.59375 0,2.537416 -2.0563306,4.593753 -4.59375,4.59375 -0.031404,0 -0.062496,6.28e-4 -0.09375,0 C 5.1443858,89.475105 7.7692544,92 11,92 l 0.21875,0 c -6.28e-4,-0.03125 0,-0.06235 0,-0.09375 0,-2.53742 2.05633,-4.593748 4.59375,-4.59375 2.53742,0 4.59375,2.056327 4.59375,4.59375 0,0.0314 6.28e-4,0.0625 0,0.09375 l 7.15625,0 c -6.28e-4,-0.03125 0,-0.06235 0,-0.09375 0,-2.53742 2.056329,-4.593748 4.59375,-4.59375 2.53742,0 4.593752,2.056327 4.59375,4.59375 0,0.0314 6.28e-4,0.0625 0,0.09375 l 7.15625,0 c -6.28e-4,-0.03125 0,-0.06235 0,-0.09375 0,-2.53742 2.056329,-4.593748 4.59375,-4.59375 2.53742,0 4.593748,2.056327 4.59375,4.59375 0,0.0314 6.28e-4,0.0625 0,0.09375 L 60.25,92 c -6.28e-4,-0.03125 0,-0.06235 0,-0.09375 0,-2.53742 2.056333,-4.593748 4.59375,-4.59375 2.53742,0 4.593749,2.056327 4.59375,4.59375 0,0.0314 6.28e-4,0.0625 0,0.09375 l 7.15625,0 c -6.28e-4,-0.03125 0,-0.06235 0,-0.09375 -5e-6,-2.53742 2.056334,-4.593748 4.59375,-4.59375 2.537416,0 4.593749,2.056327 4.59375,4.59375 0,0.01047 7e-5,0.0208 0,0.03125 2.865173,-0.366463 5.086108,-2.72217 5.21875,-5.65625 -0.03125,6.28e-4 -0.06235,0 -0.09375,0 -2.53742,-3e-6 -4.593748,-2.05633 -4.59375,-4.59375 0,-2.537423 2.056327,-4.593752 4.59375,-4.59375 0.0314,0 0.0625,-6.28e-4 0.09375,0 l 0,-7.15625 c -0.03125,6.28e-4 -0.06235,0 -0.09375,0 -2.53742,10e-7 -4.593748,-2.056331 -4.59375,-4.59375 0,-2.537419 2.056327,-4.593749 4.59375,-4.59375 0.0314,0 0.0625,-6.28e-4 0.09375,0 l 0,-7.15625 c -0.03125,6.28e-4 -0.06235,0 -0.09375,0 -2.53742,10e-7 -4.593748,-2.056331 -4.59375,-4.59375 0,-2.537419 2.056327,-4.593749 4.59375,-4.59375 0.0314,0 0.0625,-6.28e-4 0.09375,0 L 91,37.25 c -0.03125,6.28e-4 -0.06235,0 -0.09375,0 -2.53742,10e-7 -4.593748,-2.056331 -4.59375,-4.59375 0,-2.537419 2.056327,-4.593749 4.59375,-4.59375 0.0314,0 0.0625,-6.28e-4 0.09375,0 l 0,-7.15625 c -0.03125,6.28e-4 -0.06235,0 -0.09375,0 -2.53742,1e-6 -4.593748,-2.056332 -4.59375,-4.59375 0,-2.516483 2.022694,-4.560154 4.53125,-4.59375 -0.537373,-2.4896402 -2.580279,-4.4005759 -5.15625,-4.6874999 -0.428865,2.094046 -2.279755,3.6562499 -4.5,3.6562499 -2.230714,0 -4.082641,-1.5787032 -4.5,-3.6874999 l -7.34375,0 c -0.417358,2.1087966 -2.269287,3.6874999 -4.5,3.6874999 -2.23071,0 -4.082641,-1.5787032 -4.5,-3.6874999 l -7.34375,0 C 52.582641,9.1087967 50.730709,10.6875 48.5,10.6875 c -2.23071,0 -4.082641,-1.5787032 -4.5,-3.6874999 l -7.34375,0 c -0.417359,2.1087966 -2.269291,3.6874999 -4.5,3.6874999 -2.23071,0 -4.082641,-1.5787032 -4.5,-3.6874999 l -7.34375,0 c -0.417359,2.1087966 -2.269291,3.6874999 -4.5,3.6874999 -2.23071,0 -4.082641,-1.5787032 -4.5,-3.6874999 l -0.3125,0 z"
       inkscape:connector-curvature="0"
       id="rect3745"
       style="opacity:0.9;fill:url(#linearGradient2875);fill-opacity:1;fill-rule:nonzero;stroke:none;display:inline;filter:url(#filter3174-2)" />
  </g>
  <g
     id="layer4"
     style="display:none"
     transform="translate(0,160)">
    <g
       transform="matrix(0.69994394,0,0,0.69994394,4.2320049,3.9068954)"
       clip-path="url(#clipPath4175)"
       id="g4297"
       style="opacity:0.4;display:inline">
      <path
         d="M 78.328433,146.12702 C 102.97964,141.5092 119.27151,117.74571 114.65368,93.094501 110.03586,68.443296 86.24741,52.18789 61.5962,56.805717 36.944992,61.423537 20.683843,85.18128 25.301662,109.83249 c 4.61782,24.6512 28.375563,40.91235 53.026771,36.29453 z m -0.27619,-1.47435 C 54.198754,149.12105 31.244402,133.40979 26.776016,109.5563 22.30763,85.702809 38.018897,62.748458 61.872386,58.280072 c 23.853486,-4.468396 46.838554,11.237123 51.306944,35.090615 4.46838,23.853483 -11.2736,46.813593 -35.127087,51.281983 z"
         inkscape:connector-curvature="0"
         id="path4086"
         style="fill:#000000;fill-opacity:1;fill-rule:nonzero;stroke:none;display:inline" />
      <path
         d="M 76.05797,133.99283 C 93.999045,130.63199 105.85194,113.31477 102.49109,95.373693 99.130265,77.432624 81.817203,65.601941 63.876127,68.962785 45.935052,72.323622 34.100219,89.614465 37.461056,107.55554 c 3.360836,17.94107 20.655839,29.79812 38.596914,26.43729 z m -0.278844,-1.48856 c -17.143357,3.2114 -33.640325,-8.08006 -36.851728,-25.22342 -3.211403,-17.14335 8.080057,-33.64032 25.223414,-36.851724 17.143355,-3.211409 33.662542,8.0759 36.873938,25.219253 3.21141,17.143361 -8.102267,33.644481 -25.245624,36.855891 z"
         inkscape:connector-curvature="0"
         id="path4088"
         style="fill:#000000;fill-opacity:1;fill-rule:nonzero;stroke:none;display:inline" />
      <path
         d="m 80.565369,102.02827 a 44.699646,44.699646 0 1 1 -89.3992923,0 44.699646,44.699646 0 1 1 89.3992923,0 z"
         transform="matrix(-0.7731136,0.1448245,-0.1448245,-0.7731136,112.47644,175.15278)"
         id="path4090"
         style="fill:none;stroke:none;display:inline"
         inkscape:connector-curvature="0" />
      <path
         d="m 30.263018,108.51962 -0.554153,-4.67036 0.987701,-0.1172 0.19935,1.68011 4.07978,-0.48408 0.155049,1.30675 -4.079779,0.48408 0.199752,1.68351 -0.9877,0.11719 m 2.261704,-9.796918 2.330552,0.04837 -0.02553,1.230208 -0.379313,-0.0079 -1.397648,-0.02901 c -0.334887,-0.0069 -0.565145,-0.0038 -0.690778,0.0096 -0.125579,0.01107 -0.218364,0.03421 -0.278355,0.06943 -0.08073,0.0462 -0.143584,0.10984 -0.188574,0.19095 -0.04726,0.0811 -0.07198,0.17401 -0.07416,0.2788 -0.0053,0.25515 0.08965,0.45769 0.284815,0.6076 0.192898,0.14987 0.463624,0.22842 0.81218,0.23566 l 1.882895,0.0391 -0.02539,1.22337 -5.317214,-0.11037 0.02539,-1.22337 2.05034,0.0426 c -0.219426,-0.18916 -0.379386,-0.38849 -0.479882,-0.59798 -0.102767,-0.20953 -0.15155,-0.43959 -0.146353,-0.69019 0.0092,-0.441966 0.151678,-0.77404 0.427504,-0.996233 0.275879,-0.224462 0.672388,-0.331328 1.189526,-0.320598 m 0.961551,-1.296159 -2.306619,-0.381105 0.200582,-1.21401 0.377691,0.0624 c 0.204587,0.0338 0.461815,0.07746 0.771689,0.130965 0.30763,0.05314 0.51315,0.08825 0.616564,0.105334 0.303505,0.05015 0.524,0.0785 0.661489,0.08504 0.135243,0.0062 0.236371,-0.0048 0.303386,-0.03302 0.08686,-0.03646 0.158145,-0.0905 0.21386,-0.162131 0.05609,-0.07388 0.09267,-0.16252 0.109761,-0.265939 0.0416,-0.251792 -0.02238,-0.465602 -0.191952,-0.641433 -0.169568,-0.175823 -0.426338,-0.292152 -0.770309,-0.348987 l -1.864854,-0.308115 0.199467,-1.207266 3.77692,0.624031 -0.199467,1.207266 -0.546304,-0.09026 c 0.190233,0.218507 0.32128,0.438779 0.393143,0.660817 0.06998,0.219424 0.08473,0.45166 0.04425,0.696707 -0.07206,0.436146 -0.2608,0.746774 -0.56622,0.931883 -0.305048,0.182864 -0.712738,0.232136 -1.223073,0.147816 m 1.312716,-9.082138 2.222493,0.703093 -0.371133,1.173163 -0.361726,-0.114433 -1.339362,-0.423711 c -0.315015,-0.09965 -0.534673,-0.160778 -0.658974,-0.183374 -0.123611,-0.02476 -0.219158,-0.0287 -0.286642,-0.01181 -0.09047,0.02157 -0.168715,0.06493 -0.234738,0.130081 -0.06819,0.06447 -0.118094,0.146669 -0.149711,0.246602 -0.07697,0.243326 -0.04295,0.464405 0.10207,0.663237 0.142854,0.198151 0.380477,0.349802 0.712872,0.454954 l 1.795592,0.568041 -0.369073,1.166647 -3.649841,-1.154639 0.369072,-1.166647 0.53444,0.169073 c -0.157234,-0.243326 -0.254549,-0.479647 -0.291945,-0.708966 -0.03956,-0.229998 -0.02155,-0.464488 0.05405,-0.70347 0.133335,-0.421465 0.363631,-0.699933 0.690888,-0.835402 0.327948,-0.137634 0.738502,-0.128446 1.231664,0.02756 m 0.832304,-4.126423 -1.84791,-0.889343 0.533606,-1.108746 4.792246,2.306364 -0.533605,1.108746 -0.498937,-0.240123 c 0.130146,0.249769 0.19847,0.48875 0.204974,0.71694 0.0065,0.228195 -0.04805,0.462406 -0.163669,0.702632 -0.204549,0.425021 -0.540901,0.693041 -1.009056,0.804063 -0.470208,0.110034 -0.971206,0.03708 -1.502995,-0.21885 -0.531785,-0.255932 -0.900331,-0.601467 -1.105638,-1.036608 -0.207355,-0.436123 -0.208761,-0.866696 -0.0042,-1.291718 0.114629,-0.238171 0.264166,-0.425406 0.448612,-0.561704 0.183385,-0.139331 0.412247,-0.236549 0.686586,-0.291653 m 1.883082,1.801468 c 0.113638,-0.236119 0.113866,-0.457279 6.85e-4,-0.663482 -0.112194,-0.208249 -0.332549,-0.391428 -0.661067,-0.549537 -0.328517,-0.158102 -0.60915,-0.216033 -0.8419,-0.173795 -0.23176,0.04019 -0.404459,0.178347 -0.5181,0.414466 -0.112648,0.234071 -0.112876,0.455232 -6.83e-4,0.663481 0.113183,0.206202 0.334032,0.388354 0.662549,0.546458 0.328517,0.158108 0.608656,0.217066 0.840418,0.176875 0.232749,-0.04224 0.405448,-0.180396 0.518098,-0.414466 m 2.702829,-6.768336 0.290358,0.192969 -1.583476,2.382647 c 0.255515,0.134246 0.492241,0.167084 0.710176,0.09851 0.217935,-0.06857 0.415189,-0.235694 0.591761,-0.501384 0.142519,-0.214444 0.256878,-0.454447 0.343078,-0.720008 0.08556,-0.268712 0.142645,-0.564562 0.171251,-0.887551 l 0.785676,0.52215 c -0.06908,0.301559 -0.160942,0.58798 -0.275569,0.859263 -0.112734,0.272549 -0.249189,0.52933 -0.409363,0.770346 -0.383416,0.576922 -0.827824,0.928629 -1.333228,1.055121 -0.50604,0.123335 -1.023799,0.0091 -1.553277,-0.342824 -0.519987,-0.345575 -0.824904,-0.773936 -0.914753,-1.285083 -0.08858,-0.513039 0.05,-1.044737 0.415758,-1.595094 0.332967,-0.501005 0.749959,-0.801166 1.250978,-0.900483 0.50228,-0.101204 1.005823,0.01593 1.51063,0.351417 m -1.034951,0.822439 c -0.193572,-0.128642 -0.387026,-0.17513 -0.580362,-0.139464 -0.193971,0.03252 -0.351496,0.139863 -0.472576,0.322045 -0.131166,0.197371 -0.181755,0.394938 -0.151769,0.592703 0.02809,0.196509 0.136424,0.379312 0.324998,0.548408 l 0.879709,-1.323692 M 42.128699,75.6369 c -0.107456,0.04936 -0.204476,0.107547 -0.291063,0.174563 -0.08685,0.06381 -0.164875,0.13659 -0.234069,0.218329 -0.203163,0.240015 -0.282557,0.490753 -0.238184,0.752215 0.04411,0.258259 0.209647,0.508843 0.496615,0.751754 l 1.346148,1.139484 -0.790573,0.933955 -2.92187,-2.473299 0.790572,-0.933956 0.480022,0.406328 c -0.08973,-0.281943 -0.112563,-0.537117 -0.0685,-0.765521 0.0438,-0.231606 0.157711,-0.456113 0.341735,-0.673518 0.0265,-0.0313 0.05695,-0.06374 0.09134,-0.09733 0.03266,-0.03505 0.08278,-0.08368 0.150359,-0.145888 l 0.847464,0.712881 m 3.500023,-0.621866 c 0.192049,-0.178276 0.273065,-0.384064 0.243046,-0.617363 -0.02835,-0.234843 -0.166548,-0.485867 -0.414587,-0.753072 -0.248042,-0.267198 -0.488109,-0.423657 -0.7202,-0.469376 -0.230422,-0.04726 -0.441658,0.01825 -0.633709,0.196521 -0.192051,0.178283 -0.273962,0.386456 -0.245731,0.624518 0.02835,0.23485 0.165771,0.485039 0.412261,0.750568 0.246491,0.265534 0.486557,0.421992 0.7202,0.469375 0.233761,0.04417 0.446667,-0.02289 0.63872,-0.201171 m -2.282096,-1.262696 c -0.02834,-0.278376 -0.003,-0.525738 0.07597,-0.742085 0.07744,-0.218008 0.213855,-0.417705 0.409245,-0.59909 0.345693,-0.320897 0.75749,-0.446665 1.235394,-0.377301 0.476352,0.0677 0.915286,0.317817 1.316803,0.750346 0.401514,0.432536 0.619112,0.88967 0.652795,1.371403 0.03213,0.480068 -0.124652,0.880551 -0.470343,1.201451 -0.195393,0.181382 -0.403895,0.303424 -0.625506,0.366124 -0.223164,0.06103 -0.472498,0.06708 -0.748002,0.01814 l 0.376711,0.405812 -0.896796,0.832487 -3.618294,-3.897806 0.896796,-0.832486 1.395229,1.503009 m 2.796126,-3.152846 0.979602,-0.733251 2.29397,3.064676 -0.979602,0.733252 -2.29397,-3.064677 m -0.89301,-1.193034 0.979602,-0.733251 0.598071,0.799004 -0.979602,0.733251 -0.598071,-0.799004 m 6.064899,-1.032299 c -0.117387,0.01426 -0.227525,0.04012 -0.330415,0.07756 -0.102168,0.03431 -0.198657,0.07985 -0.289469,0.136613 -0.266643,0.166687 -0.418672,0.381304 -0.456087,0.643853 -0.03669,0.259416 0.04461,0.548527 0.243902,0.867335 l 0.934869,1.495512 -1.037584,0.648612 -2.029173,-3.246075 1.037585,-0.64861 0.333364,0.533283 c 4.58e-4,-0.295877 0.05647,-0.545872 0.168046,-0.749983 0.112296,-0.207243 0.289206,-0.386356 0.53073,-0.537341 0.03478,-0.02174 0.07366,-0.04336 0.116656,-0.06486 0.04178,-0.02343 0.104339,-0.05447 0.187666,-0.09313 l 0.58991,0.937231 m 2.990378,-2.008408 -0.868319,-1.857881 1.114729,-0.520992 2.251841,4.818108 -1.114729,0.520991 -0.234447,-0.501628 c -0.05725,0.275763 -0.155539,0.504057 -0.29488,0.684882 -0.139345,0.180826 -0.32978,0.32768 -0.571302,0.44056 -0.427314,0.199713 -0.857361,0.194456 -1.29014,-0.01577 -0.433746,-0.212292 -0.77556,-0.585767 -1.025442,-1.120425 -0.249883,-0.534656 -0.316661,-1.035416 -0.200335,-1.502285 0.115362,-0.468926 0.386699,-0.803248 0.814012,-1.002965 0.23946,-0.111912 0.473724,-0.162292 0.702795,-0.151142 0.230168,0.0081 0.468907,0.07765 0.716217,0.208551 m 0.318452,2.586481 c 0.237394,-0.110951 0.377499,-0.282072 0.420318,-0.513363 0.04488,-0.232253 -0.0099,-0.513526 -0.164232,-0.843818 -0.154369,-0.330287 -0.335037,-0.552707 -0.542001,-0.667261 -0.204903,-0.115509 -0.426052,-0.117791 -0.663446,-0.0068 -0.235333,0.109991 -0.375439,0.281112 -0.420319,0.513363 -0.04282,0.231293 0.01296,0.512084 0.167328,0.842371 0.154367,0.330292 0.334002,0.553194 0.538905,0.668707 0.206965,0.114551 0.428114,0.116832 0.663447,0.0068 m 4.64459,-6.402192 1.642157,-0.329075 1.676052,2.449382 0.609562,-2.907403 1.638806,-0.328405 1.002675,5.003552 -1.219888,0.244457 -0.73337,-3.659664 -0.612236,2.928853 -0.817727,0.163868 -1.693486,-2.466805 0.73337,3.659664 -1.22324,0.245128 -1.002675,-5.003552 m 9.479697,2.051842 c -0.255076,0.0083 -0.446115,0.0578 -0.573117,0.148556 -0.124729,0.09068 -0.184358,0.220292 -0.178885,0.388822 0.005,0.154866 0.06022,0.275047 0.165594,0.360539 0.10757,0.08314 0.253592,0.12172 0.438067,0.11573 0.23002,-0.0075 0.42094,-0.09574 0.572764,-0.264817 0.151744,-0.171354 0.223587,-0.381152 0.215532,-0.629395 l -0.0045,-0.140063 -0.635408,0.02063 m 1.853673,-0.521846 0.07086,2.182932 -1.233236,0.04003 -0.01841,-0.567084 c -0.156437,0.237623 -0.335403,0.413282 -0.536895,0.526975 -0.201572,0.111417 -0.449251,0.171894 -0.74304,0.181431 -0.396276,0.01286 -0.722269,-0.09168 -0.977976,-0.313648 -0.253506,-0.224315 -0.386247,-0.520945 -0.398225,-0.889892 -0.01456,-0.448655 0.128479,-0.782736 0.429134,-1.002244 0.302929,-0.219577 0.784623,-0.340088 1.445085,-0.361531 l 0.720811,-0.0234 -0.0031,-0.09565 c -0.0063,-0.193581 -0.08716,-0.332305 -0.242635,-0.416176 -0.155549,-0.08614 -0.39502,-0.123963 -0.718415,-0.113468 -0.261908,0.0085 -0.504744,0.04261 -0.72851,0.102304 -0.223767,0.0597 -0.430742,0.145078 -0.620922,0.256122 l -0.03028,-0.932614 c 0.259836,-0.07227 0.521328,-0.128633 0.784477,-0.169098 0.263074,-0.04273 0.526703,-0.06839 0.790889,-0.07697 0.690063,-0.0224 1.192121,0.09809 1.506173,0.361476 0.31625,0.261038 0.484321,0.697872 0.504212,1.310502 m 1.482397,-1.554091 1.220671,0.08508 -0.266178,3.818859 -1.220672,-0.08508 0.266179,-3.818859 m 0.103619,-1.486627 1.220671,0.08508 -0.0694,0.995632 -1.22067,-0.08508 0.0694,-0.995631 m 2.762055,0.245863 1.211901,0.169035 -0.734686,5.267369 -1.211901,-0.169035 0.734686,-5.267369 m 8.015222,7.142303 c -0.26853,0.04405 -0.537235,0.05567 -0.806133,0.03487 -0.268898,-0.0208 -0.538704,-0.07546 -0.809426,-0.16399 -0.807846,-0.264165 -1.374182,-0.698683 -1.699018,-1.303558 -0.32413,-0.607041 -0.359771,-1.297153 -0.106939,-2.070343 0.253535,-0.775352 0.690033,-1.311075 1.309487,-1.607174 0.620155,-0.298257 1.334147,-0.315308 2.141994,-0.05115 0.270722,0.08853 0.520696,0.203836 0.749944,0.34592 0.229225,0.142088 0.439161,0.310228 0.629787,0.504413 L 84.046204,65.12032 C 83.8661,64.886413 83.675502,64.695828 83.47434,64.548534 83.273167,64.401245 83.048056,64.286878 82.79899,64.20543 c -0.446154,-0.145887 -0.843753,-0.117676 -1.192799,0.08464 -0.349048,0.20232 -0.605729,0.554708 -0.770024,1.057172 -0.163602,0.500299 -0.164362,0.935174 -0.0023,1.304627 0.162081,0.369454 0.466193,0.627126 0.912355,0.773019 0.249058,0.08144 0.498257,0.122174 0.747578,0.122191 0.249321,1.7e-5 0.515699,-0.04114 0.799144,-0.123462 l -0.328259,1.003845 m 3.039163,-4.13094 1.115632,0.502637 -2.184639,4.848947 -1.115632,-0.502638 2.184639,-4.848946 m 1.79883,2.498672 1.078821,0.577423 -1.80647,3.375087 -1.078822,-0.577423 1.806471,-3.375087 m 0.703227,-1.313875 1.078822,0.577423 -0.470971,0.879934 -1.078822,-0.577423 0.470971,-0.879934 M 92.364678,71.845154 92.17,72.134369 89.796735,70.536875 c -0.135751,0.254718 -0.169985,0.491245 -0.102702,0.709581 0.06728,0.218335 0.233241,0.41657 0.497883,0.594707 0.213605,0.143781 0.452926,0.259551 0.717972,0.347316 0.268205,0.08714 0.563718,0.145973 0.886531,0.176483 l -0.526777,0.782582 c -0.301141,-0.07086 -0.58702,-0.164406 -0.85762,-0.28063 -0.271881,-0.114339 -0.527855,-0.252305 -0.767921,-0.413898 -0.574647,-0.38681 -0.923735,-0.833287 -1.047245,-1.339427 -0.120342,-0.506757 -0.003,-1.023833 0.35198,-1.551227 0.348633,-0.517941 0.778783,-0.820328 1.290452,-0.907161 0.513552,-0.08556 1.044431,0.05617 1.592618,0.425157 0.499033,0.335914 0.796726,0.754667 0.893087,1.256263 0.09824,0.50287 -0.02186,1.005713 -0.360315,1.508533 m -0.81632,-1.039782 c 0.129775,-0.192812 0.177406,-0.385986 0.142882,-0.57953 -0.03137,-0.194158 -0.137789,-0.352314 -0.319248,-0.474464 -0.196599,-0.13233 -0.393866,-0.184084 -0.5918,-0.155263 -0.196672,0.02693 -0.380112,0.134186 -0.550319,0.321759 l 1.318485,0.887498 m 4.891493,4.042749 -1.554549,1.737003 -0.916889,-0.820585 0.253011,-0.282709 0.93683,-1.046788 c 0.22034,-0.246202 0.366358,-0.421315 0.438055,-0.525339 0.07339,-0.102504 0.116255,-0.187987 0.128605,-0.256446 0.01752,-0.09134 0.01016,-0.180494 -0.02209,-0.26746 -0.03074,-0.08867 -0.08516,-0.16795 -0.163263,-0.237851 -0.19017,-0.170194 -0.40569,-0.230058 -0.646569,-0.179594 -0.239358,0.04877 -0.475277,0.203049 -0.707777,0.462834 l -1.25595,1.403355 -0.911806,-0.816029 2.552935,-2.852554 0.911805,0.816029 -0.373825,0.417695 c 0.28645,-0.04331 0.541891,-0.03487 0.766303,0.0253 0.225932,0.05848 0.432284,0.171301 0.619065,0.338456 0.329393,0.294803 0.488584,0.619215 0.477552,0.973231 -0.0093,0.355535 -0.186492,0.726019 -0.531444,1.111453 m 3.78681,0.337099 -0.815369,0.718729 0.834009,0.946122 -0.656395,0.578603 -0.833994,-0.94612 -1.217911,1.073576 c -0.133331,0.117528 -0.200569,0.223882 -0.201722,0.319061 5.55e-4,0.09367 0.07014,0.219137 0.208774,0.376399 l 0.415866,0.471777 -0.65638,0.578604 -0.693873,-0.787153 c -0.319443,-0.362383 -0.470995,-0.685935 -0.454676,-0.970662 0.01954,-0.284526 0.210491,-0.586507 0.572875,-0.905942 l 1.217902,-1.073579 -0.402305,-0.456394 0.656389,-0.578601 0.402304,0.456393 0.815355,-0.718733 0.809151,0.91792"
         inkscape:connector-curvature="0"
         id="text4092"
         style="font-size:7px;font-style:normal;font-variant:normal;font-weight:bold;font-stretch:normal;text-align:start;line-height:100%;writing-mode:lr-tb;text-anchor:start;fill:#000000;fill-opacity:1;stroke:none;display:inline;font-family:Sans;-inkscape-font-specification:Sans Bold" />
      <g
         transform="matrix(1.0999703,-0.8686176,0.8686176,1.0999703,-60.966992,18.730288)"
         id="g4118">
        <path
           d="m 29.681979,99.378092 -2.326614,1.841558 0.985064,2.83178 -2.470394,-1.64367 -2.388779,1.81192 0.799827,-2.8574 -2.46141,-1.711952 2.964714,-0.122306 0.867543,-2.869962 1.032467,2.781816 z"
           transform="matrix(1.5605536,0.4181491,-0.4181491,1.5605536,33.23454,-70.873342)"
           id="path4102"
           style="fill:#000000;fill-opacity:1;fill-rule:nonzero;stroke:none;display:inline"
           inkscape:connector-curvature="0" />
        <path
           d="m 29.681979,99.378092 -2.326614,1.841558 0.985064,2.83178 -2.470394,-1.64367 -2.388779,1.81192 0.799827,-2.8574 -2.46141,-1.711952 2.964714,-0.122306 0.867543,-2.869962 1.032467,2.781816 z"
           transform="matrix(1.5605536,0.4181491,-0.4181491,1.5605536,47.387039,-67.08119)"
           id="path4104"
           style="fill:#000000;fill-opacity:1;fill-rule:nonzero;stroke:none;display:inline"
           inkscape:connector-curvature="0" />
        <path
           d="m 29.681979,99.378092 -2.326614,1.841558 0.985064,2.83178 -2.470394,-1.64367 -2.388779,1.81192 0.799827,-2.8574 -2.46141,-1.711952 2.964714,-0.122306 0.867543,-2.869962 1.032467,2.781816 z"
           transform="matrix(1.5605536,0.4181491,-0.4181491,1.5605536,36.914904,-57.344368)"
           id="path4106"
           style="fill:#000000;fill-opacity:1;fill-rule:nonzero;stroke:none;display:inline"
           inkscape:connector-curvature="0" />
      </g>
    </g>
  </g>
  <g
     id="g5452"
     transform="translate(0,-43)">
    <g
       id="g5432">
      <path
         sodipodi:type="arc"
         style="opacity:0.36734697;fill:url(#radialGradient5472);fill-opacity:1;stroke:none"
         id="path3009"
         sodipodi:cx="134.29112"
         sodipodi:cy="164.53687"
         sodipodi:rx="112.03024"
         sodipodi:ry="27.584122"
         d="m 246.32137,164.53687 c 0,15.23428 -50.15765,27.58412 -112.03025,27.58412 -61.872592,0 -112.03024,-12.34984 -112.03024,-27.58412 0,-15.23429 50.157648,-27.58413 112.03024,-27.58413 61.8726,0 112.03025,12.34984 112.03025,27.58413 z"
         transform="matrix(1.0622132,0,0,1.2474689,-14.645799,7.3350438)" />
      <path
         sodipodi:type="arc"
         style="fill:url(#radialGradient5474);fill-opacity:1;stroke:none"
         id="path3904"
         sodipodi:cx="129.20982"
         sodipodi:cy="169.61815"
         sodipodi:rx="122.43478"
         sodipodi:ry="41.860115"
         d="m 251.6446,169.61815 c 0,23.1187 -54.81592,41.86011 -122.43478,41.86011 -67.618856,0 -122.4347727,-18.74141 -122.4347727,-41.86011 0,-23.1187 54.8159167,-41.86012 122.4347727,-41.86012 67.61886,0 122.43478,18.74142 122.43478,41.86012 z"
         transform="matrix(0.97194607,0,0,0.97194607,2.4150194,41.454532)" />
    </g>
    <g
       id="g5436">
      <path
         inkscape:connector-curvature="0"
         style="opacity:0.05;fill:none;stroke:#000000;stroke-width:18;stroke-linejoin:round;stroke-miterlimit:4;stroke-opacity:1;stroke-dasharray:none"
         d="m 247,108 -109.78125,29.21875 -13.0625,-2.03125 -13.125,-11.34375 L 105.875,132.375 9,117.40625 65.875,194.125 l 1.0625,0.25 0.1875,0.25 48.5,10.65625 L 127.75,208 127.875,207.96875 128,208 158.5,201.71875 193.125,194.625 247,108 z"
         id="path5358" />
      <g
         id="g5418">
        <path
           style="opacity:0.1;fill:none;stroke:#000000;stroke-width:12;stroke-linejoin:round;stroke-miterlimit:4;stroke-opacity:1;stroke-dasharray:none"
           d="m 247,108 -109.78125,29.21875 -13.0625,-2.03125 -13.125,-11.34375 L 105.875,132.375 9,117.40625 65.875,194.125 l 1.0625,0.25 0.1875,0.25 48.5,10.65625 L 127.75,208 127.875,207.96875 128,208 158.5,201.71875 193.125,194.625 247,108 z"
           id="path5356"
           inkscape:connector-curvature="0" />
        <path
           id="path5301"
           d="m 247,108 -109.78125,29.21875 -13.0625,-2.03125 -13.125,-11.34375 L 105.875,132.375 9,117.40625 65.875,194.125 l 1.0625,0.25 0.1875,0.25 48.5,10.65625 L 127.75,208 127.875,207.96875 128,208 158.5,201.71875 193.125,194.625 247,108 z"
           style="opacity:0.15;fill:none;stroke:#000000;stroke-width:6;stroke-linejoin:round;stroke-miterlimit:4;stroke-opacity:1;stroke-dasharray:none"
           inkscape:connector-curvature="0" />
        <g
           transform="matrix(1,0,0,0.99217895,0,1.6267782)"
           id="g5279">
          <path
             inkscape:connector-curvature="0"
             style="fill:url(#linearGradient5476);fill-opacity:1;fill-rule:evenodd;stroke:none"
             d="M 9,116.69183 137.23061,136.6499 247,107.21173 193.11321,194.52831 127.75053,208 65.880512,194.02936 9,116.69183 z"
             id="path1932" />
          <path
             inkscape:connector-curvature="0"
             style="fill:url(#linearGradient5478);fill-opacity:1;fill-rule:evenodd;stroke:none"
             d="m 135.33469,137.48594 110.7673,-29.93711 -55.38366,86.81762 -55.38364,-56.88051 z"
             id="path1942"
             sodipodi:nodetypes="cccc" />
          <path
             inkscape:connector-curvature="0"
             style="fill:url(#linearGradient5480);fill-opacity:1;fill-rule:evenodd;stroke:none"
             d="m 111.02823,123.17973 81.8281,71.35012 -124.737939,0 42.909839,-71.35012 z"
             id="path1940" />
          <path
             inkscape:connector-curvature="0"
             style="fill:url(#linearGradient5482);fill-opacity:1;fill-rule:evenodd;stroke:none"
             d="M 10.746334,118.18868 111.53459,197.52201 67.127886,194.52831 10.746334,118.18868 z"
             id="path1934"
             sodipodi:nodetypes="cccc" />
          <path
             inkscape:connector-curvature="0"
             style="fill:url(#linearGradient5484);fill-opacity:1;fill-rule:evenodd;stroke:none"
             d="m 67.127886,194.52831 125.735854,0 L 128.00001,208 67.127886,194.52831 z"
             id="path1936" />
          <path
             inkscape:connector-curvature="0"
             style="fill:url(#linearGradient5486);fill-opacity:1;fill-rule:evenodd;stroke:none"
             d="m 245.50314,107.71069 -135.71488,87.31656 83.32495,-0.49894 52.38993,-86.81762 z"
             id="path1938" />
        </g>
        <path
           id="path5344"
           d="m 247,108 -109.78125,29.21875 -13.0625,-2.03125 -13.125,-11.34375 L 105.875,132.375 9,117.40625 l 1.6875,2.25 95.1875,14.71875 5.15625,-8.53125 13.125,11.34375 13.0625,2.03125 L 245.5,110.40625 247,108 z"
           style="opacity:0.5;fill:#ffffff;fill-opacity:1;fill-rule:evenodd;stroke:none"
           inkscape:connector-curvature="0" />
        <path
           id="path5349"
           d="m 247,108 -1.5,0.40625 L 193.125,192.625 158.5,199.71875 128,206 127.875,205.96875 127.75,206 115.625,203.28125 67.125,192.625 66.9375,192.375 65.875,192.125 10.6875,117.65625 9,117.40625 65.875,194.125 l 1.0625,0.25 0.1875,0.25 48.5,10.65625 L 127.75,208 127.875,207.96875 128,208 158.5,201.71875 193.125,194.625 247,108 z"
           style="opacity:0.5;fill:none;stroke:none"
           inkscape:connector-curvature="0" />
        <path
           inkscape:connector-curvature="0"
           style="opacity:0.2;fill:#000000;fill-opacity:1;fill-rule:evenodd;stroke:none"
           d="m 247,110 -1.5,0.40625 L 193.125,194.625 158.5,201.71875 128,208 127.875,207.96875 127.75,208 115.625,205.28125 67.125,194.625 66.9375,194.375 65.875,194.125 10.6875,119.65625 9,119.40625 65.875,196.125 l 1.0625,0.25 0.1875,0.25 48.5,10.65625 L 127.75,210 127.875,209.96875 128,210 158.5,203.71875 193.125,196.625 247,110 z"
           id="path5354" />
      </g>
    </g>
  </g>
</svg>
