<?xml version="1.0" encoding="UTF-8" standalone="no"?>
<!-- Created with Inkscape (http://www.inkscape.org/) -->

<svg
   xmlns:dc="http://purl.org/dc/elements/1.1/"
   xmlns:cc="http://creativecommons.org/ns#"
   xmlns:rdf="http://www.w3.org/1999/02/22-rdf-syntax-ns#"
   xmlns:svg="http://www.w3.org/2000/svg"
   xmlns="http://www.w3.org/2000/svg"
   xmlns:xlink="http://www.w3.org/1999/xlink"
   xmlns:sodipodi="http://sodipodi.sourceforge.net/DTD/sodipodi-0.dtd"
   xmlns:inkscape="http://www.inkscape.org/namespaces/inkscape"
   width="256"
   height="256"
   id="svg7252"
   version="1.1"
   inkscape:version="0.48.1 r9760"
   sodipodi:docname="mail-mark-unread.svg">
  <defs
     id="defs7254">
    <linearGradient
       inkscape:collect="always"
       xlink:href="#linearGradient3700-8"
       id="linearGradient7157"
       gradientUnits="userSpaceOnUse"
       gradientTransform="matrix(2.5282101,0,0,1.7544049,6.6459477,840.11725)"
       x1="48"
       y1="90"
       x2="48"
       y2="5.9877172" />
    <linearGradient
       id="linearGradient3700-8">
      <stop
         offset="0"
         style="stop-color:#dcdcdc;stop-opacity:1"
         id="stop3702-5" />
      <stop
         offset="1"
         style="stop-color:#f0f0f0;stop-opacity:1"
         id="stop3704-0" />
    </linearGradient>
    <linearGradient
       inkscape:collect="always"
       xlink:href="#linearGradient3641-4"
       id="linearGradient7130"
       gradientUnits="userSpaceOnUse"
       gradientTransform="translate(100,0)"
       x1="48"
       y1="32"
       x2="48"
       y2="80" />
    <linearGradient
       id="linearGradient3641-4">
      <stop
         offset="0"
         style="stop-color:#000000;stop-opacity:1"
         id="stop3643-8" />
      <stop
         offset="1"
         style="stop-color:#000000;stop-opacity:0"
         id="stop3645-1" />
    </linearGradient>
    <clipPath
       id="clipPath3696-9">
      <rect
         style="fill:#ff00ff;fill-opacity:1;fill-rule:nonzero;stroke:none"
         id="rect3698-8"
         y="6"
         x="106"
         ry="6"
         rx="6"
         height="84"
         width="84" />
    </clipPath>
    <filter
       id="filter3665-1"
       color-interpolation-filters="sRGB">
      <feGaussianBlur
         stdDeviation="0.69"
         id="feGaussianBlur3667-5" />
    </filter>
    <linearGradient
       inkscape:collect="always"
       xlink:href="#linearGradient3700-8"
       id="linearGradient7153"
       gradientUnits="userSpaceOnUse"
       gradientTransform="matrix(2.5282101,0,0,1.7544049,6.6459477,840.11725)"
       x1="48"
       y1="88"
       x2="48"
       y2="36" />
    <linearGradient
       inkscape:collect="always"
       xlink:href="#linearGradient3641-4"
       id="linearGradient7132"
       gradientUnits="userSpaceOnUse"
       gradientTransform="translate(100,-1)"
       x1="51"
       y1="62"
       x2="51"
       y2="21" />
    <clipPath
       id="clipPath3703-4">
      <rect
         style="fill:#ff00ff;fill-opacity:1;fill-rule:nonzero;stroke:none"
         id="rect3705-8"
         y="6"
         x="106"
         ry="6"
         rx="6"
         height="84"
         width="84" />
    </clipPath>
    <filter
       id="filter3649-6"
       color-interpolation-filters="sRGB">
      <feGaussianBlur
         stdDeviation="1.38"
         id="feGaussianBlur3651-1" />
    </filter>
    <linearGradient
       inkscape:collect="always"
       xlink:href="#linearGradient3700-8"
       id="linearGradient7148"
       gradientUnits="userSpaceOnUse"
       gradientTransform="matrix(2.5282101,0,0,1.7544049,6.6459477,840.11725)"
       x1="48"
       y1="88"
       x2="48"
       y2="32" />
    <linearGradient
       inkscape:collect="always"
       xlink:href="#linearGradient3737-9"
       id="linearGradient7159"
       gradientUnits="userSpaceOnUse"
       x1="48"
       y1="20.220806"
       x2="48"
       y2="138.66119" />
    <linearGradient
       id="linearGradient3737-9">
      <stop
         offset="0"
         style="stop-color:#ffffff;stop-opacity:1"
         id="stop3739-0" />
      <stop
         offset="1"
         style="stop-color:#ffffff;stop-opacity:0"
         id="stop3741-8" />
    </linearGradient>
    <clipPath
       id="clipPath3613">
      <rect
         style="fill:#ffffff;fill-opacity:1;fill-rule:nonzero;stroke:none"
         id="rect3615"
         y="6"
         x="6"
         ry="6"
         rx="6"
         height="84"
         width="84" />
    </clipPath>
    <filter
       id="filter3794-8"
       color-interpolation-filters="sRGB"
       height="1.3839999"
       width="1.3839999"
       y="-0.192"
       x="-0.192">
      <feGaussianBlur
         stdDeviation="5.28"
         id="feGaussianBlur3796-5" />
    </filter>
    <radialGradient
       inkscape:collect="always"
       xlink:href="#linearGradient3737-9"
       id="radialGradient7143"
       gradientUnits="userSpaceOnUse"
       gradientTransform="matrix(2.9259301,0,0,1.7472254,-12.444619,840.4631)"
       cx="48"
       cy="90.171875"
       fx="48"
       fy="90.171875"
       r="42" />
    <linearGradient
       inkscape:collect="always"
       xlink:href="#linearGradient3737-9"
       id="linearGradient7140"
       gradientUnits="userSpaceOnUse"
       gradientTransform="matrix(2.5282101,0,0,1.7544049,6.6459477,840.11725)"
       x1="36.357143"
       y1="6"
       x2="36.357143"
       y2="63.893143" />
    <radialGradient
       inkscape:collect="always"
       xlink:href="#linearGradient3737-3-1"
       id="radialGradient7137"
       gradientUnits="userSpaceOnUse"
       gradientTransform="matrix(2.9259301,0,0,1.7472254,-12.44462,840.4631)"
       cx="48"
       cy="90.171875"
       fx="48"
       fy="90.171875"
       r="42" />
    <linearGradient
       id="linearGradient3737-3-1">
      <stop
         offset="0"
         style="stop-color:#ffffff;stop-opacity:1"
         id="stop3739-5-0" />
      <stop
         offset="1"
         style="stop-color:#ffffff;stop-opacity:0"
         id="stop3741-7-3" />
    </linearGradient>
    <linearGradient
       id="linearGradient3658">
      <stop
         offset="0"
         style="stop-color:#3874d0;stop-opacity:1;"
         id="stop3660" />
      <stop
         offset="1"
         style="stop-color:#0066ff;stop-opacity:1;"
         id="stop3662" />
    </linearGradient>
    <linearGradient
       id="linearGradient4069-7">
      <stop
         offset="0"
         style="stop-color:#0066ff;stop-opacity:1;"
         id="stop4071-6" />
      <stop
         offset="1"
         style="stop-color:#0066ff;stop-opacity:0;"
         id="stop4073-0" />
    </linearGradient>
    <linearGradient
       x1="45.447727"
       y1="92.539597"
       x2="45.447727"
       y2="7.0165396"
       id="ButtonShadow-3"
       gradientUnits="userSpaceOnUse"
       gradientTransform="scale(1.0058652,0.994169)">
      <stop
         id="stop3750-61"
         style="stop-color:#000000;stop-opacity:1"
         offset="0" />
      <stop
         id="stop3752-05"
         style="stop-color:#000000;stop-opacity:0.58823532"
         offset="1" />
    </linearGradient>
    <filter
       color-interpolation-filters="sRGB"
       id="filter3174-0">
      <feGaussianBlur
         id="feGaussianBlur3176-0"
         stdDeviation="1.71" />
    </filter>
    <filter
       color-interpolation-filters="sRGB"
       id="filter3657">
      <feGaussianBlur
         id="feGaussianBlur3659"
         stdDeviation="1.14" />
    </filter>
    <radialGradient
       inkscape:collect="always"
       xlink:href="#linearGradient4069-7"
       id="radialGradient6201"
       gradientUnits="userSpaceOnUse"
       gradientTransform="matrix(14.227804,5.3375322e-7,-3.9186557e-7,19.748763,-11.982518,-67.628714)"
       cx="-10.959364"
       cy="11.931095"
       fx="-10.959364"
       fy="11.931095"
       r="7" />
    <linearGradient
       inkscape:collect="always"
       xlink:href="#linearGradient3658"
       id="linearGradient6203"
       gradientUnits="userSpaceOnUse"
       gradientTransform="matrix(14.394769,0.75857788,-0.75830815,14.397528,16.685491,10.180764)"
       x1="11.087322"
       y1="15.37313"
       x2="10.540542"
       y2="4.9937253" />
  </defs>
  <sodipodi:namedview
     id="base"
     pagecolor="#ffffff"
     bordercolor="#666666"
     borderopacity="1.0"
     inkscape:pageopacity="0.0"
     inkscape:pageshadow="2"
     inkscape:zoom="1.71875"
     inkscape:cx="128"
     inkscape:cy="128"
     inkscape:document-units="px"
     inkscape:current-layer="layer1"
     showgrid="false"
     inkscape:window-width="1024"
     inkscape:window-height="576"
     inkscape:window-x="0"
     inkscape:window-y="24"
     inkscape:window-maximized="1" />
  <metadata
     id="metadata7257">
    <rdf:RDF>
      <cc:Work
         rdf:about="">
        <dc:format>image/svg+xml</dc:format>
        <dc:type
           rdf:resource="http://purl.org/dc/dcmitype/StillImage" />
        <dc:title></dc:title>
      </cc:Work>
    </rdf:RDF>
  </metadata>
  <g
     inkscape:label="Layer 1"
     inkscape:groupmode="layer"
     id="layer1"
     transform="translate(0,-796.36218)">
    <g
       transform="translate(0.16009331,793.16852)"
       id="g5419">
      <rect
         style="opacity:0.05;fill:none;stroke:#000000;stroke-width:22.6303196;stroke-linejoin:round;stroke-miterlimit:4;stroke-opacity:1;stroke-dasharray:none"
         id="rect5286"
         y="57.508652"
         x="21.655085"
         ry="10.52643"
         rx="15.169261"
         height="147.37001"
         width="212.36964" />
      <rect
         width="212.36964"
         height="147.37001"
         rx="15.169261"
         ry="10.52643"
         x="21.655085"
         y="57.508652"
         id="rect5280"
         style="opacity:0.2;fill:none;stroke:#000000;stroke-width:5.6575799;stroke-linejoin:round;stroke-miterlimit:4;stroke-opacity:1;stroke-dasharray:none" />
      <rect
         width="212.36964"
         height="147.37001"
         rx="15.169261"
         ry="10.52643"
         x="21.655085"
         y="57.508652"
         id="rect5284"
         style="opacity:0.1;fill:none;stroke:#000000;stroke-width:16.97274017;stroke-linejoin:round;stroke-miterlimit:4;stroke-opacity:1;stroke-dasharray:none" />
      <rect
         style="opacity:0.15;fill:none;stroke:#000000;stroke-width:11.3151598;stroke-linejoin:round;stroke-miterlimit:4;stroke-opacity:1;stroke-dasharray:none"
         id="rect5282"
         y="57.508652"
         x="21.655085"
         ry="10.52643"
         rx="15.169261"
         height="147.37001"
         width="212.36964" />
      <rect
         style="opacity:0.3;fill:#000000;fill-opacity:1;fill-rule:nonzero;stroke:none"
         id="rect5218"
         y="59.350777"
         x="21.655085"
         ry="10.52643"
         rx="15.169261"
         height="147.37001"
         width="212.36964" />
      <g
         id="g5253"
         transform="matrix(1.1637667,0,0,0.80757451,-31.115385,31.24507)" />
    </g>
    <g
       id="g7397">
      <rect
         width="212.36964"
         height="147.37001"
         rx="15.16926"
         ry="10.526429"
         x="21.815208"
         y="850.64368"
         id="rect2419"
         style="fill:url(#linearGradient7157);fill-opacity:1;fill-rule:nonzero;stroke:none" />
      <path
         d="m 112,89 c -3.324,0 -6,-2.676 -6,-6 l 0,-6 42,-42 42,42 0,6 c 0,3.324 -2.676,6 -6,6 l -72,0 z"
         inkscape:connector-curvature="0"
         transform="matrix(2.5282101,0,0,1.7544049,-246.17505,838.36284)"
         clip-path="url(#clipPath3696-9)"
         id="path3653"
         style="opacity:0.3;fill:url(#linearGradient7130);fill-opacity:1;stroke:none;filter:url(#filter3665-1)" />
      <path
         d="m 36.984468,998.01369 c -8.40377,0 -15.169261,-4.69478 -15.169261,-10.52643 l 0,-10.52642 106.184833,-73.68501 106.18482,73.68501 0,10.52642 c 0,5.83165 -6.76549,10.52643 -15.16926,10.52643 l -182.031132,0 z"
         inkscape:connector-curvature="0"
         id="path3619"
         style="fill:url(#linearGradient7153);fill-opacity:1;stroke:none" />
      <path
         d="m 128.00004,903.27583 -106.184833,73.68501 0,1.7544 106.184833,-73.68501 106.18482,73.68501 0,-1.7544 -106.18482,-73.68501 z"
         inkscape:connector-curvature="0"
         id="path3718"
         style="opacity:0.4;fill:#ffffff;fill-opacity:1;stroke:none" />
      <path
         d="m 112,7 c -3.324,0 -6,2.676 -6,6 l 0,6 42,42 42,-42 0,-6 c 0,-3.324 -2.676,-6 -6,-6 l -72,0 z"
         inkscape:connector-curvature="0"
         transform="matrix(2.5282101,0,0,1.7544049,-246.17505,841.87165)"
         clip-path="url(#clipPath3703-4)"
         id="path3637"
         style="opacity:0.4;fill:url(#linearGradient7132);fill-opacity:1;stroke:none;filter:url(#filter3649-6)" />
      <path
         d="m 36.984468,850.64368 c -8.40377,0 -15.169261,4.69479 -15.169261,10.52643 l 0,10.52643 106.184833,73.68501 106.18482,-73.68501 0,-10.52643 c 0,-5.83164 -6.76549,-10.52643 -15.16926,-10.52643 l -182.031132,0 z"
         inkscape:connector-curvature="0"
         id="path3613"
         style="fill:url(#linearGradient7148);fill-opacity:1;stroke:none" />
      <path
         d="m 21.815207,869.94213 0,1.75441 106.184833,73.68501 106.18482,-73.68501 0,-1.75441 -106.18482,73.68501 -106.184833,-73.68501 z"
         inkscape:connector-curvature="0"
         id="path3709-6"
         style="opacity:0.6;fill:#ffffff;fill-opacity:1;stroke:none" />
      <rect
         transform="matrix(2.5282101,0,0,1.7544049,6.6459477,840.11725)"
         width="66"
         height="66"
         rx="12"
         ry="12"
         x="15"
         y="15"
         clip-path="url(#clipPath3613)"
         id="rect3171"
         style="opacity:0.1;fill:url(#linearGradient7159);fill-opacity:1;fill-rule:nonzero;stroke:#ffffff;stroke-width:0.5;stroke-linecap:round;stroke-linejoin:miter;stroke-miterlimit:4;stroke-opacity:1;stroke-dasharray:none;stroke-dashoffset:0;filter:url(#filter3794-8)" />
      <path
         d="m 36.984468,998.01369 c -8.40377,0 -15.169261,-4.69478 -15.169261,-10.52643 l 0,-3.50881 0,-119.29953 0,-3.50881 c 0,-0.58724 0.104542,-1.14159 0.23702,-1.69958 0.123124,-0.5186 0.245337,-1.04723 0.47404,-1.53511 0.02497,-0.0533 0.05282,-0.11158 0.07901,-0.16447 0.249951,-0.50487 0.593826,-0.96045 0.948079,-1.42546 0.365557,-0.47984 0.797943,-0.93968 1.264104,-1.37062 0.466162,-0.43095 0.944985,-0.83067 1.501125,-1.20616 1.112278,-0.75098 2.383875,-1.42901 3.792315,-1.91888 0.70422,-0.24493 1.449861,-0.43324 2.212184,-0.60307 -0.647732,0.17583 -1.230508,0.41451 -1.817151,0.6579 -0.01874,0.008 -0.06034,-0.008 -0.07901,0 -0.08073,0.0339 -0.157489,0.0746 -0.23702,0.10965 -0.304383,0.13456 -0.584074,0.28687 -0.869072,0.4386 -0.268427,0.14175 -0.539218,0.28265 -0.790065,0.4386 -0.449844,0.28322 -0.878452,0.60595 -1.264105,0.93203 -0.271982,0.22852 -0.552146,0.46542 -0.790066,0.71272 -0.06343,0.0673 -0.0972,0.15066 -0.158013,0.21931 -0.163735,0.18076 -0.329243,0.3588 -0.47404,0.54825 -0.25537,0.34159 -0.519989,0.72931 -0.711059,1.0965 -0.02012,0.0383 -0.05964,0.0711 -0.07901,0.10965 -0.08046,0.16132 -0.09052,0.32778 -0.158013,0.49343 -0.07668,0.18705 -0.177959,0.3562 -0.237019,0.54825 -0.184252,0.59915 -0.316027,1.22493 -0.316027,1.86405 l 0,3.50881 0,119.29954 0,3.50881 c 0,4.88048 5.607954,8.77202 12.64105,8.77202 l 5.056421,0 171.918295,0 5.05642,0 c 7.0331,0 12.64105,-3.89154 12.64105,-8.77202 l 0,-3.50881 0,-119.29954 0,-3.50881 c 0,-0.63912 -0.13177,-1.2649 -0.31603,-1.86405 -0.1116,-0.36298 -0.22344,-0.69765 -0.39503,-1.04168 -0.0194,-0.0385 -0.0589,-0.0714 -0.079,-0.10965 -0.15862,-0.30481 -0.34986,-0.64465 -0.55304,-0.93203 -0.10509,-0.14526 -0.19983,-0.29817 -0.31603,-0.4386 -0.13804,-0.17054 -0.32051,-0.33044 -0.47404,-0.49343 -0.23793,-0.2473 -0.51809,-0.4842 -0.79006,-0.71272 -0.36198,-0.30606 -0.76641,-0.60878 -1.1851,-0.8772 -0.0283,-0.0179 -0.0505,-0.0371 -0.079,-0.0548 -0.34987,-0.22028 -0.72077,-0.4113 -1.10609,-0.60308 -0.25932,-0.12834 -0.51656,-0.26906 -0.79007,-0.38378 -0.0187,-0.008 -0.0603,0.008 -0.079,0 -0.58664,-0.24338 -1.16942,-0.48207 -1.81715,-0.6579 0.76233,0.16983 1.50796,0.35814 2.21218,0.60308 1.40845,0.48987 2.68004,1.16789 3.79232,1.91888 0.55614,0.37549 1.03496,0.77521 1.50112,1.20615 0.46617,0.43094 0.89856,0.89079 1.26411,1.37063 0.35426,0.465 0.69813,0.92059 0.94808,1.42545 0.0263,0.054 0.0539,0.11008 0.079,0.16448 0.22869,0.48787 0.35091,1.01651 0.47404,1.5351 0.13247,0.55799 0.23701,1.11235 0.23701,1.69958 l 0,3.50881 0,119.29954 0,3.50881 c 0,5.83165 -6.76549,10.52643 -15.16925,10.52643 l -182.031139,0 z"
         inkscape:connector-curvature="0"
         id="path3615"
         style="opacity:0;fill:url(#radialGradient7143);fill-opacity:1;fill-rule:nonzero;stroke:none" />
      <path
         d="m 36.984468,850.64368 c -8.40377,0 -15.169261,4.69479 -15.169261,10.52643 l 0,3.50881 0,119.29953 0,3.50881 c 0,0.58724 0.104542,1.14159 0.23702,1.69959 0.123124,0.51859 0.245337,1.04723 0.47404,1.5351 0.02503,0.0533 0.05281,0.11158 0.07901,0.16448 0.249938,0.50486 0.593826,0.96044 0.948079,1.42545 0.365558,0.47984 0.797943,0.93968 1.264104,1.37063 0.466162,0.43094 0.944984,0.83066 1.501125,1.20615 1.112278,0.75098 2.383875,1.429 3.792315,1.91888 0.70422,0.24494 1.449861,0.43325 2.212184,0.60308 -0.647732,-0.17583 -1.230508,-0.41452 -1.817151,-0.65791 -0.01871,-0.008 -0.06035,0.008 -0.07901,0 -0.08073,-0.0338 -0.157482,-0.0745 -0.23702,-0.10964 -0.304383,-0.13457 -0.584075,-0.28688 -0.869072,-0.4386 -0.268427,-0.14177 -0.539218,-0.28266 -0.790065,-0.43861 -0.449844,-0.28322 -0.878453,-0.60595 -1.264105,-0.93203 -0.271983,-0.22852 -0.552146,-0.46542 -0.790066,-0.71272 -0.06344,-0.0673 -0.09721,-0.15065 -0.158013,-0.21931 -0.163727,-0.18076 -0.329244,-0.3588 -0.47404,-0.54824 -0.25537,-0.3416 -0.519989,-0.72931 -0.711059,-1.09651 -0.02023,-0.0383 -0.05964,-0.0711 -0.07901,-0.10964 -0.08047,-0.16133 -0.09051,-0.32778 -0.158013,-0.49343 -0.07668,-0.18705 -0.177958,-0.3562 -0.237019,-0.54826 -0.184254,-0.59914 -0.316027,-1.22493 -0.316027,-1.86405 l 0,-3.50881 0,-119.29954 0,-3.50881 c 0,-4.88048 5.607954,-8.77202 12.64105,-8.77202 l 5.056421,0 171.918295,0 5.05642,0 c 7.0331,0 12.64105,3.89154 12.64105,8.77202 l 0,3.50881 0,119.29954 0,3.50881 c 0,0.63912 -0.13177,1.26491 -0.31603,1.86405 -0.1116,0.36298 -0.22344,0.69766 -0.39503,1.04169 -0.0194,0.0385 -0.0589,0.0714 -0.079,0.10964 -0.15862,0.30481 -0.34986,0.64465 -0.55304,0.93203 -0.10509,0.14527 -0.19983,0.29816 -0.31603,0.4386 -0.13804,0.17054 -0.32051,0.33044 -0.47404,0.49343 -0.23793,0.2473 -0.51809,0.4842 -0.79006,0.71272 -0.36198,0.30606 -0.76641,0.60878 -1.1851,0.87721 -0.0283,0.0179 -0.0505,0.0371 -0.079,0.0548 -0.34987,0.22028 -0.72077,0.41129 -1.10609,0.60307 -0.25932,0.12834 -0.51656,0.26907 -0.79007,0.38378 -0.0187,0.008 -0.0603,-0.008 -0.079,0 -0.58664,0.24339 -1.16942,0.48207 -1.81715,0.65791 0.76233,-0.16984 1.50796,-0.35815 2.21218,-0.60308 1.40845,-0.48988 2.68004,-1.1679 3.79232,-1.91888 0.55614,-0.37549 1.03496,-0.77522 1.50112,-1.20615 0.46617,-0.43095 0.89856,-0.89079 1.26411,-1.37064 0.35426,-0.465 0.69813,-0.92058 0.94808,-1.42545 0.0263,-0.054 0.0539,-0.11007 0.079,-0.16447 0.22869,-0.48788 0.35091,-1.01651 0.47404,-1.53511 0.13247,-0.55799 0.23701,-1.11234 0.23701,-1.69958 l 0,-3.50881 0,-119.29953 0,-3.50881 c 0,-5.83165 -6.76549,-10.52643 -15.16925,-10.52643 l -182.031139,0 z"
         inkscape:connector-curvature="0"
         id="rect3728"
         style="opacity:0.6;fill:url(#linearGradient7140);fill-opacity:1;fill-rule:nonzero;stroke:none" />
      <path
         d="m 36.984468,998.01369 c -8.40377,0 -15.169261,-4.69478 -15.169261,-10.52643 l 0,-3.50881 0,-119.29953 0,-3.50881 c 0,-0.58724 0.104542,-1.14159 0.23702,-1.69958 0.123124,-0.5186 0.245337,-1.04723 0.47404,-1.53511 0.02497,-0.0533 0.05282,-0.11158 0.07901,-0.16447 0.249951,-0.50487 0.593826,-0.96045 0.948079,-1.42546 0.365557,-0.47984 0.797943,-0.93968 1.264104,-1.37062 0.466162,-0.43095 0.944985,-0.83067 1.501125,-1.20616 1.112278,-0.75098 2.383875,-1.42901 3.792315,-1.91888 0.70422,-0.24493 1.449861,-0.43324 2.212184,-0.60307 -0.647732,0.17583 -1.230508,0.41451 -1.817151,0.6579 -0.01874,0.008 -0.06034,-0.008 -0.07901,0 -0.08073,0.0339 -0.157489,0.0746 -0.23702,0.10965 -0.304383,0.13456 -0.584074,0.28687 -0.869072,0.4386 -0.268427,0.14175 -0.539218,0.28265 -0.790065,0.4386 -0.449844,0.28322 -0.878452,0.60595 -1.264105,0.93203 -0.271982,0.22852 -0.552146,0.46542 -0.790066,0.71272 -0.06343,0.0673 -0.0972,0.15066 -0.158013,0.21931 -0.163735,0.18076 -0.329243,0.3588 -0.47404,0.54825 -0.25537,0.34159 -0.519989,0.72931 -0.711059,1.0965 -0.02012,0.0383 -0.05964,0.0711 -0.07901,0.10965 -0.08046,0.16132 -0.09052,0.32778 -0.158013,0.49343 -0.07668,0.18705 -0.177959,0.3562 -0.237019,0.54825 -0.184252,0.59915 -0.316027,1.22493 -0.316027,1.86405 l 0,3.50881 0,119.29954 0,3.50881 c 0,4.88048 5.607954,8.77202 12.64105,8.77202 l 5.056421,0 171.918295,0 5.05642,0 c 7.0331,0 12.64105,-3.89154 12.64105,-8.77202 l 0,-3.50881 0,-119.29954 0,-3.50881 c 0,-0.63912 -0.13177,-1.2649 -0.31603,-1.86405 -0.1116,-0.36298 -0.22344,-0.69765 -0.39503,-1.04168 -0.0194,-0.0385 -0.0589,-0.0714 -0.079,-0.10965 -0.15862,-0.30481 -0.34986,-0.64465 -0.55304,-0.93203 -0.10509,-0.14526 -0.19983,-0.29817 -0.31603,-0.4386 -0.13804,-0.17054 -0.32051,-0.33044 -0.47404,-0.49343 -0.23793,-0.2473 -0.51809,-0.4842 -0.79006,-0.71272 -0.36198,-0.30606 -0.76641,-0.60878 -1.1851,-0.8772 -0.0283,-0.0179 -0.0505,-0.0371 -0.079,-0.0548 -0.34987,-0.22028 -0.72077,-0.4113 -1.10609,-0.60308 -0.25932,-0.12834 -0.51656,-0.26906 -0.79007,-0.38378 -0.0187,-0.008 -0.0603,0.008 -0.079,0 -0.58664,-0.24338 -1.16942,-0.48207 -1.81715,-0.6579 0.76233,0.16983 1.50796,0.35814 2.21218,0.60308 1.40845,0.48987 2.68004,1.16789 3.79232,1.91888 0.55614,0.37549 1.03496,0.77521 1.50112,1.20615 0.46617,0.43094 0.89856,0.89079 1.26411,1.37063 0.35426,0.465 0.69813,0.92059 0.94808,1.42545 0.0263,0.054 0.0539,0.11008 0.079,0.16448 0.22869,0.48787 0.35091,1.01651 0.47404,1.5351 0.13247,0.55799 0.23701,1.11235 0.23701,1.69958 l 0,3.50881 0,119.29954 0,3.50881 c 0,5.83165 -6.76549,10.52643 -15.16925,10.52643 l -182.031139,0 z"
         inkscape:connector-curvature="0"
         id="path3615-5"
         style="opacity:0.3;fill:url(#radialGradient7137);fill-opacity:1;fill-rule:nonzero;stroke:none" />
    </g>
    <g
       id="g8553"
       transform="translate(-4.2704575,790.6031)">
      <rect
         width="160"
         height="220"
         rx="11.428572"
         ry="15.714286"
         x="-208.31656"
         y="17.693075"
         transform="matrix(0,-1,1,0,0,0)"
         id="rect3752"
         style="opacity:0.2;fill:url(#radialGradient6201);fill-opacity:1;fill-rule:nonzero;stroke:none;display:inline" />
      <g
         transform="matrix(0.42553192,0,0,0.42553192,133.34115,104.69328)"
         id="layer1-5"
         inkscape:label="1. réteg">
        <g
           id="g3765"
           transform="matrix(1.3055556,0,0,1.3055556,-85.563804,-90.01013)">
          <path
             style="opacity:0.05;fill:#000000;fill-opacity:1;stroke:none;display:inline"
             id="path3998"
             d="m 160.60802,81.362873 a 4.6305435,4.6305435 0 0 0 -1.74215,0.40182 c -4.01193,1.521809 -5.72088,4.569539 -6.56653,5.494454 a 4.6305435,4.6305435 0 0 0 -0.80407,1.072094 c -6.63923,13.846569 -14.10971,27.547139 -21.17374,41.543419 -0.009,0.0171 -0.1248,-0.0171 -0.1338,0 -0.81191,0.0879 -2.49801,0.23457 -4.42236,0.80406 l 0,-0.1338 c -14.45454,2.60219 -29.264232,5.15174 -43.553589,7.77264 a 4.6305435,4.6305435 0 0 0 -1.474125,0.53606 c -2.208674,1.2531 -4.863809,3.54358 -6.030493,6.96856 l -0.1338,-0.1338 c -0.0879,0.1831 -0.05745,0.35292 -0.1338,0.53604 -0.0588,0.20884 -0.221715,0.31776 -0.268035,0.53604 l 0.268035,0 c -0.66711,1.85119 -1.097865,3.76497 -0.938085,5.49445 0.1209,1.30632 0.85707,2.49681 1.474125,3.75231 l -0.1338,0 c 0.105,0.41469 0.38895,0.4435 0.536039,0.80407 0.29418,0.44654 0.09735,0.89754 0.536055,1.3401 l 0.1338,-0.1338 c 0.749745,1.17164 1.43481,2.56749 2.14419,3.21627 1.139445,1.04211 2.009775,1.86947 2.412194,2.4122 a 4.6305435,4.6305435 0 0 0 0.40182,0.40182 l 28.812369,29.48243 c -2.24194,15.90022 -4.93779,31.95951 -6.83457,48.10996 a 4.6305435,4.6305435 0 0 0 0,1.47412 c 0.26246,1.31619 0.60141,2.86398 1.47413,4.55639 0.56847,1.10235 1.79793,1.91971 2.94825,2.81422 l -0.1338,0.1338 c 0.23886,0.29289 0.55731,0.16338 0.80406,0.40182 0.40354,0.25644 0.49629,0.74982 0.93808,0.93807 l 0.1338,-0.26802 c 1.21682,0.825 2.40666,1.72718 3.75231,2.01017 2.0286,0.42669 4.3699,0.5607 6.70054,-0.26802 3.10782,-1.10837 5.95271,-2.98625 8.04066,-3.88632 a 4.6305435,4.6305435 0 0 0 0.1338,-0.1338 l 35.1109,-17.28743 41.94545,20.77172 a 4.6305435,4.6305435 0 0 0 0.80406,0.26802 c 1.23372,0.33706 2.91484,0.70543 4.8244,0.80407 1.77143,0.0913 4.01694,0.12045 6.29852,-1.74214 0.17797,-0.14535 0.35808,-0.0974 0.53604,-0.26804 2.06871,-0.99948 3.68644,-2.51442 4.69039,-4.55637 l 0.1338,0.1338 c 0.12735,-0.18183 0.0257,-0.3525 0.1338,-0.53604 0.1287,-0.2989 0.43871,-0.49287 0.53606,-0.80407 l -0.26802,-0.1338 c 0.79497,-1.8078 1.40296,-3.71582 1.3401,-5.22642 -0.0805,-1.93839 -0.47249,-3.60755 -0.67005,-4.95842 l -6.16451,-42.61551 c 10.8123,-11.07132 21.59404,-22.1026 32.43067,-33.10072 0.1329,-0.13515 0.26888,-0.26717 0.40182,-0.40182 l -0.1338,-0.1338 c 1.56809,-1.48269 2.63489,-3.16532 3.21627,-5.09241 0.59076,-1.95828 0.75139,-4.25833 0.1338,-6.56655 l 0.1338,0 c -0.0214,-0.11145 -0.1077,-0.15867 -0.1338,-0.26802 -0.03,-0.0948 0.03,-0.17325 0,-0.26802 l -0.1338,0 c -0.8461,-3.10939 -2.71218,-5.60668 -4.69039,-7.23659 a 4.6305435,4.6305435 0 0 0 -1.07208,-0.53604 c -2.96931,-1.37013 -5.86202,-1.71942 -8.84474,-2.14418 l -0.1338,0 -41.14139,-6.83457 C 189.47619,116.15931 181.62078,101.4786 174.27714,87.125782 a 4.6305435,4.6305435 0 0 0 -1.60812,-1.742145 c -0.49132,-0.322485 -1.37965,-1.169565 -2.94825,-2.144175 -1.41237,-0.877574 -3.69,-1.421459 -6.03049,-1.340114 l 0,-0.26802 c -0.55946,-0.02145 -1.51658,-0.22557 -3.08226,-0.26802 z"
             inkscape:connector-curvature="0" />
          <path
             style="opacity:0.07999998;fill:#000000;fill-opacity:1;stroke:none;display:inline"
             id="path3992"
             inkscape:connector-curvature="0"
             d="m 160.41705,86.109877 c -2.6562,1.00755 -3.29212,2.683694 -4.73532,4.262189 -6.77834,14.136734 -14.34587,28.060444 -21.42782,42.115234 -1.14178,2.80415 -5.24805,1.59684 -7.69644,2.633 -14.4782,2.60643 -29.307547,5.20315 -43.562554,7.81775 -2.07822,1.17908 -3.824954,2.44265 -4.309184,4.7358 -1.176855,2.45646 -0.73524,5.97891 0.520515,7.24616 0.56838,2.24735 3.484034,3.60788 5.213564,5.9404 10.091533,10.3737 20.183009,20.74744 30.274499,31.12114 -2.3159,16.72487 -5.18411,33.39478 -7.15247,50.1543 0.49823,2.49716 0.97749,4.59287 3.31434,5.58872 1.12805,1.38217 4.58391,2.19156 7.15002,1.27912 2.17539,-0.7758 5.11321,-2.61499 7.71831,-3.73798 12.39847,-6.08616 24.79696,-12.17228 37.19544,-18.2584 14.6549,7.23908 29.30979,14.47813 43.96468,21.7172 2.01286,0.55029 5.77701,1.31666 7.22107,-0.0708 2.11394,-0.36664 3.63708,-1.83892 4.2618,-3.83593 1.45265,-2.0741 0.67392,-5.22792 0.23886,-8.20383 -2.15428,-14.97043 -4.30858,-29.94081 -6.46288,-44.91124 11.45355,-11.71882 22.82951,-23.51836 34.33139,-35.18687 1.77422,-1.48164 3.05996,-4.93504 2.2022,-7.55385 -0.44538,-2.08479 -1.78391,-3.85836 -3.33801,-5.13881 -1.9877,-0.91721 -4.72028,-1.3508 -7.75167,-1.78611 -14.54926,-2.41296 -29.09854,-4.82594 -43.6478,-7.23896 -7.88619,-15.14281 -16.05444,-30.39109 -23.7682,-45.467344 -1.97118,-1.294395 -3.4514,-3.428669 -6.60534,-3.055109 -1.05057,-0.03855 -2.10002,-0.1377 -3.14886,-0.16596 z" />
          <path
             style="opacity:0.15;fill:#000000;fill-opacity:1;stroke:none;display:inline"
             id="path3988"
             d="m 162.00311,90.254001 a 4.1124062,4.1116154 88.716084 0 0 -1.39689,0.828735 4.1124062,4.1116154 88.716084 0 0 -0.9708,1.30233 l -23.58312,45.227884 -50.54796,9.06669 a 4.1124062,4.1116154 88.716084 0 0 -3.385829,4.3333 4.1124062,4.1116154 88.716084 0 0 0.781215,2.29701 4.1124062,4.1116154 88.716084 0 0 0.426255,0.47361 l 35.511729,36.61163 -7.15242,50.15426 a 4.1124062,4.1116154 88.716084 0 0 0.33148,2.27336 4.1124062,4.1116154 88.716084 0 0 0.82856,1.39717 4.1124062,4.1116154 88.716084 0 0 2.20182,1.01837 4.1124062,4.1116154 88.716084 0 0 2.27286,-0.33149 l 46.28699,-22.37518 45.29049,22.23825 a 4.1124062,4.1116154 88.716084 0 0 3.5987,0.18954 4.1124062,4.1116154 88.716084 0 0 1.39689,-0.82872 4.1124062,4.1116154 88.716084 0 0 0.99447,-1.7523 4.1124062,4.1116154 88.716084 0 0 0.0948,-1.7997 l -7.26602,-50.46293 35.752,-36.4655 a 4.1124062,4.1116154 88.716084 0 0 1.08926,-3.552 4.1124062,4.1116154 88.716084 0 0 -0.80489,-1.84709 4.1124062,4.1116154 88.716084 0 0 -1.30212,-0.97096 4.1124062,4.1116154 88.716084 0 0 -1.32579,-0.52104 l -50.07363,-8.50401 -24.19434,-45.940999 a 4.1124062,4.1116154 88.716084 0 0 -4.40358,-2.03676 4.1124062,4.1116154 88.716084 0 0 -0.44985,-0.0258 z"
             inkscape:connector-curvature="0" />
          <path
             style="opacity:0.3;fill:#000000;fill-opacity:1;stroke:none;display:inline"
             id="path3982"
             d="m 86.09789,150.57698 52.38554,-9.05069 24.82,-47.0206 24.79453,47.03449 52.38063,9.07994 -37.06171,38.1196 7.55304,52.63233 -47.6999,-23.47526 -47.71265,23.44859 7.58156,-52.62809 z"
             inkscape:connector-curvature="0" />
          <path
             style="fill:url(#linearGradient6203);fill-opacity:1;stroke:none;display:inline"
             id="path3748"
             d="m 86.09789,146.28863 52.38554,-9.05069 24.82,-47.020599 24.79453,47.034489 52.38063,9.07994 -37.06171,38.1196 7.55304,52.63233 -47.6999,-23.47526 -47.71265,23.44858 7.58156,-52.62808 z"
             inkscape:connector-curvature="0" />
          <path
             style="opacity:0.4;fill:#333333;fill-opacity:1;stroke:none;display:inline"
             id="path4094"
             inkscape:connector-curvature="0"
             d="m 163.28825,209.34341 -47.03788,23.18391 -0.67006,4.55638 47.70794,-23.45194 47.70792,23.45194 -0.67006,-4.55638 z" />
          <path
             d="m 186.89056,141.19277 51.84271,7.8987 3.1565,-3.35352 -52.54562,-8.06226 -25.70936,-46.53029 -2.05739,4.120278 z"
             inkscape:connector-curvature="0"
             id="path3761"
             style="opacity:0.4;fill:#ffffff;fill-opacity:1;stroke:none;display:inline" />
          <path
             style="opacity:0.4;fill:#ffffff;fill-opacity:1;stroke:none;display:inline"
             id="path3763"
             inkscape:connector-curvature="0"
             d="m 139.97819,140.52086 -51.842718,7.8987 -3.1565,-3.35352 52.545628,-8.06226 25.70936,-46.530296 2.05739,4.120278 z" />
        </g>
      </g>
    </g>
  </g>
</svg>
