<?xml version="1.0" encoding="UTF-8" standalone="no"?>
<!-- Created with Inkscape (http://www.inkscape.org/) -->

<svg
   xmlns:dc="http://purl.org/dc/elements/1.1/"
   xmlns:cc="http://creativecommons.org/ns#"
   xmlns:rdf="http://www.w3.org/1999/02/22-rdf-syntax-ns#"
   xmlns:svg="http://www.w3.org/2000/svg"
   xmlns="http://www.w3.org/2000/svg"
   xmlns:xlink="http://www.w3.org/1999/xlink"
   xmlns:sodipodi="http://sodipodi.sourceforge.net/DTD/sodipodi-0.dtd"
   xmlns:inkscape="http://www.inkscape.org/namespaces/inkscape"
   width="256"
   height="256"
   id="svg7252"
   version="1.1"
   inkscape:version="0.48.1 r9760"
   sodipodi:docname="mail-mark-important.svg">
  <defs
     id="defs7254">
    <linearGradient
       inkscape:collect="always"
       xlink:href="#linearGradient3700-8"
       id="linearGradient7157"
       gradientUnits="userSpaceOnUse"
       gradientTransform="matrix(2.5282101,0,0,1.7544049,6.6459477,840.11725)"
       x1="48"
       y1="90"
       x2="48"
       y2="5.9877172" />
    <linearGradient
       id="linearGradient3700-8">
      <stop
         offset="0"
         style="stop-color:#dcdcdc;stop-opacity:1"
         id="stop3702-5" />
      <stop
         offset="1"
         style="stop-color:#f0f0f0;stop-opacity:1"
         id="stop3704-0" />
    </linearGradient>
    <linearGradient
       inkscape:collect="always"
       xlink:href="#linearGradient3641-4"
       id="linearGradient7130"
       gradientUnits="userSpaceOnUse"
       gradientTransform="translate(100,0)"
       x1="48"
       y1="32"
       x2="48"
       y2="80" />
    <linearGradient
       id="linearGradient3641-4">
      <stop
         offset="0"
         style="stop-color:#000000;stop-opacity:1"
         id="stop3643-8" />
      <stop
         offset="1"
         style="stop-color:#000000;stop-opacity:0"
         id="stop3645-1" />
    </linearGradient>
    <clipPath
       id="clipPath3696-9">
      <rect
         style="fill:#ff00ff;fill-opacity:1;fill-rule:nonzero;stroke:none"
         id="rect3698-8"
         y="6"
         x="106"
         ry="6"
         rx="6"
         height="84"
         width="84" />
    </clipPath>
    <filter
       id="filter3665-1"
       color-interpolation-filters="sRGB">
      <feGaussianBlur
         stdDeviation="0.69"
         id="feGaussianBlur3667-5" />
    </filter>
    <linearGradient
       inkscape:collect="always"
       xlink:href="#linearGradient3700-8"
       id="linearGradient7153"
       gradientUnits="userSpaceOnUse"
       gradientTransform="matrix(2.5282101,0,0,1.7544049,6.6459477,840.11725)"
       x1="48"
       y1="88"
       x2="48"
       y2="36" />
    <linearGradient
       inkscape:collect="always"
       xlink:href="#linearGradient3641-4"
       id="linearGradient7132"
       gradientUnits="userSpaceOnUse"
       gradientTransform="translate(100,-1)"
       x1="51"
       y1="62"
       x2="51"
       y2="21" />
    <clipPath
       id="clipPath3703-4">
      <rect
         style="fill:#ff00ff;fill-opacity:1;fill-rule:nonzero;stroke:none"
         id="rect3705-8"
         y="6"
         x="106"
         ry="6"
         rx="6"
         height="84"
         width="84" />
    </clipPath>
    <filter
       id="filter3649-6"
       color-interpolation-filters="sRGB">
      <feGaussianBlur
         stdDeviation="1.38"
         id="feGaussianBlur3651-1" />
    </filter>
    <linearGradient
       inkscape:collect="always"
       xlink:href="#linearGradient3700-8"
       id="linearGradient7148"
       gradientUnits="userSpaceOnUse"
       gradientTransform="matrix(2.5282101,0,0,1.7544049,6.6459477,840.11725)"
       x1="48"
       y1="88"
       x2="48"
       y2="32" />
    <linearGradient
       inkscape:collect="always"
       xlink:href="#linearGradient3737-9"
       id="linearGradient7159"
       gradientUnits="userSpaceOnUse"
       x1="48"
       y1="20.220806"
       x2="48"
       y2="138.66119" />
    <linearGradient
       id="linearGradient3737-9">
      <stop
         offset="0"
         style="stop-color:#ffffff;stop-opacity:1"
         id="stop3739-0" />
      <stop
         offset="1"
         style="stop-color:#ffffff;stop-opacity:0"
         id="stop3741-8" />
    </linearGradient>
    <clipPath
       id="clipPath3613">
      <rect
         style="fill:#ffffff;fill-opacity:1;fill-rule:nonzero;stroke:none"
         id="rect3615"
         y="6"
         x="6"
         ry="6"
         rx="6"
         height="84"
         width="84" />
    </clipPath>
    <filter
       id="filter3794-8"
       color-interpolation-filters="sRGB"
       height="1.3839999"
       width="1.3839999"
       y="-0.192"
       x="-0.192">
      <feGaussianBlur
         stdDeviation="5.28"
         id="feGaussianBlur3796-5" />
    </filter>
    <radialGradient
       inkscape:collect="always"
       xlink:href="#linearGradient3737-9"
       id="radialGradient7143"
       gradientUnits="userSpaceOnUse"
       gradientTransform="matrix(2.9259301,0,0,1.7472254,-12.444619,840.4631)"
       cx="48"
       cy="90.171875"
       fx="48"
       fy="90.171875"
       r="42" />
    <linearGradient
       inkscape:collect="always"
       xlink:href="#linearGradient3737-9"
       id="linearGradient7140"
       gradientUnits="userSpaceOnUse"
       gradientTransform="matrix(2.5282101,0,0,1.7544049,6.6459477,840.11725)"
       x1="36.357143"
       y1="6"
       x2="36.357143"
       y2="63.893143" />
    <radialGradient
       inkscape:collect="always"
       xlink:href="#linearGradient3737-3-1"
       id="radialGradient7137"
       gradientUnits="userSpaceOnUse"
       gradientTransform="matrix(2.9259301,0,0,1.7472254,-12.44462,840.4631)"
       cx="48"
       cy="90.171875"
       fx="48"
       fy="90.171875"
       r="42" />
    <linearGradient
       id="linearGradient3737-3-1">
      <stop
         offset="0"
         style="stop-color:#ffffff;stop-opacity:1"
         id="stop3739-5-0" />
      <stop
         offset="1"
         style="stop-color:#ffffff;stop-opacity:0"
         id="stop3741-7-3" />
    </linearGradient>
    <linearGradient
       id="linearGradient4069">
      <stop
         offset="0"
         style="stop-color:#ff2400;stop-opacity:1"
         id="stop4071" />
      <stop
         offset="1"
         style="stop-color:#ff4700;stop-opacity:0"
         id="stop4073" />
    </linearGradient>
    <linearGradient
       id="linearGradient3779">
      <stop
         offset="0"
         style="stop-color:#d00000;stop-opacity:1"
         id="stop3781" />
      <stop
         offset="1"
         style="stop-color:#ff3c22;stop-opacity:1"
         id="stop3783" />
    </linearGradient>
    <linearGradient
       x1="45.447727"
       y1="92.539597"
       x2="45.447727"
       y2="7.0165396"
       id="ButtonShadow-3-5"
       gradientUnits="userSpaceOnUse"
       gradientTransform="scale(1.0058652,0.994169)">
      <stop
         id="stop3750-61-2"
         style="stop-color:#000000;stop-opacity:1"
         offset="0" />
      <stop
         id="stop3752-05-6"
         style="stop-color:#000000;stop-opacity:0.58823532"
         offset="1" />
    </linearGradient>
    <filter
       color-interpolation-filters="sRGB"
       id="filter3174-0-2">
      <feGaussianBlur
         id="feGaussianBlur3176-0-6"
         stdDeviation="1.71" />
    </filter>
    <filter
       color-interpolation-filters="sRGB"
       id="filter3657-7">
      <feGaussianBlur
         id="feGaussianBlur3659-3"
         stdDeviation="1.14" />
    </filter>
    <linearGradient
       inkscape:collect="always"
       xlink:href="#ButtonShadow-3-5"
       id="linearGradient4360"
       gradientUnits="userSpaceOnUse"
       gradientTransform="scale(1.0058652,0.994169)"
       x1="45.447727"
       y1="92.539597"
       x2="45.447727"
       y2="7.0165396" />
    <radialGradient
       inkscape:collect="always"
       xlink:href="#linearGradient4069"
       id="radialGradient4433"
       gradientUnits="userSpaceOnUse"
       gradientTransform="matrix(14.227804,5.3375322e-7,-3.9186557e-7,19.748763,-12.128989,-67.457158)"
       cx="-10.959364"
       cy="11.931095"
       fx="-10.959364"
       fy="11.931095"
       r="7" />
    <linearGradient
       inkscape:collect="always"
       xlink:href="#linearGradient3779"
       id="linearGradient4435"
       gradientUnits="userSpaceOnUse"
       x1="56.65815"
       y1="51.019985"
       x2="56.65815"
       y2="23.566277" />
  </defs>
  <sodipodi:namedview
     id="base"
     pagecolor="#ffffff"
     bordercolor="#666666"
     borderopacity="1.0"
     inkscape:pageopacity="0.0"
     inkscape:pageshadow="2"
     inkscape:zoom="1.71875"
     inkscape:cx="128"
     inkscape:cy="128"
     inkscape:document-units="px"
     inkscape:current-layer="layer1"
     showgrid="false"
     inkscape:window-width="1024"
     inkscape:window-height="576"
     inkscape:window-x="0"
     inkscape:window-y="24"
     inkscape:window-maximized="1" />
  <metadata
     id="metadata7257">
    <rdf:RDF>
      <cc:Work
         rdf:about="">
        <dc:format>image/svg+xml</dc:format>
        <dc:type
           rdf:resource="http://purl.org/dc/dcmitype/StillImage" />
        <dc:title></dc:title>
      </cc:Work>
    </rdf:RDF>
  </metadata>
  <g
     inkscape:label="Layer 1"
     inkscape:groupmode="layer"
     id="layer1"
     transform="translate(0,-796.36218)">
    <g
       transform="translate(0.16009331,793.16852)"
       id="g5419">
      <rect
         style="opacity:0.05;fill:none;stroke:#000000;stroke-width:22.6303196;stroke-linejoin:round;stroke-miterlimit:4;stroke-opacity:1;stroke-dasharray:none"
         id="rect5286"
         y="57.508652"
         x="21.655085"
         ry="10.52643"
         rx="15.169261"
         height="147.37001"
         width="212.36964" />
      <rect
         width="212.36964"
         height="147.37001"
         rx="15.169261"
         ry="10.52643"
         x="21.655085"
         y="57.508652"
         id="rect5280"
         style="opacity:0.2;fill:none;stroke:#000000;stroke-width:5.6575799;stroke-linejoin:round;stroke-miterlimit:4;stroke-opacity:1;stroke-dasharray:none" />
      <rect
         width="212.36964"
         height="147.37001"
         rx="15.169261"
         ry="10.52643"
         x="21.655085"
         y="57.508652"
         id="rect5284"
         style="opacity:0.1;fill:none;stroke:#000000;stroke-width:16.97274017;stroke-linejoin:round;stroke-miterlimit:4;stroke-opacity:1;stroke-dasharray:none" />
      <rect
         style="opacity:0.15;fill:none;stroke:#000000;stroke-width:11.3151598;stroke-linejoin:round;stroke-miterlimit:4;stroke-opacity:1;stroke-dasharray:none"
         id="rect5282"
         y="57.508652"
         x="21.655085"
         ry="10.52643"
         rx="15.169261"
         height="147.37001"
         width="212.36964" />
      <rect
         style="opacity:0.3;fill:#000000;fill-opacity:1;fill-rule:nonzero;stroke:none"
         id="rect5218"
         y="59.350777"
         x="21.655085"
         ry="10.52643"
         rx="15.169261"
         height="147.37001"
         width="212.36964" />
      <g
         id="g5253"
         transform="matrix(1.1637667,0,0,0.80757451,-31.115385,31.24507)" />
    </g>
    <g
       id="g7397">
      <rect
         width="212.36964"
         height="147.37001"
         rx="15.16926"
         ry="10.526429"
         x="21.815208"
         y="850.64368"
         id="rect2419"
         style="fill:url(#linearGradient7157);fill-opacity:1;fill-rule:nonzero;stroke:none" />
      <path
         d="m 112,89 c -3.324,0 -6,-2.676 -6,-6 l 0,-6 42,-42 42,42 0,6 c 0,3.324 -2.676,6 -6,6 l -72,0 z"
         inkscape:connector-curvature="0"
         transform="matrix(2.5282101,0,0,1.7544049,-246.17505,838.36284)"
         clip-path="url(#clipPath3696-9)"
         id="path3653"
         style="opacity:0.3;fill:url(#linearGradient7130);fill-opacity:1;stroke:none;filter:url(#filter3665-1)" />
      <path
         d="m 36.984468,998.01369 c -8.40377,0 -15.169261,-4.69478 -15.169261,-10.52643 l 0,-10.52642 106.184833,-73.68501 106.18482,73.68501 0,10.52642 c 0,5.83165 -6.76549,10.52643 -15.16926,10.52643 l -182.031132,0 z"
         inkscape:connector-curvature="0"
         id="path3619"
         style="fill:url(#linearGradient7153);fill-opacity:1;stroke:none" />
      <path
         d="m 128.00004,903.27583 -106.184833,73.68501 0,1.7544 106.184833,-73.68501 106.18482,73.68501 0,-1.7544 -106.18482,-73.68501 z"
         inkscape:connector-curvature="0"
         id="path3718"
         style="opacity:0.4;fill:#ffffff;fill-opacity:1;stroke:none" />
      <path
         d="m 112,7 c -3.324,0 -6,2.676 -6,6 l 0,6 42,42 42,-42 0,-6 c 0,-3.324 -2.676,-6 -6,-6 l -72,0 z"
         inkscape:connector-curvature="0"
         transform="matrix(2.5282101,0,0,1.7544049,-246.17505,841.87165)"
         clip-path="url(#clipPath3703-4)"
         id="path3637"
         style="opacity:0.4;fill:url(#linearGradient7132);fill-opacity:1;stroke:none;filter:url(#filter3649-6)" />
      <path
         d="m 36.984468,850.64368 c -8.40377,0 -15.169261,4.69479 -15.169261,10.52643 l 0,10.52643 106.184833,73.68501 106.18482,-73.68501 0,-10.52643 c 0,-5.83164 -6.76549,-10.52643 -15.16926,-10.52643 l -182.031132,0 z"
         inkscape:connector-curvature="0"
         id="path3613"
         style="fill:url(#linearGradient7148);fill-opacity:1;stroke:none" />
      <path
         d="m 21.815207,869.94213 0,1.75441 106.184833,73.68501 106.18482,-73.68501 0,-1.75441 -106.18482,73.68501 -106.184833,-73.68501 z"
         inkscape:connector-curvature="0"
         id="path3709-6"
         style="opacity:0.6;fill:#ffffff;fill-opacity:1;stroke:none" />
      <rect
         transform="matrix(2.5282101,0,0,1.7544049,6.6459477,840.11725)"
         width="66"
         height="66"
         rx="12"
         ry="12"
         x="15"
         y="15"
         clip-path="url(#clipPath3613)"
         id="rect3171"
         style="opacity:0.1;fill:url(#linearGradient7159);fill-opacity:1;fill-rule:nonzero;stroke:#ffffff;stroke-width:0.5;stroke-linecap:round;stroke-linejoin:miter;stroke-miterlimit:4;stroke-opacity:1;stroke-dasharray:none;stroke-dashoffset:0;filter:url(#filter3794-8)" />
      <path
         d="m 36.984468,998.01369 c -8.40377,0 -15.169261,-4.69478 -15.169261,-10.52643 l 0,-3.50881 0,-119.29953 0,-3.50881 c 0,-0.58724 0.104542,-1.14159 0.23702,-1.69958 0.123124,-0.5186 0.245337,-1.04723 0.47404,-1.53511 0.02497,-0.0533 0.05282,-0.11158 0.07901,-0.16447 0.249951,-0.50487 0.593826,-0.96045 0.948079,-1.42546 0.365557,-0.47984 0.797943,-0.93968 1.264104,-1.37062 0.466162,-0.43095 0.944985,-0.83067 1.501125,-1.20616 1.112278,-0.75098 2.383875,-1.42901 3.792315,-1.91888 0.70422,-0.24493 1.449861,-0.43324 2.212184,-0.60307 -0.647732,0.17583 -1.230508,0.41451 -1.817151,0.6579 -0.01874,0.008 -0.06034,-0.008 -0.07901,0 -0.08073,0.0339 -0.157489,0.0746 -0.23702,0.10965 -0.304383,0.13456 -0.584074,0.28687 -0.869072,0.4386 -0.268427,0.14175 -0.539218,0.28265 -0.790065,0.4386 -0.449844,0.28322 -0.878452,0.60595 -1.264105,0.93203 -0.271982,0.22852 -0.552146,0.46542 -0.790066,0.71272 -0.06343,0.0673 -0.0972,0.15066 -0.158013,0.21931 -0.163735,0.18076 -0.329243,0.3588 -0.47404,0.54825 -0.25537,0.34159 -0.519989,0.72931 -0.711059,1.0965 -0.02012,0.0383 -0.05964,0.0711 -0.07901,0.10965 -0.08046,0.16132 -0.09052,0.32778 -0.158013,0.49343 -0.07668,0.18705 -0.177959,0.3562 -0.237019,0.54825 -0.184252,0.59915 -0.316027,1.22493 -0.316027,1.86405 l 0,3.50881 0,119.29954 0,3.50881 c 0,4.88048 5.607954,8.77202 12.64105,8.77202 l 5.056421,0 171.918295,0 5.05642,0 c 7.0331,0 12.64105,-3.89154 12.64105,-8.77202 l 0,-3.50881 0,-119.29954 0,-3.50881 c 0,-0.63912 -0.13177,-1.2649 -0.31603,-1.86405 -0.1116,-0.36298 -0.22344,-0.69765 -0.39503,-1.04168 -0.0194,-0.0385 -0.0589,-0.0714 -0.079,-0.10965 -0.15862,-0.30481 -0.34986,-0.64465 -0.55304,-0.93203 -0.10509,-0.14526 -0.19983,-0.29817 -0.31603,-0.4386 -0.13804,-0.17054 -0.32051,-0.33044 -0.47404,-0.49343 -0.23793,-0.2473 -0.51809,-0.4842 -0.79006,-0.71272 -0.36198,-0.30606 -0.76641,-0.60878 -1.1851,-0.8772 -0.0283,-0.0179 -0.0505,-0.0371 -0.079,-0.0548 -0.34987,-0.22028 -0.72077,-0.4113 -1.10609,-0.60308 -0.25932,-0.12834 -0.51656,-0.26906 -0.79007,-0.38378 -0.0187,-0.008 -0.0603,0.008 -0.079,0 -0.58664,-0.24338 -1.16942,-0.48207 -1.81715,-0.6579 0.76233,0.16983 1.50796,0.35814 2.21218,0.60308 1.40845,0.48987 2.68004,1.16789 3.79232,1.91888 0.55614,0.37549 1.03496,0.77521 1.50112,1.20615 0.46617,0.43094 0.89856,0.89079 1.26411,1.37063 0.35426,0.465 0.69813,0.92059 0.94808,1.42545 0.0263,0.054 0.0539,0.11008 0.079,0.16448 0.22869,0.48787 0.35091,1.01651 0.47404,1.5351 0.13247,0.55799 0.23701,1.11235 0.23701,1.69958 l 0,3.50881 0,119.29954 0,3.50881 c 0,5.83165 -6.76549,10.52643 -15.16925,10.52643 l -182.031139,0 z"
         inkscape:connector-curvature="0"
         id="path3615"
         style="opacity:0;fill:url(#radialGradient7143);fill-opacity:1;fill-rule:nonzero;stroke:none" />
      <path
         d="m 36.984468,850.64368 c -8.40377,0 -15.169261,4.69479 -15.169261,10.52643 l 0,3.50881 0,119.29953 0,3.50881 c 0,0.58724 0.104542,1.14159 0.23702,1.69959 0.123124,0.51859 0.245337,1.04723 0.47404,1.5351 0.02503,0.0533 0.05281,0.11158 0.07901,0.16448 0.249938,0.50486 0.593826,0.96044 0.948079,1.42545 0.365558,0.47984 0.797943,0.93968 1.264104,1.37063 0.466162,0.43094 0.944984,0.83066 1.501125,1.20615 1.112278,0.75098 2.383875,1.429 3.792315,1.91888 0.70422,0.24494 1.449861,0.43325 2.212184,0.60308 -0.647732,-0.17583 -1.230508,-0.41452 -1.817151,-0.65791 -0.01871,-0.008 -0.06035,0.008 -0.07901,0 -0.08073,-0.0338 -0.157482,-0.0745 -0.23702,-0.10964 -0.304383,-0.13457 -0.584075,-0.28688 -0.869072,-0.4386 -0.268427,-0.14177 -0.539218,-0.28266 -0.790065,-0.43861 -0.449844,-0.28322 -0.878453,-0.60595 -1.264105,-0.93203 -0.271983,-0.22852 -0.552146,-0.46542 -0.790066,-0.71272 -0.06344,-0.0673 -0.09721,-0.15065 -0.158013,-0.21931 -0.163727,-0.18076 -0.329244,-0.3588 -0.47404,-0.54824 -0.25537,-0.3416 -0.519989,-0.72931 -0.711059,-1.09651 -0.02023,-0.0383 -0.05964,-0.0711 -0.07901,-0.10964 -0.08047,-0.16133 -0.09051,-0.32778 -0.158013,-0.49343 -0.07668,-0.18705 -0.177958,-0.3562 -0.237019,-0.54826 -0.184254,-0.59914 -0.316027,-1.22493 -0.316027,-1.86405 l 0,-3.50881 0,-119.29954 0,-3.50881 c 0,-4.88048 5.607954,-8.77202 12.64105,-8.77202 l 5.056421,0 171.918295,0 5.05642,0 c 7.0331,0 12.64105,3.89154 12.64105,8.77202 l 0,3.50881 0,119.29954 0,3.50881 c 0,0.63912 -0.13177,1.26491 -0.31603,1.86405 -0.1116,0.36298 -0.22344,0.69766 -0.39503,1.04169 -0.0194,0.0385 -0.0589,0.0714 -0.079,0.10964 -0.15862,0.30481 -0.34986,0.64465 -0.55304,0.93203 -0.10509,0.14527 -0.19983,0.29816 -0.31603,0.4386 -0.13804,0.17054 -0.32051,0.33044 -0.47404,0.49343 -0.23793,0.2473 -0.51809,0.4842 -0.79006,0.71272 -0.36198,0.30606 -0.76641,0.60878 -1.1851,0.87721 -0.0283,0.0179 -0.0505,0.0371 -0.079,0.0548 -0.34987,0.22028 -0.72077,0.41129 -1.10609,0.60307 -0.25932,0.12834 -0.51656,0.26907 -0.79007,0.38378 -0.0187,0.008 -0.0603,-0.008 -0.079,0 -0.58664,0.24339 -1.16942,0.48207 -1.81715,0.65791 0.76233,-0.16984 1.50796,-0.35815 2.21218,-0.60308 1.40845,-0.48988 2.68004,-1.1679 3.79232,-1.91888 0.55614,-0.37549 1.03496,-0.77522 1.50112,-1.20615 0.46617,-0.43095 0.89856,-0.89079 1.26411,-1.37064 0.35426,-0.465 0.69813,-0.92058 0.94808,-1.42545 0.0263,-0.054 0.0539,-0.11007 0.079,-0.16447 0.22869,-0.48788 0.35091,-1.01651 0.47404,-1.53511 0.13247,-0.55799 0.23701,-1.11234 0.23701,-1.69958 l 0,-3.50881 0,-119.29953 0,-3.50881 c 0,-5.83165 -6.76549,-10.52643 -15.16925,-10.52643 l -182.031139,0 z"
         inkscape:connector-curvature="0"
         id="rect3728"
         style="opacity:0.6;fill:url(#linearGradient7140);fill-opacity:1;fill-rule:nonzero;stroke:none" />
      <path
         d="m 36.984468,998.01369 c -8.40377,0 -15.169261,-4.69478 -15.169261,-10.52643 l 0,-3.50881 0,-119.29953 0,-3.50881 c 0,-0.58724 0.104542,-1.14159 0.23702,-1.69958 0.123124,-0.5186 0.245337,-1.04723 0.47404,-1.53511 0.02497,-0.0533 0.05282,-0.11158 0.07901,-0.16447 0.249951,-0.50487 0.593826,-0.96045 0.948079,-1.42546 0.365557,-0.47984 0.797943,-0.93968 1.264104,-1.37062 0.466162,-0.43095 0.944985,-0.83067 1.501125,-1.20616 1.112278,-0.75098 2.383875,-1.42901 3.792315,-1.91888 0.70422,-0.24493 1.449861,-0.43324 2.212184,-0.60307 -0.647732,0.17583 -1.230508,0.41451 -1.817151,0.6579 -0.01874,0.008 -0.06034,-0.008 -0.07901,0 -0.08073,0.0339 -0.157489,0.0746 -0.23702,0.10965 -0.304383,0.13456 -0.584074,0.28687 -0.869072,0.4386 -0.268427,0.14175 -0.539218,0.28265 -0.790065,0.4386 -0.449844,0.28322 -0.878452,0.60595 -1.264105,0.93203 -0.271982,0.22852 -0.552146,0.46542 -0.790066,0.71272 -0.06343,0.0673 -0.0972,0.15066 -0.158013,0.21931 -0.163735,0.18076 -0.329243,0.3588 -0.47404,0.54825 -0.25537,0.34159 -0.519989,0.72931 -0.711059,1.0965 -0.02012,0.0383 -0.05964,0.0711 -0.07901,0.10965 -0.08046,0.16132 -0.09052,0.32778 -0.158013,0.49343 -0.07668,0.18705 -0.177959,0.3562 -0.237019,0.54825 -0.184252,0.59915 -0.316027,1.22493 -0.316027,1.86405 l 0,3.50881 0,119.29954 0,3.50881 c 0,4.88048 5.607954,8.77202 12.64105,8.77202 l 5.056421,0 171.918295,0 5.05642,0 c 7.0331,0 12.64105,-3.89154 12.64105,-8.77202 l 0,-3.50881 0,-119.29954 0,-3.50881 c 0,-0.63912 -0.13177,-1.2649 -0.31603,-1.86405 -0.1116,-0.36298 -0.22344,-0.69765 -0.39503,-1.04168 -0.0194,-0.0385 -0.0589,-0.0714 -0.079,-0.10965 -0.15862,-0.30481 -0.34986,-0.64465 -0.55304,-0.93203 -0.10509,-0.14526 -0.19983,-0.29817 -0.31603,-0.4386 -0.13804,-0.17054 -0.32051,-0.33044 -0.47404,-0.49343 -0.23793,-0.2473 -0.51809,-0.4842 -0.79006,-0.71272 -0.36198,-0.30606 -0.76641,-0.60878 -1.1851,-0.8772 -0.0283,-0.0179 -0.0505,-0.0371 -0.079,-0.0548 -0.34987,-0.22028 -0.72077,-0.4113 -1.10609,-0.60308 -0.25932,-0.12834 -0.51656,-0.26906 -0.79007,-0.38378 -0.0187,-0.008 -0.0603,0.008 -0.079,0 -0.58664,-0.24338 -1.16942,-0.48207 -1.81715,-0.6579 0.76233,0.16983 1.50796,0.35814 2.21218,0.60308 1.40845,0.48987 2.68004,1.16789 3.79232,1.91888 0.55614,0.37549 1.03496,0.77521 1.50112,1.20615 0.46617,0.43094 0.89856,0.89079 1.26411,1.37063 0.35426,0.465 0.69813,0.92059 0.94808,1.42545 0.0263,0.054 0.0539,0.11008 0.079,0.16448 0.22869,0.48787 0.35091,1.01651 0.47404,1.5351 0.13247,0.55799 0.23701,1.11235 0.23701,1.69958 l 0,3.50881 0,119.29954 0,3.50881 c 0,5.83165 -6.76549,10.52643 -15.16925,10.52643 l -182.031139,0 z"
         inkscape:connector-curvature="0"
         id="path3615-5"
         style="opacity:0.3;fill:url(#radialGradient7137);fill-opacity:1;fill-rule:nonzero;stroke:none" />
    </g>
    <g
       id="g4017"
       transform="translate(-2.5250028,791.18492)">
      <rect
         width="160"
         height="220"
         rx="11.428572"
         ry="15.714286"
         x="-208.46304"
         y="17.864634"
         transform="matrix(0,-1,1,0,0,0)"
         id="rect3752"
         style="opacity:0.2;fill:url(#radialGradient4433);fill-opacity:1;fill-rule:nonzero;stroke:none;display:inline" />
      <g
         transform="matrix(2.3860873,0,0,2.3726855,24.902403,-5.6082171)"
         id="layer4">
        <path
           style="opacity:0.05;color:#000000;fill:#000000;fill-opacity:1;fill-rule:nonzero;stroke:none;stroke-width:1.5;marker:none;visibility:visible;display:inline;overflow:visible;enable-background:accumulate"
           id="path3777"
           transform="translate(6,6)"
           d="M 61.40625,46.0625 C 60.016298,46.209373 58.831602,46.773702 58,47.40625 A 1.0194857,1.0194857 0 0 0 57.96875,47.4375 C 56.203171,48.964376 55.481814,51.015281 54.5,52.53125 a 1.0194857,1.0194857 0 0 0 -0.03125,0.0625 c -4.256974,7.336967 -8.480805,14.712433 -12.75,22.03125 a 1.0194857,1.0194857 0 0 0 -0.0625,0.09375 c -0.849203,1.952973 -0.862275,4.215519 0.3125,6.125 0.0075,0.01322 0.02369,0.01812 0.03125,0.03125 1.275389,2.216227 3.801425,3.248721 6.21875,3.0625 l 0,0.03125 C 57.773689,83.9456 67.319393,83.9279 76.875,83.90625 a 1.0194857,1.0194857 0 0 0 0.0625,0 C 79.541079,83.72438 81.878899,81.960854 82.65625,79.4375 83.318733,77.399914 82.848416,75.232526 81.6875,73.5 81.67581,73.4799 81.66794,73.4576 81.65625,73.4375 76.903324,65.263235 72.114222,57.112172 67.375,48.9375 A 1.0194857,1.0194857 0 0 0 67.3125,48.84375 C 65.978754,46.98667 63.765307,45.849834 61.40625,46.0625 z"
           inkscape:connector-curvature="0" />
        <path
           style="opacity:0.1;color:#000000;fill:#000000;fill-opacity:1;fill-rule:nonzero;stroke:none;stroke-width:1.5;marker:none;visibility:visible;display:inline;overflow:visible;enable-background:accumulate"
           id="path3767"
           inkscape:connector-curvature="0"
           d="m 67.511501,53.054373 c -1.163818,0.122978 -2.194482,0.622906 -2.894802,1.155596 -1.509944,1.305802 -2.207741,3.249033 -3.274892,4.896766 -4.255043,7.333639 -8.483147,14.683441 -12.755078,22.006948 -0.743969,1.710958 -0.746937,3.628917 0.253295,5.236294 1.052362,1.86218 3.283577,2.787791 5.38414,2.598219 9.555326,-0.02315 19.110648,-0.0487 28.665976,-0.07035 2.180383,-0.152308 4.168419,-1.664585 4.812609,-3.755687 0.557722,-1.715374 0.132897,-3.596438 -0.902374,-5.11169 C 82.037322,71.818409 77.257741,63.63572 72.505036,55.437792 71.369216,53.8563 69.481382,52.876794 67.511501,53.054376 z" />
        <path
           style="opacity:0.15;color:#000000;fill:#000000;fill-opacity:1;fill-rule:nonzero;stroke:none;stroke-width:1.5;marker:none;visibility:visible;display:inline;overflow:visible;enable-background:accumulate"
           id="path3763"
           transform="matrix(1.157921,0,0,1.1555958,3.6087356,27.811827)"
           d="m 55.40625,22.65625 c -0.04409,0.0024 -0.206143,0.02614 -0.25,0.03125 -0.04386,0.0051 -0.206545,0.02342 -0.25,0.03125 -0.04346,0.0078 -0.175866,0.05198 -0.21875,0.0625 -0.04288,0.01052 -0.207853,0.04934 -0.25,0.0625 -0.04215,0.01316 -0.177504,0.04674 -0.21875,0.0625 C 54.177504,22.922009 54.040186,22.981706 54,23 c -0.04019,0.01829 -0.179779,0.104242 -0.21875,0.125 -0.03897,0.02076 -0.181146,0.07061 -0.21875,0.09375 -0.0376,0.02314 -0.151408,0.130815 -0.1875,0.15625 -0.03609,0.02544 -0.15306,0.09737 -0.1875,0.125 -0.03444,0.02763 -0.154845,0.126531 -0.1875,0.15625 -0.03265,0.02972 -0.156756,0.155807 -0.1875,0.1875 -0.03074,0.03169 -0.127537,0.122707 -0.15625,0.15625 -0.02871,0.03354 -0.129679,0.152236 -0.15625,0.1875 -0.02657,0.03526 -0.100673,0.181901 -0.125,0.21875 -0.02433,0.03685 -0.103012,0.14921 -0.125,0.1875 l -12.53125,21.6875 c -0.02333,0.04022 -0.104357,0.177092 -0.125,0.21875 -0.02064,0.04166 -0.07588,0.20708 -0.09375,0.25 -0.01787,0.04292 -0.07873,0.174752 -0.09375,0.21875 -0.01502,0.044 -0.05039,0.205112 -0.0625,0.25 -0.01211,0.04489 -0.05336,0.204416 -0.0625,0.25 -0.0091,0.04558 -0.05636,0.203915 -0.0625,0.25 -0.0061,0.04608 0.0031,0.203612 0,0.25 -0.0031,0.04639 -0.03119,0.203508 -0.03125,0.25 -6.4e-5,0.04649 0.02827,0.203603 0.03125,0.25 0.003,0.0464 -0.006,0.203898 0,0.25 0.006,0.0461 0.05348,0.204391 0.0625,0.25 0.009,0.04561 0.01926,0.205079 0.03125,0.25 0.01199,0.04492 0.07885,0.205961 0.09375,0.25 0.0149,0.04404 0.076,0.175781 0.09375,0.21875 0.01775,0.04297 0.07322,0.208286 0.09375,0.25 0.02053,0.04171 0.101783,0.17847 0.125,0.21875 0.02322,0.04028 0.0992,0.180077 0.125,0.21875 0.0258,0.03867 0.127968,0.150599 0.15625,0.1875 0.02828,0.0369 0.125612,0.183781 0.15625,0.21875 0.03064,0.03497 0.123388,0.154612 0.15625,0.1875 0.03286,0.03289 0.152555,0.125584 0.1875,0.15625 0.03495,0.03067 0.181872,0.127939 0.21875,0.15625 0.03688,0.02831 0.148847,0.130414 0.1875,0.15625 0.03865,0.02584 0.178488,0.101751 0.21875,0.125 0.04026,0.02325 0.177052,0.104437 0.21875,0.125 0.0417,0.02056 0.207045,0.07596 0.25,0.09375 0.04295,0.01779 0.174723,0.07881 0.21875,0.09375 0.04403,0.01494 0.205089,0.08173 0.25,0.09375 0.04491,0.01202 0.204398,0.0222 0.25,0.03125 0.0456,0.0091 0.203903,0.05645 0.25,0.0625 0.0461,0.0061 0.203606,0.02823 0.25,0.03125 0.04639,0.003 0.203508,2.6e-5 0.25,0 l 25.09375,-0.0625 c 0.04649,2.6e-5 0.203606,0.003 0.25,0 0.04639,-0.003 0.203903,-0.0252 0.25,-0.03125 0.0461,-0.0061 0.204398,-0.05345 0.25,-0.0625 0.0456,-0.0091 0.205089,-0.01923 0.25,-0.03125 0.04491,-0.01202 0.205973,-0.07881 0.25,-0.09375 0.04403,-0.01494 0.175795,-0.07596 0.21875,-0.09375 0.04296,-0.01779 0.208302,-0.07319 0.25,-0.09375 0.0417,-0.02056 0.178488,-0.101751 0.21875,-0.125 0.04026,-0.02325 0.180097,-0.09916 0.21875,-0.125 0.03865,-0.02584 0.150622,-0.127939 0.1875,-0.15625 0.03688,-0.02831 0.183805,-0.125584 0.21875,-0.15625 0.03494,-0.03067 0.154638,-0.123362 0.1875,-0.15625 0.03286,-0.03289 0.125612,-0.152531 0.15625,-0.1875 0.03064,-0.03497 0.127968,-0.181849 0.15625,-0.21875 0.02828,-0.0369 0.130445,-0.148827 0.15625,-0.1875 0.02581,-0.03867 0.101783,-0.17847 0.125,-0.21875 0.02322,-0.04028 0.10447,-0.177036 0.125,-0.21875 0.02053,-0.04171 0.076,-0.207031 0.09375,-0.25 0.01775,-0.04297 0.07885,-0.174711 0.09375,-0.21875 0.0149,-0.04404 0.08176,-0.205079 0.09375,-0.25 0.01199,-0.04492 0.02223,-0.204391 0.03125,-0.25 0.009,-0.04561 0.05649,-0.203898 0.0625,-0.25 0.006,-0.0461 -0.003,-0.203603 0,-0.25 0.003,-0.0464 0.03131,-0.203508 0.03125,-0.25 -6.4e-5,-0.04649 -0.02814,-0.203612 -0.03125,-0.25 -0.0031,-0.04639 0.0061,-0.203915 0,-0.25 -0.0061,-0.04608 -0.05336,-0.204416 -0.0625,-0.25 -0.0091,-0.04558 -0.05039,-0.205112 -0.0625,-0.25 -0.01211,-0.04489 -0.04748,-0.206002 -0.0625,-0.25 -0.01502,-0.044 -0.07588,-0.17583 -0.09375,-0.21875 C 71.70088,46.64458 71.64564,46.479158 71.625,46.4375 71.60436,46.39584 71.523327,46.258967 71.5,46.21875 L 58.9375,24.59375 C 58.9132,24.55146 58.83964,24.415525 58.8125,24.375 58.78536,24.33448 58.686115,24.194814 58.65625,24.15625 58.62638,24.11769 58.501194,24.005172 58.46875,23.96875 58.43631,23.93233 58.316119,23.784107 58.28125,23.75 58.24638,23.71589 58.13088,23.625381 58.09375,23.59375 58.05662,23.56212 57.914215,23.435256 57.875,23.40625 57.83579,23.37724 57.697365,23.30749 57.65625,23.28125 57.61514,23.25501 57.480321,23.148357 57.4375,23.125 57.39468,23.10164 57.231824,23.02036 57.1875,23 c -0.04432,-0.02036 -0.173132,-0.07648 -0.21875,-0.09375 -0.04562,-0.01727 -0.203304,-0.07966 -0.25,-0.09375 -0.0467,-0.01409 -0.233696,-0.05165 -0.28125,-0.0625 -0.04755,-0.01085 -0.201813,-0.02369 -0.25,-0.03125 -0.04819,-0.0076 -0.201407,-0.02702 -0.25,-0.03125 -0.04859,-0.0042 -0.232481,-0.03037 -0.28125,-0.03125 -0.04877,-8.83e-4 -0.201286,-0.0025 -0.25,0 z"
           inkscape:connector-curvature="0" />
        <path
           style="opacity:0.3;color:#000000;fill:#000000;fill-opacity:1;fill-rule:nonzero;stroke:none;stroke-width:1.5;marker:none;visibility:visible;display:inline;overflow:visible;enable-background:accumulate"
           id="path3757"
           transform="matrix(1.157921,0,0,1.1555958,3.6087356,27.811827)"
           d="m 55.4375,23.53125 a 2.9965231,2.9965231 0 0 0 -2.4375,1.5 l -12.53125,21.6875 a 2.9965231,2.9965231 0 0 0 2.59375,4.5 l 25.09375,-0.0625 a 2.9965231,2.9965231 0 0 0 2.59375,-4.5 l -12.5625,-21.625 a 2.9965231,2.9965231 0 0 0 -2.75,-1.5 z"
           inkscape:connector-curvature="0" />
        <path
           style="color:#000000;fill:url(#linearGradient4435);fill-opacity:1;fill-rule:nonzero;stroke:none;stroke-width:1.5;marker:none;visibility:visible;display:inline;overflow:visible;enable-background:accumulate"
           id="path3746"
           transform="matrix(1.157921,0,0,1.1555958,3.6087356,26.811827)"
           d="m 55.4375,23.53125 a 2.9965231,2.9965231 0 0 0 -2.4375,1.5 l -12.53125,21.6875 a 2.9965231,2.9965231 0 0 0 2.59375,4.5 l 25.09375,-0.0625 a 2.9965231,2.9965231 0 0 0 2.59375,-4.5 l -12.5625,-21.625 a 2.9965231,2.9965231 0 0 0 -2.75,-1.5 z"
           inkscape:connector-curvature="0" />
        <path
           style="color:#000000;fill:#ffffff;fill-opacity:1;fill-rule:nonzero;stroke:none;stroke-width:1.5;marker:none;visibility:visible;display:inline;overflow:visible;enable-background:accumulate"
           id="path3787"
           inkscape:connector-curvature="0"
           d="m 67.90625,56 c -1.152004,0.05532 -1.421833,1.278915 -1.96875,2.0625 -4.601411,7.93707 -9.168744,15.882451 -13.781251,23.8125 -0.461304,0.819916 0.139615,2.062324 1.125,2.09375 2.634591,0.07861 5.294508,0.01355 7.937501,0.03125 7.131503,-0.02183 14.275118,-0.03044 21.40625,-0.0625 1.017747,-0.03644 1.712133,-1.200057 1.25,-2.125 -1.851088,-3.076715 -3.663716,-6.281139 -5.5,-9.40625 C 75.337421,67.168221 72.233327,61.935151 69.21875,56.6875 68.929651,56.252518 68.432533,55.981699 67.90625,56 z m 0.0625,2 c 2.943233,5.11449 5.958374,10.197906 8.90625,15.28125 1.73504,2.952807 3.48095,5.979592 5.25,8.9375 -6.961554,0.03024 -13.939231,0.04117 -20.90625,0.0625 -2.477086,-0.01658 -4.893281,0.02123 -7.281251,-0.03125 4.491297,-7.725365 8.92913,-15.464089 13.406251,-23.1875 0.02593,-0.04474 0.06781,-0.08026 0.09375,-0.125 0.271996,-0.416476 0.415731,-0.721127 0.53125,-0.9375 z" />
        <path
           style="opacity:0.3;color:#000000;fill:#ffffff;fill-opacity:1;fill-rule:nonzero;stroke:none;stroke-width:1.5;marker:none;visibility:visible;display:inline;overflow:visible;enable-background:accumulate"
           id="path3802"
           inkscape:connector-curvature="0"
           d="m 67.8125,54 a 3.469737,3.4627695 0 0 0 -2.84375,1.75 L 50.468749,80.8125 a 3.469737,3.4627695 0 0 0 -0.4375,2.21875 3.469737,3.4627695 0 0 1 0.4375,-1.21875 L 64.96875,56.75 A 3.469737,3.4627695 0 0 1 67.8125,55 3.469737,3.4627695 0 0 1 71,56.75 l 14.53125,24.96875 a 3.469737,3.4627695 0 0 1 0.4375,1.25 3.469737,3.4627695 0 0 0 -0.4375,-2.25 L 71,55.75 A 3.469737,3.4627695 0 0 0 67.8125,54 z" />
        <path
           style="opacity:0.4;color:#000000;fill:#550000;fill-opacity:1;fill-rule:nonzero;stroke:none;stroke-width:1.5;marker:none;visibility:visible;display:inline;overflow:visible;enable-background:accumulate"
           id="path3815"
           inkscape:connector-curvature="0"
           d="m 85.96875,81.96875 a 3.469737,3.4627695 0 0 1 -3.4375,2.96875 L 53.468749,85 A 3.469737,3.4627695 0 0 1 50.031249,82.03125 3.469737,3.4627695 0 0 0 53.468749,86 L 82.53125,85.9375 a 3.469737,3.4627695 0 0 0 3.4375,-3.96875 z" />
        <rect
           style="color:#000000;fill:#ffffff;fill-opacity:1;fill-rule:nonzero;stroke:none;stroke-width:1.5;marker:none;visibility:visible;display:inline;overflow:visible;enable-background:accumulate"
           id="rect3826"
           y="65"
           x="66"
           ry="2"
           rx="1.9171129"
           height="10"
           width="4.000001" />
        <path
           style="color:#000000;fill:#ffffff;fill-opacity:1;fill-rule:nonzero;stroke:none;stroke-width:1.5;marker:none;visibility:visible;display:inline;overflow:visible;enable-background:accumulate"
           id="path3828"
           transform="translate(5.9999996,4.9999999)"
           d="m 64,73 a 2,2 0 1 1 -4,0 2,2 0 1 1 4,0 z"
           inkscape:connector-curvature="0" />
      </g>
    </g>
  </g>
</svg>
