<?xml version="1.0" encoding="UTF-8" standalone="no"?>
<!-- Created with Inkscape (http://www.inkscape.org/) -->

<svg
   xmlns:dc="http://purl.org/dc/elements/1.1/"
   xmlns:cc="http://creativecommons.org/ns#"
   xmlns:rdf="http://www.w3.org/1999/02/22-rdf-syntax-ns#"
   xmlns:svg="http://www.w3.org/2000/svg"
   xmlns="http://www.w3.org/2000/svg"
   xmlns:xlink="http://www.w3.org/1999/xlink"
   xmlns:sodipodi="http://sodipodi.sourceforge.net/DTD/sodipodi-0.dtd"
   xmlns:inkscape="http://www.inkscape.org/namespaces/inkscape"
   width="256"
   height="256"
   id="svg4293"
   version="1.1"
   inkscape:version="0.48.3.1 r9886"
   sodipodi:docname="audio-cd-new.svg">
  <defs
     id="defs4295">
    <linearGradient
       id="linearGradient3330">
      <stop
         offset="0"
         style="stop-color:#ffffff;stop-opacity:0.203125"
         id="stop3332" />
      <stop
         offset="1"
         style="stop-color:#ffffff;stop-opacity:0.6796875"
         id="stop3334" />
    </linearGradient>
    <linearGradient
       id="linearGradient3342">
      <stop
         offset="0"
         style="stop-color:#000000;stop-opacity:0"
         id="stop3344" />
      <stop
         offset="0.85000002"
         style="stop-color:#000000;stop-opacity:0"
         id="stop3350" />
      <stop
         offset="1"
         style="stop-color:#000000;stop-opacity:1"
         id="stop3346" />
    </linearGradient>
    <linearGradient
       id="linearGradient3362">
      <stop
         offset="0"
         style="stop-color:#4d4d4d;stop-opacity:1"
         id="stop3364" />
      <stop
         offset="1"
         style="stop-color:#ffffff;stop-opacity:1"
         id="stop3366" />
    </linearGradient>
    <linearGradient
       gradientTransform="matrix(1.0172414,0,0,1.0172414,-1.1034483,-1.1034483)"
       gradientUnits="userSpaceOnUse"
       id="ButtonColor-3"
       y2="5.4252338"
       x2="58.650177"
       y1="122"
       x1="58.650177">
      <stop
         offset="0"
         style="stop-color:#b8abbd;stop-opacity:1"
         id="stop3189-5" />
      <stop
         offset="1"
         style="stop-color:#dddbde;stop-opacity:1"
         id="stop3191-7" />
    </linearGradient>
    <linearGradient
       id="linearGradient3233">
      <stop
         offset="0"
         style="stop-color:#ffffff;stop-opacity:0"
         id="stop3235" />
      <stop
         offset="0.15000001"
         style="stop-color:#ffffff;stop-opacity:0"
         id="stop3297" />
      <stop
         offset="0.5"
         style="stop-color:#ffffff;stop-opacity:1"
         id="stop3241" />
      <stop
         offset="0.85000002"
         style="stop-color:#ffffff;stop-opacity:0"
         id="stop3299" />
      <stop
         offset="1"
         style="stop-color:#ffffff;stop-opacity:0"
         id="stop3237" />
    </linearGradient>
    <linearGradient
       id="linearGradient3247">
      <stop
         offset="0"
         style="stop-color:#ffffff;stop-opacity:0"
         id="stop3249" />
      <stop
         offset="0.30000001"
         style="stop-color:#d5d5d5;stop-opacity:0"
         id="stop3293" />
      <stop
         offset="0.5"
         style="stop-color:#eb8888;stop-opacity:0.2578125"
         id="stop3251" />
      <stop
         offset="0.69999999"
         style="stop-color:#e28f25;stop-opacity:0"
         id="stop3295" />
      <stop
         offset="1"
         style="stop-color:#ffffff;stop-opacity:0"
         id="stop3253" />
    </linearGradient>
    <linearGradient
       id="linearGradient3265">
      <stop
         offset="0"
         style="stop-color:#ffffff;stop-opacity:0"
         id="stop3267" />
      <stop
         offset="0.2"
         style="stop-color:#afcff3;stop-opacity:0"
         id="stop3252" />
      <stop
         offset="0.34999999"
         style="stop-color:#60a0e7;stop-opacity:0.1484375"
         id="stop3269" />
      <stop
         offset="0.5"
         style="stop-color:#db8ef1;stop-opacity:0.2109375"
         id="stop3271" />
      <stop
         offset="0.64999998"
         style="stop-color:#ffffff;stop-opacity:0"
         id="stop3273" />
      <stop
         offset="1"
         style="stop-color:#ffffff;stop-opacity:0"
         id="stop3275" />
    </linearGradient>
    <linearGradient
       id="linearGradient3236">
      <stop
         offset="0"
         style="stop-color:#ffffff;stop-opacity:0"
         id="stop3238" />
      <stop
         offset="0.34999999"
         style="stop-color:#fffc2b;stop-opacity:0.234375"
         id="stop3240" />
      <stop
         offset="0.5"
         style="stop-color:#46d15d;stop-opacity:0.21875"
         id="stop3242" />
      <stop
         offset="0.64999998"
         style="stop-color:#46d1aa;stop-opacity:0"
         id="stop3244" />
      <stop
         offset="1"
         style="stop-color:#ffffff;stop-opacity:0"
         id="stop3246" />
    </linearGradient>
    <clipPath
       id="clipPath3271">
      <rect
         style="fill:#ffffff;fill-opacity:1;fill-rule:evenodd;stroke:none"
         id="rect3273"
         y="160.00336"
         x="5"
         height="59"
         width="118" />
    </clipPath>
    <radialGradient
       inkscape:collect="always"
       xlink:href="#linearGradient3342"
       id="radialGradient3565"
       gradientUnits="userSpaceOnUse"
       gradientTransform="matrix(0,0.95308331,-0.95889648,0,197.47985,853.16093)"
       cx="59.893993"
       cy="61.92226"
       fx="59.893993"
       fy="61.92226"
       r="33.71384" />
    <linearGradient
       inkscape:collect="always"
       xlink:href="#linearGradient3362"
       id="linearGradient3567"
       gradientUnits="userSpaceOnUse"
       gradientTransform="matrix(0,0.44450749,-0.53396427,0,171.16706,883.62158)"
       x1="25.220379"
       y1="61.92226"
       x2="94.567612"
       y2="61.92226" />
    <linearGradient
       inkscape:collect="always"
       xlink:href="#ButtonColor-3"
       id="linearGradient3569"
       gradientUnits="userSpaceOnUse"
       gradientTransform="matrix(3.6051753,0,0,4.3310661,-77.82555,642.05549)"
       x1="73.015572"
       y1="89.130737"
       x2="73.015572"
       y2="34.606899" />
    <linearGradient
       inkscape:collect="always"
       xlink:href="#linearGradient3233"
       id="linearGradient3571"
       gradientUnits="userSpaceOnUse"
       gradientTransform="matrix(1.7296582,0.99865875,-0.99861861,1.7297277,91.316254,736.33393)"
       x1="5"
       y1="64"
       x2="123"
       y2="64" />
    <linearGradient
       inkscape:collect="always"
       xlink:href="#linearGradient3236"
       id="linearGradient3573"
       gradientUnits="userSpaceOnUse"
       gradientTransform="matrix(-0.9850397,0.171492,-0.171492,-0.9850397,138.01803,271.06706)"
       x1="5"
       y1="64"
       x2="123"
       y2="64" />
    <linearGradient
       inkscape:collect="always"
       xlink:href="#linearGradient3265"
       id="linearGradient3575"
       gradientUnits="userSpaceOnUse"
       gradientTransform="matrix(-0.8529965,0.5216416,-0.5216416,-0.8529964,151.97682,240.20671)"
       x1="5"
       y1="64"
       x2="123"
       y2="64" />
    <linearGradient
       inkscape:collect="always"
       xlink:href="#linearGradient3247"
       id="linearGradient3577"
       gradientUnits="userSpaceOnUse"
       gradientTransform="matrix(-0.881451,-0.4719713,0.4719713,-0.881451,90.206697,305.61903)"
       x1="5"
       y1="64"
       x2="123"
       y2="64" />
    <linearGradient
       inkscape:collect="always"
       xlink:href="#linearGradient3236"
       id="linearGradient3579"
       gradientUnits="userSpaceOnUse"
       gradientTransform="matrix(-0.9850397,0.171492,-0.171492,-0.9850397,138.01803,271.06706)"
       x1="5"
       y1="64"
       x2="123"
       y2="64" />
    <linearGradient
       inkscape:collect="always"
       xlink:href="#linearGradient3265"
       id="linearGradient3581"
       gradientUnits="userSpaceOnUse"
       gradientTransform="matrix(-0.8529965,0.5216416,-0.5216416,-0.8529964,151.97682,240.20671)"
       x1="5"
       y1="64"
       x2="123"
       y2="64" />
    <linearGradient
       inkscape:collect="always"
       xlink:href="#linearGradient3247"
       id="linearGradient3583"
       gradientUnits="userSpaceOnUse"
       gradientTransform="matrix(-0.881451,-0.4719713,0.4719713,-0.881451,90.206697,305.61903)"
       x1="5"
       y1="64"
       x2="123"
       y2="64" />
    <linearGradient
       inkscape:collect="always"
       xlink:href="#linearGradient3330"
       id="linearGradient3585"
       gradientUnits="userSpaceOnUse"
       gradientTransform="matrix(0,1.0082676,-1.2111817,0,213.10192,849.85572)"
       x1="26.180153"
       y1="61.92226"
       x2="93.607834"
       y2="61.92226" />
    <style
       id="style2464-4"
       type="text/css" />
    <style
       type="text/css"
       id="style3120-70" />
    <style
       type="text/css"
       id="style2464-8-8" />
    <style
       type="text/css"
       id="style2464-7-6" />
    <style
       id="style2464-8-9-0"
       type="text/css" />
    <style
       id="style3120-5-5"
       type="text/css" />
    <style
       type="text/css"
       id="style2464-0-8" />
    <style
       type="text/css"
       id="style6" />
    <style
       type="text/css"
       id="style3120-0" />
    <style
       type="text/css"
       id="style2464-3" />
    <linearGradient
       id="linearGradient3527"
       inkscape:collect="always">
      <stop
         id="stop3529"
         offset="0"
         style="stop-color:#000000;stop-opacity:1" />
      <stop
         id="stop3531"
         offset="1"
         style="stop-color:#ffffff;stop-opacity:1" />
    </linearGradient>
    <linearGradient
       id="linearGradient3654">
      <stop
         id="stop3656"
         offset="0"
         style="stop-color:#000000;stop-opacity:1;" />
      <stop
         id="stop3658"
         offset="1"
         style="stop-color:#ffffff;stop-opacity:1" />
    </linearGradient>
    <style
       id="style2464-2"
       type="text/css" />
    <style
       type="text/css"
       id="style3120-7" />
    <style
       type="text/css"
       id="style2464-8-4" />
    <style
       type="text/css"
       id="style2464-7" />
    <style
       id="style2464-8-9"
       type="text/css" />
    <style
       id="style3120-5"
       type="text/css" />
    <style
       type="text/css"
       id="style2464-0" />
    <style
       id="style2464"
       type="text/css" />
    <style
       type="text/css"
       id="style3120" />
    <style
       type="text/css"
       id="style2464-8" />
    <style
       id="style2464-8-0"
       type="text/css" />
    <style
       id="style3120-8"
       type="text/css" />
    <style
       type="text/css"
       id="style2464-1" />
    <linearGradient
       inkscape:collect="always"
       xlink:href="#linearGradient3654"
       id="linearGradient8042"
       gradientUnits="userSpaceOnUse"
       gradientTransform="matrix(1.2877696,0,0,2.1168554,248.75171,39.780159)"
       spreadMethod="reflect"
       x1="51.240108"
       y1="50.173145"
       x2="53.844242"
       y2="50.173145" />
    <linearGradient
       inkscape:collect="always"
       xlink:href="#linearGradient3654"
       id="linearGradient8044"
       gradientUnits="userSpaceOnUse"
       gradientTransform="matrix(1.1176232,0,0,1.4041709,387.61289,77.153376)"
       spreadMethod="reflect"
       x1="-59.189838"
       y1="38.962566"
       x2="-41.159077"
       y2="39.902592" />
    <linearGradient
       inkscape:collect="always"
       xlink:href="#linearGradient3654"
       id="linearGradient8046"
       gradientUnits="userSpaceOnUse"
       x1="32.329235"
       y1="86.103737"
       x2="34.163094"
       y2="62.024452" />
    <linearGradient
       inkscape:collect="always"
       xlink:href="#linearGradient3654"
       id="linearGradient8048"
       gradientUnits="userSpaceOnUse"
       x1="38.743603"
       y1="82.720306"
       x2="38.953583"
       y2="91.012444" />
    <linearGradient
       inkscape:collect="always"
       xlink:href="#linearGradient3527"
       id="linearGradient8050"
       gradientUnits="userSpaceOnUse"
       x1="43.994591"
       y1="82.573822"
       x2="44.263023"
       y2="91.256668" />
  </defs>
  <sodipodi:namedview
     id="base"
     pagecolor="#ffffff"
     bordercolor="#666666"
     borderopacity="1.0"
     inkscape:pageopacity="0.0"
     inkscape:pageshadow="2"
     inkscape:zoom="1.4960938"
     inkscape:cx="128"
     inkscape:cy="128"
     inkscape:document-units="px"
     inkscape:current-layer="layer1"
     showgrid="false"
     inkscape:window-width="1024"
     inkscape:window-height="553"
     inkscape:window-x="-4"
     inkscape:window-y="24"
     inkscape:window-maximized="1"
     inkscape:snap-bbox="true"
     inkscape:bbox-paths="true"
     inkscape:bbox-nodes="true"
     inkscape:snap-bbox-edge-midpoints="true"
     inkscape:snap-bbox-midpoints="true"
     inkscape:object-paths="true"
     inkscape:snap-intersection-paths="true"
     inkscape:object-nodes="true"
     inkscape:snap-smooth-nodes="true"
     inkscape:snap-midpoints="true"
     inkscape:snap-object-midpoints="true"
     inkscape:snap-center="true"
     inkscape:snap-nodes="true"
     fit-margin-top="0"
     fit-margin-left="0"
     fit-margin-right="0"
     fit-margin-bottom="0" />
  <metadata
     id="metadata4298">
    <rdf:RDF>
      <cc:Work
         rdf:about="">
        <dc:format>image/svg+xml</dc:format>
        <dc:type
           rdf:resource="http://purl.org/dc/dcmitype/StillImage" />
        <dc:title></dc:title>
      </cc:Work>
    </rdf:RDF>
  </metadata>
  <g
     inkscape:label="Layer 1"
     inkscape:groupmode="layer"
     id="layer1"
     transform="translate(-0.34952,-796.2014)">
    <g
       id="g3542"
       transform="translate(-9.7552,10.3464)">
      <path
         d="m 138.10472,785.85497 c -70.508469,0 -128,57.48886 -128,128 0,70.51115 57.491538,128.00003 128,128.00003 70.50849,0 128,-57.48889 128,-128.00003 0,-70.51113 -57.4915,-128 -128,-128 z m 0,96.19529 c 17.73168,0 31.80471,14.07215 31.80471,31.80471 0,17.73253 -14.07304,31.80471 -31.80471,31.80471 -17.73167,0 -31.80471,-14.07218 -31.80471,-31.80471 0,-17.73256 14.07303,-31.80471 31.80471,-31.80471 z"
         id="path3964"
         style="opacity:0.05;fill:#000000;fill-opacity:1;fill-rule:evenodd;stroke:none;display:inline"
         inkscape:connector-curvature="0" />
      <path
         d="m 138.10472,789.53762 c -68.507593,0 -124.31735,55.80711 -124.31735,124.31735 0,68.51026 55.809761,124.31733 124.31735,124.31733 68.50762,0 124.31735,-55.80708 124.31735,-124.31733 0,-68.51024 -55.80973,-124.31735 -124.31735,-124.31735 z m 0,88.82999 c 19.69997,0 35.48736,15.78649 35.48736,35.48736 0,19.70085 -15.78739,35.48736 -35.48736,35.48736 -19.69997,0 -35.48736,-15.78651 -35.48736,-35.48736 0,-19.70087 15.78739,-35.48736 35.48736,-35.48736 z"
         id="path3960"
         style="opacity:0.07999998;fill:#000000;fill-opacity:1;fill-rule:evenodd;stroke:none;display:inline"
         inkscape:connector-curvature="0" />
      <path
         d="m 138.10472,793.10867 c -66.598803,0 -120.746295,54.14486 -120.746295,120.7463 0,66.60145 54.147495,120.74633 120.746295,120.74633 66.59883,0 120.74629,-54.14488 120.74629,-120.74633 0,-66.60143 -54.14746,-120.7463 -120.74629,-120.7463 z m 0,81.68788 c 21.59793,0 39.05841,17.45957 39.05841,39.05842 0,21.59883 -17.46048,39.05841 -39.05841,39.05841 -21.59793,0 -39.058414,-17.45958 -39.058414,-39.05841 0,-21.59885 17.460484,-39.05842 39.058414,-39.05842 z"
         id="path3956"
         style="opacity:0.15;fill:#000000;fill-opacity:1;fill-rule:evenodd;stroke:none;display:inline"
         inkscape:connector-curvature="0" />
      <path
         d="m 138.10279,795.97422 c -65.046014,0 -117.83699,52.7931 -117.83699,117.84174 0,65.04865 52.790976,117.84174 117.83699,117.84174 65.04605,0 117.83699,-52.79309 117.83699,-117.84174 0,-65.04864 -52.79094,-117.84174 -117.83699,-117.84174 z m 0,75.89807 c 23.15197,0 41.94197,18.79076 41.94197,41.94367 0,23.15289 -18.79,41.94364 -41.94197,41.94364 -23.15197,0 -41.941968,-18.79075 -41.941968,-41.94364 0,-23.15291 18.789998,-41.94367 41.941968,-41.94367 z"
         inkscape:connector-curvature="0"
         id="path3950"
         style="opacity:0.3;fill:#000000;fill-opacity:1;fill-rule:evenodd;stroke:none;display:inline" />
      <path
         d="m 138.10279,855.818 c -30.03862,0 -54.424715,24.38709 -54.424715,54.4269 0,30.03981 24.386095,54.4269 54.424715,54.4269 30.03861,0 54.42472,-24.38706 54.42472,-54.4269 0,-30.03981 -24.38611,-54.4269 -54.42472,-54.4269 z m 0,38.44836 c 8.8198,0 15.9779,7.15839 15.9779,15.97854 0,8.82016 -7.1581,15.97852 -15.9779,15.97852 -8.81982,0 -15.9779,-7.15836 -15.9779,-15.97852 0,-8.82015 7.1581,-15.97854 15.9779,-15.97854 z"
         inkscape:connector-curvature="0"
         id="path3307"
         style="opacity:0.3;fill:#ffffff;fill-opacity:1;fill-rule:evenodd;stroke:none;display:inline" />
      <path
         d="m 138.10281,941.39691 a 31.15076,31.152017 0 1 1 0,-62.30403 31.15076,31.152017 0 1 1 0,62.30403 z"
         id="path3328"
         style="opacity:0.3;fill:url(#radialGradient3565);fill-opacity:1;fill-rule:evenodd;stroke:none;display:inline"
         inkscape:connector-curvature="0" />
      <path
         d="m 138.10278,924.77386 a 14.528357,14.528955 0 1 1 0,-29.05791 14.528357,14.528955 0 1 1 0,29.05791 z"
         id="path3352"
         style="opacity:0.6;fill:none;stroke:url(#linearGradient3567);stroke-width:3.5710547;stroke-linecap:round;stroke-linejoin:miter;stroke-miterlimit:4;stroke-opacity:1;stroke-dasharray:none;stroke-dashoffset:0;display:inline"
         inkscape:connector-curvature="0" />
      <path
         d="m 138.10279,792.40317 c -65.046029,0 -117.837001,52.7931 -117.837001,117.84173 0,65.04866 52.790976,117.8418 117.837001,117.8418 65.04604,0 117.83699,-52.79314 117.83699,-117.8418 0,-65.04863 -52.79095,-117.84173 -117.83699,-117.84173 z m 0,75.89807 c 23.15197,-10e-6 41.94196,18.79076 41.94196,41.94366 0,23.15289 -18.78999,41.94364 -41.94196,41.94364 -23.15197,0 -41.941982,-18.79075 -41.941982,-41.94364 0,-23.1529 18.790012,-41.94366 41.941982,-41.94366 z"
         inkscape:connector-curvature="0"
         id="path3170"
         style="fill:url(#linearGradient3569);fill-opacity:1;fill-rule:evenodd;stroke:none;display:inline" />
      <path
         d="M 197.02129,808.89673 C 140.68977,776.37241 68.575962,795.69603 36.052955,852.0298 3.5299438,908.36357 22.852783,980.48028 79.184288,1013.0046 c 56.331502,32.5243 128.445332,13.2007 160.968342,-43.13305 32.52302,-56.33378 13.20018,-128.45049 -43.13134,-160.97482 z m -37.94751,65.72965 c 20.05021,11.57646 26.92782,37.24512 15.35184,57.29613 -11.576,20.051 -37.24363,26.92889 -57.29382,15.35243 -20.050199,-11.57643 -26.927826,-37.2451 -15.35183,-57.29611 11.57597,-20.051 37.24361,-26.92889 57.29381,-15.35245 z"
         inkscape:connector-curvature="0"
         id="path3230"
         style="opacity:0.8;fill:url(#linearGradient3571);fill-opacity:1;fill-rule:evenodd;stroke:none;display:inline" />
      <path
         d="m 190.73914,910.60201 a 52.636355,52.638458 0 0 1 -105.272709,0 52.636355,52.638458 0 1 1 105.272709,0 z"
         id="path3304"
         style="opacity:0.15;fill:none;stroke:#000000;stroke-width:10.71316338;stroke-linecap:round;stroke-linejoin:miter;stroke-miterlimit:4;stroke-opacity:1;stroke-dasharray:none;stroke-dashoffset:0;display:inline"
         inkscape:connector-curvature="0" />
      <g
         transform="matrix(1.2267838,-1.5761212,1.5760578,1.2268331,-285.57068,742.44151)"
         id="g3289"
         style="display:inline">
        <g
           clip-path="url(#clipPath3271)"
           id="g3266">
          <path
             d="M 74.118027,277.11735 C 106.19881,271.5322 127.70249,240.96275 122.11734,208.88198 116.5322,176.8012 85.962749,155.29751 53.881978,160.88266 21.801203,166.46781 0.29750806,197.03725 5.8826547,229.11804 11.4678,261.19881 42.037246,282.70249 74.118027,277.11735 z m -6.516698,-37.43151 c -11.41858,1.98793 -22.299227,-5.66593 -24.287158,-17.08451 -1.987941,-11.41857 5.665921,-22.29923 17.084499,-24.28716 11.41858,-1.98793 22.299233,5.66593 24.28717,17.08451 1.987924,11.41857 -5.665932,22.29923 -17.084511,24.28716 z"
             inkscape:connector-curvature="0"
             id="path3259"
             style="fill:url(#linearGradient3573);fill-opacity:1;fill-rule:evenodd;stroke:none;display:inline" />
          <path
             d="M 94.776853,269.3268 C 122.55724,252.33798 131.31561,216.00355 114.32679,188.22315 97.337964,160.44278 61.003543,151.6844 33.223145,168.67322 5.4427579,185.66204 -3.3156068,221.99648 13.673211,249.77686 30.662035,277.55725 66.996455,286.31562 94.776853,269.3268 z M 74.954469,236.91293 c -9.88793,6.04687 -22.820523,2.92947 -28.867393,-6.95846 -6.046863,-9.88793 -2.929476,-22.82053 6.958454,-28.86739 9.887938,-6.04686 22.820537,-2.92949 28.867401,6.95845 6.046855,9.88793 2.929476,22.82053 -6.958462,28.8674 z"
             inkscape:connector-curvature="0"
             id="path3231"
             style="fill:url(#linearGradient3575);fill-opacity:1;fill-rule:evenodd;stroke:none;display:inline" />
          <path
             d="m 36.153689,271.00561 c 28.707102,15.37117 64.480751,4.54779 79.851921,-24.1593 15.37116,-28.70708 4.5478,-64.48074 -24.159308,-79.85191 -28.707087,-15.37116 -64.480736,-4.5478 -79.851909,24.15931 -15.371173,28.70708 -4.5478122,64.48073 24.159296,79.8519 z m 17.934913,-33.49512 c -10.217773,-5.4711 -14.070163,-18.2041 -8.599064,-28.42189 5.471077,-10.21777 18.204079,-14.07015 28.421859,-8.59906 10.217787,5.47108 14.07017,18.2041 8.599071,28.42186 -5.471084,10.21778 -18.204093,14.07016 -28.421866,8.59909 z"
             inkscape:connector-curvature="0"
             id="path3243"
             style="fill:url(#linearGradient3577);fill-opacity:1;fill-rule:evenodd;stroke:none;display:inline" />
        </g>
        <g
           transform="matrix(1,0,0,-1,0,438.00336)"
           clip-path="url(#clipPath3271)"
           id="g3275">
          <path
             d="M 74.118027,277.11735 C 106.19881,271.5322 127.70249,240.96275 122.11734,208.88198 116.5322,176.8012 85.962749,155.29751 53.881978,160.88266 21.801203,166.46781 0.29750806,197.03725 5.8826547,229.11804 11.4678,261.19881 42.037246,282.70249 74.118027,277.11735 z m -6.516698,-37.43151 c -11.41858,1.98793 -22.299227,-5.66593 -24.287158,-17.08451 -1.987941,-11.41857 5.665921,-22.29923 17.084499,-24.28716 11.41858,-1.98793 22.299233,5.66593 24.28717,17.08451 1.987924,11.41857 -5.665932,22.29923 -17.084511,24.28716 z"
             inkscape:connector-curvature="0"
             id="path3277"
             style="fill:url(#linearGradient3579);fill-opacity:1;fill-rule:evenodd;stroke:none;display:inline" />
          <path
             d="M 94.776853,269.3268 C 122.55724,252.33798 131.31561,216.00355 114.32679,188.22315 97.337964,160.44278 61.003543,151.6844 33.223145,168.67322 5.4427579,185.66204 -3.3156068,221.99648 13.673211,249.77686 30.662035,277.55725 66.996455,286.31562 94.776853,269.3268 z M 74.954469,236.91293 c -9.88793,6.04687 -22.820523,2.92947 -28.867393,-6.95846 -6.046863,-9.88793 -2.929476,-22.82053 6.958454,-28.86739 9.887938,-6.04686 22.820537,-2.92949 28.867401,6.95845 6.046855,9.88793 2.929476,22.82053 -6.958462,28.8674 z"
             inkscape:connector-curvature="0"
             id="path3279"
             style="fill:url(#linearGradient3581);fill-opacity:1;fill-rule:evenodd;stroke:none;display:inline" />
          <path
             d="m 36.153689,271.00561 c 28.707102,15.37117 64.480751,4.54779 79.851921,-24.1593 15.37116,-28.70708 4.5478,-64.48074 -24.159308,-79.85191 -28.707087,-15.37116 -64.480736,-4.5478 -79.851909,24.15931 -15.371173,28.70708 -4.5478122,64.48073 24.159296,79.8519 z m 17.934913,-33.49512 c -10.217773,-5.4711 -14.070163,-18.2041 -8.599064,-28.42189 5.471077,-10.21777 18.204079,-14.07015 28.421859,-8.59906 10.217787,5.47108 14.07017,18.2041 8.599071,28.42186 -5.471084,10.21778 -18.204093,14.07016 -28.421866,8.59909 z"
             inkscape:connector-curvature="0"
             id="path3281"
             style="fill:url(#linearGradient3583);fill-opacity:1;fill-rule:evenodd;stroke:none;display:inline" />
        </g>
      </g>
      <path
         d="m 138.10472,792.4391 c -65.046016,0 -117.844813,52.79618 -117.844813,117.84481 0,1.20489 0.07564,2.37484 0.111596,3.57106 1.872047,-63.41483 53.870138,-114.27376 117.733217,-114.27376 63.86311,0 115.86117,50.85893 117.73322,114.27376 0.036,-1.19622 0.11159,-2.36617 0.11159,-3.57106 0,-65.04863 -52.79876,-117.84481 -117.84481,-117.84481 z"
         inkscape:connector-curvature="0"
         id="path3933"
         style="opacity:0.8;fill:#ffffff;fill-opacity:1;fill-rule:evenodd;stroke:none;display:inline" />
      <path
         d="m 173.01937,910.25726 c 0,-18.93386 -15.46428,-34.59619 -34.93502,-34.59619 -19.47074,0 -34.89717,15.66233 -34.89717,34.59619 0,18.93386 15.42643,34.56467 34.89717,34.56467 19.47074,0 34.93502,-15.63081 34.93502,-34.56467 z m -3.93634,0 c 0,17.46805 -14.06898,31.31931 -30.99868,31.31931 -16.9297,0 -30.96083,-13.85126 -30.96083,-31.31931 0,-17.46805 14.03113,-31.35083 30.96083,-31.35083 16.9297,0 30.99868,13.88278 30.99868,31.35083 z"
         inkscape:connector-curvature="0"
         id="path3942"
         style="font-size:medium;font-style:normal;font-variant:normal;font-weight:normal;font-stretch:normal;text-indent:0;text-align:start;text-decoration:none;line-height:normal;letter-spacing:normal;word-spacing:normal;text-transform:none;direction:ltr;block-progression:tb;writing-mode:lr-tb;text-anchor:start;opacity:0.5;color:#000000;fill:url(#linearGradient3585);fill-opacity:1;stroke:none;stroke-width:3.23149872;marker:none;visibility:visible;display:inline;overflow:visible;enable-background:accumulate;font-family:Abandoned Bitplane;-inkscape-font-specification:Abandoned Bitplane" />
    </g>
    <g
       id="g8103">
      <path
         d="m 155.99819,989.39871 c -0.005,0.19873 -0.0118,0.36198 -0.0183,0.4204 -0.051,0.44775 0,0.65938 -1.29101,0.65938 -1.29089,0 -1.23999,-0.21163 -1.29089,-0.65938 -0.0165,-0.14576 -0.032,-0.94296 -0.0303,-1.31596 0.002,-0.373 0.0138,-1.17019 0.0303,-1.31589 0.051,-0.44775 0,-0.65945 1.29089,-0.65945 1.29101,0 1.24005,0.2117 1.29101,0.65945 0.007,0.061 0.0131,0.23666 0.018,0.4475 l 1.76596,-6e-5 c -0.0113,-0.40022 -0.0303,-0.73462 -0.05,-0.90889 -0.10177,-0.89549 0.25096,-1.75294 -3.0229,-1.75294 -3.27381,-6e-5 -2.92105,0.85745 -3.02289,1.75294 -0.0331,0.29146 -0.0639,1.03134 -0.0606,1.77735 0.003,0.74599 0.0275,1.48588 0.0606,1.77741 0.10192,0.89543 -0.25092,1.75294 3.02289,1.75294 3.27392,0 2.92112,-0.85751 3.0229,-1.75294 0.0194,-0.17029 0.0357,-0.49362 0.0466,-0.88179 l -1.76217,-6e-5 0,-10e-6 z"
         style="fill:#000000"
         id="_58592456"
         inkscape:connector-curvature="0" />
      <polygon
         transform="matrix(15.536526,0,0,15.536526,92.851532,984.62068)"
         points="2.71661,0.0341929 2.60572,0.358185 2.4948,0.0341929 2.32888,0.0333307 2.32888,0.46822 2.4398,0.46822 2.4398,0.144228 2.55069,0.46822 2.66161,0.46822 2.77164,0.144228 2.77164,0.46822 2.88254,0.46822 2.88254,0.0333307 2.71661,0.0341929 "
         style="fill:#000000"
         id="_58339264" />
      <polygon
         transform="matrix(15.536526,0,0,15.536526,92.851532,984.62068)"
         points="4.20294,0.144228 4.20294,0.0333307 4.20294,0.0333307 4.52169,0.0333307 4.52169,0.144228 4.41776,0.144228 4.41776,0.46822 4.30686,0.46822 4.30686,0.144228 "
         style="fill:#000000"
         id="_58829024" />
      <polygon
         transform="matrix(15.536526,0,0,15.536526,92.851532,984.62068)"
         points="3.4589,0.46822 3.348,0.46822 3.348,0.46822 3.47521,0.0328976 3.64054,0.0328976 3.76804,0.46822 3.65714,0.46822 3.63094,0.378268 3.48542,0.378268 3.50604,0.307535 3.60999,0.307535 3.55846,0.130256 "
         style="fill:#000000"
         id="_58332768" />
      <path
         d="m 124.88474,986.52782 c 1.29101,0 1.23999,0.2117 1.29095,0.65945 0.0166,0.1457 0.0287,0.94289 0.0303,1.31589 0.002,0.373 -0.0138,1.17026 -0.0303,1.31596 -0.051,0.44774 0,0.65938 -1.29095,0.65938 -1.29094,0 -1.24005,-0.21164 -1.29094,-0.65938 -0.0166,-0.14577 -0.032,-0.94296 -0.0303,-1.31596 0.002,-0.373 0.0138,-1.17019 0.0303,-1.31589 0.051,-0.44775 0,-0.65945 1.29094,-0.65945 l 0.002,-1.555 c -3.27375,0 -2.92099,0.8575 -3.02277,1.753 -0.0331,0.29146 -0.0639,1.03134 -0.0607,1.77734 0.003,0.746 0.0275,1.48588 0.0607,1.77741 0.10192,0.89543 -0.25098,1.75294 3.02271,1.75294 3.27385,0 2.92111,-0.8575 3.02289,-1.75294 0.0331,-0.29152 0.0575,-1.0314 0.0607,-1.77741 0.003,-0.74599 -0.0275,-1.48587 -0.0607,-1.77734 -0.10176,-0.89549 0.25098,-1.75294 -3.02289,-1.75294 l -0.002,1.55494 0,0 z"
         style="fill:#000000"
         id="_58606024"
         inkscape:connector-curvature="0" />
      <path
         d="m 119.06693,989.39871 c -0.005,0.19873 -0.0117,0.36198 -0.0183,0.4204 -0.0508,0.44775 0,0.65938 -1.29094,0.65938 -1.29089,0 -1.23999,-0.21163 -1.29095,-0.65938 -0.0165,-0.14576 -0.0319,-0.94296 -0.0303,-1.31596 0.002,-0.373 0.0138,-1.17019 0.0303,-1.31589 0.051,-0.44775 0,-0.65945 1.29095,-0.65945 1.291,0 1.24004,0.2117 1.29094,0.65945 0.007,0.061 0.0132,0.23666 0.0182,0.4475 l 1.76596,-6e-5 c -0.0114,-0.40022 -0.0303,-0.73462 -0.05,-0.90889 -0.10176,-0.89549 0.25091,-1.75294 -3.0229,-1.75294 -3.27381,-6e-5 -2.92105,0.85745 -3.02283,1.75294 -0.0331,0.29146 -0.0639,1.03134 -0.0606,1.77735 0.003,0.74599 0.0275,1.48588 0.0606,1.77741 0.10177,0.89543 -0.25096,1.75294 3.02283,1.75294 3.27386,0 2.92112,-0.85751 3.0229,-1.75294 0.0193,-0.17029 0.0357,-0.49362 0.0466,-0.88179 l -1.76223,-6e-5 0,-10e-6 z"
         style="fill:#000000"
         id="_58847472"
         inkscape:connector-curvature="0" />
      <path
         d="m 141.83167,990.34987 -1.04547,-5.5e-4 0,-1.5413 1.04524,-0.006 c 1.29095,0 1.25088,-0.21164 1.30176,-0.65938 0.0166,-0.14577 0.0132,-0.026 0.0116,-0.399 -0.002,-0.37306 0.005,-0.24491 -0.0116,-0.39061 -0.051,-0.44781 -0.0108,-0.65945 -1.30176,-0.65945 l -1.04578,0.003 0.002,5.19245 -1.72638,0 0,-6.74995 2.7707,-6e-5 c 3.27386,0 2.915,0.8597 3.03544,1.75287 0.0144,0.10576 0.0143,0.59424 0.0143,0.85757 6e-5,0.21152 0,0.7 -0.0143,0.85488 -0.0827,0.89745 0.23837,1.74608 -3.03544,1.74608 l -1e-5,0 z"
         style="fill:#000000"
         id="_58005976"
         inkscape:connector-curvature="0" />
      <path
         d="m 160.07917,1022.2651 c 1.29099,0 1.24005,0.2117 1.29094,0.6594 0.0166,0.1457 0.0288,0.943 0.0303,1.316 0.002,0.3729 -0.0137,1.1702 -0.0303,1.3159 -0.0508,0.4477 0,0.6594 -1.29094,0.6594 -1.29089,0 -1.23999,-0.2116 -1.29089,-0.6594 -0.0165,-0.1457 -0.032,-0.943 -0.0303,-1.3159 0.002,-0.3731 0.0138,-1.1702 0.0303,-1.316 0.051,-0.4478 0,-0.6594 1.29089,-0.6594 l 0.002,-1.5549 c -3.27381,0 -2.92112,0.8574 -3.0229,1.7529 -0.0332,0.2914 -0.0639,1.0314 -0.0607,1.7774 0.003,0.7459 0.0275,1.4859 0.0607,1.7773 0.10192,0.8955 -0.25096,1.753 3.02284,1.753 3.27385,0 2.92105,-0.8575 3.02289,-1.753 0.0331,-0.2915 0.0575,-1.0314 0.0606,-1.7773 0.003,-0.7461 -0.0275,-1.4859 -0.0606,-1.7774 -0.10176,-0.8955 0.25096,-1.7529 -3.02289,-1.7529 l -0.002,1.5549 0,0 z"
         style="fill:#000000"
         id="_58004040"
         inkscape:connector-curvature="0" />
      <polygon
         transform="matrix(15.536526,0,0,15.536526,92.851532,984.62068)"
         points="2.68265,2.76422 2.57176,2.76422 2.57176,2.76422 2.69896,2.32889 2.8643,2.32889 2.9918,2.76422 2.88089,2.76422 2.85469,2.67426 2.70917,2.67426 2.72979,2.60353 2.83374,2.60353 2.78221,2.42625 "
         style="fill:#000000"
         id="_58041912" />
      <polygon
         transform="matrix(15.536526,0,0,15.536526,92.851532,984.62068)"
         points="1.75846,2.76422 1.64756,2.76422 1.64756,2.76422 1.77477,2.32889 1.9401,2.32889 2.06759,2.76422 1.9567,2.76422 1.9305,2.67426 1.78498,2.67426 1.8056,2.60353 1.90954,2.60353 1.85802,2.42625 "
         style="fill:#000000"
         id="_58000272" />
      <polygon
         transform="matrix(15.536526,0,0,15.536526,92.851532,984.62068)"
         points="0.625579,2.33354 0.625579,2.76843 0.514669,2.76843 0.514669,2.33354 0.625579,2.33354 "
         style="fill:#000000"
         id="_58002936" />
      <polygon
         transform="matrix(15.536526,0,0,15.536526,92.851532,984.62068)"
         points="1.27441,2.33354 1.27441,2.76843 1.1635,2.76843 1.1635,2.33354 1.27441,2.33354 "
         style="fill:#000000"
         id="_58834912" />
      <polygon
         transform="matrix(15.536526,0,0,15.536526,92.851532,984.62068)"
         points="1.33335,2.44443 1.33335,2.33354 1.33335,2.33354 1.65211,2.33354 1.65211,2.44443 1.54818,2.44443 1.54818,2.76843 1.43728,2.76843 1.43728,2.44443 "
         style="fill:#000000"
         id="_58366056" />
      <polygon
         transform="matrix(15.536526,0,0,15.536526,92.851532,984.62068)"
         points="2.23894,2.6584 2.23894,2.33354 2.12803,2.33354 2.12803,2.76887 2.41446,2.76887 2.41446,2.6584 2.23894,2.6584 "
         style="fill:#000000"
         id="_58602296" />
      <polygon
         transform="matrix(15.536526,0,0,15.536526,92.851532,984.62068)"
         points="4.0619,2.33354 4.0619,2.76843 3.951,2.76843 3.951,2.33354 4.0619,2.33354 "
         style="fill:#000000"
         id="_57319360" />
      <path
         d="m 149.1688,1020.8798 0.93617,0 c 3.27385,0 2.92105,0.8615 3.02289,1.757 0.0331,0.2915 0.0639,0.8143 0.0606,1.5603 -0.003,0.746 -0.0275,1.391 -0.0606,1.6825 -0.10192,0.8954 0.25092,1.7529 -3.02289,1.7529 l -3.00528,0 0,-6.7527 2.06911,0 -0.0272,1.5528 -0.31202,-0 0,3.6607 1.27333,-0.014 c 1.29094,0 1.24004,-0.2116 1.29094,-0.6594 0.0166,-0.1458 0.032,-0.8481 0.0303,-1.221 -0.002,-0.373 -0.0138,-0.9531 -0.0303,-1.0989 -0.051,-0.4478 0,-0.6594 -1.29101,-0.6594 l -0.96124,-0.01 0.0272,-1.5528 0,0 z"
         style="fill:#000000"
         id="_57953720"
         inkscape:connector-curvature="0" />
      <path
         d="m 145.96858,1024.2404 -0.002,-3.3648 -1.76065,0 0,3.3648 c 0.002,0.373 -0.0138,1.1702 -0.0303,1.316 -0.051,0.4477 0,0.6594 -1.29095,0.6594 -1.29088,0 -1.24005,-0.2117 -1.29094,-0.6594 -0.0165,-0.1457 -0.0294,-0.943 -0.0278,-1.316 l 0.003,-3.3647 -1.76542,0 0,3.3647 c 0.003,0.746 0.0275,1.4859 0.0606,1.7774 0.10177,0.8955 -0.25097,1.753 3.0229,1.753 3.27386,-10e-5 2.92105,-0.8575 3.02289,-1.753 0.0331,-0.2915 0.0556,-1.0314 0.0587,-1.7774 l 1e-5,0 z"
         style="fill:#000000"
         id="_57974016"
         inkscape:connector-curvature="0" />
      <path
         d="m 108.05415,1025.1361 c -0.005,0.1986 -0.0117,0.3619 -0.0184,0.4204 -0.0509,0.4476 0,0.6593 -1.29088,0.6593 -1.29094,0 -1.24005,-0.2116 -1.291,-0.6593 -0.0165,-0.1458 -0.0319,-0.9431 -0.0303,-1.316 0.002,-0.3731 0.0138,-1.1702 0.0303,-1.316 0.051,-0.4478 0,-0.6593 1.291,-0.6593 1.29088,-1e-4 1.23999,0.2116 1.29088,0.6593 0.007,0.061 0.0132,0.02 0.018,0.2305 l 1.76602,0 c -0.0114,-0.4003 -0.0303,-0.5176 -0.05,-0.6919 -0.10192,-0.8955 0.25091,-1.7529 -3.0229,-1.7529 -3.27381,0 -2.92105,0.8575 -3.02289,1.7529 -0.0331,0.2915 -0.0637,1.0314 -0.0606,1.7774 0.003,0.7459 0.0275,1.4859 0.0606,1.7773 0.10184,0.8955 -0.25091,1.753 3.02289,1.753 3.27386,0 2.92106,-0.8575 3.0229,-1.753 0.0194,-0.1703 0.0357,-0.4935 0.0466,-0.8817 l -1.76223,0 0,-10e-5 z"
         style="fill:#000000"
         id="_57950280"
         inkscape:connector-curvature="0" />
      <polygon
         transform="matrix(15.536526,0,0,15.536526,92.851532,984.62068)"
         points="0.894102,2.53789 0.894102,2.60775 1.09193,2.60775 1.09193,2.53789 0.894102,2.53789 "
         style="fill:#000000"
         id="_57977608" />
      <path
         d="m 95.725789,1020.8798 0.936168,0 c 3.273856,0 2.921115,0.8615 3.022895,1.757 0.03315,0.2915 0.06379,0.8143 0.06062,1.5603 -0.0031,0.746 -0.02747,1.391 -0.06062,1.6825 -0.10178,0.8954 0.250969,1.7529 -3.022895,1.7529 l -3.005277,0 0,-6.7527 2.069108,0 -0.0271,1.5528 -0.312076,-0 0,3.6607 1.273383,-0.014 c 1.290939,0 1.239986,-0.2116 1.290877,-0.6594 0.01658,-0.1458 0.03193,-0.8481 0.03034,-1.221 -0.0015,-0.373 -0.01376,-0.9531 -0.03034,-1.0989 -0.0509,-0.4478 0,-0.6594 -1.290939,-0.6594 l -0.961246,-0.01 0.0271,-1.5528 3e-6,0 z"
         style="fill:#000000"
         id="_58059312"
         inkscape:connector-curvature="0" />
      <path
         d="m 108.32231,1017.3372 -10.785412,-0.013 c -1.560567,0 -2.825504,-1.2652 -2.825504,-2.8256 l 0,-16.41696 c 0,-1.56063 1.264942,-2.82551 2.825504,-2.82551 l 6.750182,-0.008 c 0.81066,0 1.46796,-0.65706 1.46796,-1.4679 l 0.0198,-6.56393 c 0,-0.33972 0.2755,-0.61522 0.61523,-0.61522 l 3.95723,0 c 0.33972,0 0.6154,0.2755 0.6154,0.61522 l 0.0405,29.50694 c 0,0.3397 -0.27543,0.6154 -0.61517,0.6154 l -2.06575,-0 -0.0502,1.4661 2.69926,-8e-4 c 0.81058,0 1.46789,-0.657 1.46789,-1.4679 l 0,-30.74428 c 0,-0.81059 -0.65731,-1.46771 -1.46789,-1.46771 l -5.19177,0 c -0.81053,0 -1.46789,0.65712 -1.46789,1.46771 l 0.007,6.58039 c 0,0.33972 -0.27556,0.61546 -0.61547,0.61546 l -6.166708,-0.0113 c -2.378922,0 -4.307533,1.92836 -4.307533,4.3074 l 0,16.41684 c 0,2.3788 1.928549,4.3074 4.307533,4.3074 l 10.735198,-0 0.0502,-1.466 0,1e-4 z"
         style="fill:#000000"
         id="_58027024"
         inkscape:connector-curvature="0" />
      <path
         d="m 104.31143,1011.2943 0,-10.621 c 0,-0.89008 -0.72159,-1.61161 -1.61182,-1.61161 -0.89005,-6e-5 -1.61164,0.7216 -1.61164,1.61161 l 0,11.4648 c 0,0.89 0.7216,1.6118 1.61164,1.6118 0.89023,0 1.61182,-0.7217 1.61182,-1.6118 l 0,-0.8438 1.46514,0.05 0,0.7936 c 0,1.6992 -1.37767,3.0768 -3.07696,3.0768 -1.69911,0 -3.076715,-1.3776 -3.076715,-3.0767 l 0,-11.4648 c 0,-1.69911 1.377615,-3.07672 3.076715,-3.07672 1.69929,0 3.0769,1.37762 3.0769,3.07672 l 6e-5,10.6712 -1.46514,-0.05 0,0 z"
         style="fill:#000000"
         id="_57444416"
         inkscape:connector-curvature="0" />
      <path
         d="m 118.57349,1017.337 -2.01858,2e-4 c -0.33997,0 -0.61546,-0.2757 -0.61546,-0.6154 l 0.0247,-20.83686 c 0,-0.33997 0.27543,-0.61541 0.6154,-0.61541 l 3.95723,0 c 0.33991,0 0.6154,0.27544 0.6154,0.61541 l 0.0405,20.83646 c 0,0.3399 -0.27549,0.6154 -0.61521,0.6154 l -2.00415,2e-4 0,1.4601 2.58744,0 c 0.81083,0 1.46789,-0.6571 1.46789,-1.4677 l 6e-5,-22.07412 c 0,-0.81059 -0.65712,-1.4679 -1.46795,-1.4679 l -5.19195,0 c -0.81059,0 -1.46772,0.65731 -1.46772,1.46796 l -0.003,22.06836 c 0,0.8109 0.6521,1.4681 1.4627,1.4681 l 2.61257,0 0,-1.4602 10e-6,0 z"
         style="fill:#000000"
         id="_59621320"
         inkscape:connector-curvature="0" />
      <path
         d="m 137.21639,999.36943 -4.34741,-0.006 c -1.33767,0 -2.42247,1.08481 -2.42247,2.42251 6e-5,1.3378 1.0848,2.4224 2.42247,2.4224 l 5.9563,0.016 c 1.56038,0 2.82556,1.2652 2.82556,2.8256 l -0.0199,7.415 c 0,1.5607 -1.26519,2.8256 -2.82557,2.8256 l -11.82384,0.021 c -0.33972,0 -0.61546,-0.2756 -0.61546,-0.6154 l 0,-2.8718 c 0,-0.3399 0.27568,-0.6154 0.6154,-0.6154 l 8.05838,-0.026 c 1.33785,0 2.42265,-1.0845 2.42265,-2.4224 0,-1.3379 -1.0848,-2.4225 -2.42272,-2.4225 l -5.83402,-0.023 c -1.56038,0 -2.82563,-1.2652 -2.82563,-2.8256 l 0,-7.408 c 0,-1.56063 1.26518,-2.8255 2.82556,-2.8255 l 10.96035,-0.0513 c 0.33973,0 0.61516,0.27575 0.61516,0.61547 l 3e-4,2.93726 c 0,0.33978 -0.27555,0.61547 -0.61552,0.61547 l -2.94955,-0.004 -0.0502,1.4442 3.60484,0 c 0.81059,0 1.4679,-0.6521 1.4679,-1.46273 l 0.005,-4.11462 c 0,-0.81077 -0.65712,-1.4679 -1.46795,-1.4679 l -11.57068,0.005 c -2.37879,0 -4.3074,1.92837 -4.3074,4.30741 l 6e-5,7.40794 c 0,2.3788 1.92848,4.3073 4.30728,4.3073 l 5.83415,-0.01 c 0.53791,0 0.97379,0.4358 0.97379,0.9736 0,0.5379 -0.43588,0.9738 -0.97385,0.9738 l -8.68517,-0 c -0.81064,0 -1.46776,0.6571 -1.46776,1.468 l 6e-5,4.1063 c 0,0.8108 0.65705,1.4679 1.46766,1.4679 l 12.45081,-0 c 2.3788,0 4.30735,-1.9283 4.30735,-4.3074 l 0.0199,-7.4151 c 0,-2.3788 -1.92855,-4.3073 -4.30735,-4.3073 l -5.9563,0.017 c -0.53772,0 -0.9736,-0.4359 -0.9736,-0.9738 0,-0.5378 0.43588,-0.9736 0.9736,-0.9736 l 4.2972,0 0.0502,-1.44413 -2e-5,10e-6 z"
         style="fill:#000000"
         id="_57306704"
         inkscape:connector-curvature="0" />
      <path
         d="m 159.12585,1003.4432 1.86719,0 c 0.33991,0 0.61534,-0.2755 0.61534,-0.6154 l -0.008,-4.7457 c 0,-1.56063 -1.26493,-2.8255 -2.82556,-2.8255 l -9.34106,0 c -1.56057,0 -2.82575,1.26494 -2.82575,2.82556 l 0,16.41684 c 0,1.5604 1.26512,2.8256 2.82575,2.8256 l 9.34106,0 c 1.56063,0 2.82556,-1.2652 2.82556,-2.8256 l 0.008,-4.5123 c 0,-0.3399 -0.27543,-0.6154 -0.6154,-0.6154 l -3.52386,0 c -0.33978,0 -0.61527,0.2755 -0.61527,0.6154 l 0.0199,2.1515 c 0,1.6991 -1.07006,3.0767 -2.7691,3.0767 -1.69936,0 -2.76911,-1.3776 -2.76911,-3.0767 l 0,-11.4648 c 0,-1.69907 1.06975,-3.07668 2.76911,-3.07668 1.6991,0 2.76904,1.37762 2.76904,3.07668 l -0.0197,2.1543 c 0,0.34 0.27543,0.6155 0.61517,0.6155 l 1.65678,0 -0.0502,1.4794 -2.21695,0 c -0.81059,0 -1.46789,-0.6573 -1.46789,-1.4679 l 0.0179,-2.7813 c 0,-0.89009 -0.41398,-1.61161 -1.30402,-1.61161 -0.89029,-6e-5 -1.30428,0.72159 -1.30428,1.61161 l 0,11.4648 c 0,0.89 0.41399,1.6118 1.30428,1.6118 0.89004,0 1.30396,-0.7217 1.30396,-1.6118 l -0.0177,-2.7784 c 0,-0.8106 0.6573,-1.468 1.46789,-1.468 l 4.75846,0 c 0.81084,0 1.4679,0.6574 1.4679,1.468 l -0.003,5.1392 c 0,2.3788 -1.92837,4.3074 -4.30741,4.3074 l -9.34106,0 c -2.37898,0 -4.30759,-1.9286 -4.30759,-4.3074 l 0,-16.41701 c 0,-2.37898 1.92861,-4.30728 4.30759,-4.30728 l 9.34106,-6e-5 c 2.37904,0 4.30735,1.92836 4.30735,4.30741 l 0.002,5.37254 c 0,0.8106 -0.65711,1.4679 -1.46789,1.4679 l -2.54151,0 0.0502,-1.4794 0,1e-4 z"
         style="fill:#000000"
         id="_57310208"
         inkscape:connector-curvature="0" />
    </g>
    <g
       id="g5102"
       transform="matrix(1.3445006,0,0,1.3445006,-241.16134,727.3335)">
      <rect
         y="79.229965"
         x="315.18787"
         height="133.51897"
         width="7.508194"
         id="rect3554"
         style="fill:url(#linearGradient8042);fill-opacity:1;stroke:#000000;stroke-width:1.15574682000000006;stroke-linecap:round;stroke-linejoin:round;stroke-miterlimit:4;stroke-opacity:1;stroke-dasharray:none" />
      <path
         inkscape:connector-curvature="0"
         sodipodi:nodetypes="csccc"
         id="path3564-7"
         d="m 322.36996,79.494545 c 9.37902,31.015665 43.36287,36.254535 43.8766,71.704435 0.13135,9.06322 0.22009,17.12437 -17.92979,34.35338 10.45338,-21.94507 -3.53585,-69.06365 -25.13676,-44.30272 l -0.81005,-61.755094 z"
         style="fill:url(#linearGradient8044);fill-opacity:1;fill-rule:evenodd;stroke:#000000;stroke-width:0.88084328000000001;stroke-linecap:round;stroke-linejoin:round;stroke-miterlimit:4;stroke-opacity:1;stroke-dasharray:none" />
      <path
         inkscape:connector-curvature="0"
         style="fill:none;stroke:#ddd9d9;stroke-width:0.88084328;stroke-linecap:round;stroke-linejoin:round;stroke-miterlimit:4;stroke-opacity:1;stroke-dasharray:none"
         d="m 322.72014,80.154525 c 9.37903,31.015665 43.36289,36.254525 43.87662,71.704435"
         id="path3582"
         sodipodi:nodetypes="cs" />
      <path
         transform="matrix(1.2476283,-0.40672394,0.40672394,1.2476283,219.92841,138.4369)"
         d="m 57.597174,75.526505 c 0,8.196451 -9.769052,14.840989 -21.819788,14.840989 -12.050736,0 -21.819788,-6.644538 -21.819788,-14.840989 0,-8.196452 9.769052,-14.84099 21.819788,-14.84099 12.050736,0 21.819788,6.644538 21.819788,14.84099 z"
         sodipodi:ry="14.840989"
         sodipodi:rx="21.819788"
         sodipodi:cy="75.526505"
         sodipodi:cx="35.777386"
         id="path3497"
         style="fill:#000000;fill-opacity:1;stroke:none"
         sodipodi:type="arc" />
      <path
         sodipodi:type="arc"
         style="fill:url(#linearGradient8046);fill-opacity:1;stroke:none"
         id="path3507"
         sodipodi:cx="35.777386"
         sodipodi:cy="75.526505"
         sodipodi:rx="21.819788"
         sodipodi:ry="14.840989"
         d="m 57.597174,75.526505 c 0,8.196451 -9.769052,14.840989 -21.819788,14.840989 -12.050736,0 -21.819788,-6.644538 -21.819788,-14.840989 0,-8.196452 9.769052,-14.84099 21.819788,-14.84099 12.050736,0 21.819788,6.644538 21.819788,14.84099 z"
         transform="matrix(1.0412599,-0.3745956,0.41390642,0.88136248,225.49411,160.54513)" />
      <path
         sodipodi:open="true"
         sodipodi:end="2.650992"
         sodipodi:start="0.58167691"
         sodipodi:type="arc"
         style="fill:url(#linearGradient8048);fill-opacity:1;stroke:url(#linearGradient8050);stroke-width:0.69999999;stroke-linecap:round;stroke-linejoin:round;stroke-miterlimit:4;stroke-opacity:1;stroke-dasharray:none"
         id="path3517-3"
         sodipodi:cx="35.777386"
         sodipodi:cy="75.526505"
         sodipodi:rx="21.819788"
         sodipodi:ry="14.840989"
         d="M 54.008746,83.680527 C 47.38776,90.529011 33.857932,92.430124 23.78903,87.926781 20.743688,86.564744 18.248486,84.705541 16.531241,82.518922"
         transform="matrix(1.2476283,-0.40672394,0.40672394,1.2476283,219.69656,137.27767)" />
    </g>
  </g>
  <style
     type="text/css"
     id="style4186">

	.st0{fill-rule:evenodd;clip-rule:evenodd;}
	.st1{fill-rule:evenodd;clip-rule:evenodd;fill:#5A9A98;}

</style>
  <style
     type="text/css"
     id="style4186-8">

	.st0{fill-rule:evenodd;clip-rule:evenodd;}
	.st1{fill-rule:evenodd;clip-rule:evenodd;fill:#5A9A98;}

</style>
  <style
     id="style4186-5"
     type="text/css">

	.st0{fill-rule:evenodd;clip-rule:evenodd;}
	.st1{fill-rule:evenodd;clip-rule:evenodd;fill:#5A9A98;}

</style>
  <style
     id="style4186-8-6"
     type="text/css">

	.st0{fill-rule:evenodd;clip-rule:evenodd;}
	.st1{fill-rule:evenodd;clip-rule:evenodd;fill:#5A9A98;}

</style>
  <style
     type="text/css"
     id="style4186-9">

	.st0{fill-rule:evenodd;clip-rule:evenodd;}
	.st1{fill-rule:evenodd;clip-rule:evenodd;fill:#5A9A98;}

</style>
  <style
     type="text/css"
     id="style4186-8-0">

	.st0{fill-rule:evenodd;clip-rule:evenodd;}
	.st1{fill-rule:evenodd;clip-rule:evenodd;fill:#5A9A98;}

</style>
  <style
     id="style4186-5-3"
     type="text/css">

	.st0{fill-rule:evenodd;clip-rule:evenodd;}
	.st1{fill-rule:evenodd;clip-rule:evenodd;fill:#5A9A98;}

</style>
  <style
     id="style4186-8-2"
     type="text/css">

	.st0{fill-rule:evenodd;clip-rule:evenodd;}
	.st1{fill-rule:evenodd;clip-rule:evenodd;fill:#5A9A98;}

</style>
  <style
     id="style4186-1"
     type="text/css">

	.st0{fill-rule:evenodd;clip-rule:evenodd;}
	.st1{fill-rule:evenodd;clip-rule:evenodd;fill:#5A9A98;}

</style>
  <style
     id="style4186-8-5"
     type="text/css">

	.st0{fill-rule:evenodd;clip-rule:evenodd;}
	.st1{fill-rule:evenodd;clip-rule:evenodd;fill:#5A9A98;}

</style>
  <style
     type="text/css"
     id="style4186-7">

	.st0{fill-rule:evenodd;clip-rule:evenodd;}
	.st1{fill-rule:evenodd;clip-rule:evenodd;fill:#5A9A98;}

</style>
  <style
     type="text/css"
     id="style4186-8-7">

	.st0{fill-rule:evenodd;clip-rule:evenodd;}
	.st1{fill-rule:evenodd;clip-rule:evenodd;fill:#5A9A98;}

</style>
  <style
     id="style4186-5-1"
     type="text/css">

	.st0{fill-rule:evenodd;clip-rule:evenodd;}
	.st1{fill-rule:evenodd;clip-rule:evenodd;fill:#5A9A98;}

</style>
  <style
     id="style4186-8-2-4"
     type="text/css">

	.st0{fill-rule:evenodd;clip-rule:evenodd;}
	.st1{fill-rule:evenodd;clip-rule:evenodd;fill:#5A9A98;}

</style>
  <style
     id="style4186-1-4"
     type="text/css">

	.st0{fill-rule:evenodd;clip-rule:evenodd;}
	.st1{fill-rule:evenodd;clip-rule:evenodd;fill:#5A9A98;}

</style>
  <style
     id="style4186-8-5-3"
     type="text/css">

	.st0{fill-rule:evenodd;clip-rule:evenodd;}
	.st1{fill-rule:evenodd;clip-rule:evenodd;fill:#5A9A98;}

</style>
</svg>
