<?xml version="1.0" encoding="UTF-8" standalone="no"?>
<!-- Created with Inkscape (http://www.inkscape.org/) -->

<svg
   xmlns:dc="http://purl.org/dc/elements/1.1/"
   xmlns:cc="http://creativecommons.org/ns#"
   xmlns:rdf="http://www.w3.org/1999/02/22-rdf-syntax-ns#"
   xmlns:svg="http://www.w3.org/2000/svg"
   xmlns="http://www.w3.org/2000/svg"
   xmlns:xlink="http://www.w3.org/1999/xlink"
   xmlns:sodipodi="http://sodipodi.sourceforge.net/DTD/sodipodi-0.dtd"
   xmlns:inkscape="http://www.inkscape.org/namespaces/inkscape"
   width="256"
   height="256"
   id="svg4293"
   version="1.1"
   inkscape:version="0.48.3.1 r9886"
   sodipodi:docname="media-import-audio-cd.svg">
  <defs
     id="defs4295">
    <linearGradient
       id="linearGradient3330">
      <stop
         offset="0"
         style="stop-color:#ffffff;stop-opacity:0.203125"
         id="stop3332" />
      <stop
         offset="1"
         style="stop-color:#ffffff;stop-opacity:0.6796875"
         id="stop3334" />
    </linearGradient>
    <linearGradient
       id="linearGradient3342">
      <stop
         offset="0"
         style="stop-color:#000000;stop-opacity:0"
         id="stop3344" />
      <stop
         offset="0.85000002"
         style="stop-color:#000000;stop-opacity:0"
         id="stop3350" />
      <stop
         offset="1"
         style="stop-color:#000000;stop-opacity:1"
         id="stop3346" />
    </linearGradient>
    <linearGradient
       id="linearGradient3362">
      <stop
         offset="0"
         style="stop-color:#4d4d4d;stop-opacity:1"
         id="stop3364" />
      <stop
         offset="1"
         style="stop-color:#ffffff;stop-opacity:1"
         id="stop3366" />
    </linearGradient>
    <linearGradient
       gradientTransform="matrix(1.0172414,0,0,1.0172414,-1.1034483,-1.1034483)"
       gradientUnits="userSpaceOnUse"
       id="ButtonColor-3"
       y2="5.4252338"
       x2="58.650177"
       y1="122"
       x1="58.650177">
      <stop
         offset="0"
         style="stop-color:#b8abbd;stop-opacity:1"
         id="stop3189-5" />
      <stop
         offset="1"
         style="stop-color:#dddbde;stop-opacity:1"
         id="stop3191-7" />
    </linearGradient>
    <linearGradient
       id="linearGradient3233">
      <stop
         offset="0"
         style="stop-color:#ffffff;stop-opacity:0"
         id="stop3235" />
      <stop
         offset="0.15000001"
         style="stop-color:#ffffff;stop-opacity:0"
         id="stop3297" />
      <stop
         offset="0.5"
         style="stop-color:#ffffff;stop-opacity:1"
         id="stop3241" />
      <stop
         offset="0.85000002"
         style="stop-color:#ffffff;stop-opacity:0"
         id="stop3299" />
      <stop
         offset="1"
         style="stop-color:#ffffff;stop-opacity:0"
         id="stop3237" />
    </linearGradient>
    <linearGradient
       id="linearGradient3247">
      <stop
         offset="0"
         style="stop-color:#ffffff;stop-opacity:0"
         id="stop3249" />
      <stop
         offset="0.30000001"
         style="stop-color:#d5d5d5;stop-opacity:0"
         id="stop3293" />
      <stop
         offset="0.5"
         style="stop-color:#eb8888;stop-opacity:0.2578125"
         id="stop3251" />
      <stop
         offset="0.69999999"
         style="stop-color:#e28f25;stop-opacity:0"
         id="stop3295" />
      <stop
         offset="1"
         style="stop-color:#ffffff;stop-opacity:0"
         id="stop3253" />
    </linearGradient>
    <linearGradient
       id="linearGradient3265">
      <stop
         offset="0"
         style="stop-color:#ffffff;stop-opacity:0"
         id="stop3267" />
      <stop
         offset="0.2"
         style="stop-color:#afcff3;stop-opacity:0"
         id="stop3252" />
      <stop
         offset="0.34999999"
         style="stop-color:#60a0e7;stop-opacity:0.1484375"
         id="stop3269" />
      <stop
         offset="0.5"
         style="stop-color:#db8ef1;stop-opacity:0.2109375"
         id="stop3271" />
      <stop
         offset="0.64999998"
         style="stop-color:#ffffff;stop-opacity:0"
         id="stop3273" />
      <stop
         offset="1"
         style="stop-color:#ffffff;stop-opacity:0"
         id="stop3275" />
    </linearGradient>
    <linearGradient
       id="linearGradient3236">
      <stop
         offset="0"
         style="stop-color:#ffffff;stop-opacity:0"
         id="stop3238" />
      <stop
         offset="0.34999999"
         style="stop-color:#fffc2b;stop-opacity:0.234375"
         id="stop3240" />
      <stop
         offset="0.5"
         style="stop-color:#46d15d;stop-opacity:0.21875"
         id="stop3242" />
      <stop
         offset="0.64999998"
         style="stop-color:#46d1aa;stop-opacity:0"
         id="stop3244" />
      <stop
         offset="1"
         style="stop-color:#ffffff;stop-opacity:0"
         id="stop3246" />
    </linearGradient>
    <clipPath
       id="clipPath3271">
      <rect
         style="fill:#ffffff;fill-opacity:1;fill-rule:evenodd;stroke:none"
         id="rect3273"
         y="160.00336"
         x="5"
         height="59"
         width="118" />
    </clipPath>
    <radialGradient
       inkscape:collect="always"
       xlink:href="#linearGradient3342"
       id="radialGradient3565"
       gradientUnits="userSpaceOnUse"
       gradientTransform="matrix(0,0.95308331,-0.95889648,0,197.47985,853.16093)"
       cx="59.893993"
       cy="61.92226"
       fx="59.893993"
       fy="61.92226"
       r="33.71384" />
    <linearGradient
       inkscape:collect="always"
       xlink:href="#linearGradient3362"
       id="linearGradient3567"
       gradientUnits="userSpaceOnUse"
       gradientTransform="matrix(0,0.44450749,-0.53396427,0,171.16706,883.62158)"
       x1="25.220379"
       y1="61.92226"
       x2="94.567612"
       y2="61.92226" />
    <linearGradient
       inkscape:collect="always"
       xlink:href="#ButtonColor-3"
       id="linearGradient3569"
       gradientUnits="userSpaceOnUse"
       gradientTransform="matrix(3.6051753,0,0,4.3310661,-77.82555,642.05549)"
       x1="73.015572"
       y1="89.130737"
       x2="73.015572"
       y2="34.606899" />
    <linearGradient
       inkscape:collect="always"
       xlink:href="#linearGradient3233"
       id="linearGradient3571"
       gradientUnits="userSpaceOnUse"
       gradientTransform="matrix(1.7296582,0.99865875,-0.99861861,1.7297277,91.316254,736.33393)"
       x1="5"
       y1="64"
       x2="123"
       y2="64" />
    <linearGradient
       inkscape:collect="always"
       xlink:href="#linearGradient3236"
       id="linearGradient3573"
       gradientUnits="userSpaceOnUse"
       gradientTransform="matrix(-0.9850397,0.171492,-0.171492,-0.9850397,138.01803,271.06706)"
       x1="5"
       y1="64"
       x2="123"
       y2="64" />
    <linearGradient
       inkscape:collect="always"
       xlink:href="#linearGradient3265"
       id="linearGradient3575"
       gradientUnits="userSpaceOnUse"
       gradientTransform="matrix(-0.8529965,0.5216416,-0.5216416,-0.8529964,151.97682,240.20671)"
       x1="5"
       y1="64"
       x2="123"
       y2="64" />
    <linearGradient
       inkscape:collect="always"
       xlink:href="#linearGradient3247"
       id="linearGradient3577"
       gradientUnits="userSpaceOnUse"
       gradientTransform="matrix(-0.881451,-0.4719713,0.4719713,-0.881451,90.206697,305.61903)"
       x1="5"
       y1="64"
       x2="123"
       y2="64" />
    <linearGradient
       inkscape:collect="always"
       xlink:href="#linearGradient3236"
       id="linearGradient3579"
       gradientUnits="userSpaceOnUse"
       gradientTransform="matrix(-0.9850397,0.171492,-0.171492,-0.9850397,138.01803,271.06706)"
       x1="5"
       y1="64"
       x2="123"
       y2="64" />
    <linearGradient
       inkscape:collect="always"
       xlink:href="#linearGradient3265"
       id="linearGradient3581"
       gradientUnits="userSpaceOnUse"
       gradientTransform="matrix(-0.8529965,0.5216416,-0.5216416,-0.8529964,151.97682,240.20671)"
       x1="5"
       y1="64"
       x2="123"
       y2="64" />
    <linearGradient
       inkscape:collect="always"
       xlink:href="#linearGradient3247"
       id="linearGradient3583"
       gradientUnits="userSpaceOnUse"
       gradientTransform="matrix(-0.881451,-0.4719713,0.4719713,-0.881451,90.206697,305.61903)"
       x1="5"
       y1="64"
       x2="123"
       y2="64" />
    <linearGradient
       inkscape:collect="always"
       xlink:href="#linearGradient3330"
       id="linearGradient3585"
       gradientUnits="userSpaceOnUse"
       gradientTransform="matrix(0,1.0082676,-1.2111817,0,213.10192,849.85572)"
       x1="26.180153"
       y1="61.92226"
       x2="93.607834"
       y2="61.92226" />
    <linearGradient
       y2="8.9974918"
       x2="4.9428644"
       y1="8.9974918"
       x1="18.693354"
       gradientTransform="matrix(0,-13.005413,15.168241,0,-18.501154,278.48505)"
       gradientUnits="userSpaceOnUse"
       id="linearGradient3829"
       xlink:href="#linearGradient3637"
       inkscape:collect="always" />
    <filter
       id="filter3657"
       color-interpolation-filters="sRGB">
      <feGaussianBlur
         stdDeviation="1.14"
         id="feGaussianBlur3659" />
    </filter>
    <clipPath
       id="clipPath3649">
      <rect
         style="fill:#ffffff;fill-opacity:1;fill-rule:nonzero;stroke:none"
         id="rect3651"
         y="10"
         x="10"
         ry="4"
         rx="4"
         height="76"
         width="76" />
    </clipPath>
    <linearGradient
       gradientUnits="userSpaceOnUse"
       xlink:href="#linearGradient3637"
       id="linearGradient3643"
       y2="90.015434"
       x2="44.512066"
       y1="6"
       x1="44.512066" />
    <clipPath
       id="clipPath3625">
      <path
         style="fill:#ffffff;fill-opacity:1;stroke:none"
         id="path3627"
         inkscape:connector-curvature="0"
         d="M 0,0 0,96 96,96 96,0 0,0 z m 12,6 72,0 c 3.324,0 6,2.676 6,6 l 0,72 c 0,3.324 -2.676,6 -6,6 L 12,90 C 8.676,90 6,87.324 6,84 L 6,12 C 6,8.676 8.676,6 12,6 z" />
    </clipPath>
    <linearGradient
       gradientTransform="translate(0,100)"
       gradientUnits="userSpaceOnUse"
       xlink:href="#linearGradient3700"
       id="linearGradient2843"
       y2="5.9877172"
       x2="48"
       y1="90"
       x1="48" />
    <clipPath
       id="clipPath3613">
      <rect
         style="fill:#ffffff;fill-opacity:1;fill-rule:nonzero;stroke:none"
         id="rect3615"
         y="6"
         x="6"
         ry="6"
         rx="6"
         height="84"
         width="84" />
    </clipPath>
    <radialGradient
       gradientTransform="matrix(1.1573129,0,0,0.99590774,-7.5510206,0.19713193)"
       gradientUnits="userSpaceOnUse"
       xlink:href="#linearGradient3737"
       id="radialGradient3619"
       fy="90.171875"
       fx="48"
       r="42"
       cy="90.171875"
       cx="48" />
    <linearGradient
       gradientUnits="userSpaceOnUse"
       xlink:href="#linearGradient3737"
       id="linearGradient3613"
       y2="138.66119"
       x2="48"
       y1="20.220806"
       x1="48" />
    <filter
       id="filter3794"
       color-interpolation-filters="sRGB"
       height="1.3839999"
       width="1.3839999"
       y="-0.192"
       x="-0.192">
      <feGaussianBlur
         stdDeviation="5.28"
         id="feGaussianBlur3796" />
    </filter>
    <linearGradient
       gradientUnits="userSpaceOnUse"
       xlink:href="#linearGradient3737"
       id="linearGradient3188"
       y2="63.893143"
       x2="36.357143"
       y1="6"
       x1="36.357143" />
    <filter
       id="filter3174"
       color-interpolation-filters="sRGB">
      <feGaussianBlur
         stdDeviation="1.71"
         id="feGaussianBlur3176" />
    </filter>
    <linearGradient
       id="linearGradient3700">
      <stop
         offset="0"
         style="stop-color:#2276c5;stop-opacity:1"
         id="stop3702" />
      <stop
         offset="1"
         style="stop-color:#68baf4;stop-opacity:1"
         id="stop3704" />
    </linearGradient>
    <linearGradient
       id="linearGradient3737">
      <stop
         offset="0"
         style="stop-color:#ffffff;stop-opacity:1"
         id="stop3739" />
      <stop
         offset="1"
         style="stop-color:#ffffff;stop-opacity:0"
         id="stop3741" />
    </linearGradient>
    <linearGradient
       gradientTransform="scale(1.0058652,0.994169)"
       gradientUnits="userSpaceOnUse"
       id="ButtonShadow"
       y2="7.0165396"
       x2="45.447727"
       y1="92.539597"
       x1="45.447727">
      <stop
         offset="0"
         style="stop-color:#000000;stop-opacity:1"
         id="stop3750" />
      <stop
         offset="1"
         style="stop-color:#000000;stop-opacity:0.58823532"
         id="stop3752" />
    </linearGradient>
    <linearGradient
       id="linearGradient3637">
      <stop
         offset="0"
         style="stop-color:#5a5a5a;stop-opacity:1;"
         id="stop3639" />
      <stop
         offset="1"
         style="stop-color:#000000;stop-opacity:1;"
         id="stop3641" />
    </linearGradient>
  </defs>
  <sodipodi:namedview
     id="base"
     pagecolor="#ffffff"
     bordercolor="#666666"
     borderopacity="1.0"
     inkscape:pageopacity="0.0"
     inkscape:pageshadow="2"
     inkscape:zoom="1.6484375"
     inkscape:cx="128"
     inkscape:cy="128"
     inkscape:document-units="px"
     inkscape:current-layer="layer1"
     showgrid="false"
     inkscape:window-width="1024"
     inkscape:window-height="572"
     inkscape:window-x="0"
     inkscape:window-y="28"
     inkscape:window-maximized="1"
     inkscape:snap-bbox="true"
     inkscape:bbox-paths="true"
     inkscape:bbox-nodes="true"
     inkscape:snap-bbox-edge-midpoints="true"
     inkscape:snap-bbox-midpoints="true"
     inkscape:object-paths="true"
     inkscape:snap-intersection-paths="true"
     inkscape:object-nodes="true"
     inkscape:snap-smooth-nodes="true"
     inkscape:snap-midpoints="true"
     inkscape:snap-object-midpoints="true"
     inkscape:snap-center="true"
     inkscape:snap-nodes="true"
     fit-margin-top="0"
     fit-margin-left="0"
     fit-margin-right="0"
     fit-margin-bottom="0" />
  <metadata
     id="metadata4298">
    <rdf:RDF>
      <cc:Work
         rdf:about="">
        <dc:format>image/svg+xml</dc:format>
        <dc:type
           rdf:resource="http://purl.org/dc/dcmitype/StillImage" />
        <dc:title></dc:title>
      </cc:Work>
    </rdf:RDF>
  </metadata>
  <g
     inkscape:label="Layer 1"
     inkscape:groupmode="layer"
     id="layer1"
     transform="translate(-0.34952,-796.2014)">
    <g
       id="g3542"
       transform="translate(-9.7552,10.3464)">
      <path
         d="m 138.10472,785.85497 c -70.508469,0 -128,57.48886 -128,128 0,70.51115 57.491538,128.00003 128,128.00003 70.50849,0 128,-57.48889 128,-128.00003 0,-70.51113 -57.4915,-128 -128,-128 z m 0,96.19529 c 17.73168,0 31.80471,14.07215 31.80471,31.80471 0,17.73253 -14.07304,31.80471 -31.80471,31.80471 -17.73167,0 -31.80471,-14.07218 -31.80471,-31.80471 0,-17.73256 14.07303,-31.80471 31.80471,-31.80471 z"
         id="path3964"
         style="opacity:0.05;fill:#000000;fill-opacity:1;fill-rule:evenodd;stroke:none;display:inline"
         inkscape:connector-curvature="0" />
      <path
         d="m 138.10472,789.53762 c -68.507593,0 -124.31735,55.80711 -124.31735,124.31735 0,68.51026 55.809761,124.31733 124.31735,124.31733 68.50762,0 124.31735,-55.80708 124.31735,-124.31733 0,-68.51024 -55.80973,-124.31735 -124.31735,-124.31735 z m 0,88.82999 c 19.69997,0 35.48736,15.78649 35.48736,35.48736 0,19.70085 -15.78739,35.48736 -35.48736,35.48736 -19.69997,0 -35.48736,-15.78651 -35.48736,-35.48736 0,-19.70087 15.78739,-35.48736 35.48736,-35.48736 z"
         id="path3960"
         style="opacity:0.07999998;fill:#000000;fill-opacity:1;fill-rule:evenodd;stroke:none;display:inline"
         inkscape:connector-curvature="0" />
      <path
         d="m 138.10472,793.10867 c -66.598803,0 -120.746295,54.14486 -120.746295,120.7463 0,66.60145 54.147495,120.74633 120.746295,120.74633 66.59883,0 120.74629,-54.14488 120.74629,-120.74633 0,-66.60143 -54.14746,-120.7463 -120.74629,-120.7463 z m 0,81.68788 c 21.59793,0 39.05841,17.45957 39.05841,39.05842 0,21.59883 -17.46048,39.05841 -39.05841,39.05841 -21.59793,0 -39.058414,-17.45958 -39.058414,-39.05841 0,-21.59885 17.460484,-39.05842 39.058414,-39.05842 z"
         id="path3956"
         style="opacity:0.15;fill:#000000;fill-opacity:1;fill-rule:evenodd;stroke:none;display:inline"
         inkscape:connector-curvature="0" />
      <path
         d="m 138.10279,795.97422 c -65.046014,0 -117.83699,52.7931 -117.83699,117.84174 0,65.04865 52.790976,117.84174 117.83699,117.84174 65.04605,0 117.83699,-52.79309 117.83699,-117.84174 0,-65.04864 -52.79094,-117.84174 -117.83699,-117.84174 z m 0,75.89807 c 23.15197,0 41.94197,18.79076 41.94197,41.94367 0,23.15289 -18.79,41.94364 -41.94197,41.94364 -23.15197,0 -41.941968,-18.79075 -41.941968,-41.94364 0,-23.15291 18.789998,-41.94367 41.941968,-41.94367 z"
         inkscape:connector-curvature="0"
         id="path3950"
         style="opacity:0.3;fill:#000000;fill-opacity:1;fill-rule:evenodd;stroke:none;display:inline" />
      <path
         d="m 138.10279,855.818 c -30.03862,0 -54.424715,24.38709 -54.424715,54.4269 0,30.03981 24.386095,54.4269 54.424715,54.4269 30.03861,0 54.42472,-24.38706 54.42472,-54.4269 0,-30.03981 -24.38611,-54.4269 -54.42472,-54.4269 z m 0,38.44836 c 8.8198,0 15.9779,7.15839 15.9779,15.97854 0,8.82016 -7.1581,15.97852 -15.9779,15.97852 -8.81982,0 -15.9779,-7.15836 -15.9779,-15.97852 0,-8.82015 7.1581,-15.97854 15.9779,-15.97854 z"
         inkscape:connector-curvature="0"
         id="path3307"
         style="opacity:0.3;fill:#ffffff;fill-opacity:1;fill-rule:evenodd;stroke:none;display:inline" />
      <path
         d="m 138.10281,941.39691 a 31.15076,31.152017 0 1 1 0,-62.30403 31.15076,31.152017 0 1 1 0,62.30403 z"
         id="path3328"
         style="opacity:0.3;fill:url(#radialGradient3565);fill-opacity:1;fill-rule:evenodd;stroke:none;display:inline"
         inkscape:connector-curvature="0" />
      <path
         d="m 138.10278,924.77386 a 14.528357,14.528955 0 1 1 0,-29.05791 14.528357,14.528955 0 1 1 0,29.05791 z"
         id="path3352"
         style="opacity:0.6;fill:none;stroke:url(#linearGradient3567);stroke-width:3.5710547;stroke-linecap:round;stroke-linejoin:miter;stroke-miterlimit:4;stroke-opacity:1;stroke-dasharray:none;stroke-dashoffset:0;display:inline"
         inkscape:connector-curvature="0" />
      <path
         d="m 138.10279,792.40317 c -65.046029,0 -117.837001,52.7931 -117.837001,117.84173 0,65.04866 52.790976,117.8418 117.837001,117.8418 65.04604,0 117.83699,-52.79314 117.83699,-117.8418 0,-65.04863 -52.79095,-117.84173 -117.83699,-117.84173 z m 0,75.89807 c 23.15197,-10e-6 41.94196,18.79076 41.94196,41.94366 0,23.15289 -18.78999,41.94364 -41.94196,41.94364 -23.15197,0 -41.941982,-18.79075 -41.941982,-41.94364 0,-23.1529 18.790012,-41.94366 41.941982,-41.94366 z"
         inkscape:connector-curvature="0"
         id="path3170"
         style="fill:url(#linearGradient3569);fill-opacity:1;fill-rule:evenodd;stroke:none;display:inline" />
      <path
         d="M 197.02129,808.89673 C 140.68977,776.37241 68.575962,795.69603 36.052955,852.0298 3.5299438,908.36357 22.852783,980.48028 79.184288,1013.0046 c 56.331502,32.5243 128.445332,13.2007 160.968342,-43.13305 32.52302,-56.33378 13.20018,-128.45049 -43.13134,-160.97482 z m -37.94751,65.72965 c 20.05021,11.57646 26.92782,37.24512 15.35184,57.29613 -11.576,20.051 -37.24363,26.92889 -57.29382,15.35243 -20.050199,-11.57643 -26.927826,-37.2451 -15.35183,-57.29611 11.57597,-20.051 37.24361,-26.92889 57.29381,-15.35245 z"
         inkscape:connector-curvature="0"
         id="path3230"
         style="opacity:0.8;fill:url(#linearGradient3571);fill-opacity:1;fill-rule:evenodd;stroke:none;display:inline" />
      <path
         d="m 190.73914,910.60201 a 52.636355,52.638458 0 0 1 -105.272709,0 52.636355,52.638458 0 1 1 105.272709,0 z"
         id="path3304"
         style="opacity:0.15;fill:none;stroke:#000000;stroke-width:10.71316338;stroke-linecap:round;stroke-linejoin:miter;stroke-miterlimit:4;stroke-opacity:1;stroke-dasharray:none;stroke-dashoffset:0;display:inline"
         inkscape:connector-curvature="0" />
      <g
         transform="matrix(1.2267838,-1.5761212,1.5760578,1.2268331,-285.57068,742.44151)"
         id="g3289"
         style="display:inline">
        <g
           clip-path="url(#clipPath3271)"
           id="g3266">
          <path
             d="M 74.118027,277.11735 C 106.19881,271.5322 127.70249,240.96275 122.11734,208.88198 116.5322,176.8012 85.962749,155.29751 53.881978,160.88266 21.801203,166.46781 0.29750806,197.03725 5.8826547,229.11804 11.4678,261.19881 42.037246,282.70249 74.118027,277.11735 z m -6.516698,-37.43151 c -11.41858,1.98793 -22.299227,-5.66593 -24.287158,-17.08451 -1.987941,-11.41857 5.665921,-22.29923 17.084499,-24.28716 11.41858,-1.98793 22.299233,5.66593 24.28717,17.08451 1.987924,11.41857 -5.665932,22.29923 -17.084511,24.28716 z"
             inkscape:connector-curvature="0"
             id="path3259"
             style="fill:url(#linearGradient3573);fill-opacity:1;fill-rule:evenodd;stroke:none;display:inline" />
          <path
             d="M 94.776853,269.3268 C 122.55724,252.33798 131.31561,216.00355 114.32679,188.22315 97.337964,160.44278 61.003543,151.6844 33.223145,168.67322 5.4427579,185.66204 -3.3156068,221.99648 13.673211,249.77686 30.662035,277.55725 66.996455,286.31562 94.776853,269.3268 z M 74.954469,236.91293 c -9.88793,6.04687 -22.820523,2.92947 -28.867393,-6.95846 -6.046863,-9.88793 -2.929476,-22.82053 6.958454,-28.86739 9.887938,-6.04686 22.820537,-2.92949 28.867401,6.95845 6.046855,9.88793 2.929476,22.82053 -6.958462,28.8674 z"
             inkscape:connector-curvature="0"
             id="path3231"
             style="fill:url(#linearGradient3575);fill-opacity:1;fill-rule:evenodd;stroke:none;display:inline" />
          <path
             d="m 36.153689,271.00561 c 28.707102,15.37117 64.480751,4.54779 79.851921,-24.1593 15.37116,-28.70708 4.5478,-64.48074 -24.159308,-79.85191 -28.707087,-15.37116 -64.480736,-4.5478 -79.851909,24.15931 -15.371173,28.70708 -4.5478122,64.48073 24.159296,79.8519 z m 17.934913,-33.49512 c -10.217773,-5.4711 -14.070163,-18.2041 -8.599064,-28.42189 5.471077,-10.21777 18.204079,-14.07015 28.421859,-8.59906 10.217787,5.47108 14.07017,18.2041 8.599071,28.42186 -5.471084,10.21778 -18.204093,14.07016 -28.421866,8.59909 z"
             inkscape:connector-curvature="0"
             id="path3243"
             style="fill:url(#linearGradient3577);fill-opacity:1;fill-rule:evenodd;stroke:none;display:inline" />
        </g>
        <g
           transform="matrix(1,0,0,-1,0,438.00336)"
           clip-path="url(#clipPath3271)"
           id="g3275">
          <path
             d="M 74.118027,277.11735 C 106.19881,271.5322 127.70249,240.96275 122.11734,208.88198 116.5322,176.8012 85.962749,155.29751 53.881978,160.88266 21.801203,166.46781 0.29750806,197.03725 5.8826547,229.11804 11.4678,261.19881 42.037246,282.70249 74.118027,277.11735 z m -6.516698,-37.43151 c -11.41858,1.98793 -22.299227,-5.66593 -24.287158,-17.08451 -1.987941,-11.41857 5.665921,-22.29923 17.084499,-24.28716 11.41858,-1.98793 22.299233,5.66593 24.28717,17.08451 1.987924,11.41857 -5.665932,22.29923 -17.084511,24.28716 z"
             inkscape:connector-curvature="0"
             id="path3277"
             style="fill:url(#linearGradient3579);fill-opacity:1;fill-rule:evenodd;stroke:none;display:inline" />
          <path
             d="M 94.776853,269.3268 C 122.55724,252.33798 131.31561,216.00355 114.32679,188.22315 97.337964,160.44278 61.003543,151.6844 33.223145,168.67322 5.4427579,185.66204 -3.3156068,221.99648 13.673211,249.77686 30.662035,277.55725 66.996455,286.31562 94.776853,269.3268 z M 74.954469,236.91293 c -9.88793,6.04687 -22.820523,2.92947 -28.867393,-6.95846 -6.046863,-9.88793 -2.929476,-22.82053 6.958454,-28.86739 9.887938,-6.04686 22.820537,-2.92949 28.867401,6.95845 6.046855,9.88793 2.929476,22.82053 -6.958462,28.8674 z"
             inkscape:connector-curvature="0"
             id="path3279"
             style="fill:url(#linearGradient3581);fill-opacity:1;fill-rule:evenodd;stroke:none;display:inline" />
          <path
             d="m 36.153689,271.00561 c 28.707102,15.37117 64.480751,4.54779 79.851921,-24.1593 15.37116,-28.70708 4.5478,-64.48074 -24.159308,-79.85191 -28.707087,-15.37116 -64.480736,-4.5478 -79.851909,24.15931 -15.371173,28.70708 -4.5478122,64.48073 24.159296,79.8519 z m 17.934913,-33.49512 c -10.217773,-5.4711 -14.070163,-18.2041 -8.599064,-28.42189 5.471077,-10.21777 18.204079,-14.07015 28.421859,-8.59906 10.217787,5.47108 14.07017,18.2041 8.599071,28.42186 -5.471084,10.21778 -18.204093,14.07016 -28.421866,8.59909 z"
             inkscape:connector-curvature="0"
             id="path3281"
             style="fill:url(#linearGradient3583);fill-opacity:1;fill-rule:evenodd;stroke:none;display:inline" />
        </g>
      </g>
      <path
         d="m 138.10472,792.4391 c -65.046016,0 -117.844813,52.79618 -117.844813,117.84481 0,1.20489 0.07564,2.37484 0.111596,3.57106 1.872047,-63.41483 53.870138,-114.27376 117.733217,-114.27376 63.86311,0 115.86117,50.85893 117.73322,114.27376 0.036,-1.19622 0.11159,-2.36617 0.11159,-3.57106 0,-65.04863 -52.79876,-117.84481 -117.84481,-117.84481 z"
         inkscape:connector-curvature="0"
         id="path3933"
         style="opacity:0.8;fill:#ffffff;fill-opacity:1;fill-rule:evenodd;stroke:none;display:inline" />
      <path
         d="m 173.01937,910.25726 c 0,-18.93386 -15.46428,-34.59619 -34.93502,-34.59619 -19.47074,0 -34.89717,15.66233 -34.89717,34.59619 0,18.93386 15.42643,34.56467 34.89717,34.56467 19.47074,0 34.93502,-15.63081 34.93502,-34.56467 z m -3.93634,0 c 0,17.46805 -14.06898,31.31931 -30.99868,31.31931 -16.9297,0 -30.96083,-13.85126 -30.96083,-31.31931 0,-17.46805 14.03113,-31.35083 30.96083,-31.35083 16.9297,0 30.99868,13.88278 30.99868,31.35083 z"
         inkscape:connector-curvature="0"
         id="path3942"
         style="font-size:medium;font-style:normal;font-variant:normal;font-weight:normal;font-stretch:normal;text-indent:0;text-align:start;text-decoration:none;line-height:normal;letter-spacing:normal;word-spacing:normal;text-transform:none;direction:ltr;block-progression:tb;writing-mode:lr-tb;text-anchor:start;opacity:0.5;color:#000000;fill:url(#linearGradient3585);fill-opacity:1;stroke:none;stroke-width:3.23149872;marker:none;visibility:visible;display:inline;overflow:visible;enable-background:accumulate;font-family:Abandoned Bitplane;-inkscape-font-specification:Abandoned Bitplane" />
    </g>
    <g
       id="g6747"
       transform="matrix(-0.68085107,0,0,0.68085107,167.15803,896.96736)">
      <g
         transform="translate(0,160)"
         style="display:none"
         id="layer2">
        <rect
           style="opacity:0.9;fill:url(#ButtonShadow);fill-opacity:1;fill-rule:nonzero;stroke:none;filter:url(#filter3174)"
           id="rect3745"
           clip-path="url(#clipPath3625)"
           y="7"
           x="5"
           ry="6"
           rx="6"
           height="85"
           width="86" />
      </g>
      <g
         transform="translate(0,160)"
         style="display:none"
         id="layer1-1">
        <rect
           style="opacity:0.8;fill:#000000;fill-opacity:1;fill-rule:nonzero;stroke:none"
           id="rect2419"
           y="6"
           x="6"
           ry="6"
           rx="6"
           height="84"
           width="84" />
        <path
           style="opacity:0.07999998;fill:#000000;fill-opacity:1;fill-rule:nonzero;stroke:none"
           id="rect3726"
           inkscape:connector-curvature="0"
           d="m 14,10 c -2.216,0 -4,1.784 -4,4 l 0,68 c 0,2.216 1.784,4 4,4 l 68,0 c 2.216,0 4,-1.784 4,-4 l 0,-68 c 0,-2.216 -1.784,-4 -4,-4 l -68,0 z m 0,3.0625 68,0 c 0.578769,0 0.9375,0.358731 0.9375,0.9375 l 0,68 c 0,0.578769 -0.358731,0.9375 -0.9375,0.9375 l -68,0 c -0.578769,0 -0.9375,-0.358731 -0.9375,-0.9375 l 0,-68 c 0,-0.578769 0.358731,-0.9375 0.9375,-0.9375 z" />
        <path
           style="fill:url(#linearGradient3643);fill-opacity:1;fill-rule:nonzero;stroke:none"
           id="rect3629"
           inkscape:connector-curvature="0"
           d="M 12,6 C 8.676,6 6,8.676 6,12 l 0,72 c 0,3.324 2.676,6 6,6 l 72,0 c 3.324,0 6,-2.676 6,-6 L 90,12 C 90,8.676 87.324,6 84,6 L 12,6 z m 2,4 68,0 c 2.216,0 4,1.784 4,4 l 0,68 c 0,2.216 -1.784,4 -4,4 l -68,0 c -2.216,0 -4,-1.784 -4,-4 l 0,-68 c 0,-2.216 1.784,-4 4,-4 z" />
        <path
           style="fill:url(#linearGradient3188);fill-opacity:1;fill-rule:nonzero;stroke:none"
           id="rect3728"
           inkscape:connector-curvature="0"
           d="M 12,6 C 8.676,6 6,8.676 6,12 l 0,2 0,68 0,2 c 0,0.334721 0.04135,0.6507 0.09375,0.96875 0.0487,0.295596 0.09704,0.596915 0.1875,0.875 0.00988,0.03038 0.020892,0.0636 0.03125,0.09375 0.098865,0.287771 0.2348802,0.547452 0.375,0.8125 0.1445918,0.273507 0.3156161,0.535615 0.5,0.78125 0.1843839,0.245635 0.3737765,0.473472 0.59375,0.6875 0.439947,0.428056 0.94291,0.814526 1.5,1.09375 0.278545,0.139612 0.5734731,0.246947 0.875,0.34375 -0.2562018,-0.100222 -0.4867109,-0.236272 -0.71875,-0.375 -0.00741,-0.0044 -0.023866,0.0045 -0.03125,0 -0.031933,-0.0193 -0.062293,-0.04251 -0.09375,-0.0625 -0.120395,-0.0767 -0.2310226,-0.163513 -0.34375,-0.25 -0.1061728,-0.0808 -0.2132809,-0.161112 -0.3125,-0.25 C 8.4783201,88.557317 8.3087904,88.373362 8.15625,88.1875 8.0486711,88.057245 7.9378561,87.922215 7.84375,87.78125 7.818661,87.74287 7.805304,87.69538 7.78125,87.65625 7.716487,87.553218 7.6510225,87.451733 7.59375,87.34375 7.4927417,87.149044 7.3880752,86.928049 7.3125,86.71875 7.30454,86.69694 7.288911,86.6782 7.28125,86.65625 7.2494249,86.5643 7.2454455,86.469419 7.21875,86.375 7.1884177,86.268382 7.1483606,86.171969 7.125,86.0625 7.0521214,85.720988 7,85.364295 7,85 L 7,83 7,15 7,13 C 7,10.218152 9.2181517,8 12,8 l 2,0 68,0 2,0 c 2.781848,0 5,2.218152 5,5 l 0,2 0,68 0,2 c 0,0.364295 -0.05212,0.720988 -0.125,1.0625 -0.04415,0.206893 -0.08838,0.397658 -0.15625,0.59375 -0.0077,0.02195 -0.0233,0.04069 -0.03125,0.0625 -0.06274,0.173739 -0.138383,0.367449 -0.21875,0.53125 -0.04158,0.0828 -0.07904,0.169954 -0.125,0.25 -0.0546,0.09721 -0.126774,0.18835 -0.1875,0.28125 -0.09411,0.140965 -0.204921,0.275995 -0.3125,0.40625 -0.143174,0.17445 -0.303141,0.346998 -0.46875,0.5 -0.01117,0.0102 -0.01998,0.02115 -0.03125,0.03125 -0.138386,0.125556 -0.285091,0.234436 -0.4375,0.34375 -0.102571,0.07315 -0.204318,0.153364 -0.3125,0.21875 -0.0074,0.0045 -0.02384,-0.0044 -0.03125,0 -0.232039,0.138728 -0.462548,0.274778 -0.71875,0.375 0.301527,-0.0968 0.596455,-0.204138 0.875,-0.34375 0.55709,-0.279224 1.060053,-0.665694 1.5,-1.09375 0.219973,-0.214028 0.409366,-0.441865 0.59375,-0.6875 0.184384,-0.245635 0.355408,-0.507743 0.5,-0.78125 0.14012,-0.265048 0.276135,-0.524729 0.375,-0.8125 0.01041,-0.03078 0.02133,-0.06274 0.03125,-0.09375 0.09046,-0.278085 0.1388,-0.579404 0.1875,-0.875 C 89.95865,84.6507 90,84.334721 90,84 l 0,-2 0,-68 0,-2 C 90,8.676 87.324,6 84,6 L 12,6 z" />
        <path
           style="opacity:0.6;fill:url(#radialGradient3619);fill-opacity:1;fill-rule:nonzero;stroke:none"
           id="path3615"
           inkscape:connector-curvature="0"
           d="M 12,90 C 8.676,90 6,87.324 6,84 L 6,82 6,14 6,12 c 0,-0.334721 0.04135,-0.6507 0.09375,-0.96875 0.0487,-0.295596 0.09704,-0.596915 0.1875,-0.875 C 6.29113,10.12587 6.302142,10.09265 6.3125,10.0625 6.411365,9.774729 6.5473802,9.515048 6.6875,9.25 6.8320918,8.976493 7.0031161,8.714385 7.1875,8.46875 7.3718839,8.223115 7.5612765,7.995278 7.78125,7.78125 8.221197,7.353194 8.72416,6.966724 9.28125,6.6875 9.559795,6.547888 9.8547231,6.440553 10.15625,6.34375 9.9000482,6.443972 9.6695391,6.580022 9.4375,6.71875 c -0.00741,0.0044 -0.023866,-0.0045 -0.03125,0 -0.031933,0.0193 -0.062293,0.04251 -0.09375,0.0625 -0.120395,0.0767 -0.2310226,0.163513 -0.34375,0.25 -0.1061728,0.0808 -0.2132809,0.161112 -0.3125,0.25 C 8.4783201,7.442683 8.3087904,7.626638 8.15625,7.8125 8.0486711,7.942755 7.9378561,8.077785 7.84375,8.21875 7.818661,8.25713 7.805304,8.30462 7.78125,8.34375 7.716487,8.446782 7.6510225,8.548267 7.59375,8.65625 7.4927417,8.850956 7.3880752,9.071951 7.3125,9.28125 7.30454,9.30306 7.288911,9.3218 7.28125,9.34375 7.2494249,9.4357 7.2454455,9.530581 7.21875,9.625 7.1884177,9.731618 7.1483606,9.828031 7.125,9.9375 7.0521214,10.279012 7,10.635705 7,11 l 0,2 0,68 0,2 c 0,2.781848 2.2181517,5 5,5 l 2,0 68,0 2,0 c 2.781848,0 5,-2.218152 5,-5 l 0,-2 0,-68 0,-2 C 89,10.635705 88.94788,10.279012 88.875,9.9375 88.83085,9.730607 88.78662,9.539842 88.71875,9.34375 88.71105,9.3218 88.69545,9.30306 88.6875,9.28125 88.62476,9.107511 88.549117,8.913801 88.46875,8.75 88.42717,8.6672 88.38971,8.580046 88.34375,8.5 88.28915,8.40279 88.216976,8.31165 88.15625,8.21875 88.06214,8.077785 87.951329,7.942755 87.84375,7.8125 87.700576,7.63805 87.540609,7.465502 87.375,7.3125 87.36383,7.3023 87.35502,7.29135 87.34375,7.28125 87.205364,7.155694 87.058659,7.046814 86.90625,6.9375 86.803679,6.86435 86.701932,6.784136 86.59375,6.71875 c -0.0074,-0.0045 -0.02384,0.0044 -0.03125,0 -0.232039,-0.138728 -0.462548,-0.274778 -0.71875,-0.375 0.301527,0.0968 0.596455,0.204138 0.875,0.34375 0.55709,0.279224 1.060053,0.665694 1.5,1.09375 0.219973,0.214028 0.409366,0.441865 0.59375,0.6875 0.184384,0.245635 0.355408,0.507743 0.5,0.78125 0.14012,0.265048 0.276135,0.524729 0.375,0.8125 0.01041,0.03078 0.02133,0.06274 0.03125,0.09375 0.09046,0.278085 0.1388,0.579404 0.1875,0.875 C 89.95865,11.3493 90,11.665279 90,12 l 0,2 0,68 0,2 c 0,3.324 -2.676,6 -6,6 l -72,0 z" />
        <rect
           style="fill:url(#linearGradient2843);fill-opacity:1;fill-rule:nonzero;stroke:none"
           id="rect2841"
           y="106"
           x="6"
           ry="6"
           rx="6"
           height="84"
           width="84" />
        <rect
           style="fill:#ff0000;fill-opacity:1;fill-rule:nonzero;stroke:none"
           id="rect3634"
           y="110"
           x="10"
           ry="4"
           rx="4"
           height="76"
           width="76" />
        <path
           style="font-size:medium;font-style:normal;font-variant:normal;font-weight:normal;font-stretch:normal;text-indent:0;text-align:start;text-decoration:none;line-height:normal;letter-spacing:normal;word-spacing:normal;text-transform:none;direction:ltr;block-progression:tb;writing-mode:lr-tb;text-anchor:start;color:#000000;fill:#000000;fill-opacity:1;stroke:none;stroke-width:2;marker:none;visibility:visible;display:inline;overflow:visible;filter:url(#filter3657);enable-background:accumulate;font-family:Abandoned Bitplane;-inkscape-font-specification:Abandoned Bitplane"
           id="rect3647"
           clip-path="url(#clipPath3649)"
           transform="translate(-110,0)"
           inkscape:connector-curvature="0"
           d="m 14,9 c -2.752703,0 -5,2.247297 -5,5 l 0,68 c 0,2.752703 2.247297,5 5,5 l 68,0 c 2.752703,0 5,-2.247297 5,-5 L 87,14 C 87,11.247297 84.752703,9 82,9 L 14,9 z m 0,2 68,0 c 1.679297,0 3,1.320703 3,3 l 0,68 c 0,1.679297 -1.320703,3 -3,3 l -68,0 c -1.679297,0 -3,-1.320703 -3,-3 l 0,-68 c 0,-1.679297 1.320703,-3 3,-3 z" />
        <path
           style="opacity:0.16000001;fill:#000000;fill-opacity:1;fill-rule:nonzero;stroke:none"
           id="path3709"
           inkscape:connector-curvature="0"
           d="m 14.089286,10 c -2.216,0 -4,1.784 -4,4 l 0,68 c 0,2.216 1.784,4 4,4 l 68,0 c 2.216,0 4,-1.784 4,-4 l 0,-68 c 0,-2.216 -1.784,-4 -4,-4 l -68,0 z m 0,2 68,0 c 1.140301,0 2,0.859699 2,2 l 0,68 c 0,1.140301 -0.859699,2 -2,2 l -68,0 c -1.140301,0 -2,-0.859699 -2,-2 l 0,-68 c 0,-1.140301 0.859699,-2 2,-2 z" />
        <path
           style="opacity:0.36000001;fill:#000000;fill-opacity:1;fill-rule:nonzero;stroke:none"
           id="path3707"
           inkscape:connector-curvature="0"
           d="m 14,10 c -2.216,0 -4,1.784 -4,4 l 0,68 c 0,2.216 1.784,4 4,4 l 68,0 c 2.216,0 4,-1.784 4,-4 l 0,-68 c 0,-2.216 -1.784,-4 -4,-4 l -68,0 z m 0,1 68,0 c 1.673848,0 3,1.326152 3,3 l 0,68 c 0,1.673848 -1.326152,3 -3,3 l -68,0 c -1.673848,0 -3,-1.326152 -3,-3 l 0,-68 c 0,-1.673848 1.326152,-3 3,-3 z" />
      </g>
      <g
         transform="translate(0,160)"
         style="display:none"
         id="layer5">
        <rect
           style="opacity:0.1;fill:url(#linearGradient3613);fill-opacity:1;fill-rule:nonzero;stroke:#ffffff;stroke-width:0.5;stroke-linecap:round;stroke-linejoin:miter;stroke-miterlimit:4;stroke-opacity:1;stroke-dasharray:none;stroke-dashoffset:0;filter:url(#filter3794)"
           id="rect3171"
           clip-path="url(#clipPath3613)"
           y="15"
           x="15"
           ry="12"
           rx="12"
           height="66"
           width="66" />
      </g>
      <g
         transform="translate(0.04855631,0.10615595)"
         id="g3821">
        <path
           style="opacity:0.15;fill:#000000;fill-opacity:1;stroke:none;display:inline"
           id="path3915"
           inkscape:connector-curvature="0"
           d="m 244.7817,176.44233 c -0.10824,6.61382 -7.12112,9.80929 -12.94417,8.82388 -20.9314,0 -41.8628,0 -62.79419,0 -0.18999,11.80392 0.38396,23.69292 -0.29413,35.44262 -1.26855,7.17775 -10.84664,9.49803 -15.89435,4.56729 C 106.31117,195.65167 59.583519,166.12774 13.154662,136.4407 7.5256188,131.99963 9.7907748,122.628 16.254369,120.27186 62.829999,90.725299 109.33435,61.048801 155.95457,31.583512 c 6.57268,-3.176693 14.2772,3.150951 13.08877,10.22225 0,10.416658 0,20.833316 0,31.250021 22.44781,0.09836 44.92816,-0.196714 67.35567,0.146829 7.07074,0.381663 9.21562,8.126118 8.38269,14.023439 0,29.738709 0,59.477379 0,89.216039 z" />
        <path
           inkscape:connector-curvature="0"
           style="opacity:0.15;fill:#000000;fill-opacity:1;stroke:none;display:inline"
           id="path3911"
           d="m 240.29668,176.9575 a 4.7366952,4.7366952 0 0 1 -4.70608,3.82369 l -71.03229,0 0,38.08978 a 4.7366952,4.7366952 0 0 1 -7.20617,3.97074 L 16.611136,133.42632 a 4.7366952,4.7366952 0 0 1 0,-7.9415 L 157.35214,36.069435 a 4.7366952,4.7366952 0 0 1 7.20617,3.97075 l 0,37.648585 71.03229,0 a 4.7366952,4.7366952 0 0 1 4.70608,4.706074 l 0,93.680266 a 4.7366952,4.7366952 0 0 1 0,0.88239 z" />
        <path
           style="opacity:0.3;fill:#000000;fill-opacity:1;stroke:none;display:inline"
           id="path3905"
           inkscape:connector-curvature="0"
           d="m 235.6268,176.11587 -75.73837,0 0,42.79129 -140.740998,-89.4154 140.740998,-89.415386 0,42.354659 75.73837,0 z" />
        <path
           style="fill:url(#linearGradient3829);fill-opacity:1;stroke:none;display:inline"
           id="Symbol"
           inkscape:connector-curvature="0"
           d="m 235.6268,171.40979 -75.73837,0 0,42.79129 -140.740998,-89.41539 140.740998,-89.415389 0,42.354659 75.73837,0 z" />
        <path
           style="opacity:0.75;fill:#ffffff;fill-opacity:1;stroke:none;display:inline"
           id="path3974"
           inkscape:connector-curvature="0"
           d="m 159.88843,35.370301 -140.740998,89.415389 3.67662,2.35304 137.064378,-87.062356 0,-4.706073 z m 0,42.354659 0,4.706073 75.73837,0 0,-4.706073 -75.73837,0 z" />
        <path
           style="opacity:0.15;fill:#000000;fill-opacity:1;stroke:none;display:inline"
           id="path3983"
           inkscape:connector-curvature="0"
           d="m 22.824052,122.43265 -3.67662,2.35304 140.740998,89.41539 0,-4.70607 -137.064378,-87.06236 z m 137.064378,44.26651 0,4.70607 75.73837,0 0,-4.70607 -75.73837,0 z" />
      </g>
    </g>
  </g>
</svg>
