<?xml version="1.0" encoding="UTF-8" standalone="no"?>
<!-- Created with Inkscape (http://www.inkscape.org/) -->

<svg
   xmlns:dc="http://purl.org/dc/elements/1.1/"
   xmlns:cc="http://creativecommons.org/ns#"
   xmlns:rdf="http://www.w3.org/1999/02/22-rdf-syntax-ns#"
   xmlns:svg="http://www.w3.org/2000/svg"
   xmlns="http://www.w3.org/2000/svg"
   xmlns:xlink="http://www.w3.org/1999/xlink"
   xmlns:sodipodi="http://sodipodi.sourceforge.net/DTD/sodipodi-0.dtd"
   xmlns:inkscape="http://www.inkscape.org/namespaces/inkscape"
   version="1.0"
   width="256"
   height="256"
   id="svg2408"
   inkscape:version="0.48.3.1 r9886"
   sodipodi:docname="gtk-media-next-rtl.svg">
  <sodipodi:namedview
     pagecolor="#ffffff"
     bordercolor="#666666"
     borderopacity="1"
     objecttolerance="10"
     gridtolerance="10"
     guidetolerance="10"
     inkscape:pageopacity="0"
     inkscape:pageshadow="2"
     inkscape:window-width="1024"
     inkscape:window-height="572"
     id="namedview4613"
     showgrid="false"
     inkscape:zoom="1.6367188"
     inkscape:cx="117.30788"
     inkscape:cy="128"
     inkscape:window-x="0"
     inkscape:window-y="28"
     inkscape:window-maximized="1"
     inkscape:current-layer="svg2408" />
  <defs
     id="defs2410">
    <linearGradient
       x1="45.447727"
       y1="92.539597"
       x2="45.447727"
       y2="7.0165396"
       id="ButtonShadow"
       gradientUnits="userSpaceOnUse"
       gradientTransform="scale(1.0058652,0.994169)">
      <stop
         id="stop3750"
         style="stop-color:#000000;stop-opacity:1"
         offset="0" />
      <stop
         id="stop3752"
         style="stop-color:#000000;stop-opacity:0.58823532"
         offset="1" />
    </linearGradient>
    <linearGradient
       id="linearGradient3737">
      <stop
         id="stop3739"
         style="stop-color:#ffffff;stop-opacity:1"
         offset="0" />
      <stop
         id="stop3741"
         style="stop-color:#ffffff;stop-opacity:0"
         offset="1" />
    </linearGradient>
    <filter
       color-interpolation-filters="sRGB"
       id="filter3174">
      <feGaussianBlur
         id="feGaussianBlur3176"
         stdDeviation="1.71" />
    </filter>
    <filter
       x="-0.192"
       y="-0.192"
       width="1.3839999"
       height="1.3839999"
       color-interpolation-filters="sRGB"
       id="filter3794">
      <feGaussianBlur
         id="feGaussianBlur3796"
         stdDeviation="5.28" />
    </filter>
    <linearGradient
       x1="48"
       y1="20.220806"
       x2="48"
       y2="138.66119"
       id="linearGradient3613"
       xlink:href="#linearGradient3737"
       gradientUnits="userSpaceOnUse" />
    <clipPath
       id="clipPath3613">
      <rect
         width="84"
         height="84"
         rx="6"
         ry="6"
         x="6"
         y="6"
         id="rect3615"
         style="fill:#ffffff;fill-opacity:1;fill-rule:nonzero;stroke:none" />
    </clipPath>
    <linearGradient
       id="linearGradient4281-6">
      <stop
         id="stop4283-9"
         style="stop-color:#000000;stop-opacity:1;"
         offset="0" />
      <stop
         id="stop4285-8"
         style="stop-color:#5a5a5a;stop-opacity:1;"
         offset="1" />
    </linearGradient>
    <linearGradient
       inkscape:collect="always"
       xlink:href="#linearGradient4281-6"
       id="linearGradient6262"
       gradientUnits="userSpaceOnUse"
       gradientTransform="matrix(0,3.3492685,2.9956077,0,76.659329,-3.7713002)"
       x1="58.208775"
       y1="15.911263"
       x2="20.748936"
       y2="15.522816" />
  </defs>
  <metadata
     id="metadata2413">
    <rdf:RDF>
      <cc:Work
         rdf:about="">
        <dc:format>image/svg+xml</dc:format>
        <dc:type
           rdf:resource="http://purl.org/dc/dcmitype/StillImage" />
        <dc:title></dc:title>
      </cc:Work>
    </rdf:RDF>
  </metadata>
  <g
     id="layer2"
     style="display:none"
     transform="translate(0,160)">
    <rect
       width="86"
       height="85"
       rx="6"
       ry="6"
       x="5"
       y="7"
       id="rect3745"
       style="opacity:0.9;fill:url(#ButtonShadow);fill-opacity:1;fill-rule:nonzero;stroke:none;filter:url(#filter3174)" />
  </g>
  <g
     id="layer5"
     style="display:none"
     transform="translate(0,160)">
    <rect
       width="66"
       height="66"
       rx="12"
       ry="12"
       x="15"
       y="15"
       clip-path="url(#clipPath3613)"
       id="rect3171"
       style="opacity:0.3;fill:url(#linearGradient3613);fill-opacity:1;fill-rule:nonzero;stroke:#ffffff;stroke-width:0.5;stroke-linecap:round;stroke-linejoin:miter;stroke-miterlimit:4;stroke-opacity:1;stroke-dasharray:none;stroke-dashoffset:0;filter:url(#filter3794)" />
  </g>
  <g
     id="g6252"
     transform="matrix(0.80357144,0,0,0.80357144,22.13992,24.464461)">
    <path
       inkscape:connector-curvature="0"
       d="m 52.325019,66.510892 c 4.26155,0 7.69232,3.484376 7.69232,7.812502 l 0,47.119146 75.600941,-48.950202 a 5.9597314,6.663336 0 0 1 9.01443,5.737307 l 0,43.212895 75.60095,-48.950202 a 5.9597314,6.663336 0 0 1 9.01442,5.737307 l 0,103.881835 a 5.9597314,6.663336 0 0 1 -9.01442,5.73731 l -75.60095,-48.82813 0,43.09082 a 5.9597314,6.663336 0 0 1 -9.01443,5.73731 l -75.600941,-48.82813 0,44.67774 c 0,4.32812 -3.43077,7.81249 -7.69232,7.81249 l -15.38461,0 c -4.26153,0 -7.69231,-3.48437 -7.69231,-7.81249 l 0,-109.375006 c 0,-4.328126 3.43078,-7.812502 7.69231,-7.812502 l 15.38461,0 z"
       style="opacity:0.025;color:#000000;fill:none;stroke:#000000;stroke-width:24;stroke-linecap:round;stroke-linejoin:round;stroke-miterlimit:4;stroke-opacity:1;stroke-dasharray:none;marker:none;visibility:visible;display:inline;overflow:visible;enable-background:accumulate"
       id="path5196" />
    <path
       id="path5194"
       style="opacity:0.05;color:#000000;fill:none;stroke:#000000;stroke-width:18;stroke-linecap:round;stroke-linejoin:round;stroke-miterlimit:4;stroke-opacity:1;stroke-dasharray:none;marker:none;visibility:visible;display:inline;overflow:visible;enable-background:accumulate"
       d="m 52.325019,66.510892 c 4.26155,0 7.69232,3.484376 7.69232,7.812502 l 0,47.119146 75.600941,-48.950202 a 5.9597314,6.663336 0 0 1 9.01443,5.737307 l 0,43.212895 75.60095,-48.950202 a 5.9597314,6.663336 0 0 1 9.01442,5.737307 l 0,103.881835 a 5.9597314,6.663336 0 0 1 -9.01442,5.73731 l -75.60095,-48.82813 0,43.09082 a 5.9597314,6.663336 0 0 1 -9.01443,5.73731 l -75.600941,-48.82813 0,44.67774 c 0,4.32812 -3.43077,7.81249 -7.69232,7.81249 l -15.38461,0 c -4.26153,0 -7.69231,-3.48437 -7.69231,-7.81249 l 0,-109.375006 c 0,-4.328126 3.43078,-7.812502 7.69231,-7.812502 l 15.38461,0 z"
       inkscape:connector-curvature="0" />
    <path
       inkscape:connector-curvature="0"
       d="m 52.325019,66.510892 c 4.26155,0 7.69232,3.484376 7.69232,7.812502 l 0,47.119146 75.600941,-48.950202 a 5.9597314,6.663336 0 0 1 9.01443,5.737307 l 0,43.212895 75.60095,-48.950202 a 5.9597314,6.663336 0 0 1 9.01442,5.737307 l 0,103.881835 a 5.9597314,6.663336 0 0 1 -9.01442,5.73731 l -75.60095,-48.82813 0,43.09082 a 5.9597314,6.663336 0 0 1 -9.01443,5.73731 l -75.600941,-48.82813 0,44.67774 c 0,4.32812 -3.43077,7.81249 -7.69232,7.81249 l -15.38461,0 c -4.26153,0 -7.69231,-3.48437 -7.69231,-7.81249 l 0,-109.375006 c 0,-4.328126 3.43078,-7.812502 7.69231,-7.812502 l 15.38461,0 z"
       style="opacity:0.1;color:#000000;fill:none;stroke:#000000;stroke-width:12;stroke-linecap:round;stroke-linejoin:round;stroke-miterlimit:4;stroke-opacity:1;stroke-dasharray:none;marker:none;visibility:visible;display:inline;overflow:visible;enable-background:accumulate"
       id="path5192" />
    <path
       id="path5190"
       style="opacity:0.15;color:#000000;fill:none;stroke:#000000;stroke-width:6;stroke-linecap:round;stroke-linejoin:round;stroke-miterlimit:4;stroke-opacity:1;stroke-dasharray:none;marker:none;visibility:visible;display:inline;overflow:visible;enable-background:accumulate"
       d="m 52.325019,66.510892 c 4.26155,0 7.69232,3.484376 7.69232,7.812502 l 0,47.119146 75.600941,-48.950202 a 5.9597314,6.663336 0 0 1 9.01443,5.737307 l 0,43.212895 75.60095,-48.950202 a 5.9597314,6.663336 0 0 1 9.01442,5.737307 l 0,103.881835 a 5.9597314,6.663336 0 0 1 -9.01442,5.73731 l -75.60095,-48.82813 0,43.09082 a 5.9597314,6.663336 0 0 1 -9.01443,5.73731 l -75.600941,-48.82813 0,44.67774 c 0,4.32812 -3.43077,7.81249 -7.69232,7.81249 l -15.38461,0 c -4.26153,0 -7.69231,-3.48437 -7.69231,-7.81249 l 0,-109.375006 c 0,-4.328126 3.43078,-7.812502 7.69231,-7.812502 l 15.38461,0 z"
       inkscape:connector-curvature="0" />
    <path
       id="path5186"
       style="opacity:0.3;color:#000000;fill:#000000;fill-opacity:1;fill-rule:nonzero;stroke:none;stroke-width:2;marker:none;visibility:visible;display:inline;overflow:visible;enable-background:accumulate"
       d="m 52.325019,68.510892 c 4.26155,0 7.69232,3.484376 7.69232,7.812502 l 0,47.119146 75.600941,-48.950202 a 5.9597314,6.663336 0 0 1 9.01443,5.737307 l 0,43.212895 75.60095,-48.950202 a 5.9597314,6.663336 0 0 1 9.01442,5.737307 l 0,103.881835 a 5.9597314,6.663336 0 0 1 -9.01442,5.73731 l -75.60095,-48.82813 0,43.09082 a 5.9597314,6.663336 0 0 1 -9.01443,5.73731 l -75.600941,-48.82813 0,44.67774 c 0,4.32812 -3.43077,7.81249 -7.69232,7.81249 l -15.38461,0 c -4.26153,0 -7.69231,-3.48437 -7.69231,-7.81249 l 0,-109.375006 c 0,-4.328126 3.43078,-7.812502 7.69231,-7.812502 l 15.38461,0 z"
       inkscape:connector-curvature="0" />
    <path
       inkscape:connector-curvature="0"
       d="m 52.325019,66.510892 c 4.26155,0 7.69232,3.484376 7.69232,7.812502 l 0,47.119146 75.600941,-48.950202 a 5.9597314,6.663336 0 0 1 9.01443,5.737307 l 0,43.212895 75.60095,-48.950202 a 5.9597314,6.663336 0 0 1 9.01442,5.737307 l 0,103.881835 a 5.9597314,6.663336 0 0 1 -9.01442,5.73731 l -75.60095,-48.82813 0,43.09082 a 5.9597314,6.663336 0 0 1 -9.01443,5.73731 l -75.600941,-48.82813 0,44.67774 c 0,4.32812 -3.43077,7.81249 -7.69232,7.81249 l -15.38461,0 c -4.26153,0 -7.69231,-3.48437 -7.69231,-7.81249 l 0,-109.375006 c 0,-4.328126 3.43078,-7.812502 7.69231,-7.812502 l 15.38461,0 z"
       style="color:#000000;fill:url(#linearGradient6262);fill-opacity:1;fill-rule:nonzero;stroke:none;stroke-width:2;marker:none;visibility:visible;display:inline;overflow:visible;enable-background:accumulate"
       id="path4132" />
    <path
       inkscape:connector-curvature="0"
       id="path6672"
       d="m 36.997859,66.525 c -4.26154,0 -7.6875,3.484374 -7.6875,7.8125 l 0,4 c 0,-4.328126 3.42596,-7.8125 7.6875,-7.8125 l 15.40625,0 c 4.26154,0 7.6875,3.484374 7.6875,7.8125 l 0,-4 c 0,-4.328126 -3.42596,-7.8125 -7.6875,-7.8125 l -15.40625,0 z m 101.531251,5.03125 a 5.9597314,6.663336 0 0 0 -2.84375,0.9375 l -75.593751,48.9375 0,4 75.593751,-48.9375 a 5.9597314,6.663336 0 0 1 9.03125,5.65625 l 0,-3.90625 a 5.9597314,6.663336 0 0 0 -6.1875,-6.6875 z m 84.59375,0 a 5.9597314,6.663336 0 0 0 -2.8125,0.9375 l -75.59375,48.9375 0,4 75.59375,-48.9375 a 5.9597314,6.663336 0 0 1 9,5.65625 l 0,-3.90625 a 5.9597314,6.663336 0 0 0 -6.1875,-6.6875 z"
       style="opacity:0.7;color:#000000;fill:#ffffff;fill-opacity:1;fill-rule:nonzero;stroke:none;stroke-width:2;marker:none;visibility:visible;display:inline;overflow:visible;enable-background:accumulate" />
    <path
       inkscape:connector-curvature="0"
       id="path6681"
       d="m 60.026139,135.01591 0,4 75.593751,48.84375 a 5.9597314,6.663336 0 0 0 9,-5.75 l 0,-3.34375 a 5.9597314,6.663336 0 0 1 -9,5.09375 L 60.026139,135.01591 z m 84.593751,0 0,4 75.625,48.84375 a 5.9597314,6.663336 0 0 0 9,-5.75 l 0,-4 a 5.9597314,6.663336 0 0 1 -9,5.75 l -75.625,-48.84375 z m -115.375001,44.6875 0,4 c 0,4.32812 3.42597,7.8125 7.6875,7.8125 l 15.40625,0 c 4.26154,0 7.6875,-3.48438 7.6875,-7.8125 l 0,-4 c 0,4.32812 -3.42596,7.8125 -7.6875,7.8125 l -15.40625,0 c -4.26153,0 -7.6875,-3.48438 -7.6875,-7.8125 z"
       style="opacity:0.7;color:#000000;fill:#000000;fill-opacity:1;fill-rule:nonzero;stroke:none;stroke-width:2;marker:none;visibility:visible;display:inline;overflow:visible;enable-background:accumulate" />
  </g>
</svg>
