<?xml version="1.0" encoding="UTF-8" standalone="no"?>
<!-- Created with Inkscape (http://www.inkscape.org/) -->

<svg
   xmlns:dc="http://purl.org/dc/elements/1.1/"
   xmlns:cc="http://creativecommons.org/ns#"
   xmlns:rdf="http://www.w3.org/1999/02/22-rdf-syntax-ns#"
   xmlns:svg="http://www.w3.org/2000/svg"
   xmlns="http://www.w3.org/2000/svg"
   xmlns:xlink="http://www.w3.org/1999/xlink"
   xmlns:sodipodi="http://sodipodi.sourceforge.net/DTD/sodipodi-0.dtd"
   xmlns:inkscape="http://www.inkscape.org/namespaces/inkscape"
   version="1.0"
   width="256"
   height="256"
   id="svg2408"
   inkscape:version="0.48.3.1 r9886"
   sodipodi:docname="stock_shuffle.svg">
  <sodipodi:namedview
     pagecolor="#ffffff"
     bordercolor="#666666"
     borderopacity="1"
     objecttolerance="10"
     gridtolerance="10"
     guidetolerance="10"
     inkscape:pageopacity="0"
     inkscape:pageshadow="2"
     inkscape:window-width="1024"
     inkscape:window-height="572"
     id="namedview4329"
     showgrid="false"
     inkscape:zoom="1.6367188"
     inkscape:cx="128"
     inkscape:cy="128"
     inkscape:window-x="0"
     inkscape:window-y="28"
     inkscape:window-maximized="1"
     inkscape:current-layer="svg2408" />
  <defs
     id="defs2410">
    <linearGradient
       x1="45.447727"
       y1="92.539597"
       x2="45.447727"
       y2="7.0165396"
       id="ButtonShadow"
       gradientUnits="userSpaceOnUse"
       gradientTransform="scale(1.0058652,0.994169)">
      <stop
         id="stop3750"
         style="stop-color:#000000;stop-opacity:1"
         offset="0" />
      <stop
         id="stop3752"
         style="stop-color:#000000;stop-opacity:0.58823532"
         offset="1" />
    </linearGradient>
    <linearGradient
       id="linearGradient3737">
      <stop
         id="stop3739"
         style="stop-color:#ffffff;stop-opacity:1"
         offset="0" />
      <stop
         id="stop3741"
         style="stop-color:#ffffff;stop-opacity:0"
         offset="1" />
    </linearGradient>
    <filter
       color-interpolation-filters="sRGB"
       id="filter3174">
      <feGaussianBlur
         id="feGaussianBlur3176"
         stdDeviation="1.71" />
    </filter>
    <filter
       x="-0.192"
       y="-0.192"
       width="1.3839999"
       height="1.3839999"
       color-interpolation-filters="sRGB"
       id="filter3794">
      <feGaussianBlur
         id="feGaussianBlur3796"
         stdDeviation="5.28" />
    </filter>
    <linearGradient
       x1="48"
       y1="20.220806"
       x2="48"
       y2="138.66119"
       id="linearGradient3613"
       xlink:href="#linearGradient3737"
       gradientUnits="userSpaceOnUse" />
    <clipPath
       id="clipPath3613">
      <rect
         width="84"
         height="84"
         rx="6"
         ry="6"
         x="6"
         y="6"
         id="rect3615"
         style="fill:#ffffff;fill-opacity:1;fill-rule:nonzero;stroke:none" />
    </clipPath>
    <linearGradient
       id="linearGradient4281-6">
      <stop
         id="stop4283-9"
         style="stop-color:#000000;stop-opacity:1;"
         offset="0" />
      <stop
         id="stop4285-8"
         style="stop-color:#5a5a5a;stop-opacity:1;"
         offset="1" />
    </linearGradient>
    <linearGradient
       inkscape:collect="always"
       xlink:href="#linearGradient4281-6"
       id="linearGradient3811"
       gradientUnits="userSpaceOnUse"
       gradientTransform="matrix(13.07441,0,0,9.4426291,7.026039,11.786851)"
       x1="9.564827"
       y1="19.654053"
       x2="9.6550589"
       y2="4.7892833" />
  </defs>
  <metadata
     id="metadata2413">
    <rdf:RDF>
      <cc:Work
         rdf:about="">
        <dc:format>image/svg+xml</dc:format>
        <dc:type
           rdf:resource="http://purl.org/dc/dcmitype/StillImage" />
        <dc:title></dc:title>
      </cc:Work>
    </rdf:RDF>
  </metadata>
  <g
     id="layer2"
     style="display:none"
     transform="translate(0,160)">
    <rect
       width="86"
       height="85"
       rx="6"
       ry="6"
       x="5"
       y="7"
       id="rect3745"
       style="opacity:0.9;fill:url(#ButtonShadow);fill-opacity:1;fill-rule:nonzero;stroke:none;filter:url(#filter3174)" />
  </g>
  <g
     id="layer5"
     style="display:none"
     transform="translate(0,160)">
    <rect
       width="66"
       height="66"
       rx="12"
       ry="12"
       x="15"
       y="15"
       clip-path="url(#clipPath3613)"
       id="rect3171"
       style="opacity:0.3;fill:url(#linearGradient3613);fill-opacity:1;fill-rule:nonzero;stroke:#ffffff;stroke-width:0.5;stroke-linecap:round;stroke-linejoin:miter;stroke-miterlimit:4;stroke-opacity:1;stroke-dasharray:none;stroke-dashoffset:0;filter:url(#filter3794)" />
  </g>
  <g
     id="g3802"
     transform="matrix(0.82568808,0,0,0.82568808,23.281252,21.931342)">
    <path
       id="path3800"
       style="opacity:0.1;fill:none;stroke:#000000;stroke-width:18;stroke-linejoin:round;stroke-miterlimit:4;stroke-opacity:1;stroke-dasharray:none"
       d="m 173.69271,56.231296 0,22.222224 -22.56945,0 c -13.63211,0 -25.0731,6.004818 -33.33335,13.541668 -5.4054,4.932035 -9.59233,10.451672 -13.54165,15.972222 l -15.624996,21.875 c -2.31277,2.86819 -4.5763,5.54575 -6.94445,7.6389 -5.591456,4.94212 -10.976882,7.63888 -19.44444,7.63888 l -32.986113,0 0,22.22223 32.986113,0 c 13.961225,0 25.50442,-5.66093 34.02778,-13.19445 2.33096,-2.06025 4.270886,-4.33944 6.249996,-6.59722 4.89336,-6.44237 9.72658,-12.96341 14.58334,-19.44445 5.35017,-7.91256 10.44712,-15.06726 15.625,-19.79168 5.41281,-4.93877 10.4896,-7.63887 18.40277,-7.63887 l 22.56945,0 0,22.22222 55.55555,-33.333333 -55.55555,-33.333341 z m -144.444449,29.629627 0,22.222217 32.986113,0 c 8.467558,0 13.852984,2.69679 19.44444,7.6389 0.90779,0.80238 1.77633,1.71008 2.66204,2.66204 l 11.68982,-16.31945 c 0.44325,-0.61959 0.93105,-1.22341 1.38888,-1.85185 -0.39375,-0.380478 -0.74115,-0.789521 -1.1574,-1.157409 C 87.738794,91.52186 76.195599,85.860923 62.234374,85.860923 l -32.986113,0 z m 144.444449,44.444457 0,22.22222 -22.56945,0 c -7.91317,0 -12.98996,-2.70011 -18.40277,-7.63889 -2.81525,-2.5687 -5.62799,-5.86974 -8.44908,-9.60649 -4.52021,6.03521 -9.04823,12.21734 -13.6574,18.28704 2.18718,2.64241 4.51529,5.21126 7.1759,7.6389 8.26025,7.53685 19.70124,13.54166 33.33335,13.54166 l 22.56945,0 0,22.22222 55.55555,-33.33332 -55.55555,-33.33334 z"
       inkscape:connector-curvature="0" />
    <path
       inkscape:connector-curvature="0"
       d="m 173.69271,56.231296 0,22.222224 -22.56945,0 c -13.63211,0 -25.0731,6.004818 -33.33335,13.541668 -5.4054,4.932035 -9.59233,10.451672 -13.54165,15.972222 l -15.624996,21.875 c -2.31277,2.86819 -4.5763,5.54575 -6.94445,7.6389 -5.591456,4.94212 -10.976882,7.63888 -19.44444,7.63888 l -32.986113,0 0,22.22223 32.986113,0 c 13.961225,0 25.50442,-5.66093 34.02778,-13.19445 2.33096,-2.06025 4.270886,-4.33944 6.249996,-6.59722 4.89336,-6.44237 9.72658,-12.96341 14.58334,-19.44445 5.35017,-7.91256 10.44712,-15.06726 15.625,-19.79168 5.41281,-4.93877 10.4896,-7.63887 18.40277,-7.63887 l 22.56945,0 0,22.22222 55.55555,-33.333333 -55.55555,-33.333341 z m -144.444449,29.629627 0,22.222217 32.986113,0 c 8.467558,0 13.852984,2.69679 19.44444,7.6389 0.90779,0.80238 1.77633,1.71008 2.66204,2.66204 l 11.68982,-16.31945 c 0.44325,-0.61959 0.93105,-1.22341 1.38888,-1.85185 -0.39375,-0.380478 -0.74115,-0.789521 -1.1574,-1.157409 C 87.738794,91.52186 76.195599,85.860923 62.234374,85.860923 l -32.986113,0 z m 144.444449,44.444457 0,22.22222 -22.56945,0 c -7.91317,0 -12.98996,-2.70011 -18.40277,-7.63889 -2.81525,-2.5687 -5.62799,-5.86974 -8.44908,-9.60649 -4.52021,6.03521 -9.04823,12.21734 -13.6574,18.28704 2.18718,2.64241 4.51529,5.21126 7.1759,7.6389 8.26025,7.53685 19.70124,13.54166 33.33335,13.54166 l 22.56945,0 0,22.22222 55.55555,-33.33332 -55.55555,-33.33334 z"
       style="opacity:0.1;fill:none;stroke:#000000;stroke-width:12;stroke-linejoin:round;stroke-miterlimit:4;stroke-opacity:1;stroke-dasharray:none"
       id="path3798" />
    <path
       id="path3796"
       style="opacity:0.1;fill:none;stroke:#000000;stroke-width:6;stroke-linejoin:round;stroke-miterlimit:4;stroke-opacity:1;stroke-dasharray:none"
       d="m 173.69271,56.231296 0,22.222224 -22.56945,0 c -13.63211,0 -25.0731,6.004818 -33.33335,13.541668 -5.4054,4.932035 -9.59233,10.451672 -13.54165,15.972222 l -15.624996,21.875 c -2.31277,2.86819 -4.5763,5.54575 -6.94445,7.6389 -5.591456,4.94212 -10.976882,7.63888 -19.44444,7.63888 l -32.986113,0 0,22.22223 32.986113,0 c 13.961225,0 25.50442,-5.66093 34.02778,-13.19445 2.33096,-2.06025 4.270886,-4.33944 6.249996,-6.59722 4.89336,-6.44237 9.72658,-12.96341 14.58334,-19.44445 5.35017,-7.91256 10.44712,-15.06726 15.625,-19.79168 5.41281,-4.93877 10.4896,-7.63887 18.40277,-7.63887 l 22.56945,0 0,22.22222 55.55555,-33.333333 -55.55555,-33.333341 z m -144.444449,29.629627 0,22.222217 32.986113,0 c 8.467558,0 13.852984,2.69679 19.44444,7.6389 0.90779,0.80238 1.77633,1.71008 2.66204,2.66204 l 11.68982,-16.31945 c 0.44325,-0.61959 0.93105,-1.22341 1.38888,-1.85185 -0.39375,-0.380478 -0.74115,-0.789521 -1.1574,-1.157409 C 87.738794,91.52186 76.195599,85.860923 62.234374,85.860923 l -32.986113,0 z m 144.444449,44.444457 0,22.22222 -22.56945,0 c -7.91317,0 -12.98996,-2.70011 -18.40277,-7.63889 -2.81525,-2.5687 -5.62799,-5.86974 -8.44908,-9.60649 -4.52021,6.03521 -9.04823,12.21734 -13.6574,18.28704 2.18718,2.64241 4.51529,5.21126 7.1759,7.6389 8.26025,7.53685 19.70124,13.54166 33.33335,13.54166 l 22.56945,0 0,22.22222 55.55555,-33.33332 -55.55555,-33.33334 z"
       inkscape:connector-curvature="0" />
    <path
       inkscape:connector-curvature="0"
       d="m 173.69271,56.231296 0,22.222224 -22.56945,0 c -13.63211,0 -25.0731,6.004818 -33.33335,13.541668 -5.4054,4.932035 -9.59233,10.451672 -13.54165,15.972222 l -15.624996,21.875 c -2.31277,2.86819 -4.5763,5.54575 -6.94445,7.6389 -5.591456,4.94212 -10.976882,7.63888 -19.44444,7.63888 l -32.986113,0 0,22.22223 32.986113,0 c 13.961225,0 25.50442,-5.66093 34.02778,-13.19445 2.33096,-2.06025 4.270886,-4.33944 6.249996,-6.59722 4.89336,-6.44237 9.72658,-12.96341 14.58334,-19.44445 5.35017,-7.91256 10.44712,-15.06726 15.625,-19.79168 5.41281,-4.93877 10.4896,-7.63887 18.40277,-7.63887 l 22.56945,0 0,22.22222 55.55555,-33.333333 -55.55555,-33.333341 z m -144.444449,29.629627 0,22.222217 32.986113,0 c 8.467558,0 13.852984,2.69679 19.44444,7.6389 0.90779,0.80238 1.77633,1.71008 2.66204,2.66204 l 11.68982,-16.31945 c 0.44325,-0.61959 0.93105,-1.22341 1.38888,-1.85185 -0.39375,-0.380478 -0.74115,-0.789521 -1.1574,-1.157409 C 87.738794,91.52186 76.195599,85.860923 62.234374,85.860923 l -32.986113,0 z m 144.444449,44.444457 0,22.22222 -22.56945,0 c -7.91317,0 -12.98996,-2.70011 -18.40277,-7.63889 -2.81525,-2.5687 -5.62799,-5.86974 -8.44908,-9.60649 -4.52021,6.03521 -9.04823,12.21734 -13.6574,18.28704 2.18718,2.64241 4.51529,5.21126 7.1759,7.6389 8.26025,7.53685 19.70124,13.54166 33.33335,13.54166 l 22.56945,0 0,22.22222 55.55555,-33.33332 -55.55555,-33.33334 z"
       style="fill:url(#linearGradient3811);fill-opacity:1;fill-rule:nonzero;stroke:none"
       id="path4034" />
    <path
       id="path3776"
       d="m 173.6875,56.21875 0,2 53.90625,32.34375 1.65625,-1 -55.5625,-33.34375 z m -22.5625,22.25 c -13.63211,0 -25.0835,5.9944 -33.34375,13.53125 -5.4054,4.932035 -9.58193,10.4482 -13.53125,15.96875 l -15.625,21.875 c -2.31277,2.86819 -4.56935,5.53185 -6.9375,7.625 -5.591456,4.94212 -11.001192,7.65625 -19.46875,7.65625 l -32.96875,0 0,2 32.96875,0 c 8.467558,0 13.877294,-2.71413 19.46875,-7.65625 2.36815,-2.09315 4.62473,-4.75681 6.9375,-7.625 l 15.625,-21.875 C 108.19932,104.4482 112.37585,98.932035 117.78125,94 126.0415,86.46315 137.49289,80.46875 151.125,80.46875 l 22.5625,0 0,-2 -22.5625,0 z M 29.25,85.875 l 0,2 32.96875,0 c 13.961225,0 25.50789,5.65399 34.03125,13.1875 0.106949,0.0945 0.212687,0.18248 0.3125,0.28125 0.285296,-0.37506 0.563829,-0.74077 0.84375,-1.125 C 97.0125,99.838272 96.66625,99.430388 96.25,99.0625 87.72664,91.528989 76.179975,85.875 62.21875,85.875 l -32.96875,0 z m 144.4375,44.4375 0,2 53.90625,32.3125 1.65625,-1 -55.5625,-33.3125 z m -49.40625,4.96875 c -4.52021,6.03521 -9.04708,12.21155 -13.65625,18.28125 0.25936,0.31334 0.51761,0.62634 0.78125,0.9375 4.33471,-5.73099 8.61553,-11.53167 12.875,-17.21875 2.82109,3.73675 5.62225,7.02505 8.4375,9.59375 5.41281,4.93878 10.49308,7.65625 18.40625,7.65625 l 22.5625,0 0,-2 -22.5625,0 c -7.91317,0 -12.99344,-2.71747 -18.40625,-7.65625 -2.81525,-2.5687 -5.61641,-5.857 -8.4375,-9.59375 z"
       style="opacity:0.7;fill:#ffffff;fill-opacity:1;fill-rule:nonzero;stroke:none"
       inkscape:connector-curvature="0" />
    <path
       id="path3785"
       d="m 227.59375,88.5625 -53.90625,32.34375 0,2 55.5625,-33.34375 -1.65625,-1 z M 151.125,98.6875 c -7.91317,0 -12.99344,2.68623 -18.40625,7.625 -5.17788,4.72442 -10.27483,11.86869 -15.625,19.78125 -4.85676,6.48104 -9.70039,13.02638 -14.59375,19.46875 -1.97911,2.25778 -3.91904,4.5335 -6.25,6.59375 -8.52336,7.53352 -20.070025,13.1875 -34.03125,13.1875 l -32.96875,0 0,2 32.96875,0 c 13.961225,0 25.50789,-5.65398 34.03125,-13.1875 2.33096,-2.06025 4.27089,-4.33597 6.25,-6.59375 4.89336,-6.44237 9.73699,-12.98771 14.59375,-19.46875 5.35017,-7.91256 10.44712,-15.05683 15.625,-19.78125 5.41281,-4.93877 10.49308,-7.625 18.40625,-7.625 l 22.5625,0 0,-2 -22.5625,0 z m -54.5625,0.65625 c -0.181325,0.238375 -0.359007,0.477983 -0.53125,0.71875 l -11.6875,16.3125 c -0.88571,-0.95196 -1.74846,-1.85387 -2.65625,-2.65625 -5.591456,-4.94211 -11.001192,-7.625 -19.46875,-7.625 l -32.96875,0 0,2 32.96875,0 c 8.467558,0 13.877294,2.68289 19.46875,7.625 0.90779,0.80238 1.77054,1.70429 2.65625,2.65625 l 11.6875,-16.3125 c 0.44325,-0.61959 0.91717,-1.21531 1.375,-1.84375 -0.292582,-0.28272 -0.555087,-0.589341 -0.84375,-0.875 z M 111.40625,152.5 c -0.26534,0.35081 -0.51538,0.71238 -0.78125,1.0625 2.18718,2.64241 4.49564,5.22861 7.15625,7.65625 8.26025,7.53685 19.71164,13.53125 33.34375,13.53125 l 22.5625,0 0,-2 -22.5625,0 c -13.63211,0 -25.0835,-5.9944 -33.34375,-13.53125 -2.34511,-2.13977 -4.41535,-4.4059 -6.375,-6.71875 z m 116.1875,10.125 -53.90625,32.34375 0,2 55.5625,-33.34375 -1.65625,-1 z"
       style="opacity:0.7;fill:#000000;fill-opacity:1;fill-rule:nonzero;stroke:none"
       inkscape:connector-curvature="0" />
    <path
       inkscape:connector-curvature="0"
       style="opacity:0.3;fill:#000000;fill-opacity:1;fill-rule:nonzero;stroke:none"
       d="m 227.59375,90.5625 -53.90625,32.34375 0,2 55.5625,-33.34375 -1.65625,-1 z m -76.46875,10.125 c -7.91317,0 -12.99344,2.68623 -18.40625,7.625 -5.17788,4.72442 -10.27483,11.86869 -15.625,19.78125 -4.85676,6.48104 -9.70039,13.02638 -14.59375,19.46875 -1.97911,2.25778 -3.91904,4.5335 -6.25,6.59375 -8.52336,7.53352 -20.070025,13.1875 -34.03125,13.1875 l -32.96875,0 0,2 32.96875,0 c 13.961225,0 25.50789,-5.65398 34.03125,-13.1875 2.33096,-2.06025 4.27089,-4.33597 6.25,-6.59375 4.89336,-6.44237 9.73699,-12.98771 14.59375,-19.46875 5.35017,-7.91256 10.44712,-15.05683 15.625,-19.78125 5.41281,-4.93877 10.49308,-7.625 18.40625,-7.625 l 22.5625,0 0,-2 -22.5625,0 z m -54.5625,0.65625 c -0.181325,0.23838 -0.359007,0.47798 -0.53125,0.71875 l -11.6875,16.3125 c -0.88571,-0.95196 -1.74846,-1.85387 -2.65625,-2.65625 -5.591456,-4.94211 -11.001192,-7.625 -19.46875,-7.625 l -32.96875,0 0,2 32.96875,0 c 8.467558,0 13.877294,2.68289 19.46875,7.625 0.90779,0.80238 1.77054,1.70429 2.65625,2.65625 l 11.6875,-16.3125 c 0.44325,-0.61959 0.91717,-1.21531 1.375,-1.84375 -0.292582,-0.28272 -0.555087,-0.58934 -0.84375,-0.875 z M 111.40625,154.5 c -0.26534,0.35081 -0.51538,0.71238 -0.78125,1.0625 2.18718,2.64241 4.49564,5.22861 7.15625,7.65625 8.26025,7.53685 19.71164,13.53125 33.34375,13.53125 l 22.5625,0 0,-2 -22.5625,0 c -13.63211,0 -25.0835,-5.9944 -33.34375,-13.53125 -2.34511,-2.13977 -4.41535,-4.4059 -6.375,-6.71875 z m 116.1875,10.125 -53.90625,32.34375 0,2 55.5625,-33.34375 -1.65625,-1 z"
       id="path3794" />
  </g>
</svg>
