<?xml version="1.0" encoding="UTF-8" standalone="no"?>
<!-- Created with Inkscape (http://www.inkscape.org/) -->

<svg
   xmlns:dc="http://purl.org/dc/elements/1.1/"
   xmlns:cc="http://creativecommons.org/ns#"
   xmlns:rdf="http://www.w3.org/1999/02/22-rdf-syntax-ns#"
   xmlns:svg="http://www.w3.org/2000/svg"
   xmlns="http://www.w3.org/2000/svg"
   xmlns:xlink="http://www.w3.org/1999/xlink"
   xmlns:sodipodi="http://sodipodi.sourceforge.net/DTD/sodipodi-0.dtd"
   xmlns:inkscape="http://www.inkscape.org/namespaces/inkscape"
   version="1.0"
   width="256"
   height="256"
   id="svg2408"
   inkscape:version="0.48.3.1 r9886"
   sodipodi:docname="gtk-media-play-ltr.svg">
  <sodipodi:namedview
     pagecolor="#ffffff"
     bordercolor="#666666"
     borderopacity="1"
     objecttolerance="10"
     gridtolerance="10"
     guidetolerance="10"
     inkscape:pageopacity="0"
     inkscape:pageshadow="2"
     inkscape:window-width="1024"
     inkscape:window-height="572"
     id="namedview3912"
     showgrid="false"
     inkscape:zoom="1.6367188"
     inkscape:cx="117.30788"
     inkscape:cy="128"
     inkscape:window-x="0"
     inkscape:window-y="28"
     inkscape:window-maximized="1"
     inkscape:current-layer="svg2408" />
  <defs
     id="defs2410">
    <linearGradient
       x1="45.447727"
       y1="92.539597"
       x2="45.447727"
       y2="7.0165396"
       id="ButtonShadow"
       gradientUnits="userSpaceOnUse"
       gradientTransform="scale(1.0058652,0.994169)">
      <stop
         id="stop3750"
         style="stop-color:#000000;stop-opacity:1"
         offset="0" />
      <stop
         id="stop3752"
         style="stop-color:#000000;stop-opacity:0.58823532"
         offset="1" />
    </linearGradient>
    <linearGradient
       id="linearGradient3737">
      <stop
         id="stop3739"
         style="stop-color:#ffffff;stop-opacity:1"
         offset="0" />
      <stop
         id="stop3741"
         style="stop-color:#ffffff;stop-opacity:0"
         offset="1" />
    </linearGradient>
    <filter
       color-interpolation-filters="sRGB"
       id="filter3174">
      <feGaussianBlur
         id="feGaussianBlur3176"
         stdDeviation="1.71" />
    </filter>
    <filter
       x="-0.192"
       y="-0.192"
       width="1.3839999"
       height="1.3839999"
       color-interpolation-filters="sRGB"
       id="filter3794">
      <feGaussianBlur
         id="feGaussianBlur3796"
         stdDeviation="5.28" />
    </filter>
    <linearGradient
       x1="48"
       y1="20.220806"
       x2="48"
       y2="138.66119"
       id="linearGradient3613"
       xlink:href="#linearGradient3737"
       gradientUnits="userSpaceOnUse" />
    <clipPath
       id="clipPath3613">
      <rect
         width="84"
         height="84"
         rx="6"
         ry="6"
         x="6"
         y="6"
         id="rect3615"
         style="fill:#ffffff;fill-opacity:1;fill-rule:nonzero;stroke:none" />
    </clipPath>
    <linearGradient
       id="linearGradient4281-6">
      <stop
         id="stop4283-9"
         style="stop-color:#000000;stop-opacity:1;"
         offset="0" />
      <stop
         id="stop4285-8"
         style="stop-color:#5a5a5a;stop-opacity:1;"
         offset="1" />
    </linearGradient>
    <linearGradient
       inkscape:collect="always"
       xlink:href="#linearGradient4281-6"
       id="linearGradient4520"
       gradientUnits="userSpaceOnUse"
       gradientTransform="matrix(0,4.7602803,-4.313554,0,287.38203,-62.008082)"
       x1="57.421593"
       y1="33.198589"
       x2="22.695959"
       y2="33.457397" />
  </defs>
  <metadata
     id="metadata2413">
    <rdf:RDF>
      <cc:Work
         rdf:about="">
        <dc:format>image/svg+xml</dc:format>
        <dc:type
           rdf:resource="http://purl.org/dc/dcmitype/StillImage" />
        <dc:title></dc:title>
      </cc:Work>
    </rdf:RDF>
  </metadata>
  <g
     id="layer2"
     style="display:none"
     transform="translate(0,160)">
    <rect
       width="86"
       height="85"
       rx="6"
       ry="6"
       x="5"
       y="7"
       id="rect3745"
       style="opacity:0.9;fill:url(#ButtonShadow);fill-opacity:1;fill-rule:nonzero;stroke:none;filter:url(#filter3174)" />
  </g>
  <g
     id="layer5"
     style="display:none"
     transform="translate(0,160)">
    <rect
       width="66"
       height="66"
       rx="12"
       ry="12"
       x="15"
       y="15"
       clip-path="url(#clipPath3613)"
       id="rect3171"
       style="opacity:0.3;fill:url(#linearGradient3613);fill-opacity:1;fill-rule:nonzero;stroke:#ffffff;stroke-width:0.5;stroke-linecap:round;stroke-linejoin:miter;stroke-miterlimit:4;stroke-opacity:1;stroke-dasharray:none;stroke-dashoffset:0;filter:url(#filter3794)" />
  </g>
  <g
     id="g4510"
     transform="matrix(0.94459743,0,0,0.94459743,3.4233898,6.7107358)">
    <path
       d="M 200.57174,127.95684 A 8.5817726,9.4705303 0 0 0 196.2582,120.2214 L 80.601018,46.437055 A 8.5817726,9.4705303 0 0 0 67.660363,54.61879 l 0,147.56868 a 8.5817726,9.4705303 0 0 0 12.940655,8.18173 L 196.2582,136.58487 a 8.5817726,9.4705303 0 0 0 4.31354,-8.62803 z"
       id="path5934"
       style="opacity:0.025;color:#000000;fill:none;stroke:#000000;stroke-width:24;stroke-linecap:round;stroke-linejoin:round;stroke-miterlimit:4;stroke-opacity:1;stroke-dasharray:none;marker:none;visibility:visible;display:inline;overflow:visible;enable-background:accumulate"
       inkscape:connector-curvature="0" />
    <path
       inkscape:connector-curvature="0"
       style="opacity:0.05;color:#000000;fill:none;stroke:#000000;stroke-width:18;stroke-linecap:round;stroke-linejoin:round;stroke-miterlimit:4;stroke-opacity:1;stroke-dasharray:none;marker:none;visibility:visible;display:inline;overflow:visible;enable-background:accumulate"
       id="path5932"
       d="M 200.57174,127.95684 A 8.5817726,9.4705303 0 0 0 196.2582,120.2214 L 80.601018,46.437055 A 8.5817726,9.4705303 0 0 0 67.660363,54.61879 l 0,147.56868 a 8.5817726,9.4705303 0 0 0 12.940655,8.18173 L 196.2582,136.58487 a 8.5817726,9.4705303 0 0 0 4.31354,-8.62803 z" />
    <path
       d="M 200.57174,127.95684 A 8.5817726,9.4705303 0 0 0 196.2582,120.2214 L 80.601018,46.437055 A 8.5817726,9.4705303 0 0 0 67.660363,54.61879 l 0,147.56868 a 8.5817726,9.4705303 0 0 0 12.940655,8.18173 L 196.2582,136.58487 a 8.5817726,9.4705303 0 0 0 4.31354,-8.62803 z"
       id="path5930"
       style="opacity:0.1;color:#000000;fill:none;stroke:#000000;stroke-width:12;stroke-linecap:round;stroke-linejoin:round;stroke-miterlimit:4;stroke-opacity:1;stroke-dasharray:none;marker:none;visibility:visible;display:inline;overflow:visible;enable-background:accumulate"
       inkscape:connector-curvature="0" />
    <path
       inkscape:connector-curvature="0"
       style="opacity:0.15;color:#000000;fill:none;stroke:#000000;stroke-width:6;stroke-linecap:round;stroke-linejoin:round;stroke-miterlimit:4;stroke-opacity:1;stroke-dasharray:none;marker:none;visibility:visible;display:inline;overflow:visible;enable-background:accumulate"
       id="path5928"
       d="M 200.57174,127.95684 A 8.5817726,9.4705303 0 0 0 196.2582,120.2214 L 80.601018,46.437055 A 8.5817726,9.4705303 0 0 0 67.660363,54.61879 l 0,147.56868 a 8.5817726,9.4705303 0 0 0 12.940655,8.18173 L 196.2582,136.58487 a 8.5817726,9.4705303 0 0 0 4.31354,-8.62803 z" />
    <path
       inkscape:connector-curvature="0"
       style="opacity:0.3;color:#000000;fill:#000000;fill-opacity:1;fill-rule:nonzero;stroke:none;stroke-width:2;marker:none;visibility:visible;display:inline;overflow:visible;enable-background:accumulate"
       id="path5924"
       d="M 200.57174,129.95684 A 8.5817726,9.4705303 0 0 0 196.2582,122.2214 L 80.601018,48.437055 A 8.5817726,9.4705303 0 0 0 67.660363,56.61879 l 0,147.56868 a 8.5817726,9.4705303 0 0 0 12.940655,8.18173 L 196.2582,138.58487 a 8.5817726,9.4705303 0 0 0 4.31354,-8.62803 z" />
    <path
       d="M 200.57174,127.95684 A 8.5817726,9.4705303 0 0 0 196.2582,120.2214 L 80.601018,46.437055 A 8.5817726,9.4705303 0 0 0 67.660363,54.61879 l 0,147.56868 a 8.5817726,9.4705303 0 0 0 12.940655,8.18173 L 196.2582,136.58487 a 8.5817726,9.4705303 0 0 0 4.31354,-8.62803 z"
       id="path4074"
       style="color:#000000;fill:url(#linearGradient4520);fill-opacity:1;fill-rule:nonzero;stroke:none;stroke-width:2;marker:none;visibility:visible;display:inline;overflow:visible;enable-background:accumulate"
       inkscape:connector-curvature="0" />
    <path
       inkscape:connector-curvature="0"
       id="path6941"
       d="m 76.519773,45.126022 a 8.5817726,9.4705303 0 0 0 -8.852635,9.498976 l 0,3.279098 A 8.5817726,9.4705303 0 0 1 80.595619,49.758399 L 196.25102,123.56413 a 8.5817726,9.4705303 0 0 1 4.17968,6.50615 8.5817726,9.4705303 0 0 0 0.12981,-2.10799 8.5817726,9.4705303 0 0 0 -4.30949,-7.7293 L 80.595619,46.427252 a 8.5817726,9.4705303 0 0 0 -4.075846,-1.30123 z"
       style="opacity:0.7;color:#000000;fill:#ffffff;fill-opacity:1;fill-rule:nonzero;stroke:none;stroke-width:2;marker:none;visibility:visible;display:inline;overflow:visible;enable-background:accumulate" />
    <path
       inkscape:connector-curvature="0"
       id="path6950"
       d="m 200.4219,126.73899 a 8.5817726,9.4705303 0 0 1 -4.15373,6.50615 L 80.612778,207.05088 a 8.5817726,9.4705303 0 0 1 -12.954442,-8.19774 l 0,3.33114 a 8.5817726,9.4705303 0 0 0 12.954442,8.19775 L 196.26817,136.57629 a 8.5817726,9.4705303 0 0 0 4.30949,-8.61414 8.5817726,9.4705303 0 0 0 -0.15576,-1.22316 z"
       style="opacity:0.7;color:#000000;fill:#000000;fill-opacity:1;fill-rule:nonzero;stroke:none;stroke-width:2;marker:none;visibility:visible;display:inline;overflow:visible;enable-background:accumulate" />
  </g>
</svg>
