<?xml version="1.0" encoding="UTF-8" standalone="no"?>
<!-- Created with Inkscape (http://www.inkscape.org/) -->

<svg
   xmlns:dc="http://purl.org/dc/elements/1.1/"
   xmlns:cc="http://creativecommons.org/ns#"
   xmlns:rdf="http://www.w3.org/1999/02/22-rdf-syntax-ns#"
   xmlns:svg="http://www.w3.org/2000/svg"
   xmlns="http://www.w3.org/2000/svg"
   xmlns:xlink="http://www.w3.org/1999/xlink"
   xmlns:sodipodi="http://sodipodi.sourceforge.net/DTD/sodipodi-0.dtd"
   xmlns:inkscape="http://www.inkscape.org/namespaces/inkscape"
   version="1.0"
   width="256"
   height="256"
   id="svg2408"
   inkscape:version="0.48.1 r9760"
   sodipodi:docname="gtk-media-record.svg">
  <sodipodi:namedview
     pagecolor="#ffffff"
     bordercolor="#666666"
     borderopacity="1"
     objecttolerance="10"
     gridtolerance="10"
     guidetolerance="10"
     inkscape:pageopacity="0"
     inkscape:pageshadow="2"
     inkscape:window-width="1024"
     inkscape:window-height="576"
     id="namedview4471"
     showgrid="false"
     inkscape:zoom="1.71875"
     inkscape:cx="117.81818"
     inkscape:cy="128"
     inkscape:window-x="0"
     inkscape:window-y="24"
     inkscape:window-maximized="1"
     inkscape:current-layer="svg2408"
     inkscape:snap-global="false" />
  <defs
     id="defs2410">
    <linearGradient
       x1="45.447727"
       y1="92.539597"
       x2="45.447727"
       y2="7.0165396"
       id="ButtonShadow"
       gradientUnits="userSpaceOnUse"
       gradientTransform="scale(1.0058652,0.994169)">
      <stop
         id="stop3750"
         style="stop-color:#000000;stop-opacity:1"
         offset="0" />
      <stop
         id="stop3752"
         style="stop-color:#000000;stop-opacity:0.58823532"
         offset="1" />
    </linearGradient>
    <linearGradient
       id="linearGradient3737">
      <stop
         id="stop3739"
         style="stop-color:#ffffff;stop-opacity:1"
         offset="0" />
      <stop
         id="stop3741"
         style="stop-color:#ffffff;stop-opacity:0"
         offset="1" />
    </linearGradient>
    <filter
       color-interpolation-filters="sRGB"
       id="filter3174">
      <feGaussianBlur
         id="feGaussianBlur3176"
         stdDeviation="1.71" />
    </filter>
    <filter
       x="-0.192"
       y="-0.192"
       width="1.3839999"
       height="1.3839999"
       color-interpolation-filters="sRGB"
       id="filter3794">
      <feGaussianBlur
         id="feGaussianBlur3796"
         stdDeviation="5.28" />
    </filter>
    <linearGradient
       x1="48"
       y1="20.220806"
       x2="48"
       y2="138.66119"
       id="linearGradient3613"
       xlink:href="#linearGradient3737"
       gradientUnits="userSpaceOnUse" />
    <clipPath
       id="clipPath3613">
      <rect
         width="84"
         height="84"
         rx="6"
         ry="6"
         x="6"
         y="6"
         id="rect3615"
         style="fill:#ffffff;fill-opacity:1;fill-rule:nonzero;stroke:none" />
    </clipPath>
    <linearGradient
       x1="10.761708"
       y1="3.9999998"
       x2="10.761708"
       y2="18.011395"
       id="SpecificGradient"
       gradientUnits="userSpaceOnUse">
      <stop
         id="stop3292"
         style="stop-color:#d40000;stop-opacity:1;"
         offset="0" />
      <stop
         id="stop3294"
         style="stop-color:#ff0000;stop-opacity:1;"
         offset="1" />
    </linearGradient>
    <linearGradient
       inkscape:collect="always"
       xlink:href="#SpecificGradient"
       id="linearGradient3017"
       gradientUnits="userSpaceOnUse"
       gradientTransform="matrix(0,11.896955,-11.896955,0,259.24943,-3.4005326)"
       x1="18.050909"
       y1="11"
       x2="4.0305452"
       y2="11" />
  </defs>
  <metadata
     id="metadata2413">
    <rdf:RDF>
      <cc:Work
         rdf:about="">
        <dc:format>image/svg+xml</dc:format>
        <dc:type
           rdf:resource="http://purl.org/dc/dcmitype/StillImage" />
        <dc:title></dc:title>
      </cc:Work>
    </rdf:RDF>
  </metadata>
  <path
     inkscape:connector-curvature="0"
     style="fill:none;fill-opacity:1;stroke:#000000;display:inline;stroke-opacity:1;stroke-width:18;stroke-miterlimit:4;stroke-dasharray:none;stroke-linejoin:round;opacity:0.05"
     id="path4638"
     d="m 128.38293,210.74466 a 83.278689,83.278689 0 1 1 0,-166.557375 83.278689,83.278689 0 0 1 0,166.557375 z" />
  <path
     d="m 128.38293,210.74466 a 83.278689,83.278689 0 1 1 0,-166.557375 83.278689,83.278689 0 0 1 0,166.557375 z"
     id="path4636"
     style="fill:none;fill-opacity:1;stroke:#000000;display:inline;stroke-opacity:1;stroke-width:12;stroke-miterlimit:4;stroke-dasharray:none;stroke-linejoin:round;opacity:0.1"
     inkscape:connector-curvature="0" />
  <path
     inkscape:connector-curvature="0"
     style="fill:none;fill-opacity:1;stroke:#000000;display:inline;stroke-opacity:1;stroke-width:6;stroke-miterlimit:4;stroke-dasharray:none;stroke-linejoin:round;opacity:0.15"
     id="path4124"
     d="m 128.38293,210.74466 a 83.278689,83.278689 0 1 1 0,-166.557375 83.278689,83.278689 0 0 1 0,166.557375 z" />
  <path
     inkscape:connector-curvature="0"
     style="opacity:0.3;fill:#000000;fill-opacity:1;stroke:none;display:inline"
     id="path4634"
     d="m 128.38293,212.74466 a 83.278689,83.278689 0 1 1 0,-166.557375 83.278689,83.278689 0 0 1 0,166.557375 z" />
  <g
     id="layer2"
     style="display:none"
     transform="translate(0,160)">
    <rect
       width="86"
       height="85"
       rx="6"
       ry="6"
       x="5"
       y="7"
       id="rect3745"
       style="opacity:0.9;fill:url(#ButtonShadow);fill-opacity:1;fill-rule:nonzero;stroke:none;filter:url(#filter3174)" />
  </g>
  <g
     id="layer5"
     style="display:none"
     transform="translate(0,160)">
    <rect
       width="66"
       height="66"
       rx="12"
       ry="12"
       x="15"
       y="15"
       clip-path="url(#clipPath3613)"
       id="rect3171"
       style="opacity:0.3;fill:url(#linearGradient3613);fill-opacity:1;fill-rule:nonzero;stroke:#ffffff;stroke-width:0.5;stroke-linecap:round;stroke-linejoin:miter;stroke-miterlimit:4;stroke-opacity:1;stroke-dasharray:none;stroke-dashoffset:0;filter:url(#filter3794)" />
  </g>
  <path
     d="m 128.38293,210.74466 a 83.278689,83.278689 0 1 1 0,-166.557375 83.278689,83.278689 0 0 1 0,166.557375 z"
     id="path3015"
     style="fill:url(#linearGradient3017);fill-opacity:1;stroke:none;display:inline"
     inkscape:connector-curvature="0" />
  <path
     style="opacity:0.7;fill:#ffffff;fill-opacity:1;stroke:none;display:inline"
     d="M 128.3733,43.893182 A 83.278689,83.278689 0 0 0 45.185796,127.89318 83.278689,83.278689 0 0 1 128.3733,47.893182 83.278689,83.278689 0 0 1 211.5608,130.48693 83.278689,83.278689 0 0 0 128.3733,43.893182 z"
     id="path4106"
     inkscape:connector-curvature="0" />
  <path
     style="opacity:0.7;fill:#000000;fill-opacity:1;stroke:none;display:inline"
     d="m 45.186932,124.18069 a 83.278689,83.278689 0 0 0 83.187498,86.5625 83.278689,83.278689 0 0 0 83.1875,-83.96875 83.278689,83.278689 0 0 1 -83.1875,79.96875 83.278689,83.278689 0 0 1 -83.187498,-82.5625 z"
     id="path4115"
     inkscape:connector-curvature="0" />
</svg>
