<?xml version="1.0" encoding="UTF-8" standalone="no"?>
<!-- Created with Inkscape (http://www.inkscape.org/) -->

<svg
   xmlns:dc="http://purl.org/dc/elements/1.1/"
   xmlns:cc="http://creativecommons.org/ns#"
   xmlns:rdf="http://www.w3.org/1999/02/22-rdf-syntax-ns#"
   xmlns:svg="http://www.w3.org/2000/svg"
   xmlns="http://www.w3.org/2000/svg"
   xmlns:xlink="http://www.w3.org/1999/xlink"
   xmlns:sodipodi="http://sodipodi.sourceforge.net/DTD/sodipodi-0.dtd"
   xmlns:inkscape="http://www.inkscape.org/namespaces/inkscape"
   width="256"
   height="256"
   id="svg4293"
   version="1.1"
   inkscape:version="0.48.3.1 r9886"
   sodipodi:docname="brasero.svg">
  <defs
     id="defs4295">
    <linearGradient
       id="linearGradient3330">
      <stop
         offset="0"
         style="stop-color:#ffffff;stop-opacity:0.203125"
         id="stop3332" />
      <stop
         offset="1"
         style="stop-color:#ffffff;stop-opacity:0.6796875"
         id="stop3334" />
    </linearGradient>
    <linearGradient
       id="linearGradient3342">
      <stop
         offset="0"
         style="stop-color:#000000;stop-opacity:0"
         id="stop3344" />
      <stop
         offset="0.85000002"
         style="stop-color:#000000;stop-opacity:0"
         id="stop3350" />
      <stop
         offset="1"
         style="stop-color:#000000;stop-opacity:1"
         id="stop3346" />
    </linearGradient>
    <linearGradient
       id="linearGradient3362">
      <stop
         offset="0"
         style="stop-color:#4d4d4d;stop-opacity:1"
         id="stop3364" />
      <stop
         offset="1"
         style="stop-color:#ffffff;stop-opacity:1"
         id="stop3366" />
    </linearGradient>
    <linearGradient
       gradientTransform="matrix(1.0172414,0,0,1.0172414,-1.1034483,-1.1034483)"
       gradientUnits="userSpaceOnUse"
       id="ButtonColor-3"
       y2="5.4252338"
       x2="58.650177"
       y1="122"
       x1="58.650177">
      <stop
         offset="0"
         style="stop-color:#b8abbd;stop-opacity:1"
         id="stop3189-5" />
      <stop
         offset="1"
         style="stop-color:#dddbde;stop-opacity:1"
         id="stop3191-7" />
    </linearGradient>
    <linearGradient
       id="linearGradient3233">
      <stop
         offset="0"
         style="stop-color:#ffffff;stop-opacity:0"
         id="stop3235" />
      <stop
         offset="0.15000001"
         style="stop-color:#ffffff;stop-opacity:0"
         id="stop3297" />
      <stop
         offset="0.5"
         style="stop-color:#ffffff;stop-opacity:1"
         id="stop3241" />
      <stop
         offset="0.85000002"
         style="stop-color:#ffffff;stop-opacity:0"
         id="stop3299" />
      <stop
         offset="1"
         style="stop-color:#ffffff;stop-opacity:0"
         id="stop3237" />
    </linearGradient>
    <linearGradient
       id="linearGradient3247">
      <stop
         offset="0"
         style="stop-color:#ffffff;stop-opacity:0"
         id="stop3249" />
      <stop
         offset="0.30000001"
         style="stop-color:#d5d5d5;stop-opacity:0"
         id="stop3293" />
      <stop
         offset="0.5"
         style="stop-color:#eb8888;stop-opacity:0.2578125"
         id="stop3251" />
      <stop
         offset="0.69999999"
         style="stop-color:#e28f25;stop-opacity:0"
         id="stop3295" />
      <stop
         offset="1"
         style="stop-color:#ffffff;stop-opacity:0"
         id="stop3253" />
    </linearGradient>
    <linearGradient
       id="linearGradient3265">
      <stop
         offset="0"
         style="stop-color:#ffffff;stop-opacity:0"
         id="stop3267" />
      <stop
         offset="0.2"
         style="stop-color:#afcff3;stop-opacity:0"
         id="stop3252" />
      <stop
         offset="0.34999999"
         style="stop-color:#60a0e7;stop-opacity:0.1484375"
         id="stop3269" />
      <stop
         offset="0.5"
         style="stop-color:#db8ef1;stop-opacity:0.2109375"
         id="stop3271" />
      <stop
         offset="0.64999998"
         style="stop-color:#ffffff;stop-opacity:0"
         id="stop3273" />
      <stop
         offset="1"
         style="stop-color:#ffffff;stop-opacity:0"
         id="stop3275" />
    </linearGradient>
    <linearGradient
       id="linearGradient3236">
      <stop
         offset="0"
         style="stop-color:#ffffff;stop-opacity:0"
         id="stop3238" />
      <stop
         offset="0.34999999"
         style="stop-color:#fffc2b;stop-opacity:0.234375"
         id="stop3240" />
      <stop
         offset="0.5"
         style="stop-color:#46d15d;stop-opacity:0.21875"
         id="stop3242" />
      <stop
         offset="0.64999998"
         style="stop-color:#46d1aa;stop-opacity:0"
         id="stop3244" />
      <stop
         offset="1"
         style="stop-color:#ffffff;stop-opacity:0"
         id="stop3246" />
    </linearGradient>
    <clipPath
       id="clipPath3271">
      <rect
         style="fill:#ffffff;fill-opacity:1;fill-rule:evenodd;stroke:none"
         id="rect3273"
         y="160.00336"
         x="5"
         height="59"
         width="118" />
    </clipPath>
    <radialGradient
       inkscape:collect="always"
       xlink:href="#linearGradient3342"
       id="radialGradient3565"
       gradientUnits="userSpaceOnUse"
       gradientTransform="matrix(0,0.95308331,-0.95889648,0,197.47985,853.16093)"
       cx="59.893993"
       cy="61.92226"
       fx="59.893993"
       fy="61.92226"
       r="33.71384" />
    <linearGradient
       inkscape:collect="always"
       xlink:href="#linearGradient3362"
       id="linearGradient3567"
       gradientUnits="userSpaceOnUse"
       gradientTransform="matrix(0,0.44450749,-0.53396427,0,171.16706,883.62158)"
       x1="25.220379"
       y1="61.92226"
       x2="94.567612"
       y2="61.92226" />
    <linearGradient
       inkscape:collect="always"
       xlink:href="#ButtonColor-3"
       id="linearGradient3569"
       gradientUnits="userSpaceOnUse"
       gradientTransform="matrix(3.6051753,0,0,4.3310661,-77.82555,642.05549)"
       x1="73.015572"
       y1="89.130737"
       x2="73.015572"
       y2="34.606899" />
    <linearGradient
       inkscape:collect="always"
       xlink:href="#linearGradient3233"
       id="linearGradient3571"
       gradientUnits="userSpaceOnUse"
       gradientTransform="matrix(1.7296582,0.99865875,-0.99861861,1.7297277,91.316254,736.33393)"
       x1="5"
       y1="64"
       x2="123"
       y2="64" />
    <linearGradient
       inkscape:collect="always"
       xlink:href="#linearGradient3236"
       id="linearGradient3573"
       gradientUnits="userSpaceOnUse"
       gradientTransform="matrix(-0.9850397,0.171492,-0.171492,-0.9850397,138.01803,271.06706)"
       x1="5"
       y1="64"
       x2="123"
       y2="64" />
    <linearGradient
       inkscape:collect="always"
       xlink:href="#linearGradient3265"
       id="linearGradient3575"
       gradientUnits="userSpaceOnUse"
       gradientTransform="matrix(-0.8529965,0.5216416,-0.5216416,-0.8529964,151.97682,240.20671)"
       x1="5"
       y1="64"
       x2="123"
       y2="64" />
    <linearGradient
       inkscape:collect="always"
       xlink:href="#linearGradient3247"
       id="linearGradient3577"
       gradientUnits="userSpaceOnUse"
       gradientTransform="matrix(-0.881451,-0.4719713,0.4719713,-0.881451,90.206697,305.61903)"
       x1="5"
       y1="64"
       x2="123"
       y2="64" />
    <linearGradient
       inkscape:collect="always"
       xlink:href="#linearGradient3236"
       id="linearGradient3579"
       gradientUnits="userSpaceOnUse"
       gradientTransform="matrix(-0.9850397,0.171492,-0.171492,-0.9850397,138.01803,271.06706)"
       x1="5"
       y1="64"
       x2="123"
       y2="64" />
    <linearGradient
       inkscape:collect="always"
       xlink:href="#linearGradient3265"
       id="linearGradient3581"
       gradientUnits="userSpaceOnUse"
       gradientTransform="matrix(-0.8529965,0.5216416,-0.5216416,-0.8529964,151.97682,240.20671)"
       x1="5"
       y1="64"
       x2="123"
       y2="64" />
    <linearGradient
       inkscape:collect="always"
       xlink:href="#linearGradient3247"
       id="linearGradient3583"
       gradientUnits="userSpaceOnUse"
       gradientTransform="matrix(-0.881451,-0.4719713,0.4719713,-0.881451,90.206697,305.61903)"
       x1="5"
       y1="64"
       x2="123"
       y2="64" />
    <linearGradient
       inkscape:collect="always"
       xlink:href="#linearGradient3330"
       id="linearGradient3585"
       gradientUnits="userSpaceOnUse"
       gradientTransform="matrix(0,1.0082676,-1.2111817,0,213.10192,849.85572)"
       x1="26.180153"
       y1="61.92226"
       x2="93.607834"
       y2="61.92226" />
    <linearGradient
       id="linearGradient14625">
      <stop
         style="stop-color:#ffffff;stop-opacity:1.0000000;"
         offset="0.0000000"
         id="stop14626" />
      <stop
         style="stop-color:#ffffff;stop-opacity:0;"
         offset="1"
         id="stop14627" />
    </linearGradient>
    <linearGradient
       id="linearGradient26051">
      <stop
         style="stop-color:#ffffff;stop-opacity:0.44927537;"
         offset="0.0000000"
         id="stop26052" />
      <stop
         style="stop-color:#ffffff;stop-opacity:0;"
         offset="1"
         id="stop26053" />
    </linearGradient>
    <linearGradient
       id="linearGradient17250">
      <stop
         style="stop-color:#dc0000;stop-opacity:1.0000000;"
         offset="0.0000000"
         id="stop17251" />
      <stop
         style="stop-color:#ffb200;stop-opacity:1.0000000;"
         offset="1.0000000"
         id="stop17252" />
    </linearGradient>
    <linearGradient
       id="linearGradient29186">
      <stop
         style="stop-color:#ffffff;stop-opacity:1.0000000;"
         offset="0.0000000"
         id="stop29187" />
      <stop
         style="stop-color:#ffffff;stop-opacity:0;"
         offset="1"
         id="stop29188" />
    </linearGradient>
    <linearGradient
       inkscape:collect="always"
       xlink:href="#linearGradient17250"
       id="linearGradient5723"
       gradientUnits="userSpaceOnUse"
       gradientTransform="matrix(0.84248835,0,0,0.90886474,912.55004,617.91519)"
       x1="-1006.61"
       y1="448.68289"
       x2="-953.87994"
       y2="299.88538" />
    <linearGradient
       inkscape:collect="always"
       xlink:href="#linearGradient29186"
       id="linearGradient5725"
       gradientUnits="userSpaceOnUse"
       gradientTransform="matrix(0.72281049,0,0,0.77975764,-80.692105,650.28803)"
       x1="9.6549549"
       y1="256.78357"
       x2="323.10443"
       y2="500.80176" />
    <linearGradient
       inkscape:collect="always"
       xlink:href="#linearGradient17250"
       id="linearGradient5727"
       gradientUnits="userSpaceOnUse"
       gradientTransform="matrix(0.62919439,0,0,1.2169634,912.55004,617.91519)"
       x1="-1308.2009"
       y1="330.19891"
       x2="-1335.0436"
       y2="272.82257" />
    <linearGradient
       inkscape:collect="always"
       xlink:href="#linearGradient26051"
       id="linearGradient5729"
       gradientUnits="userSpaceOnUse"
       gradientTransform="matrix(0.54432414,0,0,1.0354429,-96.483775,658.80048)"
       x1="468.40564"
       y1="232.90141"
       x2="502.45129"
       y2="232.90141" />
    <linearGradient
       inkscape:collect="always"
       xlink:href="#linearGradient17250"
       id="linearGradient5731"
       gradientUnits="userSpaceOnUse"
       gradientTransform="matrix(0.83113094,0,0,0.92128368,912.55004,617.91519)"
       x1="-916.89685"
       y1="438.47348"
       x2="-857.95917"
       y2="362.15622" />
    <linearGradient
       inkscape:collect="always"
       xlink:href="#linearGradient14625"
       id="linearGradient5733"
       gradientUnits="userSpaceOnUse"
       gradientTransform="matrix(0.71306647,0,0,0.7904125,-75.225769,640.92439)"
       x1="501.40482"
       y1="384.39618"
       x2="317.13544"
       y2="485.78278" />
    <linearGradient
       inkscape:collect="always"
       xlink:href="#linearGradient26051"
       id="linearGradient5735"
       gradientUnits="userSpaceOnUse"
       gradientTransform="matrix(0.54036196,0,0,1.043036,-96.483775,657.52358)"
       x1="533.78339"
       y1="294.8653"
       x2="572.40991"
       y2="294.8653" />
    <linearGradient
       inkscape:collect="always"
       xlink:href="#linearGradient17250"
       id="linearGradient5737"
       gradientUnits="userSpaceOnUse"
       gradientTransform="matrix(0.71406375,0,0,1.072324,912.55004,617.91519)"
       x1="-1131.0251"
       y1="404.58243"
       x2="-1102.728"
       y2="306.75836" />
    <linearGradient
       inkscape:collect="always"
       xlink:href="#linearGradient26051"
       id="linearGradient5739"
       gradientUnits="userSpaceOnUse"
       gradientTransform="matrix(0.48798194,0,0,1.1549962,-96.483775,658.80048)"
       x1="349.43204"
       y1="179.97382"
       x2="390.31766"
       y2="179.97382" />
    <linearGradient
       inkscape:collect="always"
       xlink:href="#linearGradient14625"
       id="linearGradient5741"
       gradientUnits="userSpaceOnUse"
       gradientTransform="matrix(0.61262912,0,0,0.91999723,-76.440515,637.945)"
       x1="198.88322"
       y1="246.21246"
       x2="342.54471"
       y2="403.09412" />
    <linearGradient
       inkscape:collect="always"
       xlink:href="#linearGradient14625"
       id="linearGradient5743"
       gradientUnits="userSpaceOnUse"
       gradientTransform="matrix(0.5398158,0,0,1.0440911,-73.249655,646.83811)"
       x1="110.44791"
       y1="244.048"
       x2="239.46423"
       y2="376.90421" />
  </defs>
  <sodipodi:namedview
     id="base"
     pagecolor="#ffffff"
     bordercolor="#666666"
     borderopacity="1.0"
     inkscape:pageopacity="0.0"
     inkscape:pageshadow="2"
     inkscape:zoom="1.6484375"
     inkscape:cx="128"
     inkscape:cy="128"
     inkscape:document-units="px"
     inkscape:current-layer="layer1"
     showgrid="false"
     inkscape:window-width="1024"
     inkscape:window-height="572"
     inkscape:window-x="0"
     inkscape:window-y="28"
     inkscape:window-maximized="1"
     inkscape:snap-bbox="true"
     inkscape:bbox-paths="true"
     inkscape:bbox-nodes="true"
     inkscape:snap-bbox-edge-midpoints="true"
     inkscape:snap-bbox-midpoints="true"
     inkscape:object-paths="true"
     inkscape:snap-intersection-paths="true"
     inkscape:object-nodes="true"
     inkscape:snap-smooth-nodes="true"
     inkscape:snap-midpoints="true"
     inkscape:snap-object-midpoints="true"
     inkscape:snap-center="true"
     inkscape:snap-nodes="true"
     fit-margin-top="0"
     fit-margin-left="0"
     fit-margin-right="0"
     fit-margin-bottom="0" />
  <metadata
     id="metadata4298">
    <rdf:RDF>
      <cc:Work
         rdf:about="">
        <dc:format>image/svg+xml</dc:format>
        <dc:type
           rdf:resource="http://purl.org/dc/dcmitype/StillImage" />
        <dc:title></dc:title>
      </cc:Work>
    </rdf:RDF>
  </metadata>
  <g
     inkscape:label="Layer 1"
     inkscape:groupmode="layer"
     id="layer1"
     transform="translate(-0.34952,-796.2014)">
    <g
       id="g3542"
       transform="translate(-9.7552,10.3464)">
      <path
         d="m 138.10472,785.85497 c -70.508469,0 -128,57.48886 -128,128 0,70.51115 57.491538,128.00003 128,128.00003 70.50849,0 128,-57.48889 128,-128.00003 0,-70.51113 -57.4915,-128 -128,-128 z m 0,96.19529 c 17.73168,0 31.80471,14.07215 31.80471,31.80471 0,17.73253 -14.07304,31.80471 -31.80471,31.80471 -17.73167,0 -31.80471,-14.07218 -31.80471,-31.80471 0,-17.73256 14.07303,-31.80471 31.80471,-31.80471 z"
         id="path3964"
         style="opacity:0.05;fill:#000000;fill-opacity:1;fill-rule:evenodd;stroke:none;display:inline"
         inkscape:connector-curvature="0" />
      <path
         d="m 138.10472,789.53762 c -68.507593,0 -124.31735,55.80711 -124.31735,124.31735 0,68.51026 55.809761,124.31733 124.31735,124.31733 68.50762,0 124.31735,-55.80708 124.31735,-124.31733 0,-68.51024 -55.80973,-124.31735 -124.31735,-124.31735 z m 0,88.82999 c 19.69997,0 35.48736,15.78649 35.48736,35.48736 0,19.70085 -15.78739,35.48736 -35.48736,35.48736 -19.69997,0 -35.48736,-15.78651 -35.48736,-35.48736 0,-19.70087 15.78739,-35.48736 35.48736,-35.48736 z"
         id="path3960"
         style="opacity:0.07999998;fill:#000000;fill-opacity:1;fill-rule:evenodd;stroke:none;display:inline"
         inkscape:connector-curvature="0" />
      <path
         d="m 138.10472,793.10867 c -66.598803,0 -120.746295,54.14486 -120.746295,120.7463 0,66.60145 54.147495,120.74633 120.746295,120.74633 66.59883,0 120.74629,-54.14488 120.74629,-120.74633 0,-66.60143 -54.14746,-120.7463 -120.74629,-120.7463 z m 0,81.68788 c 21.59793,0 39.05841,17.45957 39.05841,39.05842 0,21.59883 -17.46048,39.05841 -39.05841,39.05841 -21.59793,0 -39.058414,-17.45958 -39.058414,-39.05841 0,-21.59885 17.460484,-39.05842 39.058414,-39.05842 z"
         id="path3956"
         style="opacity:0.15;fill:#000000;fill-opacity:1;fill-rule:evenodd;stroke:none;display:inline"
         inkscape:connector-curvature="0" />
      <path
         d="m 138.10279,795.97422 c -65.046014,0 -117.83699,52.7931 -117.83699,117.84174 0,65.04865 52.790976,117.84174 117.83699,117.84174 65.04605,0 117.83699,-52.79309 117.83699,-117.84174 0,-65.04864 -52.79094,-117.84174 -117.83699,-117.84174 z m 0,75.89807 c 23.15197,0 41.94197,18.79076 41.94197,41.94367 0,23.15289 -18.79,41.94364 -41.94197,41.94364 -23.15197,0 -41.941968,-18.79075 -41.941968,-41.94364 0,-23.15291 18.789998,-41.94367 41.941968,-41.94367 z"
         inkscape:connector-curvature="0"
         id="path3950"
         style="opacity:0.3;fill:#000000;fill-opacity:1;fill-rule:evenodd;stroke:none;display:inline" />
      <path
         d="m 138.10279,855.818 c -30.03862,0 -54.424715,24.38709 -54.424715,54.4269 0,30.03981 24.386095,54.4269 54.424715,54.4269 30.03861,0 54.42472,-24.38706 54.42472,-54.4269 0,-30.03981 -24.38611,-54.4269 -54.42472,-54.4269 z m 0,38.44836 c 8.8198,0 15.9779,7.15839 15.9779,15.97854 0,8.82016 -7.1581,15.97852 -15.9779,15.97852 -8.81982,0 -15.9779,-7.15836 -15.9779,-15.97852 0,-8.82015 7.1581,-15.97854 15.9779,-15.97854 z"
         inkscape:connector-curvature="0"
         id="path3307"
         style="opacity:0.3;fill:#ffffff;fill-opacity:1;fill-rule:evenodd;stroke:none;display:inline" />
      <path
         d="m 138.10281,941.39691 a 31.15076,31.152017 0 1 1 0,-62.30403 31.15076,31.152017 0 1 1 0,62.30403 z"
         id="path3328"
         style="opacity:0.3;fill:url(#radialGradient3565);fill-opacity:1;fill-rule:evenodd;stroke:none;display:inline"
         inkscape:connector-curvature="0" />
      <path
         d="m 138.10278,924.77386 a 14.528357,14.528955 0 1 1 0,-29.05791 14.528357,14.528955 0 1 1 0,29.05791 z"
         id="path3352"
         style="opacity:0.6;fill:none;stroke:url(#linearGradient3567);stroke-width:3.5710547;stroke-linecap:round;stroke-linejoin:miter;stroke-miterlimit:4;stroke-opacity:1;stroke-dasharray:none;stroke-dashoffset:0;display:inline"
         inkscape:connector-curvature="0" />
      <path
         d="m 138.10279,792.40317 c -65.046029,0 -117.837001,52.7931 -117.837001,117.84173 0,65.04866 52.790976,117.8418 117.837001,117.8418 65.04604,0 117.83699,-52.79314 117.83699,-117.8418 0,-65.04863 -52.79095,-117.84173 -117.83699,-117.84173 z m 0,75.89807 c 23.15197,-10e-6 41.94196,18.79076 41.94196,41.94366 0,23.15289 -18.78999,41.94364 -41.94196,41.94364 -23.15197,0 -41.941982,-18.79075 -41.941982,-41.94364 0,-23.1529 18.790012,-41.94366 41.941982,-41.94366 z"
         inkscape:connector-curvature="0"
         id="path3170"
         style="fill:url(#linearGradient3569);fill-opacity:1;fill-rule:evenodd;stroke:none;display:inline" />
      <path
         d="M 197.02129,808.89673 C 140.68977,776.37241 68.575962,795.69603 36.052955,852.0298 3.5299438,908.36357 22.852783,980.48028 79.184288,1013.0046 c 56.331502,32.5243 128.445332,13.2007 160.968342,-43.13305 32.52302,-56.33378 13.20018,-128.45049 -43.13134,-160.97482 z m -37.94751,65.72965 c 20.05021,11.57646 26.92782,37.24512 15.35184,57.29613 -11.576,20.051 -37.24363,26.92889 -57.29382,15.35243 -20.050199,-11.57643 -26.927826,-37.2451 -15.35183,-57.29611 11.57597,-20.051 37.24361,-26.92889 57.29381,-15.35245 z"
         inkscape:connector-curvature="0"
         id="path3230"
         style="opacity:0.8;fill:url(#linearGradient3571);fill-opacity:1;fill-rule:evenodd;stroke:none;display:inline" />
      <path
         d="m 190.73914,910.60201 a 52.636355,52.638458 0 0 1 -105.272709,0 52.636355,52.638458 0 1 1 105.272709,0 z"
         id="path3304"
         style="opacity:0.15;fill:none;stroke:#000000;stroke-width:10.71316338;stroke-linecap:round;stroke-linejoin:miter;stroke-miterlimit:4;stroke-opacity:1;stroke-dasharray:none;stroke-dashoffset:0;display:inline"
         inkscape:connector-curvature="0" />
      <g
         transform="matrix(1.2267838,-1.5761212,1.5760578,1.2268331,-285.57068,742.44151)"
         id="g3289"
         style="display:inline">
        <g
           clip-path="url(#clipPath3271)"
           id="g3266">
          <path
             d="M 74.118027,277.11735 C 106.19881,271.5322 127.70249,240.96275 122.11734,208.88198 116.5322,176.8012 85.962749,155.29751 53.881978,160.88266 21.801203,166.46781 0.29750806,197.03725 5.8826547,229.11804 11.4678,261.19881 42.037246,282.70249 74.118027,277.11735 z m -6.516698,-37.43151 c -11.41858,1.98793 -22.299227,-5.66593 -24.287158,-17.08451 -1.987941,-11.41857 5.665921,-22.29923 17.084499,-24.28716 11.41858,-1.98793 22.299233,5.66593 24.28717,17.08451 1.987924,11.41857 -5.665932,22.29923 -17.084511,24.28716 z"
             inkscape:connector-curvature="0"
             id="path3259"
             style="fill:url(#linearGradient3573);fill-opacity:1;fill-rule:evenodd;stroke:none;display:inline" />
          <path
             d="M 94.776853,269.3268 C 122.55724,252.33798 131.31561,216.00355 114.32679,188.22315 97.337964,160.44278 61.003543,151.6844 33.223145,168.67322 5.4427579,185.66204 -3.3156068,221.99648 13.673211,249.77686 30.662035,277.55725 66.996455,286.31562 94.776853,269.3268 z M 74.954469,236.91293 c -9.88793,6.04687 -22.820523,2.92947 -28.867393,-6.95846 -6.046863,-9.88793 -2.929476,-22.82053 6.958454,-28.86739 9.887938,-6.04686 22.820537,-2.92949 28.867401,6.95845 6.046855,9.88793 2.929476,22.82053 -6.958462,28.8674 z"
             inkscape:connector-curvature="0"
             id="path3231"
             style="fill:url(#linearGradient3575);fill-opacity:1;fill-rule:evenodd;stroke:none;display:inline" />
          <path
             d="m 36.153689,271.00561 c 28.707102,15.37117 64.480751,4.54779 79.851921,-24.1593 15.37116,-28.70708 4.5478,-64.48074 -24.159308,-79.85191 -28.707087,-15.37116 -64.480736,-4.5478 -79.851909,24.15931 -15.371173,28.70708 -4.5478122,64.48073 24.159296,79.8519 z m 17.934913,-33.49512 c -10.217773,-5.4711 -14.070163,-18.2041 -8.599064,-28.42189 5.471077,-10.21777 18.204079,-14.07015 28.421859,-8.59906 10.217787,5.47108 14.07017,18.2041 8.599071,28.42186 -5.471084,10.21778 -18.204093,14.07016 -28.421866,8.59909 z"
             inkscape:connector-curvature="0"
             id="path3243"
             style="fill:url(#linearGradient3577);fill-opacity:1;fill-rule:evenodd;stroke:none;display:inline" />
        </g>
        <g
           transform="matrix(1,0,0,-1,0,438.00336)"
           clip-path="url(#clipPath3271)"
           id="g3275">
          <path
             d="M 74.118027,277.11735 C 106.19881,271.5322 127.70249,240.96275 122.11734,208.88198 116.5322,176.8012 85.962749,155.29751 53.881978,160.88266 21.801203,166.46781 0.29750806,197.03725 5.8826547,229.11804 11.4678,261.19881 42.037246,282.70249 74.118027,277.11735 z m -6.516698,-37.43151 c -11.41858,1.98793 -22.299227,-5.66593 -24.287158,-17.08451 -1.987941,-11.41857 5.665921,-22.29923 17.084499,-24.28716 11.41858,-1.98793 22.299233,5.66593 24.28717,17.08451 1.987924,11.41857 -5.665932,22.29923 -17.084511,24.28716 z"
             inkscape:connector-curvature="0"
             id="path3277"
             style="fill:url(#linearGradient3579);fill-opacity:1;fill-rule:evenodd;stroke:none;display:inline" />
          <path
             d="M 94.776853,269.3268 C 122.55724,252.33798 131.31561,216.00355 114.32679,188.22315 97.337964,160.44278 61.003543,151.6844 33.223145,168.67322 5.4427579,185.66204 -3.3156068,221.99648 13.673211,249.77686 30.662035,277.55725 66.996455,286.31562 94.776853,269.3268 z M 74.954469,236.91293 c -9.88793,6.04687 -22.820523,2.92947 -28.867393,-6.95846 -6.046863,-9.88793 -2.929476,-22.82053 6.958454,-28.86739 9.887938,-6.04686 22.820537,-2.92949 28.867401,6.95845 6.046855,9.88793 2.929476,22.82053 -6.958462,28.8674 z"
             inkscape:connector-curvature="0"
             id="path3279"
             style="fill:url(#linearGradient3581);fill-opacity:1;fill-rule:evenodd;stroke:none;display:inline" />
          <path
             d="m 36.153689,271.00561 c 28.707102,15.37117 64.480751,4.54779 79.851921,-24.1593 15.37116,-28.70708 4.5478,-64.48074 -24.159308,-79.85191 -28.707087,-15.37116 -64.480736,-4.5478 -79.851909,24.15931 -15.371173,28.70708 -4.5478122,64.48073 24.159296,79.8519 z m 17.934913,-33.49512 c -10.217773,-5.4711 -14.070163,-18.2041 -8.599064,-28.42189 5.471077,-10.21777 18.204079,-14.07015 28.421859,-8.59906 10.217787,5.47108 14.07017,18.2041 8.599071,28.42186 -5.471084,10.21778 -18.204093,14.07016 -28.421866,8.59909 z"
             inkscape:connector-curvature="0"
             id="path3281"
             style="fill:url(#linearGradient3583);fill-opacity:1;fill-rule:evenodd;stroke:none;display:inline" />
        </g>
      </g>
      <path
         d="m 138.10472,792.4391 c -65.046016,0 -117.844813,52.79618 -117.844813,117.84481 0,1.20489 0.07564,2.37484 0.111596,3.57106 1.872047,-63.41483 53.870138,-114.27376 117.733217,-114.27376 63.86311,0 115.86117,50.85893 117.73322,114.27376 0.036,-1.19622 0.11159,-2.36617 0.11159,-3.57106 0,-65.04863 -52.79876,-117.84481 -117.84481,-117.84481 z"
         inkscape:connector-curvature="0"
         id="path3933"
         style="opacity:0.8;fill:#ffffff;fill-opacity:1;fill-rule:evenodd;stroke:none;display:inline" />
      <path
         d="m 173.01937,910.25726 c 0,-18.93386 -15.46428,-34.59619 -34.93502,-34.59619 -19.47074,0 -34.89717,15.66233 -34.89717,34.59619 0,18.93386 15.42643,34.56467 34.89717,34.56467 19.47074,0 34.93502,-15.63081 34.93502,-34.56467 z m -3.93634,0 c 0,17.46805 -14.06898,31.31931 -30.99868,31.31931 -16.9297,0 -30.96083,-13.85126 -30.96083,-31.31931 0,-17.46805 14.03113,-31.35083 30.96083,-31.35083 16.9297,0 30.99868,13.88278 30.99868,31.35083 z"
         inkscape:connector-curvature="0"
         id="path3942"
         style="font-size:medium;font-style:normal;font-variant:normal;font-weight:normal;font-stretch:normal;text-indent:0;text-align:start;text-decoration:none;line-height:normal;letter-spacing:normal;word-spacing:normal;text-transform:none;direction:ltr;block-progression:tb;writing-mode:lr-tb;text-anchor:start;opacity:0.5;color:#000000;fill:url(#linearGradient3585);fill-opacity:1;stroke:none;stroke-width:3.23149872;marker:none;visibility:visible;display:inline;overflow:visible;enable-background:accumulate;font-family:Abandoned Bitplane;-inkscape-font-specification:Abandoned Bitplane" />
    </g>
    <g
       id="g5707"
       transform="matrix(1.0093488,0,0,1.0688353,-0.21985148,-77.959227)"
       style="opacity:0.7">
      <path
         sodipodi:nodetypes="cccccccccccccccc"
         d="m 24.510344,982.73332 c 17.35161,35.93328 42.157029,53.62208 90.329806,61.46428 52.72874,1.8447 108.04819,-17.0013 93.80434,-56.01984 -6.47448,8.34812 -10.61814,12.88524 -21.75425,15.24444 4.40265,-21.59631 -23.82607,-25.2259 -10.10018,-48.45557 9.58224,-14.33699 15.27977,-31.9407 -1.55387,-46.27773 -6.99243,16.33332 -15.53874,27.22222 -32.63137,39.19998 1.81285,-19.96293 16.83364,-36.1148 7.76936,-54.98887 1.2949,-12.7037 -28.48769,-12.34073 -28.74667,-51.17776 -18.90547,16.6963 -26.933828,29.58147 -24.085057,54.98887 -6.992444,20.50739 -24.085035,27.94816 -20.977297,50.0889 -2.589787,-12.34076 -4.40264,-23.04816 -0.776952,-32.12223 -2.071819,-11.25185 -4.143656,-20.87038 -20.200363,-28.85556 4.920607,13.97407 10.618149,35.02592 -6.215493,40.28885 -4.661623,6.71482 -27.969742,29.76299 -2.33082,65.87778 -7.510377,-3.08516 -15.02079,-3.99259 -22.531184,-9.25554 z"
         id="path15991"
         style="fill:url(#linearGradient5723);fill-opacity:1;fill-rule:evenodd;stroke:#ffff00;stroke-width:1.61883782999999992;stroke-linecap:butt;stroke-linejoin:miter;stroke-miterlimit:4;stroke-opacity:0.50381679000000001"
         inkscape:connector-curvature="0" />
      <path
         d="m 115.99398,849.54117 c -13.44587,12.37131 -19.148304,28.17014 -17.434191,43.57526 1.280882,7.53326 -4.434541,14.54658 -8.503357,21.27608 -7.481967,10.03135 -14.250189,20.98662 -12.204305,32.57689 -0.590141,6.67841 -4.824184,-0.0551 -4.378319,-3.41411 -2.027722,-9.44904 -2.894939,-19.24781 -0.128975,-28.60823 -1.394116,-9.10863 -4.686734,-18.9824 -15.420311,-24.9686 3.187333,10.81201 7.328971,22.99789 -0.364339,33.32788 -2.760244,3.46073 -8.934482,4.407 -10.224945,8.56267 -12.95262,15.90028 -13.928561,35.72365 -4.094751,52.5568 2.046498,3.83397 4.715899,7.49392 7.032997,11.25128 -7.217035,-2.8877 -15.137059,-4.84743 -22.112377,-8.01283 9.662125,19.82554 28.03444,39.32944 57.037239,47.04494 11.40542,3.4026 22.984914,5.6763 35.034994,7.0195 28.7921,1.4493 60.04623,0.3393 77.47165,-15.7668 10.23824,-9.318 13.08244,-21.8931 9.59715,-33.25031 -4.61199,6.53641 -12.60371,11.83381 -22.92513,13.51181 2.37479,-8.39183 -1.24077,-16.78947 -7.42762,-23.96734 -6.67886,-7.65894 -8.24915,-17.34063 -2.91912,-25.61554 8.08706,-12.42132 14.19958,-27.45264 4.78133,-40.38035 -2.91466,-5.96792 -4.96644,-2.30446 -6.44308,1.92259 -6.1579,13.27386 -18.59243,24.56566 -32.66466,34.24862 0.97447,-13.54188 7.71683,-26.35462 10.58215,-39.66654 1.63613,-6.78153 -0.24339,-13.58661 -2.26943,-20.15383 -1.37916,-7.37943 -12.35428,-11.16488 -16.98486,-17.48414 -8.25201,-8.40467 -10.99662,-18.85082 -11.47842,-28.88509 -1.18644,1.09979 -2.37285,2.19959 -3.55929,3.29939 z"
         id="path29198"
         style="fill:url(#linearGradient5725);fill-opacity:1;fill-rule:evenodd;stroke:none"
         inkscape:connector-curvature="0"
         sodipodi:nodetypes="cccccccccccccccccccccccccccc" />
      <path
         d="m 113.08119,1034.4555 c -41.177658,-30.4889 -48.170102,-51.72218 -20.977295,-71.86663 30.559525,-38.11109 23.049135,-62.06664 0.776935,-84.93329 20.97731,50.6333 -24.862005,83.29994 -39.623793,97.99993 -8.805296,-19.05552 -1.294902,-27.2222 10.877116,-50.63329 -23.826086,18.14814 -38.328925,40.10739 -29.52361,60.97775 16.05669,31.39633 53.867647,38.29263 78.470647,48.45553 z"
         id="path15990"
         style="fill:url(#linearGradient5727);fill-opacity:1;fill-rule:evenodd;stroke:#ffff00;stroke-width:1.61883782999999992;stroke-linecap:butt;stroke-linejoin:miter;stroke-miterlimit:4;stroke-opacity:0.50381679000000001"
         inkscape:connector-curvature="0" />
      <path
         d="m 163.05425,919.26058 c -5.5198,-11.25 -1.01538,-13.65926 3.81979,-18.57407 4.98781,-1.36133 3.45903,-6.10776 6.1808,-16.67828 4.12105,11.79833 15.18447,17.16284 -10.00059,35.25235 z"
         id="path15994"
         style="fill:#ffd700;fill-opacity:1;fill-rule:evenodd;stroke:#ffff00;stroke-width:1.61883782999999992;stroke-linecap:butt;stroke-linejoin:miter;stroke-miterlimit:4;stroke-opacity:0.50381679000000001"
         inkscape:connector-curvature="0" />
      <path
         d="m 169.25701,882.15806 c -1.67832,5.01525 -0.9196,10.5424 -4.03572,15.22046 -7.30113,3.9086 -10.48477,11.17146 -7.28326,17.33504 0.99398,5.16588 3.29972,6.05711 7.38721,1.33982 8.7278,-6.29354 16.89395,-15.31086 11.92437,-24.32868 -2.24231,-4.59957 -4.20578,-9.26913 -6.70342,-13.80873 -0.42972,1.41403 -0.85944,2.82806 -1.28918,4.24209 z"
         id="path28563"
         style="fill:url(#linearGradient5729);fill-opacity:1;fill-rule:evenodd;stroke:none"
         inkscape:connector-curvature="0" />
      <path
         d="m 198.5443,988.17776 c 14.24386,-9.61853 11.39509,-13.79262 10.10019,-20.68886 -4.14366,-3.26667 1.03591,-7.62225 6.21551,-19.60002 -13.20794,10.70741 -28.7467,12.15926 -16.3157,40.28888 z"
         id="path15993"
         style="fill:#ffd700;fill-opacity:1;fill-rule:evenodd;stroke:#ffff00;stroke-width:1.61883782999999992;stroke-linecap:butt;stroke-linejoin:miter;stroke-miterlimit:4;stroke-opacity:0.50381679000000001"
         inkscape:connector-curvature="0" />
      <path
         d="m 131.72769,1034.4555 c 16.05671,-6.3518 20.45934,-26.3148 22.5312,-48.45553 3.88467,-21.4148 11.65405,-42.82961 62.93191,-46.27776 -20.97732,11.79633 -38.06992,26.31482 -30.30056,53.35557 -2.07182,39.38142 -43.76747,37.92962 -55.16255,41.37772 z"
         id="path15992"
         style="fill:url(#linearGradient5731);fill-opacity:1;fill-rule:evenodd;stroke:#ffff00;stroke-width:1.61883782999999992;stroke-linecap:butt;stroke-linejoin:miter;stroke-miterlimit:4;stroke-opacity:0.50381679000000001"
         inkscape:connector-curvature="0" />
      <path
         d="m 211.28221,936.59381 c -21.86573,2.17252 -44.40398,11.37796 -50.82159,27.0131 -10.29883,19.54314 -4.60787,41.78629 -18.6544,60.55849 -5.33444,1.6246 -4.03034,8.5937 2.55757,7.2302 19.29652,-2.4518 37.61077,-11.8458 42.49958,-25.6323 4.71515,-9.57377 2.0415,-19.70206 1.53989,-29.53583 0.6416,-14.26184 12.42565,-27.12284 27.89556,-35.9218 2.70803,-2.73317 -1.8085,-3.65253 -5.01661,-3.71186 z"
         id="path26056"
         style="fill:url(#linearGradient5733);fill-opacity:1;fill-rule:evenodd;stroke:none"
         inkscape:connector-curvature="0" />
      <path
         d="m 211.54797,944.06077 c -8.8113,6.53601 -21.59423,12.65278 -21.28584,22.70207 -0.65125,7.19991 3.00753,14.06462 5.28309,20.9757 7.64874,-5.1147 16.34294,-11.77729 13.54117,-19.84329 -0.0198,-3.55417 -3.84253,-6.66322 -0.84157,-10.1262 2.88231,-5.48367 5.89743,-10.94024 7.89937,-16.6345 -1.53207,0.97542 -3.06414,1.95084 -4.59622,2.92622 z"
         id="path28562"
         style="fill:url(#linearGradient5735);fill-opacity:1;fill-rule:evenodd;stroke:none"
         inkscape:connector-curvature="0" />
      <path
         d="m 103.75796,1019.7555 c -2.07185,-17.4222 -4.920604,-29.94443 26.41586,-45.73329 53.09071,-25.95183 26.93382,-41.01481 -6.21549,-68.05554 9.84121,26.85923 -5.95653,48.27403 -19.42345,62.61109 -8.805279,8.89261 -39.364808,27.04076 -0.77692,51.17774 z"
         id="path15989"
         style="fill:url(#linearGradient5737);fill-opacity:1;fill-rule:evenodd;stroke:#ffff00;stroke-width:1.61883782999999992;stroke-linecap:butt;stroke-linejoin:miter;stroke-miterlimit:4;stroke-opacity:0.50381679000000001"
         inkscape:connector-curvature="0" />
      <path
         d="m 83.506309,891.95874 c 14.338839,-11.57019 10.656227,-16.33267 8.314264,-24.29883 -4.981778,-3.67236 0.117744,-8.87531 4.19865,-22.92392 -13.057063,12.80418 -29.907674,14.93394 -12.512914,47.22275 z"
         id="path15995"
         style="fill:#ffd700;fill-opacity:1;fill-rule:evenodd;stroke:#ffff00;stroke-width:1.61883782999999992;stroke-linecap:butt;stroke-linejoin:miter;stroke-miterlimit:4;stroke-opacity:0.50381679000000001"
         inkscape:connector-curvature="0" />
      <path
         d="m 92.578381,842.27067 c -8.349184,7.65098 -21.010375,14.71092 -20.346745,25.31504 -0.09002,8.81685 4.868947,17.04277 8.575898,25.31504 7.569442,-6.05499 15.62281,-13.74425 12.25386,-22.27637 0.02299,-3.3758 -3.351455,-5.99666 -3.448704,-9.18504 1.844667,-7.52599 5.661359,-14.79581 7.169552,-22.38951 -1.401293,1.07361 -2.802586,2.14722 -4.203861,3.22084 z"
         id="path28564"
         style="fill:url(#linearGradient5739);fill-opacity:1;fill-rule:evenodd;stroke:none"
         inkscape:connector-curvature="0" />
      <path
         d="m 123.15941,901.46497 c 5.74423,18.31033 -0.1718,37.59962 -13.39466,53.6858 -8.20921,11.05915 -24.39449,19.52887 -25.936778,32.68669 -2.473885,11.46588 9.315632,21.02274 20.240458,28.43204 4.44991,3.9209 0.63575,-5.3485 1.2414,-7.5184 -1.77546,-11.27996 0.98537,-23.93652 13.9748,-31.67409 14.46144,-9.85886 35.08705,-16.69301 42.01406,-30.86309 4.6853,-12.5144 -7.79942,-23.7317 -18.68867,-32.61806 -6.56718,-5.58405 -13.49098,-10.93901 -20.37547,-16.33369 0.30829,1.40093 0.61656,2.80186 0.92486,4.2028 z"
         id="path26055"
         style="fill:url(#linearGradient5741);fill-opacity:1;fill-rule:evenodd;stroke:none"
         inkscape:connector-curvature="0" />
      <path
         d="m 97.063283,885.21976 c 0.56847,8.65873 4.081507,17.23303 2.472833,25.97307 -1.419051,20.40405 -14.212761,39.59199 -31.874944,55.56447 -3.276492,3.26245 -6.766082,6.41611 -10.142331,9.62803 -4.514769,-10.54098 -2.476623,-21.90682 3.604034,-31.90972 3.202108,-5.34484 5.449543,-10.89235 6.625402,-16.63861 -16.879125,10.79025 -28.791317,25.49885 -32.986387,41.24252 -3.400447,14.56098 3.909379,29.53133 17.694805,40.47448 17.333202,14.3298 41.754185,24.8354 65.909425,32.0326 -13.68751,-13.4917 -32.240369,-28.1194 -36.286864,-45.1651 -2.775633,-9.89783 2.786196,-19.83204 12.0621,-27.23226 10.617874,-10.22248 17.230934,-22.38269 21.159424,-34.65702 5.10196,-15.98561 1.01211,-33.27033 -11.45525,-47.1325 -3.07645,-1.57599 -8.573621,-9.85703 -6.782247,-2.17996 z"
         id="path26054"
         style="fill:url(#linearGradient5743);fill-opacity:1;fill-rule:evenodd;stroke:none"
         inkscape:connector-curvature="0"
         sodipodi:nodetypes="cccccccccccccc" />
    </g>
  </g>
</svg>
