<?xml version="1.0" encoding="UTF-8" standalone="no"?>
<!-- Created with Inkscape (http://www.inkscape.org/) -->

<svg
   xmlns:dc="http://purl.org/dc/elements/1.1/"
   xmlns:cc="http://creativecommons.org/ns#"
   xmlns:rdf="http://www.w3.org/1999/02/22-rdf-syntax-ns#"
   xmlns:svg="http://www.w3.org/2000/svg"
   xmlns="http://www.w3.org/2000/svg"
   xmlns:xlink="http://www.w3.org/1999/xlink"
   xmlns:sodipodi="http://sodipodi.sourceforge.net/DTD/sodipodi-0.dtd"
   xmlns:inkscape="http://www.inkscape.org/namespaces/inkscape"
   version="1.0"
   width="256"
   height="256"
   id="svg2408"
   inkscape:version="0.48.3.1 r9886"
   sodipodi:docname="gtk-media-pause.svg">
  <sodipodi:namedview
     pagecolor="#ffffff"
     bordercolor="#666666"
     borderopacity="1"
     objecttolerance="10"
     gridtolerance="10"
     guidetolerance="10"
     inkscape:pageopacity="0"
     inkscape:pageshadow="2"
     inkscape:window-width="1024"
     inkscape:window-height="572"
     id="namedview139"
     showgrid="false"
     inkscape:zoom="1.6367188"
     inkscape:cx="117.30788"
     inkscape:cy="128"
     inkscape:window-x="0"
     inkscape:window-y="28"
     inkscape:window-maximized="1"
     inkscape:current-layer="svg2408" />
  <defs
     id="defs2410">
    <linearGradient
       x1="45.447727"
       y1="92.539597"
       x2="45.447727"
       y2="7.0165396"
       id="ButtonShadow"
       gradientUnits="userSpaceOnUse"
       gradientTransform="scale(1.0058652,0.994169)">
      <stop
         id="stop3750"
         style="stop-color:#000000;stop-opacity:1"
         offset="0" />
      <stop
         id="stop3752"
         style="stop-color:#000000;stop-opacity:0.58823532"
         offset="1" />
    </linearGradient>
    <linearGradient
       id="linearGradient3737">
      <stop
         id="stop3739"
         style="stop-color:#ffffff;stop-opacity:1"
         offset="0" />
      <stop
         id="stop3741"
         style="stop-color:#ffffff;stop-opacity:0"
         offset="1" />
    </linearGradient>
    <filter
       color-interpolation-filters="sRGB"
       id="filter3174">
      <feGaussianBlur
         id="feGaussianBlur3176"
         stdDeviation="1.71" />
    </filter>
    <filter
       x="-0.192"
       y="-0.192"
       width="1.3839999"
       height="1.3839999"
       color-interpolation-filters="sRGB"
       id="filter3794">
      <feGaussianBlur
         id="feGaussianBlur3796"
         stdDeviation="5.28" />
    </filter>
    <linearGradient
       x1="48"
       y1="20.220806"
       x2="48"
       y2="138.66119"
       id="linearGradient3613"
       xlink:href="#linearGradient3737"
       gradientUnits="userSpaceOnUse" />
    <clipPath
       id="clipPath3613">
      <rect
         width="84"
         height="84"
         rx="6"
         ry="6"
         x="6"
         y="6"
         id="rect3615"
         style="fill:#ffffff;fill-opacity:1;fill-rule:nonzero;stroke:none" />
    </clipPath>
    <linearGradient
       id="linearGradient4281-6">
      <stop
         id="stop4283-9"
         style="stop-color:#000000;stop-opacity:1;"
         offset="0" />
      <stop
         id="stop4285-8"
         style="stop-color:#5a5a5a;stop-opacity:1;"
         offset="1" />
    </linearGradient>
    <linearGradient
       inkscape:collect="always"
       xlink:href="#linearGradient4281-6"
       id="linearGradient3788"
       gradientUnits="userSpaceOnUse"
       gradientTransform="matrix(5.204918,0,0,5.2049182,-102.0445,-140.32516)"
       x1="43.605759"
       y1="68.032913"
       x2="43.8727"
       y2="36.100559" />
  </defs>
  <metadata
     id="metadata2413">
    <rdf:RDF>
      <cc:Work
         rdf:about="">
        <dc:format>image/svg+xml</dc:format>
        <dc:type
           rdf:resource="http://purl.org/dc/dcmitype/StillImage" />
        <dc:title></dc:title>
      </cc:Work>
    </rdf:RDF>
  </metadata>
  <g
     id="layer2"
     style="display:none"
     transform="translate(0,160)">
    <rect
       width="86"
       height="85"
       rx="6"
       ry="6"
       x="5"
       y="7"
       id="rect3745"
       style="opacity:0.9;fill:url(#ButtonShadow);fill-opacity:1;fill-rule:nonzero;stroke:none;filter:url(#filter3174)" />
  </g>
  <g
     id="layer5"
     style="display:none"
     transform="translate(0,160)">
    <rect
       width="66"
       height="66"
       rx="12"
       ry="12"
       x="15"
       y="15"
       clip-path="url(#clipPath3613)"
       id="rect3171"
       style="opacity:0.3;fill:url(#linearGradient3613);fill-opacity:1;fill-rule:nonzero;stroke:#ffffff;stroke-width:0.5;stroke-linecap:round;stroke-linejoin:miter;stroke-miterlimit:4;stroke-opacity:1;stroke-dasharray:none;stroke-dashoffset:0;filter:url(#filter3794)" />
  </g>
  <g
     id="g3778"
     transform="matrix(0.94459739,0,0,0.94459739,8.0626917,4.8900724)">
    <path
       inkscape:connector-curvature="0"
       d="m 54.103032,47.051899 c -5.76705,0 -10.409838,4.642789 -10.409838,10.409839 l 0,145.737722 c 0,5.76703 4.642788,10.40981 10.409838,10.40981 l 41.639353,0 c 5.767035,0 10.409815,-4.64278 10.409815,-10.40981 l 0,-145.737722 c 0,-5.76705 -4.64278,-10.409839 -10.409815,-10.409839 l -41.639353,0 z m 104.098358,0 c -5.76704,0 -10.40985,4.642789 -10.40985,10.409839 l 0,145.737722 c 0,5.76703 4.64281,10.40981 10.40985,10.40981 l 41.63934,0 c 5.76707,0 10.40984,-4.64278 10.40984,-10.40981 l 0,-145.737722 c 0,-5.76705 -4.64277,-10.409839 -10.40984,-10.409839 l -41.63934,0 z"
       style="opacity:0.025;color:#000000;fill:none;stroke:#000000;stroke-width:24;stroke-linecap:round;stroke-linejoin:round;stroke-miterlimit:4;stroke-opacity:1;stroke-dasharray:none;marker:none;visibility:visible;display:inline;overflow:visible;enable-background:accumulate"
       id="path6542" />
    <path
       id="path6540"
       style="opacity:0.05;color:#000000;fill:none;stroke:#000000;stroke-width:18;stroke-linecap:round;stroke-linejoin:round;stroke-miterlimit:4;stroke-opacity:1;stroke-dasharray:none;marker:none;visibility:visible;display:inline;overflow:visible;enable-background:accumulate"
       d="m 54.103032,47.051899 c -5.76705,0 -10.409838,4.642789 -10.409838,10.409839 l 0,145.737722 c 0,5.76703 4.642788,10.40981 10.409838,10.40981 l 41.639353,0 c 5.767035,0 10.409815,-4.64278 10.409815,-10.40981 l 0,-145.737722 c 0,-5.76705 -4.64278,-10.409839 -10.409815,-10.409839 l -41.639353,0 z m 104.098358,0 c -5.76704,0 -10.40985,4.642789 -10.40985,10.409839 l 0,145.737722 c 0,5.76703 4.64281,10.40981 10.40985,10.40981 l 41.63934,0 c 5.76707,0 10.40984,-4.64278 10.40984,-10.40981 l 0,-145.737722 c 0,-5.76705 -4.64277,-10.409839 -10.40984,-10.409839 l -41.63934,0 z"
       inkscape:connector-curvature="0" />
    <path
       inkscape:connector-curvature="0"
       d="m 54.103032,47.051899 c -5.76705,0 -10.409838,4.642789 -10.409838,10.409839 l 0,145.737722 c 0,5.76703 4.642788,10.40981 10.409838,10.40981 l 41.639353,0 c 5.767035,0 10.409815,-4.64278 10.409815,-10.40981 l 0,-145.737722 c 0,-5.76705 -4.64278,-10.409839 -10.409815,-10.409839 l -41.639353,0 z m 104.098358,0 c -5.76704,0 -10.40985,4.642789 -10.40985,10.409839 l 0,145.737722 c 0,5.76703 4.64281,10.40981 10.40985,10.40981 l 41.63934,0 c 5.76707,0 10.40984,-4.64278 10.40984,-10.40981 l 0,-145.737722 c 0,-5.76705 -4.64277,-10.409839 -10.40984,-10.409839 l -41.63934,0 z"
       style="opacity:0.1;color:#000000;fill:none;stroke:#000000;stroke-width:12;stroke-linecap:round;stroke-linejoin:round;stroke-miterlimit:4;stroke-opacity:1;stroke-dasharray:none;marker:none;visibility:visible;display:inline;overflow:visible;enable-background:accumulate"
       id="path6538" />
    <path
       id="path6536"
       style="opacity:0.15;color:#000000;fill:none;stroke:#000000;stroke-width:6;stroke-linecap:round;stroke-linejoin:round;stroke-miterlimit:4;stroke-opacity:1;stroke-dasharray:none;marker:none;visibility:visible;display:inline;overflow:visible;enable-background:accumulate"
       d="m 54.103032,47.051899 c -5.76705,0 -10.409838,4.642789 -10.409838,10.409839 l 0,145.737722 c 0,5.76703 4.642788,10.40981 10.409838,10.40981 l 41.639353,0 c 5.767035,0 10.409815,-4.64278 10.409815,-10.40981 l 0,-145.737722 c 0,-5.76705 -4.64278,-10.409839 -10.409815,-10.409839 l -41.639353,0 z m 104.098358,0 c -5.76704,0 -10.40985,4.642789 -10.40985,10.409839 l 0,145.737722 c 0,5.76703 4.64281,10.40981 10.40985,10.40981 l 41.63934,0 c 5.76707,0 10.40984,-4.64278 10.40984,-10.40981 l 0,-145.737722 c 0,-5.76705 -4.64277,-10.409839 -10.40984,-10.409839 l -41.63934,0 z"
       inkscape:connector-curvature="0" />
    <path
       id="path6024"
       style="opacity:0.3;color:#000000;fill:#000000;fill-opacity:1;fill-rule:nonzero;stroke:none;stroke-width:2;marker:none;visibility:visible;display:inline;overflow:visible;enable-background:accumulate"
       d="m 54.103032,49.051899 c -5.76705,0 -10.409838,4.642789 -10.409838,10.409839 l 0,145.737722 c 0,5.76703 4.642788,10.40981 10.409838,10.40981 l 41.639353,0 c 5.767035,0 10.409815,-4.64278 10.409815,-10.40981 l 0,-145.737722 c 0,-5.76705 -4.64278,-10.409839 -10.409815,-10.409839 l -41.639353,0 z m 104.098358,0 c -5.76704,0 -10.40985,4.642789 -10.40985,10.409839 l 0,145.737722 c 0,5.76703 4.64281,10.40981 10.40985,10.40981 l 41.63934,0 c 5.76707,0 10.40984,-4.64278 10.40984,-10.40981 l 0,-145.737722 c 0,-5.76705 -4.64277,-10.409839 -10.40984,-10.409839 l -41.63934,0 z"
       inkscape:connector-curvature="0" />
    <path
       inkscape:connector-curvature="0"
       d="m 54.103032,47.051899 c -5.76705,0 -10.409838,4.642789 -10.409838,10.409839 l 0,145.737722 c 0,5.76703 4.642788,10.40981 10.409838,10.40981 l 41.639353,0 c 5.767035,0 10.409815,-4.64278 10.409815,-10.40981 l 0,-145.737722 c 0,-5.76705 -4.64278,-10.409839 -10.409815,-10.409839 l -41.639353,0 z m 104.098358,0 c -5.76704,0 -10.40985,4.642789 -10.40985,10.409839 l 0,145.737722 c 0,5.76703 4.64281,10.40981 10.40985,10.40981 l 41.63934,0 c 5.76707,0 10.40984,-4.64278 10.40984,-10.40981 l 0,-145.737722 c 0,-5.76705 -4.64277,-10.409839 -10.40984,-10.409839 l -41.63934,0 z"
       style="color:#000000;fill:url(#linearGradient3788);fill-opacity:1;fill-rule:nonzero;stroke:none;stroke-width:2;marker:none;visibility:visible;display:inline;overflow:visible;enable-background:accumulate"
       id="path3141" />
    <path
       inkscape:connector-curvature="0"
       id="path7571"
       d="m 53.993007,47.039109 c -5.767049,0 -10.409836,4.642786 -10.409836,10.409836 l 0,3.331147 c 0,-5.767049 4.642787,-10.409835 10.409836,-10.409835 l 41.639343,0 c 5.76703,0 10.40984,4.642786 10.40984,10.409835 l 0,-3.331147 c 0,-5.76705 -4.64281,-10.409836 -10.40984,-10.409836 l -41.639343,0 z m 104.098363,0 c -5.76704,0 -10.40984,4.642786 -10.40984,10.409836 l 0,3.331147 c 0,-5.767049 4.6428,-10.409835 10.40984,-10.409835 l 41.63934,0 c 5.76707,0 10.40984,4.642786 10.40984,10.409835 l 0,-3.331147 c 0,-5.76705 -4.64277,-10.409836 -10.40984,-10.409836 l -41.63934,0 z"
       style="opacity:0.7;color:#000000;fill:#ffffff;fill-opacity:1;fill-rule:nonzero;stroke:none;stroke-width:2;marker:none;visibility:visible;display:inline;overflow:visible;enable-background:accumulate" />
    <path
       inkscape:connector-curvature="0"
       id="path7580"
       d="m 43.705565,199.85589 0,3.33115 c 0,5.76703 4.642787,10.40984 10.409836,10.40984 l 41.639344,0 c 5.767035,0 10.409835,-4.64281 10.409835,-10.40984 l 0,-3.33115 c 0,5.76704 -4.6428,10.40984 -10.409835,10.40984 l -41.639344,0 c -5.767049,0 -10.409836,-4.6428 -10.409836,-10.40984 z m 104.098365,0 0,3.33115 c 0,5.76703 4.6428,10.40984 10.40983,10.40984 l 41.63934,0 c 5.76707,0 10.40984,-4.64281 10.40984,-10.40984 l 0,-3.33115 c 0,5.76704 -4.64277,10.40984 -10.40984,10.40984 l -41.63934,0 c -5.76703,0 -10.40983,-4.6428 -10.40983,-10.40984 z"
       style="opacity:0.7;color:#000000;fill:#000000;fill-opacity:1;fill-rule:nonzero;stroke:none;stroke-width:2;marker:none;visibility:visible;display:inline;overflow:visible;enable-background:accumulate" />
  </g>
</svg>
