<?xml version="1.0" encoding="UTF-8" standalone="no"?>
<!-- Created with Inkscape (http://www.inkscape.org/) -->

<svg
   xmlns:dc="http://purl.org/dc/elements/1.1/"
   xmlns:cc="http://creativecommons.org/ns#"
   xmlns:rdf="http://www.w3.org/1999/02/22-rdf-syntax-ns#"
   xmlns:svg="http://www.w3.org/2000/svg"
   xmlns="http://www.w3.org/2000/svg"
   xmlns:xlink="http://www.w3.org/1999/xlink"
   xmlns:sodipodi="http://sodipodi.sourceforge.net/DTD/sodipodi-0.dtd"
   xmlns:inkscape="http://www.inkscape.org/namespaces/inkscape"
   width="256"
   height="256"
   id="svg4293"
   version="1.1"
   inkscape:version="0.48.3.1 r9886"
   sodipodi:docname="media-optical-video-new.svg">
  <defs
     id="defs4295">
    <linearGradient
       id="linearGradient3330">
      <stop
         offset="0"
         style="stop-color:#ffffff;stop-opacity:0.203125"
         id="stop3332" />
      <stop
         offset="1"
         style="stop-color:#ffffff;stop-opacity:0.6796875"
         id="stop3334" />
    </linearGradient>
    <linearGradient
       id="linearGradient3342">
      <stop
         offset="0"
         style="stop-color:#000000;stop-opacity:0"
         id="stop3344" />
      <stop
         offset="0.85000002"
         style="stop-color:#000000;stop-opacity:0"
         id="stop3350" />
      <stop
         offset="1"
         style="stop-color:#000000;stop-opacity:1"
         id="stop3346" />
    </linearGradient>
    <linearGradient
       id="linearGradient3362">
      <stop
         offset="0"
         style="stop-color:#4d4d4d;stop-opacity:1"
         id="stop3364" />
      <stop
         offset="1"
         style="stop-color:#ffffff;stop-opacity:1"
         id="stop3366" />
    </linearGradient>
    <linearGradient
       gradientTransform="matrix(1.0172414,0,0,1.0172414,-1.1034483,-1.1034483)"
       gradientUnits="userSpaceOnUse"
       id="ButtonColor-3"
       y2="5.4252338"
       x2="58.650177"
       y1="122"
       x1="58.650177">
      <stop
         offset="0"
         style="stop-color:#b8abbd;stop-opacity:1"
         id="stop3189-5" />
      <stop
         offset="1"
         style="stop-color:#dddbde;stop-opacity:1"
         id="stop3191-7" />
    </linearGradient>
    <linearGradient
       id="linearGradient3233">
      <stop
         offset="0"
         style="stop-color:#ffffff;stop-opacity:0"
         id="stop3235" />
      <stop
         offset="0.15000001"
         style="stop-color:#ffffff;stop-opacity:0"
         id="stop3297" />
      <stop
         offset="0.5"
         style="stop-color:#ffffff;stop-opacity:1"
         id="stop3241" />
      <stop
         offset="0.85000002"
         style="stop-color:#ffffff;stop-opacity:0"
         id="stop3299" />
      <stop
         offset="1"
         style="stop-color:#ffffff;stop-opacity:0"
         id="stop3237" />
    </linearGradient>
    <linearGradient
       id="linearGradient3247">
      <stop
         offset="0"
         style="stop-color:#ffffff;stop-opacity:0"
         id="stop3249" />
      <stop
         offset="0.30000001"
         style="stop-color:#d5d5d5;stop-opacity:0"
         id="stop3293" />
      <stop
         offset="0.5"
         style="stop-color:#eb8888;stop-opacity:0.2578125"
         id="stop3251" />
      <stop
         offset="0.69999999"
         style="stop-color:#e28f25;stop-opacity:0"
         id="stop3295" />
      <stop
         offset="1"
         style="stop-color:#ffffff;stop-opacity:0"
         id="stop3253" />
    </linearGradient>
    <linearGradient
       id="linearGradient3265">
      <stop
         offset="0"
         style="stop-color:#ffffff;stop-opacity:0"
         id="stop3267" />
      <stop
         offset="0.2"
         style="stop-color:#afcff3;stop-opacity:0"
         id="stop3252" />
      <stop
         offset="0.34999999"
         style="stop-color:#60a0e7;stop-opacity:0.1484375"
         id="stop3269" />
      <stop
         offset="0.5"
         style="stop-color:#db8ef1;stop-opacity:0.2109375"
         id="stop3271" />
      <stop
         offset="0.64999998"
         style="stop-color:#ffffff;stop-opacity:0"
         id="stop3273" />
      <stop
         offset="1"
         style="stop-color:#ffffff;stop-opacity:0"
         id="stop3275" />
    </linearGradient>
    <linearGradient
       id="linearGradient3236">
      <stop
         offset="0"
         style="stop-color:#ffffff;stop-opacity:0"
         id="stop3238" />
      <stop
         offset="0.34999999"
         style="stop-color:#fffc2b;stop-opacity:0.234375"
         id="stop3240" />
      <stop
         offset="0.5"
         style="stop-color:#46d15d;stop-opacity:0.21875"
         id="stop3242" />
      <stop
         offset="0.64999998"
         style="stop-color:#46d1aa;stop-opacity:0"
         id="stop3244" />
      <stop
         offset="1"
         style="stop-color:#ffffff;stop-opacity:0"
         id="stop3246" />
    </linearGradient>
    <clipPath
       id="clipPath3271">
      <rect
         style="fill:#ffffff;fill-opacity:1;fill-rule:evenodd;stroke:none"
         id="rect3273"
         y="160.00336"
         x="5"
         height="59"
         width="118" />
    </clipPath>
    <radialGradient
       inkscape:collect="always"
       xlink:href="#linearGradient3342"
       id="radialGradient3565"
       gradientUnits="userSpaceOnUse"
       gradientTransform="matrix(0,0.95308331,-0.95889648,0,197.47985,853.16093)"
       cx="59.893993"
       cy="61.92226"
       fx="59.893993"
       fy="61.92226"
       r="33.71384" />
    <linearGradient
       inkscape:collect="always"
       xlink:href="#linearGradient3362"
       id="linearGradient3567"
       gradientUnits="userSpaceOnUse"
       gradientTransform="matrix(0,0.44450749,-0.53396427,0,171.16706,883.62158)"
       x1="25.220379"
       y1="61.92226"
       x2="94.567612"
       y2="61.92226" />
    <linearGradient
       inkscape:collect="always"
       xlink:href="#ButtonColor-3"
       id="linearGradient3569"
       gradientUnits="userSpaceOnUse"
       gradientTransform="matrix(3.6051753,0,0,4.3310661,-77.82555,642.05549)"
       x1="73.015572"
       y1="89.130737"
       x2="73.015572"
       y2="34.606899" />
    <linearGradient
       inkscape:collect="always"
       xlink:href="#linearGradient3233"
       id="linearGradient3571"
       gradientUnits="userSpaceOnUse"
       gradientTransform="matrix(1.7296582,0.99865875,-0.99861861,1.7297277,91.316254,736.33393)"
       x1="5"
       y1="64"
       x2="123"
       y2="64" />
    <linearGradient
       inkscape:collect="always"
       xlink:href="#linearGradient3236"
       id="linearGradient3573"
       gradientUnits="userSpaceOnUse"
       gradientTransform="matrix(-0.9850397,0.171492,-0.171492,-0.9850397,138.01803,271.06706)"
       x1="5"
       y1="64"
       x2="123"
       y2="64" />
    <linearGradient
       inkscape:collect="always"
       xlink:href="#linearGradient3265"
       id="linearGradient3575"
       gradientUnits="userSpaceOnUse"
       gradientTransform="matrix(-0.8529965,0.5216416,-0.5216416,-0.8529964,151.97682,240.20671)"
       x1="5"
       y1="64"
       x2="123"
       y2="64" />
    <linearGradient
       inkscape:collect="always"
       xlink:href="#linearGradient3247"
       id="linearGradient3577"
       gradientUnits="userSpaceOnUse"
       gradientTransform="matrix(-0.881451,-0.4719713,0.4719713,-0.881451,90.206697,305.61903)"
       x1="5"
       y1="64"
       x2="123"
       y2="64" />
    <linearGradient
       inkscape:collect="always"
       xlink:href="#linearGradient3236"
       id="linearGradient3579"
       gradientUnits="userSpaceOnUse"
       gradientTransform="matrix(-0.9850397,0.171492,-0.171492,-0.9850397,138.01803,271.06706)"
       x1="5"
       y1="64"
       x2="123"
       y2="64" />
    <linearGradient
       inkscape:collect="always"
       xlink:href="#linearGradient3265"
       id="linearGradient3581"
       gradientUnits="userSpaceOnUse"
       gradientTransform="matrix(-0.8529965,0.5216416,-0.5216416,-0.8529964,151.97682,240.20671)"
       x1="5"
       y1="64"
       x2="123"
       y2="64" />
    <linearGradient
       inkscape:collect="always"
       xlink:href="#linearGradient3247"
       id="linearGradient3583"
       gradientUnits="userSpaceOnUse"
       gradientTransform="matrix(-0.881451,-0.4719713,0.4719713,-0.881451,90.206697,305.61903)"
       x1="5"
       y1="64"
       x2="123"
       y2="64" />
    <linearGradient
       inkscape:collect="always"
       xlink:href="#linearGradient3330"
       id="linearGradient3585"
       gradientUnits="userSpaceOnUse"
       gradientTransform="matrix(0,1.0082676,-1.2111817,0,213.10192,849.85572)"
       x1="26.180153"
       y1="61.92226"
       x2="93.607834"
       y2="61.92226" />
    <linearGradient
       id="linearGradient3720-6">
      <stop
         offset="0"
         style="stop-color:#efad51;stop-opacity:1"
         id="stop3722-6" />
      <stop
         offset="1"
         style="stop-color:#d56616;stop-opacity:1"
         id="stop3724-6" />
    </linearGradient>
    <linearGradient
       gradientTransform="translate(20.488606,-18.489718)"
       gradientUnits="userSpaceOnUse"
       id="ButtonColor"
       y2="5.4252338"
       x2="58.650177"
       y1="122"
       x1="58.650177">
      <stop
         offset="0"
         style="stop-color:#000000;stop-opacity:1"
         id="stop3189" />
      <stop
         offset="1"
         style="stop-color:#515151;stop-opacity:1"
         id="stop3191" />
    </linearGradient>
    <filter
       id="filter4195"
       color-interpolation-filters="sRGB"
       height="1.36"
       width="1.36"
       y="-0.18000001"
       x="-0.18000001">
      <feGaussianBlur
         stdDeviation="5.2159999"
         id="feGaussianBlur4197" />
    </filter>
    <filter
       id="filter4035"
       color-interpolation-filters="sRGB"
       height="1.3414016"
       width="1.3807415"
       y="-0.1707008"
       x="-0.19037074">
      <feGaussianBlur
         stdDeviation="4.9476562"
         id="feGaussianBlur4037" />
    </filter>
    <linearGradient
       gradientUnits="userSpaceOnUse"
       xlink:href="#linearGradient3737"
       id="linearGradient3613"
       y2="138.66119"
       x2="48"
       y1="20.220806"
       x1="48" />
    <filter
       id="filter3794"
       color-interpolation-filters="sRGB"
       height="1.3839999"
       width="1.3839999"
       y="-0.192"
       x="-0.192">
      <feGaussianBlur
         stdDeviation="5.28"
         id="feGaussianBlur3796" />
    </filter>
    <filter
       id="filter3174"
       color-interpolation-filters="sRGB">
      <feGaussianBlur
         stdDeviation="1.71"
         id="feGaussianBlur3176" />
    </filter>
    <linearGradient
       id="linearGradient3737">
      <stop
         offset="0"
         style="stop-color:#ffffff;stop-opacity:1"
         id="stop3739" />
      <stop
         offset="1"
         style="stop-color:#ffffff;stop-opacity:0"
         id="stop3741" />
    </linearGradient>
    <linearGradient
       gradientTransform="scale(1.0058652,0.994169)"
       gradientUnits="userSpaceOnUse"
       id="ButtonShadow"
       y2="7.0165396"
       x2="45.447727"
       y1="92.539597"
       x1="45.447727">
      <stop
         offset="0"
         style="stop-color:#000000;stop-opacity:1"
         id="stop3750" />
      <stop
         offset="1"
         style="stop-color:#000000;stop-opacity:0.58823532"
         id="stop3752" />
    </linearGradient>
    <linearGradient
       id="linearGradient4078">
      <stop
         offset="0"
         style="stop-color:#ffffff;stop-opacity:1"
         id="stop4080" />
      <stop
         offset="1"
         style="stop-color:#ffffff;stop-opacity:0"
         id="stop4082" />
    </linearGradient>
    <linearGradient
       inkscape:collect="always"
       xlink:href="#ButtonColor"
       id="linearGradient4725"
       gradientUnits="userSpaceOnUse"
       gradientTransform="translate(4,156)"
       x1="24.225464"
       y1="84.025269"
       x2="24.225464"
       y2="52.295525" />
    <radialGradient
       inkscape:collect="always"
       xlink:href="#linearGradient3720-6"
       id="radialGradient4727"
       gradientUnits="userSpaceOnUse"
       gradientTransform="matrix(0.24721344,8.6170301e-8,-7.0480927e-8,0.21100501,14.178345,209.05736)"
       cx="64"
       cy="64"
       fx="64"
       fy="64"
       r="42" />
    <radialGradient
       inkscape:collect="always"
       xlink:href="#linearGradient3720-6"
       id="radialGradient4729"
       gradientUnits="userSpaceOnUse"
       gradientTransform="matrix(0.24721344,8.6170301e-8,-7.0480927e-8,0.21100501,14.178345,225.05736)"
       cx="64"
       cy="64"
       fx="64"
       fy="64"
       r="42" />
    <radialGradient
       inkscape:collect="always"
       xlink:href="#linearGradient3720-6"
       id="radialGradient4731"
       gradientUnits="userSpaceOnUse"
       gradientTransform="matrix(0.24721344,8.6170301e-8,-7.0480927e-8,0.21100501,14.178345,193.05736)"
       cx="64"
       cy="64"
       fx="64"
       fy="64"
       r="42" />
    <linearGradient
       inkscape:collect="always"
       xlink:href="#linearGradient4078"
       id="linearGradient4733"
       gradientUnits="userSpaceOnUse"
       gradientTransform="translate(4,156)"
       x1="27"
       y1="66"
       x2="27"
       y2="44" />
  </defs>
  <sodipodi:namedview
     id="base"
     pagecolor="#ffffff"
     bordercolor="#666666"
     borderopacity="1.0"
     inkscape:pageopacity="0.0"
     inkscape:pageshadow="2"
     inkscape:zoom="1.6484375"
     inkscape:cx="128"
     inkscape:cy="128"
     inkscape:document-units="px"
     inkscape:current-layer="layer1"
     showgrid="false"
     inkscape:window-width="1024"
     inkscape:window-height="572"
     inkscape:window-x="0"
     inkscape:window-y="28"
     inkscape:window-maximized="1"
     inkscape:snap-bbox="true"
     inkscape:bbox-paths="true"
     inkscape:bbox-nodes="true"
     inkscape:snap-bbox-edge-midpoints="true"
     inkscape:snap-bbox-midpoints="true"
     inkscape:object-paths="true"
     inkscape:snap-intersection-paths="true"
     inkscape:object-nodes="true"
     inkscape:snap-smooth-nodes="true"
     inkscape:snap-midpoints="true"
     inkscape:snap-object-midpoints="true"
     inkscape:snap-center="true"
     inkscape:snap-nodes="true"
     fit-margin-top="0"
     fit-margin-left="0"
     fit-margin-right="0"
     fit-margin-bottom="0" />
  <metadata
     id="metadata4298">
    <rdf:RDF>
      <cc:Work
         rdf:about="">
        <dc:format>image/svg+xml</dc:format>
        <dc:type
           rdf:resource="http://purl.org/dc/dcmitype/StillImage" />
        <dc:title></dc:title>
      </cc:Work>
    </rdf:RDF>
  </metadata>
  <g
     inkscape:label="Layer 1"
     inkscape:groupmode="layer"
     id="layer1"
     transform="translate(-0.34952,-796.2014)">
    <g
       id="g3542"
       transform="translate(-9.7552,10.3464)">
      <path
         d="m 138.10472,785.85497 c -70.508469,0 -128,57.48886 -128,128 0,70.51115 57.491538,128.00003 128,128.00003 70.50849,0 128,-57.48889 128,-128.00003 0,-70.51113 -57.4915,-128 -128,-128 z m 0,96.19529 c 17.73168,0 31.80471,14.07215 31.80471,31.80471 0,17.73253 -14.07304,31.80471 -31.80471,31.80471 -17.73167,0 -31.80471,-14.07218 -31.80471,-31.80471 0,-17.73256 14.07303,-31.80471 31.80471,-31.80471 z"
         id="path3964"
         style="opacity:0.05;fill:#000000;fill-opacity:1;fill-rule:evenodd;stroke:none;display:inline"
         inkscape:connector-curvature="0" />
      <path
         d="m 138.10472,789.53762 c -68.507593,0 -124.31735,55.80711 -124.31735,124.31735 0,68.51026 55.809761,124.31733 124.31735,124.31733 68.50762,0 124.31735,-55.80708 124.31735,-124.31733 0,-68.51024 -55.80973,-124.31735 -124.31735,-124.31735 z m 0,88.82999 c 19.69997,0 35.48736,15.78649 35.48736,35.48736 0,19.70085 -15.78739,35.48736 -35.48736,35.48736 -19.69997,0 -35.48736,-15.78651 -35.48736,-35.48736 0,-19.70087 15.78739,-35.48736 35.48736,-35.48736 z"
         id="path3960"
         style="opacity:0.07999998;fill:#000000;fill-opacity:1;fill-rule:evenodd;stroke:none;display:inline"
         inkscape:connector-curvature="0" />
      <path
         d="m 138.10472,793.10867 c -66.598803,0 -120.746295,54.14486 -120.746295,120.7463 0,66.60145 54.147495,120.74633 120.746295,120.74633 66.59883,0 120.74629,-54.14488 120.74629,-120.74633 0,-66.60143 -54.14746,-120.7463 -120.74629,-120.7463 z m 0,81.68788 c 21.59793,0 39.05841,17.45957 39.05841,39.05842 0,21.59883 -17.46048,39.05841 -39.05841,39.05841 -21.59793,0 -39.058414,-17.45958 -39.058414,-39.05841 0,-21.59885 17.460484,-39.05842 39.058414,-39.05842 z"
         id="path3956"
         style="opacity:0.15;fill:#000000;fill-opacity:1;fill-rule:evenodd;stroke:none;display:inline"
         inkscape:connector-curvature="0" />
      <path
         d="m 138.10279,795.97422 c -65.046014,0 -117.83699,52.7931 -117.83699,117.84174 0,65.04865 52.790976,117.84174 117.83699,117.84174 65.04605,0 117.83699,-52.79309 117.83699,-117.84174 0,-65.04864 -52.79094,-117.84174 -117.83699,-117.84174 z m 0,75.89807 c 23.15197,0 41.94197,18.79076 41.94197,41.94367 0,23.15289 -18.79,41.94364 -41.94197,41.94364 -23.15197,0 -41.941968,-18.79075 -41.941968,-41.94364 0,-23.15291 18.789998,-41.94367 41.941968,-41.94367 z"
         inkscape:connector-curvature="0"
         id="path3950"
         style="opacity:0.3;fill:#000000;fill-opacity:1;fill-rule:evenodd;stroke:none;display:inline" />
      <path
         d="m 138.10279,855.818 c -30.03862,0 -54.424715,24.38709 -54.424715,54.4269 0,30.03981 24.386095,54.4269 54.424715,54.4269 30.03861,0 54.42472,-24.38706 54.42472,-54.4269 0,-30.03981 -24.38611,-54.4269 -54.42472,-54.4269 z m 0,38.44836 c 8.8198,0 15.9779,7.15839 15.9779,15.97854 0,8.82016 -7.1581,15.97852 -15.9779,15.97852 -8.81982,0 -15.9779,-7.15836 -15.9779,-15.97852 0,-8.82015 7.1581,-15.97854 15.9779,-15.97854 z"
         inkscape:connector-curvature="0"
         id="path3307"
         style="opacity:0.3;fill:#ffffff;fill-opacity:1;fill-rule:evenodd;stroke:none;display:inline" />
      <path
         d="m 138.10281,941.39691 a 31.15076,31.152017 0 1 1 0,-62.30403 31.15076,31.152017 0 1 1 0,62.30403 z"
         id="path3328"
         style="opacity:0.3;fill:url(#radialGradient3565);fill-opacity:1;fill-rule:evenodd;stroke:none;display:inline"
         inkscape:connector-curvature="0" />
      <path
         d="m 138.10278,924.77386 a 14.528357,14.528955 0 1 1 0,-29.05791 14.528357,14.528955 0 1 1 0,29.05791 z"
         id="path3352"
         style="opacity:0.6;fill:none;stroke:url(#linearGradient3567);stroke-width:3.5710547;stroke-linecap:round;stroke-linejoin:miter;stroke-miterlimit:4;stroke-opacity:1;stroke-dasharray:none;stroke-dashoffset:0;display:inline"
         inkscape:connector-curvature="0" />
      <path
         d="m 138.10279,792.40317 c -65.046029,0 -117.837001,52.7931 -117.837001,117.84173 0,65.04866 52.790976,117.8418 117.837001,117.8418 65.04604,0 117.83699,-52.79314 117.83699,-117.8418 0,-65.04863 -52.79095,-117.84173 -117.83699,-117.84173 z m 0,75.89807 c 23.15197,-10e-6 41.94196,18.79076 41.94196,41.94366 0,23.15289 -18.78999,41.94364 -41.94196,41.94364 -23.15197,0 -41.941982,-18.79075 -41.941982,-41.94364 0,-23.1529 18.790012,-41.94366 41.941982,-41.94366 z"
         inkscape:connector-curvature="0"
         id="path3170"
         style="fill:url(#linearGradient3569);fill-opacity:1;fill-rule:evenodd;stroke:none;display:inline" />
      <path
         d="M 197.02129,808.89673 C 140.68977,776.37241 68.575962,795.69603 36.052955,852.0298 3.5299438,908.36357 22.852783,980.48028 79.184288,1013.0046 c 56.331502,32.5243 128.445332,13.2007 160.968342,-43.13305 32.52302,-56.33378 13.20018,-128.45049 -43.13134,-160.97482 z m -37.94751,65.72965 c 20.05021,11.57646 26.92782,37.24512 15.35184,57.29613 -11.576,20.051 -37.24363,26.92889 -57.29382,15.35243 -20.050199,-11.57643 -26.927826,-37.2451 -15.35183,-57.29611 11.57597,-20.051 37.24361,-26.92889 57.29381,-15.35245 z"
         inkscape:connector-curvature="0"
         id="path3230"
         style="opacity:0.8;fill:url(#linearGradient3571);fill-opacity:1;fill-rule:evenodd;stroke:none;display:inline" />
      <path
         d="m 190.73914,910.60201 a 52.636355,52.638458 0 0 1 -105.272709,0 52.636355,52.638458 0 1 1 105.272709,0 z"
         id="path3304"
         style="opacity:0.15;fill:none;stroke:#000000;stroke-width:10.71316338;stroke-linecap:round;stroke-linejoin:miter;stroke-miterlimit:4;stroke-opacity:1;stroke-dasharray:none;stroke-dashoffset:0;display:inline"
         inkscape:connector-curvature="0" />
      <g
         transform="matrix(1.2267838,-1.5761212,1.5760578,1.2268331,-285.57068,742.44151)"
         id="g3289"
         style="display:inline">
        <g
           clip-path="url(#clipPath3271)"
           id="g3266">
          <path
             d="M 74.118027,277.11735 C 106.19881,271.5322 127.70249,240.96275 122.11734,208.88198 116.5322,176.8012 85.962749,155.29751 53.881978,160.88266 21.801203,166.46781 0.29750806,197.03725 5.8826547,229.11804 11.4678,261.19881 42.037246,282.70249 74.118027,277.11735 z m -6.516698,-37.43151 c -11.41858,1.98793 -22.299227,-5.66593 -24.287158,-17.08451 -1.987941,-11.41857 5.665921,-22.29923 17.084499,-24.28716 11.41858,-1.98793 22.299233,5.66593 24.28717,17.08451 1.987924,11.41857 -5.665932,22.29923 -17.084511,24.28716 z"
             inkscape:connector-curvature="0"
             id="path3259"
             style="fill:url(#linearGradient3573);fill-opacity:1;fill-rule:evenodd;stroke:none;display:inline" />
          <path
             d="M 94.776853,269.3268 C 122.55724,252.33798 131.31561,216.00355 114.32679,188.22315 97.337964,160.44278 61.003543,151.6844 33.223145,168.67322 5.4427579,185.66204 -3.3156068,221.99648 13.673211,249.77686 30.662035,277.55725 66.996455,286.31562 94.776853,269.3268 z M 74.954469,236.91293 c -9.88793,6.04687 -22.820523,2.92947 -28.867393,-6.95846 -6.046863,-9.88793 -2.929476,-22.82053 6.958454,-28.86739 9.887938,-6.04686 22.820537,-2.92949 28.867401,6.95845 6.046855,9.88793 2.929476,22.82053 -6.958462,28.8674 z"
             inkscape:connector-curvature="0"
             id="path3231"
             style="fill:url(#linearGradient3575);fill-opacity:1;fill-rule:evenodd;stroke:none;display:inline" />
          <path
             d="m 36.153689,271.00561 c 28.707102,15.37117 64.480751,4.54779 79.851921,-24.1593 15.37116,-28.70708 4.5478,-64.48074 -24.159308,-79.85191 -28.707087,-15.37116 -64.480736,-4.5478 -79.851909,24.15931 -15.371173,28.70708 -4.5478122,64.48073 24.159296,79.8519 z m 17.934913,-33.49512 c -10.217773,-5.4711 -14.070163,-18.2041 -8.599064,-28.42189 5.471077,-10.21777 18.204079,-14.07015 28.421859,-8.59906 10.217787,5.47108 14.07017,18.2041 8.599071,28.42186 -5.471084,10.21778 -18.204093,14.07016 -28.421866,8.59909 z"
             inkscape:connector-curvature="0"
             id="path3243"
             style="fill:url(#linearGradient3577);fill-opacity:1;fill-rule:evenodd;stroke:none;display:inline" />
        </g>
        <g
           transform="matrix(1,0,0,-1,0,438.00336)"
           clip-path="url(#clipPath3271)"
           id="g3275">
          <path
             d="M 74.118027,277.11735 C 106.19881,271.5322 127.70249,240.96275 122.11734,208.88198 116.5322,176.8012 85.962749,155.29751 53.881978,160.88266 21.801203,166.46781 0.29750806,197.03725 5.8826547,229.11804 11.4678,261.19881 42.037246,282.70249 74.118027,277.11735 z m -6.516698,-37.43151 c -11.41858,1.98793 -22.299227,-5.66593 -24.287158,-17.08451 -1.987941,-11.41857 5.665921,-22.29923 17.084499,-24.28716 11.41858,-1.98793 22.299233,5.66593 24.28717,17.08451 1.987924,11.41857 -5.665932,22.29923 -17.084511,24.28716 z"
             inkscape:connector-curvature="0"
             id="path3277"
             style="fill:url(#linearGradient3579);fill-opacity:1;fill-rule:evenodd;stroke:none;display:inline" />
          <path
             d="M 94.776853,269.3268 C 122.55724,252.33798 131.31561,216.00355 114.32679,188.22315 97.337964,160.44278 61.003543,151.6844 33.223145,168.67322 5.4427579,185.66204 -3.3156068,221.99648 13.673211,249.77686 30.662035,277.55725 66.996455,286.31562 94.776853,269.3268 z M 74.954469,236.91293 c -9.88793,6.04687 -22.820523,2.92947 -28.867393,-6.95846 -6.046863,-9.88793 -2.929476,-22.82053 6.958454,-28.86739 9.887938,-6.04686 22.820537,-2.92949 28.867401,6.95845 6.046855,9.88793 2.929476,22.82053 -6.958462,28.8674 z"
             inkscape:connector-curvature="0"
             id="path3279"
             style="fill:url(#linearGradient3581);fill-opacity:1;fill-rule:evenodd;stroke:none;display:inline" />
          <path
             d="m 36.153689,271.00561 c 28.707102,15.37117 64.480751,4.54779 79.851921,-24.1593 15.37116,-28.70708 4.5478,-64.48074 -24.159308,-79.85191 -28.707087,-15.37116 -64.480736,-4.5478 -79.851909,24.15931 -15.371173,28.70708 -4.5478122,64.48073 24.159296,79.8519 z m 17.934913,-33.49512 c -10.217773,-5.4711 -14.070163,-18.2041 -8.599064,-28.42189 5.471077,-10.21777 18.204079,-14.07015 28.421859,-8.59906 10.217787,5.47108 14.07017,18.2041 8.599071,28.42186 -5.471084,10.21778 -18.204093,14.07016 -28.421866,8.59909 z"
             inkscape:connector-curvature="0"
             id="path3281"
             style="fill:url(#linearGradient3583);fill-opacity:1;fill-rule:evenodd;stroke:none;display:inline" />
        </g>
      </g>
      <path
         d="m 138.10472,792.4391 c -65.046016,0 -117.844813,52.79618 -117.844813,117.84481 0,1.20489 0.07564,2.37484 0.111596,3.57106 1.872047,-63.41483 53.870138,-114.27376 117.733217,-114.27376 63.86311,0 115.86117,50.85893 117.73322,114.27376 0.036,-1.19622 0.11159,-2.36617 0.11159,-3.57106 0,-65.04863 -52.79876,-117.84481 -117.84481,-117.84481 z"
         inkscape:connector-curvature="0"
         id="path3933"
         style="opacity:0.8;fill:#ffffff;fill-opacity:1;fill-rule:evenodd;stroke:none;display:inline" />
      <path
         d="m 173.01937,910.25726 c 0,-18.93386 -15.46428,-34.59619 -34.93502,-34.59619 -19.47074,0 -34.89717,15.66233 -34.89717,34.59619 0,18.93386 15.42643,34.56467 34.89717,34.56467 19.47074,0 34.93502,-15.63081 34.93502,-34.56467 z m -3.93634,0 c 0,17.46805 -14.06898,31.31931 -30.99868,31.31931 -16.9297,0 -30.96083,-13.85126 -30.96083,-31.31931 0,-17.46805 14.03113,-31.35083 30.96083,-31.35083 16.9297,0 30.99868,13.88278 30.99868,31.35083 z"
         inkscape:connector-curvature="0"
         id="path3942"
         style="font-size:medium;font-style:normal;font-variant:normal;font-weight:normal;font-stretch:normal;text-indent:0;text-align:start;text-decoration:none;line-height:normal;letter-spacing:normal;word-spacing:normal;text-transform:none;direction:ltr;block-progression:tb;writing-mode:lr-tb;text-anchor:start;opacity:0.5;color:#000000;fill:url(#linearGradient3585);fill-opacity:1;stroke:none;stroke-width:3.23149872;marker:none;visibility:visible;display:inline;overflow:visible;enable-background:accumulate;font-family:Abandoned Bitplane;-inkscape-font-specification:Abandoned Bitplane" />
    </g>
    <g
       id="g3826"
       transform="matrix(4.2105263,0,0,4.2105263,-58.597848,29.043509)">
      <path
         d="m 17.5,205 c -1.923878,0 -3.5,1.57612 -3.5,3.5 l 0,31 c 0,1.92388 1.576122,3.5 3.5,3.5 l 25,0 c 1.923878,0 3.5,-1.57612 3.5,-3.5 l 0,-31 c 0,-1.92388 -1.576122,-3.5 -3.5,-3.5 l -25,0 z"
         inkscape:connector-curvature="0"
         id="path4109"
         style="opacity:0.05;color:#000000;fill:#000000;fill-opacity:1;stroke:none;stroke-width:1;marker:none;visibility:visible;display:inline;overflow:visible;enable-background:accumulate" />
      <path
         d="m 17.5,205.90625 c -1.410793,0 -2.59375,1.18296 -2.59375,2.59375 l 0,31 c 0,1.41079 1.182957,2.59375 2.59375,2.59375 l 25,0 c 1.410793,0 2.59375,-1.18296 2.59375,-2.59375 l 0,-31 c 0,-1.41079 -1.182957,-2.59375 -2.59375,-2.59375 l -25,0 z"
         id="path4105"
         style="opacity:0.1;color:#000000;fill:#000000;fill-opacity:1;stroke:none;stroke-width:1;marker:none;visibility:visible;display:inline;overflow:visible;enable-background:accumulate"
         inkscape:connector-curvature="0" />
      <path
         d="m 17.5,207 c -0.831,0 -1.5,0.669 -1.5,1.5 l 0,31 c 0,0.831 0.669,1.5 1.5,1.5 l 25,0 c 0.831,0 1.5,-0.669 1.5,-1.5 l 0,-31 c 0,-0.831 -0.669,-1.5 -1.5,-1.5 l -25,0 z m 0.5,2 2,0 0,1.875 -2,0 0,-1.875 z m 22,0 2,0 0,1.875 -2,0 0,-1.875 z m -22,4 2,0 0,1.875 -2,0 0,-1.875 z m 22,0 2,0 0,1.875 -2,0 0,-1.875 z m -22,4 2,0 0,1.875 -2,0 0,-1.875 z m 22,0 2,0 0,1.875 -2,0 0,-1.875 z m -22,4 2,0 0,1.875 -2,0 0,-1.875 z m 22,0 2,0 0,1.875 -2,0 0,-1.875 z m -22,4 2,0 0,1.875 -2,0 0,-1.875 z m 22,0 2,0 0,1.875 -2,0 0,-1.875 z m -22,4 2,0 0,1.875 -2,0 0,-1.875 z m 22,0 2,0 0,1.875 -2,0 0,-1.875 z m -22,4 2,0 0,1.875 -2,0 0,-1.875 z m 22,0 2,0 0,1.875 -2,0 0,-1.875 z m -22,4 2,0 0,1.875 -2,0 0,-1.875 z m 22,0 2,0 0,1.875 -2,0 0,-1.875 z"
         inkscape:connector-curvature="0"
         id="path4099"
         style="opacity:0.2;color:#000000;fill:#000000;fill-opacity:1;stroke:none;stroke-width:1;marker:none;visibility:visible;display:inline;overflow:visible;enable-background:accumulate" />
      <path
         d="m 17.5,206 c -0.831,0 -1.5,0.669 -1.5,1.5 l 0,31 c 0,0.831 0.669,1.5 1.5,1.5 l 25,0 c 0.831,0 1.5,-0.669 1.5,-1.5 l 0,-31 c 0,-0.831 -0.669,-1.5 -1.5,-1.5 l -25,0 z m 0.5,2 2,0 0,1.875 -2,0 0,-1.875 z m 22,0 2,0 0,1.875 -2,0 0,-1.875 z m -22,4 2,0 0,1.875 -2,0 0,-1.875 z m 22,0 2,0 0,1.875 -2,0 0,-1.875 z m -22,4 2,0 0,1.875 -2,0 0,-1.875 z m 22,0 2,0 0,1.875 -2,0 0,-1.875 z m -22,4 2,0 0,1.875 -2,0 0,-1.875 z m 22,0 2,0 0,1.875 -2,0 0,-1.875 z m -22,4 2,0 0,1.875 -2,0 0,-1.875 z m 22,0 2,0 0,1.875 -2,0 0,-1.875 z m -22,4 2,0 0,1.875 -2,0 0,-1.875 z m 22,0 2,0 0,1.875 -2,0 0,-1.875 z m -22,4 2,0 0,1.875 -2,0 0,-1.875 z m 22,0 2,0 0,1.875 -2,0 0,-1.875 z m -22,4 2,0 0,1.875 -2,0 0,-1.875 z m 22,0 2,0 0,1.875 -2,0 0,-1.875 z"
         inkscape:connector-curvature="0"
         id="rect3206"
         style="color:#000000;fill:url(#linearGradient4725);fill-opacity:1;stroke:none;stroke-width:1;marker:none;visibility:visible;display:inline;overflow:visible;enable-background:accumulate" />
      <path
         d="M 22.380952,216 C 22.169906,216 22,216.17356 22,216.38916 l 0,13.22168 C 22,229.82644 22.169906,230 22.380952,230 l 15.238095,0 C 37.830095,230 38,229.82644 38,229.61084 l 0,-13.22168 C 38,216.17356 37.830095,216 37.619047,216 l -15.238095,0 z"
         inkscape:connector-curvature="0"
         id="path4034"
         style="fill:url(#radialGradient4727);fill-opacity:1;fill-rule:evenodd;stroke:none;display:inline" />
      <path
         d="M 22.375,232 C 22.163954,232 22,232.15941 22,232.375 l 0,7.625 16,0 0,-7.625 C 38,232.15941 37.836048,232 37.625,232 l -15.25,0 z"
         inkscape:connector-curvature="0"
         id="path4038"
         style="fill:url(#radialGradient4729);fill-opacity:1;fill-rule:evenodd;stroke:none;display:inline" />
      <path
         d="m 22,206 0,7.625 c 0,0.21559 0.163954,0.375 0.375,0.375 l 15.25,0 C 37.836048,214 38,213.84059 38,213.625 L 38,206 22,206 z"
         inkscape:connector-curvature="0"
         id="path4042"
         style="fill:url(#radialGradient4731);fill-opacity:1;fill-rule:evenodd;stroke:none;display:inline" />
      <path
         d="m 17.5,206 c -0.831,0 -1.5,0.669 -1.5,1.5 l 0,18.28125 c 0.628111,-0.49669 1.290146,-0.95421 2,-1.40625 l 0,-0.375 0.59375,0 c 5.13632,-3.08601 12.153252,-5 19.90625,-5 1.8809,0 3.722303,0.12618 5.5,0.34375 L 44,207.5 c 0,-0.831 -0.669,-1.5 -1.5,-1.5 l -25,0 z m 0.5,2 2,0 0,1.875 -2,0 0,-1.875 z m 22,0 2,0 0,1.875 -2,0 0,-1.875 z m -22,4 2,0 0,1.875 -2,0 0,-1.875 z m 22,0 2,0 0,1.875 -2,0 0,-1.875 z m -22,4 2,0 0,1.875 -2,0 0,-1.875 z m 22,0 2,0 0,1.875 -2,0 0,-1.875 z m -22,4 2,0 0,1.875 -2,0 0,-1.875 z"
         inkscape:connector-curvature="0"
         id="rect4070"
         style="opacity:0.2;color:#000000;fill:url(#linearGradient4733);fill-opacity:1;fill-rule:nonzero;stroke:none;stroke-width:1;marker:none;visibility:visible;display:inline;overflow:visible;enable-background:accumulate" />
      <path
         d="m 17.5,206 c -0.831,0 -1.5,0.669 -1.5,1.5 l 0,1 c 0,-0.831 0.669,-1.5 1.5,-1.5 l 25,0 c 0.831,0 1.5,0.669 1.5,1.5 l 0,-1 c 0,-0.831 -0.669,-1.5 -1.5,-1.5 l -25,0 z"
         inkscape:connector-curvature="0"
         id="rect4086"
         style="opacity:0.2;color:#000000;fill:#ffffff;fill-opacity:1;stroke:none;stroke-width:1;marker:none;visibility:visible;display:inline;overflow:visible;enable-background:accumulate" />
      <path
         d="m 17.5,240 c -0.831,0 -1.5,-0.669 -1.5,-1.5 l 0,-1 c 0,0.831 0.669,1.5 1.5,1.5 l 25,0 c 0.831,0 1.5,-0.669 1.5,-1.5 l 0,1 c 0,0.831 -0.669,1.5 -1.5,1.5 l -25,0 z"
         inkscape:connector-curvature="0"
         id="path4097"
         style="opacity:0.2;color:#000000;fill:#ffffff;fill-opacity:1;stroke:none;stroke-width:1;marker:none;visibility:visible;display:inline;overflow:visible;enable-background:accumulate" />
    </g>
  </g>
</svg>
