<?xml version="1.0" encoding="UTF-8" standalone="no"?>
<!-- Created with Inkscape (http://www.inkscape.org/) -->

<svg
   xmlns:dc="http://purl.org/dc/elements/1.1/"
   xmlns:cc="http://creativecommons.org/ns#"
   xmlns:rdf="http://www.w3.org/1999/02/22-rdf-syntax-ns#"
   xmlns:svg="http://www.w3.org/2000/svg"
   xmlns="http://www.w3.org/2000/svg"
   xmlns:xlink="http://www.w3.org/1999/xlink"
   xmlns:sodipodi="http://sodipodi.sourceforge.net/DTD/sodipodi-0.dtd"
   xmlns:inkscape="http://www.inkscape.org/namespaces/inkscape"
   width="256"
   height="256"
   id="svg2"
   sodipodi:version="0.32"
   inkscape:version="0.48.3.1 r9886"
   version="1.0"
   sodipodi:docname="network-connect.svg"
   inkscape:output_extension="org.inkscape.output.svg.inkscape"
   inkscape:export-filename="/home/matt/.icons/Sirocco/scalable/mimetypes/text-plain.png"
   inkscape:export-xdpi="90"
   inkscape:export-ydpi="90"
   sodipodi:modified="true"
   style="display:inline">
  <sodipodi:namedview
     id="base"
     pagecolor="#ffffff"
     bordercolor="#666666"
     borderopacity="1.0"
     inkscape:pageopacity="0.0"
     inkscape:pageshadow="2"
     inkscape:zoom="1.6367188"
     inkscape:cx="128"
     inkscape:cy="128"
     inkscape:document-units="px"
     inkscape:current-layer="layer1"
     width="128px"
     height="128px"
     inkscape:showpageshadow="false"
     inkscape:window-width="1024"
     inkscape:window-height="572"
     inkscape:window-x="0"
     inkscape:window-y="28"
     showguides="true"
     inkscape:guide-bbox="true"
     showgrid="true"
     inkscape:window-maximized="1">
    <inkscape:grid
       enabled="false"
       visible="true"
       id="grid3231"
       type="xygrid"
       empspacing="8"
       snapvisiblegridlinesonly="true" />
  </sodipodi:namedview>
  <defs
     id="defs4">
    <linearGradient
       id="StandardGradient-3"
       gradientTransform="matrix(0.9984539,0,0,0.9984539,-0.0459776,0.05767558)"
       x1="10.710332"
       y1="1.9963325"
       x2="10.710332"
       y2="18.974037"
       gradientUnits="userSpaceOnUse">
      <stop
         style="stop-color:#000000;stop-opacity:0.86274511;"
         offset="0"
         id="stop3277-9" />
      <stop
         style="stop-color:#000000;stop-opacity:0.47058824;"
         offset="1"
         id="stop3279-1" />
    </linearGradient>
    <clipPath
       clipPathUnits="userSpaceOnUse"
       id="clipPath3850">
      <path
         style="fill:#ff00ff;fill-opacity:1;stroke:none"
         d="m -30,-2 0,24 24,0 0,-24 -24,0 z m 8.5,9 3.5,0 0,6 -3.5,0 c -0.831,0 -1.5,-0.669 -1.5,-1.5 l 0,-0.5 -4,0 0,-2 4,0 0,-0.5 C -23,7.669 -22.331,7 -21.5,7 z m 4.5,0 3.5,0 c 0.831,0 1.5,0.669 1.5,1.5 l 0,0.5 4,0 0,2 -4,0 0,0.5 c 0,0.831 -0.669,1.5 -1.5,1.5 l -3.5,0 0,-6 z"
         id="path3852"
         inkscape:connector-curvature="0" />
    </clipPath>
    <filter
       inkscape:collect="always"
       id="filter3854"
       x="-0.047368422"
       width="1.0947368"
       y="-0.15000001"
       height="1.3"
       color-interpolation-filters="sRGB">
      <feGaussianBlur
         inkscape:collect="always"
         stdDeviation="0.375"
         id="feGaussianBlur3856" />
    </filter>
    <linearGradient
       inkscape:collect="always"
       xlink:href="#StandardGradient-3"
       id="linearGradient3082"
       gradientUnits="userSpaceOnUse"
       gradientTransform="matrix(-1,0,0,1,25,2)"
       x1="10"
       y1="6"
       x2="10"
       y2="14.062258" />
  </defs>
  <metadata
     id="metadata7">
    <rdf:RDF>
      <cc:Work
         rdf:about="">
        <dc:format>image/svg+xml</dc:format>
        <dc:type
           rdf:resource="http://purl.org/dc/dcmitype/StillImage" />
        <dc:title></dc:title>
      </cc:Work>
    </rdf:RDF>
  </metadata>
  <g
     style="display:inline"
     inkscape:label="Calque 1"
     id="layer1"
     inkscape:groupmode="layer"
     transform="translate(0,234)">
    <g
       id="g3076"
       transform="matrix(10.779817,0,0,10.779817,-7.2477072,-209.22936)">
      <path
         transform="translate(30,0)"
         clip-path="url(#clipPath3850)"
         style="opacity:0.3;fill:none;stroke:#ffffff;display:inline;filter:url(#filter3854)"
         d="M -21.5,7 C -22.331,7 -23,7.669 -23,8.5 l 0,0.5 -4,0 0,2 4,0 0,0.5 c 0,0.831 0.669,1.5 1.5,1.5 l 3.5,0 0,-6 -3.5,0 z m 4.5,0 0,6 3.5,0 c 0.831,0 1.5,-0.669 1.5,-1.5 l 0,-0.5 4,0 0,-2 -4,0 0,-0.5 C -12,7.669 -12.669,7 -13.5,7 L -17,7 z"
         id="path3839"
         inkscape:connector-curvature="0" />
      <path
         id="path2885"
         transform="translate(0,-2)"
         d="M 8.5,9 C 7.669,9 7,9.669 7,10.5 l 0,0.5 -4,0 0,2 4,0 0,0.5 C 7,14.331 7.669,15 8.5,15 L 12,15 12,9 8.5,9 z m 4.5,0 0,6 3.5,0 c 0.831,0 1.5,-0.669 1.5,-1.5 l 0,-0.5 4,0 0,-2 -4,0 0,-0.5 C 18,9.669 17.331,9 16.5,9 L 13,9 z"
         style="fill:url(#linearGradient3082);fill-opacity:1;stroke:none;display:inline"
         inkscape:connector-curvature="0" />
      <path
         id="path3821"
         transform="translate(0,-2)"
         d="M 8.5,9 C 7.669,9 7,9.669 7,10.5 l 0,0.5 -4,0 0,1 4,0 0,-0.5 C 7,10.669 7.669,10 8.5,10 L 12,10 12,9 8.5,9 z m 4.5,0 0,1 3.5,0 c 0.831,0 1.5,0.669 1.5,1.5 l 0,0.5 4,0 0,-1 -4,0 0,-0.5 C 18,9.669 17.331,9 16.5,9 L 13,9 z"
         style="opacity:0.5;fill:#000000;fill-opacity:1;stroke:none;display:inline"
         inkscape:connector-curvature="0" />
      <path
         id="path3830"
         transform="translate(0,-2)"
         d="m 3,13 0,1 4,0 0,0.5 C 7,15.331 7.669,16 8.5,16 l 3.5,0 0,-1 -3.5,0 C 7.669,15 7,14.331 7,13.5 L 7,13 3,13 z m 15,0 0,0.5 c 0,0.831 -0.669,1.5 -1.5,1.5 l -3.5,0 0,1 3.5,0 c 0.831,0 1.5,-0.669 1.5,-1.5 l 0,-0.5 4,0 0,-1 -4,0 z"
         style="opacity:0.3;fill:#ffffff;fill-opacity:1;stroke:none;display:inline"
         inkscape:connector-curvature="0" />
    </g>
  </g>
</svg>
