<?xml version="1.0" encoding="UTF-8" standalone="no"?>
<!-- Created with Inkscape (http://www.inkscape.org/) -->

<svg
   xmlns:dc="http://purl.org/dc/elements/1.1/"
   xmlns:cc="http://creativecommons.org/ns#"
   xmlns:rdf="http://www.w3.org/1999/02/22-rdf-syntax-ns#"
   xmlns:svg="http://www.w3.org/2000/svg"
   xmlns="http://www.w3.org/2000/svg"
   xmlns:xlink="http://www.w3.org/1999/xlink"
   xmlns:sodipodi="http://sodipodi.sourceforge.net/DTD/sodipodi-0.dtd"
   xmlns:inkscape="http://www.inkscape.org/namespaces/inkscape"
   id="svg3956"
   height="256"
   width="256"
   version="1.1"
   inkscape:version="0.48.1 r9760"
   sodipodi:docname="object-inverse.svg">
  <sodipodi:namedview
     pagecolor="#ffffff"
     bordercolor="#666666"
     borderopacity="1"
     objecttolerance="10"
     gridtolerance="10"
     guidetolerance="10"
     inkscape:pageopacity="0"
     inkscape:pageshadow="2"
     inkscape:window-width="1024"
     inkscape:window-height="576"
     id="namedview34"
     showgrid="false"
     inkscape:snap-bbox="true"
     inkscape:bbox-paths="true"
     inkscape:bbox-nodes="true"
     inkscape:snap-bbox-edge-midpoints="true"
     inkscape:snap-bbox-midpoints="true"
     inkscape:object-paths="true"
     inkscape:snap-intersection-paths="true"
     inkscape:object-nodes="true"
     inkscape:snap-smooth-nodes="true"
     inkscape:snap-midpoints="true"
     inkscape:snap-object-midpoints="true"
     inkscape:snap-center="true"
     fit-margin-top="0"
     fit-margin-left="0"
     fit-margin-right="0"
     fit-margin-bottom="0"
     inkscape:zoom="1.7070312"
     inkscape:cx="128"
     inkscape:cy="128"
     inkscape:window-x="0"
     inkscape:window-y="24"
     inkscape:window-maximized="1"
     inkscape:current-layer="svg3956" />
  <defs
     id="defs3958">
    <linearGradient
       id="linearGradient2934-6"
       y2="25.882999"
       gradientUnits="userSpaceOnUse"
       x2="72.452003"
       gradientTransform="matrix(0,6.8295,-6.5939,0,226.42,-504.22)"
       y1="25.882999"
       x1="56.323002">
      <stop
         id="stop3229-0-9-4-0"
         style="stop-color:#5c5e61;stop-opacity:1;"
         offset="0" />
      <stop
         id="stop3231-1-1-6-4"
         style="stop-color:#000000;stop-opacity:1;"
         offset="1" />
    </linearGradient>
    <linearGradient
       id="linearGradient2937-8"
       y2="23.063"
       gradientUnits="userSpaceOnUse"
       x2="17.610001"
       gradientTransform="matrix(4.9528,0,0,4.9526,5.0877,-59.934)"
       y1="0.99996001"
       x1="17.610001">
      <stop
         id="stop3270-6-3-0-2"
         style="stop-color:#f0f0f0;stop-opacity:1;"
         offset="0" />
      <stop
         id="stop3272-2-6-5-1"
         style="stop-color:#aaaaaa;stop-opacity:1;"
         offset="1" />
    </linearGradient>
    <linearGradient
       inkscape:collect="always"
       xlink:href="#linearGradient2934-6"
       id="linearGradient3812"
       gradientUnits="userSpaceOnUse"
       gradientTransform="matrix(11.044731,0,0,11.045134,-4.521753,-4.52334)"
       x1="6.7472091"
       y1="1.4970194"
       x2="6.7472091"
       y2="22.501745" />
    <linearGradient
       inkscape:collect="always"
       xlink:href="#linearGradient2937-8"
       id="linearGradient3876"
       gradientUnits="userSpaceOnUse"
       gradientTransform="matrix(11.044731,0,0,11.045134,-4.521753,-4.52334)"
       x1="17.249954"
       y1="1.4970194"
       x2="17.249954"
       y2="22.501745" />
  </defs>
  <metadata
     id="metadata3961">
    <rdf:RDF>
      <cc:Work
         rdf:about="">
        <dc:format>image/svg+xml</dc:format>
        <dc:type
           rdf:resource="http://purl.org/dc/dcmitype/StillImage" />
        <dc:title></dc:title>
      </cc:Work>
    </rdf:RDF>
  </metadata>
  <g
     id="g3897">
    <path
       inkscape:connector-curvature="0"
       style="opacity:0.05;color:#000000;fill:none;stroke:#000000;stroke-width:24;stroke-linejoin:round;stroke-miterlimit:4;stroke-opacity:1;stroke-dasharray:none"
       d="M 128,12 C 63.994625,12 12,63.996385 12,128 12,192.00584 63.994625,244 128,244 192.00538,244 244,192.00361 244,128 244,63.994154 192.00538,12 128,12 z"
       id="path3874" />
    <path
       inkscape:connector-curvature="0"
       id="path3872"
       d="M 128,12 C 63.994625,12 12,63.996385 12,128 12,192.00584 63.994625,244 128,244 192.00538,244 244,192.00361 244,128 244,63.994154 192.00538,12 128,12 z"
       style="opacity:0.1;color:#000000;fill:none;stroke:#000000;stroke-width:18;stroke-linejoin:round;stroke-miterlimit:4;stroke-opacity:1;stroke-dasharray:none" />
    <path
       inkscape:connector-curvature="0"
       style="opacity:0.15;color:#000000;fill:none;stroke:#000000;stroke-width:12;stroke-linejoin:round;stroke-miterlimit:4;stroke-opacity:1;stroke-dasharray:none"
       d="M 128,12 C 63.994625,12 12,63.996385 12,128 12,192.00584 63.994625,244 128,244 192.00538,244 244,192.00361 244,128 244,63.994154 192.00538,12 128,12 z"
       id="path3870" />
    <path
       inkscape:connector-curvature="0"
       id="path3843"
       d="M 128,12 C 63.994625,12 12,63.996385 12,128 12,192.00584 63.994625,244 128,244 192.00538,244 244,192.00361 244,128 244,63.994154 192.00538,12 128,12 z"
       style="opacity:0.2;color:#000000;fill:none;stroke:#000000;stroke-width:6;stroke-linejoin:round;stroke-miterlimit:4;stroke-opacity:1;stroke-dasharray:none" />
    <path
       inkscape:connector-curvature="0"
       id="path3036"
       d="m 127.99936,12.01144 c -64.005379,0 -116.000004,51.996387 -116.000004,116 0,64.00584 51.994625,116 116.000004,116 l 0,-232 z"
       style="color:#000000;fill:url(#linearGradient3812);fill-opacity:1;stroke:none" />
    <path
       inkscape:connector-curvature="0"
       id="path2555"
       d="m 127.99936,12.01144 0,232 c 64.00538,0 115.99999,-51.99639 115.99999,-116 0,-64.005845 -51.99461,-116 -115.99999,-116 z"
       style="color:#000000;fill:url(#linearGradient3876);stroke:none" />
    <path
       inkscape:connector-curvature="0"
       id="path3850"
       d="M 128,12 C 63.994625,12 12,63.996385 12,128 c 0,0.33333 -0.0028,0.66733 0,1 0.537653,-63.54481 52.32795,-115 116,-115 63.67205,0 115.46235,51.453017 116,115 0.003,-0.33266 0,-0.66668 0,-1 C 244,63.994154 192.00538,12 128,12 z"
       style="opacity:0.7;color:#000000;fill:#ffffff;fill-opacity:1;stroke:none" />
    <path
       inkscape:connector-curvature="0"
       id="path3859"
       d="m 12,127 c -0.0028,0.33266 0,0.66668 0,1 0,64.00584 51.994625,116 116,116 64.00538,0 116,-51.99639 116,-116 0,-0.33333 0.003,-0.66733 0,-1 -0.53765,63.54481 -52.32795,115 -116,115 C 64.32795,242 12.537653,190.54698 12,127 z"
       style="opacity:0.7;color:#000000;fill:#000000;fill-opacity:1;stroke:none" />
    <path
       inkscape:connector-curvature="0"
       style="opacity:0.3;color:#000000;fill:#000000;fill-opacity:1;stroke:none"
       d="m 12,129 c -0.0028,0.33266 0,0.66668 0,1 0,64.00584 51.994625,116 116,116 64.00538,0 116,-51.99639 116,-116 0,-0.33333 0.003,-0.66733 0,-1 -0.53765,63.54481 -52.32795,115 -116,115 C 64.32795,244 12.537653,192.54698 12,129 z"
       id="path3868" />
  </g>
</svg>
