<?xml version="1.0" encoding="UTF-8" standalone="no"?>
<!-- Created with Inkscape (http://www.inkscape.org/) -->

<svg
   xmlns:dc="http://purl.org/dc/elements/1.1/"
   xmlns:cc="http://creativecommons.org/ns#"
   xmlns:rdf="http://www.w3.org/1999/02/22-rdf-syntax-ns#"
   xmlns:svg="http://www.w3.org/2000/svg"
   xmlns="http://www.w3.org/2000/svg"
   xmlns:xlink="http://www.w3.org/1999/xlink"
   xmlns:sodipodi="http://sodipodi.sourceforge.net/DTD/sodipodi-0.dtd"
   xmlns:inkscape="http://www.inkscape.org/namespaces/inkscape"
   width="256"
   height="256"
   id="svg3080"
   version="1.1"
   inkscape:version="0.48.1 r9760"
   sodipodi:docname="package-available.svg">
  <defs
     id="defs3082">
    <clipPath
       id="clipPath3871-0">
      <path
         style="fill:#ffffff;fill-opacity:1;stroke:none"
         id="path3873-2"
         inkscape:connector-curvature="0"
         d="M 0,95.999997 0,156 l 96.000001,0 0,-60.000003 -96.000001,0 z M 68,116 c 9.941125,0 18,8.05888 18,18 0,9.94112 -8.058875,18 -18,18 -9.941125,0 -18,-8.05888 -18,-18 0,-9.94112 8.058875,-18 18,-18 z" />
    </clipPath>
    <linearGradient
       inkscape:collect="always"
       xlink:href="#linearGradient3778"
       id="linearGradient3049"
       gradientUnits="userSpaceOnUse"
       gradientTransform="matrix(0,-5.3836365,5.3836365,0,-263.85182,504.74771)"
       x1="51.42857"
       y1="72.785713"
       x2="90.714287"
       y2="72.785713" />
    <linearGradient
       id="linearGradient3778">
      <stop
         offset="0"
         style="stop-color:#c1c1c1;stop-opacity:1;"
         id="stop3780" />
      <stop
         offset="1"
         style="stop-color:#f1f1f1;stop-opacity:1;"
         id="stop3782" />
    </linearGradient>
    <linearGradient
       inkscape:collect="always"
       xlink:href="#linearGradient3737-1"
       id="linearGradient3051"
       gradientUnits="userSpaceOnUse"
       gradientTransform="translate(-2,0)"
       x1="64.321426"
       y1="55.310268"
       x2="64.321426"
       y2="84.889679" />
    <linearGradient
       id="linearGradient3737-1">
      <stop
         offset="0"
         style="stop-color:#ffffff;stop-opacity:1"
         id="stop3739-5" />
      <stop
         offset="1"
         style="stop-color:#ffffff;stop-opacity:0"
         id="stop3741-9" />
    </linearGradient>
  </defs>
  <sodipodi:namedview
     id="base"
     pagecolor="#ffffff"
     bordercolor="#666666"
     borderopacity="1.0"
     inkscape:pageopacity="0.0"
     inkscape:pageshadow="2"
     inkscape:zoom="1.71875"
     inkscape:cx="128"
     inkscape:cy="128"
     inkscape:document-units="px"
     inkscape:current-layer="layer1"
     showgrid="false"
     inkscape:window-width="1024"
     inkscape:window-height="576"
     inkscape:window-x="0"
     inkscape:window-y="24"
     inkscape:window-maximized="1" />
  <metadata
     id="metadata3085">
    <rdf:RDF>
      <cc:Work
         rdf:about="">
        <dc:format>image/svg+xml</dc:format>
        <dc:type
           rdf:resource="http://purl.org/dc/dcmitype/StillImage" />
        <dc:title></dc:title>
      </cc:Work>
    </rdf:RDF>
  </metadata>
  <g
     inkscape:label="Layer 1"
     inkscape:groupmode="layer"
     id="layer1"
     transform="translate(0,-796.36218)">
    <g
       id="g3040"
       transform="matrix(0.85106383,0,0,0.85106383,19.06383,815.42601)">
      <path
         d="M 128,10.5 C 63.021895,10.5 10.5,63.021854 10.5,128 10.5,192.97815 63.021895,245.5 128,245.5 192.97811,245.5 245.5,192.97815 245.5,128 245.5,63.021854 192.97811,10.5 128,10.5 z"
         id="path3950"
         style="opacity:0.05;fill:#000000;fill-opacity:1;stroke:none;display:inline"
         inkscape:connector-curvature="0" />
      <path
         d="M 128,16.375 C 66.221273,16.375 16.375,66.221261 16.375,128 16.375,189.77874 66.221273,239.625 128,239.625 189.77873,239.625 239.625,189.77874 239.625,128 239.625,66.221261 189.77873,16.375 128,16.375 z"
         id="path3946"
         style="opacity:0.15;fill:#000000;fill-opacity:1;stroke:none;display:inline"
         inkscape:connector-curvature="0" />
      <rect
         width="36"
         height="36"
         rx="18"
         ry="18"
         x="50"
         y="118"
         transform="matrix(5.875,0,0,5.875,-271.5,-671)"
         clip-path="url(#clipPath3871-0)"
         id="rect3859"
         style="opacity:0.31000001;fill:#000000;fill-opacity:1;stroke:none;display:inline" />
      <path
         d="m 128,16.374985 a 105.75,105.75 0 1 1 0,211.499995 105.75,105.75 0 1 1 0,-211.499995 z"
         id="path3836"
         style="fill:url(#linearGradient3049);fill-opacity:1;stroke:none"
         inkscape:connector-curvature="0" />
      <g
         transform="matrix(5.875,0,0,5.875,-271.5,-312.625)"
         id="g4106"
         style="display:inline">
        <path
           d="m 68,56 c -9.941125,0 -18,8.058875 -18,18 0,3.6617 1.09067,7.063961 2.96875,9.90625 C 51.722125,81.541769 51,78.858787 51,76 c 0,-9.388841 7.611159,-17 17,-17 9.388841,0 17,7.611159 17,17 0,2.858787 -0.722125,5.541769 -1.96875,7.90625 C 84.90933,81.063961 86,77.6617 86,74 86,64.058875 77.941125,56 68,56 z"
           inkscape:connector-curvature="0"
           id="path3846"
           style="opacity:0.3;fill:url(#linearGradient3051);fill-opacity:1;stroke:none" />
        <path
           d="m 68,56 c -9.94112,0 -18,8.05887 -18,18 0,0.168593 0.02664,0.33252 0.03125,0.5 C 50.298212,64.79197 58.227473,57 68,57 c 9.73052,0 17.63723,7.725255 17.96875,17.375 l 0,-1 C 85.63723,63.725255 77.73052,56 68,56 z"
           inkscape:connector-curvature="0"
           id="path4097"
           style="opacity:0.3;fill:#ffffff;fill-opacity:1;stroke:none;display:inline" />
      </g>
    </g>
  </g>
</svg>
