<?xml version="1.0" encoding="UTF-8" standalone="no"?>
<!-- Created with Inkscape (http://www.inkscape.org/) -->

<svg
   xmlns:dc="http://purl.org/dc/elements/1.1/"
   xmlns:cc="http://creativecommons.org/ns#"
   xmlns:rdf="http://www.w3.org/1999/02/22-rdf-syntax-ns#"
   xmlns:svg="http://www.w3.org/2000/svg"
   xmlns="http://www.w3.org/2000/svg"
   xmlns:xlink="http://www.w3.org/1999/xlink"
   xmlns:sodipodi="http://sodipodi.sourceforge.net/DTD/sodipodi-0.dtd"
   xmlns:inkscape="http://www.inkscape.org/namespaces/inkscape"
   version="1.1"
   width="256"
   height="256"
   id="svg2"
   inkscape:version="0.48.1 r9760"
   sodipodi:docname="package-new.svg">
  <metadata
     id="metadata22">
    <rdf:RDF>
      <cc:Work
         rdf:about="">
        <dc:format>image/svg+xml</dc:format>
        <dc:type
           rdf:resource="http://purl.org/dc/dcmitype/StillImage" />
        <dc:title />
      </cc:Work>
    </rdf:RDF>
  </metadata>
  <sodipodi:namedview
     pagecolor="#ffffff"
     bordercolor="#666666"
     borderopacity="1"
     objecttolerance="10"
     gridtolerance="10"
     guidetolerance="10"
     inkscape:pageopacity="0"
     inkscape:pageshadow="2"
     inkscape:window-width="1024"
     inkscape:window-height="576"
     id="namedview20"
     showgrid="false"
     inkscape:zoom="1.71875"
     inkscape:cx="128"
     inkscape:cy="128"
     inkscape:window-x="0"
     inkscape:window-y="24"
     inkscape:window-maximized="1"
     inkscape:current-layer="svg2" />
  <defs
     id="defs4">
    <clipPath
       id="clipPath3871-0">
      <path
         style="fill:#ffffff;fill-opacity:1;stroke:none"
         id="path3873-2"
         inkscape:connector-curvature="0"
         d="M 0,95.999997 0,156 l 96.000001,0 0,-60.000003 -96.000001,0 z M 68,116 c 9.941125,0 18,8.05888 18,18 0,9.94112 -8.058875,18 -18,18 -9.941125,0 -18,-8.05888 -18,-18 0,-9.94112 8.058875,-18 18,-18 z" />
    </clipPath>
    <linearGradient
       id="linearGradient3737-1">
      <stop
         offset="0"
         style="stop-color:#ffffff;stop-opacity:1"
         id="stop3739-5" />
      <stop
         offset="1"
         style="stop-color:#ffffff;stop-opacity:0"
         id="stop3741-9" />
    </linearGradient>
    <linearGradient
       inkscape:collect="always"
       xlink:href="#linearGradient3737-1"
       id="linearGradient3051"
       gradientUnits="userSpaceOnUse"
       gradientTransform="translate(-2,0)"
       x1="64.321426"
       y1="55.310268"
       x2="64.321426"
       y2="84.889679" />
    <filter
       id="filter3174-1"
       color-interpolation-filters="sRGB">
      <feGaussianBlur
         stdDeviation="1.71"
         id="feGaussianBlur3176-5" />
    </filter>
    <linearGradient
       gradientTransform="scale(1.0058652,0.994169)"
       gradientUnits="userSpaceOnUse"
       id="ButtonShadow-1"
       y2="7.0165396"
       x2="45.447727"
       y1="92.539597"
       x1="45.447727">
      <stop
         offset="0"
         style="stop-color:#000000;stop-opacity:1"
         id="stop3750-3" />
      <stop
         offset="1"
         style="stop-color:#000000;stop-opacity:0.58823532"
         id="stop3752-2" />
    </linearGradient>
    <linearGradient
       inkscape:collect="always"
       xlink:href="#linearGradient12071"
       id="linearGradient3634"
       gradientUnits="userSpaceOnUse"
       gradientTransform="matrix(0,-4.5818183,4.5818183,0,-203.50535,447.99462)"
       x1="90.666664"
       y1="72.531746"
       x2="51.603176"
       y2="72.912697" />
    <linearGradient
       id="linearGradient12071">
      <stop
         id="stop12073"
         style="stop-color:#f1f1f1;stop-opacity:1;"
         offset="0" />
      <stop
         id="stop12075"
         style="stop-color:#c1c1c1;stop-opacity:1;"
         offset="1" />
    </linearGradient>
    <linearGradient
       id="linearGradient3658">
      <stop
         id="stop3660"
         style="stop-color:#3874d0;stop-opacity:1;"
         offset="0" />
      <stop
         id="stop3662"
         style="stop-color:#0066ff;stop-opacity:1;"
         offset="1" />
    </linearGradient>
    <linearGradient
       inkscape:collect="always"
       xlink:href="#linearGradient3658"
       id="linearGradient6579"
       gradientUnits="userSpaceOnUse"
       gradientTransform="matrix(14.394769,0.75857788,-0.75830815,14.397528,-17.524611,-34.639469)"
       x1="11.087322"
       y1="15.37313"
       x2="10.540542"
       y2="4.9937253" />
  </defs>
  <path
     inkscape:connector-curvature="0"
     style="opacity:0.05;fill:#000000;fill-opacity:1;stroke:none;display:inline"
     id="path3950"
     d="m 129.98557,27.358266 c -55.30052,0 -100.000005,44.69945 -100.000005,100.000004 0,55.30055 44.699485,100 100.000005,100 55.30051,0 100,-44.69945 100,-100 0,-55.300554 -44.69949,-100.000004 -100,-100.000004 z" />
  <path
     inkscape:connector-curvature="0"
     style="opacity:0.15;fill:#000000;fill-opacity:1;stroke:none;display:inline"
     id="path3946"
     d="m 129.98557,32.358266 c -52.577645,0 -95.000005,42.42235 -95.000005,95.000004 0,52.57765 42.42236,95 95.000005,95 52.57764,0 95,-42.42235 95,-95 0,-52.577654 -42.42236,-95.000004 -95,-95.000004 z" />
  <rect
     style="opacity:0.31000001;fill:#000000;fill-opacity:1;stroke:none;display:inline"
     id="rect3859"
     clip-path="url(#clipPath3871-0)"
     transform="matrix(5,0,0,5,-210.01443,-552.64173)"
     y="118"
     x="50"
     ry="18"
     rx="18"
     height="36"
     width="36" />
  <path
     inkscape:connector-curvature="0"
     style="fill:url(#linearGradient3634);fill-opacity:1.0;stroke:none"
     id="path3836"
     d="m 129.98557,32.358253 a 90,90 0 1 1 0,179.999997 90,90 0 1 1 0,-179.999997 z" />
  <g
     style="display:inline"
     id="g4106"
     transform="matrix(5,0,0,5,-210.01443,-247.64173)">
    <path
       style="opacity:0.3;fill:url(#linearGradient3051);fill-opacity:1;stroke:none"
       id="path3846"
       inkscape:connector-curvature="0"
       d="m 68,56 c -9.941125,0 -18,8.058875 -18,18 0,3.6617 1.09067,7.063961 2.96875,9.90625 C 51.722125,81.541769 51,78.858787 51,76 c 0,-9.388841 7.611159,-17 17,-17 9.388841,0 17,7.611159 17,17 0,2.858787 -0.722125,5.541769 -1.96875,7.90625 C 84.90933,81.063961 86,77.6617 86,74 86,64.058875 77.941125,56 68,56 z" />
    <path
       style="opacity:0.3;fill:#ffffff;fill-opacity:1;stroke:none;display:inline"
       id="path4097"
       inkscape:connector-curvature="0"
       d="m 68,56 c -9.94112,0 -18,8.05887 -18,18 0,0.168593 0.02664,0.33252 0.03125,0.5 C 50.298212,64.79197 58.227473,57 68,57 c 9.73052,0 17.63723,7.725255 17.96875,17.375 l 0,-1 C 85.63723,63.725255 77.73052,56 68,56 z" />
  </g>
  <g
     id="layer2"
     style="display:none"
     transform="matrix(0.71689665,0,0,0.71689665,39.100204,144.1996)">
    <rect
       width="86"
       height="85"
       rx="6"
       ry="6"
       x="5"
       y="7"
       id="rect3745"
       style="opacity:0.9;fill:url(#ButtonShadow-1);fill-opacity:1;fill-rule:nonzero;stroke:none;filter:url(#filter3174-1)" />
  </g>
  <g
     id="g4463"
     transform="matrix(0.66666669,0,0,0.66666669,45.667823,38.32139)">
    <path
       inkscape:connector-curvature="0"
       d="m 126.39792,36.54264 a 4.6305435,4.6305435 0 0 0 -1.74215,0.40182 c -4.01193,1.521809 -5.72088,4.569539 -6.56653,5.494454 a 4.6305435,4.6305435 0 0 0 -0.80407,1.072094 c -6.63923,13.846573 -14.10971,27.547135 -21.173746,41.543422 -0.009,0.0171 -0.124799,-0.0171 -0.133799,0 -0.811905,0.0879 -2.49801,0.23457 -4.42236,0.80406 l 0,-0.1338 c -14.454537,2.602184 -29.264229,5.151734 -43.553586,7.772638 a 4.6305435,4.6305435 0 0 0 -1.474125,0.536055 c -2.208674,1.2531 -4.863809,3.543585 -6.030493,6.968567 l -0.1338,-0.1338 c -0.0879,0.1831 -0.05745,0.35292 -0.1338,0.53604 -0.0588,0.20884 -0.221715,0.31776 -0.268035,0.53604 l 0.268035,0 c -0.66711,1.85119 -1.097865,3.76497 -0.938085,5.49445 0.1209,1.30632 0.85707,2.49681 1.474125,3.75231 l -0.1338,0 c 0.105,0.41469 0.38895,0.4435 0.536039,0.80407 0.29418,0.44654 0.09735,0.89754 0.536055,1.3401 l 0.1338,-0.1338 c 0.749745,1.17164 1.43481,2.56749 2.14419,3.21627 1.139445,1.04211 2.009775,1.86947 2.412194,2.4122 a 4.6305435,4.6305435 0 0 0 0.40182,0.40182 l 28.81237,29.48243 C 73.366224,164.6103 70.67038,180.66959 68.7736,196.82004 a 4.6305435,4.6305435 0 0 0 0,1.47412 c 0.262455,1.31619 0.60141,2.86398 1.474125,4.55639 0.56847,1.10235 1.797929,1.91971 2.948249,2.81422 l -0.1338,0.1338 c 0.23886,0.29289 0.55731,0.16338 0.80406,0.40182 0.403545,0.25644 0.49629,0.74982 0.938085,0.93807 l 0.1338,-0.26802 c 1.216814,0.825 2.406659,1.72718 3.752309,2.01017 2.0286,0.42669 4.369904,0.5607 6.700544,-0.26802 3.107819,-1.10837 5.952703,-2.98625 8.040658,-3.88632 a 4.6305435,4.6305435 0 0 0 0.1338,-0.1338 l 35.1109,-17.28743 41.94545,20.77172 a 4.6305435,4.6305435 0 0 0 0.80406,0.26802 c 1.23372,0.33706 2.91484,0.70543 4.8244,0.80407 1.77143,0.0913 4.01694,0.12045 6.29852,-1.74214 0.17797,-0.14535 0.35808,-0.0974 0.53604,-0.26804 2.06871,-0.99948 3.68644,-2.51442 4.69039,-4.55637 l 0.1338,0.1338 c 0.12735,-0.18183 0.0257,-0.3525 0.1338,-0.53604 0.1287,-0.2989 0.43871,-0.49287 0.53606,-0.80407 l -0.26802,-0.1338 c 0.79497,-1.8078 1.40296,-3.71582 1.3401,-5.22642 -0.0805,-1.93839 -0.47249,-3.60755 -0.67005,-4.95842 l -6.16451,-42.61551 c 10.8123,-11.07132 21.59404,-22.1026 32.43067,-33.10072 0.1329,-0.13515 0.26888,-0.26717 0.40182,-0.40182 l -0.1338,-0.1338 c 1.56809,-1.48269 2.63489,-3.16532 3.21627,-5.09241 0.59076,-1.95828 0.75139,-4.25833 0.1338,-6.56655 l 0.1338,0 c -0.0214,-0.11145 -0.1077,-0.15867 -0.1338,-0.26802 -0.03,-0.0948 0.03,-0.17325 0,-0.26802 l -0.1338,0 c -0.8461,-3.109393 -2.71218,-5.606682 -4.69039,-7.236597 a 4.6305435,4.6305435 0 0 0 -1.07208,-0.53604 c -2.96931,-1.37013 -5.86202,-1.71942 -8.84474,-2.144174 l -0.1338,0 -41.14139,-6.834569 C 155.26609,71.339078 147.41068,56.658371 140.06704,42.305549 a 4.6305435,4.6305435 0 0 0 -1.60812,-1.742145 c -0.49132,-0.322485 -1.37965,-1.169565 -2.94825,-2.144175 -1.41237,-0.877574 -3.69,-1.421459 -6.03049,-1.340114 l 0,-0.26802 c -0.55946,-0.02145 -1.51658,-0.22557 -3.08226,-0.26802 z"
       id="path3998"
       style="opacity:0.05;fill:#000000;fill-opacity:1;stroke:none;display:inline" />
    <path
       d="m 126.20695,41.289644 c -2.6562,1.00755 -3.29212,2.683694 -4.73532,4.262189 -6.77834,14.136732 -14.34587,28.060449 -21.42782,42.115237 -1.141786,2.804144 -5.24805,1.596839 -7.69644,2.632994 -14.478207,2.60643 -29.307549,5.203154 -43.562556,7.817758 -2.07822,1.179075 -3.824954,2.442648 -4.309184,4.735798 -1.176855,2.45646 -0.73524,5.97891 0.520515,7.24616 0.56838,2.24735 3.484034,3.60788 5.213564,5.9404 10.091533,10.3737 20.183006,20.74744 30.274494,31.12114 -2.315895,16.72487 -5.184104,33.39478 -7.152464,50.1543 0.498225,2.49716 0.97749,4.59287 3.314339,5.58872 1.128045,1.38217 4.583909,2.19156 7.150019,1.27912 2.17539,-0.7758 5.113214,-2.61499 7.718308,-3.73798 12.398475,-6.08616 24.796965,-12.17228 37.195445,-18.2584 14.6549,7.23908 29.30979,14.47813 43.96468,21.7172 2.01286,0.55029 5.77701,1.31666 7.22107,-0.0708 2.11394,-0.36664 3.63708,-1.83892 4.2618,-3.83593 1.45265,-2.0741 0.67392,-5.22792 0.23886,-8.20383 -2.15428,-14.97043 -4.30858,-29.94081 -6.46288,-44.91124 11.45355,-11.71882 22.82951,-23.51836 34.33139,-35.18687 1.77422,-1.48164 3.05996,-4.93504 2.2022,-7.55385 -0.44538,-2.08479 -1.78391,-3.85836 -3.33801,-5.138818 -1.9877,-0.917205 -4.72028,-1.350794 -7.75167,-1.786109 -14.54926,-2.41296 -29.09854,-4.825934 -43.6478,-7.238954 -7.88619,-15.142812 -16.05444,-30.391089 -23.7682,-45.467346 -1.97118,-1.294395 -3.4514,-3.428669 -6.60534,-3.055109 -1.05057,-0.03855 -2.10002,-0.1377 -3.14886,-0.16596 z"
       inkscape:connector-curvature="0"
       id="path3992"
       style="opacity:0.07999998;fill:#000000;fill-opacity:1;stroke:none;display:inline" />
    <path
       inkscape:connector-curvature="0"
       d="m 127.79301,45.433768 a 4.1124062,4.1116154 88.716084 0 0 -1.39689,0.828735 4.1124062,4.1116154 88.716084 0 0 -0.9708,1.30233 L 101.8422,92.792719 51.294238,101.85941 a 4.1124062,4.1116154 88.716084 0 0 -3.385829,4.3333 4.1124062,4.1116154 88.716084 0 0 0.781215,2.29701 4.1124062,4.1116154 88.716084 0 0 0.426255,0.47361 l 35.511728,36.61163 -7.152419,50.15426 a 4.1124062,4.1116154 88.716084 0 0 0.331485,2.27336 4.1124062,4.1116154 88.716084 0 0 0.828555,1.39717 4.1124062,4.1116154 88.716084 0 0 2.20182,1.01837 4.1124062,4.1116154 88.716084 0 0 2.272859,-0.33149 l 46.286993,-22.37518 45.29049,22.23825 a 4.1124062,4.1116154 88.716084 0 0 3.5987,0.18954 4.1124062,4.1116154 88.716084 0 0 1.39689,-0.82872 4.1124062,4.1116154 88.716084 0 0 0.99447,-1.7523 4.1124062,4.1116154 88.716084 0 0 0.0948,-1.7997 l -7.26602,-50.46293 35.752,-36.4655 a 4.1124062,4.1116154 88.716084 0 0 1.08926,-3.552 4.1124062,4.1116154 88.716084 0 0 -0.80489,-1.84709 4.1124062,4.1116154 88.716084 0 0 -1.30212,-0.97096 4.1124062,4.1116154 88.716084 0 0 -1.32579,-0.52104 l -50.07363,-8.504012 -24.19434,-45.941 a 4.1124062,4.1116154 88.716084 0 0 -4.40358,-2.03676 4.1124062,4.1116154 88.716084 0 0 -0.44985,-0.0258 z"
       id="path3988"
       style="opacity:0.15;fill:#000000;fill-opacity:1;stroke:none;display:inline" />
    <path
       inkscape:connector-curvature="0"
       d="m 51.887788,105.75675 52.385542,-9.050697 24.82,-47.020596 24.79453,47.034486 52.38063,9.079947 -37.06171,38.1196 7.55304,52.63233 -47.6999,-23.47526 -47.712648,23.44859 7.581554,-52.62809 z"
       id="path3982"
       style="opacity:0.3;fill:#000000;fill-opacity:1;stroke:none;display:inline" />
    <path
       inkscape:connector-curvature="0"
       d="m 51.887788,101.4684 52.385542,-9.050696 24.82,-47.020596 24.79453,47.034486 52.38063,9.079946 -37.06171,38.1196 7.55304,52.63233 -47.6999,-23.47526 -47.712648,23.44858 7.581554,-52.62808 z"
       id="path3748"
       style="fill:url(#linearGradient6579);fill-opacity:1;stroke:none;display:inline" />
    <path
       d="m 129.07815,164.52318 -47.037878,23.18391 -0.670065,4.55638 47.707943,-23.45194 47.70792,23.45194 -0.67006,-4.55638 z"
       inkscape:connector-curvature="0"
       id="path4094"
       style="opacity:0.3;fill:#aa4400;fill-opacity:1;stroke:none;display:inline" />
  </g>
</svg>
