<?xml version="1.0" encoding="UTF-8" standalone="no"?>
<!-- Created with Inkscape (http://www.inkscape.org/) -->

<svg
   xmlns:dc="http://purl.org/dc/elements/1.1/"
   xmlns:cc="http://creativecommons.org/ns#"
   xmlns:rdf="http://www.w3.org/1999/02/22-rdf-syntax-ns#"
   xmlns:svg="http://www.w3.org/2000/svg"
   xmlns="http://www.w3.org/2000/svg"
   xmlns:xlink="http://www.w3.org/1999/xlink"
   xmlns:sodipodi="http://sodipodi.sourceforge.net/DTD/sodipodi-0.dtd"
   xmlns:inkscape="http://www.inkscape.org/namespaces/inkscape"
   version="1.1"
   width="256"
   height="256"
   id="svg2"
   inkscape:version="0.48.1 r9760"
   sodipodi:docname="package-supported.svg">
  <metadata
     id="metadata22">
    <rdf:RDF>
      <cc:Work
         rdf:about="">
        <dc:format>image/svg+xml</dc:format>
        <dc:type
           rdf:resource="http://purl.org/dc/dcmitype/StillImage" />
        <dc:title></dc:title>
      </cc:Work>
    </rdf:RDF>
  </metadata>
  <sodipodi:namedview
     pagecolor="#ffffff"
     bordercolor="#666666"
     borderopacity="1"
     objecttolerance="10"
     gridtolerance="10"
     guidetolerance="10"
     inkscape:pageopacity="0"
     inkscape:pageshadow="2"
     inkscape:window-width="1024"
     inkscape:window-height="576"
     id="namedview20"
     showgrid="false"
     inkscape:zoom="1.71875"
     inkscape:cx="128"
     inkscape:cy="128"
     inkscape:window-x="0"
     inkscape:window-y="24"
     inkscape:window-maximized="1"
     inkscape:current-layer="svg2" />
  <defs
     id="defs4">
    <clipPath
       id="clipPath3871-0">
      <path
         style="fill:#ffffff;fill-opacity:1;stroke:none"
         id="path3873-2"
         inkscape:connector-curvature="0"
         d="M 0,95.999997 0,156 l 96.000001,0 0,-60.000003 -96.000001,0 z M 68,116 c 9.941125,0 18,8.05888 18,18 0,9.94112 -8.058875,18 -18,18 -9.941125,0 -18,-8.05888 -18,-18 0,-9.94112 8.058875,-18 18,-18 z" />
    </clipPath>
    <linearGradient
       id="linearGradient3737-1">
      <stop
         offset="0"
         style="stop-color:#ffffff;stop-opacity:1"
         id="stop3739-5" />
      <stop
         offset="1"
         style="stop-color:#ffffff;stop-opacity:0"
         id="stop3741-9" />
    </linearGradient>
    <linearGradient
       id="linearGradient6057">
      <stop
         offset="0"
         style="stop-color:#ff0000;stop-opacity:1;"
         id="stop6059" />
      <stop
         offset="1"
         style="stop-color:#aa0000;stop-opacity:1;"
         id="stop6061" />
    </linearGradient>
    <linearGradient
       inkscape:collect="always"
       xlink:href="#linearGradient6057"
       id="linearGradient3753"
       gradientUnits="userSpaceOnUse"
       x1="10.530878"
       y1="13.692682"
       x2="39.690422"
       y2="13.692682" />
    <linearGradient
       inkscape:collect="always"
       xlink:href="#linearGradient3737-1"
       id="linearGradient3051"
       gradientUnits="userSpaceOnUse"
       gradientTransform="translate(-2,0)"
       x1="64.321426"
       y1="55.310268"
       x2="64.321426"
       y2="84.889679" />
    <filter
       id="filter3174-1"
       color-interpolation-filters="sRGB">
      <feGaussianBlur
         stdDeviation="1.71"
         id="feGaussianBlur3176-5" />
    </filter>
    <linearGradient
       gradientTransform="scale(1.0058652,0.994169)"
       gradientUnits="userSpaceOnUse"
       id="ButtonShadow-1"
       y2="7.0165396"
       x2="45.447727"
       y1="92.539597"
       x1="45.447727">
      <stop
         offset="0"
         style="stop-color:#000000;stop-opacity:1"
         id="stop3750-3" />
      <stop
         offset="1"
         style="stop-color:#000000;stop-opacity:0.58823532"
         id="stop3752-2" />
    </linearGradient>
    <linearGradient
       inkscape:collect="always"
       xlink:href="#linearGradient4457"
       id="linearGradient3634"
       gradientUnits="userSpaceOnUse"
       gradientTransform="matrix(0,-4.5818183,4.5818183,0,-203.50535,447.99462)"
       x1="90.666664"
       y1="72.531746"
       x2="51.603176"
       y2="72.912697" />
    <linearGradient
       id="linearGradient4457">
      <stop
         style="stop-color:#892ca0;stop-opacity:1;"
         offset="0"
         id="stop4459" />
      <stop
         style="stop-color:#660080;stop-opacity:1;"
         offset="1"
         id="stop4461" />
    </linearGradient>
    <linearGradient
       id="linearGradient12071-8">
      <stop
         id="stop12073-3"
         style="stop-color:#f1f1f1;stop-opacity:1;"
         offset="0" />
      <stop
         id="stop12075-5"
         style="stop-color:#c1c1c1;stop-opacity:1;"
         offset="1" />
    </linearGradient>
    <linearGradient
       inkscape:collect="always"
       xlink:href="#linearGradient12071-8"
       id="linearGradient6797"
       gradientUnits="userSpaceOnUse"
       gradientTransform="matrix(0.73358765,0,0,0.73358765,-143.75075,31.575956)"
       x1="121.45668"
       y1="39.870129"
       x2="127.20676"
       y2="211.18262" />
  </defs>
  <path
     inkscape:connector-curvature="0"
     style="opacity:0.05;fill:#000000;fill-opacity:1;stroke:none;display:inline"
     id="path3950"
     d="m 129.98557,27.358266 c -55.30052,0 -100.000005,44.69945 -100.000005,100.000004 0,55.30055 44.699485,100 100.000005,100 55.30051,0 100,-44.69945 100,-100 0,-55.300554 -44.69949,-100.000004 -100,-100.000004 z" />
  <path
     inkscape:connector-curvature="0"
     style="opacity:0.15;fill:#000000;fill-opacity:1;stroke:none;display:inline"
     id="path3946"
     d="m 129.98557,32.358266 c -52.577645,0 -95.000005,42.42235 -95.000005,95.000004 0,52.57765 42.42236,95 95.000005,95 52.57764,0 95,-42.42235 95,-95 0,-52.577654 -42.42236,-95.000004 -95,-95.000004 z" />
  <rect
     style="opacity:0.31000001;fill:#000000;fill-opacity:1;stroke:none;display:inline"
     id="rect3859"
     clip-path="url(#clipPath3871-0)"
     transform="matrix(5,0,0,5,-210.01443,-552.64173)"
     y="118"
     x="50"
     ry="18"
     rx="18"
     height="36"
     width="36" />
  <path
     inkscape:connector-curvature="0"
     style="fill:url(#linearGradient3634);fill-opacity:1.0;stroke:none"
     id="path3836"
     d="m 129.98557,32.358253 a 90,90 0 1 1 0,179.999997 90,90 0 1 1 0,-179.999997 z" />
  <g
     style="display:inline"
     id="g4106"
     transform="matrix(5,0,0,5,-210.01443,-247.64173)">
    <path
       style="opacity:0.3;fill:url(#linearGradient3051);fill-opacity:1;stroke:none"
       id="path3846"
       inkscape:connector-curvature="0"
       d="m 68,56 c -9.941125,0 -18,8.058875 -18,18 0,3.6617 1.09067,7.063961 2.96875,9.90625 C 51.722125,81.541769 51,78.858787 51,76 c 0,-9.388841 7.611159,-17 17,-17 9.388841,0 17,7.611159 17,17 0,2.858787 -0.722125,5.541769 -1.96875,7.90625 C 84.90933,81.063961 86,77.6617 86,74 86,64.058875 77.941125,56 68,56 z" />
    <path
       style="opacity:0.3;fill:#ffffff;fill-opacity:1;stroke:none;display:inline"
       id="path4097"
       inkscape:connector-curvature="0"
       d="m 68,56 c -9.94112,0 -18,8.05887 -18,18 0,0.168593 0.02664,0.33252 0.03125,0.5 C 50.298212,64.79197 58.227473,57 68,57 c 9.73052,0 17.63723,7.725255 17.96875,17.375 l 0,-1 C 85.63723,63.725255 77.73052,56 68,56 z" />
  </g>
  <g
     id="layer2"
     style="display:none"
     transform="matrix(0.71689665,0,0,0.71689665,39.100204,144.1996)">
    <rect
       width="86"
       height="85"
       rx="6"
       ry="6"
       x="5"
       y="7"
       id="rect3745"
       style="opacity:0.9;fill:url(#ButtonShadow-1);fill-opacity:1;fill-rule:nonzero;stroke:none;filter:url(#filter3174-1)" />
  </g>
  <g
     id="g6788"
     transform="translate(181.52728,1.1636364)">
    <path
       inkscape:connector-curvature="0"
       id="path6786"
       style="opacity:0.05;fill:none;stroke:#000000;stroke-width:18;stroke-linejoin:round;stroke-miterlimit:4;stroke-opacity:1;stroke-dasharray:none"
       d="m -25.56016,83.442676 c 5.50466,3.179491 12.53941,1.296397 15.71505,-4.208339 3.17944,-5.504548 1.2962,-12.539417 -4.20826,-15.718918 -5.50446,-3.175693 -12.53921,-1.2888 -15.71865,4.215748 -3.17564,5.500937 -1.28878,12.535806 4.21186,15.711509 z m -23.55193,74.417064 c -5.05889,0 -9.85762,-1.12544 -14.15868,-3.12757 l -7.99682,14.32988 c 6.67818,3.30939 14.19958,5.17765 22.1555,5.17765 4.62797,0 9.10362,-0.64241 13.35638,-1.81995 0.75021,-4.62424 3.49513,-8.88088 7.87055,-11.41037 4.37162,-2.52207 9.42309,-2.77081 13.79832,-1.11802 C -5.57732,151.523 -0.0394,140.1425 0.76655,127.46538 l -16.40213,-0.24132 c -1.50804,17.17488 -15.91567,30.63568 -33.47651,30.63568 z m 0,-67.233487 c 17.56084,0 31.96847,13.464237 33.48012,30.635507 L 0.76655,121.02043 C -0.0394,108.34352 -5.57732,96.962818 -14.08684,88.594451 c -4.37523,1.652792 -9.43032,1.40024 -13.79832,-1.118028 -4.37542,-2.525688 -7.12034,-6.786115 -7.87055,-11.410358 -4.25276,-1.173748 -8.72841,-1.816342 -13.35638,-1.816342 -7.95592,0 -15.47732,1.86844 -22.1555,5.174026 l 7.99682,14.329897 c 4.30106,-2.001945 9.09979,-3.127393 14.15868,-3.127393 z m -33.613981,33.618177 c 0,-11.37328 5.649371,-21.42049 14.292381,-27.504504 l -8.41272,-14.092175 c -10.069283,6.730405 -17.561014,17.015326 -20.67352,29.060869 3.63243,2.96403 5.957633,7.47684 5.957633,12.53581 0,5.05593 -2.325203,9.56873 -5.957633,12.53276 3.108893,12.04936 10.600433,22.33428 20.67352,29.06448 l 8.41272,-14.09579 c -8.64301,-6.08021 -14.292381,-16.1276 -14.292381,-27.50145 z m 57.169731,40.7951 c -5.50446,3.1793 -7.39132,10.21417 -4.21207,15.71511 3.17584,5.50474 10.21059,7.39145 15.71504,4.21213 5.50446,-3.17588 7.39132,-10.21075 4.21206,-15.7153 -3.17583,-5.50094 -10.21419,-7.38783 -15.71503,-4.21194 z m -82.16657,-52.30569 c -6.35889,0 -11.51054,5.1516 -11.51054,11.51059 0,6.35595 5.15165,11.50773 11.51054,11.50773 6.35509,0 11.506593,-5.15178 11.506593,-11.50773 0,-6.35899 -5.151503,-11.51059 -11.506593,-11.51059" />
    <path
       d="m -25.56016,83.442676 c 5.50466,3.179491 12.53941,1.296397 15.71505,-4.208339 3.17944,-5.504548 1.2962,-12.539417 -4.20826,-15.718918 -5.50446,-3.175693 -12.53921,-1.2888 -15.71865,4.215748 -3.17564,5.500937 -1.28878,12.535806 4.21186,15.711509 z m -23.55193,74.417064 c -5.05889,0 -9.85762,-1.12544 -14.15868,-3.12757 l -7.99682,14.32988 c 6.67818,3.30939 14.19958,5.17765 22.1555,5.17765 4.62797,0 9.10362,-0.64241 13.35638,-1.81995 0.75021,-4.62424 3.49513,-8.88088 7.87055,-11.41037 4.37162,-2.52207 9.42309,-2.77081 13.79832,-1.11802 C -5.57732,151.523 -0.0394,140.1425 0.76655,127.46538 l -16.40213,-0.24132 c -1.50804,17.17488 -15.91567,30.63568 -33.47651,30.63568 z m 0,-67.233487 c 17.56084,0 31.96847,13.464237 33.48012,30.635507 L 0.76655,121.02043 C -0.0394,108.34352 -5.57732,96.962818 -14.08684,88.594451 c -4.37523,1.652792 -9.43032,1.40024 -13.79832,-1.118028 -4.37542,-2.525688 -7.12034,-6.786115 -7.87055,-11.410358 -4.25276,-1.173748 -8.72841,-1.816342 -13.35638,-1.816342 -7.95592,0 -15.47732,1.86844 -22.1555,5.174026 l 7.99682,14.329897 c 4.30106,-2.001945 9.09979,-3.127393 14.15868,-3.127393 z m -33.613981,33.618177 c 0,-11.37328 5.649371,-21.42049 14.292381,-27.504504 l -8.41272,-14.092175 c -10.069283,6.730405 -17.561014,17.015326 -20.67352,29.060869 3.63243,2.96403 5.957633,7.47684 5.957633,12.53581 0,5.05593 -2.325203,9.56873 -5.957633,12.53276 3.108893,12.04936 10.600433,22.33428 20.67352,29.06448 l 8.41272,-14.09579 c -8.64301,-6.08021 -14.292381,-16.1276 -14.292381,-27.50145 z m 57.169731,40.7951 c -5.50446,3.1793 -7.39132,10.21417 -4.21207,15.71511 3.17584,5.50474 10.21059,7.39145 15.71504,4.21213 5.50446,-3.17588 7.39132,-10.21075 4.21206,-15.7153 -3.17583,-5.50094 -10.21419,-7.38783 -15.71503,-4.21194 z m -82.16657,-52.30569 c -6.35889,0 -11.51054,5.1516 -11.51054,11.51059 0,6.35595 5.15165,11.50773 11.51054,11.50773 6.35509,0 11.506593,-5.15178 11.506593,-11.50773 0,-6.35899 -5.151503,-11.51059 -11.506593,-11.51059"
       style="opacity:0.1;fill:none;stroke:#000000;stroke-width:12;stroke-linejoin:round;stroke-miterlimit:4;stroke-opacity:1;stroke-dasharray:none"
       id="path6784"
       inkscape:connector-curvature="0" />
    <path
       inkscape:connector-curvature="0"
       id="path6782"
       style="opacity:0.15;fill:none;stroke:#000000;stroke-width:6;stroke-linejoin:round;stroke-miterlimit:4;stroke-opacity:1;stroke-dasharray:none"
       d="m -25.56016,83.442676 c 5.50466,3.179491 12.53941,1.296397 15.71505,-4.208339 3.17944,-5.504548 1.2962,-12.539417 -4.20826,-15.718918 -5.50446,-3.175693 -12.53921,-1.2888 -15.71865,4.215748 -3.17564,5.500937 -1.28878,12.535806 4.21186,15.711509 z m -23.55193,74.417064 c -5.05889,0 -9.85762,-1.12544 -14.15868,-3.12757 l -7.99682,14.32988 c 6.67818,3.30939 14.19958,5.17765 22.1555,5.17765 4.62797,0 9.10362,-0.64241 13.35638,-1.81995 0.75021,-4.62424 3.49513,-8.88088 7.87055,-11.41037 4.37162,-2.52207 9.42309,-2.77081 13.79832,-1.11802 C -5.57732,151.523 -0.0394,140.1425 0.76655,127.46538 l -16.40213,-0.24132 c -1.50804,17.17488 -15.91567,30.63568 -33.47651,30.63568 z m 0,-67.233487 c 17.56084,0 31.96847,13.464237 33.48012,30.635507 L 0.76655,121.02043 C -0.0394,108.34352 -5.57732,96.962818 -14.08684,88.594451 c -4.37523,1.652792 -9.43032,1.40024 -13.79832,-1.118028 -4.37542,-2.525688 -7.12034,-6.786115 -7.87055,-11.410358 -4.25276,-1.173748 -8.72841,-1.816342 -13.35638,-1.816342 -7.95592,0 -15.47732,1.86844 -22.1555,5.174026 l 7.99682,14.329897 c 4.30106,-2.001945 9.09979,-3.127393 14.15868,-3.127393 z m -33.613981,33.618177 c 0,-11.37328 5.649371,-21.42049 14.292381,-27.504504 l -8.41272,-14.092175 c -10.069283,6.730405 -17.561014,17.015326 -20.67352,29.060869 3.63243,2.96403 5.957633,7.47684 5.957633,12.53581 0,5.05593 -2.325203,9.56873 -5.957633,12.53276 3.108893,12.04936 10.600433,22.33428 20.67352,29.06448 l 8.41272,-14.09579 c -8.64301,-6.08021 -14.292381,-16.1276 -14.292381,-27.50145 z m 57.169731,40.7951 c -5.50446,3.1793 -7.39132,10.21417 -4.21207,15.71511 3.17584,5.50474 10.21059,7.39145 15.71504,4.21213 5.50446,-3.17588 7.39132,-10.21075 4.21206,-15.7153 -3.17583,-5.50094 -10.21419,-7.38783 -15.71503,-4.21194 z m -82.16657,-52.30569 c -6.35889,0 -11.51054,5.1516 -11.51054,11.51059 0,6.35595 5.15165,11.50773 11.51054,11.50773 6.35509,0 11.506593,-5.15178 11.506593,-11.50773 0,-6.35899 -5.151503,-11.51059 -11.506593,-11.51059" />
    <path
       inkscape:connector-curvature="0"
       id="path6780"
       style="opacity:0.3;fill:#000000;fill-opacity:1;fill-rule:nonzero;stroke:none"
       d="m -25.56016,85.442676 c 5.50466,3.179491 12.53941,1.296397 15.71505,-4.208339 3.17944,-5.504548 1.2962,-12.539417 -4.20826,-15.718918 -5.50446,-3.175693 -12.53921,-1.2888 -15.71865,4.215748 -3.17564,5.500937 -1.28878,12.535806 4.21186,15.711509 z m -23.55193,74.417064 c -5.05889,0 -9.85762,-1.12544 -14.15868,-3.12757 l -7.99682,14.32988 c 6.67818,3.30939 14.19958,5.17765 22.1555,5.17765 4.62797,0 9.10362,-0.64241 13.35638,-1.81995 0.75021,-4.62424 3.49513,-8.88088 7.87055,-11.41037 4.37162,-2.52207 9.42309,-2.77081 13.79832,-1.11802 C -5.57732,153.523 -0.0394,142.1425 0.76655,129.46538 l -16.40213,-0.24132 c -1.50804,17.17488 -15.91567,30.63568 -33.47651,30.63568 z m 0,-67.233487 c 17.56084,0 31.96847,13.464237 33.48012,30.635507 L 0.76655,123.02043 C -0.0394,110.34352 -5.57732,98.96282 -14.08684,90.594451 c -4.37523,1.652792 -9.43032,1.40024 -13.79832,-1.118028 -4.37542,-2.525688 -7.12034,-6.786115 -7.87055,-11.410358 -4.25276,-1.173748 -8.72841,-1.816342 -13.35638,-1.816342 -7.95592,0 -15.47732,1.86844 -22.1555,5.174026 l 7.99682,14.329897 c 4.30106,-2.001945 9.09979,-3.127393 14.15868,-3.127393 z m -33.613981,33.618177 c 0,-11.37328 5.649371,-21.42049 14.292381,-27.5045 l -8.41272,-14.092179 c -10.069283,6.730405 -17.561014,17.015329 -20.67352,29.060869 3.63243,2.96403 5.957633,7.47684 5.957633,12.53581 0,5.05593 -2.325203,9.56873 -5.957633,12.53276 3.108893,12.04936 10.600433,22.33428 20.67352,29.06448 l 8.41272,-14.09579 c -8.64301,-6.08021 -14.292381,-16.1276 -14.292381,-27.50145 z m 57.169731,40.7951 c -5.50446,3.1793 -7.39132,10.21417 -4.21207,15.71511 3.17584,5.50474 10.21059,7.39145 15.71504,4.21213 5.50446,-3.17588 7.39132,-10.21075 4.21206,-15.7153 -3.17583,-5.50094 -10.21419,-7.38783 -15.71503,-4.21194 z m -82.16657,-52.30569 c -6.35889,0 -11.51054,5.1516 -11.51054,11.51059 0,6.35595 5.15165,11.50773 11.51054,11.50773 6.35509,0 11.506593,-5.15178 11.506593,-11.50773 0,-6.35899 -5.151503,-11.51059 -11.506593,-11.51059" />
    <path
       d="m -25.56016,83.442676 c 5.50466,3.179491 12.53941,1.296397 15.71505,-4.208339 3.17944,-5.504548 1.2962,-12.539417 -4.20826,-15.718918 -5.50446,-3.175693 -12.53921,-1.2888 -15.71865,4.215748 -3.17564,5.500937 -1.28878,12.535806 4.21186,15.711509 z m -23.55193,74.417064 c -5.05889,0 -9.85762,-1.12544 -14.15868,-3.12757 l -7.99682,14.32988 c 6.67818,3.30939 14.19958,5.17765 22.1555,5.17765 4.62797,0 9.10362,-0.64241 13.35638,-1.81995 0.75021,-4.62424 3.49513,-8.88088 7.87055,-11.41037 4.37162,-2.52207 9.42309,-2.77081 13.79832,-1.11802 C -5.57732,151.523 -0.0394,140.1425 0.76655,127.46538 l -16.40213,-0.24132 c -1.50804,17.17488 -15.91567,30.63568 -33.47651,30.63568 z m 0,-67.233487 c 17.56084,0 31.96847,13.464237 33.48012,30.635507 L 0.76655,121.02043 C -0.0394,108.34352 -5.57732,96.962818 -14.08684,88.594451 c -4.37523,1.652792 -9.43032,1.40024 -13.79832,-1.118028 -4.37542,-2.525688 -7.12034,-6.786115 -7.87055,-11.410358 -4.25276,-1.173748 -8.72841,-1.816342 -13.35638,-1.816342 -7.95592,0 -15.47732,1.86844 -22.1555,5.174026 l 7.99682,14.329897 c 4.30106,-2.001945 9.09979,-3.127393 14.15868,-3.127393 z m -33.613981,33.618177 c 0,-11.37328 5.649371,-21.42049 14.292381,-27.504504 l -8.41272,-14.092175 c -10.069283,6.730405 -17.561014,17.015326 -20.67352,29.060869 3.63243,2.96403 5.957633,7.47684 5.957633,12.53581 0,5.05593 -2.325203,9.56873 -5.957633,12.53276 3.108893,12.04936 10.600433,22.33428 20.67352,29.06448 l 8.41272,-14.09579 c -8.64301,-6.08021 -14.292381,-16.1276 -14.292381,-27.50145 z m 57.169731,40.7951 c -5.50446,3.1793 -7.39132,10.21417 -4.21207,15.71511 3.17584,5.50474 10.21059,7.39145 15.71504,4.21213 5.50446,-3.17588 7.39132,-10.21075 4.21206,-15.7153 -3.17583,-5.50094 -10.21419,-7.38783 -15.71503,-4.21194 z m -82.16657,-52.30569 c -6.35889,0 -11.51054,5.1516 -11.51054,11.51059 0,6.35595 5.15165,11.50773 11.51054,11.50773 6.35509,0 11.506593,-5.15178 11.506593,-11.50773 0,-6.35899 -5.151503,-11.51059 -11.506593,-11.51059"
       style="fill:url(#linearGradient6797);fill-opacity:1;fill-rule:nonzero;stroke:none"
       id="path26"
       inkscape:connector-curvature="0" />
    <path
       inkscape:connector-curvature="0"
       id="path6762"
       d="m -19.5,61.96875 c -4.08028,-0.10497 -8.09538,1.965623 -10.28125,5.75 -1.41213,2.446135 -1.80632,5.202694 -1.34375,7.78125 0.22534,-1.29368 0.64908,-2.57792 1.34375,-3.78125 3.17944,-5.504548 10.21429,-7.394443 15.71875,-4.21875 3.06601,1.771 4.99259,4.767427 5.5625,8 0.83071,-4.636853 -1.24702,-9.50728 -5.5625,-12 -1.72014,-0.992404 -3.58283,-1.483536 -5.4375,-1.53125 z M -49.125,74.25 c -7.95592,0 -15.47807,1.881914 -22.15625,5.1875 L -69.5,82.625 c 6.23019,-2.788728 13.10845,-4.375 20.375,-4.375 4.62797,0 9.12224,0.638752 13.375,1.8125 0.75021,4.624243 3.49958,8.880562 7.875,11.40625 4.368,2.518268 9.40602,2.777792 13.78125,1.125 7.60397,7.47784 12.83519,17.3735 14.4375,28.4375 l 0.4375,0 c -0.80595,-12.67691 -6.36548,-24.069133 -14.875,-32.4375 -4.37523,1.652792 -9.41325,1.393268 -13.78125,-1.125 -4.37542,-2.525688 -7.12479,-6.782007 -7.875,-11.40625 -4.25276,-1.173748 -8.74703,-1.8125 -13.375,-1.8125 z m -27.71875,8.40625 c -10.06928,6.730405 -17.57499,17.016957 -20.6875,29.0625 0.32356,0.26402 0.63541,0.55586 0.9375,0.84375 3.52977,-10.68641 10.56936,-19.769823 19.75,-25.90625 l 6.75,11.3125 c 0.53324,-0.425941 1.09724,-0.825253 1.65625,-1.21875 l -8.40625,-14.09375 z m -30.875,30.0625 c -6.35889,0 -11.5,5.17226 -11.5,11.53125 0,0.68649 0.041,1.34658 0.15625,2 0.94819,-5.40263 5.66873,-9.53125 11.34375,-9.53125 5.67045,0 10.36301,4.13028 11.3125,9.53125 0.11559,-0.65444 0.1875,-1.31237 0.1875,-2 0,-6.35899 -5.14491,-11.53125 -11.5,-11.53125 z M -91.6875,126.25 c -0.52297,4.23837 -2.69709,7.96361 -5.84375,10.53125 0.27416,1.06257 0.62767,2.0911 0.96875,3.125 3.07089,-2.94225 5,-7.06643 5,-11.65625 0,-0.67655 -0.0443,-1.34538 -0.125,-2 z m 9.03125,0.125 c -0.0339,0.61877 -0.0625,1.24772 -0.0625,1.875 0,10.63123 4.92229,20.09308 12.625,26.25 l 1.65625,-2.75 c -8.10282,-5.7002 -13.56644,-14.87713 -14.21875,-25.375 z m 67.03125,0.84375 c -1.50804,17.17488 -15.93916,30.65625 -33.5,30.65625 -5.05889,0 -9.85519,-1.15412 -14.15625,-3.15625 l -8,14.34375 c 0.57866,0.28676 1.1902,0.54766 1.78125,0.8125 l 6.21875,-11.15625 c 4.30106,2.00213 9.09736,3.15625 14.15625,3.15625 17.56084,0 31.99196,-13.48137 33.5,-30.65625 l 15.96875,0.25 c 0.19149,-1.32055 0.35154,-2.64787 0.4375,-4 l -16.40625,-0.25 z m -4.5,36.28125 c -1.85451,0.0479 -3.71849,0.53878 -5.4375,1.53125 -4.29558,2.48107 -6.36154,7.32173 -5.5625,11.9375 0.57825,-3.21921 2.50685,-6.1726 5.5625,-7.9375 5.50084,-3.17589 12.54292,-1.28219 15.71875,4.21875 0.68472,1.18552 1.14579,2.4451 1.375,3.71875 0.44437,-2.56066 0.0271,-5.29109 -1.375,-7.71875 -2.18338,-3.7819 -6.20132,-5.85528 -10.28125,-5.75 z"
       style="opacity:0.7;fill:#ffffff;fill-opacity:1;fill-rule:nonzero;stroke:none" />
    <path
       inkscape:connector-curvature="0"
       id="path6771"
       d="m -31.125,71.5 c -0.80478,4.620284 1.26512,9.456482 5.5625,11.9375 5.50466,3.179491 12.54311,1.285986 15.71875,-4.21875 1.40847,-2.438485 1.797,-5.147838 1.34375,-7.71875 -0.22887,1.277521 -0.65698,2.529753 -1.34375,3.71875 -3.17564,5.504736 -10.21409,7.398241 -15.71875,4.21875 -3.05464,-1.763544 -4.98483,-4.717327 -5.5625,-7.9375 z M -69.5,78.625 c -0.59105,0.264565 -1.20259,0.526074 -1.78125,0.8125 l 8,14.3125 c 4.30106,-2.001945 9.09736,-3.125 14.15625,-3.125 17.56084,0 31.98835,13.45373 33.5,30.625 l 16.40625,-0.21875 c -0.0858,-1.34902 -0.24668,-2.6824 -0.4375,-4 L -15.625,117.25 c -1.51165,-17.17127 -15.93916,-30.625 -33.5,-30.625 -5.05889,0 -9.85519,1.123055 -14.15625,3.125 L -69.5,78.625 z m -0.59375,15.34375 c -7.71142,6.1597 -12.625,15.64356 -12.625,26.28125 0,0.62731 0.0286,1.25621 0.0625,1.875 0.65231,-10.49739 6.11593,-19.67124 14.21875,-25.375 l -1.65625,-2.78125 z m -26.5,14.59375 c -0.34167,1.0344 -0.66281,2.0932 -0.9375,3.15625 3.14666,2.56764 5.32078,6.29091 5.84375,10.53125 0.0807,-0.65431 0.125,-1.32386 0.125,-2 0,-4.60835 -1.94187,-8.7434 -5.03125,-11.6875 z M -119.0625,122.25 c -0.11426,0.65104 -0.15625,1.31612 -0.15625,2 0,6.35595 5.14111,11.5 11.5,11.5 6.35509,0 11.5,-5.14405 11.5,-11.5 0,-0.68506 -0.0729,-1.3479 -0.1875,-2 -0.95285,5.39475 -5.64495,9.5 -11.3125,9.5 -5.67208,0 -10.39216,-4.10364 -11.34375,-9.5 z m 119.40625,5.21875 c -1.60385,11.06046 -6.8356,20.9617 -14.4375,28.4375 -4.37523,-1.65279 -9.40963,-1.42832 -13.78125,1.09375 -4.37542,2.52949 -7.12479,6.78201 -7.875,11.40625 -4.25276,1.17754 -8.74703,1.84375 -13.375,1.84375 -7.26655,0 -14.14481,-1.5834 -20.375,-4.375 l -1.78125,3.1875 c 6.67818,3.30939 14.20033,5.1875 22.15625,5.1875 4.62797,0 9.12224,-0.66621 13.375,-1.84375 0.75021,-4.62424 3.49958,-8.87676 7.875,-11.40625 4.37162,-2.52207 9.40602,-2.74654 13.78125,-1.09375 8.50952,-8.36836 14.06905,-19.76038 14.875,-32.4375 l -0.4375,0 z m -96.90625,8.4375 c -0.31186,0.2988 -0.63387,0.60174 -0.96875,0.875 3.10889,12.04936 10.61441,22.3323 20.6875,29.0625 L -68.4375,151.75 c -0.56432,-0.39699 -1.1182,-0.81992 -1.65625,-1.25 l -6.75,11.34375 c -9.1848,-6.1367 -16.19199,-15.24715 -19.71875,-25.9375 z m 65.4375,37.0625 c -0.46341,2.57988 -0.0706,5.33401 1.34375,7.78125 3.17584,5.50474 10.2143,7.39807 15.71875,4.21875 4.31896,-2.49189 6.42879,-7.35991 5.59375,-12 -0.56321,3.24547 -2.51691,6.22477 -5.59375,8 -5.50445,3.17932 -12.54291,1.28599 -15.71875,-4.21875 -0.69822,-1.2081 -1.11888,-2.48227 -1.34375,-3.78125 z"
       style="opacity:0.7;fill:#000000;fill-opacity:1;fill-rule:nonzero;stroke:none" />
  </g>
</svg>
