<?xml version="1.0" encoding="UTF-8" standalone="no"?>
<!-- Created with Inkscape (http://www.inkscape.org/) -->

<svg
   xmlns:dc="http://purl.org/dc/elements/1.1/"
   xmlns:cc="http://creativecommons.org/ns#"
   xmlns:rdf="http://www.w3.org/1999/02/22-rdf-syntax-ns#"
   xmlns:svg="http://www.w3.org/2000/svg"
   xmlns="http://www.w3.org/2000/svg"
   xmlns:xlink="http://www.w3.org/1999/xlink"
   xmlns:sodipodi="http://sodipodi.sourceforge.net/DTD/sodipodi-0.dtd"
   xmlns:inkscape="http://www.inkscape.org/namespaces/inkscape"
   version="1.1"
   width="256"
   height="256"
   id="svg2"
   inkscape:version="0.48.1 r9760"
   sodipodi:docname="package-broken.svg">
  <metadata
     id="metadata22">
    <rdf:RDF>
      <cc:Work
         rdf:about="">
        <dc:format>image/svg+xml</dc:format>
        <dc:type
           rdf:resource="http://purl.org/dc/dcmitype/StillImage" />
        <dc:title />
      </cc:Work>
    </rdf:RDF>
  </metadata>
  <sodipodi:namedview
     pagecolor="#ffffff"
     bordercolor="#666666"
     borderopacity="1"
     objecttolerance="10"
     gridtolerance="10"
     guidetolerance="10"
     inkscape:pageopacity="0"
     inkscape:pageshadow="2"
     inkscape:window-width="1024"
     inkscape:window-height="576"
     id="namedview20"
     showgrid="false"
     inkscape:zoom="1.71875"
     inkscape:cx="128"
     inkscape:cy="128"
     inkscape:window-x="0"
     inkscape:window-y="24"
     inkscape:window-maximized="1"
     inkscape:current-layer="svg2" />
  <defs
     id="defs4">
    <clipPath
       id="clipPath3871-0">
      <path
         style="fill:#ffffff;fill-opacity:1;stroke:none"
         id="path3873-2"
         inkscape:connector-curvature="0"
         d="M 0,95.999997 0,156 l 96.000001,0 0,-60.000003 -96.000001,0 z M 68,116 c 9.941125,0 18,8.05888 18,18 0,9.94112 -8.058875,18 -18,18 -9.941125,0 -18,-8.05888 -18,-18 0,-9.94112 8.058875,-18 18,-18 z" />
    </clipPath>
    <linearGradient
       id="linearGradient3737-1">
      <stop
         offset="0"
         style="stop-color:#ffffff;stop-opacity:1"
         id="stop3739-5" />
      <stop
         offset="1"
         style="stop-color:#ffffff;stop-opacity:0"
         id="stop3741-9" />
    </linearGradient>
    <linearGradient
       id="linearGradient3778">
      <stop
         offset="0"
         style="stop-color:#c1c1c1;stop-opacity:1;"
         id="stop3780" />
      <stop
         offset="1"
         style="stop-color:#f1f1f1;stop-opacity:1;"
         id="stop3782" />
    </linearGradient>
    <linearGradient
       id="linearGradient6057">
      <stop
         offset="0"
         style="stop-color:#ff0000;stop-opacity:1;"
         id="stop6059" />
      <stop
         offset="1"
         style="stop-color:#aa0000;stop-opacity:1;"
         id="stop6061" />
    </linearGradient>
    <linearGradient
       inkscape:collect="always"
       xlink:href="#linearGradient3737-1"
       id="linearGradient3051"
       gradientUnits="userSpaceOnUse"
       gradientTransform="translate(-2,0)"
       x1="64.321426"
       y1="55.310268"
       x2="64.321426"
       y2="84.889679" />
    <filter
       id="filter3174-1"
       color-interpolation-filters="sRGB">
      <feGaussianBlur
         stdDeviation="1.71"
         id="feGaussianBlur3176-5" />
    </filter>
    <linearGradient
       gradientTransform="scale(1.0058652,0.994169)"
       gradientUnits="userSpaceOnUse"
       id="ButtonShadow-1"
       y2="7.0165396"
       x2="45.447727"
       y1="92.539597"
       x1="45.447727">
      <stop
         offset="0"
         style="stop-color:#000000;stop-opacity:1"
         id="stop3750-3" />
      <stop
         offset="1"
         style="stop-color:#000000;stop-opacity:0.58823532"
         id="stop3752-2" />
    </linearGradient>
    <linearGradient
       inkscape:collect="always"
       xlink:href="#linearGradient6057"
       id="linearGradient3634"
       gradientUnits="userSpaceOnUse"
       gradientTransform="matrix(0,-4.5818183,4.5818183,0,-203.50535,447.99462)"
       x1="90.666664"
       y1="72.531746"
       x2="51.603176"
       y2="72.912697" />
    <linearGradient
       inkscape:collect="always"
       xlink:href="#linearGradient3778"
       id="linearGradient4412"
       gradientUnits="userSpaceOnUse"
       gradientTransform="matrix(1.7280795,0,0,1.7280795,47.630564,39.101911)"
       x1="49.202541"
       y1="89.138794"
       x2="49.311405"
       y2="74.380035" />
    <linearGradient
       inkscape:collect="always"
       xlink:href="#linearGradient3778"
       id="linearGradient4415"
       gradientUnits="userSpaceOnUse"
       gradientTransform="matrix(1.7280795,0,0,1.7280795,47.630564,39.101911)"
       x1="50.021961"
       y1="63.88266"
       x2="49.838722"
       y2="6.277401" />
  </defs>
  <path
     inkscape:connector-curvature="0"
     style="opacity:0.05;fill:#000000;fill-opacity:1;stroke:none;display:inline"
     id="path3950"
     d="m 129.98557,27.358266 c -55.30052,0 -100.000005,44.69945 -100.000005,100.000004 0,55.30055 44.699485,100 100.000005,100 55.30051,0 100,-44.69945 100,-100 0,-55.300554 -44.69949,-100.000004 -100,-100.000004 z" />
  <path
     inkscape:connector-curvature="0"
     style="opacity:0.15;fill:#000000;fill-opacity:1;stroke:none;display:inline"
     id="path3946"
     d="m 129.98557,32.358266 c -52.577645,0 -95.000005,42.42235 -95.000005,95.000004 0,52.57765 42.42236,95 95.000005,95 52.57764,0 95,-42.42235 95,-95 0,-52.577654 -42.42236,-95.000004 -95,-95.000004 z" />
  <rect
     style="opacity:0.31000001;fill:#000000;fill-opacity:1;stroke:none;display:inline"
     id="rect3859"
     clip-path="url(#clipPath3871-0)"
     transform="matrix(5,0,0,5,-210.01443,-552.64173)"
     y="118"
     x="50"
     ry="18"
     rx="18"
     height="36"
     width="36" />
  <path
     inkscape:connector-curvature="0"
     style="fill:url(#linearGradient3634);fill-opacity:1;stroke:none"
     id="path3836"
     d="m 129.98557,32.358253 a 90,90 0 1 1 0,179.999997 90,90 0 1 1 0,-179.999997 z" />
  <g
     style="display:inline"
     id="g4106"
     transform="matrix(5,0,0,5,-210.01443,-247.64173)">
    <path
       style="opacity:0.3;fill:url(#linearGradient3051);fill-opacity:1;stroke:none"
       id="path3846"
       inkscape:connector-curvature="0"
       d="m 68,56 c -9.941125,0 -18,8.058875 -18,18 0,3.6617 1.09067,7.063961 2.96875,9.90625 C 51.722125,81.541769 51,78.858787 51,76 c 0,-9.388841 7.611159,-17 17,-17 9.388841,0 17,7.611159 17,17 0,2.858787 -0.722125,5.541769 -1.96875,7.90625 C 84.90933,81.063961 86,77.6617 86,74 86,64.058875 77.941125,56 68,56 z" />
    <path
       style="opacity:0.3;fill:#ffffff;fill-opacity:1;stroke:none;display:inline"
       id="path4097"
       inkscape:connector-curvature="0"
       d="m 68,56 c -9.94112,0 -18,8.05887 -18,18 0,0.168593 0.02664,0.33252 0.03125,0.5 C 50.298212,64.79197 58.227473,57 68,57 c 9.73052,0 17.63723,7.725255 17.96875,17.375 l 0,-1 C 85.63723,63.725255 77.73052,56 68,56 z" />
  </g>
  <g
     id="layer2"
     style="display:none"
     transform="matrix(0.71689665,0,0,0.71689665,39.100204,144.1996)">
    <rect
       width="86"
       height="85"
       rx="6"
       ry="6"
       x="5"
       y="7"
       id="rect3745"
       style="opacity:0.9;fill:url(#ButtonShadow-1);fill-opacity:1;fill-rule:nonzero;stroke:none;filter:url(#filter3174-1)" />
  </g>
  <g
     id="g4425">
    <path
       style="font-size:62.4582634px;font-style:normal;font-variant:normal;font-weight:normal;font-stretch:normal;text-align:start;line-height:125%;writing-mode:lr-tb;text-anchor:start;opacity:0.05;fill:none;stroke:#000000;stroke-width:12.90413952;stroke-miterlimit:4;stroke-opacity:1;stroke-dasharray:none;font-family:Georgia"
       d="m 119.31668,181.42149 c -0.31157,8.56755 9.11551,15.28367 17.16441,12.56742 7.79595,-1.98964 11.90219,-11.78822 7.90676,-18.75332 -3.5766,-7.19996 -14.06481,-9.57221 -20.09816,-4.06178 -3.04976,2.50557 -5.07118,6.24606 -4.97301,10.24768 l 0,0 z"
       id="path3836-9"
       inkscape:connector-curvature="0" />
    <path
       inkscape:connector-curvature="0"
       id="path3834"
       d="m 119.31668,181.42149 c -0.31157,8.56755 9.11551,15.28367 17.16441,12.56742 7.79595,-1.98964 11.90219,-11.78822 7.90676,-18.75332 -3.5766,-7.19996 -14.06481,-9.57221 -20.09816,-4.06178 -3.04976,2.50557 -5.07118,6.24606 -4.97301,10.24768 l 0,0 z"
       style="font-size:62.4582634px;font-style:normal;font-variant:normal;font-weight:normal;font-stretch:normal;text-align:start;line-height:125%;writing-mode:lr-tb;text-anchor:start;opacity:0.1;fill:none;stroke:#000000;stroke-width:8.60275936;stroke-miterlimit:4;stroke-opacity:1;stroke-dasharray:none;font-family:Georgia" />
    <path
       style="font-size:62.4582634px;font-style:normal;font-variant:normal;font-weight:normal;font-stretch:normal;text-align:start;line-height:125%;writing-mode:lr-tb;text-anchor:start;opacity:0.15;fill:none;stroke:#000000;stroke-width:4.30137968;stroke-miterlimit:4;stroke-opacity:1;stroke-dasharray:none;font-family:Georgia"
       d="m 119.31668,181.42149 c -0.31157,8.56755 9.11551,15.28367 17.16441,12.56742 7.79595,-1.98964 11.90219,-11.78822 7.90676,-18.75332 -3.5766,-7.19996 -14.06481,-9.57221 -20.09816,-4.06178 -3.04976,2.50557 -5.07118,6.24606 -4.97301,10.24768 l 0,0 z"
       id="path3832"
       inkscape:connector-curvature="0" />
    <path
       style="font-size:62.4582634px;font-style:normal;font-variant:normal;font-weight:normal;font-stretch:normal;text-align:start;line-height:125%;writing-mode:lr-tb;text-anchor:start;opacity:0.05;fill:none;stroke:#000000;stroke-width:12.90413952;stroke-linejoin:round;stroke-miterlimit:4;stroke-opacity:1;stroke-dasharray:none;font-family:Georgia"
       d="m 120.18998,64.398544 c 2.94661,28.78285 6.32178,57.367596 8.8301,86.263176 2.52289,0 5.48193,0 8.00481,0 2.08057,-27.74892 5.43642,-55.330168 7.85722,-83.044697 1.234,-6.56241 -2.13534,-14.354041 -9.06509,-15.948413 -6.84763,-2.002041 -14.49815,2.95565 -15.40868,10.037314 -0.15101,0.888985 -0.21836,1.791234 -0.21836,2.69262 l 0,0 z"
       id="path3830"
       inkscape:connector-curvature="0" />
    <path
       inkscape:connector-curvature="0"
       id="path3826"
       d="m 120.18998,64.398544 c 2.94661,28.78285 6.32178,57.367596 8.8301,86.263176 2.52289,0 5.48193,0 8.00481,0 2.08057,-27.74892 5.43642,-55.330168 7.85722,-83.044697 1.234,-6.56241 -2.13534,-14.354041 -9.06509,-15.948413 -6.84763,-2.002041 -14.49815,2.95565 -15.40868,10.037314 -0.15101,0.888985 -0.21836,1.791234 -0.21836,2.69262 l 0,0 z"
       style="font-size:62.4582634px;font-style:normal;font-variant:normal;font-weight:normal;font-stretch:normal;text-align:start;line-height:125%;writing-mode:lr-tb;text-anchor:start;opacity:0.1;fill:none;stroke:#000000;stroke-width:8.60275936;stroke-linejoin:round;stroke-miterlimit:4;stroke-opacity:1;stroke-dasharray:none;font-family:Georgia" />
    <path
       style="font-size:62.4582634px;font-style:normal;font-variant:normal;font-weight:normal;font-stretch:normal;text-align:start;line-height:125%;writing-mode:lr-tb;text-anchor:start;opacity:0.15;fill:none;stroke:#000000;stroke-width:4.30137968;stroke-linejoin:round;stroke-miterlimit:4;stroke-opacity:1;stroke-dasharray:none;font-family:Georgia"
       d="m 120.18998,64.398544 c 2.94661,28.78285 6.32178,57.367596 8.8301,86.263176 2.52289,0 5.48193,0 8.00481,0 2.08057,-27.74892 5.43642,-55.330168 7.85722,-83.044697 1.234,-6.56241 -2.13534,-14.354041 -9.06509,-15.948413 -6.84763,-2.002041 -14.49815,2.95565 -15.40868,10.037314 -0.15101,0.888985 -0.21836,1.791234 -0.21836,2.69262 l 0,0 z"
       id="path3824"
       inkscape:connector-curvature="0" />
    <path
       inkscape:connector-curvature="0"
       id="path3775"
       d="m 120.18998,64.398544 c 2.94661,28.78285 6.32178,57.367596 8.8301,86.263176 2.52289,0 5.48193,0 8.00481,0 2.08057,-27.74892 5.43642,-55.330168 7.85722,-83.044697 1.234,-6.56241 -2.13534,-14.354041 -9.06509,-15.948413 -6.84763,-2.002041 -14.49815,2.95565 -15.40868,10.037314 -0.15101,0.888985 -0.21836,1.791234 -0.21836,2.69262 l 0,0 z"
       style="font-size:62.45826339999999988px;font-style:normal;font-variant:normal;font-weight:normal;font-stretch:normal;text-align:start;line-height:125%;writing-mode:lr-tb;text-anchor:start;fill:url(#linearGradient4415);fill-opacity:1;stroke:none;font-family:Georgia" />
    <path
       inkscape:connector-curvature="0"
       id="path3005"
       d="m 119.31668,181.42149 c -0.31157,8.56755 9.11551,15.28367 17.16441,12.56742 7.79595,-1.98964 11.90219,-11.78822 7.90676,-18.75332 -3.5766,-7.19996 -14.06481,-9.57221 -20.09816,-4.06178 -3.04976,2.50557 -5.07118,6.24606 -4.97301,10.24768 l 0,0 z"
       style="font-size:62.45826339999999988px;font-style:normal;font-variant:normal;font-weight:normal;font-stretch:normal;text-align:start;line-height:125%;writing-mode:lr-tb;text-anchor:start;fill:url(#linearGradient4412);fill-opacity:1;stroke:none;font-family:Georgia" />
    <path
       inkscape:connector-curvature="0"
       id="path3786"
       d="m 132.58353,51.124014 c -5.83401,0.04625 -11.39658,4.509459 -12.16484,10.484613 -0.15101,0.888986 -0.22403,1.786977 -0.22403,2.688363 0.0352,0.34421 0.0767,0.686385 0.11201,1.030539 0.0316,-0.283658 0.0642,-0.569868 0.11202,-0.851315 0.91053,-7.081664 8.54323,-12.038595 15.39087,-10.036553 5.50667,1.266956 8.76559,6.439308 9.25245,11.806392 0.61105,-6.263257 -2.76352,-13.181029 -9.25245,-14.673979 -1.06994,-0.312819 -2.14566,-0.456625 -3.22603,-0.44806 z"
       style="font-size:62.4582634px;font-style:normal;font-variant:normal;font-weight:normal;font-stretch:normal;text-align:start;line-height:125%;writing-mode:lr-tb;text-anchor:start;opacity:0.7;fill:#ffffff;fill-opacity:1;stroke:none;font-family:Georgia" />
    <path
       inkscape:connector-curvature="0"
       id="path3795"
       d="m 132.30333,168.0384 c -2.91604,0.0105 -5.80258,0.9804 -8.06509,3.04681 -3.04976,2.50558 -5.07164,6.23656 -4.97347,10.23818 -0.0181,0.49751 0.0218,0.99507 0.0672,1.4786 0.3396,-3.46547 2.21481,-6.63799 4.90626,-8.84919 6.03336,-5.51043 16.51891,-3.14501 20.09551,4.05495 0.82336,1.43532 1.30474,2.98736 1.4786,4.57021 0.28776,-2.5335 -0.15991,-5.13899 -1.4786,-7.4378 -2.23537,-4.49998 -7.17036,-7.11927 -12.03042,-7.10176 z"
       style="font-size:62.4582634px;font-style:normal;font-variant:normal;font-weight:normal;font-stretch:normal;text-align:start;line-height:125%;writing-mode:lr-tb;text-anchor:start;opacity:0.7;fill:#ffffff;fill-opacity:1;stroke:none;font-family:Georgia" />
    <path
       inkscape:connector-curvature="0"
       id="path3804"
       d="m 120.31034,62.521449 c -0.0705,0.622717 -0.11202,1.255224 -0.11202,1.881854 2.9466,28.78285 6.31847,57.356037 8.82679,86.251627 l 7.99788,0 c 2.08057,-27.74893 5.44266,-55.333467 7.86346,-83.047995 0.24922,-1.325361 0.29694,-2.690488 0.17922,-4.054947 -0.0412,0.40285 -0.10484,0.791815 -0.17922,1.18736 -2.4208,27.714528 -5.78289,55.299062 -7.86346,83.047992 l -7.99788,0 c -2.47962,-28.56488 -5.79237,-56.816871 -8.71477,-85.265891 z"
       style="font-size:62.4582634px;font-style:normal;font-variant:normal;font-weight:normal;font-stretch:normal;text-align:start;line-height:125%;writing-mode:lr-tb;text-anchor:start;opacity:0.7;fill:#000000;fill-opacity:1;stroke:none;font-family:Georgia" />
    <path
       inkscape:connector-curvature="0"
       id="path3813"
       d="m 145.86322,179.81344 c -0.56822,5.15954 -4.14861,10.02146 -9.38687,11.35833 -7.5386,2.54405 -16.29301,-3.17912 -17.1159,-10.95507 -0.036,0.41732 -0.0552,0.83021 -0.0448,1.25457 -0.31157,8.56754 9.11181,15.28434 17.16071,12.56809 6.2045,-1.58347 10.08051,-8.11494 9.38687,-14.22592 z"
       style="font-size:62.4582634px;font-style:normal;font-variant:normal;font-weight:normal;font-stretch:normal;text-align:start;line-height:125%;writing-mode:lr-tb;text-anchor:start;opacity:0.7;fill:#000000;fill-opacity:1;stroke:none;font-family:Georgia" />
  </g>
</svg>
