<?xml version="1.0" encoding="UTF-8" standalone="no"?>
<!-- Created with Inkscape (http://www.inkscape.org/) -->

<svg
   xmlns:dc="http://purl.org/dc/elements/1.1/"
   xmlns:cc="http://creativecommons.org/ns#"
   xmlns:rdf="http://www.w3.org/1999/02/22-rdf-syntax-ns#"
   xmlns:svg="http://www.w3.org/2000/svg"
   xmlns="http://www.w3.org/2000/svg"
   xmlns:xlink="http://www.w3.org/1999/xlink"
   xmlns:sodipodi="http://sodipodi.sourceforge.net/DTD/sodipodi-0.dtd"
   xmlns:inkscape="http://www.inkscape.org/namespaces/inkscape"
   version="1.1"
   width="256"
   height="256"
   id="svg2"
   inkscape:version="0.48.1 r9760"
   sodipodi:docname="package-upgrade.svg">
  <metadata
     id="metadata22">
    <rdf:RDF>
      <cc:Work
         rdf:about="">
        <dc:format>image/svg+xml</dc:format>
        <dc:type
           rdf:resource="http://purl.org/dc/dcmitype/StillImage" />
        <dc:title></dc:title>
      </cc:Work>
    </rdf:RDF>
  </metadata>
  <sodipodi:namedview
     pagecolor="#ffffff"
     bordercolor="#666666"
     borderopacity="1"
     objecttolerance="10"
     gridtolerance="10"
     guidetolerance="10"
     inkscape:pageopacity="0"
     inkscape:pageshadow="2"
     inkscape:window-width="1024"
     inkscape:window-height="576"
     id="namedview20"
     showgrid="false"
     inkscape:zoom="1.71875"
     inkscape:cx="128"
     inkscape:cy="128"
     inkscape:window-x="0"
     inkscape:window-y="24"
     inkscape:window-maximized="1"
     inkscape:current-layer="svg2" />
  <defs
     id="defs4">
    <clipPath
       id="clipPath3871-0">
      <path
         style="fill:#ffffff;fill-opacity:1;stroke:none"
         id="path3873-2"
         inkscape:connector-curvature="0"
         d="M 0,95.999997 0,156 l 96.000001,0 0,-60.000003 -96.000001,0 z M 68,116 c 9.941125,0 18,8.05888 18,18 0,9.94112 -8.058875,18 -18,18 -9.941125,0 -18,-8.05888 -18,-18 0,-9.94112 8.058875,-18 18,-18 z" />
    </clipPath>
    <linearGradient
       id="linearGradient3737-1">
      <stop
         offset="0"
         style="stop-color:#ffffff;stop-opacity:1"
         id="stop3739-5" />
      <stop
         offset="1"
         style="stop-color:#ffffff;stop-opacity:0"
         id="stop3741-9" />
    </linearGradient>
    <linearGradient
       id="linearGradient6057">
      <stop
         offset="0"
         style="stop-color:#ff0000;stop-opacity:1;"
         id="stop6059" />
      <stop
         offset="1"
         style="stop-color:#aa0000;stop-opacity:1;"
         id="stop6061" />
    </linearGradient>
    <linearGradient
       inkscape:collect="always"
       xlink:href="#linearGradient6057"
       id="linearGradient3753"
       gradientUnits="userSpaceOnUse"
       x1="10.530878"
       y1="13.692682"
       x2="39.690422"
       y2="13.692682" />
    <linearGradient
       inkscape:collect="always"
       xlink:href="#linearGradient3737-1"
       id="linearGradient3051"
       gradientUnits="userSpaceOnUse"
       gradientTransform="translate(-2,0)"
       x1="64.321426"
       y1="55.310268"
       x2="64.321426"
       y2="84.889679" />
    <filter
       id="filter3174-1"
       color-interpolation-filters="sRGB">
      <feGaussianBlur
         stdDeviation="1.71"
         id="feGaussianBlur3176-5" />
    </filter>
    <linearGradient
       gradientTransform="scale(1.0058652,0.994169)"
       gradientUnits="userSpaceOnUse"
       id="ButtonShadow-1"
       y2="7.0165396"
       x2="45.447727"
       y1="92.539597"
       x1="45.447727">
      <stop
         offset="0"
         style="stop-color:#000000;stop-opacity:1"
         id="stop3750-3" />
      <stop
         offset="1"
         style="stop-color:#000000;stop-opacity:0.58823532"
         id="stop3752-2" />
    </linearGradient>
    <linearGradient
       inkscape:collect="always"
       xlink:href="#linearGradient12071"
       id="linearGradient3634"
       gradientUnits="userSpaceOnUse"
       gradientTransform="matrix(0,-4.5818183,4.5818183,0,-203.50535,447.99462)"
       x1="90.666664"
       y1="72.531746"
       x2="51.603176"
       y2="72.912697" />
    <linearGradient
       id="linearGradient12071">
      <stop
         id="stop12073"
         style="stop-color:#f1f1f1;stop-opacity:1;"
         offset="0" />
      <stop
         id="stop12075"
         style="stop-color:#c1c1c1;stop-opacity:1;"
         offset="1" />
    </linearGradient>
    <linearGradient
       id="linearGradient4066">
      <stop
         id="stop4069"
         style="stop-color:#ffffff;stop-opacity:1"
         offset="0" />
      <stop
         id="stop4072"
         style="stop-color:#ffffff;stop-opacity:0"
         offset="1" />
    </linearGradient>
    <linearGradient
       x1="10.31979"
       y1="21"
       x2="10.31979"
       y2="0.99929649"
       id="ButtonColor-5"
       gradientUnits="userSpaceOnUse">
      <stop
         id="stop3189-0"
         style="stop-color:#00d400;stop-opacity:1;"
         offset="0" />
      <stop
         id="stop3191-2"
         style="stop-color:#00ff00;stop-opacity:1;"
         offset="1" />
    </linearGradient>
    <linearGradient
       inkscape:collect="always"
       xlink:href="#linearGradient4066"
       id="linearGradient6295"
       gradientUnits="userSpaceOnUse"
       gradientTransform="matrix(0,-14.015197,18.212966,0,-105.94188,248.19329)"
       x1="8.8832188"
       y1="16.071617"
       x2="8.8832188"
       y2="11.246404" />
    <linearGradient
       inkscape:collect="always"
       xlink:href="#ButtonColor-5"
       id="linearGradient6298"
       gradientUnits="userSpaceOnUse"
       gradientTransform="matrix(0,-14.015197,-18.212966,0,369.40445,248.19329)"
       x1="5.0639882"
       y1="13.164598"
       x2="12.743963"
       y2="13.16312" />
  </defs>
  <path
     inkscape:connector-curvature="0"
     style="opacity:0.05;fill:#000000;fill-opacity:1;stroke:none;display:inline"
     id="path3950"
     d="m 129.98557,27.358266 c -55.30052,0 -100.000005,44.69945 -100.000005,100.000004 0,55.30055 44.699485,100 100.000005,100 55.30051,0 100,-44.69945 100,-100 0,-55.300554 -44.69949,-100.000004 -100,-100.000004 z" />
  <path
     inkscape:connector-curvature="0"
     style="opacity:0.15;fill:#000000;fill-opacity:1;stroke:none;display:inline"
     id="path3946"
     d="m 129.98557,32.358266 c -52.577645,0 -95.000005,42.42235 -95.000005,95.000004 0,52.57765 42.42236,95 95.000005,95 52.57764,0 95,-42.42235 95,-95 0,-52.577654 -42.42236,-95.000004 -95,-95.000004 z" />
  <rect
     style="opacity:0.31000001;fill:#000000;fill-opacity:1;stroke:none;display:inline"
     id="rect3859"
     clip-path="url(#clipPath3871-0)"
     transform="matrix(5,0,0,5,-210.01443,-552.64173)"
     y="118"
     x="50"
     ry="18"
     rx="18"
     height="36"
     width="36" />
  <path
     inkscape:connector-curvature="0"
     style="fill:url(#linearGradient3634);fill-opacity:1.0;stroke:none"
     id="path3836"
     d="m 129.98557,32.358253 a 90,90 0 1 1 0,179.999997 90,90 0 1 1 0,-179.999997 z" />
  <g
     style="display:inline"
     id="g4106"
     transform="matrix(5,0,0,5,-210.01443,-247.64173)">
    <path
       style="opacity:0.3;fill:url(#linearGradient3051);fill-opacity:1;stroke:none"
       id="path3846"
       inkscape:connector-curvature="0"
       d="m 68,56 c -9.941125,0 -18,8.058875 -18,18 0,3.6617 1.09067,7.063961 2.96875,9.90625 C 51.722125,81.541769 51,78.858787 51,76 c 0,-9.388841 7.611159,-17 17,-17 9.388841,0 17,7.611159 17,17 0,2.858787 -0.722125,5.541769 -1.96875,7.90625 C 84.90933,81.063961 86,77.6617 86,74 86,64.058875 77.941125,56 68,56 z" />
    <path
       style="opacity:0.3;fill:#ffffff;fill-opacity:1;stroke:none;display:inline"
       id="path4097"
       inkscape:connector-curvature="0"
       d="m 68,56 c -9.94112,0 -18,8.05887 -18,18 0,0.168593 0.02664,0.33252 0.03125,0.5 C 50.298212,64.79197 58.227473,57 68,57 c 9.73052,0 17.63723,7.725255 17.96875,17.375 l 0,-1 C 85.63723,63.725255 77.73052,56 68,56 z" />
  </g>
  <g
     id="layer2"
     style="display:none"
     transform="matrix(0.71689665,0,0,0.71689665,39.100204,144.1996)">
    <rect
       width="86"
       height="85"
       rx="6"
       ry="6"
       x="5"
       y="7"
       id="rect3745"
       style="opacity:0.9;fill:url(#ButtonShadow-1);fill-opacity:1;fill-rule:nonzero;stroke:none;filter:url(#filter3174-1)" />
  </g>
  <path
     style="opacity:0.1;fill:#000000;fill-opacity:1;stroke:none;display:inline"
     id="path3937"
     inkscape:connector-curvature="0"
     d="m 189.82139,137.92806 c -0.73048,-4.10363 -4.43456,-6.82487 -6.67003,-10.22308 -16.40395,-20.77828 -32.69996,-41.662431 -49.17131,-62.374501 -3.10653,-2.90266 -8.23415,-1.50192 -10.10085,2.14704 -17.70878,22.57345 -35.522061,45.106781 -53.165681,67.705251 -2.61138,4.03436 0.95128,9.81425 5.73021,9.45599 7.5494,0 15.09879,0 22.64818,0 0.067,11.213 -0.13452,22.46961 0.10172,33.65517 0.47565,3.9064 4.596831,5.93994 8.240611,5.3889 15.89542,-0.067 31.8345,0.1347 47.70245,-0.10152 3.90784,-0.47548 5.94214,-4.59516 5.39088,-8.23758 0,-10.23494 0,-20.46989 0,-30.70481 8.0931,-0.13047 16.27141,0.2642 24.3098,-0.20335 2.96875,-0.53419 5.15725,-3.48283 4.98402,-6.50735 z" />
  <path
     style="opacity:0.15;fill:#000000;fill-opacity:1;stroke:none;display:inline"
     id="path3933"
     d="m 186.76995,137.92806 a 3.2617256,3.2605271 0 0 0 -0.712,-1.62684 L 132.35261,67.974079 a 3.2617256,3.2605271 0 0 0 -5.08573,0 L 73.561529,136.30122 a 3.2617256,3.2605271 0 0 0 2.54287,5.28722 l 26.038961,0 0,35.79041 a 3.2617256,3.2605271 0 0 0 3.25486,3.25366 l 48.82304,0 a 3.2617256,3.2605271 0 0 0 3.25486,-3.25366 l 0,-35.79041 26.03896,0 a 3.2617256,3.2605271 0 0 0 3.25487,-3.66038 z"
     inkscape:connector-curvature="0" />
  <path
     style="opacity:0.3;fill:#000000;fill-opacity:1;stroke:none;display:inline"
     id="path3927"
     inkscape:connector-curvature="0"
     d="m 183.51508,138.33477 -29.29382,0 0,39.04408 -48.82304,0 0,-39.04408 -29.293821,0 53.705341,-68.327131 z" />
  <path
     style="fill:url(#linearGradient6298);fill-opacity:1;stroke:none;display:inline"
     id="path4038"
     inkscape:connector-curvature="0"
     d="m 184.10328,138.33477 -29.29382,0 0,39.04408 -48.82304,0 0,-39.04408 -29.293821,0 53.705341,-68.327131 z" />
  <path
     style="opacity:0.5;fill:url(#linearGradient6295);fill-opacity:1;stroke:none;display:inline"
     id="path3941"
     inkscape:connector-curvature="0"
     d="m 79.359269,138.33477 53.705341,-68.327131 53.70534,68.327131 -29.29383,0 0,39.04408 -48.82303,0 0,-39.04408 -29.293821,0 z m 6.71317,-3.25368 22.580651,0 a 3.250459,3.2492646 0 0 1 3.25488,3.25368 l 0,35.7904 42.31329,0 0,-35.7904 a 3.250459,3.2492646 0 0 1 3.25486,-3.25368 l 22.58066,0 -46.99217,-59.786231 -46.992161,59.786231 z" />
</svg>
