<?xml version="1.0" encoding="UTF-8" standalone="no"?>
<!-- Created with Inkscape (http://www.inkscape.org/) -->

<svg
   xmlns:dc="http://purl.org/dc/elements/1.1/"
   xmlns:cc="http://creativecommons.org/ns#"
   xmlns:rdf="http://www.w3.org/1999/02/22-rdf-syntax-ns#"
   xmlns:svg="http://www.w3.org/2000/svg"
   xmlns="http://www.w3.org/2000/svg"
   xmlns:xlink="http://www.w3.org/1999/xlink"
   xmlns:sodipodi="http://sodipodi.sourceforge.net/DTD/sodipodi-0.dtd"
   xmlns:inkscape="http://www.inkscape.org/namespaces/inkscape"
   version="1.0"
   width="256"
   height="256"
   id="svg2408"
   inkscape:version="0.48.3.1 r9886"
   sodipodi:docname="podcast-new.svg">
  <sodipodi:namedview
     pagecolor="#ffffff"
     bordercolor="#666666"
     borderopacity="1"
     objecttolerance="10"
     gridtolerance="10"
     guidetolerance="10"
     inkscape:pageopacity="0"
     inkscape:pageshadow="2"
     inkscape:window-width="1024"
     inkscape:window-height="572"
     id="namedview5229"
     showgrid="false"
     inkscape:zoom="1.6367188"
     inkscape:cx="128"
     inkscape:cy="128"
     inkscape:window-x="0"
     inkscape:window-y="28"
     inkscape:window-maximized="1"
     inkscape:current-layer="svg2408" />
  <defs
     id="defs2410">
    <linearGradient
       id="linearGradient3637">
      <stop
         id="stop3639"
         style="stop-color:#5a5a5a;stop-opacity:1;"
         offset="0" />
      <stop
         id="stop3641"
         style="stop-color:#000000;stop-opacity:1;"
         offset="1" />
    </linearGradient>
    <linearGradient
       x1="45.447727"
       y1="92.539597"
       x2="45.447727"
       y2="7.0165396"
       id="ButtonShadow"
       gradientUnits="userSpaceOnUse"
       gradientTransform="scale(1.0058652,0.994169)">
      <stop
         id="stop3750"
         style="stop-color:#000000;stop-opacity:1"
         offset="0" />
      <stop
         id="stop3752"
         style="stop-color:#000000;stop-opacity:0.58823532"
         offset="1" />
    </linearGradient>
    <linearGradient
       id="linearGradient3737">
      <stop
         id="stop3739"
         style="stop-color:#ffffff;stop-opacity:1"
         offset="0" />
      <stop
         id="stop3741"
         style="stop-color:#ffffff;stop-opacity:0"
         offset="1" />
    </linearGradient>
    <linearGradient
       id="linearGradient3700">
      <stop
         id="stop3702"
         style="stop-color:#2276c5;stop-opacity:1"
         offset="0" />
      <stop
         id="stop3704"
         style="stop-color:#68baf4;stop-opacity:1"
         offset="1" />
    </linearGradient>
    <filter
       color-interpolation-filters="sRGB"
       id="filter3174">
      <feGaussianBlur
         id="feGaussianBlur3176"
         stdDeviation="1.71" />
    </filter>
    <linearGradient
       x1="36.357143"
       y1="6"
       x2="36.357143"
       y2="63.893143"
       id="linearGradient3188"
       xlink:href="#linearGradient3737"
       gradientUnits="userSpaceOnUse" />
    <filter
       x="-0.192"
       y="-0.192"
       width="1.3839999"
       height="1.3839999"
       color-interpolation-filters="sRGB"
       id="filter3794">
      <feGaussianBlur
         id="feGaussianBlur3796"
         stdDeviation="5.28" />
    </filter>
    <linearGradient
       x1="48"
       y1="20.220806"
       x2="48"
       y2="138.66119"
       id="linearGradient3613"
       xlink:href="#linearGradient3737"
       gradientUnits="userSpaceOnUse" />
    <radialGradient
       cx="48"
       cy="90.171875"
       r="42"
       fx="48"
       fy="90.171875"
       id="radialGradient3619"
       xlink:href="#linearGradient3737"
       gradientUnits="userSpaceOnUse"
       gradientTransform="matrix(1.1573129,0,0,0.99590774,-7.5510206,0.19713193)" />
    <clipPath
       id="clipPath3613">
      <rect
         width="84"
         height="84"
         rx="6"
         ry="6"
         x="6"
         y="6"
         id="rect3615"
         style="fill:#ffffff;fill-opacity:1;fill-rule:nonzero;stroke:none" />
    </clipPath>
    <linearGradient
       x1="48"
       y1="90"
       x2="48"
       y2="5.9877172"
       id="linearGradient2843"
       xlink:href="#linearGradient3700"
       gradientUnits="userSpaceOnUse"
       gradientTransform="translate(0,100)" />
    <clipPath
       id="clipPath3625">
      <path
         d="M 0,0 0,96 96,96 96,0 0,0 z m 12,6 72,0 c 3.324,0 6,2.676 6,6 l 0,72 c 0,3.324 -2.676,6 -6,6 L 12,90 C 8.676,90 6,87.324 6,84 L 6,12 C 6,8.676 8.676,6 12,6 z"
         inkscape:connector-curvature="0"
         id="path3627"
         style="fill:#ffffff;fill-opacity:1;stroke:none" />
    </clipPath>
    <linearGradient
       x1="44.512066"
       y1="6"
       x2="44.512066"
       y2="90.015434"
       id="linearGradient3643"
       xlink:href="#linearGradient3637"
       gradientUnits="userSpaceOnUse" />
    <clipPath
       id="clipPath3649">
      <rect
         width="76"
         height="76"
         rx="4"
         ry="4"
         x="10"
         y="10"
         id="rect3651"
         style="fill:#ffffff;fill-opacity:1;fill-rule:nonzero;stroke:none" />
    </clipPath>
    <filter
       color-interpolation-filters="sRGB"
       id="filter3657">
      <feGaussianBlur
         id="feGaussianBlur3659"
         stdDeviation="1.14" />
    </filter>
    <linearGradient
       id="linearGradient3657">
      <stop
         id="stop3659"
         style="stop-color:#000000;stop-opacity:1;"
         offset="0" />
      <stop
         id="stop3661"
         style="stop-color:#000000;stop-opacity:0;"
         offset="1" />
    </linearGradient>
    <linearGradient
       inkscape:collect="always"
       xlink:href="#linearGradient3637"
       id="linearGradient5508"
       gradientUnits="userSpaceOnUse"
       gradientTransform="matrix(11.149971,0,0,11.149971,5.8500291,-4.2439927)"
       x1="12"
       y1="8"
       x2="12"
       y2="21.038404" />
    <linearGradient
       inkscape:collect="always"
       xlink:href="#linearGradient3657"
       id="linearGradient5534"
       gradientUnits="userSpaceOnUse"
       gradientTransform="matrix(0,11.149971,-11.149971,0,251.14939,-4.2439927)"
       x1="1"
       y1="11"
       x2="17.9314"
       y2="10.780814" />
    <linearGradient
       inkscape:collect="always"
       xlink:href="#linearGradient3657"
       id="linearGradient5536"
       gradientUnits="userSpaceOnUse"
       gradientTransform="matrix(0,11.149971,-11.149971,0,239.99942,-15.393964)"
       x1="4"
       y1="10"
       x2="15.040993"
       y2="9.8356104" />
    <linearGradient
       inkscape:collect="always"
       xlink:href="#linearGradient3657"
       id="linearGradient5538"
       gradientUnits="userSpaceOnUse"
       gradientTransform="matrix(0,11.149971,-11.149971,0,228.84945,-26.543935)"
       x1="7"
       y1="9"
       x2="12.534162"
       y2="8.9452038" />
  </defs>
  <metadata
     id="metadata2413">
    <rdf:RDF>
      <cc:Work
         rdf:about="">
        <dc:format>image/svg+xml</dc:format>
        <dc:type
           rdf:resource="http://purl.org/dc/dcmitype/StillImage" />
        <dc:title></dc:title>
      </cc:Work>
    </rdf:RDF>
  </metadata>
  <g
     id="layer2"
     style="display:none"
     transform="translate(0,160)">
    <rect
       width="86"
       height="85"
       rx="6"
       ry="6"
       x="5"
       y="7"
       clip-path="url(#clipPath3625)"
       id="rect3745"
       style="opacity:0.9;fill:url(#ButtonShadow);fill-opacity:1;fill-rule:nonzero;stroke:none;filter:url(#filter3174)" />
  </g>
  <g
     id="layer1"
     style="display:none"
     transform="translate(0,160)">
    <rect
       width="84"
       height="84"
       rx="6"
       ry="6"
       x="6"
       y="6"
       id="rect2419"
       style="opacity:0.8;fill:#000000;fill-opacity:1;fill-rule:nonzero;stroke:none" />
    <path
       d="m 14,10 c -2.216,0 -4,1.784 -4,4 l 0,68 c 0,2.216 1.784,4 4,4 l 68,0 c 2.216,0 4,-1.784 4,-4 l 0,-68 c 0,-2.216 -1.784,-4 -4,-4 l -68,0 z m 0,3.0625 68,0 c 0.578769,0 0.9375,0.358731 0.9375,0.9375 l 0,68 c 0,0.578769 -0.358731,0.9375 -0.9375,0.9375 l -68,0 c -0.578769,0 -0.9375,-0.358731 -0.9375,-0.9375 l 0,-68 c 0,-0.578769 0.358731,-0.9375 0.9375,-0.9375 z"
       inkscape:connector-curvature="0"
       id="rect3726"
       style="opacity:0.07999998;fill:#000000;fill-opacity:1;fill-rule:nonzero;stroke:none" />
    <path
       d="M 12,6 C 8.676,6 6,8.676 6,12 l 0,72 c 0,3.324 2.676,6 6,6 l 72,0 c 3.324,0 6,-2.676 6,-6 L 90,12 C 90,8.676 87.324,6 84,6 L 12,6 z m 2,4 68,0 c 2.216,0 4,1.784 4,4 l 0,68 c 0,2.216 -1.784,4 -4,4 l -68,0 c -2.216,0 -4,-1.784 -4,-4 l 0,-68 c 0,-2.216 1.784,-4 4,-4 z"
       inkscape:connector-curvature="0"
       id="rect3629"
       style="fill:url(#linearGradient3643);fill-opacity:1;fill-rule:nonzero;stroke:none" />
    <path
       d="M 12,6 C 8.676,6 6,8.676 6,12 l 0,2 0,68 0,2 c 0,0.334721 0.04135,0.6507 0.09375,0.96875 0.0487,0.295596 0.09704,0.596915 0.1875,0.875 0.00988,0.03038 0.020892,0.0636 0.03125,0.09375 0.098865,0.287771 0.2348802,0.547452 0.375,0.8125 0.1445918,0.273507 0.3156161,0.535615 0.5,0.78125 0.1843839,0.245635 0.3737765,0.473472 0.59375,0.6875 0.439947,0.428056 0.94291,0.814526 1.5,1.09375 0.278545,0.139612 0.5734731,0.246947 0.875,0.34375 -0.2562018,-0.100222 -0.4867109,-0.236272 -0.71875,-0.375 -0.00741,-0.0044 -0.023866,0.0045 -0.03125,0 -0.031933,-0.0193 -0.062293,-0.04251 -0.09375,-0.0625 -0.120395,-0.0767 -0.2310226,-0.163513 -0.34375,-0.25 -0.1061728,-0.0808 -0.2132809,-0.161112 -0.3125,-0.25 C 8.4783201,88.557317 8.3087904,88.373362 8.15625,88.1875 8.0486711,88.057245 7.9378561,87.922215 7.84375,87.78125 7.818661,87.74287 7.805304,87.69538 7.78125,87.65625 7.716487,87.553218 7.6510225,87.451733 7.59375,87.34375 7.4927417,87.149044 7.3880752,86.928049 7.3125,86.71875 7.30454,86.69694 7.288911,86.6782 7.28125,86.65625 7.2494249,86.5643 7.2454455,86.469419 7.21875,86.375 7.1884177,86.268382 7.1483606,86.171969 7.125,86.0625 7.0521214,85.720988 7,85.364295 7,85 L 7,83 7,15 7,13 C 7,10.218152 9.2181517,8 12,8 l 2,0 68,0 2,0 c 2.781848,0 5,2.218152 5,5 l 0,2 0,68 0,2 c 0,0.364295 -0.05212,0.720988 -0.125,1.0625 -0.04415,0.206893 -0.08838,0.397658 -0.15625,0.59375 -0.0077,0.02195 -0.0233,0.04069 -0.03125,0.0625 -0.06274,0.173739 -0.138383,0.367449 -0.21875,0.53125 -0.04158,0.0828 -0.07904,0.169954 -0.125,0.25 -0.0546,0.09721 -0.126774,0.18835 -0.1875,0.28125 -0.09411,0.140965 -0.204921,0.275995 -0.3125,0.40625 -0.143174,0.17445 -0.303141,0.346998 -0.46875,0.5 -0.01117,0.0102 -0.01998,0.02115 -0.03125,0.03125 -0.138386,0.125556 -0.285091,0.234436 -0.4375,0.34375 -0.102571,0.07315 -0.204318,0.153364 -0.3125,0.21875 -0.0074,0.0045 -0.02384,-0.0044 -0.03125,0 -0.232039,0.138728 -0.462548,0.274778 -0.71875,0.375 0.301527,-0.0968 0.596455,-0.204138 0.875,-0.34375 0.55709,-0.279224 1.060053,-0.665694 1.5,-1.09375 0.219973,-0.214028 0.409366,-0.441865 0.59375,-0.6875 0.184384,-0.245635 0.355408,-0.507743 0.5,-0.78125 0.14012,-0.265048 0.276135,-0.524729 0.375,-0.8125 0.01041,-0.03078 0.02133,-0.06274 0.03125,-0.09375 0.09046,-0.278085 0.1388,-0.579404 0.1875,-0.875 C 89.95865,84.6507 90,84.334721 90,84 l 0,-2 0,-68 0,-2 C 90,8.676 87.324,6 84,6 L 12,6 z"
       inkscape:connector-curvature="0"
       id="rect3728"
       style="fill:url(#linearGradient3188);fill-opacity:1;fill-rule:nonzero;stroke:none" />
    <path
       d="M 12,90 C 8.676,90 6,87.324 6,84 L 6,82 6,14 6,12 c 0,-0.334721 0.04135,-0.6507 0.09375,-0.96875 0.0487,-0.295596 0.09704,-0.596915 0.1875,-0.875 C 6.29113,10.12587 6.302142,10.09265 6.3125,10.0625 6.411365,9.774729 6.5473802,9.515048 6.6875,9.25 6.8320918,8.976493 7.0031161,8.714385 7.1875,8.46875 7.3718839,8.223115 7.5612765,7.995278 7.78125,7.78125 8.221197,7.353194 8.72416,6.966724 9.28125,6.6875 9.559795,6.547888 9.8547231,6.440553 10.15625,6.34375 9.9000482,6.443972 9.6695391,6.580022 9.4375,6.71875 c -0.00741,0.0044 -0.023866,-0.0045 -0.03125,0 -0.031933,0.0193 -0.062293,0.04251 -0.09375,0.0625 -0.120395,0.0767 -0.2310226,0.163513 -0.34375,0.25 -0.1061728,0.0808 -0.2132809,0.161112 -0.3125,0.25 C 8.4783201,7.442683 8.3087904,7.626638 8.15625,7.8125 8.0486711,7.942755 7.9378561,8.077785 7.84375,8.21875 7.818661,8.25713 7.805304,8.30462 7.78125,8.34375 7.716487,8.446782 7.6510225,8.548267 7.59375,8.65625 7.4927417,8.850956 7.3880752,9.071951 7.3125,9.28125 7.30454,9.30306 7.288911,9.3218 7.28125,9.34375 7.2494249,9.4357 7.2454455,9.530581 7.21875,9.625 7.1884177,9.731618 7.1483606,9.828031 7.125,9.9375 7.0521214,10.279012 7,10.635705 7,11 l 0,2 0,68 0,2 c 0,2.781848 2.2181517,5 5,5 l 2,0 68,0 2,0 c 2.781848,0 5,-2.218152 5,-5 l 0,-2 0,-68 0,-2 C 89,10.635705 88.94788,10.279012 88.875,9.9375 88.83085,9.730607 88.78662,9.539842 88.71875,9.34375 88.71105,9.3218 88.69545,9.30306 88.6875,9.28125 88.62476,9.107511 88.549117,8.913801 88.46875,8.75 88.42717,8.6672 88.38971,8.580046 88.34375,8.5 88.28915,8.40279 88.216976,8.31165 88.15625,8.21875 88.06214,8.077785 87.951329,7.942755 87.84375,7.8125 87.700576,7.63805 87.540609,7.465502 87.375,7.3125 87.36383,7.3023 87.35502,7.29135 87.34375,7.28125 87.205364,7.155694 87.058659,7.046814 86.90625,6.9375 86.803679,6.86435 86.701932,6.784136 86.59375,6.71875 c -0.0074,-0.0045 -0.02384,0.0044 -0.03125,0 -0.232039,-0.138728 -0.462548,-0.274778 -0.71875,-0.375 0.301527,0.0968 0.596455,0.204138 0.875,0.34375 0.55709,0.279224 1.060053,0.665694 1.5,1.09375 0.219973,0.214028 0.409366,0.441865 0.59375,0.6875 0.184384,0.245635 0.355408,0.507743 0.5,0.78125 0.14012,0.265048 0.276135,0.524729 0.375,0.8125 0.01041,0.03078 0.02133,0.06274 0.03125,0.09375 0.09046,0.278085 0.1388,0.579404 0.1875,0.875 C 89.95865,11.3493 90,11.665279 90,12 l 0,2 0,68 0,2 c 0,3.324 -2.676,6 -6,6 l -72,0 z"
       inkscape:connector-curvature="0"
       id="path3615"
       style="opacity:0.6;fill:url(#radialGradient3619);fill-opacity:1;fill-rule:nonzero;stroke:none" />
    <rect
       width="84"
       height="84"
       rx="6"
       ry="6"
       x="6"
       y="106"
       id="rect2841"
       style="fill:url(#linearGradient2843);fill-opacity:1;fill-rule:nonzero;stroke:none" />
    <rect
       width="76"
       height="76"
       rx="4"
       ry="4"
       x="10"
       y="110"
       id="rect3634"
       style="fill:#ff0000;fill-opacity:1;fill-rule:nonzero;stroke:none" />
    <path
       d="m 14,9 c -2.752703,0 -5,2.247297 -5,5 l 0,68 c 0,2.752703 2.247297,5 5,5 l 68,0 c 2.752703,0 5,-2.247297 5,-5 L 87,14 C 87,11.247297 84.752703,9 82,9 L 14,9 z m 0,2 68,0 c 1.679297,0 3,1.320703 3,3 l 0,68 c 0,1.679297 -1.320703,3 -3,3 l -68,0 c -1.679297,0 -3,-1.320703 -3,-3 l 0,-68 c 0,-1.679297 1.320703,-3 3,-3 z"
       inkscape:connector-curvature="0"
       transform="translate(-110,0)"
       clip-path="url(#clipPath3649)"
       id="rect3647"
       style="font-size:medium;font-style:normal;font-variant:normal;font-weight:normal;font-stretch:normal;text-indent:0;text-align:start;text-decoration:none;line-height:normal;letter-spacing:normal;word-spacing:normal;text-transform:none;direction:ltr;block-progression:tb;writing-mode:lr-tb;text-anchor:start;color:#000000;fill:#000000;fill-opacity:1;stroke:none;stroke-width:2;marker:none;visibility:visible;display:inline;overflow:visible;filter:url(#filter3657);enable-background:accumulate;font-family:Abandoned Bitplane;-inkscape-font-specification:Abandoned Bitplane" />
    <path
       d="m 14.089286,10 c -2.216,0 -4,1.784 -4,4 l 0,68 c 0,2.216 1.784,4 4,4 l 68,0 c 2.216,0 4,-1.784 4,-4 l 0,-68 c 0,-2.216 -1.784,-4 -4,-4 l -68,0 z m 0,2 68,0 c 1.140301,0 2,0.859699 2,2 l 0,68 c 0,1.140301 -0.859699,2 -2,2 l -68,0 c -1.140301,0 -2,-0.859699 -2,-2 l 0,-68 c 0,-1.140301 0.859699,-2 2,-2 z"
       inkscape:connector-curvature="0"
       id="path3709"
       style="opacity:0.16000001;fill:#000000;fill-opacity:1;fill-rule:nonzero;stroke:none" />
    <path
       d="m 14,10 c -2.216,0 -4,1.784 -4,4 l 0,68 c 0,2.216 1.784,4 4,4 l 68,0 c 2.216,0 4,-1.784 4,-4 l 0,-68 c 0,-2.216 -1.784,-4 -4,-4 l -68,0 z m 0,1 68,0 c 1.673848,0 3,1.326152 3,3 l 0,68 c 0,1.673848 -1.326152,3 -3,3 l -68,0 c -1.673848,0 -3,-1.326152 -3,-3 l 0,-68 c 0,-1.673848 1.326152,-3 3,-3 z"
       inkscape:connector-curvature="0"
       id="path3707"
       style="opacity:0.36000001;fill:#000000;fill-opacity:1;fill-rule:nonzero;stroke:none" />
  </g>
  <g
     id="layer5"
     style="display:none"
     transform="translate(0,160)">
    <rect
       width="66"
       height="66"
       rx="12"
       ry="12"
       x="15"
       y="15"
       clip-path="url(#clipPath3613)"
       id="rect3171"
       style="opacity:0.1;fill:url(#linearGradient3613);fill-opacity:1;fill-rule:nonzero;stroke:#ffffff;stroke-width:0.5;stroke-linecap:round;stroke-linejoin:miter;stroke-miterlimit:4;stroke-opacity:1;stroke-dasharray:none;stroke-dashoffset:0;filter:url(#filter3794)" />
  </g>
  <path
     style="opacity:0.29999999999999999;color:#000000;fill:url(#linearGradient5534);fill-opacity:1;stroke:none;stroke-width:1;marker:none;visibility:visible;display:inline;overflow:visible;enable-background:accumulate"
     id="path2880"
     inkscape:connector-curvature="0"
     d="M 239.99942,118.40569 C 239.99942,56.826091 190.07929,6.9059782 128.49971,6.9059782 66.920125,6.9059782 17,56.826091 17,118.40569 c 0,61.57959 49.920125,111.49971 111.49971,111.49971 61.57958,0 111.49971,-49.92012 111.49971,-111.49971 z m -11.14997,0 c 0,14.85007 -3.22564,28.94677 -9.01451,41.62763 -15.81561,34.64506 -50.76368,58.72211 -91.33523,58.72211 -55.421633,0 -100.349739,-44.92811 -100.349739,-100.34974 0,-55.421635 44.928106,-100.349741 100.349739,-100.349741 55.42163,0 100.34974,44.928106 100.34974,100.349741 z" />
  <path
     style="opacity:0.29999999999999999;color:#000000;fill:url(#linearGradient5536);fill-opacity:1;fill-rule:nonzero;stroke:none;stroke-width:1;marker:none;visibility:visible;display:inline;overflow:visible;enable-background:accumulate"
     id="path3665"
     inkscape:connector-curvature="0"
     d="m 206.54951,107.25572 c 0,-43.105709 -34.94409,-78.0498 -78.0498,-78.0498 -43.10571,0 -78.049797,34.944091 -78.049797,78.0498 0,43.1057 34.944087,78.04979 78.049797,78.04979 43.10571,0 78.0498,-34.94409 78.0498,-78.04979 z m -11.14998,0 c 0,36.94774 -29.95206,66.89982 -66.89982,66.89982 -36.947759,0 -66.899826,-29.95208 -66.899826,-66.89982 0,-36.947745 29.952067,-66.899829 66.899826,-66.899829 36.94776,0 66.89982,29.952084 66.89982,66.899829 z" />
  <path
     style="opacity:0.29999999999999999;color:#000000;fill:url(#linearGradient5538);fill-opacity:1;fill-rule:nonzero;stroke:none;stroke-width:1;marker:none;visibility:visible;display:inline;overflow:visible;enable-background:accumulate"
     id="path3688"
     inkscape:connector-curvature="0"
     d="m 173.09959,96.105745 c 0,-24.631855 -19.96805,-44.599883 -44.59988,-44.599883 -24.63184,0 -44.599885,19.968028 -44.599885,44.599883 0,24.631815 19.968045,44.599885 44.599885,44.599885 24.63183,0 44.59988,-19.96803 44.59988,-44.599885 z m -11.14997,0 c 0,18.473895 -14.97604,33.449915 -33.44991,33.449915 -18.47388,0 -33.449914,-14.97602 -33.449914,-33.449915 0,-18.473891 14.976034,-33.449912 33.449914,-33.449912 18.47387,0 33.44991,14.976021 33.44991,33.449912 z" />
  <g
     id="g3836">
    <path
       d="m 128.49971,81.239117 c -16.58685,0 -30.19784,13.610976 -30.19784,30.197843 0,12.17341 7.35491,22.62593 17.80898,27.35872 -2.23864,0.44992 -4.14527,0.47284 -6.58158,1.29051 -4.87816,1.63718 -10.23475,4.19556 -14.582714,8.51733 -4.418577,4.39198 -7.526487,10.74598 -7.743036,18.32519 -0.908037,31.78138 11.4855,69.55827 11.4855,69.55827 0.003,0.008 0.25492,0.50843 0.2581,0.5162 0.003,0.008 0.25435,0.63774 0.25811,0.64525 0.004,0.008 0.25372,0.50902 0.2581,0.5162 0.005,0.008 0.38223,0.50939 0.38715,0.51621 0.005,0.008 0.38174,0.5098 0.38715,0.5162 0.005,0.008 0.38125,0.38116 0.38715,0.38694 0.006,0.004 0.38079,0.38158 0.38715,0.38695 0.006,0.004 0.50943,0.38199 0.51621,0.38694 0.007,0.004 0.50905,0.38282 0.5162,0.38695 0.007,0.004 0.50873,0.25438 0.5162,0.2581 0.007,0.004 0.63751,0.2548 0.64525,0.2581 0.008,0.003 0.50823,0.25563 0.51621,0.2581 0.008,0.003 0.63709,0.1272 0.64525,0.12885 0.008,0.002 0.50791,0.1276 0.5162,0.12884 0.008,10e-4 0.63688,0.12843 0.64525,0.12885 0.008,7e-4 0.63686,-5e-5 0.64526,0 l 44.6515,0 c 0.009,-1.3e-4 0.63673,7.8e-4 0.64525,0 0.009,-7.9e-4 0.63683,-0.12761 0.64526,-0.12885 0.008,-0.001 0.63697,-0.12678 0.64525,-0.12884 0.008,-0.002 0.50812,-0.12637 0.5162,-0.12885 0.008,-0.003 0.63742,-0.25479 0.64525,-0.2581 0.008,-0.003 0.50867,-0.25397 0.51621,-0.2581 0.007,-0.004 0.63806,-0.3824 0.64525,-0.38694 0.007,-0.004 0.50941,-0.25274 0.5162,-0.25811 0.007,-0.004 0.38079,-0.51046 0.38715,-0.5162 0.006,-0.004 0.51033,-0.38075 0.51621,-0.38694 0.006,-0.004 0.38178,-0.50952 0.38715,-0.51621 0.005,-0.008 0.38236,-0.37992 0.38715,-0.38694 0.005,-0.008 0.25389,-0.63782 0.2581,-0.64525 0.004,-0.008 0.38352,-0.50844 0.38715,-0.51621 0.004,-0.008 0.25513,-0.50819 0.2581,-0.5162 0.002,-0.008 0.0801,-0.36588 0.12905,-0.5162 0.0116,-0.0372 -4.5e-4,-0.12761 0,-0.12885 0.0629,-0.19557 11.48551,-35.78958 11.48551,-69.04206 0,-7.52896 -3.07444,-13.94151 -7.48494,-18.32518 -4.33008,-4.30377 -9.70193,-6.84819 -14.58271,-8.51734 -2.54294,-0.86966 -4.51485,-1.06404 -6.83968,-1.54861 10.45406,-4.73279 17.80898,-15.18531 17.80898,-27.35872 0,-16.586867 -13.611,-30.197843 -30.19784,-30.197843 z"
       id="path3927"
       style="opacity:0.1;color:#000000;fill:#000000;fill-opacity:1;fill-rule:nonzero;stroke:none;stroke-width:1;marker:none;visibility:visible;display:inline;overflow:visible;enable-background:accumulate"
       inkscape:connector-curvature="0" />
    <path
       d="m 128.49971,84.981585 c -14.52782,0 -26.45537,11.927536 -26.45537,26.455375 0,14.52779 11.95607,26.32632 26.45537,26.32632 14.4993,0 26.45537,-11.79853 26.45537,-26.32632 0,-14.527839 -11.92756,-26.455375 -26.45537,-26.455375 z m 0,55.749855 c 0,0 -8.75497,-0.0706 -17.80898,2.96816 -4.52701,1.51933 -9.24349,3.84621 -13.03411,7.61399 -3.790629,3.76778 -6.522033,9.14314 -6.710632,15.74417 -0.877012,30.6955 11.356452,68.26776 11.356452,68.26776 a 4.0826302,4.0826302 0 0 0 3.87152,2.83911 l 44.6515,0 a 4.0826302,4.0826302 0 0 0 3.87152,-2.96816 c 0,0 11.35645,-35.54297 11.35645,-68.00966 0,-6.49118 -2.68599,-11.8715 -6.45253,-15.61512 -3.76654,-3.74362 -8.48035,-6.05667 -13.03411,-7.61399 -9.10752,-3.11464 -17.93803,-3.22626 -17.93803,-3.22626 a 4.0826302,4.0826302 0 0 0 -0.12905,0 z"
       id="path3923"
       style="opacity:0.15;color:#000000;fill:#000000;fill-opacity:1;fill-rule:nonzero;stroke:none;stroke-width:1;marker:none;visibility:visible;display:inline;overflow:visible;enable-background:accumulate"
       inkscape:connector-curvature="0" />
    <path
       d="m 128.49971,89.085393 c -12.31592,0 -22.29994,9.984015 -22.29994,22.299947 0,12.31592 9.98402,22.29994 22.29994,22.29994 12.31591,0 22.29994,-9.98402 22.29994,-22.29994 0,-12.315932 -9.98403,-22.299947 -22.29994,-22.299947 z m 0,55.749857 c 0,0 -32.809026,-0.13132 -33.449914,22.29994 -0.84276,29.49675 11.149974,66.89982 11.149974,66.89982 l 44.59988,0 c 0,0 11.14997,-35.39174 11.14997,-66.89982 0,-21.79026 -33.44991,-22.29994 -33.44991,-22.29994 z"
       inkscape:connector-curvature="0"
       id="path3917"
       style="opacity:0.3;color:#000000;fill:#000000;fill-opacity:1;fill-rule:nonzero;stroke:none;stroke-width:1;marker:none;visibility:visible;display:inline;overflow:visible;enable-background:accumulate" />
    <path
       d="m 128.49971,84.955774 c -12.31592,0 -22.29994,9.984015 -22.29994,22.299946 0,12.31592 9.98402,22.29994 22.29994,22.29994 12.31591,0 22.29994,-9.98402 22.29994,-22.29994 0,-12.315931 -9.98403,-22.299946 -22.29994,-22.299946 z m 0,55.749856 c 0,0 -32.809026,-0.13132 -33.449914,22.29994 -0.84276,29.49675 11.149974,66.89983 11.149974,66.89983 l 44.59988,0 c 0,0 11.14997,-35.39175 11.14997,-66.89983 0,-21.79026 -33.44991,-22.29994 -33.44991,-22.29994 z"
       inkscape:connector-curvature="0"
       id="path2886"
       style="color:#000000;fill:url(#linearGradient5508);fill-opacity:1;fill-rule:nonzero;stroke:none;stroke-width:1;marker:none;visibility:visible;display:inline;overflow:visible;enable-background:accumulate" />
    <path
       d="m 128.49971,84.981585 c -12.31592,0 -22.32575,10.009824 -22.32575,22.325755 0,0.63439 0.0771,1.18573 0.12905,1.8067 1.14198,-11.244865 10.65052,-20.002837 22.1967,-20.002837 11.54617,0 21.05472,8.757972 22.1967,20.002837 0.052,-0.62097 0.12905,-1.17231 0.12905,-1.8067 0,-12.315931 -10.00984,-22.325755 -22.32575,-22.325755 z m -1.41956,55.749855 c -6.28861,0.28164 -31.443766,2.69846 -32.004544,22.32575 -0.03923,1.37194 -0.01404,2.72803 0,4.12962 0.640888,-22.43118 33.424104,-22.32575 33.424104,-22.32575 0,0 32.47433,0.56088 33.29505,21.55145 0.0268,-1.12144 0.12905,-2.24185 0.12905,-3.35532 0,-21.79026 -33.4241,-22.32575 -33.4241,-22.32575 0,0 -0.52118,-0.0413 -1.41956,0 z"
       inkscape:connector-curvature="0"
       id="path3898"
       style="opacity:0.75;color:#000000;fill:#ffffff;fill-opacity:1;fill-rule:nonzero;stroke:none;stroke-width:1;marker:none;visibility:visible;display:inline;overflow:visible;enable-background:accumulate" />
    <path
       d="m 106.30301,105.37158 c -0.0532,0.62811 -0.12905,1.29389 -0.12905,1.93576 0,12.31592 10.00983,22.1967 22.32575,22.1967 12.31591,0 22.32575,-9.88078 22.32575,-22.1967 0,-0.64187 -0.0759,-1.30765 -0.12905,-1.93576 -1.14198,11.24487 -10.65053,20.00284 -22.1967,20.00284 -11.54618,0 -21.05472,-8.75797 -22.1967,-20.00284 z m 55.49175,56.91131 c -0.73334,30.61208 -10.9693,63.49289 -10.9693,63.49289 l -44.6515,0 c 0,0 -10.475207,-32.88523 -11.098354,-61.29903 -0.431656,29.26252 11.098354,65.42865 11.098354,65.42865 l 44.6515,0 c 0,0 11.09835,-35.34013 11.09835,-66.84821 0,-0.27421 -0.1186,-0.50683 -0.12905,-0.7743 z"
       inkscape:connector-curvature="0"
       id="path3907"
       style="opacity:0.15;color:#000000;fill:#000000;fill-opacity:1;fill-rule:nonzero;stroke:none;stroke-width:1;marker:none;visibility:visible;display:inline;overflow:visible;enable-background:accumulate" />
  </g>
</svg>
