<?xml version="1.0" encoding="UTF-8" standalone="no"?>
<!-- Created with Inkscape (http://www.inkscape.org/) -->

<svg
   xmlns:dc="http://purl.org/dc/elements/1.1/"
   xmlns:cc="http://creativecommons.org/ns#"
   xmlns:rdf="http://www.w3.org/1999/02/22-rdf-syntax-ns#"
   xmlns:svg="http://www.w3.org/2000/svg"
   xmlns="http://www.w3.org/2000/svg"
   xmlns:xlink="http://www.w3.org/1999/xlink"
   xmlns:sodipodi="http://sodipodi.sourceforge.net/DTD/sodipodi-0.dtd"
   xmlns:inkscape="http://www.inkscape.org/namespaces/inkscape"
   width="256"
   height="256"
   id="svg4828"
   version="1.1"
   inkscape:version="0.48.3.1 r9886"
   sodipodi:docname="folder-home.svg">
  <defs
     id="defs4830">
    <linearGradient
       id="linearGradient4080">
      <stop
         style="stop-color:#7c7c7c;stop-opacity:1;"
         offset="0"
         id="stop4082" />
      <stop
         style="stop-color:#1a1a1a;stop-opacity:1;"
         offset="1"
         id="stop4084" />
    </linearGradient>
    <linearGradient
       gradientTransform="matrix(1,0,0,-1,-270.96,-122.0747)"
       gradientUnits="userSpaceOnUse"
       id="linearGradient4074"
       y2="-167.532"
       x2="206.6895"
       y1="-167.532"
       x1="206.6895">
      <stop
         offset="0"
         style="stop-color:#f589b1;stop-opacity:1;"
         id="stop4076" />
      <stop
         offset="1"
         style="stop-color:#ed4c85;stop-opacity:1;"
         id="stop4078" />
    </linearGradient>
    <linearGradient
       gradientTransform="matrix(1,0,0,-1,-270.96,-122.0747)"
       gradientUnits="userSpaceOnUse"
       id="linearGradient4068"
       y2="-167.532"
       x2="206.6895"
       y1="-167.532"
       x1="206.6895">
      <stop
         offset="0"
         style="stop-color:#a4dfff;stop-opacity:1;"
         id="stop4070" />
      <stop
         offset="1"
         style="stop-color:#7cbeda;stop-opacity:1;"
         id="stop4072" />
    </linearGradient>
    <linearGradient
       gradientTransform="matrix(1,0,0,-1,-270.96,-122.0747)"
       gradientUnits="userSpaceOnUse"
       id="linearGradient4115"
       y2="-167.532"
       x2="206.6895"
       y1="-167.532"
       x1="206.6895">
      <stop
         offset="0"
         style="stop-color:#ffffff;stop-opacity:1;"
         id="stop4117" />
      <stop
         offset="1"
         style="stop-color:#e7e7e7;stop-opacity:1;"
         id="stop4119" />
    </linearGradient>
    <linearGradient
       x1="45.447727"
       y1="80.471962"
       x2="45.447727"
       y2="7.0165396"
       id="ButtonShadow"
       gradientUnits="userSpaceOnUse"
       gradientTransform="matrix(1.0058652,0,0,0.994169,0,12)">
      <stop
         id="stop3750"
         style="stop-color:#000000;stop-opacity:1"
         offset="0" />
      <stop
         id="stop3752"
         style="stop-color:#000000;stop-opacity:0.58823532"
         offset="1" />
    </linearGradient>
    <filter
       color-interpolation-filters="sRGB"
       id="filter3174">
      <feGaussianBlur
         id="feGaussianBlur3176"
         stdDeviation="1.71" />
    </filter>
    <linearGradient
       x1="45.447727"
       y1="80.471962"
       x2="45.447727"
       y2="5.297224"
       id="linearGradient4018"
       xlink:href="#ButtonShadow"
       gradientUnits="userSpaceOnUse"
       gradientTransform="matrix(1.0058652,0,0,0.994169,0,12)" />
    <linearGradient
       x1="206.6895"
       y1="-167.532"
       x2="206.6895"
       y2="-167.532"
       id="SVGID_14_"
       gradientUnits="userSpaceOnUse"
       gradientTransform="matrix(1,0,0,-1,-270.96,-122.0747)">
      <stop
         id="stop3506"
         style="stop-color:#ffffff;stop-opacity:1;"
         offset="0" />
      <stop
         id="stop3508"
         style="stop-color:#d2d2d2;stop-opacity:1;"
         offset="1" />
    </linearGradient>
    <linearGradient
       inkscape:collect="always"
       xlink:href="#SVGID_14_"
       id="linearGradient4056"
       gradientUnits="userSpaceOnUse"
       gradientTransform="matrix(0.96331631,0,0,-1.1526189,-227.12417,799.31305)"
       x1="206.6895"
       y1="-167.532"
       x2="206.6895"
       y2="-167.532" />
    <linearGradient
       inkscape:collect="always"
       xlink:href="#SVGID_14_"
       id="linearGradient4059"
       gradientUnits="userSpaceOnUse"
       gradientTransform="matrix(0.96331631,0,0,-1.1526189,-227.12417,799.31305)"
       x1="206.6895"
       y1="-167.532"
       x2="206.6895"
       y2="-167.532" />
    <radialGradient
       inkscape:collect="always"
       xlink:href="#SVGID_14_"
       id="radialGradient4062"
       gradientUnits="userSpaceOnUse"
       gradientTransform="matrix(-3.2665224,1.9765593,-0.62389445,-1.0970731,1065.726,1555.0761)"
       cx="91.957275"
       cy="830.82245"
       fx="91.957275"
       fy="830.82245"
       r="113.48638" />
    <radialGradient
       inkscape:collect="always"
       xlink:href="#linearGradient4080"
       id="radialGradient4065"
       gradientUnits="userSpaceOnUse"
       gradientTransform="matrix(-0.09124159,0.27878234,-0.84036662,-0.27504034,753.17319,1002.727)"
       cx="118.15499"
       cy="742.81573"
       fx="118.15499"
       fy="742.81573"
       r="113.82609" />
    <radialGradient
       inkscape:collect="always"
       xlink:href="#linearGradient4068"
       id="radialGradient4068"
       gradientUnits="userSpaceOnUse"
       gradientTransform="matrix(-0.22652403,0.27897352,-1.7437629,-1.41592,188.73245,759.35025)"
       cx="206.54669"
       cy="-12.988635"
       fx="206.54669"
       fy="-12.988635"
       r="72.40625" />
    <radialGradient
       inkscape:collect="always"
       xlink:href="#linearGradient4074"
       id="radialGradient4071"
       gradientUnits="userSpaceOnUse"
       gradientTransform="matrix(-0.20571702,0.27897354,-1.8078509,-1.3331217,226.64591,761.68593)"
       cx="206.15625"
       cy="-12.124999"
       fx="206.15625"
       fy="-12.124999"
       r="72.40625" />
    <radialGradient
       inkscape:collect="always"
       xlink:href="#linearGradient4115"
       id="radialGradient10341"
       cx="28.441875"
       cy="124.10932"
       fx="28.441875"
       fy="124.10932"
       r="63.653126"
       gradientTransform="matrix(1,0,0,0.22622613,0,96.032549)"
       gradientUnits="userSpaceOnUse" />
    <radialGradient
       inkscape:collect="always"
       xlink:href="#linearGradient4115"
       id="radialGradient3295"
       gradientUnits="userSpaceOnUse"
       gradientTransform="matrix(1,0,0,0.22622613,0,96.032549)"
       cx="28.441875"
       cy="124.10932"
       fx="28.441875"
       fy="124.10932"
       r="63.653126" />
    <linearGradient
       id="linearGradient5292">
      <stop
         style="stop-color:#000000;stop-opacity:1;"
         offset="0"
         id="stop5294" />
      <stop
         style="stop-color:#676767;stop-opacity:1;"
         offset="1"
         id="stop5296" />
    </linearGradient>
    <linearGradient
       id="linearGradient5274">
      <stop
         id="stop5276"
         offset="0"
         style="stop-color:#ffffff;stop-opacity:1;" />
      <stop
         id="stop5278"
         offset="1"
         style="stop-color:#a7a7a7;stop-opacity:1;" />
    </linearGradient>
    <linearGradient
       id="linearGradient5101">
      <stop
         style="stop-color:#929292;stop-opacity:1;"
         offset="0"
         id="stop5103" />
      <stop
         style="stop-color:#ffffff;stop-opacity:1;"
         offset="1"
         id="stop5105" />
    </linearGradient>
    <filter
       inkscape:collect="always"
       id="filter5138"
       inkscape:label="Inner Shadow"
       inkscape:menu="Shadows and Glows"
       inkscape:menu-tooltip="Adds a colorizable drop shadow inside"
       color-interpolation-filters="sRGB">
      <feGaussianBlur
         inkscape:collect="always"
         stdDeviation="0.63"
         id="feGaussianBlur5140"
         result="fbSourceGraphic" />
      <feColorMatrix
         result="fbSourceGraphicAlpha"
         in="fbSourceGraphic"
         values="0 0 0 -1 0 0 0 0 -1 0 0 0 0 -1 0 0 0 0 1 0"
         id="feColorMatrix5206" />
      <feGaussianBlur
         id="feGaussianBlur5208"
         stdDeviation="4"
         result="result8"
         in="fbSourceGraphic" />
      <feOffset
         id="feOffset5210"
         dx="4"
         dy="4"
         result="result11" />
      <feComposite
         id="feComposite5212"
         in2="result11"
         result="result6"
         in="fbSourceGraphic"
         operator="in" />
      <feFlood
         id="feFlood5214"
         result="result10"
         in="result6"
         flood-opacity="1"
         flood-color="rgb(0,0,0)" />
      <feBlend
         id="feBlend5216"
         in2="result10"
         mode="normal"
         in="result6"
         result="result12" />
      <feComposite
         id="feComposite5218"
         in2="fbSourceGraphic"
         result="result2"
         operator="in" />
    </filter>
    <filter
       inkscape:collect="always"
       id="filter5142"
       inkscape:label="Inner Shadow"
       inkscape:menu="Shadows and Glows"
       inkscape:menu-tooltip="Adds a colorizable drop shadow inside"
       color-interpolation-filters="sRGB">
      <feGaussianBlur
         inkscape:collect="always"
         stdDeviation="0.16466582"
         id="feGaussianBlur5144"
         result="fbSourceGraphic" />
      <feColorMatrix
         result="fbSourceGraphicAlpha"
         in="fbSourceGraphic"
         values="0 0 0 -1 0 0 0 0 -1 0 0 0 0 -1 0 0 0 0 1 0"
         id="feColorMatrix5230" />
      <feGaussianBlur
         id="feGaussianBlur5232"
         stdDeviation="4"
         result="result8"
         in="fbSourceGraphic" />
      <feOffset
         id="feOffset5234"
         dx="4"
         dy="4"
         result="result11" />
      <feComposite
         id="feComposite5236"
         in2="result11"
         result="result6"
         in="fbSourceGraphic"
         operator="in" />
      <feFlood
         id="feFlood5238"
         result="result10"
         in="result6"
         flood-opacity="1"
         flood-color="rgb(0,0,0)" />
      <feBlend
         id="feBlend5240"
         in2="result10"
         mode="normal"
         in="result6"
         result="result12" />
      <feComposite
         id="feComposite5242"
         in2="fbSourceGraphic"
         result="result2"
         operator="in" />
    </filter>
    <filter
       inkscape:collect="always"
       id="filter5288">
      <feGaussianBlur
         inkscape:collect="always"
         stdDeviation="0.39589358"
         id="feGaussianBlur5290" />
    </filter>
    <radialGradient
       inkscape:collect="always"
       xlink:href="#linearGradient5101"
       id="radialGradient5439"
       gradientUnits="userSpaceOnUse"
       gradientTransform="matrix(-1.2534244,1.3537496,-1.1359243,-1.0517419,-91.848966,113.81598)"
       spreadMethod="reflect"
       cx="-51.570568"
       cy="21.446341"
       fx="-51.570568"
       fy="21.446341"
       r="63.000004" />
    <linearGradient
       inkscape:collect="always"
       xlink:href="#linearGradient5292"
       id="linearGradient5441"
       gradientUnits="userSpaceOnUse"
       gradientTransform="matrix(1,0,0,0.87499999,0,9.2992485)"
       x1="-51.738102"
       y1="144.09032"
       x2="-52.073181"
       y2="90.477745" />
    <linearGradient
       inkscape:collect="always"
       xlink:href="#linearGradient5101"
       id="linearGradient5443"
       gradientUnits="userSpaceOnUse"
       gradientTransform="matrix(1.2057973,0,0,1,11.400959,0.08723782)"
       x1="-28.865877"
       y1="27.498652"
       x2="-7.6993213"
       y2="27.498652" />
    <radialGradient
       inkscape:collect="always"
       xlink:href="#linearGradient5274"
       id="radialGradient5445"
       gradientUnits="userSpaceOnUse"
       cx="-27.010738"
       cy="-73.341461"
       fx="-27.010738"
       fy="-73.341461"
       r="15.637796" />
    <filter
       id="filter5482"
       inkscape:label="Inner Shadow"
       inkscape:menu="Shadows and Glows"
       inkscape:menu-tooltip="Adds a colorizable drop shadow inside"
       color-interpolation-filters="sRGB">
      <feGaussianBlur
         id="feGaussianBlur5484"
         stdDeviation="4"
         result="result8" />
      <feOffset
         id="feOffset5486"
         dx="4"
         dy="4"
         result="result11" />
      <feComposite
         id="feComposite5488"
         in2="result11"
         result="result6"
         in="SourceGraphic"
         operator="in" />
      <feFlood
         id="feFlood5490"
         result="result10"
         in="result6"
         flood-opacity="1"
         flood-color="rgb(0,0,0)" />
      <feBlend
         id="feBlend5492"
         in2="result10"
         mode="normal"
         in="result6"
         result="result12" />
      <feComposite
         id="feComposite5494"
         in2="SourceGraphic"
         result="result2"
         operator="in" />
    </filter>
    <filter
       color-interpolation-filters="sRGB"
       id="filter3674">
      <feGaussianBlur
         id="feGaussianBlur3676"
         stdDeviation="0.45365853" />
    </filter>
    <filter
       color-interpolation-filters="sRGB"
       id="filter3694">
      <feGaussianBlur
         id="feGaussianBlur3696"
         stdDeviation="0.6804878" />
    </filter>
    <radialGradient
       inkscape:collect="always"
       xlink:href="#linearGradient4115"
       id="radialGradient16726"
       gradientUnits="userSpaceOnUse"
       gradientTransform="matrix(1,0,0,0.22622613,0,96.032549)"
       cx="28.441875"
       cy="124.10932"
       fx="28.441875"
       fy="124.10932"
       r="63.653126" />
    <radialGradient
       inkscape:collect="always"
       xlink:href="#linearGradient4115"
       id="radialGradient16728"
       gradientUnits="userSpaceOnUse"
       gradientTransform="matrix(1,0,0,0.22622613,0,96.032549)"
       cx="28.441875"
       cy="124.10932"
       fx="28.441875"
       fy="124.10932"
       r="63.653126" />
    <radialGradient
       inkscape:collect="always"
       xlink:href="#linearGradient4115"
       id="radialGradient16730"
       gradientUnits="userSpaceOnUse"
       gradientTransform="matrix(1,0,0,0.22622613,0,96.032549)"
       cx="28.441875"
       cy="124.10932"
       fx="28.441875"
       fy="124.10932"
       r="63.653126" />
    <radialGradient
       inkscape:collect="always"
       xlink:href="#linearGradient4115"
       id="radialGradient16732"
       gradientUnits="userSpaceOnUse"
       gradientTransform="matrix(1,0,0,0.22622613,0,96.032549)"
       cx="28.441875"
       cy="124.10932"
       fx="28.441875"
       fy="124.10932"
       r="63.653126" />
    <radialGradient
       inkscape:collect="always"
       xlink:href="#linearGradient4115"
       id="radialGradient16734"
       gradientUnits="userSpaceOnUse"
       gradientTransform="matrix(1,0,0,0.22622613,0,96.032549)"
       cx="28.441875"
       cy="124.10932"
       fx="28.441875"
       fy="124.10932"
       r="63.653126" />
  </defs>
  <sodipodi:namedview
     id="base"
     pagecolor="#ffffff"
     bordercolor="#666666"
     borderopacity="1.0"
     inkscape:pageopacity="0.0"
     inkscape:pageshadow="2"
     inkscape:zoom="1.4648438"
     inkscape:cx="128"
     inkscape:cy="128"
     inkscape:document-units="px"
     inkscape:current-layer="layer1"
     showgrid="false"
     inkscape:window-width="1024"
     inkscape:window-height="545"
     inkscape:window-x="-2"
     inkscape:window-y="32"
     inkscape:window-maximized="1"
     inkscape:snap-page="true"
     inkscape:snap-global="true"
     inkscape:snap-center="true"
     inkscape:snap-to-guides="true"
     inkscape:snap-bbox="true"
     inkscape:bbox-paths="true"
     inkscape:bbox-nodes="true"
     inkscape:snap-bbox-edge-midpoints="true"
     inkscape:snap-bbox-midpoints="true"
     inkscape:object-paths="true"
     inkscape:snap-intersection-paths="true"
     inkscape:object-nodes="true"
     inkscape:snap-smooth-nodes="true"
     inkscape:snap-midpoints="true"
     inkscape:snap-object-midpoints="true"
     showguides="true"
     inkscape:guide-bbox="true" />
  <metadata
     id="metadata4833">
    <rdf:RDF>
      <cc:Work
         rdf:about="">
        <dc:format>image/svg+xml</dc:format>
        <dc:type
           rdf:resource="http://purl.org/dc/dcmitype/StillImage" />
        <dc:title></dc:title>
      </cc:Work>
    </rdf:RDF>
  </metadata>
  <g
     inkscape:label="Layer 1"
     inkscape:groupmode="layer"
     id="layer1"
     transform="translate(0,-796.36218)">
    <g
       id="g4104">
      <path
         id="path4102"
         transform="translate(0,796.36218)"
         d="M 118.15625 35 L 23.25 35.0625 C 18.205225 35.0655 14.1875 40.40006 14.1875 47.0625 L 14.1875 64.21875 C 10.9939 66.741111 9 70.254864 9 74.1875 L 9 213.09375 C 9 220.7888 16.582 227 26 227 L 230 227 C 239.418 227 247 220.7888 247 213.09375 L 247 101.5625 L 247 84.1875 L 247 74.1875 C 247 67.454333 241.19807 61.884704 233.4375 60.59375 C 231.79538 59.686695 229.98553 59.1875 228.09375 59.1875 L 222.3125 59.1875 L 216.90625 47.5625 C 214.65015 41.60349 211.20103 38.99711 206.15625 39 L 170.5625 39.03125 C 168.78761 37.63514 166.67864 36.998555 164.15625 37 L 124.5625 37.03125 C 122.78903 35.634703 120.67864 34.998555 118.15625 35 z "
         style="fill:none;fill-opacity:1;fill-rule:nonzero;stroke:#000000;display:inline;stroke-opacity:1;stroke-width:18;stroke-miterlimit:4;stroke-dasharray:none;stroke-linejoin:round;opacity:0.05" />
      <path
         style="fill:none;fill-opacity:1;fill-rule:nonzero;stroke:#000000;display:inline;stroke-opacity:1;stroke-width:12;stroke-miterlimit:4;stroke-dasharray:none;stroke-linejoin:round;opacity:0.1"
         d="M 118.15625 35 L 23.25 35.0625 C 18.205225 35.0655 14.1875 40.40006 14.1875 47.0625 L 14.1875 64.21875 C 10.9939 66.741111 9 70.254864 9 74.1875 L 9 213.09375 C 9 220.7888 16.582 227 26 227 L 230 227 C 239.418 227 247 220.7888 247 213.09375 L 247 101.5625 L 247 84.1875 L 247 74.1875 C 247 67.454333 241.19807 61.884704 233.4375 60.59375 C 231.79538 59.686695 229.98553 59.1875 228.09375 59.1875 L 222.3125 59.1875 L 216.90625 47.5625 C 214.65015 41.60349 211.20103 38.99711 206.15625 39 L 170.5625 39.03125 C 168.78761 37.63514 166.67864 36.998555 164.15625 37 L 124.5625 37.03125 C 122.78903 35.634703 120.67864 34.998555 118.15625 35 z "
         transform="translate(0,796.36218)"
         id="path4100" />
      <path
         id="path4089"
         transform="translate(0,796.36218)"
         d="M 118.15625 35 L 23.25 35.0625 C 18.205225 35.0655 14.1875 40.40006 14.1875 47.0625 L 14.1875 64.21875 C 10.9939 66.741111 9 70.254864 9 74.1875 L 9 213.09375 C 9 220.7888 16.582 227 26 227 L 230 227 C 239.418 227 247 220.7888 247 213.09375 L 247 101.5625 L 247 84.1875 L 247 74.1875 C 247 67.454333 241.19807 61.884704 233.4375 60.59375 C 231.79538 59.686695 229.98553 59.1875 228.09375 59.1875 L 222.3125 59.1875 L 216.90625 47.5625 C 214.65015 41.60349 211.20103 38.99711 206.15625 39 L 170.5625 39.03125 C 168.78761 37.63514 166.67864 36.998555 164.15625 37 L 124.5625 37.03125 C 122.78903 35.634703 120.67864 34.998555 118.15625 35 z "
         style="fill:none;fill-opacity:1;fill-rule:nonzero;stroke:#000000;display:inline;stroke-opacity:1;stroke-width:6;stroke-miterlimit:4;stroke-dasharray:none;stroke-linejoin:round;opacity:0.15" />
      <path
         inkscape:connector-curvature="0"
         style="fill:url(#radialGradient4071);fill-opacity:1;fill-rule:nonzero;stroke:none;display:inline"
         d="m 206.15625,835.36218 -94.90625,0.0625 c -5.04477,0.003 -9.0625,5.33756 -9.0625,12 l 0,30.125 0,20.375 103.96875,0 40.84375,0 0,-17.375 c 0,-4.49511 -2.59586,-8.46453 -6.625,-11 -2.24567,-5.93563 -6.89864,-10 -12.28125,-10 l -3.90625,0 -7.28125,-15.625 c -2.2561,-5.95901 -5.70522,-8.56539 -10.75,-8.5625 z"
         id="path4064" />
      <path
         id="path4066"
         d="M 164.15625,833.36218 69.25,833.42468 c -5.04477,0.003 -9.0625,5.33756 -9.0625,12 l 0,30.125 0,20.375 103.96875,0 40.84375,0 0,-17.375 c 0,-4.49511 -2.59586,-8.46453 -6.625,-11 -2.24567,-5.93563 -6.89864,-10 -12.28125,-10 l -3.90625,0 -7.28125,-15.625 c -2.2561,-5.95901 -5.70522,-8.56539 -10.75,-8.5625 z"
         style="fill:url(#radialGradient4068);fill-opacity:1;fill-rule:nonzero;stroke:none;display:inline"
         inkscape:connector-curvature="0" />
      <path
         sodipodi:nodetypes="sscccssccss"
         inkscape:connector-curvature="0"
         id="rect3325"
         d="m 23.264192,831.41645 c -5.044775,0.003 -9.090279,5.3427 -9.090279,12.00514 l 0,30.14326 0,20.35651 227.652177,0 0,-20.35651 c 0,-9.99359 -6.1652,-18.00325 -13.73234,-18.00325 l -91.90175,0 -7.29269,-15.63519 c -2.2561,-5.95901 -5.69955,-8.56714 -10.74433,-8.56425 z"
         style="fill:url(#radialGradient4065);fill-opacity:1;fill-rule:nonzero;stroke:none;display:inline" />
      <rect
         width="238"
         height="166.67976"
         rx="17"
         ry="13.889979"
         x="9"
         y="856.66895"
         id="rect2419"
         style="fill:url(#radialGradient4062);fill-opacity:1;fill-rule:nonzero;stroke:none" />
      <path
         d=""
         inkscape:connector-curvature="0"
         id="path3510"
         style="fill:url(#linearGradient4059)" />
      <path
         style="fill:url(#linearGradient4056)"
         id="path4975"
         inkscape:connector-curvature="0"
         d="" />
      <path
         inkscape:connector-curvature="0"
         id="rect5329"
         d="m 26,856.67164 c -9.418,0 -17,6.17898 -17,13.87402 l 0,2.01347 c 0,-7.69505 7.582,-13.87402 17,-13.87402 l 204,0 c 9.418,0 17,6.17897 17,13.87402 l 0,-2.01347 c 0,-7.69504 -7.582,-13.87402 -17,-13.87402 l -204,0 z"
         style="opacity:0.7;fill:#ffffff;fill-opacity:1;fill-rule:nonzero;stroke:none" />
      <path
         inkscape:connector-curvature="0"
         id="rect5338"
         d="m 9,1007.4298 0,2.0134 c 0,7.6951 7.582,13.9055 17,13.9055 l 204,0 c 9.418,0 17,-6.2104 17,-13.9055 l 0,-2.0134 c 0,7.695 -7.582,13.9055 -17,13.9055 l -204,0 c -9.418,0 -17,-6.2105 -17,-13.9055 z"
         style="opacity:0.7;fill:#000000;fill-opacity:1;fill-rule:nonzero;stroke:none" />
      <path
         inkscape:connector-curvature="0"
         style="opacity:0.3;fill:#000000;fill-opacity:1;fill-rule:nonzero;stroke:none"
         d="m 9,1009.4433 0,2.0134 c 0,7.6951 7.582,13.9055 17,13.9055 l 204,0 c 9.418,0 17,-6.2104 17,-13.9055 l 0,-2.0134 c 0,7.695 -7.582,13.9054 -17,13.9054 l -204,0 c -9.418,0 -17,-6.2104 -17,-13.9054 z"
         id="path5347" />
    </g>
    <g
       transform="matrix(0.45481481,0,0,0.45481481,66.0146,787.36609)"
       style="font-size:40px;font-style:normal;font-weight:normal;line-height:125%;letter-spacing:0px;word-spacing:0px;fill:url(#radialGradient16734);fill-opacity:1;stroke:none;font-family:Sans"
       id="flowRoot4129">
      <path
         d="m -15.53125,138.10932 -3.76,0 0,-12.72 -12.16,0 0,12.72 -3.76,0 0,-28 3.76,0 0,11.76 12.16,0 0,-11.76 3.76,0 0,28"
         style="font-variant:normal;font-stretch:normal;fill:url(#radialGradient16726);font-family:BauhausCTT;-inkscape-font-specification:BauhausCTT"
         id="path16718"
         inkscape:connector-curvature="0" />
      <path
         d="m 17.325625,124.10932 c -3.1e-5,3.97334 -1.453362,7.37334 -4.36,10.2 -2.880023,2.8 -6.2800199,4.2 -10.2,4.2 -3.9200121,0 -7.333342,-1.4 -10.24,-4.2 -2.880003,-2.82666 -4.320001,-6.22666 -4.32,-10.2 -10e-7,-3.97332 1.439997,-7.35998 4.32,-10.16 2.906658,-2.82664 6.3199879,-4.23997 10.24,-4.24 3.9199801,3e-5 7.319977,1.41336 10.2,4.24 2.906638,2.80002 4.359969,6.18668 4.36,10.16 m -3.92,0 c -2.7e-5,-2.98665 -1.026692,-5.54665 -3.08,-7.68 -2.0266882,-2.13331 -4.5466857,-3.19998 -7.56,-3.2 -3.01334632,2e-5 -5.5466771,1.06669 -7.6,3.2 -2.026673,2.13335 -3.0400054,4.69335 -3.04,7.68 -5.4e-6,2.98668 1.013327,5.54667 3.04,7.68 2.0533229,2.13334 4.58665368,3.2 7.6,3.2 3.0133143,0 5.5333118,-1.06666 7.56,-3.2 2.053308,-2.13333 3.079973,-4.69332 3.08,-7.68"
         style="font-variant:normal;font-stretch:normal;fill:url(#radialGradient16728);font-family:BauhausCTT;-inkscape-font-specification:BauhausCTT"
         id="path16720"
         inkscape:connector-curvature="0" />
      <path
         d="m 50.076875,138.10932 -3.92,0 -2.76,-22.72 -6,19.84 c -0.426685,1.41333 -0.853351,2.32 -1.28,2.72 -0.400017,0.37333 -0.946683,0.56 -1.64,0.56 -0.826682,0 -1.453348,-0.30667 -1.88,-0.92 -0.293347,-0.42667 -0.613347,-1.21333 -0.96,-2.36 l -6,-19.84 -2.76,22.72 -3.92,0 3.08,-24.44 c 0.13333,-1.11997 0.37333,-1.95997 0.72,-2.52 0.559995,-0.95997 1.426661,-1.43997 2.6,-1.44 1.013326,3e-5 1.813325,0.41336 2.4,1.24 0.373324,0.50669 0.746657,1.38669 1.12,2.64 l 5.64,18.52 5.56,-18.52 c 0.479978,-1.57331 0.986644,-2.61331 1.52,-3.12 0.53331,-0.50664 1.199976,-0.75997 2,-0.76 1.173307,3e-5 2.039973,0.46669 2.6,1.4 0.319972,0.56003 0.559972,1.41336 0.72,2.56 l 3.16,24.44"
         style="font-variant:normal;font-stretch:normal;fill:url(#radialGradient16730);font-family:BauhausCTT;-inkscape-font-specification:BauhausCTT"
         id="path16722"
         inkscape:connector-curvature="0" />
      <path
         d="m 69.083125,138.10932 -2.8,0 c -4.560012,0 -8.213341,-1.49333 -10.96,-4.48 -2.453336,-2.66666 -3.680001,-5.83999 -3.68,-9.52 -10e-7,-3.67998 1.213331,-6.83998 3.64,-9.48 2.746659,-3.01331 6.439988,-4.51997 11.08,-4.52 l 2.72,0 0,3.52 -2.36,0 c -2.90668,2e-5 -5.386678,0.74669 -7.44,2.24 -2.05334,1.49335 -3.293339,3.49335 -3.72,6 l 13.52,0 0,3.52 -13.52,0 c 0.266661,2.66668 1.359993,4.86667 3.28,6.6 1.919989,1.73334 4.33332,2.6 7.24,2.6 l 3,0 0,3.52"
         style="font-variant:normal;font-stretch:normal;fill:url(#radialGradient16732);font-family:BauhausCTT;-inkscape-font-specification:BauhausCTT"
         id="path16724"
         inkscape:connector-curvature="0" />
    </g>
    <g
       id="layer2"
       style="display:none"
       transform="translate(105.71574,902.87301)">
      <path
         d="M 14.96875,8.8125 C 13.32891,8.8125 12,10.09475 12,11.6875 l 0,7.65625 C 9.6664933,20.164656 8,22.378887 8,25 l 0,5.21875 C 6.2723951,31.312574 5,33.042083 5,35 l 0,51 c 0,3.324 2.676,6 6,6 l 74,0 c 3.324,0 6,-2.676 6,-6 l 0,-51 c 0,-1.940712 -1.275252,-3.654683 -3,-4.75 L 88,25 C 88,21.717446 85.391284,19.06559 82.125,19 81.386647,16.517329 80.495259,14.5625 79.5,14.5625 l -43.34375,0 -1.46875,-2.875 c -0.733359,-1.424599 -1.32891,-2.875 -2.96875,-2.875 l -16.75,0 z"
         inkscape:connector-curvature="0"
         id="rect3745"
         style="opacity:0.9;fill:url(#linearGradient4018);fill-opacity:1;fill-rule:nonzero;stroke:none;filter:url(#filter3174)" />
    </g>
    <g
       transform="matrix(0.47145488,0,0,0.47145488,112.44199,893.76918)"
       id="g5422">
      <path
         inkscape:connector-curvature="0"
         style="opacity:0.05;fill:none;stroke:#000000;stroke-width:18;stroke-linejoin:round;stroke-miterlimit:4;stroke-opacity:1;stroke-dasharray:none"
         d="M 125.90625,13.375 114.71875,24.5625 8.0625,131.1875 19.25,142.375 l 13.84375,-13.84375 0,92.71875 -1.46875,0 0,12.8125 188,0 0,-12.8125 -1,0 0,-92.78125 L 125.90625,35.6875 233.4375,143.25 244.59375,132.09375 186,73.5 l 18.90625,18.71875 0,-59.40625 0,-6.4375 -37.5625,0 0,12.84375 0,15.65625 -30.3125,-30.3125 -11.125,-11.1875 z"
         id="path5420" />
      <path
         inkscape:connector-curvature="0"
         id="path5418"
         d="M 125.90625,13.375 114.71875,24.5625 8.0625,131.1875 19.25,142.375 l 13.84375,-13.84375 0,92.71875 -1.46875,0 0,12.8125 188,0 0,-12.8125 -1,0 0,-92.78125 L 125.90625,35.6875 233.4375,143.25 244.59375,132.09375 186,73.5 l 18.90625,18.71875 0,-59.40625 0,-6.4375 -37.5625,0 0,12.84375 0,15.65625 -30.3125,-30.3125 -11.125,-11.1875 z"
         style="opacity:0.1;fill:none;stroke:#000000;stroke-width:12;stroke-linejoin:round;stroke-miterlimit:4;stroke-opacity:1;stroke-dasharray:none" />
      <path
         inkscape:connector-curvature="0"
         style="opacity:0.15;fill:none;stroke:#000000;stroke-width:6;stroke-linejoin:round;stroke-miterlimit:4;stroke-opacity:1;stroke-dasharray:none"
         d="M 125.90625,13.375 114.71875,24.5625 8.0625,131.1875 19.25,142.375 l 13.84375,-13.84375 0,92.71875 -1.46875,0 0,12.8125 188,0 0,-12.8125 -1,0 0,-92.78125 L 125.90625,35.6875 233.4375,143.25 244.59375,132.09375 186,73.5 l 18.90625,18.71875 0,-59.40625 0,-6.4375 -37.5625,0 0,12.84375 0,15.65625 -30.3125,-30.3125 -11.125,-11.1875 z"
         id="path5361" />
      <g
         id="g5300"
         transform="matrix(1.4725444,0,0,1.4725444,201.80186,21.88521)">
        <path
           inkscape:connector-curvature="0"
           id="rect5076"
           d="m -51.539267,9.3782728 -63.000003,62.9999982 -0.0313,0 0,62.999999 126.000003,0 0,-62.999999 -62.96875,-62.9999982 z"
           style="fill:url(#radialGradient5439);fill-opacity:1;stroke:none;filter:url(#filter5138)" />
        <path
           inkscape:connector-curvature="0"
           id="rect5088"
           d="m -51.539267,-5.7779772 -7.59375,7.59375 -72.437503,72.4062502 7.59375,7.59375 72.437503,-72.4375002 73.03125,73.0312502 7.5625,-7.5625 -73.03125,-73.0312502 -7.5625,-7.59375 z"
           style="fill:#000000;fill-opacity:1;stroke:none" />
        <rect
           style="fill:#000000;fill-opacity:1;stroke:none"
           id="rect5117"
           width="127.66494"
           height="8.7120457"
           x="-115.57057"
           y="135.37827"
           rx="0"
           ry="0" />
        <rect
           ry="0"
           rx="0"
           y="88.467278"
           x="-67.821877"
           height="46.910995"
           width="31.497387"
           id="rect5480"
           style="fill:url(#linearGradient5441);fill-opacity:1;stroke:none;filter:url(#filter5482)" />
        <path
           style="fill:none;stroke:none;filter:url(#filter5138)"
           d="m -51.539267,9.3782728 -63.000003,62.9999982 -0.0313,0 0,62.999999 126.000003,0 0,-62.999999 -62.96875,-62.9999982 z"
           id="path5190"
           inkscape:connector-curvature="0" />
        <path
           inkscape:connector-curvature="0"
           id="path5228"
           d="m -23.405439,7.4140128 0,15.1250022 25.5225775,25.21875 0,-40.3437522 -25.5225775,0 z"
           style="fill:url(#linearGradient5443);fill-opacity:1;stroke:none;filter:url(#filter5142)" />
        <rect
           ry="0"
           rx="0"
           y="3.0579901"
           x="-23.405439"
           height="8.7120457"
           width="25.522577"
           id="rect5260"
           style="fill:#000000;fill-opacity:1;stroke:none" />
        <path
           transform="matrix(0.14507439,0,0,0.14507439,-37.620585,125.1824)"
           d="m -11.372942,-73.341461 c 0,8.636516 -7.00128,15.637796 -15.637796,15.637796 -8.636517,0 -15.637797,-7.00128 -15.637797,-15.637796 0,-8.636517 7.00128,-15.637797 15.637797,-15.637797 8.636516,0 15.637796,7.00128 15.637796,15.637797 z"
           sodipodi:ry="15.637796"
           sodipodi:rx="15.637796"
           sodipodi:cy="-73.341461"
           sodipodi:cx="-27.010738"
           id="path5264"
           style="fill:url(#radialGradient5445);fill-opacity:1;stroke:none;filter:url(#filter5288)"
           sodipodi:type="arc" />
      </g>
      <path
         inkscape:connector-curvature="0"
         style="opacity:0.7;fill:#ffffff;fill-opacity:1;stroke:none"
         d="m 125.90625,13.375 -11.1875,11.1875 -106.65625,106.625 1,1 105.65625,-105.625 11.1875,-11.1875 11.125,11.1875 30.3125,30.3125 0,-2 -30.3125,-30.3125 -11.125,-11.1875 z m 41.4375,13 0,2 37.5625,0 0,-2 -37.5625,0 z M 186,75.5 l 57.59375,57.59375 1,-1 -39.6875,-39.6875 0,1.8125 L 186,75.5 z m -154.375,145.75 0,2 1.46875,0 0,-2 -1.46875,0 z m 187,0 0,2 1,0 0,-2 -1,0 z"
         id="path5398" />
      <path
         inkscape:connector-curvature="0"
         style="opacity:0.7;fill:#000000;fill-opacity:1;stroke:none"
         d="m 125.90625,33.6875 92.71875,92.78125 0,1.96875 14.8125,14.8125 11.15625,-11.15625 -1,-1 L 233.4375,141.25 125.90625,33.6875 z M 186,71.5 l 18.90625,18.90625 0,-0.1875 L 186,71.5 z M 33.09375,126.53125 19.25,140.375 9.0625,130.1875 l -1,1 11.1875,11.1875 13.84375,-13.84375 0,-2 z M 31.625,232.0625 l 0,2 188,0 0,-2 -188,0 z"
         id="path5407" />
      <path
         id="path5416"
         d="m 125.90625,35.6875 92.71875,92.78125 0,1.96875 14.8125,14.8125 11.15625,-11.15625 -1,-1 L 233.4375,143.25 125.90625,35.6875 z M 186,73.5 l 18.90625,18.90625 0,-0.1875 L 186,73.5 z M 33.09375,128.53125 19.25,142.375 9.0625,132.1875 l -1,1 11.1875,11.1875 13.84375,-13.84375 0,-2 z M 31.625,234.0625 l 0,2 188,0 0,-2 -188,0 z"
         style="opacity:0.3;fill:#000000;fill-opacity:1;stroke:none"
         inkscape:connector-curvature="0" />
    </g>
  </g>
</svg>
