<?xml version="1.0" encoding="UTF-8" standalone="no"?>
<!-- Created with Inkscape (http://www.inkscape.org/) -->

<svg
   xmlns:dc="http://purl.org/dc/elements/1.1/"
   xmlns:cc="http://creativecommons.org/ns#"
   xmlns:rdf="http://www.w3.org/1999/02/22-rdf-syntax-ns#"
   xmlns:svg="http://www.w3.org/2000/svg"
   xmlns="http://www.w3.org/2000/svg"
   xmlns:xlink="http://www.w3.org/1999/xlink"
   xmlns:sodipodi="http://sodipodi.sourceforge.net/DTD/sodipodi-0.dtd"
   xmlns:inkscape="http://www.inkscape.org/namespaces/inkscape"
   width="256"
   height="256"
   id="svg4828"
   version="1.1"
   inkscape:version="0.48.3.1 r9886"
   sodipodi:docname="folder-bookmark.svg">
  <defs
     id="defs4830">
    <linearGradient
       id="linearGradient4080">
      <stop
         style="stop-color:#7c7c7c;stop-opacity:1;"
         offset="0"
         id="stop4082" />
      <stop
         style="stop-color:#1a1a1a;stop-opacity:1;"
         offset="1"
         id="stop4084" />
    </linearGradient>
    <linearGradient
       gradientTransform="matrix(1,0,0,-1,-270.96,-122.0747)"
       gradientUnits="userSpaceOnUse"
       id="linearGradient4074"
       y2="-167.532"
       x2="206.6895"
       y1="-167.532"
       x1="206.6895">
      <stop
         offset="0"
         style="stop-color:#f589b1;stop-opacity:1;"
         id="stop4076" />
      <stop
         offset="1"
         style="stop-color:#ed4c85;stop-opacity:1;"
         id="stop4078" />
    </linearGradient>
    <linearGradient
       gradientTransform="matrix(1,0,0,-1,-270.96,-122.0747)"
       gradientUnits="userSpaceOnUse"
       id="linearGradient4068"
       y2="-167.532"
       x2="206.6895"
       y1="-167.532"
       x1="206.6895">
      <stop
         offset="0"
         style="stop-color:#a4dfff;stop-opacity:1;"
         id="stop4070" />
      <stop
         offset="1"
         style="stop-color:#7cbeda;stop-opacity:1;"
         id="stop4072" />
    </linearGradient>
    <linearGradient
       gradientTransform="matrix(1,0,0,-1,-270.96,-122.0747)"
       gradientUnits="userSpaceOnUse"
       id="linearGradient4115"
       y2="-167.532"
       x2="206.6895"
       y1="-167.532"
       x1="206.6895">
      <stop
         offset="0"
         style="stop-color:#ffffff;stop-opacity:1;"
         id="stop4117" />
      <stop
         offset="1"
         style="stop-color:#e7e7e7;stop-opacity:1;"
         id="stop4119" />
    </linearGradient>
    <linearGradient
       x1="45.447727"
       y1="80.471962"
       x2="45.447727"
       y2="7.0165396"
       id="ButtonShadow"
       gradientUnits="userSpaceOnUse"
       gradientTransform="matrix(1.0058652,0,0,0.994169,0,12)">
      <stop
         id="stop3750"
         style="stop-color:#000000;stop-opacity:1"
         offset="0" />
      <stop
         id="stop3752"
         style="stop-color:#000000;stop-opacity:0.58823532"
         offset="1" />
    </linearGradient>
    <filter
       color-interpolation-filters="sRGB"
       id="filter3174">
      <feGaussianBlur
         id="feGaussianBlur3176"
         stdDeviation="1.71" />
    </filter>
    <linearGradient
       x1="45.447727"
       y1="80.471962"
       x2="45.447727"
       y2="5.297224"
       id="linearGradient4018"
       xlink:href="#ButtonShadow"
       gradientUnits="userSpaceOnUse"
       gradientTransform="matrix(1.0058652,0,0,0.994169,0,12)" />
    <linearGradient
       x1="206.6895"
       y1="-167.532"
       x2="206.6895"
       y2="-167.532"
       id="SVGID_14_"
       gradientUnits="userSpaceOnUse"
       gradientTransform="matrix(1,0,0,-1,-270.96,-122.0747)">
      <stop
         id="stop3506"
         style="stop-color:#ffffff;stop-opacity:1;"
         offset="0" />
      <stop
         id="stop3508"
         style="stop-color:#d2d2d2;stop-opacity:1;"
         offset="1" />
    </linearGradient>
    <linearGradient
       inkscape:collect="always"
       xlink:href="#SVGID_14_"
       id="linearGradient4056"
       gradientUnits="userSpaceOnUse"
       gradientTransform="matrix(0.96331631,0,0,-1.1526189,-227.12417,799.31305)"
       x1="206.6895"
       y1="-167.532"
       x2="206.6895"
       y2="-167.532" />
    <linearGradient
       inkscape:collect="always"
       xlink:href="#SVGID_14_"
       id="linearGradient4059"
       gradientUnits="userSpaceOnUse"
       gradientTransform="matrix(0.96331631,0,0,-1.1526189,-227.12417,799.31305)"
       x1="206.6895"
       y1="-167.532"
       x2="206.6895"
       y2="-167.532" />
    <radialGradient
       inkscape:collect="always"
       xlink:href="#SVGID_14_"
       id="radialGradient4062"
       gradientUnits="userSpaceOnUse"
       gradientTransform="matrix(-3.2665224,1.9765593,-0.62389445,-1.0970731,1065.726,1555.0761)"
       cx="91.957275"
       cy="830.82245"
       fx="91.957275"
       fy="830.82245"
       r="113.48638" />
    <radialGradient
       inkscape:collect="always"
       xlink:href="#linearGradient4080"
       id="radialGradient4065"
       gradientUnits="userSpaceOnUse"
       gradientTransform="matrix(-0.09124159,0.27878234,-0.84036662,-0.27504034,753.17319,1002.727)"
       cx="118.15499"
       cy="742.81573"
       fx="118.15499"
       fy="742.81573"
       r="113.82609" />
    <radialGradient
       inkscape:collect="always"
       xlink:href="#linearGradient4068"
       id="radialGradient4068"
       gradientUnits="userSpaceOnUse"
       gradientTransform="matrix(-0.22652403,0.27897352,-1.7437629,-1.41592,188.73245,759.35025)"
       cx="206.54669"
       cy="-12.988635"
       fx="206.54669"
       fy="-12.988635"
       r="72.40625" />
    <radialGradient
       inkscape:collect="always"
       xlink:href="#linearGradient4074"
       id="radialGradient4071"
       gradientUnits="userSpaceOnUse"
       gradientTransform="matrix(-0.20571702,0.27897354,-1.8078509,-1.3331217,226.64591,761.68593)"
       cx="206.15625"
       cy="-12.124999"
       fx="206.15625"
       fy="-12.124999"
       r="72.40625" />
    <radialGradient
       inkscape:collect="always"
       xlink:href="#linearGradient4115"
       id="radialGradient10341"
       cx="28.441875"
       cy="124.10932"
       fx="28.441875"
       fy="124.10932"
       r="63.653126"
       gradientTransform="matrix(1,0,0,0.22622613,0,96.032549)"
       gradientUnits="userSpaceOnUse" />
    <radialGradient
       inkscape:collect="always"
       xlink:href="#linearGradient4115"
       id="radialGradient3295"
       gradientUnits="userSpaceOnUse"
       gradientTransform="matrix(1,0,0,0.22622613,0,96.032549)"
       cx="28.441875"
       cy="124.10932"
       fx="28.441875"
       fy="124.10932"
       r="63.653126" />
    <linearGradient
       id="linearGradient3179">
      <stop
         id="stop3181"
         style="stop-color:#000000;stop-opacity:0.56910568"
         offset="0" />
      <stop
         id="stop3187"
         style="stop-color:#000000;stop-opacity:0"
         offset="0.07017544" />
      <stop
         id="stop3194"
         style="stop-color:#750202;stop-opacity:0.09019608"
         offset="0.20271669" />
      <stop
         id="stop3200"
         style="stop-color:#e47b04;stop-opacity:0.13725491"
         offset="0.26648945" />
      <stop
         id="stop3190"
         style="stop-color:#ffc906;stop-opacity:0.18431373"
         offset="0.35024518" />
      <stop
         id="stop3198"
         style="stop-color:#b76403;stop-opacity:0.13725489"
         offset="0.43899667" />
      <stop
         id="stop3192"
         style="stop-color:#700000;stop-opacity:0.09019608"
         offset="0.49777371" />
      <stop
         id="stop3196"
         style="stop-color:#fda100;stop-opacity:0.19215687"
         offset="0.65896344" />
      <stop
         id="stop3183"
         style="stop-color:#7c0000;stop-opacity:0.60975611"
         offset="1" />
    </linearGradient>
    <linearGradient
       inkscape:collect="always"
       xlink:href="#linearGradient3179"
       id="linearGradient3882"
       gradientUnits="userSpaceOnUse"
       gradientTransform="matrix(0.7053571,0,0,0.7053571,34.928572,14.589287)"
       x1="45.5"
       y1="0.48100731"
       x2="45.5"
       y2="96.024994" />
    <radialGradient
       inkscape:collect="always"
       xlink:href="#linearGradient4115"
       id="radialGradient3884"
       gradientUnits="userSpaceOnUse"
       gradientTransform="matrix(1,0,0,0.22622613,0,96.032549)"
       cx="28.441875"
       cy="124.10932"
       fx="28.441875"
       fy="124.10932"
       r="63.653126" />
    <radialGradient
       inkscape:collect="always"
       xlink:href="#linearGradient4115"
       id="radialGradient3886"
       gradientUnits="userSpaceOnUse"
       gradientTransform="matrix(1,0,0,0.22622613,0,96.032549)"
       cx="28.441875"
       cy="124.10932"
       fx="28.441875"
       fy="124.10932"
       r="63.653126" />
  </defs>
  <sodipodi:namedview
     id="base"
     pagecolor="#ffffff"
     bordercolor="#666666"
     borderopacity="1.0"
     inkscape:pageopacity="0.0"
     inkscape:pageshadow="2"
     inkscape:zoom="1.4648438"
     inkscape:cx="128"
     inkscape:cy="128"
     inkscape:document-units="px"
     inkscape:current-layer="layer1"
     showgrid="false"
     inkscape:window-width="1024"
     inkscape:window-height="545"
     inkscape:window-x="-2"
     inkscape:window-y="32"
     inkscape:window-maximized="1"
     inkscape:snap-page="true"
     inkscape:snap-global="true"
     inkscape:snap-center="true"
     inkscape:snap-to-guides="true"
     inkscape:snap-bbox="true"
     inkscape:bbox-paths="true"
     inkscape:bbox-nodes="true"
     inkscape:snap-bbox-edge-midpoints="true"
     inkscape:snap-bbox-midpoints="true"
     inkscape:object-paths="true"
     inkscape:snap-intersection-paths="true"
     inkscape:object-nodes="true"
     inkscape:snap-smooth-nodes="true"
     inkscape:snap-midpoints="true"
     inkscape:snap-object-midpoints="true"
     showguides="true"
     inkscape:guide-bbox="true" />
  <metadata
     id="metadata4833">
    <rdf:RDF>
      <cc:Work
         rdf:about="">
        <dc:format>image/svg+xml</dc:format>
        <dc:type
           rdf:resource="http://purl.org/dc/dcmitype/StillImage" />
        <dc:title></dc:title>
      </cc:Work>
    </rdf:RDF>
  </metadata>
  <g
     inkscape:label="Layer 1"
     inkscape:groupmode="layer"
     id="layer1"
     transform="translate(0,-796.36218)">
    <g
       id="g4104">
      <path
         id="path4102"
         transform="translate(0,796.36218)"
         d="M 118.15625 35 L 23.25 35.0625 C 18.205225 35.0655 14.1875 40.40006 14.1875 47.0625 L 14.1875 64.21875 C 10.9939 66.741111 9 70.254864 9 74.1875 L 9 213.09375 C 9 220.7888 16.582 227 26 227 L 230 227 C 239.418 227 247 220.7888 247 213.09375 L 247 101.5625 L 247 84.1875 L 247 74.1875 C 247 67.454333 241.19807 61.884704 233.4375 60.59375 C 231.79538 59.686695 229.98553 59.1875 228.09375 59.1875 L 222.3125 59.1875 L 216.90625 47.5625 C 214.65015 41.60349 211.20103 38.99711 206.15625 39 L 170.5625 39.03125 C 168.78761 37.63514 166.67864 36.998555 164.15625 37 L 124.5625 37.03125 C 122.78903 35.634703 120.67864 34.998555 118.15625 35 z "
         style="fill:none;fill-opacity:1;fill-rule:nonzero;stroke:#000000;display:inline;stroke-opacity:1;stroke-width:18;stroke-miterlimit:4;stroke-dasharray:none;stroke-linejoin:round;opacity:0.05" />
      <path
         style="fill:none;fill-opacity:1;fill-rule:nonzero;stroke:#000000;display:inline;stroke-opacity:1;stroke-width:12;stroke-miterlimit:4;stroke-dasharray:none;stroke-linejoin:round;opacity:0.1"
         d="M 118.15625 35 L 23.25 35.0625 C 18.205225 35.0655 14.1875 40.40006 14.1875 47.0625 L 14.1875 64.21875 C 10.9939 66.741111 9 70.254864 9 74.1875 L 9 213.09375 C 9 220.7888 16.582 227 26 227 L 230 227 C 239.418 227 247 220.7888 247 213.09375 L 247 101.5625 L 247 84.1875 L 247 74.1875 C 247 67.454333 241.19807 61.884704 233.4375 60.59375 C 231.79538 59.686695 229.98553 59.1875 228.09375 59.1875 L 222.3125 59.1875 L 216.90625 47.5625 C 214.65015 41.60349 211.20103 38.99711 206.15625 39 L 170.5625 39.03125 C 168.78761 37.63514 166.67864 36.998555 164.15625 37 L 124.5625 37.03125 C 122.78903 35.634703 120.67864 34.998555 118.15625 35 z "
         transform="translate(0,796.36218)"
         id="path4100" />
      <path
         id="path4089"
         transform="translate(0,796.36218)"
         d="M 118.15625 35 L 23.25 35.0625 C 18.205225 35.0655 14.1875 40.40006 14.1875 47.0625 L 14.1875 64.21875 C 10.9939 66.741111 9 70.254864 9 74.1875 L 9 213.09375 C 9 220.7888 16.582 227 26 227 L 230 227 C 239.418 227 247 220.7888 247 213.09375 L 247 101.5625 L 247 84.1875 L 247 74.1875 C 247 67.454333 241.19807 61.884704 233.4375 60.59375 C 231.79538 59.686695 229.98553 59.1875 228.09375 59.1875 L 222.3125 59.1875 L 216.90625 47.5625 C 214.65015 41.60349 211.20103 38.99711 206.15625 39 L 170.5625 39.03125 C 168.78761 37.63514 166.67864 36.998555 164.15625 37 L 124.5625 37.03125 C 122.78903 35.634703 120.67864 34.998555 118.15625 35 z "
         style="fill:none;fill-opacity:1;fill-rule:nonzero;stroke:#000000;display:inline;stroke-opacity:1;stroke-width:6;stroke-miterlimit:4;stroke-dasharray:none;stroke-linejoin:round;opacity:0.15" />
      <path
         inkscape:connector-curvature="0"
         style="fill:url(#radialGradient4071);fill-opacity:1;fill-rule:nonzero;stroke:none;display:inline"
         d="m 206.15625,835.36218 -94.90625,0.0625 c -5.04477,0.003 -9.0625,5.33756 -9.0625,12 l 0,30.125 0,20.375 103.96875,0 40.84375,0 0,-17.375 c 0,-4.49511 -2.59586,-8.46453 -6.625,-11 -2.24567,-5.93563 -6.89864,-10 -12.28125,-10 l -3.90625,0 -7.28125,-15.625 c -2.2561,-5.95901 -5.70522,-8.56539 -10.75,-8.5625 z"
         id="path4064" />
      <path
         id="path4066"
         d="M 164.15625,833.36218 69.25,833.42468 c -5.04477,0.003 -9.0625,5.33756 -9.0625,12 l 0,30.125 0,20.375 103.96875,0 40.84375,0 0,-17.375 c 0,-4.49511 -2.59586,-8.46453 -6.625,-11 -2.24567,-5.93563 -6.89864,-10 -12.28125,-10 l -3.90625,0 -7.28125,-15.625 c -2.2561,-5.95901 -5.70522,-8.56539 -10.75,-8.5625 z"
         style="fill:url(#radialGradient4068);fill-opacity:1;fill-rule:nonzero;stroke:none;display:inline"
         inkscape:connector-curvature="0" />
      <path
         sodipodi:nodetypes="sscccssccss"
         inkscape:connector-curvature="0"
         id="rect3325"
         d="m 23.264192,831.41645 c -5.044775,0.003 -9.090279,5.3427 -9.090279,12.00514 l 0,30.14326 0,20.35651 227.652177,0 0,-20.35651 c 0,-9.99359 -6.1652,-18.00325 -13.73234,-18.00325 l -91.90175,0 -7.29269,-15.63519 c -2.2561,-5.95901 -5.69955,-8.56714 -10.74433,-8.56425 z"
         style="fill:url(#radialGradient4065);fill-opacity:1;fill-rule:nonzero;stroke:none;display:inline" />
      <rect
         width="238"
         height="166.67976"
         rx="17"
         ry="13.889979"
         x="9"
         y="856.66895"
         id="rect2419"
         style="fill:url(#radialGradient4062);fill-opacity:1;fill-rule:nonzero;stroke:none" />
      <path
         d=""
         inkscape:connector-curvature="0"
         id="path3510"
         style="fill:url(#linearGradient4059)" />
      <path
         style="fill:url(#linearGradient4056)"
         id="path4975"
         inkscape:connector-curvature="0"
         d="" />
      <path
         inkscape:connector-curvature="0"
         id="rect5329"
         d="m 26,856.67164 c -9.418,0 -17,6.17898 -17,13.87402 l 0,2.01347 c 0,-7.69505 7.582,-13.87402 17,-13.87402 l 204,0 c 9.418,0 17,6.17897 17,13.87402 l 0,-2.01347 c 0,-7.69504 -7.582,-13.87402 -17,-13.87402 l -204,0 z"
         style="opacity:0.7;fill:#ffffff;fill-opacity:1;fill-rule:nonzero;stroke:none" />
      <path
         inkscape:connector-curvature="0"
         id="rect5338"
         d="m 9,1007.4298 0,2.0134 c 0,7.6951 7.582,13.9055 17,13.9055 l 204,0 c 9.418,0 17,-6.2104 17,-13.9055 l 0,-2.0134 c 0,7.695 -7.582,13.9055 -17,13.9055 l -204,0 c -9.418,0 -17,-6.2105 -17,-13.9055 z"
         style="opacity:0.7;fill:#000000;fill-opacity:1;fill-rule:nonzero;stroke:none" />
      <path
         inkscape:connector-curvature="0"
         style="opacity:0.3;fill:#000000;fill-opacity:1;fill-rule:nonzero;stroke:none"
         d="m 9,1009.4433 0,2.0134 c 0,7.6951 7.582,13.9055 17,13.9055 l 204,0 c 9.418,0 17,-6.2104 17,-13.9055 l 0,-2.0134 c 0,7.695 -7.582,13.9054 -17,13.9054 l -204,0 c -9.418,0 -17,-6.2104 -17,-13.9054 z"
         id="path5347" />
    </g>
    <g
       transform="matrix(0.45481481,0,0,0.45481481,40.014598,787.36609)"
       style="font-size:40px;font-style:normal;font-weight:normal;line-height:125%;letter-spacing:0px;word-spacing:0px;fill:url(#radialGradient3886);fill-opacity:1;stroke:none;font-family:Sans"
       id="flowRoot4129">
      <path
         d="m -15.97125,130.18932 c -2.2e-5,2.21334 -0.666688,4.02667 -2,5.44 -1.573351,1.65333 -3.920016,2.48 -7.04,2.48 l -5,0 0,-3.52 4.8,0 c 1.439986,0 2.533318,-0.17333 3.28,-0.52 1.46665,-0.69333 2.199982,-2.05333 2.2,-4.08 -1.8e-5,-1.41332 -0.466684,-2.53332 -1.4,-3.36 -0.933349,-0.82665 -2.173348,-1.23999 -3.72,-1.24 l -5.16,0 0,-3.52 3.76,0 c 1.439987,2e-5 2.666653,-0.35998 3.68,-1.08 1.039984,-0.71998 1.559983,-1.74665 1.56,-3.08 -1.7e-5,-1.22665 -0.413349,-2.25331 -1.24,-3.08 -0.933348,-0.93331 -2.18668,-1.39998 -3.76,-1.4 -1.493343,2e-5 -2.746675,0.46669 -3.76,1.4 -1.146673,1.06669 -1.720006,2.56002 -1.72,4.48 l 0.04,19 -3.76,0 0.04,-19.08 c -2e-6,-2.77331 0.826663,-5.01331 2.48,-6.72 1.679993,-1.73331 3.799991,-2.59997 6.36,-2.6 2.879986,3e-5 5.159984,0.84003 6.84,2.52 1.493314,1.49336 2.23998,3.29336 2.24,5.4 -2e-5,1.46669 -0.28002,2.66668 -0.84,3.6 -0.426686,0.74668 -1.093352,1.37335 -2,1.88 1.306648,0.66668 2.31998,1.62668 3.04,2.88 0.719979,1.22668 1.079978,2.62668 1.08,4.2"
         style="font-variant:normal;font-stretch:normal;fill:url(#radialGradient3884);font-family:BauhausCTT;-inkscape-font-specification:BauhausCTT"
         id="path3889" />
      <path
         d="m 16.15375,124.10932 c -3.1e-5,3.97334 -1.453362,7.37334 -4.36,10.2 -2.8800233,2.8 -6.2800199,4.2 -10.2,4.2 -3.9200121,0 -7.333342,-1.4 -10.24,-4.2 -2.880003,-2.82666 -4.320001,-6.22666 -4.32,-10.2 -10e-7,-3.97332 1.439997,-7.35998 4.32,-10.16 2.906658,-2.82664 6.3199879,-4.23997 10.24,-4.24 3.9199801,3e-5 7.3199767,1.41336 10.2,4.24 2.906638,2.80002 4.359969,6.18668 4.36,10.16 m -3.92,0 c -2.7e-5,-2.98665 -1.026692,-5.54665 -3.08,-7.68 -2.0266882,-2.13331 -4.5466857,-3.19998 -7.56,-3.2 -3.0133463,2e-5 -5.5466771,1.06669 -7.6,3.2 -2.026673,2.13335 -3.0400054,4.69335 -3.04,7.68 -5.4e-6,2.98668 1.013327,5.54667 3.04,7.68 2.0533229,2.13334 4.5866537,3.2 7.6,3.2 3.0133143,0 5.5333118,-1.06666 7.56,-3.2 2.053308,-2.13333 3.079973,-4.69332 3.08,-7.68"
         style="font-variant:normal;font-stretch:normal;fill:url(#radialGradient3884);font-family:BauhausCTT;-inkscape-font-specification:BauhausCTT"
         id="path3891" />
      <path
         d="m 48.185,124.10932 c -3.1e-5,3.97334 -1.453362,7.37334 -4.36,10.2 -2.880023,2.8 -6.28002,4.2 -10.2,4.2 -3.920012,0 -7.333342,-1.4 -10.24,-4.2 -2.880003,-2.82666 -4.320001,-6.22666 -4.32,-10.2 -1e-6,-3.97332 1.439997,-7.35998 4.32,-10.16 2.906658,-2.82664 6.319988,-4.23997 10.24,-4.24 3.91998,3e-5 7.319977,1.41336 10.2,4.24 2.906638,2.80002 4.359969,6.18668 4.36,10.16 m -3.92,0 c -2.7e-5,-2.98665 -1.026692,-5.54665 -3.08,-7.68 -2.026688,-2.13331 -4.546686,-3.19998 -7.56,-3.2 -3.013346,2e-5 -5.546677,1.06669 -7.6,3.2 -2.026673,2.13335 -3.040005,4.69335 -3.04,7.68 -5e-6,2.98668 1.013327,5.54667 3.04,7.68 2.053323,2.13334 4.586654,3.2 7.6,3.2 3.013314,0 5.533312,-1.06666 7.56,-3.2 2.053308,-2.13333 3.079973,-4.69332 3.08,-7.68"
         style="font-variant:normal;font-stretch:normal;fill:url(#radialGradient3884);font-family:BauhausCTT;-inkscape-font-specification:BauhausCTT"
         id="path3893" />
      <path
         d="m 71.25625,110.10932 -3.12,6.84 c -0.773351,1.68002 -1.386684,2.86668 -1.84,3.56 -0.533349,0.82668 -1.200015,1.52002 -2,2.08 1.519984,0.32001 2.733316,0.98668 3.64,2 1.306647,1.46668 1.95998,3.58668 1.96,6.36 l 0,7.16 -3.76,0 0,-7.2 c -1.6e-5,-1.51999 -0.21335,-2.66666 -0.64,-3.44 -0.746682,-1.38665 -2.160014,-2.07999 -4.24,-2.08 l -5.52,0 0,12.72 -3.76,0 0,-28 3.76,0 0,11.76 2.52,0 c 1.173324,2e-5 2.119989,-0.22665 2.84,-0.68 0.906654,-0.55998 1.706654,-1.61332 2.4,-3.16 l 3.56,-7.92 4.2,0"
         style="font-variant:normal;font-stretch:normal;fill:url(#radialGradient3884);font-family:BauhausCTT;-inkscape-font-specification:BauhausCTT"
         id="path3895" />
      <path
         d="m 103.98313,138.10932 -3.92,0 -2.760005,-22.72 -6,19.84 c -0.426685,1.41333 -0.853351,2.32 -1.28,2.72 -0.400017,0.37333 -0.946683,0.56 -1.64,0.56 -0.826682,0 -1.453348,-0.30667 -1.88,-0.92 -0.293347,-0.42667 -0.613347,-1.21333 -0.96,-2.36 l -6,-19.84 -2.76,22.72 -3.92,0 3.08,-24.44 c 0.13333,-1.11997 0.37333,-1.95997 0.72,-2.52 0.559995,-0.95997 1.426661,-1.43997 2.6,-1.44 1.013326,3e-5 1.813325,0.41336 2.4,1.24 0.373324,0.50669 0.746657,1.38669 1.12,2.64 l 5.64,18.52 5.56,-18.52 c 0.479978,-1.57331 0.986644,-2.61331 1.52,-3.12 0.53331,-0.50664 1.199976,-0.75997 2,-0.76 1.173307,3e-5 2.039973,0.46669 2.600005,1.4 0.31997,0.56003 0.55997,1.41336 0.72,2.56 l 3.16,24.44"
         style="font-variant:normal;font-stretch:normal;fill:url(#radialGradient3884);font-family:BauhausCTT;-inkscape-font-specification:BauhausCTT"
         id="path3897" />
      <path
         d="m 125.54937,138.10932 -3.75999,0 0,-12.72 -10.16001,0 0,-3.52 10.16001,0 0,-1.44 c -2e-5,-2.18665 -0.52002,-3.93331 -1.56,-5.24 -1.04002,-1.30664 -2.45335,-1.95998 -4.24001,-1.96 -1.57334,2e-5 -2.88,0.53336 -3.92,1.6 -1.25334,1.28002 -1.88,3.14669 -1.88,5.6 l 0,17.68 -3.76,0 0,-18 c 0,-2.90665 0.88,-5.35998 2.64,-7.36 1.78666,-2.02664 4.09333,-3.03997 6.92,-3.04 2.79999,3e-5 5.09332,1.01336 6.88001,3.04 1.78664,2.02669 2.67997,4.48002 2.67999,7.36 l 0,18"
         style="font-variant:normal;font-stretch:normal;fill:url(#radialGradient3884);font-family:BauhausCTT;-inkscape-font-specification:BauhausCTT"
         id="path3899" />
      <path
         d="m 148.57937,138.10932 -3.76,0 0,-7.4 c -1e-5,-1.97332 -0.58668,-3.34666 -1.76,-4.12 -0.74668,-0.47999 -1.76001,-0.71999 -3.04,-0.72 l -4.64,0 0,-3.52 3.16,0 c 2.02666,2e-5 3.54666,-0.49332 4.56,-1.48 0.82666,-0.79998 1.23999,-1.82665 1.24,-3.08 -1e-5,-1.11998 -0.30668,-2.06664 -0.92,-2.84 -0.45334,-0.55998 -1.01334,-0.98664 -1.68,-1.28 -0.66667,-0.29331 -1.42667,-0.43998 -2.28,-0.44 -0.66667,2e-5 -1.13334,0.0267 -1.4,0.08 -0.24,0.0534 -0.57334,0.18669 -1,0.4 -1.36,0.61336 -2.26667,1.64002 -2.72,3.08 -0.26667,0.82669 -0.4,2.05335 -0.4,3.68 l 0,17.64 -3.76,0 0,-17.72 c 0,-2.07998 0.2,-3.71998 0.6,-4.92 0.64,-1.91998 1.85333,-3.42664 3.64,-4.52 0.69333,-0.42664 1.46666,-0.73331 2.32,-0.92 0.88,-0.21331 1.78666,-0.31997 2.72,-0.32 1.70666,3e-5 3.27999,0.40003 4.72,1.2 1.11999,0.64003 2.01332,1.45336 2.68,2.44 0.82665,1.22669 1.23998,2.66669 1.24,4.32 -2e-5,1.04002 -0.14668,1.97335 -0.44,2.8 -0.50668,1.44002 -1.44001,2.56001 -2.8,3.36 1.54665,0.58668 2.59999,1.54668 3.16,2.88 0.37332,0.90668 0.55998,2.24001 0.56,4 l 0,7.4"
         style="font-variant:normal;font-stretch:normal;fill:url(#radialGradient3884);font-family:BauhausCTT;-inkscape-font-specification:BauhausCTT"
         id="path3901" />
      <path
         d="m 171.64687,110.10932 -3.12,6.84 c -0.77335,1.68002 -1.38668,2.86668 -1.83999,3.56 -0.53335,0.82668 -1.20002,1.52002 -2.00001,2.08 1.51999,0.32001 2.73332,0.98668 3.64,2 1.30665,1.46668 1.95998,3.58668 1.96,6.36 l 0,7.16 -3.76,0 0,-7.2 c -1e-5,-1.51999 -0.21334,-2.66666 -0.64,-3.44 -0.74668,-1.38665 -2.16001,-2.07999 -4.24,-2.08 l -5.52,0 0,12.72 -3.76,0 0,-28 3.76,0 0,11.76 2.52,0 c 1.17333,2e-5 2.11999,-0.22665 2.84,-0.68 0.90666,-0.55998 1.70666,-1.61332 2.4,-3.16 l 3.56,-7.92 4.2,0"
         style="font-variant:normal;font-stretch:normal;fill:url(#radialGradient3884);font-family:BauhausCTT;-inkscape-font-specification:BauhausCTT"
         id="path3903" />
    </g>
    <g
       id="layer2"
       style="display:none"
       transform="translate(105.71574,902.87301)">
      <path
         d="M 14.96875,8.8125 C 13.32891,8.8125 12,10.09475 12,11.6875 l 0,7.65625 C 9.6664933,20.164656 8,22.378887 8,25 l 0,5.21875 C 6.2723951,31.312574 5,33.042083 5,35 l 0,51 c 0,3.324 2.676,6 6,6 l 74,0 c 3.324,0 6,-2.676 6,-6 l 0,-51 c 0,-1.940712 -1.275252,-3.654683 -3,-4.75 L 88,25 C 88,21.717446 85.391284,19.06559 82.125,19 81.386647,16.517329 80.495259,14.5625 79.5,14.5625 l -43.34375,0 -1.46875,-2.875 c -0.733359,-1.424599 -1.32891,-2.875 -2.96875,-2.875 l -16.75,0 z"
         inkscape:connector-curvature="0"
         id="rect3745"
         style="opacity:0.9;fill:url(#linearGradient4018);fill-opacity:1;fill-rule:nonzero;stroke:none;filter:url(#filter3174)" />
    </g>
    <g
       id="layer6"
       transform="matrix(1.9259254,0,0,1.9517398,73.509285,821.10788)">
      <path
         inkscape:connector-curvature="0"
         d="m 77.78125,13.96875 c -0.270091,-0.01036 -0.558698,-0.0048 -0.875,0.03125 -0.04514,0.0051 -0.07898,-0.0068 -0.125,0 l -22.875,0 A 0.94004249,0.94004249 0 0 0 53.75,14 c -0.08984,0.01423 -0.120369,0.04227 -0.1875,0.0625 l -0.5625,0 c -2.166473,0 -3.9375,1.771027 -3.9375,3.9375 l 0,0.03125 A 0.94004249,0.94004249 0 0 0 50,18.96875 l 2.8125,0 c 0.249076,0.17452 0.441516,0.298856 0.59375,0.34375 l 0,63.71875 c -0.0411,2.60924 3.725096,3.563855 5,1.34375 L 58.4375,84.40625 58.5,84.3125 68.09375,70.75 c 3.356911,4.701517 6.65743,9.468984 10.09375,14.125 A 0.94004249,0.94004249 0 0 0 78.28125,85 c 1.748203,1.702311 4.750796,0.02545 4.5,-2.3125 l 0.03125,0 c -3.3e-5,-0.05208 3.3e-5,-0.10417 0,-0.15625 -0.01346,-21.373809 0.01674,-42.748507 -0.03125,-64.125 a 0.94004249,0.94004249 0 0 0 0,-0.0625 c -0.20656,-2.660968 -2.628403,-4.284103 -5,-4.375 z"
         id="path3859"
         style="opacity:0.05;fill:#000000;fill-opacity:1;stroke:none;display:inline" />
      <path
         d="m 53.90625,14.937501 c -1.315993,0.208508 -0.836624,1.8334 -0.888317,2.759534 0.05117,1.001443 1.644718,0.517651 1.325817,1.568763 0,21.25515 0,42.510301 0,63.765452 -0.02695,1.711107 2.525254,2.369215 3.306059,0.845429 3.481314,-4.917226 6.962627,-9.834453 10.443941,-14.751679 3.626016,5.049757 7.162777,10.199994 10.84375,15.1875 1.150285,1.120089 3.208531,-0.06181 2.9375,-1.614698 -0.01371,-21.427172 0.02747,-42.85577 -0.02063,-64.282048 -0.188199,-2.424435 -2.703064,-3.810081 -4.943316,-3.478253 -7.668269,0 -15.336539,0 -23.004808,0 z"
         inkscape:connector-curvature="0"
         id="path3850-4"
         style="opacity:0.1;fill:#000000;fill-opacity:1;stroke:none;display:inline" />
      <path
         d="m 54,16.705358 c 1.172304,0 2.116071,0.943768 2.116071,2.116072 l 0,50.080353 0,14.107142 11.991071,-16.928571 11.991071,16.928571 0,-2.116072 0,-11.99107 0,-50.080353 c 0,-1.172304 -0.943768,-2.116072 -2.116072,-2.116072 l -23.982141,0 z"
         inkscape:connector-curvature="0"
         id="path3202"
         style="opacity:0.3;fill:#000000;fill-opacity:1;stroke:none;display:inline" />
      <path
         inkscape:connector-curvature="0"
         d="M 54,15.9375 54,17.5 c 0.764674,0 1.34375,0.56165 1.34375,1.3125 l 0,50.09375 0,14.09375 A 0.77798469,0.77798469 0 0 0 56.75,83.4375 L 68.09375,67.40625 79.46875,83.4375 A 0.77798469,0.77798469 0 0 0 80.875,83 l 0,-2.09375 0,-12 0,-50.09375 c 0,-1.593758 -1.326316,-2.875 -2.90625,-2.875 L 54,15.9375 z"
         id="path3846"
         style="opacity:0.15;fill:#000000;fill-opacity:1;stroke:none;display:inline" />
      <path
         d="m 53,15.000001 c -1.662,0 -3,1.338 -3,3 l 0,0.03125 30,0 0,-0.03125 c 0,-1.662 -1.338,-3 -3,-3 l -24,0 z"
         inkscape:connector-curvature="0"
         id="rect3196"
         style="fill:#550000;fill-opacity:1;stroke:none;display:inline" />
      <path
         d="m 53,15.000001 c 1.662,0 3,1.338 3,3 l 0,5 0.09375,0 0,45.187499 0,14.125 12,-16.9375 11.96875,16.9375 0,-2.125 0,-12 L 80,18.000001 c 0,-1.662 -1.338,-3 -3,-3 l -1.03125,0 -22,0 -0.96875,0 z"
         inkscape:connector-curvature="0"
         id="rect3204"
         style="fill:#aa0000;fill-opacity:1;stroke:none;display:inline" />
      <path
         d="m 54.889005,15.000001 c 1.172304,0 3.116071,0.273584 3.116071,2.116071 L 58,75.609181 68.080358,62 l 9.880801,13.609181 0.0051,-58.493109 c -2.4e-5,-1.172303 -0.943792,-2.116071 -2.116096,-2.116071 l -20.961158,0 z"
         inkscape:connector-curvature="0"
         id="path3173"
         style="fill:#ff8f00;fill-opacity:1;stroke:none;display:inline" />
      <path
         d="m 56.821429,15.000001 c 1.172304,0 3.116072,0.139692 3.116072,2.116071 l 0,52.556335 L 68.08036,58.369308 76,69.672407 76,17.116072 c 0,-1.172303 -0.94377,-2.116071 -2.11607,-2.116071 l -17.062501,0 z"
         inkscape:connector-curvature="0"
         id="path3175"
         style="fill:#d40000;fill-opacity:1;stroke:none;display:inline" />
      <path
         d="m 53,15.000001 c 1.662,0 3,1.338 3,3 l 0,5 0.09375,0 0,45.187499 0,14.125 12,-16.9375 11.96875,16.9375 0,-2.125 0,-12 L 80,18.000001 c 0,-1.595975 -1.24278,-2.868203 -2.8125,-2.96875 -0.06762,-0.01879 -0.12377,-0.0285 -0.1875,-0.03125 l -23.03125,0 -0.96875,0 z"
         inkscape:connector-curvature="0"
         id="path3177"
         style="fill:url(#linearGradient3882);fill-opacity:1;stroke:none;display:inline" />
    </g>
  </g>
</svg>
