<?xml version="1.0" encoding="UTF-8" standalone="no"?>
<!-- Created with Inkscape (http://www.inkscape.org/) -->

<svg
   xmlns:dc="http://purl.org/dc/elements/1.1/"
   xmlns:cc="http://creativecommons.org/ns#"
   xmlns:rdf="http://www.w3.org/1999/02/22-rdf-syntax-ns#"
   xmlns:svg="http://www.w3.org/2000/svg"
   xmlns="http://www.w3.org/2000/svg"
   xmlns:xlink="http://www.w3.org/1999/xlink"
   xmlns:sodipodi="http://sodipodi.sourceforge.net/DTD/sodipodi-0.dtd"
   xmlns:inkscape="http://www.inkscape.org/namespaces/inkscape"
   width="256"
   height="256"
   id="svg2"
   sodipodi:version="0.32"
   inkscape:version="0.48.3.1 r9886"
   version="1.0"
   sodipodi:docname="svn-update.svg"
   inkscape:output_extension="org.inkscape.output.svg.inkscape">
  <defs
     id="defs4">
    <linearGradient
       id="linearGradient3578">
      <stop
         style="stop-color:#000000;stop-opacity:1;"
         offset="0"
         id="stop3580" />
      <stop
         style="stop-color:#fffcfc;stop-opacity:1;"
         offset="1"
         id="stop3582" />
    </linearGradient>
    <linearGradient
       id="linearGradient3545">
      <stop
         id="stop3547"
         offset="0"
         style="stop-color:#ffffff;stop-opacity:1" />
      <stop
         style="stop-color:#afafaf;stop-opacity:1"
         offset="0.69783264"
         id="stop3553" />
      <stop
         id="stop3555"
         offset="0.88173676"
         style="stop-color:#686868;stop-opacity:1" />
      <stop
         id="stop3549"
         offset="1"
         style="stop-color:#ffffff;stop-opacity:1;" />
    </linearGradient>
    <linearGradient
       id="linearGradient3561">
      <stop
         style="stop-color:#ffffff;stop-opacity:1"
         offset="0"
         id="stop3563" />
      <stop
         id="stop3565"
         offset="1"
         style="stop-color:#afafaf;stop-opacity:1" />
    </linearGradient>
    <linearGradient
       id="linearGradient3586">
      <stop
         style="stop-color:#000000;stop-opacity:1;"
         offset="0"
         id="stop3588" />
      <stop
         style="stop-color:#505050;stop-opacity:1;"
         offset="1"
         id="stop3590" />
    </linearGradient>
    <linearGradient
       inkscape:collect="always"
       xlink:href="#linearGradient3578"
       id="linearGradient2981"
       gradientUnits="userSpaceOnUse"
       spreadMethod="reflect"
       x1="13.514812"
       y1="-7.4748664"
       x2="16.093008"
       y2="-7.4748664" />
    <linearGradient
       inkscape:collect="always"
       xlink:href="#linearGradient3545"
       id="linearGradient4792"
       gradientUnits="userSpaceOnUse"
       gradientTransform="matrix(2.3891451,0,0,2.3891451,-23.041601,-51.873364)"
       spreadMethod="reflect"
       x1="57.305443"
       y1="74.175735"
       x2="83.273224"
       y2="74.175735" />
    <radialGradient
       inkscape:collect="always"
       xlink:href="#linearGradient3561"
       id="radialGradient4794"
       gradientUnits="userSpaceOnUse"
       gradientTransform="matrix(2.9240052,0.2920178,-0.1306677,1.3083905,-43.102868,-18.659758)"
       spreadMethod="reflect"
       cx="43.479687"
       cy="24.44582"
       fx="43.479687"
       fy="24.44582"
       r="30.12385" />
    <linearGradient
       inkscape:collect="always"
       xlink:href="#linearGradient3545"
       id="linearGradient4796"
       gradientUnits="userSpaceOnUse"
       gradientTransform="matrix(2.3891451,0,0,2.3891451,-23.041601,-51.873364)"
       spreadMethod="reflect"
       x1="57.305443"
       y1="74.175735"
       x2="83.273224"
       y2="74.175735" />
    <radialGradient
       inkscape:collect="always"
       xlink:href="#linearGradient3561"
       id="radialGradient4798"
       gradientUnits="userSpaceOnUse"
       gradientTransform="matrix(2.9240052,0.2920178,-0.1306677,1.3083905,-43.102868,-18.659758)"
       spreadMethod="reflect"
       cx="43.479687"
       cy="24.44582"
       fx="43.479687"
       fy="24.44582"
       r="30.12385" />
    <linearGradient
       inkscape:collect="always"
       xlink:href="#linearGradient3545"
       id="linearGradient4800"
       gradientUnits="userSpaceOnUse"
       gradientTransform="matrix(2.3891451,0,0,2.3891451,-23.041601,-51.873364)"
       spreadMethod="reflect"
       x1="57.305443"
       y1="74.175735"
       x2="83.273224"
       y2="74.175735" />
    <radialGradient
       inkscape:collect="always"
       xlink:href="#linearGradient3561"
       id="radialGradient4802"
       gradientUnits="userSpaceOnUse"
       gradientTransform="matrix(2.9240052,0.2920178,-0.1306677,1.3083905,-43.102868,-18.659758)"
       spreadMethod="reflect"
       cx="43.479687"
       cy="24.44582"
       fx="43.479687"
       fy="24.44582"
       r="30.12385" />
    <linearGradient
       inkscape:collect="always"
       xlink:href="#linearGradient3545"
       id="linearGradient4804"
       gradientUnits="userSpaceOnUse"
       gradientTransform="matrix(2.3891451,0,0,2.3891451,-23.041601,-51.873364)"
       spreadMethod="reflect"
       x1="57.305443"
       y1="74.175735"
       x2="83.273224"
       y2="74.175735" />
    <radialGradient
       inkscape:collect="always"
       xlink:href="#linearGradient3561"
       id="radialGradient4806"
       gradientUnits="userSpaceOnUse"
       gradientTransform="matrix(2.9240052,0.2920178,-0.1306677,1.3083905,-43.102868,-18.659758)"
       spreadMethod="reflect"
       cx="43.479687"
       cy="24.44582"
       fx="43.479687"
       fy="24.44582"
       r="30.12385" />
    <linearGradient
       inkscape:collect="always"
       xlink:href="#linearGradient3545"
       id="linearGradient4808"
       gradientUnits="userSpaceOnUse"
       gradientTransform="matrix(2.3891451,0,0,2.3891451,-23.041601,-51.873364)"
       spreadMethod="reflect"
       x1="57.305443"
       y1="74.175735"
       x2="83.273224"
       y2="74.175735" />
    <radialGradient
       inkscape:collect="always"
       xlink:href="#linearGradient3561"
       id="radialGradient4810"
       gradientUnits="userSpaceOnUse"
       gradientTransform="matrix(2.9240052,0.2920178,-0.1306677,1.3083905,-43.102868,-18.659758)"
       spreadMethod="reflect"
       cx="43.479687"
       cy="24.44582"
       fx="43.479687"
       fy="24.44582"
       r="30.12385" />
    <linearGradient
       inkscape:collect="always"
       xlink:href="#linearGradient3545"
       id="linearGradient5803"
       gradientUnits="userSpaceOnUse"
       gradientTransform="matrix(2.3891451,0,0,2.3891451,-23.041601,-51.873364)"
       spreadMethod="reflect"
       x1="57.305443"
       y1="74.175735"
       x2="83.273224"
       y2="74.175735" />
    <linearGradient
       inkscape:collect="always"
       xlink:href="#linearGradient3586"
       id="linearGradient5841"
       gradientUnits="userSpaceOnUse"
       gradientTransform="matrix(0,-0.69372749,0.72808236,0,-171.43737,201.51028)"
       x1="75.495003"
       y1="100.09698"
       x2="224.22871"
       y2="105.0107" />
  </defs>
  <sodipodi:namedview
     id="base"
     pagecolor="#ffffff"
     bordercolor="#666666"
     borderopacity="1.0"
     gridtolerance="10000"
     guidetolerance="10"
     objecttolerance="10"
     inkscape:pageopacity="0.0"
     inkscape:pageshadow="2"
     inkscape:zoom="1.4960938"
     inkscape:cx="128"
     inkscape:cy="128"
     inkscape:document-units="px"
     inkscape:current-layer="layer1"
     showgrid="false"
     inkscape:window-width="1024"
     inkscape:window-height="553"
     inkscape:window-x="-4"
     inkscape:window-y="24"
     inkscape:window-maximized="1" />
  <metadata
     id="metadata7">
    <rdf:RDF>
      <cc:Work
         rdf:about="">
        <dc:format>image/svg+xml</dc:format>
        <dc:type
           rdf:resource="http://purl.org/dc/dcmitype/StillImage" />
        <dc:title></dc:title>
      </cc:Work>
    </rdf:RDF>
  </metadata>
  <g
     inkscape:label="Layer 1"
     inkscape:groupmode="layer"
     id="layer1">
    <g
       id="g4763"
       transform="matrix(0.99999825,0,0,0.99987821,1.8512005e-4,0.01759569)">
      <path
         id="path4761"
         d="M 127.53125,47 C 121.3542,47.05588 115.29005,47.297634 109.375,47.6875 52.196221,51.456203 8.7946976,70.230516 9,92.5625 9.00125,92.697949 9.026809,92.833623 9.03125,92.96875 9.021645,93.238476 8.9975108,93.510486 9,93.78125 L 9.125,107.125 c 0.013273,1.44383 0.2120113,2.87544 0.5625,4.28125 -0.4649488,1.63423 -0.7029378,3.28949 -0.6875,4.96875 0.00125,0.13545 0.026809,0.27112 0.03125,0.40625 -0.00961,0.26973 -0.033739,0.54174 -0.03125,0.8125 l 0.125,13.34375 c 0.013273,1.44383 0.2120113,2.87544 0.5625,4.28125 -0.4649488,1.63423 -0.7029378,3.28949 -0.6875,4.96875 0.00125,0.13545 0.026809,0.27112 0.03125,0.40625 C 9.02164,140.86348 8.997511,141.13549 9,141.40625 L 9.125,154.75 c 0.013273,1.44383 0.2120113,2.87544 0.5625,4.28125 C 9.2225512,160.66548 8.9845622,162.32074 9,164 c 0.00125,0.13545 0.026809,0.27112 0.03125,0.40625 -0.00961,0.26973 -0.033739,0.54174 -0.03125,0.8125 l 0.125,13.34375 c 0.013305,1.44727 0.2103869,2.87219 0.5625,4.28125 -0.4595313,1.625 -0.7028478,3.26802 -0.6875,4.9375 0.00125,0.13545 0.026809,0.27112 0.03125,0.40625 C 9.020795,188.46755 8.997415,188.75008 9,189.03125 L 9.125,202.375 C 9.3577605,227.69378 62.611508,247.59601 128.5,247 194.38852,246.404 247.23276,225.53753 247,200.21875 L 246.875,186.875 c -0.001,-0.13551 -0.027,-0.27105 -0.0313,-0.40625 0.0109,-0.27704 0.0338,-0.53434 0.0313,-0.8125 -0.0129,-1.40173 -0.21406,-2.79142 -0.5625,-4.15625 0.46262,-1.67563 0.70333,-3.37193 0.6875,-5.09375 l -0.125,-13.34375 c -0.001,-0.13551 -0.027,-0.27105 -0.0313,-0.40625 0.0103,-0.26958 0.0337,-0.54185 0.0313,-0.8125 -0.0129,-1.40173 -0.21406,-2.79142 -0.5625,-4.15625 0.46262,-1.67563 0.70333,-3.37193 0.6875,-5.09375 L 246.875,139.25 c -0.001,-0.13551 -0.027,-0.27105 -0.0313,-0.40625 0.0103,-0.26958 0.0337,-0.54185 0.0313,-0.8125 -0.0129,-1.40173 -0.21406,-2.79142 -0.5625,-4.15625 0.46262,-1.67563 0.70333,-3.37193 0.6875,-5.09375 l -0.125,-13.34375 c -0.001,-0.13551 -0.027,-0.27105 -0.0313,-0.40625 0.0103,-0.26958 0.0337,-0.54185 0.0313,-0.8125 -0.0128,-1.39169 -0.21889,-2.76966 -0.5625,-4.125 -0.002,-0.01 0.002,-0.0215 0,-0.0313 0.45912,-1.66949 0.70327,-3.37843 0.6875,-5.09375 L 246.875,91.625 c -0.001,-0.139168 -0.0268,-0.267412 -0.0313,-0.40625 0.0103,-0.269585 0.0337,-0.541852 0.0313,-0.8125 C 246.6697,68.074266 202.92606,50.108718 145.6875,47.375 c -1.97374,-0.09427 -3.96412,-0.192469 -5.96875,-0.25 -4.00926,-0.115062 -8.06947,-0.16225 -12.1875,-0.125 z"
         style="opacity:0.05;fill:none;stroke:#000000;stroke-width:18;stroke-linejoin:round;stroke-miterlimit:4;stroke-opacity:1;stroke-dasharray:none"
         inkscape:connector-curvature="0" />
      <path
         style="opacity:0.1;fill:none;stroke:#000000;stroke-width:12;stroke-linejoin:round;stroke-miterlimit:4;stroke-opacity:1;stroke-dasharray:none"
         d="M 127.53125,47 C 121.3542,47.05588 115.29005,47.297634 109.375,47.6875 52.196221,51.456203 8.7946976,70.230516 9,92.5625 9.00125,92.697949 9.026809,92.833623 9.03125,92.96875 9.021645,93.238476 8.9975108,93.510486 9,93.78125 L 9.125,107.125 c 0.013273,1.44383 0.2120113,2.87544 0.5625,4.28125 -0.4649488,1.63423 -0.7029378,3.28949 -0.6875,4.96875 0.00125,0.13545 0.026809,0.27112 0.03125,0.40625 -0.00961,0.26973 -0.033739,0.54174 -0.03125,0.8125 l 0.125,13.34375 c 0.013273,1.44383 0.2120113,2.87544 0.5625,4.28125 -0.4649488,1.63423 -0.7029378,3.28949 -0.6875,4.96875 0.00125,0.13545 0.026809,0.27112 0.03125,0.40625 C 9.02164,140.86348 8.997511,141.13549 9,141.40625 L 9.125,154.75 c 0.013273,1.44383 0.2120113,2.87544 0.5625,4.28125 C 9.2225512,160.66548 8.9845622,162.32074 9,164 c 0.00125,0.13545 0.026809,0.27112 0.03125,0.40625 -0.00961,0.26973 -0.033739,0.54174 -0.03125,0.8125 l 0.125,13.34375 c 0.013305,1.44727 0.2103869,2.87219 0.5625,4.28125 -0.4595313,1.625 -0.7028478,3.26802 -0.6875,4.9375 0.00125,0.13545 0.026809,0.27112 0.03125,0.40625 C 9.020795,188.46755 8.997415,188.75008 9,189.03125 L 9.125,202.375 C 9.3577605,227.69378 62.611508,247.59601 128.5,247 194.38852,246.404 247.23276,225.53753 247,200.21875 L 246.875,186.875 c -0.001,-0.13551 -0.027,-0.27105 -0.0313,-0.40625 0.0109,-0.27704 0.0338,-0.53434 0.0313,-0.8125 -0.0129,-1.40173 -0.21406,-2.79142 -0.5625,-4.15625 0.46262,-1.67563 0.70333,-3.37193 0.6875,-5.09375 l -0.125,-13.34375 c -0.001,-0.13551 -0.027,-0.27105 -0.0313,-0.40625 0.0103,-0.26958 0.0337,-0.54185 0.0313,-0.8125 -0.0129,-1.40173 -0.21406,-2.79142 -0.5625,-4.15625 0.46262,-1.67563 0.70333,-3.37193 0.6875,-5.09375 L 246.875,139.25 c -0.001,-0.13551 -0.027,-0.27105 -0.0313,-0.40625 0.0103,-0.26958 0.0337,-0.54185 0.0313,-0.8125 -0.0129,-1.40173 -0.21406,-2.79142 -0.5625,-4.15625 0.46262,-1.67563 0.70333,-3.37193 0.6875,-5.09375 l -0.125,-13.34375 c -0.001,-0.13551 -0.027,-0.27105 -0.0313,-0.40625 0.0103,-0.26958 0.0337,-0.54185 0.0313,-0.8125 -0.0128,-1.39169 -0.21889,-2.76966 -0.5625,-4.125 -0.002,-0.01 0.002,-0.0215 0,-0.0313 0.45912,-1.66949 0.70327,-3.37843 0.6875,-5.09375 L 246.875,91.625 c -0.001,-0.139168 -0.0268,-0.267412 -0.0313,-0.40625 0.0103,-0.269585 0.0337,-0.541852 0.0313,-0.8125 C 246.6697,68.074266 202.92606,50.108718 145.6875,47.375 c -1.97374,-0.09427 -3.96412,-0.192469 -5.96875,-0.25 -4.00926,-0.115062 -8.06947,-0.16225 -12.1875,-0.125 z"
         id="path4759"
         inkscape:connector-curvature="0" />
      <path
         id="rect3845"
         d="M 127.53125,47 C 121.3542,47.05588 115.29005,47.297634 109.375,47.6875 52.196221,51.456203 8.7946976,70.230516 9,92.5625 9.00125,92.697949 9.026809,92.833623 9.03125,92.96875 9.021645,93.238476 8.9975108,93.510486 9,93.78125 L 9.125,107.125 c 0.013273,1.44383 0.2120113,2.87544 0.5625,4.28125 -0.4649488,1.63423 -0.7029378,3.28949 -0.6875,4.96875 0.00125,0.13545 0.026809,0.27112 0.03125,0.40625 -0.00961,0.26973 -0.033739,0.54174 -0.03125,0.8125 l 0.125,13.34375 c 0.013273,1.44383 0.2120113,2.87544 0.5625,4.28125 -0.4649488,1.63423 -0.7029378,3.28949 -0.6875,4.96875 0.00125,0.13545 0.026809,0.27112 0.03125,0.40625 C 9.02164,140.86348 8.997511,141.13549 9,141.40625 L 9.125,154.75 c 0.013273,1.44383 0.2120113,2.87544 0.5625,4.28125 C 9.2225512,160.66548 8.9845622,162.32074 9,164 c 0.00125,0.13545 0.026809,0.27112 0.03125,0.40625 -0.00961,0.26973 -0.033739,0.54174 -0.03125,0.8125 l 0.125,13.34375 c 0.013305,1.44727 0.2103869,2.87219 0.5625,4.28125 -0.4595313,1.625 -0.7028478,3.26802 -0.6875,4.9375 0.00125,0.13545 0.026809,0.27112 0.03125,0.40625 C 9.020795,188.46755 8.997415,188.75008 9,189.03125 L 9.125,202.375 C 9.3577605,227.69378 62.611508,247.59601 128.5,247 194.38852,246.404 247.23276,225.53753 247,200.21875 L 246.875,186.875 c -0.001,-0.13551 -0.027,-0.27105 -0.0313,-0.40625 0.0109,-0.27704 0.0338,-0.53434 0.0313,-0.8125 -0.0129,-1.40173 -0.21406,-2.79142 -0.5625,-4.15625 0.46262,-1.67563 0.70333,-3.37193 0.6875,-5.09375 l -0.125,-13.34375 c -0.001,-0.13551 -0.027,-0.27105 -0.0313,-0.40625 0.0103,-0.26958 0.0337,-0.54185 0.0313,-0.8125 -0.0129,-1.40173 -0.21406,-2.79142 -0.5625,-4.15625 0.46262,-1.67563 0.70333,-3.37193 0.6875,-5.09375 L 246.875,139.25 c -0.001,-0.13551 -0.027,-0.27105 -0.0313,-0.40625 0.0103,-0.26958 0.0337,-0.54185 0.0313,-0.8125 -0.0129,-1.40173 -0.21406,-2.79142 -0.5625,-4.15625 0.46262,-1.67563 0.70333,-3.37193 0.6875,-5.09375 l -0.125,-13.34375 c -0.001,-0.13551 -0.027,-0.27105 -0.0313,-0.40625 0.0103,-0.26958 0.0337,-0.54185 0.0313,-0.8125 -0.0128,-1.39169 -0.21889,-2.76966 -0.5625,-4.125 -0.002,-0.01 0.002,-0.0215 0,-0.0313 0.45912,-1.66949 0.70327,-3.37843 0.6875,-5.09375 L 246.875,91.625 c -0.001,-0.139168 -0.0268,-0.267412 -0.0313,-0.40625 0.0103,-0.269585 0.0337,-0.541852 0.0313,-0.8125 C 246.6697,68.074266 202.92606,50.108718 145.6875,47.375 c -1.97374,-0.09427 -3.96412,-0.192469 -5.96875,-0.25 -4.00926,-0.115062 -8.06947,-0.16225 -12.1875,-0.125 z"
         style="opacity:0.15;fill:none;stroke:#000000;stroke-width:6;stroke-linejoin:round;stroke-miterlimit:4;stroke-opacity:1;stroke-dasharray:none"
         inkscape:connector-curvature="0" />
      <g
         transform="matrix(1,0,0,0.99194528,0,1.9895151)"
         id="g3661">
        <g
           transform="matrix(1.6747588,-0.01527237,0.01527237,1.6747588,-63.354762,123.92915)"
           id="g3649"
           style="stroke:none">
          <rect
             rx="71.014587"
             ry="27.510157"
             y="11.463971"
             x="42.85482"
             height="63.052284"
             width="142.02917"
             id="rect3651"
             style="fill:url(#linearGradient5803);fill-opacity:1;stroke:none" />
          <rect
             style="fill:url(#radialGradient4794);fill-opacity:1;stroke:none"
             id="rect3653"
             width="142.02917"
             height="53.550007"
             x="42.85482"
             y="11.463971"
             ry="26.775003"
             rx="71.014587" />
          <path
             style="fill:none;stroke:none"
             d="m 184.884,38.974129 0,8.031972 c 0,15.240626 -31.6725,27.510155 -71.01459,27.510155 -39.342081,0 -71.014588,-12.269529 -71.014588,-27.510155 l 0,-8.031972"
             id="path3655"
             sodipodi:nodetypes="ccscc"
             inkscape:connector-curvature="0" />
        </g>
        <g
           style="stroke:none"
           id="g3637"
           transform="matrix(1.6747588,-0.01527237,0.01527237,1.6747588,-63.354762,99.929151)">
          <rect
             style="fill:url(#linearGradient4796);fill-opacity:1;stroke:none"
             id="rect3639"
             width="142.02917"
             height="63.052284"
             x="42.85482"
             y="11.463971"
             ry="27.510157"
             rx="71.014587" />
          <rect
             rx="71.014587"
             ry="26.775003"
             y="11.463971"
             x="42.85482"
             height="53.550007"
             width="142.02917"
             id="rect3641"
             style="fill:url(#radialGradient4798);fill-opacity:1;stroke:none" />
          <path
             inkscape:connector-curvature="0"
             sodipodi:nodetypes="ccscc"
             id="path3643"
             d="m 184.884,38.974129 0,8.031972 c 0,15.240626 -31.6725,27.510155 -71.01459,27.510155 -39.342081,0 -71.014588,-12.269529 -71.014588,-27.510155 l 0,-8.031972"
             style="fill:none;stroke:none" />
        </g>
        <g
           transform="matrix(1.6747588,-0.01527237,0.01527237,1.6747588,-63.354762,75.929151)"
           id="g3625"
           style="stroke:none">
          <rect
             rx="71.014587"
             ry="27.510157"
             y="11.463971"
             x="42.85482"
             height="63.052284"
             width="142.02917"
             id="rect3627"
             style="fill:url(#linearGradient4800);fill-opacity:1;stroke:none" />
          <rect
             style="fill:url(#radialGradient4802);fill-opacity:1;stroke:none"
             id="rect3629"
             width="142.02917"
             height="53.550007"
             x="42.85482"
             y="11.463971"
             ry="26.775003"
             rx="71.014587" />
          <path
             style="fill:none;stroke:none"
             d="m 184.884,38.974129 0,8.031972 c 0,15.240626 -31.6725,27.510155 -71.01459,27.510155 -39.342081,0 -71.014588,-12.269529 -71.014588,-27.510155 l 0,-8.031972"
             id="path3631"
             sodipodi:nodetypes="ccscc"
             inkscape:connector-curvature="0" />
        </g>
        <g
           style="stroke:none"
           id="g3613"
           transform="matrix(1.6747588,-0.01527237,0.01527237,1.6747588,-63.354762,51.929153)">
          <rect
             style="fill:url(#linearGradient4804);fill-opacity:1;stroke:none"
             id="rect3615"
             width="142.02917"
             height="63.052284"
             x="42.85482"
             y="11.463971"
             ry="27.510157"
             rx="71.014587" />
          <rect
             rx="71.014587"
             ry="26.775003"
             y="11.463971"
             x="42.85482"
             height="53.550007"
             width="142.02917"
             id="rect3617"
             style="fill:url(#radialGradient4806);fill-opacity:1;stroke:none" />
          <path
             inkscape:connector-curvature="0"
             sodipodi:nodetypes="ccscc"
             id="path3619"
             d="m 184.884,38.974129 0,8.031972 c 0,15.240626 -31.6725,27.510155 -71.01459,27.510155 -39.342081,0 -71.014588,-12.269529 -71.014588,-27.510155 l 0,-8.031972"
             style="fill:none;stroke:none" />
        </g>
        <g
           transform="matrix(1.6747588,-0.01527237,0.01527237,1.6747588,-63.354762,27.929153)"
           id="g3083"
           style="stroke:none">
          <rect
             rx="71.014587"
             ry="27.510157"
             y="11.463971"
             x="42.85482"
             height="63.052284"
             width="142.02917"
             id="rect3085"
             style="fill:url(#linearGradient4808);fill-opacity:1;stroke:none" />
          <rect
             style="fill:url(#radialGradient4810);fill-opacity:1;stroke:none"
             id="rect3087"
             width="142.02917"
             height="53.550007"
             x="42.85482"
             y="11.463971"
             ry="26.775003"
             rx="71.014587" />
          <path
             style="fill:none;stroke:none"
             d="m 184.884,38.974129 0,8.031972 c 0,15.240626 -31.6725,27.510155 -71.01459,27.510155 -39.342081,0 -71.014588,-12.269529 -71.014588,-27.510155 l 0,-8.031972"
             id="path3089"
             sodipodi:nodetypes="ccscc"
             inkscape:connector-curvature="0" />
        </g>
      </g>
      <path
         id="path3979"
         d="M 127.53125,47 C 121.3542,47.05588 115.29005,47.297634 109.375,47.6875 52.196221,51.456203 8.7946976,70.230516 9,92.5625 9.00125,92.697949 9.026809,92.833623 9.03125,92.96875 9.021645,93.238476 8.9975108,93.510486 9,93.78125 L 9,94.375 C 9.0418768,72.126631 52.358512,53.445506 109.375,49.6875 115.29005,49.297634 121.3542,49.05588 127.53125,49 c 4.11803,-0.03725 8.17824,0.0099 12.1875,0.125 2.00463,0.05753 3.99501,0.15573 5.96875,0.25 56.34421,2.691004 99.62206,20.153884 101.15625,42 -0.005,-0.05119 0.002,-0.103165 0,-0.15625 0.0103,-0.269585 0.0337,-0.541852 0.0313,-0.8125 C 246.6697,68.074266 202.92606,50.108718 145.6875,47.375 c -1.97374,-0.09427 -3.96412,-0.192469 -5.96875,-0.25 -4.00926,-0.115062 -8.06947,-0.16225 -12.1875,-0.125 z m 119.3125,44.375 c 0.0243,0.346764 0.028,0.682313 0.0313,1.03125 l 0,-0.78125 c -7.9e-4,-0.08596 -0.0226,-0.167308 -0.0313,-0.25 z m 0.0313,1.03125 c 0.002,0.270648 -0.0209,0.542915 -0.0313,0.8125 0.005,0.138838 0.0302,0.267082 0.0313,0.40625 L 247,105.53125 c 0.004,-0.18796 0.002,-0.37435 0,-0.5625 l -0.125,-12.5625 z M 9,94.65625 9,95.375 C 9.00693,95.239236 9.02644,95.103812 9.03125,94.96875 9.0278278,94.864623 9.0077157,94.760674 9,94.65625 z m 237.53125,16.5 c -0.0687,0.30437 -0.1357,0.60427 -0.21875,0.90625 0.002,0.01 -0.002,0.0212 0,0.0313 0.25771,1.0165 0.45178,2.05555 0.53125,3.09375 -0.005,-0.0518 0.002,-0.10456 0,-0.15625 0.0103,-0.26958 0.0337,-0.54185 0.0313,-0.8125 -0.01,-1.03356 -0.14387,-2.04772 -0.34375,-3.0625 z m 0.3125,4.03125 c 0.0265,0.34607 0.0281,0.68333 0.0313,1.03125 l 0,-0.78125 c -7.7e-4,-0.0837 -0.0226,-0.16637 -0.0313,-0.25 z m 0.0313,1.03125 c 0.002,0.27065 -0.0209,0.54292 -0.0313,0.8125 0.004,0.1352 0.0302,0.27074 0.0313,0.40625 L 247,129.34375 c 0.004,-0.18826 0.002,-0.37363 0,-0.5625 l -0.125,-12.5625 z M 9.46875,112.28125 C 9.1545914,113.62887 8.9873288,114.99668 9,116.375 c 0.00125,0.13545 0.026809,0.27112 0.03125,0.40625 -0.00406,0.11395 0.00614,0.22925 0,0.34375 0.082216,-1.25058 0.3075384,-2.49308 0.65625,-3.71875 -0.092621,-0.3715 -0.1479462,-0.75015 -0.21875,-1.125 z M 9.03125,117.125 C 9.02285,117.28153 8.998562,117.43737 9,117.59375 l 0,0.5625 c 0.00138,-0.34596 0.00864,-0.68729 0.03125,-1.03125 z M 9,118.46875 9,119.1875 c 0.00693,-0.13576 0.026438,-0.27119 0.03125,-0.40625 C 9.02783,118.67712 9.007716,118.57317 9,118.46875 z m 237.53125,16.5 c -0.069,0.30447 -0.13507,0.60316 -0.21875,0.90625 0.25092,0.98286 0.44839,1.96489 0.53125,2.96875 0.0103,-0.26958 0.0337,-0.54185 0.0313,-0.8125 -0.009,-1.03074 -0.14697,-2.04988 -0.34375,-3.0625 z m -237.0625,1.125 C 9.1545914,137.44137 8.9873288,138.80918 9,140.1875 c 0.00125,0.13545 0.026809,0.27112 0.03125,0.40625 -0.00406,0.11395 0.00614,0.22925 0,0.34375 0.082216,-1.25058 0.3075384,-2.49308 0.65625,-3.71875 -0.092621,-0.3715 -0.1479462,-0.75015 -0.21875,-1.125 z m -0.4375,4.84375 C 9.02285,141.09403 8.998562,141.24987 9,141.40625 l 0,0.5625 c 0.00138,-0.34596 0.00864,-0.68729 0.03125,-1.03125 z m 237.8125,-1.96875 c 0.0261,0.34873 0.028,0.71207 0.0313,1.0625 l 0,-0.78125 c -8.7e-4,-0.0941 -0.0222,-0.18728 -0.0313,-0.28125 z m 0.0313,1.0625 c 0.002,0.27065 -0.0209,0.54292 -0.0313,0.8125 0.004,0.1352 0.0302,0.27074 0.0313,0.40625 L 247,153.15625 c 0.004,-0.18826 0.002,-0.37363 0,-0.5625 l -0.125,-12.5625 z M 9,142.28125 9,143 c 0.00693,-0.13576 0.026438,-0.27119 0.03125,-0.40625 C 9.02783,142.48962 9.007716,142.38567 9,142.28125 z m 237.53125,16.5 c -0.069,0.30447 -0.13507,0.60316 -0.21875,0.90625 0.25092,0.98286 0.44839,1.96489 0.53125,2.96875 0.0103,-0.26958 0.0337,-0.54185 0.0313,-0.8125 -0.009,-1.03074 -0.14697,-2.04988 -0.34375,-3.0625 z m -237.0625,1.125 C 9.1545914,161.25387 8.9873288,162.62168 9,164 c 0.00125,0.13545 0.026809,0.27112 0.03125,0.40625 -0.00406,0.11395 0.00614,0.22925 0,0.34375 0.082216,-1.25058 0.3075384,-2.49308 0.65625,-3.71875 -0.092621,-0.3715 -0.1479462,-0.75015 -0.21875,-1.125 z M 9.03125,164.75 C 9.02285,164.90653 8.998562,165.06237 9,165.21875 l 0,0.5625 c 0.00138,-0.34596 0.00864,-0.68729 0.03125,-1.03125 z m 237.8125,-1.96875 c 0.0261,0.34873 0.028,0.71207 0.0313,1.0625 l 0,-0.78125 c -8.7e-4,-0.0941 -0.0222,-0.18728 -0.0313,-0.28125 z m 0.0313,1.0625 c 0.002,0.27065 -0.0209,0.54292 -0.0313,0.8125 0.004,0.1352 0.0302,0.27074 0.0313,0.40625 L 247,176.96875 c 0.004,-0.18826 0.002,-0.37363 0,-0.5625 l -0.125,-12.5625 z M 9,166.09375 9,166.8125 c 0.00693,-0.13576 0.026438,-0.27119 0.03125,-0.40625 C 9.02783,166.30212 9.007716,166.19817 9,166.09375 z m 237.53125,16.5 c -0.069,0.30447 -0.13507,0.60316 -0.21875,0.90625 0.25092,0.98286 0.44839,1.96489 0.53125,2.96875 0.0109,-0.27704 0.0338,-0.53434 0.0313,-0.8125 -0.009,-1.03074 -0.14697,-2.04988 -0.34375,-3.0625 z M 9.4375,183.8125 c -0.2979577,1.30796 -0.4497967,2.63116 -0.4375,3.96875 0.00125,0.13545 0.026809,0.27112 0.03125,0.40625 -0.00425,0.11394 0.00591,0.22925 0,0.34375 0.083498,-1.24258 0.3116015,-2.46875 0.65625,-3.6875 -0.085575,-0.34245 -0.1831514,-0.68684 -0.25,-1.03125 z m -0.40625,4.71875 c -0.00862,0.16693 -0.032783,0.33322 -0.03125,0.5 l 0,0.53125 c 0.00148,-0.3439 0.00828,-0.68949 0.03125,-1.03125 z m 237.8125,-1.9375 c 0.0261,0.34873 0.028,0.71207 0.0313,1.0625 l 0,-0.78125 c -8.7e-4,-0.0941 -0.0222,-0.18728 -0.0313,-0.28125 z m 0.0313,1.0625 c 0.002,0.27816 -0.0204,0.53546 -0.0313,0.8125 0.004,0.1352 0.0302,0.27074 0.0313,0.40625 L 247,200.75 c 0.004,-0.17642 0.002,-0.35439 0,-0.53125 l -0.125,-12.5625 z M 9,189.875 l 0,0.75 c 0.00695,-0.1462 0.025822,-0.2921 0.03125,-0.4375 C 9.0278278,190.08337 9.0077157,189.97942 9,189.875 z"
         style="opacity:0.5;fill:#ffffff;fill-opacity:1;stroke:none"
         inkscape:connector-curvature="0" />
      <path
         id="path3984"
         d="m 9,93.375 c -0.00691,0.135364 -0.00124,0.271068 0,0.40625 L 9.125,107.125 c 0.00977,1.06228 0.1466233,2.11261 0.34375,3.15625 0.068593,-0.29424 0.1354264,-0.58213 0.21875,-0.875 C 9.3370113,108.00044 9.138273,106.56883 9.125,105.125 L 9,93.375 z m 238,10.15625 c -0.0362,1.52556 -0.27874,3.04489 -0.6875,4.53125 0.002,0.01 -0.002,0.0212 0,0.0313 0.0859,0.33884 0.15091,0.68973 0.21875,1.03125 0.3068,-1.36873 0.48157,-2.76129 0.46875,-4.15625 l 0,-1.4375 z M 9,117.1875 c -0.00691,0.13536 -0.00124,0.27107 0,0.40625 l 0.125,13.34375 c 0.00977,1.06228 0.1466233,2.11261 0.34375,3.15625 0.068593,-0.29424 0.1354264,-0.58213 0.21875,-0.875 C 9.3370113,131.81294 9.138273,130.38133 9.125,128.9375 L 9,117.1875 z m 238,10.15625 c -0.0356,1.52802 -0.27563,3.03942 -0.6875,4.53125 0.0922,0.36123 0.14792,0.72928 0.21875,1.09375 0.31225,-1.37879 0.48172,-2.77713 0.46875,-4.1875 l 0,-1.4375 z M 9,141 c -0.00691,0.13536 -0.00124,0.27107 0,0.40625 L 9.125,154.75 c 0.00977,1.06228 0.1466233,2.11261 0.34375,3.15625 0.068593,-0.29424 0.1354264,-0.58213 0.21875,-0.875 C 9.3370113,155.62544 9.138273,154.19383 9.125,152.75 L 9,141 z m 238,10.15625 c -0.0356,1.52802 -0.27563,3.03942 -0.6875,4.53125 0.0922,0.36123 0.14792,0.72928 0.21875,1.09375 0.31225,-1.37879 0.48172,-2.77713 0.46875,-4.1875 l 0,-1.4375 z M 9,164.8125 c -0.00691,0.13536 -0.00124,0.27107 0,0.40625 l 0.125,13.34375 c 0.00998,1.08545 0.1078993,2.1557 0.3125,3.21875 0.072214,-0.31467 0.1614105,-0.62423 0.25,-0.9375 C 9.3353869,179.43469 9.138305,178.00977 9.125,176.5625 L 9,164.8125 z m 238,10.15625 c -0.0356,1.52802 -0.27563,3.03942 -0.6875,4.53125 0.0922,0.36123 0.14792,0.72928 0.21875,1.09375 0.31225,-1.37879 0.48172,-2.77713 0.46875,-4.1875 l 0,-1.4375 z M 9,188.625 c -0.00644,0.13539 -0.00124,0.27106 0,0.40625 L 9.125,202.375 C 9.3577605,227.69378 62.611508,247.59601 128.5,247 194.38852,246.404 247.23276,225.53753 247,200.21875 L 247,198.75 C 246.49674,223.82939 193.92827,244.40816 128.5,245 62.611508,245.59601 9.3577605,225.69378 9.125,200.375 L 9,188.625 z"
         style="opacity:0.5;fill:#000000;fill-opacity:1;stroke:none"
         inkscape:connector-curvature="0" />
      <path
         inkscape:connector-curvature="0"
         style="opacity:0.2;fill:#000000;fill-opacity:1;stroke:none"
         d="m 9,95.375 c -0.00691,0.135364 -0.00124,0.271068 0,0.40625 L 9.125,109.125 c 0.00977,1.06228 0.1466233,2.11261 0.34375,3.15625 0.068593,-0.29424 0.1354264,-0.58213 0.21875,-0.875 C 9.3370113,110.00044 9.138273,108.56883 9.125,107.125 L 9,95.375 z m 238,10.15625 c -0.0362,1.52556 -0.27874,3.04489 -0.6875,4.53125 0.002,0.01 -0.002,0.0212 0,0.0313 0.0859,0.33884 0.15091,0.68973 0.21875,1.03125 0.3068,-1.36873 0.48157,-2.76129 0.46875,-4.15625 l 0,-1.4375 z M 9,119.1875 c -0.00691,0.13536 -0.00124,0.27107 0,0.40625 l 0.125,13.34375 c 0.00977,1.06228 0.1466233,2.11261 0.34375,3.15625 0.068593,-0.29424 0.1354264,-0.58213 0.21875,-0.875 C 9.3370113,133.81294 9.138273,132.38133 9.125,130.9375 L 9,119.1875 z m 238,10.15625 c -0.0356,1.52802 -0.27563,3.03942 -0.6875,4.53125 0.0922,0.36123 0.14792,0.72928 0.21875,1.09375 0.31225,-1.37879 0.48172,-2.77713 0.46875,-4.1875 l 0,-1.4375 z M 9,143 c -0.00691,0.13536 -0.00124,0.27107 0,0.40625 L 9.125,156.75 c 0.00977,1.06228 0.1466233,2.11261 0.34375,3.15625 0.068593,-0.29424 0.1354264,-0.58213 0.21875,-0.875 C 9.3370113,157.62544 9.138273,156.19383 9.125,154.75 L 9,143 z m 238,10.15625 c -0.0356,1.52802 -0.27563,3.03942 -0.6875,4.53125 0.0922,0.36123 0.14792,0.72928 0.21875,1.09375 0.31225,-1.37879 0.48172,-2.77713 0.46875,-4.1875 l 0,-1.4375 z M 9,166.8125 c -0.00691,0.13536 -0.00124,0.27107 0,0.40625 l 0.125,13.34375 c 0.00998,1.08545 0.1078993,2.1557 0.3125,3.21875 0.072214,-0.31467 0.1614105,-0.62423 0.25,-0.9375 C 9.3353869,181.43469 9.138305,180.00977 9.125,178.5625 L 9,166.8125 z m 238,10.15625 c -0.0356,1.52802 -0.27563,3.03942 -0.6875,4.53125 0.0922,0.36123 0.14792,0.72928 0.21875,1.09375 0.31225,-1.37879 0.48172,-2.77713 0.46875,-4.1875 l 0,-1.4375 z M 9,190.625 c -0.00644,0.13539 -0.00124,0.27106 0,0.40625 L 9.125,204.375 C 9.3577605,229.69378 62.611508,249.59601 128.5,249 194.38852,248.404 247.23276,227.53753 247,202.21875 L 247,200.75 C 246.49674,225.82939 193.92827,246.40816 128.5,247 62.611508,247.59601 9.3577605,227.69378 9.125,202.375 L 9,190.625 z"
         id="path3989" />
    </g>
    <g
       id="g4847"
       transform="matrix(0.99844128,0,0,-1.0053289,221.92526,293.85524)">
      <path
         style="opacity:0.05;fill:none;stroke:#000000;stroke-width:18;stroke-linejoin:round;stroke-miterlimit:4;stroke-opacity:1;stroke-dasharray:none"
         d="M -167.16892,151.68899 -93.893824,46.623697 -20.97443,152.02792 -167.16892,151.68899 z"
         id="path4845"
         sodipodi:nodetypes="cccc"
         inkscape:connector-curvature="0" />
      <path
         inkscape:connector-curvature="0"
         sodipodi:nodetypes="cccc"
         id="path4843"
         d="M -167.16892,151.68899 -93.893824,46.623697 -20.97443,152.02792 -167.16892,151.68899 z"
         style="opacity:0.1;fill:none;stroke:#000000;stroke-width:12;stroke-linejoin:round;stroke-miterlimit:4;stroke-opacity:1;stroke-dasharray:none" />
      <path
         style="opacity:0.15;fill:none;stroke:#000000;stroke-width:6;stroke-linejoin:round;stroke-miterlimit:4;stroke-opacity:1;stroke-dasharray:none"
         d="M -167.16892,151.68899 -93.893824,46.623697 -20.97443,152.02792 -167.16892,151.68899 z"
         id="path4841"
         sodipodi:nodetypes="cccc"
         inkscape:connector-curvature="0" />
      <path
         inkscape:connector-curvature="0"
         sodipodi:nodetypes="cccc"
         id="path2002"
         d="M -167.16892,151.68899 -93.893824,46.623697 -20.97443,152.02792 -167.16892,151.68899 z"
         style="fill:url(#linearGradient5841);fill-opacity:1;fill-rule:evenodd;stroke:none" />
      <path
         id="path4821"
         d="m -93.90625,46.625 -73.25,105.0625 1.40625,0 71.84375,-103.0625 71.5625,103.40625 1.375,0 L -93.90625,46.625 z"
         style="opacity:0.5;fill:#ffffff;fill-opacity:1;fill-rule:evenodd;stroke:none"
         inkscape:connector-curvature="0" />
      <path
         id="path4830"
         d="m -165.75,149.6875 -1.40625,2 146.1875,0.34375 -1.375,-2 L -165.75,149.6875 z"
         style="opacity:0.5;fill:#000000;fill-opacity:1;fill-rule:evenodd;stroke:none"
         inkscape:connector-curvature="0" />
      <path
         inkscape:connector-curvature="0"
         style="opacity:0.2;fill:#000000;fill-opacity:1;fill-rule:evenodd;stroke:none"
         d="m -165.75,151.6875 -1.40625,2 146.1875,0.34375 -1.375,-2 L -165.75,151.6875 z"
         id="path4839" />
    </g>
  </g>
</svg>
