<?xml version="1.0" encoding="UTF-8" standalone="no"?>
<!-- Created with Inkscape (http://www.inkscape.org/) -->

<svg
   xmlns:dc="http://purl.org/dc/elements/1.1/"
   xmlns:cc="http://creativecommons.org/ns#"
   xmlns:rdf="http://www.w3.org/1999/02/22-rdf-syntax-ns#"
   xmlns:svg="http://www.w3.org/2000/svg"
   xmlns="http://www.w3.org/2000/svg"
   xmlns:xlink="http://www.w3.org/1999/xlink"
   xmlns:sodipodi="http://sodipodi.sourceforge.net/DTD/sodipodi-0.dtd"
   xmlns:inkscape="http://www.inkscape.org/namespaces/inkscape"
   width="256"
   height="256"
   id="svg3840"
   version="1.1"
   inkscape:version="0.48.2 r9819"
   sodipodi:docname="gnome-log-out.svg">
  <defs
     id="defs3842">
    <linearGradient
       id="linearGradient3767">
      <stop
         style="stop-color:#000000;stop-opacity:1;"
         offset="0"
         id="stop3769" />
      <stop
         style="stop-color:#5a5a5a;stop-opacity:1;"
         offset="1"
         id="stop3771" />
    </linearGradient>
    <linearGradient
       inkscape:collect="always"
       xlink:href="#linearGradient3767"
       id="linearGradient4449"
       gradientUnits="userSpaceOnUse"
       x1="128.44412"
       y1="1015.1241"
       x2="128.44414"
       y2="821.62421"
       gradientTransform="translate(1.0339319,0.96263119)" />
  </defs>
  <sodipodi:namedview
     id="base"
     pagecolor="#ffffff"
     bordercolor="#666666"
     borderopacity="1.0"
     inkscape:pageopacity="0.0"
     inkscape:pageshadow="2"
     inkscape:zoom="1.6289062"
     inkscape:cx="128"
     inkscape:cy="128"
     inkscape:document-units="px"
     inkscape:current-layer="layer1"
     showgrid="false"
     inkscape:window-width="1024"
     inkscape:window-height="572"
     inkscape:window-x="0"
     inkscape:window-y="28"
     inkscape:window-maximized="1" />
  <metadata
     id="metadata3845">
    <rdf:RDF>
      <cc:Work
         rdf:about="">
        <dc:format>image/svg+xml</dc:format>
        <dc:type
           rdf:resource="http://purl.org/dc/dcmitype/StillImage" />
        <dc:title></dc:title>
      </cc:Work>
    </rdf:RDF>
  </metadata>
  <g
     inkscape:label="Layer 1"
     inkscape:groupmode="layer"
     id="layer1"
     transform="translate(0,-796.36218)">
    <g
       id="g4456"
       transform="matrix(0.97777848,0,0,0.97777848,1.3991917,20.854471)">
      <path
         inkscape:connector-curvature="0"
         id="path3803"
         d="m 118.22806,822.58682 0,89.99999 22.49999,0 0,-89.99999 -22.49999,0 z m -16.875,18 c -35.922561,11.81544 -61.874989,45.6228 -61.874989,85.49998 0,49.70563 40.294364,89.9999 89.999979,89.9999 49.70562,0 89.99999,-40.29427 89.99999,-89.9999 0,-39.87718 -25.95243,-73.68454 -61.87499,-85.49998 l 0,24.15234 c 23.22297,10.67076 39.37499,34.1162 39.37499,61.34764 0,37.27922 -30.22078,67.49997 -67.49999,67.49997 -37.279213,0 -67.499983,-30.22075 -67.499983,-67.49997 0,-27.23144 16.152017,-50.67688 39.374993,-61.34764 l 0,-24.15234 z"
         style="opacity:0.05;fill:none;stroke:#000000;stroke-width:24.54543686;stroke-linejoin:round;stroke-miterlimit:4;stroke-opacity:1;stroke-dasharray:none" />
      <path
         style="opacity:0.1;fill:none;stroke:#000000;stroke-width:18.40907669;stroke-linejoin:round;stroke-miterlimit:4;stroke-opacity:1;stroke-dasharray:none"
         d="m 118.22806,822.58682 0,89.99999 22.49999,0 0,-89.99999 -22.49999,0 z m -16.875,18 c -35.922561,11.81544 -61.874989,45.6228 -61.874989,85.49998 0,49.70563 40.294364,89.9999 89.999979,89.9999 49.70562,0 89.99999,-40.29427 89.99999,-89.9999 0,-39.87718 -25.95243,-73.68454 -61.87499,-85.49998 l 0,24.15234 c 23.22297,10.67076 39.37499,34.1162 39.37499,61.34764 0,37.27922 -30.22078,67.49997 -67.49999,67.49997 -37.279213,0 -67.499983,-30.22075 -67.499983,-67.49997 0,-27.23144 16.152017,-50.67688 39.374993,-61.34764 l 0,-24.15234 z"
         id="path3801"
         inkscape:connector-curvature="0" />
      <path
         inkscape:connector-curvature="0"
         id="path3799"
         d="m 118.22806,822.58682 0,89.99999 22.49999,0 0,-89.99999 -22.49999,0 z m -16.875,18 c -35.922561,11.81544 -61.874989,45.6228 -61.874989,85.49998 0,49.70563 40.294364,89.9999 89.999979,89.9999 49.70562,0 89.99999,-40.29427 89.99999,-89.9999 0,-39.87718 -25.95243,-73.68454 -61.87499,-85.49998 l 0,24.15234 c 23.22297,10.67076 39.37499,34.1162 39.37499,61.34764 0,37.27922 -30.22078,67.49997 -67.49999,67.49997 -37.279213,0 -67.499983,-30.22075 -67.499983,-67.49997 0,-27.23144 16.152017,-50.67688 39.374993,-61.34764 l 0,-24.15234 z"
         style="opacity:0.15;fill:none;stroke:#000000;stroke-width:12.27271843;stroke-linejoin:round;stroke-miterlimit:4;stroke-opacity:1;stroke-dasharray:none" />
      <path
         style="opacity:0.2;fill:none;stroke:#000000;stroke-width:6.13635921;stroke-linejoin:round;stroke-miterlimit:4;stroke-opacity:1;stroke-dasharray:none"
         d="m 118.22806,822.58682 0,89.99999 22.49999,0 0,-89.99999 -22.49999,0 z m -16.875,18 c -35.922561,11.81544 -61.874989,45.6228 -61.874989,85.49998 0,49.70563 40.294364,89.9999 89.999979,89.9999 49.70562,0 89.99999,-40.29427 89.99999,-89.9999 0,-39.87718 -25.95243,-73.68454 -61.87499,-85.49998 l 0,24.15234 c 23.22297,10.67076 39.37499,34.1162 39.37499,61.34764 0,37.27922 -30.22078,67.49997 -67.49999,67.49997 -37.279213,0 -67.499983,-30.22075 -67.499983,-67.49997 0,-27.23144 16.152017,-50.67688 39.374993,-61.34764 l 0,-24.15234 z"
         id="path3797"
         inkscape:connector-curvature="0" />
      <path
         style="opacity:0.3;fill:#000000;fill-opacity:1;stroke:none"
         d="m 118.22806,824.58682 0,89.99999 22.49999,0 0,-89.99999 -22.49999,0 z m -16.875,18 c -35.922561,11.81544 -61.874989,45.6228 -61.874989,85.49998 0,49.70563 40.294364,89.9999 89.999979,89.9999 49.70562,0 89.99999,-40.29427 89.99999,-89.9999 0,-39.87718 -25.95243,-73.68454 -61.87499,-85.49998 l 0,24.15234 c 23.22297,10.67076 39.37499,34.1162 39.37499,61.34764 0,37.27922 -30.22078,67.49997 -67.49999,67.49997 -37.279213,0 -67.499983,-30.22075 -67.499983,-67.49997 0,-27.23144 16.152017,-50.67688 39.374993,-61.34764 l 0,-24.15234 z"
         id="path3795"
         inkscape:connector-curvature="0" />
      <path
         inkscape:connector-curvature="0"
         id="path2985"
         d="m 118.22806,822.58682 0,89.99999 22.49999,0 0,-89.99999 -22.49999,0 z m -16.875,18 c -35.922561,11.81544 -61.874989,45.6228 -61.874989,85.49998 0,49.70563 40.294364,89.9999 89.999979,89.9999 49.70562,0 89.99999,-40.29427 89.99999,-89.9999 0,-39.87718 -25.95243,-73.68454 -61.87499,-85.49998 l 0,24.15234 c 23.22297,10.67076 39.37499,34.1162 39.37499,61.34764 0,37.27922 -30.22078,67.49997 -67.49999,67.49997 -37.279213,0 -67.499983,-30.22075 -67.499983,-67.49997 0,-27.23144 16.152017,-50.67688 39.374993,-61.34764 l 0,-24.15234 z"
         style="fill:url(#linearGradient4449);fill-opacity:1;stroke:none" />
      <path
         inkscape:connector-curvature="0"
         id="path3777"
         d="m 118.22806,822.58682 0,4.5 22.49999,0 0,-4.5 -22.49999,0 z m -16.875,18 c -35.922561,11.81544 -61.874989,45.6228 -61.874989,85.49998 0,0.77666 0.0156,1.54837 0.03515,2.32032 0.926103,-38.92529 26.573841,-71.72081 61.839829,-83.3203 l 0,-4.5 z m 56.24999,0 0,4.5 c 35.26599,11.59949 60.91373,44.39501 61.83983,83.3203 0.0195,-0.77195 0.0352,-1.54366 0.0352,-2.32032 0,-39.87718 -25.95243,-73.68454 -61.87499,-85.49998 z m -95.589827,87.46873 c -0.03127,0.84331 -0.03515,1.68027 -0.03515,2.53125 0,37.27922 30.22077,67.49997 67.499987,67.49997 37.27921,0 67.49999,-30.22075 67.49999,-67.49997 0,-0.85098 -0.004,-1.68794 -0.0352,-2.53125 -1.04237,36.36805 -30.84457,65.53122 -67.46483,65.53122 -36.62027,0 -66.422469,-29.16317 -67.464838,-65.53122 z"
         style="opacity:0.7;fill:#ffffff;fill-opacity:1;stroke:none" />
      <path
         inkscape:connector-curvature="0"
         id="path3786"
         d="m 101.35306,860.23916 c -23.222976,10.67076 -39.374993,34.1162 -39.374993,61.34765 0,0.63542 0.01771,1.26723 0.03515,1.89844 0.995073,-26.11257 16.862677,-48.41803 39.339833,-58.74609 l 0,-4.5 z m 56.24999,0 0,4.5 c 22.47715,10.32806 38.34476,32.63352 39.33984,58.74609 0.0175,-0.63121 0.0352,-1.26302 0.0352,-1.89844 0,-27.23145 -16.15202,-50.67689 -39.375,-61.34765 z m -39.37499,47.84765 0,4.5 22.49999,0 0,-4.5 -22.49999,0 z m -78.714833,15.92577 c -0.01562,0.68984 -0.03515,1.38063 -0.03515,2.07422 0,49.70563 40.294364,89.9999 89.999983,89.9999 49.70562,0 89.99999,-40.29427 89.99999,-89.9999 0,-0.69359 -0.0195,-1.38438 -0.0352,-2.07422 -1.28678,48.58317 -41.07114,87.57412 -89.96483,87.57412 -48.893705,0 -88.678059,-38.99095 -89.964833,-87.57412 z"
         style="opacity:0.7;fill:#000000;fill-opacity:1;stroke:none" />
    </g>
  </g>
</svg>
