<?xml version="1.0" encoding="UTF-8" standalone="no"?>
<!-- Created with Inkscape (http://www.inkscape.org/) -->

<svg
   xmlns:dc="http://purl.org/dc/elements/1.1/"
   xmlns:cc="http://creativecommons.org/ns#"
   xmlns:rdf="http://www.w3.org/1999/02/22-rdf-syntax-ns#"
   xmlns:svg="http://www.w3.org/2000/svg"
   xmlns="http://www.w3.org/2000/svg"
   xmlns:xlink="http://www.w3.org/1999/xlink"
   xmlns:sodipodi="http://sodipodi.sourceforge.net/DTD/sodipodi-0.dtd"
   xmlns:inkscape="http://www.inkscape.org/namespaces/inkscape"
   width="256"
   height="256"
   id="svg5583"
   version="1.1"
   inkscape:version="0.48.3.1 r9886"
   sodipodi:docname="system-reboot.svg">
  <defs
     id="defs5585">
    <linearGradient
       id="linearGradient3637-2">
      <stop
         offset="0"
         style="stop-color:#000000;stop-opacity:1;"
         id="stop3639-7" />
      <stop
         offset="1"
         style="stop-color:#5a5a5a;stop-opacity:1;"
         id="stop3641-9" />
    </linearGradient>
    <linearGradient
       inkscape:collect="always"
       xlink:href="#linearGradient3637-2"
       id="linearGradient3812"
       gradientUnits="userSpaceOnUse"
       gradientTransform="matrix(-2.6267558,0,0,-2.6249987,946.36476,722.79861)"
       x1="47.995777"
       y1="15.995784"
       x2="47.995777"
       y2="79.995796" />
  </defs>
  <sodipodi:namedview
     id="base"
     pagecolor="#ffffff"
     bordercolor="#666666"
     borderopacity="1.0"
     inkscape:pageopacity="0.0"
     inkscape:pageshadow="2"
     inkscape:zoom="1.6914062"
     inkscape:cx="117.65358"
     inkscape:cy="128"
     inkscape:document-units="px"
     inkscape:current-layer="layer1"
     showgrid="false"
     fit-margin-top="0"
     fit-margin-left="0"
     fit-margin-right="0"
     fit-margin-bottom="0"
     inkscape:window-width="1024"
     inkscape:window-height="572"
     inkscape:window-x="0"
     inkscape:window-y="28"
     inkscape:window-maximized="1" />
  <metadata
     id="metadata5588">
    <rdf:RDF>
      <cc:Work
         rdf:about="">
        <dc:format>image/svg+xml</dc:format>
        <dc:type
           rdf:resource="http://purl.org/dc/dcmitype/StillImage" />
        <dc:title></dc:title>
      </cc:Work>
    </rdf:RDF>
  </metadata>
  <g
     inkscape:label="Layer 1"
     inkscape:groupmode="layer"
     id="layer1"
     transform="translate(-693.9062,-465.01402)">
    <g
       id="g3803"
       transform="matrix(0.96774194,0,0,0.96774194,28.615126,15.456281)">
      <path
         style="opacity:0.1;color:#000000;fill:none;stroke:#000000;stroke-width:18;stroke-linejoin:round;stroke-miterlimit:4;stroke-opacity:1;stroke-dasharray:none;marker:none;visibility:visible;display:inline;overflow:visible;enable-background:accumulate"
         id="path3801"
         inkscape:connector-curvature="0"
         d="m 820.29158,512.80966 c -5.82091,0 -10.50704,4.683 -10.50704,10.5 l 0,55.28903 -47.93829,-27.64452 c -5.04104,-2.9085 -11.45461,-1.1822 -14.36507,3.85548 -2.91045,5.03766 -1.18299,11.44696 3.85805,14.35545 l 47.9383,27.64452 -47.9383,27.64452 c -5.04104,2.9085 -6.7685,9.31778 -3.85805,14.35546 2.91044,5.03766 9.32403,6.76397 14.36507,3.85547 l 47.93829,-27.64452 0,55.28902 c 0,5.81702 4.68613,10.50009 10.50704,10.50009 5.82088,0 10.50702,-4.68307 10.50702,-10.50009 l 0,-55.28902 47.93829,27.64452 c 5.04103,2.9085 11.45462,1.18219 14.36507,-3.85547 2.91044,-5.03767 1.18299,-11.44696 -3.85805,-14.35546 l -47.9383,-27.64452 47.9383,-27.64452 c 5.04104,-2.90849 6.76849,-9.31779 3.85805,-14.35545 -2.91045,-5.03768 -9.32403,-6.76398 -14.36507,-3.85548 l -47.93829,27.64452 0,-55.28903 c 0,-5.817 -4.68614,-10.5 -10.50702,-10.5 z" />
      <path
         d="m 820.29158,512.80966 c -5.82091,0 -10.50704,4.683 -10.50704,10.5 l 0,55.28903 -47.93829,-27.64452 c -5.04104,-2.9085 -11.45461,-1.1822 -14.36507,3.85548 -2.91045,5.03766 -1.18299,11.44696 3.85805,14.35545 l 47.9383,27.64452 -47.9383,27.64452 c -5.04104,2.9085 -6.7685,9.31778 -3.85805,14.35546 2.91044,5.03766 9.32403,6.76397 14.36507,3.85547 l 47.93829,-27.64452 0,55.28902 c 0,5.81702 4.68613,10.50009 10.50704,10.50009 5.82088,0 10.50702,-4.68307 10.50702,-10.50009 l 0,-55.28902 47.93829,27.64452 c 5.04103,2.9085 11.45462,1.18219 14.36507,-3.85547 2.91044,-5.03767 1.18299,-11.44696 -3.85805,-14.35546 l -47.9383,-27.64452 47.9383,-27.64452 c 5.04104,-2.90849 6.76849,-9.31779 3.85805,-14.35545 -2.91045,-5.03768 -9.32403,-6.76398 -14.36507,-3.85548 l -47.93829,27.64452 0,-55.28903 c 0,-5.817 -4.68614,-10.5 -10.50702,-10.5 z"
         inkscape:connector-curvature="0"
         id="path3799"
         style="opacity:0.1;color:#000000;fill:none;stroke:#000000;stroke-width:12;stroke-linejoin:round;stroke-miterlimit:4;stroke-opacity:1;stroke-dasharray:none;marker:none;visibility:visible;display:inline;overflow:visible;enable-background:accumulate" />
      <path
         style="opacity:0.1;color:#000000;fill:none;stroke:#000000;stroke-width:6;stroke-linejoin:round;stroke-opacity:1;marker:none;visibility:visible;display:inline;overflow:visible;enable-background:accumulate"
         id="path3797"
         inkscape:connector-curvature="0"
         d="m 820.29158,512.80966 c -5.82091,0 -10.50704,4.683 -10.50704,10.5 l 0,55.28903 -47.93829,-27.64452 c -5.04104,-2.9085 -11.45461,-1.1822 -14.36507,3.85548 -2.91045,5.03766 -1.18299,11.44696 3.85805,14.35545 l 47.9383,27.64452 -47.9383,27.64452 c -5.04104,2.9085 -6.7685,9.31778 -3.85805,14.35546 2.91044,5.03766 9.32403,6.76397 14.36507,3.85547 l 47.93829,-27.64452 0,55.28902 c 0,5.81702 4.68613,10.50009 10.50704,10.50009 5.82088,0 10.50702,-4.68307 10.50702,-10.50009 l 0,-55.28902 47.93829,27.64452 c 5.04103,2.9085 11.45462,1.18219 14.36507,-3.85547 2.91044,-5.03767 1.18299,-11.44696 -3.85805,-14.35546 l -47.9383,-27.64452 47.9383,-27.64452 c 5.04104,-2.90849 6.76849,-9.31779 3.85805,-14.35545 -2.91045,-5.03768 -9.32403,-6.76398 -14.36507,-3.85548 l -47.93829,27.64452 0,-55.28903 c 0,-5.817 -4.68614,-10.5 -10.50702,-10.5 z" />
      <path
         d="m 820.29158,512.80966 c -5.82091,0 -10.50704,4.683 -10.50704,10.5 l 0,55.28903 -47.93829,-27.64452 c -5.04104,-2.9085 -11.45461,-1.1822 -14.36507,3.85548 -2.91045,5.03766 -1.18299,11.44696 3.85805,14.35545 l 47.9383,27.64452 -47.9383,27.64452 c -5.04104,2.9085 -6.7685,9.31778 -3.85805,14.35546 2.91044,5.03766 9.32403,6.76397 14.36507,3.85547 l 47.93829,-27.64452 0,55.28902 c 0,5.81702 4.68613,10.50009 10.50704,10.50009 5.82088,0 10.50702,-4.68307 10.50702,-10.50009 l 0,-55.28902 47.93829,27.64452 c 5.04103,2.9085 11.45462,1.18219 14.36507,-3.85547 2.91044,-5.03767 1.18299,-11.44696 -3.85805,-14.35546 l -47.9383,-27.64452 47.9383,-27.64452 c 5.04104,-2.90849 6.76849,-9.31779 3.85805,-14.35545 -2.91045,-5.03768 -9.32403,-6.76398 -14.36507,-3.85548 l -47.93829,27.64452 0,-55.28903 c 0,-5.817 -4.68614,-10.5 -10.50702,-10.5 z"
         inkscape:connector-curvature="0"
         id="path3174"
         style="color:#000000;fill:url(#linearGradient3812);fill-opacity:1;stroke:none;stroke-width:6;marker:none;visibility:visible;display:inline;overflow:visible;enable-background:accumulate" />
      <path
         id="path3777"
         transform="translate(693.9062,465.01402)"
         d="m 126.375,47.78125 c -5.82091,0 -10.5,4.683 -10.5,10.5 l 0,2 c 0,-5.817 4.67909,-10.5 10.5,-10.5 5.82088,0 10.53125,4.683 10.53125,10.5 l 0,-2 c 0,-5.817 -4.71037,-10.5 -10.53125,-10.5 z m -63.40625,36.75 c -3.72813,-0.09693 -7.405309,1.786595 -9.40625,5.25 -1.142492,1.977524 -1.550499,4.175734 -1.34375,6.28125 0.137562,-1.458548 0.56097,-2.926347 1.34375,-4.28125 2.91046,-5.03768 9.33396,-6.75225 14.375,-3.84375 l 47.9375,27.65625 0,-2 L 67.9375,85.9375 c -1.575325,-0.908906 -3.274145,-1.362191 -4.96875,-1.40625 z m 126.84375,0 c -1.69461,0.04406 -3.39343,0.497344 -4.96875,1.40625 l -47.9375,27.65625 0,2 47.9375,-27.65625 c 5.04104,-2.9085 11.4333,-1.19393 14.34375,3.84375 0.78836,1.364558 1.2409,2.8435 1.375,4.3125 0.21401,-2.115002 -0.22692,-4.325288 -1.375,-6.3125 -2.00093,-3.463405 -5.64687,-5.346931 -9.375,-5.25 z m -86.15625,48.25 -46.21875,26.65625 c -3.685227,2.12624 -5.592658,6.12927 -5.21875,10.09375 0.319935,-3.2582 2.156561,-6.32698 5.21875,-8.09375 l 47.9375,-27.65625 -1.71875,-1 z m 45.46875,0 -1.71875,1 47.9375,27.65625 c 3.0525,1.76118 4.89024,4.81589 5.21875,8.0625 0.36096,-3.95424 -1.54318,-7.94183 -5.21875,-10.0625 L 149.125,132.78125 z"
         style="opacity:0.7;color:#000000;fill:#ffffff;fill-opacity:1;stroke:none;stroke-width:6;marker:none;visibility:visible;display:inline;overflow:visible;enable-background:accumulate"
         inkscape:connector-curvature="0" />
      <path
         id="path3786"
         transform="translate(693.9062,465.01402)"
         d="m 52.21875,94.0625 c -0.373908,3.964473 1.533522,7.96751 5.21875,10.09375 l 46.21875,26.625 1.71875,-1 -47.9375,-27.625 c -3.062189,-1.76677 -4.898815,-4.835552 -5.21875,-8.09375 z m 148.34375,0.03125 c -0.32851,3.246613 -2.16625,6.30133 -5.21875,8.0625 l -47.9375,27.625 1.71875,1 46.21875,-26.625 c 3.67557,-2.12066 5.57971,-6.108262 5.21875,-10.0625 z M 115.875,148 67.9375,175.65625 c -5.04104,2.9085 -11.46456,1.16266 -14.375,-3.875 -0.78278,-1.35491 -1.206188,-2.79145 -1.34375,-4.25 -0.206749,2.10552 0.201258,4.27247 1.34375,6.25 2.91044,5.03766 9.33396,6.7835 14.375,3.875 L 115.875,150 l 0,-2 z m 21.03125,0 0,2 47.9375,27.65625 c 5.04103,2.9085 11.4333,1.16266 14.34375,-3.875 1.14808,-1.98722 1.58901,-4.16625 1.375,-6.28125 -0.1341,1.469 -0.58664,2.91669 -1.375,4.28125 -2.91045,5.03766 -9.30272,6.7835 -14.34375,3.875 L 136.90625,148 z m -21.03125,55.28125 0,2 c 0,5.81702 4.67909,10.5 10.5,10.5 5.82088,0 10.53125,-4.68298 10.53125,-10.5 l 0,-2 c 0,5.81702 -4.71037,10.5 -10.53125,10.5 -5.82091,0 -10.5,-4.68298 -10.5,-10.5 z"
         style="opacity:0.7;color:#000000;fill:#000000;fill-opacity:1;stroke:none;stroke-width:6;marker:none;visibility:visible;display:inline;overflow:visible;enable-background:accumulate"
         inkscape:connector-curvature="0" />
      <path
         inkscape:connector-curvature="0"
         style="opacity:0.3;color:#000000;fill:#000000;fill-opacity:1;stroke:none;stroke-width:6;marker:none;visibility:visible;display:inline;overflow:visible;enable-background:accumulate"
         d="m 746.12495,561.07652 c -0.37391,3.96447 1.53352,7.96751 5.21875,10.09375 l 46.21875,26.625 1.71875,-1 -47.9375,-27.625 c -3.06219,-1.76677 -4.89882,-4.83555 -5.21875,-8.09375 z m 148.34375,0.0313 c -0.32851,3.24661 -2.16625,6.30133 -5.21875,8.0625 l -47.9375,27.625 1.71875,1 46.21875,-26.625 c 3.67557,-2.12066 5.57971,-6.10826 5.21875,-10.0625 z m -84.6875,53.90625 -47.9375,27.65625 c -5.04104,2.9085 -11.46456,1.16266 -14.375,-3.875 -0.78278,-1.35491 -1.20619,-2.79145 -1.34375,-4.25 -0.20675,2.10552 0.20126,4.27247 1.34375,6.25 2.91044,5.03766 9.33396,6.7835 14.375,3.875 l 47.9375,-27.65625 0,-2 z m 21.03125,0 0,2 47.9375,27.65625 c 5.04103,2.9085 11.4333,1.16266 14.34375,-3.875 1.14808,-1.98722 1.58901,-4.16625 1.375,-6.28125 -0.1341,1.469 -0.58664,2.91669 -1.375,4.28125 -2.91045,5.03766 -9.30272,6.7835 -14.34375,3.875 l -47.9375,-27.65625 z m -21.03125,55.28125 0,2 c 0,5.81702 4.67909,10.5 10.5,10.5 5.82088,0 10.53125,-4.68298 10.53125,-10.5 l 0,-2 c 0,5.81702 -4.71037,10.5 -10.53125,10.5 -5.82091,0 -10.5,-4.68298 -10.5,-10.5 z"
         id="path3795" />
    </g>
  </g>
</svg>
