<?xml version="1.0" encoding="UTF-8" standalone="no"?>
<!-- Created with Inkscape (http://www.inkscape.org/) -->

<svg
   xmlns:dc="http://purl.org/dc/elements/1.1/"
   xmlns:cc="http://creativecommons.org/ns#"
   xmlns:rdf="http://www.w3.org/1999/02/22-rdf-syntax-ns#"
   xmlns:svg="http://www.w3.org/2000/svg"
   xmlns="http://www.w3.org/2000/svg"
   xmlns:xlink="http://www.w3.org/1999/xlink"
   xmlns:sodipodi="http://sodipodi.sourceforge.net/DTD/sodipodi-0.dtd"
   xmlns:inkscape="http://www.inkscape.org/namespaces/inkscape"
   width="256"
   height="256"
   id="svg4787"
   version="1.1"
   inkscape:version="0.48.2 r9819"
   sodipodi:docname="gnome-lockscreen.svg">
  <defs
     id="defs4789">
    <linearGradient
       inkscape:collect="always"
       xlink:href="#linearGradient3767"
       id="linearGradient4762"
       gradientUnits="userSpaceOnUse"
       gradientTransform="translate(-10.642032,2.95612)"
       x1="137.17328"
       y1="212.01263"
       x2="137.17328"
       y2="32.01263" />
    <linearGradient
       id="linearGradient3767">
      <stop
         style="stop-color:#000000;stop-opacity:1;"
         offset="0"
         id="stop3769" />
      <stop
         style="stop-color:#5a5a5a;stop-opacity:1;"
         offset="1"
         id="stop3771" />
    </linearGradient>
  </defs>
  <sodipodi:namedview
     id="base"
     pagecolor="#ffffff"
     bordercolor="#666666"
     borderopacity="1.0"
     inkscape:pageopacity="0.0"
     inkscape:pageshadow="2"
     inkscape:zoom="1.6289062"
     inkscape:cx="128"
     inkscape:cy="128"
     inkscape:document-units="px"
     inkscape:current-layer="layer1"
     showgrid="false"
     inkscape:window-width="1024"
     inkscape:window-height="572"
     inkscape:window-x="0"
     inkscape:window-y="28"
     inkscape:window-maximized="1" />
  <metadata
     id="metadata4792">
    <rdf:RDF>
      <cc:Work
         rdf:about="">
        <dc:format>image/svg+xml</dc:format>
        <dc:type
           rdf:resource="http://purl.org/dc/dcmitype/StillImage" />
        <dc:title></dc:title>
      </cc:Work>
    </rdf:RDF>
  </metadata>
  <g
     inkscape:label="Layer 1"
     inkscape:groupmode="layer"
     id="layer1"
     transform="translate(0,-796.36218)">
    <g
       id="g4727"
       transform="matrix(0.97777917,0,0,0.97777917,6.2805057,23.503862)">
      <path
         id="path4725"
         transform="translate(0,796.36218)"
         d="m 126.53125,34.96875 c -49.705628,0 -90,40.29437 -90,90 0,49.70563 40.294372,90 90,90 40.2724,0 74.38452,-26.46057 85.875,-62.9375 l -29.875,14.9375 c -12.77119,16.99857 -33.10146,28 -56,28 -38.659933,0 -70,-31.34007 -70,-70 0,-38.65993 31.340067,-70 70,-70 22.89854,0 43.22881,11.00143 56,28 l 29.875,14.9375 c -11.49048,-36.47693 -45.6026,-62.9375 -85.875,-62.9375 z m 45.875,55 0,23.75 -60,0 0,22.5 60,0 0,23.75 70,-35 -70,-35 z"
         style="opacity:0.05;fill:none;stroke:#000000;stroke-width:24.5454216;stroke-linejoin:round;stroke-miterlimit:4;stroke-opacity:1;stroke-dasharray:none"
         inkscape:connector-curvature="0" />
      <path
         style="opacity:0.1;fill:none;stroke:#000000;stroke-width:18.40906334;stroke-linejoin:round;stroke-miterlimit:4;stroke-opacity:1;stroke-dasharray:none"
         d="m 126.53125,34.96875 c -49.705628,0 -90,40.29437 -90,90 0,49.70563 40.294372,90 90,90 40.2724,0 74.38452,-26.46057 85.875,-62.9375 l -29.875,14.9375 c -12.77119,16.99857 -33.10146,28 -56,28 -38.659933,0 -70,-31.34007 -70,-70 0,-38.65993 31.340067,-70 70,-70 22.89854,0 43.22881,11.00143 56,28 l 29.875,14.9375 c -11.49048,-36.47693 -45.6026,-62.9375 -85.875,-62.9375 z m 45.875,55 0,23.75 -60,0 0,22.5 60,0 0,23.75 70,-35 -70,-35 z"
         transform="translate(0,796.36218)"
         id="path4723"
         inkscape:connector-curvature="0" />
      <path
         id="path4721"
         transform="translate(0,796.36218)"
         d="m 126.53125,34.96875 c -49.705628,0 -90,40.29437 -90,90 0,49.70563 40.294372,90 90,90 40.2724,0 74.38452,-26.46057 85.875,-62.9375 l -29.875,14.9375 c -12.77119,16.99857 -33.10146,28 -56,28 -38.659933,0 -70,-31.34007 -70,-70 0,-38.65993 31.340067,-70 70,-70 22.89854,0 43.22881,11.00143 56,28 l 29.875,14.9375 c -11.49048,-36.47693 -45.6026,-62.9375 -85.875,-62.9375 z m 45.875,55 0,23.75 -60,0 0,22.5 60,0 0,23.75 70,-35 -70,-35 z"
         style="opacity:0.15;fill:none;stroke:#000000;stroke-width:12.2727108;stroke-linejoin:round;stroke-miterlimit:4;stroke-opacity:1;stroke-dasharray:none"
         inkscape:connector-curvature="0" />
      <path
         style="opacity:0.2;fill:none;stroke:#000000;stroke-width:6.1363554;stroke-linejoin:round;stroke-miterlimit:4;stroke-opacity:1;stroke-dasharray:none"
         d="m 126.53125,34.96875 c -49.705628,0 -90,40.29437 -90,90 0,49.70563 40.294372,90 90,90 40.2724,0 74.38452,-26.46057 85.875,-62.9375 l -29.875,14.9375 c -12.77119,16.99857 -33.10146,28 -56,28 -38.659933,0 -70,-31.34007 -70,-70 0,-38.65993 31.340067,-70 70,-70 22.89854,0 43.22881,11.00143 56,28 l 29.875,14.9375 c -11.49048,-36.47693 -45.6026,-62.9375 -85.875,-62.9375 z m 45.875,55 0,23.75 -60,0 0,22.5 60,0 0,23.75 70,-35 -70,-35 z"
         transform="translate(0,796.36218)"
         id="path4719"
         inkscape:connector-curvature="0" />
      <path
         inkscape:connector-curvature="0"
         style="opacity:0.3;fill:#000000;fill-opacity:1;stroke:none"
         d="m 126.53125,833.33093 c -49.705628,0 -90,40.29437 -90,90 0,49.70563 40.294372,89.99997 90,89.99997 40.2724,0 74.38452,-26.46054 85.875,-62.93747 l -29.875,14.9375 c -12.77119,16.99857 -33.10146,28 -56,28 -38.659933,0 -70,-31.34007 -70,-70 0,-38.65993 31.340067,-70 70,-70 22.89854,0 43.22881,11.00143 56,28 l 29.875,14.9375 c -11.49048,-36.47693 -45.6026,-62.9375 -85.875,-62.9375 z m 45.875,55 0,23.75 -60,0 0,22.5 60,0 0,23.75 70,-35 -70,-35 z"
         id="path4715" />
      <path
         id="path4658"
         transform="translate(0,796.36218)"
         d="m 126.53125,34.96875 c -49.705628,0 -90,40.29437 -90,90 0,49.70563 40.294372,90 90,90 40.2724,0 74.38452,-26.46057 85.875,-62.9375 l -29.875,14.9375 c -12.77119,16.99857 -33.10146,28 -56,28 -38.659933,0 -70,-31.34007 -70,-70 0,-38.65993 31.340067,-70 70,-70 22.89854,0 43.22881,11.00143 56,28 l 29.875,14.9375 c -11.49048,-36.47693 -45.6026,-62.9375 -85.875,-62.9375 z m 45.875,55 0,23.75 -60,0 0,22.5 60,0 0,23.75 70,-35 -70,-35 z"
         style="fill:url(#linearGradient4762);fill-opacity:1;stroke:none"
         inkscape:connector-curvature="0" />
      <path
         id="path4697"
         transform="translate(0,796.36218)"
         d="m 126.53125,34.96875 c -49.705628,0 -90,40.29437 -90,90 0,0.56678 0.02082,1.12321 0.03125,1.6875 1.232102,-48.632051 41.039772,-87.6875 89.96875,-87.6875 38.45942,0 71.26984,24.151988 84.15625,58.09375 l 1.71875,0.84375 c -11.49048,-36.47693 -45.6026,-62.9375 -85.875,-62.9375 z m 45.875,55 0,4 66,33 4,-2 -70,-35 z m -60,23.75 0,4 60,0 0,-4 -60,0 z m -55.8125,13.25 c -0.01884,0.66788 -0.0625,1.32756 -0.0625,2 0,38.65993 31.340067,70 70,70 22.89854,0 43.22881,-11.00143 56,-28 L 210.6875,156.875 c 0.60746,-1.60001 1.20147,-3.20164 1.71875,-4.84375 l -29.875,14.9375 c -12.77119,16.99857 -33.10146,28 -56,28 -37.987496,0 -68.873368,-30.26986 -69.9375,-68 z"
         style="opacity:0.7;fill:#ffffff;fill-opacity:1;stroke:none"
         inkscape:connector-curvature="0" />
      <path
         id="path4706"
         transform="translate(0,796.36218)"
         d="m 126.53125,50.96875 c -38.659933,0 -70,31.34007 -70,70 0,0.67244 0.04366,1.33212 0.0625,2 1.064132,-37.730143 31.950004,-68 69.9375,-68 22.89854,0 43.22881,11.00143 56,28 l 29.875,14.9375 c -0.51728,-1.642112 -1.11129,-3.243737 -1.71875,-4.84375 L 182.53125,78.96875 c -12.77119,-16.99857 -33.10146,-28 -56,-28 z m 111.875,72 -66,33 0,4 70,-35 -4,-2 z m -201.84375,0.3125 c -0.01043,0.56429 -0.03125,1.12072 -0.03125,1.6875 0,49.70563 40.294372,90 90,90 40.2724,0 74.38452,-26.46057 85.875,-62.9375 l -1.71875,0.84375 c -12.88641,33.94176 -45.69683,58.09375 -84.15625,58.09375 -48.928978,0 -88.736648,-39.05545 -89.96875,-87.6875 z m 75.84375,8.9375 0,4 60,0 0,-4 -60,0 z"
         style="opacity:0.7;fill:#000000;fill-opacity:1;stroke:none"
         inkscape:connector-curvature="0" />
    </g>
  </g>
</svg>
