<?xml version="1.0" encoding="UTF-8" standalone="no"?>
<!-- Created with Inkscape (http://www.inkscape.org/) -->

<svg
   xmlns:dc="http://purl.org/dc/elements/1.1/"
   xmlns:cc="http://creativecommons.org/ns#"
   xmlns:rdf="http://www.w3.org/1999/02/22-rdf-syntax-ns#"
   xmlns:svg="http://www.w3.org/2000/svg"
   xmlns="http://www.w3.org/2000/svg"
   xmlns:xlink="http://www.w3.org/1999/xlink"
   xmlns:sodipodi="http://sodipodi.sourceforge.net/DTD/sodipodi-0.dtd"
   xmlns:inkscape="http://www.inkscape.org/namespaces/inkscape"
   version="1.0"
   width="256"
   height="256"
   id="svg2408"
   inkscape:version="0.48.3.1 r9886"
   sodipodi:docname="stock_new-tab.svg">
  <sodipodi:namedview
     pagecolor="#ffffff"
     bordercolor="#666666"
     borderopacity="1"
     objecttolerance="10"
     gridtolerance="10"
     guidetolerance="10"
     inkscape:pageopacity="0"
     inkscape:pageshadow="2"
     inkscape:window-width="1024"
     inkscape:window-height="572"
     id="namedview93"
     showgrid="false"
     inkscape:zoom="1.6367188"
     inkscape:cx="117.30788"
     inkscape:cy="128"
     inkscape:window-x="0"
     inkscape:window-y="28"
     inkscape:window-maximized="1"
     inkscape:current-layer="svg2408" />
  <defs
     id="defs2410">
    <linearGradient
       id="linearGradient3637">
      <stop
         id="stop3639"
         style="stop-color:#5a5a5a;stop-opacity:1;"
         offset="0" />
      <stop
         id="stop3641"
         style="stop-color:#000000;stop-opacity:1;"
         offset="1" />
    </linearGradient>
    <linearGradient
       x1="45.447727"
       y1="92.539597"
       x2="45.447727"
       y2="7.0165396"
       id="ButtonShadow"
       gradientUnits="userSpaceOnUse"
       gradientTransform="scale(1.0058652,0.994169)">
      <stop
         id="stop3750"
         style="stop-color:#000000;stop-opacity:1"
         offset="0" />
      <stop
         id="stop3752"
         style="stop-color:#000000;stop-opacity:0.58823532"
         offset="1" />
    </linearGradient>
    <linearGradient
       id="linearGradient3737">
      <stop
         id="stop3739"
         style="stop-color:#ffffff;stop-opacity:1"
         offset="0" />
      <stop
         id="stop3741"
         style="stop-color:#ffffff;stop-opacity:0"
         offset="1" />
    </linearGradient>
    <linearGradient
       id="linearGradient3700">
      <stop
         id="stop3702"
         style="stop-color:#2276c5;stop-opacity:1"
         offset="0" />
      <stop
         id="stop3704"
         style="stop-color:#68baf4;stop-opacity:1"
         offset="1" />
    </linearGradient>
    <filter
       color-interpolation-filters="sRGB"
       id="filter3174">
      <feGaussianBlur
         id="feGaussianBlur3176"
         stdDeviation="1.71" />
    </filter>
    <linearGradient
       x1="36.357143"
       y1="6"
       x2="36.357143"
       y2="63.893143"
       id="linearGradient3188"
       xlink:href="#linearGradient3737"
       gradientUnits="userSpaceOnUse" />
    <filter
       x="-0.192"
       y="-0.192"
       width="1.3839999"
       height="1.3839999"
       color-interpolation-filters="sRGB"
       id="filter3794">
      <feGaussianBlur
         id="feGaussianBlur3796"
         stdDeviation="5.28" />
    </filter>
    <linearGradient
       x1="48"
       y1="20.220806"
       x2="48"
       y2="138.66119"
       id="linearGradient3613"
       xlink:href="#linearGradient3737"
       gradientUnits="userSpaceOnUse" />
    <radialGradient
       cx="48"
       cy="90.171875"
       r="42"
       fx="48"
       fy="90.171875"
       id="radialGradient3619"
       xlink:href="#linearGradient3737"
       gradientUnits="userSpaceOnUse"
       gradientTransform="matrix(1.1573129,0,0,0.99590774,-7.5510206,0.19713193)" />
    <clipPath
       id="clipPath3613">
      <rect
         width="84"
         height="84"
         rx="6"
         ry="6"
         x="6"
         y="6"
         id="rect3615"
         style="fill:#ffffff;fill-opacity:1;fill-rule:nonzero;stroke:none" />
    </clipPath>
    <linearGradient
       x1="48"
       y1="90"
       x2="48"
       y2="5.9877172"
       id="linearGradient2843"
       xlink:href="#linearGradient3700"
       gradientUnits="userSpaceOnUse"
       gradientTransform="translate(0,100)" />
    <clipPath
       id="clipPath3625">
      <path
         d="M 0,0 0,96 96,96 96,0 0,0 z m 12,6 72,0 c 3.324,0 6,2.676 6,6 l 0,72 c 0,3.324 -2.676,6 -6,6 L 12,90 C 8.676,90 6,87.324 6,84 L 6,12 C 6,8.676 8.676,6 12,6 z"
         inkscape:connector-curvature="0"
         id="path3627"
         style="fill:#ffffff;fill-opacity:1;stroke:none" />
    </clipPath>
    <linearGradient
       x1="44.512066"
       y1="6"
       x2="44.512066"
       y2="90.015434"
       id="linearGradient3643"
       xlink:href="#linearGradient3637"
       gradientUnits="userSpaceOnUse" />
    <clipPath
       id="clipPath3649">
      <rect
         width="76"
         height="76"
         rx="4"
         ry="4"
         x="10"
         y="10"
         id="rect3651"
         style="fill:#ffffff;fill-opacity:1;fill-rule:nonzero;stroke:none" />
    </clipPath>
    <filter
       color-interpolation-filters="sRGB"
       id="filter3657">
      <feGaussianBlur
         id="feGaussianBlur3659"
         stdDeviation="1.14" />
    </filter>
    <linearGradient
       inkscape:collect="always"
       xlink:href="#linearGradient3637"
       id="linearGradient3830"
       gradientUnits="userSpaceOnUse"
       gradientTransform="matrix(11.555059,0,0,13.594188,-29.379399,-36.771829)"
       x1="11.998966"
       y1="5.5316968"
       x2="11.998966"
       y2="21.205191" />
  </defs>
  <metadata
     id="metadata2413">
    <rdf:RDF>
      <cc:Work
         rdf:about="">
        <dc:format>image/svg+xml</dc:format>
        <dc:type
           rdf:resource="http://purl.org/dc/dcmitype/StillImage" />
        <dc:title></dc:title>
      </cc:Work>
    </rdf:RDF>
  </metadata>
  <g
     id="layer2"
     style="display:none"
     transform="translate(0,160)">
    <rect
       width="86"
       height="85"
       rx="6"
       ry="6"
       x="5"
       y="7"
       clip-path="url(#clipPath3625)"
       id="rect3745"
       style="opacity:0.9;fill:url(#ButtonShadow);fill-opacity:1;fill-rule:nonzero;stroke:none;filter:url(#filter3174)" />
  </g>
  <g
     id="layer1"
     style="display:none"
     transform="translate(0,160)">
    <rect
       width="84"
       height="84"
       rx="6"
       ry="6"
       x="6"
       y="6"
       id="rect2419"
       style="opacity:0.8;fill:#000000;fill-opacity:1;fill-rule:nonzero;stroke:none" />
    <path
       d="m 14,10 c -2.216,0 -4,1.784 -4,4 l 0,68 c 0,2.216 1.784,4 4,4 l 68,0 c 2.216,0 4,-1.784 4,-4 l 0,-68 c 0,-2.216 -1.784,-4 -4,-4 l -68,0 z m 0,3.0625 68,0 c 0.578769,0 0.9375,0.358731 0.9375,0.9375 l 0,68 c 0,0.578769 -0.358731,0.9375 -0.9375,0.9375 l -68,0 c -0.578769,0 -0.9375,-0.358731 -0.9375,-0.9375 l 0,-68 c 0,-0.578769 0.358731,-0.9375 0.9375,-0.9375 z"
       inkscape:connector-curvature="0"
       id="rect3726"
       style="opacity:0.07999998;fill:#000000;fill-opacity:1;fill-rule:nonzero;stroke:none" />
    <path
       d="M 12,6 C 8.676,6 6,8.676 6,12 l 0,72 c 0,3.324 2.676,6 6,6 l 72,0 c 3.324,0 6,-2.676 6,-6 L 90,12 C 90,8.676 87.324,6 84,6 L 12,6 z m 2,4 68,0 c 2.216,0 4,1.784 4,4 l 0,68 c 0,2.216 -1.784,4 -4,4 l -68,0 c -2.216,0 -4,-1.784 -4,-4 l 0,-68 c 0,-2.216 1.784,-4 4,-4 z"
       inkscape:connector-curvature="0"
       id="rect3629"
       style="fill:url(#linearGradient3643);fill-opacity:1;fill-rule:nonzero;stroke:none" />
    <path
       d="M 12,6 C 8.676,6 6,8.676 6,12 l 0,2 0,68 0,2 c 0,0.334721 0.04135,0.6507 0.09375,0.96875 0.0487,0.295596 0.09704,0.596915 0.1875,0.875 0.00988,0.03038 0.020892,0.0636 0.03125,0.09375 0.098865,0.287771 0.2348802,0.547452 0.375,0.8125 0.1445918,0.273507 0.3156161,0.535615 0.5,0.78125 0.1843839,0.245635 0.3737765,0.473472 0.59375,0.6875 0.439947,0.428056 0.94291,0.814526 1.5,1.09375 0.278545,0.139612 0.5734731,0.246947 0.875,0.34375 -0.2562018,-0.100222 -0.4867109,-0.236272 -0.71875,-0.375 -0.00741,-0.0044 -0.023866,0.0045 -0.03125,0 -0.031933,-0.0193 -0.062293,-0.04251 -0.09375,-0.0625 -0.120395,-0.0767 -0.2310226,-0.163513 -0.34375,-0.25 -0.1061728,-0.0808 -0.2132809,-0.161112 -0.3125,-0.25 C 8.4783201,88.557317 8.3087904,88.373362 8.15625,88.1875 8.0486711,88.057245 7.9378561,87.922215 7.84375,87.78125 7.818661,87.74287 7.805304,87.69538 7.78125,87.65625 7.716487,87.553218 7.6510225,87.451733 7.59375,87.34375 7.4927417,87.149044 7.3880752,86.928049 7.3125,86.71875 7.30454,86.69694 7.288911,86.6782 7.28125,86.65625 7.2494249,86.5643 7.2454455,86.469419 7.21875,86.375 7.1884177,86.268382 7.1483606,86.171969 7.125,86.0625 7.0521214,85.720988 7,85.364295 7,85 L 7,83 7,15 7,13 C 7,10.218152 9.2181517,8 12,8 l 2,0 68,0 2,0 c 2.781848,0 5,2.218152 5,5 l 0,2 0,68 0,2 c 0,0.364295 -0.05212,0.720988 -0.125,1.0625 -0.04415,0.206893 -0.08838,0.397658 -0.15625,0.59375 -0.0077,0.02195 -0.0233,0.04069 -0.03125,0.0625 -0.06274,0.173739 -0.138383,0.367449 -0.21875,0.53125 -0.04158,0.0828 -0.07904,0.169954 -0.125,0.25 -0.0546,0.09721 -0.126774,0.18835 -0.1875,0.28125 -0.09411,0.140965 -0.204921,0.275995 -0.3125,0.40625 -0.143174,0.17445 -0.303141,0.346998 -0.46875,0.5 -0.01117,0.0102 -0.01998,0.02115 -0.03125,0.03125 -0.138386,0.125556 -0.285091,0.234436 -0.4375,0.34375 -0.102571,0.07315 -0.204318,0.153364 -0.3125,0.21875 -0.0074,0.0045 -0.02384,-0.0044 -0.03125,0 -0.232039,0.138728 -0.462548,0.274778 -0.71875,0.375 0.301527,-0.0968 0.596455,-0.204138 0.875,-0.34375 0.55709,-0.279224 1.060053,-0.665694 1.5,-1.09375 0.219973,-0.214028 0.409366,-0.441865 0.59375,-0.6875 0.184384,-0.245635 0.355408,-0.507743 0.5,-0.78125 0.14012,-0.265048 0.276135,-0.524729 0.375,-0.8125 0.01041,-0.03078 0.02133,-0.06274 0.03125,-0.09375 0.09046,-0.278085 0.1388,-0.579404 0.1875,-0.875 C 89.95865,84.6507 90,84.334721 90,84 l 0,-2 0,-68 0,-2 C 90,8.676 87.324,6 84,6 L 12,6 z"
       inkscape:connector-curvature="0"
       id="rect3728"
       style="fill:url(#linearGradient3188);fill-opacity:1;fill-rule:nonzero;stroke:none" />
    <path
       d="M 12,90 C 8.676,90 6,87.324 6,84 L 6,82 6,14 6,12 c 0,-0.334721 0.04135,-0.6507 0.09375,-0.96875 0.0487,-0.295596 0.09704,-0.596915 0.1875,-0.875 C 6.29113,10.12587 6.302142,10.09265 6.3125,10.0625 6.411365,9.774729 6.5473802,9.515048 6.6875,9.25 6.8320918,8.976493 7.0031161,8.714385 7.1875,8.46875 7.3718839,8.223115 7.5612765,7.995278 7.78125,7.78125 8.221197,7.353194 8.72416,6.966724 9.28125,6.6875 9.559795,6.547888 9.8547231,6.440553 10.15625,6.34375 9.9000482,6.443972 9.6695391,6.580022 9.4375,6.71875 c -0.00741,0.0044 -0.023866,-0.0045 -0.03125,0 -0.031933,0.0193 -0.062293,0.04251 -0.09375,0.0625 -0.120395,0.0767 -0.2310226,0.163513 -0.34375,0.25 -0.1061728,0.0808 -0.2132809,0.161112 -0.3125,0.25 C 8.4783201,7.442683 8.3087904,7.626638 8.15625,7.8125 8.0486711,7.942755 7.9378561,8.077785 7.84375,8.21875 7.818661,8.25713 7.805304,8.30462 7.78125,8.34375 7.716487,8.446782 7.6510225,8.548267 7.59375,8.65625 7.4927417,8.850956 7.3880752,9.071951 7.3125,9.28125 7.30454,9.30306 7.288911,9.3218 7.28125,9.34375 7.2494249,9.4357 7.2454455,9.530581 7.21875,9.625 7.1884177,9.731618 7.1483606,9.828031 7.125,9.9375 7.0521214,10.279012 7,10.635705 7,11 l 0,2 0,68 0,2 c 0,2.781848 2.2181517,5 5,5 l 2,0 68,0 2,0 c 2.781848,0 5,-2.218152 5,-5 l 0,-2 0,-68 0,-2 C 89,10.635705 88.94788,10.279012 88.875,9.9375 88.83085,9.730607 88.78662,9.539842 88.71875,9.34375 88.71105,9.3218 88.69545,9.30306 88.6875,9.28125 88.62476,9.107511 88.549117,8.913801 88.46875,8.75 88.42717,8.6672 88.38971,8.580046 88.34375,8.5 88.28915,8.40279 88.216976,8.31165 88.15625,8.21875 88.06214,8.077785 87.951329,7.942755 87.84375,7.8125 87.700576,7.63805 87.540609,7.465502 87.375,7.3125 87.36383,7.3023 87.35502,7.29135 87.34375,7.28125 87.205364,7.155694 87.058659,7.046814 86.90625,6.9375 86.803679,6.86435 86.701932,6.784136 86.59375,6.71875 c -0.0074,-0.0045 -0.02384,0.0044 -0.03125,0 -0.232039,-0.138728 -0.462548,-0.274778 -0.71875,-0.375 0.301527,0.0968 0.596455,0.204138 0.875,0.34375 0.55709,0.279224 1.060053,0.665694 1.5,1.09375 0.219973,0.214028 0.409366,0.441865 0.59375,0.6875 0.184384,0.245635 0.355408,0.507743 0.5,0.78125 0.14012,0.265048 0.276135,0.524729 0.375,0.8125 0.01041,0.03078 0.02133,0.06274 0.03125,0.09375 0.09046,0.278085 0.1388,0.579404 0.1875,0.875 C 89.95865,11.3493 90,11.665279 90,12 l 0,2 0,68 0,2 c 0,3.324 -2.676,6 -6,6 l -72,0 z"
       inkscape:connector-curvature="0"
       id="path3615"
       style="opacity:0.6;fill:url(#radialGradient3619);fill-opacity:1;fill-rule:nonzero;stroke:none" />
    <rect
       width="84"
       height="84"
       rx="6"
       ry="6"
       x="6"
       y="106"
       id="rect2841"
       style="fill:url(#linearGradient2843);fill-opacity:1;fill-rule:nonzero;stroke:none" />
    <rect
       width="76"
       height="76"
       rx="4"
       ry="4"
       x="10"
       y="110"
       id="rect3634"
       style="fill:#ff0000;fill-opacity:1;fill-rule:nonzero;stroke:none" />
    <path
       d="m 14,9 c -2.752703,0 -5,2.247297 -5,5 l 0,68 c 0,2.752703 2.247297,5 5,5 l 68,0 c 2.752703,0 5,-2.247297 5,-5 L 87,14 C 87,11.247297 84.752703,9 82,9 L 14,9 z m 0,2 68,0 c 1.679297,0 3,1.320703 3,3 l 0,68 c 0,1.679297 -1.320703,3 -3,3 l -68,0 c -1.679297,0 -3,-1.320703 -3,-3 l 0,-68 c 0,-1.679297 1.320703,-3 3,-3 z"
       inkscape:connector-curvature="0"
       transform="translate(-110,0)"
       clip-path="url(#clipPath3649)"
       id="rect3647"
       style="font-size:medium;font-style:normal;font-variant:normal;font-weight:normal;font-stretch:normal;text-indent:0;text-align:start;text-decoration:none;line-height:normal;letter-spacing:normal;word-spacing:normal;text-transform:none;direction:ltr;block-progression:tb;writing-mode:lr-tb;text-anchor:start;color:#000000;fill:#000000;fill-opacity:1;stroke:none;stroke-width:2;marker:none;visibility:visible;display:inline;overflow:visible;filter:url(#filter3657);enable-background:accumulate;font-family:Abandoned Bitplane;-inkscape-font-specification:Abandoned Bitplane" />
    <path
       d="m 14.089286,10 c -2.216,0 -4,1.784 -4,4 l 0,68 c 0,2.216 1.784,4 4,4 l 68,0 c 2.216,0 4,-1.784 4,-4 l 0,-68 c 0,-2.216 -1.784,-4 -4,-4 l -68,0 z m 0,2 68,0 c 1.140301,0 2,0.859699 2,2 l 0,68 c 0,1.140301 -0.859699,2 -2,2 l -68,0 c -1.140301,0 -2,-0.859699 -2,-2 l 0,-68 c 0,-1.140301 0.859699,-2 2,-2 z"
       inkscape:connector-curvature="0"
       id="path3709"
       style="opacity:0.16000001;fill:#000000;fill-opacity:1;fill-rule:nonzero;stroke:none" />
    <path
       d="m 14,10 c -2.216,0 -4,1.784 -4,4 l 0,68 c 0,2.216 1.784,4 4,4 l 68,0 c 2.216,0 4,-1.784 4,-4 l 0,-68 c 0,-2.216 -1.784,-4 -4,-4 l -68,0 z m 0,1 68,0 c 1.673848,0 3,1.326152 3,3 l 0,68 c 0,1.673848 -1.326152,3 -3,3 l -68,0 c -1.673848,0 -3,-1.326152 -3,-3 l 0,-68 c 0,-1.673848 1.326152,-3 3,-3 z"
       inkscape:connector-curvature="0"
       id="path3707"
       style="opacity:0.36000001;fill:#000000;fill-opacity:1;fill-rule:nonzero;stroke:none" />
  </g>
  <g
     id="layer5"
     style="display:none"
     transform="translate(0,160)">
    <rect
       width="66"
       height="66"
       rx="12"
       ry="12"
       x="15"
       y="15"
       clip-path="url(#clipPath3613)"
       id="rect3171"
       style="opacity:0.1;fill:url(#linearGradient3613);fill-opacity:1;fill-rule:nonzero;stroke:#ffffff;stroke-width:0.5;stroke-linecap:round;stroke-linejoin:miter;stroke-miterlimit:4;stroke-opacity:1;stroke-dasharray:none;stroke-dashoffset:0;filter:url(#filter3794)" />
  </g>
  <g
     id="g3822"
     transform="translate(-1.8747724,-1.1245989)">
    <path
       d="m 148.17458,29.549806 c -7.69989,0 -14.51294,3.301626 -19.19149,8.355481 -4.57772,4.944899 -7.17409,11.094952 -8.35548,17.49429 -0.008,0.04178 0.008,0.08982 0,0.130345 -0.038,0.194265 -0.1278,0.633513 -0.13056,0.652772 -0.003,0.02507 0.001,0.890653 0,0.913881 a 4.1046541,4.1046541 0 0 0 0,0.130345 l 0,14.099876 -80.943726,0 c -15.242834,0 -27.677532,12.434711 -27.677532,27.677534 l 0,48.04402 c 1.46e-4,0.0167 -0.0012,0.63681 0,0.65277 0.0012,0.0167 -0.0022,0.50638 0,0.52222 0.0022,0.0167 0.127254,0.6371 0.130554,0.65277 0.0033,0.0167 0.126251,0.5068 0.130554,0.52222 0.0042,0.0167 0.125249,0.50713 0.130555,0.52221 0.0054,0.0167 0.2548,0.63807 0.261109,0.65278 0.0063,0.0167 0.253881,0.50797 0.261108,0.52221 0.0022,0.004 0.0955,0.0669 0.130555,0.13035 -0.03509,0.0639 -0.128382,0.12617 -0.130555,0.13034 -0.0071,0.0125 -0.2548,0.50752 -0.261108,0.52222 -0.0063,0.0167 -0.255803,0.63769 -0.261109,0.65277 -0.0054,0.0167 -0.126252,0.50681 -0.130555,0.52222 -0.0042,0.0167 -0.127254,0.50655 -0.130554,0.52222 -0.0033,0.0167 -0.128298,0.63694 -0.130554,0.65277 -0.0022,0.0167 0.0012,0.50626 0,0.52222 -0.0012,0.0167 1.46e-4,0.63677 0,0.65277 l 0,33.42193 c 1.2e-5,0.0251 -0.0023,0.89015 0,0.91388 0.0023,0.0251 0.125917,0.75993 0.130554,0.78332 0.0046,0.0251 0.254174,0.89107 0.261109,0.91389 0.0071,0.0251 0.251959,0.7613 0.261109,0.78332 0.0092,0.0209 0.380425,0.76231 0.391663,0.78333 0.01128,0.0209 0.37842,0.76352 0.391663,0.78332 0.01337,0.0209 0.507094,0.63435 0.522218,0.65278 0.01504,0.0167 0.635919,0.63593 0.652772,0.65277 0.01671,0.0167 0.634348,0.63765 0.652772,0.65277 0.01838,0.0167 0.632957,0.50897 0.652772,0.52222 0.01964,0.0125 0.762308,0.38059 0.783326,0.39145 0.02089,0.0125 0.76131,0.38268 0.783326,0.39146 0.02214,0.008 0.76052,0.254 0.783327,0.26111 0.02298,0.008 0.890506,0.25651 0.913881,0.2611 0.02339,0.004 0.759605,0.12826 0.783326,0.13035 0.02381,0.002 0.890047,0 0.913881,0 l 24.544227,0 0,24.54423 c 1.2e-5,0.0251 -0.0023,0.89015 0,0.91388 0.0023,0.0251 0.125917,0.75993 0.130554,0.78332 0.0046,0.0251 0.254174,0.89107 0.261109,0.91388 0.0071,0.0251 0.25196,0.76131 0.261109,0.78333 0.0092,0.0209 0.380425,0.76231 0.391663,0.78333 0.01128,0.0209 0.37842,0.76352 0.391663,0.78332 0.01337,0.0209 0.507094,0.63435 0.522218,0.65278 0.01504,0.0167 0.635919,0.63593 0.652772,0.65277 0.01671,0.0167 0.634348,0.63765 0.652772,0.65277 0.01838,0.0167 0.632957,0.50897 0.652772,0.52222 0.01963,0.0125 0.762308,0.38059 0.783326,0.39145 0.02089,0.0125 0.76131,0.38268 0.783327,0.39146 0.02214,0.008 0.76052,0.254 0.783326,0.2611 0.02298,0.008 0.890506,0.25652 0.913881,0.26111 0.0234,0.004 0.759605,0.12826 0.783326,0.13035 0.02381,0.002 0.890047,0 0.913881,0 l 33.421926,0 c 0.02381,0 0.89016,0.002 0.913881,0 0.02381,-0.002 0.759952,-0.12575 0.783326,-0.13035 0.0234,-0.004 0.891075,-0.254 0.913881,-0.26111 0.02298,-0.008 0.76131,-0.25191 0.783327,-0.2611 0.02214,-0.008 0.762308,-0.3806 0.783326,-0.39146 0.02089,-0.0125 0.763516,-0.3785 0.783326,-0.39145 0.0196,-0.0125 0.63435,-0.5071 0.65277,-0.52222 0.0184,-0.0167 0.63592,-0.63594 0.65277,-0.65277 0.0167,-0.0167 0.63765,-0.63435 0.65278,-0.65277 0.015,-0.0167 0.50897,-0.63297 0.52221,-0.65278 0.0134,-0.0209 0.38043,-0.76231 0.39167,-0.78332 0.0113,-0.0209 0.38255,-0.76131 0.39166,-0.78333 0.009,-0.0209 0.25417,-0.76051 0.26111,-0.78333 0.007,-0.0251 0.25647,-0.89052 0.26111,-0.91388 0.005,-0.0251 0.12821,-0.75959 0.13055,-0.78332 0.002,-0.0251 -1e-5,-0.89007 0,-0.91388 l 0,-24.54423 24.54423,0 c 0.0159,-1.7e-4 0.63682,0.001 0.65277,0 0.0159,-10e-4 0.50639,0.002 0.52222,0 0.0159,-0.002 0.63712,-0.12742 0.65277,-0.13035 0.0155,-0.003 0.50682,-0.12616 0.52222,-0.13034 0.0155,-0.004 0.50713,-0.12533 0.52222,-0.13035 0.015,-0.004 0.63806,-0.25484 0.65277,-0.26111 0.0146,-0.004 0.50796,-0.254 0.52222,-0.2611 0.004,-0.002 0.0667,-0.0957 0.13055,-0.13035 0.0639,0.0334 0.12629,0.12826 0.13055,0.13035 0.0142,0.008 0.50752,0.25484 0.52222,0.2611 0.0146,0.004 0.63769,0.25568 0.65277,0.26111 0.015,0.004 0.50682,0.12617 0.52222,0.13035 0.0155,0.004 0.50657,0.12742 0.52222,0.13034 0.0155,0.003 0.63694,0.12826 0.65277,0.13035 0.0159,0.002 0.50627,-10e-4 0.52222,0 0.0159,0.001 0.63678,-1.7e-4 0.65277,0 l 108.62126,0 c 0.0238,0 0.89016,0.002 0.91388,0 0.0238,-0.002 0.75995,-0.12575 0.78333,-0.13035 0.0234,-0.004 0.89107,-0.254 0.91388,-0.2611 0.023,-0.008 0.76131,-0.25192 0.78333,-0.26111 0.0221,-0.008 0.7623,-0.3806 0.78332,-0.39146 0.0209,-0.0125 0.76351,-0.3785 0.78333,-0.39145 0.0196,-0.0125 0.63435,-0.5071 0.65277,-0.52222 0.0184,-0.0167 0.63592,-0.63594 0.65277,-0.65277 0.0167,-0.0167 0.63765,-0.63435 0.65277,-0.65277 0.015,-0.0167 0.50898,-0.63297 0.52222,-0.65278 0.0134,-0.0209 0.38043,-0.76231 0.39166,-0.78332 0.0113,-0.0209 0.38256,-0.76131 0.39167,-0.78333 0.009,-0.0209 0.25417,-0.76051 0.26111,-0.78332 0.007,-0.0251 0.25647,-0.89053 0.26111,-0.91389 0.005,-0.0251 0.12821,-0.75959 0.13055,-0.78332 0.002,-0.0251 -10e-6,-0.89007 0,-0.91388 l 0,-131.598837 c 0,-15.242822 -12.4347,-27.677533 -27.67753,-27.677533 l -71.0216,0 z"
       id="path3914"
       style="opacity:0.1;fill:#000000;fill-opacity:1;stroke:none;display:inline"
       inkscape:connector-curvature="0" />
    <path
       d="m 148.17458,33.596992 c -6.53037,0 -12.24632,2.791274 -16.18874,7.049938 -3.94243,4.258663 -6.24429,9.799392 -7.31105,15.666527 a 4.8330858,4.8330858 0 0 0 -0.13055,0.913881 l 0,18.147062 -84.990916,0 c -13.008778,0 -23.630346,10.621571 -23.630346,23.63035 l 0,48.04401 a 4.8330858,4.8330858 0 0 0 2.480534,4.17775 4.8330858,4.8330858 0 0 0 -2.480534,4.17774 l 0,33.42192 a 4.8330858,4.8330858 0 0 0 4.830513,4.83052 l 28.591413,0 0,28.59141 a 4.8330858,4.8330858 0 0 0 4.830513,4.83051 l 33.421926,0 a 4.8330858,4.8330858 0 0 0 4.830517,-4.83051 l 0,-28.59141 28.59141,0 a 4.8330858,4.8330858 0 0 0 4.17774,-2.48054 4.8330858,4.8330858 0 0 0 4.17774,2.48054 l 108.62126,0 a 4.8330858,4.8330858 0 0 0 4.83051,-4.83052 l 0,-131.598832 c 0,-13.008774 -10.62156,-23.630346 -23.63034,-23.630346 l -71.0216,0 z m 11.09713,34.72747 48.82734,0 0,7.049938 -48.82734,0 0,-7.049938 z m -108.621262,50.132888 0.130555,0 a 4.8330858,4.8330858 0 0 0 -0.130555,0.13035 l 0,-0.13035 z m 40.34131,0 0.130554,0 0,0.13035 a 4.8330858,4.8330858 0 0 0 -0.130554,-0.13035 z m 33.421922,33.42193 0.13056,0 0,0.13034 a 4.8330858,4.8330858 0 0 0 -0.13056,-0.13034 z"
       id="path3910"
       style="opacity:0.15;fill:#000000;fill-opacity:1;stroke:none;display:inline"
       inkscape:connector-curvature="0" />
    <path
       d="m 148.17458,38.427505 c -10.4151,0 -16.93672,8.552712 -18.79983,18.799833 l 0,22.977575 -89.821426,0 c -10.415108,0 -18.799833,8.384725 -18.799833,18.799837 l 0,48.04401 25.066444,0 0,-33.42192 50.132885,0 0,33.42192 33.42193,0 0,41.77741 108.62126,0 c 0,-42.47371 0,-89.12512 0,-131.598832 0,-10.415108 -8.38472,-18.799833 -18.79983,-18.799833 z m 6.26662,25.066444 58.48837,0 0,16.710964 -58.48837,0 z m -100.265783,58.488371 0,33.42193 -33.421926,0 0,33.42192 33.421926,0 0,33.42193 33.421926,0 0,-33.42193 33.421927,0 0,-33.42192 -33.421927,0 0,-33.42193 z"
       inkscape:connector-curvature="0"
       id="path3903"
       style="opacity:0.3;fill:#000000;fill-opacity:1;stroke:none;display:inline" />
    <path
       d="m 148.17458,34.249764 c -10.4151,0 -16.93672,8.552713 -18.79983,18.799833 l 0,22.977575 -89.821426,0 c -10.415108,0 -18.799833,8.384725 -18.799833,18.799833 l 0,48.044015 25.066444,0 0,-33.42192 50.132885,0 0,33.42192 33.42193,0 0,41.77741 108.62126,0 c 0,-42.47371 0,-89.125121 0,-131.598833 0,-10.415107 -8.38472,-18.799833 -18.79983,-18.799833 z m 6.26662,25.066445 58.48837,0 0,16.710963 -58.48837,0 z m -100.265783,58.488371 0,33.42193 -33.421926,0 0,33.42192 33.421926,0 0,33.42193 33.421926,0 0,-33.42193 33.421927,0 0,-33.42192 -33.421927,0 0,-33.42193 z"
       inkscape:connector-curvature="0"
       id="path3643"
       style="fill:url(#linearGradient3830);fill-opacity:1;stroke:none;display:inline" />
    <path
       d="m 148.17458,34.249764 c -10.4151,0 -16.93672,8.552713 -18.79983,18.799833 l 0,4.177741 c 1.86311,-10.247121 8.38473,-18.799833 18.79983,-18.799833 l 71.0216,0 c 10.41511,0 18.79983,8.384725 18.79983,18.799833 l 0,-4.177741 c 0,-10.415107 -8.38472,-18.799833 -18.79983,-18.799833 l -71.0216,0 z M 39.553324,76.027172 c -10.415108,0 -18.799833,8.384725 -18.799833,18.799833 l 0,4.177745 c 0,-10.415112 8.384725,-18.799837 18.799833,-18.799837 l 89.821426,0 0,-4.177741 -89.821426,0 z m 114.887876,0 0,4.177741 58.48837,0 0,-4.177741 -58.48837,0 z m -100.265783,41.777408 0,4.17774 33.421926,0 0,-4.17774 -33.421926,0 z m -33.421926,33.42193 0,4.17774 33.421926,0 0,-4.17774 -33.421926,0 z m 66.843852,0 0,4.17774 33.421927,0 0,-4.17774 -33.421927,0 z"
       inkscape:connector-curvature="0"
       id="path3885"
       style="opacity:0.75;fill:#ffffff;fill-opacity:1;stroke:none;display:inline" />
    <path
       d="m 154.4412,55.138468 0,4.177741 58.48837,0 0,-4.177741 -58.48837,0 z m -108.621265,50.132892 0,4.17774 50.132885,0 0,-4.17774 -50.132885,0 z m -25.066444,33.42192 0,4.17774 25.066444,0 0,-4.17774 -25.066444,0 z m 75.199329,0 0,4.17774 33.42193,0 0,-4.17774 -33.42193,0 z m -75.199329,41.77741 0,4.17774 33.421926,0 0,-4.17774 -33.421926,0 z m 66.843852,0 0,4.17774 33.421927,0 0,-4.17774 -33.421927,0 z m 41.777407,0 0,4.17774 108.62126,0 0,-4.17774 -108.62126,0 z m -75.199333,33.42193 0,4.17774 33.421926,0 0,-4.17774 -33.421926,0 z"
       inkscape:connector-curvature="0"
       id="path3894"
       style="opacity:0.15;fill:#000000;fill-opacity:1;stroke:none;display:inline" />
  </g>
</svg>
