<?xml version="1.0" encoding="UTF-8" standalone="no"?>
<!-- Created with Inkscape (http://www.inkscape.org/) -->

<svg
   xmlns:dc="http://purl.org/dc/elements/1.1/"
   xmlns:cc="http://creativecommons.org/ns#"
   xmlns:rdf="http://www.w3.org/1999/02/22-rdf-syntax-ns#"
   xmlns:svg="http://www.w3.org/2000/svg"
   xmlns="http://www.w3.org/2000/svg"
   xmlns:xlink="http://www.w3.org/1999/xlink"
   xmlns:sodipodi="http://sodipodi.sourceforge.net/DTD/sodipodi-0.dtd"
   xmlns:inkscape="http://www.inkscape.org/namespaces/inkscape"
   id="svg3342"
   height="255.99855"
   width="255.99901"
   version="1.1"
   inkscape:version="0.48.3.1 r9886"
   sodipodi:docname="tag-new.svg">
  <sodipodi:namedview
     pagecolor="#ffffff"
     bordercolor="#666666"
     borderopacity="1"
     objecttolerance="10"
     gridtolerance="10"
     guidetolerance="10"
     inkscape:pageopacity="0"
     inkscape:pageshadow="2"
     inkscape:window-width="1024"
     inkscape:window-height="553"
     id="namedview40"
     showgrid="false"
     inkscape:snap-bbox="true"
     inkscape:bbox-paths="true"
     inkscape:bbox-nodes="true"
     inkscape:snap-bbox-edge-midpoints="true"
     inkscape:snap-bbox-midpoints="true"
     inkscape:object-paths="true"
     inkscape:snap-intersection-paths="true"
     inkscape:object-nodes="true"
     inkscape:snap-smooth-nodes="true"
     inkscape:snap-midpoints="true"
     inkscape:snap-object-midpoints="true"
     inkscape:snap-center="true"
     inkscape:zoom="1.4961022"
     inkscape:cx="116.30244"
     inkscape:cy="127.99928"
     inkscape:window-x="-4"
     inkscape:window-y="24"
     inkscape:window-maximized="1"
     inkscape:current-layer="svg3342"
     fit-margin-top="0"
     fit-margin-left="0"
     fit-margin-right="0"
     fit-margin-bottom="0" />
  <defs
     id="defs3344">
    <linearGradient
       id="linearGradient2874"
       y2="24.034"
       gradientUnits="userSpaceOnUse"
       x2="39.905998"
       gradientTransform="matrix(5.3333,0,0,5.3333,-132.83,-74.833)"
       y1="6.1230001"
       x1="39.905998">
      <stop
         id="stop3245"
         style="stop-color:#ffffff;stop-opacity:1;"
         offset="0" />
      <stop
         id="stop3247"
         style="stop-color:#d7d7d7;stop-opacity:1;"
         offset="1" />
    </linearGradient>
    <linearGradient
       inkscape:collect="always"
       xlink:href="#linearGradient2874"
       id="linearGradient3035"
       gradientUnits="userSpaceOnUse"
       gradientTransform="matrix(12.888808,0,0,12.888808,-329.54848,-58.88809)"
       x1="35.999664"
       y1="5.4999723"
       x2="35.910549"
       y2="23.500086" />
    <style
       id="style2464"
       type="text/css" />
    <style
       id="style2464-3"
       type="text/css" />
    <linearGradient
       id="linearGradient3637-8">
      <stop
         id="stop3639-7"
         style="stop-color:#5e5e5e;stop-opacity:1;"
         offset="0" />
      <stop
         id="stop3641-0"
         style="stop-color:#000000;stop-opacity:1;"
         offset="1" />
    </linearGradient>
    <linearGradient
       inkscape:collect="always"
       xlink:href="#linearGradient3637-8"
       id="linearGradient4390"
       gradientUnits="userSpaceOnUse"
       gradientTransform="matrix(8.6091303,0,0,8.6091303,90.903791,89.522388)"
       x1="11.640054"
       y1="4.6544242"
       x2="11.640054"
       y2="17.345575" />
  </defs>
  <metadata
     id="metadata3347">
    <rdf:RDF>
      <cc:Work
         rdf:about="">
        <dc:format>image/svg+xml</dc:format>
        <dc:type
           rdf:resource="http://purl.org/dc/dcmitype/StillImage" />
        <dc:title></dc:title>
      </cc:Work>
    </rdf:RDF>
  </metadata>
  <g
     id="g3844"
     transform="translate(9.91e-4,-0.00144958)">
    <path
       id="path3842"
       style="opacity:0.05;fill:none;stroke:#000000;stroke-width:24;stroke-linejoin:round;stroke-miterlimit:4;stroke-opacity:1;stroke-dasharray:none"
       d="M 134.44426,12 11.999009,138.875 118.33234,244 243.99901,121.55475 V 12 H 134.44426 z M 185.999,50.666666 c 10.67202,0 19.33335,8.661332 19.33335,19.333333 0,10.672 -8.66133,19.333333 -19.33335,19.333333 -10.67199,0 -19.33332,-8.661333 -19.33332,-19.333333 0,-10.672001 8.66133,-19.333333 19.33332,-19.333333 z"
       inkscape:connector-curvature="0" />
    <path
       inkscape:connector-curvature="0"
       d="M 134.44426,12 11.999009,138.875 118.33234,244 243.99901,121.55475 V 12 H 134.44426 z M 185.999,50.666666 c 10.67202,0 19.33335,8.661332 19.33335,19.333333 0,10.672 -8.66133,19.333333 -19.33335,19.333333 -10.67199,0 -19.33332,-8.661333 -19.33332,-19.333333 0,-10.672001 8.66133,-19.333333 19.33332,-19.333333 z"
       style="opacity:0.1;fill:none;stroke:#000000;stroke-width:18;stroke-linejoin:round;stroke-miterlimit:4;stroke-opacity:1;stroke-dasharray:none"
       id="path3840" />
    <path
       id="path3838"
       style="opacity:0.15;fill:none;stroke:#000000;stroke-width:12;stroke-linejoin:round;stroke-miterlimit:4;stroke-opacity:1;stroke-dasharray:none"
       d="M 134.44426,12 11.999009,138.875 118.33234,244 243.99901,121.55475 V 12 H 134.44426 z M 185.999,50.666666 c 10.67202,0 19.33335,8.661332 19.33335,19.333333 0,10.672 -8.66133,19.333333 -19.33335,19.333333 -10.67199,0 -19.33332,-8.661333 -19.33332,-19.333333 0,-10.672001 8.66133,-19.333333 19.33332,-19.333333 z"
       inkscape:connector-curvature="0" />
    <path
       inkscape:connector-curvature="0"
       d="M 134.44426,12 11.999009,138.875 118.33234,244 243.99901,121.55475 V 12 H 134.44426 z M 185.999,50.666666 c 10.67202,0 19.33335,8.661332 19.33335,19.333333 0,10.672 -8.66133,19.333333 -19.33335,19.333333 -10.67199,0 -19.33332,-8.661333 -19.33332,-19.333333 0,-10.672001 8.66133,-19.333333 19.33332,-19.333333 z"
       style="opacity:0.2;fill:none;stroke:#000000;stroke-width:6;stroke-linejoin:round;stroke-miterlimit:4;stroke-opacity:1;stroke-dasharray:none"
       id="path3836" />
    <path
       id="path2463"
       style="fill:url(#linearGradient3035);fill-rule:evenodd;stroke:none"
       d="M 134.44426,12 11.999009,138.875 118.33234,244 243.99901,121.55475 V 12 H 134.44426 z M 185.999,50.666666 c 10.67202,0 19.33335,8.661332 19.33335,19.333333 0,10.672 -8.66133,19.333333 -19.33335,19.333333 -10.67199,0 -19.33332,-8.661333 -19.33332,-19.333333 0,-10.672001 8.66133,-19.333333 19.33332,-19.333333 z"
       inkscape:connector-curvature="0" />
    <path
       inkscape:connector-curvature="0"
       id="path3816"
       d="m 134.43651,12 -122.437501,126.875 1,0.96875 L 134.43651,14 l 109.5625,0 0,-2 -109.5625,0 z m 32.25,59 c -0.0167,0.32937 -0.0312,0.6665 -0.0312,1 0,10.672 8.67176,19.34375 19.34375,19.34375 10.67202,0 19.34375,-8.67175 19.34375,-19.34375 0,-0.3335 -0.0145,-0.67063 -0.0312,-1 -0.51812,10.210469 -8.97398,18.34375 -19.3125,18.34375 -10.33849,0 -18.79438,-8.133281 -19.3125,-18.34375 z"
       style="opacity:0.7;fill:#ffffff;fill-rule:evenodd;stroke:none" />
    <path
       inkscape:connector-curvature="0"
       id="path3825"
       d="m 185.99901,48.65625 c -10.67199,0 -19.34375,8.671749 -19.34375,19.34375 0,0.3335 0.0145,0.67063 0.0312,1 0.51812,-10.210469 8.97401,-18.34375 19.3125,-18.34375 10.33852,0 18.79438,8.133281 19.3125,18.34375 0.0167,-0.32937 0.0312,-0.6665 0.0312,-1 0,-10.672001 -8.67173,-19.34375 -19.34375,-19.34375 z m 58,70.90625 L 118.34276,242 12.999009,137.84375 l -1,1.03125 L 118.34276,244 243.99901,121.5625 l 0,-2 z"
       style="opacity:0.7;fill:#000000;fill-rule:evenodd;stroke:none" />
    <path
       inkscape:connector-curvature="0"
       style="opacity:0.3;fill:#000000;fill-rule:evenodd;stroke:none"
       d="m 185.99901,50.65625 c -10.67199,0 -19.34375,8.671749 -19.34375,19.34375 0,0.3335 0.0145,0.67063 0.0312,1 0.51812,-10.210469 8.97401,-18.34375 19.3125,-18.34375 10.33852,0 18.79438,8.133281 19.3125,18.34375 0.0167,-0.32937 0.0312,-0.6665 0.0312,-1 0,-10.672001 -8.67173,-19.34375 -19.34375,-19.34375 z m 58,70.90625 L 118.34276,244 12.999009,139.84375 l -1,1.03125 L 118.34276,246 243.99901,123.5625 l 0,-2 z"
       id="path3834" />
  </g>
  <g
     id="g4443"
     transform="translate(9.4063932,8.3038902)">
    <path
       d="m 169.77397,126.79937 c -3.66959,0.52353 -4.89773,4.51213 -4.42316,7.72653 0,10.77157 0,21.54312 0,32.31469 -11.63804,0.0519 -23.29082,-0.10354 -34.91967,0.0775 -3.79466,0.19543 -5.22504,4.3204 -4.73355,7.57133 0.1031,9.50016 -0.20645,19.03206 0.1552,28.51233 0.50369,3.74071 4.66219,4.66174 7.83261,4.26796 10.55514,0 21.11028,0 31.66541,0 0.0518,11.53458 -0.10357,23.08388 0.0776,34.60927 0.19553,3.79467 4.32041,5.22503 7.57134,4.73356 9.44853,-0.10156 18.92844,0.20437 28.35713,-0.1552 3.74072,-0.50369 4.66173,-4.66219 4.26796,-7.83261 0,-10.45169 0,-20.90336 0,-31.35502 11.71563,-0.0519 23.44604,0.10379 35.15247,-0.0775 3.79466,-0.19542 5.22504,-4.3204 4.73355,-7.57133 -0.1031,-9.50016 0.20646,-19.03205 -0.15519,-28.51233 -0.5037,-3.7407 -4.6622,-4.66174 -7.83262,-4.26796 -10.63274,0 -21.26547,0 -31.89821,0 -0.0518,-11.76737 0.10352,-23.54948 -0.0776,-35.30766 -0.19552,-3.79467 -4.3204,-5.22506 -7.57133,-4.73356 -9.40065,0 -18.80129,0 -28.20194,0 z"
       inkscape:connector-curvature="0"
       id="path3894"
       style="opacity:0.1;fill:#000000;fill-opacity:1;stroke:none;display:inline" />
    <path
       d="m 170.08437,129.51534 a 2.5793916,2.5793916 0 0 0 -2.01758,2.56078 l 0,37.48045 -37.09245,0 a 2.5793916,2.5793916 0 0 0 -2.56078,2.56077 l 0,29.87572 a 2.5793916,2.5793916 0 0 0 2.56078,2.56078 l 37.09245,0 0,36.78205 a 2.5793916,2.5793916 0 0 0 2.56078,2.56078 l 29.72052,0 a 2.5793916,2.5793916 0 0 0 2.56077,-2.56078 l 0,-36.78205 37.32525,0 a 2.5793916,2.5793916 0 0 0 2.56078,-2.56078 l 0,-29.87572 a 2.5793916,2.5793916 0 0 0 -2.56078,-2.56077 l -37.32525,0 0,-37.48045 a 2.5793916,2.5793916 0 0 0 -2.56077,-2.56078 l -29.72052,0 a 2.5793916,2.5793916 0 0 0 -0.5432,0 z"
       id="path3890"
       style="opacity:0.15;fill:#000000;fill-opacity:1;stroke:none;display:inline"
       inkscape:connector-curvature="0" />
    <path
       d="m 170.61161,132.07612 0,40.00594 -39.63727,0 0,29.87996 39.63727,0 0,39.37387 29.7277,0 0,-39.37387 39.8948,0 0,-29.87996 -39.8948,0 0,-40.00594 z"
       inkscape:connector-curvature="0"
       id="path3884"
       style="opacity:0.3;fill:#000000;fill-opacity:1;stroke:none;display:inline" />
    <path
       d="m 170.61161,129.59294 0,40.00594 -39.63727,0 0,29.87997 39.63727,0 0,39.37387 29.7277,0 0,-39.37387 39.8948,0 0,-29.87997 -39.8948,0 0,-40.00594 z"
       inkscape:connector-curvature="0"
       id="Symbol"
       style="fill:url(#linearGradient4390);fill-opacity:1;stroke:none;display:inline" />
    <path
       d="m 170.62757,129.59294 0,2.48318 29.72052,0 0,-2.48318 -29.72052,0 z m -39.65323,40.04123 0,2.48317 39.65323,0 0,-2.48317 -39.65323,0 z m 69.37375,0 0,2.48317 39.88602,0 0,-2.48317 -39.88602,0 z"
       inkscape:connector-curvature="0"
       id="path3866"
       style="opacity:0.75;fill:#ffffff;fill-opacity:1;stroke:none;display:inline" />
    <path
       d="m 130.97434,197.02671 0,2.48317 39.65323,0 0,-2.48317 -39.65323,0 z m 69.37375,0 0,2.48317 39.88602,0 0,-2.48317 -39.88602,0 z m -29.72052,39.34283 0,2.48318 29.72052,0 0,-2.48318 -29.72052,0 z"
       inkscape:connector-curvature="0"
       id="path3875"
       style="opacity:0.15;fill:#000000;fill-opacity:1;stroke:none;display:inline" />
  </g>
  <style
     type="text/css"
     id="style4186">

	.st0{fill-rule:evenodd;clip-rule:evenodd;}
	.st1{fill-rule:evenodd;clip-rule:evenodd;fill:#5A9A98;}

</style>
  <style
     type="text/css"
     id="style4186-8">

	.st0{fill-rule:evenodd;clip-rule:evenodd;}
	.st1{fill-rule:evenodd;clip-rule:evenodd;fill:#5A9A98;}

</style>
  <style
     type="text/css"
     id="style4186-9">

	.st0{fill-rule:evenodd;clip-rule:evenodd;}
	.st1{fill-rule:evenodd;clip-rule:evenodd;fill:#5A9A98;}

</style>
  <style
     type="text/css"
     id="style4186-8-2">

	.st0{fill-rule:evenodd;clip-rule:evenodd;}
	.st1{fill-rule:evenodd;clip-rule:evenodd;fill:#5A9A98;}

</style>
</svg>
