<?xml version="1.0" encoding="UTF-8" standalone="no"?>
<!-- Created with Inkscape (http://www.inkscape.org/) -->

<svg
   xmlns:dc="http://purl.org/dc/elements/1.1/"
   xmlns:cc="http://creativecommons.org/ns#"
   xmlns:rdf="http://www.w3.org/1999/02/22-rdf-syntax-ns#"
   xmlns:svg="http://www.w3.org/2000/svg"
   xmlns="http://www.w3.org/2000/svg"
   xmlns:xlink="http://www.w3.org/1999/xlink"
   xmlns:sodipodi="http://sodipodi.sourceforge.net/DTD/sodipodi-0.dtd"
   xmlns:inkscape="http://www.inkscape.org/namespaces/inkscape"
   version="1.0"
   width="256"
   height="256"
   id="svg2408"
   inkscape:version="0.48.3.1 r9886"
   sodipodi:docname="games-solve.svg">
  <sodipodi:namedview
     pagecolor="#ffffff"
     bordercolor="#666666"
     borderopacity="1"
     objecttolerance="10"
     gridtolerance="10"
     guidetolerance="10"
     inkscape:pageopacity="0"
     inkscape:pageshadow="2"
     inkscape:window-width="1024"
     inkscape:window-height="572"
     id="namedview144"
     showgrid="false"
     inkscape:zoom="1.6367188"
     inkscape:cx="128"
     inkscape:cy="128"
     inkscape:window-x="0"
     inkscape:window-y="28"
     inkscape:window-maximized="1"
     inkscape:current-layer="svg2408"
     fit-margin-top="0"
     fit-margin-left="0"
     fit-margin-right="0"
     fit-margin-bottom="0" />
  <defs
     id="defs2410">
    <filter
       id="filter3174"
       color-interpolation-filters="sRGB">
      <feGaussianBlur
         stdDeviation="1.71"
         id="feGaussianBlur3176" />
    </filter>
    <filter
       id="filter3794"
       color-interpolation-filters="sRGB"
       height="1.3839999"
       width="1.3839999"
       y="-0.192"
       x="-0.192">
      <feGaussianBlur
         stdDeviation="5.28"
         id="feGaussianBlur3796" />
    </filter>
    <linearGradient
       gradientTransform="scale(1.0058652,0.994169)"
       gradientUnits="userSpaceOnUse"
       id="ButtonShadow-201"
       y2="7.0165396"
       x2="45.447727"
       y1="92.539597"
       x1="45.447727">
      <stop
         offset="0"
         style="stop-color:#000000;stop-opacity:1"
         id="stop3456" />
      <stop
         offset="1"
         style="stop-color:#000000;stop-opacity:0.58823532"
         id="stop3458" />
    </linearGradient>
    <linearGradient
       gradientUnits="userSpaceOnUse"
       xlink:href="#linearGradient3737-68"
       id="linearGradient3613-944"
       y2="138.66119"
       x2="48"
       y1="20.220806"
       x1="48" />
    <linearGradient
       id="linearGradient3737-68">
      <stop
         offset="0"
         style="stop-color:#ffffff;stop-opacity:1"
         id="stop3510" />
      <stop
         offset="1"
         style="stop-color:#ffffff;stop-opacity:0"
         id="stop3512" />
    </linearGradient>
    <linearGradient
       id="linearGradient4296-7">
      <stop
         id="stop4298-1"
         style="stop-color:#000000;stop-opacity:1"
         offset="0" />
      <stop
         id="stop4300-7"
         style="stop-color:#000000;stop-opacity:0"
         offset="1" />
    </linearGradient>
    <filter
       color-interpolation-filters="sRGB"
       id="filter4304-2">
      <feGaussianBlur
         id="feGaussianBlur4306-7"
         stdDeviation="0.53347418" />
    </filter>
    <linearGradient
       id="linearGradient4778-1">
      <stop
         id="stop4780-0"
         style="stop-color:#fff9b9;stop-opacity:1"
         offset="0" />
      <stop
         id="stop4782-6"
         style="stop-color:#fff79e;stop-opacity:0"
         offset="1" />
    </linearGradient>
    <linearGradient
       id="linearGradient4634-5">
      <stop
         id="stop4636-9"
         style="stop-color:#000000;stop-opacity:1"
         offset="0" />
      <stop
         id="stop4642-4"
         style="stop-color:#a5a5a5;stop-opacity:1"
         offset="0.30000001" />
      <stop
         id="stop4644-9"
         style="stop-color:#4c4c4c;stop-opacity:1"
         offset="0.60000002" />
      <stop
         id="stop4638-0"
         style="stop-color:#000000;stop-opacity:1"
         offset="1" />
    </linearGradient>
    <linearGradient
       id="linearGradient4654-1">
      <stop
         id="stop4656-7"
         style="stop-color:#a5a5a5;stop-opacity:1"
         offset="0" />
      <stop
         id="stop4658-7"
         style="stop-color:#ffffff;stop-opacity:1"
         offset="0.30000001" />
      <stop
         id="stop4660-1"
         style="stop-color:#a5a5a5;stop-opacity:1"
         offset="0.60000002" />
      <stop
         id="stop4662-1"
         style="stop-color:#636363;stop-opacity:1"
         offset="1" />
    </linearGradient>
    <linearGradient
       id="linearGradient4672-7">
      <stop
         id="stop4674-7"
         style="stop-color:#000000;stop-opacity:1"
         offset="0" />
      <stop
         id="stop4676-6"
         style="stop-color:#000000;stop-opacity:0"
         offset="1" />
    </linearGradient>
    <linearGradient
       id="linearGradient4215-3">
      <stop
         id="stop4217-6"
         style="stop-color:#ffb800;stop-opacity:1"
         offset="0" />
      <stop
         id="stop4219-5"
         style="stop-color:#ffb800;stop-opacity:0"
         offset="1" />
    </linearGradient>
    <linearGradient
       id="linearGradient4223-3">
      <stop
         id="stop4225-9"
         style="stop-color:#ffe375;stop-opacity:1"
         offset="0" />
      <stop
         id="stop4227-4"
         style="stop-color:#ffa600;stop-opacity:1"
         offset="1" />
    </linearGradient>
    <linearGradient
       inkscape:collect="always"
       xlink:href="#linearGradient4296-7"
       id="linearGradient3393"
       gradientUnits="userSpaceOnUse"
       gradientTransform="matrix(0.96592583,0.25881905,-0.25881905,0.96592583,30.00523,-25.91561)"
       x1="79.814896"
       y1="106.04263"
       x2="39.328308"
       y2="35.917809" />
    <linearGradient
       inkscape:collect="always"
       xlink:href="#linearGradient4296-7"
       id="linearGradient3395"
       gradientUnits="userSpaceOnUse"
       gradientTransform="matrix(0.96592583,0.25881905,-0.25881905,0.96592583,30.00523,-25.91561)"
       x1="79.814896"
       y1="106.04263"
       x2="39.328308"
       y2="35.917809" />
    <linearGradient
       inkscape:collect="always"
       xlink:href="#linearGradient4296-7"
       id="linearGradient3397"
       gradientUnits="userSpaceOnUse"
       gradientTransform="matrix(0.96592583,0.25881905,-0.25881905,0.96592583,30.777162,-18.424024)"
       x1="79.814896"
       y1="106.04263"
       x2="39.328308"
       y2="35.917809" />
    <radialGradient
       inkscape:collect="always"
       xlink:href="#linearGradient4778-1"
       id="radialGradient3399"
       gradientUnits="userSpaceOnUse"
       gradientTransform="matrix(0.02521851,1.5993168,-0.98834063,0.01558446,66.606324,-27.305114)"
       cx="39.04879"
       cy="28.09796"
       fx="39.04879"
       fy="28.09796"
       r="36.428211" />
    <radialGradient
       inkscape:collect="always"
       xlink:href="#linearGradient4215-3"
       id="radialGradient3401"
       gradientUnits="userSpaceOnUse"
       cx="32"
       cy="32"
       fx="32"
       fy="32"
       r="8" />
    <radialGradient
       inkscape:collect="always"
       xlink:href="#linearGradient4223-3"
       id="radialGradient3403"
       gradientUnits="userSpaceOnUse"
       cx="29.094891"
       cy="31.601685"
       fx="29.094891"
       fy="31.601685"
       r="7.2449093" />
    <radialGradient
       inkscape:collect="always"
       xlink:href="#linearGradient4215-3"
       id="radialGradient3405"
       gradientUnits="userSpaceOnUse"
       cx="32"
       cy="32"
       fx="32"
       fy="32"
       r="8" />
    <radialGradient
       inkscape:collect="always"
       xlink:href="#linearGradient4223-3"
       id="radialGradient3407"
       gradientUnits="userSpaceOnUse"
       cx="29.094891"
       cy="31.601685"
       fx="29.094891"
       fy="31.601685"
       r="7.2449093" />
    <radialGradient
       inkscape:collect="always"
       xlink:href="#linearGradient4215-3"
       id="radialGradient3409"
       gradientUnits="userSpaceOnUse"
       cx="32"
       cy="32"
       fx="32"
       fy="32"
       r="8" />
    <radialGradient
       inkscape:collect="always"
       xlink:href="#linearGradient4223-3"
       id="radialGradient3411"
       gradientUnits="userSpaceOnUse"
       cx="29.094891"
       cy="31.601685"
       fx="29.094891"
       fy="31.601685"
       r="7.2449093" />
    <radialGradient
       inkscape:collect="always"
       xlink:href="#linearGradient4215-3"
       id="radialGradient3413"
       gradientUnits="userSpaceOnUse"
       cx="32"
       cy="32"
       fx="32"
       fy="32"
       r="8" />
    <radialGradient
       inkscape:collect="always"
       xlink:href="#linearGradient4223-3"
       id="radialGradient3415"
       gradientUnits="userSpaceOnUse"
       cx="29.094891"
       cy="31.601685"
       fx="29.094891"
       fy="31.601685"
       r="7.2449093" />
    <radialGradient
       inkscape:collect="always"
       xlink:href="#linearGradient4778-1"
       id="radialGradient3417"
       gradientUnits="userSpaceOnUse"
       gradientTransform="matrix(0.02521851,1.5993168,-0.98834063,0.01558446,66.606324,-27.305114)"
       cx="39.04879"
       cy="28.09796"
       fx="39.04879"
       fy="28.09796"
       r="36.428211" />
    <linearGradient
       inkscape:collect="always"
       xlink:href="#linearGradient4634-5"
       id="linearGradient3419"
       gradientUnits="userSpaceOnUse"
       x1="48"
       y1="56"
       x2="55.077717"
       y2="56" />
    <linearGradient
       inkscape:collect="always"
       xlink:href="#linearGradient4654-1"
       id="linearGradient3421"
       gradientUnits="userSpaceOnUse"
       x1="48"
       y1="56"
       x2="56.153542"
       y2="56" />
    <linearGradient
       inkscape:collect="always"
       xlink:href="#linearGradient4654-1"
       id="linearGradient3423"
       gradientUnits="userSpaceOnUse"
       gradientTransform="matrix(1,0,0,-1,0,112)"
       x1="48"
       y1="56"
       x2="55.868713"
       y2="56" />
    <linearGradient
       inkscape:collect="always"
       xlink:href="#linearGradient4672-7"
       id="linearGradient3425"
       gradientUnits="userSpaceOnUse"
       x1="48"
       y1="96"
       x2="48"
       y2="31.677887" />
  </defs>
  <metadata
     id="metadata2413">
    <rdf:RDF>
      <cc:Work
         rdf:about="">
        <dc:format>image/svg+xml</dc:format>
        <dc:type
           rdf:resource="http://purl.org/dc/dcmitype/StillImage" />
        <dc:title></dc:title>
      </cc:Work>
    </rdf:RDF>
  </metadata>
  <g
     style="display:none"
     id="layer2"
     transform="translate(-7.6280691,151.04784)">
    <rect
       style="opacity:0.9;fill:url(#ButtonShadow-201);fill-opacity:1;fill-rule:nonzero;stroke:none;filter:url(#filter3174)"
       id="rect3745"
       y="7"
       x="5"
       ry="6"
       rx="6"
       height="85"
       width="86" />
  </g>
  <g
     id="g3359"
     transform="matrix(2.3857379,0,0,2.3857379,-4.1985731,5.6116412)">
    <path
       d="m 61.895589,17.34349 c -0.135233,-0.04214 -0.28289,-0.05044 -0.416672,-0.01459 l -5.787197,1.555153 c -0.535123,0.143386 -0.804929,0.915704 -0.58985,1.718389 l 3.238555,12.061692 6.733607,25.097978 4.37878,16.37891 5.585295,20.810946 c 0.215078,0.802687 0.824216,1.348782 1.359339,1.205396 l 5.787197,-1.555154 c 0.535123,-0.143386 0.804929,-0.915701 0.589851,-1.718388 L 77.189199,72.072876 72.810419,55.693967 66.076812,30.595988 62.838256,18.534296 C 62.676947,17.932283 62.301288,17.469904 61.895589,17.34349 z"
       inkscape:connector-curvature="0"
       transform="matrix(0.8286091,-0.55982761,0.55982761,0.8286091,-40.039481,66.182789)"
       id="path4312"
       style="opacity:0.1;color:#000000;fill:url(#linearGradient3393);fill-opacity:1;fill-rule:nonzero;stroke:none;stroke-width:1;marker:none;visibility:visible;display:inline;overflow:visible;filter:url(#filter4304-2);enable-background:accumulate" />
    <path
       d="m 61.895589,17.34349 c -0.135233,-0.04214 -0.28289,-0.05044 -0.416672,-0.01459 l -5.787197,1.555153 c -0.535123,0.143386 -0.804929,0.915704 -0.58985,1.718389 l 3.238555,12.061692 6.733607,25.097978 4.37878,16.37891 5.585295,20.810946 c 0.215078,0.802687 0.824216,1.348782 1.359339,1.205396 l 5.787197,-1.555154 c 0.535123,-0.143386 0.804929,-0.915701 0.589851,-1.718388 L 77.189199,72.072876 72.810419,55.693967 66.076812,30.595988 62.838256,18.534296 C 62.676947,17.932283 62.301288,17.469904 61.895589,17.34349 z"
       inkscape:connector-curvature="0"
       transform="matrix(0.93863507,-0.34491188,0.34491188,0.93863507,-27.709176,39.405482)"
       id="path4308"
       style="opacity:0.3;color:#000000;fill:url(#linearGradient3395);fill-opacity:1;fill-rule:nonzero;stroke:none;stroke-width:1;marker:none;visibility:visible;display:inline;overflow:visible;filter:url(#filter4304-2);enable-background:accumulate" />
    <path
       d="m 62.667521,24.835076 c -0.135233,-0.04214 -0.28289,-0.05044 -0.416672,-0.01459 l -5.787197,1.555153 c -0.535123,0.143386 -0.804929,0.915704 -0.58985,1.718389 l 3.238555,12.061692 6.733607,25.097978 4.37878,16.37891 5.585295,20.810942 c 0.215078,0.80269 0.824216,1.34879 1.359339,1.2054 l 5.787197,-1.55515 c 0.535123,-0.14339 0.804929,-0.9157 0.589851,-1.71839 L 77.961131,79.564462 73.582351,63.185553 66.848744,38.087574 63.610188,26.025882 C 63.448879,25.423869 63.07322,24.96149 62.667521,24.835076 z"
       inkscape:connector-curvature="0"
       id="rect4250"
       style="opacity:0.12000002;color:#000000;fill:url(#linearGradient3397);fill-opacity:1;fill-rule:nonzero;stroke:none;stroke-width:1;marker:none;visibility:visible;display:inline;overflow:visible;filter:url(#filter4304-2);enable-background:accumulate" />
    <path
       d="m 74.115682,13.491586 c -7.360276,25.499114 -22.654005,54.407743 -36,50.03125 -14.047277,-4.606462 -5.118552,-23.279673 -0.65625,-27.875 -5.254229,4.926829 -18.400032,25.281971 -1.625,34.1875 12.932641,6.86568 39.733215,-8.78461 54.9375,-29.96875 l 0,-20.375 c 0,-3.324 -2.676,-6 -6,-6 l -10.65625,0 z"
       inkscape:connector-curvature="0"
       id="path4776"
       style="opacity:0.4;fill:url(#radialGradient3399);fill-opacity:1;stroke:none" />
    <g
       transform="matrix(1.1298846,0,0,1.1298846,8.219412,37.041598)"
       id="g4201"
       style="fill:#ffcc00;display:inline;enable-background:new">
      <path
         d="m 40,32 a 8,8 0 1 1 -16,0 8,8 0 1 1 16,0 z"
         transform="translate(-1,-1)"
         id="path4203"
         style="color:#000000;fill:url(#radialGradient3401);fill-opacity:1;fill-rule:nonzero;stroke:none;stroke-width:1;marker:none;visibility:visible;display:inline;overflow:visible;enable-background:accumulate"
         inkscape:connector-curvature="0" />
      <path
         d="m 23.90625,22.633975 2.383468,8.216066 -6.186993,5.931209 8.186993,-2.467107 5.991532,6.270632 -2.52743,-8.270632 6.330955,-5.907893 -8.330955,2.443791 -5.84757,-6.216066 z"
         inkscape:connector-curvature="0"
         transform="matrix(0.8660254,0.5,-0.5,0.8660254,21.657457,-10.861778)"
         id="path4205"
         style="opacity:0.1;color:#000000;fill:#ffcc00;fill-opacity:1;fill-rule:nonzero;stroke:none;stroke-width:1;marker:none;visibility:visible;display:inline;overflow:visible;enable-background:accumulate" />
      <path
         d="m 33.777741,39.712619 -5.216804,-6.034048 -7.576981,2.605964 6.074408,-5.15034 -2.646323,-7.643445 5.163457,6.064847 7.630327,-2.636762 -6.025795,5.354295 2.597711,7.439489 z"
         inkscape:connector-curvature="0"
         transform="matrix(0.8660254,0.5,-0.5,0.8660254,21.657457,-10.861778)"
         id="path4207"
         style="opacity:0.2;color:#000000;fill:#ffcc00;fill-opacity:1;fill-rule:nonzero;stroke:none;stroke-width:1;marker:none;visibility:visible;display:inline;overflow:visible;enable-background:accumulate" />
      <path
         d="m 33.277741,38.846594 -4.529283,-5.952006 -6.898477,2.889947 5.952006,-4.529283 -2.889946,-6.898477 4.529282,5.952006 6.898477,-2.889946 -5.952006,4.529282 z"
         transform="matrix(0.8660254,0.5,-0.5,0.8660254,21.657457,-10.861778)"
         id="path4209"
         style="color:#000000;fill:url(#radialGradient3403);fill-opacity:1;fill-rule:nonzero;stroke:none;stroke-width:1;marker:none;visibility:visible;display:inline;overflow:visible;enable-background:accumulate"
         inkscape:connector-curvature="0" />
    </g>
    <g
       transform="matrix(0.74835613,0,0,0.74835613,50.558063,30.645476)"
       id="g4345"
       style="fill:#ffcc00;display:inline;enable-background:new">
      <path
         d="m 40,32 a 8,8 0 1 1 -16,0 8,8 0 1 1 16,0 z"
         transform="translate(-1,-1)"
         id="path4347"
         style="color:#000000;fill:url(#radialGradient3405);fill-opacity:1;fill-rule:nonzero;stroke:none;stroke-width:1;marker:none;visibility:visible;display:inline;overflow:visible;enable-background:accumulate"
         inkscape:connector-curvature="0" />
      <path
         d="m 23.90625,22.633975 2.383468,8.216066 -6.186993,5.931209 8.186993,-2.467107 5.991532,6.270632 -2.52743,-8.270632 6.330955,-5.907893 -8.330955,2.443791 -5.84757,-6.216066 z"
         inkscape:connector-curvature="0"
         transform="matrix(0.8660254,0.5,-0.5,0.8660254,21.657457,-10.861778)"
         id="path4349"
         style="opacity:0.1;color:#000000;fill:#ffcc00;fill-opacity:1;fill-rule:nonzero;stroke:none;stroke-width:1;marker:none;visibility:visible;display:inline;overflow:visible;enable-background:accumulate" />
      <path
         d="m 33.777741,39.712619 -5.216804,-6.034048 -7.576981,2.605964 6.074408,-5.15034 -2.646323,-7.643445 5.163457,6.064847 7.630327,-2.636762 -6.025795,5.354295 2.597711,7.439489 z"
         inkscape:connector-curvature="0"
         transform="matrix(0.8660254,0.5,-0.5,0.8660254,21.657457,-10.861778)"
         id="path4351"
         style="opacity:0.2;color:#000000;fill:#ffcc00;fill-opacity:1;fill-rule:nonzero;stroke:none;stroke-width:1;marker:none;visibility:visible;display:inline;overflow:visible;enable-background:accumulate" />
      <path
         d="m 33.277741,38.846594 -4.529283,-5.952006 -6.898477,2.889947 5.952006,-4.529283 -2.889946,-6.898477 4.529282,5.952006 6.898477,-2.889946 -5.952006,4.529282 z"
         transform="matrix(0.8660254,0.5,-0.5,0.8660254,21.657457,-10.861778)"
         id="path4353"
         style="color:#000000;fill:url(#radialGradient3407);fill-opacity:1;fill-rule:nonzero;stroke:none;stroke-width:1;marker:none;visibility:visible;display:inline;overflow:visible;enable-background:accumulate"
         inkscape:connector-curvature="0" />
    </g>
    <g
       transform="matrix(1.8398335,0,0,1.8398335,-30.412885,-3.3486329)"
       id="g4387"
       style="fill:#ffcc00;display:inline;enable-background:new">
      <path
         d="m 40,32 a 8,8 0 1 1 -16,0 8,8 0 1 1 16,0 z"
         transform="translate(-1,-1)"
         id="path4389"
         style="color:#000000;fill:url(#radialGradient3409);fill-opacity:1;fill-rule:nonzero;stroke:none;stroke-width:1;marker:none;visibility:visible;display:inline;overflow:visible;enable-background:accumulate"
         inkscape:connector-curvature="0" />
      <path
         d="m 23.90625,22.633975 2.383468,8.216066 -6.186993,5.931209 8.186993,-2.467107 5.991532,6.270632 -2.52743,-8.270632 6.330955,-5.907893 -8.330955,2.443791 -5.84757,-6.216066 z"
         inkscape:connector-curvature="0"
         transform="matrix(0.8660254,0.5,-0.5,0.8660254,21.657457,-10.861778)"
         id="path4391"
         style="opacity:0.1;color:#000000;fill:#ffcc00;fill-opacity:1;fill-rule:nonzero;stroke:none;stroke-width:1;marker:none;visibility:visible;display:inline;overflow:visible;enable-background:accumulate" />
      <path
         d="m 33.777741,39.712619 -5.216804,-6.034048 -7.576981,2.605964 6.074408,-5.15034 -2.646323,-7.643445 5.163457,6.064847 7.630327,-2.636762 -6.025795,5.354295 2.597711,7.439489 z"
         inkscape:connector-curvature="0"
         transform="matrix(0.8660254,0.5,-0.5,0.8660254,21.657457,-10.861778)"
         id="path4393"
         style="opacity:0.2;color:#000000;fill:#ffcc00;fill-opacity:1;fill-rule:nonzero;stroke:none;stroke-width:1;marker:none;visibility:visible;display:inline;overflow:visible;enable-background:accumulate" />
      <path
         d="m 33.277741,38.846594 -4.529283,-5.952006 -6.898477,2.889947 5.952006,-4.529283 -2.889946,-6.898477 4.529282,5.952006 6.898477,-2.889946 -5.952006,4.529282 z"
         transform="matrix(0.8660254,0.5,-0.5,0.8660254,21.657457,-10.861778)"
         id="path4395"
         style="color:#000000;fill:url(#radialGradient3411);fill-opacity:1;fill-rule:nonzero;stroke:none;stroke-width:1;marker:none;visibility:visible;display:inline;overflow:visible;enable-background:accumulate"
         inkscape:connector-curvature="0" />
    </g>
    <g
       transform="matrix(0.87787637,0,0,0.87787637,4.704647,1.1513561)"
       id="g4471"
       style="fill:#ffcc00;display:inline;enable-background:new">
      <path
         d="m 40,32 a 8,8 0 1 1 -16,0 8,8 0 1 1 16,0 z"
         transform="translate(-1,-1)"
         id="path4473"
         style="color:#000000;fill:url(#radialGradient3413);fill-opacity:1;fill-rule:nonzero;stroke:none;stroke-width:1;marker:none;visibility:visible;display:inline;overflow:visible;enable-background:accumulate"
         inkscape:connector-curvature="0" />
      <path
         d="m 23.90625,22.633975 2.383468,8.216066 -6.186993,5.931209 8.186993,-2.467107 5.991532,6.270632 -2.52743,-8.270632 6.330955,-5.907893 -8.330955,2.443791 -5.84757,-6.216066 z"
         inkscape:connector-curvature="0"
         transform="matrix(0.8660254,0.5,-0.5,0.8660254,21.657457,-10.861778)"
         id="path4475"
         style="opacity:0.1;color:#000000;fill:#ffcc00;fill-opacity:1;fill-rule:nonzero;stroke:none;stroke-width:1;marker:none;visibility:visible;display:inline;overflow:visible;enable-background:accumulate" />
      <path
         d="m 33.777741,39.712619 -5.216804,-6.034048 -7.576981,2.605964 6.074408,-5.15034 -2.646323,-7.643445 5.163457,6.064847 7.630327,-2.636762 -6.025795,5.354295 2.597711,7.439489 z"
         inkscape:connector-curvature="0"
         transform="matrix(0.8660254,0.5,-0.5,0.8660254,21.657457,-10.861778)"
         id="path4477"
         style="opacity:0.2;color:#000000;fill:#ffcc00;fill-opacity:1;fill-rule:nonzero;stroke:none;stroke-width:1;marker:none;visibility:visible;display:inline;overflow:visible;enable-background:accumulate" />
      <path
         d="m 33.277741,38.846594 -4.529283,-5.952006 -6.898477,2.889947 5.952006,-4.529283 -2.889946,-6.898477 4.529282,5.952006 6.898477,-2.889946 -5.952006,4.529282 z"
         transform="matrix(0.8660254,0.5,-0.5,0.8660254,21.657457,-10.861778)"
         id="path4479"
         style="color:#000000;fill:url(#radialGradient3415);fill-opacity:1;fill-rule:nonzero;stroke:none;stroke-width:1;marker:none;visibility:visible;display:inline;overflow:visible;enable-background:accumulate"
         inkscape:connector-curvature="0" />
    </g>
    <path
       d="m 77.459432,-2.3521639 a 1.4541256,1.4541256 0 0 0 -1.40625,1.21875 c -2.27557,13.4258619 -7.813985,30.8382729 -14.71875,44.0937499 -3.452382,6.627738 -7.257201,12.211398 -11.03125,15.71875 -3.774049,3.507352 -7.295325,4.883383 -10.65625,3.78125 -3.405055,-1.116605 -5.079,-2.96766 -5.9375,-5.28125 -0.8585,-2.31359 -0.790906,-5.207445 -0.125,-8.125 0.665906,-2.917555 1.907685,-5.838542 3.21875,-8.15625 1.311065,-2.317708 2.820599,-4.084934 3.375,-4.46875 l -0.8125,-1.1875 -0.84375,-1.1875 c -1.396565,1.011306 -3.259903,3.034721 -5.25,5.78125 -1.990097,2.746529 -4.040377,6.166856 -5.375,9.875 -1.334623,3.708144 -1.976089,7.742496 -1.03125,11.5625 0.944839,3.820004 3.554543,7.334435 8.28125,9.84375 4.965377,2.636019 11.452026,2.235318 18.34375,-0.09375 6.891724,-2.329068 14.287059,-6.6334 21.25,-12.21875 13.925882,-11.170699 26.159198,-27.463354 28.312498,-43.8125 a 1.4541256,1.4541256 0 0 0 -0.65625,-1.40625 L 78.271932,-2.1021639 a 1.4541256,1.4541256 0 0 0 -0.8125,-0.25 z"
       id="path4901"
       style="opacity:0;fill:url(#radialGradient3417);fill-opacity:1;stroke:none"
       inkscape:connector-curvature="0" />
    <g
       transform="matrix(0.8660254,-0.5,0.5,0.8660254,-73.883167,79.759248)"
       id="g4224">
      <g
         transform="translate(70,0)"
         id="g4226">
        <rect
           width="8"
           height="80"
           rx="1"
           ry="1.5"
           x="48"
           y="16"
           id="rect4228"
           style="color:#000000;fill:url(#linearGradient3419);fill-opacity:1;fill-rule:nonzero;stroke:none;stroke-width:1;marker:none;visibility:visible;display:inline;overflow:visible;enable-background:accumulate" />
        <path
           d="m 49,16 c -0.554,0 -1,0.669 -1,1.5 l 0,12.5 8,0 0,-12.5 C 56,16.669 55.554,16 55,16 z"
           inkscape:connector-curvature="0"
           id="path4230"
           style="color:#000000;fill:url(#linearGradient3421);fill-opacity:1;fill-rule:nonzero;stroke:none;stroke-width:1;marker:none;visibility:visible;display:inline;overflow:visible;enable-background:accumulate" />
        <path
           d="m 49,96 c -0.554,0 -1,-0.669 -1,-1.5 l 0,-12.5 8,0 0,12.5 c 0,0.831 -0.446,1.5 -1,1.5 z"
           inkscape:connector-curvature="0"
           id="path4232"
           style="color:#000000;fill:url(#linearGradient3423);fill-opacity:1;fill-rule:nonzero;stroke:none;stroke-width:1;marker:none;visibility:visible;display:inline;overflow:visible;enable-background:accumulate" />
        <rect
           width="8"
           height="80"
           rx="1"
           ry="1.5"
           x="48"
           y="16"
           id="rect4234"
           style="opacity:0.3;color:#000000;fill:url(#linearGradient3425);fill-opacity:1;fill-rule:nonzero;stroke:none;stroke-width:1;marker:none;visibility:visible;display:inline;overflow:visible;enable-background:accumulate" />
        <path
           d="m 49,16 c -0.554,0 -1,0.669 -1,1.5 l 0,77 c 0,0.831 0.446,1.5 1,1.5 l 6,0 c 0.554,0 1,-0.669 1,-1.5 l 0,-77 C 56,16.669 55.554,16 55,16 z m 0.125,1 5.75,0 C 54.92429,17.07394 55,17.264325 55,17.5 l 0,77 c 0,0.235675 -0.07571,0.426061 -0.125,0.5 l -5.75,0 C 49.075707,94.926061 49,94.735675 49,94.5 l 0,-77 c 0,-0.235675 0.07571,-0.426061 0.125,-0.5 z"
           inkscape:connector-curvature="0"
           id="path4236"
           style="opacity:0.2;color:#000000;fill:#000000;fill-opacity:1;fill-rule:nonzero;stroke:none;stroke-width:1;marker:none;visibility:visible;display:inline;overflow:visible;enable-background:accumulate" />
      </g>
    </g>
  </g>
</svg>
