<?xml version="1.0" encoding="UTF-8" standalone="no"?>
<!-- Created with Inkscape (http://www.inkscape.org/) -->

<svg
   xmlns:dc="http://purl.org/dc/elements/1.1/"
   xmlns:cc="http://creativecommons.org/ns#"
   xmlns:rdf="http://www.w3.org/1999/02/22-rdf-syntax-ns#"
   xmlns:svg="http://www.w3.org/2000/svg"
   xmlns="http://www.w3.org/2000/svg"
   xmlns:xlink="http://www.w3.org/1999/xlink"
   xmlns:sodipodi="http://sodipodi.sourceforge.net/DTD/sodipodi-0.dtd"
   xmlns:inkscape="http://www.inkscape.org/namespaces/inkscape"
   version="1.0"
   width="256"
   height="256"
   id="svg2408"
   inkscape:version="0.48.3.1 r9886"
   sodipodi:docname="gtk-spell-check.svg">
  <sodipodi:namedview
     pagecolor="#ffffff"
     bordercolor="#666666"
     borderopacity="1"
     objecttolerance="10"
     gridtolerance="10"
     guidetolerance="10"
     inkscape:pageopacity="0"
     inkscape:pageshadow="2"
     inkscape:window-width="1024"
     inkscape:window-height="572"
     id="namedview3997"
     showgrid="false"
     inkscape:zoom="1.6367188"
     inkscape:cx="117.30788"
     inkscape:cy="128"
     inkscape:window-x="0"
     inkscape:window-y="28"
     inkscape:window-maximized="1"
     inkscape:current-layer="svg2408" />
  <defs
     id="defs2410">
    <linearGradient
       id="linearGradient3637">
      <stop
         id="stop3639"
         style="stop-color:#5a5a5a;stop-opacity:1;"
         offset="0" />
      <stop
         id="stop3641"
         style="stop-color:#000000;stop-opacity:1;"
         offset="1" />
    </linearGradient>
    <linearGradient
       x1="45.447727"
       y1="92.539597"
       x2="45.447727"
       y2="7.0165396"
       id="ButtonShadow"
       gradientUnits="userSpaceOnUse"
       gradientTransform="scale(1.0058652,0.994169)">
      <stop
         id="stop3750"
         style="stop-color:#000000;stop-opacity:1"
         offset="0" />
      <stop
         id="stop3752"
         style="stop-color:#000000;stop-opacity:0.58823532"
         offset="1" />
    </linearGradient>
    <linearGradient
       id="linearGradient3737">
      <stop
         id="stop3739"
         style="stop-color:#ffffff;stop-opacity:1"
         offset="0" />
      <stop
         id="stop3741"
         style="stop-color:#ffffff;stop-opacity:0"
         offset="1" />
    </linearGradient>
    <linearGradient
       id="linearGradient3700">
      <stop
         id="stop3702"
         style="stop-color:#2276c5;stop-opacity:1"
         offset="0" />
      <stop
         id="stop3704"
         style="stop-color:#68baf4;stop-opacity:1"
         offset="1" />
    </linearGradient>
    <filter
       color-interpolation-filters="sRGB"
       id="filter3174">
      <feGaussianBlur
         id="feGaussianBlur3176"
         stdDeviation="1.71" />
    </filter>
    <linearGradient
       x1="36.357143"
       y1="6"
       x2="36.357143"
       y2="63.893143"
       id="linearGradient3188"
       xlink:href="#linearGradient3737"
       gradientUnits="userSpaceOnUse" />
    <filter
       x="-0.192"
       y="-0.192"
       width="1.3839999"
       height="1.3839999"
       color-interpolation-filters="sRGB"
       id="filter3794">
      <feGaussianBlur
         id="feGaussianBlur3796"
         stdDeviation="5.28" />
    </filter>
    <linearGradient
       x1="48"
       y1="20.220806"
       x2="48"
       y2="138.66119"
       id="linearGradient3613"
       xlink:href="#linearGradient3737"
       gradientUnits="userSpaceOnUse" />
    <radialGradient
       cx="48"
       cy="90.171875"
       r="42"
       fx="48"
       fy="90.171875"
       id="radialGradient3619"
       xlink:href="#linearGradient3737"
       gradientUnits="userSpaceOnUse"
       gradientTransform="matrix(1.1573129,0,0,0.99590774,-7.5510206,0.19713193)" />
    <clipPath
       id="clipPath3613">
      <rect
         width="84"
         height="84"
         rx="6"
         ry="6"
         x="6"
         y="6"
         id="rect3615"
         style="fill:#ffffff;fill-opacity:1;fill-rule:nonzero;stroke:none" />
    </clipPath>
    <linearGradient
       x1="48"
       y1="90"
       x2="48"
       y2="5.9877172"
       id="linearGradient2843"
       xlink:href="#linearGradient3700"
       gradientUnits="userSpaceOnUse"
       gradientTransform="translate(0,100)" />
    <clipPath
       id="clipPath3625">
      <path
         d="M 0,0 0,96 96,96 96,0 0,0 z m 12,6 72,0 c 3.324,0 6,2.676 6,6 l 0,72 c 0,3.324 -2.676,6 -6,6 L 12,90 C 8.676,90 6,87.324 6,84 L 6,12 C 6,8.676 8.676,6 12,6 z"
         inkscape:connector-curvature="0"
         id="path3627"
         style="fill:#ffffff;fill-opacity:1;stroke:none" />
    </clipPath>
    <linearGradient
       x1="44.512066"
       y1="6"
       x2="44.512066"
       y2="90.015434"
       id="linearGradient3643"
       xlink:href="#linearGradient3637"
       gradientUnits="userSpaceOnUse" />
    <clipPath
       id="clipPath3649">
      <rect
         width="76"
         height="76"
         rx="4"
         ry="4"
         x="10"
         y="10"
         id="rect3651"
         style="fill:#ffffff;fill-opacity:1;fill-rule:nonzero;stroke:none" />
    </clipPath>
    <filter
       color-interpolation-filters="sRGB"
       id="filter3657">
      <feGaussianBlur
         id="feGaussianBlur3659"
         stdDeviation="1.14" />
    </filter>
    <linearGradient
       inkscape:collect="always"
       xlink:href="#linearGradient3637"
       id="linearGradient3829"
       gradientUnits="userSpaceOnUse"
       gradientTransform="matrix(11.98496,0,0,11.98496,-1.1708872,-1.2420577)"
       x1="9.1734705"
       y1="3.149884"
       x2="9.1734705"
       y2="18.002266" />
  </defs>
  <metadata
     id="metadata2413">
    <rdf:RDF>
      <cc:Work
         rdf:about="">
        <dc:format>image/svg+xml</dc:format>
        <dc:type
           rdf:resource="http://purl.org/dc/dcmitype/StillImage" />
        <dc:title></dc:title>
      </cc:Work>
    </rdf:RDF>
  </metadata>
  <g
     id="layer2"
     style="display:none"
     transform="translate(0,160)">
    <rect
       width="86"
       height="85"
       rx="6"
       ry="6"
       x="5"
       y="7"
       clip-path="url(#clipPath3625)"
       id="rect3745"
       style="opacity:0.9;fill:url(#ButtonShadow);fill-opacity:1;fill-rule:nonzero;stroke:none;filter:url(#filter3174)" />
  </g>
  <g
     id="layer1"
     style="display:none"
     transform="translate(0,160)">
    <rect
       width="84"
       height="84"
       rx="6"
       ry="6"
       x="6"
       y="6"
       id="rect2419"
       style="opacity:0.8;fill:#000000;fill-opacity:1;fill-rule:nonzero;stroke:none" />
    <path
       d="m 14,10 c -2.216,0 -4,1.784 -4,4 l 0,68 c 0,2.216 1.784,4 4,4 l 68,0 c 2.216,0 4,-1.784 4,-4 l 0,-68 c 0,-2.216 -1.784,-4 -4,-4 l -68,0 z m 0,3.0625 68,0 c 0.578769,0 0.9375,0.358731 0.9375,0.9375 l 0,68 c 0,0.578769 -0.358731,0.9375 -0.9375,0.9375 l -68,0 c -0.578769,0 -0.9375,-0.358731 -0.9375,-0.9375 l 0,-68 c 0,-0.578769 0.358731,-0.9375 0.9375,-0.9375 z"
       inkscape:connector-curvature="0"
       id="rect3726"
       style="opacity:0.07999998;fill:#000000;fill-opacity:1;fill-rule:nonzero;stroke:none" />
    <path
       d="M 12,6 C 8.676,6 6,8.676 6,12 l 0,72 c 0,3.324 2.676,6 6,6 l 72,0 c 3.324,0 6,-2.676 6,-6 L 90,12 C 90,8.676 87.324,6 84,6 L 12,6 z m 2,4 68,0 c 2.216,0 4,1.784 4,4 l 0,68 c 0,2.216 -1.784,4 -4,4 l -68,0 c -2.216,0 -4,-1.784 -4,-4 l 0,-68 c 0,-2.216 1.784,-4 4,-4 z"
       inkscape:connector-curvature="0"
       id="rect3629"
       style="fill:url(#linearGradient3643);fill-opacity:1;fill-rule:nonzero;stroke:none" />
    <path
       d="M 12,6 C 8.676,6 6,8.676 6,12 l 0,2 0,68 0,2 c 0,0.334721 0.04135,0.6507 0.09375,0.96875 0.0487,0.295596 0.09704,0.596915 0.1875,0.875 0.00988,0.03038 0.020892,0.0636 0.03125,0.09375 0.098865,0.287771 0.2348802,0.547452 0.375,0.8125 0.1445918,0.273507 0.3156161,0.535615 0.5,0.78125 0.1843839,0.245635 0.3737765,0.473472 0.59375,0.6875 0.439947,0.428056 0.94291,0.814526 1.5,1.09375 0.278545,0.139612 0.5734731,0.246947 0.875,0.34375 -0.2562018,-0.100222 -0.4867109,-0.236272 -0.71875,-0.375 -0.00741,-0.0044 -0.023866,0.0045 -0.03125,0 -0.031933,-0.0193 -0.062293,-0.04251 -0.09375,-0.0625 -0.120395,-0.0767 -0.2310226,-0.163513 -0.34375,-0.25 -0.1061728,-0.0808 -0.2132809,-0.161112 -0.3125,-0.25 C 8.4783201,88.557317 8.3087904,88.373362 8.15625,88.1875 8.0486711,88.057245 7.9378561,87.922215 7.84375,87.78125 7.818661,87.74287 7.805304,87.69538 7.78125,87.65625 7.716487,87.553218 7.6510225,87.451733 7.59375,87.34375 7.4927417,87.149044 7.3880752,86.928049 7.3125,86.71875 7.30454,86.69694 7.288911,86.6782 7.28125,86.65625 7.2494249,86.5643 7.2454455,86.469419 7.21875,86.375 7.1884177,86.268382 7.1483606,86.171969 7.125,86.0625 7.0521214,85.720988 7,85.364295 7,85 L 7,83 7,15 7,13 C 7,10.218152 9.2181517,8 12,8 l 2,0 68,0 2,0 c 2.781848,0 5,2.218152 5,5 l 0,2 0,68 0,2 c 0,0.364295 -0.05212,0.720988 -0.125,1.0625 -0.04415,0.206893 -0.08838,0.397658 -0.15625,0.59375 -0.0077,0.02195 -0.0233,0.04069 -0.03125,0.0625 -0.06274,0.173739 -0.138383,0.367449 -0.21875,0.53125 -0.04158,0.0828 -0.07904,0.169954 -0.125,0.25 -0.0546,0.09721 -0.126774,0.18835 -0.1875,0.28125 -0.09411,0.140965 -0.204921,0.275995 -0.3125,0.40625 -0.143174,0.17445 -0.303141,0.346998 -0.46875,0.5 -0.01117,0.0102 -0.01998,0.02115 -0.03125,0.03125 -0.138386,0.125556 -0.285091,0.234436 -0.4375,0.34375 -0.102571,0.07315 -0.204318,0.153364 -0.3125,0.21875 -0.0074,0.0045 -0.02384,-0.0044 -0.03125,0 -0.232039,0.138728 -0.462548,0.274778 -0.71875,0.375 0.301527,-0.0968 0.596455,-0.204138 0.875,-0.34375 0.55709,-0.279224 1.060053,-0.665694 1.5,-1.09375 0.219973,-0.214028 0.409366,-0.441865 0.59375,-0.6875 0.184384,-0.245635 0.355408,-0.507743 0.5,-0.78125 0.14012,-0.265048 0.276135,-0.524729 0.375,-0.8125 0.01041,-0.03078 0.02133,-0.06274 0.03125,-0.09375 0.09046,-0.278085 0.1388,-0.579404 0.1875,-0.875 C 89.95865,84.6507 90,84.334721 90,84 l 0,-2 0,-68 0,-2 C 90,8.676 87.324,6 84,6 L 12,6 z"
       inkscape:connector-curvature="0"
       id="rect3728"
       style="fill:url(#linearGradient3188);fill-opacity:1;fill-rule:nonzero;stroke:none" />
    <path
       d="M 12,90 C 8.676,90 6,87.324 6,84 L 6,82 6,14 6,12 c 0,-0.334721 0.04135,-0.6507 0.09375,-0.96875 0.0487,-0.295596 0.09704,-0.596915 0.1875,-0.875 C 6.29113,10.12587 6.302142,10.09265 6.3125,10.0625 6.411365,9.774729 6.5473802,9.515048 6.6875,9.25 6.8320918,8.976493 7.0031161,8.714385 7.1875,8.46875 7.3718839,8.223115 7.5612765,7.995278 7.78125,7.78125 8.221197,7.353194 8.72416,6.966724 9.28125,6.6875 9.559795,6.547888 9.8547231,6.440553 10.15625,6.34375 9.9000482,6.443972 9.6695391,6.580022 9.4375,6.71875 c -0.00741,0.0044 -0.023866,-0.0045 -0.03125,0 -0.031933,0.0193 -0.062293,0.04251 -0.09375,0.0625 -0.120395,0.0767 -0.2310226,0.163513 -0.34375,0.25 -0.1061728,0.0808 -0.2132809,0.161112 -0.3125,0.25 C 8.4783201,7.442683 8.3087904,7.626638 8.15625,7.8125 8.0486711,7.942755 7.9378561,8.077785 7.84375,8.21875 7.818661,8.25713 7.805304,8.30462 7.78125,8.34375 7.716487,8.446782 7.6510225,8.548267 7.59375,8.65625 7.4927417,8.850956 7.3880752,9.071951 7.3125,9.28125 7.30454,9.30306 7.288911,9.3218 7.28125,9.34375 7.2494249,9.4357 7.2454455,9.530581 7.21875,9.625 7.1884177,9.731618 7.1483606,9.828031 7.125,9.9375 7.0521214,10.279012 7,10.635705 7,11 l 0,2 0,68 0,2 c 0,2.781848 2.2181517,5 5,5 l 2,0 68,0 2,0 c 2.781848,0 5,-2.218152 5,-5 l 0,-2 0,-68 0,-2 C 89,10.635705 88.94788,10.279012 88.875,9.9375 88.83085,9.730607 88.78662,9.539842 88.71875,9.34375 88.71105,9.3218 88.69545,9.30306 88.6875,9.28125 88.62476,9.107511 88.549117,8.913801 88.46875,8.75 88.42717,8.6672 88.38971,8.580046 88.34375,8.5 88.28915,8.40279 88.216976,8.31165 88.15625,8.21875 88.06214,8.077785 87.951329,7.942755 87.84375,7.8125 87.700576,7.63805 87.540609,7.465502 87.375,7.3125 87.36383,7.3023 87.35502,7.29135 87.34375,7.28125 87.205364,7.155694 87.058659,7.046814 86.90625,6.9375 86.803679,6.86435 86.701932,6.784136 86.59375,6.71875 c -0.0074,-0.0045 -0.02384,0.0044 -0.03125,0 -0.232039,-0.138728 -0.462548,-0.274778 -0.71875,-0.375 0.301527,0.0968 0.596455,0.204138 0.875,0.34375 0.55709,0.279224 1.060053,0.665694 1.5,1.09375 0.219973,0.214028 0.409366,0.441865 0.59375,0.6875 0.184384,0.245635 0.355408,0.507743 0.5,0.78125 0.14012,0.265048 0.276135,0.524729 0.375,0.8125 0.01041,0.03078 0.02133,0.06274 0.03125,0.09375 0.09046,0.278085 0.1388,0.579404 0.1875,0.875 C 89.95865,11.3493 90,11.665279 90,12 l 0,2 0,68 0,2 c 0,3.324 -2.676,6 -6,6 l -72,0 z"
       inkscape:connector-curvature="0"
       id="path3615"
       style="opacity:0.6;fill:url(#radialGradient3619);fill-opacity:1;fill-rule:nonzero;stroke:none" />
    <rect
       width="84"
       height="84"
       rx="6"
       ry="6"
       x="6"
       y="106"
       id="rect2841"
       style="fill:url(#linearGradient2843);fill-opacity:1;fill-rule:nonzero;stroke:none" />
    <rect
       width="76"
       height="76"
       rx="4"
       ry="4"
       x="10"
       y="110"
       id="rect3634"
       style="fill:#ff0000;fill-opacity:1;fill-rule:nonzero;stroke:none" />
    <path
       d="m 14,9 c -2.752703,0 -5,2.247297 -5,5 l 0,68 c 0,2.752703 2.247297,5 5,5 l 68,0 c 2.752703,0 5,-2.247297 5,-5 L 87,14 C 87,11.247297 84.752703,9 82,9 L 14,9 z m 0,2 68,0 c 1.679297,0 3,1.320703 3,3 l 0,68 c 0,1.679297 -1.320703,3 -3,3 l -68,0 c -1.679297,0 -3,-1.320703 -3,-3 l 0,-68 c 0,-1.679297 1.320703,-3 3,-3 z"
       inkscape:connector-curvature="0"
       transform="translate(-110,0)"
       clip-path="url(#clipPath3649)"
       id="rect3647"
       style="font-size:medium;font-style:normal;font-variant:normal;font-weight:normal;font-stretch:normal;text-indent:0;text-align:start;text-decoration:none;line-height:normal;letter-spacing:normal;word-spacing:normal;text-transform:none;direction:ltr;block-progression:tb;writing-mode:lr-tb;text-anchor:start;color:#000000;fill:#000000;fill-opacity:1;stroke:none;stroke-width:2;marker:none;visibility:visible;display:inline;overflow:visible;filter:url(#filter3657);enable-background:accumulate;font-family:Abandoned Bitplane;-inkscape-font-specification:Abandoned Bitplane" />
    <path
       d="m 14.089286,10 c -2.216,0 -4,1.784 -4,4 l 0,68 c 0,2.216 1.784,4 4,4 l 68,0 c 2.216,0 4,-1.784 4,-4 l 0,-68 c 0,-2.216 -1.784,-4 -4,-4 l -68,0 z m 0,2 68,0 c 1.140301,0 2,0.859699 2,2 l 0,68 c 0,1.140301 -0.859699,2 -2,2 l -68,0 c -1.140301,0 -2,-0.859699 -2,-2 l 0,-68 c 0,-1.140301 0.859699,-2 2,-2 z"
       inkscape:connector-curvature="0"
       id="path3709"
       style="opacity:0.16000001;fill:#000000;fill-opacity:1;fill-rule:nonzero;stroke:none" />
    <path
       d="m 14,10 c -2.216,0 -4,1.784 -4,4 l 0,68 c 0,2.216 1.784,4 4,4 l 68,0 c 2.216,0 4,-1.784 4,-4 l 0,-68 c 0,-2.216 -1.784,-4 -4,-4 l -68,0 z m 0,1 68,0 c 1.673848,0 3,1.326152 3,3 l 0,68 c 0,1.673848 -1.326152,3 -3,3 l -68,0 c -1.673848,0 -3,-1.326152 -3,-3 l 0,-68 c 0,-1.673848 1.326152,-3 3,-3 z"
       inkscape:connector-curvature="0"
       id="path3707"
       style="opacity:0.36000001;fill:#000000;fill-opacity:1;fill-rule:nonzero;stroke:none" />
  </g>
  <g
     id="layer5"
     style="display:none"
     transform="translate(0,160)">
    <rect
       width="66"
       height="66"
       rx="12"
       ry="12"
       x="15"
       y="15"
       clip-path="url(#clipPath3613)"
       id="rect3171"
       style="opacity:0.1;fill:url(#linearGradient3613);fill-opacity:1;fill-rule:nonzero;stroke:#ffffff;stroke-width:0.5;stroke-linecap:round;stroke-linejoin:miter;stroke-miterlimit:4;stroke-opacity:1;stroke-dasharray:none;stroke-dashoffset:0;filter:url(#filter3794)" />
  </g>
  <g
     id="g3821"
     transform="translate(-0.97805482,-0.195945)">
    <path
       d="m 149.51502,30.592992 c -6.22272,0.702878 -7.38643,7.659748 -6.74154,12.754115 0.0832,34.654671 -0.16643,69.336903 0.12484,103.974403 0.36346,6.32298 7.39285,7.65711 12.50443,6.99122 8.09103,-0.34357 16.34988,0.73172 24.32435,-0.62421 6.19557,-6.50748 15.11114,5.23051 23.96992,2.49686 21.99984,0.68542 39.38799,-19.12596 41.48798,-39.9988 3.69262,-22.650618 -5.46014,-49.928545 -28.50216,-58.28346 -10.08323,-4.535308 -24.06081,-1.296932 -32.21169,1.916315 -0.3631,-8.141583 0.76014,-16.458426 -0.62422,-24.482396 -3.27374,-7.009844 -12.0025,-4.153588 -18.11628,-4.744047 -5.40521,0 -10.81042,0 -16.21563,0 z m -90.885951,0.37433 c -7.227886,1.214316 -7.402435,9.941045 -10.1046,15.293568 -12.195603,32.521588 -24.391203,65.04321 -36.586806,97.5648 -2.2144171,4.9279 2.764179,11.48882 8.463159,10.48684 9.735107,-0.23051 19.570517,0.47325 29.239527,-0.37433 6.383134,-2.65591 6.224704,-10.80772 8.967383,-16.25887 0.17518,-5.11838 5.68799,-2.67129 9.089525,-3.21669 8.338017,0 16.676029,0 25.014041,0 2.46528,5.7714 3.22782,12.46959 6.86638,17.60291 4.856332,4.05411 11.783302,1.54934 17.590732,2.24718 6.41003,-0.45215 13.19627,0.93567 19.3629,-0.74906 5.13278,-2.02506 5.50225,-8.57687 3.04693,-12.59883 C 126.36732,105.76326 113.1747,70.500192 99.952208,35.337039 96.393488,28.762529 88.021316,31.563374 81.96077,30.967522 c -7.777233,0 -15.554469,0 -23.331701,0 z m 17.727753,56.429186 c 1.331661,3.911774 2.663326,7.823504 3.994987,11.735274 -2.711997,-0.69437 -10.241972,2.060608 -7.005261,-2.89261 1.003424,-2.94754 2.006849,-5.895123 3.010274,-8.842664 z m 117.602418,2.871397 c 12.05686,0.806308 10.41368,18.479645 7.63202,26.833045 -7.34662,13.28277 -21.35785,-2.58711 -17.05576,-13.35029 0.31472,-5.427588 2.02602,-14.563599 9.42374,-13.482755 z M 42.024906,162.80208 c -6.112006,1.58605 -9.466956,7.9815 -14.250893,11.87885 -5.251745,5.69889 -11.54665,10.61752 -16.086037,16.83511 -1.369118,8.89556 -0.27114,18.07856 -0.624217,27.09101 -0.065,7.05538 10.089471,10.24658 13.97281,4.37914 5.912464,-5.91246 11.824932,-11.82492 17.737397,-17.73738 6.843719,6.56309 13.281049,13.82421 20.349463,19.97493 5.480187,3.13835 9.964895,-2.00871 13.310013,-5.69457 4.760122,-4.76011 9.520241,-9.52025 14.280363,-14.28036 6.843723,6.56309 13.281055,13.82421 20.349465,19.97493 5.48019,3.13835 9.9649,-2.00871 13.31001,-5.69457 4.76013,-4.76011 9.52024,-9.52025 14.28037,-14.28036 6.84372,6.56309 13.28105,13.82421 20.34946,19.97493 5.48019,3.13835 9.96489,-2.00871 13.31001,-5.69457 4.76013,-4.76011 9.52024,-9.52025 14.28037,-14.28036 6.84372,6.56309 13.28105,13.82421 20.34946,19.97493 5.47994,3.13811 9.96187,-2.01171 13.32128,-5.68326 6.90819,-7.20604 14.59925,-13.85226 21.01064,-21.40774 2.07269,-6.59037 0.5143,-13.85837 0.99874,-20.7319 0.21993,-5.10683 0.74358,-12.21987 -5.36826,-14.09939 -6.93249,-2.15573 -10.52567,5.56885 -15.08648,9.21883 -3.75182,3.75185 -7.50364,7.50367 -11.25546,11.25548 -6.84372,-6.56309 -13.28105,-13.82425 -20.34947,-19.97493 -5.48018,-3.13835 -9.96489,2.00867 -13.31001,5.69457 -4.76012,4.76011 -9.52024,9.52025 -14.28036,14.28036 -6.84372,-6.56309 -13.28105,-13.82425 -20.34947,-19.97493 -5.48018,-3.13835 -9.96489,2.00867 -13.31001,5.69457 -4.76012,4.76011 -9.52024,9.52025 -14.28036,14.28036 -6.84372,-6.56309 -13.28105,-13.82425 -20.349472,-19.97493 -5.480183,-3.13835 -9.964891,2.00867 -13.310009,5.69457 -4.760123,4.76011 -9.520241,9.52025 -14.280364,14.28036 -6.80985,-6.50196 -13.109756,-13.89844 -20.224619,-19.85009 -1.271864,-0.96491 -2.949367,-1.16678 -4.49436,-1.12359 z"
       inkscape:connector-curvature="0"
       id="path3917"
       style="font-size:8.9971447px;font-style:normal;font-variant:normal;font-weight:bold;font-stretch:normal;text-align:start;line-height:125%;writing-mode:lr-tb;text-anchor:start;opacity:0.1;fill:#000000;fill-opacity:1;stroke:none;display:inline;font-family:Sans;-inkscape-font-specification:Abandoned Bitplane Bold" />
    <path
       d="m 150.13923,34.587979 a 3.754944,3.754944 0 0 0 -3.37077,3.7453 l 0,108.239171 a 3.754944,3.754944 0 0 0 3.7453,3.7453 l 26.2171,0 a 3.754944,3.754944 0 0 0 3.7453,-3.7453 l 0,-2.62171 c 2.06589,1.7474 4.19988,3.30836 6.49186,4.49436 4.91711,2.49019 10.53384,3.7453 16.729,3.7453 10.98421,0 20.50643,-4.32837 27.59038,-12.98371 7.07387,-8.69601 10.61158,-19.95328 10.61168,-33.08348 -1e-4,-13.130128 -3.52397,-24.423193 -10.61168,-33.083485 -7.05138,-8.668002 -16.52499,-13.358157 -27.59038,-13.358237 -6.17389,8e-5 -11.77807,1.183475 -16.729,3.7453 -2.31292,1.17141 -4.42267,2.739163 -6.49186,4.49436 l 0,-29.587869 a 3.754944,3.754944 0 0 0 -3.7453,-3.7453 l -26.2171,0 a 3.754944,3.754944 0 0 0 -0.37453,0 z m -90.885944,0.37433 a 3.754944,3.754944 0 0 0 -3.121084,2.372023 L 15.682963,145.19897 a 3.754944,3.754944 0 0 0 3.495613,5.11858 l 28.08975,0 a 3.754944,3.754944 0 0 0 3.495613,-2.49667 l 6.242167,-17.35322 38.576592,0 5.867632,17.35322 a 3.754944,3.754944 0 0 0 3.49562,2.49687 l 28.46428,0 a 3.754944,3.754944 0 0 0 3.49561,-5.11858 L 96.456598,37.334532 a 3.754944,3.754944 0 0 0 -3.49561,-2.372023 l -33.333172,0 a 3.754944,3.754944 0 0 0 -0.37453,0 z m 17.228379,40.324396 9.36325,27.840065 -19.10103,0 9.73778,-27.840065 z M 193.95924,86.272918 c 4.71724,4e-5 7.4942,1.382106 9.73778,4.49436 2.30817,3.149604 3.74523,8.147134 3.7453,15.355732 -7e-5,7.20863 -1.43715,12.2062 -3.7453,15.35573 -2.24358,3.11233 -5.02056,4.49436 -9.73778,4.49436 -4.71734,0 -7.36183,-1.30461 -9.73778,-4.49436 -2.3275,-3.21361 -3.74533,-8.1984 -3.7453,-15.35573 -3e-5,-7.157258 1.44545,-12.217588 3.7453,-15.355732 2.37064,-3.220438 4.99885,-4.49432 9.73778,-4.49436 z M 42.399436,166.79687 a 3.754944,3.754944 0 0 0 -2.24718,1.12359 l -23.96992,23.96992 a 3.754944,3.754944 0 0 0 -1.12359,2.6219 l 0,23.96992 a 3.754944,3.754944 0 0 0 6.36701,2.62171 l 21.34821,-21.34821 21.348209,21.34821 a 3.754944,3.754944 0 0 0 5.24342,0 l 21.34821,-21.34821 21.348215,21.34821 a 3.754944,3.754944 0 0 0 5.24342,0 l 21.34821,-21.34821 21.34821,21.34821 a 3.754944,3.754944 0 0 0 5.24342,0 l 21.34821,-21.34821 21.34821,21.34821 a 3.754944,3.754944 0 0 0 5.24342,0 l 23.96992,-23.96992 a 3.754944,3.754944 0 0 0 1.12359,-2.62171 l 0,-23.96991 a 3.754944,3.754944 0 0 0 -6.36701,-2.62171 l -21.34821,21.3482 -21.34821,-21.3482 a 3.754944,3.754944 0 0 0 -5.24342,0 l -21.34821,21.3482 -21.34821,-21.3482 a 3.754944,3.754944 0 0 0 -5.24342,0 l -21.34821,21.3482 -21.348212,-21.3482 a 3.754944,3.754944 0 0 0 -5.243423,0 l -21.34821,21.3482 -21.348209,-21.3482 a 3.754944,3.754944 0 0 0 -2.99624,-1.12359 z"
       id="path3913"
       style="font-size:8.9971447px;font-style:normal;font-variant:normal;font-weight:bold;font-stretch:normal;text-align:start;line-height:125%;writing-mode:lr-tb;text-anchor:start;opacity:0.15;fill:#000000;fill-opacity:1;stroke:none;display:inline;font-family:Sans;-inkscape-font-specification:Abandoned Bitplane Bold"
       inkscape:connector-curvature="0" />
    <path
       d="m 150.51376,38.333279 0,108.239171 26.2171,0 0,-11.98496 c 3.59652,4.71959 7.61072,8.22336 11.98496,10.48684 4.37415,2.21522 9.29469,3.37077 14.9812,3.37077 10.0606,0 18.25479,-3.71231 24.71898,-11.61043 6.46401,-7.94627 9.73769,-18.2382 9.73778,-30.71146 -9e-5,-12.473228 -3.27377,-22.813253 -9.73778,-30.711462 -6.46419,-7.946228 -14.65838,-11.98488 -24.71898,-11.98496 -5.68651,8e-5 -10.60705,1.107411 -14.9812,3.37077 -4.37424,2.21542 -8.38844,5.767283 -11.98496,10.48684 l 0,-38.951119 -26.2171,0 z m -90.885944,0.37433 -40.44924,107.864641 28.08975,0 7.11607,-19.85009 43.820012,0 6.741542,19.85009 28.46428,0 -40.449242,-107.864641 -33.333172,0 z m 16.853849,25.09351 14.60667,43.070951 -29.58787,0 14.9812,-43.070951 z M 193.95924,82.527618 c 5.5892,4e-5 9.81782,1.947157 12.73402,5.99248 2.96466,4.045444 4.49429,9.897464 4.49436,17.602912 -7e-5,7.70553 -1.5297,13.55754 -4.49436,17.60291 -2.9162,4.0454 -7.14482,5.99248 -12.73402,5.99248 -5.5893,0 -9.72072,-1.94708 -12.73402,-5.99248 -2.96478,-4.09351 -4.49439,-9.94556 -4.49436,-17.60291 -3e-5,-7.657268 1.52958,-13.557468 4.49436,-17.602912 3.0133,-4.093503 7.14472,-5.99244 12.73402,-5.99248 z m -151.185274,88.014752 -23.96992,23.96991 0,23.96992 23.96992,-23.96992 23.969919,23.96992 23.96992,-23.96992 23.969925,23.96992 23.96992,-23.96992 23.96992,23.96992 23.96992,-23.96992 23.96992,23.96992 23.96992,-23.96992 0,-23.96991 -23.96992,23.96991 -23.96992,-23.96991 -23.96992,23.96991 -23.96992,-23.96991 -23.96992,23.96991 -23.969925,-23.96991 -23.96992,23.96991 -23.969919,-23.96991 z"
       inkscape:connector-curvature="0"
       id="path3907"
       style="font-size:8.9971447px;font-style:normal;font-variant:normal;font-weight:bold;font-stretch:normal;text-align:start;line-height:125%;writing-mode:lr-tb;text-anchor:start;opacity:0.3;fill:#000000;fill-opacity:1;stroke:none;display:inline;font-family:Sans;-inkscape-font-specification:Abandoned Bitplane Bold" />
    <path
       d="m 150.51376,34.338292 0,108.239168 26.2171,0 0,-11.98496 c 3.59652,4.7196 7.61072,8.22336 11.98496,10.48684 4.37415,2.21522 9.29469,3.37077 14.9812,3.37077 10.0606,0 18.25479,-3.7123 24.71898,-11.61043 6.46401,-7.94627 9.73769,-18.23819 9.73778,-30.71146 -9e-5,-12.473226 -3.27377,-22.81325 -9.73778,-30.711458 -6.46419,-7.946229 -14.65838,-11.98488 -24.71898,-11.98496 -5.68651,8e-5 -10.60705,1.10741 -14.9812,3.37077 -4.37424,2.21542 -8.38844,5.767282 -11.98496,10.48684 l 0,-38.95112 -26.2171,0 z m -90.885944,0.37433 -40.44924,107.864638 28.08975,0 7.11607,-19.85009 43.820012,0 6.741542,19.85009 28.46428,0 -40.449242,-107.864638 -33.333172,0 z m 16.853849,25.09351 14.60667,43.070948 -29.58787,0 14.9812,-43.070948 z m 117.477575,18.7265 c 5.5892,4e-5 9.81782,1.947156 12.73402,5.99248 2.96466,4.045443 4.49429,9.89746 4.49436,17.602908 -7e-5,7.70553 -1.5297,13.55755 -4.49436,17.60291 -2.9162,4.0454 -7.14482,5.99248 -12.73402,5.99248 -5.5893,0 -9.72072,-1.94708 -12.73402,-5.99248 -2.96478,-4.0935 -4.49439,-9.94556 -4.49436,-17.60291 -3e-5,-7.657268 1.52958,-13.557465 4.49436,-17.602908 3.0133,-4.093503 7.14472,-5.99244 12.73402,-5.99248 z m -151.185274,88.014748 -23.96992,23.96992 0,23.96992 23.96992,-23.96992 23.969919,23.96992 23.96992,-23.96992 23.969925,23.96992 23.96992,-23.96992 23.96992,23.96992 23.96992,-23.96992 23.96992,23.96992 23.96992,-23.96992 0,-23.96992 -23.96992,23.96992 -23.96992,-23.96992 -23.96992,23.96992 -23.96992,-23.96992 -23.96992,23.96992 -23.969925,-23.96992 -23.96992,23.96992 -23.969919,-23.96992 z"
       inkscape:connector-curvature="0"
       id="path3108"
       style="font-size:8.9971447px;font-style:normal;font-variant:normal;font-weight:bold;font-stretch:normal;text-align:start;line-height:125%;writing-mode:lr-tb;text-anchor:start;fill:url(#linearGradient3829);fill-opacity:1;stroke:none;display:inline;font-family:Sans;-inkscape-font-specification:Abandoned Bitplane Bold" />
    <path
       d="m 150.51376,34.338292 0,3.994987 26.2171,0 0,-3.994987 -26.2171,0 z m -90.885944,0.37433 -40.44924,107.864638 1.49812,0 38.95112,-103.869651 33.333172,0 38.951122,103.869651 1.49812,0 -40.449242,-107.864638 -33.333172,0 z m 144.069204,24.71898 c -5.68651,8e-5 -10.60705,1.10741 -14.9812,3.37077 -4.37424,2.21542 -8.38844,5.767282 -11.98496,10.48684 l 0,3.994986 c 3.59652,-4.719557 7.61072,-8.27142 11.98496,-10.486839 4.37415,-2.26336 9.29469,-3.37069 14.9812,-3.37077 10.0606,8e-5 18.25479,4.038731 24.71898,11.984959 6.11486,7.471584 9.40338,17.133344 9.73778,28.713962 0.0192,-0.66097 0,-1.32374 0,-1.99749 -9e-5,-12.473226 -3.27377,-22.81325 -9.73778,-30.711458 -6.46419,-7.946228 -14.65838,-11.98488 -24.71898,-11.98496 z m -140.823278,43.445478 -1.373277,3.99499 29.58787,0 -1.373276,-3.99499 -26.841317,0 z m 113.981968,1.24843 c -0.0264,0.68231 -0.12485,1.28467 -0.12485,1.9975 -3e-5,7.65735 1.52958,13.5094 4.49436,17.60291 3.0133,4.0454 7.14472,5.99248 12.73402,5.99248 5.5892,0 9.81782,-1.94708 12.73402,-5.99248 2.96466,-4.04537 4.49429,-9.89738 4.49436,-17.60291 -1e-5,-0.70104 -0.0996,-1.3271 -0.12484,-1.9975 -0.25236,6.69824 -1.67458,11.92811 -4.36952,15.60542 -2.9162,4.0454 -7.14482,5.99248 -12.73402,5.99248 -5.5893,0 -9.72072,-1.94708 -12.73402,-5.99248 -2.68878,-3.71242 -4.112,-8.96535 -4.36951,-15.60542 z m -134.081744,62.42187 -23.96992,23.96992 0,3.99498 23.96992,-23.96991 23.969919,23.96991 23.96992,-23.96991 23.969925,23.96991 23.96992,-23.96991 23.96992,23.96991 23.96992,-23.96991 23.96992,23.96991 23.96992,-23.96991 0,-3.99499 -23.96992,23.96992 -23.96992,-23.96992 -23.96992,23.96992 -23.96992,-23.96992 -23.96992,23.96992 -23.969925,-23.96992 -23.96992,23.96992 -23.969919,-23.96992 z"
       inkscape:connector-curvature="0"
       id="path3889"
       style="font-size:8.9971447px;font-style:normal;font-variant:normal;font-weight:bold;font-stretch:normal;text-align:start;line-height:125%;writing-mode:lr-tb;text-anchor:start;opacity:0.75;fill:#ffffff;fill-opacity:1;stroke:none;display:inline;font-family:Sans;-inkscape-font-specification:Abandoned Bitplane Bold" />
    <path
       d="m 76.481665,55.811345 -14.9812,43.070947 1.373277,0 13.607923,-39.07596 13.233394,39.07596 1.373276,0 -14.60667,-43.070947 z m 117.477575,18.7265 c -5.5893,4e-5 -9.72072,1.898977 -12.73402,5.99248 -2.96478,4.045443 -4.49439,9.945639 -4.49436,17.602907 0,0.71283 0.0984,1.31591 0.12485,1.997498 0.25751,-6.646978 1.68073,-11.936583 4.36951,-15.605419 3.0133,-4.093503 7.14472,-5.99244 12.73402,-5.992479 5.5892,3.9e-5 9.81782,1.947156 12.73402,5.992479 2.69494,3.677386 4.11717,8.907221 4.36952,15.605419 0.0252,-0.670398 0.12484,-1.296458 0.12484,-1.997498 -7e-5,-7.705448 -1.5297,-13.557464 -4.49436,-17.602907 -2.9162,-4.045324 -7.14482,-5.99244 -12.73402,-5.99248 z m 44.19454,25.592885 c -0.33438,11.57615 -3.62292,21.19692 -9.73778,28.71396 -6.46419,7.89813 -14.65838,11.61043 -24.71898,11.61043 -5.68651,0 -10.60705,-1.15555 -14.9812,-3.37077 -4.37424,-2.26348 -8.38844,-5.76724 -11.98496,-10.48684 l 0,3.99499 c 3.59652,4.7196 7.61072,8.22336 11.98496,10.48684 4.37415,2.21522 9.29469,3.37077 14.9812,3.37077 10.0606,0 18.25479,-3.7123 24.71898,-11.61043 6.46401,-7.94627 9.73769,-18.23819 9.73778,-30.71146 0,-0.67376 0.0192,-1.33624 0,-1.99749 z m -183.769384,18.60165 -7.11607,19.85009 -26.59163,0 -1.49812,3.99499 28.08975,0 7.11607,-19.85009 43.820012,0 6.741542,19.85009 28.46428,0 -1.49812,-3.99499 -26.96616,0 -6.741542,-19.85009 -43.820012,0 z m 96.129364,19.85009 0,3.99499 26.2171,0 0,-3.99499 -26.2171,0 z m -107.739794,47.93984 -23.96992,23.96992 0,3.99499 23.96992,-23.96992 23.969919,23.96992 23.96992,-23.96992 23.969925,23.96992 23.96992,-23.96992 23.96992,23.96992 23.96992,-23.96992 23.96992,23.96992 23.96992,-23.96992 0,-3.99499 -23.96992,23.96992 -23.96992,-23.96992 -23.96992,23.96992 -23.96992,-23.96992 -23.96992,23.96992 -23.969925,-23.96992 -23.96992,23.96992 -23.969919,-23.96992 z"
       inkscape:connector-curvature="0"
       id="path3898"
       style="font-size:8.9971447px;font-style:normal;font-variant:normal;font-weight:bold;font-stretch:normal;text-align:start;line-height:125%;writing-mode:lr-tb;text-anchor:start;opacity:0.15;fill:#000000;fill-opacity:1;stroke:none;display:inline;font-family:Sans;-inkscape-font-specification:Abandoned Bitplane Bold" />
  </g>
</svg>
