<?xml version="1.0" encoding="UTF-8" standalone="no"?>
<!-- Created with Inkscape (http://www.inkscape.org/) -->

<svg
   xmlns:dc="http://purl.org/dc/elements/1.1/"
   xmlns:cc="http://creativecommons.org/ns#"
   xmlns:rdf="http://www.w3.org/1999/02/22-rdf-syntax-ns#"
   xmlns:svg="http://www.w3.org/2000/svg"
   xmlns="http://www.w3.org/2000/svg"
   xmlns:xlink="http://www.w3.org/1999/xlink"
   xmlns:sodipodi="http://sodipodi.sourceforge.net/DTD/sodipodi-0.dtd"
   xmlns:inkscape="http://www.inkscape.org/namespaces/inkscape"
   width="256"
   height="256"
   id="svg3840"
   version="1.1"
   inkscape:version="0.48.3.1 r9886"
   sodipodi:docname="trash-empty.svg">
  <defs
     id="defs3842">
    <linearGradient
       id="linearGradient3820"
       gradientUnits="userSpaceOnUse"
       x1="293.64261"
       y1="474.2822"
       x2="216.92349"
       y2="39.186699">
      <stop
         offset="0"
         style="stop-color:#ea0000;stop-opacity:1;"
         id="stop3822" />
      <stop
         id="stop3824"
         style="stop-color:#ff0600;stop-opacity:1;"
         offset="0.46522492" />
      <stop
         offset="1"
         style="stop-color:#ea0000;stop-opacity:1;"
         id="stop3826" />
    </linearGradient>
    <linearGradient
       id="front_1_"
       gradientUnits="userSpaceOnUse"
       x1="293.64261"
       y1="474.2822"
       x2="216.92349"
       y2="39.186699">
      <stop
         offset="0"
         style="stop-color:#b20011;stop-opacity:1;"
         id="stop3587" />
      <stop
         offset="1"
         style="stop-color:#ff0000;stop-opacity:1;"
         id="stop3589" />
    </linearGradient>
    <linearGradient
       inkscape:collect="always"
       xlink:href="#front_1_"
       id="linearGradient3022"
       gradientUnits="userSpaceOnUse"
       gradientTransform="matrix(0.91043768,0,0,0.94238259,9.6394772,818.49875)"
       spreadMethod="reflect"
       x1="65.04026"
       y1="151.18024"
       x2="183.9404"
       y2="157.60541" />
    <linearGradient
       inkscape:collect="always"
       xlink:href="#linearGradient3820"
       id="linearGradient3043"
       gradientUnits="userSpaceOnUse"
       gradientTransform="matrix(0.91043768,0,0,0.94238259,9.6507148,818.50938)"
       spreadMethod="reflect"
       x1="72.714386"
       y1="26.372326"
       x2="329.59808"
       y2="46.06728" />
    <linearGradient
       inkscape:collect="always"
       xlink:href="#front_1_"
       id="linearGradient3050"
       gradientUnits="userSpaceOnUse"
       gradientTransform="matrix(0.91043768,0,0,0.94238259,9.6326725,-2.3723467)"
       spreadMethod="reflect"
       x1="67.836777"
       y1="1020.9321"
       x2="182.99518"
       y2="1029.2189" />
  </defs>
  <sodipodi:namedview
     id="base"
     pagecolor="#ffffff"
     bordercolor="#666666"
     borderopacity="1.0"
     inkscape:pageopacity="0.0"
     inkscape:pageshadow="2"
     inkscape:zoom="1.4921875"
     inkscape:cx="116.27225"
     inkscape:cy="128"
     inkscape:document-units="px"
     inkscape:current-layer="layer1"
     showgrid="false"
     inkscape:window-width="1024"
     inkscape:window-height="552"
     inkscape:window-x="-4"
     inkscape:window-y="25"
     inkscape:window-maximized="1"
     inkscape:snap-bbox="true"
     inkscape:bbox-paths="true"
     inkscape:bbox-nodes="true"
     inkscape:snap-bbox-edge-midpoints="true"
     inkscape:snap-bbox-midpoints="true"
     inkscape:object-paths="true"
     inkscape:snap-intersection-paths="true"
     inkscape:object-nodes="true"
     inkscape:snap-smooth-nodes="true"
     inkscape:snap-midpoints="true"
     inkscape:snap-object-midpoints="true"
     inkscape:snap-center="true"
     inkscape:snap-global="false" />
  <metadata
     id="metadata3845">
    <rdf:RDF>
      <cc:Work
         rdf:about="">
        <dc:format>image/svg+xml</dc:format>
        <dc:type
           rdf:resource="http://purl.org/dc/dcmitype/StillImage" />
        <dc:title></dc:title>
      </cc:Work>
    </rdf:RDF>
  </metadata>
  <g
     inkscape:label="Layer 1"
     inkscape:groupmode="layer"
     id="layer1"
     transform="translate(0,-796.36218)">
    <path
       style="fill:none;fill-opacity:1;fill-rule:evenodd;stroke:#000000;stroke-opacity:1;stroke-width:18;stroke-miterlimit:4;stroke-dasharray:none;stroke-linejoin:round;opacity:0.05"
       d="M 128 47 C 83.812063 47 48 54.68227 48 64.1875 C 48 64.63306 48.095466 65.09421 48.25 65.53125 C 48.19437 65.37707 48.099094 65.21777 48.0625 65.0625 C 48.361776 69.87691 62.591867 226.5141 62.59375 226.5625 C 63.224761 242.7953 90.752104 245.7247 128.6875 247 C 175.04154 246.4978 192.40567 238.2878 193.0625 227 C 193.115 226.7783 207.77292 66.26609 207.9375 64.8125 C 207.93756 64.81193 207.93743 64.7505 207.9375 64.75 C 207.9641 64.56783 208 64.37106 208 64.1875 C 208 54.68227 172.18791 47 128 47 z "
       transform="translate(0,796.36218)"
       id="path3860" />
    <path
       id="path3858"
       transform="translate(0,796.36218)"
       d="M 128 47 C 83.812063 47 48 54.68227 48 64.1875 C 48 64.63306 48.095466 65.09421 48.25 65.53125 C 48.19437 65.37707 48.099094 65.21777 48.0625 65.0625 C 48.361776 69.87691 62.591867 226.5141 62.59375 226.5625 C 63.224761 242.7953 90.752104 245.7247 128.6875 247 C 175.04154 246.4978 192.40567 238.2878 193.0625 227 C 193.115 226.7783 207.77292 66.26609 207.9375 64.8125 C 207.93756 64.81193 207.93743 64.7505 207.9375 64.75 C 207.9641 64.56783 208 64.37106 208 64.1875 C 208 54.68227 172.18791 47 128 47 z "
       style="fill:none;fill-opacity:1;fill-rule:evenodd;stroke:#000000;stroke-opacity:1;stroke-width:12;stroke-miterlimit:4;stroke-dasharray:none;stroke-linejoin:round;opacity:0.1" />
    <path
       style="fill:none;fill-opacity:1;fill-rule:evenodd;stroke:#000000;stroke-opacity:1;stroke-width:6;stroke-miterlimit:4;stroke-dasharray:none;stroke-linejoin:round;opacity:0.15"
       d="M 128 47 C 83.812063 47 48 54.68227 48 64.1875 C 48 64.63306 48.095466 65.09421 48.25 65.53125 C 48.19437 65.37707 48.099094 65.21777 48.0625 65.0625 C 48.361776 69.87691 62.591867 226.5141 62.59375 226.5625 C 63.224761 242.7953 90.752104 245.7247 128.6875 247 C 175.04154 246.4978 192.40567 238.2878 193.0625 227 C 193.115 226.7783 207.77292 66.26609 207.9375 64.8125 C 207.93756 64.81193 207.93743 64.7505 207.9375 64.75 C 207.9641 64.56783 208 64.37106 208 64.1875 C 208 54.68227 172.18791 47 128 47 z "
       transform="translate(0,796.36218)"
       id="path3839" />
    <path
       style="fill:url(#linearGradient3022);fill-opacity:1;fill-rule:evenodd;stroke:none"
       d="M 127.99999,843.3622 C 83.812053,843.3622 48,851.0578 48,860.56303 c 0,0.44556 0.08076,0.88363 0.235294,1.32067 0.05148,0.14567 0.108198,0.30632 0.17647,0.45095 0.273083,0.57856 0.673111,1.14705 1.205883,1.7072 0.266381,0.28008 0.553563,0.53034 0.882353,0.80528 -0.322457,-0.26895 -0.619605,-0.53144 -0.882353,-0.80528 -0.53104,-0.55347 -0.928443,-1.13585 -1.205883,-1.7072 -0.07397,-0.15227 -0.12112,-0.29754 -0.17647,-0.45095 -0.05563,-0.15418 -0.139877,-0.29569 -0.176471,-0.45096 0.299276,4.81441 14.527528,161.45896 14.529411,161.50736 0.631011,16.2328 28.15283,19.1468 66.088226,20.4221 46.35404,-0.5022 63.72552,-8.7155 64.38235,-20.0033 0.0525,-0.2217 14.71777,-160.73026 14.88235,-162.18385 6e-5,-5.7e-4 -7e-5,-0.0639 0,-0.0644 0.0266,-0.18217 0.0588,-0.36403 0.0588,-0.54759 0,-9.50523 -35.81208,-17.20083 -79.99999,-17.20083 z m -31.147054,33.04879 c 2.392827,0.21768 4.847784,0.41222 7.352944,0.5798 2.50514,0.16758 5.04297,0.30415 7.64706,0.41875 -2.60185,-0.11493 -5.14376,-0.25084 -7.64706,-0.41875 -2.50258,-0.16786 -4.962232,-0.36189 -7.352944,-0.5798 z m 62.264694,0 c -2.06864,0.18863 -4.19956,0.36413 -6.35294,0.51538 2.16119,-0.15129 4.27697,-0.32652 6.35294,-0.51538 z m -15,0.99855 c -5.21374,0.2303 -10.58712,0.35432 -16.11764,0.35432 -5.3509,0 -10.58939,-0.10611 -15.64705,-0.32211 5.05525,0.21533 10.29759,0.32211 15.64705,0.32211 5.52348,0 10.90948,-0.12511 16.11764,-0.35432 z"
       id="path3791"
       inkscape:connector-curvature="0" />
    <path
       style="fill:url(#linearGradient3050);fill-opacity:1;fill-rule:evenodd;stroke:none"
       d="m 207.94116,861.17512 c -1.15058,6.85897 -20.94664,12.70484 -48.82353,15.23594 -0.33666,0.0306 -0.69061,0.0668 -1.02941,0.0966 -1.7492,0.15423 -3.51938,0.29203 -5.32353,0.41875 -7.80187,0.54557 -16.11522,0.83749 -24.7647,0.83749 -42.116624,0 -76.622155,-6.99452 -79.764696,-15.88016 -0.05563,-0.15418 -0.139877,-0.29569 -0.176471,-0.45096 0.299276,4.81441 14.527528,161.45902 14.529411,161.50742 0.631011,16.2328 28.152824,19.1467 66.088226,20.422 46.35404,-0.5022 63.72552,-8.7155 64.38235,-20.0033 0.0525,-0.2217 14.71777,-160.73022 14.88235,-162.18381 z"
       id="path3037"
       inkscape:connector-curvature="0" />
    <path
       id="path3041"
       d="M 127.99999,843.3622 C 83.812053,843.3622 48,851.0578 48,860.56303 c 0,9.50523 35.812053,17.20083 79.99999,17.20083 44.18791,0 79.99999,-7.6956 79.99999,-17.20083 0,-9.50523 -35.81208,-17.20083 -79.99999,-17.20083 z m 0,4.70285 c 39.1597,0 70.91176,5.59507 70.91176,12.49798 0,6.9029 -31.75206,12.49799 -70.91176,12.49799 -39.159712,0 -70.911755,-5.59509 -70.911755,-12.49799 0,-6.90291 31.752033,-12.49798 70.911755,-12.49798 z"
       style="fill:url(#linearGradient3043);fill-opacity:1;fill-rule:evenodd;stroke:none;stroke-opacity:1"
       inkscape:connector-curvature="0" />
    <path
       inkscape:connector-curvature="0"
       d="m 131.18286,989.86828 10.13608,-18.75897 0.0482,6.8606 21.33233,-0.0496 c 3.81177,-0.4168 7.1537,-2.01525 9.57384,-5.02119 -7.72403,16.29987 -9.94876,27.83328 -25.97467,27.84028 l -4.9315,0 -0.0482,7.6228 -10.13608,-18.49382 z m -24.41649,11.03672 c -11.405099,-3.57809 -16.726333,-18.07333 -21.942736,-28.28769 2.390887,2.24252 6.865159,5.4525 9.463888,5.45277 4.984202,0.012 9.968418,0.0217 14.952618,0.0324 l 15.09968,0 -0.0482,22.73622 -0.0482,0.067 -17.47708,0 z M 84,966.67775 l 7.289203,-15.33724 -7.10811,-4.02792 21.300187,0 10.29671,19.28926 -6.98298,-4.31342 c -2.23973,4.87915 -4.47946,9.75832 -6.71919,14.63748 -2.57763,-0.0465 -5.155267,-0.0931 -7.732904,-0.13952 C 89.316714,975.57749 85.820021,971.49694 84,966.67775 z m 71.18173,10.01616 -9.41322,-17.89725 19.01921,-11.88179 9.20434,19.0241 c 0.2787,4.55278 -6.84664,10.88826 -11.26918,10.83899 l -7.54115,-0.0841 z M 99.505664,934.81762 109.2228,919.79397 c 9.42471,-3.62116 14.88411,4.19637 18.32971,9.12418 l -9.15617,18.12926 -18.890676,-12.22979 z m 36.817526,8.0869 c -1.95442,-4.75328 -4.56573,-10.19039 -7.83118,-14.91782 -2.92351,-4.23241 -6.45588,-7.92512 -9.13187,-9.57491 l 24.57715,-0.0496 c 4.41377,0.40877 6.55838,3.06332 8.89916,6.69488 l 3.53395,6.41318 5.46161,-3.59599 -10.28062,18.89156 -22.16764,0.0496 6.93944,-3.9109 z"
       style="fill:#ffffff;fill-opacity:1"
       id="path11522" />
    <path
       style="fill:#000000;fill-opacity:1;fill-rule:evenodd;stroke:none;opacity:0.7"
       d="M 48.15625 63.15625 C 48.15017 63.178095 48.130701 63.196883 48.125 63.21875 C 48.168193 63.323377 48.212913 63.428463 48.25 63.53125 C 48.206265 63.407559 48.189698 63.282903 48.15625 63.15625 z M 207.90625 63.3125 C 207.6536 65.733706 193.11484 224.77898 193.0625 225 C 192.40567 236.2878 175.04154 244.4978 128.6875 245 C 90.752104 243.7247 63.224761 240.7953 62.59375 224.5625 C 62.591872 224.51423 48.463913 68.926682 48.09375 63.34375 C 48.029367 63.626916 48 63.900858 48 64.1875 C 48 64.63306 48.095466 65.09421 48.25 65.53125 C 48.19437 65.37707 48.099094 65.21777 48.0625 65.0625 C 48.361776 69.87691 62.591867 226.5141 62.59375 226.5625 C 63.224761 242.7953 90.752104 245.7247 128.6875 247 C 175.04154 246.4978 192.40567 238.2878 193.0625 227 C 193.115 226.7783 207.77292 66.26609 207.9375 64.8125 C 207.93756 64.81193 207.93743 64.7505 207.9375 64.75 C 207.9641 64.56783 208 64.37106 208 64.1875 C 208 63.890462 207.97536 63.605799 207.90625 63.3125 z "
       transform="translate(0,796.36218)"
       id="path3851" />
    <path
       id="path3856"
       d="m 48.15625,861.51843 c -0.0061,0.0219 -0.02555,0.0406 -0.03125,0.0625 0.04319,0.10463 0.08791,0.20971 0.125,0.3125 -0.04373,-0.12369 -0.0603,-0.24835 -0.09375,-0.375 z m 159.75,0.15625 c -0.25265,2.42121 -14.79141,161.46652 -14.84375,161.68752 -0.65683,11.2878 -18.02096,19.4978 -64.375,20 -37.935396,-1.2753 -65.462739,-4.2047 -66.09375,-20.4375 -0.0019,-0.048 -14.129837,-155.63584 -14.5,-161.21877 C 48.029367,861.9891 48,862.26304 48,862.54968 c 0,0.44556 0.09547,0.90671 0.25,1.34375 -0.05563,-0.15418 -0.150906,-0.31348 -0.1875,-0.46875 0.299276,4.81441 14.529367,161.45162 14.53125,161.50002 0.631011,16.2328 28.158354,19.1622 66.09375,20.4375 46.35404,-0.5022 63.71817,-8.7122 64.375,-20 0.0525,-0.2217 14.71042,-160.73393 14.875,-162.18752 6e-5,-5.7e-4 -7e-5,-0.062 0,-0.0625 0.0266,-0.18217 0.0625,-0.37894 0.0625,-0.5625 0,-0.29704 -0.0246,-0.5817 -0.0937,-0.875 z"
       style="opacity:0.2;fill:#000000;fill-opacity:1;fill-rule:evenodd;stroke:none"
       inkscape:connector-curvature="0" />
  </g>
</svg>
