<?xml version="1.0" encoding="UTF-8" standalone="no"?>
<!-- Created with Inkscape (http://www.inkscape.org/) -->

<svg
   xmlns:dc="http://purl.org/dc/elements/1.1/"
   xmlns:cc="http://creativecommons.org/ns#"
   xmlns:rdf="http://www.w3.org/1999/02/22-rdf-syntax-ns#"
   xmlns:svg="http://www.w3.org/2000/svg"
   xmlns="http://www.w3.org/2000/svg"
   xmlns:xlink="http://www.w3.org/1999/xlink"
   xmlns:sodipodi="http://sodipodi.sourceforge.net/DTD/sodipodi-0.dtd"
   xmlns:inkscape="http://www.inkscape.org/namespaces/inkscape"
   version="1.0"
   width="256"
   height="256"
   id="svg2408"
   inkscape:version="0.48.3.1 r9886"
   sodipodi:docname="gtk-fullscreen.svg">
  <sodipodi:namedview
     pagecolor="#ffffff"
     bordercolor="#666666"
     borderopacity="1"
     objecttolerance="10"
     gridtolerance="10"
     guidetolerance="10"
     inkscape:pageopacity="0"
     inkscape:pageshadow="2"
     inkscape:window-width="1024"
     inkscape:window-height="572"
     id="namedview73"
     showgrid="false"
     inkscape:zoom="1.6367188"
     inkscape:cx="117.30788"
     inkscape:cy="128"
     inkscape:window-x="0"
     inkscape:window-y="28"
     inkscape:window-maximized="1"
     inkscape:current-layer="svg2408" />
  <defs
     id="defs2410">
    <linearGradient
       id="linearGradient3637">
      <stop
         id="stop3639"
         style="stop-color:#f0f0f0;stop-opacity:1"
         offset="0" />
      <stop
         id="stop3641"
         style="stop-color:#dcdcdc;stop-opacity:1"
         offset="1" />
    </linearGradient>
    <linearGradient
       x1="45.447727"
       y1="92.539597"
       x2="45.447727"
       y2="7.0165396"
       id="ButtonShadow"
       gradientUnits="userSpaceOnUse"
       gradientTransform="scale(1.0058652,0.994169)">
      <stop
         id="stop3750"
         style="stop-color:#000000;stop-opacity:1"
         offset="0" />
      <stop
         id="stop3752"
         style="stop-color:#000000;stop-opacity:0.58823532"
         offset="1" />
    </linearGradient>
    <linearGradient
       id="linearGradient3737">
      <stop
         id="stop3739"
         style="stop-color:#ffffff;stop-opacity:1"
         offset="0" />
      <stop
         id="stop3741"
         style="stop-color:#ffffff;stop-opacity:0"
         offset="1" />
    </linearGradient>
    <filter
       color-interpolation-filters="sRGB"
       id="filter3174">
      <feGaussianBlur
         id="feGaussianBlur3176"
         stdDeviation="1.71" />
    </filter>
    <linearGradient
       x1="36.357143"
       y1="6"
       x2="36.357143"
       y2="63.893143"
       id="linearGradient3188"
       xlink:href="#linearGradient3737"
       gradientUnits="userSpaceOnUse" />
    <filter
       x="-0.192"
       y="-0.192"
       width="1.3839999"
       height="1.3839999"
       color-interpolation-filters="sRGB"
       id="filter3794">
      <feGaussianBlur
         id="feGaussianBlur3796"
         stdDeviation="5.28" />
    </filter>
    <linearGradient
       x1="48"
       y1="20.220806"
       x2="48"
       y2="138.66119"
       id="linearGradient3613"
       xlink:href="#linearGradient3737"
       gradientUnits="userSpaceOnUse" />
    <radialGradient
       cx="48"
       cy="90.171875"
       r="42"
       fx="48"
       fy="90.171875"
       id="radialGradient3619"
       xlink:href="#linearGradient3737"
       gradientUnits="userSpaceOnUse"
       gradientTransform="matrix(1.1573129,0,0,0.99590774,-7.5510206,0.19713193)" />
    <clipPath
       id="clipPath3613">
      <rect
         width="84"
         height="84"
         rx="6"
         ry="6"
         x="6"
         y="6"
         id="rect3615"
         style="fill:#ffffff;fill-opacity:1;fill-rule:nonzero;stroke:none" />
    </clipPath>
    <clipPath
       id="clipPath3625">
      <path
         d="M 0,0 0,96 96,96 96,0 0,0 z m 12,6 72,0 c 3.324,0 6,2.676 6,6 l 0,72 c 0,3.324 -2.676,6 -6,6 L 12,90 C 8.676,90 6,87.324 6,84 L 6,12 C 6,8.676 8.676,6 12,6 z"
         inkscape:connector-curvature="0"
         id="path3627"
         style="fill:#ffffff;fill-opacity:1;stroke:none" />
    </clipPath>
    <linearGradient
       x1="44.512066"
       y1="6"
       x2="44.512066"
       y2="90.015434"
       id="linearGradient3643"
       xlink:href="#linearGradient3637"
       gradientUnits="userSpaceOnUse" />
    <linearGradient
       id="linearGradient4081">
      <stop
         id="stop4083"
         style="stop-color:#000000;stop-opacity:1;"
         offset="0" />
      <stop
         id="stop4085"
         style="stop-color:#5a5a5a;stop-opacity:1;"
         offset="1" />
    </linearGradient>
    <linearGradient
       inkscape:collect="always"
       xlink:href="#linearGradient4081"
       id="linearGradient5090"
       gradientUnits="userSpaceOnUse"
       gradientTransform="matrix(3.6716127,0,0,3.671173,-47.443107,-53.011556)"
       x1="53.464466"
       y1="78"
       x2="53.464466"
       y2="18.191624" />
  </defs>
  <metadata
     id="metadata2413">
    <rdf:RDF>
      <cc:Work
         rdf:about="">
        <dc:format>image/svg+xml</dc:format>
        <dc:type
           rdf:resource="http://purl.org/dc/dcmitype/StillImage" />
        <dc:title></dc:title>
      </cc:Work>
    </rdf:RDF>
  </metadata>
  <g
     id="layer2"
     style="display:none"
     transform="translate(0,160)">
    <rect
       width="86"
       height="85"
       rx="6"
       ry="6"
       x="5"
       y="7"
       clip-path="url(#clipPath3625)"
       id="rect3745"
       style="opacity:0.9;fill:url(#ButtonShadow);fill-opacity:1;fill-rule:nonzero;stroke:none;filter:url(#filter3174)" />
  </g>
  <g
     id="layer1"
     style="display:none"
     transform="translate(0,160)">
    <rect
       width="76"
       height="76"
       rx="5.4285707"
       ry="5.4285707"
       x="10"
       y="10"
       id="rect2419"
       style="opacity:0.7;fill:#000000;fill-opacity:1;fill-rule:nonzero;stroke:none" />
    <path
       d="m 14,10 c -2.216,0 -4,1.784 -4,4 l 0,68 c 0,2.216 1.784,4 4,4 l 68,0 c 2.216,0 4,-1.784 4,-4 l 0,-68 c 0,-2.216 -1.784,-4 -4,-4 l -68,0 z m 0,3.0625 68,0 c 0.578769,0 0.9375,0.358731 0.9375,0.9375 l 0,68 c 0,0.578769 -0.358731,0.9375 -0.9375,0.9375 l -68,0 c -0.578769,0 -0.9375,-0.358731 -0.9375,-0.9375 l 0,-68 c 0,-0.578769 0.358731,-0.9375 0.9375,-0.9375 z"
       inkscape:connector-curvature="0"
       id="rect3726"
       style="opacity:0.07999998;fill:#000000;fill-opacity:1;fill-rule:nonzero;stroke:none" />
    <path
       d="M 12,6 C 8.676,6 6,8.676 6,12 l 0,72 c 0,3.324 2.676,6 6,6 l 72,0 c 3.324,0 6,-2.676 6,-6 L 90,12 C 90,8.676 87.324,6 84,6 L 12,6 z m 2,4 68,0 c 2.216,0 4,1.784 4,4 l 0,68 c 0,2.216 -1.784,4 -4,4 l -68,0 c -2.216,0 -4,-1.784 -4,-4 l 0,-68 c 0,-2.216 1.784,-4 4,-4 z"
       inkscape:connector-curvature="0"
       id="rect3629"
       style="fill:url(#linearGradient3643);fill-opacity:1;fill-rule:nonzero;stroke:none" />
    <path
       d="M 12,6 C 8.676,6 6,8.676 6,12 l 0,2 0,68 0,2 c 0,0.334721 0.04135,0.6507 0.09375,0.96875 0.0487,0.295596 0.09704,0.596915 0.1875,0.875 0.00988,0.03038 0.020892,0.0636 0.03125,0.09375 0.098865,0.287771 0.2348802,0.547452 0.375,0.8125 0.1445918,0.273507 0.3156161,0.535615 0.5,0.78125 0.1843839,0.245635 0.3737765,0.473472 0.59375,0.6875 0.439947,0.428056 0.94291,0.814526 1.5,1.09375 0.278545,0.139612 0.5734731,0.246947 0.875,0.34375 -0.2562018,-0.100222 -0.4867109,-0.236272 -0.71875,-0.375 -0.00741,-0.0044 -0.023866,0.0045 -0.03125,0 -0.031933,-0.0193 -0.062293,-0.04251 -0.09375,-0.0625 -0.120395,-0.0767 -0.2310226,-0.163513 -0.34375,-0.25 -0.1061728,-0.0808 -0.2132809,-0.161112 -0.3125,-0.25 C 8.4783201,88.557317 8.3087904,88.373362 8.15625,88.1875 8.0486711,88.057245 7.9378561,87.922215 7.84375,87.78125 7.818661,87.74287 7.805304,87.69538 7.78125,87.65625 7.716487,87.553218 7.6510225,87.451733 7.59375,87.34375 7.4927417,87.149044 7.3880752,86.928049 7.3125,86.71875 7.30454,86.69694 7.288911,86.6782 7.28125,86.65625 7.2494249,86.5643 7.2454455,86.469419 7.21875,86.375 7.1884177,86.268382 7.1483606,86.171969 7.125,86.0625 7.0521214,85.720988 7,85.364295 7,85 L 7,83 7,15 7,13 C 7,10.218152 9.2181517,8 12,8 l 2,0 68,0 2,0 c 2.781848,0 5,2.218152 5,5 l 0,2 0,68 0,2 c 0,0.364295 -0.05212,0.720988 -0.125,1.0625 -0.04415,0.206893 -0.08838,0.397658 -0.15625,0.59375 -0.0077,0.02195 -0.0233,0.04069 -0.03125,0.0625 -0.06274,0.173739 -0.138383,0.367449 -0.21875,0.53125 -0.04158,0.0828 -0.07904,0.169954 -0.125,0.25 -0.0546,0.09721 -0.126774,0.18835 -0.1875,0.28125 -0.09411,0.140965 -0.204921,0.275995 -0.3125,0.40625 -0.143174,0.17445 -0.303141,0.346998 -0.46875,0.5 -0.01117,0.0102 -0.01998,0.02115 -0.03125,0.03125 -0.138386,0.125556 -0.285091,0.234436 -0.4375,0.34375 -0.102571,0.07315 -0.204318,0.153364 -0.3125,0.21875 -0.0074,0.0045 -0.02384,-0.0044 -0.03125,0 -0.232039,0.138728 -0.462548,0.274778 -0.71875,0.375 0.301527,-0.0968 0.596455,-0.204138 0.875,-0.34375 0.55709,-0.279224 1.060053,-0.665694 1.5,-1.09375 0.219973,-0.214028 0.409366,-0.441865 0.59375,-0.6875 0.184384,-0.245635 0.355408,-0.507743 0.5,-0.78125 0.14012,-0.265048 0.276135,-0.524729 0.375,-0.8125 0.01041,-0.03078 0.02133,-0.06274 0.03125,-0.09375 0.09046,-0.278085 0.1388,-0.579404 0.1875,-0.875 C 89.95865,84.6507 90,84.334721 90,84 l 0,-2 0,-68 0,-2 C 90,8.676 87.324,6 84,6 L 12,6 z"
       inkscape:connector-curvature="0"
       id="rect3728"
       style="fill:url(#linearGradient3188);fill-opacity:1;fill-rule:nonzero;stroke:none" />
    <path
       d="M 12,90 C 8.676,90 6,87.324 6,84 L 6,82 6,14 6,12 c 0,-0.334721 0.04135,-0.6507 0.09375,-0.96875 0.0487,-0.295596 0.09704,-0.596915 0.1875,-0.875 C 6.29113,10.12587 6.302142,10.09265 6.3125,10.0625 6.411365,9.774729 6.5473802,9.515048 6.6875,9.25 6.8320918,8.976493 7.0031161,8.714385 7.1875,8.46875 7.3718839,8.223115 7.5612765,7.995278 7.78125,7.78125 8.221197,7.353194 8.72416,6.966724 9.28125,6.6875 9.559795,6.547888 9.8547231,6.440553 10.15625,6.34375 9.9000482,6.443972 9.6695391,6.580022 9.4375,6.71875 c -0.00741,0.0044 -0.023866,-0.0045 -0.03125,0 -0.031933,0.0193 -0.062293,0.04251 -0.09375,0.0625 -0.120395,0.0767 -0.2310226,0.163513 -0.34375,0.25 -0.1061728,0.0808 -0.2132809,0.161112 -0.3125,0.25 C 8.4783201,7.442683 8.3087904,7.626638 8.15625,7.8125 8.0486711,7.942755 7.9378561,8.077785 7.84375,8.21875 7.818661,8.25713 7.805304,8.30462 7.78125,8.34375 7.716487,8.446782 7.6510225,8.548267 7.59375,8.65625 7.4927417,8.850956 7.3880752,9.071951 7.3125,9.28125 7.30454,9.30306 7.288911,9.3218 7.28125,9.34375 7.2494249,9.4357 7.2454455,9.530581 7.21875,9.625 7.1884177,9.731618 7.1483606,9.828031 7.125,9.9375 7.0521214,10.279012 7,10.635705 7,11 l 0,2 0,68 0,2 c 0,2.781848 2.2181517,5 5,5 l 2,0 68,0 2,0 c 2.781848,0 5,-2.218152 5,-5 l 0,-2 0,-68 0,-2 C 89,10.635705 88.94788,10.279012 88.875,9.9375 88.83085,9.730607 88.78662,9.539842 88.71875,9.34375 88.71105,9.3218 88.69545,9.30306 88.6875,9.28125 88.62476,9.107511 88.549117,8.913801 88.46875,8.75 88.42717,8.6672 88.38971,8.580046 88.34375,8.5 88.28915,8.40279 88.216976,8.31165 88.15625,8.21875 88.06214,8.077785 87.951329,7.942755 87.84375,7.8125 87.700576,7.63805 87.540609,7.465502 87.375,7.3125 87.36383,7.3023 87.35502,7.29135 87.34375,7.28125 87.205364,7.155694 87.058659,7.046814 86.90625,6.9375 86.803679,6.86435 86.701932,6.784136 86.59375,6.71875 c -0.0074,-0.0045 -0.02384,0.0044 -0.03125,0 -0.232039,-0.138728 -0.462548,-0.274778 -0.71875,-0.375 0.301527,0.0968 0.596455,0.204138 0.875,0.34375 0.55709,0.279224 1.060053,0.665694 1.5,1.09375 0.219973,0.214028 0.409366,0.441865 0.59375,0.6875 0.184384,0.245635 0.355408,0.507743 0.5,0.78125 0.14012,0.265048 0.276135,0.524729 0.375,0.8125 0.01041,0.03078 0.02133,0.06274 0.03125,0.09375 0.09046,0.278085 0.1388,0.579404 0.1875,0.875 C 89.95865,11.3493 90,11.665279 90,12 l 0,2 0,68 0,2 c 0,3.324 -2.676,6 -6,6 l -72,0 z"
       inkscape:connector-curvature="0"
       id="path3615"
       style="opacity:0.6;fill:url(#radialGradient3619);fill-opacity:1;fill-rule:nonzero;stroke:none" />
    <path
       d="m 14.089286,10 c -2.216,0 -4,1.784 -4,4 l 0,68 c 0,2.216 1.784,4 4,4 l 68,0 c 2.216,0 4,-1.784 4,-4 l 0,-68 c 0,-2.216 -1.784,-4 -4,-4 l -68,0 z m 0,2 68,0 c 1.140301,0 2,0.859699 2,2 l 0,68 c 0,1.140301 -0.859699,2 -2,2 l -68,0 c -1.140301,0 -2,-0.859699 -2,-2 l 0,-68 c 0,-1.140301 0.859699,-2 2,-2 z"
       inkscape:connector-curvature="0"
       id="path3709"
       style="opacity:0.16000001;fill:#000000;fill-opacity:1;fill-rule:nonzero;stroke:none" />
    <path
       d="m 14,10 c -2.216,0 -4,1.784 -4,4 l 0,68 c 0,2.216 1.784,4 4,4 l 68,0 c 2.216,0 4,-1.784 4,-4 l 0,-68 c 0,-2.216 -1.784,-4 -4,-4 l -68,0 z m 0,1 68,0 c 1.673848,0 3,1.326152 3,3 l 0,68 c 0,1.673848 -1.326152,3 -3,3 l -68,0 c -1.673848,0 -3,-1.326152 -3,-3 l 0,-68 c 0,-1.673848 1.326152,-3 3,-3 z"
       inkscape:connector-curvature="0"
       id="path3707"
       style="opacity:0.36000001;fill:#000000;fill-opacity:1;fill-rule:nonzero;stroke:none" />
  </g>
  <g
     id="layer5"
     style="display:none"
     transform="translate(0,160)">
    <rect
       width="66"
       height="66"
       rx="12"
       ry="12"
       x="15"
       y="15"
       clip-path="url(#clipPath3613)"
       id="rect3171"
       style="opacity:0.1;fill:url(#linearGradient3613);fill-opacity:1;fill-rule:nonzero;stroke:#ffffff;stroke-width:0.5;stroke-linecap:round;stroke-linejoin:miter;stroke-miterlimit:4;stroke-opacity:1;stroke-dasharray:none;stroke-dashoffset:0;filter:url(#filter3794)" />
  </g>
  <g
     id="g5082"
     transform="translate(-1.2943022,1.6381332)">
    <path
       d="m 127.64692,9.3983849 c -6.21604,1.9973381 -8.41675,9.1528951 -12.69323,13.6057711 -8.57077,11.733472 -17.829872,23.03661 -25.973438,35.037271 -2.599689,5.531797 3.194593,11.470617 8.878186,10.095726 21.967742,-0.159696 44.005932,0.314986 65.930922,-0.229449 6.27233,-1.447837 6.87868,-9.942124 2.30595,-13.71374 C 155.17418,39.891294 144.69358,25.148928 133.49856,11.119247 131.81902,9.7545621 129.79112,9.2086954 127.64692,9.3983849 z M 93.569768,75.479499 C 83.063,75.171487 75.808929,85.827544 77.391724,95.642976 c 0.07776,25.548134 -0.154721,51.146634 0.114738,76.663714 0.947137,5.92637 7.706469,6.57624 12.545603,5.96565 28.053135,-0.0775 56.156395,0.15419 84.178445,-0.11454 5.9271,-0.94701 6.57704,-7.70553 5.96637,-12.5441 -0.0561,-25.19963 0.11221,-50.40502 -0.0842,-75.601092 -0.74988,-10.219481 -11.34204,-15.965418 -20.74627,-14.532926 -21.9322,0 -43.8644,0 -65.796598,0 z M 61.78737,86.493017 C 55.508615,88.628649 50.935776,94.162428 45.350684,97.663479 34.526649,106.02432 23.175722,113.77743 12.679551,122.5164 c -3.4469141,4.63838 0.07652,10.40969 4.68186,12.60288 14.25004,10.43652 28.075567,21.55287 42.590153,31.56592 5.532452,2.59938 11.471976,-3.19421 10.096935,-8.87711 C 69.890766,135.88355 70.36088,113.86951 69.819023,91.999777 68.97022,88.438702 65.389509,86.07443 61.78737,86.493017 z m 132.06332,0 c -6.58725,0.85733 -6.77755,8.294942 -6.31058,13.438109 0.1603,20.635924 -0.31595,41.342514 0.22947,61.935664 1.44803,6.27157 9.94331,6.87787 13.71537,2.30568 14.40937,-11.05434 29.34136,-21.50614 43.4241,-32.93703 3.44692,-4.63838 -0.0765,-10.40972 -4.68186,-12.60288 -14.24567,-10.43384 -28.10047,-21.570749 -42.59015,-31.565922 -1.19173,-0.663711 -2.47928,-0.58937 -3.78635,-0.573621 z m -86.74185,25.698213 c 14.57171,0 29.14343,0 43.71514,0 0,12.19901 0,24.39799 0,36.597 -14.57171,0 -29.14343,0 -43.71514,0 0,-12.19901 0,-24.39799 0,-36.597 z m -12.506431,73.42346 c -6.085816,0.7705 -8.286793,8.98872 -3.792394,12.99492 11.284695,14.72265 21.961405,29.9723 33.624245,44.36716 4.63893,3.44649 10.41095,-0.0764 12.60438,-4.6813 10.43779,-14.24834 21.55546,-28.07221 31.56971,-42.58506 2.59969,-5.53179 -3.19459,-11.47061 -8.87819,-10.09572 -21.70925,0 -43.4185,0 -65.127751,0 z"
       inkscape:connector-curvature="0"
       id="path3873"
       style="opacity:0.1;fill:#000000;fill-opacity:1;stroke:none;display:inline" />
    <path
       d="m 128.90904,12.954834 a 3.7395048,3.739057 0 0 0 -3.09792,1.491414 L 92.766602,58.500323 a 3.7395048,3.739057 0 0 0 2.983186,6.080381 l 66.089032,0 A 3.7395048,3.739057 0 0 0 164.822,58.500323 L 131.77749,14.446248 a 3.7395048,3.739057 0 0 0 -2.86845,-1.491414 z M 93.569768,79.035947 c -6.900293,0 -12.621169,5.720202 -12.621169,12.619657 l 0,79.274396 a 3.7395048,3.739057 0 0 0 3.786351,3.78589 l 88.11871,0 a 3.7395048,3.739057 0 0 0 3.78635,-3.78589 l 0,-79.274396 c 0,-6.899455 -5.72088,-12.619657 -12.62117,-12.619657 l -70.449072,0 z M 62.590536,90.049466 a 3.7395048,3.739057 0 0 0 -2.18002,0.803069 L 16.351164,123.89309 a 3.7395048,3.739057 0 0 0 0,5.96566 l 44.059352,33.04056 a 3.7395048,3.739057 0 0 0 6.081108,-2.98283 l 0,-66.081117 a 3.7395048,3.739057 0 0 0 -3.901088,-3.785897 z m 132.063324,0 a 3.7395048,3.739057 0 0 0 -3.55688,3.785897 l 0,66.081117 a 3.7395048,3.739057 0 0 0 6.08111,2.98283 l 44.05935,-33.04056 a 3.7395048,3.739057 0 0 0 0,-5.96566 L 197.17809,90.852535 a 3.7395048,3.739057 0 0 0 -2.52423,-0.803069 z m -62.18794,3.671173 c -0.0272,0 0.11473,0.142075 0.11473,0.114541 0,-0.0257 -0.14201,0.11454 -0.11473,0.11454 0.0272,0 -0.11474,-0.142074 -0.11474,-0.11454 0,0.0257 0.14202,-0.114541 0.11474,-0.114541 z m 14.68645,0 c -0.0272,0 0.11473,0.142075 0.11473,0.114541 0,-0.0257 -0.14201,0.11454 -0.11473,0.11454 0.0272,0 -0.11474,-0.142074 -0.11474,-0.11454 0,0.0257 0.14202,-0.114541 0.11474,-0.114541 z m 14.68645,0 c -0.0272,0 0.11474,0.142075 0.11474,0.114541 0,-0.0257 -0.14202,0.11454 -0.11474,0.11454 0.0272,0 -0.11474,-0.142074 -0.11474,-0.11454 0,0.0257 0.14202,-0.114541 0.11474,-0.114541 z m -58.28685,14.914141 50.82888,0 0,43.7099 -50.82888,0 0,-43.7099 z m -7.802182,80.53636 a 3.7395048,3.739057 0 0 0 -2.983186,6.08038 l 33.044518,44.05407 a 3.7395048,3.739057 0 0 0 5.96637,0 L 164.822,195.25152 a 3.7395048,3.739057 0 0 0 -2.98318,-6.08038 l -66.089032,0 z"
       id="path3869"
       style="opacity:0.15;fill:#000000;fill-opacity:1;stroke:none;display:inline"
       inkscape:connector-curvature="0" />
    <path
       d="m 128.7943,16.740731 -33.044512,44.054076 66.089032,0 L 128.7943,16.740731 z M 93.569768,82.821844 c -4.881784,0 -8.834818,3.952569 -8.834818,8.83376 l 0,79.274396 88.11871,0 0,-79.274396 c 0,-4.881191 -3.95305,-8.83376 -8.83482,-8.83376 l -70.449072,0 z m 38.896152,7.342346 c 2.03407,0 3.67161,1.637344 3.67161,3.671173 0,2.03383 -1.63754,3.671173 -3.67161,3.671173 -2.03408,0 -3.67162,-1.637343 -3.67162,-3.671173 0,-2.033829 1.63754,-3.671173 3.67162,-3.671173 z m 14.68645,0 c 2.03407,0 3.67161,1.637344 3.67161,3.671173 0,2.03383 -1.63754,3.671173 -3.67161,3.671173 -2.03408,0 -3.67162,-1.637343 -3.67162,-3.671173 0,-2.033829 1.63754,-3.671173 3.67162,-3.671173 z m 14.68645,0 c 2.03407,0 3.67161,1.637344 3.67161,3.671173 0,2.03383 -1.63754,3.671173 -3.67161,3.671173 -2.03408,0 -3.67161,-1.637343 -3.67161,-3.671173 0,-2.033829 1.63753,-3.671173 3.67161,-3.671173 z m -99.133546,3.671173 -44.059353,33.040557 44.059353,33.04056 0,-66.081117 z m 132.178056,0 0,66.081117 44.05935,-33.04056 -44.05935,-33.040557 z m -95.117712,11.013517 58.401592,0 0,51.2817 -58.401592,0 0,-51.2817 z m -4.01583,88.10815 33.044512,44.05408 33.04452,-44.05408 -66.089032,0 z"
       inkscape:connector-curvature="0"
       id="path3084"
       style="opacity:0.3;fill:#000000;fill-opacity:1;stroke:none;display:inline" />
    <path
       d="m 128.7943,13.069558 -33.044512,44.054076 66.089032,0 L 128.7943,13.069558 z M 93.569768,79.150672 c -4.881784,0 -8.834818,3.952568 -8.834818,8.833759 l 0,79.274389 88.11871,0 0,-79.274389 c 0,-4.881191 -3.95305,-8.833759 -8.83482,-8.833759 l -70.449072,0 z m 38.896152,7.342345 c 2.03407,0 3.67161,1.637344 3.67161,3.671173 0,2.03383 -1.63754,3.671173 -3.67161,3.671173 -2.03408,0 -3.67162,-1.637343 -3.67162,-3.671173 0,-2.033829 1.63754,-3.671173 3.67162,-3.671173 z m 14.68645,0 c 2.03407,0 3.67161,1.637344 3.67161,3.671173 0,2.03383 -1.63754,3.671173 -3.67161,3.671173 -2.03408,0 -3.67162,-1.637343 -3.67162,-3.671173 0,-2.033829 1.63754,-3.671173 3.67162,-3.671173 z m 14.68645,0 c 2.03407,0 3.67161,1.637344 3.67161,3.671173 0,2.03383 -1.63754,3.671173 -3.67161,3.671173 -2.03408,0 -3.67161,-1.637343 -3.67161,-3.671173 0,-2.033829 1.63753,-3.671173 3.67161,-3.671173 z m -99.133546,3.671173 -44.059353,33.04056 44.059353,33.04055 0,-66.08111 z m 132.178056,0 0,66.08111 44.05935,-33.04055 -44.05935,-33.04056 z m -95.117712,11.01352 58.401592,0 0,51.2817 -58.401592,0 0,-51.2817 z m -4.01583,88.10815 33.044512,44.05408 33.04452,-44.05408 -66.089032,0 z"
       inkscape:connector-curvature="0"
       id="path2887"
       style="fill:url(#linearGradient5090);fill-opacity:1;stroke:none;display:inline" />
    <path
       d="m 128.7943,13.069558 -33.044512,44.054076 2.75371,0 30.290802,-40.382903 30.29081,40.382903 2.75371,0 L 128.7943,13.069558 z M 93.569768,79.150672 c -4.881784,0 -8.834818,3.952568 -8.834818,8.833759 l 0,3.671173 c 0,-4.881191 3.953034,-8.83376 8.834818,-8.83376 l 70.449072,0 c 4.88177,0 8.83482,3.952569 8.83482,8.83376 l 0,-3.671173 c 0,-4.881191 -3.95305,-8.833759 -8.83482,-8.833759 l -70.449072,0 z m -30.864494,11.013518 -44.059353,33.04056 2.409496,1.83558 41.649857,-31.204967 0,-3.671173 z m 132.178056,0 0,3.671173 41.64986,31.204967 2.40949,-1.83558 -44.05935,-33.04056 z m -65.51534,1.835587 c -0.32833,0.550162 -0.57369,1.145773 -0.57369,1.835586 0,2.03383 1.63754,3.671173 3.67162,3.671173 2.03407,0 3.67161,-1.637343 3.67161,-3.671173 0,-0.689813 -0.24534,-1.285424 -0.57369,-1.835586 -0.63972,1.071946 -1.75375,1.835586 -3.09792,1.835586 -1.34418,0 -2.45821,-0.76364 -3.09793,-1.835586 z m 14.68645,0 c -0.32833,0.550162 -0.57369,1.145773 -0.57369,1.835586 0,2.03383 1.63754,3.671173 3.67162,3.671173 2.03407,0 3.67161,-1.637343 3.67161,-3.671173 0,-0.689813 -0.24534,-1.285424 -0.57369,-1.835586 -0.63972,1.071946 -1.75375,1.835586 -3.09792,1.835586 -1.34418,0 -2.45821,-0.76364 -3.09793,-1.835586 z m 14.68645,0 c -0.32833,0.550162 -0.57368,1.145773 -0.57368,1.835586 0,2.03383 1.63753,3.671173 3.67161,3.671173 2.03407,0 3.67161,-1.637343 3.67161,-3.671173 0,-0.689813 -0.24534,-1.285424 -0.57369,-1.835586 -0.63972,1.071946 -1.75375,1.835586 -3.09792,1.835586 -1.34418,0 -2.45821,-0.76364 -3.09793,-1.835586 z m -58.975272,60.459633 0,3.67117 58.401592,0 0,-3.67117 -58.401592,0 z m -4.01583,36.82645 2.75371,3.67117 60.581612,0 2.75371,-3.67117 -66.089032,0 z"
       inkscape:connector-curvature="0"
       id="path3877"
       style="opacity:0.75;fill:#ffffff;fill-opacity:1;stroke:none;display:inline" />
    <path
       d="m 98.503498,53.452461 -2.75371,3.671173 66.089032,0 -2.75371,-3.671173 -60.581612,0 z m 33.962422,29.369383 c -2.03408,0 -3.67162,1.637344 -3.67162,3.671173 0,0.689814 0.24534,1.285388 0.57369,1.835587 0.63972,-1.071946 1.75375,-1.835587 3.09793,-1.835587 1.34417,0 2.4582,0.763641 3.09792,1.835587 0.32834,-0.550199 0.57369,-1.145773 0.57369,-1.835587 0,-2.033829 -1.63754,-3.671173 -3.67161,-3.671173 z m 14.68645,0 c -2.03408,0 -3.67162,1.637344 -3.67162,3.671173 0,0.689814 0.24534,1.285388 0.57369,1.835587 0.63972,-1.071946 1.75375,-1.835587 3.09793,-1.835587 1.34417,0 2.4582,0.763641 3.09792,1.835587 0.32834,-0.550199 0.57369,-1.145773 0.57369,-1.835587 0,-2.033829 -1.63754,-3.671173 -3.67161,-3.671173 z m 14.68645,0 c -2.03408,0 -3.67161,1.637344 -3.67161,3.671173 0,0.689814 0.24533,1.285388 0.57368,1.835587 0.63972,-1.071946 1.75375,-1.835587 3.09793,-1.835587 1.34417,0 2.4582,0.763641 3.09792,1.835587 0.32834,-0.550199 0.57369,-1.145773 0.57369,-1.835587 0,-2.033829 -1.63754,-3.671173 -3.67161,-3.671173 z m -62.073202,14.684692 0,3.671174 58.401592,0 0,-3.671174 -58.401592,0 z m -78.710201,23.862624 -2.409496,1.83559 44.059353,33.04055 0,-3.67117 -41.649857,-31.20497 z m 215.477773,0 -41.64986,31.20497 0,3.67117 44.05935,-33.04055 -2.40949,-1.83559 z m -151.79824,42.21849 0,3.67117 88.11871,0 0,-3.67117 -88.11871,0 z m 11.014838,25.69821 33.044512,44.05408 33.04452,-44.05408 -2.75371,0 -30.29081,40.3829 -30.290802,-40.3829 -2.75371,0 z"
       inkscape:connector-curvature="0"
       id="path3882"
       style="opacity:0.15;fill:#000000;fill-opacity:1;stroke:none;display:inline" />
  </g>
</svg>
