<?xml version="1.0" encoding="UTF-8" standalone="no"?>
<!-- Created with Inkscape (http://www.inkscape.org/) -->

<svg
   xmlns:dc="http://purl.org/dc/elements/1.1/"
   xmlns:cc="http://creativecommons.org/ns#"
   xmlns:rdf="http://www.w3.org/1999/02/22-rdf-syntax-ns#"
   xmlns:svg="http://www.w3.org/2000/svg"
   xmlns="http://www.w3.org/2000/svg"
   xmlns:xlink="http://www.w3.org/1999/xlink"
   xmlns:sodipodi="http://sodipodi.sourceforge.net/DTD/sodipodi-0.dtd"
   xmlns:inkscape="http://www.inkscape.org/namespaces/inkscape"
   width="256"
   height="256.00009"
   id="svg13442"
   version="1.1"
   inkscape:version="0.48.3.1 r9886"
   sodipodi:docname="calendar.svg">
  <defs
     id="defs13444">
    <linearGradient
       gradientTransform="matrix(1.0172414,0,0,1.0172414,-1.1034483,-1.1034483)"
       gradientUnits="userSpaceOnUse"
       id="ButtonColor-0"
       y2="5.4252338"
       x2="58.650177"
       y1="122"
       x1="58.650177">
      <stop
         offset="0"
         style="stop-color:#f0f0f0;stop-opacity:1"
         id="stop3189-4" />
      <stop
         offset="1"
         style="stop-color:#ffffff;stop-opacity:1"
         id="stop3191-8" />
    </linearGradient>
    <clipPath
       id="clipPath3800">
      <path
         style="fill:url(#linearGradient3804);fill-opacity:1;fill-rule:nonzero;stroke:none"
         id="path3802"
         inkscape:connector-curvature="0"
         d="m 62,6 c -3.324,0 -6,2.676 -6,6 l 0,0.53125 C 56,8.9207 58.9207,6 62.53125,6 L 62,6 z m 71.46875,0 C 137.0793,6 140,8.9207 140,12.53125 L 140,12 c 0,-3.324 -2.676,-6 -6,-6 l -0.53125,0 z M 140,12.53125 c 0,36.73465 -3.54263,60.10471 -7.84375,69.9375 C 121.33994,87.4996 96.479512,90 62.53125,90 L 134,90 c 3.324,0 6,-2.676 6,-6 l 0,-71.46875 z M 62.53125,90 C 58.9207,89.9945 56,87.0793 56,83.46875 L 56,84 c 0,3.324 2.676,6 6,6 l 0.53125,0 z" />
    </clipPath>
    <filter
       id="filter3810"
       color-interpolation-filters="sRGB">
      <feGaussianBlur
         stdDeviation="1.2600071"
         id="feGaussianBlur3812" />
    </filter>
    <linearGradient
       id="linearGradient3777">
      <stop
         offset="0"
         style="stop-color:#ffffff;stop-opacity:0"
         id="stop3779" />
      <stop
         offset="0.50290233"
         style="stop-color:#d7d7d7;stop-opacity:1"
         id="stop3785" />
      <stop
         offset="0.76460928"
         style="stop-color:#cccccc;stop-opacity:1"
         id="stop3781" />
      <stop
         offset="0.9122979"
         style="stop-color:#d7d7d7;stop-opacity:1"
         id="stop3787" />
      <stop
         offset="1"
         style="stop-color:#ffffff;stop-opacity:1"
         id="stop3783" />
    </linearGradient>
    <linearGradient
       id="linearGradient3737">
      <stop
         offset="0"
         style="stop-color:#ffffff;stop-opacity:1"
         id="stop3739" />
      <stop
         offset="1"
         style="stop-color:#ffffff;stop-opacity:0"
         id="stop3741" />
    </linearGradient>
    <linearGradient
       id="linearGradient3757">
      <stop
         offset="0"
         style="stop-color:#000000;stop-opacity:1;"
         id="stop3759" />
      <stop
         offset="1"
         style="stop-color:#656565;stop-opacity:1;"
         id="stop3761" />
    </linearGradient>
    <linearGradient
       inkscape:collect="always"
       xlink:href="#linearGradient3737"
       id="linearGradient3831"
       gradientUnits="userSpaceOnUse"
       gradientTransform="matrix(2.8333333,0,0,2.8333331,10.044874,842.44744)"
       x1="82.08036"
       y1="82.290176"
       x2="59.611588"
       y2="59.821404" />
    <linearGradient
       inkscape:collect="always"
       xlink:href="#linearGradient3757"
       id="linearGradient3834"
       gradientUnits="userSpaceOnUse"
       gradientTransform="matrix(2.8333333,0,0,2.8333331,10.044874,842.44744)"
       x1="49.057751"
       y1="36.02602"
       x2="49.057751"
       y2="6.0722966" />
    <linearGradient
       inkscape:collect="always"
       xlink:href="#linearGradient3737"
       id="linearGradient3837"
       gradientUnits="userSpaceOnUse"
       gradientTransform="matrix(2.8333333,0,0,2.8333331,10.044874,842.44744)"
       x1="46.784908"
       y1="32.026962"
       x2="46.784908"
       y2="68.028786" />
    <linearGradient
       inkscape:collect="always"
       xlink:href="#linearGradient3777"
       id="linearGradient3840"
       gradientUnits="userSpaceOnUse"
       gradientTransform="matrix(2.0169492,0,0,2.016949,16.960134,849.3627)"
       x1="38.410439"
       y1="39.834473"
       x2="110.98586"
       y2="112.4099" />
    <linearGradient
       inkscape:collect="always"
       xlink:href="#ButtonColor-0"
       id="linearGradient3844"
       gradientUnits="userSpaceOnUse"
       gradientTransform="matrix(2.8333333,0,0,2.8333331,10.044874,842.44744)"
       x1="48"
       y1="90"
       x2="48"
       y2="5.9877172" />
  </defs>
  <sodipodi:namedview
     id="base"
     pagecolor="#ffffff"
     bordercolor="#666666"
     borderopacity="1.0"
     inkscape:pageopacity="0.0"
     inkscape:pageshadow="2"
     inkscape:zoom="1.4960932"
     inkscape:cx="128"
     inkscape:cy="128.00005"
     inkscape:document-units="px"
     inkscape:current-layer="layer1"
     showgrid="false"
     fit-margin-top="0"
     fit-margin-left="0"
     fit-margin-right="0"
     fit-margin-bottom="0"
     inkscape:window-width="1024"
     inkscape:window-height="553"
     inkscape:window-x="-4"
     inkscape:window-y="24"
     inkscape:window-maximized="1" />
  <metadata
     id="metadata13447">
    <rdf:RDF>
      <cc:Work
         rdf:about="">
        <dc:format>image/svg+xml</dc:format>
        <dc:type
           rdf:resource="http://purl.org/dc/dcmitype/StillImage" />
        <dc:title></dc:title>
      </cc:Work>
    </rdf:RDF>
  </metadata>
  <g
     inkscape:label="Layer 1"
     inkscape:groupmode="layer"
     id="layer1"
     transform="translate(-18.044873,-850.4474)">
    <g
       id="g3873">
      <path
         id="path3871"
         transform="translate(18.044873,850.4474)"
         d="M 26 9 C 16.582003 9 9 16.582 9 26 L 9 94 L 9 230 C 9 239.4181 16.582003 247 26 247 L 230 247 C 239.41799 247 247 239.4181 247 230 L 247 94 L 247 26 C 247 16.582 239.41799 9 230 9 L 190.34375 9 L 190.34375 16.25 C 193.72614 18.21092 196 21.80891 196 26 C 196 31.868019 191.5274 36.70087 185.8125 37.28125 C 185.43151 37.319942 185.04745 37.34375 184.65625 37.34375 C 178.39701 37.34375 173.34375 32.25922 173.34375 26 C 173.34375 22.332796 175.07809 19.120148 177.78125 17.0625 C 178.16742 16.76855 178.5772 16.495115 179 16.25 L 179 9 L 77 9 L 77 16.25 C 80.382406 18.21092 82.65625 21.80891 82.65625 26 C 82.65625 31.868019 78.214907 36.70087 72.5 37.28125 C 72.119006 37.319942 71.734952 37.34375 71.34375 37.34375 C 65.084516 37.34375 60 32.25922 60 26 C 60 25.738057 60.013694 25.475728 60.03125 25.21875 C 60.294593 21.364074 62.485251 18.088362 65.65625 16.25 L 65.65625 9 L 26 9 z "
         style="fill:none;fill-opacity:1;fill-rule:nonzero;stroke:#000000;stroke-opacity:1;stroke-width:18;stroke-miterlimit:4;stroke-dasharray:none;stroke-linejoin:round;opacity:0.05" />
      <path
         style="fill:none;fill-opacity:1;fill-rule:nonzero;stroke:#000000;stroke-opacity:1;stroke-width:12;stroke-miterlimit:4;stroke-dasharray:none;stroke-linejoin:round;opacity:0.1"
         d="M 26 9 C 16.582003 9 9 16.582 9 26 L 9 94 L 9 230 C 9 239.4181 16.582003 247 26 247 L 230 247 C 239.41799 247 247 239.4181 247 230 L 247 94 L 247 26 C 247 16.582 239.41799 9 230 9 L 190.34375 9 L 190.34375 16.25 C 193.72614 18.21092 196 21.80891 196 26 C 196 31.868019 191.5274 36.70087 185.8125 37.28125 C 185.43151 37.319942 185.04745 37.34375 184.65625 37.34375 C 178.39701 37.34375 173.34375 32.25922 173.34375 26 C 173.34375 22.332796 175.07809 19.120148 177.78125 17.0625 C 178.16742 16.76855 178.5772 16.495115 179 16.25 L 179 9 L 77 9 L 77 16.25 C 80.382406 18.21092 82.65625 21.80891 82.65625 26 C 82.65625 31.868019 78.214907 36.70087 72.5 37.28125 C 72.119006 37.319942 71.734952 37.34375 71.34375 37.34375 C 65.084516 37.34375 60 32.25922 60 26 C 60 25.738057 60.013694 25.475728 60.03125 25.21875 C 60.294593 21.364074 62.485251 18.088362 65.65625 16.25 L 65.65625 9 L 26 9 z "
         transform="translate(18.044873,850.4474)"
         id="path3869" />
      <path
         id="path3850"
         transform="translate(18.044873,850.4474)"
         d="M 26 9 C 16.582003 9 9 16.582 9 26 L 9 94 L 9 230 C 9 239.4181 16.582003 247 26 247 L 230 247 C 239.41799 247 247 239.4181 247 230 L 247 94 L 247 26 C 247 16.582 239.41799 9 230 9 L 190.34375 9 L 190.34375 16.25 C 193.72614 18.21092 196 21.80891 196 26 C 196 31.868019 191.5274 36.70087 185.8125 37.28125 C 185.43151 37.319942 185.04745 37.34375 184.65625 37.34375 C 178.39701 37.34375 173.34375 32.25922 173.34375 26 C 173.34375 22.332796 175.07809 19.120148 177.78125 17.0625 C 178.16742 16.76855 178.5772 16.495115 179 16.25 L 179 9 L 77 9 L 77 16.25 C 80.382406 18.21092 82.65625 21.80891 82.65625 26 C 82.65625 31.868019 78.214907 36.70087 72.5 37.28125 C 72.119006 37.319942 71.734952 37.34375 71.34375 37.34375 C 65.084516 37.34375 60 32.25922 60 26 C 60 25.738057 60.013694 25.475728 60.03125 25.21875 C 60.294593 21.364074 62.485251 18.088362 65.65625 16.25 L 65.65625 9 L 26 9 z "
         style="fill:none;fill-opacity:1;fill-rule:nonzero;stroke:#000000;stroke-opacity:1;stroke-width:6;stroke-miterlimit:4;stroke-dasharray:none;stroke-linejoin:round;opacity:0.15" />
      <path
         d="m 44.044868,859.44744 c -9.417997,0 -16.999994,7.58201 -16.999994,17.00001 l 0,203.99995 c 0,9.4181 7.581997,17.0001 16.999994,17.0001 l 204.000002,0 c 9.41799,0 16.99999,-7.582 16.99999,-17.0001 l 0,-203.99995 c 0,-9.418 -7.582,-17.00001 -16.99999,-17.00001 l -39.66667,0 0,7.26042 c 3.38239,1.96092 5.66667,5.5485 5.66667,9.73959 0,6.25922 -5.07411,11.33333 -11.33333,11.33333 -6.25924,0 -11.33335,-5.07411 -11.33335,-11.33333 0,-4.19109 2.28428,-7.77867 5.66667,-9.73959 l 0,-7.26042 -101.999988,0 0,7.26042 c 3.382406,1.96092 5.666668,5.5485 5.666668,9.73959 0,6.25922 -5.074103,11.33333 -11.333336,11.33333 -6.259234,0 -11.333326,-5.07411 -11.333326,-11.33333 0,-4.19109 2.284258,-7.77867 5.666657,-9.73959 l 0,-7.26042 -39.666667,0 z"
         inkscape:connector-curvature="0"
         id="rect2419"
         style="fill:url(#linearGradient3844);fill-opacity:1;fill-rule:nonzero;stroke:none" />
      <path
         d="M 62.51724,6 C 58.90669,6 56,8.90669 56,12.517241 l 0,70.965519 c 0,3.610548 2.90669,6.511737 6.51724,6.51724 33.948262,0 61.15737,0.163148 73.40225,-3.796268 C 139.14918,76.192373 140,49.251888 140,12.517241 140,8.90669 137.09331,6 133.48276,6 L 62.51724,6 z"
         inkscape:connector-curvature="0"
         transform="matrix(2.8333333,0,0,2.8333331,-131.62179,842.44744)"
         clip-path="url(#clipPath3800)"
         id="path3785"
         style="opacity:0.5;fill:#4d4d4d;fill-opacity:1;stroke:none;display:inline;filter:url(#filter3810)" />
      <path
         d="m 45.55008,859.44744 c -10.229888,0 -18.505206,8.27532 -18.505206,18.50521 l 0,200.98965 c 0,10.2299 8.275318,18.4895 18.505206,18.5052 96.18673,0 166.62458,-7.0845 197.27083,-21.3385 12.18648,-27.8597 22.22395,-94.07487 22.22395,-198.15635 0,-10.22989 -8.27532,-18.50521 -18.5052,-18.50521 l -38.16146,0 0,7.26042 c 3.38239,1.96092 5.66667,5.5485 5.66667,9.73959 0,6.25922 -5.07411,11.33333 -11.33333,11.33333 -6.25924,0 -11.33335,-5.07411 -11.33335,-11.33333 0,-4.19109 2.28428,-7.77867 5.66667,-9.73959 l 0,-7.26042 -101.999988,0 0,7.26042 c 3.382406,1.96092 5.666668,5.5485 5.666668,9.73959 0,6.25922 -5.074103,11.33333 -11.333336,11.33333 -6.259234,0 -11.333326,-5.07411 -11.333326,-11.33333 0,-4.19109 2.284258,-7.77867 5.666657,-9.73959 l 0,-7.26042 -38.161455,0 z"
         inkscape:connector-curvature="0"
         id="path3177"
         style="opacity:0.8;fill:url(#linearGradient3840);fill-opacity:1;stroke:none;display:inline" />
      <path
         d="m 27.044874,921.78078 237.999986,0 c 0,0 -1.43106,53.94476 -11.44838,113.69112 l -226.551606,-0.3578 0,-113.33332 z"
         inkscape:connector-curvature="0"
         id="rect2918"
         style="opacity:0.8;fill:url(#linearGradient3837);fill-opacity:1;stroke:none" />
      <path
         d="m 44.044868,859.44744 c -9.417997,0 -16.999994,7.58201 -16.999994,17.00001 l 0,68 237.999986,0 0,-68 c 0,-9.418 -7.582,-17.00001 -16.99999,-17.00001 l -39.66667,0 0,7.26042 c 3.38239,1.96092 5.66667,5.5485 5.66667,9.73959 0,6.25922 -5.07411,11.33333 -11.33333,11.33333 -6.25924,0 -11.33335,-5.07411 -11.33335,-11.33333 0,-4.19109 2.28428,-7.77867 5.66667,-9.73959 l 0,-7.26042 -101.999988,0 0,7.26042 c 3.382406,1.96092 5.666668,5.5485 5.666668,9.73959 0,6.25922 -5.074103,11.33333 -11.333336,11.33333 -6.259234,0 -11.333326,-5.07411 -11.333326,-11.33333 0,-4.19109 2.284258,-7.77867 5.666657,-9.73959 l 0,-7.26042 -39.666667,0 z"
         inkscape:connector-curvature="0"
         id="rect3839"
         style="fill:url(#linearGradient3834);fill-opacity:1;fill-rule:nonzero;stroke:none" />
      <path
         d="m 258.13862,863.52036 c 2.53595,3.16095 4.07291,7.21289 4.07291,11.59896 0,104.08148 -10.03748,170.29668 -22.22395,198.15628 -30.64625,14.2541 -101.08411,21.3385 -197.270834,21.3385 -4.386068,-0.01 -8.438009,-1.538 -11.598957,-4.0729 3.378784,4.2088 8.588471,6.8974 14.432291,6.9063 96.18673,0 166.62458,-7.0845 197.27083,-21.3385 12.18648,-27.8597 22.22395,-94.07487 22.22395,-198.15635 0,-5.84382 -2.69472,-11.05351 -6.90624,-14.43229 z"
         inkscape:connector-curvature="0"
         id="path3814"
         style="opacity:0.5;fill:url(#linearGradient3831);fill-opacity:1;stroke:none;display:inline" />
      <path
         d="m 264.95632,897.07765 c -1.14832,93.08491 -10.71428,152.92135 -22.13541,179.03135 -28.73082,13.363 -92.44781,20.4147 -179.562493,21.2499 87.451283,-0.2831 154.928843,-2.8512 183.635403,-16.2031 11.42486,-26.1184 17.36394,-90.38546 18.0625,-184.07815 z"
         inkscape:connector-curvature="0"
         id="path3831"
         style="opacity:0.1;fill:#000000;fill-opacity:1;stroke:none;display:inline" />
      <g
         transform="matrix(1.025862,0,0,1.025862,14.266467,845.93898)"
         id="g13279">
        <path
           d="m 176.00164,63.8448 c 0.18277,0.03942 0.32519,0.121531 0.42729,0.246225 0.1034,0.124705 0.15503,0.278666 0.15505,0.461904 -2e-5,0.281212 -0.0958,0.498798 -0.2874,0.65277 -0.19158,0.15396 -0.46385,0.230946 -0.81676,0.230946 -0.11849,0 -0.24075,-0.01209 -0.3668,-0.03628 -0.12479,-0.02291 -0.25398,-0.05791 -0.38759,-0.104997 l 0,-0.372197 c 0.10584,0.06232 0.22184,0.109415 0.34789,0.141251 0.12604,0.03174 0.25776,0.04767 0.39514,0.04767 0.23949,1.2e-5 0.42163,-0.04767 0.54641,-0.143146 0.12605,-0.09546 0.18908,-0.234133 0.18908,-0.416092 0,-0.16796 -0.0586,-0.299025 -0.17584,-0.393185 -0.11595,-0.09546 -0.27793,-0.143158 -0.48591,-0.143158 l -0.32897,0 0,-0.316839 0.3441,0 c 0.18781,0 0.3315,-0.03756 0.43107,-0.112671 0.0996,-0.07639 0.14937,-0.185773 0.14937,-0.328292 0,-0.146329 -0.0516,-0.258304 -0.15504,-0.335928 -0.10211,-0.07889 -0.24893,-0.118335 -0.44053,-0.118338 -0.10456,3e-6 -0.2168,0.01151 -0.33653,0.03436 -0.11975,0.02291 -0.25147,0.05853 -0.39516,0.106892 l 0,-0.343564 c 0.14496,-0.04071 0.28045,-0.07125 0.4065,-0.09161 0.1273,-0.02036 0.24705,-0.03053 0.35923,-0.03053 0.2899,3e-6 0.5193,0.0668 0.68821,0.200412 0.16889,0.132338 0.25335,0.311753 0.25335,0.538248 0,0.157782 -0.0448,0.291394 -0.13424,0.400821 -0.0896,0.108136 -0.21681,0.183239 -0.38192,0.225226 m -2.32365,5.902789 0.62393,0 0,-2.173989 -0.67875,0.137426 0,-0.351198 0.67497,-0.137426 0.38191,0 0,2.525187 0.62393,0 0,0.324478 -1.62599,0 0,-0.324478 m 3.21605,-2.271335 c -0.19664,1.2e-5 -0.34473,0.09802 -0.44431,0.293944 -0.0983,0.19468 -0.14747,0.487985 -0.14747,0.879903 0,0.390638 0.0492,0.683943 0.14747,0.879902 0.0996,0.19468 0.24767,0.292025 0.44431,0.292025 0.1979,0 0.346,-0.09732 0.44432,-0.292025 0.0995,-0.195959 0.14935,-0.489264 0.14935,-0.879902 0,-0.391918 -0.0498,-0.685223 -0.14935,-0.879903 -0.0983,-0.195959 -0.24642,-0.293932 -0.44432,-0.293944 m 0,-0.305386 c 0.31637,0 0.55775,0.126613 0.72413,0.379826 0.16765,0.251945 0.25147,0.618422 0.25147,1.099407 0,0.479717 -0.0839,0.846182 -0.25147,1.099395 -0.16638,0.251945 -0.40776,0.377918 -0.72413,0.377918 -0.31637,0 -0.55838,-0.125973 -0.72602,-0.377918 -0.16638,-0.253213 -0.24957,-0.619678 -0.24957,-1.099395 0,-0.480985 0.0831,-0.847462 0.24957,-1.099407 0.16764,-0.253213 0.40965,-0.379826 0.72602,-0.379826 m -3.21605,7.267502 0.62393,0 0,-2.173989 -0.67875,0.137426 0,-0.351198 0.67497,-0.137426 0.38191,0 0,2.525187 0.62393,0 0,0.324478 -1.62599,0 0,-0.324478 m 2.30285,-2.525187 1.81506,0 0,0.164146 -1.02475,2.685519 -0.39894,0 0.96425,-2.525187 -1.35562,0 0,-0.324478 m -2.04004,7.215957 1.33293,0 0,0.324478 -1.79237,0 0,-0.324478 c 0.14495,-0.151414 0.34221,-0.354372 0.59178,-0.608864 0.25083,-0.25576 0.4084,-0.420545 0.47268,-0.494345 0.12225,-0.138705 0.20734,-0.255771 0.25523,-0.351198 0.0492,-0.09674 0.0737,-0.191506 0.0737,-0.284398 0,-0.151426 -0.0529,-0.274852 -0.15881,-0.370291 -0.10467,-0.09546 -0.24139,-0.143146 -0.41028,-0.143146 -0.11974,0 -0.24642,0.02105 -0.38003,0.06302 -0.13235,0.04198 -0.27415,0.105578 -0.4254,0.190866 l 0,-0.389371 c 0.15378,-0.06232 0.29747,-0.109416 0.43108,-0.14124 0.1336,-0.03186 0.25586,-0.04767 0.36679,-0.04767 0.29242,0 0.5256,0.07384 0.69955,0.2214 0.17394,0.147611 0.26091,0.344838 0.26091,0.591702 0,0.117066 -0.0221,0.2284 -0.0662,0.334013 -0.0429,0.104299 -0.12164,0.227772 -0.23634,0.37029 -0.0315,0.03686 -0.13172,0.143786 -0.30061,0.320653 -0.16891,0.175599 -0.40713,0.421824 -0.71468,0.738663 m 3.18579,-2.189257 -0.96425,1.52122 0.96425,0 0,-1.52122 m -0.10025,-0.335931 0.48023,0 0,1.857151 0.40272,0 0,0.320652 -0.40272,0 0,0.671863 -0.38002,0 0,-0.671863 -1.27433,0 0,-0.372186 1.17412,-1.805617"
           inkscape:connector-curvature="0"
           id="text2434"
           style="font-size:4px;font-style:normal;font-variant:normal;font-weight:normal;font-stretch:normal;text-align:center;line-height:120.00000477%;writing-mode:lr-tb;text-anchor:middle;fill:#ffffff;fill-opacity:1;stroke:none;font-family:Sans;-inkscape-font-specification:Sans" />
        <path
           d="m 183.3266,62.81221 -0.96425,1.521214 0.96425,0 0,-1.521214 m -0.10026,-0.335928 0.48024,0 0,1.857142 0.40271,0 0,0.320664 -0.40271,0 0,0.671851 -0.38003,0 0,-0.671851 -1.27432,0 0,-0.372197 1.17411,-1.805609 m -2.11567,7.215961 0.62393,0 0,-2.17399 -0.67876,0.137426 0,-0.351198 0.67498,-0.137426 0.38191,0 0,2.525188 0.62393,0 0,0.324478 -1.62599,0 0,-0.324478 m 2.46544,0 0.62393,0 0,-2.17399 -0.67875,0.137426 0,-0.351198 0.67497,-0.137426 0.38192,0 0,2.525188 0.62393,0 0,0.324478 -1.626,0 0,-0.324478 m -2.46544,4.690781 0.62393,0 0,-2.173989 -0.67876,0.137426 0,-0.351199 0.67498,-0.137425 0.38191,0 0,2.525187 0.62393,0 0,0.324478 -1.62599,0 0,-0.324478 m 3.21604,-1.028781 c -0.1815,0 -0.32456,0.04895 -0.42917,0.146972 -0.1034,0.09802 -0.15505,0.232853 -0.15505,0.404638 0,0.171785 0.0516,0.306665 0.15505,0.404638 0.10455,0.09802 0.24767,0.146972 0.42917,0.146972 0.18152,0 0.32457,-0.04895 0.42919,-0.146972 0.10467,-0.0993 0.15693,-0.234132 0.15693,-0.404638 0,-0.171785 -0.0523,-0.306665 -0.15693,-0.404638 -0.10339,-0.09802 -0.24642,-0.146972 -0.42919,-0.146972 m -0.38191,-0.164146 c -0.16386,-0.0407 -0.2918,-0.117706 -0.38381,-0.230946 -0.0907,-0.113253 -0.13613,-0.251318 -0.13613,-0.414185 0,-0.227772 0.08,-0.407824 0.24012,-0.540157 0.16133,-0.132333 0.38191,-0.198506 0.66173,-0.198506 0.28108,0 0.50167,0.06616 0.66175,0.198506 0.16007,0.132333 0.24011,0.312385 0.24012,0.540157 -1e-5,0.162867 -0.0461,0.300932 -0.13803,0.414185 -0.0907,0.113252 -0.21743,0.190226 -0.38003,0.230946 0.18403,0.04325 0.32709,0.127879 0.42919,0.253852 0.10339,0.125973 0.15503,0.279945 0.15503,0.461904 0,0.276119 -0.0838,0.487985 -0.25146,0.635596 -0.16638,0.1476 -0.40524,0.2214 -0.71657,0.2214 -0.31133,0 -0.55081,-0.07384 -0.71845,-0.2214 -0.16638,-0.147611 -0.24958,-0.359477 -0.24958,-0.635596 0,-0.181959 0.0516,-0.335931 0.15505,-0.461904 0.10339,-0.125973 0.24705,-0.210586 0.43107,-0.253852 m -0.13991,-0.608865 c 0,0.1476 0.0454,0.262759 0.13613,0.345466 0.092,0.08267 0.22058,0.124066 0.38569,0.124066 0.16386,0 0.29181,-0.04139 0.38381,-0.124066 0.0933,-0.08267 0.13991,-0.197866 0.13991,-0.345466 0,-0.147611 -0.0466,-0.262759 -0.13991,-0.345477 -0.092,-0.08267 -0.21995,-0.124066 -0.38381,-0.124066 -0.16511,0 -0.29368,0.04139 -0.38569,0.124066 -0.0907,0.08267 -0.13613,0.197866 -0.13613,0.345477 m -2.43142,6.492573 1.33294,0 0,0.324467 -1.79237,0 0,-0.324467 c 0.14495,-0.151425 0.34221,-0.354384 0.59178,-0.608876 0.25083,-0.255759 0.40838,-0.420545 0.47267,-0.494344 0.12226,-0.138694 0.20735,-0.25576 0.25524,-0.351199 0.0492,-0.09674 0.0737,-0.191505 0.0737,-0.284398 0,-0.151413 -0.0529,-0.27484 -0.15881,-0.370279 -0.10468,-0.09546 -0.24139,-0.143146 -0.41028,-0.143158 -0.11975,1.2e-5 -0.24642,0.02105 -0.38003,0.06302 -0.13235,0.04198 -0.27415,0.105579 -0.42541,0.190866 l 0,-0.389371 c 0.15377,-0.06232 0.29746,-0.109415 0.43108,-0.14124 0.13361,-0.03186 0.25587,-0.04767 0.36679,-0.04767 0.29243,0 0.52561,0.07383 0.69955,0.221411 0.17394,0.1476 0.26091,0.344838 0.26091,0.591691 0,0.117066 -0.0221,0.228411 -0.0662,0.334012 -0.0428,0.104299 -0.12163,0.227772 -0.23634,0.370291 -0.0315,0.03686 -0.13171,0.143786 -0.30062,0.320652 -0.16889,0.1756 -0.40712,0.421824 -0.71467,0.738663 m 2.14026,-2.525187 1.4993,0 0,0.324478 -1.14954,0 0,0.698582 c 0.0555,-0.01907 0.11096,-0.03302 0.16639,-0.04197 0.0555,-0.01047 0.11095,-0.01523 0.16638,-0.01523 0.31511,0 0.56468,0.08721 0.7487,0.26148 0.18403,0.174332 0.27605,0.410371 0.27605,0.708129 0,0.306653 -0.0946,0.545238 -0.28361,0.715756 -0.18907,0.169227 -0.45566,0.253852 -0.79976,0.253852 -0.11848,0 -0.23948,-0.01046 -0.363,-0.03058 -0.12227,-0.02035 -0.24895,-0.05093 -0.38003,-0.09162 l 0,-0.387464 c 0.1134,0.06232 0.23066,0.108833 0.35166,0.139332 0.121,0.03058 0.24895,0.04581 0.38381,0.04581 0.21806,0 0.39074,-0.0579 0.51805,-0.173692 0.1273,-0.115811 0.19096,-0.272945 0.19096,-0.471451 0,-0.198493 -0.0636,-0.355651 -0.19096,-0.471438 -0.12731,-0.11581 -0.29999,-0.173692 -0.51805,-0.173692 -0.10211,0 -0.20419,0.01163 -0.30629,0.03442 -0.10084,0.02291 -0.20419,0.05849 -0.31006,0.106857 l 0,-1.431501"
           inkscape:connector-curvature="0"
           id="text2446"
           style="font-size:4px;font-style:normal;font-variant:normal;font-weight:normal;font-stretch:normal;text-align:center;line-height:120.00000477%;writing-mode:lr-tb;text-anchor:middle;fill:#ffffff;fill-opacity:1;stroke:none;font-family:Sans;-inkscape-font-specification:Sans" />
        <path
           d="m 189.67974,62.476282 1.49931,0 0,0.324476 -1.14954,0 0,0.698576 c 0.0555,-0.01907 0.11096,-0.03314 0.16639,-0.04198 0.0555,-0.01046 0.11095,-0.01523 0.16638,-0.01523 0.31511,0 0.56468,0.08721 0.7487,0.261492 0.18403,0.17432 0.27605,0.41037 0.27605,0.708117 0,0.306664 -0.0946,0.54525 -0.28361,0.715756 -0.18907,0.169239 -0.45566,0.253864 -0.79976,0.253864 -0.11848,0 -0.23948,-0.01046 -0.363,-0.03058 -0.12227,-0.02035 -0.24895,-0.05093 -0.38003,-0.09162 l 0,-0.387465 c 0.11339,0.06232 0.23066,0.108834 0.35166,0.139333 0.121,0.03058 0.24895,0.04581 0.38381,0.04581 0.21806,0 0.39074,-0.05791 0.51805,-0.173693 0.1273,-0.11581 0.19095,-0.272944 0.19096,-0.47145 -1e-5,-0.198494 -0.0636,-0.355651 -0.19096,-0.471438 -0.12731,-0.115811 -0.29999,-0.173692 -0.51805,-0.173692 -0.10211,0 -0.20419,0.01163 -0.30629,0.0343 -0.10084,0.02291 -0.20419,0.05849 -0.31007,0.106857 l 0,-1.431507 m -1.17033,7.215963 0.62393,0 0,-2.173989 -0.67877,0.137426 0,-0.351199 0.67499,-0.137426 0.38191,0 0,2.525188 0.62392,0 0,0.324478 -1.62598,0 0,-0.324478 m 2.72825,0 1.33294,0 0,0.324478 -1.79237,0 0,-0.324478 c 0.14495,-0.151426 0.34221,-0.354373 0.59178,-0.608865 0.25083,-0.255771 0.40838,-0.420544 0.47266,-0.494356 0.12227,-0.138693 0.20735,-0.255759 0.25525,-0.351198 0.0492,-0.09674 0.0737,-0.191494 0.0737,-0.284386 0,-0.151426 -0.0529,-0.274852 -0.15882,-0.370291 -0.10456,-0.09546 -0.24138,-0.143147 -0.41028,-0.143147 -0.11975,0 -0.24642,0.02105 -0.38003,0.06302 -0.13234,0.04198 -0.27415,0.105578 -0.4254,0.190866 l 0,-0.389372 c 0.15377,-0.06232 0.29747,-0.109415 0.43107,-0.141239 0.13361,-0.03186 0.25588,-0.04767 0.3668,-0.04767 0.29243,0 0.5256,0.07383 0.69955,0.2214 0.17395,0.147611 0.26092,0.344837 0.26092,0.59169 0,0.117078 -0.0221,0.228411 -0.0662,0.334024 -0.0428,0.104299 -0.12164,0.227772 -0.23634,0.370279 -0.0315,0.03686 -0.13171,0.143798 -0.30061,0.320665 -0.16891,0.175599 -0.40713,0.421823 -0.71468,0.738662 m -2.72825,4.69077 0.62392,0 0,-2.173989 -0.67876,0.137426 0,-0.351199 0.67498,-0.137425 0.38192,0 0,2.525187 0.62392,0 0,0.324478 -1.62598,0 0,-0.324478 m 2.41062,0.265305 0,-0.351186 c 0.0958,0.04581 0.19284,0.08081 0.29116,0.104997 0.0983,0.02419 0.19473,0.03628 0.28928,0.03628 0.25208,0 0.44431,-0.08523 0.57665,-0.255771 0.1336,-0.171774 0.20986,-0.431987 0.22877,-0.78065 -0.0731,0.109415 -0.16575,0.193424 -0.27792,0.251945 -0.11224,0.05849 -0.23634,0.08779 -0.37247,0.08779 -0.28235,0 -0.50608,-0.08593 -0.67119,-0.257666 -0.16386,-0.173053 -0.2458,-0.409092 -0.2458,-0.708129 0,-0.292665 0.0857,-0.527425 0.25714,-0.704303 0.17143,-0.176866 0.39956,-0.265305 0.68443,-0.265305 0.32645,0 0.5754,0.126612 0.74681,0.379825 0.17269,0.251957 0.25903,0.618422 0.25903,1.099407 0,0.449172 -0.10583,0.808009 -0.31763,1.076489 -0.2105,0.267236 -0.4941,0.400836 -0.85081,0.400836 -0.0958,0 -0.19285,-0.0093 -0.29116,-0.0286 -0.0983,-0.01907 -0.20041,-0.04767 -0.30629,-0.08593 m 0.76005,-1.208194 c 0.17142,0 0.30692,-0.05918 0.4065,-0.177506 0.10084,-0.118346 0.15125,-0.280585 0.15125,-0.486718 0,-0.204865 -0.0505,-0.366465 -0.15125,-0.48481 -0.0995,-0.119601 -0.23508,-0.179413 -0.4065,-0.179413 -0.17143,0 -0.30756,0.05977 -0.40839,0.179413 -0.0996,0.118345 -0.14936,0.279945 -0.14936,0.48481 0,0.206133 0.0498,0.368372 0.14936,0.486718 0.10083,0.118333 0.23696,0.177506 0.40839,0.177506 m -2.90787,5.633658 1.33293,0 0,0.324478 -1.79236,0 0,-0.324478 c 0.14495,-0.151414 0.34221,-0.354373 0.59178,-0.608864 0.25083,-0.25576 0.40838,-0.420545 0.47267,-0.494345 0.12226,-0.138705 0.20735,-0.255771 0.25524,-0.351198 0.0492,-0.09674 0.0737,-0.191506 0.0737,-0.284398 0,-0.151426 -0.0529,-0.274852 -0.15881,-0.370279 -0.10468,-0.09546 -0.24139,-0.143159 -0.41028,-0.143159 -0.11975,0 -0.24642,0.02105 -0.38003,0.06302 -0.13235,0.04197 -0.27415,0.105578 -0.42541,0.190866 l 0,-0.389372 c 0.15377,-0.06232 0.29746,-0.109415 0.43108,-0.141239 0.1336,-0.03186 0.25587,-0.04767 0.36679,-0.04767 0.29243,0 0.52561,0.07383 0.69955,0.221411 0.17394,0.1476 0.26091,0.344827 0.26091,0.591691 0,0.117066 -0.0221,0.2284 -0.0662,0.334013 -0.0429,0.104299 -0.12163,0.227771 -0.23634,0.37029 -0.0315,0.03686 -0.13171,0.143786 -0.30062,0.320653 -0.16889,0.175599 -0.40712,0.421824 -0.71467,0.738662 m 3.00051,-1.254006 c -0.17142,0 -0.30755,0.05918 -0.40838,0.177506 -0.0996,0.118345 -0.14937,0.280584 -0.14937,0.486717 0,0.204865 0.0498,0.367104 0.14937,0.486717 0.10083,0.118333 0.23696,0.177506 0.40838,0.177506 0.17143,0 0.30692,-0.05918 0.4065,-0.177506 0.10083,-0.119613 0.15125,-0.281852 0.15125,-0.486717 0,-0.206133 -0.0505,-0.368372 -0.15125,-0.486717 -0.0996,-0.118334 -0.23507,-0.177506 -0.4065,-0.177506 m 0.75816,-1.208195 0,0.351199 c -0.0958,-0.04581 -0.19285,-0.08081 -0.29116,-0.104997 -0.097,-0.02419 -0.19348,-0.03628 -0.28928,-0.03628 -0.25209,0 -0.44494,0.08593 -0.57855,0.257666 -0.13235,0.171785 -0.20797,0.43137 -0.22688,0.778743 0.0743,-0.110694 0.16764,-0.195319 0.27983,-0.253852 0.11223,-0.05977 0.2357,-0.08976 0.37057,-0.08976 0.2836,0 0.50733,0.08721 0.67119,0.26148 0.16511,0.173064 0.24768,0.409103 0.24768,0.708129 0,0.292665 -0.0857,0.527425 -0.25714,0.704303 -0.17141,0.176866 -0.39956,0.265305 -0.68442,0.265305 -0.32646,0 -0.57602,-0.125972 -0.74871,-0.377918 -0.17268,-0.253224 -0.25903,-0.619689 -0.25903,-1.099407 0,-0.450439 0.10584,-0.809276 0.31764,-1.076489 0.21176,-0.268491 0.49599,-0.402731 0.8527,-0.402731 0.0958,0 0.19221,0.0093 0.28928,0.0286 0.0983,0.01907 0.20041,0.04767 0.30628,0.08593"
           inkscape:connector-curvature="0"
           id="text2456"
           style="font-size:4px;font-style:normal;font-variant:normal;font-weight:normal;font-stretch:normal;text-align:center;line-height:120.00000477%;writing-mode:lr-tb;text-anchor:middle;fill:#ffffff;fill-opacity:1;stroke:none;font-family:Sans;-inkscape-font-specification:Sans" />
        <path
           d="m 197.95571,63.802813 c -0.17143,0 -0.30756,0.05918 -0.4084,0.177506 -0.0996,0.118345 -0.14937,0.280584 -0.14935,0.486717 -2e-5,0.204866 0.0498,0.367105 0.14935,0.486717 0.10084,0.118334 0.23697,0.177506 0.4084,0.177506 0.17141,0 0.30691,-0.05918 0.40648,-0.177506 0.10084,-0.119612 0.15127,-0.281851 0.15127,-0.486717 0,-0.206133 -0.0505,-0.368372 -0.15127,-0.486717 -0.0995,-0.118333 -0.23507,-0.177506 -0.40648,-0.177506 m 0.75816,-1.208193 0,0.351198 c -0.0958,-0.0458 -0.19285,-0.0808 -0.29116,-0.104973 -0.0971,-0.02417 -0.1935,-0.03627 -0.28928,-0.03627 -0.2521,2e-6 -0.44495,0.08589 -0.57856,0.257672 -0.13234,0.171784 -0.20797,0.431363 -0.22687,0.778735 0.0743,-0.110694 0.16764,-0.195319 0.27981,-0.253852 0.11223,-0.05977 0.23571,-0.08976 0.37058,-0.08976 0.2836,0 0.50733,0.08721 0.6712,0.261492 0.16511,0.173053 0.24767,0.409092 0.24767,0.708117 0,0.292665 -0.0857,0.527425 -0.25713,0.704303 -0.17143,0.176867 -0.39957,0.265306 -0.68442,0.265306 -0.32646,0 -0.57604,-0.125973 -0.74872,-0.377918 -0.17267,-0.253225 -0.25902,-0.61969 -0.25902,-1.099407 0,-0.45044 0.10584,-0.809271 0.31763,-1.076489 0.21176,-0.268484 0.49599,-0.402728 0.8527,-0.402732 0.0958,4e-6 0.19222,0.0095 0.28927,0.02864 0.0983,0.01908 0.20042,0.04772 0.3063,0.08589 m -2.78876,7.152983 0.62392,0 0,-2.173989 -0.67875,0.137425 0,-0.351198 0.67497,-0.137426 0.38192,0 0,2.525188 0.62392,0 0,0.324466 -1.62598,0 0,-0.324466 m 3.55637,-1.21202 c 0.18276,0.03942 0.3252,0.121519 0.4273,0.246225 0.10339,0.124694 0.15503,0.278665 0.15503,0.461904 0,0.281212 -0.0958,0.498798 -0.28738,0.652758 -0.19159,0.153972 -0.46385,0.230958 -0.81678,0.230958 -0.11848,0 -0.24075,-0.01209 -0.36678,-0.03628 -0.1248,-0.02291 -0.254,-0.05791 -0.3876,-0.104997 l 0,-0.372197 c 0.10583,0.06232 0.22184,0.109415 0.34789,0.14124 0.12604,0.03186 0.25776,0.04767 0.39515,0.04767 0.23949,0 0.42162,-0.04767 0.54641,-0.143146 0.12604,-0.09546 0.18906,-0.234132 0.18906,-0.416092 0,-0.167971 -0.0586,-0.299025 -0.17583,-0.393196 -0.11595,-0.09546 -0.27793,-0.143147 -0.48591,-0.143147 l -0.32897,0 0,-0.316839 0.34411,0 c 0.1878,0 0.33149,-0.03756 0.43107,-0.112671 0.0995,-0.07639 0.14935,-0.185785 0.14937,-0.328292 -2e-5,-0.146332 -0.0516,-0.258305 -0.15505,-0.335931 -0.10211,-0.07895 -0.24894,-0.118333 -0.44053,-0.118333 -0.10467,0 -0.21679,0.01163 -0.33654,0.03442 -0.11974,0.02291 -0.25146,0.05849 -0.39515,0.106857 l 0,-0.343559 c 0.14495,-0.0407 0.28045,-0.07128 0.4065,-0.09163 0.12731,-0.02035 0.24705,-0.03058 0.35922,-0.03058 0.28991,0 0.51932,0.06686 0.68821,0.200412 0.16891,0.132333 0.25335,0.311758 0.25335,0.538251 0,0.157785 -0.0448,0.291386 -0.13423,0.400824 -0.0896,0.108136 -0.2168,0.183227 -0.38192,0.225226 m -3.29356,5.902789 1.33292,0 0,0.324466 -1.79236,0 0,-0.324466 c 0.14495,-0.151425 0.34221,-0.354384 0.59179,-0.608876 0.25083,-0.255759 0.40838,-0.420545 0.47266,-0.494345 0.12227,-0.138693 0.20734,-0.255759 0.25525,-0.351198 0.0492,-0.09674 0.0737,-0.191506 0.0737,-0.284398 -1e-5,-0.151414 -0.0529,-0.27484 -0.15882,-0.370279 -0.10455,-0.09546 -0.24137,-0.143147 -0.41028,-0.143158 -0.11974,1.1e-5 -0.24642,0.02105 -0.38003,0.06302 -0.13234,0.04198 -0.27414,0.105578 -0.42539,0.190866 l 0,-0.389371 c 0.15377,-0.06232 0.29746,-0.109415 0.43107,-0.14124 0.13361,-0.03174 0.25588,-0.04767 0.36679,-0.04767 0.29242,1.2e-5 0.52561,0.07383 0.69955,0.221412 0.17394,0.147611 0.26091,0.344838 0.26092,0.59169 -10e-6,0.117066 -0.0221,0.228412 -0.0662,0.334025 -0.0428,0.104299 -0.12164,0.227771 -0.23634,0.370279 -0.0315,0.03686 -0.13172,0.143786 -0.30062,0.320664 -0.1689,0.175599 -0.40713,0.421812 -0.71467,0.738651 m 2.95324,-2.271324 c -0.19663,0 -0.34474,0.09802 -0.44432,0.293933 -0.0983,0.194691 -0.14747,0.487985 -0.14747,0.879902 0,0.390651 0.0492,0.683944 0.14747,0.879903 0.0996,0.194691 0.24769,0.292025 0.44432,0.292025 0.19789,0 0.34599,-0.09732 0.44431,-0.292025 0.0996,-0.195959 0.14935,-0.489252 0.14935,-0.879903 0,-0.391917 -0.0498,-0.685211 -0.14935,-0.879902 -0.0983,-0.195959 -0.24642,-0.293933 -0.44431,-0.293933 m 0,-0.305397 c 0.31637,1.2e-5 0.55774,0.126612 0.72413,0.379837 0.16764,0.251945 0.25146,0.618411 0.25146,1.099395 0,0.479718 -0.0838,0.846183 -0.25146,1.099396 -0.16639,0.251957 -0.40776,0.37793 -0.72413,0.37793 -0.31638,0 -0.55839,-0.125973 -0.72603,-0.37793 -0.16638,-0.253213 -0.24957,-0.619678 -0.24957,-1.099396 0,-0.480984 0.0832,-0.84745 0.24957,-1.099395 0.16764,-0.253225 0.40965,-0.379825 0.72603,-0.379837 m -2.95324,7.267502 1.33292,0 0,0.324478 -1.79236,0 0,-0.324478 c 0.14494,-0.151425 0.34221,-0.354372 0.59178,-0.608864 0.25082,-0.255771 0.40839,-0.420545 0.47267,-0.494357 0.12227,-0.138693 0.20734,-0.255759 0.25524,-0.351198 0.0492,-0.09674 0.0737,-0.191494 0.0737,-0.284386 0,-0.151426 -0.0529,-0.274852 -0.15881,-0.370291 -0.10467,-0.09546 -0.24138,-0.143146 -0.41028,-0.143146 -0.11974,0 -0.24642,0.02105 -0.38003,0.06302 -0.13235,0.04198 -0.27414,0.105578 -0.42539,0.190866 l 0,-0.389371 c 0.15377,-0.06232 0.29746,-0.109416 0.43107,-0.14124 0.13361,-0.03186 0.25586,-0.04767 0.36679,-0.04767 0.29242,0 0.52561,0.07384 0.69955,0.2214 0.17394,0.147611 0.26091,0.344838 0.26091,0.59169 0,0.117066 -0.0221,0.228412 -0.0662,0.334025 -0.0428,0.104299 -0.12162,0.227772 -0.23632,0.370279 -0.0315,0.03686 -0.13172,0.143797 -0.30062,0.320664 -0.1689,0.175599 -0.40713,0.421812 -0.71469,0.738663 m 2.04006,-2.525188 1.81505,0 0,0.164146 -1.02476,2.685508 -0.39892,0 0.96424,-2.525187 -1.35561,0 0,-0.324467"
           inkscape:connector-curvature="0"
           id="text2466"
           style="font-size:4px;font-style:normal;font-variant:normal;font-weight:normal;font-stretch:normal;text-align:center;line-height:120.00000477%;writing-mode:lr-tb;text-anchor:middle;fill:#ffffff;fill-opacity:1;stroke:none;font-family:Sans;-inkscape-font-specification:Sans" />
        <path
           d="m 204.38446,62.476282 1.81506,0 0,0.164147 -1.02475,2.68551 -0.39893,0 0.96425,-2.525181 -1.35563,0 0,-0.324476 m -1.07011,7.215961 0.62392,0 0,-2.17399 -0.67876,0.137426 0,-0.351198 0.67498,-0.137426 0.38191,0 0,2.525188 0.62393,0 0,0.324478 -1.62598,0 0,-0.324478 m 3.44859,-2.189257 -0.96424,1.52122 0.96424,0 0,-1.52122 m -0.10025,-0.335931 0.48024,0 0,1.857151 0.40272,0 0,0.320664 -0.40272,0 0,0.671851 -0.38003,0 0,-0.671851 -1.27432,0 0,-0.372198 1.17411,-1.805617 m -3.08558,7.215969 1.33292,0 0,0.324478 -1.79236,0 0,-0.324478 c 0.14494,-0.151425 0.3422,-0.354384 0.59178,-0.608864 0.25083,-0.255771 0.40838,-0.420545 0.47267,-0.494357 0.12226,-0.138693 0.20734,-0.255759 0.25524,-0.351198 0.0492,-0.09674 0.0737,-0.191506 0.0737,-0.284386 0,-0.151426 -0.0529,-0.274852 -0.15881,-0.370291 -0.10467,-0.09546 -0.24138,-0.143147 -0.41028,-0.143147 -0.11974,0 -0.24642,0.02105 -0.38002,0.06302 -0.13236,0.04197 -0.27415,0.105578 -0.42541,0.190877 l 0,-0.389371 c 0.15377,-0.06232 0.29746,-0.109415 0.43107,-0.141251 0.13361,-0.03174 0.25588,-0.04767 0.36679,-0.04767 0.29243,0 0.52562,0.07383 0.69956,0.2214 0.17394,0.147611 0.26091,0.344838 0.26091,0.59169 0,0.117066 -0.0221,0.228412 -0.0662,0.334025 -0.0428,0.104299 -0.12163,0.227771 -0.23634,0.370278 -0.0315,0.03686 -0.13171,0.143787 -0.30062,0.320665 -0.16889,0.175599 -0.40713,0.421812 -0.71467,0.738662 m 2.20264,0 0.62392,0 0,-2.173989 -0.67875,0.137414 0,-0.351186 0.67497,-0.137426 0.38192,0 0,2.525187 0.62392,0 0,0.324467 -1.62598,0 0,-0.324467 m -2.20264,4.69077 1.33293,0 0,0.324478 -1.79236,0 0,-0.324478 c 0.14494,-0.151425 0.3422,-0.354372 0.59178,-0.608864 0.25083,-0.255771 0.40838,-0.420545 0.47267,-0.494357 0.12226,-0.138693 0.20734,-0.255759 0.25524,-0.351198 0.0492,-0.09674 0.0737,-0.191494 0.0737,-0.284386 0,-0.151426 -0.0529,-0.274852 -0.15882,-0.370291 -0.10455,-0.09546 -0.24137,-0.143146 -0.41028,-0.143146 -0.11974,0 -0.24641,0.02105 -0.38001,0.06302 -0.13236,0.04198 -0.27416,0.105578 -0.42541,0.190866 l 0,-0.389371 c 0.15377,-0.06232 0.29746,-0.109416 0.43107,-0.14124 0.13361,-0.03186 0.25588,-0.04767 0.36679,-0.04767 0.29243,0 0.52562,0.07384 0.69956,0.2214 0.17394,0.147611 0.26091,0.344838 0.26091,0.59169 0,0.117078 -0.0221,0.228412 -0.0662,0.334025 -0.0428,0.104299 -0.12164,0.227772 -0.23634,0.370279 -0.0315,0.03686 -0.13171,0.143797 -0.30062,0.320664 -0.1689,0.175599 -0.40713,0.421824 -0.71467,0.738662 m 2.95324,-1.028781 c -0.18151,0 -0.32456,0.04895 -0.42919,0.146972 -0.10339,0.09802 -0.15503,0.232853 -0.15503,0.404639 0,0.171773 0.0516,0.306664 0.15503,0.404638 0.10467,0.09802 0.24768,0.146972 0.42919,0.146972 0.1815,0 0.32456,-0.04895 0.42918,-0.146972 0.10467,-0.0993 0.15692,-0.234132 0.15692,-0.404638 0,-0.171786 -0.0523,-0.306665 -0.15692,-0.404639 -0.10339,-0.09802 -0.24642,-0.146972 -0.42918,-0.146972 m -0.38192,-0.164146 c -0.16386,-0.0407 -0.29179,-0.117705 -0.38381,-0.230958 -0.0907,-0.113252 -0.13612,-0.251306 -0.13612,-0.414184 0,-0.22776 0.08,-0.407813 0.24012,-0.540146 0.16133,-0.132333 0.38191,-0.198505 0.66173,-0.198505 0.28108,0 0.50166,0.06616 0.66174,0.198505 0.16007,0.132333 0.24011,0.312386 0.24011,0.540146 0,0.162878 -0.046,0.300944 -0.13801,0.414184 -0.0907,0.113253 -0.21744,0.190239 -0.38003,0.230958 0.18402,0.04326 0.32709,0.12788 0.42918,0.253853 0.10339,0.125972 0.15504,0.279944 0.15504,0.461904 0,0.276119 -0.0838,0.487984 -0.25146,0.635584 -0.16638,0.147612 -0.40524,0.221412 -0.71657,0.221412 -0.31133,0 -0.55082,-0.07384 -0.71845,-0.221412 -0.16639,-0.1476 -0.24958,-0.359465 -0.24958,-0.635584 0,-0.18196 0.0516,-0.335932 0.15503,-0.461904 0.1034,-0.125973 0.24705,-0.210587 0.43108,-0.253853 m -0.1399,-0.608876 c -1e-5,0.147612 0.0453,0.262771 0.13612,0.345478 0.092,0.08267 0.22058,0.124065 0.3857,0.124065 0.16386,0 0.29179,-0.04139 0.38381,-0.124065 0.0933,-0.08267 0.13991,-0.197866 0.13991,-0.345478 0,-0.1476 -0.0466,-0.262759 -0.13991,-0.345466 -0.092,-0.08267 -0.21995,-0.124065 -0.38381,-0.124065 -0.16512,0 -0.29368,0.04139 -0.3857,0.124065 -0.0907,0.08267 -0.13613,0.197866 -0.13612,0.345466"
           inkscape:connector-curvature="0"
           id="text2476"
           style="font-size:4px;font-style:normal;font-variant:normal;font-weight:normal;font-stretch:normal;text-align:center;line-height:120.00000477%;writing-mode:lr-tb;text-anchor:middle;fill:#ffffff;fill-opacity:1;stroke:none;font-family:Sans;-inkscape-font-specification:Sans" />
        <path
           d="m 211.98356,60.31069 0.62392,0 0,-2.173989 -0.67876,0.137426 0,-0.351198 0.67498,-0.137425 0.38192,0 0,2.525186 0.62392,0 0,0.324476 -1.62598,0 0,-0.324476 m 0.7506,3.662001 c -0.18151,0 -0.32457,0.04895 -0.42919,0.146961 -0.10339,0.09802 -0.15503,0.232865 -0.15503,0.40465 0,0.171774 0.0518,0.306653 0.15503,0.404638 0.10467,0.09802 0.24768,0.146961 0.42919,0.146961 0.1815,0 0.32456,-0.04895 0.42918,-0.146961 0.10455,-0.0993 0.15692,-0.234132 0.15692,-0.404638 0,-0.171785 -0.0522,-0.306665 -0.15692,-0.40465 -0.1034,-0.09802 -0.24642,-0.146961 -0.42918,-0.146961 m -0.38193,-0.164145 c -0.16385,-0.0407 -0.29179,-0.117706 -0.38379,-0.230958 -0.0907,-0.113252 -0.13613,-0.251306 -0.13613,-0.414181 0,-0.227767 0.08,-0.40782 0.24011,-0.540158 0.16134,-0.132331 0.38192,-0.1985 0.66174,-0.198503 0.28108,3e-6 0.50166,0.06617 0.66173,0.198503 0.16008,0.132338 0.24012,0.312391 0.24012,0.540158 0,0.162875 -0.0459,0.30094 -0.13801,0.414181 -0.0908,0.113252 -0.21743,0.190238 -0.38003,0.230958 0.18402,0.04325 0.32708,0.127879 0.42919,0.253852 0.10339,0.125973 0.15503,0.279945 0.15503,0.461904 0,0.276119 -0.0839,0.487984 -0.25146,0.635584 -0.16638,0.147612 -0.40524,0.221412 -0.71657,0.221412 -0.31133,0 -0.55082,-0.07384 -0.71846,-0.221412 -0.16638,-0.1476 -0.24957,-0.359465 -0.24957,-0.635584 0,-0.181959 0.0516,-0.335931 0.15503,-0.461904 0.10339,-0.125973 0.24706,-0.210598 0.43107,-0.253852 m -0.1399,-0.608875 c 0,0.14761 0.0454,0.262769 0.13614,0.345476 0.092,0.08267 0.22056,0.124066 0.38569,0.124066 0.16386,0 0.29179,-0.04139 0.38381,-0.124066 0.0933,-0.08267 0.13991,-0.197866 0.13991,-0.345476 0,-0.147601 -0.0466,-0.262759 -0.13991,-0.345471 -0.092,-0.08271 -0.21995,-0.124062 -0.38381,-0.124064 -0.16513,2e-6 -0.29369,0.04136 -0.38569,0.124064 -0.0907,0.08272 -0.13614,0.19787 -0.13614,0.345471 m -1.46149,6.492572 0.62392,0 0,-2.17399 -0.67876,0.137426 0,-0.351198 0.67498,-0.137426 0.38192,0 0,2.525188 0.62392,0 0,0.324478 -1.62598,0 0,-0.324478 m 2.40305,-2.525188 1.49931,0 0,0.324478 -1.14953,0 0,0.698583 c 0.0555,-0.01907 0.11095,-0.03314 0.16637,-0.04198 0.0555,-0.01046 0.11095,-0.01523 0.16639,-0.01523 0.31511,0 0.56469,0.08721 0.7487,0.26148 0.18404,0.174332 0.27604,0.410371 0.27604,0.708129 0,0.306665 -0.0945,0.54525 -0.2836,0.715756 -0.18906,0.169239 -0.45565,0.253853 -0.79975,0.253853 -0.11849,0 -0.23949,-0.01046 -0.36302,-0.03058 -0.12225,-0.02035 -0.24893,-0.05093 -0.38002,-0.09162 l 0,-0.387464 c 0.11339,0.06232 0.23066,0.108834 0.35166,0.139333 0.12101,0.03058 0.24894,0.04581 0.38382,0.04581 0.21805,0 0.39073,-0.05791 0.51803,-0.173692 0.12732,-0.11581 0.19097,-0.272945 0.19097,-0.47145 0,-0.198494 -0.0637,-0.35564 -0.19097,-0.471439 -0.1273,-0.11581 -0.29998,-0.173692 -0.51803,-0.173692 -0.10211,0 -0.2042,0.01163 -0.30629,0.03442 -0.10084,0.02291 -0.20421,0.05849 -0.31008,0.106857 l 0,-1.431513 m -2.14025,7.215957 1.33293,0 0,0.324478 -1.79236,0 0,-0.324478 c 0.14494,-0.151414 0.34221,-0.354372 0.59177,-0.608864 0.25083,-0.25576 0.40839,-0.420545 0.47268,-0.494357 0.12226,-0.138693 0.20734,-0.255759 0.25524,-0.351186 0.0492,-0.09674 0.0737,-0.191506 0.0737,-0.284398 0,-0.151426 -0.0529,-0.274852 -0.15882,-0.370291 -0.10467,-0.09546 -0.24137,-0.143146 -0.41028,-0.143146 -0.11974,0 -0.24641,0.02105 -0.38002,0.06302 -0.13235,0.04197 -0.27416,0.105578 -0.42541,0.190866 l 0,-0.389371 c 0.15378,-0.06232 0.29747,-0.109415 0.43108,-0.14124 0.13361,-0.03186 0.25587,-0.04767 0.36679,-0.04767 0.29242,0 0.52562,0.07383 0.69956,0.2214 0.17393,0.147612 0.26091,0.344838 0.26091,0.591702 0,0.117066 -0.0221,0.2284 -0.0662,0.334013 -0.0429,0.104299 -0.12164,0.227772 -0.23633,0.37029 -0.0315,0.03686 -0.13173,0.143786 -0.30062,0.320653 -0.16891,0.175599 -0.40713,0.421824 -0.71468,0.738663 m 2.46545,0 1.33293,0 0,0.324478 -1.79236,0 0,-0.324478 c 0.14495,-0.151426 0.3422,-0.354385 0.59177,-0.608876 0.25083,-0.25576 0.40839,-0.420545 0.47268,-0.494345 0.12227,-0.138693 0.20734,-0.25576 0.25524,-0.351198 0.0492,-0.09674 0.0737,-0.191506 0.0737,-0.284387 0,-0.151425 -0.0529,-0.274851 -0.15882,-0.37029 -0.10456,-0.09546 -0.24137,-0.143147 -0.41028,-0.143147 -0.11974,0 -0.24642,0.02105 -0.38003,0.06302 -0.13234,0.04198 -0.27414,0.105578 -0.4254,0.190878 l 0,-0.389371 c 0.15378,-0.06232 0.29747,-0.109415 0.43108,-0.141252 0.13361,-0.03174 0.25587,-0.04767 0.36679,-0.04767 0.29243,1.2e-5 0.5256,0.07384 0.69955,0.221412 0.17395,0.147612 0.26091,0.344838 0.26091,0.591691 0,0.117066 -0.0221,0.228411 -0.0662,0.334024 -0.0429,0.104299 -0.12163,0.227772 -0.23633,0.370279 -0.0315,0.03686 -0.13172,0.143786 -0.30061,0.320664 -0.16891,0.175599 -0.40714,0.421812 -0.71468,0.738651 m -2.46545,4.690781 1.33293,0 0,0.324478 -1.79237,0 0,-0.324478 c 0.14496,-0.151425 0.34222,-0.354372 0.59179,-0.608864 0.25082,-0.255771 0.40839,-0.420545 0.47267,-0.494356 0.12226,-0.138694 0.20734,-0.25576 0.25523,-0.351199 0.0492,-0.09674 0.0737,-0.191494 0.0737,-0.284386 0,-0.151425 -0.0529,-0.274852 -0.15881,-0.370291 -0.10467,-0.09546 -0.24139,-0.143146 -0.41029,-0.143146 -0.11975,0 -0.24641,0.02105 -0.38002,0.06302 -0.13235,0.04198 -0.27415,0.105578 -0.42541,0.190866 l 0,-0.389371 c 0.15378,-0.06232 0.29747,-0.109415 0.43107,-0.14124 0.13361,-0.03186 0.25588,-0.04767 0.3668,-0.04767 0.29243,0 0.52561,0.07383 0.69955,0.2214 0.17395,0.147612 0.26092,0.344838 0.26092,0.591691 0,0.117066 -0.0221,0.228411 -0.0662,0.334024 -0.0429,0.104299 -0.12163,0.227772 -0.23634,0.370279 -0.0315,0.03686 -0.13171,0.143798 -0.30061,0.320664 -0.16891,0.175599 -0.40713,0.421824 -0.71468,0.738663 m 2.14782,0.265305 0,-0.351198 c 0.0958,0.04581 0.19284,0.08081 0.29116,0.104997 0.0983,0.02419 0.19474,0.03628 0.28928,0.03628 0.25208,0 0.4443,-0.08523 0.57665,-0.25576 0.13361,-0.171785 0.20986,-0.431998 0.22878,-0.780649 -0.073,0.109415 -0.16576,0.193412 -0.27794,0.251945 -0.11223,0.05849 -0.23633,0.08779 -0.37246,0.08779 -0.28235,0 -0.50608,-0.08593 -0.67119,-0.257666 -0.16386,-0.173053 -0.24579,-0.409092 -0.24579,-0.708117 0,-0.292665 0.0857,-0.527437 0.25714,-0.704315 0.17142,-0.176867 0.39954,-0.265294 0.68443,-0.265306 0.32644,1.2e-5 0.57539,0.126613 0.74681,0.379837 0.17267,0.251946 0.25902,0.618411 0.25902,1.099396 0,0.449183 -0.10583,0.808009 -0.31764,1.0765 -0.21049,0.267213 -0.49409,0.400825 -0.8508,0.400825 -0.0958,0 -0.19285,-0.0093 -0.29116,-0.0286 -0.0983,-0.01907 -0.20042,-0.04767 -0.30629,-0.08593 m 0.76006,-1.208195 c 0.17141,0 0.30691,-0.05918 0.40648,-0.177506 0.10084,-0.118333 0.15127,-0.280572 0.15127,-0.486717 0,-0.204854 -0.0505,-0.366465 -0.15127,-0.484798 -0.0995,-0.119613 -0.23507,-0.179413 -0.40648,-0.179413 -0.17143,0 -0.30756,0.05976 -0.4084,0.179413 -0.0995,0.118333 -0.14937,0.279944 -0.14937,0.484798 0,0.206145 0.0498,0.368384 0.14937,0.486717 0.10084,0.118345 0.23697,0.177506 0.4084,0.177506"
           inkscape:connector-curvature="0"
           id="text2486"
           style="font-size:4px;font-style:normal;font-variant:normal;font-weight:normal;font-stretch:normal;text-align:center;line-height:120.00000477%;writing-mode:lr-tb;text-anchor:middle;fill:#ffffff;fill-opacity:1;stroke:none;font-family:Sans;-inkscape-font-specification:Sans" />
        <path
           d="m 219.64128,60.31069 1.33292,0 0,0.324476 -1.79235,0 0,-0.324476 c 0.14495,-0.151422 0.34222,-0.354378 0.59178,-0.60887 0.25083,-0.255762 0.40838,-0.420545 0.47267,-0.494348 0.12226,-0.138697 0.20735,-0.255762 0.25524,-0.351197 0.0492,-0.09671 0.0737,-0.191503 0.0737,-0.284395 0,-0.151419 -0.0529,-0.274847 -0.15881,-0.370283 -0.10468,-0.09543 -0.24138,-0.143149 -0.41028,-0.143152 -0.11975,3e-6 -0.24641,0.021 -0.38002,0.06299 -0.13235,0.04199 -0.27416,0.105613 -0.42541,0.190867 l 0,-0.38937 c 0.15378,-0.06235 0.29747,-0.109427 0.43107,-0.141243 0.13361,-0.03181 0.25588,-0.04772 0.3668,-0.04772 0.29242,4e-6 0.5256,0.0738 0.69955,0.221408 0.17393,0.147607 0.26092,0.344837 0.26092,0.591692 0,0.117067 -0.0221,0.228407 -0.0662,0.334018 -0.0429,0.104346 -0.12164,0.227771 -0.23634,0.370285 -0.0315,0.03691 -0.13172,0.143789 -0.30061,0.320659 -0.16891,0.175599 -0.40713,0.421819 -0.71468,0.73866 m -0.31763,4.956079 0,-0.351198 c 0.0958,0.04581 0.19284,0.08081 0.29116,0.104996 0.0983,0.02418 0.19474,0.03628 0.28927,0.03628 0.25209,0 0.4443,-0.08523 0.57666,-0.255771 0.1336,-0.171773 0.20986,-0.431998 0.22877,-0.780649 -0.073,0.109415 -0.16575,0.193412 -0.27792,0.251945 -0.11223,0.05849 -0.23635,0.08779 -0.37247,0.08779 -0.28235,0 -0.50608,-0.08593 -0.67119,-0.257678 -0.16387,-0.173053 -0.2458,-0.409092 -0.2458,-0.708117 0,-0.292662 0.0857,-0.527429 0.25714,-0.704302 0.17141,-0.176869 0.39956,-0.265304 0.68442,-0.265308 0.32646,4e-6 0.5754,0.126614 0.74682,0.379828 0.17268,0.251949 0.25902,0.618409 0.25902,1.099394 0,0.449183 -0.10583,0.808009 -0.31763,1.0765 -0.2105,0.267213 -0.4941,0.400825 -0.85081,0.400825 -0.0958,0 -0.19285,-0.0093 -0.29116,-0.0286 -0.0983,-0.01907 -0.20041,-0.04767 -0.30628,-0.08593 m 0.76004,-1.208206 c 0.17142,1.1e-5 0.30692,-0.05918 0.4065,-0.177506 0.10084,-0.118334 0.15125,-0.280573 0.15125,-0.486706 0,-0.204864 -0.0505,-0.366466 -0.15125,-0.484806 -0.0995,-0.119609 -0.23508,-0.179414 -0.4065,-0.179417 -0.17141,3e-6 -0.30755,0.05981 -0.40838,0.179417 -0.0995,0.11834 -0.14937,0.279942 -0.14937,0.484806 0,0.206133 0.0498,0.368372 0.14937,0.486706 0.10083,0.118345 0.23697,0.177517 0.40838,0.177506 m -1.93794,5.63367 0.62392,0 0,-2.173989 -0.67875,0.137426 0,-0.351199 0.67497,-0.137425 0.38191,0 0,2.525187 0.62394,0 0,0.324478 -1.62599,0 0,-0.324478 m 3.26331,-1.254007 c -0.17142,1.2e-5 -0.30755,0.05918 -0.40838,0.177518 -0.0996,0.118333 -0.14937,0.280572 -0.14937,0.486705 0,0.204866 0.0498,0.367105 0.14937,0.486717 0.10083,0.118334 0.23696,0.177506 0.40838,0.177506 0.17142,0 0.30692,-0.05918 0.4065,-0.177506 0.10083,-0.119612 0.15125,-0.281851 0.15125,-0.486717 0,-0.206133 -0.0505,-0.368372 -0.15125,-0.486705 -0.0996,-0.118345 -0.23508,-0.177506 -0.4065,-0.177518 m 0.75817,-1.208194 0,0.351198 c -0.0958,-0.04581 -0.19286,-0.08081 -0.29117,-0.104997 -0.097,-0.02419 -0.19348,-0.03628 -0.28927,-0.03628 -0.25209,0 -0.44495,0.08593 -0.57855,0.257666 -0.13236,0.171785 -0.20798,0.43137 -0.22689,0.778743 0.0743,-0.110695 0.16764,-0.19532 0.27983,-0.253853 0.11223,-0.05976 0.23571,-0.08976 0.37057,-0.08976 0.2836,0 0.50733,0.08721 0.67119,0.261491 0.16511,0.173053 0.24768,0.409092 0.24768,0.708117 0,0.292665 -0.0857,0.527437 -0.25714,0.704304 -0.17141,0.176866 -0.39956,0.265305 -0.68442,0.265305 -0.32646,0 -0.57602,-0.125973 -0.74872,-0.377918 -0.17267,-0.253213 -0.259,-0.61969 -0.259,-1.099396 0,-0.45045 0.10583,-0.809288 0.31762,-1.0765 0.21176,-0.268492 0.49599,-0.402732 0.8527,-0.402732 0.0958,0 0.19222,0.0093 0.28928,0.0286 0.0983,0.01907 0.20041,0.04767 0.30629,0.08593 m -3.75868,7.152982 1.33294,0 0,0.324478 -1.79238,0 0,-0.324478 c 0.14496,-0.151426 0.34222,-0.354384 0.59179,-0.608876 0.25083,-0.255759 0.40839,-0.420545 0.47266,-0.494345 0.12227,-0.138693 0.20735,-0.255759 0.25525,-0.351198 0.0492,-0.09674 0.0737,-0.191506 0.0737,-0.284398 -2e-5,-0.151414 -0.0529,-0.27484 -0.15883,-0.370279 -0.10455,-0.09546 -0.24138,-0.143147 -0.41026,-0.143147 -0.11976,0 -0.24644,0.02105 -0.38003,0.06302 -0.13235,0.04198 -0.27416,0.105578 -0.42542,0.190877 l 0,-0.389383 c 0.15378,-0.06232 0.29747,-0.109415 0.43108,-0.141239 0.13361,-0.03174 0.25588,-0.04767 0.3668,-0.04767 0.29243,1.1e-5 0.5256,0.07384 0.69955,0.221411 0.17394,0.147612 0.26091,0.344838 0.26091,0.591691 0,0.117066 -0.0221,0.228411 -0.0662,0.334024 -0.0429,0.104299 -0.12163,0.22776 -0.23633,0.370279 -0.0315,0.03686 -0.13172,0.143786 -0.30063,0.320664 -0.16889,0.175599 -0.40711,0.421813 -0.71467,0.738651 m 3.29358,-1.212008 c 0.18276,0.03942 0.32518,0.12152 0.42728,0.246213 0.10339,0.124706 0.15504,0.278678 0.15504,0.461904 0,0.281212 -0.0958,0.49881 -0.28739,0.65277 -0.19157,0.153972 -0.46384,0.230958 -0.81677,0.230958 -0.11847,0 -0.24074,-0.01209 -0.36679,-0.03628 -0.12478,-0.02291 -0.25398,-0.05791 -0.38759,-0.104996 l 0,-0.372186 c 0.10584,0.06232 0.22184,0.109415 0.34788,0.141239 0.12605,0.03186 0.25778,0.04767 0.39516,0.04767 0.23948,0 0.42162,-0.04767 0.5464,-0.143146 0.12605,-0.09546 0.18907,-0.234132 0.18907,-0.416103 0,-0.16796 -0.0586,-0.299026 -0.17583,-0.393186 -0.11596,-0.09546 -0.27793,-0.143146 -0.4859,-0.143146 l -0.32898,0 0,-0.316839 0.3441,0 c 0.1878,0 0.33151,-0.03756 0.43107,-0.112671 0.0996,-0.07639 0.14937,-0.185785 0.14937,-0.328303 0,-0.146321 -0.0518,-0.258306 -0.15503,-0.33592 -0.10212,-0.07883 -0.24895,-0.118333 -0.44053,-0.118345 -0.10467,1.2e-5 -0.2168,0.01163 -0.33654,0.03442 -0.11975,0.02291 -0.25147,0.05849 -0.39515,0.106858 l 0,-0.343559 c 0.14495,-0.0407 0.28044,-0.07128 0.40649,-0.09163 0.1273,-0.02035 0.24704,-0.03058 0.35923,-0.03058 0.2899,0 0.5193,0.06686 0.6882,0.200412 0.16891,0.132333 0.25336,0.311746 0.25336,0.538251 0,0.157786 -0.0447,0.291386 -0.13424,0.400824 -0.0896,0.108136 -0.2168,0.183227 -0.38191,0.225214 m -2.46545,4.690781 c 0.18275,0.03942 0.32519,0.12152 0.42729,0.246225 0.10339,0.124694 0.15503,0.278666 0.15503,0.461893 0,0.281223 -0.0958,0.498809 -0.28738,0.65277 -0.1916,0.153971 -0.46385,0.230957 -0.81678,0.230957 -0.11848,0 -0.24074,-0.01209 -0.36679,-0.03628 -0.12478,-0.02291 -0.25398,-0.05791 -0.38759,-0.104996 l 0,-0.372186 c 0.10583,0.06232 0.22185,0.109415 0.34789,0.14124 0.12604,0.03186 0.25775,0.04767 0.39515,0.04767 0.23948,0 0.42162,-0.04767 0.5464,-0.143146 0.12605,-0.09546 0.18907,-0.234132 0.18908,-0.416092 -1e-5,-0.167971 -0.0586,-0.299025 -0.17583,-0.393196 -0.11596,-0.09546 -0.27794,-0.143147 -0.48591,-0.143147 l -0.32897,0 0,-0.316839 0.3441,0 c 0.1878,0 0.33148,-0.03756 0.43107,-0.112671 0.0996,-0.07639 0.14936,-0.185784 0.14937,-0.328292 -1e-5,-0.146332 -0.0516,-0.258305 -0.15504,-0.335931 -0.10212,-0.07883 -0.24894,-0.118333 -0.44053,-0.118345 -0.10456,1.2e-5 -0.2168,0.01163 -0.33653,0.03442 -0.11976,0.02291 -0.25147,0.05849 -0.39516,0.106857 l 0,-0.343559 c 0.14494,-0.0407 0.28045,-0.07128 0.40648,-0.09163 0.12731,-0.02035 0.24705,-0.03058 0.35924,-0.03058 0.2899,0 0.51931,0.06674 0.68821,0.200413 0.1689,0.132333 0.25334,0.311757 0.25334,0.53825 0,0.157786 -0.0448,0.291386 -0.13423,0.400825 -0.0894,0.108136 -0.2168,0.183226 -0.38191,0.225213 m 2.12511,-1.059315 c -0.19662,0 -0.34473,0.09802 -0.4443,0.293944 -0.0983,0.19468 -0.14748,0.487985 -0.14748,0.879903 0,0.390638 0.0492,0.683943 0.14748,0.879902 0.0996,0.19468 0.24768,0.292025 0.4443,0.292025 0.1979,0 0.346,-0.09732 0.44432,-0.292025 0.0996,-0.195959 0.14936,-0.489264 0.14937,-0.879902 -1e-5,-0.391918 -0.0498,-0.685223 -0.14937,-0.879903 -0.0983,-0.195959 -0.24642,-0.293944 -0.44432,-0.293944 m 0,-0.305386 c 0.31638,0 0.55775,0.126613 0.72414,0.379826 0.16764,0.251945 0.25145,0.61841 0.25146,1.099407 -1e-5,0.479705 -0.0839,0.846182 -0.25146,1.099395 -0.16639,0.251945 -0.40776,0.377918 -0.72414,0.377918 -0.31637,0 -0.55837,-0.125973 -0.72601,-0.377918 -0.16638,-0.253213 -0.24957,-0.61969 -0.24957,-1.099395 0,-0.480997 0.0831,-0.847462 0.24957,-1.099407 0.16764,-0.253213 0.40964,-0.379826 0.72601,-0.379826"
           inkscape:connector-curvature="0"
           id="text2498"
           style="font-size:4px;font-style:normal;font-variant:normal;font-weight:normal;font-stretch:normal;text-align:center;line-height:120.00000477%;writing-mode:lr-tb;text-anchor:middle;fill:#ffffff;fill-opacity:1;stroke:none;font-family:Sans;-inkscape-font-specification:Sans" />
      </g>
      <g
         transform="matrix(1.025862,0,0,1.025862,14.266467,845.93898)"
         id="g13274">
        <path
           d="m 39.493998,79.924081 c -1.104356,0 -2.088894,-0.114648 -2.953611,-0.343815 -0.864735,-0.229202 -1.614858,-0.593842 -2.250378,-1.093919 -0.635523,-0.500089 -1.161651,-1.146033 -1.578387,-1.937822 -0.406315,-0.802219 -0.713659,-1.77113 -0.922026,-2.906733 l 4.578884,-0.671991 c 0.104207,0.61469 0.250036,1.135615 0.437572,1.562753 0.187533,0.416743 0.411521,0.760546 0.671986,1.031421 0.270859,0.26048 0.578213,0.453206 0.922028,0.578226 0.343802,0.114647 0.718863,0.171901 1.125186,0.171901 0.916809,0 1.609633,-0.307339 2.078466,-0.922029 0.479238,-0.614678 0.718861,-1.495034 0.718874,-2.641055 l 0,-11.548789 -4.391353,0 0,-3.609975 8.985859,0 0,15.049372 c -1.3e-5,1.114767 -0.161488,2.125351 -0.484452,3.031741 -0.322988,0.895995 -0.80223,1.661738 -1.437739,2.297264 -0.625113,0.625096 -1.401286,1.109558 -2.328512,1.453361 -0.916826,0.333385 -1.97429,0.500089 -3.172397,0.500089"
           inkscape:connector-curvature="0"
           id="path3933"
           style="font-size:18.63121033px;font-style:normal;font-variant:normal;font-weight:bold;font-stretch:normal;text-align:start;line-height:125%;writing-mode:lr-tb;text-anchor:start;fill:#ffffff;fill-opacity:1;stroke:none;font-family:Liberation Sans;-inkscape-font-specification:Abandoned Bitplane Bold" />
        <path
           d="m 66.823629,79.618253 -1.911373,-5.504755 -8.21127,0 -1.911374,5.504755 -4.510845,0 7.859575,-21.545013 5.321268,0 7.828989,21.545013 -4.46497,0 M 61.777599,64.526046 C 61.655274,64.169267 61.532921,63.812476 61.410616,63.455673 61.298478,63.088704 61.196541,62.7574 61.104793,62.461755 61.02323,62.155954 60.951866,61.9062 60.890718,61.712497 c -0.05099,-0.193665 -0.08156,-0.300704 -0.09175,-0.32111 -0.01023,0.0306 -0.04079,0.142735 -0.09175,0.3364 -0.05095,0.193693 -0.122325,0.438362 -0.214075,0.733968 -0.08156,0.295645 -0.183502,0.626949 -0.30582,0.993918 -0.112138,0.356803 -0.229377,0.713594 -0.351693,1.070373 l -2.125448,6.19285 6.192855,0 -2.125451,-6.19285"
           inkscape:connector-curvature="0"
           id="path3935"
           style="font-size:18.63121033px;font-style:normal;font-variant:normal;font-weight:bold;font-stretch:normal;text-align:start;line-height:125%;writing-mode:lr-tb;text-anchor:start;fill:#ffffff;fill-opacity:1;stroke:none;font-family:Liberation Sans;-inkscape-font-specification:Abandoned Bitplane Bold" />
        <path
           d="M 88.184104,79.618253 77.898058,63.027523 c 0.05581,0.448556 0.106091,0.897089 0.1508,1.345609 0.04468,0.387383 0.07819,0.805335 0.100508,1.253856 0.03351,0.448555 0.05027,0.876705 0.05027,1.284447 l 0,12.706818 -4.389165,0 0,-21.545013 5.645604,0 10.436823,16.728352 c -0.05585,-0.428138 -0.106138,-0.876681 -0.150801,-1.345608 -0.04472,-0.397558 -0.0838,-0.84609 -0.117271,-1.345609 -0.02236,-0.499496 -0.03353,-1.004096 -0.03353,-1.513801 l 0,-12.523334 4.389161,0 0,21.545013 -5.796371,0"
           inkscape:connector-curvature="0"
           id="path3937"
           style="font-size:18.63121033px;font-style:normal;font-variant:normal;font-weight:bold;font-stretch:normal;text-align:start;line-height:125%;writing-mode:lr-tb;text-anchor:start;fill:#ffffff;fill-opacity:1;stroke:none;font-family:Liberation Sans;-inkscape-font-specification:Abandoned Bitplane Bold" />
      </g>
      <g
         transform="matrix(1.025862,0,0,1.025862,14.266467,845.93898)"
         id="g13295">
        <path
           style="font-size:36px;font-style:normal;font-variant:normal;font-weight:bold;font-stretch:normal;text-align:start;line-height:125%;writing-mode:lr-tb;text-anchor:start;fill:#000000;fill-opacity:1;stroke:none;font-family:Liberation Sans;-inkscape-font-specification:Abandoned Bitplane Bold"
           id="path3947"
           inkscape:connector-curvature="0"
           d="m 123.35149,170.59649 c -6e-5,7.69527 -0.70484,14.19051 -2.11427,19.48571 -1.40959,5.25715 -3.37149,9.52382 -5.88571,12.79999 -2.47626,3.23811 -5.42862,5.58095 -8.85714,7.02858 -3.39054,1.40954 -7.104805,2.11429 -11.142881,2.11429 -4.0381,0 -7.752415,-0.70475 -11.142851,-2.11429 -3.390484,-1.40951 -6.304792,-3.73332 -8.742854,-6.97144 -2.43811,-3.27617 -4.342858,-7.54284 -5.714303,-12.79999 -1.371398,-5.29521 -2.057127,-11.80949 -2.057127,-19.54285 0,-8.11425 0.666678,-14.819 2.000011,-20.11429 1.371399,-5.33326 3.295232,-9.58088 5.771419,-12.74285 2.476175,-3.16183 5.428548,-5.37135 8.857144,-6.62857 3.466637,-1.29517 7.295219,-1.94277 11.485721,-1.94286 3.923751,9e-5 7.561861,0.64769 10.914271,1.94286 3.39042,1.25722 6.30473,3.46674 8.74286,6.62857 2.47613,3.16197 4.39994,7.40959 5.77144,12.74285 1.40943,5.29529 2.11421,12.00004 2.11427,20.11429 m -16.11428,0 c -3e-5,-5.67615 -0.20963,-10.36186 -0.62856,-14.05715 -0.41908,-3.73327 -1.08578,-6.68566 -2,-8.85713 -0.91433,-2.20947 -2.11434,-3.75232 -3.6,-4.6286 -1.447656,-0.8761 -3.219087,-1.31419 -5.314291,-1.31427 -2.247642,8e-5 -4.133363,0.45721 -5.657129,1.37142 -1.523824,0.87628 -2.761964,2.41912 -3.714291,4.6286 -0.914332,2.20957 -1.580975,5.181 -2.000011,8.91426 -0.380971,3.69529 -0.571462,8.34291 -0.571439,13.94287 -2.3e-5,5.52384 0.209356,10.13335 0.628589,13.82855 0.419002,3.69527 1.085668,6.66669 2,8.9143 0.91425,2.20955 2.114266,3.77144 3.600013,4.68571 1.485654,0.9143 3.314247,1.37145 5.485722,1.37143 2.095182,2e-5 3.885663,-0.45713 5.371397,-1.37143 1.48569,-0.91427 2.70471,-2.47616 3.65713,-4.68571 0.95236,-2.24761 1.63808,-5.21903 2.05717,-8.9143 0.45709,-3.6952 0.68567,-8.30471 0.6857,-13.82855" />
        <path
           style="font-size:36px;font-style:normal;font-variant:normal;font-weight:bold;font-stretch:normal;text-align:start;line-height:125%;writing-mode:lr-tb;text-anchor:start;fill:#000000;fill-opacity:1;stroke:none;font-family:Liberation Sans;-inkscape-font-specification:Abandoned Bitplane Bold"
           id="path3949"
           inkscape:connector-curvature="0"
           d="m 143.05538,212.02506 0,-12.2904 15.78606,0 0,-54.14363 -15.13917,12.40797 0,-15.36458 16.02126,-13.4665 15.6423,0 0,70.56674 14.25711,0 0,12.2904 -46.56753,0" />
      </g>
      <g
         transform="matrix(1.025862,0,0,1.025862,14.266467,845.93898)"
         id="g13288" />
      <path
         id="path3857"
         transform="translate(18.044873,850.4474)"
         d="M 26 9 C 16.582003 9 9 16.582 9 26 L 9 28 C 9 18.582 16.582003 11 26 11 L 65.65625 11 L 65.65625 9 L 26 9 z M 77 9 L 77 11 L 179 11 L 179 9 L 77 9 z M 190.34375 9 L 190.34375 11 L 230 11 C 239.41799 11 247 18.582 247 28 L 247 26 C 247 16.582 239.41799 9 230 9 L 190.34375 9 z M 82.59375 26.9375 C 82.151767 32.377219 77.908585 36.731979 72.5 37.28125 C 72.119006 37.319942 71.734952 37.34375 71.34375 37.34375 C 65.433549 37.34375 60.586455 32.806255 60.0625 27.03125 C 60.057016 27.095447 60.035658 27.154225 60.03125 27.21875 C 60.01369 27.47573 60 27.73806 60 28 C 60 34.25922 65.084516 39.34375 71.34375 39.34375 C 71.734952 39.34375 72.119006 39.31995 72.5 39.28125 C 78.214907 38.70087 82.65625 33.86802 82.65625 28 C 82.65625 27.639602 82.626637 27.288462 82.59375 26.9375 z M 195.9375 26.9375 C 195.49252 32.377219 191.22108 36.731979 185.8125 37.28125 C 185.43151 37.319942 185.04745 37.34375 184.65625 37.34375 C 178.78821 37.34375 173.98434 32.872292 173.40625 27.15625 C 173.38524 27.438226 173.34375 27.712081 173.34375 28 C 173.34375 34.25922 178.39701 39.34375 184.65625 39.34375 C 185.04745 39.34375 185.43151 39.31995 185.8125 39.28125 C 191.5274 38.70087 196 33.86802 196 28 C 196 27.639602 195.97039 27.288462 195.9375 26.9375 z "
         style="fill:#ffffff;fill-opacity:1;fill-rule:nonzero;stroke:none;opacity:0.5" />
      <path
         id="path3862"
         transform="translate(18.044873,850.4474)"
         d="M 65.65625 14.25 C 62.485251 16.08836 60.294593 19.36407 60.03125 23.21875 C 60.01369 23.47573 60 23.73806 60 24 C 60 24.349032 60.031557 24.690201 60.0625 25.03125 C 60.384618 21.260394 62.538332 18.057589 65.65625 16.25 L 65.65625 14.25 z M 77 14.25 L 77 16.25 C 80.091548 18.042298 82.244192 21.207095 82.59375 24.9375 C 82.618782 24.629415 82.65625 24.314529 82.65625 24 C 82.65625 19.80891 80.382406 16.21092 77 14.25 z M 179 14.25 C 178.5772 14.49511 178.16742 14.76855 177.78125 15.0625 C 175.07809 17.12015 173.34375 20.3328 173.34375 24 C 173.34375 24.380659 173.36974 24.75391 173.40625 25.125 C 173.66097 21.828569 175.29814 18.952646 177.78125 17.0625 C 178.16742 16.76855 178.5772 16.495115 179 16.25 L 179 14.25 z M 190.34375 14.25 L 190.34375 16.25 C 193.43528 18.042298 195.58794 21.207095 195.9375 24.9375 C 195.9627 24.629415 196 24.314529 196 24 C 196 19.80891 193.72614 16.21092 190.34375 14.25 z M 9 228 L 9 230 C 9 239.4181 16.582003 247 26 247 L 230 247 C 239.41799 247 247 239.4181 247 230 L 247 228 C 247 237.4181 239.41799 245 230 245 L 26 245 C 16.582003 245 9 237.4181 9 228 z "
         style="fill:#000000;fill-opacity:1;fill-rule:nonzero;stroke:none;opacity:0.5" />
      <path
         inkscape:connector-curvature="0"
         style="opacity:0.2;fill:#000000;fill-opacity:1;fill-rule:nonzero;stroke:none"
         d="m 83.701123,866.6974 c -3.170999,1.83836 -5.361657,5.11407 -5.625,8.96875 -0.01756,0.25698 -0.03125,0.51931 -0.03125,0.78125 0,0.34903 0.03156,0.6902 0.0625,1.03125 0.322118,-3.77086 2.475832,-6.97366 5.59375,-8.78125 l 0,-2 z m 11.34375,0 0,2 c 3.091548,1.7923 5.244187,4.95709 5.593747,8.6875 0.025,-0.30809 0.0625,-0.62297 0.0625,-0.9375 0,-4.19109 -2.273841,-7.78908 -5.656247,-9.75 z m 101.999997,0 c -0.4228,0.24511 -0.83258,0.51855 -1.21875,0.8125 -2.70316,2.05765 -4.4375,5.2703 -4.4375,8.9375 0,0.38066 0.026,0.75391 0.0625,1.125 0.25472,-3.29643 1.89189,-6.17235 4.375,-8.0625 0.38617,-0.29395 0.79595,-0.56739 1.21875,-0.8125 l 0,-2 z m 11.34375,0 0,2 c 3.09153,1.7923 5.24419,4.95709 5.59375,8.6875 0.0252,-0.30809 0.0625,-0.62297 0.0625,-0.9375 0,-4.19109 -2.27386,-7.78908 -5.65625,-9.75 z m -181.343747,213.75 0,2 c 0,9.4181 7.582003,17 17,17 l 203.999997,0 c 9.41799,0 17,-7.5819 17,-17 l 0,-2 c 0,9.4181 -7.58201,17 -17,17 l -203.999997,0 c -9.417997,0 -17,-7.5819 -17,-17 z"
         id="path3867" />
    </g>
  </g>
</svg>
