<?xml version="1.0" encoding="UTF-8" standalone="no"?>
<!-- Created with Inkscape (http://www.inkscape.org/) -->

<svg
   xmlns:dc="http://purl.org/dc/elements/1.1/"
   xmlns:cc="http://creativecommons.org/ns#"
   xmlns:rdf="http://www.w3.org/1999/02/22-rdf-syntax-ns#"
   xmlns:svg="http://www.w3.org/2000/svg"
   xmlns="http://www.w3.org/2000/svg"
   xmlns:xlink="http://www.w3.org/1999/xlink"
   xmlns:sodipodi="http://sodipodi.sourceforge.net/DTD/sodipodi-0.dtd"
   xmlns:inkscape="http://www.inkscape.org/namespaces/inkscape"
   width="256"
   height="256"
   id="svg4784"
   version="1.1"
   inkscape:version="0.48.1 r9760"
   sodipodi:docname="evolution-memos.svg">
  <defs
     id="defs4786">
    <filter
       id="filter3810"
       color-interpolation-filters="sRGB">
      <feGaussianBlur
         stdDeviation="1.2600071"
         id="feGaussianBlur3812" />
    </filter>
    <linearGradient
       gradientTransform="translate(50,0)"
       gradientUnits="userSpaceOnUse"
       xlink:href="#ButtonColor"
       id="linearGradient3804"
       y2="5.9877172"
       x2="48"
       y1="90"
       x1="48" />
    <clipPath
       id="clipPath3800">
      <path
         style="fill:url(#linearGradient3804);fill-opacity:1;fill-rule:nonzero;stroke:none"
         id="path3802"
         inkscape:connector-curvature="0"
         d="m 62,6 c -3.324,0 -6,2.676 -6,6 l 0,0.53125 C 56,8.9207 58.9207,6 62.53125,6 L 62,6 z m 71.46875,0 C 137.0793,6 140,8.9207 140,12.53125 L 140,12 c 0,-3.324 -2.676,-6 -6,-6 l -0.53125,0 z M 140,12.53125 c 0,36.73465 -3.54263,60.10471 -7.84375,69.9375 C 121.33994,87.4996 96.479512,90 62.53125,90 L 134,90 c 3.324,0 6,-2.676 6,-6 l 0,-71.46875 z M 62.53125,90 C 58.9207,89.9945 56,87.0793 56,83.46875 L 56,84 c 0,3.324 2.676,6 6,6 l 0.53125,0 z" />
    </clipPath>
    <linearGradient
       gradientTransform="matrix(1.0172414,0,0,1.0172414,-1.1034483,-1.1034483)"
       gradientUnits="userSpaceOnUse"
       id="ButtonColor"
       y2="5.4252338"
       x2="58.650177"
       y1="122"
       x1="58.650177">
      <stop
         offset="0"
         style="stop-color:#8ebbff;stop-opacity:1;"
         id="stop3189" />
      <stop
         offset="1"
         style="stop-color:#4890fd;stop-opacity:1;"
         id="stop3191" />
    </linearGradient>
    <linearGradient
       gradientUnits="userSpaceOnUse"
       xlink:href="#linearGradient3737"
       id="linearGradient3613"
       y2="138.66119"
       x2="48"
       y1="20.220806"
       x1="48" />
    <filter
       id="filter3794"
       color-interpolation-filters="sRGB"
       height="1.3839999"
       width="1.3839999"
       y="-0.192"
       x="-0.192">
      <feGaussianBlur
         stdDeviation="5.28"
         id="feGaussianBlur3796" />
    </filter>
    <filter
       id="filter3174"
       color-interpolation-filters="sRGB">
      <feGaussianBlur
         stdDeviation="1.71"
         id="feGaussianBlur3176" />
    </filter>
    <linearGradient
       id="linearGradient3737">
      <stop
         offset="0"
         style="stop-color:#ffffff;stop-opacity:1"
         id="stop3739" />
      <stop
         offset="1"
         style="stop-color:#ffffff;stop-opacity:0"
         id="stop3741" />
    </linearGradient>
    <linearGradient
       gradientTransform="scale(1.0058652,0.994169)"
       gradientUnits="userSpaceOnUse"
       id="ButtonShadow"
       y2="7.0165396"
       x2="45.447727"
       y1="92.539597"
       x1="45.447727">
      <stop
         offset="0"
         style="stop-color:#000000;stop-opacity:1"
         id="stop3750" />
      <stop
         offset="1"
         style="stop-color:#000000;stop-opacity:0.58823532"
         id="stop3752" />
    </linearGradient>
    <linearGradient
       inkscape:collect="always"
       xlink:href="#linearGradient3737"
       id="linearGradient4660"
       gradientUnits="userSpaceOnUse"
       x1="48"
       y1="20.220806"
       x2="48"
       y2="138.66119" />
    <linearGradient
       inkscape:collect="always"
       xlink:href="#linearGradient3737"
       id="linearGradient4704"
       gradientUnits="userSpaceOnUse"
       x1="48"
       y1="20.220806"
       x2="48"
       y2="138.66119" />
    <linearGradient
       inkscape:collect="always"
       xlink:href="#ButtonShadow"
       id="linearGradient4732"
       gradientUnits="userSpaceOnUse"
       gradientTransform="scale(1.0058652,0.994169)"
       x1="45.447727"
       y1="92.539597"
       x2="45.447727"
       y2="7.0165396" />
    <linearGradient
       inkscape:collect="always"
       xlink:href="#linearGradient3737"
       id="linearGradient4735"
       gradientUnits="userSpaceOnUse"
       gradientTransform="matrix(2.761903,0,0,2.761903,858.33391,658.46677)"
       x1="36.357143"
       y1="6"
       x2="36.357143"
       y2="63.893143" />
    <linearGradient
       inkscape:collect="always"
       xlink:href="#linearGradient3737"
       id="linearGradient4739"
       gradientUnits="userSpaceOnUse"
       gradientTransform="matrix(2.761903,0,0,2.761903,858.33391,658.46677)"
       x1="82.08036"
       y1="82.290176"
       x2="59.611588"
       y2="59.821404" />
    <linearGradient
       inkscape:collect="always"
       xlink:href="#ButtonColor"
       id="linearGradient4742"
       gradientUnits="userSpaceOnUse"
       gradientTransform="matrix(1.9661004,0,0,1.9661004,865.07483,665.20769)"
       x1="59.387539"
       y1="44.471016"
       x2="110.98586"
       y2="112.4099" />
    <radialGradient
       inkscape:collect="always"
       xlink:href="#linearGradient3737"
       id="radialGradient4747"
       gradientUnits="userSpaceOnUse"
       gradientTransform="matrix(3.196386,0,0,2.7506005,837.47872,659.01123)"
       cx="48"
       cy="90.171875"
       fx="48"
       fy="90.171875"
       r="42" />
    <linearGradient
       inkscape:collect="always"
       xlink:href="#ButtonColor"
       id="linearGradient4750"
       gradientUnits="userSpaceOnUse"
       gradientTransform="matrix(2.761903,0,0,2.761903,858.33391,658.46677)"
       x1="48"
       y1="90"
       x2="48"
       y2="5.9877172" />
    <filter
       id="filter6550"
       inkscape:collect="always">
      <feGaussianBlur
         id="feGaussianBlur6552"
         stdDeviation="2.3220039"
         inkscape:collect="always" />
    </filter>
    <linearGradient
       inkscape:collect="always"
       id="linearGradient3324">
      <stop
         style="stop-color:white;stop-opacity:1"
         offset="0"
         id="stop3326" />
      <stop
         style="stop-color:black;stop-opacity:1"
         offset="1"
         id="stop3328" />
    </linearGradient>
    <linearGradient
       inkscape:collect="always"
       id="linearGradient3304">
      <stop
         style="stop-color:black;stop-opacity:1;"
         offset="0"
         id="stop3306" />
      <stop
         style="stop-color:white;stop-opacity:1"
         offset="1"
         id="stop3308" />
    </linearGradient>
    <linearGradient
       inkscape:collect="always"
       xlink:href="#linearGradient3304"
       id="linearGradient5888"
       gradientUnits="userSpaceOnUse"
       gradientTransform="translate(-32.01783,-3.370298)"
       spreadMethod="reflect"
       x1="2.2365794"
       y1="27.135923"
       x2="11.564704"
       y2="27.135923" />
    <radialGradient
       inkscape:collect="always"
       xlink:href="#linearGradient3324"
       id="radialGradient5890"
       gradientUnits="userSpaceOnUse"
       gradientTransform="matrix(1.254047,-0.00738803,0.00419853,0.712659,4.848481,59.06178)"
       cx="-22.652594"
       cy="215.87097"
       fx="-22.652594"
       fy="215.87097"
       r="8.7552967" />
  </defs>
  <sodipodi:namedview
     id="base"
     pagecolor="#ffffff"
     bordercolor="#666666"
     borderopacity="1.0"
     inkscape:pageopacity="0.0"
     inkscape:pageshadow="2"
     inkscape:zoom="1.6914062"
     inkscape:cx="128"
     inkscape:cy="128"
     inkscape:document-units="px"
     inkscape:current-layer="layer1"
     showgrid="false"
     fit-margin-top="0"
     fit-margin-left="0"
     fit-margin-right="0"
     fit-margin-bottom="0"
     inkscape:window-width="1024"
     inkscape:window-height="576"
     inkscape:window-x="0"
     inkscape:window-y="24"
     inkscape:window-maximized="1"
     inkscape:snap-bbox="true"
     inkscape:bbox-paths="true"
     inkscape:bbox-nodes="true"
     inkscape:snap-bbox-edge-midpoints="true"
     inkscape:snap-bbox-midpoints="true"
     inkscape:object-paths="true"
     inkscape:snap-intersection-paths="true"
     inkscape:object-nodes="true"
     inkscape:snap-smooth-nodes="true"
     inkscape:snap-midpoints="true"
     inkscape:snap-object-midpoints="true"
     inkscape:snap-center="true" />
  <metadata
     id="metadata4789">
    <rdf:RDF>
      <cc:Work
         rdf:about="">
        <dc:format>image/svg+xml</dc:format>
        <dc:type
           rdf:resource="http://purl.org/dc/dcmitype/StillImage" />
        <dc:title></dc:title>
      </cc:Work>
    </rdf:RDF>
  </metadata>
  <g
     inkscape:label="Layer 1"
     inkscape:groupmode="layer"
     id="layer1"
     transform="translate(-862.91189,-663.02504)">
    <g
       id="layer2"
       style="display:none"
       transform="translate(959.81263,727.6835)">
      <rect
         width="86"
         height="85"
         rx="6"
         ry="6"
         x="5"
         y="7"
         id="rect3745"
         style="opacity:0.9;fill:url(#linearGradient4732);fill-opacity:1;fill-rule:nonzero;stroke:none;filter:url(#filter3174)" />
    </g>
    <g
       id="g4762">
      <g
         id="g4756">
        <rect
           style="opacity:0.05;fill:none;stroke:#000000;stroke-width:23.99999809;stroke-linejoin:round;stroke-miterlimit:4;stroke-opacity:1;stroke-dasharray:none"
           id="rect4698"
           y="675.03809"
           x="874.90533"
           ry="16.571419"
           rx="16.571419"
           height="231.99986"
           width="231.99986" />
        <rect
           width="231.99986"
           height="231.99986"
           rx="16.571419"
           ry="16.571419"
           x="874.90533"
           y="675.03809"
           id="rect4696"
           style="opacity:0.1;fill:none;stroke:#000000;stroke-width:18.00000191;stroke-linejoin:round;stroke-miterlimit:4;stroke-opacity:1;stroke-dasharray:none" />
        <rect
           style="opacity:0.15;fill:none;stroke:#000000;stroke-width:11.99999905;stroke-linejoin:round;stroke-miterlimit:4;stroke-opacity:1;stroke-dasharray:none"
           id="rect4694"
           y="675.03809"
           x="874.90533"
           ry="16.571419"
           rx="16.571419"
           height="231.99986"
           width="231.99986" />
        <rect
           width="231.99986"
           height="231.99986"
           rx="16.571419"
           ry="16.571419"
           x="874.90533"
           y="675.03809"
           id="rect4692"
           style="opacity:0.2;fill:none;stroke:#000000;stroke-width:5.99999952;stroke-linejoin:round;stroke-miterlimit:4;stroke-opacity:1;stroke-dasharray:none" />
      </g>
      <rect
         width="231.99986"
         height="231.99986"
         rx="16.571419"
         ry="16.571419"
         x="874.90533"
         y="675.03809"
         id="rect2419"
         style="fill:url(#linearGradient4750);fill-opacity:1;fill-rule:nonzero;stroke:none" />
      <path
         d="m 891.47674,907.03804 c -9.18056,0 -16.57142,-7.39085 -16.57142,-16.57142 l 0,-5.52381 0,-187.8094 0,-5.5238 c 0,-0.92447 0.11407,-1.79717 0.25879,-2.6756 0.13451,-0.81641 0.2679,-1.6486 0.51787,-2.41667 0.0276,-0.084 0.0577,-0.17565 0.0861,-0.25879 0.27315,-0.79478 0.64872,-1.51199 1.03572,-2.24403 0.39934,-0.75542 0.8717,-1.47934 1.38094,-2.15774 0.50925,-0.67844 1.03235,-1.30768 1.63989,-1.89882 1.21509,-1.18226 2.60422,-2.24965 4.14285,-3.02083 0.76933,-0.38559 1.58387,-0.68204 2.41667,-0.9494 -0.7076,0.2768 -1.34426,0.65256 -1.98512,1.03571 -0.0194,0.011 -0.066,-0.0139 -0.0862,0 -0.0881,0.0533 -0.17206,0.11739 -0.25879,0.17262 -0.33253,0.21185 -0.63805,0.4516 -0.94941,0.69047 -0.29323,0.22318 -0.58905,0.44498 -0.86309,0.69049 -0.49143,0.44585 -0.95965,0.95392 -1.38095,1.46725 -0.29713,0.35977 -0.60317,0.73268 -0.8631,1.12203 -0.0693,0.10603 -0.10636,0.23724 -0.17262,0.34524 -0.17897,0.28456 -0.35967,0.56486 -0.51785,0.86309 -0.27898,0.53777 -0.56804,1.14812 -0.77678,1.72619 -0.0221,0.0603 -0.0651,0.11213 -0.0861,0.17262 -0.0879,0.25382 -0.0989,0.51601 -0.17261,0.77679 -0.0837,0.29447 -0.19444,0.56074 -0.25879,0.86309 -0.20135,0.94322 -0.34524,1.92836 -0.34524,2.93452 l 0,5.52381 0,187.8094 0,5.52381 c 0,7.68319 6.12632,13.80951 13.80952,13.80951 l 5.52381,0 187.80941,0 5.5238,0 c 7.6833,0 13.8095,-6.12632 13.8095,-13.80951 l 0,-5.52381 0,-187.8094 0,-5.52381 c 0,-1.00616 -0.1437,-1.9913 -0.3453,-2.93452 -0.1215,-0.57141 -0.243,-1.09829 -0.4313,-1.63988 -0.028,-0.0605 -0.064,-0.11241 -0.085,-0.17262 -0.174,-0.47986 -0.3822,-1.01486 -0.604,-1.46726 -0.116,-0.22869 -0.2182,-0.46939 -0.3453,-0.69047 -0.1519,-0.26846 -0.3502,-0.52021 -0.5178,-0.77679 -0.2597,-0.38935 -0.5659,-0.76226 -0.8631,-1.12203 -0.3955,-0.48181 -0.8375,-0.95837 -1.2948,-1.38094 -0.03,-0.0281 -0.055,-0.0585 -0.086,-0.0861 -0.3823,-0.34679 -0.7874,-0.6475 -1.2084,-0.94941 -0.2833,-0.20189 -0.5642,-0.42356 -0.8631,-0.60416 -0.027,-0.0139 -0.066,0.011 -0.085,0 -0.6408,-0.38316 -1.2774,-0.75892 -1.9851,-1.03572 0.8328,0.26735 1.6473,0.56382 2.4168,0.94941 1.5386,0.77117 2.9276,1.83857 4.1428,3.02083 0.6076,0.59113 1.1305,1.22037 1.6398,1.8988 0.5093,0.67841 0.9815,1.40234 1.3809,2.15774 0.3872,0.73204 0.7628,1.44926 1.0357,2.24405 0.028,0.085 0.058,0.17317 0.085,0.25879 0.2485,0.76806 0.3833,1.60025 0.5178,2.41667 0.1436,0.87842 0.2596,1.75112 0.2596,2.67558 l 0,5.52381 0,187.80941 0,5.5238 c 0,9.18057 -7.3909,16.57142 -16.5715,16.57142 l -198.8569,0 z"
         inkscape:connector-curvature="0"
         id="path3615"
         style="opacity:0.2;fill:url(#radialGradient4747);fill-opacity:1;fill-rule:nonzero;stroke:none" />
      <path
         d="M 62.51724,6 C 58.90669,6 56,8.90669 56,12.517241 l 0,70.965519 c 0,3.610548 2.90669,6.511737 6.51724,6.51724 33.948262,0 61.15737,0.163148 73.40225,-3.796268 C 139.14918,76.192373 140,49.251888 140,12.517241 140,8.90669 137.09331,6 133.48276,6 L 62.51724,6 z"
         inkscape:connector-curvature="0"
         transform="matrix(2.761903,0,0,2.761903,720.23875,658.46677)"
         clip-path="url(#clipPath3800)"
         id="path3785"
         style="opacity:0.5;fill:#3875d0;fill-opacity:1;stroke:none;display:inline;filter:url(#filter3810)" />
      <path
         d="m 892.90531,675.03818 c -9.97199,0 -17.99999,8.028 -17.99999,17.99999 l 0,195.99989 c 0,9.97199 8.028,17.98479 17.99999,17.99998 93.76171,0 162.49909,-6.94734 192.37269,-20.84207 11.8792,-27.1572 21.6271,-91.70026 21.6271,-193.1578 0,-9.97199 -8.0281,-17.99999 -17.9999,-17.99999 l -195.99989,0 z"
         inkscape:connector-curvature="0"
         id="path3177"
         style="fill:url(#linearGradient4742);fill-opacity:1;stroke:none;display:inline" />
      <path
         d="m 1100.1729,679.00843 c 2.4723,3.08126 3.9703,7.03105 3.9703,11.30654 0,101.45754 -9.7844,166.00337 -21.6635,193.16059 -29.8737,13.89469 -98.53591,20.80058 -192.29759,20.80058 -4.27549,-0.005 -8.22528,-1.49931 -11.30655,-3.97024 3.2936,4.10269 8.37194,6.72347 14.06844,6.73214 93.76169,0 162.424,-6.90589 192.2976,-20.80058 11.8791,-27.15721 21.6635,-91.70305 21.6635,-193.16059 0,-5.69651 -2.6266,-10.77485 -6.7322,-14.06844 z"
         inkscape:connector-curvature="0"
         id="path3814"
         style="opacity:0.3;fill:url(#linearGradient4739);fill-opacity:1;stroke:none;display:inline" />
      <path
         d="m 1106.8189,711.71971 c -1.1194,90.73819 -10.4441,149.06615 -21.5773,174.51775 -28.0066,13.02629 -90.11735,19.90012 -175.03571,20.71428 85.24647,-0.27592 151.02321,-2.77937 179.00591,-15.79464 11.1368,-25.45989 16.926,-88.10675 17.6071,-179.43739 z"
         inkscape:connector-curvature="0"
         id="path3831"
         style="opacity:0.20000000000000001;fill:#002255;fill-opacity:1;stroke:none;display:inline" />
      <path
         d="m 891.47674,675.03818 c -9.18056,0 -16.57142,7.39086 -16.57142,16.57143 l 0,5.5238 0,187.8094 0,5.52381 c 0,0.92446 0.11407,1.79718 0.25879,2.6756 0.13451,0.81642 0.2679,1.64861 0.51787,2.41666 0.0276,0.084 0.0577,0.17566 0.0861,0.25879 0.27315,0.7948 0.64872,1.512 1.03572,2.24405 0.39934,0.75541 0.8717,1.4793 1.38094,2.15773 0.50925,0.67841 1.03235,1.30769 1.63989,1.89881 1.21509,1.18227 2.60422,2.24965 4.14285,3.02083 0.76933,0.3856 1.58387,0.68205 2.41667,0.94941 -0.7076,-0.2768 -1.34426,-0.65256 -1.98512,-1.03571 -0.0194,-0.011 -0.066,0.0139 -0.0862,0 -0.0881,-0.0533 -0.17206,-0.11738 -0.25879,-0.17262 -0.33253,-0.21184 -0.63805,-0.4516 -0.94941,-0.69048 -0.29323,-0.22316 -0.58905,-0.44497 -0.86309,-0.69048 -0.49143,-0.44585 -0.95965,-0.95393 -1.38095,-1.46726 -0.29713,-0.35976 -0.60317,-0.7327 -0.8631,-1.12201 -0.0693,-0.10604 -0.10636,-0.23725 -0.17262,-0.34525 -0.17897,-0.28456 -0.35967,-0.56486 -0.51785,-0.86309 -0.27898,-0.53777 -0.56804,-1.14812 -0.77678,-1.72619 -0.0221,-0.0602 -0.0651,-0.11186 -0.0861,-0.17262 -0.0879,-0.25382 -0.0989,-0.51601 -0.17261,-0.77679 -0.0837,-0.29447 -0.19444,-0.56075 -0.25879,-0.86309 -0.20135,-0.94321 -0.34524,-1.92839 -0.34524,-2.93452 l 0,-5.52381 0,-187.8094 0,-5.52381 c 0,-7.6832 6.12632,-13.80952 13.80952,-13.80952 l 5.52381,0 187.80941,0 5.5238,0 c 7.6833,0 13.8095,6.12632 13.8095,13.80952 l 0,5.52381 0,187.8094 0,5.52381 c 0,1.00613 -0.1437,1.99131 -0.3453,2.93452 -0.1215,0.57141 -0.243,1.0983 -0.4313,1.63988 -0.028,0.0608 -0.064,0.11241 -0.085,0.17262 -0.174,0.47985 -0.3822,1.01486 -0.604,1.46726 -0.116,0.22869 -0.2182,0.46939 -0.3453,0.69047 -0.1519,0.26847 -0.3502,0.52021 -0.5178,0.7768 -0.2597,0.38931 -0.5659,0.76225 -0.8631,1.12201 -0.3955,0.48182 -0.8375,0.95838 -1.2948,1.38095 -0.03,0.0281 -0.055,0.0585 -0.086,0.0861 -0.3823,0.34679 -0.7874,0.64751 -1.2084,0.9494 -0.2833,0.20218 -0.5642,0.42357 -0.8631,0.60418 -0.027,0.0139 -0.066,-0.011 -0.085,0 -0.6408,0.38315 -1.2774,0.75892 -1.9851,1.03571 0.8328,-0.26735 1.6473,-0.56381 2.4168,-0.9494 1.5386,-0.77118 2.9276,-1.83858 4.1428,-3.02083 0.6076,-0.59114 1.1305,-1.22041 1.6398,-1.89882 0.5093,-0.67843 0.9815,-1.40232 1.3809,-2.15774 0.3872,-0.73204 0.7628,-1.44925 1.0357,-2.24403 0.028,-0.0851 0.058,-0.17318 0.085,-0.2588 0.2485,-0.76806 0.3833,-1.60025 0.5178,-2.41666 0.1436,-0.87843 0.2596,-1.75113 0.2596,-2.6756 l 0,-5.5238 0,-187.8094 0,-5.52381 c 0,-9.18057 -7.3909,-16.57142 -16.5715,-16.57142 l -198.8569,0 z"
         inkscape:connector-curvature="0"
         id="rect3728"
         style="opacity:0.6;fill:url(#linearGradient4735);fill-opacity:1;fill-rule:nonzero;stroke:none" />
      <path
         d="m 891.47674,675.03818 c -9.18056,0 -16.57142,7.39086 -16.57142,16.57143 l 0,16.57142 231.99978,0 0,-16.57142 c 0,-9.18057 -7.3909,-16.57143 -16.5715,-16.57143 l -198.85686,0 z"
         inkscape:connector-curvature="0"
         id="rect3839"
         style="opacity:0.35;fill:#ffffff;fill-opacity:1;fill-rule:nonzero;stroke:none" />
    </g>
    <g
       transform="matrix(0.86549158,-0.79105421,0.79105421,0.86549158,952.11867,700.58302)"
       id="g3332">
      <path
         inkscape:connector-curvature="0"
         style="fill:#000000;fill-opacity:1;stroke:none"
         d="m -20.0625,0.25 -9.71875,47.03125 0.25,0 0,159.46875 c 0,4.21945 3.405545,7.625 7.625,7.625 l 3.15625,0 c 4.219455,0 7.625,-3.40554 7.625,-7.625 l 0,-159.9375 L -20.0625,0.25 z"
         id="rect3291"
         sodipodi:nodetypes="ccccccccc" />
      <rect
         style="fill:#666666;fill-opacity:1;stroke:none"
         id="rect3296"
         width="6.3193083"
         height="162.61687"
         x="-29.490105"
         y="46.620247" />
      <rect
         style="fill:#e6e6e6;fill-opacity:1;stroke:none"
         id="rect3300"
         width="6.3193083"
         height="162.61687"
         x="-17.694063"
         y="46.198959" />
      <rect
         y="46.198959"
         x="-23.170797"
         height="162.61687"
         width="6.3193083"
         id="rect3298"
         style="fill:#cccccc;fill-opacity:1;stroke:none" />
      <path
         inkscape:connector-curvature="0"
         sodipodi:nodetypes="ccccc"
         id="path3302"
         d="m -20.0625,0.24999997 -9.71875,47.03125003 0.25,0 L -11.125,46.8125 -20.0625,0.24999997 z"
         style="fill:url(#linearGradient5888);fill-opacity:1;stroke:none" />
      <path
         inkscape:connector-curvature="0"
         style="fill:#000000;fill-opacity:1;stroke:none"
         d="M -19.945824,0.43362791 -24.537869,21.466053 -16.18906,21.297607 -19.945824,0.43362791 z"
         id="path3312"
         sodipodi:nodetypes="cccc" />
      <path
         sodipodi:type="arc"
         style="fill:url(#radialGradient5890);fill-opacity:1;stroke:none"
         id="path3322"
         sodipodi:cx="-20.429026"
         sodipodi:cy="209.02715"
         sodipodi:rx="8.7552967"
         sodipodi:ry="5.5589185"
         d="m -11.673729,209.02715 c 0,3.0701 -3.91988,5.55891 -8.755297,5.55891 -4.835417,0 -8.755296,-2.48881 -8.755296,-5.55891 0,-0.0833 0.003,-0.16666 0.0089,-0.2499 l 8.746445,0.2499 z"
         sodipodi:start="0"
         sodipodi:end="3.1865623" />
    </g>
  </g>
</svg>
