<?xml version="1.0" encoding="UTF-8" standalone="no"?>
<!-- Created with Inkscape (http://www.inkscape.org/) -->

<svg
   xmlns:dc="http://purl.org/dc/elements/1.1/"
   xmlns:cc="http://creativecommons.org/ns#"
   xmlns:rdf="http://www.w3.org/1999/02/22-rdf-syntax-ns#"
   xmlns:svg="http://www.w3.org/2000/svg"
   xmlns="http://www.w3.org/2000/svg"
   xmlns:xlink="http://www.w3.org/1999/xlink"
   xmlns:sodipodi="http://sodipodi.sourceforge.net/DTD/sodipodi-0.dtd"
   xmlns:inkscape="http://www.inkscape.org/namespaces/inkscape"
   version="1.0"
   width="256"
   height="256"
   id="svg2408"
   inkscape:version="0.48.3.1 r9886"
   sodipodi:docname="gtk-refresh.svg">
  <sodipodi:namedview
     pagecolor="#ffffff"
     bordercolor="#666666"
     borderopacity="1"
     objecttolerance="10"
     gridtolerance="10"
     guidetolerance="10"
     inkscape:pageopacity="0"
     inkscape:pageshadow="2"
     inkscape:window-width="1024"
     inkscape:window-height="572"
     id="namedview93"
     showgrid="false"
     fit-margin-top="0"
     fit-margin-left="0"
     fit-margin-right="0"
     fit-margin-bottom="0"
     inkscape:zoom="1.6367188"
     inkscape:cx="117.30788"
     inkscape:cy="128"
     inkscape:window-x="0"
     inkscape:window-y="28"
     inkscape:window-maximized="1"
     inkscape:current-layer="svg2408" />
  <defs
     id="defs2410">
    <linearGradient
       id="linearGradient3637">
      <stop
         id="stop3639"
         style="stop-color:#5a5a5a;stop-opacity:1;"
         offset="0" />
      <stop
         id="stop3641"
         style="stop-color:#000000;stop-opacity:1;"
         offset="1" />
    </linearGradient>
    <linearGradient
       x1="45.447727"
       y1="92.539597"
       x2="45.447727"
       y2="7.0165396"
       id="ButtonShadow"
       gradientUnits="userSpaceOnUse"
       gradientTransform="scale(1.0058652,0.994169)">
      <stop
         id="stop3750"
         style="stop-color:#000000;stop-opacity:1"
         offset="0" />
      <stop
         id="stop3752"
         style="stop-color:#000000;stop-opacity:0.58823532"
         offset="1" />
    </linearGradient>
    <linearGradient
       id="linearGradient3737">
      <stop
         id="stop3739"
         style="stop-color:#ffffff;stop-opacity:1"
         offset="0" />
      <stop
         id="stop3741"
         style="stop-color:#ffffff;stop-opacity:0"
         offset="1" />
    </linearGradient>
    <linearGradient
       id="linearGradient3700">
      <stop
         id="stop3702"
         style="stop-color:#2276c5;stop-opacity:1"
         offset="0" />
      <stop
         id="stop3704"
         style="stop-color:#68baf4;stop-opacity:1"
         offset="1" />
    </linearGradient>
    <filter
       color-interpolation-filters="sRGB"
       id="filter3174">
      <feGaussianBlur
         id="feGaussianBlur3176"
         stdDeviation="1.71" />
    </filter>
    <linearGradient
       x1="36.357143"
       y1="6"
       x2="36.357143"
       y2="63.893143"
       id="linearGradient3188"
       xlink:href="#linearGradient3737"
       gradientUnits="userSpaceOnUse" />
    <filter
       x="-0.192"
       y="-0.192"
       width="1.3839999"
       height="1.3839999"
       color-interpolation-filters="sRGB"
       id="filter3794">
      <feGaussianBlur
         id="feGaussianBlur3796"
         stdDeviation="5.28" />
    </filter>
    <linearGradient
       x1="48"
       y1="20.220806"
       x2="48"
       y2="138.66119"
       id="linearGradient3613"
       xlink:href="#linearGradient3737"
       gradientUnits="userSpaceOnUse" />
    <radialGradient
       cx="48"
       cy="90.171875"
       r="42"
       fx="48"
       fy="90.171875"
       id="radialGradient3619"
       xlink:href="#linearGradient3737"
       gradientUnits="userSpaceOnUse"
       gradientTransform="matrix(1.1573129,0,0,0.99590774,-7.5510206,0.19713193)" />
    <clipPath
       id="clipPath3613">
      <rect
         width="84"
         height="84"
         rx="6"
         ry="6"
         x="6"
         y="6"
         id="rect3615"
         style="fill:#ffffff;fill-opacity:1;fill-rule:nonzero;stroke:none" />
    </clipPath>
    <linearGradient
       x1="48"
       y1="90"
       x2="48"
       y2="5.9877172"
       id="linearGradient2843"
       xlink:href="#linearGradient3700"
       gradientUnits="userSpaceOnUse"
       gradientTransform="translate(0,100)" />
    <clipPath
       id="clipPath3625">
      <path
         d="M 0,0 0,96 96,96 96,0 0,0 z m 12,6 72,0 c 3.324,0 6,2.676 6,6 l 0,72 c 0,3.324 -2.676,6 -6,6 L 12,90 C 8.676,90 6,87.324 6,84 L 6,12 C 6,8.676 8.676,6 12,6 z"
         inkscape:connector-curvature="0"
         id="path3627"
         style="fill:#ffffff;fill-opacity:1;stroke:none" />
    </clipPath>
    <linearGradient
       x1="44.512066"
       y1="6"
       x2="44.512066"
       y2="90.015434"
       id="linearGradient3643"
       xlink:href="#linearGradient3637"
       gradientUnits="userSpaceOnUse" />
    <clipPath
       id="clipPath3649">
      <rect
         width="76"
         height="76"
         rx="4"
         ry="4"
         x="10"
         y="10"
         id="rect3651"
         style="fill:#ffffff;fill-opacity:1;fill-rule:nonzero;stroke:none" />
    </clipPath>
    <filter
       color-interpolation-filters="sRGB"
       id="filter3657">
      <feGaussianBlur
         id="feGaussianBlur3659"
         stdDeviation="1.14" />
    </filter>
    <linearGradient
       inkscape:collect="always"
       xlink:href="#linearGradient3637"
       id="linearGradient3761"
       gradientUnits="userSpaceOnUse"
       gradientTransform="matrix(16.034622,0,0,13.889867,-36.850051,-41.826414)"
       x1="10.458337"
       y1="4.3967042"
       x2="10.458337"
       y2="19.290417" />
  </defs>
  <metadata
     id="metadata2413">
    <rdf:RDF>
      <cc:Work
         rdf:about="">
        <dc:format>image/svg+xml</dc:format>
        <dc:type
           rdf:resource="http://purl.org/dc/dcmitype/StillImage" />
        <dc:title></dc:title>
      </cc:Work>
    </rdf:RDF>
  </metadata>
  <g
     id="layer2"
     style="display:none"
     transform="translate(0.68865605,176.78087)">
    <rect
       width="86"
       height="85"
       rx="6"
       ry="6"
       x="5"
       y="7"
       clip-path="url(#clipPath3625)"
       id="rect3745"
       style="opacity:0.9;fill:url(#ButtonShadow);fill-opacity:1;fill-rule:nonzero;stroke:none;filter:url(#filter3174)" />
  </g>
  <g
     id="layer1"
     style="display:none"
     transform="translate(0.68865605,176.78087)">
    <rect
       width="84"
       height="84"
       rx="6"
       ry="6"
       x="6"
       y="6"
       id="rect2419"
       style="opacity:0.8;fill:#000000;fill-opacity:1;fill-rule:nonzero;stroke:none" />
    <path
       d="m 14,10 c -2.216,0 -4,1.784 -4,4 l 0,68 c 0,2.216 1.784,4 4,4 l 68,0 c 2.216,0 4,-1.784 4,-4 l 0,-68 c 0,-2.216 -1.784,-4 -4,-4 l -68,0 z m 0,3.0625 68,0 c 0.578769,0 0.9375,0.358731 0.9375,0.9375 l 0,68 c 0,0.578769 -0.358731,0.9375 -0.9375,0.9375 l -68,0 c -0.578769,0 -0.9375,-0.358731 -0.9375,-0.9375 l 0,-68 c 0,-0.578769 0.358731,-0.9375 0.9375,-0.9375 z"
       inkscape:connector-curvature="0"
       id="rect3726"
       style="opacity:0.07999998;fill:#000000;fill-opacity:1;fill-rule:nonzero;stroke:none" />
    <path
       d="M 12,6 C 8.676,6 6,8.676 6,12 l 0,72 c 0,3.324 2.676,6 6,6 l 72,0 c 3.324,0 6,-2.676 6,-6 L 90,12 C 90,8.676 87.324,6 84,6 L 12,6 z m 2,4 68,0 c 2.216,0 4,1.784 4,4 l 0,68 c 0,2.216 -1.784,4 -4,4 l -68,0 c -2.216,0 -4,-1.784 -4,-4 l 0,-68 c 0,-2.216 1.784,-4 4,-4 z"
       inkscape:connector-curvature="0"
       id="rect3629"
       style="fill:url(#linearGradient3643);fill-opacity:1;fill-rule:nonzero;stroke:none" />
    <path
       d="M 12,6 C 8.676,6 6,8.676 6,12 l 0,2 0,68 0,2 c 0,0.334721 0.04135,0.6507 0.09375,0.96875 0.0487,0.295596 0.09704,0.596915 0.1875,0.875 0.00988,0.03038 0.020892,0.0636 0.03125,0.09375 0.098865,0.287771 0.2348802,0.547452 0.375,0.8125 0.1445918,0.273507 0.3156161,0.535615 0.5,0.78125 0.1843839,0.245635 0.3737765,0.473472 0.59375,0.6875 0.439947,0.428056 0.94291,0.814526 1.5,1.09375 0.278545,0.139612 0.5734731,0.246947 0.875,0.34375 -0.2562018,-0.100222 -0.4867109,-0.236272 -0.71875,-0.375 -0.00741,-0.0044 -0.023866,0.0045 -0.03125,0 -0.031933,-0.0193 -0.062293,-0.04251 -0.09375,-0.0625 -0.120395,-0.0767 -0.2310226,-0.163513 -0.34375,-0.25 -0.1061728,-0.0808 -0.2132809,-0.161112 -0.3125,-0.25 C 8.4783201,88.557317 8.3087904,88.373362 8.15625,88.1875 8.0486711,88.057245 7.9378561,87.922215 7.84375,87.78125 7.818661,87.74287 7.805304,87.69538 7.78125,87.65625 7.716487,87.553218 7.6510225,87.451733 7.59375,87.34375 7.4927417,87.149044 7.3880752,86.928049 7.3125,86.71875 7.30454,86.69694 7.288911,86.6782 7.28125,86.65625 7.2494249,86.5643 7.2454455,86.469419 7.21875,86.375 7.1884177,86.268382 7.1483606,86.171969 7.125,86.0625 7.0521214,85.720988 7,85.364295 7,85 L 7,83 7,15 7,13 C 7,10.218152 9.2181517,8 12,8 l 2,0 68,0 2,0 c 2.781848,0 5,2.218152 5,5 l 0,2 0,68 0,2 c 0,0.364295 -0.05212,0.720988 -0.125,1.0625 -0.04415,0.206893 -0.08838,0.397658 -0.15625,0.59375 -0.0077,0.02195 -0.0233,0.04069 -0.03125,0.0625 -0.06274,0.173739 -0.138383,0.367449 -0.21875,0.53125 -0.04158,0.0828 -0.07904,0.169954 -0.125,0.25 -0.0546,0.09721 -0.126774,0.18835 -0.1875,0.28125 -0.09411,0.140965 -0.204921,0.275995 -0.3125,0.40625 -0.143174,0.17445 -0.303141,0.346998 -0.46875,0.5 -0.01117,0.0102 -0.01998,0.02115 -0.03125,0.03125 -0.138386,0.125556 -0.285091,0.234436 -0.4375,0.34375 -0.102571,0.07315 -0.204318,0.153364 -0.3125,0.21875 -0.0074,0.0045 -0.02384,-0.0044 -0.03125,0 -0.232039,0.138728 -0.462548,0.274778 -0.71875,0.375 0.301527,-0.0968 0.596455,-0.204138 0.875,-0.34375 0.55709,-0.279224 1.060053,-0.665694 1.5,-1.09375 0.219973,-0.214028 0.409366,-0.441865 0.59375,-0.6875 0.184384,-0.245635 0.355408,-0.507743 0.5,-0.78125 0.14012,-0.265048 0.276135,-0.524729 0.375,-0.8125 0.01041,-0.03078 0.02133,-0.06274 0.03125,-0.09375 0.09046,-0.278085 0.1388,-0.579404 0.1875,-0.875 C 89.95865,84.6507 90,84.334721 90,84 l 0,-2 0,-68 0,-2 C 90,8.676 87.324,6 84,6 L 12,6 z"
       inkscape:connector-curvature="0"
       id="rect3728"
       style="fill:url(#linearGradient3188);fill-opacity:1;fill-rule:nonzero;stroke:none" />
    <path
       d="M 12,90 C 8.676,90 6,87.324 6,84 L 6,82 6,14 6,12 c 0,-0.334721 0.04135,-0.6507 0.09375,-0.96875 0.0487,-0.295596 0.09704,-0.596915 0.1875,-0.875 C 6.29113,10.12587 6.302142,10.09265 6.3125,10.0625 6.411365,9.774729 6.5473802,9.515048 6.6875,9.25 6.8320918,8.976493 7.0031161,8.714385 7.1875,8.46875 7.3718839,8.223115 7.5612765,7.995278 7.78125,7.78125 8.221197,7.353194 8.72416,6.966724 9.28125,6.6875 9.559795,6.547888 9.8547231,6.440553 10.15625,6.34375 9.9000482,6.443972 9.6695391,6.580022 9.4375,6.71875 c -0.00741,0.0044 -0.023866,-0.0045 -0.03125,0 -0.031933,0.0193 -0.062293,0.04251 -0.09375,0.0625 -0.120395,0.0767 -0.2310226,0.163513 -0.34375,0.25 -0.1061728,0.0808 -0.2132809,0.161112 -0.3125,0.25 C 8.4783201,7.442683 8.3087904,7.626638 8.15625,7.8125 8.0486711,7.942755 7.9378561,8.077785 7.84375,8.21875 7.818661,8.25713 7.805304,8.30462 7.78125,8.34375 7.716487,8.446782 7.6510225,8.548267 7.59375,8.65625 7.4927417,8.850956 7.3880752,9.071951 7.3125,9.28125 7.30454,9.30306 7.288911,9.3218 7.28125,9.34375 7.2494249,9.4357 7.2454455,9.530581 7.21875,9.625 7.1884177,9.731618 7.1483606,9.828031 7.125,9.9375 7.0521214,10.279012 7,10.635705 7,11 l 0,2 0,68 0,2 c 0,2.781848 2.2181517,5 5,5 l 2,0 68,0 2,0 c 2.781848,0 5,-2.218152 5,-5 l 0,-2 0,-68 0,-2 C 89,10.635705 88.94788,10.279012 88.875,9.9375 88.83085,9.730607 88.78662,9.539842 88.71875,9.34375 88.71105,9.3218 88.69545,9.30306 88.6875,9.28125 88.62476,9.107511 88.549117,8.913801 88.46875,8.75 88.42717,8.6672 88.38971,8.580046 88.34375,8.5 88.28915,8.40279 88.216976,8.31165 88.15625,8.21875 88.06214,8.077785 87.951329,7.942755 87.84375,7.8125 87.700576,7.63805 87.540609,7.465502 87.375,7.3125 87.36383,7.3023 87.35502,7.29135 87.34375,7.28125 87.205364,7.155694 87.058659,7.046814 86.90625,6.9375 86.803679,6.86435 86.701932,6.784136 86.59375,6.71875 c -0.0074,-0.0045 -0.02384,0.0044 -0.03125,0 -0.232039,-0.138728 -0.462548,-0.274778 -0.71875,-0.375 0.301527,0.0968 0.596455,0.204138 0.875,0.34375 0.55709,0.279224 1.060053,0.665694 1.5,1.09375 0.219973,0.214028 0.409366,0.441865 0.59375,0.6875 0.184384,0.245635 0.355408,0.507743 0.5,0.78125 0.14012,0.265048 0.276135,0.524729 0.375,0.8125 0.01041,0.03078 0.02133,0.06274 0.03125,0.09375 0.09046,0.278085 0.1388,0.579404 0.1875,0.875 C 89.95865,11.3493 90,11.665279 90,12 l 0,2 0,68 0,2 c 0,3.324 -2.676,6 -6,6 l -72,0 z"
       inkscape:connector-curvature="0"
       id="path3615"
       style="opacity:0.6;fill:url(#radialGradient3619);fill-opacity:1;fill-rule:nonzero;stroke:none" />
    <rect
       width="84"
       height="84"
       rx="6"
       ry="6"
       x="6"
       y="106"
       id="rect2841"
       style="fill:url(#linearGradient2843);fill-opacity:1;fill-rule:nonzero;stroke:none" />
    <rect
       width="76"
       height="76"
       rx="4"
       ry="4"
       x="10"
       y="110"
       id="rect3634"
       style="fill:#ff0000;fill-opacity:1;fill-rule:nonzero;stroke:none" />
    <path
       d="m 14,9 c -2.752703,0 -5,2.247297 -5,5 l 0,68 c 0,2.752703 2.247297,5 5,5 l 68,0 c 2.752703,0 5,-2.247297 5,-5 L 87,14 C 87,11.247297 84.752703,9 82,9 L 14,9 z m 0,2 68,0 c 1.679297,0 3,1.320703 3,3 l 0,68 c 0,1.679297 -1.320703,3 -3,3 l -68,0 c -1.679297,0 -3,-1.320703 -3,-3 l 0,-68 c 0,-1.679297 1.320703,-3 3,-3 z"
       inkscape:connector-curvature="0"
       transform="translate(-110,0)"
       clip-path="url(#clipPath3649)"
       id="rect3647"
       style="font-size:medium;font-style:normal;font-variant:normal;font-weight:normal;font-stretch:normal;text-indent:0;text-align:start;text-decoration:none;line-height:normal;letter-spacing:normal;word-spacing:normal;text-transform:none;direction:ltr;block-progression:tb;writing-mode:lr-tb;text-anchor:start;color:#000000;fill:#000000;fill-opacity:1;stroke:none;stroke-width:2;marker:none;visibility:visible;display:inline;overflow:visible;filter:url(#filter3657);enable-background:accumulate;font-family:Abandoned Bitplane;-inkscape-font-specification:Abandoned Bitplane" />
    <path
       d="m 14.089286,10 c -2.216,0 -4,1.784 -4,4 l 0,68 c 0,2.216 1.784,4 4,4 l 68,0 c 2.216,0 4,-1.784 4,-4 l 0,-68 c 0,-2.216 -1.784,-4 -4,-4 l -68,0 z m 0,2 68,0 c 1.140301,0 2,0.859699 2,2 l 0,68 c 0,1.140301 -0.859699,2 -2,2 l -68,0 c -1.140301,0 -2,-0.859699 -2,-2 l 0,-68 c 0,-1.140301 0.859699,-2 2,-2 z"
       inkscape:connector-curvature="0"
       id="path3709"
       style="opacity:0.16000001;fill:#000000;fill-opacity:1;fill-rule:nonzero;stroke:none" />
    <path
       d="m 14,10 c -2.216,0 -4,1.784 -4,4 l 0,68 c 0,2.216 1.784,4 4,4 l 68,0 c 2.216,0 4,-1.784 4,-4 l 0,-68 c 0,-2.216 -1.784,-4 -4,-4 l -68,0 z m 0,1 68,0 c 1.673848,0 3,1.326152 3,3 l 0,68 c 0,1.673848 -1.326152,3 -3,3 l -68,0 c -1.673848,0 -3,-1.326152 -3,-3 l 0,-68 c 0,-1.673848 1.326152,-3 3,-3 z"
       inkscape:connector-curvature="0"
       id="path3707"
       style="opacity:0.36000001;fill:#000000;fill-opacity:1;fill-rule:nonzero;stroke:none" />
  </g>
  <g
     id="layer5"
     style="display:none"
     transform="translate(0.68865605,176.78087)">
    <rect
       width="66"
       height="66"
       rx="12"
       ry="12"
       x="15"
       y="15"
       clip-path="url(#clipPath3613)"
       id="rect3171"
       style="opacity:0.1;fill:url(#linearGradient3613);fill-opacity:1;fill-rule:nonzero;stroke:#ffffff;stroke-width:0.5;stroke-linecap:round;stroke-linejoin:miter;stroke-miterlimit:4;stroke-opacity:1;stroke-dasharray:none;stroke-dashoffset:0;filter:url(#filter3794)" />
  </g>
  <g
     id="g3753"
     transform="matrix(0.80357134,0,0,0.80357134,26.553384,27.770365)">
    <path
       d="m 143.23962,15.220022 c -56.621375,0 -102.931056,42.378672 -110.349769,97.004458 l -24.9686084,0 c -8.083e-4,0 -0.5731874,-4e-5 -0.5739911,0 -8.025e-4,6e-5 -0.5731922,0.14328 -0.5739901,0.14328 -7.996e-4,8e-5 -0.5732017,-1.8e-4 -0.573991,0 -7.902e-4,1.9e-4 -0.573216,0.14326 -0.5739919,0.14326 -7.75e-4,2.4e-4 -0.5732285,0.14328 -0.573991,0.14328 -7.617e-4,2.6e-4 -0.5732514,0.28652 -0.5739911,0.28698 -7.387e-4,3.4e-4 -0.5732742,0.28654 -0.57399,0.287 -7.168e-4,3.7e-4 -0.4298047,0.28654 -0.4304938,0.28701 -6.892e-4,4.1e-4 -0.4298503,0.28652 -0.4304928,0.28698 -6.615e-4,4.6e-4 -0.5733619,0.28654 -0.573992,0.287 -6.281e-4,5e-4 -0.4298951,0.4298 -0.4304928,0.43026 -5.919e-4,5.6e-4 -0.4299418,0.42982 -0.4304927,0.43027 -5.557e-4,5.9e-4 -0.2864913,0.4298 -0.2869956,0.43026 -5.137e-4,6.5e-4 -0.43003431,0.4298 -0.43049368,0.43028 -4.7278e-4,6.3e-4 -0.28658186,0.42979 -0.28699453,0.43025 -4.2711e-4,6.9e-4 -0.28662855,0.57327 -0.28699555,0.57399 -3.8124e-4,6.9e-4 -0.28667433,0.57326 -0.28699556,0.574 -3.3167e-4,7.2e-4 -0.14322268,0.4298 -0.14349824,0.43026 -2.8017e-4,7.3e-4 -0.28676583,0.57321 -0.28699453,0.57398 -2.307e-4,7.9e-4 -0.1433142,0.57322 -0.1434992,0.574 -1.783e-4,7.8e-4 1.248e-4,0.57321 0,0.57398 -1.239e-4,8e-4 -0.1434058,0.57317 -0.1434973,0.574 -6.95e-5,8.2e-4 1.9e-5,0.57317 0,0.57399 -1.81e-5,8.3e-4 -3.61e-5,0.57316 0,0.57399 3.62e-5,8.3e-4 -9.25e-5,0.57316 0,0.57399 9.15e-5,8.2e-4 0.14336,0.57321 0.1434973,0.57398 1.478e-4,8e-4 0.1433142,0.57322 0.1434992,0.57401 1.964e-4,7.8e-4 0.14326661,0.57321 0.14349732,0.57398 2.478e-4,7.9e-4 0.14317506,0.57326 0.14349721,0.57399 3.0321e-4,7.4e-4 0.28662855,0.57327 0.28699556,0.57399 3.4979e-4,7.4e-4 0.28658278,0.42981 0.28699555,0.43027 3.9936e-4,7e-4 0.28653701,0.57331 0.28699546,0.57399 L 52.405542,203.05626 c 4.15e-4,6e-4 0.286537,0.42982 0.286995,0.43027 4.5e-4,6e-4 0.429989,0.4298 0.430495,0.43026 4.81e-4,5.4e-4 0.28649,0.28654 0.286995,0.287 5.15e-4,4.9e-4 0.429941,0.4298 0.430493,0.43026 5.45e-4,5e-4 0.429896,0.28654 0.430493,0.287 5.73e-4,4.5e-4 0.429897,0.28652 0.430493,0.28699 6.03e-4,4.2e-4 0.429851,0.28654 0.430493,0.287 6.25e-4,3.6e-4 0.429851,0.28654 0.430493,0.287 6.47e-4,3.1e-4 0.42985,0.28652 0.430494,0.28698 6.66e-4,3.3e-4 0.573306,0.14327 0.573991,0.14327 6.83e-4,2.8e-4 0.429804,0.14327 0.430494,0.14327 6.96e-4,2.3e-4 0.573278,0.14328 0.57399,0.14328 7.12e-4,1.7e-4 0.429758,0.14327 0.430494,0.14327 7.2e-4,1.2e-4 0.573265,0.14325 0.57399,0.14325 7.25e-4,1.1e-4 0.429758,-4e-5 0.430493,0 7.3e-4,6e-5 0.573261,0 0.57399,0 7.31e-4,0 0.573262,6e-5 0.573992,0 7.29e-4,-4e-5 0.429759,1.1e-4 0.430494,0 7.26e-4,-8e-5 0.57327,-0.14325 0.573991,-0.14325 7.2e-4,-1.5e-4 0.429804,-0.14327 0.430493,-0.14327 7.11e-4,-2e-4 0.573293,-0.14328 0.57399,-0.14328 6.99e-4,-2.2e-4 0.429805,-0.14327 0.430494,-0.14327 6.84e-4,-2.6e-4 0.573324,-0.14327 0.57399,-0.14327 6.68e-4,-3.1e-4 0.429852,-0.28653 0.430495,-0.28698 6.47e-4,-3.4e-4 0.429849,-0.28655 0.430492,-0.287 6.25e-4,-3.8e-4 0.429897,-0.28653 0.430493,-0.287 6.03e-4,-4.1e-4 0.429943,-0.28654 0.430494,-0.28699 5.74e-4,-4.6e-4 0.429941,-0.28655 0.430492,-0.287 5.48e-4,-5.1e-4 0.429989,-0.4298 0.430494,-0.43026 5.14e-4,-5e-4 0.286537,-0.28654 0.286995,-0.287 4.84e-4,-5.5e-4 0.430034,-0.4298 0.430495,-0.43026 4.5e-4,-6e-4 0.286581,-0.42982 0.286995,-0.43027 l 51.802693,-77.34528 c 4.4e-4,-6.8e-4 0.28658,-0.57329 0.28699,-0.57399 4e-4,-6.9e-4 0.28663,-0.4298 0.287,-0.43027 3.5e-4,-7.2e-4 0.28667,-0.57325 0.28699,-0.57399 3.1e-4,-7.3e-4 0.14327,-0.5732 0.1435,-0.57399 2.5e-4,-7.7e-4 0.14332,-0.5732 0.1435,-0.57398 2e-4,-7.9e-4 0.14336,-0.57321 0.14349,-0.57401 1.6e-4,-7.7e-4 0.14342,-0.57316 0.1435,-0.57398 1e-4,-8.3e-4 -3e-5,-0.57316 0,-0.57399 4e-5,-8.3e-4 3e-5,-0.57316 0,-0.57399 -2e-5,-8.2e-4 8e-5,-0.57317 0,-0.57399 -6e-5,-8.3e-4 -0.14336,-0.5732 -0.1435,-0.574 -1.2e-4,-7.7e-4 1.9e-4,-0.5732 0,-0.57398 -1.6e-4,-7.8e-4 -0.14326,-0.57321 -0.14349,-0.574 -2.3e-4,-7.7e-4 -0.28672,-0.57325 -0.287,-0.57398 -2.7e-4,-7.8e-4 -0.14317,-0.42981 -0.14349,-0.43026 -3.4e-4,-7.4e-4 -0.28663,-0.57331 -0.28701,-0.574 -3.8e-4,-7.2e-4 -0.28657,-0.5733 -0.28698,-0.57399 -4.3e-4,-6.8e-4 -0.28654,-0.4298 -0.287,-0.43025 -4.7e-4,-6.6e-4 -0.42999,-0.42982 -0.43049,-0.43028 -5.1e-4,-6.3e-4 -0.28645,-0.4298 -0.287,-0.43026 -5.5e-4,-6e-4 -0.42989,-0.4298 -0.43049,-0.43027 -5.9e-4,-5.5e-4 -0.42984,-0.4298 -0.4305,-0.43026 -6.2e-4,-5e-4 -0.57332,-0.28654 -0.57399,-0.287 -6.5e-4,-4.6e-4 -0.42979,-0.28652 -0.43049,-0.28698 -6.8e-4,-4.2e-4 -0.42975,-0.28654 -0.4305,-0.28701 -7.1e-4,-3.6e-4 -0.57323,-0.28654 -0.57398,-0.287 -7.4e-4,-3.1e-4 -0.57323,-0.28652 -0.57399,-0.28698 -7.6e-4,-2.9e-4 -0.57322,-0.14328 -0.57399,-0.14328 -7.9e-4,-2.3e-4 -0.5732,-0.14326 -0.574,-0.14326 -7.8e-4,-1.8e-4 -0.57318,8e-5 -0.57399,0 -7.9e-4,-1.4e-4 -0.57319,-0.14328 -0.57399,-0.14328 -8e-4,-4e-5 -0.57318,0 -0.57399,0 l -25.39911,0 c 6.69457,-25.882524 29.15749,-45.201774 57.25561,-45.201774 33.38477,0 60.26905,26.884263 60.26905,60.269044 0,33.38567 -26.86109,60.12557 -60.26905,60.12557 -9.5e-4,0 -0.85982,-1.5e-4 -0.86099,0 -9.5e-4,1.3e-4 -0.85983,0.14325 -0.86097,0.14325 -9.5e-4,2.4e-4 -0.85988,0.28654 -0.86099,0.28699 -9.5e-4,3.8e-4 -0.71641,0.28656 -0.7175,0.28701 -9.5e-4,4.6e-4 -0.71646,0.28654 -0.71748,0.28699 -9.5e-4,5.6e-4 -0.71653,0.42981 -0.71749,0.43027 -9.5e-4,6.3e-4 -0.71659,0.57325 -0.71748,0.57398 -9.2e-4,7.5e-4 -0.57318,0.57316 -0.57401,0.57399 -8.3e-4,8.3e-4 -0.57324,0.57307 -0.57398,0.57401 -7.6e-4,9.1e-4 -0.57334,0.71651 -0.57399,0.71748 -6.7e-4,9.5e-4 -0.42994,0.71646 -0.43049,0.71749 -5.7e-4,9.5e-4 -0.28655,0.71638 -0.287,0.71748 -4.6e-4,9.6e-4 -0.28664,0.71638 -0.287,0.71749 -3.4e-4,9.5e-4 -0.28677,0.85984 -0.28699,0.86098 -2.5e-4,9.5e-4 -0.14336,0.85985 -0.1435,0.86099 -1.3e-4,9.5e-4 1e-5,0.85979 0,0.86099 l 0,34.58296 c 1e-5,9.5e-4 -1.3e-4,0.85984 0,0.86099 1.3e-4,9.5e-4 0.14326,0.85984 0.1435,0.86098 2.3e-4,9.6e-4 0.28663,0.85989 0.28699,0.86098 3.5e-4,9.6e-4 0.28654,0.71639 0.287,0.71749 4.5e-4,9.5e-4 0.28644,0.71648 0.287,0.71749 5.5e-4,9.5e-4 0.42984,0.71653 0.43049,0.71748 6.5e-4,9.5e-4 0.57323,0.71658 0.57399,0.71751 7.4e-4,9.1e-4 0.57315,0.57315 0.57398,0.57398 8.3e-4,8.3e-4 0.57309,0.57325 0.57401,0.57399 8.9e-4,7.4e-4 0.71651,0.57335 0.71748,0.57399 9.5e-4,6.4e-4 0.71645,0.42981 0.71749,0.43027 9.5e-4,5.5e-4 0.7164,0.28653 0.71748,0.287 9.6e-4,4.5e-4 0.71637,0.28653 0.7175,0.28699 9.5e-4,3.7e-4 0.85984,0.28699 0.86099,0.28699 9.5e-4,2.3e-4 0.85981,0.14327 0.86097,0.14327 9.5e-4,1.3e-4 0.85982,0 0.86099,0 61.76892,0 112.07173,-50.14505 112.07173,-111.92824 3e-5,-61.782863 -50.28887,-112.071726 -112.07173,-112.071726 z"
       id="path3894"
       style="opacity:0.1;fill:#000000;fill-opacity:1;stroke:none;display:inline"
       inkscape:connector-curvature="0" />
    <path
       d="m 143.23962,19.524955 c -55.789553,0 -101.330172,42.620803 -106.762326,97.004465 l -28.5560514,0 a 4.3512385,4.3512385 0 0 0 -3.5874434,6.74439 L 55.992986,200.6191 a 4.3512385,4.3512385 0 0 0 7.174886,0 l 51.802688,-77.34529 a 4.3512385,4.3512385 0 0 0 -3.58744,-6.74439 l -31.426012,0 c 5.071505,-30.558399 31.212522,-53.811646 63.282512,-53.811646 35.70997,0 64.57398,28.863986 64.57398,64.573976 0,35.70995 -28.85308,64.43049 -64.57398,64.43049 a 4.3512385,4.3512385 0 0 0 -4.30493,4.30493 l 0,34.58296 a 4.3512385,4.3512385 0 0 0 4.30493,4.30493 c 59.4371,0 107.7668,-48.17892 107.7668,-107.62331 1e-5,-59.444379 -48.3224,-107.766795 -107.7668,-107.766795 z"
       id="path3890"
       style="opacity:0.15;fill:#000000;fill-opacity:1;stroke:none;display:inline"
       inkscape:connector-curvature="0" />
    <path
       d="m 7.9212426,120.79206 51.7103734,77.45595 51.710374,-77.45595 -36.501441,0 C 78.020275,85.702302 107.3509,58.435435 143.28075,58.435435 c 38.05883,4.5e-5 68.82043,30.761598 68.82043,68.820465 0,38.05881 -30.7616,68.82039 -68.82043,68.82039 l 0,34.60032 c 57.08827,0 103.42074,-46.33249 103.42074,-103.42071 1e-5,-57.088273 -46.33247,-103.420778 -103.42074,-103.420778 -54.920166,0 -99.704345,42.872074 -103.040524,96.956938 l -32.3189834,0 z"
       inkscape:connector-curvature="0"
       id="path3884"
       style="opacity:0.3;fill:#000000;fill-opacity:1;stroke:none;display:inline" />
    <path
       d="m 7.9212426,116.20013 51.7103734,77.45596 51.710374,-77.45596 -36.501441,0 C 78.020275,81.110373 107.3509,53.843507 143.28075,53.843507 c 38.05883,4.5e-5 68.82043,30.761598 68.82043,68.820453 0,38.05881 -30.7616,68.82042 -68.82043,68.82042 l 0,34.6003 c 57.08827,0 103.42074,-46.3325 103.42074,-103.42072 1e-5,-57.088262 -46.33247,-103.420765 -103.42074,-103.420765 -54.920166,0 -99.704345,42.872073 -103.040524,96.956935 l -32.3189834,0 z"
       inkscape:connector-curvature="0"
       id="Symbol"
       style="fill:url(#linearGradient3761);fill-opacity:1;stroke:none;display:inline" />
    <path
       d="m 143.23962,19.237959 c -54.920176,0 -99.695208,42.9196 -103.031385,97.004461 l -32.2869924,0 3.0134524,4.59194 29.27354,0 C 43.544412,66.749487 88.319444,23.829887 143.23962,23.829887 c 56.31735,0 102.23386,45.141496 103.46187,101.165893 0.017,-0.76688 0,-1.52505 0,-2.29596 C 246.7015,65.611561 200.32788,19.237959 143.23962,19.237959 z M 75.508678,116.24242 c -0.242958,1.5271 -0.576154,3.03224 -0.717489,4.59194 l 33.578481,0 3.01345,-4.59194 -35.874442,0 z m 136.466352,8.75336 c -1.22047,36.98069 -31.45336,66.43947 -68.73541,66.43947 l 0,4.59192 c 38.05882,0 68.87891,-30.67659 68.87891,-68.73542 0,-0.77676 -0.11805,-1.52548 -0.1435,-2.29597 z"
       inkscape:connector-curvature="0"
       id="path3866"
       style="opacity:0.75;fill:#ffffff;fill-opacity:1;stroke:none;display:inline" />
    <path
       d="m 143.23962,49.228988 c -35.92986,0 -65.268704,27.331703 -68.448431,62.421512 l 0.717489,0 c 5.222914,-32.828835 33.398132,-57.829585 67.730942,-57.829585 37.28205,0 67.51494,29.602229 68.73541,66.582945 0.0253,-0.77048 0.1435,-1.51919 0.1435,-2.29597 0,-38.058849 -30.82009,-68.878902 -68.87891,-68.878902 z M 7.9212426,116.24242 59.580428,193.5877 l 51.802692,-77.34528 -3.01345,0 -48.789242,72.75337 -48.645733,-72.75337 -3.0134524,0 z m 238.7802474,4.16144 c -1.22802,56.02436 -47.14452,101.0224 -103.46187,101.0224 l 0,4.59193 c 57.08826,0 103.46187,-46.23015 103.46187,-103.31837 0,-0.77088 0.017,-1.52906 0,-2.29596 z"
       inkscape:connector-curvature="0"
       id="path3875"
       style="opacity:0.15;fill:#000000;fill-opacity:1;stroke:none;display:inline" />
  </g>
</svg>
