<?xml version="1.0" encoding="UTF-8" standalone="no"?>
<!-- Created with Inkscape (http://www.inkscape.org/) -->

<svg
   xmlns:dc="http://purl.org/dc/elements/1.1/"
   xmlns:cc="http://creativecommons.org/ns#"
   xmlns:rdf="http://www.w3.org/1999/02/22-rdf-syntax-ns#"
   xmlns:svg="http://www.w3.org/2000/svg"
   xmlns="http://www.w3.org/2000/svg"
   xmlns:xlink="http://www.w3.org/1999/xlink"
   xmlns:sodipodi="http://sodipodi.sourceforge.net/DTD/sodipodi-0.dtd"
   xmlns:inkscape="http://www.inkscape.org/namespaces/inkscape"
   version="1.0"
   width="256"
   height="256"
   id="svg2408"
   style="display:inline"
   inkscape:version="0.48.3.1 r9886"
   sodipodi:docname="view-media-artist.svg">
  <sodipodi:namedview
     pagecolor="#ffffff"
     bordercolor="#666666"
     borderopacity="1"
     objecttolerance="10"
     gridtolerance="10"
     guidetolerance="10"
     inkscape:pageopacity="0"
     inkscape:pageshadow="2"
     inkscape:window-width="1024"
     inkscape:window-height="572"
     id="namedview15"
     showgrid="false"
     inkscape:zoom="1.6367188"
     inkscape:cx="128"
     inkscape:cy="128"
     inkscape:window-x="0"
     inkscape:window-y="28"
     inkscape:window-maximized="1"
     inkscape:current-layer="svg2408" />
  <defs
     id="defs2410">
    <linearGradient
       x1="11"
       y1="3.9374998"
       x2="11"
       y2="18.083122"
       id="linearGradient3904"
       gradientUnits="userSpaceOnUse">
      <stop
         id="stop3906"
         style="stop-color:#000000;stop-opacity:1;"
         offset="0" />
      <stop
         id="stop3908"
         style="stop-color:#5a5a5a;stop-opacity:1;"
         offset="1" />
    </linearGradient>
    <linearGradient
       inkscape:collect="always"
       xlink:href="#linearGradient3904"
       id="linearGradient3802"
       gradientUnits="userSpaceOnUse"
       gradientTransform="matrix(2.9452875,0,0,2.9452875,-12.364161,-23.255952)"
       x1="48.407967"
       y1="83.549622"
       x2="48.407967"
       y2="16.343729" />
  </defs>
  <metadata
     id="metadata2413">
    <rdf:RDF>
      <cc:Work
         rdf:about="">
        <dc:format>image/svg+xml</dc:format>
        <dc:type
           rdf:resource="http://purl.org/dc/dcmitype/StillImage" />
        <dc:title></dc:title>
      </cc:Work>
    </rdf:RDF>
  </metadata>
  <g
     id="g3793"
     transform="translate(0.913436,2.99158)">
    <path
       style="opacity:0.1;fill:none;stroke:#000000;stroke-width:18;stroke-linejoin:round;stroke-miterlimit:4;stroke-opacity:1;stroke-dasharray:none;display:inline;enable-background:new"
       id="path3791"
       inkscape:connector-curvature="0"
       d="m 129.0096,24.008588 c -20.55651,0 -37.220851,15.417109 -37.220851,34.435074 0.04995,2.179492 0.08156,4.668014 0.310188,7.378939 -3.253229,1.719067 -3.677276,8.441761 -0.775439,15.219057 1.118966,2.61336 2.64516,4.7368 4.187347,6.45657 0.0514,0.0575 0.103376,0.0975 0.155102,0.15352 0.368119,1.79065 0.640422,3.20693 1.085616,5.22675 1.379158,4.10125 7.078217,11.815642 12.096777,18.447362 0.50047,5.1159 0.54164,10.16848 -0.46529,15.98771 -14.445099,11.87948 -51.389096,17.21753 -51.333724,29.51577 l -4.962762,31.9754 c 0,6.55119 9.873023,12.54951 25.589331,16.60262 l 2.171216,8.7625 a 5.404962,5.3576018 0 0 0 3.411916,3.53575 c 0.697581,0.26756 1.189881,0.83336 3.101731,1.38354 10.071088,2.89826 25.406052,4.91927 42.648892,4.91927 17.24284,0 32.7329,-2.02101 42.80398,-4.91927 1.91185,-0.55018 2.40416,-1.11612 3.10173,-1.38354 a 5.404962,5.3576018 0 0 0 3.25684,-3.38202 l 2.63647,-9.22369 c 15.33232,-4.04669 25.12407,-9.83622 25.12407,-16.29516 l -4.9628,-31.97537 c -0.0589,-10.52564 -37.22086,-17.21752 -51.48885,-29.51579 -0.57769,-4.71091 -0.60433,-9.34921 -0.31025,-13.98921 4.5628,-6.97673 10.56995,-15.905502 12.09677,-20.445832 0.56115,-2.35132 0.80488,-3.97636 1.2407,-5.99539 1.34739,-1.63245 2.57237,-3.51867 3.56699,-5.84166 2.75573,-6.436025 2.49844,-12.668208 -0.31018,-14.757882 0.19624,-2.796518 0.38319,-5.450035 0.46524,-7.840124 3e-5,-19.017965 -16.66431,-34.435064 -37.22082,-34.435064 z" />
    <path
       d="m 129.0096,24.008588 c -20.55651,0 -37.220851,15.417109 -37.220851,34.435074 0.04995,2.179492 0.08156,4.668014 0.310188,7.378939 -3.253229,1.719067 -3.677276,8.441761 -0.775439,15.219057 1.118966,2.61336 2.64516,4.7368 4.187347,6.45657 0.0514,0.0575 0.103376,0.0975 0.155102,0.15352 0.368119,1.79065 0.640422,3.20693 1.085616,5.22675 1.379158,4.10125 7.078217,11.815642 12.096777,18.447362 0.50047,5.1159 0.54164,10.16848 -0.46529,15.98771 -14.445099,11.87948 -51.389096,17.21753 -51.333724,29.51577 l -4.962762,31.9754 c 0,6.55119 9.873023,12.54951 25.589331,16.60262 l 2.171216,8.7625 a 5.404962,5.3576018 0 0 0 3.411916,3.53575 c 0.697581,0.26756 1.189881,0.83336 3.101731,1.38354 10.071088,2.89826 25.406052,4.91927 42.648892,4.91927 17.24284,0 32.7329,-2.02101 42.80398,-4.91927 1.91185,-0.55018 2.40416,-1.11612 3.10173,-1.38354 a 5.404962,5.3576018 0 0 0 3.25684,-3.38202 l 2.63647,-9.22369 c 15.33232,-4.04669 25.12407,-9.83622 25.12407,-16.29516 l -4.9628,-31.97537 c -0.0589,-10.52564 -37.22086,-17.21752 -51.48885,-29.51579 -0.57769,-4.71091 -0.60433,-9.34921 -0.31025,-13.98921 4.5628,-6.97673 10.56995,-15.905502 12.09677,-20.445832 0.56115,-2.35132 0.80488,-3.97636 1.2407,-5.99539 1.34739,-1.63245 2.57237,-3.51867 3.56699,-5.84166 2.75573,-6.436025 2.49844,-12.668208 -0.31018,-14.757882 0.19624,-2.796518 0.38319,-5.450035 0.46524,-7.840124 3e-5,-19.017965 -16.66431,-34.435064 -37.22082,-34.435064 z"
       inkscape:connector-curvature="0"
       id="path3789"
       style="opacity:0.1;fill:none;stroke:#000000;stroke-width:12;stroke-linejoin:round;stroke-miterlimit:4;stroke-opacity:1;stroke-dasharray:none;display:inline;enable-background:new" />
    <path
       style="opacity:0.1;fill:none;stroke:#000000;stroke-width:6;stroke-linejoin:round;stroke-miterlimit:4;stroke-opacity:1;stroke-dasharray:none;display:inline;enable-background:new"
       id="path3787"
       inkscape:connector-curvature="0"
       d="m 129.0096,24.008588 c -20.55651,0 -37.220851,15.417109 -37.220851,34.435074 0.04995,2.179492 0.08156,4.668014 0.310188,7.378939 -3.253229,1.719067 -3.677276,8.441761 -0.775439,15.219057 1.118966,2.61336 2.64516,4.7368 4.187347,6.45657 0.0514,0.0575 0.103376,0.0975 0.155102,0.15352 0.368119,1.79065 0.640422,3.20693 1.085616,5.22675 1.379158,4.10125 7.078217,11.815642 12.096777,18.447362 0.50047,5.1159 0.54164,10.16848 -0.46529,15.98771 -14.445099,11.87948 -51.389096,17.21753 -51.333724,29.51577 l -4.962762,31.9754 c 0,6.55119 9.873023,12.54951 25.589331,16.60262 l 2.171216,8.7625 a 5.404962,5.3576018 0 0 0 3.411916,3.53575 c 0.697581,0.26756 1.189881,0.83336 3.101731,1.38354 10.071088,2.89826 25.406052,4.91927 42.648892,4.91927 17.24284,0 32.7329,-2.02101 42.80398,-4.91927 1.91185,-0.55018 2.40416,-1.11612 3.10173,-1.38354 a 5.404962,5.3576018 0 0 0 3.25684,-3.38202 l 2.63647,-9.22369 c 15.33232,-4.04669 25.12407,-9.83622 25.12407,-16.29516 l -4.9628,-31.97537 c -0.0589,-10.52564 -37.22086,-17.21752 -51.48885,-29.51579 -0.57769,-4.71091 -0.60433,-9.34921 -0.31025,-13.98921 4.5628,-6.97673 10.56995,-15.905502 12.09677,-20.445832 0.56115,-2.35132 0.80488,-3.97636 1.2407,-5.99539 1.34739,-1.63245 2.57237,-3.51867 3.56699,-5.84166 2.75573,-6.436025 2.49844,-12.668208 -0.31018,-14.757882 0.19624,-2.796518 0.38319,-5.450035 0.46524,-7.840124 3e-5,-19.017965 -16.66431,-34.435064 -37.22082,-34.435064 z" />
    <path
       d="m 129.0096,24.008588 c -20.55651,0 -37.220851,15.417109 -37.220851,34.435074 0.04995,2.179492 0.08156,4.668014 0.310188,7.378939 -3.253229,1.719067 -3.677276,8.441761 -0.775439,15.219057 1.118966,2.61336 2.64516,4.7368 4.187347,6.45657 0.0514,0.0575 0.103376,0.0975 0.155102,0.15352 0.368119,1.79065 0.640422,3.20693 1.085616,5.22675 1.379158,4.10125 7.078217,11.815642 12.096777,18.447362 0.50047,5.1159 0.54164,10.16848 -0.46529,15.98771 -14.445099,11.87948 -51.389096,17.21753 -51.333724,29.51577 l -4.962762,31.9754 c 0,6.55119 9.873023,12.54951 25.589331,16.60262 l 2.171216,8.7625 a 5.404962,5.3576018 0 0 0 3.411916,3.53575 c 0.697581,0.26756 1.189881,0.83336 3.101731,1.38354 10.071088,2.89826 25.406052,4.91927 42.648892,4.91927 17.24284,0 32.7329,-2.02101 42.80398,-4.91927 1.91185,-0.55018 2.40416,-1.11612 3.10173,-1.38354 a 5.404962,5.3576018 0 0 0 3.25684,-3.38202 l 2.63647,-9.22369 c 15.33232,-4.04669 25.12407,-9.83622 25.12407,-16.29516 l -4.9628,-31.97537 c -0.0589,-10.52564 -37.22086,-17.21752 -51.48885,-29.51579 -0.57769,-4.71091 -0.60433,-9.34921 -0.31025,-13.98921 4.5628,-6.97673 10.56995,-15.905502 12.09677,-20.445832 0.56115,-2.35132 0.80488,-3.97636 1.2407,-5.99539 1.34739,-1.63245 2.57237,-3.51867 3.56699,-5.84166 2.75573,-6.436025 2.49844,-12.668208 -0.31018,-14.757882 0.19624,-2.796518 0.38319,-5.450035 0.46524,-7.840124 3e-5,-19.017965 -16.66431,-34.435064 -37.22082,-34.435064 z"
       inkscape:connector-curvature="0"
       id="path3798"
       style="fill:url(#linearGradient3802);fill-opacity:1;stroke:none;display:inline;enable-background:new" />
    <path
       id="path3767"
       d="m 129,24 c -20.55651,0 -37.21875,15.419535 -37.21875,34.4375 0.008,0.350285 0.02328,0.75911 0.03125,1.125 C 92.313318,40.948084 108.75906,26 129,26 c 20.02678,0 36.35907,14.629308 37.1875,32.96875 0.007,-0.170536 0.0255,-0.363274 0.0313,-0.53125 C 166.21878,39.419535 149.55651,24 129,24 z M 91.96875,65.90625 c -1.879681,1.103784 -2.778844,3.930234 -2.5625,7.46875 0.176225,-2.66538 1.092379,-4.719608 2.6875,-5.5625 -0.05535,-0.656302 -0.08969,-1.277247 -0.125,-1.90625 z m 73.90625,0.5 c -0.0431,0.628532 -0.0797,1.229764 -0.125,1.875 1.31936,0.981632 2.07325,2.879655 2.21875,5.28125 0.22154,-3.243836 -0.52168,-5.871462 -2.09375,-7.15625 z m -56.6875,52.6875 c -0.0543,2.62032 -0.31103,5.32065 -0.8125,8.21875 -14.445099,11.87948 -51.367872,17.23301 -51.3125,29.53125 l -4.96875,31.96875 c 0,0.43226 0.04019,0.85421 0.125,1.28125 l 4.84375,-31.25 c -0.05537,-12.29824 36.867401,-17.65177 51.3125,-29.53125 0.62933,-3.63702 0.85825,-6.97805 0.8125,-10.21875 z M 149,120.28125 c -0.0236,2.99411 0.0966,5.99674 0.46875,9.03125 14.26799,12.29827 51.4411,19.00561 51.5,29.53125 L 205.8125,190 c 0.0755,-0.39819 0.125,-0.78382 0.125,-1.1875 l -4.96875,-31.96875 c -0.0589,-10.52564 -37.23201,-17.23298 -51.5,-29.53125 -0.28884,-2.35546 -0.42664,-4.70281 -0.46875,-7.03125 z"
       style="opacity:0.7;fill:#ffffff;fill-opacity:1;stroke:none;display:inline;enable-background:new"
       inkscape:connector-curvature="0" />
    <path
       id="path3776"
       d="m 166.1875,56.96875 c -0.0896,2.255986 -0.25505,4.712521 -0.4375,7.3125 0.0466,0.03467 0.0798,0.08806 0.125,0.125 0.14375,-2.095587 0.28063,-4.130123 0.34375,-5.96875 0,-0.490078 -0.009,-0.983656 -0.0313,-1.46875 z m -74.375,0.59375 c -0.0078,0.290209 -0.03125,0.583051 -0.03125,0.875 0.03786,1.651847 0.07695,3.499591 0.1875,5.46875 0.04574,-0.02686 0.07808,-0.06896 0.125,-0.09375 -0.191883,-2.275229 -0.239607,-4.339302 -0.28125,-6.25 z M 89.40625,71.375 c -0.183184,2.770627 0.42724,6.201994 1.90625,9.65625 1.118966,2.61336 2.645313,4.74898 4.1875,6.46875 0.0514,0.0575 0.104524,0.10023 0.15625,0.15625 0.368119,1.79065 0.648556,3.19893 1.09375,5.21875 1.379158,4.10125 7.07519,11.80578 12.09375,18.4375 0.18667,1.90816 0.31543,3.81639 0.34375,5.75 0.053,-2.63004 -0.0935,-5.19205 -0.34375,-7.75 C 103.82519,102.68078 98.129158,94.97625 96.75,90.875 96.304806,88.85518 96.024369,87.4469 95.65625,85.65625 95.604524,85.60023 95.5514,85.5575 95.5,85.5 93.957813,83.78023 92.431466,81.64461 91.3125,79.03125 90.172366,76.368445 89.54967,73.720776 89.40625,71.375 z m 78.5625,0.1875 c -0.15594,2.283275 -0.78673,4.854115 -1.90625,7.46875 -0.99462,2.32299 -2.21511,4.2113 -3.5625,5.84375 -0.43582,2.01903 -0.6576,3.64868 -1.21875,6 -1.52682,4.54033 -7.5622,13.46077 -12.125,20.4375 -0.11591,1.82883 -0.15409,3.66715 -0.15625,5.5 0.0298,-1.16095 0.0827,-2.34 0.15625,-3.5 4.5628,-6.97673 10.59818,-15.89717 12.125,-20.4375 0.56115,-2.35132 0.78293,-3.98097 1.21875,-6 1.34739,-1.63245 2.56788,-3.52076 3.5625,-5.84375 1.46122,-3.412677 2.07049,-6.757892 1.90625,-9.46875 z M 205.8125,188 c -1.1319,5.97288 -10.62595,11.29998 -25,15.09375 l -2.625,9.21875 a 5.404962,5.3576018 0 0 1 -3.28125,3.40625 c -0.69757,0.26742 -1.1819,0.82482 -3.09375,1.375 C 161.74142,219.99201 146.24284,222 129,222 c -17.24284,0 -32.553912,-2.00799 -42.625,-4.90625 -1.91185,-0.55018 -2.427419,-1.10744 -3.125,-1.375 a 5.404962,5.3576018 0 0 1 -3.40625,-3.5625 l -2.15625,-8.75 c -14.679327,-3.78568 -24.268233,-9.26737 -25.46875,-15.3125 l -0.125,0.71875 c 0,6.55119 9.877442,12.54064 25.59375,16.59375 l 2.15625,8.75 a 5.404962,5.3576018 0 0 0 3.40625,3.5625 c 0.697581,0.26756 1.21315,0.82482 3.125,1.375 C 96.446088,221.99201 111.75716,224 129,224 c 17.24284,0 32.74142,-2.00799 42.8125,-4.90625 1.91185,-0.55018 2.39618,-1.10758 3.09375,-1.375 a 5.404962,5.3576018 0 0 0 3.28125,-3.40625 l 2.625,-9.21875 c 15.33232,-4.04669 25.125,-9.82231 25.125,-16.28125 L 205.8125,188 z"
       style="opacity:0.7;fill:#000000;fill-opacity:1;stroke:none;display:inline;enable-background:new"
       inkscape:connector-curvature="0" />
    <path
       inkscape:connector-curvature="0"
       style="opacity:0.3;fill:#000000;fill-opacity:1;stroke:none;display:inline;enable-background:new"
       d="m 166.1875,58.96875 c -0.0896,2.255986 -0.25505,4.712521 -0.4375,7.3125 0.0466,0.03467 0.0798,0.08806 0.125,0.125 0.14375,-2.095587 0.28063,-4.130123 0.34375,-5.96875 0,-0.490078 -0.009,-0.983656 -0.0313,-1.46875 z m -74.375,0.59375 c -0.0078,0.290209 -0.03125,0.583051 -0.03125,0.875 0.03786,1.651847 0.07695,3.499591 0.1875,5.46875 0.04574,-0.02686 0.07808,-0.06896 0.125,-0.09375 -0.191883,-2.275229 -0.239607,-4.339302 -0.28125,-6.25 z M 89.40625,73.375 c -0.183184,2.770627 0.42724,6.201994 1.90625,9.65625 1.118966,2.61336 2.645313,4.74898 4.1875,6.46875 0.0514,0.0575 0.104524,0.10023 0.15625,0.15625 0.368119,1.79065 0.648556,3.19893 1.09375,5.21875 1.379158,4.10125 7.07519,11.80578 12.09375,18.4375 0.18667,1.90816 0.31543,3.81639 0.34375,5.75 0.053,-2.63004 -0.0935,-5.19205 -0.34375,-7.75 C 103.82519,104.68078 98.129158,96.97625 96.75,92.875 96.304806,90.85518 96.024369,89.4469 95.65625,87.65625 95.604524,87.60023 95.5514,87.5575 95.5,87.5 93.957813,85.78023 92.431466,83.64461 91.3125,81.03125 90.172366,78.368445 89.54967,75.720776 89.40625,73.375 z m 78.5625,0.1875 c -0.15594,2.283275 -0.78673,4.854115 -1.90625,7.46875 -0.99462,2.32299 -2.21511,4.2113 -3.5625,5.84375 -0.43582,2.01903 -0.6576,3.64868 -1.21875,6 -1.52682,4.54033 -7.5622,13.46077 -12.125,20.4375 -0.11591,1.82883 -0.15409,3.66715 -0.15625,5.5 0.0298,-1.16095 0.0827,-2.34 0.15625,-3.5 4.5628,-6.97673 10.59818,-15.89717 12.125,-20.4375 0.56115,-2.35132 0.78293,-3.98097 1.21875,-6 1.34739,-1.63245 2.56788,-3.52076 3.5625,-5.84375 1.46122,-3.412677 2.07049,-6.757892 1.90625,-9.46875 z M 205.8125,190 c -1.1319,5.97288 -10.62595,11.29998 -25,15.09375 l -2.625,9.21875 a 5.404962,5.3576018 0 0 1 -3.28125,3.40625 c -0.69757,0.26742 -1.1819,0.82482 -3.09375,1.375 C 161.74142,221.99201 146.24284,224 129,224 c -17.24284,0 -32.553912,-2.00799 -42.625,-4.90625 -1.91185,-0.55018 -2.427419,-1.10744 -3.125,-1.375 a 5.404962,5.3576018 0 0 1 -3.40625,-3.5625 l -2.15625,-8.75 c -14.679327,-3.78568 -24.268233,-9.26737 -25.46875,-15.3125 l -0.125,0.71875 c 0,6.55119 9.877442,12.54064 25.59375,16.59375 l 2.15625,8.75 a 5.404962,5.3576018 0 0 0 3.40625,3.5625 c 0.697581,0.26756 1.21315,0.82482 3.125,1.375 C 96.446088,223.99201 111.75716,226 129,226 c 17.24284,0 32.74142,-2.00799 42.8125,-4.90625 1.91185,-0.55018 2.39618,-1.10758 3.09375,-1.375 a 5.404962,5.3576018 0 0 0 3.28125,-3.40625 l 2.625,-9.21875 c 15.33232,-4.04669 25.125,-9.82231 25.125,-16.28125 L 205.8125,190 z"
       id="path3785" />
  </g>
</svg>
