<?xml version="1.0" encoding="UTF-8" standalone="no"?>
<!-- Created with Inkscape (http://www.inkscape.org/) -->

<svg
   xmlns:dc="http://purl.org/dc/elements/1.1/"
   xmlns:cc="http://creativecommons.org/ns#"
   xmlns:rdf="http://www.w3.org/1999/02/22-rdf-syntax-ns#"
   xmlns:svg="http://www.w3.org/2000/svg"
   xmlns="http://www.w3.org/2000/svg"
   xmlns:xlink="http://www.w3.org/1999/xlink"
   xmlns:sodipodi="http://sodipodi.sourceforge.net/DTD/sodipodi-0.dtd"
   xmlns:inkscape="http://www.inkscape.org/namespaces/inkscape"
   width="256"
   height="256"
   id="svg4467"
   version="1.1"
   inkscape:version="0.48.3.1 r9886"
   sodipodi:docname="evolution-mail.svg">
  <defs
     id="defs4469">
    <linearGradient
       id="linearGradient4849">
      <stop
         style="stop-color:#d7d7d7;stop-opacity:1;"
         offset="0"
         id="stop4851" />
      <stop
         style="stop-color:#ffffff;stop-opacity:1;"
         offset="1"
         id="stop4853" />
    </linearGradient>
    <linearGradient
       id="linearGradient4088">
      <stop
         id="stop4090"
         offset="0"
         style="stop-color:#ffffff;stop-opacity:1;" />
      <stop
         id="stop4092"
         offset="1"
         style="stop-color:#f1f1f1;stop-opacity:1;" />
    </linearGradient>
    <linearGradient
       inkscape:collect="always"
       xlink:href="#linearGradient4849"
       id="linearGradient3966"
       gradientUnits="userSpaceOnUse"
       gradientTransform="matrix(1.0869657,0,0,1.085406,242.20769,399.61152)"
       x1="122.83246"
       y1="226.89336"
       x2="126.98499"
       y2="11.570384" />
    <linearGradient
       inkscape:collect="always"
       xlink:href="#linearGradient4088"
       id="linearGradient3968"
       gradientUnits="userSpaceOnUse"
       gradientTransform="matrix(1.0869657,0,0,1.085406,242.20769,399.61152)"
       x1="130.41913"
       y1="86.698189"
       x2="89.095276"
       y2="211.67458" />
  </defs>
  <sodipodi:namedview
     id="base"
     pagecolor="#ffffff"
     bordercolor="#666666"
     borderopacity="1.0"
     inkscape:pageopacity="0.0"
     inkscape:pageshadow="2"
     inkscape:zoom="1.4960938"
     inkscape:cx="128"
     inkscape:cy="128"
     inkscape:document-units="px"
     inkscape:current-layer="layer1"
     showgrid="false"
     fit-margin-top="0"
     fit-margin-left="0"
     fit-margin-right="0"
     fit-margin-bottom="0"
     inkscape:window-width="1024"
     inkscape:window-height="553"
     inkscape:window-x="-4"
     inkscape:window-y="24"
     inkscape:window-maximized="1" />
  <metadata
     id="metadata4472">
    <rdf:RDF>
      <cc:Work
         rdf:about="">
        <dc:format>image/svg+xml</dc:format>
        <dc:type
           rdf:resource="http://purl.org/dc/dcmitype/StillImage" />
        <dc:title></dc:title>
      </cc:Work>
    </rdf:RDF>
  </metadata>
  <g
     inkscape:label="Layer 1"
     inkscape:groupmode="layer"
     id="layer1"
     transform="translate(-252.49052,-404.36415)">
    <g
       id="g3918"
       transform="matrix(1.0012546,0,0,1.0012546,-0.42475286,-0.5073071)">
      <path
         d="m 267.59085,501.94029 0,149.10309 226.40996,0 -0.37386,-148.38762 c -0.0215,-8.38051 -72.55791,-89.29161 -85.93916,-89.29161 l -52.36762,0 c -14.06833,0 -87.72931,80.678 -87.72931,88.57614 z"
         id="path3916"
         style="opacity:0.05;fill:none;stroke:#000000;stroke-width:18;stroke-linejoin:round;stroke-miterlimit:4;stroke-opacity:1;stroke-dasharray:none"
         inkscape:connector-curvature="0" />
      <path
         inkscape:connector-curvature="0"
         style="opacity:0.1;fill:none;stroke:#000000;stroke-width:12;stroke-linejoin:round;stroke-miterlimit:4;stroke-opacity:1;stroke-dasharray:none"
         id="path3914"
         d="m 267.59085,501.94029 0,149.10309 226.40996,0 -0.37386,-148.38762 c -0.0215,-8.38051 -72.55791,-89.29161 -85.93916,-89.29161 l -52.36762,0 c -14.06833,0 -87.72931,80.678 -87.72931,88.57614 z" />
      <path
         d="m 267.59085,501.94029 0,149.10309 226.40996,0 -0.37386,-148.38762 c -0.0215,-8.38051 -72.55791,-89.29161 -85.93916,-89.29161 l -52.36762,0 c -14.06833,0 -87.72931,80.678 -87.72931,88.57614 z"
         id="path3912"
         style="opacity:0.15;fill:none;stroke:#000000;stroke-width:6;stroke-linejoin:round;stroke-miterlimit:4;stroke-opacity:1;stroke-dasharray:none"
         inkscape:connector-curvature="0" />
      <path
         inkscape:connector-curvature="0"
         style="fill:url(#linearGradient3966);fill-opacity:1;fill-rule:evenodd;stroke:none"
         id="path12723"
         d="m 267.59085,501.94029 0,149.10309 226.40996,0 -0.37386,-148.38762 c -0.0215,-8.38051 -72.55791,-89.29161 -85.93916,-89.29161 l -52.36762,0 c -14.06833,0 -87.72931,80.678 -87.72931,88.57614 z" />
      <path
         inkscape:connector-curvature="0"
         d="m 346.11072,583.31566 -46.27421,-50.34382 150.53895,-41.06493 19.26623,37.44727 -44.557,53.81447"
         id="path3873"
         style="opacity:0.2;fill:#000000;fill-opacity:1;fill-rule:evenodd;stroke:none" />
      <path
         style="fill:url(#linearGradient3968);fill-opacity:1;fill-rule:evenodd;stroke:none"
         id="path2160"
         d="m 344.06176,585.36462 -46.27421,-50.34382 150.53895,-41.06493 19.26623,37.44727 -44.557,53.81447"
         inkscape:connector-curvature="0" />
      <g
         transform="matrix(0.97732277,0,0,0.97592038,255.40961,-369.61164)"
         id="g4309">
        <g
           id="g3466"
           transform="matrix(-1.2888112,0,0,1.423016,27.82696,886.17266)">
          <path
             style="fill:#2c72c7;fill-opacity:1;fill-rule:nonzero;stroke:none"
             id="path3468"
             inkscape:connector-curvature="0"
             d="M 6,19.37797 6,32.59303 12,29.289265 12,16.07421 6,19.37797 z" />
          <path
             style="fill:#ca1e18;fill-opacity:1;fill-rule:nonzero;stroke:none"
             id="path3470"
             inkscape:connector-curvature="0"
             d="m 6,39.200561 0,13.21506 6,-3.303765 0,-13.21506 -6,3.303765 z" />
          <path
             style="fill:#2c72c7;fill-opacity:1;fill-rule:nonzero;stroke:none"
             id="path3472"
             inkscape:connector-curvature="0"
             d="m 6,59.023151 0,13.215061 6,-3.303766 0,-13.21506 -6,3.303765 z" />
          <path
             style="fill:#ca1e18;fill-opacity:1;fill-rule:nonzero;stroke:none"
             id="path3474"
             inkscape:connector-curvature="0"
             d="m 6,78.845741 0,13.21506 6,-3.303764 0,-13.215061 -6,3.303765 z" />
          <path
             style="fill:#2c72c7;fill-opacity:1;fill-rule:nonzero;stroke:none"
             id="path3476"
             inkscape:connector-curvature="0"
             d="M 6,98.78494 6,112 12,108.69624 12,95.481175 6,98.78494 z" />
        </g>
        <g
           id="g4448"
           transform="matrix(1.0156225,0,0,1.0073079,-6.3164039,795.15598)">
          <g
             transform="matrix(1.3841035,0,0,1.2293633,2.3267867,234.04161)"
             id="g2684">
            <path
               d="m 108.62203,12 -13.21506,0 3.303765,-6 13.215055,0 -3.30376,6 z"
               inkscape:connector-curvature="0"
               id="path2620"
               style="fill:#ca1e18;fill-opacity:1;fill-rule:nonzero;stroke:none" />
            <path
               d="m 88.799439,12 -13.21506,0 3.303765,-6 13.21506,0 -3.303765,6 z"
               inkscape:connector-curvature="0"
               id="path2622"
               style="fill:#2c72c7;fill-opacity:1;fill-rule:nonzero;stroke:none" />
            <path
               d="m 68.976849,12 -13.215061,0 3.303766,-6 13.21506,0 -3.303765,6 z"
               inkscape:connector-curvature="0"
               id="path2624"
               style="fill:#ca1e18;fill-opacity:1;fill-rule:nonzero;stroke:none" />
            <path
               d="m 49.154259,12 -13.21506,0 3.303764,-6 13.215061,0 -3.303765,6 z"
               inkscape:connector-curvature="0"
               id="path2626"
               style="fill:#2c72c7;fill-opacity:1;fill-rule:nonzero;stroke:none" />
            <path
               d="M 29.21506,12 16,12 19.303765,6 32.518825,6 29.21506,12 z"
               inkscape:connector-curvature="0"
               id="path2628"
               style="fill:#ca1e18;fill-opacity:1;fill-rule:nonzero;stroke:none" />
          </g>
          <g
             id="g4443">
            <path
               style="fill:#2c72c7;fill-opacity:1;fill-rule:nonzero;stroke:none"
               id="path4430"
               inkscape:connector-curvature="0"
               d="m 233.21865,248.79397 -18.29101,0 4.57276,-7.37618 18.29101,0 -4.57276,7.37618 z" />
            <path
               style="fill:#ca1e18;fill-opacity:1;fill-rule:nonzero;stroke:none"
               id="path4432"
               inkscape:connector-curvature="0"
               d="m 205.78214,248.79397 -18.29101,0 4.57275,-7.37618 18.29101,0 -4.57275,7.37618 z" />
            <path
               style="fill:#2c72c7;fill-opacity:1;fill-rule:nonzero;stroke:none"
               id="path4434"
               inkscape:connector-curvature="0"
               d="m 178.34562,248.79397 -18.29101,0 4.57275,-7.37618 18.29101,0 -4.57275,7.37618 z" />
          </g>
        </g>
        <g
           transform="matrix(1.2888112,0,0,1.4160115,228.76594,887.57381)"
           id="g4460">
          <path
             d="M 6,19.37797 6,32.59303 12,29.289265 12,16.07421 6,19.37797 z"
             inkscape:connector-curvature="0"
             id="path4462"
             style="fill:#2c72c7;fill-opacity:1;fill-rule:nonzero;stroke:none" />
          <path
             d="m 6,39.200561 0,13.21506 6,-3.303765 0,-13.21506 -6,3.303765 z"
             inkscape:connector-curvature="0"
             id="path4464"
             style="fill:#ca1e18;fill-opacity:1;fill-rule:nonzero;stroke:none" />
          <path
             d="m 6,59.023151 0,13.215061 6,-3.303766 0,-13.21506 -6,3.303765 z"
             inkscape:connector-curvature="0"
             id="path4466"
             style="fill:#2c72c7;fill-opacity:1;fill-rule:nonzero;stroke:none" />
          <path
             d="m 6,78.845741 0,13.21506 6,-3.303764 0,-13.215061 -6,3.303765 z"
             inkscape:connector-curvature="0"
             id="path4468"
             style="fill:#ca1e18;fill-opacity:1;fill-rule:nonzero;stroke:none" />
          <path
             d="M 6,98.78494 6,112 12,108.69624 12,95.481175 6,98.78494 z"
             inkscape:connector-curvature="0"
             id="path4470"
             style="fill:#2c72c7;fill-opacity:1;fill-rule:nonzero;stroke:none" />
        </g>
      </g>
      <path
         inkscape:connector-curvature="0"
         style="fill:#ffffff;fill-opacity:1;fill-rule:evenodd;stroke:none"
         id="path14245"
         d="m 354.17313,578.69508 -82.3359,68.20883 85.48823,-62.52667 55.42848,0 76.33146,61.7675 -72.91643,-67.44966 -61.99584,0 z" />
      <g
         transform="matrix(2.1038795,0,0,2.1008606,-312.36484,463.20656)"
         id="g4367">
        <path
           style="opacity:0.3;fill:#000000;fill-opacity:1;fill-rule:evenodd;stroke:none"
           id="path3813"
           d="m 340.81612,61.645997 c -2.53799,-0.02436 -4.59018,0.567042 -6.53125,1.09375 -1.94101,0.52669 -3.8304,1.005282 -6.21875,1 -2.36264,-0.0052 -3.74229,-0.573099 -5.53125,-1.125 -1.7612,-0.543335 -3.90063,-1.047524 -7.25,-0.71875 l 0.21875,0.6875 c 3.09247,-0.311783 4.72457,0.07495 6.40625,0.59375 1.70303,0.525388 3.42774,1.212717 6.15625,1.21875 2.70332,0.006 4.86846,-0.566237 6.8125,-1.09375 1.94409,-0.527526 3.70808,-1.021095 5.90625,-1 2.16239,0.02075 3.68305,0.501619 5.21875,1 1.50297,0.48776 3.04126,1.002712 5,0.96875 l -0.0937,-0.65625 c -1.52593,0.02045 -2.71078,-0.385616 -4.21875,-0.875 -1.55077,-0.503276 -3.38894,-1.069894 -5.875,-1.09375 z m 0,4 c -2.53799,-0.02436 -4.59018,0.567043 -6.53125,1.09375 -1.94101,0.526693 -3.8304,1.005282 -6.21875,1 -2.36264,-0.0052 -3.74229,-0.573101 -5.53125,-1.125 -1.7612,-0.543335 -3.90063,-1.047524 -7.25,-0.71875 l 0.21875,0.6875 c 3.09247,-0.311782 4.72457,0.07495 6.40625,0.59375 1.70303,0.525388 3.42774,1.212715 6.15625,1.21875 2.70332,0.006 4.86846,-0.566237 6.8125,-1.09375 1.94409,-0.527526 3.70808,-1.021095 5.90625,-1 2.16239,0.02075 3.68305,0.501619 5.21875,1 1.50297,0.48776 3.04126,1.002712 5,0.96875 l -0.0937,-0.65625 c -1.52593,0.02045 -2.71078,-0.385616 -4.21875,-0.875 -1.55077,-0.503277 -3.38894,-1.069894 -5.875,-1.09375 z m 0,4 c -2.53799,-0.02436 -4.59018,0.567044 -6.53125,1.09375 -1.94101,0.526692 -3.8304,1.005283 -6.21875,1 -2.36264,-0.0052 -3.74229,-0.573101 -5.53125,-1.125 -1.7612,-0.543336 -3.90063,-1.047524 -7.25,-0.71875 l 0.21875,0.6875 c 3.09247,-0.311782 4.72457,0.07495 6.40625,0.59375 1.70303,0.525392 3.42774,1.212715 6.15625,1.21875 2.70332,0.006 4.86846,-0.566237 6.8125,-1.09375 1.94409,-0.527526 3.70808,-1.021093 5.90625,-1 2.16239,0.02075 3.68305,0.501618 5.21875,1 1.50297,0.487762 3.04126,1.002713 5,0.96875 l -0.0937,-0.65625 c -1.52593,0.02045 -2.71078,-0.385614 -4.21875,-0.875 -1.55078,-0.503274 -3.38894,-1.069894 -5.875,-1.09375 z m 0,4 c -2.53799,-0.02436 -4.59018,0.567044 -6.53125,1.09375 -1.94101,0.526693 -3.8304,1.005282 -6.21875,1 -2.36264,-0.0052 -3.74229,-0.573101 -5.53125,-1.125 -1.7612,-0.543335 -3.90063,-1.047525 -7.25,-0.71875 l 0.21875,0.6875 c 3.09247,-0.311782 4.72457,0.07495 6.40625,0.59375 1.70303,0.525392 3.42774,1.212715 6.15625,1.21875 2.70332,0.006 4.86846,-0.566237 6.8125,-1.09375 1.94409,-0.527526 3.70808,-1.021093 5.90625,-1 2.16239,0.02075 3.68305,0.501618 5.21875,1 1.50297,0.487761 3.04126,1.002713 5,0.96875 l -0.0937,-0.65625 c -1.52593,0.02045 -2.71078,-0.385614 -4.21875,-0.875 -1.55078,-0.503274 -3.38894,-1.069895 -5.875,-1.09375 z"
           inkscape:connector-curvature="0" />
        <g
           id="g3249"
           transform="translate(267.12862,38.520997)">
          <path
             style="font-size:8px;font-style:normal;font-variant:normal;font-weight:normal;font-stretch:normal;text-align:center;line-height:80.00000119%;writing-mode:lr-tb;text-anchor:middle;opacity:0.4;fill:#000000;fill-opacity:1;stroke:none;font-family:Forgotten Futurist;-inkscape-font-specification:Forgotten Futurist"
             id="text3686"
             inkscape:connector-curvature="0"
             d="m 22.627204,26.431232 0.296727,-0.105312 c 0.07587,0.21377 0.225475,0.281022 0.448818,0.201754 l 0.325442,-0.115503 c 0.261628,-0.09286 0.335824,-0.298813 0.222587,-0.617875 l -0.166462,-0.469019 -0.780103,0.276869 c -0.379682,0.134756 -0.636334,0.01389 -0.769956,-0.362606 l -0.117202,-0.330227 c -0.160799,-0.453063 -0.04338,-0.749805 0.352253,-0.890224 l 0.440304,-0.15627 c 0.408397,-0.144943 0.69073,0.0027 0.847001,0.443037 l 0.523164,1.47406 c 0.165327,0.465829 0.04379,0.771216 -0.364603,0.916161 l -0.469019,0.166462 c -0.373302,0.132489 -0.636285,-0.01128 -0.788951,-0.431307 m 1.016704,-1.417039 -0.174954,-0.492949 C 23.360243,24.214949 23.192622,24.102 22.966091,24.182396 l -0.373301,0.13249 c -0.226534,0.0804 -0.28251,0.28708 -0.167934,0.620032 0.107578,0.30311 0.244322,0.425221 0.410234,0.366335 l 0.808818,-0.28706 m 1.030481,1.046123 0.150755,-0.05351 c 0.03794,0.106886 0.101571,0.144474 0.190908,0.112767 l 0.241689,-0.08578 c 0.102098,-0.03624 0.123192,-0.13623 0.06328,-0.29998 -0.05492,-0.154743 -0.149101,-0.207537 -0.28254,-0.158383 l -0.112469,0.03992 -0.0552,-0.155542 0.112469,-0.03992 c 0.134005,-0.04756 0.170999,-0.155891 0.110983,-0.324994 -0.05266,-0.148361 -0.124168,-0.205609 -0.214533,-0.171742 l -0.279976,0.09937 c -0.07179,0.02548 -0.08872,0.09166 -0.05078,0.198546 l -0.153148,0.05435 c -0.07474,-0.210578 -0.01479,-0.350406 0.179834,-0.419483 l 0.272797,-0.09682 c 0.172292,-0.06115 0.294108,0.0088 0.365449,0.209789 l 0.05351,0.150756 c 0.05322,0.14996 0.01913,0.256361 -0.102261,0.319204 0.137815,-0.01658 0.229371,0.03894 0.274667,0.166566 l 0.05605,0.157935 c 0.07587,0.213771 0.01809,0.354628 -0.173349,0.422571 l -0.244081,0.08663 c -0.194628,0.06908 -0.329309,-0.0017 -0.404047,-0.212256 m 1.89014,-0.587311 c 0.05559,0.161693 0.0076,0.269433 -0.143945,0.323221 l -0.38048,0.135037 c -0.157935,0.05605 -0.263668,0.0011 -0.317201,-0.164942 l -0.332922,-0.938038 c -0.05435,-0.153147 -0.0087,-0.254687 0.137076,-0.304616 l 0.394837,-0.140134 c 0.151554,-0.05379 0.254225,-0.0049 0.308014,0.146648 l 0.334621,0.942824 m -0.166198,0.0024 -0.301498,-0.849498 c -0.02718,-0.07657 -0.08304,-0.09986 -0.167594,-0.06985 l -0.294333,0.104463 c -0.08136,0.02888 -0.108452,0.0816 -0.08128,0.158177 l 0.301499,0.849498 c 0.01642,0.04626 0.04056,0.07632 0.07241,0.09016 0.03186,0.01384 0.06294,0.01538 0.09325,0.0046 l 0.320656,-0.113805 c 0.03031,-0.01076 0.05023,-0.03309 0.05974,-0.06701 0.01111,-0.03448 0.01016,-0.07007 -0.0029,-0.10676 m 1.090998,-1.292521 0.388975,1.095973 -0.296726,0.105312 -1.000466,-2.818899 0.966753,-0.343114 c 0.435055,-0.150812 0.732981,3.14e-4 0.893781,0.453376 l 0.110408,0.311085 c 0.172122,0.484974 0.04122,0.804461 -0.392699,0.958465 l -0.670026,0.237802 m -0.501083,-1.411843 0.390675,1.100759 0.660455,-0.234404 c 0.242485,-0.08606 0.316168,-0.263096 0.221048,-0.53111 l -0.112106,-0.31587 c -0.09059,-0.255245 -0.257131,-0.339838 -0.499616,-0.25378 l -0.660456,0.234405 m 4.350944,1.279501 -0.296727,0.105312 -0.835703,-2.354667 0.102097,0.712802 0.207156,1.828709 -0.335013,0.118901 -0.975679,-1.534395 -0.37999,-0.630341 0.834005,2.349882 -0.301513,0.10701 -1.000465,-2.818899 0.449875,-0.159667 1.283409,2.082605 0.16784,0.290701 -0.05267,-0.31541 -0.316966,-2.441776 0.449876,-0.159667 1.000466,2.8189 m -5.841103,6.384095 -0.411588,0.146078 -1.45645,-1.643979 -0.217397,-0.278502 0.793239,2.235021 -0.296726,0.105312 -1.000467,-2.818901 0.335014,-0.118901 1.615945,1.835255 0.195935,0.248397 -0.859484,-2.42167 0.301512,-0.107011 1.000467,2.818901 m 1.90104,-1.21897 c 0.11118,0.323384 0.01522,0.538865 -0.28789,0.646441 l -0.760959,0.270075 c -0.31587,0.112106 -0.527338,0.0021 -0.634402,-0.329885 L 25.049986,27.92619 c -0.108709,-0.306296 -0.01732,-0.509372 0.274152,-0.609232 l 0.789676,-0.280266 c 0.303106,-0.107575 0.508449,-0.0098 0.616026,0.293295 l 0.669242,1.885649 m -0.332396,0.0048 -0.602997,-1.698997 c -0.05435,-0.153147 -0.166084,-0.199712 -0.335186,-0.139699 l -0.588667,0.208926 c -0.16272,0.05776 -0.216904,0.163205 -0.162549,0.316351 l 0.602998,1.698998 c 0.03284,0.09253 0.08111,0.152633 0.144827,0.180315 0.06371,0.02768 0.125879,0.03077 0.186501,0.0093 l 0.641312,-0.22761 c 0.06062,-0.02152 0.10045,-0.06619 0.119488,-0.134018 0.02222,-0.06896 0.02032,-0.140133 -0.0057,-0.213518 m 1.411345,-3.017456 0.359155,3.046511 -0.402017,0.142682 -1.608276,-2.603181 0.306298,-0.108709 0.893537,1.439606 0.224352,0.389197 0.319622,0.581712 -0.115217,-0.64348 -0.0729,-0.448338 -0.210852,-1.68729 0.306298,-0.10871 m 2.478415,2.294357 -0.296726,0.105312 -0.891757,-2.512603 -0.378087,0.134189 -0.110408,-0.311084 0.674813,-0.2395 1.002165,2.823686 m 1.272404,-2.930423 -0.301512,0.10701 c -0.06949,-0.216033 -0.219096,-0.283284 -0.448819,-0.201754 l -0.373301,0.13249 c -0.226532,0.0804 -0.287709,0.267368 -0.18353,0.560902 l 0.18005,0.507306 0.847106,-0.300649 c 0.335012,-0.118899 0.571029,0.01468 0.708049,0.400744 l 0.134189,0.378087 c 0.146076,0.411589 0.0037,0.693819 -0.42698,0.846691 l -0.397231,0.140982 c -0.408398,0.144946 -0.673848,0.03977 -0.796354,-0.315515 l -0.613189,-1.727714 c -0.139076,-0.381738 -0.02356,-0.638287 0.34655,-0.769646 l 0.569523,-0.202131 c 0.351893,-0.132073 0.603708,0.01566 0.755449,0.443197 m -1.016704,1.417039 0.181749,0.512092 c 0.100989,0.294669 0.266345,0.401236 0.496069,0.319704 l 0.349371,-0.123996 c 0.236104,-0.0838 0.298463,-0.292739 0.187078,-0.626827 -0.107579,-0.303107 -0.263467,-0.418424 -0.467665,-0.345952 l -0.746602,0.264979 m -5.117538,7.199654 1.344841,-0.477302 0.110408,0.311084 -1.646353,0.584313 -0.317636,-0.894965 c -0.160798,-0.453064 -0.03221,-0.753769 0.385756,-0.902113 l 0.483376,-0.171557 c 0.167969,-0.0632 0.219681,-0.18574 0.155136,-0.367607 l -0.142682,-0.402017 c -0.06341,-0.178671 -0.17329,-0.240265 -0.329629,-0.184781 l -0.636526,0.225912 c -0.127625,0.0453 -0.167656,0.134949 -0.120096,0.268952 l 0.04246,0.119648 -0.301512,0.107011 -0.01868,-0.05265 c -0.137018,-0.38606 -0.03962,-0.637976 0.292207,-0.755748 l 0.593453,-0.210624 c 0.370109,-0.131354 0.618578,-0.01836 0.745407,0.338986 l 0.152872,0.430731 c 0.07134,0.201011 0.08205,0.367853 0.03215,0.500524 -0.04785,0.128353 -0.204189,0.239522 -0.469008,0.333508 l -0.402016,0.142681 c -0.197818,0.07021 -0.252667,0.224396 -0.164548,0.462558 l 0.210625,0.593452 m 3.341259,-1.379853 c 0.111179,0.323385 0.01522,0.538865 -0.28789,0.646441 l -0.76096,0.270075 c -0.31587,0.112106 -0.527338,0.0021 -0.634402,-0.329885 l -0.665845,-1.876076 c -0.108708,-0.306296 -0.01732,-0.509373 0.274153,-0.609233 l 0.789675,-0.280266 c 0.303106,-0.107573 0.508449,-0.0098 0.616027,0.293296 l 0.669242,1.885648 m -0.332397,0.0048 -0.602997,-1.698997 c -0.05436,-0.153146 -0.166084,-0.199713 -0.335186,-0.139699 l -0.588667,0.208926 c -0.16272,0.05775 -0.216903,0.163205 -0.162549,0.316351 l 0.602998,1.698998 c 0.03284,0.09253 0.08111,0.152633 0.144828,0.180315 0.06371,0.02768 0.125878,0.03077 0.1865,0.0093 l 0.641313,-0.227611 c 0.06062,-0.02152 0.100448,-0.06619 0.119487,-0.134016 0.02223,-0.06896 0.02032,-0.140133 -0.0057,-0.213518 M 31.5204,32.063983 c 0.111179,0.323385 0.01522,0.538864 -0.287891,0.646441 l -0.76096,0.270075 c -0.31587,0.112106 -0.527337,0.0021 -0.634401,-0.329885 l -0.665845,-1.876076 c -0.108709,-0.306296 -0.01732,-0.509373 0.274152,-0.609233 l 0.789676,-0.280266 c 0.303105,-0.107573 0.508449,-0.0098 0.616027,0.293296 l 0.669242,1.885648 m -0.332397,0.0048 -0.602997,-1.698998 c -0.05436,-0.153137 -0.166084,-0.199704 -0.335186,-0.13969 l -0.588667,0.208926 c -0.16272,0.05775 -0.216904,0.163205 -0.162549,0.316351 l 0.602998,1.698998 c 0.03284,0.09253 0.08111,0.152633 0.144827,0.180315 0.06371,0.02768 0.125879,0.03077 0.186501,0.0093 l 0.641312,-0.227611 c 0.06062,-0.02151 0.100449,-0.06619 0.119488,-0.134016 0.02222,-0.06896 0.02032,-0.140133 -0.0057,-0.213518 m 0.640316,-1.164901 c -0.180633,0.01741 -0.328701,-0.136609 -0.444205,-0.462053 l -0.09512,-0.268011 c -0.141549,-0.398823 -0.03046,-0.662782 0.33327,-0.791877 l 0.559952,-0.198735 c 0.362803,-0.121576 0.613846,0.01386 0.75313,0.406299 l 0.09342,0.263226 c 0.116636,0.328634 0.07908,0.546735 -0.112659,0.654302 0.215521,-0.04057 0.380469,0.100277 0.49484,0.422527 l 0.09682,0.272797 c 0.147209,0.414778 0.04055,0.686148 -0.319991,0.814107 l -0.559952,0.198735 c -0.36373,0.129093 -0.6192,-0.01375 -0.766409,-0.428529 l -0.103614,-0.291941 c -0.104181,-0.293535 -0.08067,-0.490483 0.07052,-0.590847 m 0.862957,-1.060702 c -0.103048,-0.290342 -0.261457,-0.397579 -0.475227,-0.321712 l -0.406802,0.144379 c -0.216961,0.07701 -0.269955,0.271847 -0.15898,0.584523 0.116428,0.31793 0.260789,0.44632 0.433082,0.38517 L 32.6098,30.448703 c 0.169101,-0.06001 0.19626,-0.261853 0.08148,-0.605515 m 0.455221,1.282625 C 33.031405,30.82178 32.890904,30.699206 32.724993,30.758088 l -0.521664,0.185146 c -0.188246,0.06681 -0.22086,0.263402 -0.09784,0.589768 0.108709,0.306299 0.271543,0.420946 0.488506,0.343943 l 0.387658,-0.137585 c 0.22015,-0.07813 0.275099,-0.282649 0.164846,-0.613547" />
          <path
             style="opacity:0.4;fill:none;stroke:#000000;stroke-width:0.52081096;stroke-linecap:butt;stroke-linejoin:round;stroke-miterlimit:4;stroke-opacity:1;stroke-dasharray:none;stroke-dashoffset:0"
             id="path4514"
             transform="matrix(1.0070864,0,0,1.0070864,-53.988363,-19.285691)"
             d="m 92.737353,46.92009 a 11.368678,11.368678 0 1 1 -22.737356,0 11.368678,11.368678 0 1 1 22.737356,0 z"
             inkscape:connector-curvature="0" />
          <path
             style="opacity:0.4;fill:none;stroke:none"
             id="path3516"
             transform="matrix(0.7329417,0,0,0.7329417,-31.68157,-6.4227962)"
             d="m 92.737353,46.92009 a 11.368678,11.368678 0 1 1 -22.737356,0 11.368678,11.368678 0 1 1 22.737356,0 z"
             inkscape:connector-curvature="0" />
          <path
             style="opacity:0.4;fill:#000000;fill-opacity:1;fill-rule:nonzero;stroke:none"
             id="path4533"
             transform="matrix(0.6503109,-0.2031698,0.2031698,0.6503109,-10.507603,35.292367)"
             d="m 58.568905,21.904593 -1.25675,-0.781997 -1.087129,1.004536 0.355366,-1.436891 -1.291311,-0.723502 1.476378,-0.106051 0.289055,-1.451684 0.557086,1.371348 1.469956,-0.173688 -1.13208,0.95359 z"
             inkscape:connector-curvature="0" />
          <path
             style="opacity:0.4;fill:#000000;fill-opacity:1;fill-rule:nonzero;stroke:none"
             id="path4535"
             transform="matrix(0.6503109,-0.2031698,0.2031698,0.6503109,-7.2860525,33.372029)"
             d="m 58.568905,21.904593 -1.25675,-0.781997 -1.087129,1.004536 0.355366,-1.436891 -1.291311,-0.723502 1.476378,-0.106051 0.289055,-1.451684 0.557086,1.371348 1.469956,-0.173688 -1.13208,0.95359 z"
             inkscape:connector-curvature="0" />
          <path
             style="opacity:0.4;fill:#000000;fill-opacity:1;fill-rule:nonzero;stroke:none"
             id="path4537"
             transform="matrix(0.6503109,-0.2031698,0.2031698,0.6503109,-14.253592,35.701926)"
             d="m 58.568905,21.904593 -1.25675,-0.781997 -1.087129,1.004536 0.355366,-1.436891 -1.291311,-0.723502 1.476378,-0.106051 0.289055,-1.451684 0.557086,1.371348 1.469956,-0.173688 -1.13208,0.95359 z"
             inkscape:connector-curvature="0" />
          <path
             style="font-size:5px;font-style:normal;font-variant:normal;font-weight:normal;font-stretch:normal;text-align:start;line-height:120.00000477%;writing-mode:lr-tb;text-anchor:start;opacity:0.4;fill:#000000;fill-opacity:1;stroke:none;font-family:Forgotten Futurist;-inkscape-font-specification:Forgotten Futurist"
             id="text3717"
             inkscape:connector-curvature="0"
             d="m 21.583741,32.257218 1.005258,1.205966 -2.262147,1.88566 -1.005259,-1.205967 0.249642,-0.208095 0.803567,0.964006 0.752769,-0.627487 -0.396981,-0.476242 0.249642,-0.208094 0.396981,0.476241 0.760451,-0.633889 -0.803566,-0.964005 0.249643,-0.208094 m -3.440182,-0.312503 2.939137,-0.695269 0.184945,0.377088 -2.364487,1.866936 -0.14091,-0.287305 1.307138,-1.036492 0.355328,-0.263376 0.532863,-0.378294 -0.616357,0.185347 -0.430272,0.121925 -1.626474,0.396745 -0.140911,-0.287305 m 1.717929,-3.201623 c 0.331103,-0.06105 0.526903,0.06385 0.587401,0.374681 l 0.151881,0.780357 c 0.06305,0.323922 -0.07489,0.513771 -0.413812,0.569547 l -1.923899,0.374451 c -0.314103,0.06113 -0.498495,-0.05749 -0.553176,-0.355873 L 17.55227,29.676451 c -0.06049,-0.310833 0.06467,-0.496499 0.375504,-0.556997 l 1.933714,-0.376362 m -0.04384,0.324351 -1.742307,0.339106 c -0.15705,0.03057 -0.2187,0.132559 -0.184952,0.305969 l 0.117493,0.603674 c 0.03248,0.166869 0.127246,0.235019 0.284296,0.204451 l 1.742307,-0.339106 c 0.09489,-0.01847 0.160457,-0.0567 0.196711,-0.114693 0.03626,-0.05799 0.04833,-0.118075 0.03623,-0.180242 l -0.128001,-0.65766 c -0.0121,-0.06217 -0.04978,-0.107467 -0.113046,-0.135905 -0.0639,-0.03171 -0.133479,-0.04024 -0.208734,-0.02559 m 0.592486,-2.015872 -0.03583,1.184458 -2.963644,-0.08966 0.0094,-0.309858 2.633795,0.07968 0.02646,-0.874599 0.329849,0.01 m -2.859349,-0.831819 0.07866,-0.299855 2.108654,0.553154 c 0.286958,0.07528 0.461731,-0.0064 0.524319,-0.244975 l 0.11799,-0.449782 c 0.06174,-0.235367 -0.05086,-0.390691 -0.33782,-0.465968 l -2.108654,-0.553155 0.07739,-0.295018 2.026436,0.531586 c 0.551345,0.144634 0.769079,0.437811 0.653205,0.87953 l -0.112915,0.430437 c -0.115029,0.438496 -0.448638,0.587041 -1.00083,0.445633 l -2.026436,-0.531587 m 1.898548,-3.914159 -0.310452,0.55966 2.304227,1.278188 -0.150374,0.271086 -2.304227,-1.278188 -0.283772,0.511564 -0.284204,-0.157651 0.7446,-1.34231 0.284202,0.157651 m 2.628639,0.925966 -0.193146,0.248837 -2.32643,-1.805755 0.193146,-0.248836 2.32643,1.805754 m 1.226521,-1.900013 c 0.220254,0.254644 0.21166,0.486726 -0.02578,0.696247 l -0.596103,0.526009 c -0.24744,0.218343 -0.480993,0.195489 -0.70066,-0.06856 l -1.296827,-1.469639 c -0.211726,-0.239939 -0.202764,-0.459009 0.02688,-0.657212 l 0.618598,-0.545858 c 0.237442,-0.209518 0.460924,-0.195558 0.670445,0.04188 l 1.303443,1.477138 m -0.301916,0.126379 -1.174423,-1.330923 c -0.105862,-0.119967 -0.225028,-0.121507 -0.357496,-0.0046 l -0.461136,0.406914 c -0.127468,0.112482 -0.13827,0.228706 -0.03241,0.348675 l 1.174423,1.330923 c 0.06396,0.07248 0.130123,0.109678 0.19849,0.111587 0.06837,0.0019 0.126296,-0.01809 0.173785,-0.05999 l 0.502376,-0.443303 c 0.04749,-0.0419 0.06748,-0.09733 0.05998,-0.166289 -0.005,-0.07116 -0.03287,-0.135484 -0.08359,-0.192971 m 2.481244,-0.686528 -0.387927,0.185509 -1.595734,-1.459367 -0.241605,-0.250256 1.00736,2.106527 -0.279668,0.13374 -1.270524,-2.65684 0.315754,-0.150996 1.771644,1.630193 0.217483,0.222993 -1.091485,-2.282445 0.284178,-0.135897 1.270524,2.656839 m 3.12214,-0.44069 -0.309394,0.01937 -0.153749,-2.45519 -0.09629,0.702391 -0.298887,1.787174 -0.349315,0.02188 -0.50828,-1.716589 -0.189092,-0.699549 0.153438,2.4502 -0.314385,0.01969 -0.184062,-2.939243 0.469081,-0.02937 0.6512,2.318833 0.08019,0.320614 0.03552,-0.312831 0.360879,-2.397241 0.46908,-0.02938 0.184062,2.939243 m 2.002773,0.429433 -0.312565,-0.06858 0.009,-0.484323 -0.869321,-0.190737 -0.199475,0.442533 -0.312564,-0.06858 1.192786,-2.753344 0.56164,0.123229 -0.06951,2.999802 m -0.302282,-0.885352 0.03845,-1.435104 0.03246,-0.637864 -0.236505,0.587975 -0.571861,1.323187 0.737458,0.161806 m 0.74179,1.115468 -0.292199,-0.117661 1.100038,-2.731838 0.2922,0.117661 -1.100039,2.731838 m 1.41991,0.760899 -1.023282,-0.597595 1.495248,-2.560363 0.267694,0.156332 -1.328829,2.275399 0.755587,0.441262 -0.166418,0.284965 m 1.848822,1.78386 -0.576022,-0.618242 c -0.354476,-0.380457 -0.323194,-0.764965 0.09385,-1.153524 l 0.958458,-0.893005 c 0.382893,-0.356747 0.74914,-0.342619 1.098739,0.04238 l 0.576023,0.618242 -0.23047,0.21473 -0.610105,-0.654825 c -0.190874,-0.20486 -0.385082,-0.215263 -0.582625,-0.03121 l -1.002607,0.940972 c -0.25591,0.233879 -0.297519,0.443493 -0.124825,0.628844 l 0.637373,0.68409 -0.237785,0.221547 m 0.632323,1.100295 -0.625587,-1.006413 2.518154,-1.565287 0.163656,0.263281 -2.237888,1.391073 0.461931,0.743131 -0.280266,0.174215 m 0.140198,0.390014 -0.12937,-0.287207 2.685168,-1.209506 0.129369,0.287208 -2.685167,1.209505 m 0.57885,1.908998 -0.388565,-1.521156 2.853379,-0.728869 0.388566,1.521157 -0.314889,0.08044 -0.310606,-1.215956 -0.949511,0.242544 0.153446,0.600711 -0.314889,0.08043 -0.153446,-0.600711 -0.959201,0.245019 0.310605,1.215956 -0.314889,0.08044 m 0.02852,2.000018 0.0035,-0.429986 2.011484,-0.793761 0.330879,-0.107328 -2.334924,-0.01888 0.0025,-0.309989 2.944903,0.02381 -0.0028,0.349988 -2.242164,0.876899 -0.295798,0.09761 2.529917,0.02046 -0.0025,0.31499 -2.944904,-0.02381 m 2.107048,2.478544 0.162745,-0.618963 -2.548383,-0.670051 0.07883,-0.299809 2.548382,0.670051 0.148759,-0.56577 0.314317,0.08264 -0.390333,1.484542 -0.314317,-0.08264" />
        </g>
      </g>
      <path
         d="m 490.33669,505.41055 -65.39724,82.22783 -6.06773,-4.90972 71.46497,-77.31811 z"
         id="path3854"
         style="color:#000000;fill:#ffffff;fill-opacity:1;fill-rule:evenodd;stroke:none;stroke-width:1;marker:none;visibility:visible;display:inline;overflow:visible"
         inkscape:connector-curvature="0" />
      <path
         inkscape:connector-curvature="0"
         style="color:#000000;fill:#ffffff;fill-opacity:1;fill-rule:evenodd;stroke:none;stroke-width:1;marker:none;visibility:visible;display:inline;overflow:visible"
         id="path14339"
         d="m 271.04439,502.98145 70.7821,88.99856 6.56736,-5.31399 -77.34946,-83.68457 z" />
      <path
         id="path3892"
         transform="translate(252.49052,404.36415)"
         d="m 102.84375,9 c -14.06833,0 -87.75,80.66436 -87.75,88.5625 l 0,2 C 15.09375,91.66436 88.77542,11 102.84375,11 l 52.34375,0 c 13.38125,0 85.916,80.90074 85.9375,89.28125 l 0,-2 C 241.1035,89.90074 168.56875,9 155.1875,9 l -52.34375,0 z"
         style="opacity:0.5;fill:#ffffff;fill-opacity:1;fill-rule:evenodd;stroke:none"
         inkscape:connector-curvature="0" />
      <path
         id="path3901"
         transform="translate(252.49052,404.36415)"
         d="m 15.09375,244.6875 0,2 226.40625,0 0,-2 -226.40625,0 z"
         style="opacity:0.5;fill:#000000;fill-opacity:1;fill-rule:evenodd;stroke:none"
         inkscape:connector-curvature="0" />
      <path
         inkscape:connector-curvature="0"
         style="opacity:0.2;fill:#000000;fill-opacity:1;fill-rule:evenodd;stroke:none"
         d="m 267.58427,651.05165 0,2 226.40625,0 0,-2 -226.40625,0 z"
         id="path3910" />
    </g>
  </g>
</svg>
