<?xml version="1.0" encoding="UTF-8" standalone="no"?>
<!-- Created with Inkscape (http://www.inkscape.org/) -->

<svg
   xmlns:dc="http://purl.org/dc/elements/1.1/"
   xmlns:cc="http://creativecommons.org/ns#"
   xmlns:rdf="http://www.w3.org/1999/02/22-rdf-syntax-ns#"
   xmlns:svg="http://www.w3.org/2000/svg"
   xmlns="http://www.w3.org/2000/svg"
   xmlns:xlink="http://www.w3.org/1999/xlink"
   xmlns:sodipodi="http://sodipodi.sourceforge.net/DTD/sodipodi-0.dtd"
   xmlns:inkscape="http://www.inkscape.org/namespaces/inkscape"
   version="1.0"
   width="256"
   height="256"
   id="svg2408"
   inkscape:version="0.48.3.1 r9886"
   sodipodi:docname="view-sort-ascending.svg">
  <sodipodi:namedview
     pagecolor="#ffffff"
     bordercolor="#666666"
     borderopacity="1"
     objecttolerance="10"
     gridtolerance="10"
     guidetolerance="10"
     inkscape:pageopacity="0"
     inkscape:pageshadow="2"
     inkscape:window-width="1024"
     inkscape:window-height="572"
     id="namedview3811"
     showgrid="false"
     inkscape:zoom="1.6367188"
     inkscape:cx="117.30788"
     inkscape:cy="128"
     inkscape:window-x="0"
     inkscape:window-y="28"
     inkscape:window-maximized="1"
     inkscape:current-layer="svg2408" />
  <defs
     id="defs2410">
    <linearGradient
       id="linearGradient3637">
      <stop
         id="stop3639"
         style="stop-color:#5a5a5a;stop-opacity:1;"
         offset="0" />
      <stop
         id="stop3641"
         style="stop-color:#000000;stop-opacity:1;"
         offset="1" />
    </linearGradient>
    <linearGradient
       x1="45.447727"
       y1="92.539597"
       x2="45.447727"
       y2="7.0165396"
       id="ButtonShadow"
       gradientUnits="userSpaceOnUse"
       gradientTransform="scale(1.0058652,0.994169)">
      <stop
         id="stop3750"
         style="stop-color:#000000;stop-opacity:1"
         offset="0" />
      <stop
         id="stop3752"
         style="stop-color:#000000;stop-opacity:0.58823532"
         offset="1" />
    </linearGradient>
    <linearGradient
       id="linearGradient3737">
      <stop
         id="stop3739"
         style="stop-color:#ffffff;stop-opacity:1"
         offset="0" />
      <stop
         id="stop3741"
         style="stop-color:#ffffff;stop-opacity:0"
         offset="1" />
    </linearGradient>
    <linearGradient
       id="linearGradient3700">
      <stop
         id="stop3702"
         style="stop-color:#2276c5;stop-opacity:1"
         offset="0" />
      <stop
         id="stop3704"
         style="stop-color:#68baf4;stop-opacity:1"
         offset="1" />
    </linearGradient>
    <filter
       color-interpolation-filters="sRGB"
       id="filter3174">
      <feGaussianBlur
         id="feGaussianBlur3176"
         stdDeviation="1.71" />
    </filter>
    <linearGradient
       x1="36.357143"
       y1="6"
       x2="36.357143"
       y2="63.893143"
       id="linearGradient3188"
       xlink:href="#linearGradient3737"
       gradientUnits="userSpaceOnUse" />
    <filter
       x="-0.192"
       y="-0.192"
       width="1.3839999"
       height="1.3839999"
       color-interpolation-filters="sRGB"
       id="filter3794">
      <feGaussianBlur
         id="feGaussianBlur3796"
         stdDeviation="5.28" />
    </filter>
    <linearGradient
       x1="48"
       y1="20.220806"
       x2="48"
       y2="138.66119"
       id="linearGradient3613"
       xlink:href="#linearGradient3737"
       gradientUnits="userSpaceOnUse" />
    <radialGradient
       cx="48"
       cy="90.171875"
       r="42"
       fx="48"
       fy="90.171875"
       id="radialGradient3619"
       xlink:href="#linearGradient3737"
       gradientUnits="userSpaceOnUse"
       gradientTransform="matrix(1.1573129,0,0,0.99590774,-7.5510206,0.19713193)" />
    <clipPath
       id="clipPath3613">
      <rect
         width="84"
         height="84"
         rx="6"
         ry="6"
         x="6"
         y="6"
         id="rect3615"
         style="fill:#ffffff;fill-opacity:1;fill-rule:nonzero;stroke:none" />
    </clipPath>
    <linearGradient
       x1="48"
       y1="90"
       x2="48"
       y2="5.9877172"
       id="linearGradient2843"
       xlink:href="#linearGradient3700"
       gradientUnits="userSpaceOnUse"
       gradientTransform="translate(0,100)" />
    <clipPath
       id="clipPath3625">
      <path
         d="M 0,0 0,96 96,96 96,0 0,0 z m 12,6 72,0 c 3.324,0 6,2.676 6,6 l 0,72 c 0,3.324 -2.676,6 -6,6 L 12,90 C 8.676,90 6,87.324 6,84 L 6,12 C 6,8.676 8.676,6 12,6 z"
         inkscape:connector-curvature="0"
         id="path3627"
         style="fill:#ffffff;fill-opacity:1;stroke:none" />
    </clipPath>
    <linearGradient
       x1="44.512066"
       y1="6"
       x2="44.512066"
       y2="90.015434"
       id="linearGradient3643"
       xlink:href="#linearGradient3637"
       gradientUnits="userSpaceOnUse" />
    <clipPath
       id="clipPath3649">
      <rect
         width="76"
         height="76"
         rx="4"
         ry="4"
         x="10"
         y="10"
         id="rect3651"
         style="fill:#ffffff;fill-opacity:1;fill-rule:nonzero;stroke:none" />
    </clipPath>
    <filter
       color-interpolation-filters="sRGB"
       id="filter3657">
      <feGaussianBlur
         id="feGaussianBlur3659"
         stdDeviation="1.14" />
    </filter>
    <linearGradient
       inkscape:collect="always"
       xlink:href="#linearGradient3637"
       id="linearGradient4670"
       gradientUnits="userSpaceOnUse"
       gradientTransform="matrix(0,-15.808154,12.357683,0,19.844821,222.74516)"
       x1="13.262311"
       y1="6.7861471"
       x2="-0.53049242"
       y2="6.7861471" />
  </defs>
  <metadata
     id="metadata2413">
    <rdf:RDF>
      <cc:Work
         rdf:about="">
        <dc:format>image/svg+xml</dc:format>
        <dc:type
           rdf:resource="http://purl.org/dc/dcmitype/StillImage" />
        <dc:title></dc:title>
      </cc:Work>
    </rdf:RDF>
  </metadata>
  <g
     id="layer2"
     style="display:none"
     transform="translate(0,160)">
    <rect
       width="86"
       height="85"
       rx="6"
       ry="6"
       x="5"
       y="7"
       clip-path="url(#clipPath3625)"
       id="rect3745"
       style="opacity:0.9;fill:url(#ButtonShadow);fill-opacity:1;fill-rule:nonzero;stroke:none;filter:url(#filter3174)" />
  </g>
  <g
     id="layer1"
     style="display:none"
     transform="translate(0,160)">
    <rect
       width="84"
       height="84"
       rx="6"
       ry="6"
       x="6"
       y="6"
       id="rect2419"
       style="opacity:0.8;fill:#000000;fill-opacity:1;fill-rule:nonzero;stroke:none" />
    <path
       d="m 14,10 c -2.216,0 -4,1.784 -4,4 l 0,68 c 0,2.216 1.784,4 4,4 l 68,0 c 2.216,0 4,-1.784 4,-4 l 0,-68 c 0,-2.216 -1.784,-4 -4,-4 l -68,0 z m 0,3.0625 68,0 c 0.578769,0 0.9375,0.358731 0.9375,0.9375 l 0,68 c 0,0.578769 -0.358731,0.9375 -0.9375,0.9375 l -68,0 c -0.578769,0 -0.9375,-0.358731 -0.9375,-0.9375 l 0,-68 c 0,-0.578769 0.358731,-0.9375 0.9375,-0.9375 z"
       inkscape:connector-curvature="0"
       id="rect3726"
       style="opacity:0.07999998;fill:#000000;fill-opacity:1;fill-rule:nonzero;stroke:none" />
    <path
       d="M 12,6 C 8.676,6 6,8.676 6,12 l 0,72 c 0,3.324 2.676,6 6,6 l 72,0 c 3.324,0 6,-2.676 6,-6 L 90,12 C 90,8.676 87.324,6 84,6 L 12,6 z m 2,4 68,0 c 2.216,0 4,1.784 4,4 l 0,68 c 0,2.216 -1.784,4 -4,4 l -68,0 c -2.216,0 -4,-1.784 -4,-4 l 0,-68 c 0,-2.216 1.784,-4 4,-4 z"
       inkscape:connector-curvature="0"
       id="rect3629"
       style="fill:url(#linearGradient3643);fill-opacity:1;fill-rule:nonzero;stroke:none" />
    <path
       d="M 12,6 C 8.676,6 6,8.676 6,12 l 0,2 0,68 0,2 c 0,0.334721 0.04135,0.6507 0.09375,0.96875 0.0487,0.295596 0.09704,0.596915 0.1875,0.875 0.00988,0.03038 0.020892,0.0636 0.03125,0.09375 0.098865,0.287771 0.2348802,0.547452 0.375,0.8125 0.1445918,0.273507 0.3156161,0.535615 0.5,0.78125 0.1843839,0.245635 0.3737765,0.473472 0.59375,0.6875 0.439947,0.428056 0.94291,0.814526 1.5,1.09375 0.278545,0.139612 0.5734731,0.246947 0.875,0.34375 -0.2562018,-0.100222 -0.4867109,-0.236272 -0.71875,-0.375 -0.00741,-0.0044 -0.023866,0.0045 -0.03125,0 -0.031933,-0.0193 -0.062293,-0.04251 -0.09375,-0.0625 -0.120395,-0.0767 -0.2310226,-0.163513 -0.34375,-0.25 -0.1061728,-0.0808 -0.2132809,-0.161112 -0.3125,-0.25 C 8.4783201,88.557317 8.3087904,88.373362 8.15625,88.1875 8.0486711,88.057245 7.9378561,87.922215 7.84375,87.78125 7.818661,87.74287 7.805304,87.69538 7.78125,87.65625 7.716487,87.553218 7.6510225,87.451733 7.59375,87.34375 7.4927417,87.149044 7.3880752,86.928049 7.3125,86.71875 7.30454,86.69694 7.288911,86.6782 7.28125,86.65625 7.2494249,86.5643 7.2454455,86.469419 7.21875,86.375 7.1884177,86.268382 7.1483606,86.171969 7.125,86.0625 7.0521214,85.720988 7,85.364295 7,85 L 7,83 7,15 7,13 C 7,10.218152 9.2181517,8 12,8 l 2,0 68,0 2,0 c 2.781848,0 5,2.218152 5,5 l 0,2 0,68 0,2 c 0,0.364295 -0.05212,0.720988 -0.125,1.0625 -0.04415,0.206893 -0.08838,0.397658 -0.15625,0.59375 -0.0077,0.02195 -0.0233,0.04069 -0.03125,0.0625 -0.06274,0.173739 -0.138383,0.367449 -0.21875,0.53125 -0.04158,0.0828 -0.07904,0.169954 -0.125,0.25 -0.0546,0.09721 -0.126774,0.18835 -0.1875,0.28125 -0.09411,0.140965 -0.204921,0.275995 -0.3125,0.40625 -0.143174,0.17445 -0.303141,0.346998 -0.46875,0.5 -0.01117,0.0102 -0.01998,0.02115 -0.03125,0.03125 -0.138386,0.125556 -0.285091,0.234436 -0.4375,0.34375 -0.102571,0.07315 -0.204318,0.153364 -0.3125,0.21875 -0.0074,0.0045 -0.02384,-0.0044 -0.03125,0 -0.232039,0.138728 -0.462548,0.274778 -0.71875,0.375 0.301527,-0.0968 0.596455,-0.204138 0.875,-0.34375 0.55709,-0.279224 1.060053,-0.665694 1.5,-1.09375 0.219973,-0.214028 0.409366,-0.441865 0.59375,-0.6875 0.184384,-0.245635 0.355408,-0.507743 0.5,-0.78125 0.14012,-0.265048 0.276135,-0.524729 0.375,-0.8125 0.01041,-0.03078 0.02133,-0.06274 0.03125,-0.09375 0.09046,-0.278085 0.1388,-0.579404 0.1875,-0.875 C 89.95865,84.6507 90,84.334721 90,84 l 0,-2 0,-68 0,-2 C 90,8.676 87.324,6 84,6 L 12,6 z"
       inkscape:connector-curvature="0"
       id="rect3728"
       style="fill:url(#linearGradient3188);fill-opacity:1;fill-rule:nonzero;stroke:none" />
    <path
       d="M 12,90 C 8.676,90 6,87.324 6,84 L 6,82 6,14 6,12 c 0,-0.334721 0.04135,-0.6507 0.09375,-0.96875 0.0487,-0.295596 0.09704,-0.596915 0.1875,-0.875 C 6.29113,10.12587 6.302142,10.09265 6.3125,10.0625 6.411365,9.774729 6.5473802,9.515048 6.6875,9.25 6.8320918,8.976493 7.0031161,8.714385 7.1875,8.46875 7.3718839,8.223115 7.5612765,7.995278 7.78125,7.78125 8.221197,7.353194 8.72416,6.966724 9.28125,6.6875 9.559795,6.547888 9.8547231,6.440553 10.15625,6.34375 9.9000482,6.443972 9.6695391,6.580022 9.4375,6.71875 c -0.00741,0.0044 -0.023866,-0.0045 -0.03125,0 -0.031933,0.0193 -0.062293,0.04251 -0.09375,0.0625 -0.120395,0.0767 -0.2310226,0.163513 -0.34375,0.25 -0.1061728,0.0808 -0.2132809,0.161112 -0.3125,0.25 C 8.4783201,7.442683 8.3087904,7.626638 8.15625,7.8125 8.0486711,7.942755 7.9378561,8.077785 7.84375,8.21875 7.818661,8.25713 7.805304,8.30462 7.78125,8.34375 7.716487,8.446782 7.6510225,8.548267 7.59375,8.65625 7.4927417,8.850956 7.3880752,9.071951 7.3125,9.28125 7.30454,9.30306 7.288911,9.3218 7.28125,9.34375 7.2494249,9.4357 7.2454455,9.530581 7.21875,9.625 7.1884177,9.731618 7.1483606,9.828031 7.125,9.9375 7.0521214,10.279012 7,10.635705 7,11 l 0,2 0,68 0,2 c 0,2.781848 2.2181517,5 5,5 l 2,0 68,0 2,0 c 2.781848,0 5,-2.218152 5,-5 l 0,-2 0,-68 0,-2 C 89,10.635705 88.94788,10.279012 88.875,9.9375 88.83085,9.730607 88.78662,9.539842 88.71875,9.34375 88.71105,9.3218 88.69545,9.30306 88.6875,9.28125 88.62476,9.107511 88.549117,8.913801 88.46875,8.75 88.42717,8.6672 88.38971,8.580046 88.34375,8.5 88.28915,8.40279 88.216976,8.31165 88.15625,8.21875 88.06214,8.077785 87.951329,7.942755 87.84375,7.8125 87.700576,7.63805 87.540609,7.465502 87.375,7.3125 87.36383,7.3023 87.35502,7.29135 87.34375,7.28125 87.205364,7.155694 87.058659,7.046814 86.90625,6.9375 86.803679,6.86435 86.701932,6.784136 86.59375,6.71875 c -0.0074,-0.0045 -0.02384,0.0044 -0.03125,0 -0.232039,-0.138728 -0.462548,-0.274778 -0.71875,-0.375 0.301527,0.0968 0.596455,0.204138 0.875,0.34375 0.55709,0.279224 1.060053,0.665694 1.5,1.09375 0.219973,0.214028 0.409366,0.441865 0.59375,0.6875 0.184384,0.245635 0.355408,0.507743 0.5,0.78125 0.14012,0.265048 0.276135,0.524729 0.375,0.8125 0.01041,0.03078 0.02133,0.06274 0.03125,0.09375 0.09046,0.278085 0.1388,0.579404 0.1875,0.875 C 89.95865,11.3493 90,11.665279 90,12 l 0,2 0,68 0,2 c 0,3.324 -2.676,6 -6,6 l -72,0 z"
       inkscape:connector-curvature="0"
       id="path3615"
       style="opacity:0.6;fill:url(#radialGradient3619);fill-opacity:1;fill-rule:nonzero;stroke:none" />
    <rect
       width="84"
       height="84"
       rx="6"
       ry="6"
       x="6"
       y="106"
       id="rect2841"
       style="fill:url(#linearGradient2843);fill-opacity:1;fill-rule:nonzero;stroke:none" />
    <rect
       width="76"
       height="76"
       rx="4"
       ry="4"
       x="10"
       y="110"
       id="rect3634"
       style="fill:#ff0000;fill-opacity:1;fill-rule:nonzero;stroke:none" />
    <path
       d="m 14,9 c -2.752703,0 -5,2.247297 -5,5 l 0,68 c 0,2.752703 2.247297,5 5,5 l 68,0 c 2.752703,0 5,-2.247297 5,-5 L 87,14 C 87,11.247297 84.752703,9 82,9 L 14,9 z m 0,2 68,0 c 1.679297,0 3,1.320703 3,3 l 0,68 c 0,1.679297 -1.320703,3 -3,3 l -68,0 c -1.679297,0 -3,-1.320703 -3,-3 l 0,-68 c 0,-1.679297 1.320703,-3 3,-3 z"
       inkscape:connector-curvature="0"
       transform="translate(-110,0)"
       clip-path="url(#clipPath3649)"
       id="rect3647"
       style="font-size:medium;font-style:normal;font-variant:normal;font-weight:normal;font-stretch:normal;text-indent:0;text-align:start;text-decoration:none;line-height:normal;letter-spacing:normal;word-spacing:normal;text-transform:none;direction:ltr;block-progression:tb;writing-mode:lr-tb;text-anchor:start;color:#000000;fill:#000000;fill-opacity:1;stroke:none;stroke-width:2;marker:none;visibility:visible;display:inline;overflow:visible;filter:url(#filter3657);enable-background:accumulate;font-family:Abandoned Bitplane;-inkscape-font-specification:Abandoned Bitplane" />
    <path
       d="m 14.089286,10 c -2.216,0 -4,1.784 -4,4 l 0,68 c 0,2.216 1.784,4 4,4 l 68,0 c 2.216,0 4,-1.784 4,-4 l 0,-68 c 0,-2.216 -1.784,-4 -4,-4 l -68,0 z m 0,2 68,0 c 1.140301,0 2,0.859699 2,2 l 0,68 c 0,1.140301 -0.859699,2 -2,2 l -68,0 c -1.140301,0 -2,-0.859699 -2,-2 l 0,-68 c 0,-1.140301 0.859699,-2 2,-2 z"
       inkscape:connector-curvature="0"
       id="path3709"
       style="opacity:0.16000001;fill:#000000;fill-opacity:1;fill-rule:nonzero;stroke:none" />
    <path
       d="m 14,10 c -2.216,0 -4,1.784 -4,4 l 0,68 c 0,2.216 1.784,4 4,4 l 68,0 c 2.216,0 4,-1.784 4,-4 l 0,-68 c 0,-2.216 -1.784,-4 -4,-4 l -68,0 z m 0,1 68,0 c 1.673848,0 3,1.326152 3,3 l 0,68 c 0,1.673848 -1.326152,3 -3,3 l -68,0 c -1.673848,0 -3,-1.326152 -3,-3 l 0,-68 c 0,-1.673848 1.326152,-3 3,-3 z"
       inkscape:connector-curvature="0"
       id="path3707"
       style="opacity:0.36000001;fill:#000000;fill-opacity:1;fill-rule:nonzero;stroke:none" />
  </g>
  <g
     id="layer5"
     style="display:none"
     transform="translate(0,160)">
    <rect
       width="66"
       height="66"
       rx="12"
       ry="12"
       x="15"
       y="15"
       clip-path="url(#clipPath3613)"
       id="rect3171"
       style="opacity:0.1;fill:url(#linearGradient3613);fill-opacity:1;fill-rule:nonzero;stroke:#ffffff;stroke-width:0.5;stroke-linecap:round;stroke-linejoin:miter;stroke-miterlimit:4;stroke-opacity:1;stroke-dasharray:none;stroke-dashoffset:0;filter:url(#filter3794)" />
  </g>
  <g
     id="g4662"
     transform="translate(-0.31510512,2.2781028)">
    <path
       d="M 54.786928,8.8994625 C 35.84201,8.2616572 20.416833,28.988337 26.766193,46.931124 31.665713,64.568488 54.580093,73.50921 69.949368,63.3229 85.457417,54.609149 88.974923,31.313721 76.468153,18.56684 71.006416,12.508004 62.961251,8.8522907 54.786928,8.8994625 z m 0,58.7027415 C 35.84201,66.964399 20.416833,87.691079 26.766193,105.63387 c 4.89952,17.63736 27.8139,26.57808 43.183175,16.39177 15.508049,-8.71375 19.025555,-32.009177 6.518785,-44.756059 -5.461737,-6.058835 -13.506902,-9.714549 -21.681225,-9.667377 z m 0,58.702746 c -18.944918,-0.63781 -34.370095,20.08887 -28.020735,38.03166 4.89952,17.63736 27.8139,26.57808 43.183175,16.39177 15.508049,-8.71375 19.025555,-32.00918 6.518785,-44.75606 -5.461737,-6.05883 -13.506902,-9.71455 -21.681225,-9.66737 z m 0,58.70274 c -18.944918,-0.63781 -34.370095,20.08887 -28.020735,38.03166 4.89952,17.63736 27.8139,26.57809 43.183175,16.39178 15.508049,-8.71376 19.025555,-32.00918 6.518785,-44.75606 -5.461737,-6.05884 -13.506902,-9.71455 -21.681225,-9.66738 z M 141.92381,8.8994625 c -5.98695,0.3190914 -8.83417,6.7942135 -7.86198,12.1302085 0,18.057467 0,36.114975 0,54.172442 -9.19975,0.315737 -18.54892,-0.652733 -27.64794,0.524131 -6.19219,2.155314 -7.027684,10.81619 -2.16799,14.835609 18.9618,25.081627 37.72018,50.349337 56.80871,75.315027 4.41206,4.47399 11.82359,1.78423 14.15996,-3.56598 18.26297,-25.07777 36.80391,-50.02845 54.89438,-75.184793 3.05561,-5.838952 -2.61044,-13.035405 -8.97897,-11.923994 -7.92642,0 -15.85283,0 -23.77925,0 -0.0879,-19.691458 0.17535,-39.439857 -0.13104,-59.095841 -0.63399,-5.717689 -6.89704,-8.0837026 -11.99918,-7.2068095 -14.43224,0 -28.86447,0 -43.2967,0 z"
       inkscape:connector-curvature="0"
       id="path3925"
       style="opacity:0.1;fill:#000000;fill-opacity:1;stroke:none;display:inline" />
    <path
       d="m 54.786928,13.092516 c -13.820118,0 -25.158318,11.338182 -25.158318,25.158317 0,13.820135 11.3382,25.158318 25.158318,25.158318 13.820118,0 25.158318,-11.338183 25.158318,-25.158318 0,-13.820135 -11.3382,-25.158317 -25.158318,-25.158317 z m 87.661012,0 a 4.1476321,4.1476321 0 0 0 -4.19305,4.193052 l 0,62.109598 -28.95827,0 a 4.1476321,4.1476321 0 0 0 -3.27583,6.682678 L 163.41321,162.339 a 4.1476321,4.1476321 0 0 0 6.68267,0 L 225.9159,86.077844 a 4.1476321,4.1476321 0 0 0 -3.40685,-6.682678 l -29.35138,0 0,-62.109598 a 4.1476321,4.1476321 0 0 0 -4.19305,-4.193052 l -46.51668,0 z M 54.786928,71.795257 c -13.820118,0 -25.158318,11.338183 -25.158318,25.158318 0,13.820135 11.3382,25.158315 25.158318,25.158315 13.820118,0 25.158318,-11.33818 25.158318,-25.158315 0,-13.820135 -11.3382,-25.158318 -25.158318,-25.158318 z m 0,58.702743 c -13.820118,0 -25.158318,11.33818 -25.158318,25.15832 0,13.82013 11.3382,25.15831 25.158318,25.15831 13.820118,0 25.158318,-11.33818 25.158318,-25.15831 0,-13.82014 -11.3382,-25.15832 -25.158318,-25.15832 z m 0,58.70274 c -13.820118,0 -25.158318,11.33818 -25.158318,25.15832 0,13.82013 11.3382,25.15832 25.158318,25.15832 13.820118,0 25.158318,-11.33819 25.158318,-25.15832 0,-13.82014 -11.3382,-25.15832 -25.158318,-25.15832 z"
       id="path3921"
       style="opacity:0.15;fill:#000000;fill-opacity:1;stroke:none;display:inline"
       inkscape:connector-curvature="0" />
    <path
       d="m 54.786928,17.285568 c -11.578793,0 -20.965265,9.386485 -20.965265,20.965265 0,11.578781 9.386472,20.965265 20.965265,20.965265 11.578793,0 20.965265,-9.386484 20.965265,-20.965265 0,-11.57878 -9.386472,-20.965265 -20.965265,-20.965265 z m 87.661012,0 0,66.302651 -33.15132,0 57.39241,76.261151 55.82002,-76.261151 -33.54443,0 0,-66.302651 -46.51668,0 z M 54.786928,75.98831 c -11.578793,0 -20.965265,9.386485 -20.965265,20.965265 0,11.578785 9.386472,20.965265 20.965265,20.965265 11.578793,0 20.965265,-9.38648 20.965265,-20.965265 0,-11.57878 -9.386472,-20.965265 -20.965265,-20.965265 z m 0,58.70274 c -11.578793,0 -20.965265,9.38649 -20.965265,20.96527 0,11.57878 9.386472,20.96526 20.965265,20.96526 11.578793,0 20.965265,-9.38648 20.965265,-20.96526 0,-11.57878 -9.386472,-20.96527 -20.965265,-20.96527 z m 0,58.70274 c -11.578793,0 -20.965265,9.38649 -20.965265,20.96527 0,11.57878 9.386472,20.96526 20.965265,20.96526 11.578793,0 20.965265,-9.38648 20.965265,-20.96526 0,-11.57878 -9.386472,-20.96527 -20.965265,-20.96527 z"
       inkscape:connector-curvature="0"
       id="path3915"
       style="opacity:0.3;fill:#000000;fill-opacity:1;stroke:none;display:inline" />
    <path
       d="m 54.786928,13.092516 c -11.578793,0 -20.965265,9.386484 -20.965265,20.965264 0,11.578781 9.386472,20.965265 20.965265,20.965265 11.578793,0 20.965265,-9.386484 20.965265,-20.965265 0,-11.57878 -9.386472,-20.965264 -20.965265,-20.965264 z m 87.661012,0 0,66.30265 -33.15132,0 57.39241,76.261154 55.82002,-76.261154 -33.54443,0 0,-66.30265 -46.51668,0 z M 54.786928,71.795257 c -11.578793,0 -20.965265,9.386485 -20.965265,20.965265 0,11.578778 9.386472,20.965268 20.965265,20.965268 11.578793,0 20.965265,-9.38649 20.965265,-20.965268 0,-11.57878 -9.386472,-20.965265 -20.965265,-20.965265 z m 0,58.702743 c -11.578793,0 -20.965265,9.38648 -20.965265,20.96526 0,11.57878 9.386472,20.96527 20.965265,20.96527 11.578793,0 20.965265,-9.38649 20.965265,-20.96527 0,-11.57878 -9.386472,-20.96526 -20.965265,-20.96526 z m 0,58.70274 c -11.578793,0 -20.965265,9.38649 -20.965265,20.96527 0,11.57878 9.386472,20.96526 20.965265,20.96526 11.578793,0 20.965265,-9.38648 20.965265,-20.96526 0,-11.57878 -9.386472,-20.96527 -20.965265,-20.96527 z"
       inkscape:connector-curvature="0"
       id="path3108"
       style="fill:url(#linearGradient4670);fill-opacity:1;stroke:none;display:inline" />
    <path
       d="m 54.786928,13.092516 c -11.578793,0 -20.965265,9.386484 -20.965265,20.965264 0,0.723679 0.05946,1.391717 0.131033,2.096527 1.073631,-10.571861 9.979114,-18.868739 20.834232,-18.868739 10.855118,0 19.760601,8.296878 20.834232,18.868739 0.07158,-0.70481 0.131033,-1.372848 0.131033,-2.096527 0,-11.57878 -9.386472,-20.965264 -20.965265,-20.965264 z m 87.661012,0 0,4.193052 46.51668,0 0,-4.193052 -46.51668,0 z M 54.786928,71.795257 c -11.578793,0 -20.965265,9.386485 -20.965265,20.965265 0,0.723679 0.05946,1.391716 0.131033,2.096527 1.073631,-10.571861 9.979114,-18.868739 20.834232,-18.868739 10.855118,0 19.760601,8.296878 20.834232,18.868739 0.07158,-0.704811 0.131033,-1.372848 0.131033,-2.096527 0,-11.57878 -9.386472,-20.965265 -20.965265,-20.965265 z m 54.509692,7.599909 3.14478,4.193053 30.00654,0 0,-4.193053 -33.15132,0 z m 79.668,0 0,4.193053 30.53067,0 3.01376,-4.193053 -33.54443,0 z M 54.786928,130.498 c -11.578793,0 -20.965265,9.38648 -20.965265,20.96526 0,0.72368 0.05946,1.39172 0.131033,2.09653 1.073631,-10.57186 9.979114,-18.86874 20.834232,-18.86874 10.855118,0 19.760601,8.29688 20.834232,18.86874 0.07158,-0.70481 0.131033,-1.37285 0.131033,-2.09653 0,-11.57878 -9.386472,-20.96526 -20.965265,-20.96526 z m 0,58.70274 c -11.578793,0 -20.965265,9.38649 -20.965265,20.96527 0,0.72367 0.05946,1.39171 0.131033,2.09652 1.073631,-10.57186 9.979114,-18.86874 20.834232,-18.86874 10.855118,0 19.760601,8.29688 20.834232,18.86874 0.07158,-0.70481 0.131033,-1.37285 0.131033,-2.09652 0,-11.57878 -9.386472,-20.96527 -20.965265,-20.96527 z"
       inkscape:connector-curvature="0"
       id="path3897"
       style="opacity:0.75;fill:#ffffff;fill-opacity:1;stroke:none;display:inline" />
    <path
       d="m 33.952696,31.961254 c -0.07157,0.704768 -0.131033,1.372847 -0.131033,2.096526 0,11.578781 9.386472,20.965265 20.965265,20.965265 11.578793,0 20.965265,-9.386484 20.965265,-20.965265 0,-0.723679 -0.05946,-1.391758 -0.131033,-2.096526 -1.073631,10.57186 -9.979114,18.868738 -20.834232,18.868738 -10.855118,0 -19.760601,-8.296878 -20.834232,-18.868738 z m 75.343924,47.433912 57.39241,76.261154 55.82002,-76.261154 -3.01376,0 -52.80626,72.068094 -54.24763,-72.068094 -3.14478,0 z m -75.343924,11.26883 c -0.07157,0.704768 -0.131033,1.372847 -0.131033,2.096526 0,11.578778 9.386472,20.965268 20.965265,20.965268 11.578793,0 20.965265,-9.38649 20.965265,-20.965268 0,-0.723679 -0.05946,-1.391758 -0.131033,-2.096526 -1.073631,10.571864 -9.979114,18.868734 -20.834232,18.868734 -10.855118,0 -19.760601,-8.29687 -20.834232,-18.868734 z m 0,58.702744 c -0.07157,0.70477 -0.131033,1.37284 -0.131033,2.09652 0,11.57878 9.386472,20.96527 20.965265,20.96527 11.578793,0 20.965265,-9.38649 20.965265,-20.96527 0,-0.72368 -0.05946,-1.39175 -0.131033,-2.09652 -1.073631,10.57186 -9.979114,18.86874 -20.834232,18.86874 -10.855118,0 -19.760601,-8.29688 -20.834232,-18.86874 z m 0,58.70274 c -0.07157,0.70481 -0.131033,1.37285 -0.131033,2.09653 0,11.57878 9.386472,20.96526 20.965265,20.96526 11.578793,0 20.965265,-9.38648 20.965265,-20.96526 0,-0.72368 -0.05946,-1.39172 -0.131033,-2.09653 -1.073631,10.57186 -9.979114,18.86874 -20.834232,18.86874 -10.855118,0 -19.760601,-8.29688 -20.834232,-18.86874 z"
       inkscape:connector-curvature="0"
       id="path3906"
       style="opacity:0.15;fill:#000000;fill-opacity:1;stroke:none;display:inline" />
  </g>
</svg>
