<?xml version="1.0" encoding="UTF-8" standalone="no"?>
<!-- Created with Inkscape (http://www.inkscape.org/) -->

<svg
   xmlns:dc="http://purl.org/dc/elements/1.1/"
   xmlns:cc="http://creativecommons.org/ns#"
   xmlns:rdf="http://www.w3.org/1999/02/22-rdf-syntax-ns#"
   xmlns:svg="http://www.w3.org/2000/svg"
   xmlns="http://www.w3.org/2000/svg"
   xmlns:xlink="http://www.w3.org/1999/xlink"
   xmlns:sodipodi="http://sodipodi.sourceforge.net/DTD/sodipodi-0.dtd"
   xmlns:inkscape="http://www.inkscape.org/namespaces/inkscape"
   width="256"
   height="256"
   id="svg7100"
   version="1.1"
   inkscape:version="0.48.3.1 r9886"
   sodipodi:docname="view-close.svg">
  <defs
     id="defs7102">
    <linearGradient
       inkscape:collect="always"
       xlink:href="#linearGradient3637"
       id="linearGradient3850"
       gradientUnits="userSpaceOnUse"
       gradientTransform="matrix(14.780136,0,0,12.668687,-305.39194,-39.794878)"
       x1="24.8104"
       y1="5.2103734"
       x2="24.8104"
       y2="24.722813" />
    <linearGradient
       id="linearGradient3637">
      <stop
         id="stop3639"
         style="stop-color:#5a5a5a;stop-opacity:1;"
         offset="0" />
      <stop
         id="stop3641"
         style="stop-color:#000000;stop-opacity:1;"
         offset="1" />
    </linearGradient>
  </defs>
  <sodipodi:namedview
     id="base"
     pagecolor="#ffffff"
     bordercolor="#666666"
     borderopacity="1.0"
     inkscape:pageopacity="0.0"
     inkscape:pageshadow="2"
     inkscape:zoom="1.6367188"
     inkscape:cx="128"
     inkscape:cy="128"
     inkscape:document-units="px"
     inkscape:current-layer="layer1"
     showgrid="false"
     inkscape:window-width="1024"
     inkscape:window-height="572"
     inkscape:window-x="0"
     inkscape:window-y="28"
     inkscape:window-maximized="1" />
  <metadata
     id="metadata7105">
    <rdf:RDF>
      <cc:Work
         rdf:about="">
        <dc:format>image/svg+xml</dc:format>
        <dc:type
           rdf:resource="http://purl.org/dc/dcmitype/StillImage" />
        <dc:title></dc:title>
      </cc:Work>
    </rdf:RDF>
  </metadata>
  <g
     inkscape:label="Layer 1"
     inkscape:groupmode="layer"
     id="layer1"
     transform="translate(0,-796.36218)">
    <g
       transform="matrix(0.91796877,0,0,0.91796877,8.6329104,804.96096)"
       id="g6175">
      <path
         inkscape:connector-curvature="0"
         id="path6173"
         d="m 24.229385,26.257915 c -7.60612,0 -13.74013,6.09922 -13.74013,13.705349 l 0,146.445486 0,32.03713 c 0,7.60612 6.13401,13.74013 13.74013,13.74013 l 105.259865,0 105.25987,0 c 7.60612,0 13.74013,-6.13401 13.74013,-13.74013 l 0,-178.482616 c 0,-7.606129 -6.13401,-13.705349 -13.74013,-13.705349 l -210.519735,0 z m 128.148495,13.705349 13.70534,0 0,13.740135 -13.70534,0 0,-13.740135 z m 27.44548,0 13.74013,0 0,13.740135 -13.74013,0 0,-13.740135 z m 27.44549,0 13.74013,0 0,13.740135 -13.74013,0 0,-13.740135 z m -169.299325,41.185619 183.039455,0 0,123.591647 -91.51973,0 -91.519725,0 0,-18.33178 0,-105.259868 z"
         style="opacity:0.05;fill:none;stroke:#000000;stroke-width:18;stroke-linejoin:round;stroke-miterlimit:4;stroke-opacity:1;stroke-dasharray:none;display:inline" />
      <path
         style="opacity:0.1;fill:none;stroke:#000000;stroke-width:12;stroke-linejoin:round;stroke-miterlimit:4;stroke-opacity:1;stroke-dasharray:none;display:inline"
         d="m 24.229385,26.257915 c -7.60612,0 -13.74013,6.09922 -13.74013,13.705349 l 0,146.445486 0,32.03713 c 0,7.60612 6.13401,13.74013 13.74013,13.74013 l 105.259865,0 105.25987,0 c 7.60612,0 13.74013,-6.13401 13.74013,-13.74013 l 0,-178.482616 c 0,-7.606129 -6.13401,-13.705349 -13.74013,-13.705349 l -210.519735,0 z m 128.148495,13.705349 13.70534,0 0,13.740135 -13.70534,0 0,-13.740135 z m 27.44548,0 13.74013,0 0,13.740135 -13.74013,0 0,-13.740135 z m 27.44549,0 13.74013,0 0,13.740135 -13.74013,0 0,-13.740135 z m -169.299325,41.185619 183.039455,0 0,123.591647 -91.51973,0 -91.519725,0 0,-18.33178 0,-105.259868 z"
         id="path6171"
         inkscape:connector-curvature="0" />
      <path
         inkscape:connector-curvature="0"
         id="path6169"
         d="m 24.229385,26.257915 c -7.60612,0 -13.74013,6.09922 -13.74013,13.705349 l 0,146.445486 0,32.03713 c 0,7.60612 6.13401,13.74013 13.74013,13.74013 l 105.259865,0 105.25987,0 c 7.60612,0 13.74013,-6.13401 13.74013,-13.74013 l 0,-178.482616 c 0,-7.606129 -6.13401,-13.705349 -13.74013,-13.705349 l -210.519735,0 z m 128.148495,13.705349 13.70534,0 0,13.740135 -13.70534,0 0,-13.740135 z m 27.44548,0 13.74013,0 0,13.740135 -13.74013,0 0,-13.740135 z m 27.44549,0 13.74013,0 0,13.740135 -13.74013,0 0,-13.740135 z m -169.299325,41.185619 183.039455,0 0,123.591647 -91.51973,0 -91.519725,0 0,-18.33178 0,-105.259868 z"
         style="opacity:0.15;fill:none;stroke:#000000;stroke-width:6;stroke-linejoin:round;stroke-miterlimit:4;stroke-opacity:1;stroke-dasharray:none;display:inline" />
      <path
         style="fill:url(#linearGradient3850);fill-opacity:1;stroke:none;display:inline"
         d="m 24.229385,26.257915 c -7.60612,0 -13.74013,6.09922 -13.74013,13.705349 l 0,146.445486 0,32.03713 c 0,7.60612 6.13401,13.74013 13.74013,13.74013 l 105.259865,0 105.25987,0 c 7.60612,0 13.74013,-6.13401 13.74013,-13.74013 l 0,-178.482616 c 0,-7.606129 -6.13401,-13.705349 -13.74013,-13.705349 l -210.519735,0 z m 128.148495,13.705349 13.70534,0 0,13.740135 -13.70534,0 0,-13.740135 z m 27.44548,0 13.74013,0 0,13.740135 -13.74013,0 0,-13.740135 z m 27.44549,0 13.74013,0 0,13.740135 -13.74013,0 0,-13.740135 z m -169.299325,41.185619 183.039455,0 0,123.591647 -91.51973,0 -91.519725,0 0,-18.33178 0,-105.259868 z"
         id="path3848"
         inkscape:connector-curvature="0" />
      <path
         inkscape:connector-curvature="0"
         id="path6149"
         d="M 24.21875,26.25 C 16.61263,26.25 10.5,32.362621 10.5,39.96875 l 0,2 C 10.5,34.362621 16.61263,28.25 24.21875,28.25 l 210.53125,0 c 7.60612,0 13.75,6.112621 13.75,13.71875 l 0,-2 C 248.5,32.362621 242.35612,26.25 234.75,26.25 l -210.53125,0 z m 128.15625,27.46875 0,2 13.71875,0 0,-2 -13.71875,0 z m 27.4375,0 0,2 13.75,0 0,-2 -13.75,0 z m 27.46875,0 0,2 13.71875,0 0,-2 -13.71875,0 z M 37.96875,204.75 l 0,2 91.53125,0 91.5,0 0,-2 -91.5,0 -91.53125,0 z"
         style="opacity:0.7;fill:#ffffff;fill-opacity:1;stroke:none;display:inline" />
      <path
         inkscape:connector-curvature="0"
         id="path6158"
         d="m 152.375,37.96875 0,2 13.71875,0 0,-2 -13.71875,0 z m 27.4375,0 0,2 13.75,0 0,-2 -13.75,0 z m 27.46875,0 0,2 13.71875,0 0,-2 -13.71875,0 z m -169.3125,41.1875 0,2 183.03125,0 0,-2 -183.03125,0 z M 10.5,216.4375 l 0,2 c 0,7.60612 6.11263,13.75 13.71875,13.75 l 105.28125,0 105.25,0 c 7.60612,0 13.75,-6.14388 13.75,-13.75 l 0,-2 c 0,7.60612 -6.14388,13.75 -13.75,13.75 l -105.25,0 -105.28125,0 c -7.60612,0 -13.71875,-6.14388 -13.71875,-13.75 z"
         style="opacity:0.7;fill:#000000;fill-opacity:1;stroke:none;display:inline" />
      <path
         inkscape:connector-curvature="0"
         style="opacity:0.3;fill:#000000;fill-opacity:1;stroke:none;display:inline"
         d="m 152.375,39.96875 0,2 13.71875,0 0,-2 -13.71875,0 z m 27.4375,0 0,2 13.75,0 0,-2 -13.75,0 z m 27.46875,0 0,2 13.71875,0 0,-2 -13.71875,0 z m -169.3125,41.1875 0,2 183.03125,0 0,-2 -183.03125,0 z M 10.5,218.4375 l 0,2 c 0,7.60612 6.11263,13.75 13.71875,13.75 l 105.28125,0 105.25,0 c 7.60612,0 13.75,-6.14388 13.75,-13.75 l 0,-2 c 0,7.60612 -6.14388,13.75 -13.75,13.75 l -105.25,0 -105.28125,0 c -7.60612,0 -13.71875,-6.14388 -13.71875,-13.75 z"
         id="path6167" />
    </g>
  </g>
</svg>
