<?xml version="1.0" encoding="UTF-8" standalone="no"?>
<!-- Created with Inkscape (http://www.inkscape.org/) -->

<svg
   xmlns:dc="http://purl.org/dc/elements/1.1/"
   xmlns:cc="http://creativecommons.org/ns#"
   xmlns:rdf="http://www.w3.org/1999/02/22-rdf-syntax-ns#"
   xmlns:svg="http://www.w3.org/2000/svg"
   xmlns="http://www.w3.org/2000/svg"
   xmlns:xlink="http://www.w3.org/1999/xlink"
   xmlns:sodipodi="http://sodipodi.sourceforge.net/DTD/sodipodi-0.dtd"
   xmlns:inkscape="http://www.inkscape.org/namespaces/inkscape"
   version="1.0"
   width="256"
   height="256"
   id="svg2408"
   inkscape:version="0.48.3.1 r9886"
   sodipodi:docname="visualization.svg">
  <sodipodi:namedview
     pagecolor="#ffffff"
     bordercolor="#666666"
     borderopacity="1"
     objecttolerance="10"
     gridtolerance="10"
     guidetolerance="10"
     inkscape:pageopacity="0"
     inkscape:pageshadow="2"
     inkscape:window-width="1024"
     inkscape:window-height="572"
     id="namedview93"
     showgrid="false"
     inkscape:zoom="1.6367188"
     inkscape:cx="117.30788"
     inkscape:cy="128"
     inkscape:window-x="0"
     inkscape:window-y="28"
     inkscape:window-maximized="1"
     inkscape:current-layer="svg2408" />
  <defs
     id="defs2410">
    <linearGradient
       id="linearGradient3637">
      <stop
         id="stop3639"
         style="stop-color:#5a5a5a;stop-opacity:1;"
         offset="0" />
      <stop
         id="stop3641"
         style="stop-color:#000000;stop-opacity:1;"
         offset="1" />
    </linearGradient>
    <linearGradient
       x1="45.447727"
       y1="92.539597"
       x2="45.447727"
       y2="7.0165396"
       id="ButtonShadow"
       gradientUnits="userSpaceOnUse"
       gradientTransform="scale(1.0058652,0.994169)">
      <stop
         id="stop3750"
         style="stop-color:#000000;stop-opacity:1"
         offset="0" />
      <stop
         id="stop3752"
         style="stop-color:#000000;stop-opacity:0.58823532"
         offset="1" />
    </linearGradient>
    <linearGradient
       id="linearGradient3737">
      <stop
         id="stop3739"
         style="stop-color:#ffffff;stop-opacity:1"
         offset="0" />
      <stop
         id="stop3741"
         style="stop-color:#ffffff;stop-opacity:0"
         offset="1" />
    </linearGradient>
    <linearGradient
       id="linearGradient3700">
      <stop
         id="stop3702"
         style="stop-color:#2276c5;stop-opacity:1"
         offset="0" />
      <stop
         id="stop3704"
         style="stop-color:#68baf4;stop-opacity:1"
         offset="1" />
    </linearGradient>
    <filter
       color-interpolation-filters="sRGB"
       id="filter3174">
      <feGaussianBlur
         id="feGaussianBlur3176"
         stdDeviation="1.71" />
    </filter>
    <linearGradient
       x1="36.357143"
       y1="6"
       x2="36.357143"
       y2="63.893143"
       id="linearGradient3188"
       xlink:href="#linearGradient3737"
       gradientUnits="userSpaceOnUse" />
    <filter
       x="-0.192"
       y="-0.192"
       width="1.3839999"
       height="1.3839999"
       color-interpolation-filters="sRGB"
       id="filter3794">
      <feGaussianBlur
         id="feGaussianBlur3796"
         stdDeviation="5.28" />
    </filter>
    <linearGradient
       x1="48"
       y1="20.220806"
       x2="48"
       y2="138.66119"
       id="linearGradient3613"
       xlink:href="#linearGradient3737"
       gradientUnits="userSpaceOnUse" />
    <radialGradient
       cx="48"
       cy="90.171875"
       r="42"
       fx="48"
       fy="90.171875"
       id="radialGradient3619"
       xlink:href="#linearGradient3737"
       gradientUnits="userSpaceOnUse"
       gradientTransform="matrix(1.1573129,0,0,0.99590774,-7.5510206,0.19713193)" />
    <clipPath
       id="clipPath3613">
      <rect
         width="84"
         height="84"
         rx="6"
         ry="6"
         x="6"
         y="6"
         id="rect3615"
         style="fill:#ffffff;fill-opacity:1;fill-rule:nonzero;stroke:none" />
    </clipPath>
    <linearGradient
       x1="48"
       y1="90"
       x2="48"
       y2="5.9877172"
       id="linearGradient2843"
       xlink:href="#linearGradient3700"
       gradientUnits="userSpaceOnUse"
       gradientTransform="translate(0,100)" />
    <clipPath
       id="clipPath3625">
      <path
         d="M 0,0 0,96 96,96 96,0 0,0 z m 12,6 72,0 c 3.324,0 6,2.676 6,6 l 0,72 c 0,3.324 -2.676,6 -6,6 L 12,90 C 8.676,90 6,87.324 6,84 L 6,12 C 6,8.676 8.676,6 12,6 z"
         inkscape:connector-curvature="0"
         id="path3627"
         style="fill:#ffffff;fill-opacity:1;stroke:none" />
    </clipPath>
    <linearGradient
       x1="44.512066"
       y1="6"
       x2="44.512066"
       y2="90.015434"
       id="linearGradient3643"
       xlink:href="#linearGradient3637"
       gradientUnits="userSpaceOnUse" />
    <clipPath
       id="clipPath3649">
      <rect
         width="76"
         height="76"
         rx="4"
         ry="4"
         x="10"
         y="10"
         id="rect3651"
         style="fill:#ffffff;fill-opacity:1;fill-rule:nonzero;stroke:none" />
    </clipPath>
    <filter
       color-interpolation-filters="sRGB"
       id="filter3657">
      <feGaussianBlur
         id="feGaussianBlur3659"
         stdDeviation="1.14" />
    </filter>
    <linearGradient
       inkscape:collect="always"
       xlink:href="#linearGradient3637"
       id="linearGradient5283"
       gradientUnits="userSpaceOnUse"
       gradientTransform="matrix(12.087375,0,0,12.087375,-5.2962239,-8.992339)"
       x1="11"
       y1="2"
       x2="11"
       y2="20.027756" />
  </defs>
  <metadata
     id="metadata2413">
    <rdf:RDF>
      <cc:Work
         rdf:about="">
        <dc:format>image/svg+xml</dc:format>
        <dc:type
           rdf:resource="http://purl.org/dc/dcmitype/StillImage" />
        <dc:title></dc:title>
      </cc:Work>
    </rdf:RDF>
  </metadata>
  <g
     id="layer2"
     style="display:none"
     transform="translate(0,160)">
    <rect
       width="86"
       height="85"
       rx="6"
       ry="6"
       x="5"
       y="7"
       clip-path="url(#clipPath3625)"
       id="rect3745"
       style="opacity:0.9;fill:url(#ButtonShadow);fill-opacity:1;fill-rule:nonzero;stroke:none;filter:url(#filter3174)" />
  </g>
  <g
     id="layer1"
     style="display:none"
     transform="translate(0,160)">
    <rect
       width="84"
       height="84"
       rx="6"
       ry="6"
       x="6"
       y="6"
       id="rect2419"
       style="opacity:0.8;fill:#000000;fill-opacity:1;fill-rule:nonzero;stroke:none" />
    <path
       d="m 14,10 c -2.216,0 -4,1.784 -4,4 l 0,68 c 0,2.216 1.784,4 4,4 l 68,0 c 2.216,0 4,-1.784 4,-4 l 0,-68 c 0,-2.216 -1.784,-4 -4,-4 l -68,0 z m 0,3.0625 68,0 c 0.578769,0 0.9375,0.358731 0.9375,0.9375 l 0,68 c 0,0.578769 -0.358731,0.9375 -0.9375,0.9375 l -68,0 c -0.578769,0 -0.9375,-0.358731 -0.9375,-0.9375 l 0,-68 c 0,-0.578769 0.358731,-0.9375 0.9375,-0.9375 z"
       inkscape:connector-curvature="0"
       id="rect3726"
       style="opacity:0.07999998;fill:#000000;fill-opacity:1;fill-rule:nonzero;stroke:none" />
    <path
       d="M 12,6 C 8.676,6 6,8.676 6,12 l 0,72 c 0,3.324 2.676,6 6,6 l 72,0 c 3.324,0 6,-2.676 6,-6 L 90,12 C 90,8.676 87.324,6 84,6 L 12,6 z m 2,4 68,0 c 2.216,0 4,1.784 4,4 l 0,68 c 0,2.216 -1.784,4 -4,4 l -68,0 c -2.216,0 -4,-1.784 -4,-4 l 0,-68 c 0,-2.216 1.784,-4 4,-4 z"
       inkscape:connector-curvature="0"
       id="rect3629"
       style="fill:url(#linearGradient3643);fill-opacity:1;fill-rule:nonzero;stroke:none" />
    <path
       d="M 12,6 C 8.676,6 6,8.676 6,12 l 0,2 0,68 0,2 c 0,0.334721 0.04135,0.6507 0.09375,0.96875 0.0487,0.295596 0.09704,0.596915 0.1875,0.875 0.00988,0.03038 0.020892,0.0636 0.03125,0.09375 0.098865,0.287771 0.2348802,0.547452 0.375,0.8125 0.1445918,0.273507 0.3156161,0.535615 0.5,0.78125 0.1843839,0.245635 0.3737765,0.473472 0.59375,0.6875 0.439947,0.428056 0.94291,0.814526 1.5,1.09375 0.278545,0.139612 0.5734731,0.246947 0.875,0.34375 -0.2562018,-0.100222 -0.4867109,-0.236272 -0.71875,-0.375 -0.00741,-0.0044 -0.023866,0.0045 -0.03125,0 -0.031933,-0.0193 -0.062293,-0.04251 -0.09375,-0.0625 -0.120395,-0.0767 -0.2310226,-0.163513 -0.34375,-0.25 -0.1061728,-0.0808 -0.2132809,-0.161112 -0.3125,-0.25 C 8.4783201,88.557317 8.3087904,88.373362 8.15625,88.1875 8.0486711,88.057245 7.9378561,87.922215 7.84375,87.78125 7.818661,87.74287 7.805304,87.69538 7.78125,87.65625 7.716487,87.553218 7.6510225,87.451733 7.59375,87.34375 7.4927417,87.149044 7.3880752,86.928049 7.3125,86.71875 7.30454,86.69694 7.288911,86.6782 7.28125,86.65625 7.2494249,86.5643 7.2454455,86.469419 7.21875,86.375 7.1884177,86.268382 7.1483606,86.171969 7.125,86.0625 7.0521214,85.720988 7,85.364295 7,85 L 7,83 7,15 7,13 C 7,10.218152 9.2181517,8 12,8 l 2,0 68,0 2,0 c 2.781848,0 5,2.218152 5,5 l 0,2 0,68 0,2 c 0,0.364295 -0.05212,0.720988 -0.125,1.0625 -0.04415,0.206893 -0.08838,0.397658 -0.15625,0.59375 -0.0077,0.02195 -0.0233,0.04069 -0.03125,0.0625 -0.06274,0.173739 -0.138383,0.367449 -0.21875,0.53125 -0.04158,0.0828 -0.07904,0.169954 -0.125,0.25 -0.0546,0.09721 -0.126774,0.18835 -0.1875,0.28125 -0.09411,0.140965 -0.204921,0.275995 -0.3125,0.40625 -0.143174,0.17445 -0.303141,0.346998 -0.46875,0.5 -0.01117,0.0102 -0.01998,0.02115 -0.03125,0.03125 -0.138386,0.125556 -0.285091,0.234436 -0.4375,0.34375 -0.102571,0.07315 -0.204318,0.153364 -0.3125,0.21875 -0.0074,0.0045 -0.02384,-0.0044 -0.03125,0 -0.232039,0.138728 -0.462548,0.274778 -0.71875,0.375 0.301527,-0.0968 0.596455,-0.204138 0.875,-0.34375 0.55709,-0.279224 1.060053,-0.665694 1.5,-1.09375 0.219973,-0.214028 0.409366,-0.441865 0.59375,-0.6875 0.184384,-0.245635 0.355408,-0.507743 0.5,-0.78125 0.14012,-0.265048 0.276135,-0.524729 0.375,-0.8125 0.01041,-0.03078 0.02133,-0.06274 0.03125,-0.09375 0.09046,-0.278085 0.1388,-0.579404 0.1875,-0.875 C 89.95865,84.6507 90,84.334721 90,84 l 0,-2 0,-68 0,-2 C 90,8.676 87.324,6 84,6 L 12,6 z"
       inkscape:connector-curvature="0"
       id="rect3728"
       style="fill:url(#linearGradient3188);fill-opacity:1;fill-rule:nonzero;stroke:none" />
    <path
       d="M 12,90 C 8.676,90 6,87.324 6,84 L 6,82 6,14 6,12 c 0,-0.334721 0.04135,-0.6507 0.09375,-0.96875 0.0487,-0.295596 0.09704,-0.596915 0.1875,-0.875 C 6.29113,10.12587 6.302142,10.09265 6.3125,10.0625 6.411365,9.774729 6.5473802,9.515048 6.6875,9.25 6.8320918,8.976493 7.0031161,8.714385 7.1875,8.46875 7.3718839,8.223115 7.5612765,7.995278 7.78125,7.78125 8.221197,7.353194 8.72416,6.966724 9.28125,6.6875 9.559795,6.547888 9.8547231,6.440553 10.15625,6.34375 9.9000482,6.443972 9.6695391,6.580022 9.4375,6.71875 c -0.00741,0.0044 -0.023866,-0.0045 -0.03125,0 -0.031933,0.0193 -0.062293,0.04251 -0.09375,0.0625 -0.120395,0.0767 -0.2310226,0.163513 -0.34375,0.25 -0.1061728,0.0808 -0.2132809,0.161112 -0.3125,0.25 C 8.4783201,7.442683 8.3087904,7.626638 8.15625,7.8125 8.0486711,7.942755 7.9378561,8.077785 7.84375,8.21875 7.818661,8.25713 7.805304,8.30462 7.78125,8.34375 7.716487,8.446782 7.6510225,8.548267 7.59375,8.65625 7.4927417,8.850956 7.3880752,9.071951 7.3125,9.28125 7.30454,9.30306 7.288911,9.3218 7.28125,9.34375 7.2494249,9.4357 7.2454455,9.530581 7.21875,9.625 7.1884177,9.731618 7.1483606,9.828031 7.125,9.9375 7.0521214,10.279012 7,10.635705 7,11 l 0,2 0,68 0,2 c 0,2.781848 2.2181517,5 5,5 l 2,0 68,0 2,0 c 2.781848,0 5,-2.218152 5,-5 l 0,-2 0,-68 0,-2 C 89,10.635705 88.94788,10.279012 88.875,9.9375 88.83085,9.730607 88.78662,9.539842 88.71875,9.34375 88.71105,9.3218 88.69545,9.30306 88.6875,9.28125 88.62476,9.107511 88.549117,8.913801 88.46875,8.75 88.42717,8.6672 88.38971,8.580046 88.34375,8.5 88.28915,8.40279 88.216976,8.31165 88.15625,8.21875 88.06214,8.077785 87.951329,7.942755 87.84375,7.8125 87.700576,7.63805 87.540609,7.465502 87.375,7.3125 87.36383,7.3023 87.35502,7.29135 87.34375,7.28125 87.205364,7.155694 87.058659,7.046814 86.90625,6.9375 86.803679,6.86435 86.701932,6.784136 86.59375,6.71875 c -0.0074,-0.0045 -0.02384,0.0044 -0.03125,0 -0.232039,-0.138728 -0.462548,-0.274778 -0.71875,-0.375 0.301527,0.0968 0.596455,0.204138 0.875,0.34375 0.55709,0.279224 1.060053,0.665694 1.5,1.09375 0.219973,0.214028 0.409366,0.441865 0.59375,0.6875 0.184384,0.245635 0.355408,0.507743 0.5,0.78125 0.14012,0.265048 0.276135,0.524729 0.375,0.8125 0.01041,0.03078 0.02133,0.06274 0.03125,0.09375 0.09046,0.278085 0.1388,0.579404 0.1875,0.875 C 89.95865,11.3493 90,11.665279 90,12 l 0,2 0,68 0,2 c 0,3.324 -2.676,6 -6,6 l -72,0 z"
       inkscape:connector-curvature="0"
       id="path3615"
       style="opacity:0.6;fill:url(#radialGradient3619);fill-opacity:1;fill-rule:nonzero;stroke:none" />
    <rect
       width="84"
       height="84"
       rx="6"
       ry="6"
       x="6"
       y="106"
       id="rect2841"
       style="fill:url(#linearGradient2843);fill-opacity:1;fill-rule:nonzero;stroke:none" />
    <rect
       width="76"
       height="76"
       rx="4"
       ry="4"
       x="10"
       y="110"
       id="rect3634"
       style="fill:#ff0000;fill-opacity:1;fill-rule:nonzero;stroke:none" />
    <path
       d="m 14,9 c -2.752703,0 -5,2.247297 -5,5 l 0,68 c 0,2.752703 2.247297,5 5,5 l 68,0 c 2.752703,0 5,-2.247297 5,-5 L 87,14 C 87,11.247297 84.752703,9 82,9 L 14,9 z m 0,2 68,0 c 1.679297,0 3,1.320703 3,3 l 0,68 c 0,1.679297 -1.320703,3 -3,3 l -68,0 c -1.679297,0 -3,-1.320703 -3,-3 l 0,-68 c 0,-1.679297 1.320703,-3 3,-3 z"
       inkscape:connector-curvature="0"
       transform="translate(-110,0)"
       clip-path="url(#clipPath3649)"
       id="rect3647"
       style="font-size:medium;font-style:normal;font-variant:normal;font-weight:normal;font-stretch:normal;text-indent:0;text-align:start;text-decoration:none;line-height:normal;letter-spacing:normal;word-spacing:normal;text-transform:none;direction:ltr;block-progression:tb;writing-mode:lr-tb;text-anchor:start;color:#000000;fill:#000000;fill-opacity:1;stroke:none;stroke-width:2;marker:none;visibility:visible;display:inline;overflow:visible;filter:url(#filter3657);enable-background:accumulate;font-family:Abandoned Bitplane;-inkscape-font-specification:Abandoned Bitplane" />
    <path
       d="m 14.089286,10 c -2.216,0 -4,1.784 -4,4 l 0,68 c 0,2.216 1.784,4 4,4 l 68,0 c 2.216,0 4,-1.784 4,-4 l 0,-68 c 0,-2.216 -1.784,-4 -4,-4 l -68,0 z m 0,2 68,0 c 1.140301,0 2,0.859699 2,2 l 0,68 c 0,1.140301 -0.859699,2 -2,2 l -68,0 c -1.140301,0 -2,-0.859699 -2,-2 l 0,-68 c 0,-1.140301 0.859699,-2 2,-2 z"
       inkscape:connector-curvature="0"
       id="path3709"
       style="opacity:0.16000001;fill:#000000;fill-opacity:1;fill-rule:nonzero;stroke:none" />
    <path
       d="m 14,10 c -2.216,0 -4,1.784 -4,4 l 0,68 c 0,2.216 1.784,4 4,4 l 68,0 c 2.216,0 4,-1.784 4,-4 l 0,-68 c 0,-2.216 -1.784,-4 -4,-4 l -68,0 z m 0,1 68,0 c 1.673848,0 3,1.326152 3,3 l 0,68 c 0,1.673848 -1.326152,3 -3,3 l -68,0 c -1.673848,0 -3,-1.326152 -3,-3 l 0,-68 c 0,-1.673848 1.326152,-3 3,-3 z"
       inkscape:connector-curvature="0"
       id="path3707"
       style="opacity:0.36000001;fill:#000000;fill-opacity:1;fill-rule:nonzero;stroke:none" />
  </g>
  <g
     id="layer5"
     style="display:none"
     transform="translate(0,160)">
    <rect
       width="66"
       height="66"
       rx="12"
       ry="12"
       x="15"
       y="15"
       clip-path="url(#clipPath3613)"
       id="rect3171"
       style="opacity:0.1;fill:url(#linearGradient3613);fill-opacity:1;fill-rule:nonzero;stroke:#ffffff;stroke-width:0.5;stroke-linecap:round;stroke-linejoin:miter;stroke-miterlimit:4;stroke-opacity:1;stroke-dasharray:none;stroke-dashoffset:0;filter:url(#filter3794)" />
  </g>
  <g
     id="g5275"
     transform="translate(-0.19926421,0.79814576)">
    <path
       d="m 126.63795,10.205015 c -7.31974,0.966816 -7.17989,9.676671 -8.5218,15.135214 -2.97186,10.002156 -5.46024,21.826431 -14.41352,28.225099 -11.939633,0.130354 -21.501541,-8.99083 -30.360431,-15.977299 -3.477697,-4.222254 -9.899121,-9.076235 -15.053791,-4.447691 -5.406693,4.33238 -1.289121,11.324947 1.020441,16.091076 3.576702,10.280867 8.964685,21.706592 5.3695,32.632223 -9.756717,7.095536 -22.971771,5.165774 -34.36168,4.683607 -5.188486,-1.314831 -12.687951,-1.756065 -14.703937,4.558986 -1.858746,5.395154 2.883718,9.78022 7.559096,11.39965 10.216997,6.51584 22.633166,13.09292 26.900942,25.1143 -4.267779,12.02137 -16.683945,18.59845 -26.900946,25.11429 -5.278314,1.58518 -10.075078,7.24152 -6.988561,12.76893 4.447902,7.23403 13.514721,2.26357 20.139837,2.75045 9.497161,0.51682 24.423734,-2.26642 29.291211,7.86211 1.524242,13.74932 -5.357542,26.59442 -10.064449,39.02358 -1.219405,7.2462 8.782539,11.95186 13.578624,6.38995 9.663606,-8.4937 20.090748,-18.59356 33.438164,-20.02068 9.7435,4.63724 11.97783,17.35746 15.15536,26.81848 2.07403,5.6747 0.75304,15.28689 8.57363,16.70805 6.01613,1.26196 9.89048,-4.89265 9.78106,-10.22898 3.05313,-11.65376 5.42011,-25.46676 15.55049,-33.13133 11.93963,-0.13036 21.50154,8.99083 30.36043,15.97729 3.47769,4.22226 9.89912,9.07624 15.05379,4.4477 5.40669,-4.33238 1.28912,-11.32495 -1.02044,-16.09108 -3.5767,-10.28087 -8.96469,-21.70659 -5.3695,-32.63222 9.75671,-7.09554 22.97177,-5.16578 34.36168,-4.68365 5.18848,1.31483 12.68795,1.7561 14.70393,-4.55895 1.85875,-5.39515 -2.88371,-9.78022 -7.55909,-11.39965 -10.217,-6.51584 -22.63317,-13.09292 -26.90094,-25.11429 4.26778,-12.02138 16.68394,-18.59846 26.90094,-25.1143 5.27832,-1.58521 10.07508,-7.241515 6.98856,-12.768923 -4.4479,-7.234034 -13.51472,-2.263573 -20.13983,-2.75045 -9.49716,-0.516818 -24.42374,2.266421 -29.29121,-7.86211 -1.52425,-13.749364 5.35754,-26.594422 10.06444,-39.023588 1.21941,-7.246192 -8.78253,-11.951854 -13.57862,-6.38994 -9.66361,8.493691 -20.09075,18.593522 -33.43816,20.02067 -9.76019,-4.653374 -11.99889,-17.404008 -15.16719,-26.889784 -1.98013,-5.725168 -0.86162,-15.549391 -8.90412,-16.63674 -0.68438,0.01095 -1.36996,-0.01095 -2.05391,0 z m 1.02696,76.793396 c 24.03826,-0.799145 44.58358,23.181979 40.1545,46.815659 -2.88221,23.8197 -29.58274,40.44373 -52.24641,32.60444 C 92.492045,160.02258 80.012359,131.23776 91.043267,109.9946 97.555905,96.132995 112.33587,86.815987 127.66491,86.998411 z"
       inkscape:connector-curvature="0"
       id="path3897"
       style="opacity:0.1;color:#000000;fill:#000000;fill-opacity:1;fill-rule:nonzero;stroke:none;stroke-width:0.30000001;marker:none;visibility:visible;display:inline;overflow:visible;enable-background:accumulate" />
    <path
       d="m 126.98027,14.42694 a 3.6750291,3.6750291 0 0 0 -2.96676,3.080864 c 0,0 -1.53565,9.26421 -4.90656,19.055717 -1.68546,4.895753 -3.78894,9.814949 -6.27583,13.69273 -2.48689,3.877781 -5.31671,6.472097 -7.87332,7.302789 -2.56479,0.833358 -6.3258,0.401581 -10.611869,-1.255166 C 90.059866,54.647126 85.343144,51.944291 81.109625,49.001084 72.642585,43.114671 66.047622,36.563521 66.047622,36.563521 a 3.6750291,3.6750291 0 0 0 -5.933516,4.221925 c 0,0 4.121694,8.415515 7.074577,18.256974 1.476441,4.920729 2.611518,10.142333 2.852652,14.719685 0.241138,4.577352 -0.465093,8.310939 -2.05391,10.497759 -1.579593,2.174114 -4.900073,4.084524 -9.356699,5.24888 -4.456625,1.164357 -9.884431,1.624944 -15.062003,1.711592 -10.35514,0.173441 -19.626247,-1.255167 -19.626247,-1.255167 a 3.6750291,3.6750291 0 0 0 -2.282121,6.960471 c 0,0 8.447783,4.32887 16.773594,10.61187 4.162908,3.14147 8.241969,6.79966 11.182397,10.38365 2.940428,3.58399 4.564243,7.01893 4.564243,9.69902 0,2.68005 -1.623815,6.11502 -4.564243,9.69901 -2.940428,3.58399 -7.019489,7.24214 -11.182397,10.38366 -8.325811,6.28299 -16.773594,10.61186 -16.773594,10.61186 a 3.6750291,3.6750291 0 0 0 2.282121,6.96048 c 0,0 9.271107,-1.42847 19.626247,-1.25517 5.177572,0.0865 10.605378,0.54723 15.062003,1.71159 4.456626,1.16436 7.777106,3.07477 9.356699,5.24888 1.588817,2.18682 2.295044,5.92041 2.05391,10.49776 -0.241138,4.57735 -1.376211,9.79896 -2.852652,14.71968 -2.952883,9.84146 -7.074577,18.25698 -7.074577,18.25698 a 3.6750291,3.6750291 0 0 0 5.933516,4.22192 c 0,0 6.594963,-6.55115 15.062003,-12.43756 4.233519,-2.94321 8.950241,-5.64604 13.236306,-7.30279 4.286069,-1.65675 8.047079,-2.08852 10.611869,-1.25517 2.5566,0.8307 5.38643,3.42501 7.87332,7.30279 2.48688,3.87778 4.59037,8.79698 6.27583,13.69273 3.37092,9.79151 4.90656,19.05572 4.90656,19.05572 a 3.6750291,3.6750291 0 0 0 7.30279,0 c 0,0 1.53565,-9.26425 4.90656,-19.05572 1.68546,-4.89575 3.78895,-9.81495 6.27584,-13.69273 2.48689,-3.87778 5.31671,-6.47209 7.87332,-7.30279 2.56479,-0.83335 6.3258,-0.40158 10.61187,1.25517 4.28606,1.65675 9.00278,4.35958 13.2363,7.30279 8.46704,5.88641 15.062,12.43756 15.062,12.43756 a 3.6750291,3.6750291 0 0 0 5.93352,-4.22192 c 0,0 -4.12169,-8.41552 -7.07458,-18.25698 -1.47644,-4.92072 -2.61151,-10.14233 -2.85265,-14.71968 -0.24114,-4.57735 0.46509,-8.31094 2.05391,-10.49776 1.57959,-2.17411 4.90007,-4.08452 9.3567,-5.24888 4.45663,-1.16436 9.88443,-1.62494 15.062,-1.71159 10.35514,-0.17344 19.62625,1.25517 19.62625,1.25517 a 3.6750291,3.6750291 0 0 0 2.28212,-6.96048 c 0,0 -8.44778,-4.32887 -16.77359,-10.61186 -4.16291,-3.14152 -8.24197,-6.79967 -11.1824,-10.38366 -2.94043,-3.58399 -4.56424,-7.01896 -4.56424,-9.69901 0,-2.68009 1.62381,-6.11503 4.56424,-9.69902 2.94043,-3.58399 7.01949,-7.24218 11.1824,-10.38365 8.32581,-6.283 16.77359,-10.61187 16.77359,-10.61187 a 3.6750291,3.6750291 0 0 0 -2.28212,-6.960471 c 0,0 -9.27111,1.428462 -19.62625,1.255167 -5.17757,-0.08654 -10.60537,-0.547235 -15.062,-1.711592 -4.45663,-1.164356 -7.77711,-3.074766 -9.3567,-5.24888 -1.58882,-2.18682 -2.29504,-5.920407 -2.05391,-10.497759 0.24114,-4.577352 1.37621,-9.798956 2.85265,-14.719685 2.95289,-9.841459 7.07458,-18.256974 7.07458,-18.256974 a 3.6750291,3.6750291 0 0 0 -5.93352,-4.221925 c 0,0 -6.59496,6.55115 -15.062,12.437563 -4.23352,2.943207 -8.95024,5.646042 -13.2363,7.30279 -4.28607,1.656747 -8.04708,2.088524 -10.61187,1.255166 -2.55661,-0.830692 -5.38643,-3.425008 -7.87332,-7.302789 -2.48689,-3.877781 -4.59038,-8.796977 -6.27584,-13.69273 -3.37091,-9.791507 -4.90656,-19.055717 -4.90656,-19.055717 a 3.6750291,3.6750291 0 0 0 -4.33603,-3.080864 z m 0.68464,68.463651 c 24.71387,0 44.72958,20.015709 44.72958,44.729589 0,24.71388 -20.01571,44.72958 -44.72958,44.72958 -24.71387,0 -44.729587,-20.0157 -44.729587,-44.72958 0,-24.71388 20.015717,-44.729589 44.729587,-44.729589 z"
       inkscape:connector-curvature="0"
       id="path3892"
       style="opacity:0.15;color:#000000;fill:#000000;fill-opacity:1;fill-rule:nonzero;stroke:none;stroke-width:0.30000001;marker:none;visibility:visible;display:inline;overflow:visible;enable-background:accumulate" />
    <path
       d="m 127.66491,18.078335 c 0,0 -6.31624,38.117822 -21.53064,43.061263 C 90.919882,66.083075 63.450725,39.23123 63.450725,39.23123 c 0,0 16.957617,34.274182 7.554607,47.216331 -9.403006,12.942113 -47.594039,7.17689 -47.594039,7.17689 0,0 34.373471,17.998379 34.373475,33.995729 0,15.99734 -34.373475,33.99572 -34.373475,33.99572 0,0 38.191033,-5.76522 47.594039,7.17689 9.40301,12.94215 -7.554607,47.21633 -7.554607,47.21633 0,0 27.469157,-26.85184 42.683545,-21.90836 15.21438,4.94344 21.53064,43.06126 21.53064,43.06126 0,0 6.31624,-38.11782 21.53064,-43.06126 15.21439,-4.94348 42.68355,21.90836 42.68355,21.90836 0,0 -16.95762,-34.27418 -7.55461,-47.21633 9.40301,-12.94211 47.59403,-7.17689 47.59403,-7.17689 0,0 -34.37346,-17.99838 -34.37346,-33.99572 0,-15.99735 34.37346,-33.995729 34.37346,-33.995729 0,0 -38.19102,5.765223 -47.59403,-7.17689 -9.40302,-12.942149 7.55461,-47.216331 7.55461,-47.216331 0,0 -27.46916,26.851845 -42.68355,21.908368 -15.2144,-4.943441 -21.53064,-43.061263 -21.53064,-43.061263 z m 0,61.192337 c 26.70269,0 48.3495,21.646818 48.3495,48.349508 0,26.70268 -21.64681,48.3495 -48.3495,48.3495 -26.7027,0 -48.349503,-21.64682 -48.349503,-48.3495 0,-26.70269 21.646803,-48.349508 48.349503,-48.349508 z"
       inkscape:connector-curvature="0"
       id="path3886"
       style="opacity:0.3;color:#000000;fill:#000000;fill-opacity:1;fill-rule:nonzero;stroke:none;stroke-width:0.30000001;marker:none;visibility:visible;display:inline;overflow:visible;enable-background:accumulate" />
    <path
       d="m 127.66491,14.42694 c 0,0 -6.31624,38.117823 -21.53064,43.061263 -15.214388,4.943478 -42.683545,-21.908368 -42.683545,-21.908368 0,0 16.957617,34.274182 7.554607,47.216331 -9.403006,12.942113 -47.594039,7.17689 -47.594039,7.17689 0,0 34.373471,17.998384 34.373475,33.995724 0,15.99735 -34.373475,33.99573 -34.373475,33.99573 0,0 38.191033,-5.76522 47.594039,7.17689 9.40301,12.94215 -7.554607,47.21633 -7.554607,47.21633 0,0 27.469157,-26.85185 42.683545,-21.90837 15.21438,4.94344 21.53064,43.06126 21.53064,43.06126 0,0 6.31624,-38.11782 21.53064,-43.06126 15.21439,-4.94348 42.68355,21.90837 42.68355,21.90837 0,0 -16.95762,-34.27418 -7.55461,-47.21633 9.40301,-12.94211 47.59403,-7.17689 47.59403,-7.17689 0,0 -34.37346,-17.99838 -34.37346,-33.99573 0,-15.99734 34.37346,-33.995724 34.37346,-33.995724 0,0 -38.19102,5.765223 -47.59403,-7.17689 -9.40302,-12.942149 7.55461,-47.216331 7.55461,-47.216331 0,0 -27.46916,26.851846 -42.68355,21.908368 -15.2144,-4.94344 -21.53064,-43.061263 -21.53064,-43.061263 z m 0,61.192337 c 26.70269,0 48.3495,21.646819 48.3495,48.349503 0,26.70269 -21.64681,48.34951 -48.3495,48.34951 -26.7027,0 -48.349503,-21.64682 -48.349503,-48.34951 0,-26.702684 21.646803,-48.349503 48.349503,-48.349503 z"
       inkscape:connector-curvature="0"
       id="path2880"
       style="color:#000000;fill:url(#linearGradient5283);fill-opacity:1;fill-rule:nonzero;stroke:none;stroke-width:0.30000001;marker:none;visibility:visible;display:inline;overflow:visible;enable-background:accumulate" />
    <path
       d="m 127.66491,14.42694 c 0,0 -6.35165,38.074554 -21.56605,43.017994 -15.214389,4.943478 -42.675678,-21.908368 -42.675678,-21.908368 0,0 1.207801,2.392649 2.738546,6.047623 6.190162,5.68062 26.97653,23.723294 39.937132,19.51214 15.2144,-4.943441 21.56605,-43.017994 21.56605,-43.017994 0,0 6.35165,38.074553 21.56605,43.017994 12.9606,4.211154 33.74697,-13.83152 39.93713,-19.51214 1.53074,-3.654974 2.73854,-6.047623 2.73854,-6.047623 0,0 -27.46128,26.851846 -42.67567,21.908368 C 134.01656,52.501494 127.66491,14.42694 127.66491,14.42694 z M 73.806836,73.647999 c -0.195131,3.56 -1.089587,6.701842 -2.852652,9.128486 -9.403006,12.94215 -47.582238,7.188684 -47.582238,7.188684 0,0 3.225193,1.768407 7.531002,4.450137 11.573238,0.953416 33.246657,1.378292 40.051236,-7.987426 2.350753,-3.235537 3.120131,-7.746689 2.852652,-12.779881 z m 107.716144,0 c -0.26746,5.033192 0.5019,9.544344 2.85265,12.779881 6.80459,9.365718 28.478,8.940878 40.05124,7.987426 4.30581,-2.68173 7.531,-4.450137 7.531,-4.450137 0,0 -38.17922,5.753466 -47.58224,-7.188684 -1.76306,-2.426644 -2.65752,-5.568486 -2.85265,-9.128486 z M 57.603772,125.79448 c -2.454106,15.4994 -34.231826,32.17792 -34.231826,32.17792 0,0 3.111594,-0.43467 7.531002,-0.79875 10.100349,-6.29062 26.929036,-18.33752 26.929036,-29.55347 0,-0.61789 -0.129625,-1.20299 -0.228212,-1.8257 z m 21.794262,0 c -0.02337,0.61577 -0.114106,1.20423 -0.114106,1.8257 0,26.70268 21.678282,48.38098 48.380982,48.38098 26.70269,0 48.38098,-21.6783 48.38098,-48.38098 0,-0.62147 -0.0909,-1.20993 -0.11411,-1.8257 -0.97535,25.8426 -22.18563,46.55528 -48.26687,46.55528 -26.08124,0 -47.291526,-20.71268 -48.266876,-46.55528 z m 118.328006,0 c -0.0986,0.62271 -0.22821,1.20781 -0.22821,1.8257 0,11.21595 16.82869,23.26285 26.92904,29.55347 4.41941,0.36405 7.531,0.79875 7.531,0.79875 0,0 -31.77772,-16.67852 -34.23183,-32.17792 z M 73.806836,177.94096 C 73.004402,193.04054 63.423182,212.401 63.423182,212.401 c 0,0 1.662104,-1.40838 2.738546,-2.39623 3.254006,-7.76962 8.220151,-21.57244 7.645108,-32.06381 z m 107.716144,0 c -0.57504,10.49137 4.3911,24.29419 7.64511,32.06381 1.07644,0.98785 2.73854,2.39623 2.73854,2.39623 0,0 -9.58121,-19.36046 -10.38365,-34.46004 z"
       inkscape:connector-curvature="0"
       id="path3868"
       style="opacity:0.75;color:#000000;fill:#ffffff;fill-opacity:1;fill-rule:nonzero;stroke:none;stroke-width:0.30000001;marker:none;visibility:visible;display:inline;overflow:visible;enable-background:accumulate" />
    <path
       d="m 63.423182,35.536566 c 0,0 9.58122,19.360462 10.383654,34.460038 0.575043,-10.49137 -4.391102,-24.29419 -7.645108,-32.06381 -1.076442,-0.987849 -2.738546,-2.396228 -2.738546,-2.396228 z m 128.483448,0 c 0,0 -1.6621,1.408379 -2.73854,2.396228 -3.25401,7.76962 -8.22015,21.57244 -7.64511,32.06381 0.80243,-15.099576 10.38365,-34.460038 10.38365,-34.460038 z m -64.24172,36.399841 c -26.7027,0 -48.380982,21.678294 -48.380982,48.380983 0,0.62146 0.09085,1.20992 0.114106,1.82569 0.97535,-25.842595 22.185636,-46.555278 48.266876,-46.555278 26.08124,0 47.29152,20.712683 48.26687,46.555278 0.0234,-0.61577 0.11411,-1.20423 0.11411,-1.82569 0,-26.702689 -21.67829,-48.380983 -48.38098,-48.380983 z M 23.371946,89.965169 c 0,0 31.77772,16.678511 34.231826,32.177911 0.09859,-0.6227 0.228212,-1.2078 0.228212,-1.82569 -4e-6,-11.21596 -16.828687,-23.262856 -26.929036,-29.553479 -4.419408,-0.364044 -7.531002,-0.798742 -7.531002,-0.798742 z m 208.585924,0 c 0,0 -3.11159,0.434662 -7.531,0.798742 -10.10035,6.290623 -26.92904,18.337519 -26.92904,29.553479 0,0.61789 0.12963,1.20299 0.22821,1.82569 2.45411,-15.4994 34.23183,-32.177911 34.23183,-32.177911 z M 43.682829,153.06583 c -4.796673,-0.0789 -9.202968,0.16176 -12.779881,0.45643 -4.305809,2.68173 -7.531002,4.45014 -7.531002,4.45014 0,0 38.179232,-5.75347 47.582238,7.18868 1.763065,2.42664 2.657525,5.56849 2.852652,9.12849 0.267464,-5.0332 -0.501899,-9.54435 -2.852652,-12.77989 -4.701503,-6.47107 -16.54822,-8.26741 -27.271355,-8.44385 z m 167.964161,0 c -10.72313,0.17637 -22.56985,1.97278 -27.27136,8.44385 -2.35075,3.23554 -3.12013,7.74669 -2.85265,12.77989 0.19513,-3.56 1.08959,-6.70185 2.85265,-9.12849 9.40302,-12.94215 47.58224,-7.18868 47.58224,-7.18868 0,0 -3.22519,-1.76841 -7.531,-4.45014 -3.57691,-0.29467 -7.98321,-0.53537 -12.77988,-0.45643 z M 99.93713,186.2707 c -12.834536,1.51844 -28.493564,15.23563 -33.775402,20.08268 -1.530745,3.65497 -2.738546,6.04762 -2.738546,6.04762 0,0 27.461289,-26.85185 42.675678,-21.90837 15.21438,4.94344 21.56605,43.01799 21.56605,43.01799 0,0 6.35165,-38.07455 21.56605,-43.01799 15.2144,-4.94348 42.67567,21.90837 42.67567,21.90837 0,0 -1.2078,-2.39265 -2.73854,-6.04762 -6.19016,-5.68062 -26.97652,-23.7233 -39.93713,-19.51214 -15.2144,4.94344 -21.56605,43.01799 -21.56605,43.01799 0,0 -6.35167,-38.07455 -21.56605,-43.01799 -1.9018,-0.61793 -3.95456,-0.83165 -6.16173,-0.57054 z"
       inkscape:connector-curvature="0"
       id="path3877"
       style="opacity:0.15;color:#000000;fill:#000000;fill-opacity:1;fill-rule:nonzero;stroke:none;stroke-width:0.30000001;marker:none;visibility:visible;display:inline;overflow:visible;enable-background:accumulate" />
  </g>
</svg>
