<?xml version="1.0" encoding="UTF-8" standalone="no"?>
<!-- Created with Inkscape (http://www.inkscape.org/) -->

<svg
   xmlns:dc="http://purl.org/dc/elements/1.1/"
   xmlns:cc="http://creativecommons.org/ns#"
   xmlns:rdf="http://www.w3.org/1999/02/22-rdf-syntax-ns#"
   xmlns:svg="http://www.w3.org/2000/svg"
   xmlns="http://www.w3.org/2000/svg"
   xmlns:xlink="http://www.w3.org/1999/xlink"
   xmlns:sodipodi="http://sodipodi.sourceforge.net/DTD/sodipodi-0.dtd"
   xmlns:inkscape="http://www.inkscape.org/namespaces/inkscape"
   version="1.0"
   width="256"
   height="256"
   id="svg2408"
   inkscape:version="0.48.2 r9819"
   sodipodi:docname="viewmag+.svg">
  <sodipodi:namedview
     pagecolor="#ffffff"
     bordercolor="#666666"
     borderopacity="1"
     objecttolerance="10"
     gridtolerance="10"
     guidetolerance="10"
     inkscape:pageopacity="0"
     inkscape:pageshadow="2"
     inkscape:window-width="1024"
     inkscape:window-height="572"
     id="namedview4276"
     showgrid="false"
     inkscape:zoom="1.6289062"
     inkscape:cx="117.25659"
     inkscape:cy="128"
     inkscape:window-x="0"
     inkscape:window-y="28"
     inkscape:window-maximized="1"
     inkscape:current-layer="svg2408" />
  <defs
     id="defs2410">
    <linearGradient
       id="linearGradient3637">
      <stop
         id="stop3639"
         style="stop-color:#5a5a5a;stop-opacity:1;"
         offset="0" />
      <stop
         id="stop3641"
         style="stop-color:#000000;stop-opacity:1;"
         offset="1" />
    </linearGradient>
    <linearGradient
       x1="45.447727"
       y1="92.539597"
       x2="45.447727"
       y2="7.0165396"
       id="ButtonShadow"
       gradientUnits="userSpaceOnUse"
       gradientTransform="scale(1.0058652,0.994169)">
      <stop
         id="stop3750"
         style="stop-color:#000000;stop-opacity:1"
         offset="0" />
      <stop
         id="stop3752"
         style="stop-color:#000000;stop-opacity:0.58823532"
         offset="1" />
    </linearGradient>
    <linearGradient
       id="linearGradient3737">
      <stop
         id="stop3739"
         style="stop-color:#ffffff;stop-opacity:1"
         offset="0" />
      <stop
         id="stop3741"
         style="stop-color:#ffffff;stop-opacity:0"
         offset="1" />
    </linearGradient>
    <linearGradient
       id="linearGradient3700">
      <stop
         id="stop3702"
         style="stop-color:#2276c5;stop-opacity:1"
         offset="0" />
      <stop
         id="stop3704"
         style="stop-color:#68baf4;stop-opacity:1"
         offset="1" />
    </linearGradient>
    <filter
       color-interpolation-filters="sRGB"
       id="filter3174">
      <feGaussianBlur
         id="feGaussianBlur3176"
         stdDeviation="1.71" />
    </filter>
    <linearGradient
       x1="36.357143"
       y1="6"
       x2="36.357143"
       y2="63.893143"
       id="linearGradient3188"
       xlink:href="#linearGradient3737"
       gradientUnits="userSpaceOnUse" />
    <filter
       x="-0.192"
       y="-0.192"
       width="1.3839999"
       height="1.3839999"
       color-interpolation-filters="sRGB"
       id="filter3794">
      <feGaussianBlur
         id="feGaussianBlur3796"
         stdDeviation="5.28" />
    </filter>
    <linearGradient
       x1="48"
       y1="20.220806"
       x2="48"
       y2="138.66119"
       id="linearGradient3613"
       xlink:href="#linearGradient3737"
       gradientUnits="userSpaceOnUse" />
    <radialGradient
       cx="48"
       cy="90.171875"
       r="42"
       fx="48"
       fy="90.171875"
       id="radialGradient3619"
       xlink:href="#linearGradient3737"
       gradientUnits="userSpaceOnUse"
       gradientTransform="matrix(1.1573129,0,0,0.99590774,-7.5510206,0.19713193)" />
    <clipPath
       id="clipPath3613">
      <rect
         width="84"
         height="84"
         rx="6"
         ry="6"
         x="6"
         y="6"
         id="rect3615"
         style="fill:#ffffff;fill-opacity:1;fill-rule:nonzero;stroke:none" />
    </clipPath>
    <linearGradient
       x1="48"
       y1="90"
       x2="48"
       y2="5.9877172"
       id="linearGradient2843"
       xlink:href="#linearGradient3700"
       gradientUnits="userSpaceOnUse"
       gradientTransform="translate(0,100)" />
    <clipPath
       id="clipPath3625">
      <path
         d="M 0,0 0,96 96,96 96,0 0,0 z m 12,6 72,0 c 3.324,0 6,2.676 6,6 l 0,72 c 0,3.324 -2.676,6 -6,6 L 12,90 C 8.676,90 6,87.324 6,84 L 6,12 C 6,8.676 8.676,6 12,6 z"
         inkscape:connector-curvature="0"
         id="path3627"
         style="fill:#ffffff;fill-opacity:1;stroke:none" />
    </clipPath>
    <linearGradient
       x1="44.512066"
       y1="6"
       x2="44.512066"
       y2="90.015434"
       id="linearGradient3643"
       xlink:href="#linearGradient3637"
       gradientUnits="userSpaceOnUse" />
    <clipPath
       id="clipPath3649">
      <rect
         width="76"
         height="76"
         rx="4"
         ry="4"
         x="10"
         y="10"
         id="rect3651"
         style="fill:#ffffff;fill-opacity:1;fill-rule:nonzero;stroke:none" />
    </clipPath>
    <filter
       color-interpolation-filters="sRGB"
       id="filter3657">
      <feGaussianBlur
         id="feGaussianBlur3659"
         stdDeviation="1.14" />
    </filter>
    <linearGradient
       inkscape:collect="always"
       xlink:href="#linearGradient3637"
       id="linearGradient3829"
       gradientUnits="userSpaceOnUse"
       gradientTransform="matrix(13.402796,0,0,13.40006,-20.271049,-25.774399)"
       x1="10.558969"
       y1="3.0148761"
       x2="10.558969"
       y2="19.285688" />
  </defs>
  <metadata
     id="metadata2413">
    <rdf:RDF>
      <cc:Work
         rdf:about="">
        <dc:format>image/svg+xml</dc:format>
        <dc:type
           rdf:resource="http://purl.org/dc/dcmitype/StillImage" />
        <dc:title></dc:title>
      </cc:Work>
    </rdf:RDF>
  </metadata>
  <g
     id="layer2"
     style="display:none"
     transform="translate(0,160)">
    <rect
       width="86"
       height="85"
       rx="6"
       ry="6"
       x="5"
       y="7"
       clip-path="url(#clipPath3625)"
       id="rect3745"
       style="opacity:0.9;fill:url(#ButtonShadow);fill-opacity:1;fill-rule:nonzero;stroke:none;filter:url(#filter3174)" />
  </g>
  <g
     id="layer1"
     style="display:none"
     transform="translate(0,160)">
    <rect
       width="84"
       height="84"
       rx="6"
       ry="6"
       x="6"
       y="6"
       id="rect2419"
       style="opacity:0.8;fill:#000000;fill-opacity:1;fill-rule:nonzero;stroke:none" />
    <path
       d="m 14,10 c -2.216,0 -4,1.784 -4,4 l 0,68 c 0,2.216 1.784,4 4,4 l 68,0 c 2.216,0 4,-1.784 4,-4 l 0,-68 c 0,-2.216 -1.784,-4 -4,-4 l -68,0 z m 0,3.0625 68,0 c 0.578769,0 0.9375,0.358731 0.9375,0.9375 l 0,68 c 0,0.578769 -0.358731,0.9375 -0.9375,0.9375 l -68,0 c -0.578769,0 -0.9375,-0.358731 -0.9375,-0.9375 l 0,-68 c 0,-0.578769 0.358731,-0.9375 0.9375,-0.9375 z"
       inkscape:connector-curvature="0"
       id="rect3726"
       style="opacity:0.07999998;fill:#000000;fill-opacity:1;fill-rule:nonzero;stroke:none" />
    <path
       d="M 12,6 C 8.676,6 6,8.676 6,12 l 0,72 c 0,3.324 2.676,6 6,6 l 72,0 c 3.324,0 6,-2.676 6,-6 L 90,12 C 90,8.676 87.324,6 84,6 L 12,6 z m 2,4 68,0 c 2.216,0 4,1.784 4,4 l 0,68 c 0,2.216 -1.784,4 -4,4 l -68,0 c -2.216,0 -4,-1.784 -4,-4 l 0,-68 c 0,-2.216 1.784,-4 4,-4 z"
       inkscape:connector-curvature="0"
       id="rect3629"
       style="fill:url(#linearGradient3643);fill-opacity:1;fill-rule:nonzero;stroke:none" />
    <path
       d="M 12,6 C 8.676,6 6,8.676 6,12 l 0,2 0,68 0,2 c 0,0.334721 0.04135,0.6507 0.09375,0.96875 0.0487,0.295596 0.09704,0.596915 0.1875,0.875 0.00988,0.03038 0.020892,0.0636 0.03125,0.09375 0.098865,0.287771 0.2348802,0.547452 0.375,0.8125 0.1445918,0.273507 0.3156161,0.535615 0.5,0.78125 0.1843839,0.245635 0.3737765,0.473472 0.59375,0.6875 0.439947,0.428056 0.94291,0.814526 1.5,1.09375 0.278545,0.139612 0.5734731,0.246947 0.875,0.34375 -0.2562018,-0.100222 -0.4867109,-0.236272 -0.71875,-0.375 -0.00741,-0.0044 -0.023866,0.0045 -0.03125,0 -0.031933,-0.0193 -0.062293,-0.04251 -0.09375,-0.0625 -0.120395,-0.0767 -0.2310226,-0.163513 -0.34375,-0.25 -0.1061728,-0.0808 -0.2132809,-0.161112 -0.3125,-0.25 C 8.4783201,88.557317 8.3087904,88.373362 8.15625,88.1875 8.0486711,88.057245 7.9378561,87.922215 7.84375,87.78125 7.818661,87.74287 7.805304,87.69538 7.78125,87.65625 7.716487,87.553218 7.6510225,87.451733 7.59375,87.34375 7.4927417,87.149044 7.3880752,86.928049 7.3125,86.71875 7.30454,86.69694 7.288911,86.6782 7.28125,86.65625 7.2494249,86.5643 7.2454455,86.469419 7.21875,86.375 7.1884177,86.268382 7.1483606,86.171969 7.125,86.0625 7.0521214,85.720988 7,85.364295 7,85 L 7,83 7,15 7,13 C 7,10.218152 9.2181517,8 12,8 l 2,0 68,0 2,0 c 2.781848,0 5,2.218152 5,5 l 0,2 0,68 0,2 c 0,0.364295 -0.05212,0.720988 -0.125,1.0625 -0.04415,0.206893 -0.08838,0.397658 -0.15625,0.59375 -0.0077,0.02195 -0.0233,0.04069 -0.03125,0.0625 -0.06274,0.173739 -0.138383,0.367449 -0.21875,0.53125 -0.04158,0.0828 -0.07904,0.169954 -0.125,0.25 -0.0546,0.09721 -0.126774,0.18835 -0.1875,0.28125 -0.09411,0.140965 -0.204921,0.275995 -0.3125,0.40625 -0.143174,0.17445 -0.303141,0.346998 -0.46875,0.5 -0.01117,0.0102 -0.01998,0.02115 -0.03125,0.03125 -0.138386,0.125556 -0.285091,0.234436 -0.4375,0.34375 -0.102571,0.07315 -0.204318,0.153364 -0.3125,0.21875 -0.0074,0.0045 -0.02384,-0.0044 -0.03125,0 -0.232039,0.138728 -0.462548,0.274778 -0.71875,0.375 0.301527,-0.0968 0.596455,-0.204138 0.875,-0.34375 0.55709,-0.279224 1.060053,-0.665694 1.5,-1.09375 0.219973,-0.214028 0.409366,-0.441865 0.59375,-0.6875 0.184384,-0.245635 0.355408,-0.507743 0.5,-0.78125 0.14012,-0.265048 0.276135,-0.524729 0.375,-0.8125 0.01041,-0.03078 0.02133,-0.06274 0.03125,-0.09375 0.09046,-0.278085 0.1388,-0.579404 0.1875,-0.875 C 89.95865,84.6507 90,84.334721 90,84 l 0,-2 0,-68 0,-2 C 90,8.676 87.324,6 84,6 L 12,6 z"
       inkscape:connector-curvature="0"
       id="rect3728"
       style="fill:url(#linearGradient3188);fill-opacity:1;fill-rule:nonzero;stroke:none" />
    <path
       d="M 12,90 C 8.676,90 6,87.324 6,84 L 6,82 6,14 6,12 c 0,-0.334721 0.04135,-0.6507 0.09375,-0.96875 0.0487,-0.295596 0.09704,-0.596915 0.1875,-0.875 C 6.29113,10.12587 6.302142,10.09265 6.3125,10.0625 6.411365,9.774729 6.5473802,9.515048 6.6875,9.25 6.8320918,8.976493 7.0031161,8.714385 7.1875,8.46875 7.3718839,8.223115 7.5612765,7.995278 7.78125,7.78125 8.221197,7.353194 8.72416,6.966724 9.28125,6.6875 9.559795,6.547888 9.8547231,6.440553 10.15625,6.34375 9.9000482,6.443972 9.6695391,6.580022 9.4375,6.71875 c -0.00741,0.0044 -0.023866,-0.0045 -0.03125,0 -0.031933,0.0193 -0.062293,0.04251 -0.09375,0.0625 -0.120395,0.0767 -0.2310226,0.163513 -0.34375,0.25 -0.1061728,0.0808 -0.2132809,0.161112 -0.3125,0.25 C 8.4783201,7.442683 8.3087904,7.626638 8.15625,7.8125 8.0486711,7.942755 7.9378561,8.077785 7.84375,8.21875 7.818661,8.25713 7.805304,8.30462 7.78125,8.34375 7.716487,8.446782 7.6510225,8.548267 7.59375,8.65625 7.4927417,8.850956 7.3880752,9.071951 7.3125,9.28125 7.30454,9.30306 7.288911,9.3218 7.28125,9.34375 7.2494249,9.4357 7.2454455,9.530581 7.21875,9.625 7.1884177,9.731618 7.1483606,9.828031 7.125,9.9375 7.0521214,10.279012 7,10.635705 7,11 l 0,2 0,68 0,2 c 0,2.781848 2.2181517,5 5,5 l 2,0 68,0 2,0 c 2.781848,0 5,-2.218152 5,-5 l 0,-2 0,-68 0,-2 C 89,10.635705 88.94788,10.279012 88.875,9.9375 88.83085,9.730607 88.78662,9.539842 88.71875,9.34375 88.71105,9.3218 88.69545,9.30306 88.6875,9.28125 88.62476,9.107511 88.549117,8.913801 88.46875,8.75 88.42717,8.6672 88.38971,8.580046 88.34375,8.5 88.28915,8.40279 88.216976,8.31165 88.15625,8.21875 88.06214,8.077785 87.951329,7.942755 87.84375,7.8125 87.700576,7.63805 87.540609,7.465502 87.375,7.3125 87.36383,7.3023 87.35502,7.29135 87.34375,7.28125 87.205364,7.155694 87.058659,7.046814 86.90625,6.9375 86.803679,6.86435 86.701932,6.784136 86.59375,6.71875 c -0.0074,-0.0045 -0.02384,0.0044 -0.03125,0 -0.232039,-0.138728 -0.462548,-0.274778 -0.71875,-0.375 0.301527,0.0968 0.596455,0.204138 0.875,0.34375 0.55709,0.279224 1.060053,0.665694 1.5,1.09375 0.219973,0.214028 0.409366,0.441865 0.59375,0.6875 0.184384,0.245635 0.355408,0.507743 0.5,0.78125 0.14012,0.265048 0.276135,0.524729 0.375,0.8125 0.01041,0.03078 0.02133,0.06274 0.03125,0.09375 0.09046,0.278085 0.1388,0.579404 0.1875,0.875 C 89.95865,11.3493 90,11.665279 90,12 l 0,2 0,68 0,2 c 0,3.324 -2.676,6 -6,6 l -72,0 z"
       inkscape:connector-curvature="0"
       id="path3615"
       style="opacity:0.6;fill:url(#radialGradient3619);fill-opacity:1;fill-rule:nonzero;stroke:none" />
    <rect
       width="84"
       height="84"
       rx="6"
       ry="6"
       x="6"
       y="106"
       id="rect2841"
       style="fill:url(#linearGradient2843);fill-opacity:1;fill-rule:nonzero;stroke:none" />
    <rect
       width="76"
       height="76"
       rx="4"
       ry="4"
       x="10"
       y="110"
       id="rect3634"
       style="fill:#ff0000;fill-opacity:1;fill-rule:nonzero;stroke:none" />
    <path
       d="m 14,9 c -2.752703,0 -5,2.247297 -5,5 l 0,68 c 0,2.752703 2.247297,5 5,5 l 68,0 c 2.752703,0 5,-2.247297 5,-5 L 87,14 C 87,11.247297 84.752703,9 82,9 L 14,9 z m 0,2 68,0 c 1.679297,0 3,1.320703 3,3 l 0,68 c 0,1.679297 -1.320703,3 -3,3 l -68,0 c -1.679297,0 -3,-1.320703 -3,-3 l 0,-68 c 0,-1.679297 1.320703,-3 3,-3 z"
       inkscape:connector-curvature="0"
       transform="translate(-110,0)"
       clip-path="url(#clipPath3649)"
       id="rect3647"
       style="font-size:medium;font-style:normal;font-variant:normal;font-weight:normal;font-stretch:normal;text-indent:0;text-align:start;text-decoration:none;line-height:normal;letter-spacing:normal;word-spacing:normal;text-transform:none;direction:ltr;block-progression:tb;writing-mode:lr-tb;text-anchor:start;color:#000000;fill:#000000;fill-opacity:1;stroke:none;stroke-width:2;marker:none;visibility:visible;display:inline;overflow:visible;filter:url(#filter3657);enable-background:accumulate;font-family:Abandoned Bitplane;-inkscape-font-specification:Abandoned Bitplane" />
    <path
       d="m 14.089286,10 c -2.216,0 -4,1.784 -4,4 l 0,68 c 0,2.216 1.784,4 4,4 l 68,0 c 2.216,0 4,-1.784 4,-4 l 0,-68 c 0,-2.216 -1.784,-4 -4,-4 l -68,0 z m 0,2 68,0 c 1.140301,0 2,0.859699 2,2 l 0,68 c 0,1.140301 -0.859699,2 -2,2 l -68,0 c -1.140301,0 -2,-0.859699 -2,-2 l 0,-68 c 0,-1.140301 0.859699,-2 2,-2 z"
       inkscape:connector-curvature="0"
       id="path3709"
       style="opacity:0.16000001;fill:#000000;fill-opacity:1;fill-rule:nonzero;stroke:none" />
    <path
       d="m 14,10 c -2.216,0 -4,1.784 -4,4 l 0,68 c 0,2.216 1.784,4 4,4 l 68,0 c 2.216,0 4,-1.784 4,-4 l 0,-68 c 0,-2.216 -1.784,-4 -4,-4 l -68,0 z m 0,1 68,0 c 1.673848,0 3,1.326152 3,3 l 0,68 c 0,1.673848 -1.326152,3 -3,3 l -68,0 c -1.673848,0 -3,-1.326152 -3,-3 l 0,-68 c 0,-1.673848 1.326152,-3 3,-3 z"
       inkscape:connector-curvature="0"
       id="path3707"
       style="opacity:0.36000001;fill:#000000;fill-opacity:1;fill-rule:nonzero;stroke:none" />
  </g>
  <g
     id="layer5"
     style="display:none"
     transform="translate(0,160)">
    <rect
       width="66"
       height="66"
       rx="12"
       ry="12"
       x="15"
       y="15"
       clip-path="url(#clipPath3613)"
       id="rect3171"
       style="opacity:0.1;fill:url(#linearGradient3613);fill-opacity:1;fill-rule:nonzero;stroke:#ffffff;stroke-width:0.5;stroke-linecap:round;stroke-linejoin:miter;stroke-miterlimit:4;stroke-opacity:1;stroke-dasharray:none;stroke-dashoffset:0;filter:url(#filter3794)" />
  </g>
  <g
     id="g3821"
     transform="translate(-1.1079977,1.22169)">
    <path
       d="M 100.24565,9.7864659 C 57.330436,9.1674386 17.489816,43.832887 12.14516,86.442157 5.8659149,125.09759 28.682827,165.84847 64.766441,180.8899 c 24.190032,10.69972 52.986279,9.42344 76.430939,-2.61115 9.86546,-6.06191 16.64579,0.61194 18.68874,10.12838 7.80364,11.1983 18.78686,19.79835 28.14447,29.7361 8.05069,7.533 15.40768,16.19992 23.87905,22.9508 14.25132,10.58111 35.56236,-3.3265 34.12972,-20.21207 -0.71435,-12.47515 -12.22049,-18.86147 -19.64195,-27.3595 -11.69616,-11.18855 -22.48145,-23.48457 -34.87905,-33.80814 -8.9288,-3.22096 -17.94941,-8.55895 -11.74004,-19.31214 9.24057,-19.86783 12.68413,-42.925776 6.612,-64.300225 C 176.60177,37.99992 139.63488,9.3930646 100.24565,9.7864659 z m 0,37.8979601 c 28.54692,-0.81708 53.91744,25.734108 51.63414,54.254724 -0.69502,28.58174 -28.5563,52.51137 -56.910372,48.80106 C 66.447493,148.61096 44.187434,119.48709 49.265257,91.414206 52.628091,66.773608 75.376774,47.242556 100.24565,47.684426 z m -12.413503,6.401682 c -6.150787,0.137252 -9.416156,6.628128 -8.318322,12.156928 0,4.184509 0,8.369017 0,12.553566 -6.871558,0.61067 -14.293647,-1.407182 -20.731818,1.40837 -6.273863,4.692423 -3.042546,13.283829 -3.839225,19.923758 0.727368,6.58847 -2.509363,15.68447 4.60707,19.63864 6.327564,2.12401 13.343146,0.52849 19.963973,1.02427 0.610402,6.87473 -1.406508,14.30028 1.407716,20.74145 4.690236,6.27677 13.277657,3.04397 19.914499,3.84101 6.5854,-0.72772 15.67719,2.51053 19.62953,-4.60921 2.12302,-6.33051 0.52824,-13.34934 1.02379,-19.97325 6.87156,-0.61067 14.29365,1.40714 20.73182,-1.40837 6.27386,-4.69242 3.04254,-13.28383 3.83922,-19.923758 -0.72737,-6.588468 2.50937,-15.68447 -4.60707,-19.63864 -6.32756,-2.124007 -13.34314,-0.528482 -19.96397,-1.02427 -0.6104,-6.874772 1.40651,-14.300272 -1.40772,-20.741451 -4.69023,-6.276762 -13.27766,-3.043964 -19.9145,-3.841009 -4.100512,-0.09833 -8.270832,0.188875 -12.334993,-0.127829 z M 231.41918,210.7993 l 0.12798,0.25607 -0.12798,-0.25607 z m -23.80319,25.99083 c 1.12919,1.27026 0.0156,0.9377 0,0 z"
       inkscape:connector-curvature="0"
       id="path3910"
       style="opacity:0.15;fill:#000000;fill-opacity:1;stroke:none;display:inline" />
    <path
       d="m 100.24565,14.523711 c -21.647412,0 -43.205938,8.656918 -59.635977,25.094595 -32.9055121,32.92079 -32.9055161,86.278544 0,119.199334 26.051093,26.06318 64.803917,31.34853 96.236587,16.13224 0.40637,-0.19666 1.27295,-0.59256 2.17556,-1.02427 0.1134,-0.0447 0.38954,-0.0811 0.5119,-0.12783 2.26051,-0.86555 5.85894,-1.99925 9.47009,-2.30461 3.80665,-0.32203 7.14566,0.23517 9.21414,2.30461 1.61279,1.61355 2.16593,3.54528 3.32733,6.78578 1.16139,3.2405 2.99168,7.47426 7.16655,11.65106 l 42.74338,42.37914 a 4.0067184,4.0085802 0 0 0 0.25595,0.25607 c 0.0254,0.0205 0.0875,0.004 0.25595,0.12783 a 4.0067184,4.0085802 0 0 0 0.12797,0.12783 c 0.0258,0.0246 -0.0279,0.10365 0,0.12783 0.33626,0.29376 0.7855,0.69605 1.40772,1.1523 1.24443,0.91246 2.98075,2.0369 5.24694,2.81674 4.53237,1.55963 11.43212,1.10986 17.14854,-4.60921 5.74096,-5.74365 6.12653,-12.65493 4.60707,-17.28455 -0.75973,-2.3148 -1.76372,-4.07396 -2.68746,-5.37741 -0.46186,-0.65172 -0.9607,-1.29164 -1.27974,-1.66444 -0.10635,-0.12414 -0.17568,-0.16634 -0.25595,-0.25606 -0.17032,-0.21469 -0.12879,-0.13275 -0.12797,-0.12783 -0.048,-0.0524 -0.10865,-0.10735 -0.12798,-0.12783 a 4.0067184,4.0085802 0 0 0 -0.12797,-0.12783 l -42.35945,-42.25131 c -4.1419,-4.14382 -8.15029,-6.00553 -11.26173,-7.16988 -3.11145,-1.16435 -4.99142,-1.66485 -6.65466,-3.32888 -2.50636,-2.50753 -2.87419,-7.19721 -2.04759,-11.90713 0.81611,-4.6501 2.71545,-8.87033 2.81543,-9.09039 0.001,-0.003 -6.8e-4,-0.1266 0,-0.12783 C 191.54276,104.32721 186.0212,65.6422 160.00959,39.618511 143.57185,23.173131 121.89305,14.523916 100.24565,14.523916 z m 0,28.42347 c 31.11506,0 56.43661,25.215541 56.43661,56.334805 0,31.119264 -25.33181,56.462844 -56.43661,56.462844 -31.104814,0 -56.308648,-25.33329 -56.308648,-56.462844 0,-31.129548 25.193567,-56.334805 56.308648,-56.334805 z M 87.448225,58.951387 A 4.0067184,4.0085802 0 0 0 84.24887,62.92043 l 0,20.613417 -20.603844,0 a 4.0067184,4.0085802 0 0 0 -3.967199,3.969043 l 0,24.58246 a 4.0067184,4.0085802 0 0 0 3.967199,3.96905 l 20.603844,0 0,20.61342 a 4.0067184,4.0085802 0 0 0 3.9672,3.96904 l 24.57105,0 a 4.0067184,4.0085802 0 0 0 3.96719,-3.96904 l 0,-20.61342 20.60385,0 a 4.0067184,4.0085802 0 0 0 3.9672,-3.96905 l 0,-24.58246 a 4.0067184,4.0085802 0 0 0 -3.9672,-3.969043 l -20.60385,0 0,-20.613417 a 4.0067184,4.0085802 0 0 0 -3.96719,-3.969043 l -24.57105,0 a 4.0067184,4.0085802 0 0 0 -0.767845,0 z"
       id="path3906"
       style="opacity:0.15;fill:#000000;fill-opacity:1;stroke:none;display:inline"
       inkscape:connector-curvature="0" />
    <path
       d="m 100.24565,18.492754 c -20.577617,0 -41.131532,8.245981 -56.820545,23.942292 -31.378017,31.392581 -31.378021,82.173274 0,113.565854 24.840936,24.85245 61.682145,29.86134 91.629515,15.36403 0.78809,-0.38143 1.78167,-0.74357 2.55949,-1.1523 4.86136,-1.92079 16.96162,-5.69244 23.41927,0.7682 4.78982,4.79207 3.16669,11.10624 10.49389,18.43685 l 42.74337,42.37914 c 0.0509,-0.0508 9.23406,9.58257 18.81221,0 9.61513,-9.61961 0.13977,-19.15691 0,-19.33308 l -42.35946,-42.25111 c -7.3272,-7.33061 -13.12657,-5.70673 -17.91638,-10.49876 -7.89658,-7.90027 -0.47176,-24.59926 0,-25.60673 14.49054,-29.96131 9.22808,-66.819636 -15.61285,-91.672094 -15.68902,-15.696311 -36.3709,-23.942292 -56.94851,-23.942292 z m 0,20.485384 c 33.2814,0 60.40381,27.006987 60.40381,60.303848 0,33.296864 -27.1224,60.431884 -60.40381,60.431884 -33.281424,0 -60.275848,-27.13502 -60.275848,-60.431884 0,-33.296861 26.994428,-60.303848 60.275848,-60.303848 z m -12.02958,23.942292 0,24.58246 -24.571044,0 0,24.58246 24.571044,0 0,24.58247 24.57105,0 0,-24.58247 24.57104,0 0,-24.58246 -24.57104,0 0,-24.58246 -24.57105,0 z"
       inkscape:connector-curvature="0"
       id="path3900"
       style="opacity:0.3;fill:#000000;fill-opacity:1;stroke:none;display:inline" />
    <path
       d="m 100.24565,14.395677 c -20.577617,0 -41.131532,8.245982 -56.820545,23.942292 -31.378017,31.392581 -31.378021,82.173271 0,113.565851 24.840936,24.85246 61.682145,29.86134 91.629515,15.36404 0.78809,-0.38144 1.78167,-0.74358 2.55949,-1.15231 4.86136,-1.92079 16.96162,-5.69243 23.41927,0.76821 4.78982,4.79206 3.16669,11.10623 10.49389,18.43684 l 42.74337,42.37914 c 0.0509,-0.0508 9.23406,9.58257 18.81221,0 9.61513,-9.61961 0.13977,-19.15691 0,-19.33308 l -42.35946,-42.25111 c -7.3272,-7.33061 -13.12657,-5.70673 -17.91638,-10.49875 -7.89658,-7.90027 -0.47176,-24.59926 0,-25.60673 14.49054,-29.96132 9.22808,-66.819643 -15.61285,-91.672101 -15.68902,-15.69631 -36.3709,-23.942292 -56.94851,-23.942292 z m 0,20.485384 c 33.2814,0 60.40381,27.006988 60.40381,60.303848 0,33.296861 -27.1224,60.431891 -60.40381,60.431891 -33.281424,0 -60.275848,-27.13503 -60.275848,-60.431891 0,-33.29686 26.994428,-60.303848 60.275848,-60.303848 z m -12.02958,23.942292 0,24.582461 -24.571044,0 0,24.582466 24.571044,0 0,24.58246 24.57105,0 0,-24.58246 24.57104,0 0,-24.582466 -24.57104,0 0,-24.582461 -24.57105,0 z"
       inkscape:connector-curvature="0"
       id="path3869"
       style="fill:url(#linearGradient3829);fill-opacity:1;stroke:none;display:inline" />
    <path
       d="m 100.24565,14.395677 c -20.577617,0 -41.131532,8.245982 -56.820545,23.942292 C 27.212803,54.557805 19.465082,76.010508 20.00583,97.233448 20.503672,77.369181 28.250827,57.616395 43.425105,42.435046 59.114118,26.738735 79.668033,18.492754 100.24565,18.492754 c 20.57761,0 41.25949,8.245981 56.94851,23.942292 15.1704,15.177457 23.02044,34.843016 23.54725,54.670368 0.52203,-21.201266 -7.32829,-42.540931 -23.54725,-58.767445 -15.68902,-15.69631 -36.3709,-23.942292 -56.94851,-23.942292 z m -12.02958,44.427676 0,4.097077 24.57105,0 0,-4.097077 -24.57105,0 z m -24.571044,24.582461 0,4.097076 24.571044,0 0,-4.097076 -24.571044,0 z m 49.142094,0 0,4.097076 24.57104,0 0,-4.097076 -24.57104,0 z M 40.097777,97.233448 c -0.02334,0.688636 -0.127975,1.354247 -0.127975,2.048538 0,33.296864 26.994424,60.431884 60.275848,60.431884 33.28141,0 60.40381,-27.13502 60.40381,-60.431884 0,-0.694291 -0.10459,-1.359902 -0.12797,-2.048538 -1.09858,32.342042 -27.6884,58.383352 -60.27584,58.383352 -32.58746,0 -59.054421,-26.04131 -60.147873,-58.383352 z M 169.3517,147.67871 c -0.31033,4.39395 0.30776,8.88615 3.45531,12.03516 4.78981,4.79203 10.58918,3.16815 17.91638,10.49876 l 42.35946,42.25111 c 0.0821,0.10324 3.33028,3.51443 4.09517,8.19415 1.38489,-6.74891 -3.99034,-12.1591 -4.09517,-12.29123 l -42.35946,-42.25111 c -7.3272,-7.33061 -13.12657,-5.70673 -17.91638,-10.49875 -2.1585,-2.15953 -3.13145,-4.96394 -3.45531,-7.93809 z"
       inkscape:connector-curvature="0"
       id="path3882"
       style="opacity:0.75;fill:#ffffff;fill-opacity:1;stroke:none;display:inline" />
    <path
       d="m 100.24565,30.783984 c -33.28142,0 -60.275848,27.006988 -60.275848,60.303849 0,0.69429 0.104673,1.359778 0.127975,2.048538 1.093452,-32.336957 27.560417,-58.25531 60.147873,-58.25531 32.58743,0 59.17726,25.918353 60.27584,58.25531 0.0233,-0.68876 0.12797,-1.354248 0.12797,-2.048538 0,-33.296861 -27.12241,-60.303849 -60.40381,-60.303849 z m 80.49576,62.224353 c -0.27753,11.270563 -2.90492,22.505453 -7.9344,32.904653 -0.34281,0.73206 -4.31624,9.76223 -3.45531,17.66864 0.46825,-6.6296 3.17159,-12.96565 3.45531,-13.57156 5.64114,-11.66389 8.27021,-24.36258 7.9344,-37.001733 z M 20.00583,93.136166 c -0.531619,21.211924 7.215536,42.556174 23.419275,58.767444 24.840936,24.85246 61.682145,29.86134 91.629515,15.36404 0.78809,-0.38144 1.78167,-0.74358 2.55949,-1.1523 4.86136,-1.92079 16.96162,-5.69244 23.41927,0.7682 4.78982,4.79207 3.16669,11.10623 10.49389,18.43685 l 42.74337,42.37913 c 0.0509,-0.0508 9.23406,9.58258 18.81221,0 3.96955,-3.97141 4.63299,-7.84848 4.09517,-11.13892 -0.46163,2.24962 -1.69139,4.63695 -4.09517,7.04185 -9.57815,9.58257 -18.76134,-0.0508 -18.81221,0 l -42.74337,-42.37893 c -7.3272,-7.33062 -5.70407,-13.64479 -10.49389,-18.43685 -6.45765,-6.46064 -18.55791,-2.68899 -23.41927,-0.7682 -0.77782,0.40889 -1.7714,0.77082 -2.55949,1.1523 -29.94737,14.4973 -66.788579,9.48842 -91.629515,-15.36404 C 28.259386,132.634 20.51167,112.98925 20.00583,93.136371 z m 43.639196,10.755034 0,4.09708 24.571044,0 0,-4.09708 -24.571044,0 z m 49.142094,0 0,4.09708 24.57104,0 0,-4.09708 -24.57104,0 z m -24.57105,24.58246 0,4.09708 24.57105,0 0,-4.09708 -24.57105,0 z"
       inkscape:connector-curvature="0"
       id="path3891"
       style="opacity:0.15;fill:#000000;fill-opacity:1;stroke:none;display:inline" />
  </g>
</svg>
