<?xml version="1.0" encoding="UTF-8" standalone="no"?>
<!-- Created with Inkscape (http://www.inkscape.org/) -->

<svg
   xmlns:dc="http://purl.org/dc/elements/1.1/"
   xmlns:cc="http://creativecommons.org/ns#"
   xmlns:rdf="http://www.w3.org/1999/02/22-rdf-syntax-ns#"
   xmlns:svg="http://www.w3.org/2000/svg"
   xmlns="http://www.w3.org/2000/svg"
   xmlns:xlink="http://www.w3.org/1999/xlink"
   xmlns:sodipodi="http://sodipodi.sourceforge.net/DTD/sodipodi-0.dtd"
   xmlns:inkscape="http://www.inkscape.org/namespaces/inkscape"
   version="1.0"
   width="256"
   height="256"
   id="svg2408"
   inkscape:version="0.48.2 r9819"
   sodipodi:docname="zoom-out.svg">
  <sodipodi:namedview
     pagecolor="#ffffff"
     bordercolor="#666666"
     borderopacity="1"
     objecttolerance="10"
     gridtolerance="10"
     guidetolerance="10"
     inkscape:pageopacity="0"
     inkscape:pageshadow="2"
     inkscape:window-width="1024"
     inkscape:window-height="572"
     id="namedview4369"
     showgrid="false"
     inkscape:zoom="1.6289062"
     inkscape:cx="117.25659"
     inkscape:cy="128"
     inkscape:window-x="0"
     inkscape:window-y="28"
     inkscape:window-maximized="1"
     inkscape:current-layer="svg2408" />
  <defs
     id="defs2410">
    <linearGradient
       id="linearGradient3637">
      <stop
         id="stop3639"
         style="stop-color:#5a5a5a;stop-opacity:1;"
         offset="0" />
      <stop
         id="stop3641"
         style="stop-color:#000000;stop-opacity:1;"
         offset="1" />
    </linearGradient>
    <linearGradient
       x1="45.447727"
       y1="92.539597"
       x2="45.447727"
       y2="7.0165396"
       id="ButtonShadow"
       gradientUnits="userSpaceOnUse"
       gradientTransform="scale(1.0058652,0.994169)">
      <stop
         id="stop3750"
         style="stop-color:#000000;stop-opacity:1"
         offset="0" />
      <stop
         id="stop3752"
         style="stop-color:#000000;stop-opacity:0.58823532"
         offset="1" />
    </linearGradient>
    <linearGradient
       id="linearGradient3737">
      <stop
         id="stop3739"
         style="stop-color:#ffffff;stop-opacity:1"
         offset="0" />
      <stop
         id="stop3741"
         style="stop-color:#ffffff;stop-opacity:0"
         offset="1" />
    </linearGradient>
    <linearGradient
       id="linearGradient3700">
      <stop
         id="stop3702"
         style="stop-color:#2276c5;stop-opacity:1"
         offset="0" />
      <stop
         id="stop3704"
         style="stop-color:#68baf4;stop-opacity:1"
         offset="1" />
    </linearGradient>
    <filter
       color-interpolation-filters="sRGB"
       id="filter3174">
      <feGaussianBlur
         id="feGaussianBlur3176"
         stdDeviation="1.71" />
    </filter>
    <linearGradient
       x1="36.357143"
       y1="6"
       x2="36.357143"
       y2="63.893143"
       id="linearGradient3188"
       xlink:href="#linearGradient3737"
       gradientUnits="userSpaceOnUse" />
    <filter
       x="-0.192"
       y="-0.192"
       width="1.3839999"
       height="1.3839999"
       color-interpolation-filters="sRGB"
       id="filter3794">
      <feGaussianBlur
         id="feGaussianBlur3796"
         stdDeviation="5.28" />
    </filter>
    <linearGradient
       x1="48"
       y1="20.220806"
       x2="48"
       y2="138.66119"
       id="linearGradient3613"
       xlink:href="#linearGradient3737"
       gradientUnits="userSpaceOnUse" />
    <radialGradient
       cx="48"
       cy="90.171875"
       r="42"
       fx="48"
       fy="90.171875"
       id="radialGradient3619"
       xlink:href="#linearGradient3737"
       gradientUnits="userSpaceOnUse"
       gradientTransform="matrix(1.1573129,0,0,0.99590774,-7.5510206,0.19713193)" />
    <clipPath
       id="clipPath3613">
      <rect
         width="84"
         height="84"
         rx="6"
         ry="6"
         x="6"
         y="6"
         id="rect3615"
         style="fill:#ffffff;fill-opacity:1;fill-rule:nonzero;stroke:none" />
    </clipPath>
    <linearGradient
       x1="48"
       y1="90"
       x2="48"
       y2="5.9877172"
       id="linearGradient2843"
       xlink:href="#linearGradient3700"
       gradientUnits="userSpaceOnUse"
       gradientTransform="translate(0,100)" />
    <clipPath
       id="clipPath3625">
      <path
         d="M 0,0 0,96 96,96 96,0 0,0 z m 12,6 72,0 c 3.324,0 6,2.676 6,6 l 0,72 c 0,3.324 -2.676,6 -6,6 L 12,90 C 8.676,90 6,87.324 6,84 L 6,12 C 6,8.676 8.676,6 12,6 z"
         inkscape:connector-curvature="0"
         id="path3627"
         style="fill:#ffffff;fill-opacity:1;stroke:none" />
    </clipPath>
    <linearGradient
       x1="44.512066"
       y1="6"
       x2="44.512066"
       y2="90.015434"
       id="linearGradient3643"
       xlink:href="#linearGradient3637"
       gradientUnits="userSpaceOnUse" />
    <clipPath
       id="clipPath3649">
      <rect
         width="76"
         height="76"
         rx="4"
         ry="4"
         x="10"
         y="10"
         id="rect3651"
         style="fill:#ffffff;fill-opacity:1;fill-rule:nonzero;stroke:none" />
    </clipPath>
    <filter
       color-interpolation-filters="sRGB"
       id="filter3657">
      <feGaussianBlur
         id="feGaussianBlur3659"
         stdDeviation="1.14" />
    </filter>
    <linearGradient
       inkscape:collect="always"
       xlink:href="#linearGradient3637"
       id="linearGradient3829"
       gradientUnits="userSpaceOnUse"
       gradientTransform="matrix(13.380144,0,0,13.385266,-19.978041,-24.806026)"
       x1="10.558969"
       y1="3.0148761"
       x2="10.558969"
       y2="19.285688" />
  </defs>
  <metadata
     id="metadata2413">
    <rdf:RDF>
      <cc:Work
         rdf:about="">
        <dc:format>image/svg+xml</dc:format>
        <dc:type
           rdf:resource="http://purl.org/dc/dcmitype/StillImage" />
        <dc:title></dc:title>
      </cc:Work>
    </rdf:RDF>
  </metadata>
  <g
     id="layer2"
     style="display:none"
     transform="translate(0,160)">
    <rect
       width="86"
       height="85"
       rx="6"
       ry="6"
       x="5"
       y="7"
       clip-path="url(#clipPath3625)"
       id="rect3745"
       style="opacity:0.9;fill:url(#ButtonShadow);fill-opacity:1;fill-rule:nonzero;stroke:none;filter:url(#filter3174)" />
  </g>
  <g
     id="layer1"
     style="display:none"
     transform="translate(0,160)">
    <rect
       width="84"
       height="84"
       rx="6"
       ry="6"
       x="6"
       y="6"
       id="rect2419"
       style="opacity:0.8;fill:#000000;fill-opacity:1;fill-rule:nonzero;stroke:none" />
    <path
       d="m 14,10 c -2.216,0 -4,1.784 -4,4 l 0,68 c 0,2.216 1.784,4 4,4 l 68,0 c 2.216,0 4,-1.784 4,-4 l 0,-68 c 0,-2.216 -1.784,-4 -4,-4 l -68,0 z m 0,3.0625 68,0 c 0.578769,0 0.9375,0.358731 0.9375,0.9375 l 0,68 c 0,0.578769 -0.358731,0.9375 -0.9375,0.9375 l -68,0 c -0.578769,0 -0.9375,-0.358731 -0.9375,-0.9375 l 0,-68 c 0,-0.578769 0.358731,-0.9375 0.9375,-0.9375 z"
       inkscape:connector-curvature="0"
       id="rect3726"
       style="opacity:0.07999998;fill:#000000;fill-opacity:1;fill-rule:nonzero;stroke:none" />
    <path
       d="M 12,6 C 8.676,6 6,8.676 6,12 l 0,72 c 0,3.324 2.676,6 6,6 l 72,0 c 3.324,0 6,-2.676 6,-6 L 90,12 C 90,8.676 87.324,6 84,6 L 12,6 z m 2,4 68,0 c 2.216,0 4,1.784 4,4 l 0,68 c 0,2.216 -1.784,4 -4,4 l -68,0 c -2.216,0 -4,-1.784 -4,-4 l 0,-68 c 0,-2.216 1.784,-4 4,-4 z"
       inkscape:connector-curvature="0"
       id="rect3629"
       style="fill:url(#linearGradient3643);fill-opacity:1;fill-rule:nonzero;stroke:none" />
    <path
       d="M 12,6 C 8.676,6 6,8.676 6,12 l 0,2 0,68 0,2 c 0,0.334721 0.04135,0.6507 0.09375,0.96875 0.0487,0.295596 0.09704,0.596915 0.1875,0.875 0.00988,0.03038 0.020892,0.0636 0.03125,0.09375 0.098865,0.287771 0.2348802,0.547452 0.375,0.8125 0.1445918,0.273507 0.3156161,0.535615 0.5,0.78125 0.1843839,0.245635 0.3737765,0.473472 0.59375,0.6875 0.439947,0.428056 0.94291,0.814526 1.5,1.09375 0.278545,0.139612 0.5734731,0.246947 0.875,0.34375 -0.2562018,-0.100222 -0.4867109,-0.236272 -0.71875,-0.375 -0.00741,-0.0044 -0.023866,0.0045 -0.03125,0 -0.031933,-0.0193 -0.062293,-0.04251 -0.09375,-0.0625 -0.120395,-0.0767 -0.2310226,-0.163513 -0.34375,-0.25 -0.1061728,-0.0808 -0.2132809,-0.161112 -0.3125,-0.25 C 8.4783201,88.557317 8.3087904,88.373362 8.15625,88.1875 8.0486711,88.057245 7.9378561,87.922215 7.84375,87.78125 7.818661,87.74287 7.805304,87.69538 7.78125,87.65625 7.716487,87.553218 7.6510225,87.451733 7.59375,87.34375 7.4927417,87.149044 7.3880752,86.928049 7.3125,86.71875 7.30454,86.69694 7.288911,86.6782 7.28125,86.65625 7.2494249,86.5643 7.2454455,86.469419 7.21875,86.375 7.1884177,86.268382 7.1483606,86.171969 7.125,86.0625 7.0521214,85.720988 7,85.364295 7,85 L 7,83 7,15 7,13 C 7,10.218152 9.2181517,8 12,8 l 2,0 68,0 2,0 c 2.781848,0 5,2.218152 5,5 l 0,2 0,68 0,2 c 0,0.364295 -0.05212,0.720988 -0.125,1.0625 -0.04415,0.206893 -0.08838,0.397658 -0.15625,0.59375 -0.0077,0.02195 -0.0233,0.04069 -0.03125,0.0625 -0.06274,0.173739 -0.138383,0.367449 -0.21875,0.53125 -0.04158,0.0828 -0.07904,0.169954 -0.125,0.25 -0.0546,0.09721 -0.126774,0.18835 -0.1875,0.28125 -0.09411,0.140965 -0.204921,0.275995 -0.3125,0.40625 -0.143174,0.17445 -0.303141,0.346998 -0.46875,0.5 -0.01117,0.0102 -0.01998,0.02115 -0.03125,0.03125 -0.138386,0.125556 -0.285091,0.234436 -0.4375,0.34375 -0.102571,0.07315 -0.204318,0.153364 -0.3125,0.21875 -0.0074,0.0045 -0.02384,-0.0044 -0.03125,0 -0.232039,0.138728 -0.462548,0.274778 -0.71875,0.375 0.301527,-0.0968 0.596455,-0.204138 0.875,-0.34375 0.55709,-0.279224 1.060053,-0.665694 1.5,-1.09375 0.219973,-0.214028 0.409366,-0.441865 0.59375,-0.6875 0.184384,-0.245635 0.355408,-0.507743 0.5,-0.78125 0.14012,-0.265048 0.276135,-0.524729 0.375,-0.8125 0.01041,-0.03078 0.02133,-0.06274 0.03125,-0.09375 0.09046,-0.278085 0.1388,-0.579404 0.1875,-0.875 C 89.95865,84.6507 90,84.334721 90,84 l 0,-2 0,-68 0,-2 C 90,8.676 87.324,6 84,6 L 12,6 z"
       inkscape:connector-curvature="0"
       id="rect3728"
       style="fill:url(#linearGradient3188);fill-opacity:1;fill-rule:nonzero;stroke:none" />
    <path
       d="M 12,90 C 8.676,90 6,87.324 6,84 L 6,82 6,14 6,12 c 0,-0.334721 0.04135,-0.6507 0.09375,-0.96875 0.0487,-0.295596 0.09704,-0.596915 0.1875,-0.875 C 6.29113,10.12587 6.302142,10.09265 6.3125,10.0625 6.411365,9.774729 6.5473802,9.515048 6.6875,9.25 6.8320918,8.976493 7.0031161,8.714385 7.1875,8.46875 7.3718839,8.223115 7.5612765,7.995278 7.78125,7.78125 8.221197,7.353194 8.72416,6.966724 9.28125,6.6875 9.559795,6.547888 9.8547231,6.440553 10.15625,6.34375 9.9000482,6.443972 9.6695391,6.580022 9.4375,6.71875 c -0.00741,0.0044 -0.023866,-0.0045 -0.03125,0 -0.031933,0.0193 -0.062293,0.04251 -0.09375,0.0625 -0.120395,0.0767 -0.2310226,0.163513 -0.34375,0.25 -0.1061728,0.0808 -0.2132809,0.161112 -0.3125,0.25 C 8.4783201,7.442683 8.3087904,7.626638 8.15625,7.8125 8.0486711,7.942755 7.9378561,8.077785 7.84375,8.21875 7.818661,8.25713 7.805304,8.30462 7.78125,8.34375 7.716487,8.446782 7.6510225,8.548267 7.59375,8.65625 7.4927417,8.850956 7.3880752,9.071951 7.3125,9.28125 7.30454,9.30306 7.288911,9.3218 7.28125,9.34375 7.2494249,9.4357 7.2454455,9.530581 7.21875,9.625 7.1884177,9.731618 7.1483606,9.828031 7.125,9.9375 7.0521214,10.279012 7,10.635705 7,11 l 0,2 0,68 0,2 c 0,2.781848 2.2181517,5 5,5 l 2,0 68,0 2,0 c 2.781848,0 5,-2.218152 5,-5 l 0,-2 0,-68 0,-2 C 89,10.635705 88.94788,10.279012 88.875,9.9375 88.83085,9.730607 88.78662,9.539842 88.71875,9.34375 88.71105,9.3218 88.69545,9.30306 88.6875,9.28125 88.62476,9.107511 88.549117,8.913801 88.46875,8.75 88.42717,8.6672 88.38971,8.580046 88.34375,8.5 88.28915,8.40279 88.216976,8.31165 88.15625,8.21875 88.06214,8.077785 87.951329,7.942755 87.84375,7.8125 87.700576,7.63805 87.540609,7.465502 87.375,7.3125 87.36383,7.3023 87.35502,7.29135 87.34375,7.28125 87.205364,7.155694 87.058659,7.046814 86.90625,6.9375 86.803679,6.86435 86.701932,6.784136 86.59375,6.71875 c -0.0074,-0.0045 -0.02384,0.0044 -0.03125,0 -0.232039,-0.138728 -0.462548,-0.274778 -0.71875,-0.375 0.301527,0.0968 0.596455,0.204138 0.875,0.34375 0.55709,0.279224 1.060053,0.665694 1.5,1.09375 0.219973,0.214028 0.409366,0.441865 0.59375,0.6875 0.184384,0.245635 0.355408,0.507743 0.5,0.78125 0.14012,0.265048 0.276135,0.524729 0.375,0.8125 0.01041,0.03078 0.02133,0.06274 0.03125,0.09375 0.09046,0.278085 0.1388,0.579404 0.1875,0.875 C 89.95865,11.3493 90,11.665279 90,12 l 0,2 0,68 0,2 c 0,3.324 -2.676,6 -6,6 l -72,0 z"
       inkscape:connector-curvature="0"
       id="path3615"
       style="opacity:0.6;fill:url(#radialGradient3619);fill-opacity:1;fill-rule:nonzero;stroke:none" />
    <rect
       width="84"
       height="84"
       rx="6"
       ry="6"
       x="6"
       y="106"
       id="rect2841"
       style="fill:url(#linearGradient2843);fill-opacity:1;fill-rule:nonzero;stroke:none" />
    <rect
       width="76"
       height="76"
       rx="4"
       ry="4"
       x="10"
       y="110"
       id="rect3634"
       style="fill:#ff0000;fill-opacity:1;fill-rule:nonzero;stroke:none" />
    <path
       d="m 14,9 c -2.752703,0 -5,2.247297 -5,5 l 0,68 c 0,2.752703 2.247297,5 5,5 l 68,0 c 2.752703,0 5,-2.247297 5,-5 L 87,14 C 87,11.247297 84.752703,9 82,9 L 14,9 z m 0,2 68,0 c 1.679297,0 3,1.320703 3,3 l 0,68 c 0,1.679297 -1.320703,3 -3,3 l -68,0 c -1.679297,0 -3,-1.320703 -3,-3 l 0,-68 c 0,-1.679297 1.320703,-3 3,-3 z"
       inkscape:connector-curvature="0"
       transform="translate(-110,0)"
       clip-path="url(#clipPath3649)"
       id="rect3647"
       style="font-size:medium;font-style:normal;font-variant:normal;font-weight:normal;font-stretch:normal;text-indent:0;text-align:start;text-decoration:none;line-height:normal;letter-spacing:normal;word-spacing:normal;text-transform:none;direction:ltr;block-progression:tb;writing-mode:lr-tb;text-anchor:start;color:#000000;fill:#000000;fill-opacity:1;stroke:none;stroke-width:2;marker:none;visibility:visible;display:inline;overflow:visible;filter:url(#filter3657);enable-background:accumulate;font-family:Abandoned Bitplane;-inkscape-font-specification:Abandoned Bitplane" />
    <path
       d="m 14.089286,10 c -2.216,0 -4,1.784 -4,4 l 0,68 c 0,2.216 1.784,4 4,4 l 68,0 c 2.216,0 4,-1.784 4,-4 l 0,-68 c 0,-2.216 -1.784,-4 -4,-4 l -68,0 z m 0,2 68,0 c 1.140301,0 2,0.859699 2,2 l 0,68 c 0,1.140301 -0.859699,2 -2,2 l -68,0 c -1.140301,0 -2,-0.859699 -2,-2 l 0,-68 c 0,-1.140301 0.859699,-2 2,-2 z"
       inkscape:connector-curvature="0"
       id="path3709"
       style="opacity:0.16000001;fill:#000000;fill-opacity:1;fill-rule:nonzero;stroke:none" />
    <path
       d="m 14,10 c -2.216,0 -4,1.784 -4,4 l 0,68 c 0,2.216 1.784,4 4,4 l 68,0 c 2.216,0 4,-1.784 4,-4 l 0,-68 c 0,-2.216 -1.784,-4 -4,-4 l -68,0 z m 0,1 68,0 c 1.673848,0 3,1.326152 3,3 l 0,68 c 0,1.673848 -1.326152,3 -3,3 l -68,0 c -1.673848,0 -3,-1.326152 -3,-3 l 0,-68 c 0,-1.673848 1.326152,-3 3,-3 z"
       inkscape:connector-curvature="0"
       id="path3707"
       style="opacity:0.36000001;fill:#000000;fill-opacity:1;fill-rule:nonzero;stroke:none" />
  </g>
  <g
     id="layer5"
     style="display:none"
     transform="translate(0,160)">
    <rect
       width="66"
       height="66"
       rx="12"
       ry="12"
       x="15"
       y="15"
       clip-path="url(#clipPath3613)"
       id="rect3171"
       style="opacity:0.1;fill:url(#linearGradient3613);fill-opacity:1;fill-rule:nonzero;stroke:#ffffff;stroke-width:0.5;stroke-linecap:round;stroke-linejoin:miter;stroke-miterlimit:4;stroke-opacity:1;stroke-dasharray:none;stroke-dashoffset:0;filter:url(#filter3794)" />
  </g>
  <g
     id="g3821"
     transform="translate(-1.0302919,0.54905695)">
    <path
       d="M 100.33497,10.459793 C 58.091194,9.8266338 18.649601,43.253669 12.403949,85.103915 5.1730609,123.81828 27.131753,165.40886 63.154127,181.21732 c 25.168138,11.84733 55.302223,10.00879 79.821293,-2.57765 15.12593,-8.27997 14.00988,12.77126 23.07661,18.8397 14.09067,13.89729 28.43155,28.36885 42.36612,41.90763 9.02856,9.20722 26.03486,7.77564 33.27733,-3.24691 7.99368,-10.01211 4.15395,-24.6278 -5.18291,-32.18307 -14.41669,-14.11006 -28.29066,-28.81624 -43.07965,-42.51749 -8.66545,-4.10127 -20.13326,-8.69623 -13.37703,-20.27382 13.10848,-26.22999 13.13973,-58.825169 -1.53411,-84.461906 C 163.14079,28.751747 132.2978,10.250336 100.33497,10.459793 z m 0,38.367688 c 28.37641,-0.837582 53.57968,25.569209 51.29182,53.929579 -0.66455,28.4304 -28.36484,52.20568 -56.540002,48.50265 C 66.759876,149.15156 44.594916,120.21769 49.692284,92.282172 52.96879,67.818279 75.676118,48.337029 100.33497,48.827481 z M 62.263113,79.393739 c -6.526368,1.008364 -8.205916,8.13485 -7.409958,13.735919 0.356332,7.721342 -0.755353,15.644352 0.63879,23.224952 3.393294,7.87129 12.899152,4.95899 19.598744,5.49937 21.357889,-0.0851 42.739921,0.17025 64.082681,-0.12769 6.69732,-1.17689 7.82325,-8.52262 7.15444,-14.14521 -0.34971,-7.54315 0.74546,-15.284953 -0.63879,-22.687768 -3.39329,-7.871331 -12.89915,-4.958988 -19.59874,-5.499368 -21.27569,0 -42.551622,0 -63.827167,0 z"
       inkscape:connector-curvature="0"
       id="path3959"
       style="opacity:0.1;fill:#000000;fill-opacity:1;stroke:none;display:inline" />
    <path
       d="m 100.33497,14.936023 c -21.736961,0 -43.428813,8.687795 -59.918457,25.194782 -33.0300071,33.064762 -33.0300111,86.770315 0,119.835075 26.149756,26.17728 65.030287,31.52666 96.584967,16.24232 0.38859,-0.18825 1.33571,-0.55544 2.29965,-1.02314 2.17766,-0.86095 6.11181,-2.24263 9.83735,-2.55784 3.72555,-0.31513 6.75937,0.37201 8.68754,2.30206 1.51785,1.51944 2.15608,3.26827 3.32171,6.52251 1.16562,3.25423 2.92633,7.66142 7.15444,11.89398 l 42.67114,42.33235 a 4.4723816,4.4770864 0 0 0 0.38327,0.25578 c 0.0331,0.0286 0.0147,0.045 0.12776,0.12769 0.0535,0.0479 0.0618,0.0704 0.12775,0.12769 0.0352,0.0205 0.0872,-0.0246 0.12776,0 0.34084,0.29589 0.80202,0.83627 1.40534,1.27892 1.26905,0.93106 3.04258,2.0137 5.36583,2.81363 4.64651,1.59986 11.81449,1.21811 17.63059,-4.60412 5.84132,-5.84748 6.28344,-13.03208 4.72704,-17.77703 -0.7782,-2.37249 -1.86893,-4.29763 -2.81067,-5.62726 -0.47087,-0.66483 -0.95137,-1.15332 -1.27758,-1.53471 -0.137,-0.16002 -0.29018,-0.28075 -0.38327,-0.38347 a 4.4723816,4.4770864 0 0 0 -0.12776,-0.12769 4.4723816,4.4770864 0 0 0 -0.12776,-0.25578 l -42.28786,-42.20446 c -4.19129,-4.19568 -8.3747,-5.9924 -11.49821,-7.16197 -3.12352,-1.16957 -4.81374,-1.7494 -6.3879,-3.3252 -2.3321,-2.33455 -2.72961,-6.74592 -1.91637,-11.38241 0.81325,-4.6365 2.77838,-9.01135 2.81068,-9.08035 15.27726,-31.6065 9.65812,-70.52018 -16.48077,-96.686575 C 143.88294,23.615183 122.07193,14.936023 100.33497,14.936023 z m 0,29.415227 c 30.80704,0 55.8302,24.933063 55.8302,55.76104 0,30.82798 -25.03461,55.88893 -55.8302,55.88893 -30.795597,0 -55.702446,-25.04945 -55.702446,-55.88893 0,-30.839477 24.89539,-55.76104 55.702446,-55.76104 z M 63.412934,83.869969 a 4.4723816,4.4770864 0 0 0 -4.088252,4.47623 l 0,24.555321 a 4.4723816,4.4770864 0 0 0 4.471526,4.47623 l 73.588552,0 a 4.4723816,4.4770864 0 0 0 4.47152,-4.47623 l 0,-24.555321 a 4.4723816,4.4770864 0 0 0 -4.47152,-4.47623 l -73.588552,0 a 4.4723816,4.4770864 0 0 0 -0.383274,0 z"
       id="path3955"
       style="opacity:0.15;fill:#000000;fill-opacity:1;stroke:none;display:inline"
       inkscape:connector-curvature="0" />
    <path
       d="m 100.33497,19.412253 c -20.542836,0 -41.062013,8.236878 -56.724509,23.915859 -31.324985,31.357922 -31.324989,82.082538 0,113.440458 24.798952,24.82502 61.577899,29.82838 91.474659,15.34708 0.78675,-0.38102 1.77865,-0.74276 2.55515,-1.15103 4.85315,-1.91867 16.93296,-5.68615 23.3797,0.76735 4.78172,4.78678 3.16133,11.09397 10.47615,18.41649 l 42.67113,42.33235 c 0.0508,-0.0507 9.21845,9.57199 18.78041,0 9.59889,-9.60899 0.13954,-19.13575 0,-19.31173 L 190.6598,170.96462 c -7.31482,-7.32252 -13.10439,-5.70044 -17.88611,-10.48717 -7.88323,-7.89155 -0.47095,-24.5721 0,-25.57846 14.46606,-29.92822 9.21249,-66.745858 -15.58646,-91.570878 C 141.52473,27.649131 120.8778,19.412253 100.33497,19.412253 z m 0,20.462767 c 33.22515,0 60.30172,26.977171 60.30172,60.23727 0,33.2601 -27.07656,60.36516 -60.30172,60.36516 -33.225172,0 -60.173973,-27.10506 -60.173973,-60.36516 0,-33.260099 26.948805,-60.23727 60.173973,-60.23727 z m -36.538762,48.471179 0,24.555321 73.588552,0 0,-24.555321 z"
       inkscape:connector-curvature="0"
       id="path3949"
       style="opacity:0.3;fill:#000000;fill-opacity:1;stroke:none;display:inline" />
    <path
       d="m 100.33497,15.3197 c -20.542836,0 -41.062013,8.236877 -56.724509,23.915859 -31.324985,31.357921 -31.324989,82.082541 0,113.440461 24.798952,24.82502 61.577899,29.82837 91.474659,15.34708 0.78675,-0.38102 1.77865,-0.74276 2.55515,-1.15103 4.85315,-1.91868 16.93296,-5.68616 23.3797,0.76735 4.78172,4.78677 3.16133,11.09397 10.47615,18.41649 l 42.67113,42.33235 c 0.0508,-0.0507 9.21845,9.57199 18.78041,0 9.59889,-9.60899 0.13954,-19.13576 0,-19.31174 L 190.6598,166.87207 c -7.31482,-7.32252 -13.10439,-5.70044 -17.88611,-10.48717 -7.88323,-7.89155 -0.47095,-24.5721 0,-25.57846 14.46606,-29.92823 9.21249,-66.745862 -15.58646,-91.570881 C 141.52473,23.556577 120.8778,15.3197 100.33497,15.3197 z m 0,20.462767 c 33.22515,0 60.30172,26.97717 60.30172,60.23727 0,33.260093 -27.07656,60.365163 -60.30172,60.365163 -33.225172,0 -60.173973,-27.10507 -60.173973,-60.365163 0,-33.2601 26.948805,-60.23727 60.173973,-60.23727 z m -36.538762,48.471179 0,24.555314 73.588552,0 0,-24.555314 z"
       inkscape:connector-curvature="0"
       id="path3102"
       style="fill:url(#linearGradient3829);fill-opacity:1;stroke:none;display:inline" />
    <path
       d="m 100.33497,15.3197 c -20.542836,0 -41.062013,8.236877 -56.724509,23.915859 C 27.425559,55.437486 19.690932,76.866505 20.230766,98.066014 20.727766,78.223678 28.461829,58.4927 43.610461,43.328112 59.272957,27.649131 79.792134,19.412253 100.33497,19.412253 c 20.54283,0 41.18976,8.236878 56.85226,23.915859 15.14477,15.1607 22.98154,34.804547 23.50745,54.610009 0.52115,-21.177858 -7.3159,-42.493964 -23.50745,-58.702562 C 141.52473,23.556577 120.8778,15.3197 100.33497,15.3197 z m -36.538762,68.933946 0,4.092553 73.588552,0 0,-4.092553 -73.588552,0 z M 40.288755,98.066014 c -0.0233,0.687876 -0.127758,1.352752 -0.127758,2.046276 0,33.2601 26.948801,60.36516 60.173973,60.36516 33.22516,0 60.30172,-27.10506 60.30172,-60.36516 0,-0.693524 -0.10441,-1.3584 -0.12775,-2.046276 -1.09672,32.306326 -27.6416,58.318886 -60.17397,58.318886 -32.532381,0 -58.95461,-26.01256 -60.046215,-58.318886 z M 169.32423,148.45558 c -0.30981,4.3891 0.30723,8.87633 3.44946,12.02187 4.78172,4.78673 10.57129,3.16465 17.88611,10.48717 l 42.28786,42.20446 c 0.0819,0.10313 3.32465,3.51055 4.08826,8.1851 1.38254,-6.74146 -3.98361,-12.14567 -4.08826,-12.27766 L 190.6598,166.87207 c -7.31482,-7.32252 -13.10439,-5.70044 -17.88611,-10.48717 -2.15485,-2.15715 -3.12615,-4.95846 -3.44946,-7.92932 z"
       inkscape:connector-curvature="0"
       id="path3931"
       style="opacity:0.75;fill:#ffffff;fill-opacity:1;stroke:none;display:inline" />
    <path
       d="m 100.33497,31.689913 c -33.225168,0 -60.173973,26.977171 -60.173973,60.237271 0,0.693524 0.104496,1.358277 0.127758,2.046276 1.091605,-32.301255 27.513838,-58.190993 60.046215,-58.190993 32.53236,0 59.07725,25.889738 60.17397,58.190993 0.0233,-0.687999 0.12775,-1.352752 0.12775,-2.046276 0,-33.2601 -27.07657,-60.237271 -60.30172,-60.237271 z m 80.35971,62.155655 c -0.27706,11.258122 -2.9,22.480602 -7.92099,32.868322 -0.34222,0.73125 -4.30894,9.75145 -3.44946,17.64913 0.46745,-6.62228 3.16623,-12.95133 3.44946,-13.55658 5.63161,-11.65101 8.25624,-24.33567 7.92099,-36.960872 z M 20.230766,93.973256 c -0.530721,21.188494 7.203341,42.509184 23.379695,58.702564 24.798952,24.82502 61.577899,29.82837 91.474659,15.34707 0.78675,-0.38101 1.77865,-0.74276 2.55515,-1.15103 4.85315,-1.91867 16.93296,-5.68615 23.3797,0.76735 4.78172,4.78678 3.16133,11.09398 10.47615,18.4165 l 42.67113,42.33234 c 0.0508,-0.0507 9.21845,9.572 18.78041,0 3.96284,-3.96703 4.62517,-7.83981 4.08826,-11.12663 -0.46085,2.24714 -1.68853,4.63183 -4.08826,7.03408 -9.56196,9.57199 -18.72963,-0.0507 -18.78041,0 l -42.67113,-42.33214 c -7.31482,-7.32252 -5.69443,-13.62972 -10.47615,-18.41649 -6.44674,-6.45351 -18.52655,-2.68603 -23.3797,-0.76736 -0.7765,0.40844 -1.7684,0.76998 -2.55515,1.15103 -29.89676,14.4813 -66.675707,9.47795 -91.474659,-15.34707 -15.140088,-15.156 -22.87471,-34.77905 -23.379695,-54.61001 z m 43.565442,10.743154 0,4.09255 73.588552,0 0,-4.09255 -73.588552,0 z"
       inkscape:connector-curvature="0"
       id="path3940"
       style="opacity:0.15;fill:#000000;fill-opacity:1;stroke:none;display:inline" />
  </g>
</svg>
