<?xml version="1.0" encoding="UTF-8" standalone="no"?>
<!-- Created with Inkscape (http://www.inkscape.org/) -->

<svg
   xmlns:dc="http://purl.org/dc/elements/1.1/"
   xmlns:cc="http://creativecommons.org/ns#"
   xmlns:rdf="http://www.w3.org/1999/02/22-rdf-syntax-ns#"
   xmlns:svg="http://www.w3.org/2000/svg"
   xmlns="http://www.w3.org/2000/svg"
   xmlns:xlink="http://www.w3.org/1999/xlink"
   xmlns:sodipodi="http://sodipodi.sourceforge.net/DTD/sodipodi-0.dtd"
   xmlns:inkscape="http://www.inkscape.org/namespaces/inkscape"
   version="1.0"
   width="256"
   height="256"
   id="svg2408"
   inkscape:version="0.48.2 r9819"
   sodipodi:docname="gtk-zoom-100.svg">
  <sodipodi:namedview
     pagecolor="#ffffff"
     bordercolor="#666666"
     borderopacity="1"
     objecttolerance="10"
     gridtolerance="10"
     guidetolerance="10"
     inkscape:pageopacity="0"
     inkscape:pageshadow="2"
     inkscape:window-width="1024"
     inkscape:window-height="572"
     id="namedview4090"
     showgrid="false"
     inkscape:zoom="1.6289062"
     inkscape:cx="117.25659"
     inkscape:cy="128"
     inkscape:window-x="0"
     inkscape:window-y="28"
     inkscape:window-maximized="1"
     inkscape:current-layer="svg2408" />
  <defs
     id="defs2410">
    <linearGradient
       id="linearGradient3637">
      <stop
         id="stop3639"
         style="stop-color:#5a5a5a;stop-opacity:1;"
         offset="0" />
      <stop
         id="stop3641"
         style="stop-color:#000000;stop-opacity:1;"
         offset="1" />
    </linearGradient>
    <linearGradient
       x1="45.447727"
       y1="92.539597"
       x2="45.447727"
       y2="7.0165396"
       id="ButtonShadow"
       gradientUnits="userSpaceOnUse"
       gradientTransform="scale(1.0058652,0.994169)">
      <stop
         id="stop3750"
         style="stop-color:#000000;stop-opacity:1"
         offset="0" />
      <stop
         id="stop3752"
         style="stop-color:#000000;stop-opacity:0.58823532"
         offset="1" />
    </linearGradient>
    <linearGradient
       id="linearGradient3737">
      <stop
         id="stop3739"
         style="stop-color:#ffffff;stop-opacity:1"
         offset="0" />
      <stop
         id="stop3741"
         style="stop-color:#ffffff;stop-opacity:0"
         offset="1" />
    </linearGradient>
    <linearGradient
       id="linearGradient3700">
      <stop
         id="stop3702"
         style="stop-color:#2276c5;stop-opacity:1"
         offset="0" />
      <stop
         id="stop3704"
         style="stop-color:#68baf4;stop-opacity:1"
         offset="1" />
    </linearGradient>
    <filter
       color-interpolation-filters="sRGB"
       id="filter3174">
      <feGaussianBlur
         id="feGaussianBlur3176"
         stdDeviation="1.71" />
    </filter>
    <linearGradient
       x1="36.357143"
       y1="6"
       x2="36.357143"
       y2="63.893143"
       id="linearGradient3188"
       xlink:href="#linearGradient3737"
       gradientUnits="userSpaceOnUse" />
    <filter
       x="-0.192"
       y="-0.192"
       width="1.3839999"
       height="1.3839999"
       color-interpolation-filters="sRGB"
       id="filter3794">
      <feGaussianBlur
         id="feGaussianBlur3796"
         stdDeviation="5.28" />
    </filter>
    <linearGradient
       x1="48"
       y1="20.220806"
       x2="48"
       y2="138.66119"
       id="linearGradient3613"
       xlink:href="#linearGradient3737"
       gradientUnits="userSpaceOnUse" />
    <radialGradient
       cx="48"
       cy="90.171875"
       r="42"
       fx="48"
       fy="90.171875"
       id="radialGradient3619"
       xlink:href="#linearGradient3737"
       gradientUnits="userSpaceOnUse"
       gradientTransform="matrix(1.1573129,0,0,0.99590774,-7.5510206,0.19713193)" />
    <clipPath
       id="clipPath3613">
      <rect
         width="84"
         height="84"
         rx="6"
         ry="6"
         x="6"
         y="6"
         id="rect3615"
         style="fill:#ffffff;fill-opacity:1;fill-rule:nonzero;stroke:none" />
    </clipPath>
    <linearGradient
       x1="48"
       y1="90"
       x2="48"
       y2="5.9877172"
       id="linearGradient2843"
       xlink:href="#linearGradient3700"
       gradientUnits="userSpaceOnUse"
       gradientTransform="translate(0,100)" />
    <clipPath
       id="clipPath3625">
      <path
         d="M 0,0 0,96 96,96 96,0 0,0 z m 12,6 72,0 c 3.324,0 6,2.676 6,6 l 0,72 c 0,3.324 -2.676,6 -6,6 L 12,90 C 8.676,90 6,87.324 6,84 L 6,12 C 6,8.676 8.676,6 12,6 z"
         inkscape:connector-curvature="0"
         id="path3627"
         style="fill:#ffffff;fill-opacity:1;stroke:none" />
    </clipPath>
    <linearGradient
       x1="44.512066"
       y1="6"
       x2="44.512066"
       y2="90.015434"
       id="linearGradient3643"
       xlink:href="#linearGradient3637"
       gradientUnits="userSpaceOnUse" />
    <clipPath
       id="clipPath3649">
      <rect
         width="76"
         height="76"
         rx="4"
         ry="4"
         x="10"
         y="10"
         id="rect3651"
         style="fill:#ffffff;fill-opacity:1;fill-rule:nonzero;stroke:none" />
    </clipPath>
    <filter
       color-interpolation-filters="sRGB"
       id="filter3657">
      <feGaussianBlur
         id="feGaussianBlur3659"
         stdDeviation="1.14" />
    </filter>
    <linearGradient
       inkscape:collect="always"
       xlink:href="#linearGradient3637"
       id="linearGradient3829"
       gradientUnits="userSpaceOnUse"
       gradientTransform="matrix(13.425458,0,0,13.420428,-19.80231,-24.669559)"
       x1="10.558969"
       y1="3.0148761"
       x2="10.558969"
       y2="19.285688" />
  </defs>
  <metadata
     id="metadata2413">
    <rdf:RDF>
      <cc:Work
         rdf:about="">
        <dc:format>image/svg+xml</dc:format>
        <dc:type
           rdf:resource="http://purl.org/dc/dcmitype/StillImage" />
        <dc:title></dc:title>
      </cc:Work>
    </rdf:RDF>
  </metadata>
  <g
     id="layer2"
     style="display:none"
     transform="translate(0,160)">
    <rect
       width="86"
       height="85"
       rx="6"
       ry="6"
       x="5"
       y="7"
       clip-path="url(#clipPath3625)"
       id="rect3745"
       style="opacity:0.9;fill:url(#ButtonShadow);fill-opacity:1;fill-rule:nonzero;stroke:none;filter:url(#filter3174)" />
  </g>
  <g
     id="layer1"
     style="display:none"
     transform="translate(0,160)">
    <rect
       width="84"
       height="84"
       rx="6"
       ry="6"
       x="6"
       y="6"
       id="rect2419"
       style="opacity:0.8;fill:#000000;fill-opacity:1;fill-rule:nonzero;stroke:none" />
    <path
       d="m 14,10 c -2.216,0 -4,1.784 -4,4 l 0,68 c 0,2.216 1.784,4 4,4 l 68,0 c 2.216,0 4,-1.784 4,-4 l 0,-68 c 0,-2.216 -1.784,-4 -4,-4 l -68,0 z m 0,3.0625 68,0 c 0.578769,0 0.9375,0.358731 0.9375,0.9375 l 0,68 c 0,0.578769 -0.358731,0.9375 -0.9375,0.9375 l -68,0 c -0.578769,0 -0.9375,-0.358731 -0.9375,-0.9375 l 0,-68 c 0,-0.578769 0.358731,-0.9375 0.9375,-0.9375 z"
       inkscape:connector-curvature="0"
       id="rect3726"
       style="opacity:0.07999998;fill:#000000;fill-opacity:1;fill-rule:nonzero;stroke:none" />
    <path
       d="M 12,6 C 8.676,6 6,8.676 6,12 l 0,72 c 0,3.324 2.676,6 6,6 l 72,0 c 3.324,0 6,-2.676 6,-6 L 90,12 C 90,8.676 87.324,6 84,6 L 12,6 z m 2,4 68,0 c 2.216,0 4,1.784 4,4 l 0,68 c 0,2.216 -1.784,4 -4,4 l -68,0 c -2.216,0 -4,-1.784 -4,-4 l 0,-68 c 0,-2.216 1.784,-4 4,-4 z"
       inkscape:connector-curvature="0"
       id="rect3629"
       style="fill:url(#linearGradient3643);fill-opacity:1;fill-rule:nonzero;stroke:none" />
    <path
       d="M 12,6 C 8.676,6 6,8.676 6,12 l 0,2 0,68 0,2 c 0,0.334721 0.04135,0.6507 0.09375,0.96875 0.0487,0.295596 0.09704,0.596915 0.1875,0.875 0.00988,0.03038 0.020892,0.0636 0.03125,0.09375 0.098865,0.287771 0.2348802,0.547452 0.375,0.8125 0.1445918,0.273507 0.3156161,0.535615 0.5,0.78125 0.1843839,0.245635 0.3737765,0.473472 0.59375,0.6875 0.439947,0.428056 0.94291,0.814526 1.5,1.09375 0.278545,0.139612 0.5734731,0.246947 0.875,0.34375 -0.2562018,-0.100222 -0.4867109,-0.236272 -0.71875,-0.375 -0.00741,-0.0044 -0.023866,0.0045 -0.03125,0 -0.031933,-0.0193 -0.062293,-0.04251 -0.09375,-0.0625 -0.120395,-0.0767 -0.2310226,-0.163513 -0.34375,-0.25 -0.1061728,-0.0808 -0.2132809,-0.161112 -0.3125,-0.25 C 8.4783201,88.557317 8.3087904,88.373362 8.15625,88.1875 8.0486711,88.057245 7.9378561,87.922215 7.84375,87.78125 7.818661,87.74287 7.805304,87.69538 7.78125,87.65625 7.716487,87.553218 7.6510225,87.451733 7.59375,87.34375 7.4927417,87.149044 7.3880752,86.928049 7.3125,86.71875 7.30454,86.69694 7.288911,86.6782 7.28125,86.65625 7.2494249,86.5643 7.2454455,86.469419 7.21875,86.375 7.1884177,86.268382 7.1483606,86.171969 7.125,86.0625 7.0521214,85.720988 7,85.364295 7,85 L 7,83 7,15 7,13 C 7,10.218152 9.2181517,8 12,8 l 2,0 68,0 2,0 c 2.781848,0 5,2.218152 5,5 l 0,2 0,68 0,2 c 0,0.364295 -0.05212,0.720988 -0.125,1.0625 -0.04415,0.206893 -0.08838,0.397658 -0.15625,0.59375 -0.0077,0.02195 -0.0233,0.04069 -0.03125,0.0625 -0.06274,0.173739 -0.138383,0.367449 -0.21875,0.53125 -0.04158,0.0828 -0.07904,0.169954 -0.125,0.25 -0.0546,0.09721 -0.126774,0.18835 -0.1875,0.28125 -0.09411,0.140965 -0.204921,0.275995 -0.3125,0.40625 -0.143174,0.17445 -0.303141,0.346998 -0.46875,0.5 -0.01117,0.0102 -0.01998,0.02115 -0.03125,0.03125 -0.138386,0.125556 -0.285091,0.234436 -0.4375,0.34375 -0.102571,0.07315 -0.204318,0.153364 -0.3125,0.21875 -0.0074,0.0045 -0.02384,-0.0044 -0.03125,0 -0.232039,0.138728 -0.462548,0.274778 -0.71875,0.375 0.301527,-0.0968 0.596455,-0.204138 0.875,-0.34375 0.55709,-0.279224 1.060053,-0.665694 1.5,-1.09375 0.219973,-0.214028 0.409366,-0.441865 0.59375,-0.6875 0.184384,-0.245635 0.355408,-0.507743 0.5,-0.78125 0.14012,-0.265048 0.276135,-0.524729 0.375,-0.8125 0.01041,-0.03078 0.02133,-0.06274 0.03125,-0.09375 0.09046,-0.278085 0.1388,-0.579404 0.1875,-0.875 C 89.95865,84.6507 90,84.334721 90,84 l 0,-2 0,-68 0,-2 C 90,8.676 87.324,6 84,6 L 12,6 z"
       inkscape:connector-curvature="0"
       id="rect3728"
       style="fill:url(#linearGradient3188);fill-opacity:1;fill-rule:nonzero;stroke:none" />
    <path
       d="M 12,90 C 8.676,90 6,87.324 6,84 L 6,82 6,14 6,12 c 0,-0.334721 0.04135,-0.6507 0.09375,-0.96875 0.0487,-0.295596 0.09704,-0.596915 0.1875,-0.875 C 6.29113,10.12587 6.302142,10.09265 6.3125,10.0625 6.411365,9.774729 6.5473802,9.515048 6.6875,9.25 6.8320918,8.976493 7.0031161,8.714385 7.1875,8.46875 7.3718839,8.223115 7.5612765,7.995278 7.78125,7.78125 8.221197,7.353194 8.72416,6.966724 9.28125,6.6875 9.559795,6.547888 9.8547231,6.440553 10.15625,6.34375 9.9000482,6.443972 9.6695391,6.580022 9.4375,6.71875 c -0.00741,0.0044 -0.023866,-0.0045 -0.03125,0 -0.031933,0.0193 -0.062293,0.04251 -0.09375,0.0625 -0.120395,0.0767 -0.2310226,0.163513 -0.34375,0.25 -0.1061728,0.0808 -0.2132809,0.161112 -0.3125,0.25 C 8.4783201,7.442683 8.3087904,7.626638 8.15625,7.8125 8.0486711,7.942755 7.9378561,8.077785 7.84375,8.21875 7.818661,8.25713 7.805304,8.30462 7.78125,8.34375 7.716487,8.446782 7.6510225,8.548267 7.59375,8.65625 7.4927417,8.850956 7.3880752,9.071951 7.3125,9.28125 7.30454,9.30306 7.288911,9.3218 7.28125,9.34375 7.2494249,9.4357 7.2454455,9.530581 7.21875,9.625 7.1884177,9.731618 7.1483606,9.828031 7.125,9.9375 7.0521214,10.279012 7,10.635705 7,11 l 0,2 0,68 0,2 c 0,2.781848 2.2181517,5 5,5 l 2,0 68,0 2,0 c 2.781848,0 5,-2.218152 5,-5 l 0,-2 0,-68 0,-2 C 89,10.635705 88.94788,10.279012 88.875,9.9375 88.83085,9.730607 88.78662,9.539842 88.71875,9.34375 88.71105,9.3218 88.69545,9.30306 88.6875,9.28125 88.62476,9.107511 88.549117,8.913801 88.46875,8.75 88.42717,8.6672 88.38971,8.580046 88.34375,8.5 88.28915,8.40279 88.216976,8.31165 88.15625,8.21875 88.06214,8.077785 87.951329,7.942755 87.84375,7.8125 87.700576,7.63805 87.540609,7.465502 87.375,7.3125 87.36383,7.3023 87.35502,7.29135 87.34375,7.28125 87.205364,7.155694 87.058659,7.046814 86.90625,6.9375 86.803679,6.86435 86.701932,6.784136 86.59375,6.71875 c -0.0074,-0.0045 -0.02384,0.0044 -0.03125,0 -0.232039,-0.138728 -0.462548,-0.274778 -0.71875,-0.375 0.301527,0.0968 0.596455,0.204138 0.875,0.34375 0.55709,0.279224 1.060053,0.665694 1.5,1.09375 0.219973,0.214028 0.409366,0.441865 0.59375,0.6875 0.184384,0.245635 0.355408,0.507743 0.5,0.78125 0.14012,0.265048 0.276135,0.524729 0.375,0.8125 0.01041,0.03078 0.02133,0.06274 0.03125,0.09375 0.09046,0.278085 0.1388,0.579404 0.1875,0.875 C 89.95865,11.3493 90,11.665279 90,12 l 0,2 0,68 0,2 c 0,3.324 -2.676,6 -6,6 l -72,0 z"
       inkscape:connector-curvature="0"
       id="path3615"
       style="opacity:0.6;fill:url(#radialGradient3619);fill-opacity:1;fill-rule:nonzero;stroke:none" />
    <rect
       width="84"
       height="84"
       rx="6"
       ry="6"
       x="6"
       y="106"
       id="rect2841"
       style="fill:url(#linearGradient2843);fill-opacity:1;fill-rule:nonzero;stroke:none" />
    <rect
       width="76"
       height="76"
       rx="4"
       ry="4"
       x="10"
       y="110"
       id="rect3634"
       style="fill:#ff0000;fill-opacity:1;fill-rule:nonzero;stroke:none" />
    <path
       d="m 14,9 c -2.752703,0 -5,2.247297 -5,5 l 0,68 c 0,2.752703 2.247297,5 5,5 l 68,0 c 2.752703,0 5,-2.247297 5,-5 L 87,14 C 87,11.247297 84.752703,9 82,9 L 14,9 z m 0,2 68,0 c 1.679297,0 3,1.320703 3,3 l 0,68 c 0,1.679297 -1.320703,3 -3,3 l -68,0 c -1.679297,0 -3,-1.320703 -3,-3 l 0,-68 c 0,-1.679297 1.320703,-3 3,-3 z"
       inkscape:connector-curvature="0"
       transform="translate(-110,0)"
       clip-path="url(#clipPath3649)"
       id="rect3647"
       style="font-size:medium;font-style:normal;font-variant:normal;font-weight:normal;font-stretch:normal;text-indent:0;text-align:start;text-decoration:none;line-height:normal;letter-spacing:normal;word-spacing:normal;text-transform:none;direction:ltr;block-progression:tb;writing-mode:lr-tb;text-anchor:start;color:#000000;fill:#000000;fill-opacity:1;stroke:none;stroke-width:2;marker:none;visibility:visible;display:inline;overflow:visible;filter:url(#filter3657);enable-background:accumulate;font-family:Abandoned Bitplane;-inkscape-font-specification:Abandoned Bitplane" />
    <path
       d="m 14.089286,10 c -2.216,0 -4,1.784 -4,4 l 0,68 c 0,2.216 1.784,4 4,4 l 68,0 c 2.216,0 4,-1.784 4,-4 l 0,-68 c 0,-2.216 -1.784,-4 -4,-4 l -68,0 z m 0,2 68,0 c 1.140301,0 2,0.859699 2,2 l 0,68 c 0,1.140301 -0.859699,2 -2,2 l -68,0 c -1.140301,0 -2,-0.859699 -2,-2 l 0,-68 c 0,-1.140301 0.859699,-2 2,-2 z"
       inkscape:connector-curvature="0"
       id="path3709"
       style="opacity:0.16000001;fill:#000000;fill-opacity:1;fill-rule:nonzero;stroke:none" />
    <path
       d="m 14,10 c -2.216,0 -4,1.784 -4,4 l 0,68 c 0,2.216 1.784,4 4,4 l 68,0 c 2.216,0 4,-1.784 4,-4 l 0,-68 c 0,-2.216 -1.784,-4 -4,-4 l -68,0 z m 0,1 68,0 c 1.673848,0 3,1.326152 3,3 l 0,68 c 0,1.673848 -1.326152,3 -3,3 l -68,0 c -1.673848,0 -3,-1.326152 -3,-3 l 0,-68 c 0,-1.673848 1.326152,-3 3,-3 z"
       inkscape:connector-curvature="0"
       id="path3707"
       style="opacity:0.36000001;fill:#000000;fill-opacity:1;fill-rule:nonzero;stroke:none" />
  </g>
  <g
     id="layer5"
     style="display:none"
     transform="translate(0,160)">
    <rect
       width="66"
       height="66"
       rx="12"
       ry="12"
       x="15"
       y="15"
       clip-path="url(#clipPath3613)"
       id="rect3171"
       style="opacity:0.1;fill:url(#linearGradient3613);fill-opacity:1;fill-rule:nonzero;stroke:#ffffff;stroke-width:0.5;stroke-linecap:round;stroke-linejoin:miter;stroke-miterlimit:4;stroke-opacity:1;stroke-dasharray:none;stroke-dashoffset:0;filter:url(#filter3794)" />
  </g>
  <g
     id="g3821"
     transform="translate(-1.828307,-0.06663365)">
    <path
       d="M 100.91815,11.073585 C 58.026096,10.502775 18.199568,45.149967 12.86449,87.7405 c -6.2689291,38.61402 16.48698,79.37231 52.572707,94.37099 24.371566,10.82518 53.309563,9.15308 76.886503,-2.80243 11.26135,-6.91563 16.25233,3.10694 19.53958,12.13425 9.49937,11.79848 21.27324,21.72047 31.79248,32.68388 8.71273,7.56289 15.2517,18.41444 26.94411,21.47559 16.90794,3.83495 32.7384,-16.92974 23.50129,-32.04324 -5.62996,-8.84077 -14.42052,-15.22284 -21.49836,-23.01022 -10.16386,-9.70329 -19.46695,-20.38993 -30.32062,-29.30715 -9.2288,-2.96402 -18.11395,-8.92325 -11.88588,-19.63222 C 193.77719,114.9187 193.49554,81.631009 178.04828,55.834807 162.44569,28.835517 132.2135,10.89702 100.91815,11.073585 z m 0,37.699107 c 28.70136,-0.863622 54.16369,25.831121 51.84966,54.477808 -0.64377,28.75033 -28.69142,52.71203 -57.158796,48.99115 C 67.913305,150.15878 45.855064,122.73943 49.395355,95.262308 51.525267,69.40624 74.979981,48.254158 100.91815,48.772692 z M 88.48367,55.56879 c -7.379748,-0.08822 -7.776323,9.298334 -13.242623,12.089237 -6.257837,-0.850164 -12.45669,4.257301 -11.369966,10.804985 0.494701,7.468136 -1.099584,15.28608 1.025525,22.498578 2.982303,5.79169 10.01309,4.52808 15.382868,4.61622 0.238865,11.61724 -0.488962,23.31091 0.384571,34.87809 2.513696,7.92746 11.779253,5.96399 18.166289,6.15495 6.417506,-0.61348 13.474326,1.45672 19.393546,-1.53874 6.19913,-4.59459 3.08824,-13.1295 3.84571,-19.67493 -0.17146,-20.9614 0.34257,-41.975571 -0.25638,-62.904064 -1.2288,-7.096829 -9.26394,-7.38841 -14.97378,-6.924326 -6.11859,0 -12.237176,0 -18.35576,0 z m 148.44467,160.02887 c 1.6808,-0.41973 0.33281,0.44484 0,0 z"
       inkscape:connector-curvature="0"
       id="path3877"
       style="opacity:0.1;fill:#000000;fill-opacity:1;stroke:none;display:inline" />
    <path
       d="m 100.91815,15.561574 c -21.717225,0 -43.384154,8.647057 -59.86499,25.132738 -33.0085911,33.018304 -33.0085951,86.618658 0,119.636968 26.132724,26.14038 64.99554,31.41851 96.52749,16.15676 0.41913,-0.20271 1.33772,-0.55264 2.30743,-1.02583 0.15514,-0.0759 0.22283,-0.0431 0.38457,-0.12802 2.24757,-0.86674 5.96979,-1.99999 9.6143,-2.30811 3.79341,-0.32088 6.93739,0.27164 8.97334,2.30811 1.59123,1.59171 2.16796,3.41789 3.33295,6.66787 1.16499,3.24998 2.98086,7.59796 7.17867,11.797 l 42.81565,42.44335 a 4.1379316,4.1391482 0 0 0 0.38457,0.25645 c 0.0304,0.0246 0.0238,0.0517 0.12819,0.12802 a 4.1379316,4.1391482 0 0 0 0.1282,0.12803 c 0.16896,0.10463 0.38563,0.25686 0.38457,0.25645 0.31336,0.26467 0.67735,0.54837 1.15371,0.8976 1.25358,0.91902 2.96976,2.0345 5.25582,2.82102 4.57211,1.57305 11.55084,1.26858 17.30572,-4.48799 5.77966,-5.78135 6.1473,-12.77067 4.61486,-17.43904 -0.76622,-2.33416 -1.88974,-4.20113 -2.82019,-5.51381 -0.46523,-0.65637 -0.83211,-1.163 -1.15372,-1.53874 -0.13508,-0.15798 -0.29293,-0.28354 -0.38457,-0.38448 -0.14074,-0.17726 0.0168,-0.10956 0,-0.12802 -0.0484,-0.0529 -0.10891,-0.10751 -0.12819,-0.12803 a 4.1379316,4.1391482 0 0 0 -0.12819,-0.12802 l -42.43108,-42.31574 c -4.16374,-4.16497 -8.28769,-6.01294 -11.40896,-7.18078 -3.12127,-1.16784 -4.89438,-1.69011 -6.53771,-3.33393 -2.46582,-2.46654 -2.87591,-7.0979 -2.05105,-11.797 0.82485,-4.69911 2.7719,-9.00109 2.82019,-9.10421 15.26559,-31.55843 9.71428,-70.425544 -16.40839,-96.555878 C 144.42255,24.200671 122.63538,15.561574 100.91815,15.561574 z m 0,28.72313 c 31.10039,0 56.40385,25.193261 56.40385,56.292206 0,31.09894 -25.31405,56.42043 -56.40385,56.42043 -31.089797,0 -56.275654,-25.3109 -56.275654,-56.42043 0,-31.109531 25.175257,-56.292206 56.275654,-56.292206 z M 88.099098,60.056779 a 4.1379316,4.1391482 0 0 0 -2.948383,2.308109 c -1.927691,3.856531 -3.683864,6.358808 -5.512194,7.821923 -1.82833,1.463074 -3.766161,2.179881 -7.178672,2.179881 a 4.1379316,4.1391482 0 0 0 -4.102098,4.103304 l 0,20.516521 a 4.1379316,4.1391482 0 0 0 4.102098,4.103303 l 12.306295,0 0,36.92974 a 4.1379316,4.1391482 0 0 0 4.102098,4.10331 l 24.612588,0 a 4.1379316,4.1391482 0 0 0 4.10209,-4.10331 l 0,-73.859477 a 4.1379316,4.1391482 0 0 0 -4.10209,-4.103304 l -24.612588,0 a 4.1379316,4.1391482 0 0 0 -0.769144,0 z"
       id="path3873"
       style="opacity:0.15;fill:#000000;fill-opacity:1;stroke:none;display:inline"
       inkscape:connector-curvature="0" />
    <path
       d="m 100.91815,19.664878 c -20.612398,0 -41.201067,8.258516 -56.916607,23.978684 -31.431071,31.440297 -31.431075,82.298168 0,113.738468 24.882938,24.89023 61.786437,29.90673 91.784437,15.38739 0.78943,-0.38202 1.78468,-0.74471 2.56382,-1.15406 4.86958,-1.92371 16.9903,-5.70109 23.45887,0.76937 4.79792,4.79935 3.17204,11.12312 10.51163,18.46487 l 42.81565,42.44356 c 0.0509,-0.0509 9.24966,9.59713 18.84401,0 9.63139,-9.63423 0.14,-19.18603 0,-19.36247 l -42.43108,-42.31533 c -7.33959,-7.34175 -13.14877,-5.71541 -17.94668,-10.51471 -7.90993,-7.91228 -0.47255,-24.63665 0,-25.64565 14.51505,-30.00685 9.24369,-66.921205 -15.63925,-91.811438 -15.71554,-15.720168 -36.43239,-23.978684 -57.0448,-23.978684 z m 0,20.516521 c 33.33767,0 60.50595,27.048038 60.50595,60.395511 0,33.34747 -27.16826,60.52374 -60.50595,60.52374 -33.337685,0 -60.377752,-27.17627 -60.377752,-60.52374 0,-33.347473 27.040071,-60.395511 60.377752,-60.395511 z M 88.868242,64.160083 c -4.102098,8.206609 -8.204197,12.309913 -16.408393,12.309913 l 0,20.516521 16.408393,0 0,41.033043 24.612588,0 0,-73.859477 z"
       inkscape:connector-curvature="0"
       id="path3867"
       style="opacity:0.3;fill:#000000;fill-opacity:1;stroke:none;display:inline" />
    <path
       d="m 100.91815,15.561574 c -20.612398,0 -41.201067,8.258515 -56.916607,23.978684 -31.431071,31.440296 -31.431075,82.298172 0,113.738462 24.882938,24.89024 61.786437,29.90673 91.784437,15.38739 0.78943,-0.38201 1.78468,-0.7447 2.56382,-1.15405 4.86958,-1.92371 16.9903,-5.70109 23.45887,0.76937 4.79792,4.79935 3.17204,11.12311 10.51163,18.46487 l 42.81565,42.44355 c 0.0509,-0.0509 9.24966,9.59714 18.84401,0 9.63139,-9.63423 0.14,-19.18602 0,-19.36247 l -42.43108,-42.31532 c -7.33959,-7.34176 -13.14877,-5.71541 -17.94668,-10.51472 -7.90993,-7.91228 -0.47255,-24.63665 0,-25.64565 14.51505,-30.00685 9.24369,-66.921199 -15.63925,-91.811432 -15.71554,-15.720169 -36.43239,-23.978684 -57.0448,-23.978684 z m 0,20.516521 c 33.33767,0 60.50595,27.048038 60.50595,60.395509 0,33.347476 -27.16826,60.523736 -60.50595,60.523736 -33.337685,0 -60.377752,-27.17626 -60.377752,-60.523736 0,-33.347471 27.040071,-60.395509 60.377752,-60.395509 z M 88.868242,60.056779 c -4.102098,8.206608 -8.204197,12.309913 -16.408393,12.309913 l 0,20.516521 16.408393,0 0,41.033047 24.612588,0 0,-73.859481 z"
       inkscape:connector-curvature="0"
       id="path3102"
       style="fill:url(#linearGradient3829);fill-opacity:1;stroke:none;display:inline" />
    <path
       d="m 100.91815,15.561574 c -20.612398,0 -41.201067,8.258515 -56.916607,23.978684 -16.239714,16.244489 -24.000535,37.7298 -23.458873,58.984998 0.498684,-19.89446 8.258939,-39.677269 23.458873,-54.881694 15.71554,-15.720168 36.304209,-23.978684 56.916607,-23.978684 20.61241,0 41.32926,8.258516 57.0448,23.978684 15.19606,15.200527 23.05937,34.895976 23.58707,54.753466 0.52291,-21.233492 -7.34068,-42.605593 -23.58707,-58.85677 C 142.24741,23.820089 121.53056,15.561574 100.91815,15.561574 z M 88.868242,60.056779 c -4.102098,8.206608 -8.204197,12.309913 -16.408393,12.309913 l 0,4.103304 c 8.204196,0 12.306295,-4.103304 16.408393,-12.309913 l 24.612588,0 0,-4.103304 -24.612588,0 z M 40.668589,98.525256 c -0.02338,0.689683 -0.128191,1.356306 -0.128191,2.051654 0,33.34747 27.040067,60.52374 60.377752,60.52374 33.33769,0 60.50595,-27.17627 60.50595,-60.52374 0,-0.695348 -0.10477,-1.361971 -0.12819,-2.051654 -1.10043,32.391194 -27.73521,58.472084 -60.37776,58.472084 -32.642548,0 -59.15426,-26.08089 -60.249561,-58.472084 z M 170.14106,149.04719 c -0.31086,4.40063 0.30827,8.89966 3.46114,12.05346 4.79791,4.7993 10.60709,3.17296 17.94668,10.51471 l 42.43108,42.31533 c 0.0822,0.1034 3.33591,3.51977 4.1021,8.20661 1.38722,-6.75917 -3.9971,-12.17758 -4.1021,-12.30992 l -42.43108,-42.31532 c -7.33959,-7.34176 -13.14877,-5.71541 -17.94668,-10.51472 -2.16215,-2.16281 -3.13674,-4.97148 -3.46114,-7.95015 z"
       inkscape:connector-curvature="0"
       id="path3081"
       style="opacity:0.75;fill:#ffffff;fill-opacity:1;stroke:none;display:inline" />
    <path
       d="m 100.91815,31.974791 c -33.337681,0 -60.377752,27.048037 -60.377752,60.395509 0,0.695346 0.10485,1.361845 0.128191,2.051652 1.095301,-32.386108 27.607018,-58.343857 60.249561,-58.343857 32.64254,0 59.27733,25.957749 60.37776,58.343857 0.0234,-0.689807 0.12819,-1.356306 0.12819,-2.051652 0,-33.347472 -27.16828,-60.395509 -60.50595,-60.395509 z m -28.458301,56.805117 0,4.103305 16.408393,0 0,-4.103305 -16.408393,0 z m 109.090171,5.513815 c -0.278,11.287697 -2.90983,22.539657 -7.94782,32.954667 -0.34338,0.73318 -4.32353,9.77706 -3.46114,17.6955 0.46903,-6.63968 3.17694,-12.98536 3.46114,-13.5922 5.65068,-11.68161 8.2842,-24.3996 7.94782,-37.057967 z M 20.54267,94.421747 c -0.532518,21.244163 7.227737,42.620863 23.458873,58.856773 24.882938,24.89023 61.786437,29.90673 91.784437,15.38739 0.78943,-0.38202 1.78468,-0.74471 2.56382,-1.15406 4.86958,-1.92371 16.9903,-5.70109 23.45887,0.76937 4.79792,4.79935 3.17204,11.12312 10.51163,18.46487 l 42.81565,42.44356 c 0.0509,-0.0509 9.24966,9.59713 18.84401,0 3.97626,-3.97746 4.64083,-7.86042 4.1021,-11.15586 -0.46241,2.25304 -1.69425,4.64399 -4.1021,7.05255 -9.59435,9.59714 -18.79307,-0.0509 -18.84401,0 L 172.3203,182.64299 c -7.33959,-7.34175 -5.71371,-13.66552 -10.51163,-18.46486 -6.46857,-6.47046 -18.58929,-2.69309 -23.45887,-0.76937 -0.77914,0.40951 -1.77439,0.77199 -2.56382,1.15405 -29.998,14.51934 -66.901499,9.50284 -91.784437,-15.38739 C 28.810182,133.97961 21.049365,114.30501 20.54267,94.421952 z m 68.325572,35.391203 0,4.10331 24.612588,0 0,-4.10331 -24.612588,0 z"
       inkscape:connector-curvature="0"
       id="path3858"
       style="opacity:0.15;fill:#000000;fill-opacity:1;stroke:none;display:inline" />
  </g>
</svg>
